<svg xmlns="http://www.w3.org/2000/svg" xmlns:xlink="http://www.w3.org/1999/xlink" width="24" height="24" viewBox="0 0 24 24" fill="none"><path     fill="#034FA1"  d="M14.0733 1.60729C14.0567 1.58985 14.0403 1.57432 14.0233 1.55729C14.0063 1.54027 13.9907 1.52388 13.9733 1.50729C13.9558 1.49071 13.9312 1.47343 13.9133 1.45729C13.8954 1.44116 13.8816 1.43297 13.8633 1.41729C13.845 1.40162 13.8219 1.3825 13.8033 1.36729C13.7846 1.35209 13.7723 1.33202 13.7533 1.31729C13.7342 1.30257 13.7127 1.29154 13.6933 1.27729C13.6739 1.26306 13.653 1.25104 13.6333 1.23729C13.6135 1.22355 13.5934 1.21053 13.5733 1.19729C13.5532 1.18406 13.5337 1.17002 13.5133 1.15729C13.4928 1.14457 13.474 1.12949 13.4533 1.11729C13.4325 1.1051 13.4044 1.09896 13.3833 1.08729C13.3622 1.07563 13.3446 1.05842 13.3233 1.04729C13.3019 1.03617 13.2849 1.02788 13.2633 1.01729C13.2416 1.00671 13.2152 0.997326 13.1933 0.987295C13.1714 0.977264 13.1554 0.957295 13.1333 0.957295C13.1112 0.957295 13.0857 0.927295 13.0633 0.927295C13.0409 0.927295 13.0159 0.897295 12.9933 0.897295C12.9707 0.897295 12.9461 0.877295 12.9233 0.877295C12.9005 0.877295 12.8763 0.857295 12.8533 0.857295C12.8303 0.857295 12.8064 0.837295 12.7833 0.837295C12.7601 0.837295 12.7366 0.817295 12.7133 0.817295C12.69 0.817295 12.6767 0.797295 12.6533 0.797295C12.6298 0.797295 12.5969 0.787295 12.5733 0.787295C12.5497 0.787295 12.527 0.767295 12.5033 0.767295C12.4796 0.767295 12.4571 0.757295 12.4333 0.757295C12.4095 0.757295 12.3872 0.747295 12.3633 0.747295C12.3394 0.747295 12.3172 0.737295 12.2933 0.737295C12.2693 0.737295 12.2473 0.737295 12.2233 0.737295C12.1993 0.737295 12.1673 0.727295 12.1433 0.727295C12.1192 0.727295 12.0974 0.727295 12.0733 0.727295C12.0492 0.727295 12.0274 0.727295 12.0033 0.727295C11.2178 0.727295 10.4814 1.03706 9.93328 1.60729L1.11328 10.7973C0.203229 11.7458 0.311994 12.5652 0.463281 12.9073C0.570346 13.1494 1.01056 13.6473 2.05328 13.6473L3.44328 13.6473L3.44328 20.1573C3.44328 21.9029 4.42588 23.2773 6.06328 23.2773L9.62328 23.2773C9.73374 23.2773 9.82328 23.1877 9.82328 23.0773L9.82328 16.5173C9.82328 15.7143 9.93278 15.1273 10.5333 15.1273L13.3633 15.1273C14.0662 15.1273 14.1833 15.6258 14.1833 16.5173L14.1833 23.0773C14.1833 23.1877 14.2728 23.2773 14.3833 23.2773L17.9433 23.2773C19.5807 23.2773 20.7333 21.7621 20.7333 20.1573L20.7333 13.6473L22.0933 13.6473C23.136 13.6473 23.4262 13.1494 23.5333 12.9073C23.6847 12.564 23.8034 11.7458 22.8933 10.7973L14.0733 1.60729ZM19.4933 12.3673L19.4933 20.1573C19.4933 20.9603 18.7114 22.0573 17.8933 22.0573L15.5433 22.0573L15.5433 16.5173C15.5433 14.838 15.0207 13.8173 13.3833 13.8173L10.6333 13.8173C8.99588 13.8173 8.54328 14.9125 8.54328 16.5173L8.54328 22.0573L6.06328 22.0573C5.24516 22.0573 4.73328 20.9591 4.73328 20.1573L4.73328 12.3673L1.59328 12.3673C1.64332 12.2788 1.96014 11.8274 2.10328 11.6773L10.8633 2.61729C11.1263 2.34149 11.6425 1.95729 12.0033 1.95729C12.3641 1.95729 12.9291 2.34149 13.1933 2.61729L21.9133 11.6773C22.0576 11.8274 22.4932 12.2788 22.5433 12.3673L19.4933 12.3673Z"></path><path   fill="rgba(3, 79, 161, 1)"  d="M14.0008 1.67621M14.0008 1.67621Q13.9909 1.66583 13.9701 1.64534Q13.9586 1.63402 13.9526 1.62801Q13.9465 1.62198 13.9351 1.61034Q13.9147 1.58961 13.9044 1.57979Q13.8981 1.57382 13.8785 1.55826Q13.8568 1.54103 13.8463 1.53155Q13.8399 1.52574 13.8262 1.51546Q13.8089 1.50243 13.7982 1.49319Q13.7733 1.47183 13.7401 1.44482Q13.7249 1.43241 13.7045 1.4095Q13.6946 1.39833 13.6921 1.3964Q13.6858 1.39155 13.6682 1.38051Q13.6461 1.36672 13.6341 1.35793Q13.6257 1.35173 13.6055 1.33874Q13.5863 1.32643 13.5762 1.31938Q13.5612 1.30896 13.5296 1.28822Q13.522 1.28327 13.5183 1.28083Q13.5098 1.27524 13.4937 1.26427Q13.4712 1.24887 13.4604 1.24219Q13.4489 1.23502 13.4289 1.22102Q13.4106 1.20818 13.4026 1.2035Q13.3996 1.20172 13.3825 1.19543Q13.3517 1.18411 13.3348 1.17478Q13.3191 1.16605 13.2953 1.1485Q13.2813 1.13818 13.277 1.13597Q13.2583 1.1262 13.2238 1.10931Q13.2194 1.10714 13.2193 1.10711Q13.2103 1.10272 13.1865 1.09299Q13.1633 1.08353 13.1516 1.0782Q13.1355 1.07084 13.114 1.05589Q13.1094 1.05271 13.1079 1.05171L13.1084 1.05193Q13.1192 1.05729 13.1333 1.05729Q13.0934 1.05729 13.0453 1.02704Q13.0382 1.02255 13.0374 1.0222Q13.0481 1.02729 13.0633 1.02729Q13.0232 1.02729 12.9751 0.996911Q12.9681 0.992484 12.9674 0.992169Q12.9781 0.997295 12.9933 0.997295Q12.9617 0.997295 12.9195 0.979434Q12.9118 0.976178 12.9102 0.975672Q12.9153 0.977295 12.9233 0.977295Q12.8916 0.977295 12.8493 0.959373Q12.8417 0.956148 12.8402 0.955661Q12.8453 0.957295 12.8533 0.957295Q12.8214 0.957295 12.7792 0.939318Q12.7717 0.936119 12.7702 0.935652Q12.7754 0.937295 12.7833 0.937295Q12.7512 0.937295 12.7091 0.919262Q12.7017 0.916092 12.7002 0.91564Q12.7054 0.917295 12.7133 0.917295Q12.6761 0.917295 12.6354 0.895075L12.6335 0.893816Q12.6426 0.897295 12.6533 0.897295Q12.6328 0.897295 12.596 0.890774Q12.5763 0.887295 12.5733 0.887295Q12.5408 0.887295 12.4987 0.869129Q12.4915 0.866024 12.4903 0.865618Q12.4955 0.867295 12.5033 0.867295Q12.4808 0.867295 12.4472 0.860043Q12.4345 0.857295 12.4333 0.857295Q12.4107 0.857295 12.3772 0.850034Q12.3645 0.847295 12.3633 0.847295Q12.3406 0.847295 12.3071 0.840025Q12.2945 0.837295 12.2933 0.837295L12.2571 0.837295L12.2233 0.837295Q12.2024 0.837295 12.1657 0.83074Q12.1464 0.827295 12.1433 0.827295L12.1066 0.827295L12.0733 0.827295L12.0363 0.827295L12.0033 0.827295Q11.433 0.827295 10.9183 1.04552Q10.4013 1.26471 10.0054 1.67659L1.18543 10.8665Q0.604185 11.4723 0.488615 12.0978Q0.40789 12.5347 0.554739 12.8669Q0.657121 13.0983 0.959472 13.2827Q1.39342 13.5473 2.05328 13.5473L3.54328 13.5473L3.54328 20.1573Q3.54328 20.7962 3.71779 21.3512Q3.89112 21.9025 4.21728 22.3094Q4.54955 22.7239 5.00671 22.9453Q5.48581 23.1773 6.06328 23.1773L9.62328 23.1773C9.67851 23.1773 9.72328 23.1325 9.72328 23.0773L9.72328 16.5173Q9.72328 15.8144 9.86072 15.4829Q10.0496 15.0273 10.5333 15.0273L13.3633 15.0273Q13.9199 15.0273 14.1264 15.4436Q14.2833 15.7596 14.2833 16.5173L14.2833 23.0773C14.2833 23.1325 14.3281 23.1773 14.3833 23.1773L17.9433 23.1773Q18.5166 23.1773 19.0257 22.9258Q19.5073 22.6879 19.8761 22.2543Q20.2361 21.8311 20.4336 21.2877Q20.6333 20.7383 20.6333 20.1573L20.6333 13.5473L22.0933 13.5473Q23.1409 13.5473 23.4418 12.8668Q23.5901 12.5305 23.5129 12.0967Q23.4016 11.4714 22.8211 10.8665L14.0011 1.67654L14.0008 1.67621ZM14.1454 1.53805L22.9654 10.7281Q23.5879 11.3767 23.7098 12.0617Q23.7977 12.5555 23.6247 12.9477Q23.2711 13.7473 22.0933 13.7473L20.7333 13.7473L20.7333 13.6473L20.8333 13.6473L20.8333 20.1573Q20.8333 20.7735 20.6216 21.356Q20.4118 21.9332 20.0285 22.3839Q19.6329 22.8489 19.1143 23.1051Q18.5633 23.3773 17.9433 23.3773L14.3833 23.3773C14.2176 23.3773 14.0833 23.243 14.0833 23.0773L14.0833 16.5173Q14.0833 15.8065 13.9473 15.5324Q13.7959 15.2273 13.3633 15.2273L10.5333 15.2273Q10.1832 15.2273 10.0455 15.5595Q9.92328 15.8542 9.92328 16.5173L9.92328 23.0773C9.92328 23.243 9.78897 23.3773 9.62328 23.3773L6.06328 23.3773Q5.43993 23.3773 4.91954 23.1253Q4.42174 22.8842 4.06123 22.4344Q3.71159 21.9983 3.527 21.4112Q3.34328 20.8269 3.34328 20.1573L3.34328 13.6473L3.44328 13.6473L3.44328 13.7473L2.05328 13.7473Q1.33726 13.7473 0.85535 13.4534Q0.499541 13.2365 0.371823 12.9477Q0.199997 12.5591 0.291943 12.0615Q0.418398 11.3771 1.04113 10.7281L9.86119 1.538Q10.2855 1.09657 10.8402 0.861388Q11.3924 0.627295 12.0033 0.627295L12.0363 0.627295L12.0733 0.627295L12.1066 0.627295L12.1433 0.627295Q12.1642 0.627295 12.2009 0.633857Q12.2201 0.637295 12.2233 0.637295L12.2571 0.637295L12.2933 0.637295Q12.316 0.637295 12.3495 0.644575Q12.3621 0.647295 12.3633 0.647295Q12.3859 0.647295 12.4195 0.65457Q12.4321 0.657295 12.4333 0.657295Q12.4559 0.657295 12.4895 0.664561Q12.5021 0.667295 12.5033 0.667295Q12.5358 0.667295 12.578 0.685496Q12.5852 0.688591 12.5864 0.688993Q12.5811 0.687295 12.5733 0.687295Q12.5939 0.687295 12.6308 0.693838Q12.6504 0.697295 12.6533 0.697295Q12.6906 0.697295 12.7313 0.719558L12.7332 0.720804Q12.724 0.717295 12.7133 0.717295Q12.7454 0.717295 12.7877 0.735371Q12.7951 0.73853 12.7965 0.738975Q12.7912 0.737295 12.7833 0.737295Q12.8153 0.737295 12.8576 0.755331Q12.8651 0.758511 12.8665 0.758972Q12.8613 0.757295 12.8533 0.757295Q12.8851 0.757295 12.9275 0.775276Q12.9351 0.778485 12.9365 0.778963Q12.9313 0.777295 12.9233 0.777295Q12.955 0.777295 12.9974 0.795223Q13.005 0.79846 13.0066 0.798956Q13.0014 0.797295 12.9933 0.797295Q13.0335 0.797295 13.0818 0.827782Q13.0888 0.832183 13.0894 0.832484Q13.0786 0.827295 13.0633 0.827295Q13.1033 0.827295 13.1517 0.85769Q13.1588 0.862136 13.1595 0.862475Q13.1487 0.857295 13.1333 0.857295Q13.1786 0.857295 13.228 0.891552Q13.2332 0.895196 13.235 0.896333L13.2349 0.896386Q13.2427 0.899931 13.2619 0.907781Q13.2921 0.920069 13.3073 0.927481Q13.3093 0.928478 13.3117 0.929667Q13.3485 0.947685 13.3695 0.958624Q13.3875 0.968021 13.414 0.987557Q13.4273 0.997381 13.4317 0.999812Q13.4351 1.0017 13.4515 1.00773Q13.4854 1.02021 13.504 1.03109Q13.5187 1.03978 13.5436 1.05716Q13.5592 1.06807 13.5661 1.0724Q13.5804 1.0813 13.6064 1.09906Q13.6212 1.10909 13.6283 1.11376Q13.6319 1.11618 13.6393 1.121Q13.6731 1.14321 13.6904 1.15521Q13.6975 1.16014 13.7136 1.17047Q13.739 1.1868 13.7524 1.19666Q13.7584 1.20107 13.7742 1.21092Q13.8003 1.22724 13.8145 1.23819Q13.8317 1.25153 13.854 1.27665Q13.8637 1.28753 13.8664 1.28977Q13.9016 1.31838 13.9284 1.3414Q13.9344 1.34651 13.9466 1.35574Q13.9673 1.37136 13.9803 1.38304Q13.9861 1.38829 14.0029 1.40161Q14.0295 1.42274 14.0422 1.4348Q14.055 1.44697 14.0778 1.47017Q14.0886 1.48115 14.094 1.48658Q14.0994 1.49199 14.1103 1.50271Q14.1336 1.52556 14.1457 1.53838L14.1454 1.53805ZM19.5933 12.3673L19.5933 20.1573Q19.5933 20.4739 19.4512 20.83Q19.3138 21.1744 19.0784 21.4706Q18.8328 21.7796 18.5407 21.9586Q18.2164 22.1573 17.8933 22.1573L15.4433 22.1573L15.4433 16.5173Q15.4433 15.2162 14.9962 14.596Q14.5068 13.9173 13.3833 13.9173L10.6333 13.9173Q9.52889 13.9173 9.05734 14.6211Q8.64328 15.2392 8.64328 16.5173L8.64328 22.1573L6.06328 22.1573Q5.73844 22.1573 5.45252 21.9548Q5.20028 21.7761 5.00628 21.4603Q4.82903 21.1718 4.72979 20.8196Q4.63328 20.477 4.63328 20.1573L4.63328 12.3673L4.73328 12.3673L4.73328 12.4673L1.42181 12.4673L1.50625 12.3181L1.42181 12.4673L1.50625 12.3181Q1.55561 12.2308 1.73238 11.9868Q1.92949 11.7147 2.0309 11.6083L10.7914 2.54778Q11.0318 2.29565 11.3433 2.09927Q11.7271 1.85729 12.0033 1.85729Q12.2812 1.85729 12.6856 2.09793Q13.0312 2.30355 13.2655 2.54812L21.9853 11.6079Q21.99 11.6128 22.0057 11.6291Q22.5762 12.2225 22.6303 12.318L22.7148 12.4673L19.4933 12.4673L19.4933 12.3673L19.5933 12.3673ZM19.3933 12.2673L22.5433 12.2673L22.5433 12.3673L22.4563 12.4165Q22.4146 12.3429 21.8615 11.7677Q21.8469 11.7525 21.8412 11.7466L13.1211 2.68647Q12.9056 2.46153 12.5834 2.26981Q12.2262 2.05729 12.0033 2.05729Q11.7849 2.05729 11.45 2.26846Q11.1594 2.45161 10.9352 2.68681L2.17566 11.7463Q2.08355 11.8429 1.89435 12.1041Q1.72416 12.339 1.68032 12.4165L1.59328 12.3673L1.68032 12.4165L1.59328 12.3673L1.59328 12.2673L4.83328 12.2673L4.83328 20.1573Q4.83328 20.4494 4.9223 20.7653Q5.014 21.0908 5.17669 21.3556Q5.54632 21.9573 6.06328 21.9573L8.54328 21.9573L8.54328 22.0573L8.44328 22.0573L8.44328 16.5173Q8.44328 15.1784 8.89118 14.5098Q9.42214 13.7173 10.6333 13.7173L13.3833 13.7173Q14.6092 13.7173 15.1584 14.4791Q15.6433 15.1516 15.6433 16.5173L15.6433 22.0573L15.5433 22.0573L15.5433 21.9573L17.8933 21.9573Q18.16 21.9573 18.4362 21.7881Q18.6982 21.6276 18.9218 21.3462Q19.1389 21.073 19.2654 20.7559Q19.3933 20.4355 19.3933 20.1573L19.3933 12.3673L19.3933 12.2673Z"></path><rect  x="9.45458984375" y="8.727294921875" width="5.090909957885742" height="1.4545459747314453" rx="0.7272729873657227"    fill="#CC4E1D" ></rect><rect  x="12.7275390625" y="6.9091796875" width="5.090909957885742" height="1.4545459747314453" transform="rotate(90 12.7275390625 6.9091796875)" rx="0.7272729873657227"    fill="#CC4E1D" ></rect></svg>