<svg xmlns="http://www.w3.org/2000/svg" xmlns:xlink="http://www.w3.org/1999/xlink" width="24" height="24" viewBox="0 0 24 24" fill="none"><path d="M11.8689 8.4502C10.0869 8.4502 8.6416 9.89554 8.6416 11.6774C8.6416 13.4593 10.0869 14.9047 11.8689 14.9047C13.6508 14.9047 15.0961 13.4593 15.0961 11.6774C15.0961 9.89554 13.6508 8.4502 11.8689 8.4502ZM11.8689 13.6138C10.8039 13.6138 9.9325 12.7424 9.9325 11.6774C9.9325 10.6125 10.8039 9.74109 11.8689 9.74109C12.9338 9.74109 13.8052 10.6125 13.8052 11.6774C13.8052 12.7424 12.9338 13.6138 11.8689 13.6138Z" stroke="rgba(204, 78, 29, 1)" stroke-width="0.2"      fill="#CC4E1D" ></path><path d="M20.9948 7.85773C20.1327 7.63183 19.2498 8.14588 19.0193 9.00571C19.0054 9.05643 19.0054 9.10253 18.9939 9.15324L18.5098 9.19935C18.0442 7.95455 17.2397 6.86881 16.2069 6.06892L16.5758 5.32665L16.5896 5.32665C16.834 5.32665 17.0806 5.26902 17.3065 5.15837C17.6938 4.96474 17.9773 4.63509 18.1202 4.22939C18.2562 3.82368 18.2309 3.38339 18.0373 2.99612C17.6338 2.20314 16.668 1.87811 15.8704 2.26999C15.0751 2.66878 14.7501 3.63235 15.142 4.43224C15.2065 4.56824 15.2964 4.69042 15.4001 4.80107L15.1166 5.36814C14.1415 4.87022 13.0396 4.57977 11.8709 4.57977C11.1217 4.57977 10.4002 4.69503 9.72248 4.91633L9.56111 4.64432C9.67176 4.51523 9.76167 4.36078 9.82621 4.19251C10.1443 3.36034 9.72939 2.42674 8.89722 2.10863C8.06966 1.78821 7.13837 2.20083 6.82026 3.02839C6.66581 3.42719 6.67734 3.87209 6.85253 4.26397C7.02772 4.66506 7.34353 4.96704 7.74924 5.11688C7.93596 5.19525 8.1296 5.22753 8.32323 5.22753C8.34859 5.22753 8.38086 5.22061 8.40622 5.22061L8.52148 5.42808C7.83684 5.7969 7.22366 6.27408 6.69578 6.83423L4.72024 5.28516C4.77095 5.07769 4.78479 4.8587 4.7456 4.63971C4.68105 4.21325 4.44823 3.83981 4.09323 3.59316C3.74745 3.34189 3.31408 3.24277 2.89223 3.31654C2.46577 3.38108 2.09233 3.61391 1.84568 3.9689C1.59441 4.31698 1.49068 4.74344 1.56214 5.1699C1.71198 6.04817 2.54184 6.6406 3.42011 6.49998C3.60683 6.46771 3.77511 6.40317 3.93648 6.31326L5.89819 7.85543C5.16053 8.99649 4.76865 10.3243 4.76865 11.682C4.76865 12.6686 4.9692 13.6045 5.33572 14.4644L4.85163 14.6649C4.66492 14.5036 4.44592 14.3745 4.19235 14.3168C3.77972 14.2085 3.33943 14.2707 2.97291 14.492C2.60408 14.711 2.34129 15.0591 2.23064 15.4787C2.11999 15.8982 2.18454 16.3316 2.40584 16.6981C2.62713 17.0646 2.97291 17.3297 3.39245 17.4404C3.53537 17.4726 3.66907 17.4911 3.79816 17.4911C4.53352 17.4888 5.17667 16.9908 5.35877 16.2785C5.39796 16.131 5.40488 15.9812 5.40488 15.8336L5.95351 15.6008C6.93091 17.0669 8.41544 18.1181 10.1213 18.5561L10.0383 18.8004C9.79394 18.8327 9.5542 18.9157 9.34212 19.0586C8.98713 19.3029 8.74739 19.6718 8.67132 20.0913C8.59294 20.5178 8.68515 20.9442 8.92258 21.2969C9.16693 21.6519 9.53576 21.8917 9.9553 21.9746C10.0521 21.9931 10.1559 22 10.2527 22C10.5754 22 10.8912 21.9032 11.1632 21.7165C11.5182 21.4721 11.7579 21.1033 11.834 20.6837C11.9124 20.2642 11.8202 19.8308 11.5828 19.4781C11.4998 19.356 11.3891 19.2453 11.2785 19.1554L11.4145 18.7543C11.562 18.7612 11.7188 18.7797 11.8663 18.7797C13.3946 18.7797 14.81 18.2887 15.9695 17.4634L17.7837 19.1854C17.6869 19.4366 17.6546 19.7087 17.6938 19.9853C17.7583 20.4117 17.9842 20.7852 18.3323 21.0434C18.6758 21.2992 19.1092 21.4053 19.5333 21.3407C19.9598 21.2762 20.3332 21.0503 20.5914 20.7022C20.8496 20.3541 20.9533 19.9276 20.8888 19.5012C20.8265 19.077 20.596 18.6967 20.2502 18.4431C19.9021 18.1849 19.4757 18.0812 19.0492 18.1457C18.9201 18.1642 18.798 18.2034 18.6804 18.2564L16.9584 16.6174C18.1963 15.3403 18.9662 13.5976 18.9662 11.6797C18.9662 11.2671 18.9201 10.8591 18.8556 10.4672L19.3212 10.4211C19.5287 10.6862 19.8192 10.8867 20.1672 10.9836C20.3032 11.0227 20.4439 11.0343 20.5799 11.0343C21.2968 11.0343 21.9468 10.5571 22.1405 9.83327C22.3687 8.97344 21.8523 8.09056 20.9948 7.85773ZM16.4375 3.42949C16.5135 3.39261 16.6034 3.388 16.6818 3.41566C16.7279 3.42949 16.8178 3.47329 16.8685 3.57702C16.9492 3.73378 16.8893 3.9251 16.7325 4.00579C16.7302 4.00579 16.7279 4.00809 16.7256 4.00809C16.5689 4.08877 16.3775 4.02884 16.2968 3.87209C16.2968 3.86978 16.2945 3.86748 16.2945 3.86517C16.2185 3.70842 16.2807 3.51478 16.4375 3.42949ZM8.02356 3.74069C7.99129 3.66231 7.98898 3.57472 8.01665 3.49634C8.06736 3.36725 8.19184 3.28888 8.32093 3.28888C8.36012 3.28888 8.3993 3.29579 8.43619 3.30732C8.54684 3.34651 8.59755 3.42949 8.61599 3.47559C8.68745 3.63926 8.61138 3.83059 8.44771 3.90205C8.36934 3.93663 8.28174 3.93663 8.20336 3.90666C8.12268 3.879 8.05814 3.81907 8.02356 3.74069ZM2.84152 4.95321C2.82307 4.83795 2.86687 4.75266 2.89223 4.71347C2.91759 4.67428 2.98905 4.60282 3.10431 4.58438C3.12275 4.57747 3.14349 4.57747 3.15502 4.57747C3.24492 4.57747 3.30947 4.61665 3.34174 4.63509C3.38093 4.66045 3.45239 4.73191 3.47083 4.84256C3.49619 5.01775 3.38093 5.18373 3.20573 5.216C3.03515 5.24597 2.86918 5.1284 2.84152 4.95321ZM4.11167 15.9489C4.08632 16.0596 4.00794 16.1241 3.96414 16.1425C3.91804 16.1679 3.82813 16.2071 3.71979 16.1748C3.5492 16.1333 3.44317 15.9604 3.48466 15.7875C3.48466 15.7852 3.48697 15.7829 3.48697 15.7806C3.52154 15.6377 3.64833 15.5363 3.79586 15.5363C3.82122 15.5363 3.84658 15.5363 3.87424 15.5501C3.98489 15.5755 4.04943 15.6538 4.07479 15.6976C4.10476 15.7507 4.14395 15.8406 4.11167 15.9489ZM10.5731 20.4486C10.5662 20.4993 10.5339 20.5915 10.4371 20.6561C10.3403 20.7206 10.2434 20.7137 10.1973 20.7068C10.1121 20.693 10.036 20.6446 9.98988 20.5708C9.92533 20.474 9.93225 20.3772 9.93916 20.3311C9.94608 20.2849 9.97835 20.1881 10.0752 20.1236C10.1443 20.0752 10.2296 20.0567 10.3149 20.0729C10.3656 20.0798 10.4578 20.1121 10.5224 20.2089C10.5846 20.3057 10.5846 20.4025 10.5731 20.4486ZM19.6071 19.6994C19.6324 19.8746 19.5126 20.0406 19.3351 20.066C19.1599 20.0913 18.9939 19.9714 18.9685 19.7939C18.9432 19.6188 19.0631 19.4551 19.2383 19.4274C19.2567 19.4274 19.2705 19.4205 19.289 19.4205C19.3789 19.4205 19.4434 19.4597 19.4826 19.4851C19.5218 19.5127 19.5933 19.5819 19.6071 19.6994ZM11.8686 17.4865C8.66671 17.4865 6.05955 14.8793 6.05955 11.6774C6.05955 8.47552 8.66671 5.86837 11.8686 5.86837C15.0705 5.86837 17.6776 8.47552 17.6776 11.6774C17.6776 14.8793 15.0705 17.4865 11.8686 17.4865ZM20.8911 9.50363C20.845 9.67882 20.6652 9.78025 20.4969 9.73645C20.324 9.69266 20.2226 9.51746 20.2664 9.34457C20.3032 9.20396 20.43 9.10484 20.5753 9.10484C20.6006 9.10484 20.6329 9.11175 20.6582 9.11867C20.8334 9.15555 20.9349 9.32844 20.8911 9.50363Z" stroke="rgba(3, 79, 161, 1)" stroke-width="0.2"      fill="#034FA1" ></path></svg>