<svg xmlns="http://www.w3.org/2000/svg" xmlns:xlink="http://www.w3.org/1999/xlink" width="24" height="24" viewBox="0 0 24 24" fill="none"><path   fill="rgba(3, 79, 161, 1)"  d="M4.0541 2.10906L10.1268 2.10906C10.9 2.10906 11.5268 2.73586 11.5268 3.50906L11.5268 9.58179C11.5268 10.355 10.9 10.9818 10.1268 10.9818L4.0541 10.9818C3.2809 10.9818 2.6541 10.355 2.6541 9.58179L2.6541 3.50906C2.6541 2.73586 3.2809 2.10906 4.0541 2.10906ZM4.0541 3.70906C4.16456 3.70906 4.2541 3.61951 4.2541 3.50906L4.2541 9.58179C4.2541 9.47133 4.16456 9.38179 4.0541 9.38179L10.1268 9.38179C10.0164 9.38179 9.92683 9.47133 9.92683 9.58179L9.92683 3.50906C9.92683 3.61951 10.0164 3.70906 10.1268 3.70906L4.0541 3.70906Z"></path><path d="M17.2726 10.6834C17.0335 10.6834 16.7933 10.6216 16.58 10.4989L13.7835 8.88349C13.3568 8.6371 13.0908 8.17732 13.0908 7.68455L13.0908 4.45372C13.0908 3.96096 13.3557 3.50118 13.7835 3.25479L16.58 1.63938C17.0067 1.39299 17.5375 1.39299 17.9643 1.63938L20.7618 3.25479C21.1885 3.50118 21.4545 3.96096 21.4545 4.45372L21.4545 7.68455C21.4545 8.17732 21.1896 8.6371 20.7618 8.88349L17.9653 10.4989C17.7519 10.6216 17.5118 10.6834 17.2726 10.6834ZM17.2726 2.37853C17.1933 2.37853 17.1139 2.39915 17.0428 2.44038L14.2453 4.0558C14.103 4.13724 14.0154 4.28981 14.0154 4.45372L14.0154 7.68455C14.0154 7.84847 14.103 8.00104 14.2453 8.08248L17.0428 9.69789C17.185 9.77934 17.3603 9.77934 17.5025 9.69789L20.3 8.08248C20.4422 8.00104 20.5299 7.84847 20.5299 7.68455L20.5299 4.45372C20.5299 4.28981 20.4422 4.13724 20.3 4.0558L17.5025 2.44038C17.4314 2.39915 17.352 2.37853 17.2726 2.37853Z" stroke="rgba(204, 78, 29, 1)" stroke-width="0.1"      fill="#CC4E1D" ></path><path d="M16.8053 6.38495L15.371 5.63427C15.1189 5.49046 15.0353 5.17128 15.1807 4.92193C15.3262 4.67258 15.6467 4.5878 15.8988 4.73161L17.3581 5.48428L18.7165 4.77482C18.9675 4.62985 19.2909 4.71121 19.4375 4.95939C19.5841 5.20758 19.4982 5.52678 19.2472 5.67174L17.858 6.40953L17.858 8.08232C17.858 8.36879 17.624 8.60433 17.3331 8.60433C17.0422 8.60433 16.8053 8.36994 16.8053 8.08232L16.8053 6.38495Z" stroke="rgba(204, 78, 29, 1)" stroke-width="0.1"    fill-rule="evenodd"  fill="#CC4E1D" ></path><path   fill="rgba(3, 79, 161, 1)"  d="M4.0541 12.6546L10.1268 12.6546C10.9 12.6546 11.5268 13.2814 11.5268 14.0546L11.5268 20.1273C11.5268 20.9005 10.9 21.5273 10.1268 21.5273L4.0541 21.5273C3.2809 21.5273 2.6541 20.9005 2.6541 20.1273L2.6541 14.0546C2.6541 13.2814 3.2809 12.6546 4.0541 12.6546ZM4.0541 14.2546C4.16456 14.2546 4.2541 14.165 4.2541 14.0546L4.2541 20.1273C4.2541 20.0169 4.16456 19.9273 4.0541 19.9273L10.1268 19.9273C10.0164 19.9273 9.92683 20.0169 9.92683 20.1273L9.92683 14.0546C9.92683 14.165 10.0164 14.2546 10.1268 14.2546L4.0541 14.2546Z"></path><path   fill="rgba(3, 79, 161, 1)"  d="M14.4184 12.6546L20.4911 12.6546C21.2643 12.6546 21.8911 13.2814 21.8911 14.0546L21.8911 20.1273C21.8911 20.9005 21.2643 21.5273 20.4911 21.5273L14.4184 21.5273C13.6452 21.5273 13.0184 20.9005 13.0184 20.1273L13.0184 14.0546C13.0184 13.2814 13.6452 12.6546 14.4184 12.6546ZM14.4184 14.2546C14.5288 14.2546 14.6184 14.165 14.6184 14.0546L14.6184 20.1273C14.6184 20.0169 14.5288 19.9273 14.4184 19.9273L20.4911 19.9273C20.3806 19.9273 20.2911 20.0169 20.2911 20.1273L20.2911 14.0546C20.2911 14.165 20.3806 14.2546 20.4911 14.2546L14.4184 14.2546Z"></path></svg>