<svg xmlns="http://www.w3.org/2000/svg" xmlns:xlink="http://www.w3.org/1999/xlink" width="24" height="24" viewBox="0 0 24 24" fill="none"><path d="M3.66668 2.79442L3.66668 7.35001L11.5556 7.35001C11.8001 7.35001 12.0001 7.55001 12.0001 7.79446L12.0001 13.1834L20.3335 13.1834L20.3335 9.46113C20.3335 9.21669 20.5335 9.01669 20.7779 9.01669L21.5557 9.01669C21.8001 9.01669 22.0001 9.21669 22.0001 9.46113L22.0001 21.0723C22.0001 21.0796 22 21.0869 21.9996 21.0941C21.9992 21.1014 21.9987 21.1087 21.998 21.1159C21.9973 21.1231 21.9964 21.1304 21.9953 21.1375C21.9943 21.1447 21.993 21.1519 21.9916 21.159C21.9902 21.1662 21.9886 21.1733 21.9868 21.1803C21.9851 21.1874 21.9831 21.1944 21.981 21.2013C21.9789 21.2083 21.9766 21.2152 21.9742 21.222C21.9717 21.2289 21.9691 21.2357 21.9663 21.2424C21.9635 21.2491 21.9606 21.2558 21.9575 21.2623C21.9544 21.2689 21.9511 21.2754 21.9477 21.2818C21.9442 21.2882 21.9407 21.2946 21.9369 21.3008C21.9332 21.307 21.9293 21.3132 21.9252 21.3192C21.9212 21.3253 21.917 21.3312 21.9127 21.3371C21.9083 21.3429 21.9039 21.3486 21.8992 21.3543C21.8946 21.3599 21.8899 21.3654 21.885 21.3708C21.8801 21.3762 21.8751 21.3814 21.87 21.3866C21.8648 21.3917 21.8596 21.3968 21.8541 21.4016C21.8488 21.4065 21.8433 21.4113 21.8376 21.4159C21.832 21.4205 21.8263 21.425 21.8204 21.4293C21.8146 21.4336 21.8087 21.4378 21.8026 21.4419C21.7966 21.4459 21.7904 21.4498 21.7842 21.4535C21.778 21.4573 21.7716 21.4609 21.7652 21.4643C21.7588 21.4677 21.7523 21.471 21.7457 21.4741C21.7391 21.4772 21.7325 21.4802 21.7258 21.4829C21.7191 21.4857 21.7123 21.4883 21.7054 21.4908C21.6986 21.4932 21.6917 21.4955 21.6847 21.4976C21.6777 21.4997 21.6707 21.5017 21.6637 21.5034C21.6566 21.5052 21.6495 21.5068 21.6424 21.5082C21.6352 21.5096 21.6281 21.5109 21.6209 21.512C21.6137 21.513 21.6065 21.5139 21.5992 21.5146C21.592 21.5153 21.5848 21.5159 21.5775 21.5162C21.5702 21.5166 21.563 21.5168 21.5557 21.5168L20.7779 21.5168C20.7706 21.5168 20.7634 21.5166 20.7561 21.5162C20.7488 21.5159 20.7416 21.5153 20.7344 21.5146C20.7271 21.5139 20.7199 21.513 20.7127 21.512C20.7055 21.5109 20.6983 21.5096 20.6912 21.5082C20.684 21.5068 20.677 21.5052 20.6699 21.5034C20.6629 21.5017 20.6559 21.4997 20.6489 21.4976C20.6419 21.4955 20.635 21.4932 20.6282 21.4908C20.6213 21.4883 20.6145 21.4857 20.6078 21.4829C20.6011 21.4801 20.5945 21.4772 20.5879 21.4741C20.5813 21.471 20.5748 21.4677 20.5684 21.4643C20.562 21.4609 20.5556 21.4573 20.5494 21.4535C20.5432 21.4498 20.537 21.4459 20.531 21.4419C20.5249 21.4378 20.519 21.4336 20.5131 21.4293C20.5073 21.425 20.5016 21.4205 20.496 21.4159C20.4903 21.4113 20.4848 21.4065 20.4794 21.4016C20.474 21.3967 20.4688 21.3917 20.4636 21.3866C20.4585 21.3814 20.4535 21.3762 20.4486 21.3708C20.4437 21.3654 20.439 21.3599 20.4343 21.3543C20.4297 21.3486 20.4253 21.3429 20.4209 21.3371C20.4166 21.3312 20.4124 21.3253 20.4083 21.3192C20.4043 21.3132 20.4004 21.307 20.3967 21.3008C20.3929 21.2946 20.3894 21.2882 20.3859 21.2818C20.3825 21.2754 20.3792 21.2689 20.3761 21.2623C20.373 21.2558 20.3701 21.2491 20.3673 21.2424C20.3645 21.2357 20.3619 21.2289 20.3594 21.222C20.357 21.2152 20.3547 21.2083 20.3526 21.2013C20.3505 21.1944 20.3485 21.1874 20.3468 21.1803C20.345 21.1733 20.3434 21.1662 20.342 21.159C20.3406 21.1519 20.3393 21.1447 20.3383 21.1375C20.3372 21.1304 20.3363 21.1231 20.3356 21.1159C20.3349 21.1087 20.3343 21.1014 20.334 21.0941C20.3336 21.0869 20.3335 21.0796 20.3335 21.0723L20.3335 19.0168L15.7779 19.0168C15.7706 19.0168 15.7633 19.0166 15.7561 19.0162C15.7488 19.0159 15.7415 19.0153 15.7343 19.0146C15.7271 19.0139 15.7198 19.013 15.7127 19.0119C15.7055 19.0109 15.6983 19.0096 15.6912 19.0082C15.684 19.0068 15.6769 19.0052 15.6699 19.0034C15.6628 19.0017 15.6558 18.9997 15.6489 18.9976C15.6419 18.9955 15.635 18.9932 15.6281 18.9908C15.6213 18.9883 15.6145 18.9857 15.6078 18.9829C15.6011 18.9801 15.5944 18.9772 15.5879 18.9741C15.5813 18.971 15.5748 18.9677 15.5684 18.9643C15.5619 18.9609 15.5556 18.9573 15.5494 18.9535C15.5431 18.9498 15.537 18.9459 15.531 18.9418C15.5249 18.9378 15.519 18.9336 15.5131 18.9293C15.5073 18.925 15.5015 18.9205 15.4959 18.9159C15.4903 18.9112 15.4848 18.9065 15.4794 18.9016C15.474 18.8967 15.4687 18.8917 15.4636 18.8866C15.4584 18.8814 15.4534 18.8762 15.4486 18.8708C15.4437 18.8654 15.4389 18.8599 15.4343 18.8543C15.4297 18.8486 15.4252 18.8429 15.4209 18.8371C15.4166 18.8312 15.4124 18.8253 15.4083 18.8192C15.4043 18.8132 15.4004 18.807 15.3967 18.8008C15.3929 18.7946 15.3893 18.7882 15.3859 18.7818C15.3825 18.7754 15.3792 18.7689 15.3761 18.7623C15.373 18.7558 15.37 18.7491 15.3673 18.7424C15.3645 18.7357 15.3619 18.7289 15.3594 18.722C15.3569 18.7152 15.3547 18.7083 15.3526 18.7013C15.3505 18.6944 15.3485 18.6873 15.3467 18.6803C15.345 18.6732 15.3434 18.6661 15.342 18.659C15.3405 18.6519 15.3393 18.6447 15.3382 18.6375C15.3372 18.6303 15.3363 18.6231 15.3356 18.6159C15.3349 18.6086 15.3343 18.6014 15.334 18.5941C15.3336 18.5868 15.3334 18.5796 15.3334 18.5723L15.3334 17.7945C15.3334 17.5501 15.5334 17.3501 15.7779 17.3501L20.3335 17.3501L20.3335 14.8501L3.66668 14.8501L3.66668 17.3501L15.4179 17.3501C15.6623 17.3501 15.8623 17.5501 15.8623 17.7945L15.8623 18.5723C15.8623 18.5796 15.8621 18.5868 15.8618 18.5941C15.8614 18.6014 15.8609 18.6086 15.8602 18.6159C15.8595 18.6231 15.8586 18.6303 15.8575 18.6375C15.8565 18.6447 15.8552 18.6519 15.8538 18.659C15.8524 18.6661 15.8508 18.6732 15.849 18.6803C15.8472 18.6873 15.8453 18.6944 15.8432 18.7013C15.8411 18.7083 15.8388 18.7152 15.8363 18.722C15.8339 18.7289 15.8313 18.7357 15.8285 18.7424C15.8257 18.7491 15.8228 18.7558 15.8196 18.7623C15.8165 18.7689 15.8133 18.7754 15.8098 18.7818C15.8064 18.7882 15.8028 18.7946 15.7991 18.8008C15.7953 18.807 15.7915 18.8132 15.7874 18.8192C15.7834 18.8253 15.7792 18.8312 15.7749 18.8371C15.7705 18.8429 15.766 18.8486 15.7614 18.8543C15.7568 18.8599 15.7521 18.8654 15.7472 18.8708C15.7423 18.8762 15.7373 18.8814 15.7321 18.8866C15.727 18.8917 15.7217 18.8967 15.7163 18.9016C15.7109 18.9065 15.7055 18.9112 15.6998 18.9159C15.6942 18.9205 15.6885 18.925 15.6826 18.9293C15.6768 18.9336 15.6708 18.9378 15.6648 18.9418C15.6587 18.9459 15.6526 18.9498 15.6464 18.9535C15.6401 18.9573 15.6338 18.9609 15.6274 18.9643C15.621 18.9677 15.6145 18.971 15.6079 18.9741C15.6013 18.9772 15.5947 18.9801 15.5879 18.9829C15.5812 18.9857 15.5744 18.9883 15.5676 18.9908C15.5607 18.9932 15.5538 18.9955 15.5469 18.9976C15.5399 18.9997 15.5329 19.0017 15.5259 19.0034C15.5188 19.0052 15.5117 19.0068 15.5046 19.0082C15.4974 19.0096 15.4903 19.0109 15.4831 19.0119C15.4759 19.013 15.4687 19.0139 15.4614 19.0146C15.4542 19.0153 15.4469 19.0159 15.4397 19.0162C15.4324 19.0166 15.4251 19.0168 15.4179 19.0168L3.66668 19.0168L3.66668 21.0723C3.66668 21.0796 3.6665 21.0869 3.66614 21.0941C3.66579 21.1014 3.66525 21.1087 3.66453 21.1159C3.66382 21.1231 3.66293 21.1304 3.66186 21.1375C3.6608 21.1447 3.65956 21.1519 3.65813 21.159C3.65671 21.1662 3.65512 21.1733 3.65335 21.1803C3.65159 21.1874 3.64965 21.1944 3.64754 21.2013C3.64543 21.2083 3.64315 21.2152 3.6407 21.2221C3.63824 21.2289 3.63562 21.2357 3.63285 21.2424C3.63007 21.2491 3.62712 21.2558 3.62401 21.2623C3.6209 21.2689 3.61763 21.2754 3.6142 21.2818C3.61077 21.2883 3.60719 21.2946 3.60344 21.3008C3.59971 21.307 3.59582 21.3132 3.59176 21.3192C3.58773 21.3253 3.58355 21.3312 3.57922 21.3371C3.57488 21.3429 3.5704 21.3487 3.56579 21.3543C3.56117 21.3599 3.55643 21.3654 3.55155 21.3708C3.54666 21.3762 3.54165 21.3815 3.53651 21.3866C3.53136 21.3917 3.5261 21.3968 3.52071 21.4016C3.51532 21.4065 3.5098 21.4113 3.50418 21.4159C3.49856 21.4205 3.49283 21.425 3.48699 21.4293C3.48114 21.4336 3.4752 21.4378 3.46915 21.4419C3.4631 21.4459 3.45696 21.4498 3.45073 21.4535C3.44449 21.4573 3.43816 21.4609 3.43174 21.4643C3.42533 21.4677 3.41883 21.471 3.41225 21.4741C3.40568 21.4772 3.39903 21.4802 3.39231 21.4829C3.38559 21.4857 3.37881 21.4883 3.37195 21.4908C3.36511 21.4932 3.35821 21.4955 3.35125 21.4976C3.34429 21.4997 3.33728 21.5017 3.33022 21.5034C3.32317 21.5052 3.31607 21.5068 3.30893 21.5082C3.3018 21.5097 3.29463 21.5109 3.28744 21.512C3.28025 21.513 3.27303 21.5139 3.26579 21.5146C3.25855 21.5154 3.2513 21.5159 3.24404 21.5162C3.23678 21.5166 3.22951 21.5168 3.22223 21.5168L2.44445 21.5168C2.43718 21.5168 2.42991 21.5166 2.42264 21.5162C2.41538 21.5159 2.40812 21.5153 2.40088 21.5146C2.39365 21.5139 2.38643 21.513 2.37923 21.512C2.37204 21.5109 2.36487 21.5097 2.35774 21.5082C2.35061 21.5068 2.34351 21.5052 2.33646 21.5034C2.3294 21.5017 2.32239 21.4997 2.31543 21.4976C2.30847 21.4955 2.30157 21.4932 2.29472 21.4908C2.28787 21.4883 2.28108 21.4857 2.27436 21.4829C2.26765 21.4802 2.261 21.4772 2.25442 21.4741C2.24785 21.471 2.24135 21.4677 2.23494 21.4643C2.22852 21.4609 2.2222 21.4573 2.21596 21.4535C2.20972 21.4498 2.20357 21.4459 2.19753 21.4419C2.19148 21.4378 2.18553 21.4336 2.17969 21.4293C2.17385 21.425 2.16812 21.4205 2.16249 21.4159C2.15687 21.4113 2.15136 21.4065 2.14598 21.4016C2.14059 21.3968 2.13532 21.3917 2.13018 21.3866C2.12503 21.3815 2.12002 21.3762 2.11513 21.3708C2.11025 21.3654 2.1055 21.3599 2.10089 21.3543C2.09627 21.3486 2.0918 21.3429 2.08746 21.3371C2.08313 21.3312 2.07894 21.3253 2.0749 21.3192C2.07086 21.3132 2.06697 21.307 2.06323 21.3008C2.05949 21.2946 2.05591 21.2883 2.05248 21.2818C2.04905 21.2754 2.04578 21.2689 2.04267 21.2623C2.03956 21.2558 2.03661 21.2491 2.03383 21.2424C2.03105 21.2357 2.02843 21.2289 2.02598 21.2221C2.02353 21.2152 2.02125 21.2083 2.01914 21.2013C2.01703 21.1944 2.01509 21.1874 2.01332 21.1803C2.01155 21.1733 2.00996 21.1662 2.00854 21.159C2.00712 21.1519 2.00588 21.1447 2.00481 21.1375C2.00374 21.1304 2.00285 21.1231 2.00214 21.1159C2.00143 21.1087 2.00089 21.1014 2.00054 21.0941C2.00018 21.0869 2 21.0796 2 21.0723L2 2.79442C2 2.54998 2.2 2.34998 2.44445 2.34998L3.22223 2.34998C3.46668 2.34998 3.66668 2.54998 3.66668 2.79442ZM3.66668 13.1834L10.3334 13.1834L10.3334 9.01669L3.66668 9.01669L3.66668 13.1834Z"   fill="#034FA1" ></path><path d="M16.1112 3.91382C16.4813 3.91382 16.789 4.19916 16.819 4.56814L16.819 5.88091L18.1359 5.88091C18.1469 5.88091 18.1688 5.88503 18.1688 5.88503C18.1797 5.88503 18.1909 5.88914 18.2017 5.88914C18.2126 5.88914 18.2305 5.89326 18.2305 5.89326C18.2413 5.89326 18.2676 5.9056 18.2676 5.9056C18.2782 5.9056 18.2859 5.91383 18.2964 5.91383C18.3068 5.91383 18.3334 5.92206 18.3334 5.92206C18.3437 5.92206 18.3521 5.93441 18.3622 5.93441C18.3723 5.93441 18.3811 5.94675 18.391 5.94675C18.4009 5.94675 18.4101 5.95794 18.4198 5.96321C18.4295 5.96849 18.4392 5.97394 18.4486 5.97968C18.458 5.98537 18.4683 5.99408 18.4774 6.00025C18.4866 6.0064 18.4933 6.01015 18.5021 6.01671C18.511 6.02328 18.5224 6.03031 18.5309 6.03729C18.5395 6.04427 18.5474 6.0505 18.5556 6.05787C18.5638 6.06523 18.5725 6.07482 18.5803 6.08256C18.5881 6.09029 18.5934 6.09504 18.6009 6.10313C18.6084 6.11123 18.6185 6.11936 18.6256 6.12783C18.6327 6.13624 18.6394 6.14788 18.6462 6.15663C18.6528 6.16539 18.6605 6.17225 18.6667 6.18132C18.673 6.19037 18.6732 6.20491 18.6791 6.21425C18.6849 6.22358 18.6943 6.22931 18.6997 6.23894C18.7051 6.24854 18.7161 6.25789 18.7161 6.26774C18.7161 6.27759 18.7285 6.28648 18.7285 6.29655C18.7285 6.30662 18.7408 6.31509 18.7408 6.32536C18.7408 6.33562 18.749 6.34782 18.749 6.35828C18.749 6.36871 18.7614 6.3806 18.7614 6.3912C18.7614 6.40178 18.7696 6.40926 18.7696 6.42001C18.7696 6.43071 18.7737 6.4462 18.7737 6.45705C18.7737 6.46789 18.7861 6.47493 18.7861 6.48585C18.7861 6.49675 18.7861 6.5119 18.7861 6.52289C18.7861 6.53386 18.7902 6.54068 18.7902 6.5517C18.7902 6.56271 18.7902 6.5736 18.7902 6.58462C18.7902 6.59563 18.7902 6.61062 18.7902 6.62166C18.7902 6.63265 18.7861 6.63947 18.7861 6.65046C18.7861 6.66143 18.7861 6.67658 18.7861 6.6875C18.7861 6.69839 18.7737 6.70546 18.7737 6.71631C18.7737 6.72715 18.7696 6.7385 18.7696 6.74923C18.7696 6.75995 18.7614 6.77155 18.7614 6.78215C18.7614 6.79275 18.749 6.80462 18.749 6.81507C18.749 6.82551 18.7408 6.83362 18.7408 6.84388C18.7408 6.85414 18.7285 6.86673 18.7285 6.8768C18.7285 6.88687 18.7161 6.89573 18.7161 6.90561C18.7161 6.91543 18.7051 6.92479 18.6997 6.93441C18.6943 6.944 18.6849 6.95386 18.6791 6.96322C18.6732 6.97256 18.673 6.97884 18.6667 6.98791C18.6605 6.99696 18.6528 7.01206 18.6462 7.02084C18.6394 7.02959 18.6327 7.03709 18.6256 7.04553C18.6185 7.05397 18.6084 7.06212 18.6009 7.07022C18.5934 7.07832 18.5881 7.08715 18.5803 7.09491C18.5725 7.10264 18.5638 7.10809 18.5556 7.11549C18.5474 7.12283 18.5395 7.12906 18.5309 7.13606C18.5224 7.14302 18.511 7.14593 18.5021 7.15252C18.4933 7.15909 18.4866 7.16692 18.4774 7.1731C18.4683 7.17923 18.458 7.18794 18.4486 7.19368C18.4392 7.19939 18.4295 7.20484 18.4198 7.21014C18.4101 7.21539 18.4009 7.22248 18.391 7.22248C18.3811 7.22248 18.3723 7.23894 18.3622 7.23894C18.3521 7.23894 18.3437 7.24717 18.3334 7.24717C18.3231 7.24717 18.3068 7.26364 18.2964 7.26364C18.2859 7.26364 18.2782 7.27187 18.2676 7.27187C18.2569 7.27187 18.2413 7.2801 18.2305 7.2801C18.2197 7.2801 18.2126 7.28421 18.2017 7.28421C18.1909 7.28421 18.1797 7.28833 18.1688 7.28833C18.1578 7.28833 18.1469 7.29244 18.1359 7.29244L16.819 7.29244L16.819 8.60932C16.819 8.62032 16.819 8.6313 16.819 8.64225C16.819 8.65316 16.8149 8.6643 16.8149 8.67517C16.8149 8.68601 16.8066 8.69323 16.8066 8.70397C16.8066 8.71472 16.7984 8.73036 16.7984 8.74101C16.7984 8.75164 16.7902 8.75931 16.7902 8.76982C16.7902 8.7803 16.7819 8.78831 16.7819 8.79863C16.7819 8.80894 16.7655 8.82141 16.7655 8.83155C16.7655 8.84166 16.7573 8.85043 16.7573 8.86035C16.7573 8.87028 16.7461 8.87948 16.7408 8.88916C16.7355 8.89884 16.7259 8.91265 16.7202 8.92208C16.7145 8.93149 16.7099 8.94175 16.7038 8.95089C16.6976 8.96003 16.6939 8.96673 16.6873 8.97558C16.6807 8.98441 16.6737 8.99171 16.6667 9.00027C16.6597 9.00878 16.6494 9.01674 16.642 9.02496C16.6347 9.03313 16.6292 9.0418 16.6214 9.04966C16.6137 9.05749 16.6049 9.06686 16.5968 9.07435C16.5887 9.08181 16.5805 9.08782 16.5721 9.09492C16.5636 9.10202 16.5561 9.10881 16.5474 9.1155C16.5386 9.12219 16.5318 9.1298 16.5227 9.13608C16.5136 9.14235 16.4991 9.14668 16.4898 9.15254C16.4804 9.15837 16.4706 9.16358 16.461 9.169C16.4513 9.1744 16.442 9.18546 16.4321 9.18546C16.4223 9.18546 16.4134 9.19781 16.4033 9.19781C16.3933 9.19781 16.3807 9.21427 16.3704 9.21427C16.3601 9.21427 16.352 9.2225 16.3416 9.2225C16.3312 9.2225 16.3234 9.23484 16.3128 9.23484C16.3022 9.23484 16.2865 9.24307 16.2758 9.24307C16.265 9.24307 16.2578 9.24719 16.247 9.24719C16.2361 9.24719 16.2249 9.25542 16.214 9.25542C16.2031 9.25542 16.1921 9.25953 16.1811 9.25953C16.1701 9.25953 16.1592 9.25953 16.1482 9.25953C16.1372 9.25953 16.1222 9.26365 16.1112 9.26365C16.1001 9.26365 16.0933 9.25953 16.0823 9.25953C16.0713 9.25953 16.0604 9.25953 16.0494 9.25953C16.0385 9.25953 16.0274 9.25542 16.0165 9.25542C16.0056 9.25542 15.9944 9.24719 15.9836 9.24719C15.9728 9.24719 15.9655 9.24307 15.9548 9.24307C15.9441 9.24307 15.9283 9.23484 15.9177 9.23484C15.9071 9.23484 15.8994 9.2225 15.8889 9.2225C15.8785 9.2225 15.8704 9.21427 15.8601 9.21427C15.8499 9.21427 15.8332 9.19781 15.8231 9.19781C15.813 9.19781 15.8041 9.18546 15.7943 9.18546C15.7844 9.18546 15.7792 9.1744 15.7696 9.169C15.76 9.16358 15.7501 9.15837 15.7408 9.15254C15.7314 9.14668 15.7169 9.14235 15.7079 9.13608C15.6988 9.1298 15.6919 9.12219 15.6832 9.1155C15.6744 9.10881 15.6669 9.10202 15.6585 9.09492C15.65 9.08782 15.6419 9.08181 15.6338 9.07435C15.6257 9.06686 15.6168 9.05749 15.6091 9.04966C15.6013 9.0418 15.5918 9.03313 15.5844 9.02496C15.577 9.01674 15.5708 9.00878 15.5638 9.00027C15.5568 8.99171 15.5498 8.98441 15.5433 8.97558C15.5367 8.96673 15.5329 8.96003 15.5268 8.95089C15.5206 8.94175 15.516 8.93149 15.5103 8.92208C15.5046 8.91265 15.495 8.89884 15.4898 8.88916C15.4845 8.87948 15.4733 8.87028 15.4733 8.86035C15.4733 8.85043 15.4609 8.84166 15.4609 8.83155C15.4609 8.82141 15.4486 8.80894 15.4486 8.79863C15.4486 8.78831 15.4404 8.7803 15.4404 8.76982C15.4404 8.75931 15.4321 8.75164 15.4321 8.74101C15.4321 8.73036 15.4198 8.71472 15.4198 8.70397C15.4198 8.69323 15.4157 8.68601 15.4157 8.67517C15.4157 8.6643 15.4116 8.65316 15.4116 8.64225C15.4116 8.6313 15.4074 8.62032 15.4074 8.60932L15.4074 7.29244L14.0947 7.29244C14.0837 7.29244 14.0686 7.28833 14.0577 7.28833C14.0468 7.28833 14.0398 7.28422 14.029 7.28422C14.0181 7.28422 14.0026 7.2801 13.9918 7.2801C13.9811 7.2801 13.9737 7.27187 13.9631 7.27187C13.9524 7.27187 13.9448 7.26364 13.9343 7.26364C13.9238 7.26364 13.9075 7.24718 13.8972 7.24718C13.8869 7.24718 13.8785 7.23894 13.8684 7.23894C13.8583 7.23894 13.8496 7.22249 13.8397 7.22249C13.8298 7.22249 13.8204 7.2154 13.8108 7.21014C13.8011 7.20484 13.7872 7.19939 13.7778 7.19368C13.7684 7.18794 13.7622 7.17924 13.7531 7.17311C13.7439 7.16693 13.7332 7.15909 13.7244 7.15252C13.7155 7.14593 13.7082 7.14301 13.6996 7.13606C13.6911 7.12906 13.6831 7.12283 13.6749 7.11549C13.6667 7.1081 13.658 7.10265 13.6502 7.09492C13.6424 7.08716 13.6372 7.0783 13.6297 7.07023C13.6222 7.0621 13.6121 7.05396 13.605 7.04552C13.5979 7.03709 13.5912 7.02959 13.5845 7.02083C13.5778 7.01205 13.5701 6.99696 13.5638 6.98792C13.5575 6.97885 13.5574 6.97256 13.5515 6.96323C13.5457 6.95386 13.5365 6.944 13.5311 6.93442C13.5256 6.92479 13.5146 6.91543 13.5146 6.90561C13.5146 6.89573 13.5021 6.88688 13.5021 6.87681C13.5021 6.86674 13.4899 6.85414 13.4899 6.84388C13.4899 6.83362 13.4734 6.8255 13.4734 6.81507C13.4734 6.80461 13.4651 6.79276 13.4651 6.78215C13.4651 6.77155 13.4609 6.75996 13.4609 6.74924C13.4609 6.73851 13.4487 6.72715 13.4487 6.71631C13.4487 6.70546 13.4444 6.69839 13.4444 6.6875C13.4444 6.67658 13.4404 6.66143 13.4404 6.65046C13.4404 6.63947 13.4404 6.63264 13.4404 6.62165C13.4404 6.61061 13.4404 6.59563 13.4404 6.58462C13.4404 6.5736 13.4404 6.56272 13.4404 6.5517C13.4404 6.54068 13.4404 6.53386 13.4404 6.52289C13.4404 6.5119 13.4444 6.49675 13.4444 6.48586C13.4444 6.47494 13.4487 6.46789 13.4487 6.45705C13.4487 6.4462 13.4609 6.43071 13.4609 6.42001C13.4609 6.40926 13.4651 6.40178 13.4651 6.3912C13.4651 6.3806 13.4734 6.36872 13.4734 6.35828C13.4734 6.34783 13.4899 6.33562 13.4899 6.32535C13.4899 6.31509 13.5021 6.30662 13.5021 6.29656C13.5021 6.28649 13.5146 6.2776 13.5146 6.26775C13.5146 6.2579 13.5257 6.24854 13.5311 6.23894C13.5365 6.22931 13.5457 6.22359 13.5515 6.21425C13.5574 6.20491 13.5575 6.19038 13.5638 6.18133C13.5701 6.17226 13.5778 6.16539 13.5845 6.15664C13.5912 6.14789 13.5979 6.13624 13.605 6.12783C13.6121 6.11937 13.6222 6.11124 13.6297 6.10314C13.6372 6.09504 13.6424 6.09029 13.6502 6.08256C13.658 6.07482 13.6667 6.06523 13.6749 6.05787C13.6831 6.0505 13.6911 6.04427 13.6996 6.03729C13.7082 6.03031 13.7155 6.02328 13.7244 6.01671C13.7332 6.01014 13.7439 6.00641 13.7531 6.00026C13.7622 5.99408 13.7684 5.98536 13.7778 5.97967C13.7872 5.97394 13.8011 5.9685 13.8108 5.96322C13.8204 5.95795 13.8298 5.94676 13.8397 5.94676C13.8496 5.94676 13.8583 5.93441 13.8684 5.93441C13.8785 5.93441 13.8869 5.92207 13.8972 5.92207C13.9075 5.92207 13.9238 5.91383 13.9343 5.91383C13.9448 5.91383 13.9524 5.9056 13.9631 5.9056C13.9737 5.9056 13.9811 5.89326 13.9918 5.89326C14.0026 5.89326 14.0181 5.88914 14.029 5.88914C14.0398 5.88914 14.0468 5.88503 14.0577 5.88503C14.0686 5.88503 14.0837 5.88091 14.0947 5.88091L15.4074 5.88091L15.4074 4.56814C15.4074 4.55715 15.4116 4.54205 15.4116 4.53111C15.4116 4.52016 15.4157 4.51315 15.4157 4.5023C15.4157 4.49143 15.4198 4.47601 15.4198 4.46526C15.4198 4.45451 15.4321 4.44708 15.4321 4.43646C15.4321 4.4258 15.4404 4.41401 15.4404 4.40353C15.4404 4.39303 15.4486 4.38092 15.4486 4.37061C15.4486 4.3603 15.4609 4.35192 15.4609 4.3418C15.4609 4.33169 15.4733 4.32292 15.4733 4.313C15.4733 4.30308 15.4845 4.29387 15.4898 4.28419C15.495 4.27451 15.5046 4.2607 15.5103 4.25127C15.516 4.24183 15.5206 4.23161 15.5268 4.22246C15.5329 4.21332 15.5367 4.20662 15.5433 4.19777C15.5498 4.18892 15.5568 4.18159 15.5638 4.17308C15.5708 4.16454 15.577 4.15658 15.5844 4.14839C15.5918 4.14017 15.6014 4.13153 15.6091 4.1237C15.6168 4.11584 15.6257 4.10647 15.6338 4.099C15.6419 4.09151 15.65 4.08554 15.6585 4.07843C15.6669 4.07134 15.6744 4.06454 15.6832 4.05785C15.6919 4.05116 15.6988 4.04355 15.7079 4.03728C15.7169 4.031 15.7314 4.02255 15.7408 4.0167C15.7501 4.01085 15.76 4.00976 15.7696 4.00435C15.7792 3.99895 15.7844 3.98789 15.7943 3.98789C15.8041 3.98789 15.813 3.97555 15.8231 3.97555C15.8332 3.97555 15.8499 3.95909 15.8601 3.95909C15.8704 3.95909 15.8785 3.94674 15.8889 3.94674C15.8994 3.94674 15.9071 3.93851 15.9177 3.93851C15.9283 3.93851 15.9441 3.93028 15.9548 3.93028C15.9655 3.93028 15.9728 3.92205 15.9836 3.92205C15.9944 3.92205 16.0056 3.91793 16.0165 3.91793C16.0274 3.91793 16.0385 3.91382 16.0494 3.91382C16.0604 3.91382 16.0713 3.91382 16.0823 3.91382C16.0933 3.91382 16.1001 3.91382 16.1112 3.91382Z"   fill="#CC4E1D" ></path></svg>