<svg xmlns="http://www.w3.org/2000/svg" xmlns:xlink="http://www.w3.org/1999/xlink" width="24" height="24" viewBox="0 0 24 24" fill="none"><path d="M20.8764 4.27277L16.8218 4.27277L16.8218 2.97095C16.8218 2.95936 16.8218 2.94617 16.8218 2.93459C16.8218 2.92301 16.8182 2.9134 16.8182 2.90186C16.8182 2.89032 16.8145 2.87697 16.8145 2.8655C16.8145 2.85403 16.8073 2.84415 16.8073 2.83277C16.8073 2.8214 16.8 2.80766 16.8 2.79641C16.8 2.78516 16.7927 2.77478 16.7927 2.76368C16.7927 2.75259 16.7857 2.74187 16.7818 2.73095C16.7779 2.72004 16.7717 2.70894 16.7673 2.69823C16.7628 2.68751 16.7577 2.67598 16.7527 2.6655C16.7478 2.65502 16.7437 2.64664 16.7382 2.63641C16.7327 2.62618 16.726 2.61726 16.72 2.60732C16.714 2.59737 16.7083 2.58423 16.7018 2.57459C16.6954 2.56495 16.6905 2.55845 16.6836 2.54914C16.6767 2.53982 16.6692 2.52901 16.6618 2.52005C16.6545 2.51108 16.6478 2.50318 16.64 2.49459C16.6322 2.486 16.6228 2.47733 16.6145 2.46914C16.6064 2.46094 16.5977 2.45147 16.5891 2.44368C16.5805 2.43589 16.5726 2.42922 16.5636 2.42186C16.5547 2.41451 16.5439 2.40695 16.5345 2.40005C16.5252 2.39314 16.5187 2.3883 16.5091 2.38186C16.4994 2.37542 16.4863 2.36964 16.4764 2.36368C16.4664 2.35772 16.4575 2.35097 16.4473 2.3455C16.437 2.34003 16.4287 2.33591 16.4182 2.33095C16.4077 2.326 16.3962 2.32085 16.3855 2.31641C16.3747 2.31197 16.3636 2.30577 16.3527 2.30186C16.3418 2.29796 16.3311 2.29095 16.32 2.29095C16.3089 2.29095 16.2985 2.28368 16.2873 2.28368C16.276 2.28368 16.2623 2.27641 16.2509 2.27641C16.2395 2.27641 16.2297 2.26914 16.2182 2.26914C16.2067 2.26914 16.1934 2.2655 16.1818 2.2655C16.1703 2.2655 16.1607 2.26186 16.1491 2.26186C16.1375 2.26186 16.1243 2.26186 16.1127 2.26186C16.1011 2.26186 16.0916 2.26186 16.08 2.26186C16.0684 2.26186 16.0552 2.2655 16.0436 2.2655C16.0321 2.2655 16.0224 2.26914 16.0109 2.26914C15.9994 2.26914 15.9859 2.27641 15.9745 2.27641C15.9632 2.27641 15.9531 2.28368 15.9418 2.28368C15.9306 2.28368 15.9202 2.29095 15.9091 2.29095C15.898 2.29095 15.8873 2.29796 15.8764 2.30186C15.8654 2.30577 15.8544 2.31197 15.8436 2.31641C15.8329 2.32085 15.8214 2.326 15.8109 2.33095C15.8004 2.33591 15.7884 2.34003 15.7782 2.3455C15.768 2.35097 15.759 2.35772 15.7491 2.36368C15.7391 2.36964 15.7296 2.37542 15.72 2.38186C15.7104 2.3883 15.7002 2.39314 15.6909 2.40005C15.6816 2.40695 15.6744 2.41451 15.6655 2.42186C15.6565 2.42922 15.645 2.43589 15.6364 2.44368C15.6278 2.45147 15.6228 2.46094 15.6145 2.46914C15.6064 2.47733 15.5969 2.486 15.5891 2.49459C15.5813 2.50318 15.5746 2.51108 15.5673 2.52005C15.5599 2.52901 15.5524 2.53982 15.5455 2.54914C15.5386 2.55845 15.5301 2.56495 15.5236 2.57459C15.5172 2.58423 15.5114 2.59737 15.5055 2.60732C15.4995 2.61726 15.4927 2.62618 15.4873 2.63641C15.4818 2.64664 15.4777 2.65502 15.4727 2.6655C15.4678 2.67598 15.4626 2.68751 15.4582 2.69823C15.4537 2.70894 15.4512 2.72004 15.4473 2.73095C15.4434 2.74187 15.4364 2.75259 15.4364 2.76368C15.4364 2.77478 15.4255 2.78516 15.4255 2.79641C15.4255 2.80766 15.4182 2.8214 15.4182 2.83277C15.4182 2.84415 15.4145 2.85403 15.4145 2.8655C15.4145 2.87697 15.4073 2.89032 15.4073 2.90186C15.4073 2.9134 15.4073 2.92301 15.4073 2.93459C15.4073 2.94617 15.4036 2.95936 15.4036 2.97095L15.4036 4.3855L13.4655 4.3855L13.4655 2.23277C13.4655 2.22117 13.4618 2.208 13.4618 2.19641C13.4618 2.18482 13.4618 2.17523 13.4618 2.16368C13.4618 2.15213 13.4545 2.1388 13.4545 2.12732C13.4545 2.11584 13.4509 2.10597 13.4509 2.09459C13.4509 2.08321 13.4436 2.07312 13.4436 2.06186C13.4436 2.05061 13.4327 2.03661 13.4327 2.0255C13.4327 2.01439 13.4257 2.0037 13.4218 1.99277C13.4179 1.98185 13.4153 1.97077 13.4109 1.96005C13.4065 1.94932 13.4013 1.94145 13.3964 1.93095C13.3914 1.92046 13.3873 1.90846 13.3818 1.89823C13.3763 1.88799 13.3696 1.87909 13.3636 1.86914C13.3577 1.85918 13.3519 1.8497 13.3455 1.84005C13.339 1.83039 13.3305 1.82028 13.3236 1.81095C13.3167 1.80163 13.3092 1.79084 13.3018 1.78186C13.2945 1.77289 13.2878 1.76501 13.28 1.75641C13.2722 1.74781 13.2664 1.73916 13.2582 1.73095C13.25 1.72275 13.2413 1.71693 13.2327 1.70914C13.2241 1.70134 13.2126 1.69105 13.2036 1.68368C13.1947 1.67632 13.1875 1.66878 13.1782 1.66186C13.1689 1.65495 13.1587 1.65013 13.1491 1.64368C13.1394 1.63723 13.1299 1.63147 13.12 1.6255C13.11 1.61953 13.1011 1.61279 13.0909 1.60732C13.0807 1.60185 13.0687 1.59774 13.0582 1.59277C13.0477 1.58781 13.0362 1.58267 13.0255 1.57823C13.0147 1.57378 13.0036 1.56759 12.9927 1.56368C12.9818 1.55977 12.9711 1.55277 12.96 1.55277C12.9489 1.55277 12.9385 1.5455 12.9273 1.5455C12.916 1.5455 12.9059 1.53823 12.8945 1.53823C12.8832 1.53823 12.8697 1.53095 12.8582 1.53095C12.8467 1.53095 12.837 1.52732 12.8255 1.52732C12.8139 1.52732 12.8007 1.52368 12.7891 1.52368C12.7775 1.52368 12.768 1.52368 12.7564 1.52368C12.7448 1.52368 12.7316 1.52368 12.72 1.52368C12.7084 1.52368 12.6988 1.52732 12.6873 1.52732C12.6757 1.52732 12.6624 1.53095 12.6509 1.53095C12.6394 1.53095 12.6296 1.53823 12.6182 1.53823C12.6068 1.53823 12.5931 1.5455 12.5818 1.5455C12.5706 1.5455 12.5602 1.55277 12.5491 1.55277C12.538 1.55277 12.5273 1.55977 12.5164 1.56368C12.5054 1.56759 12.4944 1.57378 12.4836 1.57823C12.4729 1.58267 12.4614 1.58781 12.4509 1.59277C12.4404 1.59774 12.4321 1.60185 12.4218 1.60732C12.4116 1.61279 12.4027 1.61953 12.3927 1.6255C12.3828 1.63147 12.3696 1.63723 12.36 1.64368C12.3504 1.65013 12.3439 1.65495 12.3345 1.66186C12.3252 1.66878 12.3144 1.67632 12.3055 1.68368C12.2965 1.69105 12.2886 1.70134 12.28 1.70914C12.2714 1.71693 12.2627 1.72275 12.2545 1.73095C12.2463 1.73916 12.2369 1.74781 12.2291 1.75641C12.2213 1.76501 12.2146 1.77289 12.2073 1.78186C12.1999 1.79084 12.1924 1.80163 12.1855 1.81095C12.1786 1.82028 12.1737 1.83039 12.1673 1.84005C12.1608 1.8497 12.155 1.85918 12.1491 1.86914C12.1431 1.87909 12.1364 1.88799 12.1309 1.89823C12.1254 1.90846 12.1213 1.92046 12.1164 1.93095C12.1114 1.94145 12.1063 1.94932 12.1018 1.96005C12.0974 1.97077 12.0912 1.98185 12.0873 1.99277C12.0834 2.0037 12.0764 2.01439 12.0764 2.0255C12.0764 2.03661 12.0691 2.05061 12.0691 2.06186C12.0691 2.07312 12.0618 2.08321 12.0618 2.09459C12.0618 2.10597 12.0545 2.11584 12.0545 2.12732C12.0545 2.1388 12.0509 2.15213 12.0509 2.16368C12.0509 2.17523 12.0473 2.18482 12.0473 2.19641C12.0473 2.208 12.0473 2.22117 12.0473 2.23277L12.0473 4.27277L10.0909 4.27277L10.0909 2.97095C10.0909 2.95936 10.0909 2.94617 10.0909 2.93459C10.0909 2.92301 10.0873 2.9134 10.0873 2.90186C10.0873 2.89032 10.0836 2.87697 10.0836 2.8655C10.0836 2.85403 10.0764 2.84415 10.0764 2.83277C10.0764 2.8214 10.0691 2.80766 10.0691 2.79641C10.0691 2.78516 10.0618 2.77478 10.0618 2.76368C10.0618 2.75259 10.0548 2.74187 10.0509 2.73095C10.047 2.72004 10.0408 2.70894 10.0364 2.69823C10.0319 2.68751 10.0268 2.67598 10.0218 2.6655C10.0169 2.65502 10.0127 2.64664 10.0073 2.63641C10.0018 2.62618 9.99506 2.61726 9.98909 2.60732C9.98313 2.59737 9.97735 2.58423 9.97091 2.57459C9.96447 2.56495 9.95963 2.55845 9.95273 2.54914C9.94583 2.53982 9.93825 2.52901 9.93091 2.52005C9.92355 2.51108 9.91689 2.50318 9.90909 2.49459C9.90132 2.486 9.89185 2.47733 9.88364 2.46914C9.87544 2.46094 9.86677 2.45147 9.85818 2.44368C9.84959 2.43589 9.8417 2.42922 9.83273 2.42186C9.82376 2.41451 9.81296 2.40695 9.80364 2.40005C9.79431 2.39314 9.78783 2.3883 9.77818 2.38186C9.76854 2.37542 9.7554 2.36964 9.74545 2.36368C9.73549 2.35772 9.72659 2.35097 9.71636 2.3455C9.70614 2.34003 9.69775 2.33591 9.68727 2.33095C9.67679 2.326 9.66526 2.32085 9.65454 2.31641C9.64383 2.31197 9.63274 2.30577 9.62182 2.30186C9.6109 2.29796 9.60019 2.29095 9.58909 2.29095C9.578 2.29095 9.5676 2.28368 9.55636 2.28368C9.54511 2.28368 9.53137 2.27641 9.52 2.27641C9.50865 2.27641 9.49875 2.26914 9.48727 2.26914C9.4758 2.26914 9.46244 2.2655 9.45091 2.2655C9.43936 2.2655 9.42976 2.26186 9.41818 2.26186C9.40659 2.26186 9.39341 2.26186 9.38182 2.26186C9.37022 2.26186 9.36068 2.26186 9.34909 2.26186C9.3375 2.26186 9.32426 2.2655 9.31273 2.2655C9.30119 2.2655 9.29147 2.26914 9.28 2.26914C9.26853 2.26914 9.25501 2.27641 9.24364 2.27641C9.23226 2.27641 9.22215 2.28368 9.21091 2.28368C9.19967 2.28368 9.18928 2.29095 9.17818 2.29095C9.16709 2.29095 9.15637 2.29796 9.14545 2.30186C9.13454 2.30577 9.12345 2.31197 9.11273 2.31641C9.10201 2.32085 9.09048 2.326 9.08 2.33095C9.06952 2.33591 9.05749 2.34003 9.04727 2.3455C9.03703 2.35097 9.02812 2.35772 9.01818 2.36368C9.00824 2.36964 8.99874 2.37542 8.98909 2.38186C8.97945 2.3883 8.96931 2.39314 8.96 2.40005C8.95067 2.40695 8.94351 2.41451 8.93455 2.42186C8.92558 2.42922 8.91405 2.43589 8.90545 2.44368C8.89686 2.45147 8.88821 2.46094 8.88 2.46914C8.87181 2.47733 8.86598 2.486 8.85818 2.49459C8.85041 2.50318 8.84372 2.51108 8.83636 2.52005C8.82901 2.52901 8.82145 2.53982 8.81454 2.54914C8.80764 2.55845 8.79917 2.56495 8.79273 2.57459C8.78628 2.58423 8.78049 2.59737 8.77455 2.60732C8.76858 2.61726 8.76183 2.62618 8.75636 2.63641C8.75089 2.64664 8.74677 2.65502 8.74182 2.6655C8.73687 2.67598 8.73171 2.68751 8.72727 2.69823C8.72284 2.70894 8.72028 2.72004 8.71636 2.73095C8.71247 2.74187 8.70545 2.75259 8.70545 2.76368C8.70545 2.77478 8.69455 2.78516 8.69455 2.79641C8.69455 2.80766 8.68727 2.8214 8.68727 2.83277C8.68727 2.84415 8.68364 2.85403 8.68364 2.8655C8.68364 2.87697 8.67636 2.89032 8.67636 2.90186C8.67636 2.9134 8.67636 2.92301 8.67636 2.93459C8.67636 2.94617 8.67273 2.95936 8.67273 2.97095L8.67273 4.3855L6.72 4.3855L6.72 3.59277C6.72 3.58116 6.71636 3.57162 6.71636 3.56005C6.71636 3.54845 6.71636 3.53522 6.71636 3.52368C6.71636 3.51213 6.71273 3.50242 6.71273 3.49095C6.71273 3.47948 6.70545 3.46596 6.70545 3.45459C6.70545 3.44322 6.69818 3.43311 6.69818 3.42186C6.69818 3.41062 6.68727 3.40023 6.68727 3.38914C6.68727 3.37804 6.68026 3.36369 6.67636 3.35277C6.67245 3.34185 6.66989 3.33439 6.66545 3.32368C6.66102 3.31297 6.65586 3.30144 6.65091 3.29095C6.64596 3.28047 6.64183 3.26845 6.63636 3.25823C6.6309 3.248 6.62415 3.23908 6.61818 3.22914C6.61224 3.21919 6.60644 3.20969 6.6 3.20005C6.59356 3.1904 6.58508 3.18027 6.57818 3.17095C6.57128 3.16164 6.56372 3.15446 6.55636 3.1455C6.54901 3.13654 6.54232 3.125 6.53455 3.11641C6.52675 3.10782 6.52092 3.09915 6.51273 3.09095C6.50451 3.08276 6.49586 3.07692 6.48727 3.06914C6.47868 3.06135 6.46715 3.05467 6.45818 3.04732C6.44921 3.03996 6.44205 3.03241 6.43273 3.0255C6.42342 3.01859 6.41328 3.01012 6.40364 3.00368C6.39399 2.99724 6.38449 2.99146 6.37455 2.9855C6.3646 2.97954 6.3557 2.97278 6.34545 2.96732C6.33523 2.96185 6.32321 2.95773 6.31273 2.95277C6.30225 2.94781 6.29072 2.94267 6.28 2.93823C6.26928 2.93379 6.25819 2.93122 6.24727 2.92732C6.23636 2.92341 6.22564 2.91641 6.21455 2.91641C6.20345 2.91641 6.19305 2.9055 6.18182 2.9055C6.17056 2.9055 6.16045 2.89823 6.14909 2.89823C6.13772 2.89823 6.1242 2.89095 6.11273 2.89095C6.10125 2.89095 6.09153 2.88732 6.08 2.88732C6.06845 2.88732 6.05521 2.88732 6.04364 2.88732C6.03204 2.88732 6.0225 2.88368 6.01091 2.88368C5.99932 2.88368 5.98614 2.88732 5.97455 2.88732C5.96297 2.88732 5.95337 2.88732 5.94182 2.88732C5.93028 2.88732 5.91693 2.89095 5.90545 2.89095C5.89398 2.89095 5.88408 2.89823 5.87273 2.89823C5.86135 2.89823 5.84762 2.9055 5.83636 2.9055C5.82513 2.9055 5.81473 2.91641 5.80364 2.91641C5.79254 2.91641 5.78183 2.92341 5.77091 2.92732C5.75999 2.93122 5.7489 2.93379 5.73818 2.93823C5.72746 2.94267 5.71957 2.94781 5.70909 2.95277C5.69861 2.95773 5.68658 2.96185 5.67636 2.96732C5.66612 2.97278 5.65722 2.97954 5.64727 2.9855C5.63733 2.99146 5.62783 2.99724 5.61818 3.00368C5.60854 3.01012 5.5984 3.01859 5.58909 3.0255C5.57976 3.03241 5.56897 3.03996 5.56 3.04732C5.55103 3.05467 5.54314 3.06135 5.53455 3.06914C5.52595 3.07692 5.51728 3.08276 5.50909 3.09095C5.50088 3.09915 5.49141 3.10782 5.48364 3.11641C5.47584 3.125 5.46918 3.13654 5.46182 3.1455C5.45446 3.15446 5.4469 3.16164 5.44 3.17095C5.4331 3.18027 5.42826 3.1904 5.42182 3.20005C5.41539 3.20969 5.4096 3.21919 5.40364 3.22914C5.39767 3.23908 5.39092 3.248 5.38545 3.25823C5.37999 3.26845 5.37586 3.28047 5.37091 3.29095C5.36596 3.30144 5.3608 3.31297 5.35636 3.32368C5.35193 3.33439 5.34572 3.34185 5.34182 3.35277C5.3379 3.36369 5.33091 3.37804 5.33091 3.38914C5.33091 3.40023 5.32364 3.41062 5.32364 3.42186C5.32364 3.43311 5.31636 3.44322 5.31636 3.45459C5.31636 3.46596 5.30909 3.47948 5.30909 3.49095C5.30909 3.50242 5.30545 3.51213 5.30545 3.52368C5.30545 3.53522 5.30182 3.54845 5.30182 3.56005C5.30182 3.57162 5.30182 3.58116 5.30182 3.59277L5.30182 4.27277L3.41818 4.27277C3.39499 4.27277 3.37225 4.27641 3.34909 4.27641C3.32593 4.27641 3.29944 4.28005 3.27636 4.28005C3.25328 4.28005 3.23385 4.28732 3.21091 4.28732C3.18797 4.28732 3.16456 4.29733 3.14182 4.30186C3.11907 4.30638 3.09522 4.31076 3.07273 4.31641C3.05023 4.32204 3.02947 4.32785 3.00727 4.33459C2.98508 4.34131 2.96002 4.34859 2.93818 4.35641C2.91635 4.3642 2.89779 4.37297 2.87636 4.38186C2.85494 4.39073 2.83187 4.40103 2.81091 4.41095C2.78994 4.42086 2.76954 4.42911 2.74909 4.44005C2.72864 4.45096 2.70716 4.46448 2.68727 4.47641C2.66738 4.48832 2.64837 4.49989 2.62909 4.51277C2.60981 4.52566 2.59317 4.53895 2.57455 4.55277C2.55592 4.56657 2.53429 4.58169 2.51636 4.59641C2.49844 4.61112 2.48264 4.62447 2.46545 4.64005C2.44827 4.65562 2.43095 4.67091 2.41455 4.68732C2.39815 4.7037 2.38285 4.72105 2.36727 4.73823C2.3517 4.75541 2.33471 4.77484 2.32 4.79277C2.30529 4.81069 2.29381 4.82868 2.28 4.84732C2.26619 4.86593 2.25288 4.88257 2.24 4.90186C2.22712 4.92115 2.21192 4.9438 2.2 4.96368C2.18808 4.98357 2.1782 5.0014 2.16727 5.02186C2.15634 5.04231 2.14446 5.0627 2.13455 5.08368C2.12463 5.10464 2.11797 5.1277 2.10909 5.14914C2.10022 5.17055 2.09145 5.19274 2.08364 5.21459C2.07582 5.23643 2.06855 5.25785 2.06182 5.28005C2.05509 5.30224 2.04927 5.32301 2.04364 5.3455C2.038 5.36799 2.02998 5.39184 2.02545 5.41459C2.02093 5.43734 2.01455 5.46073 2.01455 5.48368C2.01455 5.50663 2.00727 5.52971 2.00727 5.55277C2.00727 5.57584 2 5.59868 2 5.62186C2 5.64501 2 5.66777 2 5.69095L2 17.7491C2 17.7723 2 17.795 2 17.8182C2 17.8414 2.00727 17.8642 2.00727 17.8873C2.00727 17.9104 2.01455 17.9335 2.01455 17.9564C2.01455 17.9793 2.02093 18.0028 2.02545 18.0255C2.02998 18.0482 2.038 18.0721 2.04364 18.0946C2.04927 18.1171 2.05509 18.1379 2.06182 18.16C2.06855 18.1822 2.07582 18.2037 2.08364 18.2255C2.09145 18.2473 2.10022 18.2695 2.10909 18.291C2.11797 18.3124 2.12463 18.3354 2.13455 18.3564C2.14446 18.3774 2.15634 18.3978 2.16727 18.4182C2.1782 18.4387 2.18808 18.4565 2.2 18.4764C2.21192 18.4963 2.22712 18.5189 2.24 18.5382C2.25288 18.5575 2.26619 18.5741 2.28 18.5928C2.29381 18.6114 2.30529 18.6294 2.32 18.6473C2.33471 18.6652 2.3517 18.6847 2.36727 18.7019C2.38285 18.719 2.39815 18.7364 2.41455 18.7528C2.43095 18.7692 2.44827 18.7845 2.46545 18.8C2.48264 18.8156 2.49844 18.829 2.51636 18.8437C2.53429 18.8584 2.55592 18.8735 2.57455 18.8873C2.59317 18.9011 2.60981 18.9144 2.62909 18.9273C2.64837 18.9402 2.66738 18.9517 2.68727 18.9637C2.70716 18.9756 2.72864 18.9891 2.74909 19C2.76954 19.011 2.78994 19.0192 2.81091 19.0291C2.83187 19.039 2.85494 19.0494 2.87636 19.0582C2.89779 19.0671 2.91635 19.0759 2.93818 19.0837C2.96002 19.0915 2.98508 19.0988 3.00727 19.1055C3.02947 19.1122 3.05023 19.118 3.07273 19.1237C3.09522 19.1293 3.11907 19.1337 3.14182 19.1382C3.16456 19.1428 3.18797 19.1528 3.21091 19.1528C3.23385 19.1528 3.25328 19.16 3.27636 19.16C3.29944 19.16 3.32593 19.1637 3.34909 19.1637C3.37225 19.1637 3.39499 19.1673 3.41818 19.1673L5.50182 19.1673C6.12531 20.7261 8.84261 21.8873 12.1018 21.8873C15.361 21.8873 18.082 20.7261 18.7055 19.1673L20.8618 19.1673C20.885 19.1673 20.9077 19.1637 20.9309 19.1637C20.9541 19.1637 20.9769 19.16 21 19.16C21.0231 19.16 21.0461 19.1528 21.0691 19.1528C21.092 19.1528 21.1154 19.1427 21.1382 19.1382C21.1609 19.1337 21.1811 19.1293 21.2036 19.1237C21.2261 19.118 21.2505 19.1122 21.2727 19.1055C21.2949 19.0988 21.3163 19.0915 21.3382 19.0837C21.36 19.0759 21.3822 19.0671 21.4036 19.0582C21.4251 19.0494 21.4445 19.039 21.4655 19.0291C21.4864 19.0192 21.5068 19.011 21.5273 19C21.5477 18.9891 21.5692 18.9756 21.5891 18.9637C21.609 18.9517 21.628 18.9402 21.6473 18.9273C21.6666 18.9144 21.6868 18.9011 21.7055 18.8873C21.7241 18.8735 21.7421 18.8584 21.76 18.8437C21.7779 18.829 21.7937 18.8156 21.8109 18.8C21.8281 18.7845 21.8454 18.7692 21.8618 18.7528C21.8782 18.7364 21.8936 18.719 21.9091 18.7019C21.9248 18.6847 21.9416 18.6652 21.9564 18.6473C21.9711 18.6294 21.9863 18.6114 22 18.5928C22.0137 18.5741 22.0271 18.5575 22.04 18.5382C22.0529 18.5189 22.0644 18.4963 22.0764 18.4764C22.0883 18.4565 22.0982 18.4387 22.1091 18.4182C22.12 18.3978 22.1319 18.3774 22.1418 18.3564C22.1518 18.3354 22.162 18.3124 22.1709 18.291C22.1799 18.2695 22.1886 18.2473 22.1964 18.2255C22.2041 18.2037 22.2114 18.1822 22.2182 18.16C22.2247 18.1379 22.2306 18.1171 22.2364 18.0946C22.2419 18.0721 22.2463 18.0482 22.2509 18.0255C22.2555 18.0028 22.2618 17.9794 22.2618 17.9564C22.2618 17.9335 22.2727 17.9104 22.2727 17.8873C22.2727 17.8642 22.2764 17.8414 22.2764 17.8182C22.2764 17.7951 22.2764 17.7723 22.2764 17.7491L22.2764 5.63277C22.2764 5.61032 22.2727 5.58969 22.2727 5.56732C22.2727 5.54493 22.2655 5.52048 22.2655 5.49823C22.2655 5.47596 22.2585 5.45485 22.2545 5.43277C22.2504 5.41068 22.2452 5.38919 22.24 5.36732C22.235 5.34544 22.2316 5.32346 22.2255 5.30186C22.2193 5.28027 22.211 5.25769 22.2036 5.23641C22.1965 5.21511 22.19 5.19551 22.1818 5.17459C22.1737 5.15367 22.1655 5.13327 22.1564 5.11277C22.1472 5.09225 22.1374 5.071 22.1273 5.05095C22.1171 5.03091 22.1057 5.0123 22.0945 4.99277C22.0836 4.97321 22.0739 4.95358 22.0618 4.93459C22.0499 4.91558 22.0347 4.8948 22.0218 4.87641C22.0089 4.858 21.9955 4.84328 21.9818 4.8255C21.9681 4.80772 21.9563 4.78804 21.9418 4.77095C21.9273 4.75385 21.9099 4.73643 21.8945 4.72005C21.8792 4.70366 21.8634 4.6884 21.8473 4.67277C21.8311 4.65712 21.8168 4.64397 21.8 4.62914C21.7832 4.61426 21.7666 4.59954 21.7491 4.5855C21.7316 4.57146 21.7127 4.55505 21.6945 4.54186C21.6763 4.52866 21.6588 4.51779 21.64 4.5055C21.6212 4.49317 21.6012 4.48053 21.5818 4.46914C21.5625 4.45772 21.5435 4.44687 21.5236 4.43641C21.5038 4.42593 21.4822 4.41682 21.4618 4.40732C21.4415 4.39781 21.4208 4.38676 21.4 4.37823C21.3792 4.36968 21.3593 4.36393 21.3382 4.35641C21.317 4.34885 21.2942 4.34109 21.2727 4.33459C21.2512 4.32807 21.229 4.3219 21.2073 4.31641C21.1855 4.31092 21.1638 4.3063 21.1418 4.30186C21.1198 4.29741 21.0986 4.29095 21.0764 4.29095C21.0542 4.29095 21.0332 4.28005 21.0109 4.28005C20.9886 4.28005 20.9642 4.27641 20.9418 4.27641C20.9194 4.27641 20.8988 4.27277 20.8764 4.27277ZM12.1018 20.4146C12.0461 20.4187 11.9903 20.4255 11.9345 20.4255C11.8788 20.4255 11.8231 20.4328 11.7673 20.4328C11.7115 20.4328 11.6558 20.4364 11.6 20.4364C11.5441 20.4364 11.4886 20.4328 11.4327 20.4328C11.3769 20.4328 11.3213 20.4291 11.2655 20.4291C11.2096 20.4291 11.1539 20.4219 11.0982 20.4219C11.0424 20.4219 10.9866 20.4153 10.9309 20.411C10.8752 20.4066 10.8192 20.4019 10.7636 20.3964C10.7081 20.3909 10.6554 20.3849 10.6 20.3782C10.5446 20.3715 10.488 20.3643 10.4327 20.3564C10.3774 20.3485 10.3206 20.3401 10.2655 20.331C10.2104 20.3218 10.1567 20.3122 10.1018 20.3019C10.0469 20.2915 9.99281 20.2806 9.93818 20.2691C9.88354 20.2576 9.82893 20.2455 9.77455 20.2328C9.72016 20.22 9.665 20.2067 9.61091 20.1928C9.55682 20.1789 9.50468 20.1642 9.45091 20.1491C9.39712 20.1341 9.34071 20.1181 9.28727 20.1019C9.23384 20.0856 9.18398 20.0683 9.13091 20.051C9.07783 20.0336 9.02359 20.0149 8.97091 19.9964C8.91823 19.9779 8.86681 19.9615 8.81454 19.9419C8.76227 19.9222 8.71 19.9008 8.65818 19.88C8.60636 19.8592 8.55318 19.8365 8.50182 19.8146C8.45045 19.7927 8.39998 19.7722 8.34909 19.7491C8.29822 19.7261 8.24673 19.7006 8.19636 19.6764C8.14601 19.6523 8.09711 19.6289 8.04727 19.6037C7.99746 19.5784 7.94744 19.5536 7.89818 19.5273C7.84893 19.501 7.80141 19.4747 7.75273 19.4473C7.70405 19.42 7.65534 19.3921 7.60727 19.3637C7.55921 19.3352 7.50927 19.3059 7.46182 19.2764C7.41437 19.2469 7.36679 19.216 7.32 19.1855C7.27321 19.155 7.22793 19.1225 7.18182 19.091C7.1357 19.0595 7.08906 19.0289 7.04364 18.9964L17.1636 18.9964C17.1182 19.0289 17.0716 19.0595 17.0255 19.091C16.9793 19.1224 16.9341 19.155 16.8873 19.1855C16.8405 19.2159 16.7929 19.247 16.7455 19.2764C16.698 19.3058 16.6481 19.3316 16.6 19.36C16.5519 19.3884 16.5032 19.4163 16.4545 19.4437C16.4059 19.471 16.3584 19.501 16.3091 19.5273C16.2598 19.5536 16.2098 19.5785 16.16 19.6037C16.1102 19.6289 16.0613 19.6523 16.0109 19.6764C15.9605 19.7005 15.909 19.7261 15.8582 19.7491C15.8073 19.7722 15.7568 19.7927 15.7055 19.8146C15.6541 19.8365 15.6009 19.8592 15.5491 19.88C15.4972 19.9008 15.445 19.9185 15.3927 19.9382C15.3405 19.9579 15.289 19.9779 15.2364 19.9964C15.1837 20.0149 15.1294 20.0336 15.0764 20.051C15.0233 20.0683 14.9698 20.0856 14.9164 20.1019C14.8629 20.1181 14.8101 20.1341 14.7564 20.1491C14.7026 20.1642 14.6505 20.1789 14.5964 20.1928C14.5423 20.2067 14.4871 20.22 14.4327 20.2328C14.3783 20.2455 14.3237 20.2576 14.2691 20.2691C14.2145 20.2807 14.1603 20.2915 14.1055 20.3019C14.0506 20.3122 13.9933 20.3218 13.9382 20.331C13.8831 20.3401 13.8298 20.3485 13.7745 20.3564C13.7193 20.3644 13.6627 20.3715 13.6073 20.3782C13.5519 20.385 13.4992 20.3908 13.4436 20.3964C13.3881 20.402 13.332 20.4066 13.2764 20.411C13.2207 20.4153 13.1649 20.4219 13.1091 20.4219C13.0533 20.4219 12.9976 20.4291 12.9418 20.4291C12.886 20.4291 12.8304 20.4328 12.7745 20.4328C12.7187 20.4328 12.6631 20.4328 12.6073 20.4328C12.5514 20.4328 12.4922 20.4328 12.4364 20.4328C12.3805 20.4328 12.3249 20.4255 12.2691 20.4255C12.2133 20.4255 12.1575 20.4187 12.1018 20.4146ZM20.8618 17.6946L18.8473 17.6946L18.8473 14.3055C18.8473 14.2939 18.8473 14.2843 18.8473 14.2728C18.8473 14.2612 18.8436 14.2479 18.8436 14.2364C18.8436 14.2249 18.84 14.2151 18.84 14.2037C18.84 14.1922 18.8364 14.1787 18.8364 14.1673C18.8364 14.1559 18.8291 14.1458 18.8291 14.1346C18.8291 14.1233 18.8182 14.113 18.8182 14.1019C18.8182 14.0908 18.8112 14.08 18.8073 14.0691C18.8034 14.0582 18.8008 14.0471 18.7964 14.0364C18.7919 14.0257 18.7868 14.0142 18.7818 14.0037C18.7769 13.9932 18.7691 13.9812 18.7636 13.971C18.7582 13.9607 18.7551 13.9518 18.7491 13.9419C18.7431 13.9319 18.7374 13.9224 18.7309 13.9128C18.7245 13.9031 18.716 13.893 18.7091 13.8837C18.7022 13.8744 18.6946 13.8672 18.6873 13.8582C18.6799 13.8493 18.6733 13.8377 18.6655 13.8291C18.6577 13.8205 18.6482 13.8119 18.64 13.8037C18.6318 13.7955 18.6231 13.7897 18.6145 13.7819C18.606 13.7741 18.5981 13.7674 18.5891 13.76C18.5801 13.7527 18.573 13.7451 18.5636 13.7382C18.5543 13.7313 18.5442 13.7229 18.5345 13.7164C18.5249 13.71 18.5154 13.7042 18.5055 13.6982C18.4955 13.6923 18.483 13.6855 18.4727 13.68C18.4625 13.6746 18.4541 13.6705 18.4436 13.6655C18.4332 13.6605 18.4216 13.6554 18.4109 13.651C18.4002 13.6465 18.3891 13.6439 18.3782 13.64C18.3673 13.6361 18.3566 13.6291 18.3455 13.6291C18.3344 13.6291 18.324 13.6182 18.3127 13.6182C18.3015 13.6182 18.2914 13.611 18.28 13.611C18.2686 13.611 18.2551 13.6037 18.2436 13.6037C18.2322 13.6037 18.2224 13.6 18.2109 13.6C18.1994 13.6 18.1861 13.6 18.1745 13.6C18.163 13.6 18.1534 13.5964 18.1418 13.5964C18.1302 13.5964 18.117 13.6 18.1055 13.6C18.0939 13.6 18.0806 13.6 18.0691 13.6C18.0576 13.6 18.0478 13.6037 18.0364 13.6037C18.0249 13.6037 18.015 13.611 18.0036 13.611C17.9923 13.611 17.9785 13.6182 17.9673 13.6182C17.956 13.6182 17.9456 13.6291 17.9345 13.6291C17.9234 13.6291 17.9127 13.6361 17.9018 13.64C17.8909 13.6439 17.8798 13.6465 17.8691 13.651C17.8584 13.6554 17.8468 13.6605 17.8364 13.6655C17.8259 13.6705 17.8175 13.6746 17.8073 13.68C17.797 13.6855 17.7845 13.6923 17.7745 13.6982C17.7646 13.7042 17.7551 13.71 17.7455 13.7164C17.7358 13.7229 17.7257 13.7313 17.7164 13.7382C17.707 13.7451 17.6999 13.7527 17.6909 13.76C17.6819 13.7674 17.674 13.7741 17.6655 13.7819C17.6569 13.7897 17.6482 13.7955 17.64 13.8037C17.6318 13.8119 17.6223 13.8205 17.6145 13.8291C17.6068 13.8377 17.6001 13.8493 17.5927 13.8582C17.5854 13.8672 17.5778 13.8744 17.5709 13.8837C17.564 13.893 17.5592 13.9031 17.5527 13.9128C17.5463 13.9224 17.5369 13.9319 17.5309 13.9419C17.5249 13.9518 17.5218 13.9607 17.5164 13.971C17.5109 13.9812 17.5031 13.9932 17.4982 14.0037C17.4932 14.0142 17.4917 14.0257 17.4873 14.0364C17.4828 14.0471 17.4766 14.0582 17.4727 14.0691C17.4688 14.0801 17.4618 14.0908 17.4618 14.1019C17.4618 14.1129 17.4545 14.1233 17.4545 14.1346C17.4545 14.1458 17.4436 14.1559 17.4436 14.1673C17.4436 14.1787 17.44 14.1922 17.44 14.2037C17.44 14.2151 17.4364 14.2249 17.4364 14.2364C17.4364 14.2479 17.4327 14.2612 17.4327 14.2728C17.4327 14.2843 17.4327 14.2939 17.4327 14.3055L17.4327 17.7055L3.41818 17.7055L3.41818 5.63277L20.8764 5.63277L20.8618 17.6946Z" stroke="rgba(3, 79, 161, 1)" stroke-width="0.2"      fill="#034FA1" ></path><path d="M15.019 11.7316C15.3334 11.7316 15.5873 11.4776 15.5873 11.1633C15.5873 10.8489 15.3334 10.5949 15.019 10.5949L13.3956 10.5949L15.4737 7.82065C15.6619 7.56844 15.6104 7.21322 15.36 7.02495C15.1096 6.83669 14.7526 6.88819 14.5643 7.13862L12.2483 10.229L9.93222 7.13685C9.74395 6.88464 9.38695 6.83491 9.13652 7.02318C8.88609 7.21144 8.83458 7.56844 9.02285 7.81887L11.1009 10.5931L9.47753 10.5931C9.16316 10.5931 8.90918 10.8471 8.90918 11.1615C8.90918 11.4759 9.16316 11.7299 9.47753 11.7299L11.6799 11.7299L11.6799 13.0904L9.47753 13.0904C9.16316 13.0904 8.90918 13.3443 8.90918 13.6587C8.90918 13.9731 9.16316 14.2271 9.47753 14.2271L11.6799 14.2271L11.6799 15.7954C11.6799 16.1097 11.9339 16.3637 12.2483 16.3637C12.5626 16.3637 12.8166 16.1097 12.8166 15.7954L12.8166 14.2271L15.019 14.2271C15.3334 14.2271 15.5873 13.9731 15.5873 13.6587C15.5873 13.3443 15.3334 13.0904 15.019 13.0904L12.8166 13.0904L12.8166 11.7299L15.019 11.7299L15.019 11.7316Z"   fill="#CC4E1D" ></path></svg>