<svg xmlns="http://www.w3.org/2000/svg" xmlns:xlink="http://www.w3.org/1999/xlink" width="24" height="24" viewBox="0 0 24 24" fill="none"><path   fill="rgba(3, 79, 161, 1)"  d="M19.4251 10.5884L19.4251 5.9601L20.2251 5.9601L19.4251 5.9601C19.4251 4.96592 18.6191 4.15999 17.625 4.15999L17.625 4.15999L5.95997 4.15999L5.95997 3.35999L5.95997 4.15999C4.9658 4.15999 4.15986 4.96592 4.15986 5.9601L4.15986 5.9601L4.15986 17.9518L3.35986 17.9518L4.15986 17.9518C4.15986 18.946 4.9658 19.7519 5.95997 19.7519L5.95997 20.5519L5.95997 19.7519L11.6796 19.7519L11.6796 21.3519L5.95997 21.3519L5.95997 21.3519C4.08215 21.3519 2.55986 19.8296 2.55986 17.9518L2.55986 17.9518L2.55986 5.9601L3.35986 5.9601L2.55986 5.9601C2.55986 4.08227 4.08215 2.55999 5.95997 2.55999L5.95997 2.55999L17.625 2.55999L17.625 3.35999L17.625 2.55999C19.5028 2.55999 21.0251 4.08227 21.0251 5.9601L21.0251 5.9601L21.0251 10.5884L19.4251 10.5884ZM11.6796 21.3519C11.2378 21.3519 10.8796 20.9937 10.8796 20.5519C10.8796 20.1101 11.2378 19.7519 11.6796 19.7519C12.1215 19.7519 12.4796 20.1101 12.4796 20.5519C12.4796 20.9937 12.1215 21.3519 11.6796 21.3519ZM20.2251 11.3884C19.7832 11.3884 19.4251 11.0302 19.4251 10.5884C19.4251 10.1466 19.7832 9.78841 20.2251 9.78841C20.6669 9.78841 21.0251 10.1466 21.0251 10.5884C21.0251 11.0302 20.6669 11.3884 20.2251 11.3884Z"></path><path d="M12.6908 17.1517L15.5789 20.4911C15.6815 20.6095 15.8605 20.6227 15.9789 20.5201C15.9868 20.5135 15.9947 20.5056 16.0012 20.4977L21.2853 14.7794C21.3853 14.6715 21.3853 14.5044 21.284 14.3965C21.1827 14.2887 21.0156 14.2768 20.8998 14.3689L15.946 18.3793C15.8499 18.457 15.7157 18.4635 15.6131 18.3964L13.0605 16.7346C12.9421 16.6583 12.7869 16.6794 12.6934 16.7846C12.6 16.8886 12.6 17.0465 12.6908 17.1517Z" stroke="rgba(3, 79, 161, 1)" stroke-width="0.6"      fill="#034FA1" ></path><path d="M10.2973 6.53979C10.0456 6.34204 9.69428 6.34204 9.44257 6.53979C8.52149 7.26488 6.38058 9.20513 6.39164 11.5409C6.39164 13.5299 7.95168 15.1491 9.86854 15.1491C10.7952 15.1491 11.6692 14.7737 12.3275 14.0916C12.9859 13.4095 13.3482 12.5067 13.3482 11.5466C13.3593 9.25099 11.2184 7.27921 10.2973 6.53979ZM9.87131 14.2378C8.43851 14.2378 7.27124 13.0283 7.27124 11.5409C7.26294 9.67801 9.07746 7.9957 9.87131 7.35086C10.6624 8.00716 12.4797 9.71527 12.4714 11.5438C12.4686 13.0283 11.3041 14.2378 9.87131 14.2378ZM14.9331 9.35989C14.6372 9.12775 14.2223 9.12775 13.9263 9.35989C13.8018 9.45743 13.681 9.55965 13.564 9.66655C13.3869 9.82991 13.3676 10.1165 13.5225 10.3028C13.6801 10.4919 13.9595 10.5149 14.1421 10.3515C14.2361 10.2684 14.3301 10.1853 14.4297 10.1079C14.8972 10.4891 15.9593 11.4721 15.9538 12.5497C15.9538 13.4181 15.2706 14.126 14.4297 14.126L14.427 14.126C14.1144 14.126 13.8157 14.0285 13.5584 13.8422C13.362 13.6989 13.0882 13.7505 12.9499 13.954C12.8835 14.0543 12.8559 14.1747 12.8752 14.2951C12.8946 14.4154 12.9582 14.5186 13.055 14.5903C13.4588 14.8855 13.9318 15.0402 14.427 15.0402L14.4297 15.0402C15.0714 15.0402 15.6744 14.7823 16.1281 14.3123C16.5817 13.8422 16.8334 13.2203 16.8334 12.5583C16.8362 11.1081 15.644 9.93308 14.9331 9.35989Z" stroke="rgba(204, 78, 29, 1)" stroke-width="0.6"      fill="#CC4E1D" ></path></svg>