<svg xmlns="http://www.w3.org/2000/svg" xmlns:xlink="http://www.w3.org/1999/xlink" width="24" height="24" viewBox="0 0 24 24" fill="none"><path   fill="rgba(3, 79, 161, 1)"  d="M19.4251 10.5884L19.4251 5.9601L20.2251 5.9601L19.4251 5.9601C19.4251 4.96592 18.6191 4.15999 17.625 4.15999L17.625 4.15999L5.95997 4.15999L5.95997 3.35999L5.95997 4.15999C4.9658 4.15999 4.15986 4.96592 4.15986 5.9601L4.15986 5.9601L4.15986 17.9518L3.35986 17.9518L4.15986 17.9518C4.15986 18.946 4.9658 19.7519 5.95997 19.7519L5.95997 20.5519L5.95997 19.7519L11.6796 19.7519L11.6796 21.3519L5.95997 21.3519L5.95997 21.3519C4.08215 21.3519 2.55986 19.8296 2.55986 17.9518L2.55986 17.9518L2.55986 5.9601L3.35986 5.9601L2.55986 5.9601C2.55986 4.08227 4.08215 2.55999 5.95997 2.55999L5.95997 2.55999L17.625 2.55999L17.625 3.35999L17.625 2.55999C19.5028 2.55999 21.0251 4.08227 21.0251 5.9601L21.0251 5.9601L21.0251 10.5884L19.4251 10.5884ZM11.6796 21.3519C11.2378 21.3519 10.8796 20.9937 10.8796 20.5519C10.8796 20.1101 11.2378 19.7519 11.6796 19.7519C12.1215 19.7519 12.4796 20.1101 12.4796 20.5519C12.4796 20.9937 12.1215 21.3519 11.6796 21.3519ZM20.2251 11.3884C19.7832 11.3884 19.4251 11.0302 19.4251 10.5884C19.4251 10.1466 19.7832 9.78841 20.2251 9.78841C20.6669 9.78841 21.0251 10.1466 21.0251 10.5884C21.0251 11.0302 20.6669 11.3884 20.2251 11.3884Z"></path><path d="M15.4891 6.38834C14.3706 5.26981 12.5503 5.26981 11.4316 6.38834L9.25069 8.56933C9.24945 8.57057 9.2479 8.5714 9.24655 8.57275C9.24531 8.57399 9.24448 8.57554 9.24314 8.57688L7.06218 10.7579C5.94346 11.8764 5.94346 13.6968 7.06218 14.8154C7.62144 15.3747 8.35615 15.6544 9.09086 15.6544C9.82557 15.6544 10.5603 15.3747 11.1195 14.8154L13.3005 12.6344C13.3017 12.6332 13.3033 12.6323 13.3046 12.631C13.3059 12.6298 13.3067 12.6282 13.308 12.6269L15.4891 10.4458C16.6079 9.32723 16.6079 7.50687 15.4891 6.38834ZM10.4954 14.1913C9.72077 14.9659 8.46084 14.9659 7.68631 14.1913C6.91197 13.4166 6.91197 12.1567 7.68631 11.3821L9.55898 9.50941L12.3681 12.3186L10.4954 14.1913ZM14.865 9.82163L12.9922 11.6944L10.1832 8.88517L12.0559 7.01247C12.4432 6.62514 12.9518 6.43158 13.4604 6.43158C13.9691 6.43158 14.4777 6.62514 14.865 7.01247C15.6393 7.78712 15.6393 9.04708 14.865 9.82163Z" stroke="rgba(204, 78, 29, 1)" stroke-width="0.6"      fill="#CC4E1D" ></path><path d="M13.4829 7.07068C13.2392 7.07068 13.0415 7.26827 13.0415 7.51211C13.0415 7.75595 13.2392 7.95344 13.4829 7.95344C13.7263 7.95344 13.9244 8.15155 13.9244 8.39488C13.9244 8.63861 14.1219 8.83631 14.3658 8.83631C14.6096 8.83631 14.8072 8.63871 14.8072 8.39488C14.8071 7.6646 14.2132 7.07068 13.4829 7.07068Z"   fill="#CC4E1D" ></path><path d="M12.6908 17.1517L15.5789 20.4911C15.6815 20.6095 15.8605 20.6227 15.9789 20.5201C15.9868 20.5135 15.9947 20.5056 16.0012 20.4977L21.2853 14.7794C21.3853 14.6715 21.3853 14.5044 21.284 14.3965C21.1827 14.2887 21.0156 14.2768 20.8998 14.3689L15.946 18.3793C15.8499 18.457 15.7157 18.4635 15.6131 18.3964L13.0605 16.7346C12.9421 16.6583 12.7869 16.6794 12.6934 16.7846C12.6 16.8886 12.6 17.0465 12.6908 17.1517Z" stroke="rgba(3, 79, 161, 1)" stroke-width="0.6"      fill="#034FA1" ></path></svg>