<svg xmlns="http://www.w3.org/2000/svg" xmlns:xlink="http://www.w3.org/1999/xlink" width="24" height="24" viewBox="0 0 24 24" fill="none"><path d="M18.8574 7.91805L19.758 6.32643C20.08 5.75732 19.9618 5.05344 19.4713 4.61371C17.5863 2.9273 14.922 1.95996 12.1597 1.95996C9.39839 1.95996 6.73413 2.9272 4.84953 4.61371C4.35862 5.05283 4.24036 5.75722 4.56233 6.32643L5.46298 7.91763C3.98028 9.46549 3.16016 11.4377 3.16016 13.5221L3.16016 18.1879C3.16016 18.9714 3.82785 19.6086 4.64939 19.6086L7.20852 19.6086C8.3277 21.1615 10.1526 22.0883 12.1597 22.0883C14.1687 22.0883 15.9928 21.1615 17.1122 19.6086L19.6713 19.6086C20.4923 19.6086 21.1602 18.9714 21.1602 18.1879L21.1602 13.5221C21.1601 11.4377 20.3395 9.46549 18.8574 7.91805ZM5.5001 5.34045C7.20802 3.81206 9.63556 2.93535 12.1597 2.93535C14.6853 2.93535 17.1122 3.81216 18.8207 5.34055C18.9692 5.4739 19.0046 5.67668 18.9093 5.84633L17.831 7.75104L17.831 7.75134L17.5253 8.29109C17.4393 8.44299 17.2585 8.54148 17.0641 8.54148L7.25615 8.54148C7.06184 8.54148 6.88125 8.44289 6.79521 8.29058L6.48945 7.75104C6.48945 7.75052 6.48945 7.75052 6.48845 7.75002L5.41118 5.84633C5.31586 5.67719 5.35093 5.474 5.5001 5.34045ZM12.1597 21.1132C10.3871 21.1132 8.77924 20.2691 7.86055 18.8551C7.38901 18.1308 7.13992 17.3055 7.13992 16.4684L7.13992 13.6705C7.27469 13.6778 7.41002 13.6811 7.54375 13.6811C9.45367 13.6811 10.9815 13.2697 11.8488 12.5218C12.0208 12.3732 12.2998 12.3742 12.4721 12.5218C13.3391 13.2697 14.8675 13.6811 16.7769 13.6811C16.9109 13.6811 17.0458 13.6779 17.1806 13.6705L17.1806 16.4684C17.1806 17.3055 16.932 18.1308 16.4604 18.8551C15.5411 20.269 13.9337 21.1132 12.1597 21.1132ZM20.1849 18.1879C20.1849 18.4336 19.9544 18.633 19.6715 18.633L17.6893 18.633C17.9965 17.9482 18.1561 17.213 18.1561 16.4683L18.1561 13.1402C18.1561 13.1316 18.1559 13.123 18.1555 13.1145C18.1551 13.1059 18.1544 13.0973 18.1535 13.0888C18.1526 13.0802 18.1515 13.0717 18.1501 13.0632C18.1488 13.0547 18.1472 13.0463 18.1454 13.0379C18.1436 13.0295 18.1416 13.0212 18.1394 13.0128C18.1371 13.0045 18.1347 12.9963 18.132 12.9882C18.1293 12.98 18.1265 12.9719 18.1234 12.9639C18.1202 12.9559 18.1169 12.948 18.1134 12.9401C18.1099 12.9323 18.1062 12.9245 18.1023 12.9169C18.0983 12.9093 18.0942 12.9017 18.0899 12.8943C18.0855 12.8869 18.081 12.8796 18.0763 12.8724C18.0716 12.8652 18.0667 12.8582 18.0616 12.8512C18.0565 12.8443 18.0513 12.8375 18.0458 12.8309C18.0404 12.8242 18.0348 12.8177 18.029 12.8114C18.0232 12.805 18.0172 12.7988 18.0111 12.7928C18.005 12.7868 17.9987 12.7809 17.9923 12.7752C17.8886 12.6831 17.7493 12.6374 17.6114 12.6557C17.3343 12.6886 17.0562 12.7051 16.7771 12.7053C15.1251 12.7053 13.7888 12.3689 13.1093 11.7834C12.5676 11.3167 11.7522 11.3157 11.2118 11.7834C10.532 12.3693 9.19562 12.7053 7.54375 12.7053C7.26716 12.7053 6.98607 12.6886 6.70936 12.6557C6.70086 12.6547 6.69234 12.6539 6.68376 12.6533C6.67519 12.6527 6.66663 12.6523 6.65805 12.6521C6.64947 12.652 6.64088 12.6521 6.6323 12.6524C6.62374 12.6527 6.61518 12.6533 6.60663 12.6541C6.59809 12.6548 6.58957 12.6558 6.58106 12.6571C6.57258 12.6583 6.56414 12.6598 6.55572 12.6614C6.54731 12.6631 6.53895 12.665 6.53063 12.6671C6.5223 12.6693 6.51406 12.6716 6.50587 12.6742C6.49769 12.6768 6.48956 12.6795 6.48154 12.6825C6.4735 12.6855 6.46555 12.6887 6.45766 12.6922C6.4498 12.6956 6.44203 12.6992 6.43435 12.7031C6.42668 12.7069 6.41911 12.711 6.41165 12.7152C6.4042 12.7194 6.39685 12.7239 6.38964 12.7285C6.38243 12.7332 6.37533 12.738 6.36836 12.743C6.36139 12.748 6.35458 12.7532 6.34789 12.7586C6.34119 12.7639 6.33466 12.7695 6.32825 12.7752C6.32186 12.7809 6.31563 12.7868 6.30953 12.7929C6.30344 12.7989 6.29751 12.8051 6.29173 12.8115C6.28596 12.8178 6.28036 12.8244 6.27494 12.831C6.26951 12.8377 6.26425 12.8445 6.25919 12.8514C6.25412 12.8583 6.24924 12.8654 6.24452 12.8726C6.23984 12.8798 6.23532 12.887 6.231 12.8945C6.2267 12.9019 6.22257 12.9094 6.21863 12.9171C6.21473 12.9247 6.211 12.9324 6.20748 12.9403C6.20397 12.9481 6.20067 12.956 6.19756 12.964C6.19448 12.972 6.19157 12.9801 6.18888 12.9883C6.18621 12.9964 6.18376 13.0047 6.18151 13.0129C6.17926 13.0212 6.17723 13.0296 6.17542 13.038C6.17363 13.0464 6.17203 13.0548 6.17066 13.0633C6.16931 13.0718 6.16815 13.0803 6.16724 13.0888C6.16632 13.0973 6.16564 13.1059 6.16516 13.1145C6.16469 13.123 6.16445 13.1316 6.16443 13.1402L6.16443 16.4683C6.16443 17.2131 6.32459 17.9482 6.63126 18.633L4.64939 18.633C4.36565 18.633 4.13556 18.4337 4.13556 18.1879L4.13556 13.5221C4.13556 11.7858 4.77948 10.1302 5.96235 8.79963C6.22721 9.24303 6.71976 9.51687 7.25595 9.51687L17.0641 9.51687C17.6004 9.51687 18.0928 9.24303 18.3577 8.79963C19.5406 10.1302 20.1847 11.7858 20.1847 13.5221L20.1847 18.1879L20.1849 18.1879Z" stroke="rgba(3, 79, 161, 1)" stroke-width="0.6"      fill="#034FA1" ></path><path d="M11.8728 3.73804C12.2062 3.73804 12.4828 3.99335 12.5098 4.32576L12.5098 5.1378L13.3264 5.1378C13.3363 5.1378 13.3533 5.14229 13.3533 5.14229C13.3631 5.14229 13.3749 5.14677 13.3847 5.14677C13.3945 5.14677 13.4116 5.15126 13.4116 5.15126C13.4213 5.15126 13.443 5.16023 13.443 5.16023C13.4526 5.16023 13.4605 5.1692 13.4699 5.1692C13.4794 5.1692 13.5013 5.17818 13.5013 5.17818C13.5106 5.17818 13.5191 5.18715 13.5283 5.18715C13.5374 5.18715 13.5462 5.20061 13.5552 5.20061C13.5641 5.20061 13.5734 5.20931 13.5821 5.21407C13.5908 5.21882 13.596 5.22236 13.6045 5.22753C13.613 5.23265 13.6232 5.23991 13.6314 5.24547C13.6397 5.25102 13.6459 5.2575 13.6539 5.26342C13.6619 5.26933 13.6731 5.27508 13.6808 5.28136C13.6885 5.28765 13.6958 5.29267 13.7032 5.29931C13.7106 5.30595 13.7186 5.31478 13.7257 5.32174C13.7327 5.32871 13.7369 5.33239 13.7436 5.33969C13.7503 5.34698 13.7596 5.3545 13.766 5.36212C13.7724 5.3697 13.7779 5.38115 13.784 5.38904C13.79 5.39692 13.7963 5.4033 13.8019 5.41147C13.8076 5.41962 13.8101 5.42998 13.8154 5.43839C13.8206 5.4468 13.8285 5.45215 13.8333 5.46082C13.8382 5.46947 13.8468 5.47887 13.8468 5.48774C13.8468 5.49661 13.8603 5.50559 13.8603 5.51466C13.8603 5.52373 13.8692 5.53233 13.8692 5.54158C13.8692 5.55082 13.8782 5.55907 13.8782 5.56849C13.8782 5.57789 13.8872 5.59035 13.8872 5.5999C13.8872 5.60943 13.8961 5.61714 13.8961 5.62682C13.8961 5.63646 13.9006 5.64845 13.9006 5.65822C13.9006 5.66799 13.9096 5.6753 13.9096 5.68514C13.9096 5.69496 13.9096 5.70664 13.9096 5.71655C13.9096 5.72643 13.9141 5.73354 13.9141 5.74347C13.9141 5.75339 13.9141 5.76495 13.9141 5.77487C13.9141 5.78479 13.9141 5.79633 13.9141 5.80628C13.9141 5.81618 13.9096 5.82329 13.9096 5.83319C13.9096 5.84307 13.9096 5.85476 13.9096 5.8646C13.9096 5.87441 13.9006 5.88175 13.9006 5.89152C13.9006 5.90129 13.8961 5.91326 13.8961 5.92292C13.8961 5.93258 13.8872 5.94029 13.8872 5.94984C13.8872 5.95939 13.8782 5.97182 13.8782 5.98125C13.8782 5.99064 13.8692 5.99892 13.8692 6.00816C13.8692 6.01741 13.8603 6.02601 13.8603 6.03508C13.8603 6.04415 13.8468 6.05311 13.8468 6.062C13.8468 6.07085 13.8382 6.08024 13.8333 6.08892C13.8285 6.09755 13.8206 6.1074 13.8154 6.11584C13.8101 6.12425 13.8076 6.1301 13.8019 6.13827C13.7963 6.14642 13.79 6.15728 13.784 6.16519C13.7779 6.17308 13.7724 6.18002 13.766 6.18762C13.7596 6.19522 13.7503 6.20276 13.7436 6.21005C13.7369 6.21735 13.7327 6.2255 13.7257 6.23248C13.7186 6.23945 13.7106 6.24377 13.7032 6.25043C13.6958 6.25705 13.6885 6.26207 13.6808 6.26838C13.6731 6.27464 13.6619 6.28038 13.6539 6.28632C13.6459 6.29224 13.6397 6.2987 13.6314 6.30427C13.6232 6.30979 13.613 6.31704 13.6045 6.32221C13.596 6.32736 13.5908 6.3309 13.5821 6.33567C13.5734 6.3404 13.5641 6.34913 13.5552 6.34913C13.5462 6.34913 13.5374 6.36259 13.5283 6.36259C13.5191 6.36259 13.5106 6.37156 13.5013 6.37156C13.492 6.37156 13.4794 6.38502 13.4699 6.38502C13.4605 6.38502 13.4526 6.394 13.443 6.394C13.4334 6.394 13.4213 6.39848 13.4116 6.39848C13.4019 6.39848 13.3945 6.40297 13.3847 6.40297C13.3749 6.40297 13.3631 6.40745 13.3533 6.40745C13.3434 6.40745 13.3363 6.41194 13.3264 6.41194L12.5098 6.41194L12.5098 7.22847C12.5098 7.23837 12.5098 7.24553 12.5098 7.25539C12.5098 7.26522 12.5054 7.277 12.5054 7.28679C12.5054 7.29656 12.4964 7.30403 12.4964 7.31371C12.4964 7.32339 12.4919 7.33552 12.4919 7.34512C12.4919 7.35469 12.4829 7.36257 12.4829 7.37203C12.4829 7.38148 12.474 7.38966 12.474 7.39895C12.474 7.40824 12.4605 7.41674 12.4605 7.42587C12.4605 7.43499 12.4515 7.44385 12.4515 7.45279C12.4515 7.46173 12.4428 7.47099 12.4381 7.47971C12.4333 7.48843 12.4253 7.49813 12.4201 7.50663C12.4149 7.51511 12.4122 7.52531 12.4067 7.53355C12.4011 7.54178 12.3946 7.548 12.3887 7.55598C12.3828 7.56393 12.3771 7.5707 12.3708 7.57841C12.3645 7.58608 12.355 7.59344 12.3483 7.60084C12.3417 7.6082 12.3374 7.6162 12.3304 7.62327C12.3234 7.63033 12.3152 7.63896 12.308 7.64571C12.3007 7.65243 12.2931 7.65725 12.2855 7.66365C12.2779 7.67005 12.271 7.67557 12.2631 7.6816C12.2552 7.68762 12.2488 7.69389 12.2407 7.69954C12.2325 7.70519 12.2222 7.71221 12.2137 7.71749C12.2053 7.72275 12.1955 7.72606 12.1868 7.73095C12.1782 7.73581 12.1688 7.74441 12.1599 7.74441C12.151 7.74441 12.1421 7.75787 12.133 7.75787C12.1239 7.75787 12.1153 7.77133 12.1061 7.77133C12.0968 7.77133 12.0885 7.7803 12.0791 7.7803C12.0697 7.7803 12.0618 7.78927 12.0522 7.78927C12.0427 7.78927 12.0305 7.79824 12.0208 7.79824C12.0111 7.79824 12.0037 7.80273 11.9939 7.80273C11.9842 7.80273 11.9723 7.80722 11.9625 7.80722C11.9526 7.80722 11.9455 7.8117 11.9356 7.8117C11.9257 7.8117 11.9141 7.8117 11.9042 7.8117C11.8943 7.8117 11.8827 7.81619 11.8728 7.81619C11.8628 7.81619 11.8558 7.8117 11.8459 7.8117C11.8359 7.8117 11.8243 7.8117 11.8144 7.8117C11.8046 7.8117 11.7973 7.80722 11.7875 7.80722C11.7777 7.80722 11.7659 7.80273 11.7561 7.80273C11.7464 7.80273 11.7389 7.79824 11.7292 7.79824C11.7195 7.79824 11.7074 7.78927 11.6978 7.78927C11.6882 7.78927 11.6803 7.7803 11.6709 7.7803C11.6615 7.7803 11.6532 7.77133 11.644 7.77133C11.6347 7.77133 11.6216 7.75787 11.6126 7.75787C11.6035 7.75787 11.5945 7.74441 11.5856 7.74441C11.5767 7.74441 11.5718 7.73581 11.5632 7.73095C11.5545 7.72606 11.5447 7.72275 11.5363 7.71749C11.5279 7.71221 11.5175 7.70519 11.5094 7.69954C11.5012 7.69389 11.4948 7.68762 11.4869 7.6816C11.4791 7.67557 11.4721 7.67005 11.4645 7.66365C11.4569 7.65725 11.4494 7.65243 11.4421 7.64571C11.4348 7.63896 11.4266 7.63033 11.4196 7.62327C11.4127 7.6162 11.4038 7.6082 11.3972 7.60084C11.3906 7.59344 11.3856 7.58608 11.3793 7.57841C11.373 7.5707 11.3672 7.56393 11.3613 7.55598C11.3554 7.548 11.3489 7.54178 11.3434 7.53355C11.3378 7.52531 11.3351 7.51511 11.3299 7.50663C11.3247 7.49813 11.3167 7.48843 11.312 7.47971C11.3072 7.47099 11.2985 7.46173 11.2985 7.45279C11.2985 7.44385 11.2851 7.43499 11.2851 7.42587C11.2851 7.41674 11.2761 7.40824 11.2761 7.39895C11.2761 7.38966 11.2671 7.38148 11.2671 7.37203C11.2671 7.36257 11.2581 7.35469 11.2581 7.34512C11.2581 7.33552 11.2492 7.32339 11.2492 7.31371C11.2492 7.30403 11.2447 7.29656 11.2447 7.28679C11.2447 7.277 11.2402 7.26522 11.2402 7.25539C11.2402 7.24553 11.2357 7.23837 11.2357 7.22847L11.2357 6.41194L10.4237 6.41194C10.4138 6.41194 10.4021 6.40745 10.3923 6.40745C10.3824 6.40745 10.3751 6.40297 10.3653 6.40297C10.3555 6.40297 10.3436 6.39848 10.3339 6.39848C10.3242 6.39848 10.3166 6.394 10.307 6.394C10.2974 6.394 10.2895 6.38502 10.2801 6.38502C10.2706 6.38502 10.258 6.37156 10.2487 6.37156C10.2394 6.37156 10.2309 6.36259 10.2218 6.36259C10.2127 6.36259 10.2038 6.34913 10.1949 6.34913C10.1859 6.34913 10.1767 6.3404 10.1679 6.33567C10.1592 6.3309 10.1495 6.32736 10.141 6.32221C10.1325 6.31704 10.1268 6.30979 10.1186 6.30427C10.1103 6.2987 10.0996 6.29224 10.0917 6.28632C10.0837 6.28038 10.0769 6.27464 10.0692 6.26838C10.0615 6.26207 10.0542 6.25705 10.0468 6.25043C10.0394 6.24377 10.0314 6.23945 10.0244 6.23248C10.0173 6.2255 10.0131 6.21733 10.0064 6.21005C9.9997 6.20273 9.99039 6.19522 9.98399 6.18762C9.97761 6.18002 9.97207 6.17308 9.96604 6.16519C9.96 6.15728 9.95375 6.14642 9.9481 6.13827C9.94245 6.1301 9.9399 6.12425 9.93464 6.11584C9.92936 6.1074 9.92156 6.09755 9.91669 6.08892C9.91181 6.08024 9.90323 6.07085 9.90323 6.062C9.90323 6.05311 9.88977 6.04415 9.88977 6.03508C9.88977 6.02601 9.8808 6.01741 9.8808 6.00816C9.8808 5.99892 9.86734 5.99064 9.86734 5.98125C9.86734 5.97182 9.85837 5.95939 9.85837 5.94984C9.85837 5.94029 9.85388 5.93258 9.85388 5.92292C9.85388 5.91326 9.84491 5.90129 9.84491 5.89152C9.84491 5.88175 9.84042 5.87441 9.84042 5.8646C9.84042 5.85476 9.83594 5.84307 9.83594 5.83319C9.83594 5.82329 9.83594 5.81618 9.83594 5.80628C9.83594 5.79633 9.83594 5.78479 9.83594 5.77487C9.83594 5.76495 9.83594 5.75339 9.83594 5.74347C9.83594 5.73354 9.83594 5.72643 9.83594 5.71655C9.83594 5.70664 9.84042 5.69496 9.84042 5.68514C9.84042 5.6753 9.84491 5.66799 9.84491 5.65822C9.84491 5.64845 9.85388 5.63646 9.85388 5.62682C9.85388 5.61714 9.85837 5.60943 9.85837 5.5999C9.85837 5.59035 9.86734 5.57789 9.86734 5.56849C9.86734 5.55907 9.8808 5.55082 9.8808 5.54158C9.8808 5.53233 9.88977 5.52373 9.88977 5.51466C9.88977 5.50559 9.90323 5.49661 9.90323 5.48774C9.90323 5.47887 9.91183 5.46947 9.91669 5.46082C9.92158 5.45215 9.92936 5.4468 9.93464 5.43839C9.9399 5.42998 9.94245 5.41962 9.9481 5.41147C9.95375 5.4033 9.96 5.39692 9.96604 5.38904C9.97207 5.38115 9.97761 5.3697 9.98399 5.36212C9.99039 5.3545 9.9997 5.34698 10.0064 5.33969C10.0131 5.33239 10.0173 5.32871 10.0244 5.32174C10.0314 5.31478 10.0394 5.30595 10.0468 5.29931C10.0542 5.29267 10.0615 5.28765 10.0692 5.28136C10.0769 5.27508 10.0837 5.26933 10.0917 5.26342C10.0996 5.2575 10.1103 5.25102 10.1186 5.24547C10.1268 5.23991 10.1325 5.23265 10.141 5.22753C10.1495 5.22236 10.1592 5.21882 10.1679 5.21407C10.1767 5.20931 10.1859 5.20061 10.1949 5.20061C10.2038 5.20061 10.2127 5.18715 10.2218 5.18715C10.2309 5.18715 10.2394 5.17818 10.2487 5.17818C10.258 5.17818 10.2706 5.1692 10.2801 5.1692C10.2895 5.1692 10.2974 5.16023 10.307 5.16023C10.3166 5.16023 10.3242 5.15126 10.3339 5.15126C10.3436 5.15126 10.3555 5.14677 10.3653 5.14677C10.3751 5.14677 10.3824 5.14229 10.3923 5.14229C10.4021 5.14229 10.4138 5.1378 10.4237 5.1378L11.2357 5.1378L11.2357 4.32576C11.2357 4.31586 11.2402 4.30421 11.2402 4.29435C11.2402 4.28449 11.2447 4.27721 11.2447 4.26743C11.2447 4.25764 11.2492 4.24571 11.2492 4.23603C11.2492 4.22635 11.2581 4.21868 11.2581 4.20911C11.2581 4.19951 11.2671 4.18715 11.2671 4.17771C11.2671 4.16824 11.2761 4.16008 11.2761 4.15079C11.2761 4.1415 11.2851 4.13298 11.2851 4.12387C11.2851 4.11476 11.2985 4.10589 11.2985 4.09695C11.2985 4.08801 11.3072 4.07875 11.312 4.07003C11.3167 4.06131 11.3247 4.05161 11.3299 4.04311C11.3351 4.03461 11.3378 4.02443 11.3434 4.01619C11.3489 4.00796 11.3554 4.00174 11.3613 3.99376C11.3673 3.98579 11.373 3.979 11.3793 3.97133C11.3856 3.96364 11.3906 3.95628 11.3972 3.9489C11.4038 3.94149 11.4127 3.93352 11.4196 3.92647C11.4266 3.91939 11.4348 3.91076 11.4421 3.90403C11.4493 3.89729 11.4569 3.89249 11.4645 3.88609C11.4721 3.8797 11.4791 3.87417 11.4869 3.86814C11.4948 3.86211 11.5012 3.85585 11.5094 3.8502C11.5175 3.84454 11.5279 3.83752 11.5363 3.83225C11.5447 3.82699 11.5546 3.82366 11.5632 3.81879C11.5719 3.81392 11.5768 3.80533 11.5856 3.80533C11.5945 3.80533 11.6035 3.79187 11.6126 3.79187C11.6216 3.79187 11.6347 3.77841 11.644 3.77841C11.6532 3.77841 11.6615 3.76944 11.6709 3.76944C11.6803 3.76944 11.6882 3.76047 11.6978 3.76047C11.7074 3.76047 11.7195 3.7515 11.7292 3.7515C11.7389 3.7515 11.7464 3.74701 11.7561 3.74701C11.7659 3.74701 11.7777 3.74252 11.7875 3.74252C11.7974 3.74252 11.8046 3.73804 11.8144 3.73804C11.8243 3.73804 11.8359 3.73804 11.8459 3.73804C11.8558 3.73804 11.8628 3.73804 11.8728 3.73804Z"   fill="#CC4E1D" ></path></svg>