<svg xmlns="http://www.w3.org/2000/svg" xmlns:xlink="http://www.w3.org/1999/xlink" width="24" height="24" viewBox="0 0 24 24" fill="none"><path d="M11.2039 3.95776C11.5051 3.95776 11.7549 4.18836 11.7793 4.4886L11.7793 5.22204L12.5168 5.22204C12.5258 5.22204 12.5412 5.22609 12.5412 5.22609C12.5501 5.22609 12.5607 5.23014 12.5695 5.23014C12.5783 5.23014 12.5938 5.2342 12.5938 5.2342C12.6026 5.2342 12.6222 5.2423 12.6222 5.2423C12.6308 5.2423 12.638 5.2504 12.6465 5.2504C12.655 5.2504 12.6749 5.25851 12.6749 5.25851C12.6833 5.25851 12.6909 5.26661 12.6992 5.26661C12.7074 5.26661 12.7154 5.27877 12.7235 5.27877C12.7316 5.27877 12.7399 5.28663 12.7478 5.29093C12.7557 5.29522 12.7604 5.29841 12.7681 5.30308C12.7757 5.30771 12.785 5.31427 12.7924 5.31929C12.7998 5.3243 12.8054 5.33016 12.8127 5.3355C12.8199 5.34084 12.83 5.34603 12.837 5.35171C12.8439 5.35739 12.8506 5.36192 12.8572 5.36792C12.8639 5.37391 12.8711 5.38189 12.8775 5.38818C12.8839 5.39447 12.8876 5.3978 12.8937 5.40439C12.8998 5.41098 12.9082 5.41776 12.914 5.42465C12.9197 5.43149 12.9247 5.44184 12.9302 5.44896C12.9356 5.45608 12.9413 5.46184 12.9464 5.46922C12.9515 5.47658 12.9538 5.48594 12.9585 5.49353C12.9633 5.50113 12.9703 5.50596 12.9747 5.51379C12.9791 5.52161 12.9869 5.53009 12.9869 5.53811C12.9869 5.54612 12.9991 5.55423 12.9991 5.56242C12.9991 5.57061 13.0072 5.57838 13.0072 5.58673C13.0072 5.59508 13.0153 5.60254 13.0153 5.61105C13.0153 5.61954 13.0234 5.63078 13.0234 5.63941C13.0234 5.64802 13.0315 5.65498 13.0315 5.66372C13.0315 5.67243 13.0355 5.68327 13.0355 5.69209C13.0355 5.70092 13.0436 5.70752 13.0436 5.7164C13.0436 5.72527 13.0436 5.73582 13.0436 5.74477C13.0436 5.75369 13.0477 5.76012 13.0477 5.76908C13.0477 5.77805 13.0477 5.78848 13.0477 5.79745C13.0477 5.80641 13.0477 5.81683 13.0477 5.82581C13.0477 5.83476 13.0436 5.84118 13.0436 5.85012C13.0436 5.85905 13.0436 5.86961 13.0436 5.87849C13.0436 5.88735 13.0355 5.89398 13.0355 5.9028C13.0355 5.91163 13.0315 5.92244 13.0315 5.93117C13.0315 5.93989 13.0234 5.94685 13.0234 5.95548C13.0234 5.96411 13.0153 5.97534 13.0153 5.98385C13.0153 5.99234 13.0072 5.99981 13.0072 6.00816C13.0072 6.01651 12.9991 6.02428 12.9991 6.03247C12.9991 6.04066 12.9869 6.04875 12.9869 6.05679C12.9869 6.06478 12.9791 6.07326 12.9747 6.0811C12.9703 6.08889 12.9633 6.09779 12.9585 6.10541C12.9538 6.11301 12.9515 6.11829 12.9464 6.12567C12.9413 6.13303 12.9356 6.14284 12.9302 6.14998C12.9247 6.15711 12.9197 6.16338 12.914 6.17025C12.9082 6.17711 12.8998 6.18392 12.8937 6.19051C12.8876 6.1971 12.8839 6.20446 12.8775 6.21077C12.8711 6.21706 12.8639 6.22096 12.8572 6.22698C12.8506 6.23295 12.8439 6.23749 12.837 6.24319C12.83 6.24884 12.8199 6.25403 12.8127 6.25939C12.8054 6.26474 12.7998 6.27058 12.7924 6.2756C12.785 6.28059 12.7757 6.28714 12.7681 6.29181C12.7604 6.29646 12.7557 6.29965 12.7478 6.30397C12.7399 6.30824 12.7316 6.31612 12.7235 6.31612C12.7154 6.31612 12.7074 6.32828 12.6992 6.32828C12.6909 6.32828 12.6833 6.33638 12.6749 6.33638C12.6665 6.33638 12.655 6.34854 12.6465 6.34854C12.638 6.34854 12.6308 6.35665 12.6222 6.35665C12.6135 6.35665 12.6026 6.3607 12.5938 6.3607C12.5851 6.3607 12.5783 6.36475 12.5695 6.36475C12.5607 6.36475 12.5501 6.3688 12.5412 6.3688C12.5323 6.3688 12.5258 6.37285 12.5168 6.37285L11.7793 6.37285L11.7793 7.11035C11.7793 7.11929 11.7793 7.12576 11.7793 7.13466C11.7793 7.14355 11.7753 7.15418 11.7753 7.16303C11.7753 7.17185 11.7672 7.17859 11.7672 7.18734C11.7672 7.19609 11.7631 7.20704 11.7631 7.2157C11.7631 7.22435 11.755 7.23147 11.755 7.24002C11.755 7.24855 11.7469 7.25594 11.7469 7.26433C11.7469 7.27272 11.7348 7.28039 11.7348 7.28864C11.7348 7.29688 11.7267 7.30488 11.7267 7.31296C11.7267 7.32103 11.7188 7.32939 11.7145 7.33727C11.7102 7.34514 11.703 7.3539 11.6983 7.36158C11.6936 7.36924 11.6912 7.37846 11.6861 7.3859C11.6811 7.39334 11.6753 7.39895 11.6699 7.40616C11.6646 7.41334 11.6594 7.41945 11.6537 7.42642C11.6481 7.43334 11.6395 7.43999 11.6335 7.44668C11.6275 7.45333 11.6236 7.46055 11.6173 7.46694C11.611 7.47331 11.6036 7.4811 11.597 7.4872C11.5904 7.49327 11.5836 7.49763 11.5767 7.50341C11.5699 7.50919 11.5636 7.51418 11.5565 7.51962C11.5494 7.52506 11.5436 7.53072 11.5362 7.53583C11.5288 7.54093 11.5195 7.54727 11.5119 7.55203C11.5043 7.55678 11.4954 7.55978 11.4876 7.56419C11.4798 7.56858 11.4713 7.57635 11.4633 7.57635C11.4553 7.57635 11.4472 7.5885 11.439 7.5885C11.4308 7.5885 11.423 7.60066 11.4147 7.60066C11.4063 7.60066 11.3988 7.60876 11.3903 7.60876C11.3819 7.60876 11.3746 7.61687 11.366 7.61687C11.3574 7.61687 11.3464 7.62497 11.3377 7.62497C11.3289 7.62497 11.3222 7.62903 11.3133 7.62903C11.3045 7.62903 11.2938 7.63308 11.285 7.63308C11.2761 7.63308 11.2696 7.63713 11.2607 7.63713C11.2517 7.63713 11.2413 7.63713 11.2323 7.63713C11.2233 7.63713 11.2129 7.64118 11.2039 7.64118C11.195 7.64118 11.1886 7.63713 11.1796 7.63713C11.1707 7.63713 11.1602 7.63713 11.1513 7.63713C11.1423 7.63713 11.1358 7.63308 11.127 7.63308C11.118 7.63308 11.1074 7.62903 11.0986 7.62903C11.0898 7.62903 11.083 7.62497 11.0743 7.62497C11.0655 7.62497 11.0545 7.61687 11.0459 7.61687C11.0373 7.61687 11.0301 7.60876 11.0216 7.60876C11.0131 7.60876 11.0056 7.60066 10.9973 7.60066C10.9889 7.60066 10.9771 7.5885 10.9689 7.5885C10.9607 7.5885 10.9526 7.57635 10.9446 7.57635C10.9366 7.57635 10.9321 7.56858 10.9243 7.56419C10.9165 7.55978 10.9076 7.55678 10.9 7.55203C10.8924 7.54727 10.8831 7.54093 10.8757 7.53583C10.8683 7.53072 10.8626 7.52506 10.8555 7.51962C10.8483 7.51418 10.8421 7.50919 10.8352 7.50341C10.8283 7.49763 10.8215 7.49327 10.8149 7.4872C10.8083 7.4811 10.801 7.47331 10.7947 7.46694C10.7884 7.46055 10.7804 7.45333 10.7744 7.44668C10.7684 7.43999 10.7639 7.43334 10.7582 7.42642C10.7525 7.41945 10.7473 7.41334 10.742 7.40616C10.7366 7.39895 10.7308 7.39334 10.7258 7.3859C10.7208 7.37846 10.7183 7.36924 10.7136 7.36158C10.709 7.3539 10.7017 7.34514 10.6974 7.33727C10.6931 7.32939 10.6853 7.32103 10.6853 7.31296C10.6853 7.30488 10.6731 7.29688 10.6731 7.28864C10.6731 7.28039 10.665 7.27272 10.665 7.26433C10.665 7.25594 10.6569 7.24855 10.6569 7.24002C10.6569 7.23147 10.6488 7.22435 10.6488 7.2157C10.6488 7.20704 10.6407 7.19609 10.6407 7.18734C10.6407 7.17859 10.6366 7.17185 10.6366 7.16303C10.6366 7.15418 10.6326 7.14355 10.6326 7.13466C10.6326 7.12576 10.6285 7.11929 10.6285 7.11035L10.6285 6.37285L9.89509 6.37285C9.88615 6.37285 9.87561 6.3688 9.86673 6.3688C9.85782 6.3688 9.85124 6.36475 9.84241 6.36475C9.83357 6.36475 9.82279 6.3607 9.81405 6.3607C9.8053 6.3607 9.79838 6.35665 9.78973 6.35665C9.78109 6.35665 9.77395 6.34854 9.76542 6.34854C9.75687 6.34854 9.74547 6.33638 9.73706 6.33638C9.72867 6.33638 9.72098 6.32828 9.71274 6.32828C9.70451 6.32828 9.6965 6.31612 9.68843 6.31612C9.68036 6.31612 9.67199 6.30824 9.66412 6.30397C9.65624 6.29965 9.64746 6.29646 9.6398 6.29181C9.63213 6.28714 9.62698 6.28059 9.61954 6.2756C9.61208 6.27058 9.60241 6.26474 9.59523 6.25939C9.58803 6.25403 9.58192 6.24884 9.57497 6.24319C9.56802 6.23749 9.56136 6.23295 9.55471 6.22698C9.54804 6.22096 9.54082 6.21706 9.53445 6.21077C9.52806 6.20446 9.52431 6.19708 9.51824 6.19051C9.51217 6.1839 9.50376 6.17711 9.49798 6.17025C9.49222 6.16338 9.48721 6.15711 9.48177 6.14998C9.47631 6.14284 9.47067 6.13303 9.46556 6.12567C9.46046 6.11829 9.45815 6.11301 9.45341 6.10541C9.44864 6.09779 9.44159 6.08889 9.4372 6.0811C9.43278 6.07326 9.42504 6.06478 9.42504 6.05679C9.42504 6.04875 9.41288 6.04066 9.41288 6.03247C9.41288 6.02428 9.40478 6.01651 9.40478 6.00816C9.40478 5.99981 9.39262 5.99234 9.39262 5.98385C9.39262 5.97534 9.38452 5.96411 9.38452 5.95548C9.38452 5.94685 9.38047 5.93989 9.38047 5.93117C9.38047 5.92244 9.37236 5.91163 9.37236 5.9028C9.37236 5.89398 9.36831 5.88735 9.36831 5.87849C9.36831 5.86961 9.36426 5.85905 9.36426 5.85012C9.36426 5.84118 9.36426 5.83476 9.36426 5.82581C9.36426 5.81683 9.36426 5.80641 9.36426 5.79745C9.36426 5.78848 9.36426 5.77805 9.36426 5.76908C9.36426 5.76012 9.36426 5.75369 9.36426 5.74477C9.36426 5.73582 9.36831 5.72527 9.36831 5.7164C9.36831 5.70752 9.37236 5.70092 9.37236 5.69209C9.37236 5.68327 9.38047 5.67243 9.38047 5.66372C9.38047 5.65498 9.38452 5.64802 9.38452 5.63941C9.38452 5.63078 9.39262 5.61954 9.39262 5.61105C9.39262 5.60254 9.40478 5.59508 9.40478 5.58673C9.40478 5.57838 9.41288 5.57061 9.41288 5.56242C9.41288 5.55423 9.42504 5.54612 9.42504 5.53811C9.42504 5.53009 9.4328 5.52161 9.4372 5.51379C9.44161 5.50596 9.44864 5.50113 9.45341 5.49353C9.45815 5.48594 9.46046 5.47658 9.46556 5.46922C9.47067 5.46184 9.47631 5.45608 9.48177 5.44896C9.48721 5.44184 9.49222 5.43149 9.49798 5.42465C9.50376 5.41776 9.51217 5.41098 9.51824 5.40439C9.52431 5.3978 9.52806 5.39447 9.53445 5.38818C9.54082 5.38189 9.54804 5.37391 9.55471 5.36792C9.56136 5.36192 9.56802 5.35739 9.57497 5.35171C9.58192 5.34603 9.58803 5.34084 9.59523 5.3355C9.60241 5.33016 9.61208 5.3243 9.61954 5.31929C9.62698 5.31427 9.63213 5.30771 9.6398 5.30308C9.64746 5.29841 9.65624 5.29522 9.66412 5.29093C9.67199 5.28663 9.68036 5.27877 9.68843 5.27877C9.6965 5.27877 9.70451 5.26661 9.71274 5.26661C9.72098 5.26661 9.72867 5.25851 9.73706 5.25851C9.74547 5.25851 9.75687 5.2504 9.76542 5.2504C9.77395 5.2504 9.78109 5.2423 9.78973 5.2423C9.79838 5.2423 9.8053 5.2342 9.81405 5.2342C9.82279 5.2342 9.83357 5.23014 9.84241 5.23014C9.85124 5.23014 9.85782 5.22609 9.86673 5.22609C9.87561 5.22609 9.88615 5.22204 9.89509 5.22204L10.6285 5.22204L10.6285 4.4886C10.6285 4.47965 10.6326 4.46914 10.6326 4.46023C10.6326 4.45133 10.6366 4.44474 10.6366 4.43592C10.6366 4.42707 10.6407 4.4163 10.6407 4.40755C10.6407 4.39881 10.6488 4.39189 10.6488 4.38324C10.6488 4.37457 10.6569 4.3634 10.6569 4.35488C10.6569 4.34633 10.665 4.33895 10.665 4.33056C10.665 4.32217 10.6731 4.31448 10.6731 4.30625C10.6731 4.29802 10.6853 4.29001 10.6853 4.28194C10.6853 4.27386 10.6931 4.2655 10.6974 4.25762C10.7017 4.24975 10.709 4.24099 10.7136 4.23331C10.7183 4.22563 10.7208 4.21644 10.7258 4.209C10.7308 4.20156 10.7367 4.19594 10.742 4.18874C10.7474 4.18153 10.7525 4.1754 10.7582 4.16848C10.7639 4.16153 10.7684 4.15488 10.7744 4.14822C10.7804 4.14153 10.7884 4.13433 10.7947 4.12795C10.801 4.12156 10.8083 4.11377 10.8149 4.10769C10.8215 4.1016 10.8283 4.09727 10.8352 4.09149C10.842 4.08572 10.8483 4.08072 10.8555 4.07528C10.8626 4.06983 10.8683 4.06418 10.8757 4.05907C10.8831 4.05396 10.8924 4.04762 10.9 4.04286C10.9076 4.0381 10.9165 4.0351 10.9243 4.0307C10.9322 4.0263 10.9366 4.01855 10.9446 4.01855C10.9526 4.01855 10.9607 4.00639 10.9689 4.00639C10.9771 4.00639 10.9889 3.99423 10.9973 3.99423C11.0056 3.99423 11.0131 3.98613 11.0216 3.98613C11.0301 3.98613 11.0373 3.97802 11.0459 3.97802C11.0545 3.97802 11.0655 3.96992 11.0743 3.96992C11.083 3.96992 11.0898 3.96587 11.0986 3.96587C11.1074 3.96587 11.1181 3.96182 11.127 3.96182C11.1358 3.96182 11.1423 3.95776 11.1513 3.95776C11.1602 3.95776 11.1707 3.95776 11.1796 3.95776C11.1886 3.95776 11.195 3.95776 11.2039 3.95776Z"   fill="#034FA1" ></path><path d="M18.9921 6.29861L18.0972 7.88008C18.8934 8.71138 19.4975 9.66604 19.8844 10.695C19.514 10.5854 19.1306 10.5061 18.737 10.46C18.4462 9.85157 18.0653 9.27859 17.6007 8.75604C17.3375 9.19662 16.8482 9.46871 16.3153 9.46871L6.5697 9.46871C6.03692 9.46871 5.54751 9.19662 5.28434 8.75604C4.109 10.0782 3.46919 11.7231 3.46919 13.4485L3.46919 18.0845C3.46919 18.3287 3.69781 18.5267 3.97974 18.5267L5.94899 18.5267C5.64427 17.8464 5.48513 17.1159 5.48513 16.3758L5.48513 13.069C5.48515 13.0604 5.48538 13.0519 5.48586 13.0434C5.48633 13.0349 5.48701 13.0264 5.48792 13.0179C5.48883 13.0094 5.48998 13.0009 5.49132 12.9925C5.49269 12.9841 5.49427 12.9757 5.49605 12.9674C5.49785 12.959 5.49987 12.9507 5.5021 12.9425C5.50434 12.9343 5.50677 12.9261 5.50943 12.918C5.5121 12.9099 5.51499 12.9019 5.51805 12.8939C5.52114 12.8859 5.52442 12.8781 5.52791 12.8703C5.53141 12.8625 5.53511 12.8548 5.53899 12.8472C5.5429 12.8396 5.547 12.8322 5.55127 12.8248C5.55557 12.8174 5.56006 12.8102 5.56471 12.803C5.5694 12.7959 5.57424 12.7889 5.57929 12.782C5.58432 12.7751 5.58954 12.7684 5.59494 12.7617C5.60032 12.7551 5.60588 12.7487 5.61162 12.7423C5.61736 12.736 5.62325 12.7299 5.62931 12.7238C5.63536 12.7178 5.64156 12.712 5.64791 12.7063C5.65428 12.7006 5.66077 12.6951 5.66742 12.6898C5.67406 12.6844 5.68083 12.6792 5.68776 12.6743C5.69468 12.6693 5.70175 12.6645 5.70891 12.6599C5.71607 12.6553 5.72337 12.6509 5.73077 12.6467C5.73819 12.6424 5.74571 12.6384 5.75333 12.6346C5.76096 12.6308 5.76868 12.6272 5.7765 12.6238C5.78433 12.6204 5.79223 12.6172 5.80022 12.6142C5.80819 12.6112 5.81627 12.6085 5.8244 12.6059C5.83253 12.6034 5.84072 12.601 5.84899 12.5989C5.85726 12.5968 5.86557 12.5949 5.87392 12.5932C5.88229 12.5916 5.89068 12.5901 5.89911 12.5889C5.90756 12.5877 5.91603 12.5867 5.92451 12.5859C5.933 12.5851 5.94151 12.5846 5.95002 12.5843C5.95855 12.584 5.96707 12.5839 5.9756 12.584C5.98413 12.5842 5.99264 12.5845 6.00115 12.5851C6.00967 12.5857 6.01814 12.5865 6.02659 12.5876C6.30154 12.6202 6.58083 12.6368 6.85566 12.6368C8.49701 12.6368 9.8249 12.303 10.5003 11.7208C11.0373 11.256 11.8475 11.257 12.3858 11.7208C12.6128 11.9164 12.9136 12.0841 13.2753 12.2204C13.0214 12.453 12.7849 12.7043 12.5682 12.9722C12.2539 12.8239 11.9803 12.6509 11.7526 12.4545C11.5814 12.3079 11.3041 12.3069 11.1332 12.4545C10.2716 13.1976 8.75341 13.6064 6.85566 13.6064C6.72278 13.6064 6.58831 13.6032 6.4544 13.5958L6.4544 16.3759C6.4544 17.2078 6.70191 18.0277 7.17044 18.7475C8.08328 20.1525 9.68086 20.9911 11.4422 20.9911C11.6592 20.9911 11.8737 20.9784 12.0847 20.9535C12.2782 21.2624 12.4955 21.5548 12.734 21.8281C12.3161 21.915 11.8837 21.96 11.4422 21.96C9.44786 21.96 7.63462 21.0392 6.52257 19.4961L3.97974 19.4961C3.16344 19.4961 2.5 18.863 2.5 18.0845L2.5 13.4485C2.5 11.3773 3.31489 9.41767 4.78815 7.87966L3.89324 6.29861C3.57332 5.73303 3.69083 5.03312 4.17861 4.5968C6.0512 2.92103 8.69849 1.95996 11.4422 1.95996C14.1869 1.95996 16.8342 2.92113 18.7072 4.5968C19.1946 5.03373 19.312 5.73312 18.9921 6.29861ZM11.4422 2.92914C8.93414 2.92914 6.52207 3.80026 4.82503 5.31891C4.67681 5.45161 4.64197 5.65351 4.73668 5.82157L5.80709 7.71313C5.80807 7.71362 5.80807 7.71362 5.80807 7.71414L6.11189 8.25024C6.19738 8.40158 6.37682 8.49954 6.56989 8.49954L16.3154 8.49954C16.5085 8.49954 16.6881 8.40168 16.7737 8.25075L17.0774 7.71443L17.0774 7.71414L18.1487 5.82157C18.2435 5.65299 18.2083 5.45151 18.0607 5.319C16.3632 3.80035 13.9517 2.92914 11.4422 2.92914Z" stroke="rgba(3, 79, 161, 1)" stroke-width="0.6"    fill-rule="evenodd"  fill="#034FA1" ></path><path     fill="#CC4E1D"  d="M15.9003 12.4387L20.5638 12.4387C21.0114 12.4387 21.3743 12.8016 21.3743 13.2492L21.3743 13.2492C21.3743 13.6967 21.0114 14.0596 20.5638 14.0596L15.9003 14.0596C15.4527 14.0596 15.0898 13.6967 15.0898 13.2492L15.0898 13.2492C15.0898 12.8016 15.4527 12.4387 15.9003 12.4387Z"></path><path     fill="#CC4E1D"  d="M12.2538 15.6807L20.5648 15.6807C21.0124 15.6807 21.3752 16.0435 21.3752 16.4911L21.3752 16.4911C21.3752 16.9387 21.0124 17.3015 20.5648 17.3015L12.2538 17.3015C11.8062 17.3015 11.4434 16.9387 11.4434 16.4911L11.4434 16.4911C11.4434 16.0435 11.8062 15.6807 12.2538 15.6807Z"></path><path     fill="#CC4E1D"  d="M14.2802 18.9224L20.5651 18.9224C21.0127 18.9224 21.3755 19.2852 21.3755 19.7328L21.3755 19.7328C21.3755 20.1804 21.0127 20.5432 20.5651 20.5432L14.2802 20.5432C13.8326 20.5432 13.4697 20.1804 13.4697 19.7328L13.4697 19.7328C13.4697 19.2852 13.8326 18.9224 14.2802 18.9224Z"></path></svg>