<svg xmlns="http://www.w3.org/2000/svg" xmlns:xlink="http://www.w3.org/1999/xlink" width="24" height="24" viewBox="0 0 24 24" fill="none"><path d="M11.7512 2.58593C11.7759 2.57897 11.8002 2.5743 11.8254 2.56905C11.8507 2.56379 11.8742 2.55906 11.8997 2.55554C11.9253 2.55202 11.9516 2.54879 11.9774 2.54879C12.0032 2.54879 12.0292 2.54541 12.0551 2.54541C12.0809 2.54541 12.1069 2.54879 12.1327 2.54879C12.1585 2.54879 12.1848 2.55202 12.2104 2.55554C12.236 2.55906 12.2594 2.56379 12.2847 2.56905C12.3099 2.5743 12.3376 2.57897 12.3623 2.58593L20.0813 4.76048C20.0947 4.76424 20.1086 4.7697 20.1218 4.77398C20.135 4.77824 20.1493 4.78272 20.1623 4.78749C20.1754 4.79224 20.19 4.79576 20.2028 4.80099C20.2157 4.80621 20.2274 4.81217 20.24 4.81788C20.2526 4.82358 20.2648 4.82859 20.2771 4.83476C20.2895 4.84091 20.3022 4.8484 20.3143 4.85502C20.3263 4.86162 20.3363 4.86821 20.348 4.87528C20.3598 4.88233 20.3737 4.88804 20.3852 4.89554C20.3966 4.90304 20.4078 4.91127 20.419 4.91918C20.4301 4.92708 20.4419 4.93788 20.4527 4.94619C20.4635 4.9545 20.4727 4.9611 20.4831 4.96983C20.4935 4.97853 20.5035 4.98775 20.5135 4.99684C20.5235 5.00593 20.5309 5.0144 20.5405 5.02385C20.5501 5.03331 20.5617 5.04444 20.5709 5.05424C20.5801 5.06404 20.5891 5.07448 20.5979 5.08463C20.6067 5.09476 20.6166 5.10457 20.6249 5.11502C20.6333 5.12545 20.6407 5.13465 20.6486 5.14541C20.6564 5.15615 20.6648 5.16813 20.6722 5.17918C20.6796 5.19022 20.6855 5.20163 20.6925 5.21294C20.6994 5.22423 20.7062 5.23516 20.7127 5.24671C20.7192 5.25824 20.7237 5.2687 20.7296 5.28047C20.7355 5.29225 20.741 5.30562 20.7465 5.31762C20.7519 5.3296 20.7585 5.3392 20.7634 5.35138C20.7683 5.36357 20.7725 5.37954 20.7769 5.3919C20.7813 5.40425 20.7865 5.41316 20.7904 5.42567C20.7942 5.43818 20.8005 5.45356 20.8005 5.46619C20.8005 5.47882 20.8106 5.49058 20.8106 5.50333C20.8106 5.51607 20.8174 5.52762 20.8174 5.54047C20.8174 5.55331 20.8241 5.56808 20.8241 5.58099C20.8241 5.59391 20.8275 5.60518 20.8275 5.61814C20.8275 5.6311 20.8309 5.64566 20.8309 5.65866C20.8309 5.67166 20.8309 5.68278 20.8309 5.6958L20.8309 10.1529C20.8309 15.2493 17.4382 19.7815 12.3961 21.4005C12.3823 21.4049 12.3696 21.4101 12.3556 21.414C12.3416 21.4179 12.3258 21.4241 12.3117 21.4241C12.2975 21.4241 12.2854 21.4342 12.2712 21.4342C12.2569 21.4342 12.2417 21.441 12.2273 21.441C12.2128 21.441 12.1979 21.4477 12.1834 21.4477C12.1689 21.4477 12.154 21.4511 12.1395 21.4511C12.1249 21.4511 12.1102 21.4545 12.0956 21.4545C12.081 21.4545 12.0663 21.4545 12.0517 21.4545C12.0371 21.4545 12.0258 21.4545 12.0112 21.4545C11.9966 21.4545 11.9818 21.4511 11.9673 21.4511C11.9527 21.4511 11.9379 21.4477 11.9234 21.4477C11.9089 21.4477 11.8939 21.441 11.8795 21.441C11.8651 21.441 11.8499 21.4342 11.8356 21.4342C11.8213 21.4342 11.8058 21.4241 11.7917 21.4241C11.7775 21.4241 11.7652 21.4179 11.7512 21.414C11.7372 21.4101 11.7244 21.4049 11.7106 21.4005C6.66645 19.7821 3.27246 15.2478 3.27246 10.1496L3.27246 5.6958C3.27246 5.68278 3.27246 5.67166 3.27246 5.65866C3.27246 5.64566 3.27584 5.6311 3.27584 5.61814C3.27584 5.60518 3.27921 5.59391 3.27921 5.58099C3.27921 5.56808 3.28597 5.55331 3.28597 5.54047C3.28597 5.52762 3.29272 5.51607 3.29272 5.50333C3.29272 5.49058 3.30285 5.47882 3.30285 5.46619C3.30285 5.45356 3.30912 5.43818 3.31298 5.42567C3.31684 5.41316 3.3221 5.40425 3.32649 5.3919C3.33089 5.37954 3.33508 5.36357 3.33999 5.35138C3.34491 5.3392 3.35143 5.3296 3.35688 5.31762C3.36232 5.30562 3.3678 5.29225 3.37376 5.28047C3.37971 5.2687 3.38419 5.25824 3.39064 5.24671C3.3971 5.23516 3.40397 5.22423 3.4109 5.21294C3.41785 5.20163 3.42374 5.19022 3.43116 5.17918C3.4386 5.16813 3.44691 5.15615 3.4548 5.14541C3.46269 5.13465 3.47008 5.12545 3.47844 5.11502C3.48678 5.10457 3.49665 5.09476 3.50545 5.08463C3.51424 5.07448 3.52324 5.06404 3.53246 5.05424C3.54168 5.04444 3.55322 5.03331 3.56285 5.02385C3.57249 5.0144 3.57984 5.00593 3.58986 4.99684C3.5999 4.98775 3.60983 4.97853 3.62025 4.96983C3.63066 4.9611 3.63986 4.9545 3.65064 4.94619C3.66143 4.93788 3.67329 4.92708 3.68441 4.91918C3.69554 4.91127 3.70672 4.90304 3.71818 4.89554C3.72963 4.88804 3.74354 4.88233 3.75532 4.87528C3.76708 4.86821 3.77701 4.86162 3.78908 4.85502C3.80114 4.8484 3.81388 4.84091 3.82623 4.83476C3.83856 4.82859 3.85077 4.82358 3.86337 4.81788C3.87597 4.81217 3.88768 4.80621 3.90051 4.80099C3.91335 4.79576 3.928 4.79224 3.94103 4.78749C3.95408 4.78272 3.96831 4.77824 3.98155 4.77398C3.99478 4.7697 4.00865 4.76424 4.02207 4.76048L11.7512 2.58593Z" stroke="rgba(3, 79, 161, 1)" stroke-width="1.6"   ></path><path d="M12.2726 11.6209C10.6444 11.6209 9.31982 10.2367 9.31982 8.53543C9.31982 6.83421 10.6444 5.44995 12.2726 5.44995C13.9008 5.44995 15.2254 6.83422 15.2254 8.53544C15.2254 10.2367 13.9008 11.6209 12.2726 11.6209ZM12.2726 6.18899C11.0343 6.18899 10.0271 7.24137 10.0271 8.53544C10.0271 9.82953 11.0343 10.8819 12.2726 10.8819C13.5109 10.8819 14.5181 9.82952 14.5181 8.53544C14.5181 7.24138 13.5109 6.18899 12.2726 6.18899Z" stroke="rgba(204, 78, 29, 1)" stroke-width="0.6"      fill="#CC4E1D" ></path><path     fill="#CC4E1D"  d="M15.5295 16.4525L9.01098 16.4525C8.49579 16.4525 8.01016 16.2128 7.67894 15.801C7.34773 15.3893 7.20554 14.8502 7.29431 14.3204L7.40363 13.6858C7.67516 12.063 9.01666 10.8853 10.594 10.8853L13.9464 10.8853C15.5235 10.8853 16.8646 12.0629 17.1368 13.6858L17.2421 14.3204C17.3308 14.8497 17.1927 15.3892 16.8615 15.801C16.5303 16.2128 16.0447 16.4525 15.5295 16.4525ZM10.594 11.6214C9.36094 11.6214 8.31236 12.5444 8.10001 13.8128L7.9907 14.4473C7.93817 14.7612 8.02112 15.0829 8.21743 15.3272C8.41399 15.5715 8.70519 15.7122 9.01098 15.7122L15.5295 15.7122C15.8353 15.7122 16.1265 15.5715 16.323 15.3272C16.5193 15.0829 16.5982 14.7612 16.5457 14.4473L16.4404 13.8128C16.2276 12.5444 15.1795 11.6214 13.9464 11.6214L10.594 11.6214ZM9.52112 8.92668L9.52112 8.92668C9.54997 8.92668 12.433 8.87149 13.7642 6.48999L14.3756 6.86226C13.2732 8.83475 11.3272 9.42057 10.2645 9.59417C9.86034 9.6602 9.52337 9.3362 9.52112 8.92668Z"></path><path   fill="rgba(204, 78, 29, 1)"  d="M15.5295 16.7525L9.01098 16.7525Q8.55581 16.7525 8.14391 16.5506Q7.73592 16.3505 7.44517 15.989Q7.15589 15.6294 7.03885 15.1807Q6.92141 14.7305 6.99844 14.2708L7.10798 13.6349Q7.2167 12.9851 7.53278 12.4176Q7.8409 11.8644 8.31124 11.4515Q8.78274 11.0377 9.36027 10.8148Q9.95497 10.5853 10.594 10.5853L13.9464 10.5853Q14.5854 10.5853 15.18 10.8148Q15.7574 11.0377 16.2289 11.4516Q16.6991 11.8644 17.0073 12.4176Q17.3235 12.985 17.4327 13.6362L17.538 14.2713Q17.6151 14.7307 17.4999 15.1794Q17.3842 15.6298 17.0953 15.989Q16.8045 16.3505 16.3966 16.5506Q15.9846 16.7525 15.5295 16.7525ZM15.5295 16.1525Q15.8455 16.1525 16.1324 16.0118Q16.4206 15.8705 16.6277 15.613Q16.8353 15.3549 16.9187 15.0302Q17.0023 14.7045 16.9461 14.3695L16.841 13.7355Q16.7489 13.1865 16.4832 12.7096Q16.2254 12.2469 15.833 11.9025Q15.4418 11.559 14.964 11.3746Q14.4736 11.1853 13.9464 11.1853L10.594 11.1853Q10.0667 11.1853 9.57627 11.3746Q9.09832 11.559 8.70705 11.9025Q8.31463 12.2469 8.05696 12.7096Q7.79135 13.1865 7.69927 13.7368L7.59019 14.37Q7.53436 14.7032 7.61942 15.0292Q7.70401 15.3535 7.91271 15.613Q8.11984 15.8705 8.40803 16.0118Q8.69498 16.1525 9.01098 16.1525L15.5295 16.1525ZM10.594 11.9214M10.594 11.9214Q9.78268 11.9214 9.16232 12.4668Q8.53759 13.016 8.39589 13.8623L8.28634 14.4982Q8.22598 14.8589 8.45129 15.1393Q8.67086 15.4122 9.01098 15.4122L15.5295 15.4122Q15.8696 15.4122 16.0893 15.1392Q16.3111 14.8631 16.2498 14.4968L16.1445 13.8619Q16.0025 13.0159 15.3779 12.4668Q14.7577 11.9214 13.9464 11.9214L10.594 11.9214ZM10.594 11.3214L13.9464 11.3214Q14.4582 11.3214 14.9346 11.5057Q15.3968 11.6844 15.7741 12.0162Q16.1501 12.3467 16.3965 12.7894Q16.649 13.2431 16.7364 13.7637L16.8416 14.3978Q16.8915 14.6961 16.8187 14.9864Q16.7446 15.2816 16.5568 15.5153Q16.3672 15.7508 16.098 15.8813Q15.8279 16.0122 15.5295 16.0122L9.01098 16.0122Q8.71256 16.0122 8.44242 15.8813Q8.17324 15.7508 7.98357 15.5151Q7.79582 15.2815 7.72024 14.9882Q7.64491 14.6959 7.69505 14.3964L7.80413 13.7632Q7.89121 13.2431 8.14375 12.7894Q8.39012 12.3467 8.76617 12.0162Q9.14355 11.6844 9.6058 11.5057Q10.0822 11.3214 10.594 11.3214ZM9.52112 8.62668M9.52112 8.62668Q9.66848 8.62668 9.96642 8.58389Q10.5248 8.50371 11.0552 8.31821Q12.7249 7.73435 13.5024 6.34361L13.6543 6.07181L14.7784 6.75634L14.6375 7.00862L14.7784 6.75634L14.6375 7.00862Q13.8653 8.39032 12.4493 9.16592Q11.4728 9.70076 10.3129 9.89025Q9.86932 9.96271 9.53924 9.65978Q9.22355 9.37005 9.22113 8.92832L9.21948 8.62668L9.52112 8.62668ZM9.52112 9.22668L9.52112 8.92668L9.82112 8.92504Q9.8221 9.105 9.94494 9.21773Q10.0603 9.32356 10.2161 9.2981Q11.2747 9.12517 12.1611 8.63969Q13.4257 7.94699 14.1137 6.71591L14.3756 6.86226L14.1137 6.71591L14.3756 6.86226L14.2196 7.1185L13.6082 6.74622L13.7642 6.48999L14.0261 6.63637Q13.5369 7.51152 12.7225 8.11627Q12.0747 8.59735 11.2533 8.88458Q10.6678 9.08932 10.0517 9.1778Q9.71134 9.22668 9.52112 9.22668Z"></path></svg>