<svg xmlns="http://www.w3.org/2000/svg" xmlns:xlink="http://www.w3.org/1999/xlink" width="24" height="24" viewBox="0 0 24 24" fill="none"><path d="M21.4683 20.7625L21.2338 20.7625L21.2338 15.9434C21.2338 15.341 21.1508 14.8111 20.9407 14.3545C20.7242 13.8807 20.3959 13.5361 19.9843 13.2746C19.5899 13.0238 19.121 12.8518 18.6237 12.7039C18.2722 12.5988 17.8739 12.5004 17.4451 12.3953L17.4451 12.346C17.4451 11.8679 17.4465 11.4589 17.4143 11.118C17.38 10.7579 17.3053 10.4227 17.1274 10.0968C16.9495 9.77101 16.7038 9.52687 16.4208 9.30392C16.1529 9.09171 15.8067 8.8722 15.4058 8.61282L13.3819 7.31085C13.1568 7.16508 12.9445 7.02474 12.7494 6.92828L12.7093 6.90977L12.7093 6.06441L15.7884 6.06441C16.1807 6.06441 16.498 5.74708 16.498 5.3548C16.498 4.65812 16.328 3.60747 15.4212 3.05012C15.0718 2.83361 14.4196 2.4495 13.783 2.17082C13.47 2.03577 13.1265 1.90569 12.8049 1.84996C12.5413 1.8028 12.0129 1.75317 11.6356 2.13688C11.4534 2.32553 11.3405 2.57263 11.3148 2.83415C11.2912 3.01207 11.2901 3.22434 11.2901 3.41726L11.2901 6.90977L11.2531 6.92828C11.058 7.02474 10.8447 7.16293 10.6175 7.31085L8.59357 8.61282C8.24629 8.82719 7.90958 9.05645 7.58161 9.30083C7.29648 9.52592 7.05087 9.77101 6.87508 10.0968C6.69717 10.4227 6.62247 10.7588 6.58816 11.1211C6.556 11.4598 6.5573 11.8679 6.5573 12.346L6.5573 12.3923C6.12857 12.4994 5.72722 12.5988 5.37565 12.7039C4.87834 12.8518 4.41163 13.0238 4.01506 13.2746C3.59704 13.5319 3.26442 13.9086 3.05863 14.3545C2.84855 14.8111 2.76553 15.341 2.76553 15.9434L2.76553 20.7625L2.52797 20.7625C2.13568 20.7625 1.81836 21.0799 1.81836 21.4721C1.81836 21.8644 2.13568 22.1817 2.52797 22.1817L21.4714 22.1817C21.8637 22.1817 22.181 21.8644 22.181 21.4721C22.181 21.082 21.8606 20.7625 21.4683 20.7625ZM12.7093 3.2846C12.8829 3.33604 13.0533 3.39777 13.2184 3.4728C13.7221 3.70217 14.2082 3.96801 14.6777 4.25954C14.8149 4.35171 14.9193 4.48563 14.9708 4.64211L12.7093 4.64211L12.7093 3.2846ZM6.55422 20.7625L4.18475 20.7625L4.18475 15.9403C4.18475 15.458 4.2518 15.1526 4.34826 14.9468C4.44046 14.7496 4.59063 14.5832 4.77711 14.4717C5.00649 14.3259 5.32228 14.2016 5.77673 14.0645C6.01254 13.9959 6.26912 13.9254 6.55422 13.8547L6.55422 20.7625ZM16.0229 20.7625L12.7093 20.7625L12.7092 19.8431C12.7092 19.4508 12.392 19.1335 11.9997 19.1335C11.6074 19.1335 11.2901 19.4508 11.2901 19.8431L11.2901 20.7625L7.97343 20.7625L7.97343 12.3799C7.96701 12.0048 7.97763 11.6299 8.0012 11.2569C8.00549 11.0918 8.04555 10.9287 8.11844 10.7787C8.20419 10.6372 8.32064 10.5151 8.45782 10.4208C8.76008 10.1978 9.07017 9.98552 9.38956 9.7883L11.361 8.52335C11.5325 8.40759 11.7085 8.298 11.8886 8.1994L11.8855 8.1994C11.9177 8.18225 11.9499 8.16692 11.9843 8.15621L11.9966 8.15312L11.9997 8.15312C12.0383 8.16384 12.0734 8.18012 12.1077 8.1994C12.2877 8.29802 12.4668 8.40666 12.6383 8.52027L14.6098 9.79139C14.9292 9.98859 15.2393 10.1979 15.5415 10.4208C15.6766 10.5151 15.7921 10.6372 15.8778 10.7787C15.9507 10.9266 15.9917 11.0897 15.9982 11.2569C16.0239 11.5205 16.0229 11.8611 16.0229 12.3799L16.0229 20.7625ZM19.8146 20.7625L17.4451 20.7625L17.4451 13.8577C17.7303 13.9306 17.9859 13.9959 18.2195 14.0645C18.6761 14.2017 18.9919 14.329 19.2192 14.4748C19.4078 14.5841 19.5589 14.7506 19.6511 14.9499C19.7454 15.1557 19.8146 15.462 19.8146 15.9465L19.8146 20.7625Z"   fill="#034FA1" ></path><path     fill="#CC4E1D"  d="M11.906 10.9092L14.363 10.9092C14.7647 10.9092 15.0903 11.2348 15.0903 11.6365L15.0903 11.6365C15.0903 12.0381 14.7647 12.3637 14.363 12.3637L11.906 12.3637C11.5043 12.3637 11.1787 12.0381 11.1787 11.6365L11.1787 11.6365C11.1787 11.2348 11.5043 10.9092 11.906 10.9092Z"></path><path     fill="#CC4E1D"  d="M9.63645 13.8181L14.3638 13.8181C14.7654 13.8181 15.0911 14.1437 15.0911 14.5454L15.0911 14.5454C15.0911 14.947 14.7654 15.2727 14.3638 15.2727L9.63645 15.2727C9.23479 15.2727 8.90918 14.947 8.90918 14.5454L8.90918 14.5454C8.90918 14.1437 9.23479 13.8181 9.63645 13.8181Z"></path><path     fill="#CC4E1D"  d="M10.8972 16.7273L14.3634 16.7273C14.7651 16.7273 15.0907 17.0529 15.0907 17.4546L15.0907 17.4546C15.0907 17.8562 14.7651 18.1818 14.3634 18.1818L10.8972 18.1818C10.4955 18.1818 10.1699 17.8562 10.1699 17.4546L10.1699 17.4546C10.1699 17.0529 10.4955 16.7273 10.8972 16.7273Z"></path></svg>