<svg xmlns="http://www.w3.org/2000/svg" xmlns:xlink="http://www.w3.org/1999/xlink" width="24" height="24" viewBox="0 0 24 24" fill="none"><path     fill="#DE5018"  d="M7.94983 14.9168C7.88176 14.8575 7.8137 14.7983 7.76685 14.7147C7.51433 14.4092 7.47841 13.9923 7.59688 13.5813C7.65759 13.42 7.7183 13.2586 7.86682 13.088C7.99266 12.8976 8.16239 12.7027 8.35334 12.4833L9.71124 10.9235L9.68854 10.9038C9.3709 10.6273 9.09865 10.3902 8.89151 10.1242C8.52409 9.67585 8.3535 9.18461 8.46904 8.68539C8.56188 8.16642 8.85598 7.73698 9.39523 7.39241C9.67546 7.20795 10.0435 7.01424 10.4342 6.84029L10.4781 6.83567L14.2947 5.01713L14.3159 4.99276C14.5764 4.87679 14.793 4.76544 15.0111 4.69822C15.2064 4.61124 15.3821 4.59276 15.5365 4.59865C15.9543 4.57681 16.3129 4.76046 16.5442 5.09035C16.7725 5.33198 16.8312 5.7686 16.69 6.15981C16.6096 6.38967 16.5049 6.55566 16.4201 6.65314C16.2942 6.84349 16.1245 7.03847 15.9335 7.25781L14.5757 8.81761L14.5983 8.83737C14.916 9.11388 15.1882 9.3509 15.3954 9.61691C15.7628 10.0653 15.9107 10.5368 15.8391 11.0314L15.8405 11.0755C15.7477 11.5945 15.4536 12.0239 14.9143 12.3685C14.6341 12.5529 14.2661 12.7467 13.8753 12.9206L13.8314 12.9252L9.99362 14.7681C9.73314 14.8841 9.51655 14.9955 9.29849 15.0627C9.12435 15.1253 8.9275 15.1681 8.77311 15.1622C8.44455 15.219 8.17671 15.1143 7.94983 14.9168ZM14.6783 5.95087L10.8193 7.81816C10.4725 7.98748 10.1257 8.15683 9.91056 8.31229C9.65154 8.4724 9.54692 8.63838 9.50891 8.81949C9.47088 9.00059 9.54336 9.19222 9.70512 9.41873C9.86541 9.60111 10.1377 9.83813 10.4099 10.0751L10.841 10.4504C11.0679 10.6479 11.0796 11.0009 10.8675 11.2446L9.14889 13.2187C9.00037 13.3894 8.83064 13.5843 8.74725 13.7259C8.70481 13.7747 8.68507 13.8432 8.64263 13.8919C8.62288 13.9604 8.62435 14.0045 8.64852 14.0684C8.6939 14.1079 8.73927 14.1474 8.82708 14.1382C8.89367 14.1533 8.98001 14.0999 9.02392 14.0953C9.15416 14.0373 9.39343 13.9457 9.61002 13.8344L9.63123 13.81L13.4478 11.9915L13.4917 11.9869C13.8386 11.8175 14.1854 11.6482 14.4005 11.4927C14.6595 11.3326 14.7641 11.1667 14.8022 10.9855C14.8402 10.8044 14.7677 10.6128 14.6059 10.3863C14.4456 10.2039 14.1734 9.96689 13.9011 9.72987L13.4701 9.3546C13.2432 9.15708 13.2314 8.8041 13.4436 8.56038L15.1621 6.58626C15.3319 6.39129 15.4804 6.22069 15.5638 6.07908C15.585 6.05472 15.6487 5.9816 15.6684 5.91309C15.6882 5.84461 15.6867 5.80048 15.6625 5.7366C15.6172 5.6971 15.5718 5.6576 15.484 5.66685C15.4174 5.65171 15.331 5.70508 15.2871 5.7097C15.1569 5.76768 14.9176 5.85928 14.701 5.97062"></path><path    stroke="rgba(222, 80, 24, 1)" stroke-width="0.4"    d="M7.94983 14.9168C7.88176 14.8575 7.8137 14.7983 7.76685 14.7147C7.51433 14.4092 7.47841 13.9923 7.59688 13.5813C7.65759 13.42 7.7183 13.2586 7.86682 13.088C7.99266 12.8976 8.16239 12.7027 8.35334 12.4833L9.71124 10.9235L9.68854 10.9038C9.3709 10.6273 9.09865 10.3902 8.89151 10.1242C8.52409 9.67585 8.3535 9.18461 8.46904 8.68539C8.56188 8.16642 8.85598 7.73698 9.39523 7.39241C9.67546 7.20795 10.0435 7.01424 10.4342 6.84029L10.4781 6.83567L14.2947 5.01713L14.3159 4.99276C14.5764 4.87679 14.793 4.76544 15.0111 4.69822C15.2064 4.61124 15.3821 4.59276 15.5365 4.59865C15.9543 4.57681 16.3129 4.76046 16.5442 5.09035C16.7725 5.33198 16.8312 5.7686 16.69 6.15981C16.6096 6.38967 16.5049 6.55566 16.4201 6.65314C16.2942 6.84349 16.1245 7.03847 15.9335 7.25781L14.5757 8.81761L14.5983 8.83737C14.916 9.11388 15.1882 9.3509 15.3954 9.61691C15.7628 10.0653 15.9107 10.5368 15.8391 11.0314L15.8405 11.0755C15.7477 11.5945 15.4536 12.0239 14.9143 12.3685C14.6341 12.5529 14.2661 12.7467 13.8753 12.9206L13.8314 12.9252L9.99362 14.7681C9.73314 14.8841 9.51655 14.9955 9.29849 15.0627C9.12435 15.1253 8.9275 15.1681 8.77311 15.1622C8.44455 15.219 8.17671 15.1143 7.94983 14.9168ZM14.6783 5.95087L10.8193 7.81816C10.4725 7.98748 10.1257 8.15683 9.91056 8.31229C9.65154 8.4724 9.54692 8.63838 9.50891 8.81949C9.47088 9.00059 9.54336 9.19222 9.70512 9.41873C9.86541 9.60111 10.1377 9.83813 10.4099 10.0751L10.841 10.4504C11.0679 10.6479 11.0796 11.0009 10.8675 11.2446L9.14889 13.2187C9.00037 13.3894 8.83064 13.5843 8.74725 13.7259C8.70481 13.7747 8.68507 13.8432 8.64263 13.8919C8.62288 13.9604 8.62435 14.0045 8.64852 14.0684C8.6939 14.1079 8.73927 14.1474 8.82708 14.1382C8.89367 14.1533 8.98001 14.0999 9.02392 14.0953C9.15416 14.0373 9.39343 13.9457 9.61002 13.8344L9.63123 13.81L13.4478 11.9915L13.4917 11.9869C13.8386 11.8175 14.1854 11.6482 14.4005 11.4927C14.6595 11.3326 14.7641 11.1667 14.8022 10.9855C14.8402 10.8044 14.7677 10.6128 14.6059 10.3863C14.4456 10.2039 14.1734 9.96689 13.9011 9.72987L13.4701 9.3546C13.2432 9.15708 13.2314 8.8041 13.4436 8.56038L15.1621 6.58626C15.3319 6.39129 15.4804 6.22069 15.5638 6.07908C15.585 6.05472 15.6487 5.9816 15.6684 5.91309C15.6882 5.84461 15.6867 5.80048 15.6625 5.7366C15.6172 5.6971 15.5718 5.6576 15.484 5.66685C15.4174 5.65171 15.331 5.70508 15.2871 5.7097C15.1569 5.76768 14.9176 5.85928 14.701 5.97062"></path><path     fill="#034FA1"  d="M6.99257 20.4653L16.6369 20.4653C16.8737 20.4653 17.1007 20.5604 17.2667 20.7293L17.269 20.7315C17.6074 21.0756 17.6057 21.6279 17.2651 21.9699L17.2651 21.9699C17.1 22.1357 16.8755 22.229 16.6415 22.229L6.99257 22.229L6.96712 22.229L6.93803 22.229L6.89803 22.229L6.88348 22.2144L6.85803 22.2144L6.81803 22.1999L6.78894 22.1999L6.76348 22.1999L6.73803 22.189L6.70894 22.1744L6.68348 22.1744L6.65439 22.1635L6.62894 22.149L6.60348 22.1344L6.57439 22.1199L6.5453 22.109L6.53439 22.0944L6.50894 22.0799L6.47985 22.0653L6.45439 22.0544L6.43985 22.029L6.41439 22.0144L6.39985 21.9853L6.37439 21.9708L6.3453 21.949L6.33076 21.9344L6.30894 21.9053L6.30894 21.8908L6.27985 21.8653L6.25076 21.8399L6.25076 21.8108L6.2253 21.7999L6.21076 21.7708L6.21076 21.7417L6.19985 21.7199L6.1853 21.6908L6.17076 21.6617L6.17076 21.6362L6.15985 21.6108L6.1453 21.5817L6.13076 21.5562L6.13076 21.5162L6.11621 21.5053L6.11621 21.4762L6.11621 21.4326L6.11621 21.4108L6.11621 21.3817L6.11621 21.3526L6.11621 21.3272L6.11621 21.2871L6.11621 21.2762L6.11621 21.2472L6.11621 21.2035L6.13076 21.1817L6.13076 21.1526L6.1453 21.1235L6.15985 21.0981L6.15985 21.0726L6.17076 21.0471L6.17076 21.0181L6.1853 20.989L6.21076 20.9671L6.21076 20.9381L6.2253 20.9235L6.25076 20.8835L6.25076 20.869L6.27985 20.8435L6.29439 20.829L6.30894 20.789L6.33076 20.7744L6.3453 20.749L6.37439 20.7381L6.39985 20.709L6.41439 20.6944L6.43985 20.6799L6.45439 20.6544L6.47985 20.6435L6.50894 20.629L6.53439 20.5999L6.5453 20.5999L6.57439 20.5744L6.60348 20.5599L6.62894 20.5599L6.65439 20.5453L6.68348 20.5344L6.70894 20.5199L6.73803 20.5199L6.76348 20.509L6.78894 20.509L6.81803 20.4944L6.85803 20.4799L6.88348 20.4799L6.89803 20.4799L6.93803 20.4653L6.96712 20.4653L6.99257 20.4653Z"></path><path   fill="rgba(3, 79, 161, 1)"  d="M4.72721 1.01836L19.2727 1.01836C21.3211 1.01836 22.9818 2.67898 22.9818 4.72745L22.9818 14.9093C22.9818 16.9577 21.3211 18.6184 19.2727 18.6184L4.72721 18.6184C2.67873 18.6184 1.01812 16.9577 1.01812 14.9093L1.01812 4.72745C1.01812 2.67898 2.67873 1.01836 4.72721 1.01836ZM4.72721 2.61836C3.56239 2.61836 2.61812 3.56263 2.61812 4.72745L2.61812 14.9093C2.61812 16.0741 3.56239 17.0184 4.72721 17.0184L19.2727 17.0184C20.4375 17.0184 21.3818 16.0741 21.3818 14.9093L21.3818 4.72745C21.3818 3.56263 20.4375 2.61836 19.2727 2.61836L4.72721 2.61836Z"></path></svg>