<svg xmlns="http://www.w3.org/2000/svg" xmlns:xlink="http://www.w3.org/1999/xlink" width="24" height="24" viewBox="0 0 24 24" fill="none"><path d="M18.3627 12.8545C18.3588 12.8505 18.3548 12.8465 18.3507 12.8427C18.3466 12.8388 18.3424 12.8351 18.3381 12.8315C18.3338 12.8279 18.3294 12.8243 18.3249 12.8209C18.3205 12.8175 18.3159 12.8142 18.3113 12.811C18.3067 12.8078 18.3019 12.8048 18.2972 12.8018C18.2924 12.7989 18.2875 12.796 18.2826 12.7933C18.2777 12.7906 18.2727 12.788 18.2676 12.7856C18.2625 12.7831 18.2574 12.7808 18.2523 12.7785C18.2471 12.7763 18.2419 12.7743 18.2366 12.7723C18.2313 12.7703 18.226 12.7685 18.2206 12.7668C18.2152 12.7652 18.2098 12.7636 18.2044 12.7622C18.1989 12.7608 18.1934 12.7595 18.1879 12.7583C18.1824 12.7572 18.1769 12.7562 18.1713 12.7553C18.1657 12.7544 18.1602 12.7537 18.1546 12.7531C18.149 12.7525 18.1433 12.752 18.1377 12.7517C18.1321 12.7514 18.1265 12.7512 18.1208 12.7512C18.1152 12.7511 18.1096 12.7512 18.1039 12.7514C18.0983 12.7517 18.0927 12.7521 18.0871 12.7526C18.0815 12.7531 18.0759 12.7537 18.0703 12.7545C18.0647 12.7553 18.0592 12.7563 18.0537 12.7573C18.0481 12.7584 18.0426 12.7596 18.0372 12.7609C18.0317 12.7623 18.0262 12.7637 18.0209 12.7654C18.0155 12.767 18.0101 12.7687 18.0048 12.7706C17.9995 12.7725 17.9942 12.7745 17.989 12.7766C17.9838 12.7787 17.9787 12.781 17.9736 12.7834C17.9685 12.7858 17.9634 12.7883 17.9585 12.7909C17.9535 12.7935 17.9486 12.7963 17.9438 12.7992C17.9389 12.8021 17.9342 12.8051 17.9295 12.8082C17.9248 12.8113 17.9202 12.8145 17.9157 12.8179C17.9112 12.8212 17.9067 12.8247 17.9024 12.8282C17.8981 12.8318 17.8938 12.8355 17.8896 12.8392C17.8855 12.843 17.8814 12.8469 17.8774 12.8509L17.8615 12.8657C17.8571 12.8702 17.8527 12.8747 17.8485 12.8794C17.8443 12.8841 17.8402 12.8888 17.8362 12.8937C17.8322 12.8986 17.8283 12.9035 17.8245 12.9086C17.8208 12.9136 17.8171 12.9188 17.8136 12.924C17.8101 12.9292 17.8067 12.9345 17.8035 12.9399C17.8002 12.9453 17.7971 12.9508 17.7941 12.9563C17.7911 12.9618 17.7883 12.9674 17.7856 12.9731C17.7829 12.9788 17.7803 12.9845 17.7779 12.9903C17.7754 12.9961 17.7732 13.002 17.771 13.0079C17.7689 13.0138 17.7669 13.0198 17.765 13.0258C17.7631 13.0318 17.7614 13.0378 17.7599 13.0439C17.7583 13.05 17.7569 13.0561 17.7556 13.0623C17.7544 13.0684 17.7532 13.0746 17.7523 13.0808C17.7513 13.0871 17.7505 13.0933 17.7498 13.0995C17.7492 13.1058 17.7487 13.1121 17.7483 13.1183C17.7479 13.1246 17.7477 13.1309 17.7477 13.1372C17.7476 13.1434 17.7477 13.1497 17.748 13.156C17.7483 13.1623 17.7487 13.1686 17.7492 13.1748C17.7498 13.1811 17.7505 13.1873 17.7514 13.1935C17.7522 13.1998 17.7532 13.206 17.7544 13.2121C17.7556 13.2183 17.7569 13.2245 17.7583 13.2306C17.7598 13.2367 17.7614 13.2428 17.7632 13.2488C17.7649 13.2549 17.7668 13.2608 17.7689 13.2668C17.7709 13.2727 17.7731 13.2786 17.7755 13.2845C17.7778 13.2903 17.7803 13.2961 17.7829 13.3018C17.7855 13.3075 17.7883 13.3132 17.7912 13.3188C17.7941 13.3243 17.7971 13.3299 17.8003 13.3353C17.8034 13.3408 17.8067 13.3461 17.8101 13.3514C17.8136 13.3567 17.8171 13.3619 17.8208 13.367C17.8245 13.3721 17.8283 13.3771 17.8322 13.382C17.8361 13.387 17.8401 13.3918 17.8443 13.3965C17.8485 13.4013 17.8527 13.4059 17.8571 13.4104L18.0776 13.6331L13.1208 18.4919C12.3635 19.234 12.354 20.5052 13.1002 21.2586C13.4732 21.6353 13.9981 21.8261 14.4867 21.8298C15.013 21.8337 15.503 21.6504 15.8817 21.2793L20.8392 16.4213L21.0646 16.6484C21.0685 16.6524 21.0725 16.6564 21.0766 16.6602C21.0807 16.6641 21.0849 16.6678 21.0892 16.6714C21.0935 16.6751 21.0979 16.6786 21.1023 16.682C21.1068 16.6854 21.1114 16.6887 21.116 16.6919C21.1206 16.6951 21.1254 16.6982 21.1301 16.7012C21.1349 16.7041 21.1398 16.707 21.1447 16.7097C21.1497 16.7124 21.1547 16.715 21.1597 16.7175C21.1648 16.7199 21.1699 16.7223 21.1751 16.7245C21.1803 16.7267 21.1855 16.7288 21.1908 16.7307C21.1961 16.7327 21.2014 16.7345 21.2068 16.7362C21.2122 16.7379 21.2176 16.7395 21.223 16.7409C21.2285 16.7423 21.2339 16.7436 21.2395 16.7447C21.245 16.7459 21.2505 16.7469 21.2561 16.7478C21.2617 16.7487 21.2673 16.7494 21.2729 16.75C21.2785 16.7506 21.2841 16.7511 21.2897 16.7514C21.2953 16.7517 21.301 16.7519 21.3066 16.7519C21.3123 16.752 21.3179 16.7519 21.3235 16.7516C21.3292 16.7514 21.3348 16.751 21.3404 16.7505C21.346 16.75 21.3516 16.7493 21.3572 16.7485C21.3628 16.7477 21.3683 16.7468 21.3739 16.7458C21.3794 16.7447 21.3849 16.7435 21.3904 16.7421C21.3958 16.7408 21.4013 16.7393 21.4067 16.7377C21.4121 16.7361 21.4175 16.7343 21.4228 16.7325C21.4281 16.7306 21.4333 16.7286 21.4385 16.7265C21.4438 16.7243 21.4489 16.722 21.454 16.7197C21.4591 16.7173 21.4642 16.7147 21.4691 16.7121C21.4741 16.7095 21.479 16.7067 21.4838 16.7038C21.4887 16.7009 21.4934 16.6979 21.4981 16.6948C21.5028 16.6917 21.5074 16.6884 21.5119 16.6851C21.5164 16.6817 21.5209 16.6783 21.5252 16.6747C21.5296 16.6711 21.5338 16.6675 21.538 16.6637C21.5422 16.6599 21.5462 16.656 21.5502 16.652L21.5653 16.6368C21.5698 16.6323 21.5741 16.6278 21.5783 16.6231C21.5826 16.6184 21.5867 16.6137 21.5906 16.6088C21.5946 16.6039 21.5985 16.599 21.6022 16.5939C21.606 16.5889 21.6096 16.5837 21.6131 16.5785C21.6166 16.5733 21.62 16.568 21.6232 16.5626C21.6264 16.5572 21.6295 16.5517 21.6325 16.5462C21.6355 16.5406 21.6383 16.535 21.641 16.5294C21.6437 16.5237 21.6463 16.518 21.6487 16.5122C21.6511 16.5064 21.6534 16.5005 21.6555 16.4946C21.6577 16.4887 21.6597 16.4827 21.6615 16.4767C21.6633 16.4707 21.665 16.4647 21.6666 16.4586C21.6682 16.4525 21.6696 16.4464 21.6708 16.4403C21.6721 16.4341 21.6732 16.4279 21.6742 16.4217C21.6751 16.4155 21.6759 16.4093 21.6766 16.403C21.6772 16.3968 21.6777 16.3905 21.6781 16.3843C21.6784 16.378 21.6786 16.3717 21.6787 16.3655C21.6787 16.3592 21.6786 16.3529 21.6784 16.3466C21.6781 16.3404 21.6777 16.3341 21.6771 16.3278C21.6766 16.3216 21.6758 16.3154 21.675 16.3091C21.6741 16.3029 21.6731 16.2967 21.6719 16.2906C21.6708 16.2844 21.6695 16.2782 21.668 16.2721C21.6665 16.266 21.6649 16.26 21.6632 16.2539C21.6614 16.2479 21.6595 16.2419 21.6575 16.236C21.6554 16.23 21.6532 16.2242 21.6509 16.2183C21.6485 16.2125 21.6461 16.2067 21.6435 16.201C21.6408 16.1953 21.6381 16.1896 21.6352 16.1841C21.6323 16.1785 21.6293 16.173 21.6261 16.1675C21.623 16.1621 21.6197 16.1567 21.6163 16.1515C21.6129 16.1462 21.6093 16.141 21.6057 16.1359C21.602 16.1308 21.5982 16.1257 21.5943 16.1208C21.5904 16.1159 21.5863 16.1111 21.5822 16.1063C21.578 16.1016 21.5738 16.097 21.5694 16.0924L18.3627 12.8545ZM18.6007 14.1612L20.3169 15.8939L18.8052 17.3752L15.3471 17.3494L18.6007 14.1612ZM14.5898 18.0916L18.0479 18.1174L15.3593 20.752C14.8671 21.2344 14.1153 21.2288 13.6303 20.7391C13.1453 20.2494 13.1509 19.5016 13.6431 19.0193L14.5898 18.0916Z" stroke="rgba(204, 78, 29, 1)" stroke-width="0.6"      fill="#CC4E1D" ></path><path d="M11.6987 21.91L4.53483 21.91C3.65974 21.91 2.9999 21.2361 2.9999 20.3428C2.9999 17.2725 5.11743 14.5554 8.03493 13.8814L8.24263 13.8336L8.09333 13.6815C6.94225 12.5076 6.30831 10.9997 6.30831 9.43608L6.30831 3.25233C6.30831 3.07195 6.39261 2.94502 6.57347 2.85294C7.27264 2.59908 9.16505 1.91003 11.7025 1.91003C14.0706 1.91003 15.9394 2.50371 16.8425 2.85765C17.0229 2.90428 17.0971 3.08867 17.0971 3.25233L17.0971 9.66145C17.0971 11.2298 16.4843 12.6557 15.3709 13.677L15.2655 13.774C14.8454 13.9752 14.4492 14.2184 14.0822 14.498L13.8539 14.6143C13.2221 14.9371 12.4777 15.1074 11.7027 15.1074L11.3174 15.1074C10.7132 15.1074 10.1193 14.9605 9.55196 14.6703L9.39936 14.8448L11.6469 18.087C11.5272 18.5184 11.4489 18.967 11.4166 19.4283L8.6432 15.3102L7.80886 17.4039L9.75636 18.8647L11.4059 20.2003C11.4308 20.793 11.5315 21.366 11.6987 21.91ZM7.2531 3.5328L7.17209 3.56035L7.17209 8.00995L7.32798 7.96026C8.68417 7.52672 10.1555 7.30701 11.7027 7.30701C13.2499 7.30701 14.7212 7.52672 16.0774 7.96026L16.2333 8.00995L16.2333 3.56035L16.1523 3.5328C14.7229 3.04416 13.2313 2.79595 11.7201 2.79595C10.1875 2.79595 8.69077 3.04369 7.2531 3.5328ZM7.22743 9.38592L7.22743 9.49284C7.22743 12.0022 9.09252 14.1042 11.474 14.2782L11.7583 14.2785C14.2561 14.2785 16.2884 12.2078 16.2884 9.66215L16.2884 9.38051L16.27 8.97947L16.1944 8.95262C14.8164 8.45974 13.3052 8.21012 11.7029 8.21012C10.1317 8.21012 8.64744 8.45055 7.29125 8.92413L7.20694 8.95356L7.22743 9.38592ZM4.43592 20.9765C4.47407 20.9765 4.51411 20.9735 4.55532 20.9664L11.106 20.9681L9.29645 19.5186L7.41841 18.1109C7.0063 17.8476 6.93471 17.3314 7.07365 16.9546L7.88092 14.8632L7.63907 14.9456C5.38095 15.7129 3.86439 17.8817 3.86439 20.3426C3.86439 20.7159 4.09917 20.9765 4.43592 20.9765Z" stroke="rgba(3, 79, 161, 1)" stroke-width="0.6"    fill-rule="evenodd"  fill="#034FA1" ></path><path d="M12.1629 3.39148C12.4382 3.39148 12.6665 3.60225 12.6889 3.87666L12.6889 4.54703L13.3629 4.54703C13.3711 4.54703 13.3851 4.55074 13.3851 4.55074C13.3933 4.55074 13.403 4.55444 13.4111 4.55444C13.4191 4.55444 13.4333 4.55815 13.4333 4.55815C13.4413 4.55815 13.4592 4.56555 13.4592 4.56555C13.4671 4.56555 13.4736 4.57296 13.4814 4.57296C13.4892 4.57296 13.5074 4.58037 13.5074 4.58037C13.515 4.58037 13.5221 4.58778 13.5296 4.58778C13.5371 4.58778 13.5444 4.59889 13.5518 4.59889C13.5592 4.59889 13.5668 4.60607 13.574 4.61C13.5812 4.61392 13.5855 4.61684 13.5926 4.62111C13.5996 4.62534 13.608 4.63133 13.6148 4.63592C13.6216 4.6405 13.6267 4.64585 13.6333 4.65074C13.6399 4.65562 13.6492 4.66036 13.6555 4.66555C13.6619 4.67074 13.6679 4.67489 13.674 4.68037C13.6801 4.68585 13.6867 4.69314 13.6926 4.69889C13.6984 4.70464 13.7018 4.70768 13.7074 4.7137C13.7129 4.71972 13.7206 4.72593 13.7259 4.73222C13.7312 4.73848 13.7357 4.74793 13.7407 4.75444C13.7457 4.76095 13.7509 4.76621 13.7555 4.77296C13.7602 4.77969 13.7623 4.78824 13.7666 4.79518C13.771 4.80213 13.7774 4.80654 13.7814 4.8137C13.7855 4.82085 13.7926 4.8286 13.7926 4.83592C13.7926 4.84325 13.8037 4.85066 13.8037 4.85815C13.8037 4.86563 13.8111 4.87274 13.8111 4.88037C13.8111 4.888 13.8185 4.89481 13.8185 4.90259C13.8185 4.91035 13.8259 4.92063 13.8259 4.92852C13.8259 4.93638 13.8333 4.94274 13.8333 4.95074C13.8333 4.9587 13.837 4.9686 13.837 4.97666C13.837 4.98473 13.8444 4.99077 13.8444 4.99889C13.8444 5.00699 13.8444 5.01664 13.8444 5.02481C13.8444 5.03297 13.8481 5.03884 13.8481 5.04703C13.8481 5.05523 13.8481 5.06477 13.8481 5.07296C13.8481 5.08115 13.8481 5.09068 13.8481 5.09889C13.8481 5.10706 13.8444 5.11293 13.8444 5.12111C13.8444 5.12927 13.8444 5.13891 13.8444 5.14703C13.8444 5.15514 13.837 5.16119 13.837 5.16926C13.837 5.17732 13.8333 5.18721 13.8333 5.19518C13.8333 5.20316 13.8259 5.20952 13.8259 5.2174C13.8259 5.22529 13.8185 5.23555 13.8185 5.24333C13.8185 5.25109 13.8111 5.25792 13.8111 5.26555C13.8111 5.27319 13.8037 5.28029 13.8037 5.28778C13.8037 5.29526 13.7926 5.30265 13.7926 5.31C13.7926 5.3173 13.7855 5.32506 13.7814 5.33222C13.7774 5.33935 13.771 5.34748 13.7666 5.35444C13.7623 5.36139 13.7602 5.36621 13.7555 5.37296C13.7509 5.37969 13.7457 5.38865 13.7407 5.39518C13.7357 5.40169 13.7312 5.40742 13.7259 5.4137C13.7206 5.41998 13.7129 5.4262 13.7074 5.43222C13.7018 5.43824 13.6984 5.44497 13.6926 5.45074C13.6867 5.45649 13.6801 5.46005 13.674 5.46555C13.6679 5.47101 13.6619 5.47516 13.6555 5.48037C13.6492 5.48554 13.6399 5.49028 13.6333 5.49518C13.6267 5.50007 13.6216 5.5054 13.6148 5.51C13.608 5.51455 13.5996 5.52054 13.5926 5.52481C13.5855 5.52906 13.5812 5.53198 13.574 5.53592C13.5668 5.53983 13.5592 5.54703 13.5518 5.54703C13.5444 5.54703 13.5371 5.55815 13.5296 5.55815C13.5221 5.55815 13.515 5.56555 13.5074 5.56555C13.4997 5.56555 13.4892 5.57666 13.4814 5.57666C13.4736 5.57666 13.4671 5.58407 13.4592 5.58407C13.4513 5.58407 13.4413 5.58778 13.4333 5.58778C13.4253 5.58778 13.4191 5.59148 13.4111 5.59148C13.403 5.59148 13.3933 5.59518 13.3851 5.59518C13.377 5.59518 13.3711 5.59889 13.3629 5.59889L12.6889 5.59889L12.6889 6.27296C12.6889 6.28113 12.6889 6.28704 12.6889 6.29518C12.6889 6.3033 12.6851 6.31302 12.6851 6.32111C12.6851 6.32917 12.6777 6.33534 12.6777 6.34333C12.6777 6.35132 12.674 6.36133 12.674 6.36926C12.674 6.37716 12.6666 6.38367 12.6666 6.39148C12.6666 6.39927 12.6592 6.40603 12.6592 6.4137C12.6592 6.42137 12.6481 6.42838 12.6481 6.43592C12.6481 6.44345 12.6407 6.45077 12.6407 6.45815C12.6407 6.46552 12.6335 6.47317 12.6296 6.48037C12.6257 6.48757 12.619 6.49557 12.6148 6.50259C12.6105 6.50959 12.6082 6.51801 12.6037 6.52481C12.5991 6.53161 12.5937 6.53675 12.5889 6.54333C12.584 6.5499 12.5792 6.55548 12.574 6.56185C12.5688 6.56818 12.561 6.57425 12.5555 6.58037C12.55 6.58644 12.5465 6.59304 12.5407 6.59889C12.535 6.60471 12.5282 6.61183 12.5222 6.6174C12.5162 6.62296 12.5099 6.62694 12.5037 6.63222C12.4974 6.6375 12.4917 6.64206 12.4851 6.64703C12.4786 6.65201 12.4734 6.65718 12.4666 6.66185C12.4599 6.66651 12.4514 6.6723 12.4444 6.67666C12.4375 6.681 12.4293 6.68374 12.4222 6.68777C12.415 6.69179 12.4073 6.69889 12.4 6.69889C12.3926 6.69889 12.3852 6.71 12.3777 6.71C12.3703 6.71 12.3632 6.72111 12.3555 6.72111C12.3479 6.72111 12.3411 6.72852 12.3333 6.72852C12.3255 6.72852 12.3189 6.73592 12.3111 6.73592C12.3032 6.73592 12.2931 6.74333 12.2851 6.74333C12.2772 6.74333 12.271 6.74703 12.2629 6.74703C12.2549 6.74703 12.2451 6.75074 12.237 6.75074C12.2289 6.75074 12.2229 6.75444 12.2148 6.75444C12.2066 6.75444 12.197 6.75444 12.1889 6.75444C12.1807 6.75444 12.1711 6.75814 12.1629 6.75814C12.1547 6.75814 12.1489 6.75444 12.1407 6.75444C12.1325 6.75444 12.1229 6.75444 12.1148 6.75444C12.1066 6.75444 12.1007 6.75074 12.0926 6.75074C12.0844 6.75074 12.0747 6.74703 12.0666 6.74703C12.0586 6.74703 12.0524 6.74333 12.0444 6.74333C12.0364 6.74333 12.0264 6.73592 12.0185 6.73592C12.0106 6.73592 12.004 6.72852 11.9963 6.72852C11.9885 6.72852 11.9817 6.72111 11.974 6.72111C11.9664 6.72111 11.9556 6.71 11.9481 6.71C11.9406 6.71 11.9332 6.69889 11.9259 6.69889C11.9185 6.69889 11.9145 6.69179 11.9074 6.68777C11.9002 6.68374 11.8921 6.681 11.8851 6.67666C11.8782 6.6723 11.8697 6.66651 11.8629 6.66185C11.8562 6.65718 11.8509 6.65201 11.8444 6.64703C11.8379 6.64206 11.8322 6.6375 11.8259 6.63222C11.8196 6.62694 11.8134 6.62296 11.8074 6.6174C11.8013 6.61183 11.7946 6.60471 11.7889 6.59889C11.7831 6.59304 11.7758 6.58644 11.7703 6.58037C11.7648 6.57425 11.7607 6.56818 11.7555 6.56185C11.7503 6.55548 11.7456 6.5499 11.7407 6.54333C11.7358 6.53675 11.7305 6.53161 11.7259 6.52481C11.7213 6.51801 11.719 6.50959 11.7148 6.50259C11.7105 6.49557 11.7039 6.48757 11.7 6.48037C11.696 6.47317 11.6889 6.46552 11.6889 6.45815C11.6889 6.45077 11.6777 6.44345 11.6777 6.43592C11.6777 6.42838 11.6703 6.42137 11.6703 6.4137C11.6703 6.40603 11.6629 6.39927 11.6629 6.39148C11.6629 6.38367 11.6555 6.37716 11.6555 6.36926C11.6555 6.36133 11.6481 6.35132 11.6481 6.34333C11.6481 6.33534 11.6444 6.32917 11.6444 6.32111C11.6444 6.31302 11.6407 6.3033 11.6407 6.29518C11.6407 6.28704 11.637 6.28113 11.637 6.27296L11.637 5.59889L10.9666 5.59889C10.9585 5.59889 10.9488 5.59518 10.9407 5.59518C10.9326 5.59518 10.9265 5.59148 10.9185 5.59148C10.9104 5.59148 10.9005 5.58778 10.8926 5.58778C10.8846 5.58778 10.8782 5.58407 10.8703 5.58407C10.8624 5.58407 10.8559 5.57666 10.8481 5.57666C10.8403 5.57666 10.8299 5.56555 10.8222 5.56555C10.8145 5.56555 10.8075 5.55815 10.8 5.55815C10.7924 5.55815 10.7851 5.54703 10.7777 5.54703C10.7704 5.54703 10.7627 5.53983 10.7555 5.53592C10.7483 5.53198 10.7403 5.52906 10.7333 5.52481C10.7263 5.52054 10.7216 5.51455 10.7148 5.51C10.708 5.5054 10.6991 5.50007 10.6926 5.49518C10.686 5.49028 10.6804 5.48554 10.674 5.48037C10.6677 5.47516 10.6616 5.47101 10.6555 5.46555C10.6494 5.46005 10.6428 5.45649 10.637 5.45074C10.6312 5.44497 10.6277 5.43822 10.6222 5.43222C10.6166 5.42618 10.6089 5.41998 10.6037 5.4137C10.5984 5.40742 10.5938 5.40169 10.5889 5.39518C10.5839 5.38865 10.5787 5.37969 10.574 5.37296C10.5694 5.36621 10.5673 5.36139 10.5629 5.35444C10.5586 5.34748 10.5521 5.33935 10.5481 5.33222C10.5441 5.32506 10.537 5.3173 10.537 5.31C10.537 5.30265 10.5259 5.29526 10.5259 5.28778C10.5259 5.28029 10.5185 5.27319 10.5185 5.26555C10.5185 5.25792 10.5074 5.25109 10.5074 5.24333C10.5074 5.23555 10.5 5.22529 10.5 5.2174C10.5 5.20952 10.4963 5.20316 10.4963 5.19518C10.4963 5.18721 10.4889 5.17732 10.4889 5.16926C10.4889 5.16119 10.4851 5.15514 10.4851 5.14703C10.4851 5.13891 10.4814 5.12927 10.4814 5.12111C10.4814 5.11293 10.4814 5.10706 10.4814 5.09889C10.4814 5.09068 10.4814 5.08115 10.4814 5.07296C10.4814 5.06477 10.4814 5.05523 10.4814 5.04703C10.4814 5.03884 10.4814 5.03297 10.4814 5.02481C10.4814 5.01664 10.4851 5.00699 10.4851 4.99889C10.4851 4.99077 10.4889 4.98473 10.4889 4.97666C10.4889 4.9686 10.4963 4.9587 10.4963 4.95074C10.4963 4.94274 10.5 4.93638 10.5 4.92852C10.5 4.92063 10.5074 4.91035 10.5074 4.90259C10.5074 4.89481 10.5185 4.888 10.5185 4.88037C10.5185 4.87274 10.5259 4.86563 10.5259 4.85815C10.5259 4.85066 10.537 4.84325 10.537 4.83592C10.537 4.8286 10.5441 4.82085 10.5481 4.8137C10.5521 4.80654 10.5586 4.80213 10.5629 4.79518C10.5673 4.78824 10.5694 4.77969 10.574 4.77296C10.5787 4.76621 10.5839 4.76095 10.5889 4.75444C10.5938 4.74793 10.5984 4.73848 10.6037 4.73222C10.6089 4.72593 10.6166 4.71972 10.6222 4.7137C10.6277 4.70768 10.6312 4.70464 10.637 4.69889C10.6428 4.69314 10.6494 4.68585 10.6555 4.68037C10.6616 4.67489 10.6677 4.67074 10.674 4.66555C10.6804 4.66036 10.686 4.65562 10.6926 4.65074C10.6991 4.64585 10.708 4.6405 10.7148 4.63592C10.7216 4.63133 10.7263 4.62534 10.7333 4.62111C10.7403 4.61684 10.7483 4.61392 10.7555 4.61C10.7627 4.60607 10.7704 4.59889 10.7777 4.59889C10.7851 4.59889 10.7924 4.58778 10.8 4.58778C10.8075 4.58778 10.8145 4.58037 10.8222 4.58037C10.8299 4.58037 10.8403 4.57296 10.8481 4.57296C10.8559 4.57296 10.8624 4.56555 10.8703 4.56555C10.8782 4.56555 10.8846 4.55815 10.8926 4.55815C10.9005 4.55815 10.9104 4.55444 10.9185 4.55444C10.9265 4.55444 10.9326 4.55074 10.9407 4.55074C10.9488 4.55074 10.9585 4.54703 10.9666 4.54703L11.637 4.54703L11.637 3.87666C11.637 3.86849 11.6407 3.85888 11.6407 3.85074C11.6407 3.8426 11.6444 3.83658 11.6444 3.82852C11.6444 3.82043 11.6481 3.81058 11.6481 3.80259C11.6481 3.7946 11.6555 3.78827 11.6555 3.78037C11.6555 3.77245 11.6629 3.76224 11.6629 3.75444C11.6629 3.74663 11.6703 3.73989 11.6703 3.73222C11.6703 3.72455 11.6777 3.71752 11.6777 3.71C11.6777 3.70247 11.6889 3.69515 11.6889 3.68778C11.6889 3.6804 11.696 3.67275 11.7 3.66555C11.7039 3.65836 11.7105 3.65035 11.7148 3.64333C11.719 3.63631 11.7213 3.62791 11.7259 3.62111C11.7305 3.61431 11.7358 3.60917 11.7407 3.60259C11.7456 3.59601 11.7503 3.5904 11.7555 3.58407C11.7607 3.57772 11.7649 3.57165 11.7703 3.56555C11.7758 3.55944 11.7831 3.55286 11.7889 3.54703C11.7946 3.54119 11.8013 3.53407 11.8074 3.52852C11.8134 3.52295 11.8196 3.51899 11.8259 3.5137C11.8321 3.50843 11.8379 3.50386 11.8444 3.49889C11.8509 3.49391 11.8562 3.48874 11.8629 3.48407C11.8697 3.4794 11.8782 3.47361 11.8851 3.46926C11.8921 3.46491 11.9002 3.46217 11.9074 3.45815C11.9145 3.45413 11.9186 3.44704 11.9259 3.44704C11.9332 3.44704 11.9406 3.43592 11.9481 3.43592C11.9556 3.43592 11.9664 3.42481 11.974 3.42481C11.9817 3.42481 11.9885 3.41741 11.9963 3.41741C12.004 3.41741 12.0106 3.41 12.0185 3.41C12.0264 3.41 12.0364 3.40259 12.0444 3.40259C12.0524 3.40259 12.0586 3.39889 12.0666 3.39889C12.0747 3.39889 12.0844 3.39518 12.0926 3.39518C12.1007 3.39518 12.1066 3.39148 12.1148 3.39148C12.1229 3.39148 12.1325 3.39148 12.1407 3.39148C12.1489 3.39148 12.1547 3.39148 12.1629 3.39148Z"   fill="#034FA1" ></path></svg>