<svg xmlns="http://www.w3.org/2000/svg" xmlns:xlink="http://www.w3.org/1999/xlink" width="24" height="24" viewBox="0 0 24 24" fill="none"><path     fill="#CC4E1D"  d="M16.6873 14.1523L21.3838 14.1523C21.8345 14.1523 22.1999 14.5178 22.1999 14.9685L22.1999 14.9685C22.1999 15.4193 21.8345 15.7847 21.3838 15.7847L16.6873 15.7847C16.2365 15.7847 15.8711 15.4193 15.8711 14.9685L15.8711 14.9685C15.8711 14.5178 16.2365 14.1523 16.6873 14.1523Z"></path><path     fill="#CC4E1D"  d="M13.0144 17.417L21.3841 17.417C21.8349 17.417 22.2003 17.7824 22.2003 18.2332L22.2003 18.2332C22.2003 18.6839 21.8349 19.0493 21.3841 19.0493L13.0144 19.0493C12.5637 19.0493 12.1982 18.6839 12.1982 18.2332L12.1982 18.2332C12.1982 17.7824 12.5637 17.417 13.0144 17.417Z"></path><path     fill="#CC4E1D"  d="M15.0544 20.6816L21.3838 20.6816C21.8345 20.6816 22.1999 21.047 22.1999 21.4978L22.1999 21.4978C22.1999 21.9486 21.8345 22.314 21.3838 22.314L15.0544 22.314C14.6037 22.314 14.2383 21.9486 14.2383 21.4978L14.2383 21.4978C14.2383 21.047 14.6037 20.6816 15.0544 20.6816Z"></path><path d="M11.0744 22.314L3.76614 22.314C2.87337 22.314 2.2002 21.6264 2.2002 20.7151C2.2002 17.5827 4.36051 14.8108 7.33694 14.1232L7.54884 14.0744L7.39652 13.9192C6.22219 12.7216 5.57544 11.1833 5.57544 9.58801L5.57544 3.27933C5.57544 3.0953 5.66145 2.9658 5.84596 2.87187C6.55926 2.61288 8.48989 1.90991 11.0786 1.90991C13.4945 1.90991 15.4011 2.51558 16.3225 2.87667C16.5065 2.92424 16.5822 3.11235 16.5822 3.27933L16.5822 9.81792C16.5822 11.418 15.957 12.8727 14.8212 13.9146L14.7138 14.0133C14.2848 14.2188 13.8803 14.467 13.5056 14.7525L13.2735 14.8708C12.6289 15.2002 11.8695 15.3739 11.0788 15.3739L10.6858 15.3739C10.0693 15.3739 9.46338 15.224 8.88462 14.928L8.72894 15.106L11.0217 18.4134C10.8995 18.8535 10.8196 19.3111 10.7867 19.7817L7.9575 15.5808L7.1063 17.7168L9.09316 19.2071L10.7757 20.5694C10.8011 21.1742 10.9038 21.7589 11.0744 22.314ZM6.53932 3.56546L6.45667 3.59357L6.45667 8.13306L6.61572 8.08237C7.99931 7.64007 9.50038 7.41592 11.0788 7.41592C12.6572 7.41592 14.1583 7.64007 15.5419 8.08237L15.7009 8.13306L15.7009 3.59357L15.6183 3.56546C14.16 3.06695 12.6383 2.81373 11.0966 2.81373C9.53305 2.81373 8.00603 3.06647 6.53932 3.56546ZM6.51313 9.53683L6.51313 9.64591C6.51313 12.206 8.4159 14.3504 10.8455 14.528L11.1355 14.5282C13.6838 14.5282 15.7572 12.4157 15.7572 9.81864L15.7572 9.53131L15.7384 9.12216L15.6613 9.09478C14.2554 8.59194 12.7137 8.33727 11.079 8.33727C9.47611 8.33727 7.96183 8.58257 6.57824 9.06571L6.49223 9.09574L6.51313 9.53683ZM3.66523 21.3616C3.70415 21.3616 3.74499 21.3585 3.78704 21.3513L10.47 21.353L8.62395 19.8742L6.70797 18.438C6.28754 18.1694 6.2145 17.6428 6.35625 17.2584L7.17982 15.1248L6.93309 15.2089C4.62934 15.9916 3.08215 18.2043 3.08215 20.7149C3.08215 21.0957 3.32168 21.3616 3.66523 21.3616Z" stroke="rgba(3, 79, 161, 1)" stroke-width="0.6"    fill-rule="evenodd"  fill="#034FA1" ></path><path d="M11.5475 3.42139C11.8283 3.42139 12.0613 3.63641 12.084 3.91637L12.084 4.60029L12.7717 4.60029C12.7801 4.60029 12.7944 4.60407 12.7944 4.60407C12.8027 4.60407 12.8126 4.60784 12.8208 4.60784C12.8291 4.60784 12.8435 4.61162 12.8435 4.61162C12.8517 4.61162 12.87 4.61918 12.87 4.61918C12.878 4.61918 12.8847 4.62674 12.8926 4.62674C12.9006 4.62674 12.9191 4.63429 12.9191 4.63429C12.9269 4.63429 12.9341 4.64185 12.9418 4.64185C12.9494 4.64185 12.9569 4.65319 12.9644 4.65319C12.9719 4.65319 12.9798 4.66052 12.9871 4.66452C12.9944 4.66853 12.9988 4.6715 13.006 4.67586C13.0131 4.68018 13.0217 4.68629 13.0287 4.69097C13.0356 4.69564 13.0408 4.7011 13.0476 4.70609C13.0543 4.71107 13.0638 4.7159 13.0702 4.7212C13.0767 4.7265 13.0829 4.73072 13.0891 4.73631C13.0953 4.7419 13.1021 4.74934 13.108 4.75521C13.114 4.76107 13.1174 4.76418 13.1231 4.77032C13.1288 4.77646 13.1366 4.78279 13.142 4.78921C13.1474 4.7956 13.152 4.80524 13.1571 4.81188C13.1622 4.81853 13.1675 4.82389 13.1722 4.83078C13.177 4.83764 13.1792 4.84636 13.1836 4.85345C13.188 4.86053 13.1946 4.86503 13.1987 4.87234C13.2028 4.87963 13.21 4.88754 13.21 4.89501C13.21 4.90248 13.2214 4.91004 13.2214 4.91768C13.2214 4.92532 13.2289 4.93257 13.2289 4.94035C13.2289 4.94814 13.2365 4.95509 13.2365 4.96303C13.2365 4.97094 13.244 4.98143 13.244 4.98948C13.244 4.9975 13.2516 5.00399 13.2516 5.01215C13.2516 5.02026 13.2554 5.03037 13.2554 5.0386C13.2554 5.04683 13.2629 5.05298 13.2629 5.06127C13.2629 5.06953 13.2629 5.07938 13.2629 5.08772C13.2629 5.09604 13.2667 5.10203 13.2667 5.11039C13.2667 5.11875 13.2667 5.12848 13.2667 5.13684C13.2667 5.1452 13.2667 5.15491 13.2667 5.16329C13.2667 5.17163 13.2629 5.17762 13.2629 5.18596C13.2629 5.19428 13.2629 5.20412 13.2629 5.21241C13.2629 5.22067 13.2554 5.22685 13.2554 5.23508C13.2554 5.24331 13.2516 5.25339 13.2516 5.26153C13.2516 5.26967 13.244 5.27616 13.244 5.2842C13.244 5.29224 13.2365 5.30272 13.2365 5.31065C13.2365 5.31857 13.2289 5.32553 13.2289 5.33332C13.2289 5.34111 13.2214 5.34835 13.2214 5.35599C13.2214 5.36363 13.21 5.37117 13.21 5.37866C13.21 5.38612 13.2028 5.39403 13.1987 5.40133C13.1946 5.4086 13.188 5.4169 13.1836 5.42401C13.1792 5.43109 13.177 5.43602 13.1722 5.4429C13.1675 5.44976 13.1622 5.45891 13.1571 5.46557C13.152 5.47221 13.1474 5.47806 13.142 5.48446C13.1366 5.49086 13.1288 5.49721 13.1231 5.50336C13.1174 5.5095 13.114 5.51636 13.108 5.52225C13.1021 5.52812 13.0953 5.53175 13.0891 5.53736C13.0829 5.54293 13.0767 5.54716 13.0702 5.55248C13.0638 5.55775 13.0543 5.56259 13.0476 5.56759C13.0408 5.57257 13.0356 5.57802 13.0287 5.5827C13.0217 5.58735 13.0131 5.59346 13.006 5.59782C12.9988 5.60215 12.9944 5.60513 12.9871 5.60915C12.9798 5.61314 12.9719 5.62049 12.9644 5.62049C12.9569 5.62049 12.9494 5.63182 12.9418 5.63182C12.9341 5.63182 12.9269 5.63938 12.9191 5.63938C12.9112 5.63938 12.9006 5.65072 12.8926 5.65072C12.8847 5.65072 12.878 5.65827 12.87 5.65827C12.8619 5.65827 12.8517 5.66205 12.8435 5.66205C12.8353 5.66205 12.8291 5.66583 12.8208 5.66583C12.8126 5.66583 12.8027 5.66961 12.7944 5.66961C12.7861 5.66961 12.7801 5.67339 12.7717 5.67339L12.084 5.67339L12.084 6.36108C12.084 6.36942 12.084 6.37545 12.084 6.38375C12.084 6.39204 12.0803 6.40195 12.0803 6.4102C12.0803 6.41843 12.0727 6.42472 12.0727 6.43287C12.0727 6.44103 12.0689 6.45124 12.0689 6.45932C12.0689 6.46739 12.0614 6.47402 12.0614 6.48199C12.0614 6.48995 12.0538 6.49684 12.0538 6.50466C12.0538 6.51249 12.0425 6.51964 12.0425 6.52734C12.0425 6.53501 12.0349 6.54248 12.0349 6.55001C12.0349 6.55753 12.0276 6.56533 12.0236 6.57268C12.0196 6.58002 12.0128 6.58819 12.0085 6.59535C12.0041 6.60249 12.0018 6.61108 11.9971 6.61802C11.9925 6.62496 11.987 6.6302 11.982 6.63691C11.977 6.64361 11.9722 6.64931 11.9669 6.65581C11.9616 6.66226 11.9536 6.66846 11.948 6.6747C11.9424 6.6809 11.9388 6.68763 11.9329 6.69359C11.927 6.69953 11.9201 6.7068 11.914 6.71248C11.9079 6.71815 11.9015 6.72221 11.8951 6.7276C11.8887 6.73299 11.8829 6.73764 11.8762 6.74271C11.8696 6.74779 11.8642 6.75307 11.8573 6.75783C11.8504 6.76259 11.8418 6.76849 11.8347 6.77294C11.8276 6.77737 11.8193 6.78016 11.812 6.78428C11.8047 6.78837 11.7968 6.79561 11.7893 6.79561C11.7818 6.79561 11.7743 6.80695 11.7666 6.80695C11.759 6.80695 11.7518 6.81828 11.744 6.81828C11.7362 6.81828 11.7292 6.82584 11.7213 6.82584C11.7134 6.82584 11.7066 6.8334 11.6986 6.8334C11.6906 6.8334 11.6803 6.84095 11.6722 6.84095C11.664 6.84095 11.6577 6.84473 11.6495 6.84473C11.6413 6.84473 11.6313 6.84851 11.6231 6.84851C11.6147 6.84851 11.6087 6.85229 11.6004 6.85229C11.5921 6.85229 11.5823 6.85229 11.5739 6.85229C11.5656 6.85229 11.5558 6.85607 11.5475 6.85607C11.5391 6.85607 11.5332 6.85229 11.5248 6.85229C11.5165 6.85229 11.5067 6.85229 11.4984 6.85229C11.49 6.85229 11.484 6.84851 11.4757 6.84851C11.4674 6.84851 11.4575 6.84473 11.4492 6.84473C11.441 6.84473 11.4347 6.84095 11.4266 6.84095C11.4184 6.84095 11.4082 6.8334 11.4001 6.8334C11.3921 6.8334 11.3854 6.82584 11.3774 6.82584C11.3695 6.82584 11.3626 6.81828 11.3548 6.81828C11.347 6.81828 11.336 6.80695 11.3283 6.80695C11.3207 6.80695 11.3131 6.79561 11.3057 6.79561C11.2982 6.79561 11.294 6.78837 11.2868 6.78428C11.2795 6.78016 11.2712 6.77737 11.2641 6.77294C11.257 6.76849 11.2483 6.76259 11.2414 6.75783C11.2345 6.75307 11.2292 6.74779 11.2225 6.74271C11.2159 6.73764 11.21 6.73299 11.2036 6.7276C11.1972 6.72221 11.1909 6.71815 11.1847 6.71248C11.1786 6.7068 11.1717 6.69953 11.1659 6.69359C11.16 6.68763 11.1525 6.6809 11.147 6.6747C11.1413 6.66846 11.1371 6.66226 11.1318 6.65581C11.1265 6.64931 11.1217 6.64361 11.1167 6.63691C11.1117 6.6302 11.1063 6.62496 11.1016 6.61802C11.0969 6.61108 11.0946 6.60249 11.0903 6.59535C11.0859 6.58819 11.0792 6.58002 11.0752 6.57268C11.0711 6.56533 11.0638 6.55753 11.0638 6.55001C11.0638 6.54248 11.0525 6.53501 11.0525 6.52734C11.0525 6.51964 11.0449 6.51249 11.0449 6.50466C11.0449 6.49684 11.0374 6.48995 11.0374 6.48199C11.0374 6.47402 11.0298 6.46739 11.0298 6.45932C11.0298 6.45124 11.0223 6.44103 11.0223 6.43287C11.0223 6.42472 11.0185 6.41843 11.0185 6.4102C11.0185 6.40195 11.0147 6.39204 11.0147 6.38375C11.0147 6.37545 11.0109 6.36942 11.0109 6.36108L11.0109 5.67339L10.327 5.67339C10.3187 5.67339 10.3089 5.66961 10.3006 5.66961C10.2923 5.66961 10.2861 5.66583 10.2779 5.66583C10.2696 5.66583 10.2596 5.66205 10.2514 5.66205C10.2433 5.66205 10.2368 5.65827 10.2288 5.65827C10.2207 5.65827 10.2141 5.65072 10.2061 5.65072C10.1981 5.65072 10.1875 5.63938 10.1797 5.63938C10.1718 5.63938 10.1647 5.63182 10.157 5.63182C10.1493 5.63182 10.1418 5.62049 10.1343 5.62049C10.1268 5.62049 10.119 5.61314 10.1116 5.60915C10.1043 5.60513 10.0961 5.60215 10.089 5.59782C10.0818 5.59346 10.077 5.58735 10.0701 5.5827C10.0631 5.57802 10.0541 5.57257 10.0474 5.56759C10.0407 5.56259 10.035 5.55775 10.0285 5.55248C10.022 5.54716 10.0158 5.54293 10.0096 5.53736C10.0034 5.53175 9.99667 5.52812 9.99073 5.52225C9.98477 5.51636 9.98128 5.50948 9.97562 5.50336C9.96995 5.49719 9.96211 5.49086 9.95672 5.48446C9.95135 5.47806 9.94668 5.47221 9.94161 5.46557C9.93652 5.45891 9.93125 5.44976 9.92649 5.4429C9.92173 5.43602 9.91959 5.43109 9.91516 5.42401C9.91071 5.4169 9.90414 5.4086 9.90004 5.40133C9.89593 5.39403 9.88871 5.38612 9.88871 5.37866C9.88871 5.37117 9.87737 5.36363 9.87737 5.35599C9.87737 5.34835 9.86982 5.34111 9.86982 5.33332C9.86982 5.32553 9.85848 5.31857 9.85848 5.31065C9.85848 5.30272 9.85092 5.29224 9.85092 5.2842C9.85092 5.27616 9.84715 5.26967 9.84715 5.26153C9.84715 5.25339 9.83959 5.24331 9.83959 5.23508C9.83959 5.22685 9.83581 5.22067 9.83581 5.21241C9.83581 5.20412 9.83203 5.19428 9.83203 5.18596C9.83203 5.17762 9.83203 5.17163 9.83203 5.16329C9.83203 5.15491 9.83203 5.1452 9.83203 5.13684C9.83203 5.12848 9.83203 5.11875 9.83203 5.11039C9.83203 5.10203 9.83203 5.09604 9.83203 5.08772C9.83203 5.07938 9.83581 5.06953 9.83581 5.06127C9.83581 5.05298 9.83959 5.04683 9.83959 5.0386C9.83959 5.03037 9.84715 5.02026 9.84715 5.01215C9.84715 5.00399 9.85092 4.9975 9.85092 4.98948C9.85092 4.98143 9.85848 4.97094 9.85848 4.96303C9.85848 4.95509 9.86982 4.94814 9.86982 4.94035C9.86982 4.93257 9.87737 4.92532 9.87737 4.91768C9.87737 4.91004 9.88871 4.90248 9.88871 4.89501C9.88871 4.88754 9.89595 4.87963 9.90004 4.87234C9.90416 4.86503 9.91071 4.86053 9.91516 4.85345C9.91959 4.84636 9.92173 4.83764 9.92649 4.83078C9.93125 4.82389 9.93652 4.81853 9.94161 4.81188C9.94668 4.80524 9.95135 4.7956 9.95672 4.78921C9.96211 4.78279 9.96995 4.77646 9.97562 4.77032C9.98128 4.76418 9.98477 4.76107 9.99073 4.75521C9.99667 4.74934 10.0034 4.7419 10.0096 4.73631C10.0158 4.73072 10.022 4.7265 10.0285 4.7212C10.035 4.7159 10.0407 4.71107 10.0474 4.70609C10.0541 4.7011 10.0631 4.69564 10.0701 4.69097C10.077 4.68629 10.0818 4.68018 10.089 4.67586C10.0961 4.6715 10.1043 4.66853 10.1116 4.66452C10.119 4.66052 10.1268 4.65319 10.1343 4.65319C10.1418 4.65319 10.1493 4.64185 10.157 4.64185C10.1647 4.64185 10.1718 4.63429 10.1797 4.63429C10.1875 4.63429 10.1981 4.62674 10.2061 4.62674C10.2141 4.62674 10.2207 4.61918 10.2288 4.61918C10.2368 4.61918 10.2433 4.61162 10.2514 4.61162C10.2596 4.61162 10.2696 4.60784 10.2779 4.60784C10.2861 4.60784 10.2923 4.60407 10.3006 4.60407C10.3089 4.60407 10.3187 4.60029 10.327 4.60029L11.0109 4.60029L11.0109 3.91637C11.0109 3.90803 11.0147 3.89823 11.0147 3.88992C11.0147 3.88162 11.0185 3.87548 11.0185 3.86725C11.0185 3.859 11.0223 3.84896 11.0223 3.8408C11.0223 3.83265 11.0298 3.8262 11.0298 3.81813C11.0298 3.81005 11.0374 3.79963 11.0374 3.79168C11.0374 3.78371 11.0449 3.77683 11.0449 3.76901C11.0449 3.76119 11.0525 3.75402 11.0525 3.74634C11.0525 3.73866 11.0638 3.7312 11.0638 3.72367C11.0638 3.71614 11.0712 3.70834 11.0752 3.701C11.0792 3.69365 11.0859 3.68549 11.0903 3.67833C11.0946 3.67117 11.0969 3.66259 11.1016 3.65566C11.1063 3.64872 11.1117 3.64348 11.1167 3.63676C11.1217 3.63005 11.1265 3.62433 11.1318 3.61787C11.1371 3.61139 11.1414 3.6052 11.147 3.59898C11.1525 3.59274 11.16 3.58603 11.1659 3.58008C11.1717 3.57413 11.1786 3.56686 11.1847 3.56119C11.1909 3.55551 11.1972 3.55147 11.2036 3.54608C11.21 3.5407 11.2159 3.53604 11.2225 3.53096C11.2292 3.52589 11.2345 3.52061 11.2414 3.51585C11.2483 3.51109 11.257 3.50517 11.2641 3.50074C11.2712 3.4963 11.2795 3.4935 11.2868 3.4894C11.2941 3.4853 11.2982 3.47806 11.3057 3.47806C11.3131 3.47806 11.3207 3.46673 11.3283 3.46673C11.336 3.46673 11.347 3.45539 11.3548 3.45539C11.3626 3.45539 11.3695 3.44784 11.3774 3.44784C11.3854 3.44784 11.3921 3.44028 11.4001 3.44028C11.4082 3.44028 11.4184 3.43272 11.4266 3.43272C11.4347 3.43272 11.441 3.42894 11.4492 3.42894C11.4575 3.42894 11.4674 3.42517 11.4757 3.42517C11.484 3.42517 11.49 3.42139 11.4984 3.42139C11.5067 3.42139 11.5165 3.42139 11.5248 3.42139C11.5332 3.42139 11.5391 3.42139 11.5475 3.42139Z"   fill="#034FA1" ></path></svg>