<svg xmlns="http://www.w3.org/2000/svg" xmlns:xlink="http://www.w3.org/1999/xlink" width="24" height="24" viewBox="0 0 24 24" fill="none"><path d="M4.24478 4.24479C5.52448 2.96509 7.55884 2.70368 9.81343 3.31557C12.0073 3.91094 14.4237 5.33861 16.5424 7.45729L16.5427 7.45754C18.6613 9.57623 20.089 11.9926 20.6844 14.1865C21.2962 16.4411 21.0348 18.4755 19.7552 19.7551C18.4755 21.035 16.4411 21.2964 14.1865 20.6844C11.9926 20.089 9.57625 18.6614 7.45752 16.5427L7.45727 16.5424C5.3386 14.4237 3.91093 12.0074 3.31556 9.81345C2.7037 7.55885 2.96507 5.5245 4.24478 4.24479ZM4.705 4.70496C3.60297 5.80699 3.39271 7.61341 3.94352 9.6431C4.51082 11.7335 5.88034 14.0451 7.91747 16.0822L7.91772 16.0825C9.95491 18.1196 12.2665 19.4892 14.3569 20.0564C16.3866 20.6073 18.193 20.397 19.2949 19.295C20.397 18.193 20.6072 16.3866 20.0564 14.3569C19.4891 12.2665 18.1196 9.95489 16.0825 7.91774L16.0822 7.91749C14.045 5.88036 11.7334 4.51081 9.64308 3.94354C7.61339 3.39269 5.80697 3.60298 4.705 4.70496Z" stroke="rgba(3, 79, 161, 1)" stroke-width="0.8"      fill="#034FA1" ></path><path d="M19.295 4.70496C18.193 3.60299 16.3865 3.3927 14.3569 3.94352C12.2665 4.51085 9.95485 5.88038 7.91769 7.91756C5.88041 9.95485 4.51085 12.2665 3.94352 14.3568C3.39271 16.3865 3.60297 18.193 4.70498 19.295C5.80694 20.3969 7.61343 20.6072 9.64308 20.0564C11.7335 19.4891 14.0451 18.1196 16.0823 16.0824C18.1195 14.0451 19.4891 11.7335 20.0564 9.6431C20.6072 7.61343 20.397 5.80697 19.295 4.70496ZM14.1865 3.31555C16.441 2.70369 18.4755 2.9651 19.7552 4.24477C21.0348 5.52448 21.2962 7.55891 20.6844 9.81345C20.089 12.0073 18.6613 14.4238 16.5426 16.5425C14.4237 18.6613 12.0073 20.089 9.81343 20.6844C7.55891 21.2962 5.52444 21.035 4.24478 19.7552C2.96507 18.4755 2.7037 16.441 3.31556 14.1865C3.91096 11.9926 5.33869 9.57616 7.45736 7.45749C9.5762 5.33863 11.9926 3.91095 14.1865 3.31555Z" stroke="rgba(3, 79, 161, 1)" stroke-width="0.8"      fill="#034FA1" ></path><path     fill="#CC4E1D"  d="M13.0563 15.6069L10.9041 15.6069L10.8881 15.6069L10.8718 15.6069L10.861 15.6069L10.845 15.6123L10.8287 15.6123L10.8179 15.6177L10.8019 15.623L10.7856 15.6284L10.7749 15.6338L10.7588 15.6392L10.7481 15.6446L10.7373 15.6553L10.7213 15.6607L10.7105 15.6715L10.6997 15.6822L10.689 15.693L10.6782 15.7038L10.6727 15.7145L10.6619 15.7253L10.6511 15.736L10.6459 15.7468L10.6351 15.7629L10.6298 15.7737L10.6243 15.7898L10.6191 15.8006L10.6136 15.8168L10.6083 15.8275L10.6083 15.8436L10.6028 15.8598L10.6028 15.8706L10.6028 15.8867L10.6028 15.9028L10.6028 15.9136L10.6028 15.9297L10.6028 15.9459L10.6083 15.962L10.6083 15.9728L10.6136 15.9889L10.6191 15.9997L10.6243 16.0158L10.6298 16.0266L10.6351 16.0427L10.6459 16.0535L10.6511 16.0642L10.6619 16.0804L10.6727 16.0911L10.6782 16.1019L10.689 16.1127L10.6997 16.1234L10.7105 16.1288L10.7213 16.1396L10.7373 16.1503L10.7481 16.1557L10.7588 16.1611L10.7749 16.1719L10.7856 16.1772L10.8019 16.1826L10.8179 16.188L10.8287 16.188L10.845 16.1934L10.861 16.1934L10.8718 16.1988L10.8881 16.1988L10.9041 16.1988L13.0563 16.1988L13.0723 16.1988L13.0886 16.1988L13.0994 16.1934L13.1154 16.1934L13.1317 16.188L13.1425 16.188L13.1585 16.1826L13.1748 16.1772L13.1855 16.1719L13.2016 16.1611L13.2123 16.1557L13.2231 16.1503L13.2391 16.1396L13.2499 16.1288L13.2607 16.1234L13.2715 16.1127L13.2822 16.1019L13.2877 16.0911L13.2985 16.0804L13.3093 16.0642L13.3145 16.0535L13.3253 16.0427L13.3306 16.0266L13.3361 16.0158L13.3413 15.9997L13.3469 15.9889L13.3521 15.9728L13.3521 15.962L13.3576 15.9459L13.3576 15.9297L13.3576 15.9136L13.3576 15.9028L13.3576 15.8867L13.3576 15.8706L13.3576 15.8598L13.3521 15.8436L13.3521 15.8275L13.3469 15.8168L13.3413 15.8006L13.3361 15.7898L13.3306 15.7737L13.3253 15.7629L13.3145 15.7468L13.3093 15.736L13.2985 15.7253L13.2877 15.7145L13.2822 15.7038L13.2715 15.693L13.2607 15.6822L13.2499 15.6715L13.2391 15.6607L13.2231 15.6553L13.2123 15.6446L13.2016 15.6392L13.1855 15.6338L13.1748 15.6284L13.1585 15.623L13.1425 15.6177L13.1317 15.6123L13.1154 15.6123L13.0994 15.6069L13.0886 15.6069L13.0723 15.6069L13.0563 15.6069ZM11.9802 7.59009C13.7632 7.59009 15.2085 8.97256 15.2085 10.6784C15.2085 11.8211 14.5595 12.8189 13.5943 13.3525L13.5943 13.8637C13.5943 14.1921 13.3261 14.4609 12.9917 14.4609L10.9687 14.4609C10.9588 14.4609 10.9517 14.4609 10.9418 14.4609C10.9319 14.4609 10.9194 14.4555 10.9095 14.4555C10.8996 14.4555 10.8924 14.4555 10.8826 14.4555C10.8728 14.4555 10.8654 14.4501 10.8557 14.4501C10.846 14.4501 10.833 14.4394 10.8234 14.4394C10.8138 14.4394 10.806 14.434 10.7965 14.434C10.787 14.434 10.7789 14.4232 10.7696 14.4232C10.7603 14.4232 10.7465 14.4125 10.7373 14.4125C10.7282 14.4125 10.7194 14.4017 10.7104 14.4017C10.7015 14.4017 10.6923 14.3909 10.6835 14.3909C10.6748 14.3909 10.6705 14.3748 10.662 14.3748C10.6535 14.3748 10.6433 14.3641 10.6351 14.3587C10.6269 14.3533 10.6161 14.3483 10.6082 14.3425C10.6002 14.3367 10.5943 14.3325 10.5867 14.3264C10.579 14.3202 10.5725 14.3114 10.5652 14.3048C10.5578 14.2983 10.5506 14.2902 10.5436 14.2833C10.5366 14.2764 10.5288 14.269 10.5221 14.2618C10.5155 14.2546 10.5122 14.2478 10.506 14.2403C10.4997 14.2328 10.4903 14.2266 10.4844 14.2188C10.4785 14.211 10.4738 14.2053 10.4683 14.1972C10.4628 14.1891 10.4522 14.1787 10.4522 14.1703C10.4522 14.162 10.436 14.152 10.436 14.1434C10.436 14.1349 10.4253 14.1253 10.4253 14.1165C10.4253 14.1077 10.4145 14.104 10.4145 14.095C10.4145 14.086 10.4037 14.0719 10.4037 14.0627C10.4037 14.0536 10.393 14.0451 10.393 14.0358C10.393 14.0265 10.3822 14.0184 10.3822 14.0089C10.3822 13.9995 10.3768 13.9916 10.3768 13.982C10.3768 13.9725 10.3715 13.9594 10.3715 13.9497C10.3715 13.9401 10.3715 13.9325 10.3715 13.9228C10.3715 13.9132 10.3661 13.9057 10.3661 13.8959C10.3661 13.8862 10.3661 13.8734 10.3661 13.8637L10.3661 13.3525C9.40092 12.8192 8.75195 11.8211 8.75195 10.6784C8.75195 8.97256 10.1972 7.59009 11.9802 7.59009ZM13.0186 8.34335C12.998 8.33507 12.9802 8.32422 12.9594 8.31644C12.9386 8.30866 12.9158 8.30221 12.8949 8.29492C12.8739 8.28764 12.8568 8.28018 12.8357 8.2734C12.8145 8.26662 12.7924 8.26354 12.7711 8.25726C12.7498 8.25098 12.728 8.2415 12.7066 8.23574C12.6851 8.22997 12.6636 8.2196 12.642 8.2196C12.6204 8.2196 12.5991 8.20346 12.5774 8.20346C12.5557 8.20346 12.5347 8.19269 12.5129 8.19269C12.491 8.19269 12.4648 8.18193 12.4429 8.18193C12.421 8.18193 12.4004 8.17117 12.3784 8.17117C12.3563 8.17117 12.3359 8.16041 12.3138 8.16041C12.2917 8.16041 12.2714 8.15503 12.2492 8.15503C12.2271 8.15503 12.2015 8.14965 12.1793 8.14965C12.1571 8.14965 12.1369 8.14427 12.1147 8.14427C12.0925 8.14427 12.067 8.14427 12.0448 8.14427C12.0225 8.14427 12.0024 8.13889 11.9802 8.13889C11.958 8.13889 11.9379 8.14427 11.9156 8.14427C11.8934 8.14427 11.8679 8.14427 11.8457 8.14427C11.8235 8.14427 11.8033 8.14965 11.7811 8.14965C11.7589 8.14965 11.7333 8.15503 11.7112 8.15503C11.689 8.15503 11.6687 8.16041 11.6466 8.16041C11.6245 8.16041 11.6041 8.17117 11.5821 8.17117C11.56 8.17117 11.5394 8.18193 11.5175 8.18193C11.4956 8.18193 11.4694 8.19269 11.4475 8.19269C11.4257 8.19269 11.4047 8.20346 11.383 8.20346C11.3613 8.20346 11.34 8.2196 11.3184 8.2196C11.2968 8.2196 11.2753 8.22997 11.2538 8.23574C11.2324 8.2415 11.2106 8.25098 11.1893 8.25726C11.168 8.26354 11.1459 8.26662 11.1247 8.2734C11.1036 8.28018 11.0865 8.28764 11.0655 8.29492C11.0446 8.30221 11.0218 8.30866 11.001 8.31644C10.9802 8.32422 10.9624 8.33507 10.9418 8.34335C10.9025 8.35924 10.8619 8.37406 10.8234 8.39177C10.785 8.40948 10.748 8.43147 10.7104 8.45095C10.6729 8.47044 10.634 8.48892 10.5974 8.51014C10.5609 8.53136 10.5253 8.5518 10.4898 8.5747C10.4543 8.59761 10.4166 8.62011 10.3822 8.64465C10.3479 8.66919 10.3185 8.69925 10.2854 8.72536C10.2523 8.75148 10.2203 8.77844 10.1885 8.80606C10.1567 8.8337 10.1221 8.85768 10.0917 8.88677C10.0617 8.91536 10.0341 8.94825 10.0056 8.97824C9.97703 9.00822 9.94653 9.03839 9.9195 9.0697C9.89248 9.10103 9.86963 9.13397 9.84418 9.16655C9.81873 9.19913 9.79265 9.22964 9.76885 9.2634C9.74505 9.29715 9.72101 9.33078 9.69891 9.36563C9.6768 9.40049 9.65469 9.43737 9.63434 9.47323C9.614 9.5091 9.59908 9.54404 9.58054 9.58084C9.562 9.61764 9.54343 9.65619 9.52673 9.69383C9.51825 9.7131 9.50781 9.73355 9.49983 9.75302C9.49185 9.77248 9.48579 9.79253 9.47831 9.8122C9.47083 9.83187 9.46375 9.85154 9.45679 9.87139C9.44983 9.89123 9.44171 9.91056 9.43527 9.93057C9.42882 9.95058 9.42504 9.96958 9.41912 9.98975C9.41321 10.0099 9.403 10.0286 9.3976 10.0489C9.39221 10.0693 9.38684 10.0931 9.38684 10.1135C9.38684 10.1339 9.3707 10.1521 9.3707 10.1727C9.3707 10.1932 9.35994 10.2166 9.35994 10.2373C9.35994 10.2579 9.34918 10.2757 9.34918 10.2964C9.34918 10.3172 9.33842 10.3402 9.33842 10.361C9.33842 10.3818 9.33304 10.3993 9.33304 10.4202C9.33304 10.4411 9.32766 10.4638 9.32766 10.4848C9.32766 10.5057 9.32228 10.5284 9.32228 10.5493C9.32228 10.5703 9.3169 10.5875 9.3169 10.6085C9.3169 10.6295 9.3169 10.6521 9.3169 10.6731C9.3169 10.6941 9.3169 10.7166 9.3169 10.7376C9.3169 10.7586 9.32228 10.7759 9.32228 10.7968C9.32228 10.8178 9.32766 10.8405 9.32766 10.8614C9.32766 10.8823 9.33304 10.9051 9.33304 10.9259C9.33304 10.9468 9.33842 10.9643 9.33842 10.9851C9.33842 11.006 9.34918 11.029 9.34918 11.0497C9.34918 11.0704 9.35994 11.0936 9.35994 11.1143C9.35994 11.1349 9.3707 11.1529 9.3707 11.1734C9.3707 11.194 9.38684 11.2122 9.38684 11.2326C9.38684 11.2531 9.39221 11.2769 9.3976 11.2972C9.403 11.3175 9.41321 11.3362 9.41912 11.3564C9.42504 11.3766 9.42882 11.3956 9.43527 11.4156C9.44171 11.4356 9.44983 11.4549 9.45679 11.4747C9.46375 11.4946 9.47083 11.5143 9.47831 11.5339C9.48579 11.5536 9.49185 11.5737 9.49983 11.5931C9.50781 11.6126 9.51825 11.633 9.52673 11.6523C9.54345 11.6899 9.56198 11.7285 9.58054 11.7653C9.59909 11.8021 9.61398 11.8371 9.63434 11.8729C9.6547 11.9088 9.67679 11.9457 9.69891 11.9805C9.72102 12.0154 9.74504 12.049 9.76885 12.0827C9.79267 12.1165 9.81872 12.147 9.84418 12.1796C9.86964 12.2121 9.89246 12.2451 9.9195 12.2764C9.94655 12.3077 9.97703 12.3379 10.0056 12.3679C10.0342 12.3979 10.0617 12.4308 10.0917 12.4594C10.122 12.4885 10.1568 12.5178 10.1885 12.5455C10.2203 12.5732 10.2523 12.6 10.2854 12.6262C10.3185 12.6523 10.3479 12.6769 10.3822 12.7015C10.4166 12.7261 10.4543 12.7485 10.4898 12.7714C10.5253 12.7943 10.5608 12.8148 10.5974 12.836C10.634 12.8572 10.6728 12.8811 10.7104 12.9006C10.748 12.92 10.7849 12.9367 10.8234 12.9544C10.8619 12.972 10.9025 12.987 10.9418 13.0028C10.9418 13.0028 10.9418 13.0028 10.9418 13.0028C10.9512 13.0028 10.9579 13.0158 10.9579 13.0253L10.9579 13.9067L13.0079 13.9067L13.0079 13.0253C13.0079 13.0148 13.0134 13.0028 13.024 13.0028C13.024 13.0028 13.024 13.0028 13.024 13.0028C13.0633 12.9869 13.0985 12.9721 13.137 12.9544C13.1755 12.9366 13.2178 12.9201 13.2554 12.9006C13.2929 12.8811 13.3264 12.8572 13.363 12.836C13.3995 12.8148 13.4351 12.7943 13.4706 12.7714C13.5061 12.7485 13.5438 12.726 13.5782 12.7015C13.6125 12.6769 13.6473 12.6523 13.6804 12.6262C13.7135 12.6 13.7455 12.5731 13.7773 12.5455C13.8091 12.5178 13.8383 12.4885 13.8687 12.4594C13.8987 12.4308 13.9263 12.3979 13.9548 12.3679C13.9833 12.3379 14.0139 12.3077 14.0409 12.2764C14.0679 12.2451 14.0908 12.2121 14.1162 12.1796C14.1416 12.147 14.1678 12.1165 14.1916 12.0827C14.2153 12.049 14.2395 12.0154 14.2615 11.9805C14.2835 11.9457 14.3058 11.9088 14.3261 11.8729C14.3463 11.837 14.3668 11.8021 14.3853 11.7653C14.4037 11.7285 14.4171 11.6899 14.4337 11.6523C14.4422 11.633 14.4526 11.6126 14.4606 11.5931C14.4686 11.5737 14.4746 11.5536 14.4821 11.5339C14.4896 11.5143 14.4967 11.4946 14.5036 11.4747C14.5106 11.4549 14.5187 11.4356 14.5251 11.4156C14.5316 11.3956 14.5354 11.3766 14.5413 11.3564C14.5472 11.3362 14.5574 11.3175 14.5628 11.2972C14.5682 11.2769 14.5736 11.2531 14.5736 11.2326C14.5736 11.2122 14.5897 11.194 14.5897 11.1734C14.5897 11.1529 14.6005 11.1349 14.6005 11.1143C14.6005 11.0936 14.6112 11.0704 14.6112 11.0497C14.6112 11.029 14.622 11.006 14.622 10.9851C14.622 10.9643 14.6274 10.9468 14.6274 10.9259C14.6274 10.9051 14.6327 10.8823 14.6327 10.8614C14.6327 10.8405 14.6381 10.8178 14.6381 10.7968C14.6381 10.7759 14.6435 10.7586 14.6435 10.7376C14.6435 10.7166 14.6435 10.6941 14.6435 10.6731C14.6435 10.6521 14.6435 10.6295 14.6435 10.6085C14.6435 10.5875 14.6381 10.5703 14.6381 10.5493C14.6381 10.5284 14.6327 10.5057 14.6327 10.4848C14.6327 10.4638 14.6274 10.4411 14.6274 10.4202C14.6274 10.3993 14.622 10.3818 14.622 10.361C14.622 10.3402 14.6112 10.3172 14.6112 10.2964C14.6112 10.2757 14.6005 10.2579 14.6005 10.2373C14.6005 10.2166 14.5897 10.1932 14.5897 10.1727C14.5897 10.1521 14.5736 10.1339 14.5736 10.1135C14.5736 10.0931 14.5682 10.0693 14.5628 10.0489C14.5574 10.0286 14.5472 10.0099 14.5413 9.98975C14.5354 9.96959 14.5316 9.95059 14.5251 9.93057C14.5187 9.91056 14.5106 9.89123 14.5036 9.87139C14.4967 9.85154 14.4896 9.83187 14.4821 9.8122C14.4746 9.79253 14.4686 9.77248 14.4606 9.75302C14.4526 9.73355 14.4422 9.7131 14.4337 9.69383C14.417 9.65621 14.3984 9.61763 14.3799 9.58084C14.3613 9.54407 14.3464 9.50909 14.3261 9.47323C14.3057 9.43738 14.2836 9.40047 14.2615 9.36563C14.2394 9.33079 14.2153 9.29714 14.1916 9.2634C14.1678 9.22966 14.1417 9.19911 14.1162 9.16655C14.0908 9.134 14.0679 9.10101 14.0409 9.0697C14.0139 9.03839 13.9833 9.00822 13.9548 8.97824C13.9263 8.94827 13.8987 8.91535 13.8687 8.88677C13.8384 8.85759 13.809 8.83377 13.7773 8.80606C13.7455 8.77836 13.7081 8.75152 13.675 8.72536C13.6419 8.69919 13.6125 8.66922 13.5782 8.64465C13.5438 8.62009 13.5061 8.59762 13.4706 8.5747C13.4351 8.5518 13.3996 8.53134 13.363 8.51014C13.3264 8.48894 13.2876 8.47039 13.25 8.45095C13.2124 8.43152 13.1755 8.40941 13.137 8.39177C13.0985 8.37414 13.0633 8.35914 13.024 8.34335L13.0186 8.34335Z"></path><path   fill="rgba(204, 78, 29, 1)"  d="M13.0563 15.9069L10.9041 15.9069L10.8881 15.9069L10.8718 15.9069L10.861 15.9069L10.861 15.6069L10.9566 15.8913L10.8941 15.9123L10.8287 15.9123L10.8287 15.6123L10.9629 15.8806L10.9333 15.8954L10.8972 15.9075L10.8798 15.9133L10.7856 15.6284L10.9198 15.8968L10.8902 15.9116L10.8541 15.9236L10.7588 15.6392L10.893 15.9075L10.8822 15.9129L10.7481 15.6446L10.96 15.8569L10.8995 15.9173L10.8168 15.9451L10.7213 15.6607L10.9332 15.873L10.9225 15.8838L10.9119 15.8944L10.9009 15.9053L10.8902 15.916L10.6782 15.7038L10.9452 15.8405L10.9181 15.8934L10.8739 15.9376L10.8633 15.9482L10.6511 15.736L10.9207 15.8677L10.9066 15.8966L10.8846 15.9295L10.6351 15.7629L10.9047 15.8946L10.8994 15.9054L10.6298 15.7737L10.9137 15.8707L10.9022 15.9046L10.8887 15.9321L10.6191 15.8006L10.9029 15.8976L10.8914 15.9316L10.8779 15.9592L10.6083 15.8275L10.9083 15.8275L10.9083 15.8935L10.8867 15.9568L10.6028 15.8598L10.9028 15.8598L10.9028 15.8706L10.9028 15.8867L10.9028 15.9028L10.9028 15.9136L10.9028 15.9297L10.9028 15.9459L10.6028 15.9459L10.8867 15.8488L10.9083 15.9122L10.9083 15.9728L10.6083 15.9728L10.8936 15.8799L10.8988 15.896L10.6136 15.9889L10.8806 15.8522L10.897 15.8841L10.9096 15.923L10.6243 16.0158L10.8913 15.8789L10.9077 15.9109L10.9204 15.9499L10.6351 16.0427L10.8472 15.8306L10.8934 15.8768L10.9207 15.9326L10.6511 16.0642L10.9007 15.8977L10.9114 15.9139L10.6619 16.0804L10.8739 15.8681L10.9181 15.9123L10.9452 15.9651L10.6782 16.1019L10.8902 15.8896L10.9009 15.9004L10.9117 15.9111L10.6997 16.1234L10.8339 15.8551L10.8882 15.8823L10.9334 15.9275L10.7213 16.1396L10.8884 15.8905L10.9045 15.9012L10.7373 16.1503L10.8715 15.882L10.8822 15.8874L10.9101 15.9013L10.9422 15.9229L10.7749 16.1719L10.9087 15.9034L10.9195 15.9087L10.7856 16.1772L10.8798 15.8924L10.8961 15.8978L10.9135 15.9036L10.8179 16.188L10.8179 15.888L10.8769 15.888L10.9389 15.9085L10.845 16.1934L10.845 15.8934L10.9319 15.8934L11.006 15.9304L10.8718 16.1988L10.8718 15.8988L10.8881 15.8988L10.9041 15.8988L13.0563 15.8988L13.0723 15.8988L13.0886 15.8988L13.0886 16.1988L12.9544 15.9304L13.0286 15.8934L13.1154 15.8934L13.1154 16.1934L13.0215 15.9085L13.0835 15.888L13.1425 15.888L13.1425 16.188L13.0469 15.9036L13.0629 15.8982L13.0806 15.8924L13.1748 16.1772L13.0409 15.9087L13.0517 15.9034L13.1855 16.1719L13.0182 15.9229L13.0503 15.9013L13.0785 15.8872L13.089 15.882L13.2231 16.1503L13.0559 15.9012L13.072 15.8905L13.2391 16.1396L13.027 15.9275L13.0722 15.8823L13.1265 15.8551L13.2607 16.1234L13.0487 15.9111L13.0595 15.9004L13.0703 15.8896L13.2822 16.1019L13.0152 15.9651L13.0423 15.9123L13.0865 15.8681L13.2985 16.0804L13.049 15.9139L13.0597 15.8977L13.3093 16.0642L13.0397 15.9326L13.067 15.8768L13.1132 15.8306L13.3253 16.0427L13.04 15.9499L13.0527 15.911L13.0692 15.8789L13.3361 16.0158L13.0508 15.923L13.0634 15.8841L13.0798 15.8522L13.3469 15.9889L13.0616 15.896L13.0668 15.8799L13.3521 15.9728L13.0521 15.9728L13.0521 15.9122L13.0737 15.8488L13.3576 15.9459L13.0576 15.9459L13.0576 15.9297L13.0576 15.9136L13.0576 15.9028L13.0576 15.8867L13.0576 15.8706L13.0576 15.8598L13.3576 15.8598L13.0737 15.9568L13.0521 15.8935L13.0521 15.8275L13.3521 15.8275L13.0826 15.9592L13.0691 15.9316L13.0575 15.8976L13.3413 15.8006L13.0717 15.9321L13.0583 15.9046L13.0467 15.8707L13.3306 15.7737L13.061 15.9054L13.0558 15.8946L13.3253 15.7629L13.0758 15.9295L13.0538 15.8966L13.0397 15.8677L13.3093 15.736L13.0972 15.9482L13.0864 15.9374L13.0423 15.8934L13.0152 15.8405L13.2822 15.7038L13.0703 15.916L13.0595 15.9053L13.0487 15.8945L13.0378 15.8836L13.0272 15.873L13.2391 15.6607L13.1436 15.9451L13.0609 15.9173L13.0004 15.8569L13.2123 15.6446L13.0782 15.9129L13.0674 15.9075L13.2016 15.6392L13.1063 15.9236L13.0702 15.9116L13.0406 15.8968L13.1748 15.6284L13.0806 15.9133L13.0643 15.9079L13.0271 15.8954L12.9975 15.8806L13.1317 15.6123L13.1317 15.9123L13.0663 15.9123L13.0038 15.8913L13.0994 15.6069L13.0994 15.9069L13.0886 15.9069L13.0723 15.9069L13.0563 15.9069ZM13.0563 15.3069L13.0723 15.3069L13.0886 15.3069L13.1484 15.3069L13.211 15.3279L13.1154 15.6123L13.1154 15.3123L13.2025 15.3123L13.2766 15.3494L13.1425 15.6177L13.2378 15.3332L13.2527 15.3382L13.2895 15.3504L13.3197 15.3655L13.1855 15.6338L13.2808 15.3494L13.3169 15.3614L13.3899 15.398L13.4351 15.443L13.2231 15.6553L13.3187 15.371L13.4014 15.3987L13.462 15.4593L13.4727 15.4699L13.4834 15.4807L13.5277 15.5249L13.5548 15.5778L13.2877 15.7145L13.4997 15.5022L13.5106 15.5131L13.5568 15.5593L13.5841 15.6151L13.3145 15.7468L13.5641 15.5803L13.586 15.6132L13.6084 15.6589L13.62 15.6928L13.3361 15.7898L13.6057 15.6583L13.6192 15.6859L13.6307 15.7197L13.3469 15.8168L13.6164 15.6851L13.6521 15.7581L13.6521 15.8436L13.3521 15.8436L13.636 15.7466L13.6576 15.8099L13.6576 15.8706L13.6576 15.8867L13.6576 15.9028L13.6576 15.9136L13.6576 15.9297L13.6576 15.9957L13.636 16.0591L13.3521 15.962L13.6521 15.962L13.6521 16.0204L13.6247 16.1045L13.6083 16.1364L13.3413 15.9997L13.6266 16.0926L13.6139 16.1315L13.5975 16.1635L13.3306 16.0266L13.6158 16.1194L13.5883 16.204L13.5267 16.2656L13.3145 16.0535L13.5841 16.1852L13.57 16.214L13.5315 16.2717L13.4997 16.3034L13.2877 16.0911L13.5548 16.2279L13.5277 16.2808L13.4834 16.325L13.4383 16.37L13.3841 16.3971L13.2499 16.1288L13.462 16.3409L13.4306 16.3724L13.3744 16.4101L13.3462 16.4242L13.3354 16.4296L13.2016 16.1611L13.3689 16.4101L13.3368 16.4317L13.2894 16.4553L13.2541 16.467L13.1915 16.488L13.1317 16.488L13.1317 16.188L13.2256 16.4729L13.1636 16.4934L13.0994 16.4934L13.0994 16.1934L13.2335 16.4617L13.1594 16.4988L13.0723 16.4988L13.0563 16.4988L10.9041 16.4988L10.8881 16.4988L10.801 16.4988L10.7269 16.4617L10.861 16.1934L10.861 16.4934L10.7968 16.4934L10.7348 16.4729L10.8287 16.188L10.8287 16.488L10.7689 16.488L10.7078 16.4675L10.671 16.4553L10.6236 16.4317L10.5915 16.4101L10.7588 16.1611L10.625 16.4296L10.6139 16.4241L10.586 16.4101L10.5298 16.3724L10.4984 16.3409L10.7105 16.1288L10.5763 16.3971L10.5221 16.37L10.477 16.325L10.4327 16.2808L10.4057 16.2279L10.6727 16.0911L10.4607 16.3034L10.4289 16.2717L10.3904 16.214L10.3763 16.1852L10.6459 16.0535L10.4337 16.2656L10.3721 16.204L10.3446 16.1194L10.6298 16.0266L10.3629 16.1635L10.3465 16.1315L10.3338 16.0925L10.6191 15.9997L10.3521 16.1364L10.3357 16.1045L10.3083 16.0204L10.3083 15.962L10.6083 15.962L10.3244 16.0591L10.3028 15.9957L10.3028 15.9297L10.3028 15.9136L10.3028 15.9028L10.3028 15.8867L10.3028 15.8706L10.3028 15.8099L10.3244 15.7466L10.6083 15.8436L10.3083 15.8436L10.3083 15.7581L10.344 15.6851L10.6136 15.8168L10.3297 15.7197L10.3412 15.6859L10.3547 15.6583L10.6243 15.7898L10.3405 15.6928L10.352 15.6589L10.3744 15.6132L10.3963 15.5803L10.6459 15.7468L10.3763 15.6151L10.4036 15.5593L10.4499 15.513L10.4607 15.5022L10.6727 15.7145L10.4057 15.5778L10.4327 15.5249L10.477 15.4807L10.4876 15.4701L10.4985 15.4592L10.5591 15.3987L10.6417 15.371L10.7373 15.6553L10.5253 15.443L10.5705 15.398L10.6435 15.3614L10.6796 15.3494L10.7749 15.6338L10.6407 15.3655L10.6709 15.3504L10.7066 15.3386L10.7226 15.3332L10.8179 15.6177L10.6838 15.3494L10.7579 15.3123L10.845 15.3123L10.845 15.6123L10.7494 15.3279L10.812 15.3069L10.8718 15.3069L10.8881 15.3069L10.9041 15.3069L13.0563 15.3069ZM11.9802 7.29009M11.9802 7.29009Q12.6954 7.29009 13.3493 7.55465Q13.982 7.81062 14.4703 8.27778Q14.9601 8.7463 15.2292 9.35492Q15.5085 9.98668 15.5085 10.6784Q15.5085 11.6067 15.0187 12.4013Q14.5452 13.1696 13.7395 13.6151L13.5943 13.3525L13.8943 13.3525L13.8943 13.8637C13.8943 14.3622 13.4902 14.7609 12.9917 14.7609L10.9687 14.7609L10.9418 14.7609Q10.9013 14.7609 10.8556 14.7499Q10.8789 14.7555 10.9095 14.7555L10.8826 14.7555Q10.8317 14.7555 10.7793 14.739Q10.8146 14.7501 10.8557 14.7501Q10.7831 14.7501 10.7106 14.7156Q10.7605 14.7394 10.8234 14.7394Q10.7732 14.7394 10.7211 14.7232Q10.7558 14.734 10.7965 14.734Q10.7069 14.734 10.6258 14.6841Q10.6894 14.7232 10.7696 14.7232Q10.6983 14.7232 10.6264 14.6896Q10.6753 14.7125 10.7373 14.7125Q10.6493 14.7125 10.5688 14.6639Q10.6314 14.7017 10.7104 14.7017Q10.6233 14.7017 10.5432 14.654Q10.6053 14.6909 10.6835 14.6909Q10.5349 14.6909 10.4383 14.5701Q10.522 14.6748 10.662 14.6748Q10.5518 14.6748 10.4567 14.5997Q10.4618 14.6038 10.4704 14.6094Q10.4759 14.613 10.4771 14.6137Q10.4506 14.5989 10.4315 14.585Q10.4307 14.5844 10.4285 14.5828Q10.4108 14.5699 10.3984 14.5599Q10.3769 14.5426 10.3542 14.518Q10.3579 14.522 10.3656 14.5288Q10.3525 14.5172 10.3354 14.4994L10.3333 14.4972Q10.3323 14.4963 10.3295 14.4936Q10.3122 14.4768 10.3016 14.4652Q10.283 14.445 10.2652 14.419Q10.2691 14.4247 10.2757 14.4326Q10.2867 14.4458 10.2957 14.4538Q10.2657 14.4269 10.245 14.3995Q10.2445 14.3988 10.2423 14.3959Q10.2294 14.3794 10.2203 14.366Q10.2247 14.3725 10.2275 14.376Q10.1522 14.2804 10.1522 14.1703Q10.1522 14.279 10.2185 14.3547Q10.136 14.2605 10.136 14.1434Q10.136 14.2212 10.1724 14.2828Q10.1253 14.203 10.1253 14.1165Q10.1253 14.2226 10.1916 14.3004Q10.1145 14.21 10.1145 14.095Q10.1145 14.1567 10.137 14.2052Q10.1037 14.1335 10.1037 14.0627Q10.1037 14.1423 10.1422 14.2055Q10.093 14.1247 10.093 14.0358Q10.093 14.1159 10.132 14.1794Q10.0822 14.0984 10.0822 14.0089Q10.0822 14.0495 10.0929 14.0841Q10.0768 14.0321 10.0768 13.982Q10.0768 14.0123 10.0822 14.0351Q10.0715 13.9896 10.0715 13.9497L10.0715 13.934L10.0715 13.9228Q10.0715 13.9638 10.0825 13.999Q10.0661 13.9466 10.0661 13.8959L10.0661 13.8815L10.0661 13.8637L10.0661 13.3525L10.3661 13.3525L10.221 13.6151L10.3661 13.3525L10.221 13.6151Q9.41532 13.1699 8.94168 12.4014Q8.45195 11.6067 8.45195 10.6784Q8.45195 9.98668 8.73125 9.35492Q9.00032 8.7463 9.49008 8.27778Q9.97842 7.81062 10.6111 7.55465Q11.265 7.29009 11.9802 7.29009ZM11.9802 7.89009Q11.3818 7.89009 10.8361 8.11086Q10.3101 8.32368 9.90484 8.71134Q9.501 9.09766 9.28002 9.59752Q9.05195 10.1134 9.05195 10.6784Q9.05195 11.4367 9.45247 12.0866Q9.84343 12.721 10.5112 13.0899L10.6661 13.1755L10.5112 13.0899L10.6661 13.1755L10.6661 13.8637L10.6661 13.8815L10.6661 13.8959Q10.6661 13.855 10.6551 13.8199Q10.6715 13.8722 10.6715 13.9228L10.6715 13.934L10.6715 13.9497Q10.6715 13.9195 10.6661 13.8968Q10.6768 13.9422 10.6768 13.982Q10.6768 13.9415 10.6662 13.907Q10.6822 13.9589 10.6822 14.0089Q10.6822 13.9289 10.6433 13.8655Q10.693 13.9464 10.693 14.0358Q10.693 13.9563 10.6546 13.8933Q10.7037 13.974 10.7037 14.0627Q10.7037 14.0012 10.6813 13.9528Q10.7145 14.0244 10.7145 14.095Q10.7145 13.9891 10.6483 13.9114Q10.7253 14.0017 10.7253 14.1165Q10.7253 14.039 10.689 13.9775Q10.736 14.0572 10.736 14.1434Q10.736 14.035 10.6699 13.9595Q10.7522 14.0534 10.7522 14.1703Q10.7522 14.0725 10.6988 14.0047Q10.709 14.0176 10.7163 14.0285L10.716 14.0277Q10.7207 14.0338 10.7239 14.038Q10.7095 14.019 10.6962 14.007Q10.7194 14.0278 10.7363 14.048Q10.7485 14.0626 10.7611 14.0811Q10.7539 14.0706 10.7426 14.0584L10.7422 14.0579Q10.7436 14.0593 10.7479 14.0635Q10.7517 14.0672 10.754 14.0694Q10.7595 14.0749 10.7677 14.0833Q10.7702 14.086 10.7705 14.0863Q10.768 14.0838 10.7647 14.0809Q10.779 14.0936 10.7952 14.1112Q10.788 14.1033 10.775 14.0928Q10.7755 14.0933 10.7808 14.0971Q10.7834 14.099 10.7849 14.1001Q10.7767 14.0941 10.7691 14.0895L10.7697 14.0899Q10.7871 14.0996 10.7998 14.1079Q10.8131 14.1167 10.8285 14.1288Q10.7601 14.0748 10.662 14.0748Q10.8105 14.0748 10.9069 14.1955Q10.8234 14.0909 10.6835 14.0909Q10.7705 14.0909 10.8504 14.1386Q10.7885 14.1017 10.7104 14.1017Q10.7983 14.1017 10.8786 14.1501Q10.8162 14.1125 10.7373 14.1125Q10.8085 14.1125 10.8803 14.146Q10.8315 14.1232 10.7696 14.1232Q10.8591 14.1232 10.9401 14.173Q10.8766 14.134 10.7965 14.134Q10.8467 14.134 10.8987 14.1501Q10.864 14.1394 10.8234 14.1394Q10.8959 14.1394 10.9683 14.1738Q10.9185 14.1501 10.8557 14.1501Q10.9065 14.1501 10.9589 14.1666Q10.9236 14.1555 10.8826 14.1555L10.9095 14.1555Q10.9499 14.1555 10.9957 14.1665Q10.9723 14.1609 10.9418 14.1609L10.9687 14.1609L12.9917 14.1609C13.1588 14.1609 13.2943 14.0308 13.2943 13.8637L13.2943 13.1756L13.4492 13.09Q14.117 12.7207 14.5079 12.0865Q14.9085 11.4366 14.9085 10.6784Q14.9085 10.1134 14.6804 9.59752Q14.4594 9.09766 14.0556 8.71134Q13.6503 8.32368 13.1243 8.11086Q12.5786 7.89009 11.9802 7.89009ZM12.9067 8.62169M12.9067 8.62169Q12.8868 8.6137 12.859 8.60002Q12.8521 8.59663 12.8502 8.5958Q12.8514 8.59634 12.8543 8.5974Q12.8491 8.59547 12.8306 8.58957Q12.8088 8.58261 12.7964 8.57831Q12.7833 8.57374 12.7627 8.56589Q12.7485 8.56049 12.7441 8.55907Q12.7464 8.55982 12.7469 8.55994Q12.7445 8.55934 12.7362 8.55752Q12.7061 8.55085 12.6863 8.54503Q12.6682 8.53968 12.6401 8.5296Q12.6313 8.52641 12.6283 8.5254L12.6287 8.52546Q12.6134 8.52136 12.5917 8.51411L12.5916 8.51373Q12.615 8.5196 12.642 8.5196Q12.5767 8.5196 12.5042 8.49233Q12.5337 8.50346 12.5774 8.50346Q12.5294 8.50346 12.4721 8.48903Q12.4867 8.49269 12.5129 8.49269Q12.4688 8.49269 12.4124 8.48008L12.4093 8.47929Q12.4247 8.48193 12.4429 8.48193Q12.3947 8.48193 12.3372 8.46742Q12.3521 8.47117 12.3784 8.47117Q12.33 8.47117 12.2725 8.45663Q12.2875 8.46041 12.3138 8.46041Q12.2838 8.46041 12.2438 8.45534Q12.238 8.45461 12.2375 8.45456Q12.2425 8.45503 12.2492 8.45503Q12.2213 8.45503 12.1807 8.45046Q12.1727 8.44956 12.1708 8.44939Q12.1738 8.44965 12.1793 8.44965Q12.1492 8.44965 12.1092 8.44457Q12.1035 8.44384 12.103 8.44379Q12.108 8.44427 12.1147 8.44427L12.0817 8.44427L12.0448 8.44427Q12.0147 8.44427 11.9747 8.43919Q11.9689 8.43846 11.9684 8.43841Q11.9735 8.43889 11.9802 8.43889Q11.9869 8.43889 11.992 8.43841Q11.9915 8.43846 11.9857 8.43919Q11.9457 8.44427 11.9156 8.44427L11.8828 8.44427L11.8457 8.44427Q11.8524 8.44427 11.8575 8.44379Q11.8569 8.44384 11.8512 8.44457Q11.8112 8.44965 11.7811 8.44965Q11.7866 8.44965 11.7896 8.44939Q11.7877 8.44956 11.7797 8.45046Q11.7391 8.45503 11.7112 8.45503Q11.7179 8.45503 11.7229 8.45456Q11.7224 8.45461 11.7166 8.45534Q11.6766 8.46041 11.6466 8.46041Q11.6729 8.46041 11.6879 8.45663Q11.6304 8.47117 11.5821 8.47117Q11.6083 8.47117 11.6232 8.46743Q11.5657 8.48193 11.5175 8.48193Q11.5357 8.48193 11.5511 8.47929L11.548 8.48008Q11.4916 8.49269 11.4475 8.49269Q11.4738 8.49269 11.4883 8.48903Q11.431 8.50346 11.383 8.50346Q11.4267 8.50346 11.4562 8.49233Q11.3838 8.5196 11.3184 8.5196Q11.3454 8.5196 11.3689 8.51373L11.3687 8.51411Q11.347 8.52136 11.3317 8.52546L11.3321 8.5254Q11.3291 8.52641 11.3203 8.5296Q11.2922 8.53968 11.274 8.54504Q11.2543 8.55085 11.2242 8.55752Q11.2159 8.55934 11.2135 8.55994Q11.214 8.55982 11.2163 8.55906Q11.2119 8.56049 11.1977 8.56591Q11.1771 8.57374 11.164 8.57831Q11.1516 8.58261 11.1298 8.58956Q11.1113 8.59546 11.1061 8.59741Q11.109 8.59634 11.1102 8.5958Q11.1083 8.59663 11.1014 8.60002Q11.0736 8.6137 11.0537 8.62169Q11.041 8.62681 11.0157 8.63676Q10.968 8.65549 10.9489 8.66425Q10.9334 8.6714 10.8942 8.69282Q10.8648 8.70886 10.8486 8.71724Q10.8359 8.72381 10.8118 8.73603Q10.7661 8.7591 10.748 8.76962Q10.7451 8.7713 10.7403 8.77409Q10.6795 8.80935 10.6525 8.8268Q10.6403 8.83467 10.6168 8.84945Q10.5734 8.87678 10.5566 8.88874Q10.5492 8.89405 10.5243 8.91599Q10.4915 8.94486 10.4711 8.96095Q10.4341 8.9901 10.3852 9.0326Q10.3671 9.0483 10.3348 9.07391Q10.3069 9.09608 10.2989 9.10367Q10.2874 9.11463 10.2587 9.1463Q10.2357 9.17159 10.2229 9.18509Q10.214 9.19441 10.1969 9.2121Q10.1605 9.24965 10.1466 9.26571Q10.1357 9.27839 10.11 9.31263Q10.0912 9.33762 10.0806 9.35122Q10.0712 9.36326 10.0536 9.38522Q10.0248 9.421 10.014 9.43628Q10.0115 9.43983 10.0063 9.44722Q9.96801 9.50145 9.95225 9.5263Q9.92275 9.57283 9.89528 9.62125Q9.88738 9.63519 9.87004 9.6715Q9.85646 9.69994 9.84844 9.71586Q9.82095 9.77043 9.80097 9.81547Q9.7963 9.82607 9.78704 9.84576Q9.77923 9.86237 9.77741 9.8668Q9.77593 9.87042 9.77068 9.88554Q9.76344 9.9064 9.75873 9.9188Q9.75029 9.94102 9.73987 9.9707Q9.73578 9.98236 9.72834 10.002Q9.7223 10.0179 9.72085 10.0225Q9.72007 10.0249 9.71679 10.0378Q9.71111 10.0602 9.70699 10.0742Q9.69989 10.0984 9.68663 10.1309Q9.68424 10.1368 9.68397 10.1375Q9.68575 10.1327 9.68754 10.126Q9.68573 10.1328 9.68533 10.135Q9.68684 10.1267 9.68684 10.1135Q9.68684 10.1838 9.65565 10.2585Q9.6707 10.2225 9.6707 10.1727Q9.6707 10.2191 9.65673 10.2762L9.65654 10.2763Q9.65994 10.2581 9.65994 10.2373Q9.65994 10.2887 9.64349 10.3476Q9.64918 10.3272 9.64918 10.2964Q9.64918 10.3431 9.63514 10.4003L9.63501 10.4001Q9.63842 10.3818 9.63842 10.361Q9.63842 10.3924 9.63282 10.4323L9.6323 10.4358Q9.63304 10.4286 9.63304 10.4202Q9.63304 10.449 9.6281 10.4891Q9.62729 10.4957 9.6272 10.4967Q9.62766 10.4918 9.62766 10.4848Q9.62766 10.5136 9.62271 10.5537Q9.62191 10.5602 9.62182 10.5612Q9.62228 10.5563 9.62228 10.5493Q9.62228 10.5808 9.61666 10.6207L9.61616 10.6241Q9.6169 10.6169 9.6169 10.6085L9.6169 10.6397L9.6169 10.6731L9.6169 10.7043L9.6169 10.7376Q9.6169 10.7292 9.61616 10.722L9.61666 10.7254Q9.62228 10.7653 9.62228 10.7968Q9.62228 10.7898 9.62182 10.7849Q9.62191 10.7859 9.62271 10.7924Q9.62766 10.8325 9.62766 10.8614Q9.62766 10.8544 9.6272 10.8495Q9.62729 10.8505 9.6281 10.857Q9.63304 10.8971 9.63304 10.9259Q9.63304 10.9175 9.6323 10.9104L9.63282 10.9139Q9.63842 10.9538 9.63842 10.9851Q9.63842 10.9643 9.63501 10.9461L9.63514 10.9459Q9.64918 11.003 9.64918 11.0497Q9.64918 11.0289 9.64578 11.0106L9.64593 11.0106Q9.65994 11.0677 9.65994 11.1143Q9.65994 11.0835 9.6543 11.0633Q9.6707 11.1221 9.6707 11.1734Q9.6707 11.1237 9.65565 11.0876Q9.68684 11.1623 9.68684 11.2326Q9.68684 11.2194 9.68533 11.2111Q9.68573 11.2134 9.68754 11.2202Q9.68575 11.2134 9.68397 11.2086Q9.68424 11.2093 9.68663 11.2152Q9.69989 11.2477 9.70699 11.2719Q9.71111 11.286 9.71679 11.3083Q9.72007 11.3213 9.72082 11.3236Q9.7223 11.3282 9.72834 11.3441Q9.73578 11.3638 9.73988 11.3755Q9.75027 11.4051 9.75872 11.4273Q9.76344 11.4397 9.77068 11.4606Q9.77593 11.4757 9.77741 11.4793Q9.77924 11.4838 9.78707 11.5004Q9.7963 11.5201 9.80128 11.5314Q9.82143 11.5767 9.84838 11.6302Q9.85649 11.6462 9.87013 11.6748Q9.88737 11.711 9.8952 11.7247Q9.92339 11.7744 9.95217 11.8197Q9.9684 11.8453 10.0076 11.9008Q10.0123 11.9075 10.0139 11.9097Q10.0249 11.9252 10.0538 11.9613Q10.0713 11.983 10.0805 11.9948Q10.0913 12.0086 10.1103 12.0339Q10.1357 12.0678 10.1465 12.0803Q10.1606 12.0966 10.1972 12.1344Q10.2141 12.1518 10.2228 12.1609Q10.2358 12.1746 10.2589 12.2001Q10.2874 12.2315 10.2985 12.242Q10.3176 12.2604 10.3635 12.3001Q10.3783 12.3129 10.3857 12.3194Q10.4309 12.3588 10.4714 12.3908Q10.4807 12.3981 10.4977 12.4118Q10.5378 12.444 10.5568 12.4575Q10.5734 12.4694 10.6168 12.4967Q10.6403 12.5115 10.6525 12.5193Q10.6801 12.5372 10.7422 12.5732Q10.7456 12.5751 10.7479 12.5764Q10.7588 12.5828 10.7803 12.5955Q10.8283 12.6238 10.8482 12.6341Q10.8768 12.6489 10.9404 12.678Q10.9453 12.6802 10.9484 12.6816Q10.9689 12.6911 11.0195 12.7109Q11.0419 12.7197 11.0536 12.7244L10.9418 13.0028L10.9418 12.7028L10.9418 13.0028L10.9418 12.7028Q11.1124 12.7028 11.2059 12.8485Q11.2579 12.9296 11.2579 13.0253L11.2579 13.9067L10.9579 13.9067L10.9579 13.6067L13.0079 13.6067L13.0079 13.9067L12.7079 13.9067L12.7079 13.0253Q12.7079 12.93 12.7581 12.8503Q12.8508 12.7031 13.0234 12.7028L13.024 12.7028L13.024 12.7028L13.024 13.0028L12.9114 12.7247L13.024 13.0028L12.9114 12.7247Q12.9701 12.7009 13.0114 12.6819Q13.0284 12.6741 13.0603 12.6603Q13.1023 12.642 13.1171 12.6343Q13.1287 12.6283 13.1606 12.6082Q13.1931 12.5877 13.2123 12.5766Q13.216 12.5745 13.2209 12.5716Q13.2811 12.5367 13.3079 12.5194Q13.3202 12.5114 13.344 12.4965Q13.3871 12.4693 13.4037 12.4574Q13.4071 12.455 13.4113 12.452Q13.4695 12.4104 13.4946 12.3907Q13.5323 12.3609 13.5805 12.319Q13.5982 12.3036 13.6372 12.2659Q13.6531 12.2505 13.6614 12.2425Q13.673 12.2315 13.7018 12.1998Q13.7247 12.1745 13.7375 12.1611Q13.7464 12.1517 13.7637 12.1339Q13.7999 12.0965 13.8137 12.0805Q13.8248 12.0676 13.8508 12.0331Q13.8692 12.0085 13.8797 11.9951Q13.8893 11.9828 13.9072 11.9604Q13.9357 11.925 13.9462 11.9101Q13.9495 11.9055 13.9563 11.8957Q13.993 11.8438 14.0079 11.8202Q14.0393 11.7707 14.0649 11.7253Q14.0689 11.7182 14.0766 11.7046Q14.1056 11.6537 14.1171 11.6308Q14.1231 11.6189 14.1374 11.5834Q14.1509 11.5499 14.1592 11.5312Q14.1641 11.5201 14.1733 11.5004Q14.1812 11.4838 14.183 11.4794Q14.1845 11.4757 14.1897 11.4606Q14.197 11.4397 14.2017 11.4274Q14.2102 11.405 14.2205 11.3755Q14.2246 11.3638 14.2321 11.3441Q14.2381 11.3282 14.2396 11.3237Q14.2403 11.3212 14.2436 11.3083Q14.2493 11.286 14.2534 11.2719Q14.2605 11.2477 14.2738 11.2152Q14.2762 11.2094 14.2764 11.2087Q14.2746 11.2135 14.2728 11.2203Q14.2747 11.2134 14.2751 11.2111Q14.2736 11.2194 14.2736 11.2326Q14.2736 11.1623 14.3048 11.0876Q14.2897 11.1237 14.2897 11.1734Q14.2897 11.1221 14.3061 11.0633Q14.3005 11.0835 14.3005 11.1143Q14.3005 11.0677 14.3145 11.0106L14.3146 11.0106Q14.3112 11.0289 14.3112 11.0497Q14.3112 11.003 14.3253 10.9459L14.3254 10.9461Q14.322 10.9643 14.322 10.9851Q14.322 10.9538 14.3276 10.9139L14.3281 10.9104Q14.3274 10.9175 14.3274 10.9259Q14.3274 10.8971 14.3323 10.857Q14.3331 10.8505 14.3332 10.8495Q14.3328 10.8544 14.3327 10.8614Q14.3327 10.8325 14.3377 10.7924Q14.3385 10.7859 14.3386 10.7849Q14.3381 10.7898 14.3381 10.7968Q14.3381 10.7653 14.3438 10.7254L14.3443 10.722Q14.3435 10.7292 14.3435 10.7376L14.3435 10.7064L14.3435 10.6731L14.3435 10.6419L14.3435 10.6085Q14.3435 10.6169 14.3443 10.6241L14.3438 10.6207Q14.3381 10.5808 14.3381 10.5493Q14.3381 10.5563 14.3386 10.5612Q14.3385 10.5603 14.3377 10.5537Q14.3327 10.5136 14.3327 10.4848Q14.3327 10.4917 14.3332 10.4967Q14.3331 10.4957 14.3323 10.4891Q14.3274 10.449 14.3274 10.4202Q14.3274 10.4286 14.3281 10.4358L14.3276 10.4323Q14.322 10.3924 14.322 10.361Q14.322 10.3818 14.3254 10.4001L14.3253 10.4003Q14.3112 10.3431 14.3112 10.2964Q14.3112 10.3272 14.3169 10.3476Q14.3005 10.2887 14.3005 10.2373Q14.3005 10.2581 14.3039 10.2763L14.3037 10.2762Q14.2897 10.2191 14.2897 10.1727Q14.2897 10.2225 14.3048 10.2585Q14.2736 10.1838 14.2736 10.1135Q14.2736 10.1267 14.2751 10.135Q14.2747 10.1328 14.2729 10.126Q14.2746 10.1326 14.2764 10.1375Q14.2762 10.1368 14.2738 10.1309Q14.2605 10.0984 14.2535 10.0743Q14.2493 10.0602 14.2436 10.0378Q14.2403 10.0249 14.2396 10.0225Q14.2381 10.018 14.2321 10.002Q14.2246 9.98236 14.2205 9.97067Q14.2102 9.94126 14.2017 9.91877Q14.197 9.90641 14.1897 9.88558Q14.1845 9.87048 14.183 9.86687Q14.1812 9.86236 14.1734 9.84579Q14.1641 9.82607 14.1591 9.8147Q14.1395 9.77051 14.1119 9.71581Q14.1039 9.69994 14.0904 9.67147Q14.073 9.63516 14.0651 9.62123Q14.0377 9.57294 14.0081 9.52623Q13.9925 9.50168 13.9546 9.44789Q13.9492 9.44025 13.9463 9.43623Q13.9356 9.42102 13.9069 9.38527Q13.8892 9.36325 13.8798 9.3512Q13.8692 9.33762 13.8504 9.31261Q13.8247 9.27838 13.8138 9.26571Q13.8001 9.24979 13.764 9.21254Q13.7465 9.19452 13.7375 9.18503Q13.7247 9.1716 13.7017 9.14633Q13.673 9.11462 13.6617 9.10392Q13.6455 9.08831 13.6092 9.05722Q13.5903 9.04106 13.58 9.03213Q13.5663 9.02012 13.5272 8.99027Q13.502 8.97098 13.489 8.96068Q13.4689 8.94481 13.4365 8.9163Q13.4113 8.89409 13.4036 8.88861Q13.387 8.87675 13.3438 8.84953Q13.3201 8.83467 13.3079 8.82677Q13.2802 8.8089 13.2179 8.77281Q13.215 8.77114 13.2125 8.7697Q13.1938 8.75885 13.147 8.73517Q13.1241 8.72362 13.1122 8.71744Q13.0955 8.7088 13.0653 8.6923Q13.0269 8.67133 13.012 8.66451Q12.9646 8.64276 12.9122 8.62173L13.024 8.34335L13.024 8.64335L12.9606 8.64335L12.9067 8.62169ZM13.1305 8.06501L13.0186 8.34335L13.0186 8.04335L13.082 8.04335L13.1358 8.06496Q13.2014 8.09131 13.2619 8.11903Q13.2961 8.13467 13.3531 8.16581Q13.3772 8.179 13.3878 8.18447Q13.3973 8.18939 13.4177 8.19973Q13.4798 8.23112 13.5134 8.25058Q13.516 8.25208 13.5187 8.25365Q13.5934 8.29693 13.6333 8.32264Q13.6427 8.32871 13.6633 8.34172Q13.7216 8.37841 13.7528 8.40069Q13.785 8.42372 13.8328 8.46585Q13.8534 8.48394 13.8611 8.49004Q13.8703 8.49729 13.8916 8.51358Q13.946 8.55519 13.9745 8.58Q13.9826 8.58705 13.9993 8.60138Q14.0488 8.64371 14.0757 8.66962Q14.1026 8.69527 14.146 8.74303Q14.1642 8.76304 14.1722 8.77144Q14.1793 8.77895 14.1949 8.79505Q14.243 8.84474 14.268 8.8737Q14.2923 8.90187 14.3303 8.95247Q14.3456 8.97285 14.3527 8.9819Q14.3595 8.99069 14.3746 9.00944Q14.4151 9.05989 14.4368 9.09057Q14.4396 9.09455 14.4447 9.10184Q14.4913 9.1678 14.5149 9.20502Q14.5524 9.26413 14.587 9.32524Q14.6053 9.35754 14.6318 9.41292Q14.6426 9.43559 14.6478 9.44588Q14.682 9.51376 14.7082 9.57296Q14.7102 9.57749 14.7163 9.59044Q14.7306 9.62079 14.7381 9.63916Q14.7459 9.65811 14.7566 9.68891Q14.7609 9.70144 14.7625 9.70563Q14.7738 9.73535 14.7867 9.7721Q14.7883 9.77674 14.7931 9.78942Q14.8046 9.81963 14.8107 9.83861Q14.8172 9.85895 14.8252 9.89021Q14.8281 9.90183 14.8291 9.90518Q14.8278 9.90055 14.8266 9.8976Q14.827 9.89869 14.8294 9.90433Q14.845 9.9427 14.8527 9.9719Q14.8736 10.0503 14.8736 10.1135Q14.8736 10.0636 14.8585 10.0275Q14.8897 10.1023 14.8897 10.1727Q14.8897 10.1518 14.8863 10.1335L14.8865 10.1336Q14.9005 10.1907 14.9005 10.2373Q14.9005 10.2064 14.8948 10.186Q14.9112 10.2449 14.9112 10.2964Q14.9112 10.2756 14.9078 10.2573L14.9079 10.2571Q14.922 10.3143 14.922 10.361Q14.922 10.3525 14.9212 10.3453L14.9218 10.3489Q14.9274 10.3888 14.9274 10.4202Q14.9274 10.4132 14.9269 10.4082Q14.927 10.4092 14.9278 10.4157Q14.9328 10.4559 14.9327 10.4848Q14.9328 10.4777 14.9323 10.4728Q14.9324 10.4738 14.9332 10.4803Q14.9381 10.5204 14.9381 10.5493Q14.9381 10.5409 14.9374 10.5337L14.9379 10.5371Q14.9435 10.577 14.9435 10.6085L14.9435 10.6419L14.9435 10.6731L14.9435 10.7064L14.9435 10.7376Q14.9435 10.7691 14.9379 10.8091L14.9374 10.8124Q14.9381 10.8053 14.9381 10.7968Q14.9381 10.8257 14.9332 10.8659Q14.9324 10.8723 14.9323 10.8733Q14.9327 10.8684 14.9327 10.8614Q14.9327 10.8903 14.9278 10.9304Q14.927 10.9369 14.9269 10.9379Q14.9274 10.933 14.9274 10.9259Q14.9274 10.9573 14.9218 10.9973L14.9212 11.0008Q14.922 10.9936 14.922 10.9851Q14.922 11.0319 14.9079 11.0891L14.9078 11.0889Q14.9112 11.0706 14.9112 11.0497Q14.9112 11.0963 14.8972 11.1535L14.897 11.1535Q14.9005 11.1352 14.9005 11.1143Q14.9005 11.1657 14.884 11.2245Q14.8897 11.2042 14.8897 11.1734Q14.8897 11.2438 14.8585 11.3186Q14.8736 11.2825 14.8736 11.2326Q14.8736 11.2959 14.8528 11.3741Q14.845 11.4034 14.8294 11.4418Q14.827 11.4474 14.8266 11.4485Q14.8278 11.4456 14.8291 11.4408Q14.8281 11.4443 14.8252 11.4559Q14.8172 11.4872 14.8107 11.5075Q14.8046 11.5265 14.7931 11.5567Q14.7883 11.5694 14.7867 11.574Q14.7738 11.6109 14.7625 11.6405Q14.761 11.6447 14.7566 11.6572Q14.7459 11.688 14.7382 11.7069Q14.7306 11.7254 14.7163 11.7557Q14.7102 11.7687 14.7082 11.7734Q14.7037 11.7835 14.6937 11.8083Q14.6702 11.8663 14.6534 11.8998Q14.6349 11.9368 14.5981 12.0013Q14.5907 12.0143 14.5872 12.0205Q14.5543 12.0788 14.5151 12.1408Q14.492 12.1773 14.4465 12.2418Q14.4401 12.2509 14.4369 12.2554Q14.4153 12.2861 14.3749 12.3364Q14.3596 12.3553 14.3528 12.3641Q14.3458 12.373 14.3306 12.3932Q14.2925 12.4441 14.2681 12.4723Q14.243 12.5015 14.1945 12.5515Q14.1791 12.5674 14.1721 12.5747Q14.1642 12.583 14.1461 12.603Q14.1026 12.6509 14.076 12.6762Q14.069 12.6829 14.0545 12.697Q14.0039 12.746 13.9741 12.7719Q13.9151 12.8231 13.8663 12.8617Q13.8299 12.8903 13.7601 12.9402Q13.7557 12.9433 13.7527 12.9455Q13.7217 12.9677 13.6636 13.0042Q13.6428 13.0174 13.6333 13.0235Q13.5945 13.0485 13.5219 13.0906Q13.5168 13.0936 13.5136 13.0954Q13.5038 13.1011 13.4804 13.1159Q13.4274 13.1493 13.3936 13.1668Q13.3604 13.1841 13.2992 13.2106Q13.2734 13.2218 13.2626 13.2268Q13.2084 13.2518 13.1366 13.2809L13.0824 13.3028L13.1366 13.2809L13.0824 13.3028L13.024 13.3028L13.0245 13.3028Q13.1824 13.3025 13.2658 13.1699Q13.3079 13.1032 13.3079 13.0253L13.3079 14.2067L10.6579 14.2067L10.6579 13.0253Q10.6579 13.1055 10.7009 13.1725Q10.7845 13.3028 10.9418 13.3028L10.8838 13.3028L10.9418 13.3028L10.8838 13.3028L10.83 13.2812Q10.8205 13.2774 10.8001 13.2694Q10.7341 13.2434 10.6985 13.2271Q10.6957 13.2258 10.6906 13.2235Q10.614 13.1884 10.5726 13.167Q10.5379 13.1491 10.4754 13.1122Q10.456 13.1008 10.447 13.0956Q10.4438 13.0937 10.4414 13.0923Q10.3669 13.0491 10.3272 13.0235Q10.3178 13.0175 10.2972 13.0045Q10.2388 12.9678 10.2077 12.9455Q10.1754 12.9224 10.1225 12.88Q10.1069 12.8675 10.0993 12.8615Q10.0474 12.8205 9.99134 12.7715Q9.98481 12.7659 9.971 12.7539Q9.91318 12.7039 9.88487 12.6767Q9.85786 12.651 9.81452 12.6032Q9.79633 12.5832 9.7884 12.5749Q9.78141 12.5675 9.76622 12.5518Q9.71768 12.5017 9.69248 12.4725Q9.66816 12.4444 9.63029 12.3939Q9.61493 12.3734 9.60783 12.3643Q9.601 12.3556 9.58607 12.337Q9.54542 12.2864 9.52377 12.2558Q9.52162 12.2527 9.51762 12.247Q9.46978 12.1794 9.44565 12.1413Q9.40894 12.0835 9.37348 12.0211Q9.35509 11.9887 9.32864 11.9333Q9.31781 11.9106 9.31269 11.9004Q9.27907 11.8338 9.25219 11.7732Q9.25019 11.7687 9.2441 11.7557Q9.22982 11.7254 9.22225 11.7069Q9.2145 11.688 9.20385 11.6573Q9.19948 11.6447 9.1979 11.6406Q9.18667 11.611 9.17369 11.574Q9.17206 11.5694 9.16726 11.5567Q9.15581 11.5265 9.14971 11.5075Q9.14316 11.4872 9.13522 11.4559Q9.13227 11.4443 9.13126 11.4408Q9.13262 11.4455 9.13375 11.4485Q9.13335 11.4474 9.13104 11.4417Q9.11543 11.4035 9.10767 11.3742Q9.08684 11.2959 9.08684 11.2326Q9.08684 11.2825 9.10192 11.3186Q9.0707 11.2438 9.0707 11.1734Q9.0707 11.2042 9.07636 11.2245Q9.05994 11.1657 9.05994 11.1143Q9.05994 11.1351 9.06336 11.1535L9.06321 11.1535Q9.04918 11.0963 9.04918 11.0497Q9.04918 11.0706 9.0526 11.0889L9.05248 11.0891Q9.03842 11.0319 9.03842 10.9851Q9.03842 10.9936 9.03916 11.0008L9.03864 10.9973Q9.03304 10.9573 9.03304 10.9259Q9.03304 10.933 9.0335 10.9379Q9.03341 10.9369 9.0326 10.9304Q9.02766 10.8903 9.02766 10.8614Q9.02766 10.8684 9.02812 10.8733Q9.02803 10.8724 9.02723 10.8659Q9.02228 10.8257 9.02228 10.7968Q9.02228 10.8053 9.02302 10.8124L9.02252 10.8091Q9.0169 10.7691 9.0169 10.7376L9.0169 10.7043L9.0169 10.6731L9.0169 10.6397L9.0169 10.6085Q9.0169 10.577 9.02252 10.5371L9.02302 10.5337Q9.02228 10.5409 9.02228 10.5493Q9.02228 10.5204 9.02723 10.4803Q9.02803 10.4738 9.02812 10.4728Q9.02766 10.4777 9.02766 10.4848Q9.02766 10.4559 9.0326 10.4157Q9.03341 10.4092 9.0335 10.4082Q9.03304 10.4132 9.03304 10.4202Q9.03304 10.3888 9.03864 10.3489L9.03916 10.3453Q9.03842 10.3525 9.03842 10.361Q9.03842 10.3143 9.05247 10.2571L9.0526 10.2573Q9.04918 10.2756 9.04918 10.2964Q9.04918 10.2449 9.06565 10.186Q9.05994 10.2064 9.05994 10.2373Q9.05994 10.1907 9.07393 10.1336L9.07411 10.1335Q9.0707 10.1518 9.0707 10.1727Q9.0707 10.1023 9.10192 10.0275Q9.08684 10.0636 9.08684 10.1135Q9.08684 10.0503 9.10767 9.97189Q9.11543 9.94267 9.13104 9.90439Q9.13335 9.89873 9.13375 9.89765Q9.13262 9.90064 9.13126 9.90529Q9.13227 9.90185 9.13522 9.89021Q9.14316 9.85895 9.14968 9.83868Q9.15581 9.81964 9.16726 9.78942Q9.17206 9.77675 9.17371 9.77207Q9.18669 9.73507 9.19789 9.7056Q9.19948 9.70141 9.20385 9.68883Q9.2145 9.65812 9.22225 9.63923Q9.22982 9.62077 9.24408 9.59044Q9.25017 9.57748 9.2525 9.57219Q9.27846 9.51365 9.31264 9.44583Q9.31778 9.43562 9.3286 9.41297Q9.35506 9.35756 9.3734 9.32522Q9.40813 9.26398 9.44556 9.20496Q9.4693 9.16752 9.51619 9.10112Q9.52119 9.09404 9.52367 9.09052Q9.5453 9.05985 9.58584 9.0094Q9.60089 8.99066 9.60775 8.98188Q9.61481 8.97285 9.6301 8.95248Q9.66805 8.9019 9.69239 8.87369Q9.71753 8.84457 9.76592 8.79461Q9.78127 8.77877 9.78831 8.77138Q9.79625 8.76304 9.81442 8.74303Q9.85777 8.69526 9.88442 8.66987Q9.91237 8.64316 9.962 8.6038Q9.9838 8.58651 9.99185 8.57953Q10.0515 8.52778 10.0996 8.48977Q10.1072 8.4838 10.1277 8.46574Q10.1756 8.42359 10.2078 8.40056Q10.2388 8.37838 10.2971 8.34169Q10.3178 8.32869 10.3272 8.32261Q10.3662 8.29746 10.4393 8.25508Q10.4443 8.25213 10.4469 8.25066Q10.48 8.23145 10.5411 8.20057Q10.5624 8.18978 10.5723 8.18467Q10.5829 8.17916 10.6068 8.16612Q10.6639 8.13493 10.6979 8.11929Q10.7327 8.10327 10.7965 8.07822Q10.8189 8.06943 10.8299 8.06501L10.8287 8.06546Q10.8307 8.06453 10.8371 8.06139Q10.8709 8.04481 10.8958 8.03548Q10.9148 8.02836 10.9474 8.01797Q10.962 8.01332 10.9671 8.01154Q10.9718 8.00989 10.984 8.00524Q11.0133 7.99409 11.0331 7.98774Q11.0577 7.97985 11.0945 7.97169Q11.1021 7.97003 11.1045 7.96943L11.1045 7.96948Q11.1058 7.9691 11.1173 7.96499Q11.1524 7.95236 11.176 7.94602Q11.1738 7.9466 11.1728 7.94692Q11.174 7.94654 11.1785 7.94505Q11.2546 7.9196 11.3184 7.9196Q11.2746 7.9196 11.245 7.93075Q11.3175 7.90346 11.383 7.90346Q11.3567 7.90346 11.342 7.90714Q11.3995 7.89269 11.4475 7.89269Q11.4292 7.89269 11.4138 7.89535L11.4169 7.89457Q11.4733 7.88193 11.5175 7.88193Q11.4911 7.88193 11.4762 7.8857Q11.5337 7.87117 11.5821 7.87117Q11.5557 7.87117 11.5407 7.87497Q11.5982 7.86041 11.6466 7.86041Q11.6399 7.86041 11.6348 7.86089Q11.6353 7.86084 11.6411 7.86011Q11.6812 7.85503 11.7112 7.85503Q11.7057 7.85503 11.7026 7.8553Q11.7045 7.85513 11.7125 7.85423Q11.7532 7.84965 11.7811 7.84965Q11.7744 7.84965 11.7693 7.85013Q11.7698 7.85008 11.7756 7.84935Q11.8156 7.84427 11.8457 7.84427L11.8828 7.84427L11.9156 7.84427Q11.909 7.84427 11.9039 7.84475Q11.9044 7.8447 11.9101 7.84398Q11.9501 7.83889 11.9802 7.83889Q12.0103 7.83889 12.0503 7.84398Q12.0561 7.8447 12.0565 7.84475Q12.0514 7.84427 12.0448 7.84427L12.0817 7.84427L12.1147 7.84427Q12.1448 7.84427 12.1848 7.84935Q12.1906 7.85008 12.1911 7.85013Q12.186 7.84965 12.1793 7.84965Q12.2072 7.84965 12.2479 7.85423Q12.2559 7.85513 12.2578 7.8553Q12.2547 7.85503 12.2492 7.85503Q12.2792 7.85503 12.3193 7.86011Q12.3251 7.86084 12.3256 7.86089Q12.3205 7.86041 12.3138 7.86041Q12.3622 7.86041 12.4197 7.87497Q12.4047 7.87117 12.3784 7.87117Q12.4267 7.87117 12.4842 7.8857Q12.4693 7.88193 12.4429 7.88193Q12.4871 7.88193 12.5435 7.89457L12.5466 7.89535Q12.5312 7.89269 12.5129 7.89269Q12.5609 7.89269 12.6184 7.90714Q12.6037 7.90346 12.5774 7.90346Q12.6429 7.90346 12.7154 7.93075Q12.6858 7.9196 12.642 7.9196Q12.7058 7.9196 12.7819 7.94505L12.7844 7.94602Q12.808 7.95236 12.8431 7.96499Q12.8546 7.9691 12.8559 7.96949L12.8559 7.96943Q12.8584 7.97003 12.8659 7.97169Q12.9027 7.97985 12.9273 7.98774Q12.9471 7.99408 12.9763 8.00523Q12.9886 8.00988 12.9933 8.01153Q12.9985 8.01333 13.0131 8.01798Q13.0456 8.02836 13.0646 8.03549Q13.0895 8.04481 13.1233 8.06139Q13.1297 8.06453 13.1317 8.06546L13.1305 8.06501Z"></path></svg>