<svg xmlns="http://www.w3.org/2000/svg" xmlns:xlink="http://www.w3.org/1999/xlink" width="24" height="24" viewBox="0 0 24 24" fill="none"><path d="M19.2949 4.70496C18.193 3.60299 16.3865 3.3927 14.3569 3.94351C12.2665 4.51084 9.95485 5.88037 7.91768 7.91756C5.88041 9.95485 4.51085 12.2665 3.94352 14.3568C3.39271 16.3865 3.60297 18.193 4.70498 19.2949C5.80694 20.3969 7.61342 20.6072 9.64307 20.0564C11.7335 19.4891 14.0451 18.1196 16.0822 16.0824C18.1195 14.0451 19.4891 11.7335 20.0564 9.64309C20.6072 7.61342 20.397 5.80697 19.2949 4.70496ZM14.1865 3.31555C16.441 2.70369 18.4755 2.9651 19.7551 4.24477C21.0348 5.52448 21.2962 7.5589 20.6844 9.81345C20.089 12.0073 18.6612 14.4238 16.5426 16.5424C14.4237 18.6613 12.0073 20.089 9.81343 20.6844C7.5589 21.2962 5.52444 21.035 4.24478 19.7551C2.96507 18.4754 2.7037 16.441 3.31556 14.1865C3.91096 11.9926 5.33868 9.57616 7.45736 7.45748C9.57619 5.33863 11.9926 3.91095 14.1865 3.31555Z" stroke="rgba(3, 79, 161, 1)" stroke-width="0.8"      fill="#034FA1" ></path><path d="M12.0737 8.76392C12.4798 8.76392 12.8174 9.07698 12.8503 9.48181L12.8503 10.9221L14.2951 10.9221C14.3072 10.9221 14.3312 10.9266 14.3312 10.9266C14.3433 10.9266 14.3555 10.9311 14.3674 10.9311C14.3793 10.9311 14.399 10.9356 14.399 10.9356C14.4108 10.9356 14.4396 10.9492 14.4396 10.9492C14.4513 10.9492 14.4597 10.9582 14.4712 10.9582C14.4827 10.9582 14.5118 10.9673 14.5118 10.9673C14.5232 10.9673 14.5323 10.9808 14.5435 10.9808C14.5546 10.9808 14.5642 10.9943 14.5751 10.9943C14.5859 10.9943 14.596 11.0066 14.6067 11.0124C14.6173 11.0182 14.6279 11.0242 14.6383 11.0305C14.6486 11.0367 14.6598 11.0463 14.6699 11.053C14.6799 11.0598 14.6873 11.0639 14.697 11.0711C14.7067 11.0783 14.7192 11.086 14.7286 11.0937C14.7379 11.1013 14.7467 11.1082 14.7557 11.1162C14.7647 11.1243 14.7741 11.1349 14.7827 11.1433C14.7913 11.1518 14.7971 11.157 14.8053 11.1659C14.8135 11.1748 14.8246 11.1837 14.8324 11.193C14.8402 11.2022 14.8476 11.215 14.855 11.2246C14.8623 11.2342 14.8707 11.2417 14.8776 11.2517C14.8844 11.2616 14.8847 11.2776 14.8911 11.2878C14.8975 11.2981 14.9078 11.3043 14.9137 11.3149C14.9196 11.3254 14.9317 11.3357 14.9317 11.3465C14.9317 11.3573 14.9453 11.3671 14.9453 11.3781C14.9453 11.3892 14.9588 11.3985 14.9588 11.4097C14.9588 11.421 14.9679 11.4344 14.9679 11.4458C14.9679 11.4573 14.9814 11.4703 14.9814 11.482C14.9814 11.4936 14.9904 11.5018 14.9904 11.5136C14.9904 11.5253 14.995 11.5423 14.995 11.5542C14.995 11.5661 15.0085 11.5738 15.0085 11.5858C15.0085 11.5978 15.0085 11.6144 15.0085 11.6264C15.0085 11.6385 15.013 11.646 15.013 11.6581C15.013 11.6701 15.013 11.6821 15.013 11.6942C15.013 11.7063 15.013 11.7227 15.013 11.7348C15.013 11.7469 15.0085 11.7544 15.0085 11.7664C15.0085 11.7784 15.0085 11.7951 15.0085 11.807C15.0085 11.819 14.995 11.8268 14.995 11.8387C14.995 11.8506 14.9904 11.863 14.9904 11.8748C14.9904 11.8865 14.9814 11.8993 14.9814 11.9109C14.9814 11.9225 14.9679 11.9355 14.9679 11.947C14.9679 11.9585 14.9588 11.9674 14.9588 11.9786C14.9588 11.9899 14.9453 12.0037 14.9453 12.0147C14.9453 12.0258 14.9317 12.0355 14.9317 12.0463C14.9317 12.0571 14.9196 12.0674 14.9137 12.0779C14.9078 12.0885 14.8975 12.0993 14.8911 12.1096C14.8847 12.1198 14.8844 12.1267 14.8776 12.1366C14.8707 12.1466 14.8623 12.1631 14.855 12.1728C14.8476 12.1824 14.8402 12.1906 14.8324 12.1999C14.8246 12.2091 14.8135 12.2181 14.8053 12.2269C14.7971 12.2358 14.7913 12.2455 14.7827 12.254C14.7741 12.2625 14.7647 12.2685 14.7557 12.2766C14.7467 12.2847 14.7379 12.2915 14.7286 12.2992C14.7192 12.3068 14.7067 12.31 14.697 12.3172C14.6873 12.3244 14.6799 12.333 14.6699 12.3398C14.6598 12.3465 14.6486 12.3561 14.6383 12.3624C14.6279 12.3687 14.6173 12.3746 14.6067 12.3805C14.596 12.3862 14.5859 12.394 14.5751 12.394C14.5642 12.394 14.5546 12.4121 14.5435 12.4121C14.5323 12.4121 14.5232 12.4211 14.5118 12.4211C14.5005 12.4211 14.4827 12.4392 14.4712 12.4392C14.4597 12.4392 14.4513 12.4482 14.4396 12.4482C14.4279 12.4482 14.4108 12.4572 14.399 12.4572C14.3872 12.4572 14.3793 12.4617 14.3674 12.4617C14.3555 12.4617 14.3433 12.4662 14.3312 12.4662C14.3192 12.4662 14.3072 12.4708 14.2951 12.4708L12.8503 12.4708L12.8503 13.9156C12.8503 13.9276 12.8503 13.9397 12.8503 13.9517C12.8503 13.9637 12.8458 13.9759 12.8458 13.9878C12.8458 13.9997 12.8368 14.0076 12.8368 14.0194C12.8368 14.0312 12.8277 14.0484 12.8277 14.06C12.8277 14.0717 12.8187 14.0801 12.8187 14.0917C12.8187 14.1032 12.8097 14.1119 12.8097 14.1233C12.8097 14.1346 12.7916 14.1483 12.7916 14.1594C12.7916 14.1705 12.7826 14.1801 12.7826 14.191C12.7826 14.2019 12.7703 14.212 12.7645 14.2226C12.7587 14.2332 12.7482 14.2484 12.742 14.2587C12.7357 14.269 12.7306 14.2803 12.7239 14.2903C12.7171 14.3003 12.713 14.3077 12.7058 14.3174C12.6986 14.3271 12.6909 14.3351 12.6833 14.3445C12.6756 14.3538 12.6643 14.3626 12.6562 14.3716C12.6481 14.3806 12.6421 14.3901 12.6336 14.3987C12.6251 14.4073 12.6154 14.4175 12.6065 14.4258C12.5976 14.434 12.5886 14.4405 12.5794 14.4483C12.5702 14.4561 12.5619 14.4636 12.5523 14.4709C12.5427 14.4783 12.5352 14.4866 12.5252 14.4935C12.5153 14.5004 12.4994 14.5051 12.4891 14.5116C12.4789 14.518 12.468 14.5237 12.4575 14.5296C12.447 14.5355 12.4367 14.5477 12.4259 14.5477C12.4151 14.5477 12.4053 14.5612 12.3943 14.5612C12.3833 14.5612 12.3694 14.5793 12.3582 14.5793C12.3469 14.5793 12.338 14.5883 12.3266 14.5883C12.3151 14.5883 12.3066 14.6019 12.295 14.6019C12.2833 14.6019 12.2661 14.6109 12.2543 14.6109C12.2425 14.6109 12.2346 14.6154 12.2227 14.6154C12.2109 14.6154 12.1986 14.6244 12.1866 14.6244C12.1746 14.6244 12.1625 14.6289 12.1505 14.6289C12.1385 14.6289 12.1264 14.6289 12.1144 14.6289C12.1023 14.6289 12.0858 14.6335 12.0737 14.6335C12.0616 14.6335 12.0542 14.6289 12.0421 14.6289C12.03 14.6289 12.018 14.6289 12.006 14.6289C11.994 14.6289 11.9818 14.6244 11.9699 14.6244C11.9579 14.6244 11.9456 14.6154 11.9338 14.6154C11.9219 14.6154 11.9139 14.6109 11.9022 14.6109C11.8904 14.6109 11.8732 14.6019 11.8615 14.6019C11.8499 14.6019 11.8414 14.5883 11.8299 14.5883C11.8185 14.5883 11.8096 14.5793 11.7983 14.5793C11.7871 14.5793 11.7687 14.5612 11.7577 14.5612C11.7466 14.5612 11.7369 14.5477 11.7261 14.5477C11.7152 14.5477 11.7095 14.5355 11.699 14.5296C11.6884 14.5237 11.6776 14.518 11.6674 14.5116C11.6571 14.5051 11.6412 14.5004 11.6313 14.4935C11.6213 14.4866 11.6138 14.4783 11.6042 14.4709C11.5946 14.4636 11.5863 14.4561 11.5771 14.4483C11.5678 14.4405 11.5589 14.434 11.55 14.4258C11.5411 14.4175 11.5314 14.4073 11.5229 14.3987C11.5144 14.3901 11.5039 14.3806 11.4958 14.3716C11.4877 14.3626 11.4809 14.3538 11.4732 14.3445C11.4655 14.3351 11.4579 14.3271 11.4507 14.3174C11.4434 14.3077 11.4393 14.3003 11.4326 14.2903C11.4258 14.2803 11.4208 14.269 11.4145 14.2587C11.4082 14.2484 11.3978 14.2332 11.392 14.2226C11.3861 14.212 11.3739 14.2019 11.3739 14.191C11.3739 14.1801 11.3604 14.1705 11.3604 14.1594C11.3604 14.1483 11.3468 14.1346 11.3468 14.1233C11.3468 14.1119 11.3378 14.1032 11.3378 14.0917C11.3378 14.0801 11.3288 14.0717 11.3288 14.06C11.3288 14.0484 11.3152 14.0312 11.3152 14.0194C11.3152 14.0076 11.3107 13.9997 11.3107 13.9878C11.3107 13.9759 11.3062 13.9637 11.3062 13.9517C11.3062 13.9397 11.3017 13.9276 11.3017 13.9156L11.3017 12.4708L9.86137 12.4708C9.84931 12.4708 9.83279 12.4663 9.82081 12.4663C9.8088 12.4663 9.80118 12.4617 9.78928 12.4617C9.77736 12.4617 9.76029 12.4572 9.7485 12.4572C9.73671 12.4572 9.72863 12.4482 9.71697 12.4482C9.70531 12.4482 9.69695 12.4392 9.68545 12.4392C9.67392 12.4392 9.656 12.4211 9.64466 12.4211C9.63335 12.4211 9.62424 12.4121 9.61314 12.4121C9.60204 12.4121 9.59249 12.394 9.58161 12.394C9.57072 12.394 9.56048 12.3862 9.54986 12.3805C9.53924 12.3746 9.52403 12.3687 9.51371 12.3624C9.50336 12.3561 9.49662 12.3466 9.48659 12.3398C9.47653 12.3331 9.46475 12.3245 9.45507 12.3172C9.44535 12.31 9.43731 12.3068 9.42795 12.2992C9.41858 12.2915 9.4098 12.2847 9.40083 12.2766C9.39184 12.2685 9.38231 12.2625 9.37372 12.254C9.3651 12.2455 9.35942 12.2358 9.35123 12.227C9.34304 12.218 9.3319 12.2091 9.32411 12.1999C9.31635 12.1906 9.30896 12.1824 9.30163 12.1728C9.29426 12.1631 9.2858 12.1466 9.27892 12.1366C9.27203 12.1267 9.27187 12.1198 9.26547 12.1096C9.25904 12.0993 9.24891 12.0885 9.24298 12.078C9.23703 12.0674 9.22491 12.0571 9.22491 12.0463C9.22491 12.0355 9.21124 12.0258 9.21124 12.0147C9.21124 12.0037 9.19779 11.9899 9.19779 11.9786C9.19779 11.9674 9.17971 11.9585 9.17971 11.947C9.17971 11.9355 9.17067 11.9225 9.17067 11.9109C9.17067 11.8993 9.16604 11.8865 9.16604 11.8748C9.16604 11.863 9.15259 11.8506 9.15259 11.8387C9.15259 11.8268 9.14796 11.819 9.14796 11.807C9.14796 11.7951 9.14355 11.7784 9.14355 11.7664C9.14355 11.7544 9.14355 11.7469 9.14355 11.7348C9.14355 11.7227 9.14355 11.7063 9.14355 11.6942C9.14355 11.6821 9.14355 11.6701 9.14355 11.6581C9.14355 11.646 9.14355 11.6385 9.14355 11.6264C9.14355 11.6144 9.14796 11.5978 9.14796 11.5858C9.14796 11.5738 9.15259 11.5661 9.15259 11.5542C9.15259 11.5423 9.16604 11.5253 9.16604 11.5136C9.16604 11.5018 9.17067 11.4936 9.17067 11.482C9.17067 11.4703 9.17971 11.4573 9.17971 11.4458C9.17971 11.4344 9.19779 11.421 9.19779 11.4097C9.19779 11.3985 9.21124 11.3892 9.21124 11.3781C9.21124 11.3671 9.22491 11.3573 9.22491 11.3465C9.22491 11.3357 9.23706 11.3254 9.24298 11.3149C9.24893 11.3043 9.25904 11.2981 9.26547 11.2878C9.27187 11.2776 9.27203 11.2616 9.27892 11.2517C9.2858 11.2418 9.29426 11.2342 9.30163 11.2246C9.30896 11.215 9.31635 11.2022 9.32411 11.193C9.3319 11.1837 9.34304 11.1748 9.35123 11.1659C9.35942 11.157 9.3651 11.1518 9.37372 11.1433C9.38231 11.1349 9.39184 11.1243 9.40083 11.1162C9.4098 11.1082 9.41858 11.1013 9.42795 11.0937C9.43731 11.086 9.44535 11.0783 9.45507 11.0711C9.46475 11.0639 9.47653 11.0598 9.48659 11.053C9.49662 11.0463 9.50336 11.0367 9.51371 11.0305C9.52403 11.0242 9.53924 11.0182 9.54986 11.0124C9.56048 11.0066 9.57072 10.9943 9.58161 10.9943C9.59249 10.9943 9.60204 10.9808 9.61314 10.9808C9.62424 10.9808 9.63335 10.9673 9.64466 10.9673C9.656 10.9673 9.67392 10.9582 9.68545 10.9582C9.69695 10.9582 9.70531 10.9492 9.71697 10.9492C9.72863 10.9492 9.73671 10.9356 9.7485 10.9356C9.76029 10.9356 9.77736 10.9311 9.78928 10.9311C9.80118 10.9311 9.8088 10.9266 9.82081 10.9266C9.83279 10.9266 9.84931 10.9221 9.86137 10.9221L11.3017 10.9221L11.3017 9.48181C11.3017 9.46975 11.3062 9.45318 11.3062 9.44117C11.3062 9.42916 11.3107 9.42146 11.3107 9.40957C11.3107 9.39764 11.3152 9.38072 11.3152 9.36893C11.3152 9.35714 11.3288 9.34898 11.3288 9.33733C11.3288 9.32564 11.3378 9.3127 11.3378 9.3012C11.3378 9.28968 11.3468 9.2764 11.3468 9.26508C11.3468 9.25377 11.3604 9.24458 11.3604 9.23348C11.3604 9.22238 11.3739 9.21276 11.3739 9.20187C11.3739 9.19099 11.3862 9.18089 11.392 9.17027C11.3978 9.15965 11.4082 9.1445 11.4145 9.13415C11.4208 9.1238 11.4258 9.11258 11.4326 9.10254C11.4393 9.09251 11.4435 9.08517 11.4507 9.07545C11.4579 9.06574 11.4656 9.0577 11.4732 9.04836C11.4809 9.039 11.4877 9.03026 11.4958 9.02127C11.5039 9.01225 11.5144 9.00277 11.5229 8.99418C11.5314 8.98557 11.5411 8.97528 11.55 8.96709C11.5588 8.95887 11.5678 8.95232 11.5771 8.94452C11.5863 8.93674 11.5946 8.92928 11.6042 8.92194C11.6138 8.9146 11.6213 8.90625 11.6313 8.89937C11.6412 8.89248 11.6571 8.88321 11.6674 8.87679C11.6776 8.87038 11.6884 8.86918 11.699 8.86325C11.7095 8.85732 11.7153 8.84519 11.7261 8.84519C11.7369 8.84519 11.7466 8.83164 11.7577 8.83164C11.7687 8.83164 11.7871 8.81358 11.7983 8.81358C11.8096 8.81358 11.8185 8.80004 11.8299 8.80004C11.8414 8.80004 11.8499 8.79101 11.8615 8.79101C11.8732 8.79101 11.8904 8.78198 11.9022 8.78198C11.9139 8.78198 11.9219 8.77295 11.9338 8.77295C11.9456 8.77295 11.9579 8.76843 11.9699 8.76843C11.9819 8.76843 11.994 8.76392 12.006 8.76392C12.018 8.76392 12.03 8.76392 12.0421 8.76392C12.0542 8.76392 12.0616 8.76392 12.0737 8.76392Z"   fill="#CC4E1D" ></path><path d="M4.24478 4.24479C5.52448 2.96509 7.55883 2.70368 9.81343 3.31557C12.0073 3.91094 14.4237 5.33861 16.5424 7.45728L16.5427 7.45754C18.6613 9.57623 20.089 11.9926 20.6844 14.1865C21.2962 16.4411 21.0348 18.4755 19.7552 19.7551C18.4754 21.035 16.4411 21.2964 14.1865 20.6844C11.9926 20.089 9.57625 18.6614 7.45752 16.5427L7.45727 16.5424C5.33859 14.4237 3.91093 12.0074 3.31556 9.81345C2.7037 7.55885 2.96507 5.5245 4.24478 4.24479ZM4.705 4.70496C3.60297 5.80699 3.39271 7.61341 3.94352 9.64309C4.51082 11.7335 5.88034 14.0451 7.91747 16.0822L7.91772 16.0825C9.9549 18.1196 12.2665 19.4892 14.3569 20.0564C16.3865 20.6073 18.193 20.397 19.2949 19.295C20.397 18.193 20.6072 16.3866 20.0564 14.3569C19.4891 12.2665 18.1196 9.95488 16.0825 7.91774L16.0822 7.91748C14.045 5.88036 11.7334 4.5108 9.64307 3.94353C7.61339 3.39269 5.80697 3.60298 4.705 4.70496Z" stroke="rgba(3, 79, 161, 1)" stroke-width="0.8"      fill="#034FA1" ></path></svg>