<svg xmlns="http://www.w3.org/2000/svg" xmlns:xlink="http://www.w3.org/1999/xlink" width="24" height="24" viewBox="0 0 24 24" fill="none"><path d="M11.2676 14.0057C11.8746 14.0057 12.3677 14.5272 12.3677 15.1689C12.3677 15.5142 12.2248 15.8203 12.001 16.0312L12.8118 19.1856C12.815 19.1979 12.8204 19.2104 12.8204 19.2229C12.8204 19.2353 12.8261 19.2475 12.8261 19.2601C12.8261 19.2727 12.829 19.2876 12.829 19.3002C12.829 19.3129 12.8319 19.3248 12.8319 19.3375C12.8319 19.3502 12.8319 19.362 12.8319 19.3747C12.8319 19.3874 12.829 19.3993 12.829 19.412C12.829 19.4246 12.8233 19.4395 12.8233 19.4521C12.8233 19.4646 12.8147 19.4769 12.8147 19.4893C12.8147 19.5017 12.8097 19.5144 12.8061 19.5266C12.8025 19.5387 12.7989 19.549 12.7946 19.5609C12.7903 19.5729 12.7853 19.5865 12.7803 19.5982C12.7753 19.6099 12.7688 19.6212 12.7631 19.6326C12.7574 19.6439 12.7522 19.6531 12.7459 19.6641C12.7396 19.6751 12.7329 19.6878 12.7259 19.6985C12.7189 19.7091 12.7105 19.7198 12.7029 19.73C12.6954 19.7402 12.6882 19.7489 12.68 19.7586L11.7518 20.8617C11.7443 20.8704 11.7368 20.8789 11.7288 20.8874C11.7209 20.8958 11.7143 20.9053 11.7059 20.9132C11.6975 20.9212 11.6889 20.9286 11.6801 20.9361C11.6713 20.9437 11.6607 20.9518 11.6515 20.9591C11.6423 20.9661 11.6352 20.9726 11.6257 20.9791C11.6161 20.9856 11.6041 20.9902 11.5942 20.9963C11.5843 21.0022 11.5757 21.0079 11.5655 21.0135C11.5553 21.0189 11.5445 21.0257 11.534 21.0307C11.5235 21.0357 11.5132 21.0408 11.5025 21.045C11.4918 21.0493 11.4791 21.0526 11.4681 21.0565C11.4572 21.0602 11.4477 21.0648 11.4366 21.0679C11.4255 21.0711 11.4135 21.0765 11.4022 21.0765C11.3909 21.0765 11.3793 21.0823 11.3678 21.0823C11.3564 21.0823 11.345 21.088 11.3335 21.088C11.3219 21.088 11.3106 21.0909 11.2991 21.0909C11.2875 21.0909 11.2763 21.0909 11.2647 21.0909C11.2531 21.0909 11.2419 21.0909 11.2303 21.0909C11.2188 21.0909 11.2075 21.088 11.1959 21.088C11.1844 21.088 11.173 21.0823 11.1616 21.0823C11.1501 21.0823 11.1385 21.0765 11.1272 21.0765C11.1159 21.0765 11.104 21.0711 11.0928 21.0679C11.0816 21.0648 11.0723 21.0629 11.0613 21.0593C11.0503 21.0556 11.0377 21.0493 11.0269 21.045C11.0161 21.0408 11.0059 21.0384 10.9954 21.0336C10.9849 21.0287 10.9741 21.0217 10.9639 21.0164C10.9536 21.011 10.9452 21.0051 10.9352 20.9992C10.9253 20.9932 10.9133 20.9885 10.9037 20.982C10.8941 20.9755 10.8843 20.9688 10.8751 20.9619C10.8658 20.9549 10.8581 20.9464 10.8493 20.939C10.8404 20.9316 10.8319 20.924 10.8235 20.9161C10.8151 20.9081 10.8057 20.9015 10.7977 20.8932C10.7897 20.8848 10.7823 20.8761 10.7748 20.8674L9.81501 19.7443C9.81082 19.7394 9.80472 19.735 9.80068 19.73C9.79665 19.725 9.79311 19.7208 9.78922 19.7156C9.78534 19.7105 9.7815 19.7037 9.77776 19.6985C9.77404 19.6932 9.76987 19.6895 9.7663 19.6841C9.76275 19.6788 9.76111 19.6724 9.75771 19.6669C9.7543 19.6615 9.74949 19.6553 9.74625 19.6498C9.74303 19.6442 9.74072 19.6382 9.73765 19.6326C9.73458 19.6269 9.73195 19.624 9.72906 19.6182C9.72617 19.6125 9.72046 19.604 9.72046 19.5982C9.72046 19.5924 9.71187 19.5869 9.71187 19.581C9.71187 19.5751 9.70614 19.5698 9.70614 19.5638C9.70614 19.5578 9.69754 19.5527 9.69754 19.5466C9.69754 19.5406 9.69181 19.5327 9.69181 19.5266C9.69181 19.5204 9.68608 19.5155 9.68608 19.5094C9.68608 19.5032 9.68035 19.4955 9.68035 19.4893C9.68035 19.4831 9.67749 19.4784 9.67749 19.4721C9.67749 19.4658 9.67176 19.4584 9.67176 19.4521C9.67176 19.4458 9.66889 19.4412 9.66889 19.4349C9.66889 19.4285 9.66603 19.4212 9.66603 19.4148C9.66603 19.4084 9.66316 19.4012 9.66316 19.3948C9.66316 19.3884 9.66316 19.384 9.66316 19.3776C9.66316 19.3712 9.6603 19.3639 9.6603 19.3575C9.6603 19.3511 9.6603 19.3439 9.6603 19.3375C9.6603 19.331 9.6603 19.3238 9.6603 19.3174C9.6603 19.311 9.6603 19.3066 9.6603 19.3002C9.6603 19.2938 9.66316 19.2866 9.66316 19.2802C9.66316 19.2737 9.66316 19.2665 9.66316 19.2601C9.66316 19.2537 9.66603 19.2493 9.66603 19.2429C9.66603 19.2365 9.66889 19.2292 9.66889 19.2229C9.66889 19.2165 9.67176 19.2091 9.67176 19.2028C9.67176 19.1965 9.67749 19.1919 9.67749 19.1856C9.67749 19.1793 9.68035 19.1718 9.68035 19.1656L10.5026 16.0055L10.4883 15.9911C10.4767 15.9789 10.4649 15.9666 10.4539 15.9539C10.4429 15.9411 10.4329 15.927 10.4224 15.9138C10.4119 15.9006 10.4008 15.8873 10.3909 15.8737C10.381 15.86 10.3715 15.8476 10.3622 15.8336C10.3529 15.8195 10.3451 15.805 10.3364 15.7906C10.3277 15.7762 10.3187 15.7595 10.3107 15.7447C10.3026 15.7299 10.2952 15.7169 10.2877 15.7018C10.2803 15.6866 10.2716 15.6713 10.2648 15.6559C10.258 15.6405 10.2538 15.6229 10.2476 15.6072C10.2415 15.5915 10.2359 15.5773 10.2304 15.5614C10.225 15.5454 10.218 15.5288 10.2132 15.5127C10.2085 15.4965 10.2059 15.4803 10.2018 15.464C10.1977 15.4476 10.1937 15.4318 10.1903 15.4153C10.187 15.3987 10.1817 15.3803 10.1817 15.3637C10.1817 15.347 10.1731 15.3317 10.1731 15.315C10.1731 15.2982 10.1674 15.2802 10.1674 15.2634L10.1645 15.1689C10.1645 14.5272 10.66 14.0057 11.2676 14.0057ZM11.2418 2.18176C13.7159 2.18176 15.8792 3.84636 16.5105 6.23862C17.1419 8.63089 16.0816 11.1494 13.9292 12.3698C14.1029 12.4362 14.2763 12.5089 14.4449 12.5875C14.6135 12.666 14.7779 12.7493 14.9405 12.8396C14.9497 12.8447 14.9574 12.8513 14.9663 12.8568C14.9752 12.8623 14.9863 12.868 14.995 12.874C15.0036 12.88 15.0124 12.8848 15.0207 12.8912C15.0291 12.8976 15.0357 12.9045 15.0437 12.9112C15.0517 12.918 15.0589 12.927 15.0666 12.9342C15.0742 12.9413 15.0822 12.9467 15.0895 12.9542C15.0968 12.9617 15.1055 12.9692 15.1124 12.9771C15.1193 12.985 15.126 12.9947 15.1325 13.0029C15.139 13.0111 15.1436 13.0202 15.1497 13.0287C15.1558 13.0372 15.1612 13.0457 15.1669 13.0545C15.1726 13.0633 15.1788 13.0712 15.184 13.0803C15.1893 13.0894 15.1936 13.0996 15.1984 13.1089C15.2032 13.1183 15.2084 13.1252 15.2127 13.1347C15.217 13.1443 15.2203 13.1565 15.2242 13.1662C15.228 13.176 15.2322 13.1849 15.2356 13.1949C15.239 13.2048 15.2442 13.2134 15.2471 13.2235C15.25 13.2336 15.2528 13.2448 15.2528 13.255C15.2528 13.2652 15.2614 13.2762 15.2614 13.2866C15.2614 13.2969 15.2643 13.3077 15.2643 13.3181C15.2643 13.3285 15.2671 13.3391 15.2671 13.3496C15.2671 13.36 15.27 13.3678 15.27 13.3782C15.27 13.3887 15.27 13.3993 15.27 13.4098C15.27 13.4202 15.27 13.4308 15.27 13.4413C15.27 13.4517 15.2671 13.4624 15.2671 13.4728C15.2671 13.4832 15.2614 13.4939 15.2614 13.5043C15.2614 13.5146 15.2557 13.5256 15.2557 13.5358C15.2557 13.5461 15.2499 13.5572 15.2499 13.5673C15.2499 13.5775 15.2446 13.586 15.2413 13.596C15.2382 13.606 15.2336 13.6177 15.2299 13.6275C15.2262 13.6373 15.2226 13.6465 15.2184 13.6561C15.2143 13.6658 15.2087 13.6754 15.2041 13.6848C15.1995 13.6942 15.1949 13.7014 15.1898 13.7106C15.1847 13.7198 15.181 13.7303 15.1754 13.7392C15.1699 13.7481 15.1642 13.7564 15.1583 13.765C15.1523 13.7737 15.1446 13.7825 15.1382 13.7908C15.1318 13.7991 15.1249 13.8086 15.1181 13.8166C15.1114 13.8246 15.1053 13.8318 15.0981 13.8395C15.0909 13.8472 15.0827 13.8551 15.0752 13.8624C15.0676 13.8697 15.0601 13.8756 15.0523 13.8825C15.0444 13.8894 15.0376 13.896 15.0293 13.9025C15.0211 13.9091 15.0121 13.9165 15.0035 13.9226C14.995 13.9287 14.9866 13.9341 14.9778 13.9398C14.969 13.9455 14.9582 13.9517 14.9491 13.957C14.94 13.9622 14.9327 13.9665 14.9233 13.9713C14.914 13.9761 14.9042 13.9813 14.8947 13.9856C14.8851 13.99 14.8758 13.9932 14.866 13.9971C14.8563 14.0009 14.8473 14.0052 14.8374 14.0085C14.8275 14.0119 14.816 14.0142 14.8059 14.0171C14.7958 14.02 14.7846 14.0257 14.7743 14.0257C14.7641 14.0257 14.756 14.0315 14.7457 14.0315C14.7354 14.0315 14.7246 14.0372 14.7142 14.0372C14.7038 14.0372 14.6931 14.0401 14.6827 14.0401C14.6722 14.0401 14.6616 14.0429 14.6512 14.0429C14.6407 14.0429 14.6301 14.0429 14.6196 14.0429C14.6092 14.0429 14.5986 14.0401 14.5881 14.0401C14.5777 14.0401 14.567 14.0372 14.5566 14.0372C14.5462 14.0372 14.5355 14.0343 14.5251 14.0343C14.5147 14.0343 14.5038 14.0286 14.4936 14.0286C14.4833 14.0286 14.4751 14.02 14.4649 14.02C14.4548 14.02 14.4434 14.0146 14.4334 14.0114C14.4234 14.0082 14.4146 14.0036 14.4048 13.9999C14.3949 13.9963 14.3857 13.9926 14.3761 13.9885C14.3665 13.9843 14.3569 13.9817 14.3475 13.977C14.3381 13.9724 14.328 13.9678 14.3188 13.9627C14.2571 13.9285 14.1954 13.8947 14.1326 13.8624C14.0698 13.8302 14.0072 13.7981 13.9435 13.7679C13.8797 13.7376 13.8134 13.7073 13.7487 13.6791C13.684 13.6509 13.6194 13.625 13.5539 13.5988C13.4883 13.5727 13.4225 13.5484 13.3562 13.5244C13.2898 13.5003 13.2227 13.4775 13.1556 13.4556C13.0885 13.4337 13.0228 13.4124 12.9551 13.3926C12.8873 13.3728 12.8171 13.3529 12.7488 13.3353C12.6805 13.3176 12.6142 13.302 12.5454 13.2866C12.4765 13.2711 12.4055 13.2568 12.3362 13.2436C12.2669 13.2303 12.1968 13.2174 12.1271 13.2063C12.0574 13.1953 11.988 13.1865 11.9179 13.1777C11.8479 13.1689 11.7791 13.1614 11.7088 13.1548C11.6385 13.1482 11.5672 13.1419 11.4968 13.1376C11.4264 13.1332 11.3553 13.1261 11.2848 13.1261C11.2142 13.1261 11.1433 13.1233 11.0727 13.1233C7.37154 13.1233 4.37435 16.1239 4.37435 19.8245C4.37435 19.835 4.37148 19.8455 4.37148 19.856C4.37148 19.8665 4.36862 19.8771 4.36862 19.8875C4.36862 19.898 4.36575 19.9087 4.36575 19.9191C4.36575 19.9294 4.36002 19.9403 4.36002 19.9506C4.36002 19.9609 4.35429 19.9719 4.35429 19.9821C4.35429 19.9923 4.34875 20.0007 4.3457 20.0107C4.34266 20.0208 4.33777 20.0324 4.33424 20.0423C4.3307 20.0521 4.32679 20.0612 4.32278 20.0709C4.31876 20.0806 4.3158 20.0901 4.31132 20.0996C4.30682 20.1091 4.30193 20.119 4.29699 20.1282C4.29204 20.1375 4.28806 20.145 4.28267 20.154C4.27727 20.163 4.2713 20.1711 4.26548 20.1798C4.25965 20.1885 4.25168 20.1971 4.24542 20.2056C4.23918 20.214 4.23488 20.2232 4.22823 20.2313C4.22157 20.2395 4.21522 20.2465 4.20818 20.2543C4.20114 20.2621 4.19268 20.2698 4.18526 20.2772C4.17784 20.2846 4.17011 20.2931 4.16234 20.3001C4.15456 20.3072 4.14752 20.3135 4.13942 20.3202C4.13131 20.3268 4.12206 20.334 4.11363 20.3402C4.1052 20.3465 4.09657 20.3516 4.08784 20.3574C4.07912 20.3632 4.07106 20.3692 4.06206 20.3746C4.05306 20.38 4.04266 20.3868 4.03341 20.3918C4.02416 20.3967 4.01425 20.3988 4.00476 20.4032C3.99527 20.4077 3.9858 20.4136 3.97611 20.4176C3.96641 20.4216 3.95734 20.4255 3.94746 20.429C3.93758 20.4326 3.92885 20.4346 3.91881 20.4376C3.90877 20.4407 3.89747 20.4462 3.88729 20.4462C3.87711 20.4462 3.86607 20.4548 3.85578 20.4548C3.84549 20.4548 3.83751 20.4606 3.82713 20.4606C3.81675 20.4606 3.80606 20.4634 3.79561 20.4634C3.78517 20.4634 3.77458 20.4663 3.7641 20.4663C3.75362 20.4663 3.74308 20.4663 3.73258 20.4663C3.72209 20.4663 3.71155 20.4663 3.70107 20.4663C3.69059 20.4663 3.68 20.4634 3.66955 20.4634C3.65911 20.4634 3.64842 20.4606 3.63804 20.4606C3.62766 20.4606 3.61682 20.4548 3.60652 20.4548C3.59623 20.4548 3.58519 20.4462 3.57501 20.4462C3.56483 20.4462 3.5564 20.4407 3.54636 20.4376C3.53632 20.4346 3.52472 20.4326 3.51484 20.429C3.50496 20.4255 3.49589 20.4216 3.48619 20.4176C3.4765 20.4136 3.46703 20.4077 3.45754 20.4032C3.44806 20.3988 3.43815 20.3967 3.42889 20.3918C3.41964 20.3868 3.41211 20.38 3.40311 20.3746C3.39411 20.3692 3.38318 20.3632 3.37446 20.3574C3.36573 20.3516 3.3571 20.3465 3.34867 20.3402C3.34024 20.334 3.33386 20.3268 3.32575 20.3202C3.31764 20.3135 3.30774 20.3072 3.29997 20.3001C3.29219 20.2931 3.28733 20.2846 3.27991 20.2772C3.27249 20.2698 3.26404 20.2621 3.25699 20.2543C3.24995 20.2465 3.24359 20.2395 3.23694 20.2313C3.23028 20.2232 3.22313 20.214 3.21688 20.2056C3.21063 20.1971 3.20552 20.1885 3.19969 20.1798C3.19386 20.1711 3.18789 20.163 3.1825 20.154C3.17711 20.145 3.17026 20.1375 3.16531 20.1282C3.16037 20.119 3.15547 20.1091 3.15099 20.0996C3.1465 20.0901 3.14354 20.0806 3.13953 20.0709C3.13551 20.0612 3.1316 20.0521 3.12807 20.0423C3.12453 20.0324 3.12251 20.0208 3.11947 20.0107C3.11643 20.0007 3.11088 19.9923 3.11088 19.9821C3.11088 19.9719 3.10228 19.9609 3.10228 19.9506C3.10228 19.9403 3.09655 19.9294 3.09655 19.9191C3.09655 19.9087 3.09369 19.898 3.09369 19.8875C3.09369 19.8771 3.09082 19.8665 3.09082 19.856C3.09082 19.8455 3.09082 19.835 3.09082 19.8245C3.09082 16.345 5.31694 13.3859 8.42261 12.2924C8.35952 12.2542 8.29788 12.2156 8.23639 12.1749C8.17489 12.1343 8.11282 12.092 8.05302 12.0489C7.99323 12.0057 7.93341 11.9626 7.87539 11.9171C7.81741 11.8716 7.76247 11.8245 7.70636 11.7767C7.65027 11.7289 7.59432 11.6807 7.54019 11.6306C7.48608 11.5805 7.43178 11.5281 7.37975 11.4759C7.32771 11.4236 7.27777 11.3697 7.2279 11.3154C7.17803 11.2611 7.12943 11.2055 7.08178 11.1493C7.03417 11.093 6.98672 11.0355 6.9414 10.9774C6.8961 10.9192 6.85252 10.8597 6.80961 10.7997C6.7667 10.7398 6.72684 10.6809 6.68641 10.6192C6.64598 10.5576 6.60399 10.4934 6.56608 10.4301C6.52817 10.3669 6.49253 10.3029 6.45721 10.2382C6.42193 10.1734 6.38959 10.1095 6.35694 10.0434C6.32428 9.97725 6.29234 9.91019 6.26239 9.84281C6.23246 9.77542 6.20362 9.70793 6.17644 9.63939C6.14926 9.57084 6.12347 9.5027 6.09908 9.43311C6.07472 9.36353 6.05187 9.29161 6.03032 9.2211C6.00879 9.15059 5.98882 9.08042 5.97016 9.00909C5.9515 8.93776 5.93432 8.86625 5.91859 8.79421C5.90285 8.72218 5.88842 8.6491 5.87561 8.57647C5.8628 8.50387 5.85108 8.4318 5.84123 8.35873C5.83138 8.28566 5.82233 8.21153 5.81545 8.13813C5.80858 8.06471 5.80503 7.99114 5.80112 7.91752C5.79724 7.8439 5.79253 7.77065 5.79253 7.69691C5.79253 7.62318 5.79539 7.55 5.79539 7.47631C5.79539 7.40261 5.79892 7.32925 5.80399 7.2557C5.80906 7.18215 5.81599 7.10839 5.82404 7.0351C5.83211 6.96181 5.84168 6.88739 5.85269 6.81449C5.86373 6.74157 5.87598 6.66915 5.88994 6.59675C5.90393 6.52435 5.92176 6.45364 5.93864 6.38187C5.95556 6.3101 5.97329 6.23803 5.99308 6.167C6.01289 6.09597 6.03345 6.02515 6.05611 5.95499C6.07877 5.88482 6.10224 5.81502 6.12774 5.74584C6.15324 5.67666 6.17967 5.60765 6.20796 5.53956C6.23624 5.47145 6.26574 5.40589 6.29677 5.33901C6.3278 5.27212 6.36049 5.20405 6.39418 5.13846C6.42791 5.07289 6.46385 5.00778 6.50019 4.94364C6.53654 4.87949 6.57301 4.81717 6.61192 4.75455C6.65085 4.69192 6.69371 4.62932 6.73512 4.56832C6.77655 4.50732 6.8173 4.44708 6.86118 4.38782C6.90505 4.32857 6.94959 4.2705 6.99583 4.21306C7.04208 4.15561 7.09055 4.09952 7.13908 4.04402C7.18762 3.98851 7.23734 3.93421 7.28807 3.88072C7.33883 3.82722 7.38991 3.77453 7.44278 3.72314C7.49565 3.67175 7.55117 3.6205 7.60608 3.57129C7.66099 3.52209 7.71538 3.47498 7.77225 3.42804C7.82912 3.38111 7.8883 3.33511 7.94702 3.29052C8.00574 3.24593 8.06417 3.20377 8.12465 3.1616C8.18513 3.11943 8.24586 3.07808 8.30801 3.0384C8.37016 2.99872 8.4334 2.96093 8.4971 2.9238C8.56082 2.88668 8.62676 2.84944 8.69192 2.81493C8.75708 2.78042 8.82311 2.74649 8.88961 2.71466C8.95612 2.68282 9.02242 2.65495 9.09016 2.62584C9.15791 2.59673 9.22471 2.56623 9.29358 2.53989C9.36244 2.51355 9.43286 2.48892 9.50272 2.4654C9.57262 2.44188 9.64396 2.42017 9.71473 2.3995C9.7855 2.37884 9.85518 2.35998 9.92674 2.3422C9.99831 2.32443 10.0694 2.30836 10.1416 2.2935C10.2139 2.27864 10.2866 2.2653 10.3594 2.25339C10.4321 2.24147 10.5068 2.23083 10.58 2.22187C10.6532 2.21292 10.7271 2.20493 10.8006 2.19895C10.8741 2.19298 10.9475 2.19048 11.0212 2.18749C11.0949 2.1845 11.1681 2.18176 11.2418 2.18176ZM11.2418 3.46529C8.94072 3.46529 7.07319 5.32979 7.07319 7.63102C7.07319 9.93208 8.94072 11.7967 11.2418 11.7967C13.5428 11.7967 15.4075 9.93206 15.4075 7.63102C15.4075 5.32998 13.5428 3.46242 11.2418 3.46242L11.2418 3.46529Z" stroke="rgba(3, 79, 161, 1)" stroke-width="0.3"      fill="#034FA1" ></path><path d="M18.7243 23.1161C18.4645 23.1161 18.2036 23.0489 17.9719 22.9157L14.9341 21.1609C14.4705 20.8932 14.1816 20.3938 14.1816 19.8585L14.1816 16.3489C14.1816 15.8136 14.4694 15.3141 14.9341 15.0465L17.9719 13.2917C18.4354 13.024 19.0121 13.024 19.4756 13.2917L22.5145 15.0465C22.9781 15.3141 23.267 15.8136 23.267 16.3489L23.267 19.8585C23.267 20.3938 22.9792 20.8932 22.5145 21.1609L19.4767 22.9157C19.245 23.0489 18.9841 23.1161 18.7243 23.1161ZM18.7243 14.0946C18.6381 14.0946 18.5519 14.117 18.4746 14.1618L15.4357 15.9166C15.2812 16.0051 15.186 16.1708 15.186 16.3489L15.186 19.8585C15.186 20.0365 15.2812 20.2023 15.4357 20.2907L18.4746 22.0455C18.6291 22.134 18.8195 22.134 18.974 22.0455L22.0129 20.2907C22.1674 20.2023 22.2626 20.0365 22.2626 19.8585L22.2626 16.3489C22.2626 16.1708 22.1674 16.0051 22.0129 15.9166L18.974 14.1618C18.8967 14.117 18.8105 14.0946 18.7243 14.0946Z"   fill="#CC4E1D" ></path><path d="M18.2173 18.4467L16.6592 17.6313C16.3853 17.4751 16.2945 17.1283 16.4525 16.8575C16.6105 16.5866 16.9586 16.4945 17.2326 16.6507L18.8178 17.4684L20.2934 16.6977C20.5661 16.5402 20.9173 16.6286 21.0766 16.8982C21.2359 17.1678 21.1425 17.5145 20.8699 17.672L19.3607 18.4734L19.3607 20.2906C19.3607 20.6018 19.1066 20.8576 18.7906 20.8576C18.4746 20.8576 18.2173 20.603 18.2173 20.2906L18.2173 18.4467Z" fill-rule="evenodd"  fill="#CC4E1D" ></path></svg>