<svg xmlns="http://www.w3.org/2000/svg" xmlns:xlink="http://www.w3.org/1999/xlink" width="24" height="24" viewBox="0 0 24 24" fill="none"><path d="M19.0971 20.5349C20.1153 17.2632 19.5101 14.9462 18.7725 13.5355C17.8798 11.8272 16.6082 11.0466 16.5551 11.0149L15.848 12.282C15.8876 12.3057 19.6696 14.6702 17.6072 20.5349L15.4815 20.5349C16.7644 18.9024 17.3187 17.3514 17.1253 15.9101C16.8492 13.8387 15.1285 12.8499 15.055 12.8092L14.3818 14.0955C14.3931 14.1023 15.5618 14.7924 15.7326 16.1274C15.891 17.3718 15.1477 18.8934 13.5842 20.5349L2.93066 20.5349L2.93066 22L21.1109 22L21.1109 20.5349L19.0971 20.5349ZM9.03751 16.0097C9.05453 16.0277 9.07203 16.0452 9.08997 16.0623C9.10789 16.0794 9.12624 16.096 9.14503 16.1121C9.16381 16.1283 9.18298 16.144 9.20255 16.1592C9.22211 16.1743 9.24206 16.189 9.26238 16.2032C9.28269 16.2173 9.30335 16.231 9.32437 16.2441C9.34537 16.2572 9.36671 16.2698 9.38836 16.2818C9.41 16.2939 9.43193 16.3054 9.45417 16.3163C9.4764 16.3272 9.49889 16.3376 9.52166 16.3474C9.54441 16.3571 9.5674 16.3663 9.59063 16.3749C9.61383 16.3835 9.63726 16.3916 9.66091 16.399C9.68453 16.4064 9.70833 16.4133 9.73232 16.4195C9.75628 16.4257 9.7804 16.4313 9.80466 16.4363C9.82893 16.4413 9.85329 16.4457 9.87779 16.4494C9.90227 16.4532 9.92683 16.4563 9.95147 16.4588C9.9761 16.4613 10.0008 16.4632 10.0255 16.4645C10.0503 16.4657 10.075 16.4664 10.0998 16.4664C10.1246 16.4664 10.1493 16.4657 10.1741 16.4645C10.1988 16.4632 10.2235 16.4613 10.2481 16.4588C10.2728 16.4563 10.2973 16.4532 10.3218 16.4494C10.3463 16.4457 10.3707 16.4413 10.3949 16.4363C10.4192 16.4313 10.4433 16.4257 10.4673 16.4195C10.4913 16.4133 10.5151 16.4064 10.5387 16.399C10.5623 16.3916 10.5858 16.3835 10.609 16.3749C10.6322 16.3663 10.6552 16.3571 10.678 16.3474C10.7007 16.3376 10.7232 16.3272 10.7454 16.3163C10.7677 16.3054 10.7896 16.2939 10.8113 16.2818C10.8329 16.2698 10.8542 16.2572 10.8752 16.2441C10.8962 16.231 10.9169 16.2173 10.9372 16.2032C10.9575 16.189 10.9775 16.1743 10.9971 16.1592C11.0166 16.144 11.0358 16.1283 11.0546 16.1121C11.0734 16.096 11.0917 16.0794 11.1096 16.0623C11.1276 16.0452 11.145 16.0277 11.1621 16.0097L13.3682 13.7143L12.3726 12.6791L10.1666 14.9734C10.1655 14.9745 10.1644 14.9757 10.1633 14.9767C10.1621 14.9778 10.161 14.9789 10.1598 14.9799C10.1586 14.9809 10.1574 14.9819 10.1562 14.9829C10.155 14.9838 10.1537 14.9847 10.1525 14.9856C10.1512 14.9865 10.1499 14.9874 10.1486 14.9882C10.1472 14.989 10.1459 14.9898 10.1445 14.9906C10.1432 14.9913 10.1418 14.9921 10.1404 14.9928C10.139 14.9935 10.1376 14.9941 10.1362 14.9947C10.1347 14.9953 10.1333 14.9959 10.1318 14.9965C10.1304 14.997 10.1289 14.9975 10.1274 14.998C10.1259 14.9985 10.1244 14.9989 10.1229 14.9993C10.1214 14.9997 10.1199 15 10.1184 15.0004C10.1168 15.0007 10.1153 15.0009 10.1138 15.0012C10.1122 15.0014 10.1107 15.0016 10.1091 15.0018C10.1076 15.0019 10.106 15.0021 10.1045 15.0021C10.1029 15.0022 10.1013 15.0023 10.0998 15.0023C10.0982 15.0023 10.0967 15.0022 10.0951 15.0021C10.0936 15.0021 10.092 15.0019 10.0905 15.0018C10.0889 15.0016 10.0874 15.0014 10.0858 15.0012C10.0843 15.0009 10.0828 15.0007 10.0812 15.0004C10.0797 15 10.0782 14.9997 10.0767 14.9993C10.0752 14.9989 10.0737 14.9985 10.0722 14.998C10.0707 14.9975 10.0692 14.997 10.0678 14.9965C10.0663 14.9959 10.0649 14.9953 10.0634 14.9947C10.062 14.9941 10.0606 14.9935 10.0592 14.9928C10.0578 14.9921 10.0564 14.9913 10.0551 14.9906C10.0537 14.9898 10.0524 14.989 10.0511 14.9882C10.0497 14.9874 10.0484 14.9865 10.0472 14.9856C10.0459 14.9847 10.0446 14.9838 10.0434 14.9829C10.0422 14.9819 10.041 14.9809 10.0398 14.9799C10.0386 14.9789 10.0375 14.9778 10.0363 14.9767C10.0352 14.9757 10.0341 14.9745 10.0331 14.9734L6.58029 11.3826C6.5792 11.3815 6.57814 11.3803 6.57711 11.379C6.57607 11.3778 6.57506 11.3766 6.57408 11.3753C6.57309 11.3741 6.57216 11.3728 6.57124 11.3715C6.57033 11.3702 6.56943 11.3688 6.5686 11.3675C6.56772 11.3661 6.56691 11.3648 6.56613 11.3634C6.56533 11.362 6.56458 11.3606 6.56386 11.3592C6.56313 11.3577 6.56243 11.3563 6.56179 11.3548C6.56112 11.3534 6.5605 11.3519 6.55993 11.3504C6.55933 11.349 6.55879 11.3474 6.55827 11.3459C6.55776 11.3444 6.55728 11.3429 6.55684 11.3414C6.55639 11.3398 6.55597 11.3383 6.55561 11.3368C6.55523 11.3352 6.55489 11.3336 6.5546 11.3321C6.5543 11.3305 6.55404 11.3289 6.55382 11.3273C6.55358 11.3258 6.5534 11.3242 6.55326 11.3226C6.5531 11.321 6.55301 11.3194 6.55293 11.3178C6.55285 11.3162 6.55281 11.3146 6.55281 11.313C6.55281 11.3114 6.55285 11.3098 6.55293 11.3083C6.55301 11.3067 6.5531 11.3051 6.55326 11.3035C6.5534 11.3019 6.55358 11.3003 6.55382 11.2987C6.55404 11.2971 6.5543 11.2956 6.5546 11.294C6.55489 11.2924 6.55523 11.2909 6.55561 11.2893C6.55597 11.2878 6.55639 11.2862 6.55684 11.2847C6.55728 11.2832 6.55776 11.2816 6.55827 11.2801C6.55879 11.2786 6.55933 11.2771 6.55993 11.2756C6.5605 11.2741 6.56112 11.2727 6.56179 11.2712C6.56243 11.2698 6.56313 11.2683 6.56386 11.2669C6.56458 11.2655 6.56533 11.2641 6.56613 11.2627C6.56691 11.2613 6.56772 11.2599 6.5686 11.2586C6.56943 11.2572 6.57033 11.2559 6.57124 11.2546C6.57216 11.2533 6.57309 11.252 6.57408 11.2507C6.57506 11.2495 6.57607 11.2483 6.57711 11.247C6.57814 11.2458 6.5792 11.2446 6.58029 11.2434L13.5808 3.96458C13.5819 3.96346 13.583 3.96235 13.5841 3.96126C13.5853 3.96019 13.5864 3.95914 13.5876 3.95812C13.5888 3.9571 13.59 3.95611 13.5912 3.95516C13.5924 3.95419 13.5937 3.95326 13.595 3.95237C13.5962 3.95147 13.5975 3.95061 13.5988 3.94979C13.6002 3.94895 13.6015 3.94816 13.6029 3.9474C13.6042 3.94665 13.6056 3.94592 13.607 3.94521C13.6084 3.94452 13.6098 3.94388 13.6113 3.94327C13.6127 3.94264 13.6141 3.94206 13.6156 3.94152C13.617 3.94097 13.6185 3.94047 13.62 3.94C13.6215 3.93953 13.623 3.9391 13.6245 3.93871C13.626 3.93831 13.6275 3.93796 13.629 3.93764C13.6306 3.93732 13.6321 3.93704 13.6336 3.9368C13.6352 3.93656 13.6367 3.93637 13.6383 3.93621C13.6398 3.93606 13.6414 3.93595 13.6429 3.93587C13.6445 3.93579 13.646 3.93575 13.6476 3.93575C13.6492 3.93575 13.6507 3.93579 13.6523 3.93587C13.6538 3.93595 13.6554 3.93606 13.6569 3.93621C13.6585 3.93637 13.66 3.93656 13.6616 3.9368C13.6631 3.93704 13.6646 3.93732 13.6662 3.93764C13.6677 3.93796 13.6692 3.93831 13.6707 3.93871C13.6722 3.9391 13.6737 3.93953 13.6752 3.94C13.6767 3.94047 13.6781 3.94097 13.6796 3.94152C13.6811 3.94206 13.6825 3.94264 13.684 3.94327C13.6854 3.94388 13.6868 3.94452 13.6882 3.94521C13.6896 3.94592 13.691 3.94665 13.6923 3.9474C13.6937 3.94816 13.695 3.94895 13.6964 3.94979C13.6977 3.95061 13.699 3.95147 13.7002 3.95237C13.7015 3.95326 13.7028 3.95419 13.704 3.95516C13.7052 3.95611 13.7064 3.9571 13.7076 3.95812C13.7088 3.95914 13.7099 3.96019 13.7111 3.96126C13.7122 3.96235 13.7133 3.96346 13.7143 3.96458L17.1671 7.5554C17.1693 7.5577 17.1713 7.56013 17.1732 7.56263C17.1751 7.56514 17.1769 7.56774 17.1786 7.57043C17.1803 7.57311 17.1818 7.57586 17.1832 7.5787C17.1847 7.58151 17.1859 7.58441 17.1871 7.58735C17.1882 7.5903 17.1892 7.59328 17.1901 7.59632C17.191 7.59936 17.1917 7.60243 17.1923 7.60553C17.1929 7.60863 17.1933 7.61177 17.1936 7.61491C17.1939 7.61806 17.1941 7.62122 17.1941 7.62438C17.1941 7.62754 17.1939 7.6307 17.1936 7.63387C17.1933 7.63701 17.1929 7.64013 17.1923 7.64323C17.1917 7.64634 17.191 7.64942 17.1901 7.65246C17.1892 7.65548 17.1882 7.65849 17.1871 7.66145C17.1859 7.66437 17.1847 7.66726 17.1832 7.6701C17.1818 7.6729 17.1803 7.67567 17.1786 7.67835C17.1769 7.68104 17.1751 7.68362 17.1732 7.68613C17.1713 7.68865 17.1693 7.69108 17.1671 7.69341L15.4204 9.51028L16.4159 10.5454L18.1616 8.72968C18.179 8.71123 18.1959 8.6924 18.2125 8.67313C18.229 8.65388 18.2451 8.63425 18.2607 8.61424C18.2763 8.59426 18.2914 8.57388 18.306 8.55313C18.3207 8.53243 18.3348 8.51137 18.3485 8.48999C18.3621 8.46858 18.3752 8.44688 18.3879 8.42487C18.4005 8.40285 18.4126 8.38054 18.4241 8.35795C18.4357 8.33538 18.4467 8.31253 18.4572 8.2894C18.4677 8.26629 18.4776 8.24297 18.487 8.21938C18.4964 8.1958 18.5052 8.17201 18.5134 8.14801C18.5217 8.12403 18.5293 8.09984 18.5364 8.0755C18.5435 8.05114 18.5501 8.02662 18.556 8.00196C18.562 7.97728 18.5673 7.95249 18.5721 7.92759C18.5769 7.90265 18.5811 7.87763 18.5847 7.8525C18.5882 7.8274 18.5912 7.8022 18.5936 7.77695C18.596 7.75167 18.5978 7.72638 18.599 7.70102C18.6002 7.67569 18.6008 7.65033 18.6008 7.62496C18.6008 7.59958 18.6002 7.57421 18.599 7.54889C18.5978 7.52354 18.596 7.49822 18.5936 7.47295C18.5912 7.44769 18.5882 7.42251 18.5847 7.39738C18.5811 7.37228 18.5769 7.34726 18.5721 7.32235C18.5673 7.29741 18.562 7.27263 18.556 7.24795C18.5501 7.22329 18.5435 7.19877 18.5364 7.17441C18.5293 7.15005 18.5217 7.12587 18.5134 7.10189C18.5052 7.07788 18.4964 7.0541 18.487 7.03051C18.4776 7.00693 18.4677 6.9836 18.4572 6.96047C18.4467 6.93739 18.4357 6.91454 18.4241 6.89197C18.4126 6.86936 18.4005 6.84706 18.3879 6.82503C18.3752 6.80303 18.3621 6.78132 18.3485 6.75994C18.3348 6.73852 18.3207 6.71746 18.306 6.69676C18.2914 6.67602 18.2763 6.65566 18.2607 6.63565C18.2451 6.61564 18.229 6.59602 18.2125 6.57677C18.1959 6.55752 18.179 6.53866 18.1616 6.52023L14.7088 2.92944C14.6917 2.91146 14.6742 2.89393 14.6563 2.87685C14.6384 2.85976 14.62 2.84314 14.6013 2.82699C14.5825 2.81083 14.5633 2.79516 14.5437 2.77998C14.5242 2.7648 14.5042 2.75012 14.4839 2.73595C14.4636 2.72179 14.4429 2.70814 14.4219 2.69502C14.4009 2.6819 14.3796 2.66932 14.3579 2.65728C14.3363 2.64525 14.3143 2.63376 14.2921 2.62284C14.2699 2.61192 14.2474 2.60156 14.2246 2.59178C14.2019 2.582 14.1789 2.5728 14.1556 2.56418C14.1324 2.55557 14.109 2.54755 14.0854 2.54012C14.0617 2.5327 14.0379 2.52587 14.014 2.51966C13.99 2.51344 13.9659 2.50783 13.9416 2.50284C13.9173 2.49784 13.893 2.49347 13.8685 2.48971C13.844 2.48596 13.8194 2.48282 13.7948 2.48031C13.7701 2.4778 13.7455 2.47592 13.7207 2.47466C13.696 2.47341 13.6712 2.47278 13.6465 2.47278C13.6217 2.47278 13.597 2.47341 13.5722 2.47466C13.5475 2.47592 13.5228 2.4778 13.4981 2.48031C13.4735 2.48282 13.4489 2.48596 13.4245 2.48971C13.4 2.49347 13.3756 2.49784 13.3513 2.50284C13.3271 2.50783 13.303 2.51344 13.279 2.51966C13.255 2.52587 13.2312 2.5327 13.2076 2.54012C13.1839 2.54755 13.1605 2.55557 13.1373 2.56418C13.1141 2.5728 13.0911 2.582 13.0683 2.59178C13.0456 2.60156 13.0231 2.61192 13.0008 2.62284C12.9786 2.63376 12.9567 2.64525 12.935 2.65728C12.9134 2.66932 12.892 2.6819 12.871 2.69502C12.85 2.70814 12.8294 2.72179 12.8091 2.73595C12.7887 2.75012 12.7688 2.7648 12.7492 2.77998C12.7296 2.79516 12.7105 2.81083 12.6917 2.82699C12.6729 2.84314 12.6546 2.85976 12.6366 2.87685C12.6187 2.89393 12.6012 2.91146 12.5842 2.92944L5.58474 10.2083C5.5673 10.2267 5.55031 10.2456 5.53379 10.2649C5.51724 10.2841 5.50118 10.3037 5.48558 10.3237C5.46997 10.3437 5.45486 10.3641 5.44022 10.3848C5.42559 10.4056 5.41145 10.4266 5.39781 10.448C5.38416 10.4694 5.37102 10.4911 5.35841 10.5131C5.34578 10.5351 5.33369 10.5574 5.32214 10.58C5.31056 10.6026 5.29955 10.6255 5.28909 10.6486C5.27859 10.6717 5.26866 10.695 5.2593 10.7186C5.24991 10.7422 5.2411 10.766 5.23285 10.79C5.2246 10.814 5.21692 10.8381 5.20982 10.8625C5.2027 10.8869 5.19618 10.9114 5.19023 10.936C5.18429 10.9607 5.17894 10.9855 5.17416 11.0104C5.16939 11.0353 5.1652 11.0603 5.16162 11.0855C5.15802 11.1106 5.15503 11.1358 5.15265 11.1611C5.15024 11.1863 5.14843 11.2116 5.14724 11.237C5.14604 11.2623 5.14545 11.2877 5.14545 11.313C5.14545 11.3384 5.14604 11.3638 5.14724 11.3891C5.14843 11.4145 5.15024 11.4398 5.15265 11.465C5.15503 11.4903 5.15802 11.5155 5.16162 11.5406C5.1652 11.5657 5.16939 11.5907 5.17416 11.6156C5.17894 11.6406 5.18429 11.6654 5.19023 11.69C5.19618 11.7147 5.2027 11.7392 5.20982 11.7636C5.21692 11.7879 5.2246 11.8121 5.23285 11.8361C5.2411 11.8601 5.24991 11.8839 5.2593 11.9075C5.26866 11.9311 5.27859 11.9544 5.28909 11.9775C5.29955 12.0006 5.31056 12.0235 5.32214 12.046C5.33369 12.0686 5.34578 12.0909 5.35841 12.113C5.37102 12.135 5.38416 12.1567 5.39781 12.178C5.41145 12.1994 5.42559 12.2205 5.44022 12.2412C5.45486 12.262 5.46997 12.2823 5.48558 12.3023C5.50118 12.3224 5.51724 12.342 5.53379 12.3612C5.55031 12.3805 5.5673 12.3993 5.58474 12.4178L9.03751 16.0086L9.03751 16.0097Z"   fill="#034FA1" ></path><path d="M14.512 13.9563C12.9892 13.9563 11.752 12.6699 11.752 11.0872C11.752 9.50451 12.9892 8.21814 14.512 8.21814C16.0347 8.21814 17.272 9.50451 17.272 11.0872C17.272 12.6711 16.0347 13.9563 14.512 13.9563ZM14.512 9.67996C14.4887 9.67996 14.4661 9.67996 14.4429 9.67996C14.4196 9.67996 14.397 9.68359 14.3738 9.68359C14.3506 9.68359 14.3242 9.68723 14.301 9.68723C14.2779 9.68723 14.2549 9.69446 14.232 9.69814C14.209 9.70184 14.1892 9.70424 14.1665 9.70905C14.1438 9.71388 14.1199 9.72128 14.0974 9.72723C14.0749 9.73318 14.0541 9.73835 14.032 9.74541C14.0098 9.75245 13.9846 9.7591 13.9629 9.76723C13.9411 9.77536 13.9224 9.78711 13.901 9.79632C13.8797 9.80551 13.8565 9.81517 13.8356 9.82541C13.8147 9.83565 13.7941 9.84686 13.7738 9.85814C13.7534 9.8694 13.7353 9.8786 13.7156 9.89087C13.6958 9.90312 13.6765 9.91764 13.6574 9.93087C13.6383 9.94409 13.6177 9.95673 13.5992 9.97087C13.5808 9.98503 13.5624 9.99947 13.5447 10.0145C13.527 10.0296 13.5107 10.0459 13.4938 10.0618C13.4768 10.0777 13.459 10.0923 13.4429 10.109C13.4267 10.1258 13.4109 10.1425 13.3956 10.16C13.3803 10.1775 13.3664 10.1963 13.352 10.2145C13.3375 10.2327 13.3255 10.2501 13.312 10.269C13.2985 10.288 13.2845 10.3077 13.272 10.3272C13.2594 10.3468 13.2471 10.3689 13.2356 10.389C13.224 10.4092 13.2134 10.4302 13.2029 10.4509C13.1923 10.4716 13.1833 10.4915 13.1738 10.5127C13.1643 10.5339 13.1531 10.5565 13.1447 10.5781C13.1362 10.5998 13.1302 10.6215 13.1229 10.6436C13.1155 10.6656 13.1073 10.6867 13.101 10.709C13.0948 10.7314 13.088 10.7555 13.0829 10.7781C13.0777 10.8008 13.0723 10.8207 13.0683 10.8436C13.0643 10.8665 13.061 10.8896 13.061 10.9127C13.061 10.9357 13.0538 10.9586 13.0538 10.9818C13.0538 11.0049 13.0501 11.0313 13.0501 11.0545C13.0501 11.0777 13.0501 11.1003 13.0501 11.1236C13.0501 11.1468 13.0538 11.1695 13.0538 11.1927C13.0538 11.2159 13.061 11.2387 13.061 11.2618C13.061 11.2848 13.0643 11.308 13.0683 11.3309C13.0723 11.3538 13.0778 11.3773 13.0829 11.4C13.088 11.4226 13.0948 11.443 13.101 11.4654C13.1073 11.4878 13.1119 11.5124 13.1192 11.5345C13.1266 11.5566 13.1363 11.5783 13.1447 11.6C13.1531 11.6216 13.1606 11.6406 13.1701 11.6618C13.1796 11.683 13.1923 11.7065 13.2029 11.7272C13.2134 11.748 13.2241 11.7652 13.2356 11.7854C13.2471 11.8056 13.2594 11.8276 13.272 11.8472C13.2845 11.8668 13.2949 11.8865 13.3083 11.9054C13.3218 11.9244 13.3376 11.9417 13.352 11.96C13.3664 11.9782 13.3803 11.997 13.3956 12.0145C13.4109 12.032 13.4267 12.0487 13.4429 12.0654C13.459 12.0822 13.4768 12.1004 13.4938 12.1163C13.5107 12.1322 13.527 12.1449 13.5447 12.16C13.5624 12.175 13.5808 12.1894 13.5992 12.2036C13.6177 12.2178 13.6347 12.234 13.6538 12.2472C13.6729 12.2605 13.6922 12.2713 13.712 12.2836C13.7317 12.2959 13.7534 12.3087 13.7738 12.32C13.7941 12.3313 13.8147 12.3424 13.8356 12.3527C13.8565 12.3629 13.8761 12.3725 13.8974 12.3818C13.9187 12.391 13.9411 12.3991 13.9629 12.4072C13.9846 12.4154 14.0062 12.422 14.0283 12.429C14.0505 12.4361 14.0713 12.4449 14.0938 12.4509C14.1162 12.4569 14.1401 12.4606 14.1629 12.4654C14.1856 12.4703 14.209 12.4762 14.232 12.48C14.2549 12.4837 14.278 12.4872 14.301 12.4872C14.3242 12.4872 14.3469 12.4945 14.3701 12.4945C14.3933 12.4945 14.416 12.4981 14.4392 12.4981C14.4625 12.4981 14.4851 12.4945 14.5083 12.4945C14.5315 12.4945 14.5579 12.4909 14.581 12.4909C14.6042 12.4909 14.6271 12.4836 14.6501 12.4836C14.6732 12.4836 14.6927 12.477 14.7156 12.4727C14.7384 12.4684 14.7621 12.4636 14.7847 12.4581C14.8073 12.4527 14.8315 12.4465 14.8538 12.44C14.8761 12.4334 14.8973 12.4258 14.9192 12.4181C14.9412 12.4105 14.9631 12.405 14.9847 12.3963C15.0062 12.3876 15.029 12.377 15.0501 12.3672C15.0712 12.3575 15.0914 12.3453 15.112 12.3345C15.1325 12.3237 15.1537 12.3136 15.1738 12.3018C15.1938 12.29 15.2125 12.2782 15.232 12.2654C15.2514 12.2526 15.2714 12.2391 15.2901 12.2254C15.3089 12.2117 15.3266 12.1964 15.3447 12.1818C15.3627 12.1672 15.3783 12.1537 15.3956 12.1381C15.4129 12.1226 15.43 12.1072 15.4465 12.0909C15.463 12.0745 15.4817 12.0571 15.4974 12.04C15.5131 12.0228 15.5262 12.0069 15.541 11.989C15.5559 11.9712 15.5708 11.9495 15.5847 11.9309C15.5986 11.9123 15.6117 11.8956 15.6247 11.8763C15.6377 11.8571 15.649 11.838 15.661 11.8181C15.6731 11.7982 15.6864 11.7768 15.6974 11.7563C15.7084 11.7359 15.7201 11.7155 15.7301 11.6945C15.7401 11.6735 15.7466 11.6505 15.7556 11.629C15.7645 11.6076 15.7732 11.5891 15.781 11.5672C15.7889 11.5454 15.7961 11.5204 15.8029 11.4981C15.8096 11.4759 15.819 11.4552 15.8247 11.4327C15.8303 11.4102 15.8347 11.3864 15.8392 11.3636C15.8438 11.3408 15.8501 11.3175 15.8501 11.2945C15.8501 11.2715 15.8574 11.2485 15.8574 11.2254C15.8574 11.2023 15.8647 11.1795 15.8647 11.1563C15.8647 11.1331 15.8647 11.1105 15.8647 11.0872C15.8647 11.0646 15.8647 11.0407 15.8647 11.0181C15.8647 10.9956 15.861 10.9752 15.861 10.9527C15.861 10.9302 15.8538 10.906 15.8538 10.8836C15.8538 10.8612 15.8469 10.8404 15.8429 10.8181C15.8389 10.7959 15.837 10.7747 15.832 10.7527C15.8269 10.7307 15.8199 10.709 15.8138 10.6872C15.8076 10.6655 15.7992 10.6432 15.792 10.6218C15.7847 10.6004 15.7784 10.5774 15.7701 10.5563C15.7619 10.5353 15.7539 10.5151 15.7447 10.4945C15.7354 10.4739 15.7259 10.4528 15.7156 10.4327C15.7053 10.4126 15.6941 10.3941 15.6829 10.3745C15.6716 10.3549 15.6587 10.3354 15.6465 10.3163C15.6343 10.2973 15.6232 10.2765 15.6101 10.2581C15.597 10.2397 15.5841 10.2249 15.5701 10.2072C15.5561 10.1895 15.5414 10.1697 15.5265 10.1527C15.5116 10.1357 15.4949 10.1217 15.4792 10.1054C15.4636 10.0891 15.4484 10.07 15.432 10.0545C15.4155 10.039 15.3982 10.0255 15.381 10.0109C15.3639 9.99621 15.348 9.98105 15.3301 9.96723C15.3123 9.95343 15.2941 9.94016 15.2756 9.92723C15.2571 9.91432 15.2366 9.90286 15.2174 9.89087C15.1983 9.87888 15.1789 9.86554 15.1592 9.8545C15.1395 9.84347 15.1176 9.83547 15.0974 9.82541C15.0772 9.81535 15.0599 9.80537 15.0392 9.79632C15.0185 9.78727 14.9949 9.7789 14.9738 9.77087C14.9527 9.76283 14.9335 9.75603 14.912 9.74905C14.8905 9.74207 14.8683 9.73316 14.8465 9.72723C14.8247 9.7213 14.8031 9.71754 14.781 9.71268C14.759 9.70783 14.7379 9.7019 14.7156 9.69814C14.6933 9.69438 14.6689 9.69087 14.6465 9.69087C14.624 9.69087 14.6036 9.68359 14.581 9.68359C14.5585 9.68359 14.5345 9.67996 14.512 9.67996Z"   fill="#034FA1" ></path><path     fill="#034FA1"  d="M17.8494 4.7192L16.3581 3.16685C16.0911 2.88894 16.0916 2.44968 16.3591 2.17233L16.3591 2.17233C16.6415 1.87967 17.1105 1.88018 17.3922 2.17345L18.8834 3.72584C19.1497 4.00303 19.15 4.44089 18.8841 4.71845L18.8841 4.71845C18.6022 5.01283 18.1318 5.01317 17.8494 4.7192Z"></path><path     fill="#CC4E1D"  d="M6.97122 17.3694L4.2282 14.5197C3.96074 14.2418 3.96099 13.8022 4.22878 13.5246L4.22878 13.5246C4.51095 13.2321 4.97954 13.2324 5.26137 13.5252L8.00439 16.375C8.27185 16.6528 8.2716 17.0925 8.00382 17.37L8.00382 17.37C7.72164 17.6625 7.25305 17.6622 6.97122 17.3694Z"></path></svg>