<svg xmlns="http://www.w3.org/2000/svg" xmlns:xlink="http://www.w3.org/1999/xlink" width="24" height="24" viewBox="0 0 24 24" fill="none"><path     fill="#034FA1"  d="M6.99257 20.4655L16.6369 20.4655C16.8737 20.4655 17.1007 20.5605 17.2667 20.7294L17.269 20.7317C17.6074 21.0757 17.6057 21.6281 17.2651 21.97L17.2651 21.97C17.1 22.1359 16.8755 22.2291 16.6415 22.2291L6.99257 22.2291L6.96712 22.2291L6.93803 22.2291L6.89803 22.2291L6.88348 22.2145L6.85803 22.2145L6.81803 22.2L6.78894 22.2L6.76348 22.2L6.73803 22.1891L6.70894 22.1745L6.68348 22.1745L6.65439 22.1636L6.62894 22.1491L6.60348 22.1345L6.57439 22.12L6.5453 22.1091L6.53439 22.0945L6.50894 22.08L6.47985 22.0655L6.45439 22.0545L6.43985 22.0291L6.41439 22.0145L6.39985 21.9855L6.37439 21.9709L6.3453 21.9491L6.33076 21.9345L6.30894 21.9055L6.30894 21.8909L6.27985 21.8655L6.25076 21.84L6.25076 21.8109L6.2253 21.8L6.21076 21.7709L6.21076 21.7418L6.19985 21.72L6.1853 21.6909L6.17076 21.6618L6.17076 21.6364L6.15985 21.6109L6.1453 21.5818L6.13076 21.5564L6.13076 21.5164L6.11621 21.5055L6.11621 21.4764L6.11621 21.4327L6.11621 21.4109L6.11621 21.3818L6.11621 21.3527L6.11621 21.3273L6.11621 21.2873L6.11621 21.2764L6.11621 21.2473L6.11621 21.2036L6.13076 21.1818L6.13076 21.1527L6.1453 21.1236L6.15985 21.0982L6.15985 21.0727L6.17076 21.0473L6.17076 21.0182L6.1853 20.9891L6.21076 20.9673L6.21076 20.9382L6.2253 20.9236L6.25076 20.8836L6.25076 20.8691L6.27985 20.8436L6.29439 20.8291L6.30894 20.7891L6.33076 20.7745L6.3453 20.7491L6.37439 20.7382L6.39985 20.7091L6.41439 20.6945L6.43985 20.68L6.45439 20.6545L6.47985 20.6436L6.50894 20.6291L6.53439 20.6L6.5453 20.6L6.57439 20.5745L6.60348 20.56L6.62894 20.56L6.65439 20.5455L6.68348 20.5345L6.70894 20.52L6.73803 20.52L6.76348 20.5091L6.78894 20.5091L6.81803 20.4945L6.85803 20.48L6.88348 20.48L6.89803 20.48L6.93803 20.4655L6.96712 20.4655L6.99257 20.4655Z"></path><path   fill="rgba(3, 79, 161, 1)"  d="M4.72745 1.01812L19.2729 1.01812C21.3214 1.01812 22.982 2.67873 22.982 4.72721L22.982 14.909C22.982 16.9575 21.3214 18.6181 19.2729 18.6181L4.72745 18.6181C2.67898 18.6181 1.01836 16.9575 1.01836 14.909L1.01836 4.72721C1.01836 2.67873 2.67898 1.01812 4.72745 1.01812ZM4.72745 2.61812C3.56263 2.61812 2.61836 3.56239 2.61836 4.72721L2.61836 14.909C2.61836 16.0738 3.56263 17.0181 4.72745 17.0181L19.2729 17.0181C20.4377 17.0181 21.382 16.0738 21.382 14.909L21.382 4.72721C21.382 3.56239 20.4377 2.61812 19.2729 2.61812L4.72745 2.61812Z"></path><path d="M11.8147 12.7068L11.8095 12.7068C11.7479 12.7067 11.6862 12.7051 11.6246 12.7019C11.5629 12.6988 11.5014 12.6941 11.44 12.6879C11.3786 12.6817 11.3174 12.674 11.2564 12.6648C11.1954 12.6556 11.1346 12.6448 11.0741 12.6326C11.0136 12.6203 10.9535 12.6066 10.8936 12.5914C10.8338 12.5761 10.7744 12.5594 10.7154 12.5413C10.6564 12.5231 10.5978 12.5035 10.5398 12.4824C10.4817 12.4613 10.4242 12.4388 10.3672 12.4149C10.3103 12.391 10.2539 12.3656 10.1982 12.3389C10.1424 12.3122 10.0874 12.2841 10.033 12.2547C9.97867 12.2252 9.92505 12.1944 9.87218 12.1623C9.81931 12.1302 9.76725 12.0968 9.71601 12.0621C9.66478 12.0274 9.61441 11.9915 9.56492 11.9543C9.51541 11.9171 9.46685 11.8787 9.41924 11.8391C9.37161 11.7995 9.32497 11.7588 9.27933 11.7169C9.23369 11.6749 9.1891 11.6319 9.14555 11.5878C9.102 11.5437 9.05955 11.4985 9.0182 11.4523C8.97686 11.4061 8.93666 11.3588 8.89761 11.3106C8.85856 11.2624 8.8207 11.2133 8.78404 11.1632C8.74738 11.1131 8.71196 11.0621 8.67778 11.0102C8.64361 10.9584 8.61071 10.9057 8.5791 10.8522C8.54748 10.7988 8.51719 10.7445 8.4882 10.6895C8.45923 10.6345 8.43161 10.5789 8.40535 10.5225C8.37908 10.4662 8.3542 10.4092 8.33071 10.3516C8.30722 10.294 8.28514 10.2359 8.26448 10.1772C8.24381 10.1185 8.22458 10.0594 8.2068 9.99973C8.18902 9.94008 8.17269 9.88004 8.15782 9.81961C8.14297 9.75916 8.12958 9.69838 8.11768 9.63727C8.10578 9.57617 8.09536 9.51479 8.08644 9.45317C8.07752 9.39154 8.07011 9.32974 8.0642 9.26774C8.0583 9.20575 8.05389 9.14364 8.051 9.08143C8.04812 9.01922 8.04674 8.95697 8.04688 8.8947L8.05187 6.56949C8.05195 6.54529 8.05263 6.52108 8.0539 6.49691C8.05516 6.47273 8.05701 6.4486 8.05944 6.42452C8.06187 6.40044 8.06489 6.37643 8.06848 6.35249C8.07208 6.32855 8.07626 6.30472 8.08101 6.28099C8.08576 6.25726 8.09108 6.23366 8.09698 6.21019C8.10288 6.18673 8.10934 6.16342 8.11637 6.14027C8.1234 6.11712 8.13098 6.09416 8.13912 6.07139C8.14725 6.04861 8.15594 6.02605 8.16518 6.00372C8.17441 5.98137 8.18418 5.95927 8.19448 5.93741C8.20478 5.91554 8.21561 5.89395 8.22697 5.87262C8.23832 5.85129 8.25018 5.83026 8.26255 5.80952C8.27493 5.78878 8.2878 5.76835 8.30116 5.74825C8.31452 5.72814 8.32836 5.70838 8.34268 5.68896C8.357 5.66954 8.37178 5.65048 8.38703 5.6318C8.40228 5.6131 8.41796 5.5948 8.43408 5.57688C8.45022 5.55896 8.46678 5.54145 8.48376 5.52436C8.50074 5.50726 8.51813 5.49059 8.53591 5.47435C8.5537 5.45812 8.57187 5.44233 8.59042 5.42699C8.60898 5.41164 8.62789 5.39676 8.64717 5.38235C8.66645 5.36794 8.68606 5.35402 8.70601 5.34059C8.72596 5.32715 8.74622 5.31421 8.7668 5.30177C8.78738 5.28933 8.80825 5.27741 8.8294 5.266C8.85056 5.2546 8.87198 5.24372 8.89367 5.23337C8.91535 5.22302 8.93727 5.21321 8.95943 5.20394C8.98158 5.19468 9.00396 5.18597 9.02654 5.17781C9.04912 5.16964 9.07188 5.16204 9.09483 5.155C9.11778 5.14797 9.14089 5.14151 9.16416 5.13562C9.18742 5.12972 9.2108 5.1244 9.23432 5.11966C9.25784 5.11492 9.28147 5.11077 9.3052 5.10719C9.32892 5.10362 9.35272 5.10063 9.37659 5.09823C9.40045 5.09583 9.42435 5.09403 9.44831 5.09282C9.47227 5.0916 9.49623 5.09098 9.52023 5.09094L9.52219 5.09094L14.1216 5.09703C14.1456 5.09706 14.1696 5.0977 14.1936 5.09892C14.2176 5.10015 14.2416 5.10197 14.2655 5.10437C14.2894 5.10679 14.3133 5.1098 14.337 5.11339C14.3608 5.11699 14.3845 5.12117 14.408 5.12593C14.4316 5.1307 14.455 5.13605 14.4783 5.14198C14.5017 5.14791 14.5248 5.15441 14.5478 5.16149C14.5708 5.16857 14.5936 5.17622 14.6162 5.18442C14.6388 5.19263 14.6612 5.20139 14.6834 5.21072C14.7056 5.22003 14.7276 5.22989 14.7493 5.24029C14.771 5.2507 14.7924 5.26164 14.8136 5.27311C14.8348 5.28458 14.8557 5.29657 14.8763 5.30908C14.8969 5.32158 14.9172 5.33459 14.9371 5.3481C14.9571 5.36161 14.9767 5.37561 14.996 5.39009C15.0153 5.40457 15.0342 5.41952 15.0528 5.43494C15.0713 5.45036 15.0895 5.46624 15.1073 5.48257C15.1251 5.49889 15.1424 5.51564 15.1594 5.53281C15.1764 5.55 15.1929 5.56759 15.209 5.5856C15.2251 5.6036 15.2408 5.62199 15.256 5.64077C15.2712 5.65955 15.286 5.6787 15.3003 5.6982C15.3146 5.71772 15.3284 5.73757 15.3417 5.75776C15.355 5.77796 15.3678 5.79847 15.3802 5.8193C15.3925 5.84013 15.4043 5.86125 15.4156 5.88267C15.4269 5.90408 15.4376 5.92576 15.4479 5.94771C15.4581 5.96967 15.4678 5.99186 15.477 6.01429C15.4861 6.03672 15.4948 6.05937 15.5028 6.08222C15.5109 6.10507 15.5184 6.12812 15.5253 6.15135C15.5322 6.17457 15.5386 6.19796 15.5444 6.22151C15.5502 6.24506 15.5554 6.26873 15.5601 6.29253C15.5647 6.31633 15.5688 6.34024 15.5723 6.36424C15.5758 6.38825 15.5787 6.41233 15.581 6.43648C15.5833 6.46063 15.585 6.48482 15.5862 6.50905C15.5873 6.53328 15.5878 6.55754 15.5878 6.5818L15.5824 8.91177C15.5823 8.97393 15.5807 9.03603 15.5775 9.09811C15.5743 9.16018 15.5697 9.22215 15.5635 9.28399C15.5574 9.34583 15.5497 9.40749 15.5406 9.46895C15.5314 9.53042 15.5208 9.59161 15.5086 9.65255C15.4965 9.71349 15.4829 9.7741 15.4678 9.83436C15.4528 9.89463 15.4362 9.95448 15.4183 10.0139C15.4003 10.0734 15.3809 10.1323 15.36 10.1908C15.3392 10.2493 15.3169 10.3072 15.2933 10.3646C15.2696 10.422 15.2446 10.4788 15.2182 10.5349C15.1917 10.5911 15.164 10.6465 15.1349 10.7013C15.1058 10.7561 15.0753 10.8101 15.0436 10.8634C15.0119 10.9166 14.9789 10.9691 14.9446 11.0207C14.9103 11.0723 14.8748 11.1231 14.8381 11.173C14.8013 11.2229 14.7634 11.2718 14.7243 11.3198C14.6851 11.3678 14.6449 11.4148 14.6035 11.4608C14.5621 11.5068 14.5196 11.5518 14.476 11.5957C14.4324 11.6396 14.3878 11.6824 14.3421 11.7241C14.2964 11.7658 14.2498 11.8063 14.2021 11.8457C14.1545 11.8851 14.1059 11.9233 14.0564 11.9602C14.007 11.9972 13.9566 12.033 13.9054 12.0675C13.8541 12.102 13.8021 12.1352 13.7493 12.1671C13.6964 12.199 13.6428 12.2296 13.5885 12.2588C13.5342 12.2881 13.4792 12.316 13.4235 12.3425C13.3678 12.3691 13.3115 12.3942 13.2546 12.418C13.1977 12.4418 13.1403 12.4641 13.0823 12.485C13.0243 12.5059 12.9659 12.5254 12.9069 12.5434C12.848 12.5614 12.7887 12.578 12.7289 12.5931C12.6692 12.6082 12.6091 12.6218 12.5487 12.6339C12.4883 12.646 12.4277 12.6566 12.3667 12.6657C12.3058 12.6748 12.2447 12.6824 12.1835 12.6885C12.1222 12.6946 12.0608 12.6992 11.9993 12.7022C11.9378 12.7053 11.8762 12.7068 11.8147 12.7068ZM9.52036 5.93721C9.51008 5.93722 9.4998 5.93748 9.48953 5.938C9.47927 5.93852 9.46902 5.9393 9.45879 5.94033C9.44856 5.94135 9.43836 5.94263 9.4282 5.94417C9.41803 5.94569 9.40791 5.94747 9.39783 5.9495C9.38774 5.95153 9.37772 5.95381 9.36775 5.95634C9.35778 5.95887 9.34788 5.96164 9.33804 5.96465C9.32821 5.96766 9.31845 5.97092 9.30878 5.97442C9.2991 5.97791 9.28951 5.98164 9.28001 5.98561C9.27052 5.98958 9.26113 5.99379 9.25183 5.99823C9.24254 6.00266 9.23336 6.00733 9.22429 6.01221C9.21522 6.0171 9.20628 6.02221 9.19746 6.02754C9.18864 6.03287 9.17996 6.03841 9.17141 6.04417C9.16286 6.04993 9.15446 6.0559 9.1462 6.06206C9.13793 6.06824 9.12982 6.07461 9.12188 6.08118C9.11392 6.08776 9.10614 6.09454 9.09851 6.1015C9.09088 6.10845 9.08343 6.11559 9.07616 6.12292C9.06888 6.13024 9.06178 6.13775 9.05487 6.14543C9.04796 6.15311 9.04123 6.16095 9.03469 6.16896C9.02816 6.17697 9.02183 6.18513 9.0157 6.19345C9.00956 6.20178 9.00363 6.21025 8.99789 6.21886C8.99217 6.22748 8.98665 6.23624 8.98135 6.24513C8.97605 6.25401 8.97097 6.26303 8.9661 6.27217C8.96123 6.28131 8.95659 6.29056 8.95218 6.29993C8.94776 6.3093 8.94358 6.31877 8.93962 6.32834C8.93566 6.33792 8.93194 6.34759 8.92845 6.35735C8.92496 6.36711 8.92171 6.37695 8.91869 6.38687C8.91569 6.39679 8.91292 6.40677 8.91039 6.41683C8.90787 6.42689 8.90559 6.437 8.90355 6.44718C8.90152 6.45735 8.89972 6.46755 8.89818 6.47781C8.89664 6.48807 8.89535 6.49836 8.89431 6.50868C8.89326 6.519 8.89247 6.52935 8.89192 6.53971C8.89138 6.55008 8.89109 6.56044 8.89106 6.57081L8.88568 8.89668C8.88557 8.9451 8.88663 8.99348 8.88888 9.04184C8.89113 9.09021 8.89455 9.13848 8.89915 9.18666C8.90374 9.23485 8.90951 9.2829 8.91644 9.3308C8.92337 9.3787 8.93146 9.42641 8.94072 9.4739C8.94998 9.52141 8.96038 9.56865 8.97193 9.61564C8.98349 9.66264 8.99618 9.7093 9.01001 9.75565C9.02383 9.80201 9.03878 9.84801 9.05483 9.89362C9.0709 9.93924 9.08806 9.98442 9.10633 10.0292C9.12459 10.0739 9.14393 10.1182 9.16435 10.162C9.18477 10.2058 9.20624 10.2491 9.22877 10.2919C9.25129 10.3346 9.27484 10.3768 9.29942 10.4183C9.324 10.4599 9.34957 10.5009 9.37614 10.5411C9.4027 10.5815 9.43024 10.6211 9.45874 10.66C9.48723 10.699 9.51666 10.7372 9.54702 10.7746C9.57737 10.8121 9.60861 10.8488 9.64076 10.8848C9.67291 10.9207 9.70591 10.9558 9.73976 10.9901C9.77361 11.0244 9.80827 11.0578 9.84376 11.0904C9.87924 11.123 9.91549 11.1547 9.95251 11.1854C9.98952 11.2162 10.0273 11.2461 10.0657 11.275C10.1042 11.3039 10.1434 11.3318 10.1832 11.3588C10.223 11.3857 10.2635 11.4117 10.3046 11.4367C10.3457 11.4616 10.3874 11.4856 10.4296 11.5085C10.4719 11.5313 10.5147 11.5532 10.558 11.5739C10.6013 11.5947 10.6451 11.6144 10.6894 11.633C10.7337 11.6516 10.7784 11.6691 10.8235 11.6855C10.8687 11.7018 10.9142 11.7171 10.9601 11.7312C11.0059 11.7453 11.0521 11.7583 11.0986 11.7702C11.1451 11.782 11.1919 11.7927 11.2389 11.8022C11.286 11.8117 11.3332 11.8201 11.3806 11.8272C11.4281 11.8344 11.4756 11.8404 11.5234 11.8452C11.5711 11.85 11.6189 11.8536 11.6668 11.8561C11.7147 11.8585 11.7626 11.8598 11.8106 11.8599L11.8145 11.8599C11.8624 11.8599 11.9102 11.8587 11.958 11.8563C12.0058 11.8539 12.0535 11.8504 12.1012 11.8457C12.1488 11.8409 12.1963 11.835 12.2437 11.8279C12.291 11.8209 12.3381 11.8126 12.3851 11.8032C12.432 11.7938 12.4787 11.7832 12.5252 11.7715C12.5716 11.7598 12.6177 11.7469 12.6635 11.7329C12.7093 11.7189 12.7548 11.7038 12.7998 11.6875C12.8449 11.6713 12.8895 11.6539 12.9338 11.6354C12.978 11.617 13.0218 11.5974 13.0651 11.5768C13.1083 11.5562 13.1511 11.5345 13.1933 11.5118C13.2355 11.489 13.2772 11.4652 13.3183 11.4404C13.3593 11.4156 13.3998 11.3898 13.4396 11.363C13.4794 11.3362 13.5186 11.3084 13.557 11.2797C13.5955 11.2509 13.6332 11.2213 13.6703 11.1906C13.7073 11.16 13.7436 11.1285 13.7791 11.0961C13.8146 11.0637 13.8493 11.0305 13.8831 10.9963C13.917 10.9622 13.95 10.9273 13.9822 10.8915C14.0144 10.8558 14.0457 10.8192 14.0761 10.7819C14.1065 10.7446 14.136 10.7066 14.1646 10.6678C14.1932 10.6291 14.2208 10.5896 14.2474 10.5495C14.2741 10.5093 14.2997 10.4686 14.3244 10.4272C14.3491 10.3858 14.3727 10.3438 14.3953 10.3012C14.418 10.2586 14.4395 10.2155 14.4601 10.1719C14.4806 10.1283 14.5001 10.0842 14.5185 10.0395C14.5369 9.99495 14.5542 9.94991 14.5704 9.90446C14.5866 9.859 14.6017 9.81316 14.6157 9.76697C14.6296 9.72077 14.6425 9.67424 14.6542 9.6274C14.6659 9.58056 14.6765 9.53345 14.6859 9.48609C14.6954 9.43873 14.7036 9.39116 14.7108 9.34338C14.7179 9.29561 14.7238 9.24769 14.7286 9.19963C14.7334 9.15156 14.7371 9.1034 14.7395 9.05515C14.742 9.0069 14.7433 8.95863 14.7434 8.91031L14.7487 6.57981C14.7488 6.56941 14.7485 6.55902 14.7481 6.54863C14.7476 6.53825 14.7468 6.52787 14.7458 6.51752C14.7448 6.50717 14.7436 6.49685 14.7421 6.48656C14.7406 6.47627 14.7389 6.46602 14.7369 6.45582C14.7349 6.44561 14.7327 6.43546 14.7302 6.42537C14.7277 6.41527 14.725 6.40525 14.722 6.3953C14.719 6.38534 14.7158 6.37546 14.7124 6.36566C14.7089 6.35587 14.7052 6.34616 14.7013 6.33655C14.6974 6.32693 14.6932 6.31741 14.6888 6.308C14.6845 6.2986 14.6798 6.2893 14.675 6.28012C14.6702 6.27094 14.6651 6.26188 14.6598 6.25295C14.6545 6.24402 14.649 6.23523 14.6433 6.22656C14.6376 6.21791 14.6317 6.2094 14.6256 6.20104C14.6195 6.19267 14.6131 6.18447 14.6066 6.17641C14.6001 6.16836 14.5934 6.16048 14.5865 6.15276C14.5796 6.14504 14.5725 6.1375 14.5652 6.13013C14.5579 6.12277 14.5505 6.11559 14.5429 6.10859C14.5352 6.10159 14.5275 6.09479 14.5195 6.08817C14.5116 6.08156 14.5035 6.07515 14.4952 6.06894C14.4869 6.06273 14.4785 6.05673 14.47 6.05095C14.4614 6.04515 14.4527 6.03957 14.4439 6.03421C14.435 6.02885 14.4261 6.02371 14.417 6.01879C14.4079 6.01388 14.3987 6.00919 14.3894 6.00472C14.3801 6.00026 14.3707 5.99603 14.3612 5.99203C14.3517 5.98804 14.3421 5.98429 14.3324 5.98077C14.3227 5.97725 14.3129 5.97397 14.3031 5.97094C14.2932 5.9679 14.2833 5.96512 14.2733 5.96257C14.2633 5.96002 14.2533 5.95773 14.2432 5.95569C14.2331 5.95365 14.2229 5.95185 14.2127 5.95031C14.2025 5.94877 14.1923 5.94748 14.1821 5.94644C14.1718 5.94541 14.1615 5.94463 14.1513 5.9441C14.141 5.94358 14.1307 5.94331 14.1204 5.94329L9.52101 5.93721L9.52036 5.93721Z" stroke="rgba(204, 78, 29, 1)" stroke-width="0.2"      fill="#CC4E1D" ></path><path d="M11.8126 14.4584L11.7926 14.4584L11.7726 14.4584L11.7526 14.4484L11.7326 14.4484L11.7126 14.4484L11.6926 14.4384L11.6726 14.4284L11.6526 14.4284L11.6326 14.4184L11.6126 14.4084L11.5926 14.3984L11.5826 14.3884L11.5626 14.3684L11.5426 14.3584L11.5326 14.3484L11.5126 14.3284L11.5026 14.3184L11.4926 14.2984L11.4726 14.2884L11.4626 14.2684L11.4526 14.2484L11.4426 14.2284L11.4326 14.2184L11.4226 14.1984L11.4126 14.1784L11.4126 14.1584L11.4026 14.1384L11.4026 14.1184L11.3926 14.0984L11.3926 14.0784L11.3926 14.0584L11.3926 14.0284L11.393 12.2784L11.393 12.2584L11.393 12.2384L11.393 12.2184L11.403 12.1984L11.403 12.1784L11.4131 12.1584L11.4131 12.1384L11.4231 12.1184L11.4331 12.0984L11.4431 12.0784L11.4531 12.0684L11.4631 12.0484L11.4731 12.0284L11.4931 12.0084L11.5031 11.9984L11.5132 11.9784L11.5329 11.9684L11.5429 11.9584L11.563 11.9384L11.583 11.9284L11.593 11.9184L11.613 11.9084L11.633 11.8984L11.653 11.8884L11.6731 11.8784L11.6931 11.8784L11.7131 11.8684L11.7331 11.8684L11.7531 11.8584L11.7729 11.8584L11.7929 11.8584L11.813 11.8584L11.833 11.8584L11.853 11.8584L11.873 11.8584L11.893 11.8684L11.9131 11.8684L11.9331 11.8784L11.9531 11.8784L11.9731 11.8884L11.9931 11.8984L12.0132 11.9084L12.0329 11.9184L12.0429 11.9284L12.063 11.9384L12.083 11.9584L12.093 11.9684L12.113 11.9784L12.123 11.9984L12.133 12.0084L12.153 12.0284L12.1631 12.0484L12.1731 12.0684L12.1831 12.0784L12.1931 12.0984L12.2031 12.1184L12.2031 12.1384L12.2131 12.1584L12.2231 12.1784L12.2231 12.1984L12.2231 12.2184L12.2331 12.2384L12.2331 12.2584L12.2331 12.2784L12.2326 14.0284L12.2326 14.0584L12.2326 14.0784L12.2226 14.0984L12.2226 14.1184L12.2226 14.1384L12.2126 14.1584L12.2026 14.1784L12.2026 14.1984L12.1926 14.2184L12.1826 14.2284L12.1726 14.2484L12.1626 14.2684L12.1526 14.2884L12.1326 14.2984L12.1226 14.3184L12.1126 14.3284L12.0926 14.3484L12.0826 14.3584L12.0626 14.3684L12.0426 14.3884L12.0326 14.3984L12.0126 14.4084L11.9926 14.4184L11.9726 14.4284L11.9526 14.4284L11.9326 14.4384L11.9126 14.4484L11.8926 14.4484L11.8726 14.4484L11.8526 14.4584L11.8326 14.4584L11.8126 14.4584Z" stroke="rgba(204, 78, 29, 1)" stroke-width="1"      fill="#CC4E1D" ></path><path d="M15.1859 14.8207L8.47338 14.8207C8.46652 14.8207 8.45966 14.8205 8.4528 14.8202C8.44595 14.8198 8.43909 14.8193 8.43226 14.8186C8.42543 14.8179 8.41862 14.8171 8.41183 14.8161C8.40504 14.8151 8.39828 14.8139 8.39154 14.8125C8.38481 14.8112 8.37811 14.8096 8.37145 14.808C8.36479 14.8063 8.35817 14.8044 8.3516 14.8024C8.34504 14.8004 8.33851 14.7982 8.33204 14.7959C8.32558 14.7936 8.31918 14.7911 8.31284 14.7884C8.30649 14.7858 8.30021 14.783 8.29401 14.78C8.28781 14.777 8.28167 14.7739 8.27562 14.7706C8.26956 14.7674 8.26359 14.764 8.25771 14.7604C8.25182 14.7568 8.24601 14.7531 8.24031 14.7493C8.23461 14.7454 8.229 14.7415 8.22348 14.7373C8.21796 14.7332 8.21254 14.7289 8.20723 14.7245C8.20192 14.7201 8.19673 14.7156 8.19164 14.711C8.18656 14.7063 8.18159 14.7015 8.17674 14.6966C8.17188 14.6917 8.16714 14.6867 8.16254 14.6816C8.15792 14.6764 8.15344 14.6712 8.14909 14.6658C8.14472 14.6605 8.1405 14.655 8.13641 14.6494C8.13232 14.6439 8.12837 14.6382 8.12456 14.6325C8.12074 14.6267 8.11707 14.6208 8.11355 14.6149C8.11002 14.609 8.10664 14.6029 8.1034 14.5968C8.10016 14.5907 8.09707 14.5845 8.09413 14.5783C8.09119 14.572 8.08841 14.5656 8.08579 14.5592C8.08316 14.5528 8.08069 14.5464 8.07838 14.5398C8.07606 14.5333 8.07391 14.5267 8.07192 14.5201C8.06993 14.5135 8.06809 14.5068 8.06643 14.5001C8.06476 14.4934 8.06326 14.4866 8.06192 14.4798C8.06058 14.473 8.0594 14.4662 8.05839 14.4593C8.05738 14.4525 8.05654 14.4456 8.05587 14.4387C8.05521 14.4318 8.05469 14.4249 8.05437 14.418C8.05403 14.411 8.05386 14.4041 8.05386 14.3972C8.05386 14.3903 8.05403 14.3833 8.05437 14.3764C8.05469 14.3695 8.05521 14.3626 8.05587 14.3557C8.05654 14.3488 8.05738 14.3419 8.05839 14.3351C8.0594 14.3282 8.06058 14.3214 8.06192 14.3146C8.06326 14.3078 8.06476 14.301 8.06643 14.2943C8.06809 14.2876 8.06993 14.2809 8.07192 14.2743C8.07391 14.2676 8.07606 14.2611 8.07838 14.2545C8.08069 14.248 8.08316 14.2415 8.08579 14.2351C8.08841 14.2287 8.09119 14.2224 8.09413 14.2161C8.09707 14.2099 8.10016 14.2037 8.1034 14.1976C8.10664 14.1915 8.11002 14.1854 8.11355 14.1795C8.11707 14.1736 8.12074 14.1677 8.12456 14.1619C8.12837 14.1562 8.13232 14.1505 8.13641 14.1449C8.1405 14.1394 8.14472 14.1339 8.14909 14.1285C8.15344 14.1232 8.15792 14.1179 8.16254 14.1128C8.16714 14.1077 8.17188 14.1027 8.17674 14.0978C8.18159 14.0929 8.18656 14.0881 8.19164 14.0834C8.19673 14.0788 8.20192 14.0743 8.20723 14.0699C8.21254 14.0655 8.21796 14.0612 8.22348 14.0571C8.229 14.0529 8.23461 14.0489 8.24031 14.0451C8.24601 14.0412 8.25182 14.0375 8.25771 14.034C8.26359 14.0304 8.26956 14.027 8.27562 14.0237C8.28167 14.0205 8.28781 14.0173 8.29401 14.0144C8.30021 14.0114 8.30649 14.0086 8.31284 14.006C8.31918 14.0033 8.32558 14.0008 8.33204 13.9985C8.33851 13.9961 8.34504 13.994 8.3516 13.992C8.35817 13.99 8.36479 13.9881 8.37145 13.9864C8.37811 13.9847 8.38481 13.9832 8.39154 13.9819C8.39828 13.9805 8.40504 13.9793 8.41183 13.9783C8.41862 13.9773 8.42543 13.9764 8.43226 13.9758C8.43909 13.9751 8.44595 13.9746 8.4528 13.9742C8.45966 13.9739 8.46652 13.9737 8.47338 13.9737L15.1859 13.9737C15.1927 13.9737 15.1996 13.9739 15.2064 13.9742C15.2133 13.9746 15.2202 13.9751 15.227 13.9758C15.2338 13.9764 15.2406 13.9773 15.2474 13.9783C15.2542 13.9793 15.261 13.9805 15.2677 13.9819C15.2744 13.9832 15.2811 13.9847 15.2878 13.9864C15.2945 13.9881 15.3011 13.99 15.3076 13.992C15.3142 13.994 15.3207 13.9961 15.3272 13.9985C15.3337 14.0008 15.3401 14.0033 15.3464 14.006C15.3527 14.0086 15.359 14.0114 15.3652 14.0144C15.3714 14.0173 15.3776 14.0205 15.3836 14.0237C15.3897 14.027 15.3957 14.0304 15.4015 14.034C15.4074 14.0375 15.4132 14.0412 15.4189 14.0451C15.4246 14.0489 15.4303 14.0529 15.4358 14.0571C15.4413 14.0612 15.4467 14.0655 15.452 14.0699C15.4573 14.0743 15.4625 14.0788 15.4676 14.0834C15.4727 14.0881 15.4777 14.0929 15.4825 14.0978C15.4874 14.1027 15.4921 14.1077 15.4967 14.1128C15.5013 14.1179 15.5058 14.1232 15.5102 14.1285C15.5145 14.1339 15.5187 14.1394 15.5228 14.1449C15.5269 14.1505 15.5309 14.1562 15.5347 14.1619C15.5385 14.1677 15.5422 14.1736 15.5457 14.1795C15.5492 14.1854 15.5526 14.1915 15.5558 14.1976C15.5591 14.2037 15.5622 14.2099 15.5651 14.2161C15.568 14.2224 15.5708 14.2287 15.5735 14.2351C15.5761 14.2415 15.5786 14.248 15.5809 14.2545C15.5832 14.2611 15.5853 14.2676 15.5873 14.2743C15.5893 14.2809 15.5912 14.2876 15.5928 14.2943C15.5945 14.301 15.596 14.3078 15.5973 14.3146C15.5987 14.3214 15.5998 14.3282 15.6009 14.3351C15.6019 14.3419 15.6027 14.3488 15.6034 14.3557C15.604 14.3626 15.6046 14.3695 15.6049 14.3764C15.6052 14.3833 15.6054 14.3903 15.6054 14.3972C15.6054 14.4041 15.6052 14.411 15.6049 14.418C15.6046 14.4249 15.604 14.4318 15.6034 14.4387C15.6027 14.4456 15.6019 14.4525 15.6009 14.4593C15.5998 14.4662 15.5987 14.473 15.5973 14.4798C15.596 14.4866 15.5945 14.4934 15.5928 14.5001C15.5912 14.5068 15.5893 14.5135 15.5873 14.5201C15.5853 14.5267 15.5832 14.5333 15.5809 14.5398C15.5786 14.5464 15.5761 14.5528 15.5735 14.5592C15.5708 14.5657 15.568 14.572 15.5651 14.5783C15.5622 14.5845 15.5591 14.5907 15.5558 14.5968C15.5526 14.6029 15.5492 14.609 15.5457 14.6149C15.5422 14.6208 15.5385 14.6267 15.5347 14.6325C15.5309 14.6382 15.5269 14.6439 15.5228 14.6494C15.5187 14.655 15.5145 14.6605 15.5102 14.6658C15.5058 14.6712 15.5013 14.6764 15.4967 14.6816C15.4921 14.6867 15.4874 14.6917 15.4825 14.6966C15.4777 14.7015 15.4727 14.7063 15.4676 14.711C15.4625 14.7156 15.4573 14.7201 15.452 14.7245C15.4467 14.7289 15.4413 14.7332 15.4358 14.7373C15.4303 14.7415 15.4246 14.7454 15.4189 14.7493C15.4132 14.7531 15.4074 14.7568 15.4015 14.7604C15.3957 14.764 15.3897 14.7674 15.3836 14.7706C15.3776 14.7739 15.3714 14.777 15.3652 14.78C15.359 14.783 15.3527 14.7858 15.3464 14.7884C15.3401 14.7911 15.3337 14.7936 15.3272 14.7959C15.3207 14.7982 15.3142 14.8004 15.3076 14.8024C15.3011 14.8044 15.2945 14.8063 15.2878 14.808C15.2811 14.8096 15.2744 14.8112 15.2677 14.8125C15.261 14.8139 15.2542 14.8151 15.2474 14.8161C15.2406 14.8171 15.2338 14.8179 15.227 14.8186C15.2202 14.8193 15.2133 14.8198 15.2064 14.8201C15.1996 14.8205 15.1927 14.8207 15.1859 14.8207ZM8.46093 10.5236L7.83164 10.5236C7.8076 10.5235 7.7836 10.5229 7.75961 10.5217C7.73562 10.5205 7.71166 10.5187 7.68776 10.5163C7.66386 10.5139 7.64002 10.5109 7.61626 10.5073C7.5925 10.5037 7.56884 10.4996 7.54528 10.4948C7.52173 10.4901 7.4983 10.4848 7.475 10.4788C7.45169 10.4729 7.42855 10.4664 7.40556 10.4594C7.38259 10.4523 7.35979 10.4447 7.33717 10.4365C7.31456 10.4284 7.29216 10.4196 7.26996 10.4103C7.24777 10.401 7.22582 10.3912 7.20411 10.3808C7.1824 10.3704 7.16095 10.3595 7.13977 10.3481C7.11859 10.3366 7.0977 10.3247 7.0771 10.3122C7.05649 10.2997 7.0362 10.2868 7.01623 10.2733C6.99626 10.2598 6.97662 10.2459 6.95734 10.2314C6.93805 10.217 6.91912 10.202 6.90054 10.1866C6.88198 10.1713 6.86379 10.1554 6.84599 10.1391C6.8282 10.1229 6.8108 10.1061 6.79381 10.089C6.77683 10.0719 6.76027 10.0543 6.74414 10.0363C6.728 10.0184 6.71231 10 6.69707 9.98127C6.68183 9.96252 6.66705 9.94341 6.65273 9.92394C6.63841 9.90448 6.62458 9.88465 6.61122 9.8645C6.59788 9.84435 6.58502 9.82386 6.57267 9.80306C6.56031 9.78227 6.54846 9.76118 6.53712 9.7398C6.52579 9.71842 6.51498 9.69677 6.5047 9.67486C6.49442 9.65294 6.48468 9.63079 6.47548 9.60839C6.46627 9.58598 6.45761 9.56338 6.44951 9.54055C6.4414 9.51772 6.43385 9.4947 6.42687 9.4715C6.41987 9.4483 6.41345 9.42495 6.4076 9.40143C6.40174 9.37791 6.39646 9.35427 6.39176 9.33049C6.38705 9.30671 6.38292 9.28282 6.37938 9.25884C6.37583 9.23485 6.37287 9.21079 6.37049 9.18667C6.36812 9.16254 6.36633 9.13837 6.36512 9.11415C6.36392 9.08993 6.36331 9.0657 6.36328 9.04145L6.36328 8.61798C6.36331 8.59373 6.36392 8.5695 6.36512 8.54528C6.36633 8.52106 6.36812 8.49689 6.37049 8.47276C6.37287 8.44864 6.37583 8.42458 6.37938 8.40059C6.38292 8.37661 6.38705 8.35273 6.39176 8.32894C6.39646 8.30517 6.40174 8.28152 6.4076 8.258C6.41345 8.23448 6.41987 8.21112 6.42687 8.18792C6.43385 8.16473 6.4414 8.14171 6.44951 8.11888C6.45761 8.09606 6.46627 8.07345 6.47548 8.05105C6.48468 8.02865 6.49442 8.00649 6.5047 7.98458C6.51498 7.96266 6.52579 7.94101 6.53712 7.91963C6.54846 7.89825 6.56031 7.87717 6.57267 7.85637C6.58502 7.83557 6.59788 7.81509 6.61122 7.79493C6.62458 7.77477 6.63841 7.75496 6.65273 7.73549C6.66705 7.71602 6.68183 7.69691 6.69707 7.67816C6.71231 7.65942 6.728 7.64107 6.74414 7.6231C6.76027 7.60514 6.77683 7.58758 6.79381 7.57043C6.8108 7.55329 6.8282 7.53658 6.84599 7.52029C6.86379 7.50399 6.88198 7.48815 6.90054 7.47277C6.91912 7.45739 6.93805 7.44248 6.95734 7.42803C6.97662 7.41358 6.99626 7.39961 7.01623 7.38613C7.0362 7.37266 7.05649 7.35969 7.0771 7.34721C7.0977 7.33474 7.11859 7.32278 7.13977 7.31134C7.16095 7.2999 7.1824 7.28899 7.20411 7.27861C7.22582 7.26824 7.24777 7.2584 7.26996 7.2491C7.29216 7.23981 7.31456 7.23108 7.33717 7.2229C7.35979 7.21471 7.38259 7.20709 7.40556 7.20005C7.42855 7.19299 7.45169 7.1865 7.475 7.18059C7.4983 7.17468 7.52173 7.16935 7.54528 7.16461C7.56884 7.15985 7.5925 7.15569 7.61626 7.15211C7.64002 7.14853 7.66386 7.14554 7.68776 7.14314C7.71166 7.14074 7.73562 7.13894 7.75961 7.13773C7.7836 7.13651 7.8076 7.13589 7.83164 7.13586L8.46093 7.13586C8.4678 7.13586 8.47466 7.13604 8.48151 7.13638C8.48837 7.13672 8.49523 7.13722 8.50206 7.1379C8.50889 7.13858 8.51569 7.13943 8.52248 7.14044C8.52927 7.14147 8.53604 7.14265 8.54278 7.144C8.5495 7.14535 8.5562 7.14687 8.56286 7.14856C8.56952 7.15024 8.57614 7.15209 8.58271 7.1541C8.58928 7.15611 8.5958 7.15829 8.60226 7.16062C8.60872 7.16295 8.61513 7.16545 8.62148 7.1681C8.62782 7.17075 8.6341 7.17355 8.64031 7.17652C8.64651 7.17948 8.65264 7.1826 8.6587 7.18587C8.66474 7.18914 8.67072 7.19255 8.67661 7.19612C8.6825 7.19968 8.6883 7.20338 8.69401 7.20723C8.69971 7.21108 8.70532 7.21507 8.71084 7.21919C8.71636 7.22332 8.72177 7.22759 8.72708 7.23199C8.73239 7.23638 8.73758 7.24091 8.74267 7.24557C8.74776 7.25022 8.75273 7.25499 8.75758 7.2599C8.76244 7.2648 8.76717 7.26981 8.77178 7.27495C8.77639 7.28008 8.78087 7.28532 8.78523 7.29068C8.78959 7.29604 8.79381 7.30151 8.7979 7.30708C8.802 7.31264 8.80594 7.31831 8.80976 7.32407C8.81357 7.32983 8.81724 7.33568 8.82077 7.34163C8.8243 7.34757 8.82768 7.35359 8.83092 7.3597C8.83416 7.36582 8.83725 7.37201 8.84019 7.37827C8.84311 7.38453 8.84589 7.39087 8.84852 7.39727C8.85116 7.40368 8.85362 7.41015 8.85593 7.41667C8.85825 7.42319 8.8604 7.42977 8.86239 7.4364C8.86439 7.44304 8.86622 7.44972 8.86789 7.45644C8.86955 7.46316 8.87106 7.46992 8.8724 7.47671C8.87373 7.48351 8.87491 7.49034 8.87592 7.4972C8.87693 7.50405 8.87777 7.51092 8.87844 7.51781C8.87911 7.52471 8.87962 7.53163 8.87995 7.53855C8.88029 7.54547 8.88046 7.55239 8.88046 7.55933L8.88046 10.1001C8.88046 10.107 8.88029 10.114 8.87995 10.1209C8.87962 10.1278 8.87911 10.1347 8.87844 10.1416C8.87777 10.1485 8.87693 10.1554 8.87592 10.1622C8.87491 10.1691 8.87373 10.1759 8.8724 10.1827C8.87106 10.1895 8.86955 10.1963 8.86789 10.203C8.86622 10.2097 8.86439 10.2164 8.86239 10.223C8.8604 10.2297 8.85825 10.2362 8.85593 10.2428C8.85362 10.2493 8.85116 10.2558 8.84852 10.2622C8.84589 10.2686 8.84311 10.2749 8.84019 10.2812C8.83725 10.2874 8.83416 10.2936 8.83092 10.2997C8.82768 10.3058 8.8243 10.3119 8.82077 10.3178C8.81724 10.3237 8.81357 10.3296 8.80976 10.3354C8.80594 10.3411 8.802 10.3468 8.7979 10.3524C8.79381 10.3579 8.78959 10.3634 8.78523 10.3688C8.78087 10.3741 8.77639 10.3794 8.77178 10.3845C8.76717 10.3896 8.76244 10.3946 8.75758 10.3995C8.75273 10.4044 8.74776 10.4092 8.74267 10.4139C8.73758 10.4185 8.73239 10.423 8.72708 10.4274C8.72177 10.4318 8.71636 10.4361 8.71084 10.4402C8.70532 10.4444 8.69971 10.4483 8.69401 10.4522C8.6883 10.4561 8.6825 10.4598 8.67661 10.4633C8.67072 10.4669 8.66474 10.4703 8.6587 10.4736C8.65264 10.4768 8.64651 10.48 8.64031 10.4829C8.6341 10.4859 8.62782 10.4887 8.62148 10.4913C8.61513 10.494 8.60872 10.4965 8.60226 10.4988C8.5958 10.5012 8.58928 10.5033 8.58271 10.5053C8.57614 10.5073 8.56952 10.5092 8.56286 10.5109C8.5562 10.5126 8.5495 10.5141 8.54278 10.5154C8.53604 10.5168 8.52927 10.518 8.52248 10.519C8.51569 10.52 8.50889 10.5209 8.50206 10.5215C8.49523 10.5222 8.48837 10.5227 8.48151 10.5231C8.47466 10.5234 8.4678 10.5236 8.46093 10.5236ZM7.83164 7.98279C7.82134 7.9828 7.81105 7.98306 7.80076 7.98358C7.79048 7.9841 7.78022 7.98488 7.76998 7.98591C7.75973 7.98694 7.74951 7.98822 7.73933 7.98975C7.72914 7.99129 7.71901 7.99307 7.70891 7.99511C7.69882 7.99714 7.68877 7.99942 7.67878 8.00195C7.6688 8.00448 7.65889 8.00726 7.64904 8.01029C7.63919 8.01332 7.62941 8.01658 7.61972 8.02008C7.61003 8.02359 7.60043 8.02734 7.59092 8.03132C7.58141 8.0353 7.572 8.03951 7.56269 8.04397C7.55339 8.04841 7.5442 8.05309 7.53512 8.05798C7.52604 8.06289 7.51708 8.06801 7.50826 8.07336C7.49943 8.0787 7.49073 8.08427 7.48217 8.09004C7.47361 8.09582 7.4652 8.10181 7.45693 8.10799C7.44866 8.11418 7.44055 8.12058 7.4326 8.12718C7.42464 8.13377 7.41684 8.14055 7.40921 8.14753C7.40158 8.15451 7.39412 8.16167 7.38684 8.16902C7.37957 8.17637 7.37247 8.1839 7.36555 8.1916C7.35864 8.1993 7.35192 8.20717 7.34539 8.21521C7.33885 8.22323 7.33251 8.23142 7.32638 8.23977C7.32025 8.24811 7.31433 8.2566 7.3086 8.26524C7.30287 8.27388 7.29736 8.28266 7.29207 8.29157C7.28677 8.30048 7.28169 8.30952 7.27683 8.31869C7.27198 8.32785 7.26735 8.33712 7.26295 8.34652C7.25854 8.35591 7.25436 8.36541 7.25042 8.37501C7.24647 8.38461 7.24276 8.3943 7.23929 8.40408C7.23582 8.41387 7.23258 8.42373 7.22958 8.43367C7.22659 8.44361 7.22383 8.45362 7.22132 8.4637C7.21882 8.47378 7.21656 8.48392 7.21455 8.49411C7.21253 8.5043 7.21076 8.51453 7.20924 8.52481C7.20772 8.53509 7.20645 8.5454 7.20543 8.55575C7.20441 8.56608 7.20364 8.57645 7.20313 8.58682C7.20261 8.59721 7.20235 8.6076 7.20234 8.61798L7.20234 9.04145C7.20235 9.05184 7.20261 9.06222 7.20313 9.0726C7.20364 9.08299 7.20441 9.09335 7.20543 9.10368C7.20645 9.11402 7.20772 9.12434 7.20924 9.13462C7.21076 9.1449 7.21253 9.15513 7.21455 9.16532C7.21656 9.17551 7.21882 9.18565 7.22132 9.19573C7.22383 9.2058 7.22659 9.21582 7.22958 9.22576C7.23258 9.2357 7.23582 9.24557 7.23929 9.25535C7.24276 9.26513 7.24647 9.27483 7.25042 9.28442C7.25436 9.29402 7.25854 9.30352 7.26295 9.31291C7.26735 9.3223 7.27198 9.33157 7.27683 9.34074C7.28169 9.34991 7.28677 9.35895 7.29207 9.36786C7.29736 9.37676 7.30287 9.38555 7.3086 9.39419C7.31432 9.40283 7.32024 9.41132 7.32638 9.41967C7.33251 9.42802 7.33885 9.43619 7.34539 9.44423C7.35192 9.45226 7.35864 9.46013 7.36555 9.46783C7.37246 9.47552 7.37956 9.48305 7.38684 9.4904C7.39412 9.49774 7.40158 9.50491 7.40921 9.5119C7.41684 9.51888 7.42464 9.52566 7.4326 9.53225C7.44055 9.53886 7.44866 9.54525 7.45693 9.55144C7.4652 9.55762 7.47361 9.5636 7.48217 9.56939C7.49073 9.57517 7.49943 9.58073 7.50826 9.58607C7.51708 9.59142 7.52604 9.59654 7.53512 9.60144C7.54419 9.60635 7.55338 9.61102 7.56269 9.61546C7.572 9.61991 7.58141 9.62413 7.59092 9.62811C7.60043 9.6321 7.61003 9.63584 7.61972 9.63935C7.62941 9.64286 7.63919 9.64611 7.64904 9.64914C7.65889 9.65217 7.6688 9.65495 7.67878 9.65748C7.68877 9.66001 7.69882 9.6623 7.70891 9.66432C7.71901 9.66636 7.72914 9.66815 7.73933 9.66968C7.74951 9.67122 7.75973 9.6725 7.76998 9.67352C7.78022 9.67455 7.79048 9.67533 7.80076 9.67585C7.81105 9.67636 7.82134 9.67663 7.83164 9.67664L8.0414 9.67664L8.0414 7.98279L7.83164 7.98279ZM15.804 10.5236L15.1747 10.5236C15.1679 10.5236 15.161 10.5234 15.1541 10.5231C15.1473 10.5227 15.1404 10.5222 15.1336 10.5215C15.1268 10.5209 15.12 10.52 15.1132 10.519C15.1064 10.518 15.0996 10.5168 15.0929 10.5154C15.0861 10.5141 15.0794 10.5126 15.0728 10.5109C15.0661 10.5092 15.0595 10.5073 15.0529 10.5053C15.0464 10.5033 15.0399 10.5012 15.0334 10.4988C15.0269 10.4965 15.0205 10.494 15.0142 10.4913C15.0078 10.4887 15.0015 10.4859 14.9953 10.4829C14.9891 10.48 14.983 10.4768 14.9769 10.4736C14.9709 10.4703 14.9649 10.4669 14.959 10.4633C14.9532 10.4598 14.9473 10.4561 14.9416 10.4522C14.9359 10.4483 14.9303 10.4444 14.9248 10.4402C14.9193 10.4361 14.9139 10.4318 14.9086 10.4274C14.9033 10.423 14.8981 10.4185 14.893 10.4139C14.8879 10.4092 14.8829 10.4044 14.8781 10.3995C14.8732 10.3946 14.8685 10.3896 14.8639 10.3845C14.8593 10.3794 14.8548 10.3741 14.8504 10.3688C14.8461 10.3634 14.8418 10.3579 14.8377 10.3524C14.8337 10.3468 14.8297 10.3411 14.8259 10.3354C14.8221 10.3296 14.8184 10.3237 14.8149 10.3178C14.8114 10.3119 14.808 10.3058 14.8047 10.2997C14.8015 10.2936 14.7984 10.2874 14.7955 10.2812C14.7925 10.2749 14.7897 10.2686 14.7871 10.2622C14.7845 10.2558 14.782 10.2493 14.7797 10.2428C14.7774 10.2362 14.7752 10.2297 14.7733 10.223C14.7713 10.2164 14.7694 10.2097 14.7678 10.203C14.7661 10.1963 14.7646 10.1895 14.7633 10.1827C14.7619 10.1759 14.7607 10.1691 14.7597 10.1622C14.7587 10.1554 14.7579 10.1485 14.7572 10.1416C14.7565 10.1347 14.756 10.1278 14.7557 10.1209C14.7554 10.114 14.7552 10.107 14.7552 10.1001L14.7552 7.55933C14.7552 7.55239 14.7554 7.54547 14.7557 7.53855C14.756 7.53163 14.7565 7.52471 14.7572 7.51781C14.7579 7.51092 14.7587 7.50405 14.7597 7.4972C14.7607 7.49034 14.7619 7.48351 14.7633 7.47671C14.7646 7.46992 14.7661 7.46316 14.7678 7.45644C14.7694 7.44972 14.7713 7.44304 14.7733 7.4364C14.7752 7.42977 14.7774 7.42319 14.7797 7.41667C14.782 7.41015 14.7845 7.40368 14.7871 7.39727C14.7898 7.39087 14.7925 7.38453 14.7955 7.37827C14.7984 7.37201 14.8015 7.36582 14.8047 7.3597C14.808 7.3536 14.8114 7.34757 14.8149 7.34163C14.8184 7.33568 14.8221 7.32983 14.8259 7.32407C14.8297 7.31831 14.8337 7.31264 14.8377 7.30708C14.8418 7.30151 14.8461 7.29604 14.8504 7.29068C14.8548 7.28532 14.8593 7.28008 14.8639 7.27495C14.8685 7.26981 14.8732 7.2648 14.8781 7.2599C14.8829 7.25499 14.8879 7.25022 14.893 7.24557C14.8981 7.24091 14.9033 7.23638 14.9086 7.23199C14.9139 7.22759 14.9193 7.22332 14.9248 7.21919C14.9303 7.21507 14.9359 7.21108 14.9416 7.20723C14.9473 7.20338 14.9532 7.19968 14.959 7.19612C14.9649 7.19255 14.9709 7.18914 14.9769 7.18587C14.983 7.1826 14.9891 7.17948 14.9953 7.17652C15.0015 7.17355 15.0078 7.17075 15.0142 7.1681C15.0205 7.16545 15.0269 7.16295 15.0334 7.16062C15.0399 7.15829 15.0464 7.15611 15.0529 7.1541C15.0595 7.15209 15.0661 7.15024 15.0728 7.14856C15.0794 7.14687 15.0861 7.14535 15.0929 7.144C15.0996 7.14265 15.1064 7.14147 15.1132 7.14044C15.12 7.13943 15.1268 7.13858 15.1336 7.1379C15.1404 7.13722 15.1473 7.13672 15.1541 7.13638C15.161 7.13604 15.1679 7.13586 15.1747 7.13586L15.804 7.13586C15.828 7.13589 15.852 7.13651 15.876 7.13773C15.9 7.13894 15.924 7.14074 15.9479 7.14314C15.9718 7.14554 15.9956 7.14853 16.0194 7.15211C16.0432 7.1557 16.0668 7.15986 16.0904 7.16461C16.1139 7.16935 16.1374 7.17468 16.1607 7.18059C16.184 7.1865 16.2071 7.19299 16.2301 7.20005C16.2531 7.20709 16.2759 7.21471 16.2985 7.2229C16.3211 7.23108 16.3435 7.23982 16.3657 7.24911C16.3879 7.2584 16.4098 7.26824 16.4315 7.27861C16.4532 7.28899 16.4747 7.2999 16.4959 7.31134C16.5171 7.32278 16.538 7.33474 16.5586 7.34721C16.5792 7.35969 16.5995 7.37266 16.6194 7.38613C16.6394 7.39961 16.659 7.41358 16.6783 7.42803C16.6976 7.44248 16.7165 7.4574 16.7351 7.47278C16.7537 7.48817 16.7719 7.504 16.7897 7.52029C16.8074 7.53658 16.8248 7.55329 16.8418 7.57043C16.8588 7.58758 16.8754 7.60514 16.8915 7.6231C16.9077 7.64107 16.9233 7.65942 16.9386 7.67816C16.9538 7.69691 16.9686 7.71602 16.9829 7.73549C16.9972 7.75497 17.0111 7.77478 17.0244 7.79493C17.0378 7.8151 17.0506 7.83558 17.063 7.85637C17.0753 7.87717 17.0872 7.89825 17.0985 7.91963C17.1099 7.94101 17.1207 7.96266 17.1309 7.98458C17.1412 8.00649 17.151 8.02865 17.1602 8.05105C17.1694 8.07345 17.178 8.09606 17.1861 8.11888C17.1943 8.14171 17.2018 8.16473 17.2088 8.18793C17.2158 8.21113 17.2222 8.23448 17.2281 8.258C17.2339 8.28152 17.2392 8.30517 17.2439 8.32894C17.2486 8.35273 17.2527 8.37661 17.2563 8.40059C17.2598 8.42458 17.2628 8.44864 17.2652 8.47276C17.2675 8.49689 17.2693 8.52106 17.2705 8.54528C17.2717 8.5695 17.2723 8.59373 17.2724 8.61798L17.2724 9.04145C17.2723 9.0657 17.2717 9.08993 17.2705 9.11415C17.2693 9.13837 17.2675 9.16254 17.2652 9.18667C17.2628 9.21079 17.2598 9.23485 17.2563 9.25884C17.2527 9.28282 17.2486 9.30671 17.2439 9.33049C17.2392 9.35427 17.2339 9.37791 17.2281 9.40143C17.2222 9.42495 17.2158 9.4483 17.2088 9.4715C17.2018 9.4947 17.1943 9.51772 17.1861 9.54055C17.178 9.56338 17.1694 9.58598 17.1602 9.60839C17.151 9.63079 17.1412 9.65294 17.1309 9.67486C17.1207 9.69677 17.1099 9.71842 17.0985 9.7398C17.0872 9.76118 17.0753 9.78227 17.063 9.80306C17.0506 9.82386 17.0378 9.84435 17.0244 9.8645C17.0111 9.88465 16.9972 9.90448 16.9829 9.92394C16.9686 9.94341 16.9538 9.96252 16.9386 9.98127C16.9233 10 16.9077 10.0184 16.8915 10.0363C16.8754 10.0543 16.8588 10.0719 16.8418 10.089C16.8248 10.1062 16.8074 10.1229 16.7897 10.1391C16.7719 10.1554 16.7537 10.1713 16.7351 10.1866C16.7165 10.202 16.6976 10.217 16.6783 10.2314C16.659 10.2459 16.6394 10.2598 16.6194 10.2733C16.5995 10.2868 16.5792 10.2997 16.5586 10.3122C16.538 10.3247 16.5171 10.3366 16.4959 10.3481C16.4747 10.3595 16.4532 10.3704 16.4315 10.3808C16.4098 10.3912 16.3879 10.401 16.3657 10.4103C16.3435 10.4196 16.3211 10.4284 16.2985 10.4365C16.2759 10.4447 16.2531 10.4523 16.2301 10.4594C16.2071 10.4664 16.184 10.4729 16.1607 10.4788C16.1374 10.4848 16.1139 10.4901 16.0904 10.4948C16.0668 10.4996 16.0431 10.5037 16.0194 10.5073C15.9956 10.5109 15.9718 10.5139 15.9479 10.5163C15.924 10.5187 15.9 10.5205 15.876 10.5217C15.852 10.5229 15.828 10.5235 15.804 10.5236ZM15.5942 9.67664L15.804 9.67664C15.8143 9.67663 15.8246 9.67636 15.8349 9.67585C15.8452 9.67533 15.8554 9.67455 15.8657 9.67352C15.8759 9.6725 15.8861 9.67122 15.8963 9.66968C15.9065 9.66815 15.9166 9.66636 15.9267 9.66432C15.9368 9.6623 15.9469 9.66001 15.9569 9.65748C15.9668 9.65495 15.9768 9.65217 15.9866 9.64914C15.9965 9.64611 16.0062 9.64286 16.0159 9.63935C16.0256 9.63584 16.0352 9.6321 16.0447 9.62811C16.0542 9.62413 16.0637 9.61991 16.073 9.61546C16.0823 9.61102 16.0915 9.60635 16.1005 9.60144C16.1096 9.59654 16.1186 9.59142 16.1274 9.58607C16.1362 9.58073 16.1449 9.57517 16.1535 9.56939C16.162 9.56362 16.1704 9.55764 16.1787 9.55144C16.187 9.54525 16.1951 9.53886 16.2031 9.53225C16.211 9.52566 16.2188 9.51888 16.2264 9.5119C16.2341 9.50493 16.2415 9.49776 16.2488 9.49041C16.2561 9.48307 16.2632 9.47554 16.2701 9.46783C16.277 9.46013 16.2837 9.45226 16.2903 9.44423C16.2968 9.43619 16.3031 9.42802 16.3093 9.41967C16.3154 9.41132 16.3213 9.40283 16.327 9.39419C16.3328 9.38555 16.3383 9.37676 16.3436 9.36786C16.3489 9.35895 16.354 9.34991 16.3588 9.34074C16.3637 9.33157 16.3683 9.3223 16.3727 9.31291C16.3771 9.30352 16.3813 9.29402 16.3852 9.28442C16.3892 9.27483 16.3929 9.26513 16.3964 9.25535C16.3998 9.24557 16.4031 9.2357 16.4061 9.22576C16.4091 9.21582 16.4118 9.2058 16.4143 9.19573C16.4168 9.18565 16.4191 9.17551 16.4211 9.16532C16.4231 9.15513 16.4249 9.1449 16.4264 9.13462C16.4279 9.12434 16.4292 9.11402 16.4302 9.10368C16.4312 9.09335 16.432 9.08299 16.4325 9.0726C16.433 9.06222 16.4333 9.05184 16.4333 9.04145L16.4333 8.61798C16.4333 8.6076 16.433 8.59721 16.4325 8.58682C16.432 8.57645 16.4312 8.56608 16.4302 8.55575C16.4292 8.5454 16.4279 8.53509 16.4264 8.52481C16.4249 8.51453 16.4231 8.5043 16.4211 8.49411C16.4191 8.48392 16.4168 8.47378 16.4143 8.4637C16.4118 8.45362 16.4091 8.44361 16.4061 8.43367C16.4031 8.42373 16.3998 8.41387 16.3964 8.40408C16.3929 8.3943 16.3892 8.38461 16.3852 8.37501C16.3813 8.36541 16.3771 8.35591 16.3727 8.34652C16.3683 8.33712 16.3637 8.32785 16.3588 8.31869C16.354 8.30952 16.3489 8.30048 16.3436 8.29157C16.3383 8.28266 16.3328 8.27388 16.327 8.26524C16.3213 8.2566 16.3154 8.24811 16.3093 8.23977C16.3031 8.23142 16.2968 8.22323 16.2903 8.21519C16.2837 8.20716 16.277 8.1993 16.2701 8.1916C16.2632 8.1839 16.2561 8.17637 16.2488 8.16902C16.2415 8.16167 16.2341 8.15451 16.2264 8.14753C16.2188 8.14055 16.211 8.13377 16.2031 8.12718C16.1951 8.12058 16.187 8.11418 16.1787 8.10799C16.1704 8.1018 16.162 8.09581 16.1535 8.09004C16.1449 8.08427 16.1362 8.0787 16.1274 8.07336C16.1186 8.06801 16.1096 8.06289 16.1005 8.05798C16.0914 8.05309 16.0823 8.04841 16.073 8.04397C16.0637 8.03951 16.0542 8.0353 16.0447 8.03132C16.0352 8.02734 16.0256 8.02359 16.0159 8.02008C16.0062 8.01658 15.9965 8.01332 15.9866 8.01029C15.9768 8.00726 15.9668 8.00448 15.9569 8.00195C15.9469 7.99942 15.9368 7.99714 15.9267 7.99511C15.9166 7.99307 15.9065 7.99129 15.8963 7.98975C15.8861 7.98822 15.8759 7.98694 15.8657 7.98591C15.8554 7.98488 15.8452 7.9841 15.8349 7.98358C15.8246 7.98306 15.8143 7.9828 15.804 7.98279L15.5942 7.98279L15.5942 9.67664ZM11.8296 11.0796C11.8228 11.0796 11.8159 11.0795 11.809 11.0791C11.8022 11.0788 11.7953 11.0783 11.7885 11.0776C11.7817 11.0769 11.7749 11.0761 11.7681 11.075C11.7613 11.074 11.7545 11.0728 11.7478 11.0715C11.7411 11.0701 11.7344 11.0686 11.7277 11.0669C11.721 11.0653 11.7144 11.0634 11.7078 11.0614C11.7013 11.0594 11.6947 11.0572 11.6883 11.0549C11.6818 11.0525 11.6754 11.0501 11.6691 11.0474C11.6627 11.0447 11.6565 11.0419 11.6502 11.039C11.644 11.036 11.6379 11.0329 11.6319 11.0296C11.6258 11.0264 11.6198 11.0229 11.6139 11.0194C11.6081 11.0158 11.6023 11.0121 11.5965 11.0083C11.5908 11.0044 11.5852 11.0004 11.5797 10.9963C11.5742 10.9922 11.5688 10.9879 11.5635 10.9835C11.5582 10.9791 11.553 10.9746 11.5479 10.9699C11.5428 10.9653 11.5378 10.9605 11.533 10.9556C11.5281 10.9507 11.5234 10.9457 11.5188 10.9405C11.5142 10.9354 11.5097 10.9302 11.5053 10.9248C11.501 10.9195 11.4967 10.914 11.4927 10.9084C11.4886 10.9028 11.4846 10.8972 11.4808 10.8914C11.477 10.8857 11.4733 10.8798 11.4698 10.8739C11.4663 10.8679 11.4629 10.8619 11.4596 10.8558C11.4564 10.8497 11.4533 10.8435 11.4504 10.8372C11.4474 10.831 11.4447 10.8246 11.442 10.8182C11.4394 10.8118 11.4369 10.8053 11.4346 10.7988C11.4323 10.7923 11.4302 10.7857 11.4282 10.7791C11.4262 10.7725 11.4243 10.7658 11.4227 10.7591C11.421 10.7523 11.4195 10.7456 11.4182 10.7388C11.4168 10.732 11.4156 10.7251 11.4146 10.7183C11.4136 10.7114 11.4128 10.7046 11.4121 10.6977C11.4114 10.6908 11.4109 10.6839 11.4106 10.6769C11.4103 10.67 11.4101 10.6631 11.4101 10.6562C11.4101 10.6492 11.4103 10.6423 11.4106 10.6354C11.4109 10.6285 11.4114 10.6215 11.4121 10.6147C11.4128 10.6078 11.4136 10.6009 11.4146 10.594C11.4156 10.5872 11.4168 10.5804 11.4182 10.5735C11.4195 10.5668 11.421 10.56 11.4227 10.5533C11.4243 10.5466 11.4262 10.5399 11.4282 10.5332C11.4302 10.5266 11.4323 10.52 11.4346 10.5135C11.4369 10.507 11.4394 10.5005 11.442 10.4941C11.4447 10.4877 11.4474 10.4814 11.4504 10.4751C11.4533 10.4688 11.4564 10.4627 11.4596 10.4565C11.4629 10.4504 11.4663 10.4444 11.4698 10.4385C11.4733 10.4325 11.477 10.4267 11.4808 10.4209C11.4846 10.4151 11.4886 10.4095 11.4927 10.4039C11.4967 10.3983 11.501 10.3929 11.5053 10.3875C11.5097 10.3822 11.5142 10.3769 11.5188 10.3718C11.5234 10.3666 11.5281 10.3616 11.533 10.3567C11.5378 10.3518 11.5428 10.347 11.5479 10.3424C11.553 10.3377 11.5582 10.3332 11.5635 10.3288C11.5688 10.3244 11.5742 10.3202 11.5797 10.316C11.5852 10.3119 11.5908 10.3079 11.5965 10.3041C11.6023 10.3002 11.6081 10.2965 11.6139 10.293C11.6198 10.2894 11.6258 10.286 11.6319 10.2827C11.6379 10.2794 11.644 10.2763 11.6502 10.2734C11.6565 10.2704 11.6627 10.2676 11.6691 10.2649C11.6754 10.2623 11.6818 10.2598 11.6883 10.2575C11.6947 10.2551 11.7013 10.2529 11.7078 10.2509C11.7144 10.2489 11.721 10.2471 11.7277 10.2454C11.7344 10.2437 11.7411 10.2422 11.7478 10.2408C11.7545 10.2395 11.7613 10.2383 11.7681 10.2373C11.7749 10.2363 11.7817 10.2354 11.7885 10.2347C11.7953 10.2341 11.8022 10.2335 11.809 10.2332C11.8159 10.2329 11.8228 10.2327 11.8296 10.2327C11.8523 10.2327 11.875 10.2321 11.8977 10.2309C11.9204 10.2298 11.943 10.2281 11.9656 10.2258C11.9882 10.2235 12.0108 10.2207 12.0332 10.2173C12.0557 10.2139 12.078 10.21 12.1003 10.2055C12.1226 10.201 12.1447 10.1959 12.1667 10.1903C12.1888 10.1847 12.2106 10.1786 12.2324 10.1719C12.2541 10.1653 12.2756 10.1581 12.297 10.1503C12.3184 10.1426 12.3396 10.1343 12.3605 10.1255C12.3815 10.1168 12.4023 10.1074 12.4228 10.0976C12.4433 10.0878 12.4636 10.0775 12.4836 10.0667C12.5036 10.0559 12.5234 10.0446 12.5428 10.0328C12.5623 10.021 12.5815 10.0087 12.6004 9.99596C12.6192 9.98322 12.6378 9.97002 12.656 9.95635C12.6743 9.9427 12.6922 9.92859 12.7097 9.91405C12.7273 9.8995 12.7444 9.88452 12.7613 9.86913C12.7781 9.85373 12.7945 9.83793 12.8106 9.82172C12.8267 9.80551 12.8423 9.7889 12.8576 9.77192C12.8728 9.75494 12.8876 9.73758 12.902 9.71986C12.9164 9.70214 12.9304 9.68408 12.9439 9.66567C12.9575 9.64726 12.9705 9.62853 12.9832 9.60947C12.9958 9.59041 13.0079 9.57105 13.0196 9.5514C13.0313 9.53174 13.0425 9.5118 13.0532 9.49159C13.0639 9.47138 13.0741 9.45091 13.0838 9.4302C13.0935 9.40948 13.1028 9.38853 13.1115 9.36736C13.1202 9.34618 13.1283 9.32481 13.136 9.30323C13.1437 9.28164 13.1508 9.2599 13.1574 9.23797C13.164 9.21605 13.1701 9.19396 13.1756 9.17173C13.1811 9.1495 13.1861 9.12715 13.1906 9.10466C13.195 9.08218 13.1989 9.0596 13.2023 9.03693C13.2056 9.01427 13.2084 8.99152 13.2107 8.96872C13.2129 8.9459 13.2146 8.92305 13.2157 8.90016C13.2169 8.87726 13.2175 8.85436 13.2175 8.83144C13.2175 8.8245 13.2177 8.81758 13.218 8.81066C13.2183 8.80374 13.2188 8.79682 13.2195 8.78992C13.2202 8.78303 13.221 8.77616 13.222 8.76931C13.223 8.76245 13.2242 8.75562 13.2255 8.74882C13.2269 8.74203 13.2284 8.73527 13.2301 8.72855C13.2317 8.72183 13.2336 8.71514 13.2355 8.70851C13.2375 8.70188 13.2397 8.69529 13.242 8.68877C13.2443 8.68225 13.2468 8.67579 13.2494 8.66938C13.252 8.66298 13.2548 8.65664 13.2578 8.65038C13.2607 8.64412 13.2638 8.63793 13.267 8.63181C13.2703 8.6257 13.2736 8.61968 13.2772 8.61374C13.2807 8.60779 13.2844 8.60193 13.2882 8.59618C13.292 8.59042 13.2959 8.58476 13.3 8.57918C13.3041 8.57361 13.3083 8.56815 13.3127 8.56279C13.3171 8.55743 13.3216 8.55219 13.3262 8.54705C13.3308 8.54192 13.3355 8.5369 13.3404 8.53201C13.3452 8.5271 13.3502 8.52232 13.3553 8.51768C13.3604 8.51302 13.3655 8.50849 13.3709 8.5041C13.3762 8.49969 13.3816 8.49543 13.3871 8.4913C13.3926 8.48717 13.3982 8.48319 13.4039 8.47934C13.4096 8.47549 13.4154 8.47178 13.4213 8.46822C13.4272 8.46466 13.4332 8.46124 13.4392 8.45797C13.4453 8.4547 13.4514 8.45159 13.4576 8.44863C13.4638 8.44566 13.4701 8.44286 13.4765 8.44021C13.4828 8.43755 13.4892 8.43506 13.4957 8.43273C13.5021 8.43039 13.5087 8.42822 13.5152 8.42621C13.5218 8.4242 13.5284 8.42235 13.5351 8.42066C13.5417 8.41898 13.5484 8.41746 13.5552 8.41611C13.5619 8.41476 13.5687 8.41358 13.5755 8.41255C13.5822 8.41154 13.5891 8.41069 13.5959 8.41001C13.6027 8.40933 13.6096 8.40882 13.6164 8.40849C13.6233 8.40814 13.6301 8.40797 13.637 8.40797C13.6439 8.40797 13.6507 8.40814 13.6576 8.40849C13.6645 8.40882 13.6713 8.40933 13.6781 8.41001C13.685 8.41069 13.6918 8.41154 13.6986 8.41255C13.7054 8.41358 13.7121 8.41476 13.7189 8.41611C13.7256 8.41746 13.7323 8.41898 13.7389 8.42066C13.7456 8.42235 13.7522 8.4242 13.7588 8.42621C13.7654 8.42822 13.7719 8.43039 13.7783 8.43273C13.7848 8.43506 13.7912 8.43755 13.7976 8.44021C13.8039 8.44286 13.8102 8.44566 13.8164 8.44863C13.8226 8.45159 13.8287 8.4547 13.8348 8.45797C13.8408 8.46124 13.8468 8.46466 13.8527 8.46822C13.8586 8.47178 13.8644 8.47549 13.8701 8.47934C13.8758 8.48319 13.8814 8.48717 13.8869 8.4913C13.8924 8.49543 13.8979 8.49969 13.9032 8.5041C13.9085 8.50849 13.9137 8.51302 13.9188 8.51768C13.9238 8.52232 13.9288 8.5271 13.9337 8.53201C13.9385 8.5369 13.9433 8.54192 13.9479 8.54705C13.9525 8.55219 13.957 8.55743 13.9613 8.56279C13.9657 8.56815 13.9699 8.57361 13.974 8.57918C13.9781 8.58476 13.982 8.59042 13.9858 8.59618C13.9897 8.60193 13.9933 8.60779 13.9969 8.61374C14.0004 8.61968 14.0038 8.6257 14.007 8.63181C14.0102 8.63793 14.0133 8.64412 14.0163 8.65038C14.0192 8.65664 14.022 8.66298 14.0246 8.66938C14.0272 8.67579 14.0297 8.68225 14.032 8.68877C14.0343 8.69529 14.0365 8.70188 14.0385 8.70851C14.0405 8.71514 14.0423 8.72183 14.044 8.72855C14.0456 8.73527 14.0471 8.74203 14.0485 8.74882C14.0498 8.75562 14.051 8.76245 14.052 8.76931C14.053 8.77616 14.0539 8.78303 14.0545 8.78992C14.0552 8.79682 14.0557 8.80374 14.056 8.81066C14.0564 8.81758 14.0565 8.8245 14.0565 8.83144C14.0565 10.0711 13.0573 11.0796 11.8296 11.0796Z" stroke="rgba(204, 78, 29, 1)" stroke-width="0.2"      fill="#CC4E1D" ></path></svg>