<svg xmlns="http://www.w3.org/2000/svg" xmlns:xlink="http://www.w3.org/1999/xlink" width="24" height="24" viewBox="0 0 24 24" fill="none"><path d="M12.0037 17.1407L11.9941 17.1407C11.8789 17.1405 11.7636 17.1375 11.6485 17.1316C11.5333 17.1258 11.4184 17.117 11.3036 17.1054C11.1889 17.0939 11.0745 17.0794 10.9605 17.0622C10.8465 17.045 10.7329 17.0249 10.6199 17.002C10.5069 16.9791 10.3944 16.9535 10.2826 16.925C10.1708 16.8965 10.0598 16.8653 9.9495 16.8314C9.83921 16.7974 9.72982 16.7608 9.62134 16.7214C9.51283 16.682 9.40536 16.6399 9.29891 16.5952C9.19246 16.5505 9.08716 16.5032 8.98302 16.4532C8.87885 16.4033 8.77597 16.3508 8.6744 16.2958C8.5728 16.2408 8.4726 16.1832 8.37382 16.1232C8.27502 16.0632 8.17773 16.0008 8.08199 15.936C7.98625 15.8712 7.89212 15.804 7.79964 15.7345C7.70713 15.665 7.61638 15.5933 7.5274 15.5193C7.4384 15.4453 7.35126 15.3691 7.26597 15.2908C7.18068 15.2125 7.09735 15.1321 7.01598 15.0497C6.93459 14.9672 6.85526 14.8828 6.77799 14.7964C6.70074 14.7101 6.62563 14.6218 6.55265 14.5317C6.47968 14.4416 6.40893 14.3497 6.34042 14.2561C6.27192 14.1625 6.20573 14.0673 6.14185 13.9704C6.07799 13.8735 6.01652 13.775 5.95745 13.6751C5.89837 13.5752 5.84176 13.4738 5.7876 13.3711C5.73345 13.2683 5.68184 13.1643 5.63276 13.059C5.58368 12.9537 5.53719 12.8472 5.49329 12.7396C5.44939 12.632 5.40813 12.5233 5.36952 12.4137C5.33089 12.304 5.29497 12.1935 5.26175 12.082C5.22851 11.9706 5.198 11.8584 5.17022 11.7455C5.14245 11.6325 5.11745 11.5189 5.0952 11.4047C5.07296 11.2905 5.0535 11.1758 5.03682 11.0607C5.02016 10.9455 5.00631 10.83 4.99527 10.7142C4.98423 10.5983 4.97601 10.4823 4.9706 10.366C4.96521 10.2498 4.96265 10.1335 4.96291 10.0171L4.97222 5.672C4.97238 5.62677 4.97365 5.58154 4.97602 5.53636C4.97837 5.49118 4.98182 5.4461 4.98638 5.4011C4.99092 5.35609 4.99655 5.31122 5.00326 5.2665C5.00999 5.22176 5.01779 5.17722 5.02668 5.13289C5.03555 5.08854 5.0455 5.04444 5.05652 5.00059C5.06754 4.95674 5.07962 4.91318 5.09275 4.86992C5.10589 4.82666 5.12005 4.78376 5.13526 4.74121C5.15047 4.69864 5.1667 4.65649 5.18396 4.61475C5.20121 4.57299 5.21946 4.53168 5.23872 4.49083C5.25797 4.44998 5.27821 4.40962 5.29943 4.36976C5.32064 4.32991 5.34281 4.29061 5.36592 4.25185C5.38904 4.2131 5.4131 4.17493 5.43807 4.13736C5.46304 4.09979 5.4889 4.06286 5.51566 4.02657C5.54241 3.99027 5.57004 3.95466 5.59854 3.91975C5.62702 3.88481 5.65633 3.8506 5.68646 3.81712C5.71661 3.78364 5.74756 3.75092 5.77929 3.71897C5.81103 3.68702 5.84351 3.65587 5.87675 3.62552C5.90999 3.59519 5.94394 3.56569 5.97861 3.53702C6.01329 3.50833 6.04863 3.48053 6.08465 3.45361C6.12068 3.42669 6.15733 3.40067 6.1946 3.37557C6.23189 3.35046 6.26975 3.32628 6.3082 3.30304C6.34666 3.27979 6.38566 3.25751 6.42518 3.23619C6.46473 3.21488 6.50476 3.19455 6.54528 3.17521C6.5858 3.15588 6.62676 3.13754 6.66817 3.12022C6.70957 3.10291 6.75137 3.08663 6.79358 3.07138C6.83576 3.05613 6.8783 3.04193 6.92119 3.02877C6.96408 3.01563 7.00727 3.00355 7.05074 2.99254C7.0942 2.98151 7.13791 2.97157 7.18186 2.96272C7.22581 2.95387 7.26996 2.9461 7.3143 2.93942C7.35863 2.93275 7.4031 2.92717 7.44771 2.92268C7.4923 2.9182 7.53696 2.91483 7.58174 2.91257C7.6265 2.91029 7.67129 2.90912 7.71612 2.90906L7.7198 2.90906L16.3146 2.92043C16.3595 2.9205 16.4043 2.92168 16.4492 2.92397C16.4941 2.92626 16.5388 2.92966 16.5836 2.93416C16.6282 2.93867 16.6728 2.94429 16.7172 2.951C16.7616 2.95772 16.8059 2.96554 16.8499 2.97444C16.894 2.98336 16.9377 2.99336 16.9813 3.00444C17.0249 3.01551 17.0681 3.02766 17.1111 3.04089C17.154 3.05412 17.1966 3.06841 17.2389 3.08374C17.2812 3.09907 17.3231 3.11545 17.3645 3.13288C17.406 3.15029 17.447 3.16871 17.4876 3.18815C17.5282 3.2076 17.5682 3.22804 17.6078 3.24947C17.6474 3.27091 17.6864 3.29331 17.7249 3.31669C17.7634 3.34005 17.8013 3.36436 17.8386 3.38961C17.8759 3.41485 17.9126 3.441 17.9486 3.46808C17.9847 3.49513 18.02 3.52306 18.0547 3.55188C18.0894 3.5807 18.1233 3.61036 18.1566 3.64088C18.1898 3.67138 18.2223 3.70268 18.254 3.73478C18.2857 3.76689 18.3166 3.79977 18.3467 3.83342C18.3768 3.86705 18.4061 3.90141 18.4345 3.93651C18.463 3.97161 18.4905 4.00738 18.5172 4.04383C18.5439 4.0803 18.5697 4.1174 18.5946 4.15514C18.6195 4.19287 18.6435 4.2312 18.6665 4.27013C18.6895 4.30905 18.7116 4.34853 18.7327 4.38855C18.7538 4.42856 18.7739 4.46908 18.7931 4.5101C18.8122 4.55113 18.8303 4.5926 18.8474 4.63451C18.8645 4.67643 18.8806 4.71874 18.8957 4.76144C18.9108 4.80415 18.9248 4.84721 18.9377 4.89062C18.9507 4.93403 18.9626 4.97773 18.9735 5.02173C18.9843 5.06573 18.994 5.10997 19.0027 5.15445C19.0114 5.19893 19.019 5.2436 19.0256 5.28846C19.032 5.33331 19.0375 5.37831 19.0418 5.42345C19.0461 5.46858 19.0493 5.51379 19.0515 5.55906C19.0536 5.60434 19.0546 5.64967 19.0545 5.695L19.0445 10.049C19.0442 10.1651 19.0412 10.2812 19.0353 10.3972C19.0294 10.5132 19.0207 10.629 19.0092 10.7446C18.9976 10.8601 18.9833 10.9753 18.9662 11.0902C18.9491 11.2051 18.9292 11.3194 18.9066 11.4333C18.8839 11.5472 18.8585 11.6604 18.8303 11.773C18.8022 11.8856 18.7713 11.9975 18.7377 12.1086C18.7041 12.2197 18.6678 12.3298 18.6289 12.4391C18.5899 12.5484 18.5483 12.6567 18.5041 12.7639C18.4599 12.8712 18.4131 12.9772 18.3638 13.0822C18.3144 13.1871 18.2625 13.2907 18.2081 13.3931C18.1538 13.4954 18.0969 13.5964 18.0376 13.6959C17.9783 13.7954 17.9166 13.8935 17.8526 13.99C17.7885 14.0864 17.7221 14.1813 17.6535 14.2745C17.5848 14.3677 17.5139 14.4591 17.4408 14.5488C17.3677 14.6385 17.2925 14.7264 17.2151 14.8123C17.1377 14.8983 17.0583 14.9823 16.9769 15.0643C16.8954 15.1464 16.812 15.2264 16.7267 15.3043C16.6413 15.3822 16.5542 15.458 16.4652 15.5316C16.3761 15.6052 16.2854 15.6765 16.1929 15.7456C16.1004 15.8147 16.0063 15.8815 15.9106 15.946C15.8149 16.0104 15.7176 16.0725 15.6189 16.1321C15.5201 16.1918 15.42 16.2489 15.3185 16.3036C15.217 16.3583 15.1142 16.4105 15.0102 16.46C14.9061 16.5096 14.8009 16.5567 14.6946 16.601C14.5882 16.6454 14.4809 16.6872 14.3725 16.7263C14.2642 16.7653 14.1549 16.8017 14.0448 16.8354C13.9347 16.8691 13.8238 16.9 13.7122 16.9282C13.6005 16.9564 13.4883 16.9818 13.3754 17.0044C13.2626 17.0271 13.1492 17.0469 13.0354 17.0639C12.9216 17.0809 12.8074 17.0951 12.6929 17.1065C12.5784 17.1179 12.4636 17.1264 12.3487 17.1321C12.2337 17.1379 12.1187 17.1407 12.0037 17.1407ZM7.71637 4.49046C7.69716 4.49048 7.67795 4.49097 7.65877 4.49194C7.63959 4.49292 7.62043 4.49437 7.60132 4.4963C7.58221 4.49821 7.56315 4.5006 7.54416 4.50347C7.52515 4.50632 7.50624 4.50964 7.4874 4.51343C7.46856 4.51722 7.44982 4.52149 7.4312 4.52622C7.41257 4.53093 7.39407 4.53611 7.37567 4.54175C7.3573 4.54737 7.33907 4.55345 7.32099 4.56C7.30291 4.56653 7.285 4.5735 7.26724 4.58092C7.2495 4.58834 7.23195 4.59619 7.21457 4.60448C7.19721 4.61278 7.18006 4.62149 7.16312 4.63062C7.14617 4.63976 7.12945 4.6493 7.11297 4.65926C7.09649 4.66922 7.08026 4.67958 7.06429 4.69034C7.04832 4.70111 7.03261 4.71225 7.01718 4.72378C7.00173 4.73532 6.98658 4.74723 6.97173 4.75951C6.95687 4.77181 6.94232 4.78446 6.92808 4.79747C6.91382 4.81046 6.89989 4.8238 6.8863 4.8375C6.8727 4.85119 6.85944 4.86521 6.84652 4.87957C6.8336 4.89391 6.82103 4.90857 6.80881 4.92353C6.79661 4.9385 6.78478 4.95376 6.77332 4.96931C6.76185 4.98487 6.75076 5.0007 6.74005 5.01679C6.72935 5.03289 6.71904 5.04926 6.70913 5.06587C6.69923 5.08247 6.68973 5.09931 6.68064 5.11639C6.67154 5.13347 6.66287 5.15077 6.65462 5.16827C6.64637 5.18578 6.63855 5.20348 6.63115 5.22137C6.62375 5.23927 6.61679 5.25734 6.61027 5.27557C6.60376 5.29381 6.59768 5.3122 6.59205 5.33074C6.58643 5.34927 6.58126 5.36794 6.57654 5.38673C6.57182 5.40552 6.56756 5.42442 6.56375 5.44343C6.55995 5.46245 6.5566 5.48151 6.55371 5.50068C6.55083 5.51984 6.54842 5.53908 6.54648 5.55837C6.54452 5.57766 6.54303 5.597 6.54202 5.61636C6.54101 5.63572 6.54047 5.65509 6.5404 5.67447L6.53036 10.0208C6.53015 10.1113 6.53214 10.2017 6.53634 10.292C6.54053 10.3824 6.54693 10.4726 6.55552 10.5627C6.56411 10.6527 6.57488 10.7425 6.58783 10.832C6.60079 10.9215 6.61591 11.0107 6.63321 11.0994C6.6505 11.1882 6.66995 11.2765 6.69154 11.3643C6.71313 11.4521 6.73685 11.5393 6.76268 11.6259C6.78852 11.7126 6.81644 11.7985 6.84645 11.8838C6.87647 11.969 6.90854 12.0534 6.94268 12.1371C6.9768 12.2207 7.01294 12.3035 7.05111 12.3854C7.08926 12.4672 7.12938 12.5481 7.17147 12.6279C7.21356 12.7078 7.25757 12.7866 7.3035 12.8643C7.34943 12.942 7.39722 13.0185 7.44688 13.0938C7.49651 13.1691 7.54796 13.2431 7.60122 13.3159C7.65446 13.3887 7.70946 13.4601 7.7662 13.5301C7.82291 13.6002 7.88129 13.6688 7.94136 13.7359C8.00144 13.8031 8.0631 13.8687 8.12636 13.9328C8.18961 13.9968 8.25439 14.0593 8.32071 14.1202C8.387 14.1811 8.45474 14.2403 8.52393 14.2978C8.59309 14.3553 8.66362 14.4111 8.73553 14.4651C8.80741 14.5191 8.88059 14.5713 8.95504 14.6217C9.02947 14.6721 9.10507 14.7206 9.18188 14.7673C9.25866 14.8139 9.33656 14.8586 9.41555 14.9014C9.49451 14.9441 9.57447 14.9849 9.65544 15.0238C9.73639 15.0626 9.81824 15.0994 9.901 15.1341C9.98373 15.1689 10.0673 15.2016 10.1516 15.2322C10.2359 15.2628 10.321 15.2913 10.4067 15.3177C10.4925 15.3441 10.5788 15.3683 10.6657 15.3904C10.7526 15.4126 10.84 15.4325 10.9279 15.4503C11.0157 15.4681 11.104 15.4837 11.1926 15.4971C11.2813 15.5105 11.3702 15.5217 11.4594 15.5307C11.5485 15.5397 11.6379 15.5464 11.7274 15.551C11.8169 15.5556 11.9065 15.5579 11.9961 15.5581L12.0035 15.5581C12.0929 15.5581 12.1823 15.5558 12.2716 15.5514C12.3609 15.547 12.4501 15.5403 12.5391 15.5315C12.6281 15.5227 12.7169 15.5116 12.8054 15.4984C12.8938 15.4852 12.9819 15.4697 13.0697 15.4522C13.1574 15.4346 13.2446 15.4148 13.3314 15.3929C13.4182 15.371 13.5043 15.347 13.5899 15.3208C13.6755 15.2946 13.7605 15.2664 13.8447 15.236C13.9289 15.2056 14.0123 15.1732 14.095 15.1387C14.1777 15.1042 14.2594 15.0677 14.3403 15.0291C14.4211 14.9906 14.501 14.95 14.58 14.9075C14.6589 14.865 14.7367 14.8206 14.8135 14.7743C14.8902 14.7279 14.9658 14.6797 15.0402 14.6296C15.1146 14.5795 15.1877 14.5276 15.2597 14.4739C15.3315 14.4202 15.4021 14.3647 15.4713 14.3075C15.5405 14.2503 15.6082 14.1914 15.6746 14.1309C15.7409 14.0703 15.8057 14.0082 15.869 13.9444C15.9323 13.8806 15.9941 13.8153 16.0542 13.7485C16.1144 13.6817 16.1729 13.6134 16.2297 13.5437C16.2865 13.474 16.3416 13.4029 16.395 13.3305C16.4484 13.2581 16.5 13.1843 16.5497 13.1093C16.5995 13.0343 16.6475 12.9582 16.6936 12.8808C16.7397 12.8034 16.7839 12.725 16.8262 12.6454C16.8685 12.5659 16.9088 12.4853 16.9472 12.4038C16.9855 12.3223 17.0219 12.2398 17.0563 12.1564C17.0906 12.0731 17.123 11.989 17.1533 11.904C17.1836 11.8191 17.2118 11.7334 17.2379 11.6471C17.264 11.5608 17.288 11.4738 17.3099 11.3863C17.3318 11.2988 17.3516 11.2107 17.3692 11.1222C17.3868 11.0337 17.4023 10.9448 17.4156 10.8555C17.4289 10.7663 17.44 10.6767 17.449 10.5869C17.458 10.4971 17.4647 10.4071 17.4693 10.3169C17.4739 10.2268 17.4763 10.1366 17.4765 10.0463L17.4866 5.69129C17.4866 5.67185 17.4862 5.65244 17.4853 5.63303C17.4844 5.61362 17.483 5.59423 17.4812 5.57489C17.4793 5.55555 17.477 5.53626 17.4742 5.51702C17.4714 5.49781 17.4682 5.47865 17.4644 5.45958C17.4607 5.44051 17.4566 5.42155 17.4519 5.40268C17.4473 5.38381 17.4422 5.36509 17.4366 5.3465C17.4311 5.32788 17.4251 5.30942 17.4186 5.2911C17.4122 5.2728 17.4053 5.25467 17.398 5.2367C17.3906 5.21873 17.3828 5.20095 17.3747 5.18336C17.3665 5.16578 17.3578 5.14842 17.3488 5.13126C17.3397 5.11409 17.3303 5.09717 17.3204 5.08049C17.3105 5.0638 17.3003 5.04737 17.2896 5.03118C17.2789 5.01501 17.2679 4.99911 17.2564 4.98348C17.245 4.96785 17.2332 4.95251 17.221 4.93746C17.2088 4.92242 17.1963 4.90769 17.1834 4.89327C17.1705 4.87884 17.1572 4.86475 17.1436 4.85098C17.13 4.83721 17.1161 4.8238 17.1019 4.81072C17.0876 4.79765 17.0731 4.78493 17.0582 4.77257C17.0434 4.76022 17.0282 4.74824 17.0128 4.73664C16.9973 4.72503 16.9816 4.71382 16.9656 4.703C16.9496 4.69217 16.9334 4.68174 16.9169 4.67172C16.9004 4.66171 16.8836 4.65211 16.8667 4.64291C16.8497 4.63373 16.8325 4.62497 16.8151 4.61663C16.7978 4.60829 16.7802 4.60038 16.7624 4.59291C16.7446 4.58546 16.7267 4.57845 16.7086 4.57187C16.6904 4.56529 16.6722 4.55916 16.6538 4.55349C16.6353 4.54782 16.6168 4.54261 16.5982 4.53787C16.5795 4.5331 16.5607 4.52881 16.5418 4.52501C16.5229 4.52118 16.504 4.51783 16.4849 4.51494C16.4659 4.51207 16.4468 4.50967 16.4276 4.50772C16.4085 4.50579 16.3893 4.50433 16.3701 4.50334C16.3508 4.50237 16.3316 4.50187 16.3124 4.50184L7.71759 4.49046L7.71637 4.49046Z" stroke="rgba(3, 79, 161, 1)" stroke-width="0.2"      fill="#034FA1" ></path><path d="M12.0008 20.4104C11.9879 20.4104 11.9751 20.4101 11.9623 20.4094C11.9495 20.4088 11.9367 20.4079 11.9239 20.4066C11.9112 20.4053 11.8984 20.4038 11.8857 20.4019C11.8731 20.4 11.8604 20.3977 11.8478 20.3952C11.8352 20.3927 11.8227 20.3898 11.8103 20.3867C11.7978 20.3836 11.7855 20.3801 11.7732 20.3763C11.7609 20.3726 11.7487 20.3685 11.7366 20.3641C11.7246 20.3598 11.7126 20.3551 11.7008 20.3502C11.6889 20.3452 11.6772 20.34 11.6656 20.3344C11.654 20.3289 11.6425 20.3231 11.6312 20.317C11.6199 20.3109 11.6087 20.3045 11.5977 20.2978C11.5867 20.2912 11.5759 20.2842 11.5652 20.2771C11.5546 20.2699 11.5441 20.2624 11.5338 20.2547C11.5235 20.247 11.5133 20.239 11.5034 20.2308C11.4935 20.2226 11.4838 20.2141 11.4743 20.2054C11.4648 20.1967 11.4555 20.1878 11.4464 20.1786C11.4373 20.1695 11.4285 20.1601 11.4199 20.1505C11.4113 20.1409 11.4029 20.1311 11.3948 20.1211C11.3866 20.1111 11.3787 20.1009 11.3711 20.0905C11.3634 20.0801 11.356 20.0695 11.3489 20.0587C11.3418 20.048 11.3349 20.037 11.3283 20.0259C11.3217 20.0148 11.3154 20.0035 11.3094 19.9921C11.3033 19.9807 11.2975 19.9691 11.2921 19.9574C11.2866 19.9457 11.2814 19.9339 11.2765 19.9219C11.2716 19.91 11.2669 19.8979 11.2626 19.8857C11.2583 19.8735 11.2543 19.8612 11.2506 19.8488C11.2468 19.8364 11.2434 19.8239 11.2403 19.8114C11.2372 19.7988 11.2344 19.7862 11.2319 19.7735C11.2294 19.7608 11.2272 19.748 11.2253 19.7352C11.2234 19.7224 11.2218 19.7096 11.2206 19.6967C11.2193 19.6838 11.2184 19.6709 11.2178 19.6579C11.2171 19.645 11.2168 19.632 11.2168 19.6191L11.2168 16.3467C11.2168 16.3338 11.2171 16.3208 11.2178 16.3079C11.2184 16.295 11.2193 16.2821 11.2206 16.2692C11.2218 16.2563 11.2234 16.2434 11.2253 16.2306C11.2272 16.2178 11.2294 16.2051 11.2319 16.1924C11.2344 16.1797 11.2372 16.167 11.2403 16.1545C11.2434 16.1419 11.2468 16.1294 11.2506 16.117C11.2543 16.1046 11.2583 16.0923 11.2626 16.0802C11.2669 16.068 11.2716 16.0559 11.2765 16.0439C11.2814 16.0319 11.2866 16.0201 11.2921 16.0084C11.2975 15.9967 11.3033 15.9851 11.3094 15.9737C11.3154 15.9623 11.3217 15.951 11.3283 15.9399C11.3349 15.9288 11.3418 15.9179 11.3489 15.9071C11.356 15.8963 11.3634 15.8858 11.3711 15.8754C11.3787 15.865 11.3866 15.8547 11.3948 15.8447C11.4029 15.8347 11.4113 15.8249 11.4199 15.8153C11.4285 15.8057 11.4373 15.7964 11.4464 15.7872C11.4555 15.778 11.4648 15.7691 11.4743 15.7604C11.4838 15.7517 11.4935 15.7433 11.5034 15.7351C11.5133 15.7268 11.5235 15.7189 11.5338 15.7111C11.5441 15.7034 11.5546 15.696 11.5652 15.6888C11.5759 15.6816 11.5867 15.6747 11.5977 15.668C11.6087 15.6614 11.6199 15.655 11.6312 15.6488C11.6425 15.6427 11.654 15.6369 11.6656 15.6314C11.6772 15.6258 11.6889 15.6206 11.7008 15.6157C11.7126 15.6107 11.7246 15.606 11.7367 15.6017C11.7487 15.5973 11.7609 15.5933 11.7732 15.5895C11.7855 15.5857 11.7978 15.5823 11.8103 15.5791C11.8227 15.576 11.8352 15.5732 11.8478 15.5706C11.8604 15.5681 11.8731 15.5659 11.8857 15.564C11.8984 15.5621 11.9112 15.5605 11.9239 15.5592C11.9367 15.558 11.9495 15.557 11.9623 15.5564C11.9751 15.5557 11.9879 15.5554 12.0008 15.5554C12.0136 15.5554 12.0264 15.5557 12.0392 15.5564C12.0521 15.557 12.0648 15.558 12.0776 15.5592C12.0904 15.5605 12.1031 15.5621 12.1158 15.564C12.1285 15.5659 12.1411 15.5681 12.1537 15.5706C12.1663 15.5732 12.1788 15.576 12.1912 15.5791C12.2037 15.5823 12.2161 15.5857 12.2283 15.5895C12.2406 15.5933 12.2528 15.5973 12.2649 15.6017C12.277 15.606 12.2889 15.6107 12.3008 15.6157C12.3126 15.6206 12.3244 15.6258 12.336 15.6314C12.3476 15.6369 12.359 15.6427 12.3703 15.6488C12.3817 15.655 12.3928 15.6614 12.4038 15.668C12.4148 15.6747 12.4256 15.6816 12.4363 15.6888C12.447 15.696 12.4575 15.7034 12.4678 15.7111C12.4781 15.7189 12.4882 15.7268 12.4981 15.7351C12.508 15.7433 12.5177 15.7517 12.5273 15.7604C12.5368 15.7691 12.546 15.778 12.5551 15.7872C12.5642 15.7964 12.573 15.8057 12.5816 15.8153C12.5903 15.8249 12.5986 15.8347 12.6068 15.8447C12.6149 15.8547 12.6228 15.865 12.6305 15.8754C12.6381 15.8858 12.6455 15.8963 12.6526 15.9071C12.6597 15.9179 12.6666 15.9288 12.6732 15.9399C12.6798 15.951 12.6861 15.9623 12.6922 15.9737C12.6982 15.9851 12.704 15.9967 12.7095 16.0084C12.715 16.0201 12.7202 16.0319 12.7251 16.0439C12.73 16.0559 12.7346 16.068 12.7389 16.0802C12.7432 16.0923 12.7473 16.1046 12.751 16.117C12.7547 16.1294 12.7581 16.1419 12.7612 16.1545C12.7644 16.167 12.7672 16.1797 12.7697 16.1924C12.7722 16.2051 12.7744 16.2178 12.7763 16.2306C12.7781 16.2434 12.7797 16.2563 12.781 16.2692C12.7822 16.2821 12.7832 16.295 12.7838 16.3079C12.7844 16.3208 12.7847 16.3338 12.7847 16.3467L12.7847 19.6191C12.7847 19.632 12.7844 19.645 12.7838 19.6579C12.7832 19.6709 12.7822 19.6838 12.781 19.6967C12.7797 19.7096 12.7781 19.7224 12.7763 19.7352C12.7744 19.748 12.7722 19.7608 12.7697 19.7735C12.7672 19.7862 12.7644 19.7988 12.7612 19.8114C12.7581 19.8239 12.7547 19.8364 12.751 19.8488C12.7473 19.8612 12.7432 19.8735 12.7389 19.8857C12.7346 19.8979 12.73 19.91 12.7251 19.9219C12.7202 19.9339 12.715 19.9457 12.7095 19.9574C12.704 19.9691 12.6982 19.9807 12.6922 19.9921C12.6861 20.0035 12.6798 20.0148 12.6732 20.0259C12.6666 20.037 12.6597 20.048 12.6526 20.0587C12.6455 20.0695 12.6381 20.0801 12.6305 20.0905C12.6228 20.1009 12.6149 20.1111 12.6068 20.1211C12.5986 20.1311 12.5903 20.1409 12.5816 20.1505C12.573 20.1601 12.5642 20.1695 12.5551 20.1786C12.546 20.1878 12.5368 20.1967 12.5273 20.2054C12.5177 20.2141 12.508 20.2226 12.4981 20.2308C12.4882 20.239 12.4781 20.247 12.4678 20.2547C12.4575 20.2624 12.447 20.2699 12.4363 20.2771C12.4256 20.2842 12.4148 20.2912 12.4038 20.2978C12.3928 20.3045 12.3817 20.3109 12.3703 20.317C12.359 20.3231 12.3476 20.3289 12.336 20.3344C12.3244 20.34 12.3126 20.3452 12.3008 20.3502C12.2889 20.3551 12.277 20.3598 12.2649 20.3641C12.2528 20.3685 12.2406 20.3726 12.2283 20.3763C12.2161 20.3801 12.2037 20.3836 12.1912 20.3867C12.1788 20.3898 12.1663 20.3927 12.1537 20.3952C12.1411 20.3977 12.1285 20.4 12.1158 20.4019C12.1031 20.4038 12.0904 20.4053 12.0776 20.4066C12.0648 20.4079 12.0521 20.4088 12.0392 20.4094C12.0264 20.4101 12.0136 20.4104 12.0008 20.4104Z" stroke="rgba(3, 79, 161, 1)" stroke-width="1"      fill="#034FA1" ></path><path d="M12.0328 14.1012C12.02 14.1012 12.0092 14.0976 11.9964 14.0976C11.9836 14.0976 11.9692 14.0976 11.9564 14.0976C11.9437 14.0976 11.9291 14.0903 11.9164 14.0903C11.9037 14.0903 11.8927 14.0831 11.8801 14.0831C11.8675 14.0831 11.8561 14.0758 11.8437 14.0758C11.8313 14.0758 11.8196 14.0686 11.8073 14.0649C11.7951 14.0611 11.7794 14.0584 11.7673 14.054C11.7553 14.0496 11.7465 14.0444 11.7346 14.0394C11.7228 14.0345 11.7098 14.0304 11.6982 14.0249C11.6867 14.0193 11.6732 14.0128 11.6619 14.0067C11.6506 14.0006 11.6402 13.9952 11.6292 13.9885C11.6182 13.9819 11.6071 13.9739 11.5964 13.9667C11.5858 13.9595 11.5777 13.9526 11.5673 13.9449C11.557 13.9372 11.5445 13.9277 11.5346 13.9194C11.5247 13.9112 11.515 13.9027 11.5055 13.894C11.496 13.8853 11.4891 13.8777 11.4801 13.8685C11.471 13.8594 11.4596 13.849 11.451 13.8394C11.4424 13.8298 11.4337 13.8204 11.4255 13.8103C11.4174 13.8003 11.4113 13.7917 11.4037 13.7812C11.3961 13.7708 11.389 13.7593 11.3819 13.7485C11.3748 13.7378 11.3667 13.7269 11.3601 13.7158C11.3535 13.7047 11.3479 13.6945 11.3419 13.6831C11.3358 13.6716 11.3292 13.6584 11.3237 13.6467C11.3182 13.635 11.3141 13.6223 11.3092 13.6103C11.3042 13.5984 11.2989 13.5862 11.2946 13.574C11.2903 13.5618 11.2874 13.55 11.2837 13.5376C11.28 13.5252 11.2728 13.5138 11.2728 13.5012C11.2728 13.4887 11.2655 13.4739 11.2655 13.4612C11.2655 13.4485 11.2582 13.4377 11.2582 13.4249C11.2582 13.4121 11.2546 13.3978 11.2546 13.3849C11.2546 13.372 11.251 13.3615 11.251 13.3485C11.251 13.3356 11.251 13.3215 11.251 13.3085C11.251 13.2956 11.251 13.2815 11.251 13.2685C11.251 13.2556 11.2546 13.245 11.2546 13.2322C11.2546 13.2193 11.2582 13.205 11.2582 13.1922C11.2582 13.1793 11.2655 13.1685 11.2655 13.1558C11.2655 13.1431 11.2728 13.1284 11.2728 13.1158C11.2728 13.1032 11.28 13.0918 11.2837 13.0794C11.2874 13.067 11.2903 13.0553 11.2946 13.0431C11.2989 13.0309 11.3042 13.0187 11.3092 13.0067C11.3141 12.9947 11.3182 12.982 11.3237 12.9703C11.3292 12.9586 11.3358 12.9454 11.3419 12.934C11.3479 12.9226 11.3535 12.9124 11.3601 12.9012C11.3667 12.8901 11.3748 12.8793 11.3819 12.8685C11.389 12.8578 11.3961 12.8462 11.4037 12.8358C11.4113 12.8254 11.4174 12.8167 11.4255 12.8067C11.4337 12.7967 11.4424 12.7872 11.451 12.7776C11.4596 12.768 11.471 12.7577 11.4801 12.7485C11.4891 12.7393 11.496 12.7317 11.5055 12.7231C11.515 12.7144 11.5247 12.7058 11.5346 12.6976C11.5445 12.6894 11.557 12.6799 11.5673 12.6722C11.5777 12.6644 11.5858 12.6575 11.5964 12.6503C11.6071 12.6431 11.6182 12.6352 11.6292 12.6285C11.6402 12.6219 11.6506 12.6164 11.6619 12.6103C11.6732 12.6042 11.6867 12.5977 11.6982 12.5922C11.7098 12.5866 11.7228 12.5826 11.7346 12.5776C11.7465 12.5726 11.7553 12.5674 11.7673 12.5631C11.7794 12.5587 11.7951 12.5559 11.8073 12.5522C11.8196 12.5484 11.8313 12.5412 11.8437 12.5412C11.8561 12.5412 11.8675 12.534 11.8801 12.534C11.8927 12.534 11.9037 12.5267 11.9164 12.5267C11.9291 12.5267 11.9437 12.5194 11.9564 12.5194C11.9692 12.5194 11.9836 12.5194 11.9964 12.5194C12.0092 12.5194 12.02 12.5158 12.0328 12.5158C12.0752 12.5158 12.1177 12.5158 12.1601 12.5158C12.2025 12.5158 12.2451 12.5091 12.2873 12.5049C12.3296 12.5007 12.3726 12.4967 12.4146 12.4903C12.4566 12.484 12.4966 12.4733 12.5382 12.4649C12.5799 12.4565 12.6207 12.4499 12.6619 12.4394C12.703 12.429 12.7449 12.4155 12.7855 12.4031C12.8261 12.3906 12.8656 12.3775 12.9055 12.3631C12.9455 12.3486 12.9863 12.3322 13.0255 12.3158C13.0647 12.2994 13.1035 12.2832 13.1419 12.2649C13.1802 12.2466 13.2172 12.2269 13.2546 12.2067C13.292 12.1865 13.331 12.1669 13.3673 12.1449C13.4037 12.1229 13.4375 12.0996 13.4728 12.0758C13.5081 12.052 13.5442 12.025 13.5782 11.9994C13.6123 11.9739 13.6436 11.9502 13.6764 11.9231C13.7092 11.8959 13.7432 11.8682 13.7746 11.8394C13.806 11.8106 13.8355 11.7788 13.8655 11.7485C13.8955 11.7182 13.9243 11.6893 13.9528 11.6576C13.9813 11.6259 14.0095 11.5925 14.0364 11.5594C14.0634 11.5263 14.0911 11.492 14.1164 11.4576C14.1417 11.4232 14.1656 11.3878 14.1892 11.3522C14.2128 11.3165 14.2364 11.2798 14.2582 11.2431C14.2801 11.2063 14.3001 11.1717 14.3201 11.134C14.3401 11.0962 14.3601 11.0563 14.3782 11.0176C14.3964 10.9789 14.4129 10.9408 14.4292 10.9012C14.4454 10.8617 14.4585 10.8216 14.4728 10.7812C14.4871 10.7409 14.5005 10.6986 14.5128 10.6576C14.5251 10.6166 14.5388 10.5755 14.5492 10.534C14.5595 10.4924 14.5663 10.4524 14.5746 10.4103C14.5829 10.3683 14.5902 10.3254 14.5964 10.2831C14.6027 10.2407 14.6104 10.1984 14.6146 10.1558C14.6188 10.1132 14.6219 10.0713 14.6219 10.0285C14.6219 9.98574 14.6255 9.94044 14.6255 9.89761C14.6255 9.88465 14.6292 9.87418 14.6292 9.86125C14.6292 9.84831 14.6292 9.83413 14.6292 9.82125C14.6292 9.80836 14.6364 9.79406 14.6364 9.78125C14.6364 9.76844 14.6401 9.7576 14.6401 9.74488C14.6401 9.7322 14.651 9.71745 14.651 9.70488C14.651 9.69232 14.6582 9.68091 14.6619 9.66852C14.6656 9.65613 14.6685 9.64435 14.6728 9.63216C14.6771 9.61997 14.6824 9.60776 14.6873 9.59579C14.6922 9.58382 14.6964 9.57113 14.7019 9.55943C14.7074 9.54773 14.714 9.53813 14.7201 9.5267C14.7261 9.51528 14.7317 9.50144 14.7382 9.49034C14.7448 9.47924 14.7529 9.46837 14.7601 9.45761C14.7672 9.44685 14.7742 9.43893 14.7819 9.42852C14.7895 9.41811 14.7955 9.40581 14.8037 9.39579C14.8118 9.38578 14.8205 9.3763 14.8292 9.3667C14.8378 9.35711 14.8455 9.34676 14.8546 9.33761C14.8637 9.32844 14.8742 9.32084 14.8837 9.31216C14.8932 9.30345 14.9029 9.29491 14.9128 9.2867C14.9227 9.27847 14.9316 9.2726 14.9419 9.26488C14.9522 9.25717 14.9639 9.24663 14.9746 9.23943C14.9853 9.23223 14.9963 9.2279 15.0073 9.22125C15.0183 9.2146 15.0287 9.20554 15.0401 9.19943C15.0514 9.19333 15.0648 9.19042 15.0764 9.18488C15.088 9.17935 15.0973 9.17165 15.1092 9.1667C15.121 9.16174 15.1334 9.15651 15.1455 9.15216C15.1576 9.14779 15.1696 9.14501 15.1819 9.14125C15.1942 9.13749 15.2094 9.13034 15.2219 9.13034C15.2343 9.13034 15.2457 9.12307 15.2582 9.12307C15.2708 9.12307 15.2819 9.11579 15.2946 9.11579C15.3073 9.11579 15.3218 9.11216 15.3346 9.11216C15.3474 9.11216 15.3582 9.10852 15.371 9.10852C15.3838 9.10852 15.3981 9.10852 15.411 9.10852C15.4238 9.10852 15.4345 9.10852 15.4473 9.10852C15.4602 9.10852 15.4746 9.11216 15.4873 9.11216C15.5001 9.11216 15.5147 9.11579 15.5273 9.11579C15.54 9.11579 15.5511 9.12307 15.5637 9.12307C15.5763 9.12307 15.5876 9.13034 15.6001 9.13034C15.6125 9.13034 15.6242 9.13749 15.6364 9.14125C15.6487 9.14501 15.6644 9.14779 15.6764 9.15216C15.6885 9.15651 15.6973 9.16174 15.7092 9.1667C15.721 9.17165 15.7339 9.17935 15.7455 9.18488C15.7571 9.19042 15.7706 9.19333 15.7819 9.19943C15.7932 9.20554 15.8036 9.2146 15.8146 9.22125C15.8256 9.2279 15.8367 9.23223 15.8473 9.23943C15.858 9.24663 15.8661 9.25717 15.8764 9.26488C15.8867 9.2726 15.8992 9.27847 15.9092 9.2867C15.9191 9.29491 15.9287 9.30345 15.9382 9.31216C15.9478 9.32084 15.9546 9.32844 15.9637 9.33761C15.9728 9.34676 15.9842 9.35711 15.9928 9.3667C16.0014 9.3763 16.0101 9.38578 16.0182 9.39579C16.0264 9.40581 16.0324 9.41811 16.0401 9.42852C16.0477 9.43893 16.0548 9.44685 16.0619 9.45761C16.069 9.46837 16.0771 9.47924 16.0837 9.49034C16.0903 9.50144 16.0958 9.51528 16.1019 9.5267C16.1079 9.53813 16.1146 9.54773 16.1201 9.55943C16.1255 9.57113 16.1297 9.58382 16.1346 9.59579C16.1395 9.60776 16.1448 9.61997 16.1492 9.63216C16.1535 9.64435 16.1563 9.65613 16.1601 9.66852C16.1638 9.68091 16.171 9.69232 16.171 9.70488C16.171 9.71745 16.1782 9.7322 16.1782 9.74488C16.1782 9.7576 16.1855 9.76844 16.1855 9.78125C16.1855 9.79406 16.1892 9.80836 16.1892 9.82125C16.1892 9.83413 16.1928 9.84831 16.1928 9.86125C16.1928 9.87418 16.1928 9.88465 16.1928 9.89761C16.1928 12.2142 14.3269 14.1012 12.0328 14.1012Z" stroke="rgba(204, 78, 29, 1)" stroke-width="0.2"      fill="#CC4E1D" ></path><path d="M18.3056 21.0903L5.76018 21.0903C5.74734 21.0903 5.73663 21.0903 5.72381 21.0903C5.711 21.0903 5.69658 21.0867 5.68381 21.0867C5.67105 21.0867 5.66014 21.0831 5.64745 21.0831C5.63476 21.0831 5.62004 21.0758 5.60745 21.0758C5.59488 21.0758 5.58353 21.0685 5.57109 21.0685C5.55864 21.0685 5.547 21.0614 5.53472 21.0576C5.52245 21.0539 5.51044 21.0475 5.49836 21.0431C5.48628 21.0387 5.47385 21.0371 5.462 21.0322C5.45014 21.0272 5.43722 21.0195 5.42563 21.014C5.41404 21.0084 5.40422 21.0019 5.3929 20.9958C5.38159 20.9897 5.37118 20.9843 5.36018 20.9776C5.34918 20.971 5.33811 20.963 5.32745 20.9558C5.31679 20.9486 5.30504 20.9417 5.29472 20.934C5.28441 20.9263 5.27555 20.9204 5.26563 20.9122C5.25571 20.904 5.24605 20.8954 5.23654 20.8867C5.22704 20.878 5.21652 20.8668 5.20745 20.8576C5.19836 20.8485 5.19059 20.8418 5.182 20.8322C5.17337 20.8226 5.16467 20.8131 5.15654 20.8031C5.14838 20.7931 5.13873 20.7808 5.13109 20.7703C5.12344 20.7599 5.1164 20.7484 5.10927 20.7376C5.10214 20.7269 5.09404 20.716 5.08745 20.7049C5.08086 20.6938 5.07532 20.6836 5.06927 20.6722C5.06322 20.6607 5.05657 20.6511 5.05109 20.6394C5.0456 20.6277 5.04144 20.615 5.03654 20.6031C5.03162 20.5911 5.02631 20.5789 5.022 20.5667C5.01766 20.5545 5.01481 20.5427 5.01109 20.5303C5.00736 20.518 5.00018 20.5029 5.00018 20.4903C5.00018 20.4778 4.9929 20.4667 4.9929 20.454C4.9929 20.4413 4.98563 20.4268 4.98563 20.414C4.98563 20.4012 4.982 20.3905 4.982 20.3776C4.982 20.3647 4.97836 20.3506 4.97836 20.3376C4.97836 20.3247 4.97836 20.3142 4.97836 20.3013C4.97836 20.2883 4.97836 20.2742 4.97836 20.2613C4.97836 20.2483 4.982 20.2341 4.982 20.2213C4.982 20.2084 4.98563 20.1977 4.98563 20.1849C4.98563 20.1721 4.9929 20.1576 4.9929 20.1449C4.9929 20.1322 5.00018 20.1211 5.00018 20.1085C5.00018 20.096 5.00736 20.0809 5.01109 20.0685C5.01481 20.0561 5.01766 20.0444 5.022 20.0322C5.02631 20.02 5.03162 20.0078 5.03654 19.9958C5.04144 19.9838 5.0456 19.9711 5.05109 19.9594C5.05657 19.9477 5.06322 19.9381 5.06927 19.9267C5.07532 19.9153 5.08086 19.9051 5.08745 19.894C5.09404 19.8829 5.10214 19.872 5.10927 19.8613C5.1164 19.8505 5.12344 19.8389 5.13109 19.8285C5.13873 19.8181 5.14838 19.8058 5.15654 19.7958C5.16467 19.7858 5.17337 19.7763 5.182 19.7667C5.19059 19.7571 5.19836 19.7504 5.20745 19.7413C5.21652 19.7321 5.22704 19.7208 5.23654 19.7122C5.24605 19.7035 5.25571 19.6949 5.26563 19.6867C5.27555 19.6785 5.28441 19.6726 5.29472 19.6649C5.30504 19.6572 5.31679 19.6503 5.32745 19.6431C5.33811 19.6359 5.34918 19.6279 5.36018 19.6213C5.37118 19.6146 5.38159 19.6092 5.3929 19.6031C5.40422 19.597 5.41404 19.5904 5.42563 19.5849C5.43722 19.5794 5.45014 19.5717 5.462 19.5667C5.47385 19.5617 5.48628 19.5602 5.49836 19.5558C5.51044 19.5514 5.52245 19.545 5.53472 19.5413C5.547 19.5375 5.55864 19.5303 5.57109 19.5303C5.58353 19.5303 5.59488 19.5231 5.60745 19.5231C5.62004 19.5231 5.63476 19.5158 5.64745 19.5158C5.66014 19.5158 5.67105 19.5122 5.68381 19.5122C5.69658 19.5122 5.711 19.5085 5.72381 19.5085C5.73663 19.5085 5.74734 19.5085 5.76018 19.5085L18.3056 19.5085C18.3185 19.5085 18.3292 19.5085 18.342 19.5085C18.3548 19.5085 18.3692 19.5122 18.382 19.5122C18.3948 19.5122 18.4057 19.5158 18.4184 19.5158C18.431 19.5158 18.4458 19.5231 18.4584 19.5231C18.4709 19.5231 18.4823 19.5303 18.4947 19.5303C18.5072 19.5303 18.5188 19.5375 18.5311 19.5413C18.5434 19.545 18.5554 19.5514 18.5674 19.5558C18.5795 19.5602 18.592 19.5617 18.6038 19.5667C18.6156 19.5717 18.6286 19.5794 18.6402 19.5849C18.6518 19.5904 18.6616 19.597 18.6729 19.6031C18.6842 19.6092 18.6983 19.6146 18.7093 19.6213C18.7203 19.6279 18.7313 19.6359 18.742 19.6431C18.7527 19.6503 18.7608 19.6572 18.7711 19.6649C18.7814 19.6726 18.7939 19.6785 18.8038 19.6867C18.8137 19.6949 18.8234 19.7035 18.8329 19.7122C18.8424 19.7208 18.8493 19.7321 18.8584 19.7413C18.8674 19.7504 18.8789 19.7571 18.8874 19.7667C18.8961 19.7763 18.9011 19.7858 18.9093 19.7958C18.9174 19.8058 18.9271 19.8181 18.9347 19.8285C18.9424 19.8389 18.9494 19.8505 18.9565 19.8613C18.9637 19.872 18.9718 19.8829 18.9784 19.894C18.9849 19.9051 18.9905 19.9153 18.9965 19.9267C19.0026 19.9381 19.0092 19.9477 19.0147 19.9594C19.0202 19.9711 19.0243 19.9838 19.0293 19.9958C19.0342 20.0078 19.0395 20.02 19.0438 20.0322C19.0481 20.0444 19.051 20.0561 19.0547 20.0685C19.0584 20.0809 19.0656 20.096 19.0656 20.1085C19.0656 20.1211 19.0729 20.1322 19.0729 20.1449C19.0729 20.1576 19.0802 20.1721 19.0802 20.1849C19.0802 20.1977 19.0838 20.2084 19.0838 20.2213C19.0838 20.2341 19.0875 20.2483 19.0875 20.2613C19.0875 20.2742 19.0875 20.2883 19.0875 20.3013C19.0875 20.3142 19.0875 20.3247 19.0875 20.3376C19.0875 20.3506 19.0838 20.3647 19.0838 20.3776C19.0838 20.3905 19.0802 20.4012 19.0802 20.414C19.0802 20.4268 19.0729 20.4413 19.0729 20.454C19.0729 20.4667 19.0656 20.4778 19.0656 20.4903C19.0656 20.5029 19.0584 20.518 19.0547 20.5303C19.051 20.5427 19.0481 20.5545 19.0438 20.5667C19.0395 20.5789 19.0342 20.5911 19.0293 20.6031C19.0243 20.615 19.0202 20.6277 19.0147 20.6394C19.0093 20.6511 19.0026 20.6607 18.9965 20.6722C18.9905 20.6836 18.9849 20.6938 18.9784 20.7049C18.9718 20.716 18.9637 20.7269 18.9565 20.7376C18.9494 20.7484 18.9424 20.7599 18.9347 20.7703C18.9271 20.7808 18.9174 20.7931 18.9093 20.8031C18.9011 20.8131 18.8961 20.8226 18.8874 20.8322C18.8789 20.8418 18.8674 20.8485 18.8584 20.8576C18.8493 20.8668 18.8424 20.878 18.8329 20.8867C18.8234 20.8954 18.8137 20.904 18.8038 20.9122C18.7939 20.9204 18.7814 20.9263 18.7711 20.934C18.7608 20.9417 18.7527 20.9486 18.742 20.9558C18.7313 20.963 18.7203 20.971 18.7093 20.9776C18.6983 20.9843 18.6842 20.9897 18.6729 20.9958C18.6616 21.0019 18.6518 21.0084 18.6402 21.014C18.6286 21.0195 18.6156 21.0272 18.6038 21.0322C18.592 21.0371 18.5795 21.0387 18.5674 21.0431C18.5554 21.0475 18.5434 21.0539 18.5311 21.0576C18.5188 21.0614 18.5072 21.0685 18.4947 21.0685C18.4823 21.0685 18.4709 21.0758 18.4584 21.0758C18.4458 21.0758 18.431 21.0831 18.4184 21.0831C18.4057 21.0831 18.3948 21.0867 18.382 21.0867C18.3692 21.0867 18.3548 21.0903 18.342 21.0903C18.3292 21.0903 18.3185 21.0903 18.3056 21.0903ZM5.73836 13.0613L4.56381 13.0613C4.51891 13.0613 4.4741 13.0576 4.42927 13.0576C4.38444 13.0576 4.33939 13.0512 4.29472 13.0467C4.25005 13.0422 4.20459 13.0389 4.16018 13.0322C4.11579 13.0255 4.06966 13.0156 4.02563 13.0067C3.98161 12.9978 3.93827 12.9887 3.89472 12.9776C3.85118 12.9666 3.8104 12.9544 3.76745 12.9413C3.72451 12.9281 3.67881 12.9129 3.63654 12.8976C3.59429 12.8823 3.55437 12.8677 3.5129 12.8503C3.47144 12.833 3.42984 12.8152 3.38927 12.7958C3.3487 12.7764 3.30886 12.7553 3.26927 12.734C3.2297 12.7126 3.1914 12.6882 3.1529 12.6649C3.11439 12.6416 3.0775 12.6173 3.04018 12.5922C3.00286 12.567 2.9635 12.5428 2.92745 12.5158C2.8914 12.4888 2.8567 12.4609 2.822 12.4322C2.78731 12.4034 2.75345 12.3717 2.72018 12.3413C2.68692 12.3108 2.65375 12.2824 2.622 12.2503C2.59026 12.2183 2.56124 12.1857 2.53109 12.1522C2.50094 12.1186 2.4723 12.0817 2.44381 12.0467C2.41533 12.0117 2.38693 11.9776 2.36018 11.9413C2.33342 11.9049 2.30513 11.8662 2.28018 11.8285C2.25524 11.7909 2.23418 11.7547 2.21109 11.7158C2.18799 11.677 2.16318 11.6357 2.142 11.5958C2.12081 11.5558 2.10302 11.5168 2.08381 11.4758C2.06461 11.4349 2.04647 11.394 2.02927 11.3522C2.01205 11.3103 1.9935 11.2675 1.97836 11.2249C1.9632 11.1822 1.95141 11.1373 1.93836 11.094C1.92529 11.0506 1.91294 11.007 1.902 10.9631C1.89106 10.9191 1.8817 10.8766 1.8729 10.8322C1.86411 10.7877 1.85408 10.7424 1.84745 10.6976C1.84082 10.6528 1.83735 10.6082 1.8329 10.5631C1.82846 10.518 1.822 10.4738 1.822 10.4285C1.822 10.3833 1.81836 10.3357 1.81836 10.2903L1.81836 9.50126C1.81836 9.45593 1.822 9.40833 1.822 9.36307C1.822 9.31782 1.82846 9.27361 1.8329 9.22853C1.83735 9.18344 1.84082 9.13881 1.84745 9.09398C1.85408 9.04918 1.86411 9.00389 1.8729 8.95944C1.8817 8.91501 1.89106 8.87248 1.902 8.82853C1.91294 8.78458 1.92529 8.74098 1.93836 8.69762C1.95141 8.65428 1.9632 8.60938 1.97836 8.56671C1.9935 8.52406 2.01205 8.4813 2.02927 8.43944C2.04647 8.39758 2.06461 8.35675 2.08381 8.3158C2.10302 8.27485 2.12081 8.23576 2.142 8.1958C2.16318 8.15586 2.18799 8.11466 2.21109 8.0758C2.23418 8.03693 2.25524 8.00074 2.28018 7.96307C2.30513 7.9254 2.33342 7.88673 2.36018 7.85035C2.38693 7.81396 2.41533 7.77993 2.44381 7.74489C2.4723 7.70988 2.50094 7.67302 2.53109 7.63944C2.56124 7.60587 2.59026 7.5733 2.622 7.54126C2.65375 7.50922 2.68692 7.48078 2.72018 7.45035C2.75345 7.4199 2.78731 7.38819 2.822 7.35944C2.8567 7.3307 2.8914 7.3028 2.92745 7.2758C2.9635 7.2488 3.00286 7.22463 3.04018 7.19944C3.0775 7.17426 3.11439 7.15002 3.1529 7.12671C3.1914 7.1034 3.2297 7.079 3.26927 7.05762C3.30886 7.03624 3.3487 7.01519 3.38927 6.9958C3.42984 6.97641 3.47144 6.95863 3.5129 6.94126C3.55437 6.9239 3.59429 6.90927 3.63654 6.89398C3.67881 6.87868 3.72451 6.86352 3.76745 6.85035C3.8104 6.83716 3.85118 6.82503 3.89472 6.81398C3.93827 6.80294 3.98161 6.79376 4.02563 6.78489C4.06966 6.77601 4.11579 6.76611 4.16018 6.75944C4.20459 6.75274 4.25005 6.74938 4.29472 6.74489C4.33939 6.74041 4.38444 6.73398 4.42927 6.73398C4.4741 6.73398 4.51891 6.73035 4.56381 6.73035L5.73836 6.73035C5.7512 6.73035 5.76555 6.73035 5.77836 6.73035C5.79117 6.73035 5.80196 6.73398 5.81472 6.73398C5.82749 6.73398 5.84203 6.73762 5.85472 6.73762C5.86741 6.73762 5.87849 6.74489 5.89109 6.74489C5.90365 6.74489 5.915 6.7558 5.92745 6.7558C5.9399 6.7558 5.95518 6.75932 5.96745 6.76307C5.97972 6.76683 5.99174 6.77325 6.00381 6.77762C6.01589 6.78197 6.02468 6.7872 6.03654 6.79216C6.0484 6.79711 6.06132 6.80117 6.0729 6.80671C6.08449 6.81225 6.09795 6.81878 6.10927 6.82489C6.12056 6.83099 6.131 6.83641 6.142 6.84307C6.153 6.84973 6.16407 6.8577 6.17472 6.86489C6.18538 6.87208 6.1935 6.879 6.20381 6.88671C6.21413 6.89443 6.22662 6.9003 6.23654 6.90853C6.24646 6.91674 6.25613 6.92528 6.26563 6.93398C6.27514 6.94267 6.28202 6.95391 6.29109 6.96307C6.30018 6.97222 6.31158 6.97893 6.32018 6.98853C6.3288 6.99812 6.3375 7.01125 6.34563 7.02126C6.35379 7.03128 6.35981 7.03994 6.36745 7.05035C6.37509 7.06075 6.38214 7.07231 6.38927 7.08307C6.3964 7.09384 6.4045 7.10469 6.41109 7.1158C6.41768 7.1269 6.42322 7.1371 6.42927 7.14853C6.43532 7.15995 6.44196 7.17319 6.44745 7.18489C6.45291 7.1966 6.45707 7.20565 6.462 7.21762C6.46692 7.22959 6.47223 7.24178 6.47654 7.25398C6.48088 7.26617 6.48373 7.27795 6.48745 7.29035C6.49117 7.30274 6.49836 7.31778 6.49836 7.33035C6.49836 7.34291 6.50563 7.35402 6.50563 7.36671C6.50563 7.37942 6.5129 7.3939 6.5129 7.40671C6.5129 7.41952 6.52018 7.4302 6.52018 7.44307C6.52018 7.45597 6.52018 7.47013 6.52018 7.48307C6.52018 7.496 6.52381 7.51012 6.52381 7.52307L6.52381 12.2685C6.52381 12.2815 6.52018 12.2956 6.52018 12.3085C6.52018 12.3215 6.52018 12.3356 6.52018 12.3485C6.52018 12.3614 6.5129 12.3721 6.5129 12.3849C6.5129 12.3977 6.50563 12.4122 6.50563 12.4249C6.50563 12.4376 6.49836 12.4487 6.49836 12.4613C6.49836 12.4738 6.49117 12.4852 6.48745 12.4976C6.48373 12.51 6.48088 12.5254 6.47654 12.5376C6.47223 12.5498 6.46692 12.562 6.462 12.574C6.45707 12.586 6.45291 12.595 6.44745 12.6067C6.44196 12.6184 6.43532 12.6316 6.42927 12.6431C6.42322 12.6545 6.41768 12.6647 6.41109 12.6758C6.4045 12.6869 6.3964 12.6978 6.38927 12.7085C6.38214 12.7193 6.37509 12.7308 6.36745 12.7413C6.35981 12.7517 6.35379 12.7603 6.34563 12.7703C6.3375 12.7804 6.3288 12.7898 6.32018 12.7994C6.31158 12.809 6.30018 12.8194 6.29109 12.8285C6.28202 12.8377 6.27514 12.8489 6.26563 12.8576C6.25613 12.8663 6.24646 12.8749 6.23654 12.8831C6.22662 12.8913 6.21413 12.8972 6.20381 12.9049C6.1935 12.9126 6.18538 12.9195 6.17472 12.9267C6.16407 12.9339 6.153 12.9419 6.142 12.9485C6.131 12.9552 6.12056 12.9606 6.10927 12.9667C6.09795 12.9728 6.08449 12.9794 6.0729 12.9849C6.06132 12.9904 6.0484 12.9945 6.03654 12.9994C6.02468 13.0044 6.01589 13.0096 6.00381 13.014C5.99174 13.0184 5.97972 13.0248 5.96745 13.0285C5.95518 13.0323 5.9399 13.0358 5.92745 13.0358C5.915 13.0358 5.90365 13.0467 5.89109 13.0467C5.87849 13.0467 5.86741 13.054 5.85472 13.054C5.84203 13.054 5.82749 13.0576 5.81472 13.0576C5.80196 13.0576 5.79117 13.0613 5.77836 13.0613C5.76555 13.0613 5.7512 13.0613 5.73836 13.0613ZM4.56381 8.31217C4.54458 8.31217 4.52486 8.3158 4.50563 8.3158C4.48642 8.3158 4.46658 8.31944 4.44745 8.31944C4.42829 8.31944 4.4083 8.32671 4.38927 8.32671C4.37023 8.32671 4.35359 8.33381 4.33472 8.33762C4.31586 8.34141 4.29521 8.3438 4.27654 8.34853C4.25789 8.35326 4.2404 8.35742 4.222 8.36307C4.20359 8.36873 4.18556 8.37471 4.16745 8.38126C4.14934 8.38782 4.13067 8.39564 4.1129 8.40307C4.09514 8.41051 4.07575 8.4202 4.05836 8.42853C4.04098 8.43684 4.02442 8.44483 4.00745 8.45398C3.99048 8.46315 3.97304 8.47308 3.95654 8.48307C3.94005 8.49306 3.92527 8.50137 3.90927 8.51217C3.89328 8.52296 3.87745 8.53697 3.862 8.54853C3.84654 8.5601 3.83322 8.56893 3.81836 8.58126C3.80348 8.59357 3.78535 8.60822 3.77109 8.62126C3.75683 8.6343 3.74469 8.64752 3.73109 8.66126C3.7175 8.67499 3.70402 8.6905 3.69109 8.70489C3.67817 8.71928 3.66692 8.73351 3.65472 8.74853C3.64251 8.76353 3.62983 8.77657 3.61836 8.79216C3.60691 8.80776 3.59633 8.8233 3.58563 8.83944C3.57493 8.85559 3.5628 8.8737 3.5529 8.89035C3.54301 8.907 3.5329 8.92413 3.52381 8.94126C3.51475 8.95837 3.50659 8.97461 3.49836 8.99216C3.49011 9.00972 3.48391 9.02877 3.47654 9.04671C3.46917 9.06465 3.46122 9.08297 3.45472 9.10126C3.44824 9.11954 3.44214 9.13722 3.43654 9.1558C3.43094 9.17438 3.42668 9.19152 3.422 9.21035C3.41731 9.22919 3.41121 9.24949 3.40745 9.26853C3.40368 9.28757 3.40018 9.3075 3.40018 9.32671C3.40018 9.34592 3.3929 9.36555 3.3929 9.38489C3.3929 9.40421 3.38927 9.42369 3.38927 9.44307C3.38927 9.46249 3.38563 9.48184 3.38563 9.50126L3.38563 10.2903C3.38563 10.3098 3.38927 10.3291 3.38927 10.3485C3.38927 10.3679 3.3929 10.3874 3.3929 10.4067C3.3929 10.426 3.40018 10.4457 3.40018 10.4649C3.40018 10.4841 3.40368 10.504 3.40745 10.5231C3.41121 10.5421 3.41731 10.5624 3.422 10.5813C3.42668 10.6001 3.43094 10.6172 3.43654 10.6358C3.44214 10.6544 3.44824 10.6721 3.45472 10.6903C3.46122 10.7086 3.46917 10.727 3.47654 10.7449C3.48391 10.7628 3.49011 10.7819 3.49836 10.7994C3.50659 10.817 3.51475 10.8332 3.52381 10.8503C3.5329 10.8675 3.54301 10.8846 3.5529 10.9013C3.5628 10.9179 3.57493 10.936 3.58563 10.9522C3.59631 10.9683 3.60689 10.9838 3.61836 10.9994C3.62983 11.015 3.64251 11.0281 3.65472 11.0431C3.66692 11.0581 3.67817 11.0723 3.69109 11.0867C3.70401 11.1011 3.71748 11.1166 3.73109 11.1303C3.74469 11.1441 3.75683 11.1573 3.77109 11.1703C3.78535 11.1834 3.80348 11.1944 3.81836 11.2067C3.83322 11.219 3.84654 11.2315 3.862 11.2431C3.87745 11.2546 3.89328 11.2686 3.90927 11.2794C3.92527 11.2902 3.94005 11.2985 3.95654 11.3085C3.97304 11.3185 3.99048 11.3285 4.00745 11.3376C4.0244 11.3468 4.04097 11.3548 4.05836 11.3631C4.07575 11.3714 4.09514 11.3811 4.1129 11.3885C4.13067 11.396 4.14934 11.4038 4.16745 11.4103C4.18556 11.4169 4.20359 11.4229 4.222 11.4285C4.2404 11.4342 4.25789 11.4384 4.27654 11.4431C4.29521 11.4478 4.31586 11.4502 4.33472 11.454C4.35359 11.4578 4.37023 11.4649 4.38927 11.4649C4.4083 11.4649 4.42829 11.4722 4.44745 11.4722C4.46658 11.4722 4.48642 11.4758 4.50563 11.4758C4.52486 11.4758 4.54458 11.4794 4.56381 11.4794L4.9529 11.4794L4.9529 8.31217L4.56381 8.31217ZM19.4584 13.0613L18.2838 13.0613C18.271 13.0613 18.2603 13.0613 18.2474 13.0613C18.2346 13.0613 18.2202 13.0576 18.2074 13.0576C18.1947 13.0576 18.1801 13.054 18.1674 13.054C18.1548 13.054 18.1437 13.0467 18.1311 13.0467C18.1185 13.0467 18.1072 13.0358 18.0947 13.0358C18.0823 13.0358 18.0706 13.0323 18.0584 13.0285C18.0461 13.0248 18.0304 13.0184 18.0184 13.014C18.0063 13.0096 17.9975 13.0044 17.9856 12.9994C17.9738 12.9945 17.9609 12.9904 17.9493 12.9849C17.9377 12.9794 17.9242 12.9728 17.9129 12.9667C17.9016 12.9606 17.8912 12.9552 17.8802 12.9485C17.8692 12.9419 17.8581 12.9339 17.8475 12.9267C17.8368 12.9195 17.8287 12.9126 17.8184 12.9049C17.808 12.8972 17.7956 12.8913 17.7856 12.8831C17.7757 12.8749 17.766 12.8663 17.7565 12.8576C17.747 12.8489 17.7402 12.8377 17.7311 12.8285C17.722 12.8194 17.7106 12.809 17.702 12.7994C17.6934 12.7898 17.6847 12.7804 17.6765 12.7703C17.6684 12.7603 17.6624 12.7517 17.6547 12.7413C17.6471 12.7308 17.64 12.7193 17.6329 12.7085C17.6258 12.6978 17.6177 12.6869 17.6111 12.6758C17.6045 12.6647 17.599 12.6545 17.5929 12.6431C17.5869 12.6316 17.5802 12.6184 17.5747 12.6067C17.5692 12.595 17.5651 12.586 17.5602 12.574C17.5553 12.562 17.5499 12.5498 17.5456 12.5376C17.5413 12.5254 17.5384 12.51 17.5347 12.4976C17.531 12.4852 17.5238 12.4738 17.5238 12.4613C17.5238 12.4487 17.5165 12.4376 17.5165 12.4249C17.5165 12.4122 17.5093 12.3977 17.5093 12.3849C17.5093 12.3721 17.5056 12.3614 17.5056 12.3485C17.5056 12.3356 17.502 12.3215 17.502 12.3085C17.502 12.2956 17.502 12.2815 17.502 12.2685L17.502 7.52307C17.502 7.51012 17.502 7.496 17.502 7.48307C17.502 7.47013 17.5056 7.45597 17.5056 7.44307C17.5056 7.4302 17.5093 7.41952 17.5093 7.40671C17.5093 7.3939 17.5165 7.37942 17.5165 7.36671C17.5165 7.35402 17.5238 7.34291 17.5238 7.33035C17.5238 7.31778 17.531 7.30274 17.5347 7.29035C17.5384 7.27795 17.5413 7.26617 17.5456 7.25398C17.5499 7.24178 17.5553 7.22959 17.5602 7.21762C17.5651 7.20565 17.5693 7.1966 17.5747 7.18489C17.5802 7.17319 17.5869 7.15995 17.5929 7.14853C17.599 7.13712 17.6045 7.12691 17.6111 7.1158C17.6177 7.10469 17.6258 7.09384 17.6329 7.08307C17.64 7.07231 17.6471 7.06075 17.6547 7.05035C17.6624 7.03994 17.6684 7.03128 17.6765 7.02126C17.6847 7.01125 17.6934 6.99812 17.702 6.98853C17.7106 6.97893 17.722 6.97222 17.7311 6.96307C17.7402 6.95391 17.747 6.94267 17.7565 6.93398C17.766 6.92528 17.7757 6.91674 17.7856 6.90853C17.7956 6.9003 17.808 6.89443 17.8184 6.88671C17.8287 6.879 17.8368 6.87208 17.8475 6.86489C17.8581 6.8577 17.8692 6.84973 17.8802 6.84307C17.8912 6.83641 17.9016 6.83099 17.9129 6.82489C17.9242 6.81878 17.9377 6.81225 17.9493 6.80671C17.9609 6.80117 17.9738 6.79711 17.9856 6.79216C17.9975 6.7872 18.0063 6.78197 18.0184 6.77762C18.0304 6.77325 18.0461 6.76683 18.0584 6.76307C18.0706 6.75932 18.0823 6.7558 18.0947 6.7558C18.1072 6.7558 18.1185 6.74489 18.1311 6.74489C18.1437 6.74489 18.1548 6.73762 18.1674 6.73762C18.1801 6.73762 18.1947 6.73398 18.2074 6.73398C18.2202 6.73398 18.2346 6.73035 18.2474 6.73035C18.2603 6.73035 18.271 6.73035 18.2838 6.73035L19.4584 6.73035C19.5033 6.73035 19.5517 6.73398 19.5965 6.73398C19.6414 6.73398 19.6828 6.74041 19.7274 6.74489C19.7721 6.74938 19.8176 6.75274 19.862 6.75944C19.9064 6.76613 19.9525 6.77602 19.9965 6.78489C20.0406 6.79376 20.0839 6.80294 20.1274 6.81398C20.171 6.82503 20.2118 6.83716 20.2547 6.85035C20.2977 6.86352 20.3434 6.87868 20.3856 6.89398C20.4279 6.90927 20.4678 6.92388 20.5093 6.94126C20.5507 6.95862 20.5923 6.97641 20.6329 6.9958C20.6735 7.01519 20.7133 7.03624 20.7529 7.05762C20.7925 7.079 20.8308 7.1034 20.8693 7.12671C20.9078 7.15002 20.9483 7.17426 20.9856 7.19944C21.0229 7.22463 21.0587 7.2488 21.0947 7.2758C21.1308 7.3028 21.1655 7.33069 21.2002 7.35944C21.2349 7.38819 21.2687 7.41991 21.302 7.45035C21.3352 7.48078 21.3684 7.50922 21.4002 7.54126C21.4319 7.5733 21.4609 7.60587 21.4911 7.63944C21.5212 7.67302 21.5535 7.70988 21.582 7.74489C21.6105 7.77993 21.6353 7.81396 21.662 7.85035C21.6887 7.88675 21.717 7.92542 21.742 7.96307C21.767 8.00076 21.788 8.03695 21.8111 8.0758C21.8342 8.11466 21.859 8.15586 21.8802 8.1958C21.9014 8.23576 21.9192 8.27485 21.9384 8.3158C21.9576 8.35675 21.9757 8.39758 21.9929 8.43944C22.0101 8.4813 22.0287 8.52406 22.0438 8.56671C22.059 8.60938 22.0708 8.65426 22.0838 8.69762C22.0969 8.74096 22.1092 8.78458 22.1202 8.82853C22.1311 8.87248 22.1405 8.91501 22.1493 8.95944C22.1581 9.00389 22.1681 9.04918 22.1747 9.09398C22.1814 9.13881 22.1848 9.18344 22.1893 9.22853C22.1937 9.27361 22.2002 9.31782 22.2002 9.36307C22.2002 9.40833 22.2038 9.45593 22.2038 9.50126L22.2038 10.2903C22.2038 10.3357 22.2002 10.3833 22.2002 10.4285C22.2002 10.4738 22.1937 10.518 22.1893 10.5631C22.1848 10.6082 22.1814 10.6528 22.1747 10.6976C22.1681 10.7424 22.1581 10.7877 22.1493 10.8322C22.1405 10.8766 22.1311 10.9191 22.1202 10.9631C22.1092 11.007 22.0969 11.0506 22.0838 11.094C22.0708 11.1373 22.059 11.1822 22.0438 11.2249C22.0287 11.2675 22.0101 11.3103 21.9929 11.3522C21.9757 11.394 21.9576 11.4349 21.9384 11.4758C21.9192 11.5168 21.9014 11.5558 21.8802 11.5958C21.859 11.6357 21.8342 11.677 21.8111 11.7158C21.788 11.7547 21.767 11.7909 21.742 11.8285C21.717 11.8662 21.6887 11.9049 21.662 11.9413C21.6353 11.9776 21.6105 12.0117 21.582 12.0467C21.5535 12.0817 21.5212 12.1186 21.4911 12.1522C21.4609 12.1857 21.4319 12.2183 21.4002 12.2503C21.3684 12.2824 21.3352 12.3108 21.302 12.3413C21.2687 12.3717 21.2349 12.4034 21.2002 12.4322C21.1655 12.4609 21.1308 12.4888 21.0947 12.5158C21.0587 12.5428 21.0229 12.567 20.9856 12.5922C20.9483 12.6173 20.9078 12.6416 20.8693 12.6649C20.8308 12.6882 20.7925 12.7126 20.7529 12.734C20.7133 12.7554 20.6735 12.7764 20.6329 12.7958C20.5923 12.8152 20.5507 12.833 20.5093 12.8503C20.4678 12.8677 20.4279 12.8823 20.3856 12.8976C20.3434 12.9129 20.2977 12.9281 20.2547 12.9413C20.2118 12.9544 20.171 12.9666 20.1274 12.9776C20.0839 12.9887 20.0406 12.9978 19.9965 13.0067C19.9525 13.0156 19.9064 13.0255 19.862 13.0322C19.8176 13.0389 19.7721 13.0422 19.7274 13.0467C19.6828 13.0512 19.6414 13.0576 19.5965 13.0576C19.5517 13.0576 19.5033 13.0613 19.4584 13.0613ZM19.0693 11.4794L19.4584 11.4794C19.4776 11.4794 19.4973 11.4758 19.5165 11.4758C19.5357 11.4758 19.5556 11.4722 19.5747 11.4722C19.5939 11.4722 19.6139 11.4649 19.6329 11.4649C19.6519 11.4649 19.6722 11.4578 19.6911 11.454C19.7099 11.4502 19.727 11.4478 19.7456 11.4431C19.7643 11.4384 19.7818 11.4342 19.8002 11.4285C19.8186 11.4229 19.8366 11.4169 19.8547 11.4103C19.8728 11.4038 19.8915 11.396 19.9093 11.3885C19.927 11.3811 19.9464 11.3714 19.9638 11.3631C19.9812 11.3548 19.9978 11.3468 20.0147 11.3376C20.0317 11.3285 20.0491 11.3185 20.0656 11.3085C20.0821 11.2985 20.0969 11.2902 20.1129 11.2794C20.1289 11.2687 20.1447 11.2546 20.1602 11.2431C20.1756 11.2315 20.1926 11.219 20.2074 11.2067C20.2223 11.1944 20.2368 11.1834 20.2511 11.1703C20.2653 11.1573 20.2775 11.1441 20.2911 11.1303C20.3047 11.1166 20.3182 11.1011 20.3311 11.0867C20.344 11.0723 20.3552 11.0581 20.3675 11.0431C20.3797 11.0281 20.3923 11.015 20.4038 10.9994C20.4153 10.9838 20.4259 10.9683 20.4365 10.9522C20.4472 10.936 20.4594 10.9179 20.4693 10.9013C20.4792 10.8846 20.4893 10.8675 20.4984 10.8503C20.5074 10.8332 20.5156 10.817 20.5238 10.7994C20.5321 10.7819 20.5383 10.7628 20.5456 10.7449C20.553 10.727 20.561 10.7086 20.5674 10.6903C20.5739 10.6721 20.58 10.6544 20.5856 10.6358C20.5912 10.6172 20.5955 10.6001 20.6002 10.5813C20.6049 10.5624 20.611 10.5421 20.6147 10.5231C20.6185 10.504 20.622 10.4841 20.622 10.4649C20.622 10.4457 20.6293 10.426 20.6293 10.4067C20.6293 10.3874 20.6329 10.3679 20.6329 10.3485C20.6329 10.3291 20.6365 10.3098 20.6365 10.2903L20.6365 9.50126C20.6365 9.48184 20.6329 9.46249 20.6329 9.44307C20.6329 9.42369 20.6293 9.40421 20.6293 9.38489C20.6293 9.36555 20.622 9.34592 20.622 9.32671C20.622 9.3075 20.6185 9.28757 20.6147 9.26853C20.611 9.24949 20.6049 9.22919 20.6002 9.21035C20.5955 9.19152 20.5912 9.17438 20.5856 9.1558C20.58 9.13722 20.5739 9.11954 20.5674 9.10126C20.561 9.08297 20.553 9.06465 20.5456 9.04671C20.5383 9.02877 20.5321 9.00972 20.5238 8.99216C20.5156 8.97461 20.5074 8.95837 20.4984 8.94126C20.4893 8.92413 20.4792 8.907 20.4693 8.89035C20.4594 8.8737 20.4472 8.85559 20.4365 8.83944C20.4259 8.8233 20.4153 8.80776 20.4038 8.79216C20.3923 8.77657 20.3797 8.76355 20.3675 8.74853C20.3552 8.73353 20.344 8.71928 20.3311 8.70489C20.3182 8.6905 20.3047 8.67499 20.2911 8.66126C20.2775 8.64752 20.2653 8.6343 20.2511 8.62126C20.2368 8.60822 20.2223 8.59357 20.2074 8.58126C20.1926 8.56893 20.1756 8.5601 20.1602 8.54853C20.1447 8.53696 20.1289 8.52295 20.1129 8.51217C20.0969 8.50137 20.0821 8.49306 20.0656 8.48307C20.0491 8.47308 20.0317 8.46315 20.0147 8.45398C19.9977 8.44483 19.9812 8.43684 19.9638 8.42853C19.9464 8.4202 19.927 8.41051 19.9093 8.40307C19.8915 8.39564 19.8728 8.38782 19.8547 8.38126C19.8366 8.37471 19.8186 8.36873 19.8002 8.36307C19.7818 8.35742 19.7643 8.35326 19.7456 8.34853C19.727 8.3438 19.7099 8.34141 19.6911 8.33762C19.6722 8.33381 19.6519 8.32671 19.6329 8.32671C19.6139 8.32671 19.5939 8.31944 19.5747 8.31944C19.5556 8.31944 19.5357 8.3158 19.5165 8.3158C19.4973 8.3158 19.4776 8.31217 19.4584 8.31217L19.0693 8.31217L19.0693 11.4794Z" stroke="rgba(3, 79, 161, 1)" stroke-width="0.2"      fill="#034FA1" ></path></svg>