<svg xmlns="http://www.w3.org/2000/svg" xmlns:xlink="http://www.w3.org/1999/xlink" width="24" height="24" viewBox="0 0 24 24" fill="none"><path d="M12.178 23.18C12.1448 23.1801 12.1116 23.1798 12.0784 23.179C12.0452 23.1783 12.012 23.1771 11.9788 23.1755C11.9456 23.174 11.9124 23.172 11.8793 23.1696C11.8462 23.1672 11.8131 23.1644 11.7801 23.1612C11.747 23.158 11.714 23.1544 11.681 23.1503C11.648 23.1463 11.6151 23.1419 11.5822 23.137C11.5494 23.1322 11.5166 23.127 11.4838 23.1214C11.4511 23.1157 11.4184 23.1097 11.3859 23.1032C11.3533 23.0968 11.3208 23.0899 11.2884 23.0827C11.2559 23.0754 11.2236 23.0678 11.1914 23.0598C11.1591 23.0517 11.127 23.0433 11.095 23.0344C11.063 23.0256 11.0311 23.0163 10.9993 23.0067C10.9675 22.9971 10.9358 22.9871 10.9043 22.9767C10.8727 22.9663 10.8413 22.9555 10.8101 22.9443C10.7788 22.9332 10.7476 22.9216 10.7166 22.9096C10.6856 22.8977 10.6548 22.8853 10.6241 22.8727C10.5934 22.86 10.5629 22.8469 10.5325 22.8334C10.5021 22.8199 10.4719 22.8061 10.4419 22.7919C10.4119 22.7777 10.382 22.7631 10.3524 22.7482C10.3227 22.7332 10.2932 22.7179 10.2639 22.7023C10.2346 22.6866 10.2055 22.6706 10.1767 22.6542C10.1478 22.6378 10.1191 22.6211 10.0906 22.604C10.0621 22.5869 10.0338 22.5695 10.0058 22.5517C9.97773 22.5339 9.94991 22.5157 9.92231 22.4973C9.89468 22.4788 9.86731 22.46 9.84017 22.4408C9.81302 22.4217 9.78613 22.4022 9.75947 22.3824C9.7328 22.3626 9.70641 22.3424 9.68023 22.322C9.65406 22.3015 9.62815 22.2807 9.60252 22.2596C9.57686 22.2385 9.55147 22.2171 9.52635 22.1954C9.50121 22.1736 9.47636 22.1516 9.45178 22.1293C9.4272 22.1069 9.40289 22.0843 9.37888 22.0613C9.35487 22.0384 9.33112 22.0152 9.30768 21.9916L2.36629 15.0503C2.31941 15.0032 2.27371 14.9551 2.22921 14.9058C2.18468 14.8565 2.1414 14.8062 2.09936 14.7548C2.05731 14.7034 2.01654 14.651 1.97705 14.5976C1.93757 14.5443 1.89942 14.4899 1.8626 14.4347C1.82578 14.3794 1.79033 14.3233 1.75626 14.2663C1.72219 14.2093 1.68953 14.1515 1.65829 14.0929C1.62705 14.0343 1.59726 13.975 1.56893 13.9149C1.54059 13.8549 1.51374 13.7942 1.48839 13.7328C1.46303 13.6714 1.43918 13.6095 1.41686 13.5469C1.39454 13.4844 1.37376 13.4214 1.35452 13.3578C1.33528 13.2942 1.31761 13.2303 1.30151 13.1658C1.28541 13.1014 1.2709 13.0366 1.25797 12.9715C1.24505 12.9064 1.23372 12.841 1.224 12.7753C1.21428 12.7096 1.20617 12.6437 1.19967 12.5776C1.19318 12.5115 1.1883 12.4453 1.18505 12.379C1.1818 12.3127 1.18018 12.2463 1.18018 12.1799C1.18018 12.1135 1.1818 12.0472 1.18505 11.9808C1.1883 11.9145 1.19318 11.8483 1.19967 11.7822C1.20617 11.7161 1.21428 11.6502 1.224 11.5846C1.23372 11.5189 1.24505 11.4535 1.25797 11.3883C1.2709 11.3232 1.28541 11.2584 1.30151 11.194C1.31761 11.1296 1.33528 11.0656 1.35452 11.002C1.37376 10.9385 1.39454 10.8754 1.41686 10.8129C1.43918 10.7504 1.46303 10.6884 1.48839 10.627C1.51374 10.5657 1.54059 10.5049 1.56893 10.4449C1.59726 10.3849 1.62705 10.3255 1.65829 10.2669C1.68953 10.2083 1.72219 10.1505 1.75626 10.0935C1.79033 10.0366 1.82578 9.98043 1.8626 9.92516C1.89942 9.86989 1.93757 9.81557 1.97705 9.76219C2.01654 9.70879 2.05731 9.65641 2.09936 9.60502C2.1414 9.55363 2.18468 9.5033 2.22921 9.45402C2.27371 9.40474 2.31941 9.35659 2.36629 9.30957L9.30768 2.36819C9.35467 2.32125 9.40277 2.27548 9.45203 2.23089C9.50126 2.1863 9.55154 2.14294 9.60291 2.10083C9.65428 2.05872 9.70663 2.01789 9.76001 1.97834C9.81339 1.93879 9.8677 1.90057 9.92295 1.86369C9.97817 1.8268 10.0343 1.7913 10.0913 1.75717C10.1483 1.72304 10.2061 1.69032 10.2646 1.65903C10.3232 1.62773 10.3825 1.59789 10.4426 1.56951C10.5027 1.54113 10.5634 1.51423 10.6247 1.48883C10.6861 1.46342 10.7481 1.43954 10.8106 1.41717C10.8732 1.39481 10.9362 1.37399 10.9998 1.35472C11.0633 1.33545 11.1274 1.31775 11.1918 1.30162C11.2562 1.28549 11.321 1.27095 11.3862 1.258C11.4513 1.24504 11.5168 1.2337 11.5825 1.22396C11.6482 1.21422 11.7141 1.20609 11.7802 1.19959C11.8463 1.19308 11.9125 1.1882 11.9789 1.18494C12.0452 1.18168 12.1116 1.18005 12.178 1.18005C12.2444 1.18005 12.3108 1.18168 12.3772 1.18494C12.4435 1.1882 12.5097 1.19308 12.5758 1.19959C12.6419 1.20609 12.7079 1.21422 12.7736 1.22396C12.8393 1.2337 12.9047 1.24504 12.9699 1.258C13.035 1.27095 13.0998 1.28549 13.1642 1.30162C13.2287 1.31775 13.2927 1.33545 13.3562 1.35472C13.4198 1.37399 13.4828 1.39481 13.5454 1.41717C13.6079 1.43954 13.6699 1.46342 13.7313 1.48883C13.7927 1.51423 13.8534 1.54113 13.9134 1.56951C13.9735 1.59789 14.0328 1.62773 14.0914 1.65903C14.15 1.69032 14.2078 1.72304 14.2648 1.75717C14.3217 1.7913 14.3779 1.8268 14.4331 1.86369C14.4883 1.90057 14.5426 1.93879 14.596 1.97834C14.6494 2.01789 14.7018 2.05872 14.7531 2.10083C14.8045 2.14294 14.8548 2.1863 14.904 2.23089C14.9532 2.27548 15.0014 2.32125 15.0484 2.36819L21.9897 9.30957C22.0366 9.35659 22.0823 9.40474 22.1268 9.45402C22.1713 9.5033 22.2146 9.55363 22.2567 9.60502C22.2987 9.65641 22.3395 9.70879 22.379 9.76219C22.4185 9.81557 22.4566 9.86989 22.4934 9.92516C22.5302 9.98043 22.5657 10.0366 22.5998 10.0935C22.6338 10.1505 22.6665 10.2083 22.6978 10.2669C22.729 10.3255 22.7588 10.3849 22.7871 10.4449C22.8154 10.5049 22.8423 10.5657 22.8676 10.627C22.893 10.6884 22.9168 10.7504 22.9392 10.8129C22.9615 10.8754 22.9823 10.9385 23.0015 11.002C23.0207 11.0656 23.0384 11.1296 23.0545 11.194C23.0706 11.2584 23.0851 11.3232 23.0981 11.3883C23.111 11.4535 23.1223 11.5189 23.132 11.5846C23.1418 11.6502 23.1499 11.7161 23.1564 11.7822C23.1629 11.8483 23.1677 11.9145 23.171 11.9808C23.1742 12.0472 23.1758 12.1135 23.1758 12.1799C23.1758 12.2463 23.1742 12.3127 23.171 12.379C23.1677 12.4453 23.1628 12.5115 23.1563 12.5776C23.1499 12.6437 23.1418 12.7096 23.132 12.7753C23.1223 12.841 23.111 12.9064 23.0981 12.9715C23.0851 13.0366 23.0706 13.1014 23.0545 13.1658C23.0384 13.2303 23.0207 13.2942 23.0015 13.3578C22.9823 13.4214 22.9615 13.4844 22.9392 13.5469C22.9168 13.6095 22.893 13.6714 22.8676 13.7328C22.8423 13.7942 22.8154 13.8549 22.7871 13.9149C22.7588 13.975 22.729 14.0343 22.6978 14.0929C22.6665 14.1515 22.6338 14.2093 22.5998 14.2663C22.5657 14.3233 22.5302 14.3794 22.4934 14.4347C22.4566 14.4899 22.4185 14.5443 22.379 14.5976C22.3395 14.651 22.2987 14.7034 22.2567 14.7548C22.2146 14.8062 22.1713 14.8565 22.1268 14.9058C22.0823 14.9551 22.0366 15.0032 21.9897 15.0503L15.0484 21.9916C15.0249 22.0152 15.0012 22.0384 14.9772 22.0614C14.9532 22.0843 14.9289 22.107 14.9043 22.1293C14.8797 22.1517 14.8549 22.1738 14.8298 22.1955C14.8046 22.2172 14.7793 22.2386 14.7536 22.2598C14.728 22.2809 14.7021 22.3017 14.6759 22.3222C14.6497 22.3426 14.6233 22.3628 14.5967 22.3826C14.57 22.4024 14.5431 22.4219 14.516 22.4411C14.4889 22.4602 14.4615 22.4791 14.4339 22.4975C14.4063 22.516 14.3785 22.5342 14.3504 22.552C14.3224 22.5698 14.2941 22.5872 14.2656 22.6043C14.2371 22.6214 14.2084 22.6381 14.1796 22.6545C14.1507 22.6709 14.1216 22.687 14.0923 22.7026C14.063 22.7183 14.0335 22.7336 14.0038 22.7485C13.9742 22.7635 13.9443 22.778 13.9143 22.7923C13.8842 22.8065 13.854 22.8203 13.8237 22.8338C13.7933 22.8472 13.7628 22.8603 13.7321 22.873C13.7014 22.8857 13.6706 22.898 13.6396 22.91C13.6086 22.922 13.5774 22.9335 13.5461 22.9447C13.5149 22.9559 13.4834 22.9667 13.4519 22.9771C13.4203 22.9874 13.3886 22.9975 13.3569 23.0071C13.3251 23.0167 13.2932 23.0259 13.2611 23.0348C13.2291 23.0436 13.197 23.052 13.1648 23.0601C13.1325 23.0681 13.1002 23.0758 13.0678 23.083C13.0354 23.0903 13.0029 23.0971 12.9703 23.1035C12.9377 23.11 12.905 23.116 12.8723 23.1216C12.8395 23.1273 12.8067 23.1325 12.7739 23.1373C12.741 23.1421 12.7081 23.1466 12.6751 23.1506C12.6421 23.1546 12.6091 23.1582 12.576 23.1614C12.543 23.1645 12.5099 23.1673 12.4767 23.1697C12.4436 23.1721 12.4104 23.1741 12.3773 23.1756C12.3441 23.1772 12.3109 23.1783 12.2777 23.1791C12.2444 23.1798 12.2112 23.1801 12.178 23.18ZM12.178 2.75123C12.1576 2.7512 12.1372 2.75141 12.1169 2.75187C12.0965 2.75235 12.0761 2.75307 12.0557 2.75406C12.0353 2.75504 12.015 2.75627 11.9947 2.75774C11.9743 2.75923 11.954 2.76097 11.9337 2.76297C11.9134 2.76495 11.8931 2.76719 11.8729 2.7697C11.8527 2.77218 11.8325 2.77494 11.8123 2.77795C11.7921 2.78094 11.772 2.78419 11.7519 2.7877C11.7318 2.7912 11.7118 2.79495 11.6918 2.79894C11.6718 2.80294 11.6518 2.80718 11.6319 2.81168C11.6121 2.81619 11.5922 2.82093 11.5724 2.82593C11.5527 2.83092 11.533 2.83616 11.5133 2.84164C11.4937 2.84712 11.4741 2.85284 11.4546 2.8588C11.4351 2.86478 11.4157 2.87099 11.3963 2.87744C11.377 2.8839 11.3577 2.8906 11.3386 2.89753C11.3194 2.90447 11.3003 2.91164 11.2813 2.91903C11.2623 2.92645 11.2434 2.9341 11.2246 2.94199C11.2058 2.94987 11.1871 2.95798 11.1685 2.96632C11.1499 2.97467 11.1314 2.98325 11.113 2.99206C11.0946 3.00086 11.0763 3.0099 11.0581 3.01917C11.04 3.02843 11.0219 3.03792 11.004 3.04762C10.9861 3.05733 10.9683 3.06727 10.9506 3.07743C10.9329 3.08758 10.9153 3.09795 10.8979 3.10854C10.8805 3.11915 10.8632 3.12996 10.846 3.14098C10.8289 3.15201 10.8118 3.16325 10.795 3.17469C10.7781 3.18613 10.7614 3.19779 10.7448 3.20965C10.7282 3.22152 10.7118 3.23359 10.6955 3.24587C10.6792 3.25815 10.6631 3.27062 10.6471 3.28329C10.6311 3.29598 10.6153 3.30885 10.5997 3.32191C10.584 3.33499 10.5685 3.34826 10.5532 3.36172C10.5379 3.37517 10.5227 3.38882 10.5077 3.40265C10.4928 3.41648 10.478 3.4305 10.4633 3.44471C10.4487 3.4589 10.4342 3.47328 10.42 3.48785L3.47858 10.412C3.44978 10.4408 3.42171 10.4703 3.39436 10.5004C3.36702 10.5305 3.34044 10.5613 3.31461 10.5928C3.28878 10.6242 3.26373 10.6563 3.23947 10.689C3.21521 10.7216 3.19177 10.7549 3.16915 10.7887C3.14653 10.8225 3.12475 10.8569 3.10381 10.8918C3.08288 10.9267 3.06281 10.9621 3.04361 10.998C3.02441 11.0338 3.00611 11.0702 2.98871 11.107C2.97129 11.1437 2.95479 11.1809 2.9392 11.2185C2.92362 11.2561 2.90897 11.2941 2.89525 11.3324C2.88152 11.3707 2.86874 11.4093 2.85692 11.4483C2.84511 11.4872 2.83425 11.5264 2.82437 11.5659C2.81446 11.6054 2.80554 11.6451 2.7976 11.685C2.78965 11.7249 2.78268 11.765 2.77671 11.8052C2.77073 11.8455 2.76575 11.8859 2.76175 11.9263C2.75778 11.9669 2.75478 12.0074 2.75277 12.0481C2.75077 12.0887 2.74977 12.1294 2.74977 12.1701C2.74977 12.2108 2.75077 12.2515 2.75277 12.2921C2.75478 12.3327 2.75778 12.3733 2.76175 12.4138C2.76575 12.4543 2.77073 12.4947 2.77671 12.535C2.78268 12.5752 2.78965 12.6153 2.7976 12.6552C2.80554 12.6951 2.81446 12.7348 2.82437 12.7743C2.83425 12.8138 2.84511 12.853 2.85692 12.8919C2.86874 12.9308 2.88152 12.9695 2.89525 13.0078C2.90897 13.0461 2.92362 13.0841 2.9392 13.1217C2.95479 13.1592 2.97129 13.1964 2.98871 13.2332C3.00611 13.27 3.02441 13.3063 3.04361 13.3422C3.06281 13.3781 3.08288 13.4135 3.10381 13.4484C3.12475 13.4833 3.14653 13.5177 3.16915 13.5515C3.19177 13.5853 3.21521 13.6185 3.23947 13.6512C3.26373 13.6839 3.28878 13.716 3.31461 13.7474C3.34044 13.7789 3.36702 13.8097 3.39436 13.8398C3.42171 13.8699 3.44978 13.8994 3.47858 13.9281L10.4101 20.8793C10.4389 20.9081 10.4683 20.9362 10.4985 20.9636C10.5286 20.9909 10.5594 21.0175 10.5909 21.0433C10.6223 21.0691 10.6544 21.0942 10.6871 21.1185C10.7197 21.1427 10.753 21.1662 10.7868 21.1888C10.8206 21.2114 10.855 21.2332 10.8899 21.2541C10.9248 21.2751 10.9602 21.2951 10.9961 21.3143C11.0319 21.3335 11.0683 21.3518 11.1051 21.3692C11.1418 21.3866 11.179 21.4031 11.2166 21.4187C11.2542 21.4343 11.2922 21.4489 11.3305 21.4627C11.3688 21.4764 11.4074 21.4892 11.4464 21.501C11.4853 21.5128 11.5245 21.5237 11.564 21.5336C11.6035 21.5435 11.6432 21.5524 11.6831 21.5603C11.723 21.5683 11.7631 21.5753 11.8033 21.5812C11.8436 21.5872 11.884 21.5922 11.9245 21.5962C11.965 21.6001 12.0055 21.6031 12.0462 21.6052C12.0868 21.6071 12.1275 21.6082 12.1682 21.6082C12.2089 21.6082 12.2495 21.6071 12.2902 21.6052C12.3308 21.6031 12.3714 21.6001 12.4119 21.5962C12.4524 21.5922 12.4928 21.5872 12.5331 21.5812C12.5733 21.5753 12.6134 21.5683 12.6533 21.5603C12.6932 21.5524 12.7329 21.5435 12.7724 21.5336C12.8119 21.5237 12.8511 21.5128 12.89 21.501C12.929 21.4892 12.9676 21.4764 13.0059 21.4627C13.0442 21.4489 13.0822 21.4343 13.1198 21.4187C13.1574 21.4031 13.1946 21.3867 13.2313 21.3692C13.2681 21.3518 13.3044 21.3335 13.3403 21.3143C13.3762 21.2951 13.4116 21.2751 13.4465 21.2541C13.4814 21.2332 13.5158 21.2114 13.5496 21.1888C13.5834 21.1662 13.6167 21.1427 13.6493 21.1185C13.682 21.0942 13.7141 21.0691 13.7455 21.0433C13.777 21.0175 13.8078 20.9909 13.8379 20.9635C13.868 20.9362 13.8975 20.9081 13.9263 20.8793L20.8775 13.938C20.9062 13.9092 20.9343 13.8798 20.9617 13.8496C20.989 13.8195 21.0156 13.7887 21.0414 13.7573C21.0673 13.7258 21.0923 13.6937 21.1166 13.6611C21.1408 13.6284 21.1642 13.5951 21.1869 13.5613C21.2095 13.5275 21.2313 13.4931 21.2522 13.4582C21.2731 13.4233 21.2932 13.3879 21.3124 13.352C21.3316 13.3162 21.3499 13.2798 21.3674 13.243C21.3847 13.2063 21.4012 13.1691 21.4168 13.1315C21.4324 13.0939 21.4471 13.0559 21.4608 13.0176C21.4745 12.9793 21.4873 12.9407 21.4991 12.9017C21.5109 12.8628 21.5218 12.8236 21.5317 12.7841C21.5416 12.7447 21.5505 12.7049 21.5584 12.665C21.5664 12.6251 21.5733 12.585 21.5793 12.5448C21.5853 12.5045 21.5903 12.4641 21.5943 12.4237C21.5983 12.3831 21.6013 12.3426 21.6033 12.3019C21.6053 12.2613 21.6063 12.2206 21.6063 12.1799C21.6063 12.1392 21.6053 12.0985 21.6033 12.0579C21.6013 12.0173 21.5983 11.9767 21.5943 11.9362C21.5903 11.8957 21.5853 11.8553 21.5793 11.815C21.5733 11.7748 21.5664 11.7347 21.5584 11.6948C21.5505 11.6549 21.5416 11.6152 21.5317 11.5757C21.5218 11.5362 21.5109 11.497 21.4991 11.4581C21.4873 11.4192 21.4745 11.3805 21.4608 11.3422C21.4471 11.3039 21.4324 11.2659 21.4168 11.2284C21.4012 11.1908 21.3847 11.1536 21.3674 11.1168C21.3499 11.08 21.3316 11.0437 21.3124 11.0078C21.2932 10.9719 21.2731 10.9365 21.2522 10.9016C21.2313 10.8667 21.2095 10.8323 21.1869 10.7985C21.1642 10.7647 21.1408 10.7315 21.1166 10.6988C21.0923 10.6661 21.0673 10.634 21.0414 10.6026C21.0156 10.5711 20.989 10.5403 20.9617 10.5102C20.9343 10.4801 20.9062 10.4506 20.8775 10.4219L13.9361 3.48048C13.9218 3.466 13.9073 3.4517 13.8926 3.43759C13.8779 3.42346 13.8631 3.40952 13.8481 3.39577C13.833 3.38202 13.8179 3.36846 13.8025 3.35509C13.7872 3.34171 13.7716 3.32854 13.756 3.31555C13.7403 3.30257 13.7244 3.28978 13.7085 3.27718C13.6925 3.26459 13.6763 3.2522 13.66 3.24C13.6437 3.22781 13.6272 3.21582 13.6106 3.20406C13.594 3.19227 13.5773 3.1807 13.5604 3.16934C13.5435 3.15796 13.5264 3.1468 13.5093 3.13587C13.4921 3.12494 13.4748 3.11421 13.4574 3.10368C13.4399 3.09317 13.4224 3.08288 13.4047 3.07281C13.387 3.06273 13.3692 3.05288 13.3512 3.04325C13.3333 3.03363 13.3152 3.02422 13.2971 3.01504C13.2789 3.00586 13.2606 2.9969 13.2422 2.98818C13.2238 2.97945 13.2053 2.97096 13.1867 2.96269C13.1681 2.95442 13.1494 2.94639 13.1306 2.93858C13.1118 2.93079 13.0929 2.92323 13.0739 2.91589C13.0549 2.90856 13.0358 2.90146 13.0166 2.8946C12.9975 2.88775 12.9782 2.88113 12.9589 2.87476C12.9395 2.86838 12.9201 2.86224 12.9006 2.85635C12.8811 2.85046 12.8616 2.84481 12.842 2.83941C12.8223 2.83399 12.8026 2.82882 12.7829 2.82391C12.7631 2.81898 12.7433 2.81431 12.7234 2.80989C12.7035 2.80547 12.6836 2.8013 12.6636 2.79737C12.6437 2.79344 12.6236 2.78976 12.6036 2.78632C12.5835 2.78288 12.5634 2.7797 12.5433 2.77677C12.5231 2.77384 12.5029 2.77116 12.4827 2.76874C12.4625 2.76632 12.4422 2.76414 12.422 2.76221C12.4017 2.76028 12.3814 2.75861 12.3611 2.7572C12.3408 2.75578 12.3205 2.7546 12.3001 2.75369C12.2798 2.75277 12.2594 2.75211 12.2391 2.7517C12.2187 2.75129 12.1984 2.75113 12.178 2.75123Z"   fill="#034FA1" ></path><path d="M12.1779 18.4656C12.1393 18.4655 12.1008 18.4645 12.0623 18.4625C12.0238 18.4606 11.9854 18.4577 11.947 18.4538C11.9086 18.45 11.8704 18.4452 11.8323 18.4395C11.7941 18.4337 11.7562 18.4271 11.7184 18.4195C11.6806 18.4119 11.643 18.4034 11.6056 18.394C11.5682 18.3846 11.5311 18.3743 11.4942 18.363C11.4573 18.3518 11.4207 18.3397 11.3844 18.3266C11.3481 18.3136 11.3122 18.2997 11.2766 18.2849C11.241 18.2701 11.2058 18.2544 11.1709 18.2379C11.1361 18.2214 11.1017 18.204 11.0677 18.1859C11.0337 18.1677 11.0002 18.1486 10.9671 18.1288C10.9341 18.1089 10.9015 18.0883 10.8695 18.0669C10.8374 18.0454 10.8059 18.0232 10.7749 18.0002C10.744 17.9773 10.7136 17.9535 10.6838 17.9291C10.654 17.9046 10.6248 17.8794 10.5963 17.8535C10.5677 17.8276 10.5398 17.801 10.5125 17.7738C10.4853 17.7465 10.4587 17.7186 10.4328 17.69C10.4069 17.6615 10.3817 17.6323 10.3573 17.6025C10.3328 17.5727 10.3091 17.5423 10.2861 17.5114C10.2631 17.4804 10.2409 17.4489 10.2195 17.4169C10.198 17.3848 10.1774 17.3523 10.1575 17.3192C10.1377 17.2861 10.1187 17.2526 10.1005 17.2187C10.0823 17.1846 10.0649 17.1502 10.0484 17.1154C10.0319 17.0806 10.0162 17.0453 10.0014 17.0097C9.98664 16.9741 9.97275 16.9382 9.95971 16.9019C9.94667 16.8656 9.93454 16.829 9.92329 16.7922C9.91207 16.7553 9.90174 16.7181 9.89231 16.6807C9.8829 16.6434 9.87441 16.6058 9.86682 16.568C9.85923 16.5302 9.85258 16.4922 9.84686 16.4541C9.84114 16.4159 9.83635 16.3777 9.83249 16.3393C9.82864 16.301 9.82574 16.2625 9.82378 16.224C9.82181 16.1855 9.82078 16.147 9.82071 16.1084L9.82071 14.537L8.24926 14.537C8.21068 14.537 8.17212 14.536 8.13359 14.5342C8.09507 14.5323 8.05661 14.5294 8.01821 14.5257C7.97982 14.5219 7.94155 14.5172 7.9034 14.5115C7.86524 14.5058 7.82724 14.4992 7.78939 14.4917C7.75156 14.4842 7.71394 14.4757 7.67652 14.4664C7.6391 14.457 7.60193 14.4467 7.56502 14.4355C7.52809 14.4243 7.49147 14.4122 7.45516 14.3992C7.41884 14.3862 7.38285 14.3723 7.3472 14.3576C7.31157 14.3428 7.27631 14.3272 7.24145 14.3107C7.20656 14.2942 7.17211 14.2769 7.1381 14.2587C7.10409 14.2405 7.07053 14.2215 7.03743 14.2016C7.00435 14.1818 6.97177 14.1612 6.93968 14.1397C6.90761 14.1183 6.87609 14.0961 6.8451 14.0731C6.81411 14.0501 6.78371 14.0264 6.75388 14.0019C6.72406 13.9775 6.69485 13.9523 6.66627 13.9264C6.63769 13.9005 6.60977 13.8739 6.5825 13.8466C6.55521 13.8193 6.52862 13.7914 6.50272 13.7628C6.47681 13.7342 6.45162 13.705 6.42714 13.6752C6.40267 13.6454 6.37894 13.615 6.35596 13.584C6.33298 13.553 6.31077 13.5215 6.28935 13.4894C6.26792 13.4573 6.24729 13.4247 6.22745 13.3917C6.20762 13.3586 6.18862 13.325 6.17043 13.291C6.15225 13.257 6.1349 13.2225 6.1184 13.1876C6.1019 13.1528 6.08628 13.1175 6.07153 13.0819C6.05676 13.0462 6.04288 13.0102 6.02989 12.9739C6.01689 12.9376 6.00479 12.901 5.9936 12.8641C5.9824 12.8272 5.97211 12.79 5.96273 12.7526C5.95335 12.7152 5.94491 12.6775 5.93739 12.6397C5.92986 12.6019 5.92326 12.5639 5.9176 12.5257C5.91194 12.4875 5.90722 12.4493 5.90343 12.4109C5.89965 12.3725 5.89682 12.334 5.89494 12.2955C5.89304 12.257 5.89209 12.2184 5.89209 12.1798C5.89209 12.1413 5.89304 12.1027 5.89494 12.0642C5.89682 12.0256 5.89965 11.9872 5.90343 11.9488C5.90722 11.9104 5.91194 11.8721 5.9176 11.834C5.92326 11.7958 5.92986 11.7578 5.93739 11.72C5.94491 11.6821 5.95335 11.6445 5.96273 11.6071C5.97211 11.5697 5.9824 11.5325 5.9936 11.4956C6.00479 11.4587 6.01689 11.422 6.02989 11.3857C6.04288 11.3494 6.05676 11.3134 6.07153 11.2778C6.08628 11.2421 6.1019 11.2069 6.1184 11.172C6.1349 11.1371 6.15225 11.1027 6.17043 11.0687C6.1886 11.0346 6.20761 11.0011 6.22745 10.968C6.24729 10.9349 6.26792 10.9023 6.28935 10.8703C6.31077 10.8382 6.33298 10.8067 6.35596 10.7757C6.37894 10.7447 6.40267 10.7143 6.42714 10.6845C6.45162 10.6546 6.47681 10.6254 6.50272 10.5968C6.52862 10.5683 6.55521 10.5403 6.5825 10.5131C6.60977 10.4858 6.63769 10.4592 6.66627 10.4333C6.69485 10.4074 6.72406 10.3822 6.75388 10.3577C6.78371 10.3332 6.81411 10.3095 6.8451 10.2865C6.87609 10.2635 6.90761 10.2414 6.93968 10.2199C6.97177 10.1985 7.00435 10.1779 7.03743 10.158C7.07053 10.1382 7.10409 10.1192 7.1381 10.101C7.17211 10.0828 7.20656 10.0655 7.24145 10.049C7.27631 10.0325 7.31157 10.0169 7.3472 10.0021C7.38285 9.98734 7.41884 9.97345 7.45516 9.96046C7.49147 9.94747 7.52809 9.93536 7.56502 9.92417C7.60193 9.91297 7.6391 9.90268 7.67652 9.8933C7.71394 9.88392 7.75156 9.87548 7.78939 9.86796C7.82724 9.86042 7.86524 9.85384 7.9034 9.84817C7.94155 9.8425 7.97982 9.83779 8.01821 9.834C8.05661 9.83022 8.09507 9.8274 8.13359 9.82551C8.17212 9.82362 8.21068 9.82266 8.24926 9.82266L9.82071 9.82266L9.82071 8.25121C9.82071 8.21263 9.82167 8.17407 9.82356 8.13554C9.82545 8.09702 9.82827 8.05856 9.83205 8.02016C9.83583 7.98178 9.84055 7.9435 9.84622 7.90535C9.85189 7.86719 9.85847 7.82919 9.86601 7.79134C9.87352 7.75351 9.88197 7.71589 9.89135 7.67847C9.90073 7.64105 9.91102 7.60388 9.92221 7.56697C9.93341 7.53004 9.94552 7.49342 9.9585 7.45712C9.97149 7.42079 9.98539 7.38481 10.0001 7.34915C10.0149 7.31352 10.0305 7.27827 10.047 7.2434C10.0635 7.20852 10.0809 7.17407 10.0991 7.14005C10.1172 7.10604 10.1362 7.07248 10.1561 7.03938C10.1759 7.0063 10.1965 6.97372 10.218 6.94163C10.2394 6.90957 10.2616 6.87804 10.2846 6.84705C10.3076 6.81606 10.3313 6.78566 10.3558 6.75583C10.3802 6.72601 10.4054 6.69681 10.4313 6.66823C10.4572 6.63965 10.4838 6.61172 10.5111 6.58445C10.5384 6.55716 10.5663 6.53057 10.5949 6.50467C10.6235 6.47876 10.6527 6.45357 10.6825 6.4291C10.7123 6.40462 10.7427 6.3809 10.7737 6.35791C10.8047 6.33493 10.8362 6.31273 10.8683 6.2913C10.9004 6.26987 10.933 6.24924 10.966 6.2294C10.9991 6.20958 11.0327 6.19057 11.0667 6.17239C11.1007 6.1542 11.1352 6.13686 11.1701 6.12036C11.2049 6.10386 11.2402 6.08823 11.2758 6.07348C11.3115 6.05872 11.3475 6.04484 11.3838 6.03184C11.4201 6.01884 11.4567 6.00675 11.4936 5.99555C11.5305 5.98435 11.5677 5.97406 11.6051 5.96468C11.6426 5.9553 11.6802 5.94686 11.718 5.93934C11.7558 5.93181 11.7939 5.92522 11.832 5.91955C11.8702 5.91389 11.9084 5.90917 11.9468 5.90539C11.9852 5.90161 12.0237 5.89877 12.0622 5.89689C12.1007 5.89499 12.1393 5.89404 12.1779 5.89404C12.2165 5.89404 12.255 5.89499 12.2936 5.89689C12.3321 5.89877 12.3705 5.90161 12.4089 5.90539C12.4473 5.90917 12.4856 5.91389 12.5237 5.91955C12.5619 5.92522 12.5999 5.93181 12.6377 5.93934C12.6756 5.94686 12.7132 5.9553 12.7506 5.96468C12.788 5.97406 12.8252 5.98435 12.8621 5.99555C12.8991 6.00675 12.9357 6.01884 12.972 6.03184C13.0083 6.04484 13.0443 6.05872 13.0799 6.07348C13.1156 6.08823 13.1508 6.10386 13.1857 6.12036C13.2206 6.13686 13.255 6.1542 13.289 6.17239C13.323 6.19057 13.3566 6.20958 13.3897 6.2294C13.4228 6.24924 13.4554 6.26987 13.4875 6.2913C13.5195 6.31273 13.5511 6.33493 13.582 6.35791C13.613 6.3809 13.6434 6.40462 13.6733 6.4291C13.7031 6.45357 13.7323 6.47876 13.7609 6.50467C13.7894 6.53057 13.8174 6.55716 13.8446 6.58445C13.8719 6.61172 13.8985 6.63965 13.9244 6.66823C13.9503 6.69681 13.9755 6.72601 14 6.75583C14.0245 6.78566 14.0482 6.81606 14.0712 6.84705C14.0942 6.87804 14.1164 6.90957 14.1378 6.94163C14.1592 6.97372 14.1799 7.0063 14.1997 7.03938C14.2195 7.07248 14.2385 7.10604 14.2567 7.14005C14.2749 7.17407 14.2922 7.20852 14.3087 7.2434C14.3252 7.27827 14.3409 7.31352 14.3556 7.34915C14.3704 7.38481 14.3843 7.42079 14.3973 7.45712C14.4102 7.49342 14.4223 7.53004 14.4335 7.56697C14.4447 7.60388 14.455 7.64105 14.4644 7.67847C14.4738 7.71589 14.4822 7.75351 14.4897 7.79134C14.4973 7.82919 14.5039 7.86719 14.5095 7.90535C14.5152 7.9435 14.5199 7.98178 14.5237 8.02016C14.5275 8.05856 14.5303 8.09702 14.5322 8.13554C14.5341 8.17407 14.5351 8.21263 14.5351 8.25121L14.5351 9.82266L16.1065 9.82266C16.1451 9.82266 16.1836 9.82362 16.2222 9.82551C16.2607 9.8274 16.2991 9.83022 16.3375 9.834C16.3759 9.83779 16.4142 9.8425 16.4524 9.84817C16.4905 9.85384 16.5285 9.86042 16.5664 9.86796C16.6042 9.87548 16.6418 9.88392 16.6792 9.8933C16.7167 9.90268 16.7538 9.91297 16.7907 9.92417C16.8276 9.93536 16.8643 9.94747 16.9006 9.96046C16.9369 9.97345 16.9729 9.98734 17.0086 10.0021C17.0442 10.0169 17.0794 10.0325 17.1143 10.049C17.1492 10.0655 17.1837 10.0828 17.2177 10.101C17.2517 10.1192 17.2852 10.1382 17.3183 10.158C17.3514 10.1779 17.384 10.1985 17.4161 10.2199C17.4481 10.2414 17.4797 10.2635 17.5107 10.2865C17.5416 10.3095 17.572 10.3332 17.6019 10.3577C17.6317 10.3822 17.6609 10.4074 17.6895 10.4333C17.7181 10.4592 17.746 10.4858 17.7733 10.5131C17.8005 10.5403 17.8271 10.5683 17.853 10.5968C17.8789 10.6254 17.9041 10.6546 17.9286 10.6845C17.9531 10.7143 17.9768 10.7447 17.9998 10.7757C18.0228 10.8067 18.045 10.8382 18.0664 10.8703C18.0878 10.9023 18.1085 10.9349 18.1283 10.968C18.1481 11.0011 18.1671 11.0346 18.1853 11.0687C18.2035 11.1027 18.2209 11.1371 18.2374 11.172C18.2539 11.2069 18.2695 11.2421 18.2842 11.2778C18.299 11.3134 18.3129 11.3494 18.3259 11.3857C18.3389 11.422 18.351 11.4587 18.3622 11.4956C18.3734 11.5325 18.3836 11.5697 18.393 11.6071C18.4024 11.6445 18.4109 11.6821 18.4184 11.72C18.4259 11.7578 18.4325 11.7958 18.4382 11.834C18.4438 11.8721 18.4485 11.9104 18.4523 11.9488C18.4561 11.9872 18.4589 12.0256 18.4608 12.0642C18.4627 12.1027 18.4637 12.1413 18.4637 12.1798C18.4637 12.2184 18.4627 12.257 18.4608 12.2955C18.4589 12.334 18.4561 12.3725 18.4523 12.4109C18.4485 12.4493 18.4438 12.4875 18.4382 12.5257C18.4325 12.5639 18.4259 12.6019 18.4184 12.6397C18.4109 12.6775 18.4024 12.7152 18.393 12.7526C18.3836 12.79 18.3734 12.8272 18.3622 12.8641C18.351 12.901 18.3389 12.9376 18.3259 12.9739C18.3129 13.0102 18.299 13.0462 18.2842 13.0819C18.2695 13.1175 18.2539 13.1528 18.2374 13.1876C18.2209 13.2225 18.2035 13.257 18.1853 13.291C18.1672 13.325 18.1482 13.3586 18.1283 13.3917C18.1085 13.4247 18.0878 13.4573 18.0664 13.4894C18.045 13.5215 18.0228 13.553 17.9998 13.584C17.9768 13.615 17.9531 13.6454 17.9286 13.6752C17.9041 13.705 17.8789 13.7342 17.853 13.7628C17.8271 13.7914 17.8005 13.8193 17.7733 13.8466C17.746 13.8739 17.7181 13.9005 17.6895 13.9264C17.6609 13.9523 17.6317 13.9775 17.6019 14.0019C17.572 14.0264 17.5416 14.0501 17.5107 14.0731C17.4797 14.0961 17.4481 14.1183 17.4161 14.1397C17.384 14.1612 17.3514 14.1818 17.3183 14.2016C17.2852 14.2215 17.2517 14.2405 17.2177 14.2587C17.1837 14.2769 17.1492 14.2942 17.1143 14.3107C17.0794 14.3272 17.0442 14.3428 17.0086 14.3576C16.9729 14.3723 16.9369 14.3862 16.9006 14.3992C16.8643 14.4122 16.8276 14.4243 16.7907 14.4355C16.7538 14.4467 16.7167 14.457 16.6792 14.4664C16.6418 14.4757 16.6042 14.4842 16.5664 14.4917C16.5285 14.4992 16.4905 14.5058 16.4524 14.5115C16.4142 14.5172 16.3759 14.5219 16.3375 14.5257C16.2991 14.5294 16.2607 14.5323 16.2222 14.5342C16.1836 14.536 16.1451 14.537 16.1065 14.537L14.5351 14.537L14.5351 16.1084C14.535 16.147 14.5339 16.1855 14.532 16.224C14.53 16.2625 14.5271 16.301 14.5233 16.3393C14.5194 16.3777 14.5146 16.4159 14.5089 16.4541C14.5032 16.4922 14.4965 16.5302 14.4889 16.568C14.4814 16.6058 14.4729 16.6434 14.4635 16.6807C14.454 16.7181 14.4437 16.7553 14.4325 16.7922C14.4212 16.829 14.4091 16.8656 14.3961 16.9019C14.383 16.9382 14.3691 16.9741 14.3543 17.0097C14.3395 17.0453 14.3239 17.0806 14.3074 17.1154C14.2908 17.1502 14.2735 17.1846 14.2553 17.2187C14.2371 17.2526 14.2181 17.2861 14.1982 17.3192C14.1784 17.3523 14.1577 17.3848 14.1363 17.4169C14.1149 17.4489 14.0926 17.4804 14.0697 17.5114C14.0467 17.5423 14.023 17.5727 13.9985 17.6025C13.974 17.6323 13.9489 17.6615 13.9229 17.69C13.897 17.7186 13.8705 17.7465 13.8432 17.7738C13.8159 17.801 13.788 17.8276 13.7595 17.8535C13.7309 17.8794 13.7017 17.9046 13.6719 17.9291C13.6421 17.9535 13.6118 17.9773 13.5808 18.0002C13.5499 18.0232 13.5183 18.0454 13.4863 18.0669C13.4543 18.0883 13.4217 18.1089 13.3886 18.1288C13.3556 18.1486 13.3221 18.1677 13.2881 18.1859C13.2541 18.204 13.2197 18.2214 13.1848 18.2379C13.15 18.2544 13.1148 18.2701 13.0792 18.2849C13.0436 18.2997 13.0076 18.3136 12.9713 18.3266C12.935 18.3397 12.8985 18.3518 12.8616 18.363C12.8247 18.3743 12.7876 18.3846 12.7502 18.394C12.7128 18.4034 12.6752 18.4119 12.6374 18.4195C12.5996 18.4271 12.5616 18.4337 12.5235 18.4395C12.4854 18.4452 12.4471 18.45 12.4088 18.4538C12.3704 18.4577 12.332 18.4606 12.2935 18.4625C12.255 18.4645 12.2164 18.4655 12.1779 18.4656ZM8.24926 11.3941C8.23639 11.3941 8.22355 11.3944 8.21071 11.3951C8.19786 11.3957 8.18504 11.3966 8.17224 11.3979C8.15945 11.3991 8.1467 11.4007 8.13398 11.4026C8.12126 11.4045 8.10859 11.4067 8.09597 11.4092C8.08337 11.4117 8.07083 11.4145 8.05835 11.4177C8.04588 11.4208 8.03349 11.4242 8.02118 11.4279C8.00887 11.4317 7.99666 11.4357 7.98455 11.44C7.97245 11.4444 7.96046 11.449 7.94857 11.4539C7.93669 11.4588 7.92494 11.464 7.91331 11.4695C7.90169 11.475 7.89021 11.4808 7.87887 11.4869C7.86752 11.493 7.85634 11.4993 7.84533 11.5059C7.83429 11.5125 7.82343 11.5194 7.81274 11.5265C7.80205 11.5337 7.79154 11.5411 7.78122 11.5487C7.77089 11.5564 7.76074 11.5643 7.75079 11.5725C7.74086 11.5806 7.73113 11.589 7.7216 11.5977C7.71207 11.6063 7.70277 11.6151 7.69368 11.6243C7.68458 11.6333 7.67571 11.6426 7.66709 11.6522C7.65845 11.6617 7.65005 11.6714 7.6419 11.6814C7.63373 11.6913 7.62581 11.7014 7.61815 11.7118C7.61049 11.7221 7.60309 11.7326 7.59596 11.7433C7.58882 11.754 7.58194 11.7649 7.57533 11.7759C7.56872 11.7869 7.56238 11.7981 7.55633 11.8094C7.55025 11.8208 7.54447 11.8323 7.53897 11.8439C7.53347 11.8555 7.52826 11.8673 7.52335 11.8791C7.51842 11.891 7.5138 11.903 7.50948 11.9151C7.50514 11.9272 7.5011 11.9394 7.49737 11.9517C7.49364 11.9641 7.49021 11.9765 7.48708 11.9889C7.48396 12.0014 7.48114 12.0139 7.47864 12.0265C7.47613 12.0392 7.47393 12.0518 7.47203 12.0646C7.47015 12.0773 7.46858 12.09 7.46732 12.1028C7.46606 12.1156 7.46512 12.1284 7.46449 12.1413C7.46386 12.1541 7.46354 12.167 7.46354 12.1798C7.46354 12.1927 7.46386 12.2055 7.46449 12.2184C7.46512 12.2312 7.46606 12.2441 7.46732 12.2569C7.46858 12.2696 7.47015 12.2824 7.47203 12.2951C7.47393 12.3078 7.47613 12.3205 7.47864 12.3331C7.48114 12.3457 7.48396 12.3583 7.48708 12.3707C7.49021 12.3832 7.49364 12.3956 7.49737 12.4079C7.5011 12.4202 7.50514 12.4324 7.50948 12.4445C7.5138 12.4566 7.51842 12.4686 7.52335 12.4805C7.52826 12.4924 7.53347 12.5042 7.53897 12.5158C7.54447 12.5274 7.55025 12.5389 7.55633 12.5502C7.56238 12.5615 7.56872 12.5727 7.57533 12.5838C7.58194 12.5948 7.58882 12.6057 7.59596 12.6163C7.60309 12.627 7.61049 12.6375 7.61815 12.6479C7.62581 12.6582 7.63373 12.6684 7.6419 12.6783C7.65005 12.6882 7.65845 12.698 7.66709 12.7075C7.67571 12.717 7.68458 12.7263 7.69368 12.7354C7.70277 12.7445 7.71207 12.7534 7.7216 12.762C7.73113 12.7706 7.74086 12.779 7.75079 12.7872C7.76074 12.7954 7.77089 12.8033 7.78122 12.8109C7.79154 12.8186 7.80205 12.826 7.81274 12.8331C7.82343 12.8403 7.83429 12.8472 7.84533 12.8538C7.85634 12.8604 7.86752 12.8667 7.87887 12.8728C7.89021 12.8788 7.90169 12.8846 7.91331 12.8901C7.92494 12.8956 7.93669 12.9008 7.94857 12.9057C7.96046 12.9107 7.97245 12.9153 7.98455 12.9196C7.99666 12.924 8.00887 12.928 8.02118 12.9317C8.03349 12.9355 8.04588 12.9389 8.05835 12.942C8.07083 12.9451 8.08337 12.9479 8.09597 12.9505C8.10859 12.953 8.12126 12.9552 8.13398 12.9571C8.1467 12.959 8.15945 12.9605 8.17224 12.9618C8.18504 12.963 8.19786 12.964 8.21071 12.9646C8.22355 12.9652 8.23639 12.9656 8.24926 12.9656L10.6064 12.9656C10.6193 12.9656 10.6321 12.9659 10.645 12.9665C10.6578 12.9671 10.6707 12.9681 10.6835 12.9693C10.6962 12.9706 10.709 12.9722 10.7217 12.9741C10.7344 12.9759 10.7471 12.9782 10.7597 12.9807C10.7723 12.9832 10.7849 12.986 10.7973 12.9891C10.8098 12.9922 10.8222 12.9957 10.8345 12.9994C10.8468 13.0031 10.859 13.0071 10.8711 13.0115C10.8832 13.0158 10.8952 13.0204 10.9071 13.0254C10.919 13.0303 10.9308 13.0355 10.9424 13.041C10.954 13.0465 10.9655 13.0523 10.9768 13.0583C10.9881 13.0644 10.9993 13.0707 11.0104 13.0773C11.0214 13.084 11.0323 13.0908 11.0429 13.098C11.0536 13.1051 11.0641 13.1125 11.0745 13.1202C11.0848 13.1278 11.095 13.1357 11.1049 13.1439C11.1148 13.1521 11.1246 13.1605 11.1341 13.1691C11.1436 13.1777 11.1529 13.1866 11.162 13.1957C11.1711 13.2048 11.18 13.2141 11.1886 13.2236C11.1972 13.2331 11.2056 13.2429 11.2138 13.2528C11.222 13.2628 11.2299 13.2729 11.2375 13.2832C11.2452 13.2935 11.2526 13.3041 11.2597 13.3148C11.2669 13.3254 11.2738 13.3363 11.2804 13.3473C11.287 13.3584 11.2933 13.3695 11.2994 13.3809C11.3054 13.3922 11.3112 13.4037 11.3167 13.4153C11.3222 13.4269 11.3274 13.4387 11.3323 13.4506C11.3373 13.4625 11.3419 13.4745 11.3462 13.4866C11.3506 13.4987 11.3546 13.5109 11.3583 13.5232C11.3621 13.5355 11.3655 13.5479 11.3686 13.5604C11.3717 13.5728 11.3745 13.5854 11.3771 13.598C11.3796 13.6106 11.3818 13.6233 11.3837 13.636C11.3856 13.6487 11.3871 13.6615 11.3884 13.6743C11.3896 13.687 11.3906 13.6999 11.3912 13.7127C11.3918 13.7256 11.3922 13.7384 11.3922 13.7513L11.3922 16.1084C11.3922 16.1213 11.3925 16.1342 11.3931 16.147C11.3937 16.1598 11.3947 16.1727 11.3959 16.1855C11.3972 16.1983 11.3988 16.211 11.4007 16.2237C11.4025 16.2364 11.4048 16.2491 11.4073 16.2617C11.4098 16.2743 11.4126 16.2869 11.4157 16.2994C11.4188 16.3118 11.4223 16.3242 11.426 16.3365C11.4297 16.3488 11.4338 16.361 11.4381 16.3731C11.4424 16.3852 11.447 16.3973 11.452 16.4091C11.4569 16.421 11.4621 16.4328 11.4676 16.4444C11.4731 16.456 11.4789 16.4675 11.4849 16.4788C11.491 16.4902 11.4973 16.5014 11.5039 16.5124C11.5106 16.5234 11.5174 16.5343 11.5246 16.545C11.5317 16.5556 11.5391 16.5662 11.5468 16.5765C11.5544 16.5868 11.5623 16.597 11.5705 16.6069C11.5787 16.6169 11.5871 16.6266 11.5957 16.6361C11.6043 16.6456 11.6132 16.6549 11.6223 16.664C11.6314 16.6731 11.6407 16.682 11.6502 16.6906C11.6597 16.6993 11.6695 16.7077 11.6794 16.7158C11.6894 16.724 11.6995 16.7319 11.7098 16.7396C11.7202 16.7472 11.7307 16.7546 11.7414 16.7618C11.752 16.7689 11.7629 16.7758 11.7739 16.7824C11.785 16.789 11.7961 16.7953 11.8075 16.8014C11.8188 16.8074 11.8303 16.8132 11.8419 16.8187C11.8535 16.8242 11.8653 16.8294 11.8772 16.8344C11.8891 16.8393 11.9011 16.8439 11.9132 16.8482C11.9253 16.8526 11.9375 16.8566 11.9498 16.8603C11.9621 16.8641 11.9745 16.8675 11.987 16.8706C11.9994 16.8737 12.012 16.8766 12.0246 16.8791C12.0372 16.8816 12.0499 16.8838 12.0626 16.8857C12.0753 16.8876 12.0881 16.8891 12.1009 16.8904C12.1136 16.8916 12.1265 16.8926 12.1393 16.8932C12.1522 16.8939 12.165 16.8942 12.1779 16.8942C12.1907 16.8942 12.2036 16.8939 12.2164 16.8932C12.2293 16.8926 12.2421 16.8916 12.2549 16.8904C12.2677 16.8891 12.2804 16.8876 12.2932 16.8857C12.3059 16.8838 12.3185 16.8816 12.3312 16.8791C12.3438 16.8766 12.3563 16.8737 12.3688 16.8706C12.3813 16.8675 12.3937 16.8641 12.406 16.8603C12.4183 16.8566 12.4305 16.8526 12.4426 16.8482C12.4547 16.8439 12.4667 16.8393 12.4786 16.8344C12.4904 16.8294 12.5022 16.8242 12.5138 16.8187C12.5254 16.8132 12.5369 16.8074 12.5483 16.8014C12.5596 16.7953 12.5708 16.789 12.5818 16.7824C12.5928 16.7758 12.6037 16.7689 12.6144 16.7618C12.6251 16.7546 12.6356 16.7472 12.6459 16.7396C12.6563 16.7319 12.6664 16.724 12.6763 16.7158C12.6863 16.7077 12.696 16.6993 12.7055 16.6906C12.7151 16.682 12.7244 16.6731 12.7335 16.664C12.7426 16.6549 12.7514 16.6456 12.7601 16.6361C12.7687 16.6266 12.7771 16.6169 12.7852 16.6069C12.7934 16.597 12.8013 16.5868 12.809 16.5765C12.8166 16.5662 12.824 16.5556 12.8312 16.545C12.8383 16.5343 12.8452 16.5234 12.8518 16.5124C12.8584 16.5014 12.8647 16.4902 12.8708 16.4788C12.8769 16.4675 12.8827 16.456 12.8882 16.4444C12.8936 16.4328 12.8989 16.421 12.9038 16.4091C12.9087 16.3973 12.9133 16.3852 12.9177 16.3731C12.922 16.361 12.926 16.3488 12.9298 16.3365C12.9335 16.3242 12.9369 16.3118 12.9401 16.2994C12.9432 16.2869 12.946 16.2743 12.9485 16.2617C12.951 16.2491 12.9532 16.2364 12.9551 16.2237C12.957 16.211 12.9586 16.1983 12.9598 16.1855C12.9611 16.1727 12.962 16.1598 12.9626 16.147C12.9633 16.1342 12.9636 16.1213 12.9636 16.1084L12.9636 13.7513C12.9636 13.7384 12.9639 13.7256 12.9646 13.7127C12.9652 13.6999 12.9661 13.6871 12.9674 13.6743C12.9686 13.6615 12.9702 13.6487 12.9721 13.636C12.974 13.6233 12.9762 13.6106 12.9787 13.598C12.9812 13.5854 12.984 13.5728 12.9872 13.5604C12.9903 13.5479 12.9937 13.5355 12.9974 13.5232C13.0012 13.5109 13.0052 13.4987 13.0095 13.4866C13.0139 13.4745 13.0185 13.4625 13.0234 13.4506C13.0283 13.4387 13.0335 13.4269 13.039 13.4153C13.0445 13.4037 13.0503 13.3922 13.0564 13.3809C13.0625 13.3695 13.0688 13.3584 13.0754 13.3473C13.082 13.3363 13.0889 13.3254 13.096 13.3148C13.1032 13.3041 13.1106 13.2935 13.1182 13.2832C13.1259 13.2729 13.1338 13.2628 13.142 13.2528C13.1501 13.2429 13.1585 13.2331 13.1672 13.2236C13.1758 13.2141 13.1846 13.2048 13.1937 13.1957C13.2028 13.1866 13.2121 13.1777 13.2217 13.1691C13.2312 13.1605 13.2409 13.1521 13.2509 13.1439C13.2608 13.1357 13.2709 13.1278 13.2813 13.1202C13.2916 13.1125 13.3021 13.1051 13.3128 13.098C13.3235 13.0908 13.3344 13.084 13.3454 13.0773C13.3564 13.0707 13.3676 13.0644 13.3789 13.0583C13.3903 13.0523 13.4018 13.0465 13.4134 13.041C13.425 13.0355 13.4368 13.0303 13.4486 13.0254C13.4605 13.0204 13.4725 13.0158 13.4846 13.0115C13.4967 13.0071 13.5089 13.0031 13.5212 12.9994C13.5335 12.9957 13.5459 12.9922 13.5584 12.9891C13.5709 12.986 13.5834 12.9832 13.596 12.9807C13.6087 12.9782 13.6213 12.9759 13.634 12.9741C13.6468 12.9722 13.6595 12.9706 13.6723 12.9693C13.6851 12.9681 13.6979 12.9671 13.7108 12.9665C13.7236 12.9659 13.7365 12.9656 13.7493 12.9656L16.1065 12.9656C16.1194 12.9656 16.1322 12.9652 16.145 12.9646C16.1579 12.964 16.1707 12.963 16.1835 12.9618C16.1963 12.9605 16.2091 12.959 16.2218 12.9571C16.2345 12.9552 16.2472 12.953 16.2598 12.9505C16.2724 12.9479 16.2849 12.9451 16.2974 12.942C16.3099 12.9389 16.3223 12.9355 16.3346 12.9317C16.3469 12.928 16.3591 12.924 16.3712 12.9196C16.3833 12.9153 16.3953 12.9107 16.4072 12.9057C16.419 12.9008 16.4308 12.8956 16.4424 12.8901C16.4541 12.8846 16.4655 12.8788 16.4769 12.8728C16.4882 12.8667 16.4994 12.8604 16.5104 12.8538C16.5215 12.8472 16.5323 12.8403 16.543 12.8331C16.5537 12.826 16.5642 12.8186 16.5745 12.8109C16.5849 12.8033 16.595 12.7954 16.605 12.7872C16.6149 12.779 16.6246 12.7706 16.6342 12.762C16.6437 12.7534 16.653 12.7445 16.6621 12.7354C16.6712 12.7263 16.68 12.717 16.6887 12.7075C16.6973 12.698 16.7057 12.6882 16.7139 12.6783C16.722 12.6684 16.7299 12.6582 16.7376 12.6479C16.7453 12.6375 16.7527 12.627 16.7598 12.6163C16.7669 12.6057 16.7738 12.5948 16.7804 12.5838C16.787 12.5727 16.7934 12.5615 16.7994 12.5502C16.8055 12.5389 16.8113 12.5274 16.8168 12.5158C16.8223 12.5042 16.8275 12.4924 16.8324 12.4805C16.8373 12.4686 16.842 12.4566 16.8463 12.4445C16.8506 12.4324 16.8547 12.4202 16.8584 12.4079C16.8621 12.3956 16.8656 12.3832 16.8687 12.3707C16.8718 12.3583 16.8746 12.3457 16.8771 12.3331C16.8796 12.3205 16.8818 12.3078 16.8837 12.2951C16.8856 12.2824 16.8872 12.2696 16.8884 12.2569C16.8897 12.2441 16.8906 12.2312 16.8913 12.2184C16.8919 12.2055 16.8922 12.1927 16.8922 12.1798C16.8922 12.167 16.8919 12.1541 16.8913 12.1413C16.8906 12.1284 16.8897 12.1156 16.8884 12.1028C16.8872 12.09 16.8856 12.0773 16.8837 12.0646C16.8818 12.0518 16.8796 12.0392 16.8771 12.0265C16.8746 12.0139 16.8718 12.0014 16.8687 11.9889C16.8656 11.9765 16.8621 11.9641 16.8584 11.9517C16.8547 11.9394 16.8506 11.9272 16.8463 11.9151C16.842 11.903 16.8373 11.891 16.8324 11.8791C16.8275 11.8673 16.8223 11.8555 16.8168 11.8439C16.8113 11.8323 16.8055 11.8208 16.7994 11.8094C16.7934 11.7981 16.787 11.7869 16.7804 11.7759C16.7738 11.7649 16.7669 11.754 16.7598 11.7433C16.7527 11.7326 16.7453 11.7221 16.7376 11.7118C16.7299 11.7014 16.722 11.6913 16.7139 11.6814C16.7057 11.6714 16.6973 11.6617 16.6887 11.6522C16.68 11.6426 16.6712 11.6333 16.6621 11.6243C16.653 11.6151 16.6437 11.6063 16.6342 11.5977C16.6246 11.589 16.6149 11.5806 16.605 11.5725C16.595 11.5643 16.5849 11.5564 16.5745 11.5487C16.5642 11.5411 16.5537 11.5337 16.543 11.5265C16.5323 11.5194 16.5215 11.5125 16.5104 11.5059C16.4994 11.4993 16.4882 11.493 16.4769 11.4869C16.4655 11.4808 16.4541 11.475 16.4424 11.4695C16.4308 11.464 16.4191 11.4588 16.4072 11.4539C16.3953 11.449 16.3833 11.4444 16.3712 11.44C16.3591 11.4357 16.3469 11.4317 16.3346 11.4279C16.3223 11.4242 16.3099 11.4208 16.2974 11.4177C16.2849 11.4145 16.2724 11.4117 16.2598 11.4092C16.2472 11.4067 16.2345 11.4045 16.2218 11.4026C16.2091 11.4007 16.1963 11.3991 16.1835 11.3979C16.1707 11.3966 16.1579 11.3957 16.145 11.3951C16.1322 11.3944 16.1194 11.3941 16.1065 11.3941L13.7493 11.3941C13.7365 11.3941 13.7236 11.3938 13.7108 11.3932C13.6979 11.3925 13.6851 11.3916 13.6723 11.3903C13.6595 11.3891 13.6468 11.3875 13.634 11.3856C13.6213 11.3837 13.6087 11.3815 13.596 11.379C13.5834 11.3765 13.5709 11.3737 13.5584 11.3706C13.5459 11.3674 13.5335 11.364 13.5212 11.3603C13.5089 11.3565 13.4967 11.3525 13.4846 11.3482C13.4725 11.3438 13.4605 11.3392 13.4486 11.3343C13.4368 11.3294 13.425 11.3242 13.4134 11.3187C13.4018 11.3132 13.3903 11.3074 13.3789 11.3013C13.3676 11.2953 13.3564 11.2889 13.3454 11.2823C13.3344 11.2757 13.3235 11.2688 13.3128 11.2617C13.3021 11.2545 13.2916 11.2472 13.2813 11.2395C13.2709 11.2318 13.2608 11.2239 13.2509 11.2157C13.2409 11.2076 13.2312 11.1992 13.2217 11.1906C13.2121 11.1819 13.2028 11.1731 13.1937 11.164C13.1846 11.1549 13.1758 11.1456 13.1672 11.136C13.1585 11.1265 13.1501 11.1168 13.142 11.1069C13.1338 11.0969 13.1259 11.0868 13.1182 11.0764C13.1106 11.0661 13.1032 11.0556 13.096 11.0449C13.0889 11.0342 13.082 11.0233 13.0754 11.0123C13.0688 11.0013 13.0625 10.9901 13.0564 10.9788C13.0503 10.9674 13.0445 10.9559 13.039 10.9443C13.0335 10.9327 13.0283 10.921 13.0234 10.9091C13.0185 10.8972 13.0139 10.8852 13.0095 10.8731C13.0052 10.861 13.0012 10.8488 12.9974 10.8365C12.9937 10.8242 12.9903 10.8118 12.9872 10.7993C12.984 10.7868 12.9812 10.7743 12.9787 10.7617C12.9762 10.7491 12.974 10.7364 12.9721 10.7237C12.9702 10.7109 12.9686 10.6982 12.9674 10.6854C12.9661 10.6726 12.9652 10.6598 12.9646 10.6469C12.9639 10.6341 12.9636 10.6213 12.9636 10.6084L12.9636 8.25121C12.9636 8.23835 12.9633 8.2255 12.9626 8.21266C12.962 8.19981 12.9611 8.18699 12.9598 8.17419C12.9586 8.1614 12.957 8.14865 12.9551 8.13593C12.9532 8.12321 12.951 8.11054 12.9485 8.09792C12.946 8.08532 12.9432 8.07278 12.9401 8.06031C12.9369 8.04783 12.9335 8.03544 12.9298 8.02313C12.926 8.01082 12.922 7.99861 12.9177 7.9865C12.9133 7.9744 12.9087 7.96241 12.9038 7.95053C12.8989 7.93864 12.8936 7.92689 12.8882 7.91527C12.8827 7.90365 12.8769 7.89216 12.8708 7.88082C12.8647 7.86947 12.8584 7.8583 12.8518 7.84728C12.8452 7.83625 12.8383 7.82538 12.8312 7.81469C12.824 7.80401 12.8166 7.7935 12.809 7.78317C12.8013 7.77284 12.7934 7.7627 12.7852 7.75275C12.7771 7.74281 12.7687 7.73308 12.7601 7.72355C12.7514 7.71402 12.7426 7.70472 12.7335 7.69563C12.7244 7.68653 12.7151 7.67767 12.7055 7.66904C12.696 7.6604 12.6863 7.652 12.6763 7.64385C12.6664 7.63568 12.6563 7.62777 12.6459 7.62011C12.6356 7.61244 12.6251 7.60505 12.6144 7.59791C12.6037 7.59077 12.5928 7.5839 12.5818 7.57728C12.5708 7.57067 12.5596 7.56434 12.5483 7.55828C12.5369 7.55221 12.5254 7.54642 12.5138 7.54092C12.5022 7.53542 12.4904 7.53021 12.4786 7.5253C12.4667 7.52038 12.4547 7.51575 12.4426 7.51143C12.4305 7.50709 12.4183 7.50306 12.406 7.49933C12.3937 7.49559 12.3813 7.49216 12.3688 7.48904C12.3563 7.48591 12.3438 7.4831 12.3312 7.48059C12.3185 7.47809 12.3059 7.47588 12.2932 7.47399C12.2804 7.4721 12.2677 7.47053 12.2549 7.46927C12.2421 7.46801 12.2293 7.46707 12.2164 7.46645C12.2036 7.46581 12.1907 7.46549 12.1779 7.46549C12.165 7.46549 12.1522 7.46581 12.1393 7.46645C12.1265 7.46707 12.1136 7.46801 12.1009 7.46927C12.0881 7.47053 12.0753 7.4721 12.0626 7.47399C12.0499 7.47588 12.0372 7.47809 12.0246 7.48059C12.012 7.4831 11.9994 7.48591 11.987 7.48904C11.9745 7.49216 11.9621 7.49559 11.9498 7.49933C11.9375 7.50306 11.9253 7.50709 11.9132 7.51143C11.9011 7.51575 11.8891 7.52038 11.8772 7.5253C11.8653 7.53021 11.8535 7.53542 11.8419 7.54092C11.8303 7.54642 11.8188 7.55221 11.8075 7.55828C11.7961 7.56434 11.785 7.57067 11.7739 7.57728C11.7629 7.5839 11.752 7.59077 11.7414 7.59791C11.7307 7.60505 11.7202 7.61244 11.7098 7.62011C11.6995 7.62777 11.6894 7.63568 11.6794 7.64385C11.6695 7.652 11.6597 7.6604 11.6502 7.66904C11.6407 7.67767 11.6314 7.68653 11.6223 7.69563C11.6132 7.70472 11.6043 7.71402 11.5957 7.72355C11.5871 7.73308 11.5787 7.74281 11.5705 7.75275C11.5623 7.7627 11.5544 7.77284 11.5468 7.78317C11.5391 7.7935 11.5317 7.80401 11.5246 7.81469C11.5174 7.82538 11.5106 7.83625 11.5039 7.84728C11.4973 7.8583 11.491 7.86947 11.4849 7.88082C11.4789 7.89216 11.4731 7.90365 11.4676 7.91527C11.4621 7.92689 11.4569 7.93864 11.452 7.95053C11.447 7.96241 11.4424 7.9744 11.4381 7.9865C11.4338 7.99861 11.4297 8.01082 11.426 8.02313C11.4223 8.03544 11.4188 8.04783 11.4157 8.06031C11.4126 8.07278 11.4098 8.08532 11.4073 8.09792C11.4048 8.11054 11.4025 8.12321 11.4007 8.13593C11.3988 8.14865 11.3972 8.1614 11.3959 8.17419C11.3947 8.18699 11.3937 8.19981 11.3931 8.21266C11.3925 8.2255 11.3922 8.23835 11.3922 8.25121L11.3922 10.6084C11.3922 10.6213 11.3918 10.6341 11.3912 10.6469C11.3906 10.6598 11.3896 10.6726 11.3884 10.6854C11.3871 10.6982 11.3856 10.7109 11.3837 10.7237C11.3818 10.7364 11.3796 10.7491 11.3771 10.7617C11.3745 10.7743 11.3717 10.7868 11.3686 10.7993C11.3655 10.8118 11.3621 10.8242 11.3583 10.8365C11.3546 10.8488 11.3506 10.861 11.3462 10.8731C11.3419 10.8852 11.3373 10.8972 11.3323 10.9091C11.3274 10.921 11.3222 10.9327 11.3167 10.9443C11.3112 10.9559 11.3054 10.9674 11.2994 10.9788C11.2933 10.9901 11.287 11.0013 11.2804 11.0123C11.2738 11.0233 11.2669 11.0342 11.2597 11.0449C11.2526 11.0556 11.2452 11.0661 11.2375 11.0764C11.2299 11.0868 11.222 11.0969 11.2138 11.1069C11.2056 11.1168 11.1972 11.1265 11.1886 11.136C11.18 11.1456 11.1711 11.1549 11.162 11.164C11.1529 11.1731 11.1436 11.1819 11.1341 11.1906C11.1246 11.1992 11.1148 11.2076 11.1049 11.2157C11.095 11.2239 11.0848 11.2318 11.0745 11.2395C11.0641 11.2472 11.0536 11.2545 11.0429 11.2617C11.0323 11.2688 11.0214 11.2757 11.0104 11.2823C10.9993 11.2889 10.9881 11.2953 10.9768 11.3013C10.9655 11.3074 10.954 11.3132 10.9424 11.3187C10.9308 11.3242 10.919 11.3294 10.9071 11.3343C10.8952 11.3392 10.8832 11.3438 10.8711 11.3482C10.859 11.3525 10.8468 11.3565 10.8345 11.3603C10.8222 11.364 10.8098 11.3674 10.7973 11.3706C10.7849 11.3737 10.7723 11.3765 10.7597 11.379C10.7471 11.3815 10.7344 11.3837 10.7217 11.3856C10.709 11.3875 10.6962 11.3891 10.6835 11.3903C10.6707 11.3916 10.6578 11.3925 10.645 11.3932C10.6321 11.3938 10.6193 11.3941 10.6064 11.3941L8.24926 11.3941Z"   fill="#CC4E1D" ></path></svg>