<svg xmlns="http://www.w3.org/2000/svg" xmlns:xlink="http://www.w3.org/1999/xlink" width="24" height="24" viewBox="0 0 24 24" fill="none"><path d="M16.8907 20.8971L7.04829 20.8971C6.03011 20.8971 5.18164 20.0825 5.18164 19.0983L5.18164 4.70797C5.18164 3.72372 6.03011 2.90918 7.04829 2.90918L16.9247 2.90918C17.9428 2.90918 18.7913 3.72372 18.7913 4.70797L18.7913 19.1322C18.7574 20.0825 17.9428 20.8971 16.8907 20.8971ZM7.04829 3.92736C6.57315 3.92736 6.19982 4.26676 6.19982 4.70797L6.19982 19.1322C6.19982 19.5734 6.57315 19.9128 7.04829 19.9128L16.9247 19.9128C17.3998 19.9128 17.7731 19.5734 17.7731 19.1322L17.7731 4.70797C17.7731 4.26676 17.3998 3.92736 16.9247 3.92736L7.04829 3.92736Z" stroke="rgba(3, 79, 161, 1)" stroke-width="0.2"      fill="#034FA1" ></path><path d="M5.4549 18.8934L4.16399 18.8934C3.3155 18.8934 2.63672 18.2147 2.63672 17.3662L2.63672 6.43889C2.63672 5.5904 3.3155 4.91162 4.16399 4.91162L5.52036 4.91162C5.79188 4.91162 6.02945 5.14918 6.02945 5.42071C6.02945 5.69222 5.79188 5.9298 5.52036 5.9298L4.16399 5.9298C3.89246 5.9298 3.6549 6.16737 3.6549 6.43889L3.6549 17.3334C3.6549 17.6049 3.89246 17.8425 4.16399 17.8425L5.4549 17.8425C5.72641 17.8425 5.96399 18.0801 5.96399 18.3516C5.96399 18.6231 5.72641 18.8934 5.4549 18.8934ZM19.7749 18.8934L18.4876 18.8934C18.2161 18.8934 17.9785 18.6559 17.9785 18.3843C17.9785 18.1128 18.2161 17.8753 18.4876 17.8753L19.7749 17.8753C20.0464 17.8753 20.284 17.6377 20.284 17.3662L20.284 6.43889C20.284 6.16737 20.0464 5.9298 19.7749 5.9298L18.4185 5.9298C18.147 5.9298 17.9094 5.69222 17.9094 5.42071C17.9094 5.14918 18.147 4.91162 18.4185 4.91162L19.7749 4.91162C20.6234 4.91162 21.3022 5.5904 21.3022 6.43889L21.3022 17.3334C21.3022 18.1819 20.5894 18.8934 19.7749 18.8934Z" stroke="rgba(3, 79, 161, 1)" stroke-width="0.2"      fill="#034FA1" ></path><path d="M14.6882 8.49283L9.25909 8.49283C8.98756 8.49283 8.75 8.25525 8.75 7.98374C8.75 7.71222 8.98756 7.47465 9.25909 7.47465L14.6882 7.47465C14.9597 7.47465 15.1973 7.71222 15.1973 7.98374C15.1973 8.25525 14.9597 8.49283 14.6882 8.49283ZM14.6882 5.87829L9.25909 5.87829C8.98756 5.87829 8.75 5.64073 8.75 5.3692C8.75 5.09769 8.98756 4.86011 9.25909 4.86011L14.6882 4.86011C14.9597 4.86011 15.1973 5.09769 15.1973 5.3692C15.1973 5.64073 14.9597 5.87829 14.6882 5.87829Z"   fill="#034FA1" ></path><path d="M15.1012 18L9.02087 18C8.50097 18 8.06104 17.5789 8.06104 17.0812L8.06104 15.2067C8.06104 14.709 8.50097 14.2878 9.02087 14.2878L15.1012 14.2878C15.6211 14.2878 16.0611 14.709 16.0611 15.2067L16.0611 17.0812C16.0611 17.5789 15.6211 18 15.1012 18ZM9.26083 16.8515L14.8613 16.8515L14.8613 15.4364L9.26083 15.4364L9.26083 16.8515Z"   fill="#CC4E1D" ></path><path d="M14.701 15.4364L9.42188 15.4364L10.5417 12.3737C10.6617 12.0674 10.9416 11.876 11.2616 11.876L12.7813 11.876C13.1012 11.876 13.4212 12.0674 13.5012 12.3737L14.701 15.4364ZM11.1416 14.2879L13.0212 14.2879L12.5413 13.0245L11.5815 13.0245L11.1416 14.2879Z"   fill="#CC4E1D" ></path><path d="M12.7018 12.9862L11.422 12.9862C10.5422 12.9862 9.8623 12.297 9.8623 11.4931C9.8623 10.6891 10.5822 10 11.422 10L12.7018 10C13.5817 10 14.2616 10.6891 14.2616 11.4931C14.2616 12.297 13.5817 12.9862 12.7018 12.9862ZM11.422 11.1485C11.2221 11.1485 11.0621 11.3017 11.0621 11.4931C11.0621 11.6845 11.2221 11.8376 11.422 11.8376L12.7018 11.8376C12.9018 11.8376 13.0618 11.6845 13.0618 11.4931C13.0618 11.3017 12.9018 11.1485 12.7018 11.1485L11.422 11.1485Z"   fill="#CC4E1D" ></path></svg>