<svg xmlns="http://www.w3.org/2000/svg" xmlns:xlink="http://www.w3.org/1999/xlink" width="24" height="24" viewBox="0 0 24 24" fill="none"><path   fill="rgba(3, 79, 161, 1)"  d="M3.99996 1.74541L18.1818 1.74541C19.4269 1.74541 20.4363 2.7548 20.4363 3.99996L20.4363 11.1465Q20.4363 11.6419 20.2286 12.0916Q20.021 12.5414 19.6439 12.8627L10.9591 20.2616Q10.3272 20.8 9.49704 20.8L3.99996 20.8C2.7548 20.8 1.74541 19.7906 1.74541 18.5454L1.74541 3.99996C1.74541 2.7548 2.7548 1.74541 3.99996 1.74541ZM3.99996 3.34541C3.63846 3.34541 3.34541 3.63846 3.34541 3.99996L3.34541 18.5454C3.34541 18.9069 3.63846 19.2 3.99996 19.2L9.49704 19.2Q9.73805 19.2 9.92151 19.0437L18.6063 11.6447Q18.8363 11.4487 18.8363 11.1465L18.8363 3.99996C18.8363 3.63846 18.5433 3.34541 18.1818 3.34541L3.99996 3.34541Z"></path><path     fill="#034FA1"  d="M5.9012 15.6489C5.83166 15.5884 5.76213 15.5278 5.71426 15.4424C5.45627 15.1303 5.41957 14.7044 5.5406 14.2845C5.60263 14.1196 5.66466 13.9548 5.81639 13.7805C5.94496 13.586 6.11837 13.3868 6.31345 13.1627L7.70077 11.5691L7.67759 11.5489C7.35307 11.2664 7.07491 11.0243 6.86328 10.7525C6.4879 10.2944 6.31361 9.79251 6.43165 9.28248C6.5265 8.75226 6.82697 8.31351 7.37791 7.96147C7.66421 7.77302 8.04025 7.57512 8.43944 7.39739L8.48429 7.39267L12.3836 5.53473L12.4053 5.50984C12.6714 5.39136 12.8927 5.2776 13.1155 5.20891C13.3151 5.12005 13.4945 5.10117 13.6522 5.10719C14.0791 5.08488 14.4455 5.27251 14.6818 5.60955C14.9151 5.85642 14.975 6.3025 14.8308 6.70219C14.7486 6.93703 14.6417 7.10661 14.555 7.20621C14.4264 7.40068 14.253 7.59988 14.0579 7.82398L12.6706 9.41757L12.6938 9.43776C13.0183 9.72027 13.2965 9.96243 13.5081 10.2342C13.8835 10.6923 14.0346 11.174 13.9614 11.6793L13.9629 11.7244C13.8681 12.2546 13.5676 12.6934 13.0166 13.0454C12.7303 13.2339 12.3543 13.4318 11.9551 13.6095L11.9103 13.6142L7.98929 15.497C7.72316 15.6155 7.50188 15.7293 7.2791 15.798C7.10118 15.8619 6.90007 15.9057 6.74232 15.8997C6.40665 15.9576 6.133 15.8507 5.9012 15.6489ZM12.7755 6.48872L8.83287 8.39645C8.47852 8.56945 8.12418 8.74246 7.90441 8.90129C7.63978 9.06487 7.53289 9.23445 7.49405 9.41948C7.4552 9.60451 7.52925 9.80029 7.69452 10.0317C7.85828 10.218 8.13644 10.4602 8.41459 10.7023L8.85501 11.0858C9.08681 11.2875 9.09884 11.6482 8.88207 11.8972L7.12625 13.9141C6.97451 14.0884 6.8011 14.2876 6.71591 14.4323C6.67255 14.4821 6.65238 14.552 6.60902 14.6018C6.58884 14.6718 6.59034 14.7169 6.61503 14.7821C6.6614 14.8225 6.70775 14.8629 6.79746 14.8534C6.8655 14.8689 6.95371 14.8144 6.99857 14.8096C7.13163 14.7504 7.37609 14.6568 7.59737 14.5431L7.61904 14.5182L11.5183 12.6602L11.5632 12.6555C11.9175 12.4825 12.2719 12.3095 12.4917 12.1507C12.7563 11.9871 12.8632 11.8175 12.902 11.6325C12.9409 11.4474 12.8668 11.2517 12.7015 11.0203C12.5378 10.8339 12.2596 10.5918 11.9815 10.3496L11.541 9.9662C11.3092 9.7644 11.2972 9.40377 11.514 9.15477L13.2698 7.13788C13.4432 6.93868 13.595 6.76438 13.6802 6.61971C13.7018 6.59481 13.7669 6.52011 13.787 6.45012C13.8072 6.38015 13.8057 6.33506 13.781 6.2698C13.7347 6.22945 13.6883 6.18909 13.5986 6.19854C13.5306 6.18307 13.4423 6.2376 13.3975 6.24232C13.2644 6.30155 13.02 6.39513 12.7987 6.50889"></path><path    stroke="rgba(3, 79, 161, 1)" stroke-width="0.4"    d="M5.9012 15.6489C5.83166 15.5884 5.76213 15.5278 5.71426 15.4424C5.45627 15.1303 5.41957 14.7044 5.5406 14.2845C5.60263 14.1196 5.66466 13.9548 5.81639 13.7805C5.94496 13.586 6.11837 13.3868 6.31345 13.1627L7.70077 11.5691L7.67759 11.5489C7.35307 11.2664 7.07491 11.0243 6.86328 10.7525C6.4879 10.2944 6.31361 9.79251 6.43165 9.28248C6.5265 8.75226 6.82697 8.31351 7.37791 7.96147C7.66421 7.77302 8.04025 7.57512 8.43944 7.39739L8.48429 7.39267L12.3836 5.53473L12.4053 5.50984C12.6714 5.39136 12.8927 5.2776 13.1155 5.20891C13.3151 5.12005 13.4945 5.10117 13.6522 5.10719C14.0791 5.08488 14.4455 5.27251 14.6818 5.60955C14.9151 5.85642 14.975 6.3025 14.8308 6.70219C14.7486 6.93703 14.6417 7.10661 14.555 7.20621C14.4264 7.40068 14.253 7.59988 14.0579 7.82398L12.6706 9.41757L12.6938 9.43776C13.0183 9.72027 13.2965 9.96243 13.5081 10.2342C13.8835 10.6923 14.0346 11.174 13.9614 11.6793L13.9629 11.7244C13.8681 12.2546 13.5676 12.6934 13.0166 13.0454C12.7303 13.2339 12.3543 13.4318 11.9551 13.6095L11.9103 13.6142L7.98929 15.497C7.72316 15.6155 7.50188 15.7293 7.2791 15.798C7.10118 15.8619 6.90007 15.9057 6.74232 15.8997C6.40665 15.9576 6.133 15.8507 5.9012 15.6489ZM12.7755 6.48872L8.83287 8.39645C8.47852 8.56945 8.12418 8.74246 7.90441 8.90129C7.63978 9.06487 7.53289 9.23445 7.49405 9.41948C7.4552 9.60451 7.52925 9.80029 7.69452 10.0317C7.85828 10.218 8.13644 10.4602 8.41459 10.7023L8.85501 11.0858C9.08681 11.2875 9.09884 11.6482 8.88207 11.8972L7.12625 13.9141C6.97451 14.0884 6.8011 14.2876 6.71591 14.4323C6.67255 14.4821 6.65238 14.552 6.60902 14.6018C6.58884 14.6718 6.59034 14.7169 6.61503 14.7821C6.6614 14.8225 6.70775 14.8629 6.79746 14.8534C6.8655 14.8689 6.95371 14.8144 6.99857 14.8096C7.13163 14.7504 7.37609 14.6568 7.59737 14.5431L7.61904 14.5182L11.5183 12.6602L11.5632 12.6555C11.9175 12.4825 12.2719 12.3095 12.4917 12.1507C12.7563 11.9871 12.8632 11.8175 12.902 11.6325C12.9409 11.4474 12.8668 11.2517 12.7015 11.0203C12.5378 10.8339 12.2596 10.5918 11.9815 10.3496L11.541 9.9662C11.3092 9.7644 11.2972 9.40377 11.514 9.15477L13.2698 7.13788C13.4432 6.93868 13.595 6.76438 13.6802 6.61971C13.7018 6.59481 13.7669 6.52011 13.787 6.45012C13.8072 6.38015 13.8057 6.33506 13.781 6.2698C13.7347 6.22945 13.6883 6.18909 13.5986 6.19854C13.5306 6.18307 13.4423 6.2376 13.3975 6.24232C13.2644 6.30155 13.02 6.39513 12.7987 6.50889"></path><path d="M13.4806 22.4433L13.4486 22.4416L13.4273 22.4404L13.3954 22.4387L13.3747 22.4268L13.3433 22.4142L13.322 22.4131L13.2906 22.4005L13.2699 22.3886L13.2491 22.3766L13.2183 22.3532L13.1976 22.3412L13.1768 22.3292L13.1566 22.3064L13.1365 22.2835L13.1264 22.2721L13.1062 22.2493L13.086 22.2264L13.0765 22.2042L13.0563 22.1813L13.0467 22.159L13.0377 22.1259L13.0282 22.1036L13.0187 22.0813L13.0203 22.0488L13.0108 22.0265L13.0018 21.9934L13.0029 21.9717L13.0045 21.9391L13.0057 21.9174L13.0073 21.8848L13.0084 21.8631L13.0202 21.8419L13.5032 19.6903C13.5038 19.6778 13.5154 19.6597 13.516 19.6474C13.5166 19.6352 13.5277 19.6274 13.5283 19.6154C13.5289 19.6034 13.54 19.595 13.5406 19.5834C13.5412 19.5718 13.563 19.5632 13.5636 19.552C13.5641 19.5408 13.5759 19.52 13.5759 19.52L13.5988 19.4885L13.6324 19.4576L13.6554 19.4262L19.928 13.8252C20.4977 13.3357 21.359 13.3813 21.876 13.9283L22.3509 14.4542C22.8603 15.0159 22.8163 15.8817 22.2526 16.3867L15.9794 21.9985L15.9464 22.0185L15.924 22.0391L15.8909 22.0591L15.8584 22.0683C15.8584 22.0683 15.8363 22.0889 15.8254 22.0883C15.8145 22.0878 15.8041 22.0981 15.7929 22.0975C15.7817 22.0969 15.7719 22.1073 15.7604 22.1067C15.749 22.1061 15.729 22.1159 15.7173 22.1153L13.5769 22.4375L13.4806 22.4433ZM14.4446 20.0667L14.1436 21.368L15.4242 21.1636L21.5848 15.6655C21.7368 15.526 21.7489 15.2883 21.6119 15.1335L21.1263 14.6071C20.9833 14.4603 20.7513 14.448 20.5941 14.5789L14.4446 20.0667Z" stroke="rgba(204, 78, 29, 1)" stroke-width="0.2"      fill="#CC4E1D" ></path><path d="M20.402 17.3692C20.3865 17.3684 20.37 17.3643 20.3546 17.3634C20.3392 17.3626 20.3257 17.3554 20.3105 17.3546C20.2953 17.3538 20.2812 17.3476 20.2665 17.3425C20.2519 17.3374 20.237 17.3337 20.2229 17.3273C20.2087 17.3209 20.1929 17.3132 20.1794 17.3055C20.1659 17.2978 20.1551 17.2897 20.1425 17.2808C20.1298 17.2719 20.1175 17.2629 20.1057 17.2529C20.0939 17.2429 20.0833 17.2298 20.0725 17.2187L18.6786 15.7922C18.6724 15.7864 18.6664 15.781 18.6604 15.775C18.6545 15.7689 18.6512 15.7611 18.6455 15.7547C18.6399 15.7484 18.6328 15.7409 18.6275 15.7343C18.6222 15.7277 18.6176 15.7209 18.6126 15.7141C18.6077 15.7072 18.6023 15.7009 18.5977 15.6938C18.5932 15.6867 18.5903 15.6811 18.586 15.6737C18.5818 15.6664 18.5783 15.6579 18.5745 15.6504C18.5707 15.6429 18.5664 15.6348 18.563 15.6271C18.5595 15.6194 18.5545 15.6116 18.5514 15.6038C18.5484 15.5959 18.5427 15.5885 18.5431 15.5806C18.5435 15.5727 18.5375 15.5656 18.5379 15.5576C18.5383 15.5496 18.5293 15.5394 18.5297 15.5312C18.5301 15.5231 18.5241 15.5165 18.5245 15.5082C18.5249 15.5 18.5222 15.4905 18.5226 15.4822C18.523 15.4739 18.5203 15.4645 18.5208 15.4561C18.5212 15.4478 18.5185 15.4385 18.5189 15.4301C18.5193 15.4217 18.5196 15.4159 18.5201 15.4074C18.5205 15.399 18.521 15.39 18.5214 15.3816C18.5218 15.3732 18.5254 15.3642 18.5259 15.3558C18.5263 15.3475 18.5299 15.3385 18.5304 15.3301C18.5308 15.3218 18.5343 15.3159 18.5347 15.3076C18.5351 15.2994 18.5419 15.2903 18.5423 15.2821C18.5428 15.2739 18.5496 15.2646 18.55 15.2566C18.5504 15.2485 18.5603 15.2423 18.5607 15.2344C18.5611 15.2265 18.5676 15.2198 18.5713 15.2123C18.5751 15.2047 18.5779 15.1975 18.582 15.1901C18.5861 15.1828 18.5914 15.1753 18.5959 15.1681C18.6003 15.161 18.6049 15.1531 18.6097 15.1462C18.6145 15.1393 18.6182 15.1341 18.6234 15.1274C18.6286 15.1208 18.6349 15.112 18.6404 15.1056C18.6459 15.0992 18.6514 15.0931 18.6572 15.087C18.6631 15.0809 18.6679 15.0743 18.6741 15.0685C18.6802 15.0627 18.6875 15.0588 18.6939 15.0533C18.7004 15.0478 18.7071 15.0433 18.7138 15.0381C18.7205 15.033 18.7267 15.0277 18.7337 15.023C18.7406 15.0182 18.7463 15.0122 18.7535 15.0078C18.7607 15.0034 18.7689 15.0001 18.7764 14.996C18.7838 14.992 18.7916 14.9879 18.7992 14.9842C18.8069 14.9806 18.8143 14.9758 18.8221 14.9725C18.8299 14.9692 18.84 14.967 18.848 14.9641C18.8559 14.9612 18.8627 14.9552 18.8707 14.9556C18.8787 14.956 18.8883 14.95 18.8964 14.9505C18.9045 14.9509 18.9107 14.9447 18.9189 14.9452C18.9271 14.9456 18.9363 14.9396 18.9446 14.94C18.9529 14.9405 18.9618 14.9377 18.9702 14.9381C18.9786 14.9386 18.9873 14.9358 18.9957 14.9362C19.0042 14.9367 19.0128 14.9339 19.0213 14.9344C19.0297 14.9348 19.0381 14.9352 19.0466 14.9357C19.0551 14.9361 19.0636 14.9366 19.072 14.937C19.0805 14.9375 19.0888 14.9412 19.0972 14.9416C19.1056 14.9421 19.1141 14.9458 19.1224 14.9462C19.1308 14.9466 19.1394 14.9503 19.1477 14.9508C19.1559 14.9512 19.1645 14.9582 19.1727 14.9586C19.1809 14.959 19.1865 14.9658 19.1946 14.9662C19.2026 14.9667 19.2115 14.9769 19.2195 14.9773C19.2274 14.9777 19.2336 14.9844 19.2412 14.9882C19.2488 14.992 19.2587 14.995 19.2661 14.9992C19.2734 15.0034 19.2805 15.0088 19.2876 15.0133C19.2948 15.0179 19.2991 15.0224 19.306 15.0273C19.3129 15.0322 19.3209 15.0361 19.3275 15.0414C19.3342 15.0467 19.3394 15.053 19.3457 15.0586C19.3521 15.0642 19.361 15.07 19.3671 15.0759C19.3732 15.0818 19.3794 15.0902 19.3852 15.0964C19.3909 15.1026 19.3948 15.1069 19.4002 15.1134L20.7907 16.543C20.7957 16.5473 20.8012 16.5523 20.806 16.5568C20.8108 16.5613 20.8165 16.5659 20.8211 16.5706C20.8257 16.5753 20.8287 16.5794 20.8332 16.5842C20.8376 16.589 20.8441 16.5929 20.8483 16.598C20.8525 16.603 20.8562 16.6096 20.8602 16.6148C20.8642 16.62 20.8684 16.6231 20.8722 16.6284C20.876 16.6338 20.8774 16.6396 20.881 16.6451C20.8846 16.6506 20.8895 16.6563 20.8929 16.662C20.8963 16.6676 20.8983 16.6729 20.9015 16.6786C20.9047 16.6844 20.9074 16.6894 20.9103 16.6953C20.9132 16.7012 20.919 16.7094 20.9187 16.7153C20.9185 16.7211 20.9277 16.726 20.9274 16.7319C20.9271 16.7378 20.9363 16.7458 20.936 16.7519C20.9357 16.7579 20.9418 16.7622 20.9415 16.7683C20.9412 16.7745 20.9472 16.7819 20.9469 16.7881C20.9466 16.7943 20.9526 16.8015 20.9522 16.8078C20.9519 16.8141 20.9547 16.8211 20.9544 16.8274C20.954 16.8338 20.9569 16.8406 20.9566 16.847C20.9563 16.8534 20.9623 16.8603 20.962 16.8668C20.9617 16.8732 20.9613 16.8797 20.961 16.8862C20.9607 16.8926 20.9634 16.8992 20.9631 16.9058C20.9628 16.9123 20.9625 16.9186 20.9621 16.9251C20.9618 16.9317 20.9615 16.9381 20.9611 16.9446C20.9608 16.9511 20.9605 16.9574 20.9601 16.964C20.9598 16.9705 20.9595 16.9769 20.9592 16.9834C20.9588 16.9899 20.9554 16.9962 20.9551 17.0027C20.9547 17.0091 20.9512 17.0154 20.9508 17.0219C20.9505 17.0283 20.9471 17.0348 20.9467 17.0412C20.9464 17.0476 20.9428 17.054 20.9425 17.0604C20.9422 17.0667 20.9355 17.0732 20.9352 17.0795C20.9349 17.0857 20.9283 17.0891 20.928 17.0953C20.9277 17.1015 20.921 17.1083 20.9207 17.1144C20.9203 17.1205 20.9136 17.1274 20.9133 17.1334C20.913 17.1394 20.9033 17.1432 20.903 17.1491C20.9027 17.155 20.896 17.1624 20.8957 17.1682C20.8954 17.174 20.889 17.1784 20.8854 17.1839C20.8819 17.1894 20.8757 17.1941 20.8719 17.1994C20.8681 17.2047 20.8655 17.2099 20.8615 17.2151C20.8575 17.2202 20.8522 17.2255 20.848 17.2306C20.8438 17.2356 20.8388 17.2412 20.8344 17.2461C20.83 17.2509 20.8256 17.2536 20.8211 17.2583C20.8165 17.263 20.8125 17.2694 20.8077 17.2739C20.8029 17.2784 20.7993 17.2818 20.7944 17.2861C20.7894 17.2904 20.7829 17.2941 20.7777 17.2982C20.7726 17.3023 20.7697 17.3066 20.7644 17.3105C20.7591 17.3144 20.7534 17.3189 20.7479 17.3226C20.7425 17.3263 20.7369 17.3312 20.7313 17.3347C20.7257 17.3382 20.7207 17.3403 20.715 17.3436C20.7093 17.3468 20.7013 17.3493 20.6955 17.3523C20.6896 17.3553 20.685 17.3614 20.6792 17.3611C20.6734 17.3608 20.6655 17.3701 20.6596 17.3698C20.6537 17.3695 20.6494 17.379 20.6433 17.3787C20.6373 17.3784 20.6301 17.3845 20.624 17.3842C20.6178 17.3839 20.6108 17.39 20.6046 17.3897C20.5983 17.3893 20.5915 17.3954 20.5852 17.3951C20.5789 17.3947 20.5723 17.3976 20.566 17.3973C20.5596 17.397 20.553 17.4031 20.5466 17.4028C20.5402 17.4024 20.5338 17.4054 20.5274 17.405C20.5209 17.4047 20.5147 17.4076 20.5082 17.4072C20.5016 17.4069 20.4955 17.4098 20.4889 17.4095C20.4824 17.4091 20.4733 17.4086 20.4668 17.4083C20.4602 17.408 20.4543 17.4076 20.4477 17.4073C20.4412 17.4069 20.4353 17.4066 20.4287 17.4063C20.4221 17.4059 20.4162 17.4056 20.4096 17.4053L20.402 17.3692Z"   fill="#CC4E1D" ></path></svg>