<svg xmlns="http://www.w3.org/2000/svg" xmlns:xlink="http://www.w3.org/1999/xlink" width="24" height="24" viewBox="0 0 24 24" fill="none"><path d="M20.898 12.7107L20.898 10.8175C20.898 10.4874 20.6315 10.2209 20.3014 10.2209C19.1381 10.215 17.9767 10.3204 16.8352 10.5371C16.2048 9.92861 15.4352 9.48315 14.596 9.24054C16.3619 7.75702 16.5906 5.12406 15.1071 3.35816C13.6236 1.59225 10.9886 1.36554 9.2247 2.84708C7.46078 4.32861 7.2301 6.96355 8.71362 8.72946C8.86873 8.9144 9.03975 9.08542 9.2247 9.24054C8.3835 9.48514 7.6139 9.9306 6.98549 10.5371C5.84203 10.3204 4.68066 10.215 3.51731 10.2209C3.1872 10.2209 2.92072 10.4874 2.92072 10.8175L2.92072 12.7107C2.2068 12.9633 1.72754 13.6394 1.72754 14.3971L1.72754 15.5903C1.72953 16.3479 2.2068 17.0241 2.92072 17.2766L2.92072 19.1698C2.92072 19.4999 3.1872 19.7664 3.51731 19.7664C6.37896 19.6928 9.19487 20.5042 11.5773 22.0932C11.7781 22.2264 12.0386 22.2264 12.2395 22.0932C14.6238 20.5042 17.4378 19.6908 20.3014 19.7664C20.6315 19.7664 20.898 19.4999 20.898 19.1698L20.898 17.2766C21.6119 17.0241 22.0912 16.3479 22.0912 15.5903L22.0912 14.3971C22.0912 13.6394 21.6119 12.9633 20.898 12.7107ZM8.9264 6.0448C8.9264 4.39821 10.2608 3.06185 11.9094 3.06185C13.5579 3.06185 14.8923 4.39821 14.8923 6.0448C14.8923 7.69139 13.5579 9.02775 11.9094 9.02775C10.2667 9.01383 8.94032 7.68741 8.9264 6.0448ZM3.51731 16.1868C3.1872 16.1868 2.92072 15.9204 2.92072 15.5903L2.92072 14.3971C2.92072 14.067 3.1872 13.8005 3.51532 13.7985C3.84544 13.7985 4.11191 14.065 4.1139 14.3931L4.1139 15.5903C4.1139 15.9204 3.84743 16.1868 3.51731 16.1868ZM11.3128 20.5261C9.11532 19.2792 6.63947 18.611 4.1139 18.5832L4.1139 17.2786C4.82782 17.0261 5.30708 16.3499 5.30708 15.5922L5.30708 14.3991C5.3051 13.6414 4.82782 12.9653 4.1139 12.7127L4.1139 11.4261C6.66532 11.432 9.16106 12.1618 11.3128 13.53L11.3128 20.5261ZM11.9094 12.4939C10.8295 11.8079 9.6622 11.2709 8.43919 10.8991C9.11731 10.4576 9.90879 10.2229 10.7182 10.2229L13.1045 10.2229C13.9139 10.2229 14.7054 10.4596 15.3815 10.8991C14.1565 11.2709 12.9892 11.8079 11.9094 12.4939ZM19.7048 18.5832C17.1792 18.611 14.7034 19.2812 12.5059 20.5261L12.5059 13.526C14.6577 12.1579 17.1554 11.428 19.7048 11.4201L19.7048 12.7067C18.9909 12.9613 18.5136 13.6354 18.5116 14.3931L18.5116 15.5863C18.5116 16.3439 18.9909 17.0201 19.7048 17.2726L19.7048 18.5832ZM20.898 15.5903C20.898 15.9204 20.6295 16.1868 20.2994 16.1849C19.9713 16.1849 19.7048 15.9184 19.7048 15.5903L19.7048 14.3971C19.7048 14.067 19.9713 13.8005 20.2994 13.7985C20.6295 13.7985 20.896 14.065 20.898 14.3931L20.898 15.5903Z"   fill="#034FA1" ></path><g mask="url(#mask-71_4302)"><path d="M14.9091 11.0909C15.4545 10.9273 16.7273 10.5455 17.2727 10.5455C17.8182 10.5455 17.4773 8.89091 17.2727 8.18182L17.2727 1.81818L11.2727 0L5.27273 1.81818L4 5.45455L5.27273 10.1818L6.90909 10.5455C7.4 10.6545 9.27273 11.0909 9.45455 11.2727C9.63636 11.4545 13.3409 11.2136 14.9091 11.0909Z"   fill="#CC4E1D" ></path></g><defs><mask id="mask-71_4302" style="mask-type:alpha" maskUnits="userSpaceOnUse"><path d="M20.898 12.7107L20.898 10.8175C20.898 10.4874 20.6315 10.2209 20.3014 10.2209C19.1381 10.215 17.9767 10.3204 16.8352 10.5371C16.2048 9.92861 15.4352 9.48315 14.596 9.24054C16.3619 7.75702 16.5906 5.12406 15.1071 3.35816C13.6236 1.59225 10.9886 1.36554 9.2247 2.84708C7.46078 4.32861 7.2301 6.96355 8.71362 8.72946C8.86873 8.9144 9.03975 9.08542 9.2247 9.24054C8.3835 9.48514 7.6139 9.9306 6.98549 10.5371C5.84203 10.3204 4.68066 10.215 3.51731 10.2209C3.1872 10.2209 2.92072 10.4874 2.92072 10.8175L2.92072 12.7107C2.2068 12.9633 1.72754 13.6394 1.72754 14.3971L1.72754 15.5903C1.72953 16.3479 2.2068 17.0241 2.92072 17.2766L2.92072 19.1698C2.92072 19.4999 3.1872 19.7664 3.51731 19.7664C6.37896 19.6928 9.19487 20.5042 11.5773 22.0932C11.7781 22.2264 12.0386 22.2264 12.2395 22.0932C14.6238 20.5042 17.4378 19.6908 20.3014 19.7664C20.6315 19.7664 20.898 19.4999 20.898 19.1698L20.898 17.2766C21.6119 17.0241 22.0912 16.3479 22.0912 15.5903L22.0912 14.3971C22.0912 13.6394 21.6119 12.9633 20.898 12.7107ZM8.9264 6.0448C8.9264 4.39821 10.2608 3.06185 11.9094 3.06185C13.5579 3.06185 14.8923 4.39821 14.8923 6.0448C14.8923 7.69139 13.5579 9.02775 11.9094 9.02775C10.2667 9.01383 8.94032 7.68741 8.9264 6.0448ZM3.51731 16.1868C3.1872 16.1868 2.92072 15.9204 2.92072 15.5903L2.92072 14.3971C2.92072 14.067 3.1872 13.8005 3.51532 13.7985C3.84544 13.7985 4.11191 14.065 4.1139 14.3931L4.1139 15.5903C4.1139 15.9204 3.84743 16.1868 3.51731 16.1868ZM11.3128 20.5261C9.11532 19.2792 6.63947 18.611 4.1139 18.5832L4.1139 17.2786C4.82782 17.0261 5.30708 16.3499 5.30708 15.5922L5.30708 14.3991C5.3051 13.6414 4.82782 12.9653 4.1139 12.7127L4.1139 11.4261C6.66532 11.432 9.16106 12.1618 11.3128 13.53L11.3128 20.5261ZM11.9094 12.4939C10.8295 11.8079 9.6622 11.2709 8.43919 10.8991C9.11731 10.4576 9.90879 10.2229 10.7182 10.2229L13.1045 10.2229C13.9139 10.2229 14.7054 10.4596 15.3815 10.8991C14.1565 11.2709 12.9892 11.8079 11.9094 12.4939ZM19.7048 18.5832C17.1792 18.611 14.7034 19.2812 12.5059 20.5261L12.5059 13.526C14.6577 12.1579 17.1554 11.428 19.7048 11.4201L19.7048 12.7067C18.9909 12.9613 18.5136 13.6354 18.5116 14.3931L18.5116 15.5863C18.5116 16.3439 18.9909 17.0201 19.7048 17.2726L19.7048 18.5832ZM20.898 15.5903C20.898 15.9204 20.6295 16.1868 20.2994 16.1849C19.9713 16.1849 19.7048 15.9184 19.7048 15.5903L19.7048 14.3971C19.7048 14.067 19.9713 13.8005 20.2994 13.7985C20.6295 13.7985 20.896 14.065 20.898 14.3931L20.898 15.5903Z"   fill="#034FA1" ></path></mask></defs></svg>