<svg xmlns="http://www.w3.org/2000/svg" xmlns:xlink="http://www.w3.org/1999/xlink" width="24" height="24" viewBox="0 0 24 24" fill="none"><path d="M8.10961 12.0283C9.23355 13.1212 10.7299 13.7215 12.3217 13.7215C13.9136 13.7215 15.4139 13.1212 16.5378 12.0283C17.6642 10.9378 18.2833 9.48394 18.2833 7.93938L18.2833 4.18683C18.2833 3.16647 18.0092 2.40637 17.4496 1.86577C16.4439 0.89457 14.799 0.899583 12.8937 0.908944C12.7056 0.908944 12.5147 0.912681 12.3217 0.912681C12.1288 0.912681 11.9395 0.908944 11.7538 0.908944C9.84842 0.899583 8.19954 0.89457 7.19383 1.86577C6.63427 2.40637 6.36418 3.16413 6.36418 4.18683L6.36418 7.93938C6.36418 9.48394 6.98329 10.9378 8.10961 12.0283ZM8.14684 2.79644C8.68711 2.27457 9.83938 2.21711 11.2118 2.21711C11.3878 2.21711 11.5664 2.22084 11.7425 2.22084C11.933 2.22084 12.1227 2.22458 12.3181 2.22458C12.5134 2.22458 12.7056 2.22084 12.8937 2.22084L12.901 2.22084C14.5039 2.21384 15.8898 2.20999 16.4966 2.79644C16.7884 3.07727 16.9302 3.53156 16.9302 4.18683L16.9302 6.35464C15.6914 6.18061 13.3268 5.86875 12.3254 5.86875C11.3223 5.86875 8.9503 6.18102 7.71322 6.35464L7.71322 4.18683C7.71322 3.53156 7.85501 3.07727 8.14684 2.79644ZM16.9302 7.93938L16.9302 7.67775C15.7922 7.51688 13.2877 7.17691 12.3254 7.17691C11.3628 7.17691 8.84867 7.51729 7.71322 7.67775L7.71322 7.93938C7.71322 10.406 9.77962 12.4096 12.3217 12.4096C14.8638 12.4096 16.9302 10.406 16.9302 7.93938ZM11.1853 22.9608C11.0276 22.5427 10.9127 22.1037 10.846 21.6489L3.77012 21.6489C3.63747 21.6489 3.53092 21.5459 3.53092 21.4172L3.53092 18.8195C3.53092 18.2415 3.76425 17.699 4.18873 17.2871C4.61322 16.8752 5.17643 16.648 5.76974 16.648L6.92466 16.648L10.8327 21.5532C10.7968 21.28 10.7783 21.0014 10.7783 20.7185C10.7783 20.2987 10.8191 19.8884 10.8967 19.4913L8.63275 16.648L12.2531 16.648C12.6791 16.1379 13.1836 15.6957 13.748 15.3398L5.76974 15.3398C3.78962 15.3398 2.18164 16.9006 2.18164 18.8195L2.18164 21.6041C2.18164 22.353 2.80772 22.9608 3.5795 22.9608L11.1853 22.9608Z" stroke="rgba(3, 79, 161, 1)" stroke-width="0.2"    fill-rule="evenodd"  fill="#034FA1" ></path><path     fill="#CC4E1D"  d="M17.2503 15.2988L21.3158 15.2988C21.7938 15.2988 22.1813 15.6864 22.1813 16.1644L22.1813 16.1644C22.1813 16.6424 21.7938 17.0299 21.3158 17.0299L17.2503 17.0299C16.7723 17.0299 16.3848 16.6424 16.3848 16.1644L16.3848 16.1644C16.3848 15.6864 16.7723 15.2988 17.2503 15.2988Z"></path><path     fill="#CC4E1D"  d="M13.8858 18.2891L21.3161 18.2891C21.794 18.2891 22.1814 18.6765 22.1814 19.1543L22.1814 19.1543C22.1814 19.6322 21.794 20.0196 21.3161 20.0196L13.8858 20.0196C13.4079 20.0196 13.0205 19.6322 13.0205 19.1543L13.0205 19.1543C13.0205 18.6765 13.4079 18.2891 13.8858 18.2891Z"></path><path     fill="#CC4E1D"  d="M15.7549 21.2791L21.3165 21.2791C21.7943 21.2791 22.1817 21.6664 22.1817 22.1443L22.1817 22.1443C22.1817 22.6222 21.7943 23.0096 21.3165 23.0096L15.7549 23.0096C15.277 23.0096 14.8896 22.6222 14.8896 22.1443L14.8896 22.1443C14.8896 21.6664 15.277 21.2791 15.7549 21.2791Z"></path></svg>