<svg xmlns="http://www.w3.org/2000/svg" xmlns:xlink="http://www.w3.org/1999/xlink" width="24" height="24" viewBox="0 0 24 24" fill="none"><path d="M16.0193 6.81873C15.2173 6.81873 14.4626 6.51571 13.8964 5.96508C13.3289 5.41562 13.0166 4.68341 13.0166 3.90521L13.0166 2.01514C13.0166 1.49987 13.1539 1.11785 13.4358 0.845482C13.9426 0.356163 14.7725 0.3597 15.7325 0.364416C15.826 0.364416 15.922 0.365595 16.0193 0.365595C16.1165 0.365595 16.2113 0.365595 16.306 0.364416C17.266 0.3597 18.096 0.356163 18.6027 0.845482C18.8846 1.11785 19.0219 1.50106 19.0219 2.01514L19.0219 3.90521C19.0219 4.68341 18.7096 5.41562 18.1421 5.96508C17.5759 6.51571 16.8213 6.81873 16.0193 6.81873ZM15.4591 1.02352C14.7676 1.02352 14.1868 1.05064 13.9146 1.31358C13.7676 1.45507 13.6959 1.685 13.6959 2.01514L13.6959 3.90521C13.6959 5.14797 14.7373 6.15845 16.018 6.15845C17.2988 6.15845 18.3402 5.14797 18.3402 3.90521L18.3402 2.01514C18.3402 1.685 18.2685 1.45507 18.1215 1.31358C17.8153 1.01763 17.1165 1.02117 16.3073 1.0247C16.2125 1.0247 16.1153 1.02588 16.0168 1.02588C15.9184 1.02588 15.8224 1.02588 15.7264 1.0247C15.6377 1.0247 15.5478 1.02352 15.4591 1.02352Z" stroke="rgba(204, 78, 29, 1)" stroke-width="0.6"      fill="#CC4E1D" ></path><path d="M20.385 10.9091L11.614 10.9091C11.2251 10.9091 10.9092 10.6026 10.9092 10.2253L10.9092 8.82333C10.9092 7.85648 11.7197 7.06885 12.7173 7.06885L19.2828 7.06885C20.2793 7.06885 21.091 7.8553 21.091 8.82333L21.091 10.2253C21.0898 10.6026 20.7738 10.9091 20.385 10.9091ZM12.7161 7.72914C12.4172 7.72914 12.1341 7.84351 11.9202 8.05103C11.7063 8.25854 11.5885 8.53209 11.5885 8.82333L11.5885 10.1309C11.5885 10.1958 11.6431 10.2488 11.71 10.2488L20.2866 10.2488C20.3534 10.2488 20.4081 10.1958 20.4081 10.1309L20.4081 8.82333C20.4081 8.53327 20.2902 8.25854 20.0763 8.05103C19.8625 7.84351 19.5806 7.72914 19.2804 7.72914L12.7161 7.72914Z" stroke="rgba(204, 78, 29, 1)" stroke-width="0.6"      fill="#CC4E1D" ></path><path d="M18.8016 7.60169L18.2633 7.19727L15.9994 10.0389L13.7356 7.19727L13.1973 7.60169L15.7297 10.7805L15.9994 10.5789L16.2692 10.7805L18.8016 7.60169Z" stroke="rgba(204, 78, 29, 1)" stroke-width="0.6"      fill="#CC4E1D" ></path><path d="M18.6307 3.8157C18.6113 3.81334 16.6525 3.5221 16.0194 3.5221C15.3875 3.5221 13.4286 3.81334 13.408 3.8157L13.3047 3.16366C13.3873 3.15187 15.3352 2.86182 16.0194 2.86182C16.7035 2.86182 18.6514 3.15069 18.734 3.16366L18.6307 3.8157Z" stroke="rgba(204, 78, 29, 1)" stroke-width="0.6"      fill="#CC4E1D" ></path><path d="M20.4345 10.0065L20.4345 10.0102C20.4529 10.0102 20.4707 10.0138 20.4891 10.0138C20.5074 10.0138 20.5254 10.0175 20.5436 10.0175C20.5619 10.0175 20.58 10.0247 20.5982 10.0247C20.6164 10.0247 20.6346 10.032 20.6527 10.032C20.6708 10.032 20.6893 10.0391 20.7073 10.0429C20.7252 10.0468 20.744 10.053 20.7618 10.0575C20.7796 10.062 20.7951 10.0669 20.8127 10.072C20.8303 10.0771 20.8498 10.0808 20.8673 10.0865C20.8847 10.0923 20.9009 10.0984 20.9182 10.1047C20.9354 10.1111 20.9521 10.1196 20.9691 10.1265C20.9861 10.1336 21.0033 10.1408 21.02 10.1484C21.0367 10.156 21.0545 10.162 21.0709 10.1702C21.0874 10.1784 21.102 10.1868 21.1182 10.1956C21.1343 10.2044 21.1497 10.2153 21.1654 10.2247C21.1813 10.2341 21.1973 10.2439 21.2127 10.2538C21.2282 10.2638 21.2449 10.2725 21.26 10.2829C21.3003 10.3108 21.339 10.3422 21.3763 10.3738C21.4138 10.4055 21.4513 10.4369 21.4854 10.472C21.5196 10.5071 21.5494 10.5429 21.58 10.5811C21.6106 10.6193 21.6405 10.6601 21.6673 10.7011C21.701 10.7522 21.7311 10.8062 21.7582 10.8611C21.7854 10.916 21.8106 10.9706 21.8309 11.0284C21.8639 11.1208 21.8859 11.2149 21.9 11.312C21.911 11.3846 21.9182 11.4604 21.9182 11.5338L21.9182 20.3775C21.9182 20.4024 21.9145 20.4253 21.9145 20.4502C21.9145 20.4876 21.9082 20.5258 21.9036 20.5629C21.899 20.6 21.8929 20.6353 21.8854 20.672C21.8781 20.7087 21.8701 20.7451 21.86 20.7811C21.8499 20.8171 21.84 20.8551 21.8273 20.8902C21.8147 20.9254 21.7989 20.9578 21.7836 20.992C21.7685 21.0261 21.7541 21.0609 21.7363 21.0938C21.7186 21.1268 21.6982 21.1605 21.6782 21.192C21.6581 21.2235 21.6387 21.2529 21.6163 21.2829C21.5568 21.3633 21.4871 21.4378 21.4127 21.5047C21.3873 21.5278 21.3633 21.5489 21.3363 21.5702C21.3094 21.5915 21.281 21.6126 21.2527 21.632C21.2244 21.6514 21.195 21.6691 21.1654 21.6865C21.1359 21.704 21.1052 21.7221 21.0745 21.7375C21.0438 21.753 21.0153 21.7642 20.9836 21.7775C20.952 21.7909 20.9179 21.8063 20.8854 21.8175C20.853 21.8286 20.8204 21.8377 20.7873 21.8465C20.7541 21.8556 20.7191 21.8617 20.6854 21.8684C20.5871 21.8879 20.4911 21.8975 20.3909 21.8975L13.0491 21.8975L13.0491 14.5156C13.0491 14.5075 13.0454 14.4982 13.0454 14.4902C13.0454 14.4821 13.0382 14.4723 13.0382 14.4647C13.0336 14.4532 13.0281 14.4451 13.02 14.4356C13.0133 14.4279 13.0063 14.4201 12.9982 14.4138C12.9899 14.4075 12.9786 14.4032 12.9691 14.3993C12.9595 14.3953 12.9502 14.3884 12.94 14.3884C12.9339 14.3884 12.928 14.3884 12.9218 14.3884L6.06726 14.3884L6.06362 14.3884C6.05126 14.3884 6.03896 14.3917 6.02726 14.3956C6.01773 14.3993 6.00675 14.4047 5.99816 14.4102L5.99453 14.4138L5.98362 14.4211L5.97998 14.4247L5.97635 14.4284L5.97271 14.4356C5.96464 14.4451 5.95915 14.4532 5.95453 14.4647C5.95086 14.4743 5.94362 14.4838 5.94362 14.4938C5.94362 14.4999 5.94362 14.5095 5.94362 14.5156L5.94362 21.8975L3.64544 21.8975C3.61108 21.8975 3.57789 21.8938 3.54362 21.8938C3.50935 21.8938 3.47584 21.8912 3.4418 21.8865C3.40776 21.8819 3.37363 21.8753 3.33998 21.8684C3.30633 21.8613 3.27127 21.852 3.23816 21.8429C3.20506 21.8337 3.17239 21.8252 3.13998 21.8138C3.10757 21.8024 3.07701 21.7873 3.04544 21.7738C3.01387 21.7603 2.98148 21.7458 2.95089 21.7302C2.9203 21.7145 2.88946 21.7006 2.85998 21.6829C2.8278 21.6637 2.79611 21.6426 2.76544 21.6211C2.73477 21.5996 2.70716 21.5757 2.67816 21.552C2.64917 21.5283 2.62168 21.5051 2.59453 21.4793C2.56738 21.4535 2.53969 21.4271 2.51453 21.3993C2.49879 21.382 2.48218 21.3627 2.46725 21.3447C2.45233 21.3267 2.4377 21.3088 2.42362 21.2902C2.40954 21.2715 2.39683 21.2513 2.38362 21.232C2.37041 21.2127 2.35956 21.1937 2.34725 21.1738C2.33495 21.154 2.32227 21.1361 2.31089 21.1156C2.29952 21.0952 2.28859 21.0747 2.27816 21.0538C2.26774 21.0329 2.25852 21.0097 2.24907 20.9884C2.23963 20.967 2.22843 20.9447 2.21998 20.9229C2.21153 20.9011 2.2056 20.8796 2.19816 20.8575C2.19073 20.8353 2.18275 20.8145 2.17635 20.792C2.16994 20.7695 2.16353 20.7457 2.15816 20.7229C2.1528 20.7001 2.14793 20.6768 2.14362 20.6538C2.13931 20.6308 2.13271 20.6079 2.13271 20.5847C2.13271 20.5616 2.12544 20.5389 2.12544 20.5156C2.12544 20.4924 2.11816 20.4699 2.11816 20.4465C2.11816 20.4232 2.11816 20.4008 2.11816 20.3775L2.11816 11.5338C2.11816 11.4964 2.1218 11.4584 2.1218 11.4211C2.1218 11.3838 2.13078 11.3454 2.13635 11.3084C2.14191 11.2714 2.14629 11.2358 2.15453 11.1993C2.16277 11.1628 2.17275 11.126 2.18362 11.0902C2.19643 11.0485 2.21094 11.0071 2.22725 10.9665C2.24357 10.9261 2.2621 10.8855 2.2818 10.8465C2.3015 10.8076 2.32431 10.771 2.34725 10.7338C2.3702 10.6967 2.39396 10.6598 2.41998 10.6247C2.45713 10.5746 2.49692 10.5281 2.53998 10.4829C2.58305 10.4378 2.62984 10.3951 2.67816 10.3556C2.70232 10.3359 2.72557 10.3157 2.75089 10.2975C2.77621 10.2792 2.80086 10.2632 2.82726 10.2465C2.85364 10.2299 2.88353 10.2143 2.91089 10.1993C2.93825 10.1843 2.96629 10.169 2.99453 10.1556C3.02276 10.1423 3.04917 10.1308 3.07816 10.1193C3.10716 10.1077 3.13579 10.0963 3.16544 10.0865C3.19509 10.0768 3.22615 10.0691 3.25635 10.0611C3.28654 10.0532 3.31663 10.0454 3.34725 10.0393C3.44549 10.0198 3.54529 10.0102 3.64544 10.0102L5.60544 10.0102L5.60538 9.06836L3.15829 9.06836C3.10898 9.06836 3.06149 9.06462 3.0127 9.05746C2.98425 9.05328 2.95332 9.04958 2.92534 9.04292C2.89736 9.03634 2.87275 9.02648 2.84544 9.01747C2.81813 9.00845 2.78805 8.99968 2.76163 8.98837C2.7352 8.97702 2.71062 8.96561 2.68528 8.95201C2.66539 8.94136 2.64653 8.9276 2.6274 8.91564C2.60827 8.90367 2.591 8.89252 2.57271 8.87928C2.55442 8.86608 2.53539 8.85372 2.51802 8.83929C2.50066 8.82492 2.4836 8.80754 2.46724 8.79201C2.45088 8.77645 2.43529 8.76136 2.42001 8.74474C2.40473 8.72812 2.39046 8.71142 2.37633 8.69382C2.3622 8.67626 2.34913 8.65778 2.3362 8.63927C2.32328 8.6208 2.31164 8.60044 2.29998 8.5811C2.26629 8.5247 2.23505 8.46831 2.21262 8.40656C2.20296 8.37954 2.19475 8.35065 2.18741 8.32291C2.18007 8.29516 2.1739 8.26753 2.16895 8.23928C2.16399 8.21106 2.15829 8.18423 2.15829 8.15565C2.15829 8.12707 2.15439 8.09705 2.15439 8.06836L2.15439 3.82837C2.15439 3.7997 2.15829 3.7733 2.15829 3.74474C2.15829 3.71618 2.16398 3.68571 2.16895 3.65747C2.1739 3.62923 2.18004 3.60152 2.18741 3.57382C2.19478 3.54612 2.2029 3.5208 2.21262 3.49383C2.22517 3.45911 2.24004 3.42515 2.2563 3.392C2.27257 3.35886 2.2912 3.325 2.31099 3.29383C2.33079 3.26267 2.35325 3.23174 2.37633 3.20293C2.39942 3.17411 2.42303 3.14903 2.44913 3.12291C2.46077 3.11134 2.47316 3.09755 2.48535 3.08656C2.49754 3.07556 2.50922 3.06785 2.52193 3.05746C2.53464 3.04707 2.5485 3.03448 2.5617 3.02472C2.5749 3.01497 2.58817 3.00837 2.60183 2.99927C2.61549 2.99017 2.62787 2.97862 2.64196 2.97019C2.65604 2.96177 2.6708 2.9561 2.68528 2.94838C2.69976 2.94065 2.71412 2.93357 2.72896 2.92656C2.7438 2.91955 2.76103 2.91102 2.77619 2.90474C2.79135 2.89846 2.80441 2.89207 2.81987 2.88654C2.83532 2.88101 2.85139 2.87678 2.8671 2.872C2.8828 2.86723 2.89876 2.86147 2.91468 2.85747C2.9306 2.85347 2.94582 2.84655 2.96191 2.84655C2.97801 2.84655 2.99646 2.83929 3.0127 2.83929C3.02893 2.83929 3.04359 2.83201 3.05993 2.83201C3.07626 2.83201 3.09467 2.82837 3.11106 2.82837C3.12745 2.82837 3.14188 2.82837 3.15829 2.82837L9.00559 2.82837C9.03432 2.82837 9.06039 2.83201 9.08904 2.83201C9.1177 2.83201 9.14811 2.83797 9.1764 2.84291C9.20477 2.84784 9.23204 2.85377 9.25985 2.86111C9.28764 2.86844 9.31661 2.87687 9.34366 2.88654C9.36301 2.89342 9.37912 2.9003 9.39799 2.90836C9.41687 2.91642 9.43787 2.92461 9.45623 2.93382C9.47456 2.94302 9.49317 2.95624 9.51092 2.96655C9.52863 2.97687 9.54461 2.98426 9.5617 2.99565C9.57876 3.00704 9.59651 3.01959 9.61284 3.032C9.62916 3.04442 9.64454 3.0586 9.66007 3.072C9.67563 3.0854 9.68906 3.09769 9.70375 3.11202C9.71844 3.12634 9.73364 3.14407 9.74743 3.15927C9.77517 3.18955 9.80003 3.22029 9.82377 3.25382C9.84748 3.28735 9.86981 3.32305 9.88912 3.35929C9.90839 3.39548 9.9251 3.43014 9.9399 3.46837C9.9547 3.50662 9.96636 3.54864 9.97647 3.58838C9.9864 3.62812 9.9966 3.66771 10.0017 3.70836C10.0068 3.74901 10.0091 3.78741 10.0091 3.82837L10.0091 8.06836C10.0091 8.10116 10.0017 8.13397 10.0017 8.16655C10.0017 8.18084 9.99814 8.19596 9.99814 8.21018C9.99814 8.22436 9.99103 8.2361 9.99103 8.25018C9.99103 8.26429 9.98358 8.27987 9.98358 8.29383C9.98358 8.3078 9.97639 8.32005 9.97257 8.33383C9.96871 8.34765 9.96244 8.36383 9.95801 8.37746C9.95357 8.3911 9.94847 8.404 9.94345 8.41746C9.93843 8.43091 9.93484 8.44425 9.92924 8.45745C9.92364 8.47065 9.91692 8.48452 9.91078 8.49747C9.90463 8.51045 9.89939 8.52113 9.89267 8.53382C9.88598 8.54651 9.87824 8.56142 9.87101 8.57382C9.86373 8.58618 9.85677 8.59816 9.84899 8.6102C9.84121 8.62227 9.83207 8.63488 9.82377 8.64655C9.81548 8.6583 9.80701 8.66798 9.79821 8.67929C9.78944 8.69063 9.78191 8.70106 9.77264 8.712C9.76337 8.72295 9.75326 8.73419 9.74352 8.74474C9.73381 8.75532 9.72455 8.76735 9.7144 8.77745C9.67956 8.81236 9.64147 8.84262 9.60183 8.872C9.56219 8.90135 9.52178 8.92889 9.47825 8.95201C9.43465 8.97514 9.3901 8.99357 9.34366 9.01019C9.29722 9.02677 9.25033 9.04044 9.20197 9.05018C9.13739 9.06342 9.07152 9.06836 9.00559 9.06836L6.5617 9.06836L6.5618 10.0102L17.34 10.0102L17.34 10.0065L18.2963 10.0065L18.2963 10.0102L19.4782 10.0102L19.4782 10.0065L20.4345 10.0065ZM3.11106 8.06836L3.11106 8.07564L3.11461 8.08292L3.11461 8.09018L3.11816 8.09382L3.12172 8.1011L3.12917 8.10474L3.13272 8.10838L3.13983 8.11201C3.14564 8.11201 3.15198 8.11563 3.15829 8.11563L9.00559 8.11563C9.01032 8.11563 9.01561 8.11563 9.02015 8.11563C9.0247 8.11563 9.02688 8.10838 9.03081 8.10838L9.03826 8.1011C9.04266 8.09662 9.04892 8.09238 9.04892 8.08656L9.05282 8.07928L9.05282 8.06836L9.05282 3.82837C9.05282 3.82207 9.04892 3.81602 9.04892 3.81019L9.04537 3.80291L9.03826 3.79563L9.03081 3.78837L9.0237 3.78473C9.01781 3.78473 9.01196 3.78109 9.00559 3.78109L2.43102 3.78109C2.42306 3.78109 3.14334 3.78471 3.13627 3.78837C3.13213 3.78837 3.12527 3.79563 3.12527 3.79563C3.12086 3.80015 3.11461 3.80439 3.11461 3.81019C3.11461 3.81599 3.11106 3.82204 3.11106 3.82837L3.11106 8.06836ZM20.9509 20.4865C20.958 20.4499 20.9618 20.4148 20.9618 20.3775L20.9618 11.5338C20.9618 11.5245 20.9582 11.514 20.9582 11.5047C20.9582 11.4674 20.9524 11.432 20.9436 11.3956C20.9436 11.3821 20.9371 11.3653 20.9327 11.352C20.9283 11.3387 20.9235 11.3285 20.9182 11.3156C20.9128 11.3027 20.9063 11.2881 20.9 11.2756C20.8937 11.2632 20.8854 11.2513 20.8782 11.2393C20.871 11.2273 20.8645 11.2143 20.8563 11.2029C20.8482 11.1915 20.8398 11.1809 20.8309 11.1702C20.822 11.1594 20.8115 11.1512 20.8018 11.1411C20.7921 11.131 20.7831 11.1214 20.7727 11.112C20.7378 11.0807 20.7011 11.0543 20.66 11.032C20.6394 11.0209 20.6163 11.0113 20.5945 11.0029C20.5727 10.9945 20.5518 10.9868 20.5291 10.9811C20.5064 10.9754 20.4832 10.9665 20.46 10.9665C20.4368 10.9665 20.4142 10.9629 20.3909 10.9629L3.64544 10.9629C3.63903 10.9629 3.63366 10.9629 3.62725 10.9629C3.62085 10.9629 3.61183 10.9629 3.60544 10.9629C3.59904 10.9629 3.59363 10.9665 3.58726 10.9665C3.58088 10.9665 3.57543 10.9665 3.56907 10.9665C3.56272 10.9665 3.55721 10.9702 3.55089 10.9702C3.54457 10.9702 3.53535 10.9738 3.52907 10.9738C3.52279 10.9738 3.51712 10.9775 3.51089 10.9775C3.50466 10.9775 3.49889 10.9847 3.49271 10.9847C3.48653 10.9847 3.48065 10.9884 3.47453 10.9884C3.46841 10.9884 3.4624 10.9956 3.45635 10.9956C3.45029 10.9956 3.44414 11.0029 3.43816 11.0029C3.43219 11.0029 3.42588 11.0102 3.41998 11.0102C3.41409 11.0102 3.4076 11.0175 3.4018 11.0175C3.39599 11.0175 3.39297 11.0247 3.38725 11.0247C3.38155 11.0247 3.37468 11.0356 3.36907 11.0356C3.36346 11.0356 3.35639 11.0429 3.35089 11.0429C3.34539 11.0429 3.34173 11.0538 3.33635 11.0538C3.33096 11.0538 3.32707 11.0611 3.3218 11.0647C3.31653 11.0684 3.30876 11.0718 3.30362 11.0756C3.29847 11.0795 3.29408 11.0826 3.28907 11.0865C3.28406 11.0906 3.2794 11.0969 3.27453 11.1011C3.26965 11.1053 3.26471 11.1076 3.25998 11.112C3.25525 11.1163 3.25002 11.1221 3.24544 11.1265C3.24085 11.131 3.23532 11.1365 3.23089 11.1411C3.22646 11.1457 3.22426 11.1509 3.21998 11.1556C3.21571 11.1604 3.20955 11.1653 3.20544 11.1702C3.20133 11.1751 3.19847 11.1797 3.19453 11.1847C3.19059 11.1898 3.18739 11.1941 3.18362 11.1993C3.17985 11.2044 3.17271 11.2085 3.17271 11.2138C3.17271 11.2191 3.1618 11.2265 3.1618 11.232C3.1618 11.2374 3.15089 11.241 3.15089 11.2465C3.15089 11.2521 3.14362 11.2591 3.14362 11.2647C3.12607 11.2978 3.11121 11.3308 3.09998 11.3665C3.09196 11.3934 3.0859 11.4225 3.0818 11.4502C3.07771 11.4779 3.07453 11.5058 3.07453 11.5338L3.07453 20.3775C3.07453 20.4147 3.07821 20.45 3.08544 20.4865C3.09103 20.514 3.09779 20.5402 3.10725 20.5665C3.11672 20.5929 3.13048 20.6181 3.14362 20.6429C3.15901 20.6718 3.17433 20.7008 3.19453 20.7265C3.21473 20.7523 3.23923 20.7775 3.26362 20.7993C3.29832 20.8308 3.33485 20.8575 3.37635 20.8793C3.40112 20.8924 3.42633 20.9025 3.45271 20.912C3.47909 20.9215 3.50525 20.9281 3.53271 20.9338C3.56957 20.9409 3.6079 20.9447 3.64544 20.9447L4.98726 20.9447L4.98726 14.5156C4.98726 14.498 4.98726 14.4787 4.98726 14.4611C4.98726 14.3903 5.00248 14.3188 5.01998 14.2502C5.02758 14.2202 5.03531 14.1921 5.04544 14.1629C5.05556 14.1337 5.06925 14.1039 5.0818 14.0756C5.09435 14.0474 5.10688 14.0227 5.1218 13.9956C5.13671 13.9685 5.15191 13.9414 5.16907 13.9156C5.18882 13.8863 5.21203 13.8557 5.23453 13.8284C5.25704 13.8011 5.27858 13.777 5.30362 13.752C5.32866 13.7271 5.35627 13.7017 5.38362 13.6793C5.41096 13.6568 5.43786 13.6371 5.46725 13.6175C5.49675 13.5979 5.5269 13.5796 5.55816 13.5629C5.58942 13.5463 5.62363 13.5328 5.65635 13.5193C5.68906 13.5057 5.72067 13.4932 5.75453 13.4829C5.78842 13.4726 5.82162 13.4644 5.85635 13.4575C5.92602 13.4438 5.99624 13.4356 6.06726 13.4356L12.9218 13.4356C12.9661 13.4356 13.0124 13.4375 13.0563 13.4429C13.1003 13.4483 13.1407 13.4576 13.1836 13.4684C13.2266 13.4792 13.2696 13.4924 13.3109 13.5084C13.3522 13.5243 13.3918 13.5421 13.4309 13.5629C13.4543 13.5754 13.4775 13.5887 13.5 13.6029C13.5223 13.6171 13.5441 13.6308 13.5654 13.6465C13.5867 13.6623 13.6071 13.6802 13.6273 13.6975C13.6474 13.7148 13.6666 13.7333 13.6854 13.752C13.7042 13.7707 13.7226 13.7901 13.74 13.8102C13.7574 13.8302 13.775 13.8508 13.7909 13.872C13.8067 13.8933 13.8203 13.9151 13.8345 13.9375C13.8488 13.9598 13.862 13.9832 13.8745 14.0065C13.885 14.026 13.898 14.0447 13.9073 14.0647C13.9165 14.0848 13.9247 14.106 13.9327 14.1265C13.9407 14.1471 13.9478 14.1673 13.9545 14.1884C13.9612 14.2094 13.9673 14.2288 13.9727 14.2502C13.9781 14.2716 13.9831 14.294 13.9873 14.3156C13.9913 14.3373 13.9945 14.3592 13.9945 14.3811C13.9945 14.403 14.0018 14.4245 14.0018 14.4465C14.0018 14.4686 14.0054 14.4936 14.0054 14.5156L14.0054 20.9447L20.3909 20.9447C20.4095 20.9447 20.4269 20.9411 20.4454 20.9411C20.4922 20.9367 20.5358 20.928 20.58 20.912C20.6063 20.9023 20.6351 20.8924 20.66 20.8793C20.6806 20.8683 20.6991 20.8527 20.7182 20.8393C20.7373 20.8258 20.7554 20.8113 20.7727 20.7956C20.79 20.78 20.8047 20.766 20.82 20.7484C20.8353 20.7308 20.8506 20.7132 20.8636 20.6938C20.8898 20.6551 20.9098 20.6107 20.9254 20.5665C20.9349 20.5402 20.9451 20.5139 20.9509 20.4865Z" stroke="rgba(3, 79, 161, 1)" stroke-width="0.4"    fill-rule="evenodd"  fill="#034FA1" ></path><path d="M7.19713 5.42947L6.53463 5.42947L6.53463 4.76779C6.53461 4.75707 6.53424 4.74635 6.5335 4.73564C6.53275 4.72492 6.53165 4.71425 6.5302 4.70362C6.52875 4.69299 6.52694 4.68242 6.52479 4.6719C6.5226 4.6614 6.5201 4.65097 6.51723 4.64062C6.51437 4.63028 6.51117 4.62004 6.50763 4.60992C6.50407 4.59979 6.50017 4.58979 6.49596 4.57993C6.49174 4.57006 6.48719 4.56034 6.48231 4.55077C6.47744 4.54121 6.47225 4.53183 6.46676 4.52262C6.45771 4.50752 6.44783 4.49297 6.43715 4.47897C6.42647 4.46497 6.41505 4.45161 6.40286 4.43889C6.39069 4.42616 6.37785 4.41416 6.36434 4.40288C6.35082 4.39159 6.33672 4.38109 6.32203 4.37138C6.30255 4.35825 6.28218 4.34667 6.26091 4.33666C6.23966 4.32664 6.21777 4.31831 6.19523 4.31165C6.17272 4.30493 6.14984 4.29985 6.1266 4.29639C6.10336 4.29293 6.07999 4.29114 6.05648 4.29102C6.05062 4.29102 6.04477 4.29114 6.03892 4.29137C6.03306 4.29159 6.02721 4.29192 6.02136 4.29236C6.01553 4.2928 6.0097 4.29334 6.00386 4.29399C5.99804 4.29464 5.99224 4.2954 5.98644 4.29627C5.98065 4.29713 5.97487 4.2981 5.9691 4.29918C5.96335 4.30025 5.95761 4.30143 5.95188 4.30272C5.94617 4.30401 5.94048 4.3054 5.93482 4.30689C5.92914 4.30839 5.9235 4.30999 5.91789 4.31169C5.9123 4.31339 5.90673 4.31519 5.90119 4.3171C5.89565 4.319 5.89014 4.32101 5.88466 4.32312C5.8792 4.32523 5.87377 4.32743 5.86838 4.32974C5.863 4.33205 5.85765 4.33445 5.85235 4.33695C5.84706 4.33945 5.84181 4.34205 5.8366 4.34475C5.8314 4.34744 5.82625 4.35023 5.82115 4.35311C5.81604 4.356 5.811 4.35897 5.80601 4.36204C5.80102 4.36511 5.79608 4.36827 5.7912 4.37152C5.78632 4.37477 5.78151 4.3781 5.77676 4.38153C5.772 4.38495 5.76731 4.38847 5.76268 4.39206C5.75806 4.39566 5.75349 4.39934 5.749 4.40311C5.74452 4.40687 5.7401 4.41072 5.73575 4.41464C5.73141 4.41857 5.72712 4.42257 5.72291 4.42666C5.71871 4.43074 5.71458 4.4349 5.71054 4.43913C5.70648 4.44337 5.70251 4.44768 5.69863 4.45206C5.69473 4.45644 5.69092 4.46089 5.68719 4.4654C5.68345 4.46992 5.67981 4.47451 5.67626 4.47916C5.67269 4.48382 5.66921 4.48853 5.66581 4.49331C5.66243 4.49809 5.65914 4.50293 5.65593 4.50784C5.65271 4.51274 5.64959 4.5177 5.64656 4.52271C5.64353 4.52773 5.64059 4.5328 5.63776 4.53793C5.63491 4.54304 5.63216 4.54821 5.6295 4.55344C5.62685 4.55866 5.62429 4.56393 5.62183 4.56925C5.61936 4.57458 5.61699 4.57994 5.61473 4.58534C5.60301 4.6144 5.59396 4.64427 5.58758 4.67494C5.58322 4.69793 5.58032 4.7211 5.57889 4.74445C5.57852 4.75223 5.57834 4.76001 5.57835 4.76779L5.57835 5.42947L4.91477 5.42947C4.90009 5.4295 4.88545 5.43019 4.87084 5.43156C4.85623 5.43293 4.84171 5.43495 4.82729 5.43765C4.81286 5.44034 4.79859 5.44368 4.78447 5.44767C4.77035 5.45167 4.75645 5.4563 4.74275 5.46157C4.72906 5.46683 4.71563 5.47271 4.70248 5.47921C4.68931 5.4857 4.67648 5.49279 4.66398 5.50047C4.65147 5.50813 4.63933 5.51635 4.62757 5.52513C4.61581 5.5339 4.60447 5.5432 4.59356 5.55303C4.56422 5.57922 4.5387 5.60873 4.517 5.64154C4.50716 5.65611 4.49818 5.67119 4.49005 5.68676C4.48191 5.70235 4.47468 5.71835 4.46836 5.73475C4.46203 5.75115 4.45665 5.76785 4.45221 5.78486C4.44777 5.80187 4.4443 5.81908 4.44179 5.83649C4.44052 5.84494 4.43948 5.85343 4.43867 5.86194C4.43786 5.87045 4.43728 5.87898 4.43694 5.88753C4.43658 5.89609 4.43645 5.90464 4.43656 5.91319C4.43668 5.92174 4.43702 5.93028 4.43759 5.93882C4.43816 5.94735 4.43896 5.95586 4.43998 5.96436C4.44101 5.97284 4.44227 5.9813 4.44376 5.98973C4.44524 5.99815 4.44695 6.00653 4.44889 6.01487C4.45082 6.02319 4.45298 6.03147 4.45535 6.03969C4.45774 6.04789 4.46034 6.05603 4.46317 6.06411C4.46599 6.07218 4.46903 6.08017 4.47228 6.08809C4.47552 6.096 4.47898 6.10382 4.48266 6.11155C4.48633 6.11927 4.49021 6.12689 4.49429 6.1344C4.49837 6.14192 4.50266 6.14932 4.50714 6.15662C4.51162 6.1639 4.51629 6.17105 4.52116 6.17809C4.52602 6.18512 4.53108 6.19201 4.53633 6.19878C4.54157 6.20554 4.54698 6.21215 4.55258 6.21862C4.55817 6.22509 4.56394 6.23141 4.56988 6.23757C4.5758 6.24373 4.5819 6.24972 4.58815 6.25555C4.59441 6.26138 4.60083 6.26704 4.6074 6.27251C4.61397 6.278 4.62067 6.28331 4.62751 6.28844C4.63436 6.29355 4.64135 6.29848 4.64847 6.30324C4.65558 6.30799 4.66281 6.31254 4.67018 6.3169C4.67754 6.32125 4.68501 6.32541 4.6926 6.32937C4.70018 6.33333 4.70786 6.33706 4.71564 6.3406C4.72344 6.34414 4.73131 6.34746 4.73927 6.35059C4.74724 6.35371 4.75529 6.35661 4.76341 6.3593C4.77153 6.36198 4.77971 6.36443 4.78797 6.36667C4.79623 6.36892 4.80454 6.37093 4.81291 6.37272C4.82126 6.37453 4.82967 6.3761 4.83812 6.37743C4.84657 6.37877 4.85505 6.37988 4.86356 6.38077C4.87206 6.38165 4.88058 6.38231 4.88913 6.38272C4.89767 6.38314 4.90622 6.38334 4.91477 6.38332L5.57835 6.38332L5.57835 7.045C5.57838 7.05671 5.57884 7.0684 5.57973 7.08008C5.58062 7.09175 5.58193 7.10338 5.58366 7.11498C5.5854 7.12657 5.58756 7.13807 5.59015 7.14948C5.59273 7.16092 5.59573 7.17223 5.59914 7.18345C5.60254 7.19464 5.60635 7.20572 5.61057 7.21664C5.6148 7.22756 5.61941 7.23831 5.62441 7.24891C5.62942 7.25951 5.63482 7.26989 5.6406 7.28008C5.64637 7.29028 5.6525 7.30024 5.65899 7.30998C5.66765 7.32301 5.67695 7.33556 5.68687 7.34765C5.69679 7.35974 5.70729 7.37129 5.71837 7.38233C5.72945 7.39337 5.74104 7.40381 5.75318 7.41369C5.76531 7.42356 5.7779 7.4328 5.79096 7.44141C5.81057 7.45432 5.83099 7.46575 5.85223 7.47576C5.87347 7.48576 5.89531 7.49423 5.91776 7.50113C5.95535 7.51229 5.99373 7.51899 6.03288 7.52124C6.04558 7.52181 6.05828 7.52191 6.07098 7.5215C6.08369 7.52108 6.09637 7.52016 6.109 7.51875C6.12164 7.51734 6.1342 7.51541 6.14669 7.513C6.15918 7.5106 6.17155 7.50771 6.18379 7.50431C6.19606 7.50093 6.20816 7.49708 6.22011 7.49274C6.23207 7.4884 6.24383 7.48359 6.25541 7.47832C6.26698 7.47305 6.27833 7.46735 6.28945 7.46118C6.30058 7.45502 6.31143 7.44843 6.32203 7.44141C6.34173 7.42859 6.3602 7.41421 6.37743 7.39824C6.40675 7.37213 6.43228 7.3427 6.45399 7.30998C6.46917 7.28715 6.48231 7.26321 6.49345 7.23813C6.50457 7.21306 6.51349 7.18725 6.52024 7.16066C6.52978 7.12269 6.53457 7.08414 6.53463 7.045L6.53463 6.38332L7.19767 6.38332C7.22913 6.3835 7.26025 6.38042 7.29107 6.37407C7.32178 6.36781 7.35165 6.35876 7.38068 6.34693C7.40051 6.33863 7.41972 6.32907 7.43829 6.31823C7.45684 6.30739 7.4746 6.29536 7.49159 6.28216C7.50855 6.26896 7.52456 6.25468 7.53963 6.23934C7.55471 6.22401 7.56869 6.20774 7.58159 6.19054C7.59587 6.17176 7.60856 6.15194 7.61961 6.13108C7.63081 6.11047 7.64038 6.08912 7.64829 6.06705C7.65621 6.04497 7.66239 6.02242 7.66684 5.9994C7.6679 5.99413 7.66887 5.98885 7.66975 5.98355C7.67062 5.97826 7.6714 5.97295 7.67209 5.96762C7.67279 5.9623 7.67341 5.95697 7.67392 5.95163C7.67444 5.94628 7.67486 5.94094 7.6752 5.93558C7.67552 5.93022 7.67575 5.92486 7.67591 5.91949C7.67607 5.91412 7.67613 5.90875 7.67609 5.90338C7.67605 5.89801 7.67593 5.89265 7.67573 5.8873C7.67552 5.88193 7.67522 5.87656 7.67484 5.87121C7.67444 5.86586 7.67394 5.86052 7.67337 5.85518C7.67279 5.84984 7.67213 5.84451 7.67138 5.83921C7.67062 5.8339 7.66977 5.82859 7.66885 5.8233C7.6679 5.81801 7.66688 5.81274 7.66577 5.80749C7.66466 5.80224 7.66344 5.79701 7.66217 5.7918C7.66086 5.78659 7.65949 5.78141 7.65803 5.77625C7.65656 5.77108 7.65501 5.76594 7.65336 5.76084C7.65173 5.75572 7.65 5.75064 7.64819 5.74559C7.64636 5.74053 7.64447 5.73552 7.6425 5.73053C7.64052 5.72553 7.63845 5.72057 7.6363 5.71566C7.63413 5.71074 7.6319 5.70586 7.6296 5.70102C7.62727 5.69618 7.62486 5.69138 7.6224 5.68662C7.61991 5.68186 7.61737 5.67714 7.61472 5.67246C7.61208 5.66778 7.60935 5.66316 7.60657 5.65858C7.60377 5.654 7.6009 5.64946 7.59796 5.64498C7.595 5.6405 7.59197 5.63607 7.58887 5.63168C7.58577 5.62729 7.58261 5.62296 7.57936 5.61869C7.5761 5.61442 7.5728 5.61021 7.5694 5.60604C7.566 5.60188 7.56254 5.59777 7.55902 5.59371C7.55548 5.58967 7.5519 5.58569 7.54824 5.58176C7.54456 5.57784 7.54082 5.57398 7.53705 5.57019C7.53325 5.5664 7.52939 5.56266 7.52547 5.55899C7.52155 5.55533 7.51758 5.55173 7.51354 5.54819C7.50948 5.54467 7.50539 5.54121 7.50123 5.53781C7.4929 5.53097 7.48435 5.52442 7.4756 5.51817C7.46681 5.51191 7.45786 5.50595 7.44869 5.50029C7.4395 5.49464 7.43016 5.48931 7.42061 5.4843C7.41107 5.47929 7.40138 5.47461 7.39154 5.47026C7.38167 5.4659 7.37169 5.46188 7.36157 5.45821C7.35143 5.45454 7.34119 5.45121 7.33084 5.44823C7.32048 5.44526 7.31004 5.44264 7.29952 5.44037C7.28898 5.43809 7.27838 5.43618 7.26772 5.43464C7.2445 5.4312 7.22113 5.42947 7.19767 5.42947L7.19713 5.42947Z"   fill="#034FA1" ></path></svg>