<svg xmlns="http://www.w3.org/2000/svg" xmlns:xlink="http://www.w3.org/1999/xlink" width="24" height="24" viewBox="0 0 24 24" fill="none"><path   fill="rgba(3, 79, 161, 1)"  d="M5.63627 1.66377L18.7272 1.66377C20.5196 1.66377 21.9726 3.11681 21.9726 4.90922L21.9726 19.4547C21.9726 21.2471 20.5196 22.7001 18.7272 22.7001L5.63627 22.7001C3.84386 22.7001 2.39082 21.2471 2.39082 19.4547L2.39082 4.90922C2.39082 3.11681 3.84386 1.66377 5.63627 1.66377ZM5.63627 3.06377C4.61706 3.06377 3.79082 3.89001 3.79082 4.90922L3.79082 19.4547C3.79082 20.4739 4.61706 21.3001 5.63627 21.3001L18.7272 21.3001C19.7464 21.3001 20.5726 20.4739 20.5726 19.4547L20.5726 4.90922C20.5726 3.89001 19.7464 3.06377 18.7272 3.06377L5.63627 3.06377Z"></path><path d="M9.9777 7.00005C9.9777 7.00005 10.2979 6.80005 10.4577 6.80005C10.6575 6.80005 10.8178 6.88018 10.9377 7.00005C11.2174 7.27975 11.2174 7.71671 10.9377 7.99641L8.5777 10.3564C8.45783 10.4763 8.26117 10.5564 8.10134 10.5564C7.94151 10.5564 7.74121 10.4763 7.62134 10.3564L6.06134 8.79641C5.78164 8.51671 5.78164 8.07612 6.06134 7.79641C6.18121 7.67654 6.38151 7.59641 6.54134 7.59641C6.70117 7.59641 6.90147 7.67654 7.02134 7.79641L8.10134 8.87641L9.9777 7.00005ZM6.02148 15.3237C6.02148 14.125 6.98273 13.1637 8.18146 13.1637C9.38019 13.1637 10.3377 14.125 10.3377 15.3237C10.3377 16.5224 9.38019 17.48 8.18146 17.48C6.98273 17.48 6.02148 16.5224 6.02148 15.3237ZM7.42134 15.3237C7.42134 15.7233 7.74193 16.0801 8.18146 16.0801C8.621 16.0801 8.97781 15.7632 8.93785 15.3237C8.93785 14.9241 8.58104 14.5637 8.18146 14.5637C7.78189 14.5637 7.42134 14.8842 7.42134 15.3237Z" stroke="rgba(204, 78, 29, 1)" stroke-width="0.2"    fill-rule="evenodd"  fill="#CC4E1D" ></path><path d="M13.3743 7.9563L18.4043 7.9563C18.764 7.9563 19.0843 8.23672 19.0843 8.6363L19.0843 8.6763C19.0843 9.03592 18.764 9.3563 18.4043 9.3563L13.3743 9.3563C13.0147 9.3563 12.6943 9.03592 12.6943 8.6763L12.6943 8.6363C12.6943 8.27668 13.0147 7.9563 13.3743 7.9563ZM13.3743 14.5263L18.4043 14.5263C18.764 14.5263 19.0843 14.8067 19.0843 15.2063L19.0843 15.2463C19.0843 15.6059 18.764 15.9163 18.4043 15.9163L13.3743 15.9163C13.0147 15.9163 12.6943 15.6059 12.6943 15.2463L12.6943 15.2063C12.6943 14.8467 13.0147 14.5263 13.3743 14.5263Z" stroke="rgba(3, 79, 161, 1)" stroke-width="0.2"    fill-rule="evenodd"  fill="#034FA1" ></path></svg>