<svg xmlns="http://www.w3.org/2000/svg" xmlns:xlink="http://www.w3.org/1999/xlink" width="24" height="24" viewBox="0 0 24 24" fill="none"><path d="M21.0843 12.0331C21.0693 12.0331 21.0511 12.0299 21.0361 12.0299C21.0211 12.0299 21.0093 12.0299 20.9943 12.0299C20.9794 12.0299 20.9642 12.0235 20.9494 12.0235C20.9345 12.0235 20.9191 12.0138 20.9044 12.0138C20.8897 12.0138 20.874 12.0079 20.8594 12.0042C20.8449 12.0006 20.832 11.9989 20.8176 11.9946C20.8033 11.9902 20.79 11.9836 20.7759 11.9785C20.7618 11.9734 20.7448 11.9682 20.7309 11.9624C20.717 11.9567 20.7059 11.9496 20.6923 11.9432C20.6788 11.9367 20.6638 11.931 20.6506 11.9239C20.6373 11.9168 20.6249 11.9091 20.612 11.9014C20.5992 11.8937 20.5859 11.8872 20.5735 11.8789C20.561 11.8706 20.547 11.8621 20.5349 11.8532C20.5229 11.8443 20.5144 11.8338 20.5028 11.8243C20.4912 11.8148 20.4785 11.8055 20.4674 11.7954C20.4563 11.7853 20.4459 11.7739 20.4353 11.7632C20.4247 11.7526 20.4132 11.7422 20.4032 11.7311C20.3931 11.72 20.3838 11.7106 20.3743 11.699C20.3648 11.6874 20.3543 11.6725 20.3453 11.6604C20.3364 11.6484 20.328 11.6376 20.3196 11.6251C20.3113 11.6126 20.3049 11.5994 20.2972 11.5865C20.2894 11.5737 20.2817 11.5612 20.2747 11.548C20.2676 11.5348 20.2586 11.523 20.2522 11.5094C20.2458 11.4959 20.2418 11.4815 20.2361 11.4677C20.2304 11.4538 20.2251 11.44 20.22 11.4259C20.215 11.4118 20.2083 11.3953 20.204 11.3809C20.1996 11.3666 20.198 11.3537 20.1943 11.3391C20.1907 11.3246 20.1847 11.3089 20.1847 11.2942C20.1847 11.2795 20.1751 11.2673 20.1751 11.2524C20.1751 11.2376 20.1719 11.2224 20.1719 11.2074C20.1719 11.1925 20.1654 11.1742 20.1654 11.1592C20.1654 11.1442 20.1654 11.1325 20.1654 11.1175L20.1654 5.25724C20.1654 5.24388 20.159 5.23196 20.159 5.21869C20.159 5.20544 20.1526 5.19327 20.1526 5.18014C20.1526 5.16701 20.1434 5.15134 20.1397 5.13837C20.136 5.12542 20.1344 5.1126 20.1301 5.09981C20.1258 5.08705 20.1189 5.07382 20.114 5.06126C20.1091 5.0487 20.1067 5.03825 20.1012 5.02592C20.0956 5.01361 20.088 4.9994 20.0819 4.98737C20.0758 4.97533 20.0693 4.96376 20.0626 4.95202C20.0559 4.94029 20.0506 4.92808 20.0433 4.91668C20.0361 4.90529 20.0286 4.89562 20.0208 4.88455C20.0131 4.87351 20.0034 4.86309 19.9951 4.85243C19.9869 4.84176 19.9782 4.83056 19.9694 4.8203C19.9607 4.81003 19.953 4.80122 19.9437 4.79138C19.9345 4.78154 19.9245 4.77185 19.9148 4.76247C19.9051 4.75307 19.896 4.74246 19.8859 4.73355C19.8758 4.72463 19.8643 4.71628 19.8538 4.70785C19.8432 4.69943 19.8326 4.69006 19.8217 4.68215C19.8107 4.67422 19.8008 4.67025 19.7895 4.66287C19.7782 4.65547 19.7658 4.64722 19.7542 4.64038C19.7426 4.63352 19.7308 4.62738 19.7188 4.6211C19.7069 4.61481 19.6957 4.60754 19.6835 4.60182C19.6713 4.59611 19.6574 4.59089 19.6449 4.58576C19.6325 4.58064 19.6223 4.57423 19.6096 4.5697C19.5969 4.56518 19.584 4.56077 19.5711 4.55685C19.5581 4.55292 19.5456 4.55051 19.5325 4.54721C19.5194 4.54389 19.504 4.53757 19.4907 4.53757C19.4775 4.53757 19.4655 4.53114 19.4522 4.53114C19.4389 4.53114 19.4238 4.52793 19.4104 4.52793C19.397 4.52793 19.3853 4.5215 19.3719 4.5215C19.3584 4.5215 19.3436 4.5215 19.3301 4.5215C19.3166 4.5215 19.305 4.5215 19.2915 4.5215C19.2781 4.5215 19.2632 4.52472 19.2498 4.52472L18.2795 4.52472C18.2646 4.52472 18.2494 4.5215 18.2345 4.5215C18.2196 4.5215 18.2044 4.51829 18.1895 4.51829C18.1747 4.51829 18.1593 4.51187 18.1445 4.51187C18.1298 4.51187 18.1142 4.50544 18.0996 4.50544C18.0849 4.50544 18.069 4.49951 18.0546 4.4958C18.0401 4.49209 18.0271 4.48738 18.0128 4.48295C17.9986 4.47853 17.9851 4.4752 17.9711 4.4701C17.957 4.465 17.9431 4.45983 17.9293 4.45403C17.9155 4.44824 17.901 4.44122 17.8875 4.43476C17.874 4.42831 17.8621 4.41937 17.849 4.41227C17.8358 4.40516 17.8232 4.40072 17.8104 4.39299C17.7976 4.38524 17.7843 4.37563 17.7719 4.36729C17.7595 4.35893 17.7485 4.35054 17.7365 4.34159C17.7246 4.33265 17.7127 4.32219 17.7012 4.31267C17.6897 4.30315 17.6769 4.29382 17.6658 4.28375C17.6548 4.27367 17.6442 4.26543 17.6337 4.25484C17.6232 4.24424 17.6148 4.2338 17.6048 4.22271C17.5948 4.2116 17.5821 4.19893 17.5727 4.18737C17.5632 4.17579 17.5558 4.16405 17.547 4.15203C17.5381 4.14002 17.5295 4.12914 17.5213 4.11669C17.513 4.10425 17.5064 4.09095 17.4988 4.07813C17.4911 4.0653 17.4833 4.05276 17.4763 4.03958C17.4693 4.02639 17.4633 4.01133 17.457 3.99781C17.4507 3.98431 17.4434 3.96986 17.4377 3.95604C17.432 3.94225 17.4267 3.92835 17.4217 3.91428C17.4166 3.90021 17.4131 3.88681 17.4088 3.87251C17.4045 3.85821 17.3996 3.84523 17.396 3.83074C17.3923 3.81624 17.3863 3.8004 17.3863 3.78576C17.3863 3.77111 17.3767 3.75556 17.3767 3.74078C17.3767 3.72601 17.3735 3.71388 17.3735 3.69902C17.3735 3.68416 17.367 3.66574 17.367 3.65082C17.367 3.63591 17.367 3.62399 17.367 3.60906C17.367 3.59412 17.367 3.57899 17.367 3.56408C17.367 3.54916 17.3735 3.53396 17.3735 3.5191C17.3735 3.50424 17.3767 3.48889 17.3767 3.47412C17.3767 3.45934 17.3863 3.44379 17.3863 3.42914C17.3863 3.41449 17.3923 3.40186 17.396 3.38737C17.3996 3.37288 17.4045 3.35669 17.4088 3.34239C17.4131 3.32809 17.4166 3.31469 17.4217 3.30062C17.4267 3.28656 17.432 3.27266 17.4377 3.25886C17.4434 3.24505 17.4507 3.2306 17.457 3.21709C17.4633 3.20358 17.4693 3.19172 17.4763 3.17854C17.4833 3.16535 17.4911 3.15281 17.4988 3.13998C17.5064 3.12716 17.513 3.11387 17.5213 3.10143C17.5295 3.08899 17.5381 3.07489 17.547 3.06287C17.5558 3.05086 17.5632 3.04232 17.5727 3.03075C17.5821 3.01917 17.5948 3.0065 17.6048 2.99541C17.6148 2.98431 17.6232 2.97388 17.6337 2.96328C17.6442 2.95268 17.6548 2.94122 17.6658 2.93115C17.6769 2.92108 17.6896 2.91175 17.7012 2.90223C17.7127 2.89271 17.7246 2.88226 17.7365 2.87332C17.7485 2.86437 17.7595 2.85597 17.7719 2.84761C17.7843 2.83926 17.7976 2.83286 17.8104 2.82512C17.8232 2.81739 17.8358 2.80974 17.849 2.80263C17.8621 2.79553 17.874 2.7866 17.8875 2.78014C17.901 2.77369 17.9155 2.76987 17.9293 2.76408C17.9431 2.75829 17.957 2.75313 17.9711 2.74802C17.9851 2.74291 17.9986 2.73637 18.0128 2.73195C18.0271 2.72754 18.0401 2.72282 18.0546 2.7191C18.069 2.71539 18.0849 2.70946 18.0996 2.70946C18.1142 2.70946 18.1298 2.70304 18.1445 2.70304C18.1593 2.70304 18.1747 2.69661 18.1895 2.69661C18.2044 2.69661 18.2196 2.6934 18.2345 2.6934C18.2494 2.6934 18.2646 2.69019 18.2795 2.69019L19.2498 2.69019C19.2932 2.69019 19.3348 2.69019 19.3783 2.69019C19.4218 2.69019 19.4666 2.69661 19.51 2.69661C19.5534 2.69661 19.5953 2.70125 19.6385 2.70625C19.6817 2.71125 19.7273 2.71842 19.7702 2.72553C19.8131 2.73263 19.8563 2.74204 19.8988 2.75123C19.9413 2.76042 19.9821 2.76889 20.0241 2.78014C20.0661 2.7914 20.108 2.8054 20.1494 2.8187C20.1908 2.832 20.2307 2.84516 20.2715 2.86047C20.3121 2.87577 20.3536 2.89138 20.3935 2.90866C20.4335 2.92594 20.4734 2.94407 20.5124 2.96328C20.5514 2.98249 20.59 3.00323 20.6281 3.02432C20.6661 3.04541 20.7036 3.06886 20.7405 3.09179C20.7775 3.11472 20.814 3.13777 20.8498 3.16247C20.8856 3.18718 20.9213 3.21315 20.9558 3.23958C20.9903 3.26601 21.0222 3.29181 21.0554 3.3199C21.0886 3.34799 21.1232 3.37697 21.155 3.40665C21.1868 3.43633 21.2179 3.46863 21.2482 3.49982C21.2785 3.53102 21.3061 3.56357 21.3349 3.59621C21.3636 3.62884 21.3913 3.6618 21.4184 3.6958C21.4455 3.72981 21.4733 3.76332 21.4988 3.79861C21.5242 3.8339 21.549 3.86816 21.5727 3.90464C21.5963 3.94114 21.6183 3.97949 21.6401 4.01709C21.662 4.0547 21.6812 4.09413 21.7012 4.13275C21.7212 4.17139 21.7409 4.20886 21.759 4.24841C21.7771 4.28798 21.7943 4.33011 21.8104 4.3705C21.8265 4.41089 21.8412 4.45145 21.8554 4.49259C21.8695 4.53371 21.8851 4.57289 21.8972 4.61468C21.9093 4.65646 21.9192 4.70087 21.9293 4.74319C21.9393 4.78551 21.947 4.82573 21.955 4.86849C21.9629 4.91123 21.9716 4.95391 21.9775 4.997C21.9833 5.04011 21.9866 5.0854 21.9903 5.12873C21.9941 5.17206 22 5.2138 22 5.25724L22 11.1175C22 11.1325 21.9967 11.1442 21.9967 11.1592C21.9967 11.1742 21.9935 11.1925 21.9935 11.2074C21.9935 11.2224 21.9903 11.2376 21.9903 11.2524C21.9903 11.2673 21.9807 11.2795 21.9807 11.2942C21.9807 11.3089 21.9747 11.3246 21.971 11.3391C21.9674 11.3537 21.9625 11.3666 21.9582 11.3809C21.9538 11.3953 21.9504 11.4118 21.9453 11.4259C21.9403 11.44 21.935 11.4538 21.9293 11.4677C21.9235 11.4815 21.9164 11.4959 21.91 11.5094C21.9036 11.523 21.8978 11.5348 21.8907 11.548C21.8836 11.5612 21.8759 11.5737 21.8682 11.5865C21.8605 11.5994 21.8541 11.6126 21.8457 11.6251C21.8374 11.6376 21.829 11.6484 21.82 11.6604C21.8111 11.6725 21.8006 11.6874 21.7911 11.699C21.7816 11.7106 21.7723 11.72 21.7622 11.7311C21.7522 11.7422 21.7407 11.7526 21.7301 11.7632C21.7195 11.7739 21.7091 11.7853 21.698 11.7954C21.6868 11.8055 21.6742 11.8148 21.6626 11.8243C21.651 11.8338 21.6393 11.8443 21.6273 11.8532C21.6152 11.8621 21.6044 11.8706 21.5919 11.8789C21.5795 11.8872 21.5662 11.8937 21.5534 11.9014C21.5405 11.9091 21.528 11.9168 21.5148 11.9239C21.5016 11.931 21.4898 11.9367 21.4763 11.9432C21.4627 11.9496 21.4484 11.9567 21.4345 11.9624C21.4206 11.9682 21.4069 11.9735 21.3927 11.9785C21.3786 11.9835 21.3621 11.9902 21.3478 11.9946C21.3334 11.9989 21.3205 12.0006 21.306 12.0042C21.2914 12.0079 21.2757 12.0138 21.261 12.0138C21.2463 12.0138 21.2309 12.0235 21.216 12.0235C21.2012 12.0235 21.186 12.0267 21.171 12.0267C21.1561 12.0267 21.1442 12.0299 21.1293 12.0299C21.1143 12.0299 21.0993 12.0331 21.0843 12.0331ZM18.9735 4.52472L4.97831 4.52541C4.96335 4.52541 4.94825 4.52219 4.93333 4.52219C4.91841 4.52219 4.90322 4.51898 4.88835 4.51898C4.87347 4.51898 4.86136 4.51576 4.84658 4.51576C4.8318 4.51576 4.81626 4.50611 4.80161 4.50611C4.78697 4.50611 4.77111 4.50015 4.75663 4.49646C4.74212 4.49276 4.72914 4.48808 4.71486 4.48368C4.70056 4.47928 4.68392 4.4759 4.66987 4.47081C4.65583 4.46571 4.64512 4.46051 4.63132 4.45473C4.61753 4.44896 4.60305 4.44187 4.58955 4.43544C4.57606 4.42899 4.56415 4.42323 4.551 4.41614C4.53782 4.40904 4.52204 4.40144 4.50923 4.39371C4.49642 4.38598 4.48308 4.37954 4.47068 4.3712C4.45828 4.36286 4.44733 4.35121 4.43534 4.34225C4.42336 4.33332 4.41153 4.32612 4.40001 4.3166C4.38848 4.30709 4.37893 4.29773 4.36787 4.28766C4.35682 4.27759 4.34309 4.2661 4.33253 4.2555C4.32199 4.2449 4.31362 4.23453 4.30361 4.22342C4.29359 4.21231 4.28417 4.19962 4.2747 4.18804C4.26524 4.17646 4.25465 4.16477 4.24578 4.15275C4.23689 4.14072 4.22834 4.12982 4.22007 4.11737C4.2118 4.10492 4.20527 4.09169 4.1976 4.07886C4.18992 4.06601 4.18214 4.05346 4.1751 4.04026C4.16807 4.02707 4.1622 4.01206 4.15583 3.99854C4.14946 3.98502 4.14226 3.97055 4.13655 3.95673C4.13085 3.9429 4.12549 3.9323 4.12047 3.91821C4.11545 3.90413 4.10874 3.88751 4.10441 3.87319C4.10008 3.85889 4.0984 3.84597 4.09478 3.83146C4.09116 3.81695 4.08513 3.8011 4.08513 3.78644C4.08513 3.77177 4.07551 3.7595 4.07551 3.74471C4.07551 3.72992 4.07229 3.71457 4.07229 3.69968C4.07229 3.6848 4.06907 3.66967 4.06907 3.65474C4.06907 3.6398 4.06586 3.62475 4.06586 3.60979C4.06586 3.59484 4.06907 3.5797 4.06907 3.56477C4.06907 3.54984 4.07229 3.53471 4.07229 3.51982C4.07229 3.50494 4.07551 3.48959 4.07551 3.4748C4.07551 3.46001 4.08513 3.44452 4.08513 3.42986C4.08513 3.41519 4.09116 3.40256 4.09478 3.38805C4.0984 3.37354 4.10008 3.35742 4.10441 3.3431C4.10874 3.32879 4.11545 3.31538 4.12047 3.30129C4.12549 3.28721 4.13085 3.27339 4.13655 3.25957C4.14226 3.24574 4.14946 3.23128 4.15583 3.21776C4.1622 3.20423 4.16807 3.19244 4.1751 3.17924C4.18214 3.16605 4.18992 3.15349 4.1976 3.14065C4.20527 3.12781 4.2118 3.11459 4.22007 3.10214C4.22834 3.08969 4.23689 3.07558 4.24578 3.06355C4.25465 3.05152 4.26524 3.03983 4.2747 3.02825C4.28417 3.01667 4.29359 3.00719 4.30361 2.99609C4.31362 2.98499 4.32199 2.97139 4.33253 2.96079C4.34309 2.95019 4.35682 2.94192 4.36787 2.93185C4.37893 2.92178 4.38848 2.91242 4.40001 2.9029C4.41153 2.89339 4.42336 2.88298 4.43534 2.87404C4.44733 2.8651 4.45828 2.85666 4.47068 2.84831C4.48308 2.83997 4.49642 2.83353 4.50923 2.8258C4.52204 2.81807 4.53782 2.81046 4.551 2.80337C4.56415 2.79627 4.57606 2.7873 4.58955 2.78085C4.60305 2.77441 4.61753 2.77055 4.63132 2.76477C4.64512 2.759 4.65583 2.75379 4.66987 2.74869C4.68392 2.7436 4.70056 2.73701 4.71486 2.73261C4.72914 2.72822 4.74212 2.72352 4.75663 2.71983C4.77111 2.71614 4.78697 2.71018 4.80161 2.71018C4.81626 2.71018 4.8318 2.70375 4.84658 2.70375C4.86136 2.70375 4.87347 2.69732 4.88835 2.69732C4.90322 2.69732 4.91841 2.6941 4.93333 2.6941C4.94825 2.6941 4.96335 2.69089 4.97831 2.69089L18.9735 2.69019C18.9884 2.69019 19.0035 2.6934 19.0184 2.6934C19.0334 2.6934 19.0485 2.69661 19.0634 2.69661C19.0783 2.69661 19.0936 2.70304 19.1084 2.70304C19.1232 2.70304 19.1387 2.70946 19.1534 2.70946C19.168 2.70946 19.1807 2.71541 19.1951 2.7191C19.2097 2.7228 19.2259 2.72755 19.2401 2.73195C19.2544 2.73635 19.2678 2.74292 19.2819 2.74802C19.2959 2.75311 19.3099 2.75831 19.3237 2.76408C19.3375 2.76986 19.3519 2.7737 19.3654 2.78014C19.3789 2.78659 19.3908 2.79554 19.404 2.80263C19.4172 2.80973 19.4297 2.8174 19.4425 2.82512C19.4553 2.83285 19.4687 2.83927 19.4811 2.84761C19.4935 2.85596 19.5044 2.86437 19.5164 2.87332C19.5284 2.88226 19.5402 2.89271 19.5518 2.90223C19.5633 2.91175 19.576 2.92108 19.5871 2.93115C19.5982 2.94122 19.6087 2.94947 19.6192 2.96006C19.6298 2.97066 19.6381 2.9843 19.6482 2.99541C19.6582 3.00651 19.6708 3.01595 19.6803 3.02753C19.6898 3.03911 19.6971 3.05085 19.706 3.06287C19.7149 3.0749 19.7234 3.08898 19.7317 3.10143C19.74 3.11388 19.7497 3.12714 19.7574 3.13998C19.7651 3.15282 19.7729 3.16534 19.7799 3.17854C19.7869 3.19173 19.7928 3.20356 19.7992 3.21709C19.8055 3.23062 19.8095 3.24504 19.8152 3.25886C19.8209 3.27268 19.8263 3.28654 19.8313 3.30062C19.8363 3.31471 19.843 3.32808 19.8474 3.34239C19.8517 3.3567 19.8534 3.37286 19.857 3.38737C19.8606 3.40188 19.8666 3.41447 19.8666 3.42914C19.8666 3.4438 19.8763 3.45933 19.8763 3.47412C19.8763 3.48891 19.8795 3.50422 19.8795 3.5191C19.8795 3.53398 19.8859 3.54914 19.8859 3.56408C19.8859 3.57901 19.8859 3.59411 19.8859 3.60906C19.8859 3.62401 19.8859 3.6391 19.8859 3.65404C19.8859 3.66897 19.8795 3.68414 19.8795 3.69902C19.8795 3.7139 19.8763 3.7292 19.8763 3.744C19.8763 3.75879 19.8666 3.7711 19.8666 3.78576C19.8666 3.80043 19.8606 3.81623 19.857 3.83074C19.8534 3.84526 19.8517 3.85821 19.8474 3.87251C19.843 3.88683 19.8363 3.9034 19.8313 3.91749C19.8263 3.93158 19.8209 3.94222 19.8152 3.95604C19.8095 3.96987 19.8055 3.98429 19.7992 3.99781C19.7928 4.01133 19.7869 4.02638 19.7799 4.03958C19.7729 4.05278 19.7651 4.06528 19.7574 4.07813C19.7497 4.09096 19.74 4.10424 19.7317 4.11669C19.7234 4.12914 19.7149 4.14 19.706 4.15203C19.6971 4.16405 19.6898 4.17579 19.6803 4.18737C19.6708 4.19895 19.6582 4.2116 19.6482 4.22271C19.6381 4.23382 19.6298 4.24424 19.6192 4.25484C19.6087 4.26544 19.5982 4.2769 19.5871 4.28697C19.576 4.29703 19.5633 4.30637 19.5518 4.31588C19.5402 4.3254 19.5284 4.33265 19.5164 4.34159C19.5044 4.35054 19.4935 4.36216 19.4811 4.3705C19.4687 4.37884 19.4553 4.38526 19.4425 4.39299C19.4297 4.40072 19.4172 4.40838 19.404 4.41548C19.3908 4.42257 19.3789 4.42831 19.3654 4.43476C19.3519 4.44119 19.3375 4.44826 19.3237 4.45403C19.3099 4.45981 19.2959 4.465 19.2819 4.4701C19.2678 4.47519 19.2544 4.47855 19.2401 4.48295C19.2259 4.48735 19.2097 4.4921 19.1951 4.4958C19.1807 4.49948 19.168 4.50544 19.1534 4.50544C19.1387 4.50544 19.1232 4.51508 19.1084 4.51508C19.0936 4.51508 19.0783 4.51829 19.0634 4.51829C19.0485 4.51829 19.0334 4.5215 19.0184 4.5215C19.0035 4.5215 18.9884 4.52472 18.9735 4.52472ZM10.7968 22.3817L4.7502 22.3817C4.70673 22.3817 4.66194 22.3849 4.61847 22.3849C4.57498 22.3849 4.53333 22.3785 4.48995 22.3785C4.44655 22.3785 4.40142 22.3707 4.35823 22.3656C4.31503 22.3606 4.27263 22.3566 4.22971 22.3495C4.1868 22.3424 4.14372 22.333 4.1012 22.3238C4.0587 22.3147 4.01791 22.303 3.9759 22.2917C3.93389 22.2804 3.89201 22.2697 3.8506 22.2564C3.80918 22.2431 3.76921 22.2299 3.72851 22.2146C3.6878 22.1993 3.64634 22.1805 3.60642 22.1632C3.5665 22.1459 3.52657 22.1278 3.48755 22.1086C3.44853 22.0893 3.40992 22.0686 3.37188 22.0475C3.33386 22.0265 3.2964 22.0062 3.25944 21.9833C3.22248 21.9604 3.18599 21.9374 3.1502 21.9126C3.11441 21.8879 3.07872 21.8619 3.04417 21.8355C3.00963 21.8091 2.97779 21.7801 2.94458 21.752C2.91137 21.7239 2.87678 21.6949 2.84498 21.6652C2.81318 21.6356 2.78211 21.6065 2.75181 21.5753C2.7215 21.5441 2.69381 21.5115 2.66506 21.4789C2.63631 21.4462 2.60543 21.4133 2.57831 21.3793C2.5512 21.3453 2.52662 21.3118 2.5012 21.2765C2.47578 21.2412 2.45097 21.2037 2.42731 21.1672C2.40364 21.1307 2.38169 21.0956 2.35984 21.058C2.33799 21.0204 2.31557 20.981 2.29558 20.9423C2.27559 20.9037 2.25583 20.8662 2.23775 20.8267C2.21967 20.7871 2.20246 20.745 2.18635 20.7046C2.17022 20.6642 2.1587 20.6236 2.14458 20.5825C2.13045 20.5414 2.11491 20.5022 2.10281 20.4604C2.09071 20.4186 2.08072 20.3742 2.07068 20.3319C2.06064 20.2896 2.05294 20.2461 2.04498 20.2034C2.03702 20.1606 2.02835 20.118 2.02249 20.0749C2.01663 20.0318 2.01338 19.9897 2.00964 19.9463C2.00589 19.903 2 19.8613 2 19.8178L2 5.25724C2 5.2138 2.00589 5.17206 2.00964 5.12873C2.01338 5.0854 2.01663 5.04011 2.02249 4.997C2.02835 4.95391 2.03702 4.91125 2.04498 4.86849C2.05294 4.82575 2.06064 4.78552 2.07068 4.74319C2.08072 4.70087 2.09071 4.65644 2.10281 4.61468C2.11491 4.57289 2.13045 4.53371 2.14458 4.49259C2.1587 4.45145 2.17023 4.41089 2.18635 4.3705C2.20247 4.33011 2.21968 4.28798 2.23775 4.24841C2.25583 4.20886 2.27559 4.17139 2.29558 4.13275C2.31557 4.09413 2.33799 4.0547 2.35984 4.01709C2.38169 3.97949 2.40364 3.94114 2.42731 3.90464C2.45097 3.86814 2.47578 3.8339 2.5012 3.79861C2.52662 3.76333 2.5512 3.72981 2.57831 3.6958C2.60543 3.6618 2.63631 3.62884 2.66506 3.59621C2.69381 3.56357 2.7215 3.53102 2.75181 3.49982C2.78211 3.46863 2.81318 3.43632 2.84498 3.40665C2.87677 3.37697 2.91137 3.34799 2.94458 3.3199C2.97779 3.29182 3.00963 3.26601 3.04417 3.23958C3.07872 3.21315 3.11441 3.18718 3.1502 3.16247C3.18599 3.13776 3.22248 3.11472 3.25944 3.09179C3.29639 3.06886 3.33385 3.04541 3.37188 3.02432C3.40992 3.00323 3.44853 2.98249 3.48755 2.96328C3.52657 2.94407 3.5665 2.92594 3.60642 2.90866C3.64633 2.89138 3.6878 2.87577 3.72851 2.86047C3.76922 2.84516 3.8092 2.832 3.8506 2.8187C3.89201 2.8054 3.93389 2.7914 3.9759 2.78014C4.01791 2.76889 4.05869 2.76042 4.1012 2.75123C4.1437 2.74204 4.1868 2.73263 4.22971 2.72553C4.27263 2.71843 4.31503 2.71125 4.35823 2.70625C4.40142 2.70125 4.44655 2.69661 4.48995 2.69661C4.53333 2.69661 4.57498 2.69019 4.61847 2.69019C4.66194 2.69019 4.70673 2.69019 4.7502 2.69019L5.79437 2.69019C5.80933 2.69019 5.82443 2.6934 5.83935 2.6934C5.85427 2.6934 5.86946 2.69661 5.88433 2.69661C5.8992 2.69661 5.91453 2.70304 5.92931 2.70304C5.94409 2.70304 5.95643 2.70946 5.97108 2.70946C5.98572 2.70946 6.00157 2.71541 6.01606 2.7191C6.03056 2.7228 6.04676 2.72755 6.06104 2.73195C6.07534 2.73635 6.08876 2.74292 6.1028 2.74802C6.11685 2.75311 6.13078 2.75831 6.14457 2.76408C6.15837 2.76986 6.17284 2.7737 6.18634 2.78014C6.19983 2.78659 6.21174 2.79554 6.22489 2.80263C6.23807 2.80973 6.25064 2.8174 6.26345 2.82512C6.27626 2.83285 6.2896 2.83927 6.302 2.84761C6.3144 2.85596 6.32536 2.86437 6.33734 2.87332C6.34933 2.88226 6.36116 2.89271 6.37268 2.90223C6.38421 2.91175 6.39696 2.92108 6.40802 2.93115C6.41907 2.94122 6.42959 2.94947 6.44015 2.96006C6.45069 2.97066 6.45905 2.9843 6.46907 2.99541C6.47908 3.00651 6.48852 3.01595 6.49798 3.02753C6.50745 3.03911 6.51803 3.05085 6.5269 3.06287C6.53579 3.0749 6.54433 3.08898 6.5526 3.10143C6.56087 3.11388 6.57063 3.12714 6.5783 3.13998C6.58598 3.15282 6.59376 3.16534 6.60079 3.17854C6.60783 3.19173 6.6137 3.20356 6.62007 3.21709C6.62644 3.23062 6.63043 3.24504 6.63614 3.25886C6.64184 3.27268 6.64718 3.28654 6.6522 3.30062C6.65722 3.31471 6.66393 3.32808 6.66826 3.34239C6.6726 3.3567 6.67428 3.37286 6.6779 3.38737C6.68152 3.40188 6.69075 3.41447 6.69075 3.42914C6.69075 3.4438 6.69718 3.45933 6.69718 3.47412C6.69718 3.48891 6.70361 3.50422 6.70361 3.5191C6.70361 3.53398 6.70682 3.54914 6.70682 3.56408C6.70682 3.57901 6.70682 3.59411 6.70682 3.60906C6.70682 3.62401 6.70682 3.6391 6.70682 3.65404C6.70682 3.66897 6.70361 3.68414 6.70361 3.69902C6.70361 3.7139 6.69718 3.7292 6.69718 3.744C6.69718 3.75879 6.69075 3.7711 6.69075 3.78576C6.69075 3.80043 6.68152 3.81623 6.6779 3.83074C6.67428 3.84526 6.6726 3.85821 6.66826 3.87251C6.66393 3.88683 6.65722 3.9034 6.6522 3.91749C6.64718 3.93158 6.64184 3.94222 6.63614 3.95604C6.63043 3.96987 6.62644 3.98429 6.62007 3.99781C6.6137 4.01133 6.60783 4.02638 6.60079 4.03958C6.59376 4.05278 6.58598 4.06528 6.5783 4.07813C6.57063 4.09096 6.56087 4.10424 6.5526 4.11669C6.54433 4.12914 6.53579 4.14 6.5269 4.15203C6.51803 4.16405 6.50745 4.17579 6.49798 4.18737C6.48852 4.19895 6.47908 4.2116 6.46907 4.22271C6.45905 4.23382 6.45069 4.24424 6.44015 4.25484C6.42959 4.26544 6.41907 4.2769 6.40802 4.28697C6.39696 4.29703 6.38421 4.30637 6.37268 4.31588C6.36116 4.3254 6.34933 4.33265 6.33734 4.34159C6.32536 4.35054 6.3144 4.36216 6.302 4.3705C6.2896 4.37884 6.27626 4.38526 6.26345 4.39299C6.25064 4.40072 6.23807 4.40838 6.22489 4.41548C6.21174 4.42257 6.19983 4.42831 6.18634 4.43476C6.17284 4.44119 6.15837 4.44826 6.14457 4.45403C6.13078 4.45981 6.11685 4.465 6.1028 4.4701C6.08876 4.47519 6.07534 4.47855 6.06104 4.48295C6.04676 4.48735 6.03056 4.4921 6.01606 4.4958C6.00157 4.49948 5.98572 4.50544 5.97108 4.50544C5.95643 4.50544 5.94409 4.51508 5.92931 4.51508C5.91453 4.51508 5.8992 4.51829 5.88433 4.51829C5.86946 4.51829 5.85427 4.5215 5.83935 4.5215C5.82443 4.5215 5.80933 4.52472 5.79437 4.52472L4.7502 4.52472C4.73674 4.52472 4.7219 4.5215 4.70843 4.5215C4.69495 4.5215 4.68337 4.5215 4.66987 4.5215C4.65638 4.5215 4.64158 4.5215 4.62811 4.5215C4.61466 4.5215 4.60296 4.52793 4.58955 4.52793C4.57615 4.52793 4.56112 4.53114 4.54779 4.53114C4.53445 4.53114 4.52245 4.53757 4.50923 4.53757C4.49601 4.53757 4.48055 4.54391 4.46747 4.54721C4.45438 4.55051 4.44181 4.55292 4.42891 4.55685C4.41601 4.56077 4.40308 4.56518 4.39036 4.5697C4.37766 4.57423 4.3675 4.58063 4.35502 4.58576C4.34253 4.59088 4.32868 4.59611 4.31646 4.60182C4.30425 4.60754 4.29306 4.61481 4.28112 4.6211C4.26917 4.62739 4.25739 4.63353 4.24578 4.64038C4.23415 4.64722 4.22173 4.65547 4.21044 4.66287C4.19916 4.67025 4.18923 4.67422 4.17831 4.68215C4.16739 4.69006 4.15672 4.69943 4.14618 4.70785C4.13566 4.71628 4.12418 4.72463 4.11405 4.73355C4.10394 4.74246 4.09482 4.75307 4.08514 4.76247C4.07545 4.77185 4.06545 4.78154 4.05622 4.79138C4.04698 4.80122 4.03606 4.81003 4.02731 4.8203C4.01855 4.83056 4.01307 4.84176 4.00482 4.85243C3.99657 4.86309 3.98686 4.87351 3.97911 4.88455C3.97137 4.8956 3.96383 4.90527 3.95662 4.91668C3.94941 4.92808 3.94399 4.94029 3.93735 4.95202C3.93068 4.96376 3.92416 4.97535 3.91807 4.98737C3.91197 4.99942 3.90431 5.01361 3.89879 5.02592C3.89326 5.03823 3.88765 5.0487 3.88273 5.06126C3.87779 5.07382 3.8742 5.08705 3.86988 5.09981C3.86555 5.1126 3.86074 5.1254 3.85702 5.13837C3.85331 5.15134 3.84739 5.16701 3.84739 5.18014C3.84739 5.19327 3.84096 5.20544 3.84096 5.21869C3.84096 5.23196 3.83132 5.24388 3.83132 5.25724L3.83132 19.8082C3.83132 19.8216 3.84096 19.8335 3.84096 19.8467C3.84096 19.86 3.84739 19.8722 3.84739 19.8853C3.84739 19.8984 3.85331 19.9141 3.85702 19.9271C3.86074 19.94 3.86555 19.9529 3.86988 19.9656C3.8742 19.9784 3.87779 19.9916 3.88273 20.0042C3.88766 20.0167 3.89328 20.0272 3.89879 20.0395C3.90431 20.0518 3.91197 20.066 3.91807 20.0781C3.92416 20.0901 3.93068 20.1017 3.93735 20.1134C3.94401 20.1251 3.94941 20.1342 3.95662 20.1455C3.96382 20.157 3.97137 20.1698 3.97911 20.1809C3.98686 20.1919 3.99657 20.2023 4.00482 20.213C4.01308 20.2237 4.01855 20.2349 4.02731 20.2451C4.03606 20.2554 4.04699 20.2642 4.05622 20.2741C4.06545 20.2839 4.07545 20.2936 4.08514 20.303C4.09482 20.3124 4.10392 20.3198 4.11405 20.3287C4.12416 20.3376 4.13564 20.3492 4.14618 20.3576C4.15671 20.366 4.16739 20.3721 4.17831 20.3801C4.18923 20.388 4.19915 20.3952 4.21044 20.4026C4.22171 20.4099 4.23415 20.4182 4.24578 20.4251C4.2574 20.4319 4.26919 20.4381 4.28112 20.4443C4.29306 20.4506 4.30425 20.4579 4.31646 20.4636C4.32868 20.4693 4.34255 20.4745 4.35502 20.4797C4.3675 20.4848 4.37764 20.4912 4.39036 20.4957C4.40305 20.5003 4.41601 20.5015 4.42891 20.5054C4.44181 20.5093 4.45438 20.5149 4.46747 20.5182C4.48055 20.5215 4.49601 20.5247 4.50923 20.5247C4.52245 20.5247 4.53445 20.5343 4.54779 20.5343C4.56112 20.5343 4.57615 20.5375 4.58955 20.5375C4.60296 20.5375 4.61466 20.5439 4.62811 20.5439C4.64158 20.5439 4.65638 20.5439 4.66987 20.5439C4.68337 20.5439 4.69495 20.5439 4.70843 20.5439C4.7219 20.5439 4.73674 20.5407 4.7502 20.5407L10.7968 20.5407C10.8118 20.5407 10.8268 20.5407 10.8418 20.5407C10.8567 20.5407 10.8718 20.5439 10.8867 20.5439C10.9016 20.5439 10.9169 20.5504 10.9317 20.5504C10.9465 20.5504 10.962 20.5568 10.9767 20.5568C10.9914 20.5568 11.0039 20.566 11.0185 20.5696C11.033 20.5733 11.0491 20.5749 11.0634 20.5793C11.0778 20.5836 11.0911 20.5903 11.1052 20.5953C11.1193 20.6004 11.1331 20.6057 11.147 20.6114C11.1608 20.6171 11.1752 20.621 11.1887 20.6275C11.2023 20.6339 11.2173 20.6397 11.2305 20.6467C11.2437 20.6538 11.2562 20.6615 11.2691 20.6692C11.2819 20.6769 11.2919 20.6866 11.3044 20.6949C11.3169 20.7033 11.3309 20.7117 11.343 20.7206C11.355 20.7296 11.3667 20.7368 11.3783 20.7463C11.3899 20.7559 11.4025 20.7684 11.4136 20.7785C11.4248 20.7886 11.4352 20.7968 11.4458 20.8074C11.4564 20.818 11.4646 20.8316 11.4747 20.8427C11.4847 20.8538 11.4973 20.8633 11.5068 20.8749C11.5163 20.8864 11.5236 20.8982 11.5325 20.9102C11.5414 20.9222 11.5499 20.9363 11.5582 20.9487C11.5666 20.9612 11.5762 20.9744 11.5839 20.9873C11.5916 21.0002 11.5993 21.0126 11.6064 21.0259C11.6135 21.0391 11.6193 21.0508 11.6257 21.0644C11.6321 21.078 11.6392 21.0923 11.645 21.1062C11.6507 21.12 11.656 21.1338 11.661 21.1479C11.6661 21.1621 11.6695 21.1786 11.6739 21.1929C11.6782 21.2073 11.6831 21.2202 11.6867 21.2347C11.6904 21.2493 11.6964 21.265 11.6964 21.2797C11.6964 21.2944 11.7028 21.3066 11.7028 21.3214C11.7028 21.3363 11.7092 21.3515 11.7092 21.3664C11.7092 21.3813 11.7124 21.3964 11.7124 21.4114C11.7124 21.4264 11.7124 21.4414 11.7124 21.4564C11.7124 21.4714 11.7124 21.4864 11.7124 21.5014C11.7124 21.5163 11.7092 21.5314 11.7092 21.5463C11.7092 21.5613 11.7028 21.5765 11.7028 21.5913C11.7028 21.6062 11.6964 21.6216 11.6964 21.6363C11.6964 21.651 11.6904 21.6635 11.6867 21.6781C11.6831 21.6926 11.6782 21.7087 11.6739 21.723C11.6695 21.7374 11.6661 21.7507 11.661 21.7648C11.656 21.7789 11.6507 21.7927 11.645 21.8066C11.6392 21.8204 11.6321 21.8348 11.6257 21.8483C11.6193 21.862 11.6135 21.8768 11.6064 21.8901C11.5993 21.9033 11.5916 21.9157 11.5839 21.9287C11.5762 21.9415 11.5666 21.9548 11.5582 21.9672C11.5499 21.9798 11.5414 21.9905 11.5325 22.0026C11.5236 22.0146 11.5163 22.0263 11.5068 22.0379C11.4973 22.0495 11.4847 22.0622 11.4747 22.0732C11.4646 22.0844 11.4564 22.0948 11.4458 22.1054C11.4352 22.1161 11.4248 22.1274 11.4136 22.1375C11.4025 22.1476 11.3899 22.157 11.3783 22.1664C11.3667 22.1759 11.355 22.1831 11.343 22.1921C11.3309 22.201 11.3169 22.2094 11.3044 22.2178C11.2919 22.2261 11.2819 22.2357 11.2691 22.2435C11.2562 22.2512 11.2437 22.2588 11.2305 22.266C11.2173 22.2731 11.2023 22.2789 11.1887 22.2853C11.1752 22.2917 11.1608 22.2988 11.147 22.3046C11.1331 22.3102 11.1193 22.3156 11.1052 22.3206C11.0911 22.3257 11.0778 22.3291 11.0634 22.3335C11.0491 22.3378 11.033 22.3427 11.0185 22.3463C11.0039 22.35 10.9914 22.356 10.9767 22.356C10.962 22.356 10.9465 22.3624 10.9317 22.3624C10.9169 22.3624 10.9016 22.3688 10.8867 22.3688C10.8718 22.3688 10.8567 22.372 10.8418 22.372C10.8268 22.372 10.8118 22.3753 10.7968 22.3753L10.7968 22.3817Z"   fill="#034FA1" ></path><path d="M16.5588 22.2066C16.7965 22.339 17.0641 22.4057 17.3305 22.4057C17.5969 22.4057 17.8645 22.339 18.1022 22.2066L21.2175 20.4632C21.694 20.1973 21.9891 19.7012 21.9891 19.1694L21.9891 15.6826C21.9891 15.1508 21.6929 14.6546 21.2175 14.3887L18.101 12.6453C17.6256 12.3794 17.0342 12.3794 16.5588 12.6453L13.4435 14.3887C12.967 14.6546 12.6719 15.1508 12.6719 15.6826L12.6719 19.1694C12.6719 19.7012 12.9681 20.1973 13.4435 20.4632L16.5588 22.2066ZM17.0744 13.5098C17.1537 13.4653 17.2421 13.443 17.3305 13.443C17.4189 13.443 17.5073 13.4653 17.5866 13.5098L20.703 15.2532C20.8615 15.3411 20.9591 15.5057 20.9591 15.6826L20.9591 19.1694C20.9591 19.3462 20.8615 19.5109 20.703 19.5988L17.5866 21.3422C17.4281 21.4301 17.2329 21.4301 17.0744 21.3422L13.958 19.5988C13.7995 19.5109 13.7019 19.3462 13.7019 19.1694L13.7019 15.6826C13.7019 15.5057 13.7995 15.3411 13.958 15.2532L17.0744 13.5098ZM15.3728 16.8201L16.9174 17.6057L16.9174 19.382C16.9174 19.683 17.1725 19.9283 17.4857 19.9283C17.799 19.9283 18.051 19.6818 18.051 19.382L18.051 17.6314L19.547 16.8593C19.8173 16.7076 19.9099 16.3736 19.752 16.1138C19.5941 15.8541 19.2458 15.769 18.9755 15.9207L17.5127 16.6631L15.9412 15.8755C15.6697 15.725 15.3245 15.8137 15.1679 16.0746C15.0113 16.3356 15.1013 16.6696 15.3728 16.8201Z" fill-rule="evenodd"  fill="#CC4E1D" ></path><path d="M6.44447 11.8028L12.8423 11.8028C13.3556 11.8028 13.612 12.0592 13.612 12.5724C13.612 13.0857 13.3556 13.3433 12.8423 13.3433L6.44447 13.3433C5.93119 13.3433 5.6748 13.0857 5.6748 12.5724C5.6748 12.0592 5.93119 11.8028 6.44447 11.8028ZM6.44447 15.5514L9.98304 15.5514C10.4963 15.5514 10.7527 15.8078 10.7527 16.321C10.7527 16.8343 10.4963 17.0919 9.98304 17.0919L6.44447 17.0919C5.93118 17.0919 5.6748 16.8343 5.6748 16.321C5.6748 15.8078 5.93119 15.5514 6.44447 15.5514ZM6.44447 8.0542L15.6194 8.0542C16.1327 8.0542 16.3891 8.31057 16.3891 8.82386C16.3891 9.33714 16.1327 9.59352 15.6194 9.59352L6.44447 9.59352C5.93119 9.59352 5.6748 9.33714 5.6748 8.82386C5.6748 8.31056 5.93119 8.0542 6.44447 8.0542Z"   fill="#034FA1" ></path><path d="M7.19629 4.9189L7.19629 2.41632C7.19629 1.80528 7.50158 1.5 8.11261 1.5C8.72364 1.5 9.02893 1.80528 9.02893 2.41632L9.02893 4.9189C9.02893 5.52994 8.72364 5.83522 8.11261 5.83522C7.50156 5.83522 7.19629 5.52994 7.19629 4.9189ZM15.225 4.9189L15.225 2.41632C15.225 1.80528 15.5314 1.5 16.1424 1.5C16.7535 1.5 17.0588 1.80528 17.0588 2.41632L17.0588 4.9189C17.0588 5.52994 16.7535 5.83522 16.1424 5.83522C15.5314 5.83522 15.225 5.52994 15.225 4.9189Z"   fill="#034FA1" ></path></svg>