<svg xmlns="http://www.w3.org/2000/svg" xmlns:xlink="http://www.w3.org/1999/xlink" width="24" height="24" viewBox="0 0 24 24" fill="none"><path d="M15.2371 14.5693C15.2371 14.5582 15.2371 14.5466 15.2371 14.5355C15.2371 14.5244 15.2371 14.5127 15.2371 14.5017C15.2371 14.4906 15.2303 14.4788 15.2303 14.4678C15.2303 14.4569 15.2268 14.4483 15.2268 14.4374C15.2268 14.4265 15.2201 14.4143 15.2201 14.4036C15.2201 14.3928 15.21 14.3803 15.21 14.3697C15.21 14.3591 15.2035 14.3498 15.1997 14.3393C15.196 14.3289 15.1904 14.3191 15.1862 14.3089C15.182 14.2986 15.1774 14.2884 15.1726 14.2784C15.1679 14.2684 15.1645 14.2577 15.1593 14.248C15.1541 14.2382 15.1479 14.2304 15.1423 14.2209C15.1366 14.2114 15.1316 14.1997 15.1254 14.1905C15.1193 14.1813 15.1117 14.1723 15.1051 14.1634C15.0985 14.1545 15.0918 14.1483 15.0848 14.1397C15.0778 14.1312 15.0719 14.1209 15.0645 14.1127C15.057 14.1045 15.0487 14.0968 15.0408 14.089C15.033 14.0812 15.0253 14.0728 15.0171 14.0653C15.0088 14.0579 14.9987 14.052 14.9901 14.045C14.9816 14.038 14.9752 14.0313 14.9663 14.0247C14.9574 14.0181 14.9485 14.0106 14.9393 14.0044C14.93 13.9983 14.9184 13.9932 14.9089 13.9875C14.8994 13.9818 14.8915 13.9758 14.8818 13.9706C14.872 13.9654 14.8614 13.9618 14.8514 13.9571C14.8414 13.9523 14.8312 13.9478 14.821 13.9435C14.8108 13.9393 14.8009 13.9337 14.7904 13.93C14.78 13.9263 14.7706 13.9198 14.76 13.9198C14.7494 13.9198 14.7369 13.9097 14.7262 13.9097C14.7154 13.9097 14.7067 13.9029 14.6958 13.9029C14.6849 13.9029 14.6729 13.8996 14.6619 13.8996C14.651 13.8996 14.6391 13.8928 14.6281 13.8928C14.6171 13.8928 14.6053 13.8928 14.5942 13.8928C14.5832 13.8928 14.5749 13.8894 14.5638 13.8894L9.15799 13.8894C9.14692 13.8894 9.13522 13.8928 9.12416 13.8928C9.1131 13.8928 9.10135 13.8928 9.09033 13.8928C9.07931 13.8928 9.07084 13.8996 9.05989 13.8996C9.04894 13.8996 9.03693 13.9029 9.02606 13.9029C9.01521 13.9029 9.00298 13.9097 8.99223 13.9097C8.98149 13.9097 8.97238 13.9199 8.96179 13.9199C8.95118 13.9199 8.94177 13.9263 8.93134 13.93C8.92092 13.9337 8.90775 13.9393 8.89752 13.9435C8.88729 13.9478 8.87709 13.9523 8.86707 13.9571C8.85706 13.9618 8.84977 13.9654 8.84001 13.9706C8.83024 13.9758 8.81906 13.9818 8.80957 13.9875C8.80007 13.9932 8.79172 13.9983 8.78251 14.0044C8.77331 14.0106 8.76435 14.0181 8.75544 14.0247C8.74655 14.0313 8.73694 14.038 8.72838 14.045C8.71982 14.052 8.7129 14.0579 8.7047 14.0653C8.6965 14.0727 8.68886 14.0812 8.68102 14.089C8.67319 14.0968 8.66478 14.1045 8.65735 14.1127C8.64991 14.1209 8.6407 14.1312 8.63367 14.1397C8.62665 14.1483 8.61997 14.1545 8.61337 14.1634C8.60677 14.1723 8.60261 14.1813 8.59646 14.1905C8.59032 14.1997 8.58186 14.2114 8.57616 14.2209C8.57046 14.2304 8.56785 14.2382 8.56263 14.248C8.55741 14.2577 8.55045 14.2684 8.54572 14.2784C8.54098 14.2884 8.53642 14.2986 8.53219 14.3089C8.52794 14.3191 8.52576 14.3289 8.52204 14.3393C8.5183 14.3497 8.51189 14.3592 8.51189 14.3698C8.51189 14.3804 8.50174 14.3928 8.50174 14.4036C8.50174 14.4143 8.49498 14.4232 8.49498 14.434C8.49498 14.4449 8.48821 14.4569 8.48821 14.4678C8.48821 14.4788 8.48483 14.4907 8.48483 14.5017C8.48483 14.5127 8.48145 14.5244 8.48145 14.5355C8.48145 14.5466 8.48145 14.5549 8.48145 14.5659C8.48145 14.577 8.48145 14.5887 8.48145 14.5998C8.48145 14.6108 8.48483 14.6226 8.48483 14.6336C8.48483 14.6446 8.48821 14.6565 8.48821 14.6674C8.48821 14.6784 8.49498 14.687 8.49498 14.6979C8.49498 14.7087 8.50174 14.721 8.50174 14.7317C8.50174 14.7424 8.51189 14.7549 8.51189 14.7655C8.51189 14.7761 8.5183 14.7856 8.52204 14.796C8.52576 14.8064 8.52794 14.8162 8.53219 14.8264C8.53642 14.8366 8.54098 14.8469 8.54572 14.8569C8.55045 14.8669 8.55741 14.8775 8.56263 14.8873C8.56785 14.8971 8.57046 14.9049 8.57616 14.9144C8.58186 14.9239 8.59032 14.9356 8.59646 14.9448C8.60261 14.954 8.60677 14.963 8.61337 14.9719C8.61997 14.9808 8.62665 14.987 8.63367 14.9956C8.6407 15.0041 8.64991 15.0144 8.65735 15.0226C8.66478 15.0308 8.67319 15.0385 8.68102 15.0463C8.68886 15.0541 8.6965 15.0625 8.7047 15.07C8.7129 15.0774 8.71982 15.0832 8.72838 15.0903C8.73694 15.0973 8.74655 15.104 8.75544 15.1106C8.76435 15.1172 8.77331 15.1247 8.78251 15.1309C8.79172 15.137 8.80007 15.1421 8.80957 15.1478C8.81906 15.1535 8.83024 15.1595 8.84001 15.1647C8.84977 15.1699 8.85706 15.1735 8.86707 15.1782C8.87709 15.183 8.88729 15.1875 8.89752 15.1917C8.90775 15.196 8.92092 15.2015 8.93134 15.2053C8.94177 15.209 8.95118 15.2154 8.96179 15.2154C8.97238 15.2154 8.98149 15.2222 8.99223 15.2222C9.00298 15.2222 9.01521 15.2323 9.02606 15.2323C9.03693 15.2323 9.04894 15.2357 9.05989 15.2357C9.07084 15.2357 9.07931 15.2425 9.09033 15.2425C9.10135 15.2425 9.1131 15.2425 9.12416 15.2425C9.13522 15.2425 9.14692 15.2425 9.15799 15.2425L14.5638 15.2425C14.9376 15.2425 15.2371 14.9412 15.2371 14.5693ZM9.15799 17.2755C9.14692 17.2755 9.13522 17.2755 9.12416 17.2755C9.1131 17.2755 9.10135 17.2789 9.09033 17.2789C9.07931 17.2789 9.07084 17.2823 9.05989 17.2823C9.04894 17.2823 9.03693 17.289 9.02606 17.289C9.01521 17.289 9.00298 17.2958 8.99223 17.2958C8.98149 17.2958 8.97238 17.3059 8.96179 17.3059C8.95118 17.3059 8.94177 17.3124 8.93134 17.3161C8.92092 17.3198 8.90775 17.322 8.89752 17.3262C8.88729 17.3305 8.87709 17.335 8.86707 17.3398C8.85706 17.3445 8.84977 17.3515 8.84001 17.3567C8.83024 17.3619 8.81906 17.3679 8.80957 17.3736C8.80007 17.3793 8.79172 17.3843 8.78251 17.3905C8.77331 17.3967 8.76435 17.4008 8.75544 17.4074C8.74655 17.414 8.73694 17.4207 8.72838 17.4277C8.71982 17.4347 8.7129 17.444 8.7047 17.4514C8.6965 17.4588 8.68886 17.4673 8.68102 17.4751C8.67319 17.4829 8.66478 17.4905 8.65735 17.4988C8.64991 17.507 8.6407 17.5139 8.63367 17.5224C8.62665 17.531 8.61997 17.5406 8.61337 17.5495C8.60677 17.5584 8.60261 17.5673 8.59646 17.5766C8.5903 17.5858 8.58185 17.5941 8.57616 17.6036C8.57046 17.6131 8.56785 17.6243 8.56263 17.6341C8.55741 17.6438 8.55045 17.6545 8.54572 17.6645C8.54098 17.6745 8.53642 17.6847 8.53219 17.695C8.52794 17.7052 8.52577 17.715 8.52204 17.7254C8.51831 17.7358 8.51189 17.7452 8.51189 17.7558C8.51189 17.7664 8.50174 17.7789 8.50174 17.7897C8.50174 17.8004 8.49498 17.8093 8.49498 17.8201C8.49498 17.831 8.48821 17.843 8.48821 17.8539C8.48821 17.8649 8.48483 17.8768 8.48483 17.8878C8.48483 17.8988 8.48145 17.9071 8.48145 17.9182C8.48145 17.9293 8.48145 17.941 8.48145 17.952C8.48145 17.9631 8.48145 17.9748 8.48145 17.9859C8.48145 17.9969 8.48483 18.0087 8.48483 18.0197C8.48483 18.0307 8.48821 18.0392 8.48821 18.0501C8.48821 18.0611 8.49498 18.0731 8.49498 18.084C8.49498 18.0948 8.50174 18.107 8.50174 18.1178C8.50174 18.1285 8.51189 18.1376 8.51189 18.1482C8.51189 18.1588 8.51831 18.1682 8.52204 18.1787C8.52577 18.1891 8.52794 18.2023 8.53219 18.2125C8.53642 18.2227 8.54098 18.2329 8.54572 18.243C8.55045 18.253 8.55741 18.2602 8.56263 18.27C8.56785 18.2798 8.57046 18.291 8.57616 18.3005C8.58185 18.3099 8.5903 18.3183 8.59646 18.3275C8.60261 18.3367 8.60677 18.3457 8.61337 18.3546C8.61997 18.3635 8.62665 18.3731 8.63367 18.3816C8.6407 18.3902 8.64991 18.3971 8.65735 18.4053C8.66478 18.4135 8.67319 18.4246 8.68102 18.4324C8.68886 18.4402 8.6965 18.4452 8.7047 18.4527C8.7129 18.4601 8.71982 18.4693 8.72838 18.4764C8.73694 18.4834 8.74655 18.4901 8.75544 18.4967C8.76434 18.5033 8.77329 18.5074 8.78251 18.5136C8.79172 18.5197 8.80007 18.5282 8.80957 18.5339C8.81906 18.5395 8.83024 18.5456 8.84001 18.5508C8.84977 18.556 8.85706 18.5596 8.86707 18.5643C8.87709 18.569 8.88729 18.5736 8.89752 18.5778C8.90775 18.5821 8.92092 18.5843 8.93134 18.588C8.94177 18.5917 8.95118 18.6015 8.96179 18.6015C8.97238 18.6015 8.98149 18.6083 8.99223 18.6083C9.00298 18.6083 9.01521 18.615 9.02606 18.615C9.03693 18.615 9.04894 18.6218 9.05989 18.6218C9.07084 18.6218 9.07931 18.6252 9.09033 18.6252C9.10135 18.6252 9.1131 18.6286 9.12416 18.6286C9.13522 18.6286 9.14692 18.6286 9.15799 18.6286L13.2139 18.6286C13.2249 18.6286 13.2366 18.6286 13.2477 18.6286C13.2587 18.6286 13.2671 18.6252 13.2781 18.6252C13.2891 18.6252 13.301 18.6218 13.3119 18.6218C13.3229 18.6218 13.3349 18.615 13.3458 18.615C13.3566 18.615 13.3655 18.6083 13.3762 18.6083C13.387 18.6083 13.3994 18.6015 13.41 18.6015C13.4206 18.6015 13.4301 18.5917 13.4405 18.588C13.4509 18.5843 13.4607 18.5821 13.4709 18.5778C13.4812 18.5736 13.4914 18.569 13.5014 18.5643C13.5114 18.5596 13.5221 18.556 13.5318 18.5508C13.5416 18.5455 13.5528 18.5395 13.5623 18.5339C13.5718 18.5282 13.5801 18.5197 13.5893 18.5136C13.5985 18.5074 13.6075 18.5032 13.6164 18.4967C13.6253 18.49 13.6349 18.4834 13.6435 18.4764C13.652 18.4693 13.6589 18.4601 13.6671 18.4527C13.6753 18.4452 13.683 18.4402 13.6908 18.4324C13.6986 18.4246 13.7071 18.4135 13.7145 18.4053C13.7219 18.3971 13.7278 18.3902 13.7348 18.3816C13.7418 18.3731 13.7485 18.3635 13.7551 18.3546C13.7617 18.3457 13.7692 18.3367 13.7754 18.3275C13.7815 18.3183 13.7866 18.3099 13.7923 18.3005C13.798 18.291 13.804 18.2798 13.8092 18.27C13.8144 18.2602 13.8214 18.253 13.8261 18.243C13.8309 18.2329 13.8354 18.2227 13.8397 18.2125C13.8439 18.2023 13.8461 18.1891 13.8498 18.1787C13.8535 18.1682 13.8599 18.1588 13.8599 18.1482C13.8599 18.1376 13.8701 18.1285 13.8701 18.1178C13.8701 18.107 13.8769 18.0948 13.8769 18.084C13.8769 18.0731 13.8836 18.0611 13.8836 18.0501C13.8836 18.0392 13.887 18.0307 13.887 18.0197C13.887 18.0087 13.8904 17.9969 13.8904 17.9859C13.8904 17.9748 13.8904 17.9631 13.8904 17.952C13.8904 17.941 13.8904 17.9293 13.8904 17.9182C13.8904 17.9071 13.887 17.8988 13.887 17.8878C13.887 17.8768 13.8836 17.8649 13.8836 17.8539C13.8836 17.843 13.8769 17.831 13.8769 17.8201C13.8769 17.8093 13.8701 17.8004 13.8701 17.7897C13.8701 17.7789 13.8599 17.7664 13.8599 17.7558C13.8599 17.7452 13.8535 17.7358 13.8498 17.7254C13.8461 17.715 13.8439 17.7052 13.8397 17.695C13.8354 17.6847 13.8309 17.6745 13.8261 17.6645C13.8214 17.6545 13.8144 17.6438 13.8092 17.6341C13.804 17.6243 13.798 17.6131 13.7923 17.6036C13.7866 17.5941 13.7815 17.5858 13.7754 17.5766C13.7692 17.5673 13.7617 17.5584 13.7551 17.5495C13.7485 17.5406 13.7418 17.531 13.7348 17.5224C13.7278 17.5139 13.7219 17.507 13.7145 17.4988C13.7071 17.4905 13.6986 17.4829 13.6908 17.4751C13.683 17.4673 13.6753 17.4588 13.6671 17.4514C13.6589 17.444 13.652 17.4347 13.6435 17.4277C13.6349 17.4207 13.6253 17.414 13.6164 17.4074C13.6075 17.4008 13.5985 17.3967 13.5893 17.3905C13.5801 17.3843 13.5718 17.3793 13.5623 17.3736C13.5528 17.3679 13.5416 17.3619 13.5318 17.3567C13.5221 17.3515 13.5114 17.3445 13.5014 17.3398C13.4914 17.335 13.4812 17.3305 13.4709 17.3262C13.4607 17.322 13.4509 17.3198 13.4405 17.3161C13.4301 17.3124 13.4206 17.3059 13.41 17.3059C13.3994 17.3059 13.387 17.2958 13.3762 17.2958C13.3655 17.2958 13.3566 17.289 13.3458 17.289C13.3349 17.289 13.3229 17.2823 13.3119 17.2823C13.301 17.2823 13.2891 17.2789 13.2781 17.2789C13.2671 17.2789 13.2587 17.2755 13.2477 17.2755C13.2366 17.2755 13.2249 17.2755 13.2139 17.2755L9.15799 17.2755Z"   fill="#034FA1" ></path><path d="M11.2068 12.2001C11.2178 12.2001 11.2296 12.2001 11.2406 12.2001C11.2517 12.2001 11.2635 12.2001 11.2745 12.2001C11.2855 12.2001 11.2972 12.1942 11.3082 12.1942C11.3191 12.1942 11.3279 12.1912 11.3387 12.1912C11.3496 12.1912 11.3618 12.1823 11.3726 12.1823C11.3833 12.1823 11.3924 12.1764 11.403 12.1764C11.4136 12.1764 11.4264 12.1708 11.4368 12.1675C11.4473 12.1643 11.457 12.1594 11.4672 12.1557C11.4774 12.1519 11.4876 12.148 11.4976 12.1438C11.5076 12.1396 11.515 12.1365 11.5247 12.1319C11.5345 12.1274 11.5456 12.1221 11.5551 12.1171C11.5646 12.1121 11.573 12.1077 11.5822 12.1023C11.5914 12.0969 11.6004 12.0903 11.6093 12.0845C11.6182 12.0787 11.6278 12.0728 11.6364 12.0667C11.6449 12.0606 11.6518 12.0554 11.66 12.0489C11.6682 12.0424 11.6792 12.035 11.6871 12.0281C11.6949 12.0213 11.7 12.0146 11.7074 12.0074C11.7148 12.0002 11.724 11.9912 11.731 11.9837C11.738 11.9762 11.7447 11.9707 11.7513 11.9629C11.7579 11.9551 11.7622 11.9472 11.7683 11.9392C11.7745 11.9311 11.783 11.9208 11.7887 11.9125C11.7943 11.9042 11.7968 11.8973 11.802 11.8888C11.8073 11.8802 11.8143 11.8709 11.819 11.8621C11.8238 11.8533 11.8284 11.8444 11.8326 11.8354C11.8368 11.8264 11.8389 11.8178 11.8427 11.8087C11.8464 11.7996 11.8529 11.7913 11.8529 11.782C11.8529 11.7727 11.863 11.7618 11.863 11.7524C11.863 11.743 11.8698 11.7352 11.8698 11.7257C11.8698 11.7162 11.8765 11.7056 11.8765 11.696C11.8765 11.6864 11.88 11.676 11.88 11.6664C11.88 11.6567 11.8833 11.6464 11.8833 11.6367C11.8833 11.627 11.8833 11.6197 11.8833 11.61L11.8831 8.05744C11.8831 8.04774 11.8831 8.03747 11.8831 8.02779C11.8831 8.01809 11.8797 8.00779 11.8797 7.99813C11.8797 7.98848 11.8763 7.98104 11.8763 7.97144C11.8763 7.96185 11.8695 7.95131 11.8695 7.94179C11.8695 7.93227 11.8628 7.92154 11.8628 7.91214C11.8628 7.90272 11.8526 7.89473 11.8526 7.88545C11.8526 7.87617 11.8462 7.86789 11.8425 7.85876C11.8387 7.84962 11.8366 7.84103 11.8323 7.83207C11.8281 7.82311 11.8235 7.81416 11.8188 7.80538C11.8141 7.79661 11.8071 7.78724 11.8019 7.77869C11.7967 7.77013 11.794 7.76033 11.7884 7.752C11.7827 7.74369 11.7742 7.73635 11.7681 7.72828C11.7619 7.72021 11.7577 7.71234 11.7511 7.70456C11.7445 7.69676 11.7379 7.68834 11.7308 7.68083C11.7238 7.67333 11.7146 7.66726 11.7072 7.66007C11.6997 7.65288 11.6913 7.64617 11.6835 7.63932C11.6757 7.63245 11.668 7.62507 11.6598 7.61856C11.6516 7.61204 11.6447 7.60395 11.6361 7.5978C11.6276 7.59164 11.618 7.58578 11.6091 7.58001C11.6002 7.57422 11.5912 7.57056 11.582 7.56518C11.5728 7.55978 11.5644 7.55534 11.5549 7.55035C11.5454 7.54536 11.5343 7.5401 11.5245 7.53553C11.5147 7.53095 11.5074 7.52485 11.4974 7.5207C11.4874 7.51656 11.4772 7.51256 11.467 7.50884C11.4568 7.50513 11.4436 7.50321 11.4332 7.49994C11.4227 7.49667 11.4133 7.49104 11.4027 7.49104C11.3921 7.49104 11.383 7.48215 11.3723 7.48215C11.3615 7.48215 11.3493 7.47622 11.3385 7.47622C11.3276 7.47622 11.3156 7.47029 11.3046 7.47029C11.2937 7.47029 11.2852 7.46732 11.2742 7.46732C11.2632 7.46732 11.2514 7.46436 11.2404 7.46436C11.2293 7.46436 11.2176 7.46436 11.2065 7.46436C11.1954 7.46436 11.1837 7.46436 11.1727 7.46436C11.1616 7.46436 11.1499 7.46732 11.1389 7.46732C11.1279 7.46732 11.1194 7.47029 11.1084 7.47029C11.0975 7.47029 11.0855 7.47622 11.0746 7.47622C11.0637 7.47622 11.0515 7.48215 11.0408 7.48215C11.03 7.48215 11.0209 7.49104 11.0103 7.49104C10.9997 7.49104 10.9903 7.49667 10.9799 7.49994C10.9695 7.50321 10.9597 7.50513 10.9494 7.50884C10.9392 7.51256 10.929 7.51656 10.919 7.5207C10.909 7.52485 10.8983 7.53095 10.8886 7.53553C10.8788 7.5401 10.8676 7.54536 10.8581 7.55035C10.8486 7.55534 10.8402 7.5598 10.831 7.56518C10.8218 7.57058 10.8129 7.57422 10.804 7.58001C10.7951 7.58578 10.7855 7.59164 10.7769 7.5978C10.7684 7.60395 10.7614 7.61204 10.7532 7.61856C10.745 7.62507 10.7374 7.63245 10.7296 7.63932C10.7217 7.64617 10.7133 7.65288 10.7059 7.66007C10.6984 7.66726 10.6926 7.67333 10.6856 7.68083C10.6786 7.68834 10.6685 7.69676 10.6619 7.70456C10.6553 7.71234 10.6511 7.72021 10.645 7.72828C10.6388 7.73635 10.6338 7.74369 10.6281 7.752C10.6224 7.76033 10.6164 7.77013 10.6112 7.77869C10.606 7.78724 10.599 7.79661 10.5943 7.80538C10.5895 7.81416 10.585 7.82311 10.5807 7.83207C10.5765 7.84103 10.5743 7.84962 10.5706 7.85876C10.5669 7.86789 10.5604 7.87617 10.5604 7.88545C10.5604 7.89473 10.5503 7.90272 10.5503 7.91214C10.5503 7.92154 10.5435 7.93227 10.5435 7.94179C10.5435 7.95131 10.5367 7.96185 10.5367 7.97144C10.5367 7.98104 10.5334 7.98848 10.5334 7.99813C10.5334 8.00779 10.53 8.01809 10.53 8.02779C10.53 8.03747 10.53 8.04774 10.53 8.05744L10.5302 11.61C10.5302 11.9377 10.8348 12.2001 11.2068 12.2001Z"   fill="#034FA1" ></path><path d="M13.5747 9.8323C13.5747 9.82124 13.5747 9.80949 13.5747 9.79844C13.5747 9.78739 13.5747 9.7756 13.5747 9.76458C13.5747 9.75357 13.5687 9.74183 13.5687 9.73089C13.5687 9.71994 13.5658 9.71117 13.5658 9.70033C13.5658 9.68948 13.5569 9.67721 13.5569 9.66647C13.5569 9.65574 13.5509 9.64666 13.5509 9.63608C13.5509 9.62549 13.5453 9.61263 13.542 9.60222C13.5388 9.5918 13.5339 9.58205 13.5302 9.57183C13.5265 9.56162 13.5225 9.55144 13.5183 9.54144C13.5142 9.53143 13.511 9.5241 13.5064 9.51435C13.5019 9.50459 13.4966 9.49345 13.4916 9.48396C13.4866 9.47447 13.4822 9.46607 13.4768 9.45687C13.4714 9.44768 13.4648 9.43867 13.459 9.42978C13.4532 9.4209 13.4474 9.41124 13.4412 9.40269C13.4351 9.39413 13.4299 9.38726 13.4234 9.37907C13.4169 9.37089 13.4095 9.35982 13.4027 9.35198C13.3958 9.34417 13.3891 9.33909 13.3819 9.33167C13.3747 9.32425 13.3657 9.31507 13.3582 9.30805C13.3507 9.30104 13.3452 9.29432 13.3374 9.28773C13.3296 9.28115 13.3218 9.27686 13.3137 9.27072C13.3056 9.26458 13.2953 9.25609 13.287 9.2504C13.2787 9.24472 13.2718 9.24223 13.2633 9.23703C13.2547 9.23181 13.2454 9.22474 13.2366 9.22001C13.2278 9.21529 13.2189 9.21069 13.2099 9.20647C13.2009 9.20224 13.1923 9.20012 13.1832 9.19639C13.1741 9.19268 13.1658 9.18615 13.1565 9.18615C13.1472 9.18615 13.1363 9.17608 13.1269 9.17608C13.1175 9.17608 13.1097 9.16931 13.1002 9.16931C13.0907 9.16931 13.0801 9.16253 13.0705 9.16253C13.0609 9.16253 13.0505 9.15907 13.0409 9.15907C13.0312 9.15907 13.0209 9.15576 13.0112 9.15576C13.0015 9.15576 12.9942 9.15576 12.9845 9.15576L9.43195 9.156C9.42226 9.156 9.41199 9.156 9.4023 9.156C9.3926 9.156 9.3823 9.15938 9.37264 9.15938C9.36299 9.15938 9.35556 9.16276 9.34596 9.16276C9.33637 9.16276 9.32583 9.16953 9.3163 9.16953C9.30679 9.16953 9.29605 9.17629 9.28665 9.17629C9.27723 9.17629 9.26925 9.18644 9.25996 9.18644C9.25068 9.18644 9.24241 9.19286 9.23327 9.19659C9.22413 9.20033 9.21554 9.20251 9.20658 9.20674C9.19762 9.21097 9.18867 9.21553 9.17989 9.22027C9.17112 9.225 9.16175 9.23196 9.1532 9.23718C9.14464 9.2424 9.13484 9.24503 9.12651 9.25071C9.1182 9.25641 9.11087 9.26487 9.10279 9.27101C9.09473 9.27716 9.08685 9.28133 9.07907 9.28792C9.07127 9.29452 9.06285 9.3012 9.05534 9.30822C9.04784 9.31525 9.04177 9.32447 9.03459 9.3319C9.0274 9.33933 9.02068 9.34774 9.01383 9.35558C9.00696 9.36339 8.99958 9.37105 8.99307 9.37925C8.98655 9.38745 8.97846 9.39438 8.97231 9.40293C8.96615 9.41148 8.96029 9.4211 8.95452 9.42999C8.94874 9.43889 8.94508 9.44786 8.93969 9.45706C8.9343 9.46626 8.92985 9.47462 8.92486 9.48412C8.91987 9.49361 8.91461 9.50481 8.91004 9.51456C8.90546 9.52433 8.89936 9.53162 8.89521 9.54162C8.89107 9.55163 8.88707 9.56184 8.88335 9.57207C8.87964 9.58231 8.87772 9.59549 8.87445 9.6059C8.87118 9.61632 8.86556 9.62575 8.86556 9.63634C8.86556 9.64693 8.85666 9.65604 8.85666 9.66678C8.85666 9.67751 8.85073 9.68976 8.85073 9.70061C8.85073 9.71146 8.8448 9.72349 8.8448 9.73444C8.8448 9.74539 8.84183 9.75387 8.84183 9.76488C8.84183 9.7759 8.83887 9.78766 8.83887 9.79871C8.83887 9.80977 8.83887 9.82147 8.83887 9.83254C8.83887 9.84361 8.83887 9.85531 8.83887 9.86636C8.83887 9.87742 8.84183 9.88918 8.84183 9.90019C8.84183 9.91121 8.8448 9.91968 8.8448 9.93064C8.8448 9.94159 8.85073 9.95361 8.85073 9.96446C8.85073 9.97532 8.85666 9.98755 8.85666 9.99829C8.85666 10.009 8.86556 10.0181 8.86556 10.0287C8.86556 10.0393 8.87118 10.0488 8.87445 10.0592C8.87772 10.0696 8.87964 10.0794 8.88335 10.0896C8.88707 10.0998 8.89107 10.1101 8.89521 10.1201C8.89936 10.1301 8.90546 10.1407 8.91004 10.1505C8.91461 10.1603 8.91987 10.1715 8.92486 10.181C8.92985 10.1905 8.93431 10.1988 8.93969 10.208C8.94509 10.2172 8.94874 10.2262 8.95452 10.2351C8.96029 10.244 8.96615 10.2536 8.97231 10.2621C8.97846 10.2707 8.98655 10.2776 8.99307 10.2858C8.99958 10.294 9.00696 10.3017 9.01383 10.3095C9.02068 10.3173 9.0274 10.3257 9.03459 10.3332C9.04177 10.3406 9.04784 10.3465 9.05534 10.3535C9.06285 10.3605 9.07127 10.3706 9.07907 10.3772C9.08685 10.3837 9.09473 10.3879 9.10279 10.3941C9.11087 10.4002 9.1182 10.4053 9.12651 10.411C9.13484 10.4167 9.14464 10.4227 9.1532 10.4279C9.16175 10.4331 9.17112 10.4401 9.17989 10.4448C9.18867 10.4495 9.19762 10.4541 9.20658 10.4583C9.21554 10.4626 9.22413 10.4648 9.23327 10.4685C9.24241 10.4722 9.25068 10.4786 9.25996 10.4786C9.26925 10.4786 9.27723 10.4888 9.28665 10.4888C9.29605 10.4888 9.30679 10.4955 9.3163 10.4955C9.32583 10.4955 9.33637 10.5023 9.34596 10.5023C9.35556 10.5023 9.36299 10.5057 9.37264 10.5057C9.3823 10.5057 9.3926 10.5091 9.4023 10.5091C9.41199 10.5091 9.42226 10.5091 9.43195 10.5091L12.9845 10.5088C13.3122 10.5088 13.5747 10.2042 13.5747 9.8323Z"   fill="#034FA1" ></path><path d="M14.5684 20.3012L7.76521 20.3012C7.75416 20.3012 7.74312 20.3009 7.73206 20.3004C7.72103 20.2998 7.71 20.299 7.699 20.2979C7.68799 20.2968 7.67702 20.2955 7.66609 20.2938C7.65515 20.2922 7.64426 20.2903 7.63342 20.2881C7.62258 20.286 7.61179 20.2835 7.60106 20.2808C7.59033 20.2781 7.5797 20.2752 7.56911 20.272C7.55853 20.2687 7.54804 20.2653 7.53763 20.2615C7.52723 20.2578 7.51691 20.2538 7.5067 20.2496C7.49649 20.2453 7.48639 20.2408 7.4764 20.2361C7.46641 20.2314 7.45655 20.2264 7.4468 20.2212C7.43705 20.2159 7.42743 20.2105 7.41796 20.2048C7.40849 20.1991 7.39914 20.1932 7.38995 20.187C7.38077 20.1809 7.37173 20.1745 7.36285 20.1679C7.35399 20.1613 7.34527 20.1545 7.33673 20.1475C7.3282 20.1404 7.31984 20.1332 7.31164 20.1258C7.30347 20.1184 7.29546 20.1107 7.28765 20.1029C7.27984 20.0951 7.27222 20.0871 7.2648 20.0789C7.25738 20.0707 7.25017 20.0623 7.24316 20.0537C7.23617 20.0452 7.22938 20.0365 7.22279 20.0276C7.21621 20.0187 7.20986 20.0096 7.20372 20.0004C7.1976 19.9913 7.19169 19.9819 7.186 19.9724C7.18034 19.9629 7.1749 19.9533 7.16968 19.9435C7.16448 19.9338 7.15952 19.9239 7.15481 19.9139C7.15009 19.9039 7.14561 19.8938 7.1414 19.8836C7.13718 19.8734 7.1332 19.863 7.12948 19.8526C7.12578 19.8422 7.12232 19.8317 7.1191 19.8211C7.11592 19.8105 7.11298 19.7999 7.1103 19.7891C7.10763 19.7784 7.10521 19.7676 7.10306 19.7568C7.10092 19.746 7.09905 19.7351 7.09742 19.7241C7.09581 19.7132 7.09446 19.7022 7.09339 19.6912C7.09232 19.6802 7.09152 19.6692 7.09098 19.6581C7.09047 19.6471 7.09021 19.636 7.09021 19.625L7.09021 7.45967C7.09021 7.44861 7.09047 7.43757 7.09098 7.42652C7.09152 7.41548 7.09232 7.40445 7.09339 7.39345C7.09446 7.38246 7.09581 7.37149 7.09742 7.36053C7.09905 7.3496 7.10092 7.33871 7.10306 7.32785C7.10521 7.31701 7.10763 7.30622 7.1103 7.29549C7.11298 7.28476 7.11592 7.27411 7.1191 7.26353C7.12232 7.25294 7.12578 7.24244 7.12948 7.23202C7.1332 7.22162 7.13718 7.2113 7.1414 7.20107C7.14561 7.19086 7.15009 7.18074 7.15481 7.17073C7.15952 7.16074 7.16448 7.15087 7.16968 7.1411C7.1749 7.13135 7.18034 7.12173 7.186 7.11224C7.19169 7.10275 7.1976 7.09341 7.20372 7.08419C7.20986 7.075 7.21621 7.06595 7.22279 7.05707C7.22938 7.04819 7.23617 7.03946 7.24316 7.03092C7.25017 7.02237 7.25738 7.01399 7.2648 7.00578C7.27222 6.99758 7.27984 6.98957 7.28765 6.98175C7.29546 6.97392 7.30347 6.96628 7.31164 6.95884C7.31984 6.95143 7.3282 6.94419 7.33673 6.93716C7.34527 6.93015 7.35399 6.92334 7.36285 6.91674C7.37173 6.91015 7.38077 6.90377 7.38995 6.89761C7.39914 6.89147 7.40849 6.88555 7.41796 6.87985C7.42743 6.87415 7.43705 6.8687 7.4468 6.86348C7.45655 6.85826 7.46641 6.85329 7.4764 6.84853C7.48639 6.8438 7.49649 6.83932 7.5067 6.83507C7.51691 6.83085 7.52723 6.82685 7.53763 6.82312C7.54804 6.81938 7.55853 6.8159 7.56911 6.81268C7.5797 6.80946 7.59033 6.8065 7.60106 6.8038C7.61179 6.8011 7.62258 6.79868 7.63342 6.79651C7.64426 6.79435 7.65515 6.79244 7.66609 6.79082C7.67702 6.78919 7.68799 6.78782 7.699 6.78671C7.71 6.78564 7.72103 6.7848 7.73206 6.78425C7.74312 6.78369 7.75416 6.78342 7.76521 6.7834L18.6297 6.7834C19.0023 6.7834 19.3041 7.08586 19.3041 7.45967L19.3041 13.5531C19.3041 13.5641 19.3044 13.5752 19.3049 13.5862C19.3054 13.5972 19.3062 13.6083 19.3073 13.6192C19.3084 13.6302 19.3097 13.6412 19.3114 13.6521C19.3129 13.6631 19.3148 13.674 19.317 13.6848C19.3191 13.6956 19.3215 13.7064 19.3242 13.7171C19.3269 13.7279 19.3298 13.7385 19.333 13.7491C19.3362 13.7597 19.3397 13.7702 19.3434 13.7806C19.3471 13.791 19.3511 13.8013 19.3553 13.8115C19.3595 13.8217 19.3639 13.8318 19.3686 13.8418C19.3734 13.8518 19.3783 13.8617 19.3835 13.8714C19.3887 13.8812 19.3941 13.8908 19.3998 13.9003C19.4055 13.9098 19.4114 13.9191 19.4175 13.9283C19.4236 13.9375 19.43 13.9466 19.4366 13.9555C19.4431 13.9643 19.4499 13.9731 19.4569 13.9816C19.4639 13.9902 19.4711 13.9985 19.4785 14.0067C19.4859 14.0149 19.4936 14.023 19.5014 14.0308C19.5092 14.0386 19.5172 14.0462 19.5253 14.0536C19.5335 14.0611 19.5419 14.0683 19.5504 14.0753C19.5589 14.0824 19.5676 14.0892 19.5765 14.0958C19.5853 14.1024 19.5944 14.1087 19.6035 14.1149C19.6127 14.121 19.622 14.127 19.6315 14.1327C19.641 14.1384 19.6506 14.1438 19.6603 14.149C19.6701 14.1543 19.6799 14.1593 19.6899 14.164C19.6999 14.1687 19.71 14.1732 19.7202 14.1775C19.7304 14.1817 19.7407 14.1857 19.7511 14.1894C19.7615 14.1932 19.772 14.1967 19.7825 14.1999C19.7931 14.2031 19.8037 14.2061 19.8145 14.2088C19.8252 14.2115 19.836 14.2139 19.8468 14.2161C19.8576 14.2183 19.8685 14.2202 19.8794 14.2218C19.8904 14.2235 19.9013 14.2249 19.9123 14.2259C19.9233 14.2271 19.9343 14.2279 19.9454 14.2284C19.9564 14.229 19.9674 14.2293 19.9785 14.2293C19.9896 14.2293 20.0006 14.229 20.0116 14.2284C20.0227 14.2279 20.0337 14.2271 20.0447 14.2259C20.0557 14.2249 20.0666 14.2235 20.0776 14.2218C20.0885 14.2202 20.0994 14.2183 20.1102 14.2161C20.121 14.2139 20.1318 14.2115 20.1425 14.2088C20.1532 14.2061 20.1639 14.2031 20.1745 14.1999C20.185 14.1967 20.1955 14.1932 20.2059 14.1894C20.2163 14.1857 20.2266 14.1817 20.2368 14.1775C20.247 14.1732 20.2571 14.1687 20.2671 14.164C20.2771 14.1593 20.2869 14.1543 20.2967 14.149C20.3064 14.1438 20.316 14.1384 20.3255 14.1327C20.3349 14.127 20.3443 14.1211 20.3534 14.1149C20.3626 14.1088 20.3717 14.1024 20.3805 14.0958C20.3894 14.0892 20.3981 14.0824 20.4066 14.0753C20.4152 14.0683 20.4235 14.0611 20.4317 14.0536C20.4399 14.0462 20.4479 14.0386 20.4557 14.0308C20.4635 14.023 20.4711 14.0149 20.4785 14.0067C20.4859 13.9985 20.4931 13.9902 20.5001 13.9816C20.5071 13.9731 20.5139 13.9643 20.5205 13.9555C20.527 13.9466 20.5334 13.9375 20.5395 13.9283C20.5456 13.9191 20.5515 13.9098 20.5572 13.9003C20.5629 13.8908 20.5683 13.8812 20.5735 13.8714C20.5787 13.8617 20.5837 13.8518 20.5884 13.8418C20.5931 13.8318 20.5975 13.8217 20.6017 13.8115C20.606 13.8013 20.6099 13.791 20.6136 13.7806C20.6174 13.7702 20.6208 13.7597 20.624 13.7491C20.6272 13.7385 20.6301 13.7279 20.6328 13.7171C20.6355 13.7064 20.6379 13.6956 20.64 13.6848C20.6422 13.674 20.6441 13.6631 20.6457 13.6521C20.6473 13.6412 20.6486 13.6302 20.6497 13.6192C20.6508 13.6083 20.6516 13.5972 20.6521 13.5862C20.6526 13.5752 20.6529 13.5641 20.6529 13.5531L20.6529 6.7834C20.6529 6.76127 20.6524 6.73917 20.6514 6.71704C20.6503 6.69493 20.6487 6.67286 20.6465 6.65083C20.6444 6.6288 20.6417 6.60684 20.6385 6.58494C20.6353 6.56304 20.6315 6.54122 20.6273 6.51951C20.623 6.49781 20.6181 6.47622 20.6128 6.45472C20.6074 6.43326 20.6015 6.41193 20.5951 6.39073C20.5888 6.36953 20.5818 6.34852 20.5744 6.32767C20.5669 6.30682 20.559 6.28618 20.5506 6.26572C20.5421 6.24526 20.5332 6.22502 20.5237 6.205C20.5143 6.18499 20.5043 6.16521 20.4939 6.14568C20.4835 6.12614 20.4726 6.10688 20.4613 6.08788C20.4499 6.06889 20.4381 6.05018 20.4258 6.03176C20.4135 6.01335 20.4008 5.99526 20.3876 5.97746C20.3744 5.95967 20.3608 5.94222 20.3468 5.92509C20.3328 5.90798 20.3184 5.89122 20.3035 5.87479C20.2887 5.85838 20.2734 5.84234 20.2578 5.82668C20.2421 5.81103 20.2261 5.79575 20.2097 5.78087C20.1933 5.766 20.1766 5.75153 20.1595 5.73747C20.1424 5.72343 20.1249 5.70982 20.1072 5.69661C20.0894 5.68342 20.0713 5.67067 20.0529 5.65835C20.0345 5.64605 20.0158 5.63421 19.9968 5.62282C19.9779 5.61142 19.9586 5.6005 19.9391 5.59007C19.9196 5.57964 19.8998 5.56967 19.8798 5.5602C19.8598 5.55072 19.8396 5.54175 19.8191 5.53328C19.7987 5.52481 19.778 5.51683 19.7572 5.50936C19.7364 5.5019 19.7154 5.49495 19.6942 5.48851C19.673 5.48209 19.6517 5.47619 19.6302 5.47081C19.6087 5.46542 19.5872 5.46058 19.5654 5.45625C19.5437 5.45192 19.5219 5.44815 19.5001 5.44489C19.4782 5.44163 19.4562 5.43893 19.4342 5.43675C19.4121 5.43459 19.3901 5.43296 19.368 5.43187C19.3459 5.43079 19.3237 5.43024 19.3016 5.43024L17.9699 5.43024L17.9699 4.0979C17.9699 4.07578 17.9694 4.05366 17.9683 4.03156C17.9673 4.00946 17.9656 3.98739 17.9635 3.96537C17.9614 3.94335 17.9587 3.92139 17.9554 3.8995C17.9522 3.87761 17.9484 3.85581 17.9442 3.8341C17.9399 3.8124 17.935 3.79081 17.9297 3.76934C17.9243 3.74787 17.9184 3.72655 17.912 3.70537C17.9056 3.68419 17.8987 3.66318 17.8912 3.64234C17.8838 3.6215 17.8759 3.60085 17.8674 3.5804C17.8589 3.55995 17.85 3.53973 17.8405 3.51971C17.8311 3.4997 17.8212 3.47994 17.8108 3.46042C17.8003 3.4409 17.7894 3.42164 17.7781 3.40266C17.7667 3.38367 17.7549 3.36497 17.7426 3.34657C17.7303 3.32816 17.7176 3.31007 17.7044 3.29229C17.6913 3.27451 17.6777 3.25706 17.6636 3.23995C17.6496 3.22283 17.6351 3.20608 17.6203 3.18967C17.6055 3.17327 17.5902 3.15724 17.5746 3.14159C17.5589 3.12593 17.5429 3.11067 17.5265 3.09581C17.5101 3.08094 17.4934 3.06648 17.4763 3.05244C17.4592 3.03839 17.4418 3.02478 17.424 3.01159C17.4062 2.9984 17.3881 2.98566 17.3697 2.97336C17.3513 2.96106 17.3327 2.94921 17.3137 2.93783C17.2947 2.92645 17.2755 2.91554 17.2559 2.9051C17.2365 2.89467 17.2167 2.88472 17.1967 2.87525C17.1767 2.86578 17.1565 2.85681 17.136 2.84834C17.1156 2.83987 17.0949 2.8319 17.0741 2.82444C17.0533 2.81699 17.0323 2.81004 17.0111 2.80362C16.9899 2.79719 16.9686 2.79129 16.9471 2.78591C16.9257 2.78053 16.9041 2.77568 16.8824 2.77136C16.8607 2.76704 16.8389 2.76325 16.817 2.76C16.7951 2.75676 16.7732 2.75405 16.7512 2.75188C16.7291 2.74971 16.7071 2.74808 16.685 2.74699C16.6629 2.7459 16.6407 2.74536 16.6186 2.74536L4.40597 2.74536C3.65961 2.74536 3.05469 3.35154 3.05469 4.09853L3.05469 17.6164C3.05466 17.6385 3.05517 17.6606 3.05623 17.6827C3.05728 17.7048 3.05888 17.7269 3.06102 17.7489C3.06316 17.771 3.06584 17.7929 3.06906 17.8148C3.07228 17.8367 3.07604 17.8585 3.08033 17.8803C3.08462 17.902 3.08944 17.9236 3.09479 17.945C3.10015 17.9665 3.10603 17.9878 3.11243 18.009C3.11883 18.0302 3.12574 18.0512 3.13318 18.0721C3.14061 18.0929 3.14855 18.1136 3.157 18.134C3.16545 18.1545 3.1744 18.1747 3.18384 18.1948C3.19329 18.2148 3.20322 18.2346 3.21363 18.2541C3.22405 18.2736 3.23494 18.2929 3.2463 18.3119C3.25766 18.3309 3.26948 18.3496 3.28176 18.368C3.29404 18.3864 3.30677 18.4045 3.31994 18.4223C3.33311 18.4401 3.34671 18.4576 3.36074 18.4747C3.37477 18.4918 3.38921 18.5086 3.40406 18.525C3.41891 18.5414 3.43416 18.5574 3.4498 18.5731C3.46544 18.5888 3.48145 18.604 3.49785 18.6189C3.51424 18.6338 3.53098 18.6482 3.54808 18.6623C3.56519 18.6763 3.58262 18.69 3.60039 18.7032C3.61816 18.7164 3.63625 18.7291 3.65465 18.7414C3.67304 18.7537 3.69173 18.7656 3.71071 18.7769C3.72969 18.7883 3.74894 18.7993 3.76846 18.8097C3.78797 18.8201 3.80773 18.8301 3.82774 18.8396C3.84774 18.849 3.86797 18.858 3.88842 18.8665C3.90886 18.875 3.92951 18.8829 3.95035 18.8904C3.97118 18.8979 3.99219 18.9048 4.01337 18.9113C4.03455 18.9177 4.05588 18.9236 4.07735 18.929C4.09882 18.9344 4.1204 18.9392 4.14211 18.9435C4.16382 18.9478 4.18562 18.9516 4.20752 18.9549C4.22941 18.9581 4.25137 18.9608 4.2734 18.963C4.29543 18.9652 4.3175 18.9668 4.33961 18.9679C4.36171 18.969 4.38383 18.9695 4.40597 18.9695L5.74019 18.9695L5.74019 20.3019C5.74018 20.324 5.74069 20.3461 5.74175 20.3682C5.74282 20.3903 5.74443 20.4124 5.74658 20.4344C5.74872 20.4564 5.75142 20.4784 5.75464 20.5003C5.75788 20.5222 5.76165 20.544 5.76594 20.5657C5.77024 20.5874 5.77506 20.609 5.78043 20.6304C5.78579 20.6519 5.79168 20.6732 5.79808 20.6944C5.80448 20.7156 5.81142 20.7366 5.81885 20.7574C5.82629 20.7783 5.83424 20.7989 5.84268 20.8194C5.85115 20.8398 5.86011 20.86 5.86954 20.8801C5.87899 20.9001 5.88893 20.9198 5.89934 20.9394C5.90976 20.9589 5.92065 20.9781 5.93201 20.9971C5.94337 21.0161 5.95519 21.0348 5.96747 21.0532C5.97976 21.0716 5.99249 21.0897 6.00566 21.1075C6.01883 21.1253 6.03244 21.1427 6.04647 21.1598C6.06049 21.177 6.07494 21.1937 6.08979 21.2101C6.10465 21.2265 6.11989 21.2425 6.13552 21.2582C6.15117 21.2739 6.16717 21.2891 6.18356 21.3039C6.19995 21.3189 6.2167 21.3333 6.23379 21.3474C6.2509 21.3614 6.26835 21.3751 6.2861 21.3883C6.30386 21.4014 6.32196 21.4142 6.34034 21.4264C6.35873 21.4388 6.37742 21.4506 6.3964 21.4619C6.41538 21.4734 6.43463 21.4843 6.45413 21.4946C6.47365 21.5052 6.49341 21.5152 6.5134 21.5246C6.5334 21.534 6.55362 21.5429 6.57406 21.5514C6.5945 21.5599 6.61515 21.5679 6.63598 21.5753C6.65681 21.5829 6.67782 21.5897 6.69899 21.5962C6.72017 21.6027 6.74148 21.6086 6.76294 21.614C6.7844 21.6193 6.80599 21.6241 6.82769 21.6284C6.8494 21.6326 6.8712 21.6365 6.89308 21.6399C6.91497 21.643 6.93692 21.6458 6.95894 21.648C6.98097 21.65 7.00304 21.6517 7.02513 21.6528C7.04723 21.6539 7.06934 21.6545 7.09147 21.6545L14.5677 21.6545C14.5788 21.6545 14.5898 21.6541 14.6008 21.6536C14.6119 21.653 14.6229 21.6523 14.6339 21.6511C14.6449 21.65 14.6559 21.6486 14.6668 21.6469C14.6777 21.6452 14.6886 21.6434 14.6994 21.6412C14.7102 21.6391 14.721 21.6367 14.7318 21.6339C14.7424 21.6312 14.7531 21.6282 14.7637 21.6251C14.7742 21.6219 14.7847 21.6184 14.7951 21.6145C14.8055 21.6108 14.8158 21.6069 14.826 21.6027C14.8362 21.5984 14.8463 21.5938 14.8563 21.5892C14.8663 21.5844 14.8761 21.5794 14.8859 21.5742C14.8956 21.569 14.9052 21.5635 14.9147 21.5577C14.9242 21.552 14.9335 21.5461 14.9427 21.54C14.9518 21.5339 14.9609 21.5274 14.9697 21.5209C14.9786 21.5143 14.9873 21.5074 14.9958 21.5004C15.0044 21.4933 15.0127 21.4861 15.0209 21.4787C15.0291 21.4713 15.037 21.4637 15.0449 21.4558C15.0527 21.448 15.0603 21.4401 15.0677 21.4319C15.0751 21.4236 15.0823 21.4153 15.0893 21.4068C15.0963 21.3981 15.1031 21.3894 15.1096 21.3805C15.1162 21.3716 15.1226 21.3626 15.1287 21.3535C15.1348 21.3442 15.1407 21.3348 15.1464 21.3254C15.1521 21.3159 15.1575 21.3063 15.1627 21.2965C15.1679 21.2867 15.1728 21.2769 15.1776 21.2669C15.1823 21.2569 15.1867 21.2468 15.191 21.2365C15.1952 21.2264 15.1991 21.2161 15.2029 21.2057C15.2066 21.1953 15.21 21.1848 15.2132 21.1742C15.2164 21.1636 15.2193 21.153 15.222 21.1422C15.2247 21.1315 15.2271 21.1207 15.2293 21.1099C15.2314 21.099 15.2333 21.0882 15.2349 21.0772C15.2365 21.0663 15.2378 21.0553 15.2389 21.0443C15.24 21.0333 15.2408 21.0223 15.2413 21.0113C15.2418 21.0003 15.2421 20.9892 15.2421 20.9781C15.2422 20.9671 15.242 20.956 15.2415 20.9449C15.241 20.9339 15.2403 20.9228 15.2392 20.9118C15.2382 20.9008 15.2369 20.8898 15.2354 20.8788C15.2338 20.8679 15.232 20.857 15.2299 20.8461C15.2278 20.8352 15.2254 20.8244 15.2228 20.8137C15.2201 20.8029 15.2172 20.7922 15.2141 20.7816C15.2109 20.771 15.2075 20.7605 15.2038 20.75C15.2001 20.7396 15.1962 20.7292 15.192 20.719C15.1878 20.7087 15.1834 20.6986 15.1787 20.6886C15.174 20.6786 15.169 20.6687 15.1638 20.6589C15.1587 20.6491 15.1532 20.6394 15.1476 20.6299C15.1419 20.6204 15.136 20.611 15.1299 20.6018C15.1238 20.5926 15.1174 20.5835 15.1109 20.5746C15.1043 20.5657 15.0975 20.557 15.0905 20.5484C15.0835 20.5398 15.0763 20.5314 15.0689 20.5232C15.0614 20.515 15.0538 20.5069 15.046 20.4991C15.0382 20.4912 15.0302 20.4836 15.022 20.4762C15.0138 20.4687 15.0054 20.4615 14.9969 20.4544C14.9883 20.4474 14.9796 20.4406 14.9708 20.434C14.9619 20.4274 14.9528 20.421 14.9436 20.4148C14.9344 20.4087 14.9251 20.4027 14.9156 20.397C14.9061 20.3914 14.8964 20.3859 14.8867 20.3807C14.8769 20.3755 14.867 20.3705 14.857 20.3657C14.847 20.361 14.8369 20.3565 14.8267 20.3523C14.8164 20.3481 14.8061 20.3441 14.7957 20.3404C14.7852 20.3366 14.7747 20.3332 14.7641 20.33C14.7535 20.3268 14.7429 20.3238 14.7321 20.3212C14.7214 20.3185 14.7106 20.3161 14.6997 20.3139C14.6889 20.3118 14.6779 20.3099 14.667 20.3083C14.656 20.3067 14.645 20.3054 14.634 20.3043C14.623 20.3033 14.612 20.3025 14.6009 20.302C14.5898 20.3014 14.5788 20.3012 14.5677 20.3012L14.5684 20.3012ZM5.74145 6.7834L5.74145 17.8746L5.08223 17.8746C4.49752 17.8746 4.33841 17.6145 4.33841 16.9376L4.33841 4.77291C4.33841 4.39847 4.48553 3.98235 5.08223 3.98235L15.9468 3.98235C16.3919 3.98235 16.6211 4.24124 16.6211 4.77291L16.6211 5.42833L7.09021 5.42833C7.06808 5.42841 7.04598 5.429 7.02389 5.43015C7.0018 5.43129 6.97975 5.43299 6.95774 5.43521C6.93572 5.43745 6.91378 5.44023 6.8919 5.44352C6.87003 5.44683 6.84826 5.45066 6.82656 5.45503C6.80488 5.45941 6.78333 5.46431 6.76187 5.46973C6.74043 5.47517 6.71913 5.48113 6.69797 5.4876C6.67683 5.49408 6.65585 5.50107 6.63502 5.50858C6.61422 5.51609 6.59362 5.5241 6.57319 5.53261C6.55277 5.54114 6.53259 5.55015 6.51261 5.55966C6.49263 5.56917 6.47291 5.57918 6.45341 5.58965C6.43393 5.60012 6.41471 5.61107 6.39577 5.62248C6.37682 5.63391 6.35818 5.64579 6.33981 5.65811C6.32146 5.67047 6.3034 5.68325 6.28566 5.69646C6.26792 5.70969 6.25051 5.72334 6.23344 5.7374C6.21638 5.75148 6.19968 5.76596 6.1833 5.78085C6.16695 5.79576 6.15099 5.81104 6.13537 5.82671C6.11976 5.8424 6.10455 5.85846 6.08974 5.87487C6.07492 5.89129 6.06051 5.90807 6.0465 5.9252C6.03252 5.94235 6.01896 5.95981 6.00581 5.97761C5.99267 5.99541 5.97998 6.01352 5.96773 6.03194C5.95549 6.05037 5.94368 6.06907 5.93236 6.08807C5.92104 6.10709 5.91018 6.12634 5.89979 6.14586C5.88939 6.1654 5.87949 6.18517 5.87008 6.20519C5.86066 6.22522 5.85174 6.24546 5.84333 6.2659C5.83491 6.28636 5.82699 6.30703 5.81957 6.32786C5.81217 6.3487 5.80527 6.36972 5.79889 6.3909C5.79253 6.41208 5.78666 6.43341 5.78132 6.45487C5.77599 6.47635 5.7712 6.49794 5.76691 6.51964C5.76265 6.54135 5.75891 6.56315 5.7557 6.58503C5.75251 6.60693 5.74985 6.62887 5.7477 6.65089C5.7456 6.67292 5.744 6.69499 5.74295 6.71708C5.74191 6.73917 5.74142 6.76127 5.74145 6.7834Z"   fill="#034FA1" ></path><path d="M20.3673 20.3039L19.9663 20.3039C19.5875 20.3039 19.2837 19.997 19.2837 19.6207L19.2837 17.2105L20.0617 17.9884C20.0695 17.9962 20.0775 18.0039 20.0857 18.0113C20.0939 18.0187 20.1022 18.026 20.1108 18.033C20.1193 18.04 20.128 18.0468 20.1369 18.0534C20.1458 18.06 20.1548 18.0664 20.164 18.0725C20.1732 18.0787 20.1825 18.0846 20.192 18.0903C20.2015 18.096 20.2111 18.1015 20.2209 18.1067C20.2306 18.1119 20.2405 18.1169 20.2505 18.1216C20.2605 18.1263 20.2706 18.1308 20.2808 18.1351C20.2911 18.1393 20.3014 18.1433 20.3118 18.147C20.3222 18.1508 20.3327 18.1542 20.3433 18.1574C20.3539 18.1607 20.3645 18.1636 20.3753 18.1663C20.386 18.169 20.3967 18.1714 20.4076 18.1736C20.4185 18.1758 20.4294 18.1777 20.4403 18.1793C20.4512 18.1809 20.4622 18.1823 20.4732 18.1834C20.4842 18.1845 20.4953 18.1853 20.5063 18.1858C20.5173 18.1864 20.5284 18.1866 20.5395 18.1866C20.5505 18.1866 20.5616 18.1864 20.5726 18.1858C20.5837 18.1853 20.5947 18.1845 20.6057 18.1834C20.6167 18.1823 20.6277 18.181 20.6386 18.1794C20.6496 18.1777 20.6605 18.1759 20.6713 18.1737C20.6822 18.1715 20.693 18.1691 20.7037 18.1664C20.7144 18.1638 20.7251 18.1608 20.7357 18.1576C20.7463 18.1544 20.7568 18.1509 20.7672 18.1472C20.7776 18.1435 20.7879 18.1395 20.7981 18.1353C20.8083 18.131 20.8184 18.1266 20.8284 18.1218C20.8385 18.1171 20.8483 18.1121 20.8581 18.1069C20.8678 18.1017 20.8775 18.0963 20.887 18.0906C20.8965 18.0849 20.9058 18.079 20.915 18.0728C20.9241 18.0667 20.9332 18.0603 20.942 18.0537C20.9509 18.0471 20.9597 18.0403 20.9683 18.0333C20.9768 18.0263 20.9852 18.0191 20.9935 18.0117C21.0016 18.0042 21.0096 17.9966 21.0173 17.9888C21.0252 17.9809 21.0329 17.9729 21.0403 17.9647C21.0477 17.9565 21.0549 17.9482 21.0619 17.9396C21.0689 17.9311 21.0758 17.9224 21.0824 17.9135C21.089 17.9046 21.0953 17.8956 21.1015 17.8864C21.1077 17.8772 21.1136 17.8678 21.1193 17.8583C21.1249 17.8488 21.1304 17.8392 21.1355 17.8295C21.1407 17.8197 21.1457 17.8098 21.1505 17.7998C21.1552 17.7898 21.1596 17.7797 21.1638 17.7695C21.1681 17.7593 21.1722 17.749 21.1759 17.7385C21.1796 17.7281 21.183 17.7176 21.1862 17.707C21.1894 17.6965 21.1924 17.6858 21.1951 17.6751C21.1978 17.6643 21.2002 17.6536 21.2023 17.6427C21.2045 17.6319 21.2064 17.621 21.208 17.61C21.2097 17.5991 21.211 17.5881 21.2121 17.5771C21.2131 17.5661 21.2139 17.555 21.2145 17.544C21.215 17.533 21.2153 17.5219 21.2153 17.5108C21.2153 17.4998 21.215 17.4887 21.2145 17.4777C21.2139 17.4666 21.213 17.4556 21.2119 17.4446C21.2108 17.4336 21.2095 17.4226 21.2079 17.4117C21.2063 17.4007 21.2044 17.3898 21.2023 17.379C21.2001 17.3681 21.1976 17.3573 21.1949 17.3466C21.1922 17.3359 21.1892 17.3252 21.186 17.3146C21.1828 17.3041 21.1794 17.2936 21.1757 17.2832C21.172 17.2727 21.168 17.2624 21.1637 17.2522C21.1595 17.242 21.155 17.2319 21.1501 17.2219C21.1455 17.2119 21.1405 17.202 21.1353 17.1923C21.13 17.1825 21.1246 17.1729 21.1189 17.1634C21.1132 17.1539 21.1073 17.1446 21.1011 17.1354C21.095 17.1262 21.0886 17.1172 21.0821 17.1083C21.0754 17.0994 21.0686 17.0907 21.0615 17.0821C21.0545 17.0736 21.0473 17.0652 21.0399 17.057C21.0325 17.0489 21.0249 17.0409 21.017 17.0331L19.1057 15.1217C19.098 15.1139 19.0901 15.1064 19.0821 15.099C19.074 15.0916 19.0658 15.0845 19.0574 15.0775C19.049 15.0705 19.0404 15.0638 19.0316 15.0573C19.0229 15.0507 19.014 15.0444 19.0049 15.0383C18.9959 15.0322 18.9867 15.0264 18.9773 15.0207C18.968 15.0151 18.9585 15.0097 18.9489 15.0045C18.9393 14.9993 18.9296 14.9944 18.9197 14.9897C18.9098 14.985 18.8999 14.9806 18.8898 14.9764C18.8797 14.9721 18.8696 14.9682 18.8593 14.9645C18.849 14.9608 18.8387 14.9574 18.8282 14.9542C18.8178 14.951 18.8073 14.9481 18.7967 14.9454C18.7861 14.9427 18.7754 14.9403 18.7647 14.9382C18.754 14.936 18.7433 14.9342 18.7325 14.9326C18.7217 14.9309 18.7109 14.9296 18.7 14.9285C18.6891 14.9275 18.6782 14.9267 18.6674 14.9261C18.6565 14.9256 18.6455 14.9253 18.6346 14.9253L18.622 14.9253C18.4502 14.9272 18.281 14.9929 18.1503 15.1217L16.2408 17.0311C16.233 17.039 16.2254 17.047 16.218 17.0552C16.2105 17.0634 16.2033 17.0717 16.1963 17.0803C16.1893 17.0888 16.1825 17.0975 16.1759 17.1064C16.1693 17.1153 16.163 17.1243 16.1568 17.1335C16.1507 17.1427 16.1448 17.152 16.1391 17.1615C16.1334 17.171 16.128 17.1806 16.1227 17.1904C16.1175 17.2001 16.1126 17.21 16.1078 17.22C16.1031 17.23 16.0986 17.2401 16.0944 17.2503C16.0902 17.2605 16.0862 17.2708 16.0825 17.2813C16.0787 17.2917 16.0753 17.3022 16.0721 17.3127C16.0688 17.3233 16.0659 17.334 16.0632 17.3447C16.0605 17.3554 16.0581 17.3662 16.056 17.377C16.0538 17.3879 16.0519 17.3988 16.0503 17.4097C16.0487 17.4206 16.0473 17.4316 16.0462 17.4426C16.0451 17.4536 16.0443 17.4646 16.0438 17.4757C16.0432 17.4867 16.043 17.4978 16.043 17.5088C16.043 17.5199 16.0432 17.5309 16.0438 17.542C16.0443 17.553 16.0451 17.564 16.0462 17.575C16.0473 17.586 16.0487 17.597 16.0503 17.608C16.0519 17.6189 16.0538 17.6298 16.056 17.6406C16.0581 17.6515 16.0605 17.6622 16.0632 17.673C16.0659 17.6837 16.0688 17.6944 16.0721 17.7049C16.0753 17.7155 16.0787 17.726 16.0825 17.7364C16.0862 17.7468 16.0902 17.7571 16.0944 17.7674C16.0986 17.7776 16.1031 17.7877 16.1078 17.7977C16.1126 17.8077 16.1175 17.8175 16.1227 17.8273C16.128 17.837 16.1334 17.8466 16.1391 17.8561C16.1448 17.8656 16.1507 17.8749 16.1568 17.8841C16.163 17.8933 16.1693 17.9024 16.1759 17.9112C16.1825 17.9201 16.1893 17.9288 16.1963 17.9374C16.2033 17.9459 16.2105 17.9543 16.218 17.9625C16.2254 17.9707 16.233 17.9787 16.2408 17.9865C16.2487 17.9943 16.2567 18.002 16.2648 18.0094C16.273 18.0168 16.2814 18.024 16.29 18.031C16.2985 18.038 16.3072 18.0448 16.3161 18.0514C16.325 18.058 16.334 18.0644 16.3432 18.0705C16.3524 18.0767 16.3617 18.0826 16.3712 18.0883C16.3807 18.0939 16.3903 18.0994 16.4001 18.1046C16.4098 18.1098 16.4197 18.1148 16.4297 18.1195C16.4397 18.1242 16.4498 18.1287 16.46 18.133C16.4702 18.1372 16.4805 18.1412 16.4909 18.1449C16.5013 18.1486 16.5118 18.1521 16.5224 18.1553C16.533 18.1585 16.5436 18.1614 16.5544 18.1641C16.5651 18.1668 16.5759 18.1692 16.5867 18.1714C16.5976 18.1736 16.6085 18.1754 16.6194 18.1771C16.6303 18.1787 16.6413 18.18 16.6523 18.1811C16.6633 18.1822 16.6743 18.183 16.6854 18.1836C16.6964 18.1841 16.7075 18.1844 16.7185 18.1844C16.7296 18.1844 16.7406 18.1841 16.7517 18.1836C16.7627 18.183 16.7737 18.1822 16.7847 18.1811C16.7957 18.18 16.8067 18.1787 16.8176 18.1771C16.8286 18.1754 16.8395 18.1736 16.8503 18.1714C16.8612 18.1692 16.8719 18.1668 16.8827 18.1641C16.8934 18.1614 16.904 18.1585 16.9146 18.1553C16.9252 18.1521 16.9357 18.1486 16.9461 18.1449C16.9565 18.1412 16.9668 18.1372 16.977 18.133C16.9873 18.1287 16.9974 18.1242 17.0073 18.1195C17.0174 18.1148 17.0272 18.1098 17.037 18.1046C17.0467 18.0994 17.0563 18.0939 17.0658 18.0883C17.0753 18.0826 17.0846 18.0767 17.0938 18.0705C17.103 18.0644 17.1121 18.058 17.1209 18.0514C17.1298 18.0448 17.1385 18.0381 17.1471 18.031C17.1556 18.024 17.164 18.0168 17.1722 18.0094C17.1804 18.002 17.1884 17.9943 17.1962 17.9865L17.9274 17.2553L17.9274 19.6251C17.9274 19.6583 17.9282 19.6915 17.9299 19.7247C17.9315 19.7579 17.934 19.791 17.9372 19.824C17.9405 19.8571 17.9446 19.89 17.9495 19.9229C17.9544 19.9558 17.96 19.9885 17.9665 20.0211C17.973 20.0536 17.9803 20.086 17.9884 20.1183C17.9965 20.1505 18.0053 20.1825 18.015 20.2143C18.0246 20.246 18.0351 20.2776 18.0462 20.3088C18.0574 20.3401 18.0694 20.3711 18.0821 20.4018C18.0948 20.4325 18.1083 20.4628 18.1225 20.4928C18.1367 20.5229 18.1517 20.5525 18.1673 20.5818C18.183 20.6111 18.1994 20.64 18.2164 20.6685C18.2335 20.697 18.2513 20.725 18.2698 20.7526C18.2882 20.7803 18.3073 20.8074 18.3271 20.8341C18.3469 20.8608 18.3674 20.8869 18.3884 20.9126C18.4095 20.9383 18.4312 20.9634 18.4535 20.988C18.4758 21.0126 18.4987 21.0367 18.5222 21.0602C18.5457 21.0836 18.5698 21.1066 18.5944 21.1288C18.619 21.1512 18.6442 21.1728 18.6698 21.1939C18.6955 21.215 18.7217 21.2354 18.7484 21.2552C18.7751 21.275 18.8022 21.2942 18.8298 21.3125C18.8575 21.331 18.8855 21.3488 18.914 21.3658C18.9425 21.3829 18.9714 21.3993 19.0007 21.415C19.03 21.4307 19.0596 21.4456 19.0897 21.4598C19.1197 21.474 19.1501 21.4874 19.1808 21.5001C19.2115 21.5128 19.2424 21.5248 19.2737 21.536C19.305 21.5471 19.3365 21.5574 19.3683 21.5671C19.4001 21.5768 19.4321 21.5857 19.4643 21.5937C19.4965 21.6018 19.5289 21.6091 19.5615 21.6155C19.5941 21.6221 19.6268 21.6277 19.6597 21.6326C19.6925 21.6375 19.7255 21.6416 19.7585 21.6448C19.7916 21.648 19.8247 21.6504 19.8579 21.6522C19.8911 21.6538 19.9243 21.6546 19.9575 21.6546L20.3805 21.6546C20.3921 21.6546 20.4037 21.6543 20.4153 21.6536C20.4269 21.653 20.4385 21.6522 20.45 21.6511C20.4615 21.6498 20.473 21.6483 20.4845 21.6464C20.496 21.6447 20.5074 21.6427 20.5187 21.6403C20.5301 21.638 20.5414 21.6353 20.5526 21.6324C20.5638 21.6294 20.5749 21.6261 20.586 21.6226C20.597 21.6191 20.608 21.6153 20.6188 21.6111C20.6297 21.607 20.6404 21.6027 20.6511 21.5981C20.6617 21.5935 20.6722 21.5885 20.6826 21.5833C20.6929 21.5782 20.7032 21.5728 20.7133 21.5671C20.7234 21.5613 20.7333 21.5553 20.7431 21.5491C20.7529 21.5428 20.7625 21.5364 20.772 21.5297C20.7814 21.5229 20.7907 21.516 20.7998 21.5088C20.8089 21.5016 20.8178 21.4942 20.8265 21.4866C20.8352 21.479 20.8437 21.4711 20.852 21.4629C20.8603 21.4548 20.8684 21.4465 20.8763 21.4379C20.8842 21.4294 20.8919 21.4207 20.8993 21.4119C20.9067 21.403 20.9139 21.3939 20.9209 21.3847C20.9278 21.3754 20.9346 21.366 20.9411 21.3564C20.9475 21.3467 20.9537 21.3369 20.9598 21.327C20.9657 21.317 20.9714 21.3068 20.9768 21.2966C20.9824 21.2864 20.9876 21.276 20.9925 21.2655C20.9973 21.255 21.002 21.2444 21.0064 21.2337C21.0107 21.223 21.0148 21.2121 21.0186 21.2012C21.0224 21.1902 21.026 21.1792 21.0293 21.168C21.0325 21.1569 21.0355 21.1457 21.0382 21.1344C21.0408 21.1231 21.0432 21.1118 21.0453 21.1004C21.0473 21.0889 21.0491 21.0775 21.0506 21.066C21.0521 21.0545 21.0533 21.043 21.0543 21.0314C21.0552 21.0198 21.0557 21.0082 21.056 20.9966C21.0564 20.985 21.0564 20.9735 21.056 20.9619C21.0557 20.9503 21.0552 20.9387 21.0543 20.9271C21.0316 20.5723 20.7247 20.3039 20.3673 20.3039Z"   fill="#CC4E1D" ></path></svg>