<svg xmlns="http://www.w3.org/2000/svg" xmlns:xlink="http://www.w3.org/1999/xlink" width="24" height="24" viewBox="0 0 24 24" fill="none"><path d="M11.9015 20.3673L11.9451 20.3709L11.9851 20.3745L12.0251 20.3818L12.0651 20.3927L12.1051 20.4036L12.1451 20.4145L12.1815 20.4291L12.2215 20.4436L12.2578 20.4618L12.2942 20.4836L12.3269 20.5018L12.3633 20.5273L12.396 20.5491L12.4287 20.5782L12.4578 20.6036L12.4869 20.6327L12.5124 20.6618L12.5415 20.6945L12.5633 20.7273L12.5887 20.7636L12.6106 20.7964L12.6287 20.8327L12.6469 20.8691L12.6651 20.9091L12.676 20.9455L12.6906 20.9855L12.7015 21.0255L12.7087 21.0655L12.716 21.1055L12.7196 21.1455L12.7233 21.1855L12.7269 21.2291L12.7233 21.2691L12.7196 21.3091L12.716 21.3491L12.7087 21.3927L12.7015 21.4327L12.6906 21.4727L12.676 21.5091L12.6651 21.5491L12.6469 21.5855L12.6287 21.6218L12.6106 21.6582L12.5887 21.6945L12.5633 21.7273L12.5415 21.76L12.5124 21.7927L12.4869 21.8218L12.4578 21.8509L12.4287 21.88C12.4183 21.8889 12.4068 21.897 12.396 21.9055L12.3633 21.9309L12.3269 21.9527L12.2942 21.9745C12.2823 21.9813 12.27 21.9865 12.2578 21.9927C12.2456 21.999 12.2339 22.0053 12.2215 22.0109C12.209 22.0166 12.1942 22.024 12.1815 22.0291C12.1688 22.0341 12.158 22.0392 12.1451 22.0436C12.1322 22.0481 12.1183 22.0507 12.1051 22.0545C12.0919 22.0584 12.0784 22.0655 12.0651 22.0655C12.0518 22.0655 12.0385 22.0727 12.0251 22.0727C12.0117 22.0727 11.9987 22.08 11.9851 22.08C11.9715 22.08 11.9587 22.0836 11.9451 22.0836C11.9315 22.0836 11.9151 22.0873 11.9015 22.0873L3.26146 22.0873C3.24701 22.0873 3.2323 22.0873 3.21783 22.0873C3.20335 22.0873 3.18865 22.0873 3.17419 22.0873C3.15973 22.0873 3.14493 22.0836 3.13055 22.0836C3.11616 22.0836 3.10122 22.0764 3.08692 22.0764C3.07262 22.0764 3.06108 22.0691 3.04692 22.0691C3.03276 22.0691 3.01727 22.0619 3.00328 22.0582C2.98927 22.0545 2.97707 22.0517 2.96328 22.0473C2.94949 22.0429 2.93318 22.0378 2.91964 22.0327C2.90609 22.0276 2.89292 22.024 2.87964 22.0182C2.86637 22.0124 2.85261 22.0064 2.83964 22C2.82668 21.9936 2.81591 21.9853 2.80328 21.9782C2.79067 21.9711 2.77918 21.9641 2.76692 21.9564C2.75466 21.9487 2.7424 21.9392 2.73055 21.9309C2.7187 21.9226 2.70561 21.9143 2.69419 21.9055C2.68277 21.8965 2.67241 21.8895 2.66146 21.88C2.65052 21.8705 2.63921 21.8609 2.62874 21.8509C2.61828 21.8409 2.60959 21.8287 2.59964 21.8182C2.58972 21.8076 2.57995 21.7965 2.57055 21.7855C2.56114 21.7744 2.55029 21.7642 2.54146 21.7527C2.53264 21.7412 2.52425 21.7283 2.51601 21.7164C2.50777 21.7044 2.50182 21.6923 2.49419 21.68C2.48656 21.6677 2.47574 21.6563 2.46874 21.6436C2.46173 21.631 2.45689 21.6203 2.45055 21.6073C2.4442 21.5943 2.43806 21.5806 2.43237 21.5673C2.42668 21.554 2.42283 21.5408 2.41783 21.5273C2.41281 21.5137 2.4076 21.4974 2.40328 21.4836C2.39897 21.4698 2.38874 21.4577 2.38874 21.4436C2.38874 21.4296 2.38146 21.4142 2.38146 21.4C2.38146 21.3858 2.37419 21.3707 2.37419 21.3564C2.37419 21.342 2.36692 21.3308 2.36692 21.3164C2.36692 21.302 2.36328 21.2872 2.36328 21.2727C2.36328 21.2583 2.36328 21.2436 2.36328 21.2291C2.36328 21.2146 2.36328 21.1999 2.36328 21.1855C2.36328 21.171 2.36692 21.1562 2.36692 21.1418C2.36692 21.1274 2.37419 21.1125 2.37419 21.0982C2.37419 21.0838 2.38146 21.0687 2.38146 21.0545C2.38146 21.0404 2.38874 21.0286 2.38874 21.0145C2.38874 21.0005 2.39897 20.9847 2.40328 20.9709C2.4076 20.9571 2.41281 20.9445 2.41783 20.9309C2.42283 20.9173 2.42668 20.9042 2.43237 20.8909C2.43806 20.8776 2.4442 20.8639 2.45055 20.8509C2.45689 20.8379 2.46173 20.8236 2.46874 20.8109C2.47574 20.7982 2.48656 20.7869 2.49419 20.7745C2.50182 20.7622 2.50777 20.7501 2.51601 20.7382C2.52425 20.7263 2.53264 20.7133 2.54146 20.7018C2.55029 20.6903 2.56114 20.6801 2.57055 20.6691C2.57995 20.6581 2.58972 20.6469 2.59964 20.6364C2.60959 20.6259 2.61828 20.6173 2.62874 20.6073C2.63921 20.5973 2.65052 20.5877 2.66146 20.5782C2.67241 20.5687 2.68277 20.558 2.69419 20.5491C2.70561 20.5402 2.7187 20.532 2.73055 20.5236C2.7424 20.5153 2.75466 20.5059 2.76692 20.4982C2.77918 20.4905 2.79067 20.4835 2.80328 20.4764C2.81591 20.4693 2.82668 20.4646 2.83964 20.4582C2.85261 20.4518 2.86637 20.4458 2.87964 20.44C2.89292 20.4342 2.90609 20.4269 2.91964 20.4218C2.93318 20.4168 2.94949 20.4117 2.96328 20.4073C2.97707 20.4029 2.98927 20.4001 3.00328 20.3964C3.01727 20.3927 3.03276 20.3855 3.04692 20.3855C3.06108 20.3855 3.07262 20.3782 3.08692 20.3782C3.10122 20.3782 3.11616 20.3709 3.13055 20.3709C3.14493 20.3709 3.15973 20.3673 3.17419 20.3673C3.18865 20.3673 3.20335 20.3673 3.21783 20.3673C3.2323 20.3673 3.24701 20.3673 3.26146 20.3673L11.9051 20.3673L11.9015 20.3673ZM12.0506 2C12.1252 2 12.1978 2.00364 12.2724 2.00364C12.347 2.00364 12.4235 2.01194 12.4978 2.01818C12.5722 2.0244 12.6456 2.03062 12.7196 2.04C12.7937 2.04938 12.8679 2.06387 12.9415 2.07636C13.0151 2.08888 13.0866 2.10077 13.1596 2.11636C13.2326 2.13198 13.3056 2.14858 13.3778 2.16727C13.4501 2.18595 13.5246 2.20736 13.596 2.22909C13.6674 2.25083 13.7365 2.27344 13.8069 2.29818C13.8773 2.32292 13.9485 2.35048 14.0178 2.37818C14.0871 2.40588 14.1534 2.43483 14.2215 2.46545C14.2895 2.49606 14.3584 2.52653 14.4251 2.56C14.4918 2.59349 14.5562 2.6292 14.6215 2.66545C14.6867 2.70172 14.7542 2.73918 14.8178 2.77818C14.8815 2.81718 14.9413 2.85653 15.0033 2.89818C15.0652 2.93985 15.1286 2.98485 15.1887 3.02909C15.2489 3.07335 15.3087 3.11689 15.3669 3.16364C15.4251 3.21038 15.4817 3.25991 15.5378 3.30909C15.594 3.35827 15.6474 3.40669 15.7015 3.45818C15.7555 3.50969 15.8097 3.56443 15.8615 3.61818C15.9133 3.67193 15.9647 3.72591 16.0142 3.78182C16.0637 3.83771 16.109 3.89478 16.156 3.95273C16.2031 4.01067 16.2496 4.07102 16.2942 4.13091C16.3387 4.19078 16.3831 4.25099 16.4251 4.31273C16.4671 4.37444 16.5058 4.43474 16.5451 4.49818C16.5844 4.56162 16.6249 4.62586 16.6615 4.69091C16.6981 4.75596 16.7331 4.82437 16.7669 4.89091C16.8007 4.95743 16.8341 5.02297 16.8651 5.09091C16.8961 5.15882 16.9243 5.229 16.9524 5.29818C16.9804 5.36736 17.0073 5.43516 17.0324 5.50545C17.0575 5.57575 17.0794 5.6487 17.1015 5.72C17.1236 5.7913 17.1442 5.86239 17.1633 5.93455C17.1823 6.00673 17.2018 6.07984 17.2178 6.15273C17.2338 6.22564 17.2486 6.29737 17.2615 6.37091C17.2743 6.44444 17.2845 6.51872 17.2942 6.59273C17.304 6.66673 17.313 6.74019 17.3196 6.81455C17.3263 6.8889 17.3342 6.96544 17.3342 7.04C17.3342 7.11456 17.3378 7.18717 17.3378 7.26182C17.3378 7.33647 17.3342 7.41271 17.3342 7.48727C17.3342 7.56187 17.3293 7.6347 17.3233 7.70909C17.3172 7.78351 17.307 7.85684 17.2978 7.93091C17.2887 8.00497 17.281 8.0791 17.2687 8.15273C17.2564 8.22635 17.2405 8.30151 17.2251 8.37454C17.2097 8.44758 17.1927 8.5204 17.1742 8.59273C17.1557 8.66502 17.1375 8.7358 17.116 8.80727C17.0945 8.87875 17.0715 8.95131 17.0469 9.02182C17.0224 9.09229 16.9944 9.1597 16.9669 9.22909C16.9394 9.2985 16.9101 9.36821 16.8796 9.43636C16.8492 9.50454 16.8184 9.5732 16.7851 9.64C16.7518 9.70682 16.7157 9.77101 16.6796 9.83636C16.6436 9.90172 16.6094 9.96535 16.5706 10.0291C16.5317 10.0929 16.4884 10.1561 16.4469 10.2182C16.4054 10.2802 16.3637 10.3434 16.3196 10.4036C16.2756 10.4639 16.2317 10.5235 16.1851 10.5818C16.1385 10.6401 16.0887 10.6964 16.0396 10.7527C15.9907 10.809 15.9419 10.8658 15.8906 10.92C15.8392 10.9742 15.7878 11.0244 15.7342 11.0764C15.6806 11.1283 15.6227 11.1795 15.5669 11.2291C15.5112 11.2787 15.4575 11.3273 15.3996 11.3745C15.3418 11.4218 15.2812 11.468 15.2215 11.5127C15.1617 11.5575 15.1012 11.6015 15.0396 11.6436C14.9781 11.6858 14.9139 11.7278 14.8506 11.7673C14.7872 11.8068 14.7264 11.8432 14.6615 11.88C14.5965 11.9168 14.5279 11.9515 14.4615 11.9855C14.395 12.0195 14.3293 12.0525 14.2615 12.0836C13.7224 12.1941 13.3625 12.0516 13.1851 11.6582C13.006 11.2614 13.1325 10.8833 13.556 10.52C13.6169 10.4917 13.675 10.4608 13.7342 10.4291C13.7934 10.3973 13.8514 10.3623 13.9087 10.3273C13.966 10.2923 14.0244 10.2564 14.0796 10.2182C14.1349 10.18 14.1866 10.1394 14.2396 10.0982C14.2926 10.0569 14.3454 10.0151 14.396 9.97091C14.4466 9.92671 14.4971 9.88333 14.5451 9.83636C14.5931 9.7894 14.638 9.74052 14.6833 9.69091C14.7285 9.6413 14.7718 9.59026 14.8142 9.53818C14.8566 9.4861 14.8985 9.43259 14.9378 9.37818C14.9772 9.32377 15.0143 9.26746 15.0506 9.21091C15.0868 9.15438 15.123 9.0985 15.156 9.04C15.189 8.9815 15.2209 8.92205 15.2506 8.86182C15.2802 8.80155 15.308 8.73819 15.3342 8.67636C15.3604 8.61451 15.3843 8.55411 15.4069 8.49091C15.4296 8.42767 15.4497 8.36259 15.4687 8.29818C15.4878 8.2338 15.5043 8.17084 15.5196 8.10545C15.535 8.0401 15.548 7.9716 15.5596 7.90545C15.5713 7.83931 15.5845 7.77213 15.5924 7.70545C15.6003 7.63878 15.6064 7.57248 15.6106 7.50545C15.6147 7.43842 15.6142 7.3726 15.6142 7.30545C15.6142 7.23828 15.6106 7.17251 15.6106 7.10545C15.6106 7.03839 15.6032 6.96858 15.596 6.90182C15.5888 6.83505 15.5779 6.77172 15.5669 6.70545C15.5559 6.63922 15.5452 6.57098 15.5306 6.50545C15.5159 6.43992 15.498 6.37368 15.4796 6.30909C15.4613 6.2445 15.4398 6.18344 15.4178 6.12C15.3958 6.05653 15.3743 5.99303 15.3487 5.93091C15.3232 5.86879 15.2941 5.80601 15.2651 5.74545C15.2361 5.68487 15.2066 5.62609 15.1742 5.56727C15.1418 5.50842 15.108 5.44964 15.0724 5.39273C15.0367 5.33582 14.9985 5.28027 14.9596 5.22545C14.9208 5.17063 14.8815 5.11798 14.8396 5.06545C14.7978 5.01293 14.7535 4.9628 14.7087 4.91273C14.664 4.86262 14.6181 4.81111 14.5706 4.76364C14.5231 4.71616 14.4752 4.67018 14.4251 4.62545C14.375 4.58073 14.3249 4.54 14.2724 4.49818C14.2198 4.45636 14.1636 4.41333 14.1087 4.37455C14.0539 4.33574 13.9984 4.30108 13.9415 4.26545C13.8845 4.22981 13.8258 4.19598 13.7669 4.16364C13.7081 4.13127 13.6493 4.09808 13.5887 4.06909C13.5281 4.04012 13.469 4.01461 13.4069 3.98909C13.3448 3.96357 13.2813 3.93833 13.2178 3.91636C13.1544 3.89439 13.0897 3.87654 13.0251 3.85818C12.9605 3.83982 12.8943 3.82194 12.8287 3.80727C12.7632 3.7926 12.6986 3.77822 12.6324 3.76727C12.5661 3.75631 12.4991 3.74902 12.4324 3.74182C12.3656 3.73464 12.2994 3.72364 12.2324 3.72364C12.1653 3.72364 12.0959 3.72 12.0287 3.72C11.9616 3.72 11.8958 3.72309 11.8287 3.72727C11.7617 3.73143 11.6954 3.73751 11.6287 3.74545C11.562 3.7534 11.4949 3.76283 11.4287 3.77455C11.3626 3.78624 11.2977 3.79913 11.2324 3.81455C11.167 3.82996 11.1004 3.85002 11.036 3.86909C10.9716 3.88818 10.9101 3.90823 10.8469 3.93091C10.7837 3.9536 10.7196 3.97743 10.6578 4.00364C10.596 4.02986 10.5363 4.05761 10.476 4.08727C10.4158 4.11695 10.3563 4.1488 10.2978 4.18182C10.2394 4.21483 10.1798 4.251 10.1233 4.28727C10.0668 4.32354 10.0141 4.36059 9.95964 4.4C9.90527 4.43941 9.8517 4.47759 9.79964 4.52C9.74756 4.56241 9.6965 4.60927 9.64692 4.65455C9.59734 4.69984 9.54843 4.74472 9.50146 4.79273C9.4545 4.84075 9.40745 4.89124 9.36328 4.94182C9.31911 4.99239 9.27726 5.04519 9.23601 5.09818C9.19478 5.15118 9.1542 5.20295 9.11601 5.25818C9.07784 5.31341 9.04193 5.37177 9.00692 5.42909C8.9719 5.48641 8.94043 5.54443 8.90874 5.60364C8.87701 5.66284 8.84616 5.72094 8.81783 5.78182C8.78949 5.8427 8.76266 5.90486 8.73783 5.96727C8.71299 6.02965 8.69001 6.09266 8.66874 6.15636C8.64746 6.22007 8.62821 6.2843 8.61055 6.34909C8.59293 6.41389 8.57726 6.47975 8.56328 6.54545C8.5493 6.61113 8.53713 6.67543 8.52692 6.74182C8.51668 6.8082 8.50791 6.87499 8.50146 6.94182C8.49499 7.00867 8.48692 7.07836 8.48692 7.14545C8.48692 7.21257 8.48692 7.27831 8.48692 7.34545C8.48692 7.4126 8.48928 7.47848 8.49419 7.54545C8.49907 7.61243 8.50733 7.67886 8.51601 7.74545C8.52469 7.81207 8.53268 7.87945 8.5451 7.94545C8.55755 8.01145 8.57261 8.07661 8.58874 8.14182C8.60486 8.207 8.62351 8.274 8.64328 8.33818C8.66308 8.40236 8.68534 8.4643 8.70874 8.52727C8.7321 8.59021 8.75457 8.6512 8.78146 8.71273C8.80836 8.77425 8.8384 8.83824 8.86874 8.89818L8.96328 9.07273L9.07237 9.24364L9.1851 9.41091L9.30873 9.56727L9.44328 9.72L9.5851 9.86182C9.63362 9.90825 9.68314 9.95272 9.73419 9.99636L9.89055 10.1236L10.0542 10.24L10.2251 10.3491L10.3996 10.4473L10.5815 10.5345L10.5706 10.5564L10.6142 10.5636L10.6578 10.5745L10.7015 10.5891L10.7415 10.6036L10.7815 10.6218L10.8215 10.6436L10.8615 10.6655L10.8978 10.6909L10.9342 10.7164L10.9669 10.7455C10.9779 10.7555 10.9893 10.7676 10.9996 10.7782C11.01 10.7888 11.019 10.7997 11.0287 10.8109C11.0384 10.8221 11.0488 10.8319 11.0578 10.8436C11.0669 10.8554 11.075 10.8677 11.0833 10.88C11.0916 10.8923 11.0975 10.9036 11.1051 10.9164C11.1127 10.9291 11.1201 10.9432 11.1269 10.9564C11.1337 10.9695 11.1427 10.9828 11.1487 10.9964C11.1548 11.0099 11.1581 11.0225 11.1633 11.0364C11.1685 11.0503 11.1734 11.0658 11.1778 11.08C11.1822 11.0942 11.1887 11.1092 11.1887 11.1236C11.1887 11.138 11.1996 11.1527 11.1996 11.1673C11.1996 11.1819 11.2069 11.1962 11.2069 11.2109C11.2069 11.2256 11.2106 11.2397 11.2106 11.2545C11.2106 11.2694 11.2106 11.2833 11.2106 11.2982C11.2106 11.313 11.2106 11.327 11.2106 11.3418C11.2106 11.3566 11.2069 11.3744 11.2069 11.3891C11.2069 11.4038 11.1996 11.4181 11.1996 11.4327C11.1996 11.4474 11.1924 11.4619 11.1924 11.4764C11.1924 11.4908 11.1857 11.5058 11.1815 11.52C11.1772 11.5342 11.172 11.5461 11.1669 11.56C11.1618 11.5739 11.1546 11.59 11.1487 11.6036C11.1428 11.6173 11.1372 11.6304 11.1306 11.6436L9.21783 15.4364C9.21391 15.4441 9.2111 15.4506 9.20692 15.4582C9.20277 15.4658 9.19682 15.4726 9.19237 15.48C9.18793 15.4874 9.1825 15.4945 9.17783 15.5018C9.17315 15.5091 9.16819 15.5165 9.16328 15.5236C9.15834 15.5308 9.15388 15.5385 9.14874 15.5455C9.14356 15.5524 9.1396 15.5605 9.13419 15.5673C9.12878 15.574 9.12166 15.5789 9.11601 15.5855C9.11039 15.592 9.10732 15.6009 9.10146 15.6073C9.09561 15.6137 9.08937 15.6193 9.08328 15.6255C9.07719 15.6316 9.06776 15.6377 9.06146 15.6436C9.05519 15.6496 9.04978 15.6561 9.04328 15.6618C9.03678 15.6676 9.03178 15.6709 9.0251 15.6764C9.01842 15.6819 9.01014 15.6893 9.00328 15.6945C8.9964 15.6998 8.98849 15.7041 8.98146 15.7091C8.97443 15.7141 8.97049 15.7188 8.96328 15.7236C8.95607 15.7284 8.94885 15.7336 8.94146 15.7382C8.93408 15.7427 8.92351 15.7448 8.91601 15.7491C8.90848 15.7534 8.90187 15.7596 8.89419 15.7636C8.88651 15.7677 8.88017 15.7708 8.87237 15.7745C8.86457 15.7783 8.85483 15.7855 8.84692 15.7855C8.83897 15.7855 8.83313 15.7964 8.8251 15.7964C8.81707 15.7964 8.8078 15.8036 8.79964 15.8036C8.79149 15.8036 8.78246 15.8145 8.77419 15.8145C8.76595 15.8145 8.75706 15.8218 8.74874 15.8218C8.74041 15.8218 8.7317 15.8255 8.72328 15.8255C8.71486 15.8255 8.7063 15.8327 8.69783 15.8327C8.68935 15.8327 8.68091 15.8364 8.67237 15.8364C8.66384 15.8364 8.65551 15.84 8.64692 15.84C8.63835 15.84 8.63008 15.8436 8.62146 15.8436C8.61284 15.8436 8.60466 15.8473 8.59601 15.8473C8.58739 15.8473 8.57923 15.8473 8.57055 15.8473C8.5619 15.8473 8.55375 15.8473 8.5451 15.8473L3.95964 15.8473L3.95964 17.6182L10.8287 17.6182C11.197 17.6182 11.5033 17.8848 11.5669 18.2364L11.5815 18.3709C11.5815 18.3832 11.5815 18.395 11.5815 18.4073C11.5815 18.4196 11.5778 18.4314 11.5778 18.4436C11.5778 18.4559 11.5742 18.4678 11.5742 18.48C11.5742 18.4922 11.5669 18.5043 11.5669 18.5164C11.5669 18.5285 11.5596 18.5408 11.5596 18.5527C11.5596 18.5647 11.5487 18.5773 11.5487 18.5891C11.5487 18.6009 11.542 18.6102 11.5378 18.6218C11.5337 18.6334 11.528 18.6468 11.5233 18.6582C11.5186 18.6696 11.514 18.6798 11.5087 18.6909C11.5035 18.7021 11.4964 18.7128 11.4906 18.7236C11.4848 18.7345 11.4787 18.7458 11.4724 18.7564C11.466 18.767 11.461 18.7788 11.4542 18.7891C11.4473 18.7993 11.4397 18.8083 11.4324 18.8182C11.425 18.8281 11.4184 18.8377 11.4106 18.8473C11.4027 18.8568 11.3934 18.8672 11.3851 18.8764C11.3768 18.8855 11.3684 18.8931 11.3596 18.9018C11.3509 18.9105 11.3433 18.919 11.3342 18.9273C11.325 18.9356 11.3146 18.9449 11.3051 18.9527C11.2956 18.9606 11.2859 18.9672 11.276 18.9745C11.2661 18.9819 11.2572 18.9895 11.2469 18.9964C11.2366 19.0032 11.2248 19.0082 11.2142 19.0145C11.2036 19.0209 11.1923 19.0269 11.1815 19.0327C11.1706 19.0386 11.1599 19.0457 11.1487 19.0509C11.1376 19.0562 11.1274 19.0607 11.116 19.0655C11.1046 19.0702 11.0949 19.0758 11.0833 19.08C11.0717 19.0841 11.0587 19.0909 11.0469 19.0909C11.0351 19.0909 11.0225 19.1018 11.0106 19.1018C10.9986 19.1018 10.9863 19.1091 10.9742 19.1091C10.9621 19.1091 10.95 19.1164 10.9378 19.1164C10.9256 19.1164 10.9137 19.12 10.9015 19.12C10.8892 19.12 10.8774 19.1236 10.8651 19.1236C10.8528 19.1236 10.8411 19.1236 10.8287 19.1236L3.87601 19.1236C3.85272 19.1236 3.83018 19.12 3.80692 19.12C3.78365 19.12 3.76099 19.1164 3.73783 19.1164C3.71466 19.1164 3.69178 19.1091 3.66874 19.1091C3.6457 19.1091 3.62248 19.0991 3.59964 19.0945C3.57681 19.09 3.55315 19.0856 3.53055 19.08C3.50798 19.0743 3.48375 19.0686 3.46146 19.0618C3.43918 19.055 3.41794 19.0479 3.39601 19.04C3.37408 19.0322 3.35206 19.0235 3.33055 19.0145C3.30904 19.0056 3.28978 18.9954 3.26874 18.9855C3.24769 18.9755 3.22746 18.9673 3.20692 18.9564C3.18638 18.9454 3.16507 18.932 3.1451 18.92C3.12513 18.9081 3.10628 18.8966 3.08692 18.8836C3.06756 18.8707 3.04745 18.8575 3.02874 18.8436C3.01004 18.8298 2.9922 18.8148 2.97419 18.8C2.95618 18.7852 2.93689 18.7684 2.91964 18.7527C2.90238 18.7371 2.88519 18.7219 2.86874 18.7055C2.85228 18.689 2.83712 18.6718 2.82146 18.6545C2.80583 18.6373 2.7926 18.6216 2.77783 18.6036C2.76306 18.5856 2.74806 18.5678 2.73419 18.5491C2.72032 18.5304 2.70714 18.5103 2.69419 18.4909C2.68126 18.4715 2.66616 18.4527 2.65419 18.4327C2.6422 18.4127 2.63243 18.3914 2.62146 18.3709C2.61048 18.3504 2.59868 18.3301 2.58874 18.3091C2.57877 18.288 2.56855 18.2652 2.55964 18.2436C2.55074 18.2221 2.54567 18.2001 2.53783 18.1782C2.52998 18.1563 2.52278 18.135 2.51601 18.1127C2.50926 18.0905 2.49986 18.0699 2.49419 18.0473C2.48854 18.0247 2.4842 18.001 2.47964 17.9782C2.47511 17.9553 2.46874 17.9321 2.46874 17.9091C2.46874 17.8861 2.46146 17.8632 2.46146 17.84C2.46146 17.8168 2.45419 17.7942 2.45419 17.7709C2.45419 17.7477 2.45419 17.7251 2.45419 17.7018L2.45419 15.7636C2.45419 14.9785 3.08923 14.3418 3.87601 14.3418L8.07965 14.3418L9.34874 11.8291C9.287 11.7925 9.22712 11.7518 9.16692 11.7127C9.10674 11.6736 9.04729 11.6342 8.98874 11.5927C8.93018 11.5512 8.87101 11.5093 8.81419 11.4655C8.75737 11.4216 8.70191 11.377 8.64692 11.3309C8.59195 11.2848 8.53997 11.2374 8.48692 11.1891C8.43386 11.1408 8.38161 11.0904 8.33055 11.04C8.2795 10.9895 8.2304 10.9397 8.18146 10.8873C8.1325 10.8348 8.08277 10.7817 8.03601 10.7273C7.98925 10.6728 7.94235 10.6163 7.89783 10.56C7.85331 10.5037 7.81275 10.4471 7.77055 10.3891C7.72839 10.331 7.6867 10.2706 7.64692 10.2109C7.60713 10.1512 7.56786 10.0904 7.53055 10.0291C7.49321 9.9678 7.45624 9.9064 7.42146 9.84364C7.38665 9.78087 7.35547 9.71869 7.32328 9.65454C7.29106 9.59043 7.25831 9.52359 7.22874 9.45818C7.19916 9.3928 7.17196 9.32835 7.1451 9.26182C7.11823 9.19529 7.09289 9.12941 7.06874 9.06182C7.04461 8.99423 7.02104 8.92308 6.99964 8.85454C6.97828 8.78604 6.96003 8.72023 6.94146 8.65091C6.9229 8.58158 6.90266 8.51003 6.88692 8.44C6.8712 8.36997 6.85978 8.29968 6.84692 8.22909C6.83406 8.1585 6.82053 8.08927 6.81055 8.01818C6.80058 7.94712 6.79216 7.87505 6.7851 7.80364C6.77804 7.73222 6.7747 7.66074 6.77055 7.58909C6.7664 7.51744 6.75964 7.44631 6.75964 7.37455C6.75964 7.30278 6.76328 7.2281 6.76328 7.15636C6.76328 7.08459 6.76593 7.01341 6.77055 6.94182C6.77517 6.8702 6.7812 6.79863 6.78874 6.72727C6.79627 6.65589 6.80738 6.58737 6.81783 6.51636C6.82827 6.44536 6.83722 6.37235 6.85055 6.30182C6.86385 6.23131 6.88164 6.16082 6.89783 6.09091C6.91401 6.02099 6.92973 5.95284 6.94874 5.88364C6.96774 5.81443 6.98875 5.74472 7.01055 5.67636C7.03239 5.60801 7.05507 5.54014 7.07964 5.47273C7.10421 5.40531 7.1287 5.33911 7.15601 5.27273C7.18331 5.20637 7.2133 5.14157 7.24328 5.07636C7.27327 5.01119 7.30519 4.94394 7.33783 4.88C7.37043 4.81607 7.40442 4.75345 7.43964 4.69091C7.47484 4.62837 7.51101 4.5665 7.54874 4.50545C7.58643 4.44438 7.62493 4.38673 7.6651 4.32727C7.70526 4.26779 7.74616 4.20688 7.78874 4.14909C7.83128 4.09132 7.87477 4.03419 7.91964 3.97818C7.96452 3.92217 8.01072 3.86867 8.05783 3.81455C8.10497 3.76042 8.15399 3.7067 8.20328 3.65455C8.25257 3.60238 8.30463 3.55194 8.35601 3.50182C8.40738 3.45172 8.45899 3.40071 8.51237 3.35273C8.56572 3.30474 8.62072 3.26031 8.67601 3.21455C8.7313 3.16878 8.7862 3.12347 8.84328 3.08C8.9004 3.03653 8.95901 2.99382 9.01783 2.95273C9.07665 2.91161 9.13557 2.87141 9.19601 2.83273C9.25648 2.79404 9.31949 2.75617 9.38146 2.72C9.44346 2.68381 9.50353 2.64817 9.56692 2.61455C9.63033 2.5809 9.69494 2.55101 9.75964 2.52C9.82435 2.48899 9.89007 2.45746 9.95601 2.42909C10.0219 2.40072 10.089 2.37473 10.156 2.34909C10.223 2.32343 10.2916 2.29926 10.3596 2.27636C10.4277 2.25347 10.4944 2.23102 10.5633 2.21091C10.6322 2.1908 10.7009 2.17365 10.7706 2.15636C10.8402 2.13908 10.9112 2.12353 10.9815 2.10909C11.0518 2.09465 11.1215 2.08065 11.1924 2.06909C11.2632 2.05754 11.3357 2.04867 11.4069 2.04C11.4782 2.03135 11.5499 2.02395 11.6215 2.01818C11.693 2.01243 11.7643 2.00364 11.836 2.00364C11.9077 2.00364 11.9788 2 12.0506 2Z"   fill="#034FA1" ></path><path d="M16.2415 22.0546C16.4919 22.1948 16.7739 22.2654 17.0546 22.2654C17.3353 22.2654 17.6173 22.1948 17.8677 22.0546L21.1505 20.2087C21.6527 19.9272 21.9637 19.4018 21.9637 18.8387L21.9637 15.147C21.9637 14.5839 21.6515 14.0585 21.1505 13.777L17.8665 11.9311C17.3656 11.6496 16.7424 11.6496 16.2415 11.9311L12.9586 13.777C12.4565 14.0585 12.1455 14.5839 12.1455 15.147L12.1455 18.8387C12.1455 19.4018 12.4577 19.9272 12.9586 20.2087L16.2415 22.0546ZM16.7848 12.8464C16.8683 12.7993 16.9614 12.7757 17.0546 12.7757C17.1478 12.7757 17.2409 12.7993 17.3244 12.8464L20.6084 14.6923C20.7754 14.7853 20.8783 14.9597 20.8783 15.147L20.8783 18.8387C20.8783 19.026 20.7754 19.2004 20.6084 19.2934L17.3244 21.1393C17.1574 21.2324 16.9518 21.2324 16.7848 21.1393L13.5007 19.2934C13.3338 19.2004 13.2309 19.026 13.2309 18.8387L13.2309 15.147C13.2309 14.9597 13.3338 14.7853 13.5007 14.6923L16.7848 12.8464ZM14.9917 16.3513L16.6193 17.1831L16.6193 19.0639C16.6193 19.3826 16.8881 19.6423 17.2182 19.6423C17.5483 19.6423 17.8138 19.3813 17.8138 19.0639L17.8138 17.2104L19.3903 16.3929C19.6751 16.2322 19.7726 15.8786 19.6063 15.6036C19.4399 15.3285 19.0729 15.2384 18.7881 15.399L17.2466 16.1851L15.5906 15.3512C15.3045 15.1918 14.9408 15.2857 14.7757 15.562C14.6107 15.8383 14.7055 16.192 14.9917 16.3513Z" fill-rule="evenodd"  fill="#CC4E1D" ></path></svg>