<svg xmlns="http://www.w3.org/2000/svg" xmlns:xlink="http://www.w3.org/1999/xlink" width="24" height="24" viewBox="0 0 24 24" fill="none"><path   fill="rgba(3, 79, 161, 1)"  d="M3.99996 1.92729L18.1818 1.92729C19.4269 1.92729 20.4363 2.93669 20.4363 4.18184L20.4363 11.3284Q20.4363 11.8238 20.2286 12.2735Q20.021 12.7233 19.6439 13.0446L10.9591 20.4435Q10.3272 20.9818 9.49704 20.9818L3.99996 20.9818C2.7548 20.9818 1.74541 19.9724 1.74541 18.7273L1.74541 4.18184C1.74541 2.93669 2.7548 1.92729 3.99996 1.92729ZM3.99996 3.52729C3.63846 3.52729 3.34541 3.82034 3.34541 4.18184L3.34541 18.7273C3.34541 19.0888 3.63846 19.3818 3.99996 19.3818L9.49704 19.3818Q9.73805 19.3818 9.92151 19.2255L18.6063 11.8266Q18.8363 11.6306 18.8363 11.3284L18.8363 4.18184C18.8363 3.82034 18.5433 3.52729 18.1818 3.52729L3.99996 3.52729Z"></path><g ><path     fill="#D6330B"  d="M10.451 7.434L9.34 7.434L9.34 4.684L10.451 4.728L10.451 7.434ZM11.848 5.113Q12.145 5.267 12.563 5.531Q12.981 5.795 13.4155 6.0755Q13.85 6.356 14.2405 6.6255Q14.631 6.895 14.862 7.071L14.312 8.039Q14.081 7.841 13.6905 7.5495Q13.3 7.258 12.8655 6.9555Q12.431 6.653 12.0075 6.3835Q11.584 6.114 11.298 5.96L11.848 5.113ZM8.625 5.993Q8.339 6.257 7.9815 6.554Q7.624 6.851 7.228 7.1425Q6.832 7.434 6.436 7.709Q6.04 7.984 5.688 8.204L5.149 7.258Q5.523 7.049 5.9135 6.785Q6.304 6.521 6.678 6.2405Q7.052 5.96 7.3985 5.6795Q7.745 5.399 8.02 5.146L8.625 5.993ZM12.684 7.379Q11.991 7.797 11.2375 8.1545Q10.484 8.512 9.659 8.831L13.608 8.831L13.608 14.672L12.519 14.672L12.519 14.144L7.712 14.144L7.712 14.683L6.623 14.683L6.623 9.766Q6.304 9.843 5.9905 9.9145Q5.677 9.986 5.347 10.063L5.05 9.051Q6.216 8.82 7.2225 8.556Q8.229 8.292 9.098 7.984Q9.967 7.676 10.715 7.313Q11.463 6.95 12.134 6.532L12.684 7.379ZM12.519 9.689L7.712 9.689L7.712 10.338L12.519 10.338L12.519 9.689ZM7.712 11.823L12.519 11.823L12.519 11.152L7.712 11.152L7.712 11.823ZM12.519 13.275L12.519 12.648L7.712 12.648L7.712 13.275L12.519 13.275Z"></path></g><path d="M13.4806 22.6251L13.4486 22.6234L13.4273 22.6223L13.3954 22.6206L13.3747 22.6086L13.3433 22.5961L13.322 22.595L13.2906 22.5824L13.2699 22.5704L13.2491 22.5585L13.2183 22.5351L13.1976 22.5231L13.1768 22.5111L13.1566 22.4883L13.1365 22.4654L13.1264 22.454L13.1062 22.4312L13.086 22.4083L13.0765 22.386L13.0563 22.3632L13.0467 22.3409L13.0377 22.3078L13.0282 22.2855L13.0187 22.2632L13.0203 22.2307L13.0108 22.2084L13.0018 22.1753L13.0029 22.1535L13.0045 22.121L13.0057 22.0993L13.0073 22.0667L13.0084 22.045L13.0202 22.0238L13.5032 19.8722C13.5038 19.8597 13.5154 19.8416 13.516 19.8293C13.5166 19.817 13.5277 19.8093 13.5283 19.7973C13.5289 19.7853 13.54 19.7769 13.5406 19.7653C13.5412 19.7537 13.563 19.7451 13.5636 19.7339C13.5641 19.7227 13.5759 19.7019 13.5759 19.7019L13.5988 19.6704L13.6324 19.6395L13.6554 19.6081L19.928 14.0071C20.4977 13.5176 21.359 13.5632 21.876 14.1102L22.3509 14.636C22.8603 15.1977 22.8163 16.0636 22.2526 16.5685L15.9794 22.1804L15.9464 22.2004L15.924 22.221L15.8909 22.241L15.8584 22.2502C15.8584 22.2502 15.8363 22.2708 15.8254 22.2702C15.8145 22.2696 15.8041 22.28 15.7929 22.2794C15.7817 22.2788 15.7719 22.2892 15.7604 22.2886C15.749 22.2879 15.729 22.2978 15.7173 22.2972L13.5769 22.6194L13.4806 22.6251ZM14.4446 20.2486L14.1436 21.5499L15.4242 21.3455L21.5848 15.8474C21.7368 15.7079 21.7489 15.4702 21.6119 15.3154L21.1263 14.789C20.9833 14.6422 20.7513 14.6299 20.5941 14.7608L14.4446 20.2486Z" stroke="rgba(3, 79, 161, 1)" stroke-width="0.2"      fill="#034FA1" ></path><path d="M20.402 17.5508C20.3865 17.55 20.37 17.5459 20.3546 17.5451C20.3392 17.5443 20.3257 17.5371 20.3105 17.5362C20.2953 17.5354 20.2812 17.5292 20.2665 17.5242C20.2519 17.5191 20.237 17.5153 20.2229 17.5089C20.2087 17.5025 20.1929 17.4948 20.1794 17.4871C20.1659 17.4795 20.1551 17.4714 20.1425 17.4625C20.1298 17.4536 20.1175 17.4446 20.1057 17.4346C20.0939 17.4245 20.0833 17.4114 20.0725 17.4004L18.6786 15.9738C18.6724 15.9681 18.6664 15.9627 18.6604 15.9566C18.6545 15.9506 18.6512 15.9427 18.6455 15.9364C18.6399 15.93 18.6328 15.9226 18.6275 15.9159C18.6222 15.9093 18.6176 15.9026 18.6126 15.8957C18.6077 15.8888 18.6023 15.8826 18.5977 15.8754C18.5932 15.8683 18.5903 15.8627 18.586 15.8554C18.5818 15.848 18.5783 15.8396 18.5745 15.832C18.5707 15.8245 18.5664 15.8164 18.563 15.8087C18.5595 15.801 18.5545 15.7933 18.5514 15.7854C18.5484 15.7775 18.5427 15.7701 18.5431 15.7622C18.5435 15.7544 18.5375 15.7473 18.5379 15.7393C18.5383 15.7313 18.5293 15.721 18.5297 15.7129C18.5301 15.7048 18.5241 15.6981 18.5245 15.6899C18.5249 15.6817 18.5222 15.6722 18.5226 15.6638C18.523 15.6555 18.5203 15.6462 18.5208 15.6378C18.5212 15.6294 18.5185 15.6201 18.5189 15.6117C18.5193 15.6033 18.5196 15.5975 18.5201 15.5891C18.5205 15.5807 18.521 15.5716 18.5214 15.5632C18.5218 15.5548 18.5254 15.5459 18.5259 15.5375C18.5263 15.5291 18.5299 15.5201 18.5304 15.5118C18.5308 15.5035 18.5343 15.4975 18.5347 15.4893C18.5351 15.481 18.5419 15.4719 18.5423 15.4637C18.5428 15.4556 18.5496 15.4462 18.55 15.4382C18.5504 15.4302 18.5603 15.4239 18.5607 15.416C18.5611 15.4081 18.5676 15.4015 18.5713 15.3939C18.5751 15.3863 18.5779 15.3791 18.582 15.3718C18.5861 15.3644 18.5914 15.3569 18.5959 15.3498C18.6003 15.3426 18.6049 15.3347 18.6097 15.3278C18.6145 15.3209 18.6182 15.3157 18.6234 15.3091C18.6286 15.3024 18.6349 15.2936 18.6404 15.2873C18.6459 15.2809 18.6514 15.2748 18.6572 15.2687C18.6631 15.2626 18.6679 15.2559 18.6741 15.2501C18.6802 15.2443 18.6875 15.2404 18.6939 15.2349C18.7004 15.2295 18.7071 15.2249 18.7138 15.2198C18.7205 15.2146 18.7267 15.2094 18.7337 15.2046C18.7406 15.1998 18.7463 15.1939 18.7535 15.1894C18.7607 15.185 18.7689 15.1817 18.7764 15.1777C18.7838 15.1736 18.7916 15.1696 18.7992 15.1659C18.8069 15.1622 18.8143 15.1574 18.8221 15.1541C18.8299 15.1508 18.84 15.1486 18.848 15.1458C18.8559 15.1429 18.8627 15.1368 18.8707 15.1372C18.8787 15.1376 18.8883 15.1317 18.8964 15.1321C18.9045 15.1325 18.9107 15.1264 18.9189 15.1268C18.9271 15.1272 18.9363 15.1212 18.9446 15.1217C18.9529 15.1221 18.9618 15.1193 18.9702 15.1198C18.9786 15.1202 18.9873 15.1174 18.9957 15.1179C19.0042 15.1183 19.0128 15.1155 19.0213 15.116C19.0297 15.1164 19.0381 15.1169 19.0466 15.1173C19.0551 15.1178 19.0636 15.1182 19.072 15.1187C19.0805 15.1191 19.0888 15.1228 19.0972 15.1233C19.1056 15.1237 19.1141 15.1274 19.1224 15.1278C19.1308 15.1283 19.1394 15.132 19.1477 15.1324C19.1559 15.1329 19.1645 15.1398 19.1727 15.1402C19.1809 15.1407 19.1865 15.1474 19.1946 15.1479C19.2026 15.1483 19.2115 15.1585 19.2195 15.1589C19.2274 15.1593 19.2336 15.166 19.2412 15.1698C19.2488 15.1736 19.2587 15.1767 19.2661 15.1809C19.2734 15.1851 19.2805 15.1904 19.2876 15.195C19.2948 15.1995 19.2991 15.204 19.306 15.2089C19.3129 15.2138 19.3209 15.2178 19.3275 15.223C19.3342 15.2283 19.3394 15.2346 19.3457 15.2402C19.3521 15.2458 19.361 15.2517 19.3671 15.2576C19.3732 15.2635 19.3794 15.2718 19.3852 15.278C19.3909 15.2842 19.3948 15.2885 19.4002 15.295L20.7907 16.7247C20.7957 16.729 20.8012 16.7339 20.806 16.7384C20.8108 16.7429 20.8165 16.7475 20.8211 16.7522C20.8257 16.7569 20.8287 16.761 20.8332 16.7658C20.8376 16.7707 20.8441 16.7746 20.8483 16.7796C20.8525 16.7846 20.8562 16.7913 20.8602 16.7965C20.8642 16.8016 20.8684 16.8047 20.8722 16.8101C20.876 16.8154 20.8774 16.8213 20.881 16.8267C20.8846 16.8322 20.8895 16.838 20.8929 16.8436C20.8963 16.8492 20.8983 16.8545 20.9015 16.8603C20.9047 16.866 20.9074 16.8711 20.9103 16.877C20.9132 16.8828 20.919 16.8911 20.9187 16.8969C20.9185 16.9027 20.9277 16.9076 20.9274 16.9136C20.9271 16.9195 20.9363 16.9275 20.936 16.9335C20.9357 16.9395 20.9418 16.9439 20.9415 16.95C20.9412 16.9561 20.9472 16.9635 20.9469 16.9697C20.9466 16.976 20.9526 16.9832 20.9522 16.9895C20.9519 16.9958 20.9547 17.0027 20.9544 17.0091C20.954 17.0154 20.9569 17.0222 20.9566 17.0286C20.9563 17.035 20.9623 17.0419 20.962 17.0484C20.9617 17.0549 20.9613 17.0613 20.961 17.0678C20.9607 17.0743 20.9634 17.0809 20.9631 17.0874C20.9628 17.0939 20.9625 17.1003 20.9621 17.1068C20.9618 17.1133 20.9615 17.1197 20.9611 17.1262C20.9608 17.1328 20.9605 17.1391 20.9601 17.1456C20.9598 17.1521 20.9595 17.1585 20.9592 17.165C20.9588 17.1716 20.9554 17.1778 20.9551 17.1843C20.9547 17.1908 20.9512 17.1971 20.9508 17.2035C20.9505 17.21 20.9471 17.2164 20.9467 17.2228C20.9464 17.2292 20.9428 17.2357 20.9425 17.242C20.9422 17.2483 20.9355 17.2548 20.9352 17.2611C20.9349 17.2674 20.9283 17.2707 20.928 17.2769C20.9277 17.2831 20.921 17.2899 20.9207 17.296C20.9203 17.3021 20.9136 17.3091 20.9133 17.3151C20.913 17.3211 20.9033 17.3249 20.903 17.3308C20.9027 17.3367 20.896 17.344 20.8957 17.3498C20.8954 17.3556 20.889 17.36 20.8854 17.3655C20.8819 17.371 20.8757 17.3757 20.8719 17.3811C20.8681 17.3864 20.8655 17.3915 20.8615 17.3967C20.8575 17.4019 20.8522 17.4072 20.848 17.4122C20.8438 17.4172 20.8388 17.4228 20.8344 17.4277C20.83 17.4325 20.8256 17.4353 20.8211 17.44C20.8165 17.4446 20.8125 17.451 20.8077 17.4555C20.8029 17.46 20.7993 17.4634 20.7944 17.4678C20.7894 17.4721 20.7829 17.4758 20.7777 17.4799C20.7726 17.484 20.7697 17.4882 20.7644 17.4921C20.7591 17.496 20.7534 17.5006 20.7479 17.5042C20.7425 17.5079 20.7369 17.5128 20.7313 17.5163C20.7257 17.5198 20.7207 17.522 20.715 17.5252C20.7093 17.5285 20.7013 17.5309 20.6955 17.5339C20.6896 17.537 20.685 17.5431 20.6792 17.5428C20.6734 17.5425 20.6655 17.5518 20.6596 17.5515C20.6537 17.5512 20.6494 17.5607 20.6433 17.5604C20.6373 17.56 20.6301 17.5661 20.624 17.5658C20.6178 17.5655 20.6108 17.5716 20.6046 17.5713C20.5983 17.571 20.5915 17.5771 20.5852 17.5767C20.5789 17.5764 20.5723 17.5793 20.566 17.579C20.5596 17.5786 20.553 17.5848 20.5466 17.5844C20.5402 17.5841 20.5338 17.587 20.5274 17.5867C20.5209 17.5863 20.5147 17.5892 20.5082 17.5889C20.5016 17.5885 20.4955 17.5915 20.4889 17.5911C20.4824 17.5908 20.4733 17.5903 20.4668 17.5899C20.4602 17.5896 20.4543 17.5893 20.4477 17.5889C20.4412 17.5886 20.4353 17.5883 20.4287 17.5879C20.4221 17.5876 20.4162 17.5873 20.4096 17.5869L20.402 17.5508Z"   fill="#034FA1" ></path></svg>