<svg xmlns="http://www.w3.org/2000/svg" xmlns:xlink="http://www.w3.org/1999/xlink" width="24" height="24" viewBox="0 0 24 24" fill="none"><path d="M20.457 19.6182C20.7038 19.6182 20.907 19.4141 20.907 19.1682C20.907 18.9223 20.7038 18.7182 20.457 18.7182L18.747 18.7182L18.747 14.9582L20.457 14.9582C20.7038 14.9582 20.907 14.7542 20.907 14.5082C20.907 14.2623 20.7038 14.0582 20.457 14.0582L3.61704 14.0582L3.61704 4.41821C3.61704 3.4764 4.39206 2.70822 5.33704 2.70822L6.95704 2.70822C6.99072 2.70822 7.02345 2.71822 7.05704 2.71822C7.09063 2.71822 7.1236 2.72822 7.15704 2.72822C7.19048 2.72822 7.22382 2.74822 7.25704 2.74822C7.29026 2.74822 7.3341 2.75822 7.36704 2.75822C7.39998 2.75822 7.42443 2.78822 7.45704 2.78822C7.48964 2.78822 7.52484 2.80821 7.55704 2.81822C7.58924 2.82822 7.6153 2.83684 7.64704 2.84822C7.67878 2.85959 7.71581 2.86548 7.74704 2.87822C7.77827 2.89095 7.80638 2.90415 7.83704 2.91822C7.86768 2.93228 7.89701 2.95285 7.92704 2.96822C7.95705 2.98358 7.98771 3.00157 8.01704 3.01822C8.04637 3.03486 8.07845 3.05033 8.10704 3.06822C8.13563 3.0861 8.15925 3.09911 8.18704 3.11822C8.21482 3.13732 8.25009 3.15794 8.27704 3.17822C8.30399 3.1985 8.33098 3.2268 8.35704 3.24822C8.38308 3.26963 8.40194 3.2857 8.42704 3.30822C8.45214 3.33073 8.47293 3.35464 8.49704 3.37822C8.52115 3.40178 8.55396 3.42361 8.57704 3.44822C8.60011 3.4728 8.61505 3.50265 8.63704 3.52822C8.65903 3.55378 8.68616 3.58173 8.70704 3.60822C8.72791 3.63469 8.74732 3.66085 8.76704 3.68822C8.78676 3.71557 8.80852 3.74004 8.82704 3.76822C8.84556 3.79639 8.85974 3.82926 8.87704 3.85822C8.89434 3.88716 8.91101 3.90855 8.92704 3.93822C8.94309 3.96787 8.96229 3.99788 8.97704 4.02822C8.99179 4.05853 9.00362 4.08726 9.01704 4.11822C9.03046 4.14914 9.04495 4.18674 9.05704 4.21821C9.06913 4.24969 9.07632 4.28624 9.08704 4.31822C9.09776 4.35019 9.11704 4.3758 9.11704 4.40822C9.11704 4.44062 9.14704 4.47544 9.14704 4.50821C9.14704 4.54099 9.16704 4.57513 9.16704 4.60822L7.49704 4.60822C7.25032 4.60822 7.04704 4.80189 7.04704 5.04821C7.04704 5.29414 7.25032 5.49822 7.49704 5.49822L11.817 5.49822C12.0642 5.49822 12.267 5.29414 12.267 5.04821C12.267 4.80189 12.0642 4.60822 11.817 4.60822L10.077 4.60822C9.85879 3.03497 8.49433 1.81822 6.85704 1.81822L5.33704 1.81822C3.89901 1.81822 2.72704 2.98454 2.72704 4.41821L2.72704 14.5682L2.73704 14.5882L2.73704 14.6082L2.74704 14.6282L2.74704 14.6582L2.75704 14.6782L2.76704 14.6982L2.77704 14.7182L2.78704 14.7382L2.79704 14.7582L2.80704 14.7682L2.82704 14.7882L2.83704 14.8082L2.85704 14.8182L2.86704 14.8382L2.88704 14.8482L2.90704 14.8682L2.91704 14.8782L2.93704 14.8882L2.95704 14.8982L2.97704 14.9182L2.99704 14.9182L3.02704 14.9282L3.03704 14.9382L3.06704 14.9382L3.08704 14.9482L3.12704 14.9482L3.15704 14.9582L4.88704 14.9582L4.88704 18.7182L3.17704 18.7182C2.92992 18.7182 2.72704 18.9223 2.72704 19.1682C2.72704 19.4141 2.92992 19.6182 3.17704 19.6182L20.457 19.6182ZM13 11.2982L9.19704 11.2982C8.95032 11.2982 8.74704 11.5023 8.74704 11.7482C8.74704 11.9945 8.95032 12.1882 9.19704 12.1882L20.457 12.1882C20.7037 12.1882 20.907 11.9945 20.907 11.7482L20.907 11.3L13 11.3L13 11.2982ZM8.35704 10.2382C8.35704 9.16119 7.47724 8.28822 6.39704 8.28822C5.31684 8.28822 4.43704 9.16119 4.43704 10.2382C4.43704 11.3153 5.31684 12.1882 6.39704 12.1882C7.47724 12.1882 8.35704 11.3153 8.35704 10.2382ZM6.34704 9.17822L6.49704 9.17822C6.51435 9.17822 6.52982 9.18822 6.54704 9.18822C6.56426 9.18822 6.58996 9.19822 6.60704 9.19822C6.62411 9.19822 6.64016 9.20822 6.65704 9.20822C6.67392 9.20822 6.69037 9.21822 6.70704 9.21822C6.7237 9.21822 6.74065 9.23822 6.75704 9.23822C6.77343 9.23822 6.79095 9.25821 6.80704 9.25821C6.82313 9.25821 6.8313 9.27822 6.84704 9.27822C6.86278 9.27822 6.88169 9.29822 6.89704 9.29822C6.91241 9.29822 6.9321 9.32822 6.94704 9.32822C6.96197 9.32822 6.97255 9.34822 6.98704 9.34822C7.00153 9.34822 7.01305 9.37785 7.02704 9.38822C7.04105 9.39856 7.05357 9.40719 7.06704 9.41821C7.08051 9.42924 7.09411 9.43654 7.10704 9.44822C7.11995 9.45989 7.13471 9.47592 7.14704 9.48822C7.15936 9.50051 7.17532 9.51534 7.18704 9.52822C7.19875 9.5411 7.20597 9.55478 7.21704 9.56822C7.2281 9.58165 7.24664 9.59425 7.25704 9.60822C7.26743 9.62218 7.27704 9.63376 7.27704 9.64822C7.27704 9.66267 7.30704 9.6733 7.30704 9.68822C7.30704 9.70313 7.33704 9.72288 7.33704 9.73822C7.33704 9.75355 7.35704 9.77249 7.35704 9.78822C7.35704 9.80392 7.37704 9.81214 7.37704 9.82822C7.37704 9.84428 7.39704 9.86184 7.39704 9.87822C7.39704 9.89459 7.41704 9.91157 7.41704 9.92822C7.41704 9.94485 7.42704 9.96133 7.42704 9.97822C7.42704 9.99508 7.43704 10.0111 7.43704 10.0282C7.43704 10.0453 7.44704 10.061 7.44704 10.0782C7.44704 10.0954 7.45704 10.1109 7.45704 10.1282L7.45704 10.1882C7.45704 10.2056 7.46704 10.2208 7.46704 10.2382C7.46704 10.2556 7.45704 10.2708 7.45704 10.2882L7.45704 10.3382C7.45704 10.3555 7.44704 10.381 7.44704 10.3982C7.44704 10.4154 7.43704 10.4311 7.43704 10.4482C7.43704 10.4653 7.42704 10.4813 7.42704 10.4982C7.42704 10.5151 7.41704 10.5316 7.41704 10.5482C7.41704 10.5648 7.39704 10.5818 7.39704 10.5982C7.39704 10.6146 7.37704 10.6321 7.37704 10.6482C7.37704 10.6643 7.35704 10.6825 7.35704 10.6982C7.35704 10.7139 7.33704 10.7229 7.33704 10.7382C7.33704 10.7535 7.30704 10.7733 7.30704 10.7882C7.30704 10.8031 7.27704 10.8138 7.27704 10.8282C7.27704 10.8427 7.26743 10.8543 7.25704 10.8682C7.24664 10.8822 7.22811 10.8948 7.21704 10.9082C7.20598 10.9217 7.19876 10.9353 7.18704 10.9482C7.17533 10.9611 7.15936 10.9759 7.14704 10.9882C7.13471 11.0005 7.11995 11.0166 7.10704 11.0282C7.09411 11.0399 7.08051 11.0472 7.06704 11.0582C7.05357 11.0692 7.04103 11.0779 7.02704 11.0882C7.01305 11.0986 7.00153 11.1182 6.98704 11.1182C6.97257 11.1182 6.96197 11.1482 6.94704 11.1482C6.9321 11.1482 6.91241 11.1782 6.89704 11.1782C6.88169 11.1782 6.86278 11.1982 6.84704 11.1982C6.8313 11.1982 6.82312 11.2182 6.80704 11.2182C6.79096 11.2182 6.77343 11.2382 6.75704 11.2382C6.74065 11.2382 6.7237 11.2582 6.70704 11.2582C6.69037 11.2582 6.67392 11.2682 6.65704 11.2682C6.64016 11.2682 6.62411 11.2782 6.60704 11.2782C6.58997 11.2782 6.56426 11.2882 6.54704 11.2882C6.52982 11.2882 6.51435 11.2982 6.49704 11.2982L6.28704 11.2982C6.26973 11.2982 6.25426 11.2882 6.23704 11.2882C6.21982 11.2882 6.20411 11.2782 6.18704 11.2782C6.16997 11.2782 6.15392 11.2682 6.13704 11.2682C6.12016 11.2682 6.1037 11.2582 6.08704 11.2582C6.07037 11.2582 6.05343 11.2382 6.03704 11.2382C6.02065 11.2382 6.00312 11.2182 5.98704 11.2182C5.97096 11.2182 5.95278 11.1982 5.93704 11.1982C5.9213 11.1982 5.91239 11.1782 5.89704 11.1782C5.88169 11.1782 5.86197 11.1482 5.84704 11.1482C5.8321 11.1482 5.82151 11.1182 5.80704 11.1182C5.79257 11.1182 5.78103 11.0986 5.76704 11.0882C5.75305 11.0779 5.73049 11.0692 5.71704 11.0582C5.70357 11.0472 5.68995 11.0399 5.67704 11.0282C5.66413 11.0165 5.65936 11.0005 5.64704 10.9882C5.63473 10.9759 5.61875 10.9611 5.60704 10.9482C5.59533 10.9353 5.5881 10.9217 5.57704 10.9082C5.56597 10.8948 5.54743 10.8822 5.53704 10.8682C5.52664 10.8543 5.51704 10.8427 5.51704 10.8282C5.51704 10.8138 5.48704 10.8031 5.48704 10.7882C5.48704 10.7733 5.45704 10.7535 5.45704 10.7382C5.45704 10.7229 5.43704 10.7139 5.43704 10.6982C5.43704 10.6825 5.40704 10.6643 5.40704 10.6482C5.40704 10.6322 5.39704 10.6146 5.39704 10.5982C5.39704 10.5818 5.37704 10.5649 5.37704 10.5482C5.37704 10.5316 5.36704 10.5151 5.36704 10.4982C5.36704 10.4813 5.35704 10.4653 5.35704 10.4482C5.35704 10.4311 5.34704 10.4154 5.34704 10.3982C5.34704 10.381 5.33704 10.3555 5.33704 10.3382L5.33704 10.2882C5.33704 10.2708 5.32704 10.2556 5.32704 10.2382C5.32704 10.2208 5.33704 10.2056 5.33704 10.1882L5.33704 10.1282C5.33704 10.1109 5.34704 10.0954 5.34704 10.0782C5.34704 10.061 5.35704 10.0453 5.35704 10.0282C5.35704 10.0111 5.36704 9.99508 5.36704 9.97822C5.36704 9.96135 5.37704 9.94487 5.37704 9.92822C5.37704 9.91157 5.39704 9.89459 5.39704 9.87822C5.39704 9.86183 5.40704 9.84428 5.40704 9.82822C5.40704 9.81215 5.43704 9.80394 5.43704 9.78822C5.43704 9.77249 5.45704 9.75354 5.45704 9.73822C5.45704 9.72288 5.48704 9.70312 5.48704 9.68822C5.48704 9.6733 5.51704 9.66266 5.51704 9.64822C5.51704 9.63376 5.52664 9.62218 5.53704 9.60822C5.54743 9.59425 5.56598 9.58165 5.57704 9.56822C5.5881 9.55478 5.59533 9.5411 5.60704 9.52822C5.61875 9.51534 5.63471 9.50051 5.64704 9.48822C5.65935 9.47592 5.66413 9.45989 5.67704 9.44822C5.68995 9.43654 5.70357 9.42924 5.71704 9.41821C5.73051 9.40719 5.75306 9.39856 5.76704 9.38822C5.78103 9.37785 5.79257 9.34822 5.80704 9.34822C5.82153 9.34822 5.8321 9.32822 5.84704 9.32822C5.86197 9.32822 5.88169 9.29822 5.89704 9.29822C5.91239 9.29822 5.9213 9.27822 5.93704 9.27822C5.95278 9.27822 5.97096 9.25821 5.98704 9.25821C6.00312 9.25821 6.02065 9.23822 6.03704 9.23822C6.05343 9.23822 6.07039 9.21822 6.08704 9.21822C6.1037 9.21822 6.12016 9.20822 6.13704 9.20822C6.15392 9.20822 6.16997 9.19822 6.18704 9.19822C6.20411 9.19822 6.21982 9.18822 6.23704 9.18822C6.25426 9.18822 6.26973 9.17822 6.28704 9.17822L6.34704 9.17822ZM5.77704 18.7182L5.77704 14.9582L17.857 14.9582L17.857 18.7182L5.77704 18.7182Z" stroke="rgba(3, 79, 161, 1)" stroke-width="0.8"    fill-rule="evenodd"  fill="#034FA1" ></path><path d="M17.2691 5.45459C17.5961 5.45459 17.8681 5.70673 17.8946 6.03277L17.8946 7.19277L19.0582 7.19277C19.0679 7.19277 19.0873 7.19641 19.0873 7.19641C19.097 7.19641 19.1068 7.20004 19.1164 7.20004C19.126 7.20004 19.1418 7.20368 19.1418 7.20368C19.1513 7.20368 19.1746 7.21459 19.1746 7.21459C19.184 7.21459 19.1907 7.22186 19.2 7.22186C19.2093 7.22186 19.2328 7.22914 19.2328 7.22914C19.2419 7.22914 19.2492 7.24004 19.2582 7.24004C19.2671 7.24004 19.2749 7.25095 19.2837 7.25095C19.2924 7.25095 19.3006 7.26084 19.3091 7.2655C19.3177 7.27016 19.3262 7.27497 19.3346 7.28004C19.3429 7.28507 19.3519 7.29277 19.36 7.29823C19.3681 7.30366 19.374 7.30697 19.3818 7.31277C19.3897 7.31857 19.3998 7.32479 19.4073 7.33095C19.4148 7.33712 19.4219 7.34262 19.4291 7.34914C19.4364 7.35565 19.444 7.36412 19.4509 7.37095C19.4579 7.37779 19.4625 7.38198 19.4691 7.38914C19.4757 7.39629 19.4847 7.40348 19.4909 7.41095C19.4972 7.41839 19.5032 7.42867 19.5091 7.43641C19.515 7.44414 19.5218 7.45021 19.5273 7.45823C19.5328 7.46622 19.533 7.47907 19.5382 7.48732C19.5434 7.49557 19.5516 7.50063 19.5564 7.50914C19.5612 7.51762 19.5709 7.52589 19.5709 7.53459C19.5709 7.54329 19.5818 7.55115 19.5818 7.56004C19.5818 7.56894 19.5928 7.57643 19.5928 7.5855C19.5928 7.59457 19.6 7.60535 19.6 7.61459C19.6 7.62381 19.6109 7.63431 19.6109 7.64368C19.6109 7.65303 19.6182 7.65964 19.6182 7.66914C19.6182 7.67859 19.6218 7.69228 19.6218 7.70186C19.6218 7.71145 19.6328 7.71767 19.6328 7.72732C19.6328 7.73694 19.6328 7.75033 19.6328 7.76004C19.6328 7.76974 19.6364 7.77576 19.6364 7.7855C19.6364 7.79523 19.6364 7.80486 19.6364 7.81459C19.6364 7.82432 19.6364 7.83756 19.6364 7.84732C19.6364 7.85703 19.6328 7.86306 19.6328 7.87277C19.6328 7.88246 19.6328 7.89585 19.6328 7.9055C19.6328 7.91513 19.6218 7.92137 19.6218 7.93095C19.6218 7.94054 19.6182 7.95057 19.6182 7.96004C19.6182 7.96952 19.6109 7.97977 19.6109 7.98914C19.6109 7.9985 19.6 8.00899 19.6 8.01823C19.6 8.02744 19.5928 8.03461 19.5928 8.04368C19.5928 8.05275 19.5818 8.06388 19.5818 8.07277C19.5818 8.08167 19.5709 8.0895 19.5709 8.09823C19.5709 8.10691 19.5612 8.11517 19.5564 8.12368C19.5516 8.13215 19.5434 8.14086 19.5382 8.14914C19.533 8.15739 19.5328 8.16294 19.5273 8.17095C19.5218 8.17895 19.515 8.19229 19.5091 8.20004C19.5032 8.20778 19.4972 8.21441 19.4909 8.22186C19.4847 8.22932 19.4757 8.23652 19.4691 8.24368C19.4625 8.25084 19.4579 8.25864 19.4509 8.2655C19.444 8.27233 19.4364 8.27715 19.4291 8.28368C19.4219 8.29017 19.4148 8.29567 19.4073 8.30186C19.3998 8.30801 19.3897 8.31059 19.3818 8.31641C19.374 8.32221 19.3681 8.32913 19.36 8.33459C19.3519 8.34 19.3429 8.3477 19.3346 8.35277C19.3262 8.35782 19.3177 8.36263 19.3091 8.36732C19.3006 8.37196 19.2924 8.37823 19.2837 8.37823C19.2749 8.37823 19.2671 8.39277 19.2582 8.39277C19.2492 8.39277 19.2419 8.40004 19.2328 8.40004C19.2236 8.40004 19.2093 8.41459 19.2 8.41459C19.1907 8.41459 19.184 8.42186 19.1746 8.42186C19.1652 8.42186 19.1513 8.42914 19.1418 8.42914C19.1323 8.42914 19.126 8.43277 19.1164 8.43277C19.1068 8.43277 19.097 8.43641 19.0873 8.43641C19.0776 8.43641 19.0679 8.44004 19.0582 8.44004L17.8946 8.44004L17.8946 9.60368C17.8946 9.61339 17.8946 9.6231 17.8946 9.63277C17.8946 9.64242 17.8909 9.65226 17.8909 9.66186C17.8909 9.67145 17.8837 9.67782 17.8837 9.68732C17.8837 9.69681 17.8764 9.71063 17.8764 9.72004C17.8764 9.72943 17.8691 9.73622 17.8691 9.7455C17.8691 9.75476 17.8618 9.76184 17.8618 9.77095C17.8618 9.78006 17.8473 9.79108 17.8473 9.80004C17.8473 9.80898 17.84 9.81673 17.84 9.8255C17.84 9.83427 17.8301 9.8424 17.8255 9.85095C17.8208 9.85951 17.8123 9.87171 17.8073 9.88004C17.8022 9.88836 17.7982 9.89742 17.7928 9.9055C17.7873 9.91358 17.784 9.91949 17.7782 9.92732C17.7724 9.93512 17.7662 9.94157 17.76 9.94913C17.7539 9.95666 17.7447 9.96369 17.7382 9.97095C17.7317 9.97817 17.7269 9.98583 17.72 9.99277C17.7132 9.99969 17.7054 10.008 17.6982 10.0146C17.6911 10.0212 17.6838 10.0265 17.6764 10.0328C17.6689 10.039 17.6623 10.045 17.6546 10.051C17.6468 10.0569 17.6408 10.0636 17.6328 10.0691C17.6247 10.0747 17.6119 10.0785 17.6037 10.0837C17.5954 10.0888 17.5867 10.0934 17.5782 10.0982C17.5697 10.103 17.5615 10.1128 17.5528 10.1128C17.544 10.1128 17.5362 10.1237 17.5273 10.1237C17.5184 10.1237 17.5073 10.1382 17.4982 10.1382C17.4891 10.1382 17.482 10.1455 17.4728 10.1455C17.4635 10.1455 17.4566 10.1564 17.4473 10.1564C17.4379 10.1564 17.424 10.1637 17.4146 10.1637C17.4051 10.1637 17.3987 10.1673 17.3891 10.1673C17.3796 10.1673 17.3697 10.1746 17.36 10.1746C17.3504 10.1746 17.3406 10.1782 17.3309 10.1782C17.3212 10.1782 17.3116 10.1782 17.3018 10.1782C17.2921 10.1782 17.2789 10.1819 17.2691 10.1819C17.2594 10.1819 17.2534 10.1782 17.2437 10.1782C17.2339 10.1782 17.2243 10.1782 17.2146 10.1782C17.2049 10.1782 17.1951 10.1746 17.1855 10.1746C17.1758 10.1746 17.166 10.1673 17.1564 10.1673C17.1468 10.1673 17.1404 10.1637 17.1309 10.1637C17.1215 10.1637 17.1076 10.1564 17.0982 10.1564C17.0888 10.1564 17.082 10.1455 17.0728 10.1455C17.0635 10.1455 17.0564 10.1382 17.0473 10.1382C17.0382 10.1382 17.0235 10.1237 17.0146 10.1237C17.0057 10.1237 16.9978 10.1128 16.9891 10.1128C16.9804 10.1128 16.9758 10.103 16.9673 10.0982C16.9588 10.0934 16.9501 10.0888 16.9418 10.0837C16.9336 10.0785 16.9207 10.0747 16.9128 10.0691C16.9047 10.0636 16.8987 10.0569 16.8909 10.051C16.8832 10.045 16.8766 10.039 16.8691 10.0328C16.8617 10.0265 16.8545 10.0212 16.8473 10.0146C16.8401 10.008 16.8323 9.99969 16.8255 9.99277C16.8186 9.98583 16.8102 9.97817 16.8037 9.97095C16.7971 9.96369 16.7916 9.95666 16.7855 9.94913C16.7793 9.94157 16.7731 9.93512 16.7673 9.92732C16.7615 9.91949 16.7582 9.91358 16.7528 9.9055C16.7473 9.89742 16.7433 9.88836 16.7382 9.88004C16.7331 9.87171 16.7247 9.85951 16.72 9.85095C16.7153 9.8424 16.7055 9.83427 16.7055 9.8255C16.7055 9.81673 16.6946 9.80898 16.6946 9.80004C16.6946 9.79108 16.6837 9.78006 16.6837 9.77095C16.6837 9.76184 16.6764 9.75476 16.6764 9.7455C16.6764 9.73622 16.6691 9.72943 16.6691 9.72004C16.6691 9.71063 16.6582 9.69681 16.6582 9.68732C16.6582 9.67782 16.6546 9.67145 16.6546 9.66186C16.6546 9.65226 16.6509 9.64242 16.6509 9.63277C16.6509 9.6231 16.6473 9.61339 16.6473 9.60368L16.6473 8.44004L15.4873 8.44004C15.4776 8.44004 15.4643 8.43641 15.4546 8.43641C15.445 8.43641 15.4388 8.43277 15.4292 8.43277C15.4196 8.43277 15.4059 8.42913 15.3964 8.42913C15.3869 8.42913 15.3804 8.42187 15.371 8.42187C15.3616 8.42187 15.3549 8.4146 15.3456 8.4146C15.3363 8.4146 15.3219 8.40005 15.3128 8.40005C15.3037 8.40005 15.2963 8.39277 15.2874 8.39277C15.2784 8.39277 15.2708 8.37823 15.262 8.37823C15.2532 8.37823 15.245 8.37196 15.2364 8.36732C15.2279 8.36264 15.2156 8.35782 15.2073 8.35277C15.199 8.3477 15.1935 8.34001 15.1855 8.3346C15.1774 8.32914 15.1679 8.32221 15.1601 8.31641C15.1522 8.31059 15.1458 8.30801 15.1382 8.30186C15.1307 8.29567 15.1236 8.29017 15.1164 8.28368C15.1091 8.27715 15.1015 8.27234 15.0945 8.2655C15.0876 8.25865 15.083 8.25082 15.0764 8.24369C15.0698 8.23651 15.0609 8.22932 15.0546 8.22186C15.0483 8.2144 15.0424 8.20778 15.0365 8.20004C15.0306 8.19229 15.0237 8.17895 15.0182 8.17096C15.0127 8.16294 15.0125 8.15739 15.0074 8.14914C15.0022 8.14087 14.994 8.13215 14.9893 8.12368C14.9845 8.11517 14.9747 8.10691 14.9747 8.09822C14.9747 8.0895 14.9637 8.08167 14.9637 8.07278C14.9637 8.06388 14.9529 8.05275 14.9529 8.04368C14.9529 8.03461 14.9383 8.02744 14.9383 8.01822C14.9383 8.00898 14.931 7.99851 14.931 7.98914C14.931 7.97977 14.9273 7.96953 14.9273 7.96005C14.9273 7.95058 14.9165 7.94054 14.9165 7.93095C14.9165 7.92137 14.9127 7.91512 14.9127 7.9055C14.9127 7.89585 14.9092 7.88246 14.9092 7.87277C14.9092 7.86306 14.9092 7.85703 14.9092 7.84731C14.9092 7.83756 14.9092 7.82432 14.9092 7.81459C14.9092 7.80485 14.9092 7.79524 14.9092 7.7855C14.9092 7.77577 14.9092 7.76974 14.9092 7.76005C14.9092 7.75033 14.9127 7.73695 14.9127 7.72732C14.9127 7.71767 14.9165 7.71145 14.9165 7.70186C14.9165 7.69228 14.9273 7.67859 14.9273 7.66914C14.9273 7.65964 14.931 7.65303 14.931 7.64368C14.931 7.63431 14.9383 7.62381 14.9383 7.61459C14.9383 7.60535 14.9529 7.59456 14.9529 7.5855C14.9529 7.57643 14.9637 7.56895 14.9637 7.56005C14.9637 7.55115 14.9747 7.5433 14.9747 7.53459C14.9747 7.52589 14.9845 7.51762 14.9893 7.50914C14.9941 7.50063 15.0022 7.49557 15.0074 7.48732C15.0125 7.47907 15.0127 7.46623 15.0182 7.45823C15.0237 7.45022 15.0306 7.44415 15.0365 7.43641C15.0424 7.42868 15.0483 7.41839 15.0546 7.41096C15.0609 7.40348 15.0698 7.3963 15.0764 7.38914C15.083 7.38198 15.0876 7.37779 15.0945 7.37095C15.1015 7.36412 15.1091 7.35565 15.1164 7.34913C15.1236 7.34262 15.1307 7.33712 15.1382 7.33096C15.1458 7.32479 15.1522 7.31857 15.1601 7.31277C15.1679 7.30697 15.1774 7.30367 15.1855 7.29823C15.1935 7.29277 15.199 7.28507 15.2073 7.28004C15.2156 7.27497 15.2279 7.27017 15.2364 7.26551C15.245 7.26084 15.2532 7.25096 15.262 7.25096C15.2708 7.25096 15.2784 7.24005 15.2874 7.24005C15.2963 7.24005 15.3037 7.22914 15.3128 7.22914C15.3219 7.22914 15.3363 7.22186 15.3456 7.22186C15.3549 7.22186 15.3616 7.21459 15.371 7.21459C15.3804 7.21459 15.3869 7.20368 15.3964 7.20368C15.4059 7.20368 15.4196 7.20004 15.4292 7.20004C15.4388 7.20004 15.445 7.19641 15.4546 7.19641C15.4643 7.19641 15.4776 7.19277 15.4873 7.19277L16.6473 7.19277L16.6473 6.03277C16.6473 6.02306 16.6509 6.00971 16.6509 6.00004C16.6509 5.99037 16.6546 5.98417 16.6546 5.97459C16.6546 5.96498 16.6582 5.95136 16.6582 5.94186C16.6582 5.93236 16.6691 5.9258 16.6691 5.91641C16.6691 5.907 16.6764 5.89658 16.6764 5.88732C16.6764 5.87803 16.6837 5.86734 16.6837 5.85823C16.6837 5.84912 16.6946 5.84171 16.6946 5.83277C16.6946 5.82383 16.7055 5.81608 16.7055 5.80732C16.7055 5.79855 16.7154 5.79041 16.72 5.78186C16.7247 5.77331 16.7331 5.76111 16.7382 5.75277C16.7433 5.74443 16.7473 5.7354 16.7528 5.72732C16.7582 5.71924 16.7615 5.71332 16.7673 5.7055C16.7731 5.69768 16.7793 5.6912 16.7855 5.68368C16.7916 5.67614 16.7971 5.6691 16.8037 5.66186C16.8102 5.6546 16.8186 5.64696 16.8255 5.64004C16.8323 5.6331 16.8401 5.62482 16.8473 5.61823C16.8544 5.61161 16.8616 5.60633 16.8691 5.60004C16.8766 5.59378 16.8832 5.58777 16.8909 5.58186C16.8987 5.57595 16.9047 5.56923 16.9128 5.56368C16.9207 5.55813 16.9336 5.55066 16.9418 5.5455C16.9501 5.54033 16.9588 5.53937 16.9673 5.53459C16.9758 5.52981 16.9804 5.52004 16.9891 5.52004C16.9978 5.52004 17.0057 5.50914 17.0146 5.50914C17.0235 5.50914 17.0382 5.49459 17.0473 5.49459C17.0564 5.49459 17.0635 5.48368 17.0728 5.48368C17.082 5.48368 17.0888 5.47641 17.0982 5.47641C17.1076 5.47641 17.1215 5.46914 17.1309 5.46914C17.1404 5.46914 17.1468 5.46186 17.1564 5.46186C17.166 5.46186 17.1758 5.45823 17.1855 5.45823C17.1951 5.45823 17.2049 5.45459 17.2146 5.45459C17.2243 5.45459 17.2339 5.45459 17.2437 5.45459C17.2534 5.45459 17.2594 5.45459 17.2691 5.45459Z"   fill="#CC4E1D" ></path></svg>