<svg xmlns="http://www.w3.org/2000/svg" xmlns:xlink="http://www.w3.org/1999/xlink" width="24" height="24" viewBox="0 0 24 24" fill="none"><path d="M18.1023 13.887L22.5453 15.8628C22.6963 15.9299 22.8666 15.9015 22.9874 15.8039C23.0468 15.7613 23.096 15.7029 23.1277 15.6316C24.3062 12.9815 23.11 9.86286 20.4566 8.6829C20.451 8.68041 20.4453 8.67806 20.4397 8.67582C20.4342 8.67312 20.4287 8.67053 20.4231 8.66804C20.2088 8.57272 19.9554 8.6701 19.8601 8.88445L17.8859 13.324C17.7906 13.5383 17.888 13.7917 18.1023 13.887ZM20.4593 9.63639C22.3172 10.6663 23.1793 12.8948 22.496 14.9073L18.8387 13.2809L20.4593 9.63639ZM13.6649 19.9231C10.5859 18.5539 9.19355 14.9317 10.5626 11.8529C11.9317 8.77413 15.554 7.3819 18.6329 8.75107C18.8473 8.84639 18.9447 9.09975 18.8494 9.3141C18.8137 9.39428 18.7559 9.45809 18.6863 9.50157L16.6056 14.138L21.3279 16.238C21.3893 16.2363 21.4519 16.2479 21.5115 16.2744C21.7258 16.3697 21.8233 16.6231 21.728 16.8374C21.0651 18.3281 19.8613 19.4693 18.3378 20.0522C16.819 20.6332 15.1589 20.5874 13.6649 19.9231ZM11.3421 12.1996C12.4521 9.7035 15.2805 8.4961 17.8199 9.3489L15.6528 14.1811C15.6066 14.285 15.6008 14.4031 15.6438 14.5077C15.6867 14.6124 15.7653 14.6979 15.8693 14.7441L20.7394 16.9098C19.4361 19.2541 16.5171 20.2578 14.0115 19.1436C11.3613 17.9651 10.1637 14.8496 11.3421 12.1996Z" stroke="rgba(204, 78, 29, 1)" stroke-width="0.6"    fill-rule="evenodd"  fill="#CC4E1D" ></path><path d="M15.0629 2.40414C15.1474 1.24567 16.1187 0.363525 17.259 0.363525C18.4942 0.363525 19.455 1.34132 19.455 2.57419C19.455 3.80706 18.4837 4.78486 17.259 4.78486C16.6466 4.78486 16.1187 4.51915 15.7597 4.16842L8.98161 9.48252L7.66188 16.4759C8.45372 16.8266 8.98161 17.6237 8.98161 18.5165C8.98161 19.76 8.01029 20.7272 6.78558 20.7272C5.56087 20.7272 4.49453 19.7494 4.49453 18.5165C4.49453 17.7194 4.93796 17.0073 5.55031 16.5715L3.00587 8.33468L2.74193 8.33468C1.50666 8.33468 0.545898 7.35688 0.545898 6.12401C0.545898 4.89114 1.50666 3.90272 2.74193 3.90272C3.53377 3.90272 4.3256 4.3491 4.67401 5.05056L15.0629 2.40414ZM15.2319 3.46696C15.2319 3.38193 15.1474 3.28628 15.1474 3.20126L4.93796 5.85831L4.93796 6.03899C4.93796 6.8361 4.49453 7.54819 3.79771 7.98395L6.43717 16.3058L6.78558 16.3058L8.18977 9.13179C8.18977 9.04677 8.27424 8.95111 8.36926 8.86609L15.2319 3.46696Z" stroke="rgba(3, 79, 161, 1)" stroke-width="0.6"      fill="#034FA1" ></path></svg>