<svg xmlns="http://www.w3.org/2000/svg" xmlns:xlink="http://www.w3.org/1999/xlink" width="24" height="24" viewBox="0 0 24 24" fill="none"><path d="M7.77895 22.7771C7.66816 22.7318 7.55818 22.6846 7.449 22.6354C7.33983 22.5863 7.23154 22.5353 7.1241 22.4825C7.01666 22.4296 6.91015 22.3749 6.8046 22.3183C6.69902 22.2618 6.59444 22.2034 6.49087 22.1433C6.38729 22.0831 6.2848 22.0212 6.18333 21.9575C6.08185 21.8938 5.98151 21.8284 5.88229 21.7612C5.78307 21.694 5.685 21.6252 5.58812 21.5546C5.49125 21.4841 5.39563 21.4119 5.3012 21.338C5.29034 21.3304 5.27968 21.3226 5.26923 21.3144C5.25877 21.3063 5.24852 21.2979 5.23847 21.2892C5.22844 21.2806 5.21863 21.2717 5.20905 21.2625C5.19946 21.2533 5.19012 21.2439 5.18099 21.2343C5.17187 21.2247 5.16299 21.2148 5.15439 21.2047C5.14575 21.1946 5.13741 21.1843 5.12932 21.1738C5.12122 21.1633 5.11337 21.1526 5.10581 21.1417C5.09826 21.1308 5.09099 21.1197 5.08398 21.1084C5.07698 21.0971 5.07028 21.0856 5.06385 21.074C5.05742 21.0624 5.0513 21.0506 5.04548 21.0386C5.03964 21.0267 5.03411 21.0146 5.0289 21.0024C5.02369 20.9902 5.01877 20.9779 5.01418 20.9654C5.00958 20.9529 5.0053 20.9403 5.00134 20.9276C4.99735 20.9149 4.99371 20.9022 4.9904 20.8893C4.98708 20.8764 4.98407 20.8635 4.9814 20.8504C4.97874 20.8374 4.97641 20.8243 4.97441 20.8112C4.97238 20.798 4.97072 20.7849 4.96937 20.7716C4.96803 20.7584 4.96702 20.7451 4.96634 20.7318C4.96568 20.7185 4.96534 20.7053 4.96531 20.692C4.96531 20.6786 4.96565 20.6654 4.96631 20.6521C4.96697 20.6388 4.96795 20.6255 4.9693 20.6123C4.97064 20.5991 4.97231 20.5859 4.97429 20.5727C4.97629 20.5596 4.97862 20.5465 4.98128 20.5335C4.98392 20.5204 4.98691 20.5075 4.99021 20.4946C4.99351 20.4817 4.99715 20.4689 5.00112 20.4562C5.00505 20.4435 5.00933 20.431 5.01393 20.4185C5.0185 20.406 5.0234 20.3937 5.02861 20.3815C5.03381 20.3692 5.03934 20.3571 5.04516 20.3452C5.05098 20.3333 5.0571 20.3214 5.06351 20.3098C5.06991 20.2982 5.07661 20.2867 5.08361 20.2754C5.0906 20.2642 5.09787 20.253 5.10542 20.2421C5.11298 20.2312 5.12078 20.2205 5.12888 20.21C5.13697 20.1994 5.14531 20.1891 5.15392 20.179C5.16253 20.1689 5.17138 20.1591 5.18048 20.1494C5.1896 20.1398 5.19895 20.1304 5.20851 20.1212C5.2181 20.112 5.2279 20.1031 5.23793 20.0944C5.24796 20.0858 5.2582 20.0774 5.26865 20.0692C5.27911 20.0611 5.28978 20.0532 5.30061 20.0456C5.31145 20.038 5.32248 20.0307 5.3337 20.0236C5.34493 20.0166 5.35632 20.0099 5.36789 20.0034C5.37944 19.9969 5.39115 19.9908 5.40301 19.9849C5.41487 19.979 5.42688 19.9735 5.43904 19.9682C5.45119 19.963 5.46347 19.9581 5.47587 19.9534C5.48827 19.9488 5.50076 19.9445 5.51338 19.9405C5.526 19.9365 5.53872 19.9329 5.55151 19.9295C5.5643 19.9262 5.57719 19.9232 5.59013 19.9205C5.60309 19.9178 5.6161 19.9155 5.62916 19.9135C5.64225 19.9114 5.65536 19.9098 5.66851 19.9084C5.68165 19.9071 5.69483 19.906 5.70803 19.9054C5.72124 19.9047 5.73445 19.9043 5.74768 19.9043C5.76091 19.9043 5.77412 19.9047 5.78732 19.9053C5.80053 19.906 5.81371 19.907 5.82687 19.9084C5.84003 19.9097 5.85314 19.9114 5.8662 19.9134C5.87928 19.9154 5.89229 19.9177 5.90523 19.9204C5.91819 19.9231 5.93108 19.9261 5.94387 19.9294C5.95666 19.9327 5.96938 19.9364 5.982 19.9404C5.99462 19.9443 6.00712 19.9487 6.01951 19.9533C6.03191 19.9579 6.04419 19.9628 6.05635 19.968C6.0685 19.9733 6.08053 19.9788 6.0924 19.9847C6.10426 19.9906 6.11597 19.9967 6.12754 20.0031C6.13911 20.0096 6.1505 20.0164 6.16173 20.0234C6.17296 20.0304 6.18399 20.0377 6.19484 20.0453C6.2057 20.0529 6.21637 20.0608 6.22681 20.0689C6.23728 20.0771 6.24752 20.0855 6.25755 20.0941C6.33811 20.1571 6.41972 20.2186 6.50239 20.2787C6.58505 20.3389 6.66872 20.3975 6.75338 20.4548C6.83808 20.512 6.9237 20.5677 7.01028 20.622C7.09688 20.6762 7.18436 20.7289 7.27277 20.7802C7.36118 20.8314 7.45042 20.881 7.54052 20.9291C7.63062 20.9772 7.72153 21.0238 7.81321 21.0687C7.9049 21.1137 7.99735 21.157 8.09055 21.1988C8.18373 21.2405 8.2776 21.2806 8.37217 21.3191C8.44515 21.3496 8.51849 21.3792 8.59218 21.4078C8.66587 21.4365 8.73992 21.4643 8.8143 21.4911C8.88867 21.5179 8.96336 21.5439 9.03837 21.5688C9.11338 21.5938 9.1887 21.6179 9.2643 21.641C9.33989 21.6642 9.41578 21.6863 9.49192 21.7076C9.56805 21.7288 9.64445 21.7491 9.72107 21.7685C9.79772 21.7879 9.87459 21.8063 9.95168 21.8237C10.0288 21.8412 10.106 21.8577 10.1835 21.8732C10.2611 21.8887 10.3387 21.9033 10.4165 21.917C10.4944 21.9306 10.5724 21.9432 10.6506 21.9549C10.7287 21.9666 10.807 21.9773 10.8854 21.9871C10.9639 21.9968 11.0424 22.0056 11.121 22.0134C11.1996 22.0212 11.2784 22.0281 11.3572 22.0339C11.436 22.0398 11.5148 22.0447 11.5938 22.0486C11.6727 22.0525 11.7517 22.0554 11.8307 22.0574C11.9096 22.0593 11.9886 22.0603 12.0677 22.0603C12.1467 22.0603 12.2257 22.0593 12.3047 22.0574C12.3837 22.0554 12.4626 22.0525 12.5416 22.0486C12.6205 22.0447 12.6993 22.0398 12.7782 22.0339C12.857 22.0281 12.9357 22.0212 13.0143 22.0134C13.0929 22.0056 13.1715 21.9968 13.2499 21.9871C13.3283 21.9773 13.4066 21.9666 13.4848 21.9549C13.5629 21.9432 13.6409 21.9306 13.7188 21.917C13.7966 21.9033 13.8743 21.8887 13.9518 21.8732C14.0293 21.8577 14.1066 21.8412 14.1837 21.8237C14.2607 21.8063 14.3376 21.7879 14.4143 21.7685C14.4909 21.7491 14.5673 21.7288 14.6434 21.7076C14.7195 21.6863 14.7954 21.6642 14.871 21.641C14.9466 21.6179 15.022 21.5938 15.097 21.5688C15.172 21.5439 15.2467 21.5179 15.321 21.4911C15.3954 21.4643 15.4695 21.4365 15.5431 21.4078C15.6168 21.3792 15.6902 21.3496 15.7632 21.3191C15.8579 21.2805 15.952 21.2402 16.0453 21.1983C16.1387 21.1564 16.2314 21.1129 16.3232 21.0678C16.4151 21.0227 16.5062 20.9761 16.5965 20.9278C16.6868 20.8796 16.7762 20.8298 16.8649 20.7785C16.9534 20.7271 17.0411 20.6742 17.1279 20.6199C17.2147 20.5655 17.3005 20.5097 17.3854 20.4523C17.4703 20.395 17.5542 20.3362 17.637 20.2759C17.7199 20.2157 17.8017 20.154 17.8825 20.091C17.8925 20.0823 17.9027 20.0739 17.9132 20.0658C17.9237 20.0576 17.9343 20.0498 17.9452 20.0422C17.956 20.0346 17.9671 20.0273 17.9783 20.0202C17.9895 20.0132 18.0009 20.0065 18.0125 20C18.0241 19.9936 18.0358 19.9874 18.0476 19.9815C18.0595 19.9757 18.0715 19.9701 18.0837 19.9649C18.0958 19.9597 18.1081 19.9547 18.1205 19.9501C18.1329 19.9455 18.1454 19.9412 18.158 19.9372C18.1706 19.9333 18.1834 19.9296 18.1962 19.9263C18.2089 19.9229 18.2218 19.9199 18.2348 19.9173C18.2477 19.9146 18.2607 19.9122 18.2738 19.9102C18.2869 19.9082 18.3 19.9066 18.3132 19.9052C18.3263 19.9039 18.3395 19.9028 18.3527 19.9022C18.3659 19.9015 18.3791 19.9012 18.3923 19.9012C18.4056 19.9012 18.4188 19.9015 18.432 19.9022C18.4452 19.9029 18.4584 19.9039 18.4715 19.9053C18.4847 19.9066 18.4978 19.9083 18.5109 19.9103C18.5239 19.9123 18.5369 19.9147 18.5499 19.9174C18.5628 19.92 18.5757 19.9231 18.5885 19.9264C18.6013 19.9297 18.614 19.9334 18.6266 19.9374C18.6392 19.9414 18.6518 19.9457 18.6642 19.9503C18.6766 19.9549 18.6888 19.9598 18.701 19.9651C18.7131 19.9704 18.7251 19.9759 18.737 19.9818C18.7488 19.9876 18.7606 19.9938 18.7721 20.0002C18.7837 20.0067 18.7951 20.0135 18.8063 20.0205C18.8175 20.0276 18.8286 20.0349 18.8394 20.0425C18.8502 20.0501 18.8609 20.0579 18.8714 20.0661C18.8818 20.0742 18.892 20.0826 18.9021 20.0913C18.9121 20.1 18.9219 20.1089 18.9315 20.1181C18.9411 20.1272 18.9504 20.1366 18.9595 20.1463C18.9686 20.1559 18.9775 20.1658 18.9861 20.1759C18.9947 20.186 19.003 20.1963 19.0111 20.2068C19.0192 20.2173 19.027 20.2281 19.0346 20.239C19.0422 20.2499 19.0494 20.261 19.0564 20.2723C19.0634 20.2836 19.0701 20.2951 19.0765 20.3067C19.0829 20.3183 19.089 20.3301 19.0949 20.342C19.1007 20.354 19.1062 20.3661 19.1114 20.3783C19.1166 20.3905 19.1215 20.4029 19.1261 20.4154C19.1307 20.4278 19.1349 20.4404 19.1389 20.4531C19.1428 20.4658 19.1465 20.4786 19.1498 20.4914C19.1531 20.5043 19.1561 20.5173 19.1587 20.5303C19.1614 20.5433 19.1637 20.5564 19.1657 20.5696C19.1677 20.5827 19.1694 20.5959 19.1707 20.6092C19.172 20.6224 19.173 20.6356 19.1737 20.649C19.1744 20.6622 19.1747 20.6755 19.1747 20.6888C19.1747 20.7021 19.1743 20.7154 19.1737 20.7287C19.173 20.742 19.172 20.7552 19.1707 20.7685C19.1693 20.7817 19.1676 20.7949 19.1656 20.808C19.1636 20.8212 19.1613 20.8343 19.1586 20.8473C19.1559 20.8603 19.1529 20.8733 19.1496 20.8861C19.1463 20.899 19.1426 20.9118 19.1387 20.9245C19.1347 20.9372 19.1304 20.9498 19.1258 20.9622C19.1212 20.9747 19.1163 20.9871 19.1111 20.9993C19.1059 21.0115 19.1004 21.0236 19.0945 21.0355C19.0887 21.0475 19.0826 21.0592 19.0762 21.0709C19.0697 21.0825 19.063 21.0939 19.056 21.1052C19.049 21.1165 19.0418 21.1276 19.0342 21.1385C19.0267 21.1494 19.0188 21.1602 19.0107 21.1707C19.0026 21.1812 18.9942 21.1915 18.9856 21.2016C18.977 21.2116 18.9682 21.2215 18.959 21.2312C18.9499 21.2408 18.9406 21.2502 18.931 21.2594C18.9214 21.2685 18.9116 21.2774 18.9016 21.2861C18.8915 21.2947 18.8813 21.3031 18.8708 21.3113C18.8603 21.3194 18.8497 21.3273 18.8388 21.3349C18.7441 21.4089 18.6482 21.4812 18.551 21.5519C18.4539 21.6226 18.3555 21.6916 18.256 21.7589C18.1565 21.8262 18.0558 21.8917 17.954 21.9555C17.8522 22.0193 17.7494 22.0813 17.6455 22.1416C17.5416 22.2018 17.4367 22.2602 17.3308 22.3168C17.2249 22.3734 17.118 22.4281 17.0102 22.481C16.9024 22.5338 16.7938 22.5848 16.6843 22.634C16.5747 22.6831 16.4644 22.7303 16.3532 22.7755C16.2686 22.8109 16.1835 22.8453 16.098 22.8786C16.0125 22.9119 15.9266 22.9441 15.8403 22.9753C15.754 23.0065 15.6673 23.0366 15.5803 23.0656C15.4933 23.0946 15.4059 23.1225 15.3182 23.1494C15.2304 23.1763 15.1424 23.202 15.0541 23.2267C14.9657 23.2514 14.8771 23.275 14.7882 23.2975C14.6992 23.3199 14.6101 23.3413 14.5206 23.3616C14.4312 23.3818 14.3415 23.401 14.2516 23.4191C14.1616 23.4371 14.0715 23.454 13.9812 23.4699C13.8909 23.4857 13.8003 23.5004 13.7097 23.514C13.6189 23.5275 13.5281 23.54 13.4371 23.5513C13.3461 23.5626 13.255 23.5728 13.1638 23.5819C13.0725 23.591 12.9812 23.5989 12.8897 23.6057C12.7983 23.6125 12.7068 23.6182 12.6152 23.6227C12.5236 23.6273 12.432 23.6307 12.3404 23.633C12.2487 23.6352 12.157 23.6364 12.0653 23.6364C11.9736 23.6364 11.8819 23.6352 11.7903 23.633C11.6986 23.6307 11.607 23.6273 11.5154 23.6227C11.4238 23.6182 11.3324 23.6125 11.2409 23.6057C11.1495 23.5989 11.0581 23.591 10.9669 23.5819C10.8756 23.5728 10.7845 23.5626 10.6935 23.5513C10.6025 23.54 10.5117 23.5275 10.421 23.514C10.3303 23.5004 10.2398 23.4857 10.1495 23.4699C10.0591 23.454 9.96899 23.4371 9.87906 23.4191C9.78914 23.401 9.69945 23.3818 9.61002 23.3616C9.52058 23.3413 9.43139 23.3199 9.34246 23.2975C9.25354 23.275 9.16491 23.2514 9.07657 23.2267C8.98821 23.202 8.90019 23.1763 8.81246 23.1494C8.72474 23.1225 8.63738 23.0946 8.55034 23.0656C8.46329 23.0366 8.37664 23.0065 8.29034 22.9753C8.20405 22.9441 8.11816 22.9119 8.03264 22.8786C7.94714 22.8453 7.86205 22.8109 7.77738 22.7755L7.77895 22.7771ZM1.38814 18.6156C1.36963 18.5834 1.35202 18.5507 1.33529 18.5175C1.31856 18.4843 1.30274 18.4506 1.28784 18.4166C1.27294 18.3825 1.25897 18.348 1.24593 18.3132C1.2329 18.2783 1.22082 18.2432 1.20969 18.2077C1.19856 18.1722 1.1884 18.1364 1.17922 18.1003C1.17003 18.0642 1.16183 18.028 1.15461 17.9914C1.14739 17.9549 1.14117 17.9183 1.13594 17.8814C1.13071 17.8445 1.12648 17.8076 1.12326 17.7705C1.12004 17.7334 1.11782 17.6963 1.11661 17.659C1.11541 17.6218 1.11521 17.5846 1.11601 17.5474C1.11682 17.5102 1.11864 17.473 1.12147 17.4359C1.12429 17.3988 1.12812 17.3618 1.13296 17.3249C1.13779 17.2879 1.14362 17.2512 1.15045 17.2146C1.15727 17.178 1.16509 17.1417 1.17389 17.1055C1.18269 17.0693 1.19246 17.0334 1.2032 16.9978C1.21395 16.9622 1.22565 16.9269 1.23831 16.8919C1.25098 16.8569 1.26458 16.8223 1.27911 16.7881C1.29365 16.7539 1.30911 16.7201 1.32548 16.6867C1.34185 16.6533 1.35912 16.6204 1.37727 16.5879C1.39543 16.5555 1.41445 16.5236 1.43434 16.4922C1.45423 16.4608 1.47495 16.43 1.49651 16.3997C1.51807 16.3695 1.54044 16.3398 1.5636 16.3108C1.58677 16.2818 1.61071 16.2534 1.63542 16.2257C1.66012 16.1979 1.68556 16.1709 1.71174 16.1446C1.73791 16.1183 1.76477 16.0927 1.79233 16.0679C1.81989 16.043 1.8481 16.019 1.87698 15.9957C1.90584 15.9724 1.93531 15.9498 1.96539 15.9282C1.99549 15.9065 2.02614 15.8857 2.05734 15.8657C2.08857 15.8457 2.1203 15.8265 2.15255 15.8083C2.18481 15.79 2.21753 15.7727 2.25072 15.7562C2.28392 15.7398 2.31753 15.7242 2.35156 15.7096C2.3856 15.695 2.42001 15.6813 2.45479 15.6686C2.48957 15.6559 2.52466 15.6441 2.56008 15.6333C2.59549 15.6225 2.63117 15.6127 2.66712 15.6039C2.70307 15.595 2.73924 15.5872 2.77561 15.5803C2.81199 15.5735 2.84852 15.5676 2.8852 15.5628C2.9219 15.5579 2.9587 15.5541 2.9956 15.5512C3.0325 15.5484 3.06944 15.5466 3.10644 15.5458C3.14345 15.545 3.18044 15.5452 3.21742 15.5464C3.25442 15.5477 3.29135 15.5499 3.32821 15.5532C3.36507 15.5564 3.40182 15.5607 3.43846 15.5659C3.4751 15.5712 3.51156 15.5775 3.54785 15.5848C3.58415 15.592 3.62022 15.6003 3.65605 15.6096C3.6919 15.6188 3.72746 15.629 3.76275 15.6402C3.79805 15.6514 3.83302 15.6636 3.86765 15.6767C3.90228 15.6899 3.93652 15.7039 3.97039 15.7189C4.00426 15.7339 4.0377 15.7498 4.07071 15.7667C4.1037 15.7835 4.13623 15.8012 4.16827 15.8199C4.20033 15.8385 4.23183 15.858 4.26282 15.8784C4.29381 15.8987 4.32423 15.9199 4.35407 15.9419C4.3839 15.9639 4.41313 15.9867 4.44172 16.0104C4.47031 16.034 4.49826 16.0584 4.52553 16.0836C4.5528 16.1087 4.57939 16.1346 4.60524 16.1612C4.63111 16.1878 4.65625 16.2152 4.68064 16.2432C4.70502 16.2711 4.72865 16.2998 4.75149 16.3291C4.77431 16.3584 4.79634 16.3883 4.81757 16.4188C4.83877 16.4493 4.85915 16.4804 4.87869 16.512C4.8982 16.5436 4.91686 16.5757 4.93464 16.6084C4.95242 16.641 4.96932 16.6741 4.98532 16.7077C5.00131 16.7413 5.01638 16.7752 5.03054 16.8097C5.0447 16.8441 5.0579 16.8788 5.07016 16.9139C5.08241 16.9491 5.09371 16.9845 5.10405 17.0202C5.1144 17.056 5.12377 17.092 5.13215 17.1282C5.14054 17.1645 5.14793 17.201 5.15434 17.2376C5.16077 17.2743 5.16617 17.3111 5.17058 17.3481C5.175 17.385 5.1784 17.4221 5.18082 17.4592C5.18322 17.4964 5.18461 17.5336 5.18501 17.5708C5.18537 17.608 5.18476 17.6452 5.18312 17.6824C5.18148 17.7196 5.17887 17.7567 5.17522 17.7938C5.17158 17.8308 5.16693 17.8677 5.16128 17.9045C5.15563 17.9413 5.14901 17.9779 5.14138 18.0143C5.13372 18.0508 5.12511 18.087 5.11552 18.1229C5.10591 18.1589 5.09535 18.1945 5.08383 18.2299C5.07231 18.2653 5.05981 18.3003 5.04639 18.335C5.03296 18.3697 5.0186 18.404 5.00332 18.4379C4.98803 18.4718 4.97182 18.5053 4.95472 18.5383C4.93763 18.5713 4.91963 18.6038 4.90077 18.6358C4.88189 18.6679 4.86218 18.6993 4.84161 18.7303C4.82102 18.7612 4.79962 18.7916 4.77741 18.8213C4.75518 18.8511 4.73217 18.8802 4.70837 18.9088C4.68457 18.9373 4.66 18.9651 4.63468 18.9923C4.60937 19.0194 4.58335 19.0458 4.55659 19.0716C4.52986 19.0973 4.50242 19.1223 4.47432 19.1465C4.44622 19.1707 4.41748 19.1942 4.38811 19.2168C4.35874 19.2395 4.32878 19.2613 4.29823 19.2823C4.26769 19.3033 4.23658 19.3234 4.20491 19.3427C4.17326 19.362 4.14112 19.3804 4.10847 19.398C4.07582 19.4155 4.04273 19.4321 4.00918 19.4478C3.97563 19.4635 3.94168 19.4783 3.90732 19.4922C3.87296 19.506 3.83828 19.5189 3.80323 19.5309C3.76818 19.5428 3.73282 19.5538 3.69719 19.5638C3.66153 19.5738 3.62563 19.5828 3.5895 19.5908C3.55338 19.5989 3.51704 19.6059 3.48053 19.612C3.44401 19.618 3.40738 19.623 3.37057 19.6271C3.33379 19.6311 3.29691 19.6341 3.25995 19.6361C3.223 19.6381 3.18603 19.6391 3.14902 19.6391C3.12683 19.6391 3.10464 19.6387 3.08247 19.638C3.06031 19.6372 3.03816 19.6361 3.01602 19.6346C2.99388 19.6332 2.97177 19.6313 2.94969 19.6291C2.92762 19.6269 2.90558 19.6244 2.88359 19.6214C2.86159 19.6185 2.83966 19.6152 2.81778 19.6116C2.79589 19.6079 2.77407 19.6039 2.7523 19.5996C2.73056 19.5952 2.70888 19.5905 2.68727 19.5854C2.66567 19.5803 2.64416 19.5749 2.62273 19.5691C2.60131 19.5633 2.57998 19.5572 2.55875 19.5507C2.53753 19.5442 2.51641 19.5374 2.49541 19.5302C2.47441 19.523 2.45353 19.5155 2.43275 19.5076C2.412 19.4997 2.39137 19.4915 2.37088 19.483C2.35038 19.4744 2.33004 19.4655 2.30984 19.4563C2.28963 19.4471 2.26959 19.4375 2.2497 19.4277C2.22981 19.4178 2.21008 19.4076 2.19051 19.3971C2.17095 19.3865 2.15156 19.3757 2.13235 19.3645C2.11315 19.3534 2.09413 19.3419 2.0753 19.3301C2.05646 19.3183 2.03782 19.3062 2.01936 19.2938C2.00092 19.2814 1.9827 19.2687 1.96468 19.2557C1.94665 19.2427 1.92883 19.2294 1.91124 19.2158C1.89363 19.2022 1.87626 19.1883 1.85912 19.1742C1.84197 19.16 1.82506 19.1456 1.80838 19.1309C1.7917 19.1161 1.77527 19.1012 1.75908 19.0859C1.7429 19.0706 1.72696 19.0551 1.71127 19.0393C1.69559 19.0236 1.68017 19.0075 1.665 18.9912C1.64984 18.9749 1.63495 18.9584 1.62032 18.9416C1.60569 18.9248 1.59135 18.9078 1.57728 18.8906C1.5632 18.8733 1.54942 18.8558 1.53591 18.8381C1.52241 18.8204 1.5092 18.8025 1.49628 18.7844C1.48336 18.7662 1.47073 18.7479 1.45841 18.7293C1.44608 18.7108 1.43406 18.692 1.42235 18.6731C1.41063 18.6541 1.39923 18.635 1.38814 18.6156ZM19.9752 19.3635C19.9399 19.3431 19.9053 19.3216 19.8713 19.299C19.8373 19.2765 19.8041 19.2529 19.7715 19.2283C19.7389 19.2038 19.7071 19.1782 19.676 19.1517C19.645 19.1252 19.6148 19.0979 19.5854 19.0696C19.5559 19.0412 19.5274 19.0121 19.4997 18.982C19.4721 18.952 19.4453 18.9212 19.4195 18.8895C19.3936 18.8578 19.3688 18.8254 19.3449 18.7923C19.321 18.7591 19.2981 18.7253 19.2762 18.6908C19.2543 18.6562 19.2335 18.6211 19.2137 18.5853C19.1939 18.5495 19.1752 18.5131 19.1576 18.4762C19.14 18.4392 19.1235 18.4018 19.1081 18.3639C19.0927 18.326 19.0785 18.2877 19.0654 18.2489C19.0523 18.2101 19.0404 18.171 19.0296 18.1315C19.0189 18.092 19.0093 18.0522 19.0009 18.0121C18.9925 17.972 18.9854 17.9318 18.9794 17.8912C18.9734 17.8507 18.9686 17.8101 18.9651 17.7693C18.9615 17.7285 18.9592 17.6876 18.9581 17.6467C18.957 17.6057 18.9571 17.5648 18.9584 17.5239C18.9597 17.4829 18.9623 17.4421 18.966 17.4013C18.9698 17.3605 18.9748 17.3199 18.981 17.2794C18.9872 17.239 18.9946 17.1987 19.0031 17.1587C19.0117 17.1186 19.0215 17.0789 19.0325 17.0395C19.0435 17 19.0556 16.9609 19.0689 16.9222C19.0821 16.8835 19.0966 16.8453 19.1122 16.8074C19.1278 16.7696 19.1444 16.7323 19.1622 16.6954C19.18 16.6586 19.1989 16.6223 19.2189 16.5866C19.2389 16.5509 19.2599 16.5159 19.282 16.4815C19.304 16.4471 19.3271 16.4133 19.3511 16.3803C19.3752 16.3473 19.4002 16.315 19.4262 16.2835C19.4522 16.252 19.4792 16.2213 19.507 16.1914C19.5348 16.1615 19.5635 16.1325 19.5931 16.1043C19.6226 16.0762 19.653 16.0489 19.6842 16.0226C19.7154 15.9963 19.7473 15.9709 19.78 15.9465C19.8127 15.9221 19.8461 15.8987 19.8802 15.8764C19.9143 15.854 19.949 15.8327 19.9844 15.8124C20.0198 15.7921 20.0557 15.7729 20.0922 15.7548C20.1287 15.7367 20.1658 15.7197 20.2033 15.7038C20.2408 15.6879 20.2788 15.6732 20.3172 15.6596C20.3556 15.646 20.3944 15.6336 20.4335 15.6224C20.4727 15.6111 20.5121 15.6011 20.5519 15.5922C20.5916 15.5834 20.6316 15.5757 20.6718 15.5693C20.712 15.5628 20.7523 15.5576 20.7929 15.5536C20.8334 15.5496 20.874 15.5468 20.9147 15.5452C20.9553 15.5437 20.996 15.5433 21.0367 15.5442C21.0774 15.5451 21.1181 15.5473 21.1586 15.5506C21.1992 15.554 21.2397 15.5586 21.28 15.5643C21.3203 15.5701 21.3604 15.5771 21.4002 15.5853C21.4401 15.5936 21.4797 15.603 21.5191 15.6136C21.5584 15.6242 21.5973 15.6359 21.636 15.6489C21.6746 15.6619 21.7128 15.676 21.7506 15.6913C21.7883 15.7065 21.8256 15.7229 21.8624 15.7404C21.8992 15.7579 21.9355 15.7765 21.9712 15.7963C22.0068 15.816 22.0419 15.8367 22.0764 15.8585C22.1108 15.8803 22.1446 15.9032 22.1777 15.9271C22.2108 15.9509 22.2431 15.9758 22.2747 16.0016C22.3063 16.0274 22.3371 16.0541 22.3671 16.0818C22.3971 16.1095 22.4263 16.138 22.4546 16.1674C22.4829 16.1969 22.5103 16.2272 22.5368 16.2583C22.5633 16.2893 22.5889 16.3212 22.6135 16.3538C22.638 16.3865 22.6616 16.4198 22.6843 16.4539C22.7069 16.4879 22.7285 16.5226 22.749 16.558C22.7695 16.5933 22.789 16.6293 22.8074 16.6658C22.8258 16.7023 22.8431 16.7394 22.8592 16.777C22.8754 16.8146 22.8905 16.8526 22.9044 16.8911C22.9183 16.9296 22.9311 16.9684 22.9426 17.0077C22.9542 17.0469 22.9647 17.0865 22.9739 17.1264C22.9831 17.1663 22.9912 17.2064 22.998 17.2468C23.0048 17.2872 23.0105 17.3277 23.0149 17.3684C23.0193 17.4091 23.0225 17.4499 23.0245 17.4908C23.0265 17.5318 23.0272 17.5727 23.0268 17.6136C23.0263 17.6546 23.0246 17.6955 23.0217 17.7363C23.0189 17.7772 23.0147 17.8179 23.0094 17.8585C23.0041 17.8991 22.9976 17.9395 22.9898 17.9797C22.9821 18.0199 22.9731 18.0599 22.963 18.0995C22.9529 18.1392 22.9416 18.1785 22.9291 18.2175C22.9167 18.2565 22.9031 18.2951 22.8883 18.3332C22.8735 18.3714 22.8576 18.4091 22.8406 18.4463C22.8236 18.4835 22.8055 18.5201 22.7863 18.5562C22.7671 18.5923 22.7468 18.6278 22.7255 18.6627C22.7041 18.6976 22.6818 18.7318 22.6584 18.7654C22.6351 18.7989 22.6107 18.8317 22.5854 18.8638C22.5601 18.8958 22.5338 18.9271 22.5067 18.9576C22.4795 18.9881 22.4514 19.0177 22.4224 19.0465C22.3935 19.0753 22.3637 19.1032 22.3331 19.1302C22.3024 19.1572 22.271 19.1832 22.2389 19.2083C22.2067 19.2334 22.1738 19.2575 22.1402 19.2806C22.1066 19.3037 22.0723 19.3258 22.0374 19.3468C22.0025 19.3678 21.9669 19.3878 21.9308 19.4067C21.8947 19.4256 21.858 19.4434 21.8209 19.4601C21.7837 19.4767 21.746 19.4923 21.7079 19.5067C21.6698 19.5211 21.6313 19.5343 21.5924 19.5464C21.5535 19.5585 21.5143 19.5694 21.4748 19.5791C21.4352 19.5888 21.3954 19.5973 21.3553 19.6046C21.3153 19.612 21.275 19.6181 21.2346 19.6229C21.1942 19.6278 21.1537 19.6315 21.113 19.6339C21.0724 19.6363 21.0317 19.6375 20.991 19.6375C20.9467 19.6376 20.9025 19.6363 20.8582 19.6334C20.814 19.6306 20.7699 19.6264 20.726 19.6207C20.682 19.615 20.6383 19.6078 20.5949 19.5992C20.5514 19.5906 20.5082 19.5806 20.4654 19.5692C20.4226 19.5578 20.3802 19.545 20.3382 19.5308C20.2962 19.5166 20.2547 19.501 20.2137 19.4841C20.1727 19.4671 20.1323 19.4489 20.0925 19.4293C20.0528 19.4097 20.0136 19.3889 19.9752 19.3667L19.9752 19.3635ZM22.2854 14.525C22.2727 14.5236 22.26 14.5219 22.2473 14.5199C22.2347 14.5179 22.2221 14.5155 22.2095 14.5129C22.197 14.5103 22.1845 14.5073 22.1721 14.504C22.1597 14.5008 22.1473 14.4972 22.1351 14.4934C22.1229 14.4895 22.1107 14.4853 22.0987 14.4808C22.0867 14.4764 22.0748 14.4716 22.063 14.4665C22.0512 14.4615 22.0395 14.4561 22.028 14.4505C22.0164 14.4449 22.0051 14.4389 21.9938 14.4327C21.9826 14.4265 21.9715 14.4201 21.9605 14.4133C21.9496 14.4066 21.9389 14.3996 21.9283 14.3923C21.9177 14.385 21.9073 14.3775 21.8971 14.3697C21.8869 14.3619 21.8768 14.3538 21.867 14.3455C21.8572 14.3373 21.8476 14.3287 21.8381 14.32C21.8287 14.3112 21.8195 14.3022 21.8106 14.293C21.8016 14.2837 21.7929 14.2743 21.7844 14.2647C21.7759 14.255 21.7676 14.2452 21.7596 14.2351C21.7515 14.225 21.7438 14.2148 21.7362 14.2044C21.7287 14.1939 21.7215 14.1833 21.7144 14.1725C21.7074 14.1617 21.7007 14.1507 21.6942 14.1396C21.6878 14.1284 21.6816 14.1171 21.6756 14.1057C21.6697 14.0942 21.6641 14.0827 21.6587 14.0709C21.6534 14.0592 21.6483 14.0474 21.6436 14.0354C21.6388 14.0234 21.6343 14.0113 21.6301 13.9992C21.6259 13.987 21.6221 13.9746 21.6185 13.9623C21.6149 13.9499 21.6116 13.9374 21.6086 13.9249C21.6057 13.9123 21.603 13.8997 21.6006 13.887C21.5983 13.8743 21.5962 13.8616 21.5945 13.8488C21.5928 13.8361 21.5913 13.8232 21.5902 13.8104C21.5891 13.7975 21.5883 13.7847 21.5879 13.7718C21.5874 13.7589 21.5872 13.746 21.5874 13.7331C21.5875 13.7202 21.588 13.7073 21.5888 13.6944C21.5896 13.6816 21.5907 13.6687 21.5921 13.6559C21.6406 13.2416 21.6661 12.826 21.6687 12.4089C21.666 11.9912 21.6405 11.575 21.5921 11.1603C21.582 11.0814 21.571 11.0027 21.559 10.9241C21.547 10.8455 21.5341 10.7671 21.5202 10.6889C21.5062 10.6106 21.4913 10.5326 21.4755 10.4547C21.4596 10.3769 21.4428 10.2992 21.425 10.2217C21.4072 10.1443 21.3885 10.067 21.3688 9.99006C21.3491 9.91308 21.3285 9.83635 21.3069 9.75988C21.2853 9.6834 21.2628 9.6072 21.2393 9.53131C21.2159 9.45541 21.1915 9.37981 21.1661 9.30453C21.1408 9.22922 21.1145 9.15426 21.0873 9.07961C21.0602 9.00497 21.032 8.9307 21.003 8.85677C20.974 8.78284 20.944 8.70928 20.9132 8.63609C20.8824 8.5629 20.8506 8.49013 20.818 8.41772C20.7853 8.34532 20.7518 8.27336 20.7174 8.20181C20.683 8.13025 20.6476 8.05915 20.6114 7.98847C20.5753 7.91781 20.5382 7.8476 20.5003 7.77785C20.4624 7.7081 20.4236 7.63885 20.384 7.57008C20.3443 7.50132 20.3038 7.43305 20.2625 7.3653C20.2212 7.29754 20.179 7.23031 20.1361 7.16361C20.0931 7.09691 20.0493 7.03076 20.0047 6.96515C19.9601 6.89953 19.9146 6.83449 19.8684 6.77003C19.8222 6.70555 19.7752 6.64168 19.7274 6.57838C19.6795 6.51508 19.631 6.45239 19.5816 6.39032C19.5323 6.32825 19.4822 6.26679 19.4313 6.20595C19.3804 6.14511 19.3288 6.08494 19.2764 6.02542C19.224 5.96589 19.171 5.90701 19.1171 5.84881C19.0633 5.7906 19.0088 5.73308 18.9536 5.67625C18.8983 5.61939 18.8423 5.56325 18.7857 5.50782C18.7291 5.45239 18.6718 5.39765 18.6138 5.34365C18.5558 5.28965 18.4972 5.23636 18.4379 5.18384C18.3786 5.13129 18.3186 5.0795 18.2581 5.02845C18.1975 4.9774 18.1363 4.92714 18.0745 4.87764C18.0126 4.82812 17.9502 4.77941 17.8872 4.73146C17.8065 4.66825 17.7248 4.60648 17.6421 4.54613C17.5593 4.48578 17.4755 4.42688 17.3907 4.36944C17.306 4.31199 17.2202 4.25605 17.1335 4.2016C17.0468 4.14716 16.9592 4.09422 16.8706 4.04282C16.7821 3.9914 16.6927 3.94156 16.6025 3.89327C16.5122 3.84497 16.4212 3.79825 16.3293 3.75313C16.2375 3.70799 16.1449 3.66447 16.0515 3.62257C15.9582 3.58067 15.8641 3.5404 15.7694 3.50175C15.7585 3.49631 15.7477 3.49061 15.737 3.48463C15.7264 3.47867 15.7159 3.47247 15.7055 3.466C15.6951 3.45956 15.6849 3.45287 15.6748 3.44593C15.6648 3.43899 15.6549 3.43183 15.6452 3.42443C15.6354 3.41702 15.6259 3.40939 15.6165 3.40155C15.6071 3.3937 15.5979 3.38565 15.5889 3.37736C15.5799 3.36907 15.5711 3.36058 15.5625 3.3519C15.5539 3.34321 15.5455 3.33431 15.5373 3.32521C15.5291 3.31613 15.5212 3.30685 15.5134 3.29738C15.5057 3.28791 15.4981 3.27827 15.4908 3.26845C15.4835 3.25863 15.4764 3.24864 15.4696 3.23848C15.4627 3.22832 15.4561 3.21802 15.4497 3.20756C15.4433 3.1971 15.4372 3.1865 15.4314 3.17575C15.4255 3.165 15.4199 3.1541 15.4145 3.14308C15.4091 3.13208 15.404 3.12094 15.3991 3.10967C15.3943 3.09843 15.3897 3.08706 15.3854 3.07559C15.381 3.06411 15.377 3.05254 15.3732 3.04088C15.3694 3.02922 15.3659 3.01748 15.3627 3.00565C15.3594 2.99382 15.3565 2.98191 15.3538 2.96995C15.3511 2.95797 15.3487 2.94594 15.3466 2.93386C15.3444 2.92178 15.3426 2.90968 15.341 2.8975C15.3394 2.88532 15.3382 2.87312 15.3372 2.86089C15.3362 2.84867 15.3355 2.83644 15.335 2.82416C15.3346 2.81191 15.3345 2.79966 15.3346 2.78738C15.3348 2.77511 15.3352 2.76285 15.3359 2.7506C15.3366 2.73835 15.3376 2.72612 15.3389 2.71392C15.3402 2.70172 15.3417 2.68954 15.3436 2.67741C15.3454 2.66528 15.3475 2.65323 15.3499 2.6412C15.3523 2.62917 15.355 2.61719 15.358 2.6053C15.3609 2.5934 15.3642 2.58156 15.3677 2.5698C15.3712 2.55807 15.375 2.54641 15.379 2.53482C15.3831 2.52325 15.3874 2.51179 15.392 2.50042C15.3966 2.48906 15.4014 2.47779 15.4065 2.46665C15.4116 2.45551 15.417 2.4445 15.4226 2.43361C15.4282 2.42271 15.4341 2.41196 15.4403 2.40135C15.4464 2.39074 15.4527 2.38028 15.4594 2.36996C15.466 2.35966 15.4728 2.34951 15.4799 2.3395C15.4869 2.32951 15.4943 2.3197 15.5018 2.31005C15.5093 2.30041 15.5171 2.29095 15.5251 2.28166C15.533 2.27238 15.5412 2.26329 15.5496 2.25438C15.558 2.24549 15.5666 2.2368 15.5754 2.2283C15.5842 2.21981 15.5932 2.21152 15.6024 2.20345C15.6116 2.19538 15.621 2.18754 15.6305 2.17991C15.6401 2.17228 15.6498 2.16489 15.6597 2.15772C15.6696 2.15053 15.6797 2.1436 15.6899 2.13691C15.7001 2.1302 15.7105 2.12374 15.721 2.11754C15.7315 2.11133 15.7422 2.10537 15.753 2.09966C15.7637 2.09395 15.7747 2.0885 15.7857 2.0833C15.7968 2.0781 15.8079 2.07316 15.8192 2.06849C15.8305 2.06381 15.8419 2.05941 15.8534 2.05528C15.8648 2.05114 15.8764 2.04728 15.8881 2.04369C15.8997 2.0401 15.9115 2.03678 15.9233 2.03375C15.9351 2.03072 15.947 2.02795 15.9589 2.02546C15.9709 2.02298 15.9829 2.02078 15.9949 2.01886C16.007 2.01695 16.0191 2.01531 16.0312 2.01397C16.0433 2.01262 16.0555 2.01157 16.0676 2.0108C16.0798 2.01001 16.092 2.00952 16.1042 2.00932C16.1164 2.00911 16.1286 2.00919 16.1408 2.00957C16.1529 2.00994 16.1651 2.0106 16.1773 2.01153C16.1894 2.01249 16.2016 2.01372 16.2137 2.01522C16.2258 2.01673 16.2379 2.01853 16.2499 2.02061C16.2619 2.0227 16.2739 2.02506 16.2858 2.0277C16.2977 2.03034 16.3095 2.03326 16.3213 2.03646C16.3331 2.03965 16.3448 2.04313 16.3564 2.04689C16.4674 2.09222 16.5776 2.13946 16.687 2.18859C16.7965 2.23773 16.905 2.28874 17.0127 2.34162C17.1204 2.39448 17.2271 2.44919 17.3329 2.50574C17.4388 2.5623 17.5436 2.62065 17.6474 2.68081C17.7512 2.74096 17.854 2.80288 17.9558 2.86658C18.0575 2.93027 18.1581 2.99569 18.2576 3.06285C18.3571 3.13001 18.4554 3.19887 18.5526 3.26941C18.6498 3.33994 18.7457 3.41215 18.8404 3.48601C18.9137 3.54193 18.9862 3.59878 19.0581 3.65652C19.13 3.71426 19.2011 3.77291 19.2716 3.83243C19.342 3.89194 19.4117 3.95234 19.4806 4.01362C19.5496 4.07488 19.6177 4.137 19.6851 4.19995C19.7525 4.26294 19.8192 4.32673 19.885 4.39136C19.9508 4.45599 20.0158 4.52143 20.0801 4.58768C20.1443 4.65394 20.2077 4.721 20.2702 4.78883C20.3328 4.85668 20.3945 4.9253 20.4554 4.99467C20.5162 5.06405 20.5762 5.13419 20.6354 5.20507C20.6945 5.27595 20.7528 5.34754 20.8101 5.41987C20.8675 5.49222 20.9239 5.56527 20.9795 5.639C21.0351 5.71273 21.0897 5.78718 21.1434 5.86229C21.1972 5.9374 21.25 6.01315 21.3018 6.08959C21.3537 6.16602 21.4046 6.24308 21.4545 6.3208C21.5045 6.39849 21.5535 6.4768 21.6015 6.55572C21.6495 6.63464 21.6966 6.71416 21.7426 6.79426C21.7887 6.87436 21.8337 6.95503 21.8778 7.03625C21.9219 7.11746 21.9649 7.19923 22.007 7.28153C22.049 7.36382 22.0901 7.44666 22.1301 7.52998C22.1701 7.61331 22.209 7.6971 22.247 7.78142C22.2849 7.86573 22.3218 7.95048 22.3576 8.03568C22.3935 8.1209 22.4283 8.20656 22.462 8.29265C22.4957 8.37873 22.5284 8.46523 22.56 8.55215C22.5916 8.63907 22.6221 8.72635 22.6515 8.81401C22.681 8.90167 22.7093 8.98969 22.7366 9.07806C22.7638 9.16643 22.79 9.25515 22.8151 9.34418C22.8401 9.43322 22.8641 9.52255 22.887 9.61217C22.9099 9.7018 22.9316 9.79169 22.9523 9.88186C22.9729 9.97203 22.9925 10.0625 23.0109 10.1531C23.0293 10.2438 23.0466 10.3346 23.0628 10.4257C23.079 10.5168 23.094 10.6081 23.1079 10.6996C23.1219 10.7911 23.1347 10.8827 23.1463 10.9745C23.2003 11.4516 23.229 11.9302 23.2324 12.4104C23.2292 12.8843 23.2011 13.3566 23.1479 13.8275C23.1466 13.8395 23.145 13.8514 23.1431 13.8633C23.1413 13.8752 23.1392 13.887 23.1368 13.8988C23.1343 13.9106 23.1317 13.9223 23.1288 13.9339C23.1258 13.9456 23.1226 13.9572 23.1192 13.9687C23.1157 13.9802 23.112 13.9916 23.108 14.003C23.104 14.0143 23.0998 14.0256 23.0953 14.0367C23.0908 14.0479 23.0861 14.0589 23.081 14.0699C23.0761 14.0808 23.0708 14.0916 23.0653 14.1023C23.0598 14.113 23.0541 14.1235 23.0481 14.1339C23.0422 14.1444 23.0359 14.1546 23.0295 14.1648C23.0231 14.1749 23.0164 14.1849 23.0095 14.1947C23.0026 14.2046 22.9955 14.2142 22.9882 14.2237C22.9808 14.2332 22.9733 14.2426 22.9655 14.2517C22.9578 14.2609 22.9498 14.2698 22.9417 14.2786C22.9335 14.2874 22.9251 14.296 22.9166 14.3044C22.908 14.3128 22.8993 14.321 22.8903 14.329C22.8814 14.337 22.8723 14.3448 22.863 14.3524C22.8537 14.3599 22.8443 14.3673 22.8346 14.3745C22.825 14.3816 22.8152 14.3885 22.8053 14.3952C22.7953 14.4019 22.7853 14.4083 22.775 14.4146C22.7648 14.4208 22.7544 14.4268 22.7439 14.4325C22.7334 14.4383 22.7228 14.4438 22.712 14.449C22.7013 14.4543 22.6904 14.4593 22.6794 14.4641C22.6684 14.4688 22.6573 14.4733 22.6462 14.4776C22.635 14.4818 22.6237 14.4858 22.6123 14.4895C22.6009 14.4932 22.5895 14.4967 22.578 14.4999C22.5665 14.5031 22.5548 14.506 22.5432 14.5087C22.5315 14.5113 22.5198 14.5137 22.508 14.5158C22.4963 14.518 22.4845 14.5198 22.4726 14.5214C22.4607 14.523 22.4488 14.5243 22.4369 14.5253C22.425 14.5263 22.4131 14.5271 22.4011 14.5276C22.3892 14.528 22.3772 14.5282 22.3653 14.5282L22.2854 14.525ZM0.993702 13.8307C0.93968 13.3588 0.911506 12.8854 0.90918 12.4104C0.911759 11.9365 0.939933 11.4642 0.993702 10.9934C1.0052 10.9013 1.01784 10.8094 1.03161 10.7176C1.04539 10.6258 1.06029 10.5342 1.07634 10.4428C1.09238 10.3514 1.10955 10.2603 1.12785 10.1693C1.14614 10.0784 1.16557 9.98763 1.18611 9.89714C1.20666 9.80668 1.22832 9.71646 1.2511 9.62652C1.27388 9.5366 1.29777 9.44695 1.32276 9.35762C1.34776 9.26829 1.37386 9.17928 1.40106 9.09059C1.42826 9.0019 1.45656 8.91358 1.48595 8.82562C1.51533 8.73765 1.54581 8.65006 1.57736 8.56285C1.60892 8.47564 1.64155 8.38884 1.67526 8.30244C1.70896 8.21606 1.74373 8.1301 1.77957 8.04458C1.8154 7.95904 1.85229 7.87399 1.89023 7.78939C1.92817 7.70481 1.96715 7.62069 2.00716 7.53707C2.04719 7.45345 2.08824 7.37034 2.13032 7.28775C2.17241 7.20516 2.2155 7.12312 2.2596 7.04161C2.30372 6.9601 2.34884 6.87914 2.39494 6.79876C2.44107 6.71839 2.48817 6.63858 2.53625 6.55939C2.58435 6.48019 2.63342 6.40159 2.68346 6.32362C2.7335 6.24566 2.78449 6.16831 2.83644 6.09163C2.88838 6.01494 2.94127 5.9389 2.99511 5.86354C3.04895 5.78816 3.1037 5.71347 3.15939 5.63949C3.21507 5.56549 3.27166 5.4922 3.32916 5.41962C3.38666 5.34702 3.44504 5.27519 3.50432 5.20406C3.56358 5.13294 3.62374 5.06257 3.68476 4.99298C3.74578 4.92338 3.80763 4.85454 3.87036 4.78647C3.9331 4.71842 3.99663 4.65116 4.06103 4.58468C4.12542 4.51821 4.19062 4.45254 4.25663 4.38772C4.32264 4.32289 4.38946 4.25888 4.45705 4.19572C4.52465 4.13257 4.59301 4.07028 4.66215 4.00882C4.73129 3.94739 4.80118 3.88682 4.87181 3.82711C4.94247 3.7674 5.01383 3.7086 5.08593 3.65069C5.15803 3.5928 5.23084 3.5358 5.30433 3.47971C5.399 3.40625 5.4949 3.33443 5.59201 3.26424C5.68913 3.19405 5.7874 3.12554 5.88681 3.05872C5.98623 2.99187 6.08675 2.92678 6.18836 2.86338C6.28998 2.79998 6.39265 2.73833 6.49635 2.67844C6.60004 2.61854 6.70472 2.56045 6.81037 2.50414C6.91605 2.44782 7.02263 2.39332 7.13011 2.34066C7.2376 2.28798 7.34597 2.23715 7.45519 2.18818C7.56439 2.1392 7.6744 2.0921 7.78521 2.04689C7.7971 2.04205 7.8091 2.03751 7.82121 2.03328C7.83332 2.02905 7.84552 2.02511 7.85782 2.02147C7.87012 2.01783 7.8825 2.0145 7.89495 2.01148C7.90742 2.00845 7.91994 2.00573 7.93254 2.00334C7.94513 2.00093 7.95778 1.99883 7.97047 1.99704C7.98316 1.99527 7.9959 1.9938 8.00867 1.99264C8.02144 1.99149 8.03423 1.99065 8.04704 1.99013C8.05983 1.98961 8.07265 1.9894 8.08549 1.98951C8.0983 1.98963 8.11112 1.99006 8.12391 1.99079C8.1367 1.99155 8.14949 1.99261 8.16223 1.99399C8.17498 1.99537 8.18767 1.99706 8.20034 1.99906C8.21301 2.00106 8.22563 2.00337 8.23817 2.006C8.25072 2.00862 8.26319 2.01156 8.27559 2.01481C8.28799 2.01804 8.30032 2.02158 8.31257 2.02543C8.3248 2.02929 8.33693 2.03344 8.34896 2.03788C8.36099 2.04233 8.3729 2.04707 8.38472 2.0521C8.39653 2.05715 8.40819 2.06248 8.41974 2.06809C8.43126 2.0737 8.44265 2.0796 8.45393 2.08578C8.46518 2.09196 8.47628 2.09842 8.48721 2.10514C8.49815 2.11187 8.50891 2.11885 8.5195 2.1261C8.53009 2.13337 8.5405 2.14088 8.55075 2.14864C8.56097 2.15641 8.571 2.16443 8.58086 2.1727C8.59069 2.18097 8.60032 2.18947 8.60974 2.19821C8.61916 2.20695 8.62838 2.21593 8.63735 2.22513C8.64633 2.23433 8.65508 2.24374 8.66362 2.25337C8.67215 2.263 8.68044 2.27283 8.68849 2.28287C8.69654 2.29292 8.70432 2.30316 8.71187 2.31357C8.71943 2.324 8.72672 2.33461 8.73374 2.34538C8.74076 2.35618 8.74753 2.36713 8.75403 2.37825C8.76052 2.38935 8.76675 2.40062 8.7727 2.41205C8.77864 2.42349 8.78429 2.43505 8.78967 2.44674C8.79505 2.45845 8.80014 2.47029 8.80495 2.48224C8.80977 2.4942 8.81427 2.50628 8.81848 2.51846C8.82271 2.53064 8.82662 2.54291 8.83022 2.55529C8.83384 2.56766 8.83714 2.58011 8.84015 2.59263C8.84315 2.60518 8.84587 2.61778 8.84824 2.63045C8.85064 2.64312 8.85272 2.65584 8.8545 2.6686C8.85626 2.68137 8.85773 2.69419 8.85888 2.70703C8.86003 2.71987 8.86086 2.73274 8.86138 2.74563C8.86189 2.7585 8.86211 2.77139 8.86199 2.78431C8.86186 2.7972 8.86145 2.81009 8.86071 2.82296C8.85996 2.83582 8.85891 2.84869 8.85754 2.86151C8.85617 2.87433 8.85448 2.88709 8.8525 2.89984C8.85052 2.91258 8.84822 2.92528 8.8456 2.9379C8.84298 2.95052 8.84007 2.96306 8.83685 2.97554C8.83364 2.98801 8.83012 3.00041 8.82628 3.01274C8.82244 3.02504 8.81833 3.03724 8.8139 3.04934C8.80948 3.06145 8.80476 3.07343 8.79974 3.08531C8.79473 3.09719 8.78945 3.10893 8.78387 3.12054C8.7783 3.13213 8.77243 3.14359 8.76629 3.15494C8.76015 3.16625 8.75372 3.17742 8.74704 3.18842C8.74036 3.19942 8.73342 3.21024 8.7262 3.22089C8.71899 3.23155 8.7115 3.24203 8.70378 3.25234C8.69607 3.26262 8.6881 3.27271 8.67988 3.28262C8.67167 3.29251 8.6632 3.3022 8.65452 3.31168C8.64581 3.32115 8.63689 3.33042 8.62777 3.33945C8.61862 3.34848 8.60925 3.35729 8.59969 3.36587C8.59013 3.37446 8.58034 3.3828 8.57037 3.39089C8.56036 3.39899 8.55019 3.40681 8.53984 3.41441C8.52947 3.42202 8.51893 3.42935 8.50822 3.43641C8.49749 3.44347 8.4866 3.45028 8.47555 3.45683C8.46452 3.46335 8.45332 3.46962 8.44194 3.4756C8.43057 3.48158 8.41908 3.48726 8.40746 3.49267C8.39582 3.49808 8.38406 3.5032 8.37217 3.50805C8.27772 3.54628 8.18395 3.58611 8.09087 3.62756C7.99776 3.66902 7.90541 3.71205 7.81378 3.75668C7.72214 3.8013 7.63128 3.84748 7.54121 3.89523C7.45113 3.94299 7.36191 3.99226 7.27353 4.04307C7.18514 4.09387 7.09764 4.14617 7.01101 4.2C6.92441 4.25381 6.83871 4.30911 6.75397 4.36587C6.66923 4.42263 6.58549 4.48081 6.50273 4.54045C6.41997 4.60011 6.33823 4.66114 6.25755 4.72358C6.19433 4.77173 6.1317 4.82066 6.0697 4.87038C6.00768 4.9201 5.94629 4.97061 5.88554 5.02186C5.82477 5.07313 5.76465 5.12514 5.70517 5.17791C5.64572 5.23068 5.5869 5.28417 5.52874 5.33841C5.47061 5.39266 5.41314 5.44762 5.35635 5.5033C5.29956 5.55897 5.24348 5.61536 5.18809 5.67246C5.13269 5.72954 5.07801 5.7873 5.02406 5.84576C4.97011 5.90423 4.91689 5.96335 4.86438 6.02314C4.81187 6.08294 4.76012 6.14337 4.70913 6.20445C4.65814 6.26554 4.6079 6.32727 4.55843 6.38961C4.50895 6.45197 4.46028 6.51493 4.41237 6.57848C4.36446 6.64205 4.31733 6.70621 4.27101 6.77096C4.22469 6.83571 4.17918 6.90103 4.1345 6.96692C4.08979 7.0328 4.04591 7.09925 4.00285 7.16624C3.95978 7.23323 3.91757 7.30074 3.87618 7.36879C3.8348 7.43684 3.79428 7.50541 3.75459 7.57446C3.71489 7.64352 3.67608 7.71307 3.6381 7.78311C3.60014 7.85316 3.56307 7.92364 3.52685 7.99462C3.49063 8.06559 3.45529 8.13699 3.42083 8.20885C3.38639 8.28071 3.35284 8.35297 3.32019 8.42567C3.28753 8.49837 3.25578 8.57146 3.22493 8.64495C3.19408 8.71843 3.16415 8.79229 3.13512 8.86654C3.1061 8.94076 3.07801 9.01535 3.05085 9.09029C3.02367 9.16525 2.99743 9.24051 2.97212 9.31611C2.94682 9.39172 2.92245 9.46764 2.89902 9.54383C2.87559 9.62005 2.85312 9.69653 2.83159 9.77332C2.81005 9.8501 2.78948 9.92713 2.76986 10.0044C2.75023 10.0817 2.73157 10.1592 2.71386 10.237C2.69615 10.3148 2.67942 10.3927 2.66365 10.4709C2.64788 10.5491 2.63308 10.6274 2.61924 10.706C2.60541 10.7846 2.59255 10.8633 2.58067 10.9421C2.5688 11.021 2.5579 11.1 2.54797 11.1791C2.50145 11.5883 2.47693 11.9987 2.4744 12.4104C2.47726 12.8275 2.5023 13.2431 2.54953 13.6575C2.55094 13.6703 2.55204 13.6831 2.55284 13.696C2.55362 13.7088 2.55408 13.7217 2.55423 13.7346C2.55439 13.7474 2.55424 13.7603 2.55377 13.7732C2.55328 13.7861 2.55249 13.7989 2.55139 13.8118C2.55029 13.8246 2.54887 13.8374 2.54716 13.8502C2.54543 13.863 2.5434 13.8757 2.54105 13.8883C2.5387 13.901 2.53604 13.9136 2.53308 13.9262C2.53011 13.9387 2.52684 13.9512 2.52327 13.9635C2.5197 13.9759 2.51583 13.9882 2.51168 14.0004C2.5075 14.0125 2.50304 14.0246 2.49827 14.0366C2.49351 14.0486 2.48847 14.0604 2.48313 14.0721C2.4778 14.0838 2.47219 14.0954 2.46628 14.1068C2.46038 14.1183 2.4542 14.1295 2.44775 14.1407C2.44129 14.1518 2.43457 14.1628 2.42759 14.1736C2.4206 14.1844 2.41335 14.195 2.40585 14.2054C2.39834 14.2159 2.39057 14.2261 2.38257 14.2362C2.37456 14.2462 2.36632 14.2561 2.35784 14.2657C2.34935 14.2754 2.34063 14.2848 2.33168 14.294C2.32274 14.3033 2.31358 14.3123 2.30419 14.321C2.29479 14.3298 2.2852 14.3383 2.2754 14.3466C2.2656 14.3549 2.2556 14.363 2.24539 14.3708C2.2352 14.3786 2.22482 14.3861 2.21426 14.3934C2.20369 14.4007 2.19296 14.4077 2.18205 14.4145C2.17114 14.4212 2.16008 14.4277 2.14886 14.4339C2.13764 14.4401 2.12627 14.446 2.11474 14.4517C2.10323 14.4573 2.09159 14.4627 2.07982 14.4678C2.06805 14.4728 2.05615 14.4776 2.04414 14.4821C2.03214 14.4866 2.02003 14.4908 2.00782 14.4947C1.99561 14.4985 1.98331 14.5021 1.97092 14.5054C1.95854 14.5087 1.94608 14.5117 1.93355 14.5143C1.92101 14.517 1.90842 14.5194 1.89578 14.5214C1.88313 14.5234 1.87044 14.5252 1.85771 14.5266L1.77005 14.5266C1.7582 14.5266 1.74636 14.5263 1.73452 14.5257C1.72269 14.5252 1.71087 14.5244 1.69907 14.5232C1.68727 14.5222 1.6755 14.5208 1.66376 14.5192C1.65203 14.5175 1.64033 14.5156 1.62868 14.5135C1.61703 14.5113 1.60543 14.5089 1.59389 14.5062C1.58235 14.5035 1.57087 14.5005 1.55946 14.4973C1.54806 14.4941 1.53673 14.4906 1.52547 14.4868C1.51422 14.4831 1.50306 14.4791 1.49199 14.4749C1.48092 14.4706 1.46995 14.4661 1.45908 14.4614C1.44822 14.4566 1.43746 14.4516 1.42682 14.4464C1.41618 14.4411 1.40566 14.4356 1.39526 14.4299C1.38487 14.4242 1.37461 14.4182 1.36449 14.412C1.35436 14.4058 1.34438 14.3994 1.33455 14.3928C1.32471 14.3861 1.31503 14.3793 1.3055 14.3722C1.29598 14.3651 1.28662 14.3578 1.27742 14.3502C1.26823 14.3427 1.25921 14.335 1.25036 14.3271C1.24152 14.3192 1.23285 14.311 1.22437 14.3027C1.21589 14.2944 1.2076 14.2859 1.19951 14.2772C1.19141 14.2684 1.18352 14.2596 1.17583 14.2505C1.16813 14.2414 1.16065 14.2322 1.15337 14.2228C1.14609 14.2134 1.13903 14.2038 1.13219 14.1941C1.12534 14.1844 1.11872 14.1745 1.11232 14.1644C1.10592 14.1544 1.09976 14.1442 1.09382 14.1339C1.08788 14.1236 1.08217 14.1132 1.07671 14.1026C1.07124 14.092 1.06601 14.0813 1.06103 14.0705C1.05604 14.0597 1.05131 14.0488 1.04681 14.0377C1.04232 14.0267 1.03808 14.0156 1.03409 14.0043C1.03011 13.9931 1.02637 13.9818 1.02289 13.9704C1.01942 13.959 1.0162 13.9476 1.01324 13.936C1.01028 13.9245 1.00758 13.9129 1.00514 13.9012C1.0027 13.8895 1.00053 13.8778 0.998625 13.8661C0.996717 13.8543 0.995076 13.8425 0.993702 13.8307ZM10.036 2.04689C10.036 2.0134 10.0368 1.97992 10.0384 1.94646C10.0401 1.913 10.0425 1.8796 10.0458 1.84626C10.0491 1.81291 10.0531 1.77968 10.058 1.74655C10.0629 1.71341 10.0686 1.68042 10.0751 1.64756C10.0816 1.6147 10.0889 1.58203 10.097 1.54953C10.1051 1.51704 10.114 1.48476 10.1236 1.45271C10.1333 1.42065 10.1437 1.38885 10.1549 1.35731C10.1662 1.32577 10.1781 1.29453 10.1909 1.26358C10.2036 1.23263 10.2171 1.20201 10.2314 1.17173C10.2456 1.14145 10.2606 1.11154 10.2763 1.08199C10.292 1.05245 10.3084 1.02331 10.3255 0.994575C10.3426 0.965843 10.3604 0.93755 10.3789 0.909696C10.3974 0.881844 10.4166 0.854464 10.4364 0.827557C10.4563 0.80065 10.4768 0.77425 10.4979 0.748356C10.519 0.72246 10.5407 0.697103 10.5631 0.672282C10.5855 0.647461 10.6084 0.623206 10.632 0.599519C10.6555 0.575832 10.6796 0.552741 10.7043 0.530244C10.729 0.507746 10.7542 0.485872 10.7799 0.464621C10.8057 0.44337 10.8319 0.422766 10.8587 0.402811C10.8854 0.382856 10.9126 0.363573 10.9403 0.344962C10.968 0.32635 10.9961 0.308435 11.0247 0.291214C11.0533 0.27399 11.0822 0.257485 11.1116 0.241693C11.141 0.225901 11.1707 0.210845 11.2008 0.196523C11.2309 0.1822 11.2614 0.168629 11.2921 0.155809C11.3229 0.14299 11.3539 0.130938 11.3853 0.119652C11.4167 0.108368 11.4483 0.0978636 11.4801 0.0881391C11.512 0.0784147 11.5441 0.0694827 11.5764 0.0613426C11.6087 0.0532026 11.6412 0.0458655 11.6738 0.0393312C11.7065 0.0327952 11.7393 0.0270696 11.7722 0.0221541C11.8052 0.0172386 11.8382 0.0131391 11.8714 0.00985556C11.9045 0.00657198 11.9377 0.00410853 11.971 0.00246514C12.0042 0.000821744 12.0375 0 12.0708 0C12.1041 0 12.1374 0.000821744 12.1706 0.00246514C12.2039 0.00410853 12.2371 0.00657198 12.2702 0.00985556C12.3034 0.0131391 12.3364 0.0172386 12.3694 0.0221541C12.4023 0.0270696 12.4351 0.0327952 12.4677 0.0393312C12.5004 0.0458655 12.5329 0.0532026 12.5652 0.0613426C12.5975 0.0694827 12.6296 0.0784147 12.6615 0.0881391C12.6933 0.0978636 12.7249 0.108368 12.7563 0.119652C12.7876 0.130938 12.8187 0.14299 12.8495 0.155809C12.8802 0.168629 12.9107 0.1822 12.9408 0.196523C12.9709 0.210845 13.0006 0.225901 13.03 0.241693C13.0594 0.257485 13.0883 0.27399 13.1169 0.291214C13.1454 0.308435 13.1736 0.32635 13.2013 0.344962C13.229 0.363573 13.2562 0.382856 13.2829 0.402811C13.3097 0.422766 13.3359 0.44337 13.3616 0.464621C13.3874 0.485872 13.4126 0.507746 13.4373 0.530244C13.462 0.552741 13.4861 0.575832 13.5096 0.599519C13.5332 0.623206 13.5561 0.647461 13.5785 0.672282C13.6009 0.697103 13.6226 0.72246 13.6437 0.748356C13.6648 0.77425 13.6853 0.80065 13.7052 0.827557C13.725 0.854464 13.7441 0.881844 13.7627 0.909696C13.7812 0.93755 13.799 0.965843 13.8161 0.994575C13.8332 1.02331 13.8496 1.05245 13.8653 1.08199C13.881 1.11154 13.896 1.14145 13.9102 1.17173C13.9245 1.20201 13.938 1.23263 13.9507 1.26358C13.9634 1.29453 13.9754 1.32577 13.9866 1.35731C13.9979 1.38885 14.0083 1.42065 14.018 1.45271C14.0276 1.48476 14.0365 1.51704 14.0446 1.54953C14.0527 1.58203 14.06 1.6147 14.0665 1.64756C14.073 1.68042 14.0787 1.71341 14.0836 1.74655C14.0884 1.77968 14.0925 1.81291 14.0958 1.84626C14.0991 1.8796 14.1015 1.913 14.1031 1.94646C14.1048 1.97992 14.1056 2.0134 14.1056 2.04689C14.1056 2.08038 14.1048 2.11385 14.1031 2.14731C14.1015 2.18077 14.0991 2.21417 14.0958 2.24752C14.0925 2.28086 14.0884 2.3141 14.0836 2.34723C14.0787 2.38036 14.073 2.41336 14.0665 2.44623C14.06 2.47907 14.0527 2.51174 14.0446 2.54424C14.0365 2.57674 14.0276 2.60902 14.018 2.64107C14.0083 2.67313 13.9979 2.70492 13.9866 2.73646C13.9754 2.768 13.9634 2.79924 13.9507 2.83019C13.938 2.86114 13.9245 2.89177 13.9102 2.92205C13.896 2.95234 13.881 2.98223 13.8653 3.01178C13.8496 3.04132 13.8332 3.07045 13.8161 3.09919C13.799 3.12792 13.7812 3.15622 13.7627 3.18406C13.7441 3.21194 13.725 3.23932 13.7052 3.26621C13.6853 3.29313 13.6648 3.31952 13.6437 3.34543C13.6226 3.37131 13.6009 3.39668 13.5785 3.4215C13.5561 3.44632 13.5332 3.47056 13.5096 3.49425C13.4861 3.51794 13.462 3.54102 13.4373 3.56353C13.4126 3.58604 13.3874 3.60791 13.3616 3.62914C13.3359 3.6504 13.3097 3.67101 13.2829 3.69096C13.2562 3.71092 13.229 3.73018 13.2013 3.7488C13.1736 3.76743 13.1454 3.78534 13.1169 3.80256C13.0883 3.81978 13.0594 3.83629 13.03 3.85208C13.0006 3.86788 12.9709 3.88293 12.9408 3.89725C12.9107 3.91157 12.8802 3.92515 12.8495 3.93797C12.8187 3.95079 12.7876 3.96282 12.7563 3.97411C12.7249 3.9854 12.6933 3.99591 12.6615 4.00562C12.6296 4.01534 12.5975 4.0243 12.5652 4.03244C12.5329 4.04058 12.5004 4.04791 12.4677 4.05443C12.4351 4.06098 12.4023 4.06671 12.3694 4.07161C12.3364 4.07653 12.3034 4.08064 12.2702 4.08391C12.2371 4.0872 12.2039 4.08966 12.1706 4.09131C12.1374 4.09296 12.1041 4.09377 12.0708 4.09377C12.0375 4.09377 12.0042 4.09296 11.971 4.09131C11.9377 4.08966 11.9045 4.0872 11.8714 4.08391C11.8382 4.08064 11.8052 4.07653 11.7722 4.07161C11.7393 4.06671 11.7065 4.06098 11.6738 4.05443C11.6412 4.04791 11.6087 4.04058 11.5764 4.03244C11.5441 4.0243 11.512 4.01534 11.4801 4.00562C11.4483 3.99591 11.4167 3.9854 11.3853 3.97411C11.3539 3.96282 11.3229 3.95079 11.2921 3.93797C11.2614 3.92515 11.2309 3.91157 11.2008 3.89725C11.1707 3.88293 11.141 3.86788 11.1116 3.85208C11.0822 3.83629 11.0533 3.81978 11.0247 3.80256C10.9961 3.78534 10.968 3.76743 10.9403 3.7488C10.9126 3.7302 10.8854 3.71092 10.8587 3.69096C10.8319 3.67101 10.8057 3.6504 10.7799 3.62914C10.7542 3.60791 10.729 3.58604 10.7043 3.56353C10.6796 3.54104 10.6555 3.51794 10.632 3.49425C10.6084 3.47056 10.5855 3.44632 10.5631 3.4215C10.5407 3.39668 10.519 3.37131 10.4979 3.34543C10.4768 3.31952 10.4563 3.29313 10.4364 3.26621C10.4166 3.23932 10.3974 3.21194 10.3789 3.18406C10.3604 3.15622 10.3426 3.12792 10.3255 3.09919C10.3084 3.07045 10.292 3.04132 10.2763 3.01178C10.2606 2.98223 10.2456 2.95234 10.2314 2.92205C10.2171 2.89177 10.2036 2.86114 10.1909 2.83019C10.1781 2.79924 10.1662 2.768 10.1549 2.73646C10.1437 2.70492 10.1333 2.67313 10.1236 2.64107C10.114 2.60902 10.1051 2.57674 10.097 2.54424C10.0889 2.51174 10.0816 2.47907 10.0751 2.44623C10.0686 2.41336 10.0629 2.38036 10.058 2.34723C10.0531 2.3141 10.0491 2.28086 10.0458 2.24752C10.0425 2.21417 10.0401 2.18077 10.0384 2.14731C10.0368 2.11385 10.036 2.08038 10.036 2.04689Z"   fill="#034FA1" ></path><path d="M10.8559 14.1789L10.8259 14.189C10.641 14.2517 9.34596 14.63 9.05128 14.7203C8.82414 14.7902 8.61988 14.8551 8.43496 14.9168C8.12229 15.0208 7.87119 15.1142 7.69825 15.1898C7.63327 15.3962 7.57816 15.6052 7.53293 15.8169C7.45831 16.1692 7.41991 16.4992 7.42345 16.7844L16.6825 16.7844C16.6896 16.4962 16.6561 16.1627 16.5877 15.8074C16.5473 15.598 16.4974 15.3909 16.4379 15.1862C16.2623 15.1084 16.0103 15.0123 15.6971 14.9046C15.5316 14.8472 15.3507 14.7875 15.1505 14.7233C14.9438 14.6567 13.6216 14.2487 13.4255 14.1775L13.3105 14.136C12.8914 14.446 12.4725 14.6011 12.0534 14.6011C11.6541 14.6011 11.2549 14.4602 10.8559 14.1789ZM11.3785 13.5812C11.6035 13.7152 11.8284 13.7823 12.0534 13.7823C12.3312 13.7823 12.609 13.68 12.8868 13.4756L12.8868 12.5886L13.1221 12.3495C13.356 12.1121 13.5856 11.6795 13.743 11.2687L13.8201 11.0676L13.986 10.9306C14.2393 10.7213 14.4326 10.4366 14.4326 10.1853C14.4326 10.1547 14.4315 10.1304 14.4299 10.1116L13.9258 9.938L13.9835 9.29855C14.0475 8.59061 13.9369 7.91105 13.5919 7.48366C13.3133 7.13951 12.8838 6.95939 12.2476 6.95939L11.8818 6.95939C11.2461 6.95939 10.8177 7.13896 10.5408 7.48284C10.1987 7.9075 10.0892 8.58352 10.154 9.2901L10.2126 9.93172L9.71827 10.1009C9.71694 10.1223 9.71631 10.1437 9.71636 10.1651C9.71636 10.4088 9.91 10.694 10.1706 10.9101L10.3667 11.0728L10.4359 11.3184C10.5388 11.6839 10.7453 12.0523 11.0449 12.2643L11.3981 12.5146L11.3785 13.5812ZM10.1426 13.5435C10.284 13.5025 10.4246 13.4592 10.5645 13.4133L10.5732 12.933C10.4889 12.8731 10.4097 12.8071 10.3357 12.7349L10.2556 12.653C9.8814 12.2482 9.71119 11.7595 9.64963 11.5408C9.42985 11.3585 8.89931 10.8476 8.89931 10.1651C8.89931 9.68473 9.10275 9.44621 9.34024 9.36488C9.28986 8.81468 9.28822 7.73446 9.90482 6.96866C10.3474 6.41901 11.0125 6.14062 11.8821 6.14062L12.2476 6.14062C13.1172 6.14062 13.7831 6.41901 14.2267 6.96866C14.8485 7.7383 14.8469 8.82504 14.7973 9.37251C15.0416 9.45685 15.2499 9.69974 15.2499 10.1853C15.2499 10.8812 14.7115 11.3924 14.5056 11.5624C14.413 11.8048 14.123 12.4985 13.7038 12.9243L13.7038 13.4079C14.2537 13.6071 16.3287 14.1753 17.0118 14.5569C17.0197 14.5613 17.0274 14.5661 17.0349 14.5713C17.0424 14.5764 17.0496 14.5819 17.0566 14.5877C17.0636 14.5935 17.0703 14.5996 17.0767 14.606C17.0832 14.6124 17.0893 14.6192 17.0951 14.6261C17.101 14.6331 17.1065 14.6403 17.1116 14.6478C17.1168 14.6553 17.1216 14.663 17.1261 14.6709C17.1306 14.6789 17.1347 14.687 17.1384 14.6953C17.1422 14.7036 17.1455 14.712 17.1485 14.7206C17.1703 14.7831 17.6749 16.2604 17.4366 17.3665C17.4067 17.5046 17.2866 17.6032 17.1474 17.6032L6.9561 17.6032C6.81665 17.6032 6.69627 17.5046 6.66658 17.3663C6.42828 16.2566 6.97354 14.7755 6.99694 14.713C7.02201 14.6461 7.06966 14.5901 7.13149 14.5558C7.68326 14.2482 9.18582 13.8249 10.0565 13.5689L10.1426 13.5435Z" stroke="rgba(204, 78, 29, 1)" stroke-width="0.6"      fill="#CC4E1D" ></path></svg>