<svg xmlns="http://www.w3.org/2000/svg" xmlns:xlink="http://www.w3.org/1999/xlink" width="24" height="24" viewBox="0 0 24 24" fill="none"><path d="M20.4123 18.5326L18.3641 18.5326L16.9748 16.9863L20.4123 16.9863C21.0537 16.9863 21.5729 16.4671 21.5729 15.8257L21.5729 4.16156C21.5729 3.52014 21.0537 3.00094 20.4123 3.00094L3.97941 3.00094C3.33799 3.00094 2.8188 3.52014 2.8188 4.16156L2.8188 15.8222C2.8188 16.4637 3.338 16.9829 3.97941 16.9829L7.60461 16.9829L6.31428 18.5292L3.97941 18.5292C2.48793 18.5292 1.27246 17.3176 1.27246 15.8222L1.27246 4.16156C1.27246 2.67007 2.48406 1.45459 3.97941 1.45459L20.4123 1.45459C21.9038 1.45459 23.1192 2.66621 23.1192 4.16156L23.1192 15.8222C23.1192 17.3176 21.9076 18.5326 20.4123 18.5326Z"   fill="#034FA1" ></path><path d="M15.7233 6.84224C15.7233 6.83262 15.7235 6.82301 15.724 6.81339C15.7245 6.80378 15.7252 6.79419 15.7262 6.78461C15.7271 6.77505 15.7284 6.76549 15.7298 6.75598C15.7312 6.74646 15.7329 6.73698 15.7348 6.72755C15.7367 6.71811 15.7388 6.70872 15.7412 6.69939C15.7436 6.69006 15.7462 6.68079 15.749 6.67158C15.7519 6.66238 15.7549 6.65324 15.7582 6.64418C15.7615 6.63513 15.765 6.62615 15.7688 6.61726C15.7725 6.60838 15.7765 6.59959 15.7807 6.59088C15.7848 6.58218 15.7892 6.5736 15.7939 6.56511C15.7985 6.55662 15.8033 6.54825 15.8083 6.54C15.8133 6.53175 15.8186 6.52362 15.824 6.51563C15.8294 6.50763 15.8351 6.49975 15.8409 6.49203C15.8467 6.4843 15.8527 6.47672 15.8589 6.46928C15.8651 6.46185 15.8715 6.45456 15.8781 6.44743C15.8846 6.4403 15.8914 6.43334 15.8983 6.42654C15.9052 6.41974 15.9123 6.4131 15.9195 6.40664C15.9268 6.40018 15.9342 6.3939 15.9417 6.3878C15.9493 6.38169 15.957 6.37577 15.9649 6.37004C15.9727 6.36431 15.9807 6.35877 15.9888 6.35342C15.997 6.34808 16.0052 6.34293 16.0136 6.33799C16.022 6.33304 16.0305 6.3283 16.0391 6.32377C16.0477 6.31923 16.0565 6.3149 16.0653 6.3108C16.0742 6.30668 16.0831 6.30278 16.0921 6.2991C16.1012 6.29542 16.1103 6.29196 16.1195 6.28871C16.1287 6.28547 16.138 6.28246 16.1473 6.27966C16.1567 6.27687 16.1661 6.27431 16.1756 6.27197C16.1851 6.26963 16.1946 6.26752 16.2042 6.26564C16.2138 6.26376 16.2234 6.26212 16.2331 6.26072C16.2428 6.2593 16.2525 6.25812 16.2622 6.25718C16.2719 6.25624 16.2817 6.25553 16.2914 6.25506C16.3012 6.25458 16.311 6.25435 16.3208 6.25435L17.9139 6.25435C17.9237 6.25436 17.9335 6.2546 17.9432 6.25507C17.953 6.25554 17.9627 6.25625 17.9725 6.2572C17.9822 6.25815 17.9919 6.25933 18.0016 6.26075C18.0112 6.26217 18.0209 6.26381 18.0304 6.26569C18.04 6.26757 18.0496 6.26969 18.059 6.27202C18.0685 6.27436 18.0779 6.27693 18.0873 6.27972C18.0966 6.28253 18.1059 6.28555 18.1151 6.28879C18.1243 6.29203 18.1334 6.2955 18.1425 6.29919C18.1515 6.30287 18.1604 6.30677 18.1693 6.31088C18.1781 6.315 18.1868 6.31932 18.1954 6.32385C18.2041 6.32839 18.2126 6.33314 18.221 6.33808C18.2293 6.34303 18.2376 6.34818 18.2457 6.35353C18.2538 6.35887 18.2618 6.36441 18.2697 6.37014C18.2775 6.37587 18.2852 6.38179 18.2928 6.3879C18.3003 6.394 18.3077 6.40028 18.315 6.40675C18.3222 6.4132 18.3293 6.41983 18.3362 6.42664C18.3431 6.43344 18.3498 6.4404 18.3564 6.44753C18.363 6.45466 18.3693 6.46195 18.3756 6.46938C18.3818 6.47681 18.3878 6.4844 18.3936 6.49212C18.3994 6.49985 18.405 6.50772 18.4105 6.51571C18.4159 6.52371 18.4211 6.53183 18.4261 6.54009C18.4312 6.54833 18.436 6.55669 18.4406 6.56518C18.4452 6.57367 18.4496 6.58225 18.4538 6.59095C18.4579 6.59965 18.4619 6.60844 18.4656 6.61733C18.4694 6.62621 18.4729 6.63519 18.4762 6.64424C18.4795 6.65329 18.4825 6.66243 18.4854 6.67164C18.4882 6.68084 18.4908 6.69011 18.4932 6.69943C18.4956 6.70876 18.4977 6.71814 18.4996 6.72759C18.5015 6.73702 18.5032 6.74648 18.5046 6.756C18.506 6.76552 18.5073 6.77506 18.5082 6.78464C18.5092 6.7942 18.5099 6.80379 18.5104 6.81339C18.5108 6.82301 18.5111 6.83262 18.5111 6.84224C18.5111 6.85185 18.5108 6.86147 18.5104 6.87108C18.5099 6.88068 18.5092 6.89027 18.5082 6.89984C18.5073 6.90942 18.506 6.91896 18.5046 6.92847C18.5032 6.93799 18.5015 6.94746 18.4996 6.95689C18.4977 6.96633 18.4956 6.97571 18.4932 6.98503C18.4908 6.99436 18.4882 7.00364 18.4854 7.01283C18.4825 7.02204 18.4795 7.03118 18.4762 7.04023C18.4729 7.04928 18.4694 7.05826 18.4656 7.06714C18.4619 7.07603 18.4579 7.08483 18.4538 7.09352C18.4496 7.10222 18.4452 7.1108 18.4406 7.11929C18.436 7.12778 18.4312 7.13614 18.4261 7.14439C18.4211 7.15264 18.4159 7.16076 18.4105 7.16876C18.405 7.17676 18.3994 7.18462 18.3936 7.19235C18.3878 7.20008 18.3818 7.20766 18.3756 7.21509C18.3693 7.22253 18.363 7.22981 18.3564 7.23694C18.3498 7.24407 18.3431 7.25104 18.3362 7.25784C18.3293 7.26463 18.3222 7.27127 18.315 7.27773C18.3077 7.28419 18.3003 7.29048 18.2928 7.29658C18.2852 7.30269 18.2775 7.3086 18.2697 7.31434C18.2618 7.32007 18.2538 7.3256 18.2457 7.33094C18.2376 7.3363 18.2293 7.34144 18.221 7.34639C18.2126 7.35134 18.2041 7.35608 18.1954 7.36062C18.1868 7.36515 18.1781 7.36947 18.1693 7.37359C18.1604 7.37771 18.1515 7.38161 18.1425 7.3853C18.1335 7.38899 18.1243 7.39244 18.1151 7.39569C18.1059 7.39893 18.0966 7.40194 18.0873 7.40475C18.0779 7.40754 18.0685 7.41011 18.059 7.41245C18.0496 7.41479 18.04 7.4169 18.0304 7.41878C18.0209 7.42066 18.0112 7.42231 18.0016 7.42372C17.9919 7.42514 17.9822 7.42633 17.9725 7.42727C17.9627 7.42822 17.953 7.42893 17.9432 7.4294C17.9335 7.42988 17.9237 7.43011 17.9139 7.43013L16.3208 7.43013C16.311 7.43013 16.3012 7.42989 16.2914 7.42941C16.2817 7.42894 16.2719 7.42824 16.2622 7.4273C16.2525 7.42635 16.2428 7.42517 16.2331 7.42376C16.2234 7.42235 16.2138 7.42071 16.2042 7.41883C16.1946 7.41696 16.1851 7.41485 16.1756 7.41251C16.1661 7.41017 16.1567 7.4076 16.1473 7.40481C16.138 7.40202 16.1287 7.399 16.1195 7.39576C16.1103 7.39251 16.1012 7.38906 16.0921 7.38537C16.0831 7.38169 16.0741 7.37779 16.0653 7.37368C16.0565 7.36957 16.0477 7.36525 16.0391 7.36071C16.0305 7.35617 16.022 7.35143 16.0136 7.34649C16.0052 7.34154 15.997 7.33639 15.9888 7.33105C15.9807 7.3257 15.9727 7.32017 15.9649 7.31443C15.957 7.3087 15.9493 7.30279 15.9417 7.29669C15.9342 7.29058 15.9268 7.28429 15.9195 7.27784C15.9123 7.27137 15.9052 7.26473 15.8983 7.25794C15.8914 7.25114 15.8846 7.24417 15.8781 7.23704C15.8715 7.22991 15.8651 7.22262 15.8589 7.21519C15.8527 7.20776 15.8467 7.20018 15.8409 7.19245C15.8351 7.18472 15.8294 7.17684 15.824 7.16885C15.8186 7.16085 15.8133 7.15273 15.8083 7.14447C15.8033 7.13622 15.7985 7.12785 15.7939 7.11936C15.7892 7.11088 15.7848 7.10229 15.7807 7.0936C15.7765 7.08489 15.7725 7.07609 15.7688 7.06721C15.765 7.05832 15.7615 7.04935 15.7582 7.04029C15.7549 7.03123 15.7519 7.02209 15.749 7.0129C15.7462 7.00369 15.7436 6.99441 15.7412 6.98508C15.7388 6.97575 15.7367 6.96637 15.7348 6.95692C15.7329 6.94749 15.7312 6.93801 15.7298 6.9285C15.7284 6.91898 15.7271 6.90943 15.7262 6.89986C15.7252 6.89028 15.7245 6.88069 15.724 6.87108C15.7235 6.86147 15.7233 6.85185 15.7233 6.84224ZM14.1971 5.20947C14.2068 5.20947 14.2166 5.20971 14.2264 5.21018C14.2361 5.21065 14.2459 5.21136 14.2556 5.2123C14.2653 5.21325 14.275 5.21442 14.2847 5.21584C14.2944 5.21725 14.304 5.21889 14.3136 5.22077C14.3232 5.22265 14.3327 5.22475 14.3422 5.22709C14.3517 5.22943 14.3611 5.23199 14.3705 5.23479C14.3798 5.23758 14.3891 5.2406 14.3983 5.24384C14.4075 5.24708 14.4166 5.25054 14.4257 5.25422C14.4347 5.25791 14.4436 5.2618 14.4525 5.26592C14.4613 5.27003 14.4701 5.27435 14.4787 5.27889C14.4873 5.28342 14.4958 5.28817 14.5042 5.29311C14.5126 5.29806 14.5208 5.3032 14.529 5.30855C14.5371 5.31389 14.5451 5.31943 14.5529 5.32516C14.5608 5.3309 14.5685 5.33681 14.5761 5.34292C14.5836 5.34902 14.591 5.3553 14.5983 5.36176C14.6055 5.36823 14.6126 5.37486 14.6195 5.38166C14.6264 5.38847 14.6332 5.39543 14.6397 5.40256C14.6463 5.40969 14.6527 5.41697 14.6589 5.42441C14.6651 5.43185 14.6711 5.43943 14.6769 5.44716C14.6827 5.45489 14.6884 5.46275 14.6938 5.47075C14.6992 5.47875 14.7045 5.48687 14.7095 5.49513C14.7145 5.50338 14.7193 5.51175 14.7239 5.52023C14.7286 5.52872 14.733 5.53731 14.7371 5.546C14.7413 5.55471 14.7453 5.5635 14.749 5.57238C14.7528 5.58128 14.7563 5.59025 14.7596 5.5993C14.7629 5.60837 14.7659 5.6175 14.7688 5.6267C14.7716 5.63591 14.7742 5.64518 14.7766 5.65452C14.779 5.66385 14.7811 5.67323 14.783 5.68267C14.7849 5.69211 14.7866 5.70158 14.788 5.7111C14.7895 5.72062 14.7907 5.73017 14.7916 5.73974C14.7926 5.74931 14.7933 5.75891 14.7938 5.76852C14.7943 5.77813 14.7945 5.78774 14.7945 5.79736L14.7945 7.8879C14.7945 7.89751 14.7943 7.90712 14.7938 7.91674C14.7933 7.92635 14.7926 7.93594 14.7916 7.94552C14.7907 7.95509 14.7895 7.96464 14.788 7.97416C14.7866 7.98367 14.7849 7.99315 14.783 8.00258C14.7811 8.01203 14.779 8.02141 14.7766 8.03074C14.7742 8.04007 14.7716 8.04934 14.7688 8.05855C14.7659 8.06775 14.7629 8.07689 14.7596 8.08595C14.7563 8.095 14.7528 8.10398 14.749 8.11287C14.7453 8.12175 14.7413 8.13055 14.7371 8.13925C14.733 8.14795 14.7286 8.15654 14.7239 8.16502C14.7193 8.17351 14.7145 8.18188 14.7095 8.19013C14.7045 8.19839 14.6992 8.20651 14.6938 8.2145C14.6884 8.2225 14.6827 8.23036 14.6769 8.23809C14.6711 8.24582 14.6651 8.25342 14.6589 8.26085C14.6527 8.26828 14.6463 8.27557 14.6397 8.2827C14.6332 8.28983 14.6264 8.2968 14.6195 8.30359C14.6126 8.31039 14.6055 8.31703 14.5983 8.3235C14.591 8.32995 14.5836 8.33623 14.5761 8.34233C14.5685 8.34844 14.5608 8.35436 14.5529 8.36009C14.5451 8.36582 14.5371 8.37136 14.529 8.37671C14.5208 8.38205 14.5126 8.3872 14.5042 8.39215C14.4958 8.39709 14.4873 8.40183 14.4787 8.40636C14.4701 8.41091 14.4613 8.41523 14.4525 8.41933C14.4436 8.42345 14.4347 8.42734 14.4257 8.43103C14.4166 8.43472 14.4075 8.43817 14.3983 8.44142C14.3891 8.44466 14.3798 8.44768 14.3705 8.45047C14.3611 8.45326 14.3517 8.45582 14.3422 8.45816C14.3327 8.4605 14.3232 8.46262 14.3136 8.46449C14.304 8.46637 14.2944 8.46801 14.2847 8.46942C14.275 8.47082 14.2653 8.47201 14.2556 8.47295C14.2459 8.4739 14.2361 8.4746 14.2264 8.47507C14.2166 8.47555 14.2068 8.47578 14.1971 8.47578C14.1873 8.47578 14.1775 8.47555 14.1677 8.47507C14.158 8.4746 14.1482 8.4739 14.1385 8.47295C14.1288 8.47201 14.1191 8.47082 14.1094 8.46942C14.0997 8.46801 14.0901 8.46637 14.0805 8.46449C14.0709 8.46262 14.0614 8.46051 14.0519 8.45817C14.0424 8.45583 14.033 8.45326 14.0236 8.45047C14.0143 8.44768 14.005 8.44466 13.9958 8.44142C13.9866 8.43817 13.9775 8.43472 13.9684 8.43103C13.9594 8.42734 13.9504 8.42345 13.9416 8.41933C13.9328 8.41523 13.924 8.41091 13.9154 8.40636C13.9068 8.40183 13.8983 8.39709 13.8899 8.39215C13.8815 8.3872 13.8733 8.38205 13.8651 8.37671C13.857 8.37136 13.849 8.36582 13.8411 8.36009C13.8333 8.35436 13.8256 8.34844 13.818 8.34233C13.8105 8.33623 13.8031 8.32995 13.7958 8.3235C13.7886 8.31703 13.7815 8.31039 13.7746 8.30359C13.7677 8.2968 13.7609 8.28983 13.7544 8.2827C13.7478 8.27557 13.7414 8.26828 13.7352 8.26085C13.729 8.25342 13.723 8.24583 13.7172 8.23811C13.7114 8.23038 13.7057 8.2225 13.7003 8.2145C13.6949 8.20651 13.6896 8.19839 13.6846 8.19013C13.6796 8.18188 13.6748 8.17351 13.6702 8.16502C13.6655 8.15654 13.6611 8.14795 13.657 8.13925C13.6528 8.13055 13.6488 8.12175 13.6451 8.11287C13.6413 8.10398 13.6378 8.095 13.6345 8.08595C13.6312 8.07689 13.6282 8.06775 13.6253 8.05855C13.6225 8.04934 13.6199 8.04007 13.6175 8.03074C13.6151 8.02141 13.613 8.01203 13.6111 8.00258C13.6092 7.99315 13.6075 7.98367 13.6061 7.97416C13.6046 7.96464 13.6034 7.95509 13.6025 7.94552C13.6015 7.93594 13.6008 7.92635 13.6003 7.91674C13.5999 7.90712 13.5996 7.89751 13.5996 7.8879L13.5996 5.79736C13.5996 5.78774 13.5999 5.77813 13.6003 5.76852C13.6008 5.75891 13.6015 5.74931 13.6025 5.73974C13.6034 5.73017 13.6046 5.72062 13.6061 5.7111C13.6075 5.70158 13.6092 5.69211 13.6111 5.68267C13.613 5.67323 13.6151 5.66385 13.6175 5.65452C13.6199 5.64518 13.6225 5.63591 13.6253 5.6267C13.6282 5.6175 13.6312 5.60837 13.6345 5.5993C13.6378 5.59025 13.6413 5.58128 13.6451 5.57238C13.6488 5.5635 13.6528 5.55471 13.657 5.546C13.6611 5.53731 13.6655 5.52872 13.6702 5.52023C13.6748 5.51175 13.6796 5.50338 13.6846 5.49513C13.6896 5.48687 13.6949 5.47875 13.7003 5.47075C13.7057 5.46275 13.7114 5.45489 13.7172 5.44716C13.723 5.43943 13.729 5.43185 13.7352 5.42441C13.7414 5.41697 13.7478 5.40969 13.7544 5.40256C13.7609 5.39543 13.7677 5.38847 13.7746 5.38166C13.7815 5.37486 13.7886 5.36823 13.7958 5.36176C13.8031 5.3553 13.8105 5.34902 13.818 5.34292C13.8256 5.33681 13.8333 5.3309 13.8411 5.32516C13.849 5.31943 13.857 5.3139 13.8651 5.30855C13.8733 5.3032 13.8815 5.29806 13.8899 5.29311C13.8983 5.28817 13.9068 5.28343 13.9154 5.27889C13.924 5.27435 13.9328 5.27003 13.9416 5.26592C13.9505 5.2618 13.9594 5.25791 13.9684 5.25422C13.9775 5.25054 13.9866 5.24708 13.9958 5.24384C14.005 5.2406 14.0143 5.23758 14.0236 5.23479C14.033 5.23199 14.0424 5.22943 14.0519 5.22709C14.0614 5.22475 14.0709 5.22265 14.0805 5.22077C14.0901 5.21889 14.0997 5.21725 14.1094 5.21584C14.1191 5.21442 14.1288 5.21325 14.1385 5.2123C14.1482 5.21136 14.158 5.21065 14.1677 5.21018C14.1775 5.20971 14.1873 5.20947 14.1971 5.20947Z" stroke="rgba(3, 79, 161, 1)" stroke-width="1"      fill="#034FA1" ></path><path d="M6.39258 6.84115C6.39258 6.83154 6.39258 6.82347 6.39258 6.81386C6.39258 6.80425 6.39258 6.79273 6.39258 6.78315C6.39258 6.77358 6.3994 6.76192 6.3994 6.7524C6.3994 6.74288 6.40282 6.73454 6.40282 6.72511C6.40282 6.71567 6.40964 6.71052 6.40964 6.70119C6.40964 6.69185 6.41648 6.67969 6.41648 6.67048C6.41648 6.66127 6.42672 6.65225 6.42672 6.64318C6.42672 6.63413 6.44037 6.62816 6.44037 6.61927C6.44037 6.61038 6.45061 6.59726 6.45061 6.58855C6.45061 6.57986 6.46426 6.57316 6.46426 6.56468C6.46426 6.55619 6.4745 6.54902 6.4745 6.54076C6.4745 6.53251 6.49498 6.52146 6.49498 6.51347C6.49498 6.50547 6.51205 6.49728 6.51205 6.48955C6.51205 6.48182 6.52292 6.47994 6.52912 6.47251C6.53532 6.46507 6.53963 6.45572 6.54619 6.44859C6.55276 6.44146 6.55634 6.43151 6.56326 6.42471C6.57017 6.41791 6.57991 6.41409 6.58715 6.40763C6.5944 6.40117 6.60349 6.39668 6.61105 6.39058C6.61861 6.38448 6.62709 6.37008 6.63494 6.37008C6.64279 6.37008 6.65071 6.35304 6.65883 6.35304C6.66697 6.35304 6.67435 6.33595 6.68273 6.33595C6.69112 6.33595 6.69801 6.3257 6.70663 6.3257C6.71525 6.3257 6.72851 6.31208 6.73735 6.31208C6.74619 6.31208 6.7522 6.30183 6.76124 6.30183C6.77027 6.30183 6.78277 6.28816 6.79197 6.28816C6.80118 6.28816 6.8065 6.27791 6.81586 6.27791C6.82522 6.27791 6.83369 6.27112 6.84317 6.27112C6.85265 6.27112 6.8643 6.26428 6.87389 6.26428C6.88347 6.26428 6.89494 6.26087 6.90461 6.26087C6.91429 6.26087 6.92219 6.25403 6.93192 6.25403C6.94165 6.25403 6.95288 6.25403 6.96265 6.25403C6.97241 6.25403 6.98359 6.25403 6.99337 6.25403L14.196 6.25403C14.2057 6.25403 14.2169 6.25403 14.2267 6.25403C14.2365 6.25403 14.2477 6.25403 14.2574 6.25403C14.2671 6.25403 14.275 6.26086 14.2847 6.26086C14.2944 6.26086 14.3059 6.26427 14.3154 6.26427C14.325 6.26427 14.3298 6.2711 14.3393 6.2711C14.3488 6.2711 14.3607 6.27792 14.3701 6.27792C14.3794 6.27792 14.3882 6.28816 14.3974 6.28816C14.4066 6.28816 14.4191 6.30182 14.4281 6.30182C14.4371 6.30182 14.4432 6.31206 14.452 6.31206C14.4608 6.31206 14.4672 6.32571 14.4759 6.32571C14.4845 6.32571 14.4982 6.33595 14.5066 6.33595C14.515 6.33595 14.5224 6.35302 14.5305 6.35302C14.5386 6.35302 14.5465 6.37009 14.5544 6.37009C14.5622 6.37009 14.5707 6.38446 14.5783 6.39057C14.5858 6.39667 14.5915 6.40117 14.5988 6.40764C14.606 6.4141 14.6123 6.4179 14.6192 6.42471C14.6262 6.43151 14.6366 6.44147 14.6431 6.4486C14.6497 6.45573 14.654 6.46506 14.6602 6.47249C14.6664 6.47993 14.6773 6.48184 14.6773 6.48956C14.6773 6.49729 14.6943 6.50546 14.6943 6.51346C14.6943 6.52145 14.708 6.53251 14.708 6.54077C14.708 6.54901 14.7251 6.55618 14.7251 6.56466C14.7251 6.57314 14.7387 6.57986 14.7387 6.58855C14.7387 6.59725 14.749 6.61038 14.749 6.61928C14.749 6.62816 14.7592 6.63412 14.7592 6.64317C14.7592 6.65223 14.766 6.66127 14.766 6.67048C14.766 6.67968 14.7797 6.69188 14.7797 6.7012C14.7797 6.71053 14.7831 6.71566 14.7831 6.7251C14.7831 6.73453 14.7831 6.74289 14.7831 6.7524C14.7831 6.76192 14.7899 6.77355 14.7899 6.78313C14.7899 6.7927 14.7899 6.80425 14.7899 6.81385C14.7899 6.82346 14.7967 6.83154 14.7967 6.84116C14.7967 6.85077 14.7899 6.86227 14.7899 6.87188C14.7899 6.88148 14.7899 6.88962 14.7899 6.89919C14.7899 6.90876 14.7831 6.9204 14.7831 6.92991C14.7831 6.93942 14.7831 6.9512 14.7831 6.96063C14.7831 6.97007 14.7797 6.9752 14.7797 6.98453C14.7797 6.99386 14.766 7.00263 14.766 7.01183C14.766 7.02104 14.7592 7.0335 14.7592 7.04256C14.7592 7.05161 14.749 7.05757 14.749 7.06645C14.749 7.07534 14.7387 7.08506 14.7387 7.09376C14.7387 7.10245 14.7251 7.10917 14.7251 7.11765C14.7251 7.12614 14.708 7.1333 14.708 7.14155C14.708 7.1498 14.6943 7.16428 14.6943 7.17227C14.6943 7.18027 14.6773 7.18844 14.6773 7.19616C14.6773 7.20389 14.6664 7.20579 14.6602 7.21323C14.654 7.22067 14.6497 7.23 14.6431 7.23713C14.6366 7.24426 14.6262 7.25422 14.6192 7.26102C14.6123 7.26782 14.606 7.27163 14.5988 7.27809C14.5915 7.28456 14.5858 7.28906 14.5783 7.29516C14.5707 7.30126 14.5622 7.31222 14.5544 7.31222C14.5465 7.31222 14.5386 7.32929 14.5305 7.32929C14.5224 7.32929 14.515 7.34636 14.5066 7.34636C14.4982 7.34636 14.4845 7.36001 14.4759 7.36001C14.4672 7.36001 14.4608 7.37025 14.452 7.37025C14.4432 7.37025 14.4371 7.38391 14.4281 7.38391C14.419 7.38391 14.4066 7.39415 14.3974 7.39415C14.3882 7.39415 14.3794 7.4078 14.3701 7.4078C14.3607 7.4078 14.3488 7.41122 14.3393 7.41122C14.3298 7.41122 14.325 7.41804 14.3154 7.41804C14.3059 7.41804 14.2944 7.42487 14.2847 7.42487C14.275 7.42487 14.2671 7.42829 14.2574 7.42829C14.2477 7.42829 14.2365 7.42829 14.2267 7.42829C14.2169 7.42829 14.2057 7.42829 14.196 7.42829L6.99337 7.42828C6.98359 7.42828 6.97241 7.42828 6.96265 7.42828C6.95288 7.42828 6.94165 7.42828 6.93192 7.42828C6.92219 7.42828 6.91429 7.42486 6.90461 7.42486C6.89494 7.42486 6.88347 7.41807 6.87389 7.41807C6.8643 7.41807 6.85265 7.41123 6.84317 7.41123C6.83369 7.41123 6.82522 7.40782 6.81586 7.40782C6.8065 7.40782 6.80118 7.39415 6.79197 7.39415C6.78277 7.39415 6.77027 7.3839 6.76124 7.3839C6.7522 7.3839 6.74619 7.37027 6.73735 7.37027C6.72851 7.37027 6.71525 7.36002 6.70663 7.36002C6.69801 7.36002 6.69112 7.34635 6.68273 7.34635C6.67435 7.34635 6.66697 7.32931 6.65883 7.32931C6.65071 7.32931 6.64279 7.31223 6.63494 7.31223C6.62709 7.31223 6.61861 7.30124 6.61105 7.29514C6.60349 7.28903 6.5944 7.28456 6.58715 7.2781C6.57991 7.27163 6.57017 7.26782 6.56326 7.26101C6.55634 7.25421 6.55276 7.24427 6.54619 7.23714C6.53963 7.23001 6.53532 7.22066 6.52912 7.21322C6.52292 7.20578 6.51205 7.2039 6.51205 7.19618C6.51205 7.18845 6.49498 7.18026 6.49498 7.17226C6.49498 7.16427 6.4745 7.1498 6.4745 7.14155C6.4745 7.13329 6.46426 7.12616 6.46426 7.11767C6.46426 7.10919 6.45061 7.10245 6.45061 7.09375C6.45061 7.08505 6.44037 7.07534 6.44037 7.06646C6.44037 7.05757 6.42672 7.0516 6.42672 7.04254C6.42672 7.03348 6.41648 7.02103 6.41648 7.01183C6.41648 7.00262 6.40964 6.99387 6.40964 6.98454C6.40964 6.97521 6.40282 6.97006 6.40282 6.96062C6.40282 6.95119 6.3994 6.93943 6.3994 6.92991C6.3994 6.92039 6.39258 6.90877 6.39258 6.8992C6.39258 6.88962 6.39258 6.88148 6.39258 6.87186C6.39258 6.86225 6.39258 6.85077 6.39258 6.84115Z" stroke="rgba(3, 79, 161, 1)" stroke-width="1"      fill="#034FA1" ></path><path d="M5.02734 11.5349C5.02734 11.5253 5.02734 11.5152 5.02734 11.5056C5.02734 11.4959 5.02734 11.4857 5.02734 11.4762C5.02734 11.4666 5.03328 11.4622 5.03328 11.4526C5.03328 11.4431 5.03922 11.4327 5.03922 11.4232C5.03922 11.4138 5.04516 11.4032 5.04516 11.3939C5.04516 11.3845 5.0511 11.3737 5.0511 11.3645C5.0511 11.3553 5.06298 11.35 5.06298 11.3409C5.06298 11.3319 5.07486 11.3204 5.07486 11.3115C5.07486 11.3027 5.08674 11.2967 5.08674 11.288C5.08674 11.2793 5.09862 11.2671 5.09862 11.2586C5.09862 11.2502 5.1105 11.2434 5.1105 11.2351C5.1105 11.2269 5.12832 11.2196 5.12832 11.2116C5.12832 11.2036 5.14614 11.1958 5.14614 11.1881C5.14614 11.1804 5.15775 11.172 5.16395 11.1646C5.17016 11.1571 5.17521 11.1482 5.18177 11.1411C5.18834 11.1339 5.19268 11.1302 5.19959 11.1234C5.20651 11.1166 5.21611 11.1064 5.22335 11.0999C5.2306 11.0935 5.23955 11.0884 5.24711 11.0823C5.25467 11.0762 5.26302 11.0646 5.27087 11.0646C5.27872 11.0646 5.2865 11.047 5.29463 11.047C5.30276 11.047 5.31 11.0294 5.31839 11.0294C5.32677 11.0294 5.33352 11.0176 5.34214 11.0176C5.35077 11.0176 5.363 11.0058 5.37184 11.0058C5.38068 11.0058 5.38657 10.9941 5.3956 10.9941C5.40463 10.9941 5.4161 10.9823 5.4253 10.9823C5.43451 10.9823 5.43971 10.9765 5.44906 10.9765C5.45842 10.9765 5.46927 10.9647 5.47875 10.9647C5.48824 10.9647 5.49886 10.9588 5.50845 10.9588C5.51804 10.9588 5.52848 10.9529 5.53815 10.9529C5.54783 10.9529 5.55812 10.9529 5.56785 10.9529C5.57758 10.9529 5.58778 10.9471 5.59755 10.9471C5.60731 10.9471 5.61747 10.9471 5.62724 10.9471L7.74769 10.9471C7.75746 10.9471 7.76762 10.9471 7.77739 10.9471C7.78716 10.9471 7.79735 10.9529 7.80708 10.9529C7.81682 10.9529 7.82711 10.9529 7.83678 10.9529C7.84645 10.9529 7.8569 10.9588 7.86648 10.9588C7.87608 10.9588 7.88669 10.9647 7.89618 10.9647C7.90566 10.9647 7.91058 10.9765 7.91994 10.9765C7.92929 10.9765 7.94042 10.9823 7.94964 10.9823C7.95883 10.9823 7.9703 10.9941 7.97933 10.9941C7.98836 10.9941 7.99424 11.0058 8.00309 11.0058C8.01193 11.0058 8.02416 11.0176 8.03279 11.0176C8.04142 11.0176 8.04816 11.0294 8.05655 11.0294C8.06494 11.0294 8.07218 11.047 8.08031 11.047C8.08844 11.047 8.09621 11.0646 8.10407 11.0646C8.11192 11.0646 8.12027 11.0762 8.12782 11.0823C8.13538 11.0884 8.14434 11.0935 8.15158 11.0999C8.15883 11.1064 8.16249 11.1166 8.1694 11.1234C8.17631 11.1302 8.18659 11.1339 8.19316 11.1411C8.19972 11.1482 8.20478 11.1571 8.21098 11.1646C8.21719 11.172 8.2288 11.1804 8.2288 11.1881C8.2288 11.1958 8.24662 11.2036 8.24662 11.2116C8.24662 11.2196 8.26443 11.2269 8.26443 11.2351C8.26443 11.2434 8.27631 11.2502 8.27631 11.2586C8.27631 11.2671 8.28819 11.2793 8.28819 11.288C8.28819 11.2967 8.30007 11.3027 8.30007 11.3115C8.30007 11.3204 8.31195 11.3319 8.31195 11.3409C8.31195 11.35 8.32383 11.3553 8.32383 11.3645C8.32383 11.3737 8.32977 11.3845 8.32977 11.3939C8.32977 11.4032 8.33571 11.4138 8.33571 11.4232C8.33571 11.4327 8.34165 11.4431 8.34165 11.4526C8.34165 11.4622 8.34165 11.4666 8.34165 11.4762C8.34165 11.4857 8.34759 11.4959 8.34759 11.5056C8.34759 11.5152 8.34759 11.5253 8.34759 11.5349C8.34759 11.5446 8.34759 11.5547 8.34759 11.5643C8.34759 11.574 8.34165 11.5842 8.34165 11.5937C8.34165 11.6033 8.34165 11.6136 8.34165 11.6231C8.34165 11.6326 8.33571 11.6431 8.33571 11.6525C8.33571 11.662 8.32977 11.6726 8.32977 11.6819C8.32977 11.6913 8.32383 11.6962 8.32383 11.7054C8.32383 11.7146 8.31195 11.7258 8.31195 11.7348C8.31195 11.7439 8.30007 11.7553 8.30007 11.7642C8.30007 11.7731 8.28819 11.779 8.28819 11.7877C8.28819 11.7964 8.27631 11.8028 8.27631 11.8113C8.27631 11.8197 8.26443 11.8324 8.26443 11.8406C8.26443 11.8489 8.24662 11.8562 8.24662 11.8642C8.24662 11.8722 8.2288 11.88 8.2288 11.8877C8.2288 11.8954 8.21719 11.9038 8.21098 11.9112C8.20478 11.9186 8.19972 11.9217 8.19316 11.9288C8.18659 11.936 8.17631 11.9456 8.1694 11.9523C8.16249 11.9591 8.15883 11.9635 8.15158 11.97C8.14434 11.9764 8.13538 11.9874 8.12782 11.9935C8.12027 11.9996 8.11192 12.0111 8.10407 12.0111C8.09621 12.0111 8.08844 12.0229 8.08031 12.0229C8.07218 12.0229 8.06494 12.0405 8.05655 12.0405C8.04816 12.0405 8.04142 12.0523 8.03279 12.0523C8.02416 12.0523 8.01193 12.0699 8.00309 12.0699C7.99424 12.0699 7.98836 12.0817 7.97933 12.0817C7.9703 12.0817 7.95883 12.0876 7.94964 12.0876C7.94042 12.0876 7.92929 12.0993 7.91994 12.0993C7.91058 12.0993 7.90566 12.1052 7.89618 12.1052C7.88669 12.1052 7.87608 12.1111 7.86648 12.1111C7.8569 12.1111 7.84645 12.117 7.83678 12.117C7.82711 12.117 7.81682 12.1228 7.80708 12.1228C7.79735 12.1228 7.78716 12.1228 7.77739 12.1228C7.76762 12.1228 7.75746 12.1228 7.74769 12.1228L5.62724 12.1228C5.61747 12.1228 5.60731 12.1228 5.59755 12.1228C5.58778 12.1228 5.57758 12.1228 5.56785 12.1228C5.55812 12.1228 5.54783 12.117 5.53815 12.117C5.52848 12.117 5.51804 12.1111 5.50845 12.1111C5.49886 12.1111 5.48824 12.1052 5.47875 12.1052C5.46927 12.1052 5.45842 12.0993 5.44906 12.0993C5.43971 12.0993 5.43451 12.0876 5.4253 12.0876C5.4161 12.0876 5.40463 12.0817 5.3956 12.0817C5.38657 12.0817 5.38068 12.0699 5.37184 12.0699C5.363 12.0699 5.35077 12.0523 5.34214 12.0523C5.33352 12.0523 5.32677 12.0405 5.31839 12.0405C5.31 12.0405 5.30276 12.0229 5.29463 12.0229C5.2865 12.0229 5.27872 12.0111 5.27087 12.0111C5.26302 12.0111 5.25467 11.9996 5.24711 11.9935C5.23955 11.9874 5.2306 11.9764 5.22335 11.97C5.21611 11.9635 5.20651 11.9591 5.19959 11.9523C5.19268 11.9456 5.18834 11.936 5.18177 11.9288C5.17521 11.9217 5.17016 11.9186 5.16395 11.9112C5.15775 11.9038 5.14614 11.8954 5.14614 11.8877C5.14614 11.88 5.12832 11.8722 5.12832 11.8642C5.12832 11.8562 5.1105 11.8489 5.1105 11.8406C5.1105 11.8324 5.09862 11.8197 5.09862 11.8113C5.09862 11.8028 5.08674 11.7964 5.08674 11.7877C5.08674 11.779 5.07486 11.7731 5.07486 11.7642C5.07486 11.7553 5.06298 11.7439 5.06298 11.7348C5.06298 11.7258 5.0511 11.7146 5.0511 11.7054C5.0511 11.6962 5.04516 11.6913 5.04516 11.6819C5.04516 11.6726 5.03922 11.662 5.03922 11.6525C5.03922 11.6431 5.03328 11.6326 5.03328 11.6231C5.03328 11.6136 5.02734 11.6033 5.02734 11.5937C5.02734 11.5842 5.02734 11.574 5.02734 11.5643C5.02734 11.5547 5.02734 11.5446 5.02734 11.5349ZM9.87407 9.90649C9.88384 9.90649 9.894 9.90649 9.90377 9.90649C9.91354 9.90649 9.92373 9.90649 9.93347 9.90649C9.94319 9.90649 9.9535 9.91237 9.96317 9.91237C9.97284 9.91237 9.98328 9.91237 9.99286 9.91237C10.0025 9.91237 10.0071 9.92413 10.0166 9.92413C10.0261 9.92413 10.037 9.93001 10.0463 9.93001C10.0557 9.93001 10.0668 9.93589 10.076 9.93589C10.0852 9.93589 10.0907 9.94765 10.0998 9.94765C10.1088 9.94765 10.1206 9.9594 10.1295 9.9594C10.1383 9.9594 10.1446 9.97116 10.1532 9.97116C10.1619 9.97116 10.1745 9.9888 10.1829 9.9888C10.1913 9.9888 10.1986 10.0006 10.2067 10.0006C10.2148 10.0006 10.2226 10.0182 10.2304 10.0182C10.2383 10.0182 10.2467 10.0297 10.2542 10.0358C10.2618 10.0419 10.2707 10.047 10.278 10.0535C10.2852 10.0599 10.2889 10.0702 10.2958 10.077C10.3027 10.0838 10.307 10.0875 10.3136 10.0946C10.3202 10.1017 10.3312 10.1107 10.3374 10.1181C10.3436 10.1256 10.3552 10.1339 10.3552 10.1417C10.3552 10.1494 10.373 10.1572 10.373 10.1652C10.373 10.1732 10.3849 10.1804 10.3849 10.1887C10.3849 10.1969 10.4027 10.2037 10.4027 10.2122C10.4027 10.2207 10.4146 10.2329 10.4146 10.2416C10.4146 10.2503 10.4265 10.2562 10.4265 10.2651C10.4265 10.274 10.4383 10.2854 10.4383 10.2945C10.4383 10.3036 10.4443 10.3147 10.4443 10.3239C10.4443 10.3331 10.4562 10.3381 10.4562 10.3474C10.4562 10.3567 10.4621 10.3674 10.4621 10.3768C10.4621 10.3862 10.4621 10.3967 10.4621 10.4062C10.4621 10.4157 10.468 10.426 10.468 10.4356C10.468 10.4452 10.468 10.4554 10.468 10.465C10.468 10.4746 10.474 10.4848 10.474 10.4944L10.474 12.5814C10.474 12.591 10.468 12.6012 10.468 12.6108C10.468 12.6204 10.468 12.6306 10.468 12.6402C10.468 12.6497 10.4621 12.6601 10.4621 12.6696C10.4621 12.6791 10.4621 12.6895 10.4621 12.699C10.4621 12.7084 10.4562 12.7132 10.4562 12.7225C10.4562 12.7318 10.4443 12.7427 10.4443 12.7519C10.4443 12.7611 10.4383 12.7722 10.4383 12.7813C10.4383 12.7903 10.4265 12.7959 10.4265 12.8048C10.4265 12.8137 10.4146 12.8255 10.4146 12.8342C10.4146 12.8429 10.4027 12.8492 10.4027 12.8577C10.4027 12.8662 10.3849 12.873 10.3849 12.8812C10.3849 12.8895 10.373 12.9026 10.373 12.9106C10.373 12.9186 10.3552 12.9264 10.3552 12.9341C10.3552 12.9419 10.3436 12.9443 10.3374 12.9518C10.3312 12.9592 10.3202 12.9681 10.3136 12.9753C10.307 12.9824 10.3027 12.992 10.2958 12.9988C10.2889 13.0056 10.2852 13.01 10.278 13.0164C10.2707 13.0229 10.2618 13.028 10.2542 13.0341C10.2467 13.0402 10.2383 13.0517 10.2304 13.0517C10.2226 13.0517 10.2148 13.0693 10.2067 13.0693C10.1986 13.0693 10.1913 13.087 10.1829 13.087C10.1745 13.087 10.1619 13.0987 10.1532 13.0987C10.1446 13.0987 10.1383 13.1105 10.1295 13.1105C10.1206 13.1105 10.1088 13.1222 10.0998 13.1222C10.0907 13.1222 10.0852 13.134 10.076 13.134C10.0668 13.134 10.0557 13.1458 10.0463 13.1458C10.037 13.1458 10.0261 13.1516 10.0166 13.1516C10.0071 13.1516 10.0025 13.1575 9.99286 13.1575C9.98328 13.1575 9.97284 13.1634 9.96317 13.1634C9.9535 13.1634 9.94319 13.1693 9.93347 13.1693C9.92373 13.1693 9.91354 13.1693 9.90377 13.1693C9.894 13.1693 9.88384 13.1693 9.87407 13.1693C9.8643 13.1693 9.85414 13.1693 9.84437 13.1693C9.8346 13.1693 9.82441 13.1693 9.81468 13.1693C9.80494 13.1693 9.79465 13.1634 9.78498 13.1634C9.77531 13.1634 9.76486 13.1575 9.75528 13.1575C9.74568 13.1575 9.741 13.1516 9.73152 13.1516C9.72204 13.1516 9.71118 13.1458 9.70182 13.1458C9.69248 13.1458 9.68134 13.134 9.67212 13.134C9.66293 13.134 9.65146 13.1222 9.64243 13.1222C9.63339 13.1222 9.62751 13.1105 9.61867 13.1105C9.60983 13.1105 9.60353 13.0987 9.59491 13.0987C9.58628 13.0987 9.5736 13.087 9.56521 13.087C9.55682 13.087 9.54958 13.0693 9.54145 13.0693C9.53333 13.0693 9.52555 13.0517 9.51769 13.0517C9.50984 13.0517 9.50149 13.0402 9.49394 13.0341C9.48638 13.028 9.47742 13.0229 9.47018 13.0164C9.46293 13.01 9.45927 13.0056 9.45236 12.9988C9.44545 12.992 9.43517 12.9824 9.4286 12.9753C9.42204 12.9681 9.41699 12.9592 9.41078 12.9518C9.40458 12.9443 9.39296 12.9419 9.39296 12.9341C9.39296 12.9264 9.37514 12.9186 9.37514 12.9106C9.37514 12.9026 9.36326 12.8895 9.36326 12.8812C9.36326 12.873 9.34545 12.8662 9.34545 12.8577C9.34545 12.8492 9.33357 12.8429 9.33357 12.8342C9.33357 12.8255 9.32169 12.8137 9.32169 12.8048C9.32169 12.7959 9.30981 12.7903 9.30981 12.7813C9.30981 12.7722 9.30387 12.7611 9.30387 12.7519C9.30387 12.7427 9.29199 12.7318 9.29199 12.7225C9.29199 12.7132 9.28605 12.7084 9.28605 12.699C9.28605 12.6895 9.28011 12.6791 9.28011 12.6696C9.28011 12.6601 9.28011 12.6497 9.28011 12.6402C9.28011 12.6306 9.27417 12.6204 9.27417 12.6108C9.27417 12.6012 9.27417 12.591 9.27417 12.5814L9.27417 10.4944C9.27417 10.4848 9.27417 10.4746 9.27417 10.465C9.27417 10.4554 9.28011 10.4452 9.28011 10.4356C9.28011 10.426 9.28011 10.4157 9.28011 10.4062C9.28011 10.3967 9.28605 10.3862 9.28605 10.3768C9.28605 10.3674 9.29199 10.3567 9.29199 10.3474C9.29199 10.3381 9.30387 10.3331 9.30387 10.3239C9.30387 10.3147 9.30981 10.3036 9.30981 10.2945C9.30981 10.2854 9.32169 10.274 9.32169 10.2651C9.32169 10.2562 9.33357 10.2503 9.33357 10.2416C9.33357 10.2329 9.34545 10.2207 9.34545 10.2122C9.34545 10.2037 9.36326 10.1969 9.36326 10.1887C9.36326 10.1804 9.37514 10.1732 9.37514 10.1652C9.37514 10.1572 9.39296 10.1494 9.39296 10.1417C9.39296 10.1339 9.40458 10.1256 9.41078 10.1181C9.41699 10.1107 9.42204 10.1017 9.4286 10.0946C9.43517 10.0875 9.44545 10.0838 9.45236 10.077C9.45927 10.0702 9.46293 10.0599 9.47018 10.0535C9.47742 10.047 9.48638 10.0419 9.49394 10.0358C9.50149 10.0297 9.50984 10.0182 9.51769 10.0182C9.52555 10.0182 9.53333 10.0006 9.54145 10.0006C9.54958 10.0006 9.55682 9.9888 9.56521 9.9888C9.5736 9.9888 9.58628 9.97116 9.59491 9.97116C9.60353 9.97116 9.60983 9.9594 9.61867 9.9594C9.62752 9.9594 9.6334 9.94765 9.64243 9.94765C9.65146 9.94765 9.66293 9.93589 9.67212 9.93589C9.68134 9.93589 9.69248 9.93001 9.70182 9.93001C9.71118 9.93001 9.72204 9.92413 9.73152 9.92413C9.741 9.92413 9.74568 9.91237 9.75528 9.91237C9.76486 9.91237 9.77531 9.91237 9.78498 9.91237C9.79465 9.91237 9.80494 9.90649 9.81468 9.90649C9.82441 9.90649 9.8346 9.90649 9.84437 9.90649C9.85414 9.90649 9.8643 9.90649 9.87407 9.90649Z" stroke="rgba(204, 78, 29, 1)" stroke-width="1"      fill="#CC4E1D" ></path><path d="M9.27734 11.5348C9.27734 11.5252 9.27734 11.5171 9.27734 11.5075C9.27734 11.4979 9.27734 11.4863 9.27734 11.4768C9.27734 11.4672 9.28417 11.4555 9.28417 11.446C9.28417 11.4365 9.28758 11.4282 9.28758 11.4187C9.28758 11.4093 9.29441 11.4042 9.29441 11.3948C9.29441 11.3855 9.30124 11.3733 9.30124 11.3641C9.30124 11.3549 9.31148 11.3459 9.31148 11.3368C9.31148 11.3277 9.32513 11.3218 9.32513 11.3129C9.32513 11.304 9.33537 11.2909 9.33537 11.2822C9.33537 11.2735 9.34903 11.2668 9.34903 11.2583C9.34903 11.2498 9.35927 11.2427 9.35927 11.2344C9.35927 11.2261 9.37975 11.2151 9.37975 11.2071C9.37975 11.1991 9.39682 11.1909 9.39682 11.1832C9.39682 11.1755 9.40769 11.1736 9.41389 11.1661C9.42009 11.1587 9.42439 11.1494 9.43095 11.1422C9.43753 11.1351 9.44111 11.1251 9.44802 11.1183C9.45493 11.1115 9.46467 11.1077 9.47192 11.1013C9.47916 11.0948 9.48825 11.0903 9.49581 11.0842C9.50337 11.0781 9.51186 11.0637 9.51971 11.0637C9.52757 11.0637 9.53547 11.0467 9.5436 11.0467C9.55173 11.0467 9.55911 11.0296 9.5675 11.0296C9.57588 11.0296 9.58277 11.0193 9.59139 11.0193C9.60001 11.0193 9.61328 11.0057 9.62211 11.0057C9.63096 11.0057 9.63698 10.9954 9.64601 10.9954C9.65504 10.9954 9.66753 10.9818 9.67673 10.9818C9.68594 10.9818 9.69127 10.9716 9.70062 10.9716C9.70998 10.9716 9.71845 10.9647 9.72793 10.9647C9.73742 10.9647 9.74906 10.9579 9.75866 10.9579C9.76824 10.9579 9.7797 10.9545 9.78938 10.9545C9.79904 10.9545 9.80695 10.9477 9.81669 10.9477C9.82642 10.9477 9.83764 10.9477 9.84741 10.9477C9.85717 10.9477 9.86835 10.9477 9.87813 10.9477L17.0807 10.9476C17.0905 10.9476 17.1017 10.9476 17.1115 10.9476C17.1212 10.9476 17.1324 10.9476 17.1422 10.9476C17.1519 10.9476 17.1598 10.9545 17.1695 10.9545C17.1792 10.9545 17.1906 10.9579 17.2002 10.9579C17.2098 10.9579 17.2146 10.9647 17.2241 10.9647C17.2336 10.9647 17.2455 10.9715 17.2548 10.9715C17.2642 10.9715 17.2729 10.9818 17.2821 10.9818C17.2913 10.9818 17.3038 10.9954 17.3129 10.9954C17.3219 10.9954 17.3279 11.0057 17.3368 11.0057C17.3456 11.0057 17.352 11.0193 17.3606 11.0193C17.3693 11.0193 17.383 11.0296 17.3914 11.0296C17.3998 11.0296 17.4071 11.0466 17.4153 11.0466C17.4234 11.0466 17.4313 11.0637 17.4392 11.0637C17.447 11.0637 17.4555 11.0781 17.4631 11.0842C17.4706 11.0903 17.4763 11.0948 17.4835 11.1012C17.4908 11.1077 17.4971 11.1115 17.504 11.1183C17.5109 11.1251 17.5213 11.1351 17.5279 11.1422C17.5345 11.1493 17.5388 11.1587 17.545 11.1661C17.5512 11.1735 17.562 11.1754 17.562 11.1831C17.562 11.1909 17.5791 11.1991 17.5791 11.2071C17.5791 11.2151 17.5928 11.2261 17.5928 11.2344C17.5928 11.2426 17.6098 11.2498 17.6098 11.2583C17.6098 11.2668 17.6235 11.2735 17.6235 11.2822C17.6235 11.2908 17.6337 11.304 17.6337 11.3129C17.6337 11.3218 17.644 11.3277 17.644 11.3368C17.644 11.3458 17.6508 11.3549 17.6508 11.3641C17.6508 11.3733 17.6645 11.3855 17.6645 11.3948C17.6645 11.4041 17.6679 11.4093 17.6679 11.4187C17.6679 11.4281 17.6747 11.4365 17.6747 11.446C17.6747 11.4555 17.6747 11.4672 17.6747 11.4767C17.6747 11.4863 17.6815 11.4978 17.6815 11.5075C17.6815 11.5171 17.6815 11.5251 17.6815 11.5348C17.6815 11.5444 17.6815 11.5559 17.6815 11.5655C17.6815 11.5751 17.6747 11.5832 17.6747 11.5928C17.6747 11.6024 17.6747 11.614 17.6747 11.6235C17.6747 11.633 17.6679 11.6448 17.6679 11.6542C17.6679 11.6637 17.6645 11.6688 17.6645 11.6781C17.6645 11.6875 17.6508 11.6962 17.6508 11.7054C17.6508 11.7146 17.644 11.7271 17.644 11.7361C17.644 11.7452 17.6337 11.7512 17.6337 11.7601C17.6337 11.7689 17.6235 11.7786 17.6235 11.7874C17.6235 11.796 17.6098 11.8028 17.6098 11.8113C17.6098 11.8198 17.5928 11.8269 17.5928 11.8351C17.5928 11.8434 17.5791 11.8579 17.5791 11.8659C17.5791 11.8739 17.562 11.882 17.562 11.8898C17.562 11.8975 17.5512 11.8994 17.545 11.9068C17.5388 11.9143 17.5345 11.9236 17.5279 11.9307C17.5213 11.9379 17.5109 11.9478 17.504 11.9546C17.4971 11.9614 17.4908 11.9652 17.4835 11.9717C17.4763 11.9782 17.4706 11.9826 17.4631 11.9887C17.4555 11.9948 17.447 12.0058 17.4392 12.0058C17.4313 12.0058 17.4234 12.0229 17.4153 12.0229C17.4071 12.0229 17.3998 12.04 17.3914 12.04C17.383 12.04 17.3693 12.0536 17.3606 12.0536C17.352 12.0536 17.3456 12.0639 17.3368 12.0639C17.3279 12.0639 17.3219 12.0775 17.3129 12.0775C17.3038 12.0775 17.2913 12.0877 17.2821 12.0877C17.2729 12.0877 17.2642 12.1014 17.2548 12.1014C17.2455 12.1014 17.2336 12.1048 17.2241 12.1048C17.2146 12.1048 17.2098 12.1117 17.2002 12.1117C17.1906 12.1117 17.1792 12.1185 17.1695 12.1185C17.1598 12.1185 17.1519 12.1219 17.1422 12.1219C17.1324 12.1219 17.1212 12.1219 17.1115 12.1219C17.1017 12.1219 17.0905 12.1219 17.0807 12.1219L9.87813 12.1219C9.86835 12.1219 9.85717 12.1219 9.84741 12.1219C9.83764 12.1219 9.82642 12.1219 9.81669 12.1219C9.80695 12.1219 9.79904 12.1185 9.78938 12.1185C9.7797 12.1185 9.76824 12.1117 9.75866 12.1117C9.74906 12.1117 9.73742 12.1048 9.72793 12.1048C9.71845 12.1048 9.70998 12.1014 9.70062 12.1014C9.69127 12.1014 9.68594 12.0878 9.67673 12.0878C9.66753 12.0878 9.65504 12.0775 9.64601 12.0775C9.63697 12.0775 9.63095 12.0639 9.62211 12.0639C9.61328 12.0639 9.60001 12.0536 9.59139 12.0536C9.58277 12.0536 9.57588 12.04 9.5675 12.04C9.55911 12.04 9.55173 12.0229 9.5436 12.0229C9.53547 12.0229 9.52757 12.0059 9.51971 12.0059C9.51186 12.0059 9.50337 11.9949 9.49581 11.9888C9.48825 11.9827 9.47916 11.9782 9.47192 11.9717C9.46467 11.9653 9.45493 11.9615 9.44802 11.9547C9.44111 11.9479 9.43753 11.9379 9.43095 11.9308C9.42439 11.9236 9.42009 11.9143 9.41389 11.9069C9.40769 11.8994 9.39682 11.8975 9.39682 11.8898C9.39682 11.8821 9.37975 11.8739 9.37975 11.8659C9.37975 11.8579 9.35927 11.8434 9.35927 11.8352C9.35927 11.8269 9.34903 11.8198 9.34903 11.8113C9.34903 11.8028 9.33537 11.7961 9.33537 11.7874C9.33537 11.7787 9.32513 11.769 9.32513 11.7601C9.32513 11.7512 9.31148 11.7452 9.31148 11.7362C9.31148 11.7271 9.30124 11.7147 9.30124 11.7055C9.30124 11.6963 9.29441 11.6875 9.29441 11.6782C9.29441 11.6688 9.28758 11.6637 9.28758 11.6543C9.28758 11.6448 9.28417 11.6331 9.28417 11.6235C9.28417 11.614 9.27734 11.6024 9.27734 11.5928C9.27734 11.5832 9.27734 11.5751 9.27734 11.5655C9.27734 11.5559 9.27734 11.5444 9.27734 11.5348Z" stroke="rgba(204, 78, 29, 1)" stroke-width="1"      fill="#CC4E1D" ></path><path d="M16.3334 21.0909L8.0568 21.0909C7.75155 21.0909 7.47335 20.9093 7.3497 20.6272C7.22605 20.3452 7.28015 20.0167 7.4888 19.7926L11.6271 15.3259C11.9207 15.009 12.4694 15.009 12.7631 15.3259L16.9014 19.7926C17.11 20.0167 17.1641 20.3452 17.0405 20.6272C16.9169 20.9054 16.6386 21.0909 16.3334 21.0909ZM9.82649 19.5453L14.5637 19.5453L12.1951 16.9874L9.82649 19.5453Z"   fill="#034FA1" ></path></svg>