<svg xmlns="http://www.w3.org/2000/svg" xmlns:xlink="http://www.w3.org/1999/xlink" width="24" height="24" viewBox="0 0 24 24" fill="none"><path   fill="rgba(204, 78, 29, 1)"  d="M14.252 9.98783L15.3933 10.8895L14.4089 12.1356L13.2676 11.2339L14.252 9.98783ZM13.2676 11.2339C12.9209 10.9599 12.8602 10.459 13.132 10.1149C13.4039 9.77082 13.9053 9.71393 14.252 9.98783C14.5987 10.2617 14.6593 10.7627 14.3875 11.1068C14.1157 11.4509 13.6142 11.5078 13.2676 11.2339ZM14.4089 12.1356C14.0622 11.8617 14.0015 11.3607 14.2734 11.0166C14.5452 10.6725 15.0466 10.6156 15.3933 10.8895C15.74 11.1634 15.8007 11.6644 15.5288 12.0085C15.257 12.3526 14.7556 12.4095 14.4089 12.1356Z"></path><path d="M7.81006 8.54778L7.81431 8.38192L7.82707 8.21607L7.84833 8.05022L7.87385 7.88436L7.91212 7.72276L7.95465 7.56116L8.00993 7.40381L8.06947 7.24646C8.09077 7.19504 8.11372 7.14369 8.13751 7.09337C8.16131 7.04304 8.18355 6.9936 8.20981 6.94452C8.23604 6.89543 8.26626 6.84766 8.29486 6.79993C8.32349 6.75219 8.35326 6.70588 8.38417 6.6596C8.4151 6.61332 8.44458 6.56821 8.47773 6.52351C8.51089 6.47881 8.54449 6.4347 8.57979 6.39168C8.61509 6.34865 8.65299 6.30533 8.69036 6.2641C8.72773 6.22284 8.76583 6.18437 8.80518 6.14502C8.84455 6.10567 8.88727 6.06758 8.92851 6.0302C8.96974 5.99283 9.00881 5.95494 9.05184 5.91963C9.09486 5.88433 9.13897 5.85073 9.18367 5.81757C9.22837 5.78441 9.27347 5.75069 9.31975 5.71976C9.36603 5.68883 9.41234 5.65906 9.46009 5.63045C9.50784 5.60185 9.55984 5.57589 9.60893 5.54965C9.65803 5.5234 9.70747 5.49687 9.75778 5.4731C9.8081 5.44929 9.85945 5.42636 9.91087 5.40506C9.96229 5.38376 10.0116 5.36427 10.064 5.34552C10.1164 5.32676 10.1681 5.31063 10.2213 5.29449C10.2746 5.27833 10.3289 5.26548 10.3829 5.25197C10.4369 5.23843 10.4942 5.22455 10.5488 5.21369C10.6034 5.20283 10.6553 5.19209 10.7104 5.18392C10.7654 5.17574 10.8209 5.1681 10.8762 5.16266C10.9316 5.1572 10.9865 5.15415 11.0421 5.15415C11.0977 5.15415 11.1565 5.1499 11.2122 5.1499C11.2678 5.1499 11.3225 5.15415 11.378 5.15415C11.4336 5.15415 11.4885 5.1572 11.5439 5.16266C11.5993 5.1681 11.6547 5.17574 11.7097 5.18392C11.7648 5.19209 11.821 5.20283 11.8756 5.21369C11.9302 5.22455 11.9832 5.23843 12.0372 5.25197C12.0912 5.26548 12.1455 5.27833 12.1988 5.29449C12.2521 5.31063 12.3038 5.32676 12.3562 5.34552C12.4085 5.36427 12.4621 5.38376 12.5135 5.40506C12.5649 5.42636 12.6163 5.44929 12.6666 5.4731C12.7169 5.49687 12.7663 5.5234 12.8154 5.54965C12.8645 5.57589 12.9123 5.60185 12.96 5.63045C13.0078 5.65906 13.0541 5.68883 13.1004 5.71976C13.1466 5.75069 13.1918 5.78441 13.2365 5.81757C13.2812 5.85073 13.3253 5.88433 13.3683 5.91963C13.4113 5.95494 13.4546 5.99281 13.4959 6.0302C13.5371 6.06758 13.5756 6.10567 13.6149 6.14502C13.6543 6.18437 13.6924 6.22284 13.7298 6.2641C13.7671 6.30533 13.805 6.34865 13.8403 6.39168C13.8757 6.4347 13.9093 6.47881 13.9424 6.52351C13.9756 6.56821 14.0093 6.61332 14.0402 6.6596C14.0711 6.70588 14.1009 6.75219 14.1295 6.79993C14.1581 6.84766 14.1841 6.89543 14.2103 6.94452C14.2365 6.9936 14.2631 7.04304 14.2869 7.09337C14.3106 7.14369 14.3294 7.19504 14.3506 7.24646C14.372 7.29788 14.3957 7.35139 14.4144 7.40381C14.4332 7.45621 14.4493 7.5079 14.4655 7.56116C14.4816 7.61442 14.4945 7.66876 14.508 7.72276C14.5215 7.77674 14.5354 7.82976 14.5463 7.88436C14.5571 7.93895 14.5679 7.99514 14.576 8.05022C14.5842 8.10526 14.5876 8.16067 14.5931 8.21607C14.5985 8.27147 14.6058 8.32634 14.6058 8.38192C14.6058 8.43751 14.6101 8.4921 14.6101 8.54778C14.6101 8.60343 14.6058 8.6623 14.6058 8.71788C14.6058 8.77347 14.5985 8.82834 14.5931 8.88374C14.5876 8.93913 14.5842 8.99452 14.576 9.04959C14.5679 9.10464 14.5571 9.15658 14.5463 9.21119C14.5354 9.26575 14.5215 9.32304 14.508 9.37704C14.4945 9.43102 14.4816 9.48114 14.4655 9.53439C14.4493 9.58765 14.4332 9.64357 14.4144 9.69599C14.3957 9.74839 14.372 9.79767 14.3506 9.84909C14.3294 9.90051 14.3106 9.95186 14.2869 10.0022C14.2631 10.0525 14.2365 10.1019 14.2103 10.151C14.1841 10.2001 14.1581 10.2479 14.1295 10.2956C14.1009 10.3433 14.0711 10.3939 14.0402 10.4402C14.0093 10.4865 13.9756 10.5316 13.9424 10.5763C13.9093 10.621 13.8757 10.6651 13.8403 10.7081C13.805 10.7512 13.7671 10.7902 13.7298 10.8315C13.6924 10.8727 13.6543 10.9154 13.6149 10.9548C13.5756 10.9941 13.5371 11.0322 13.4959 11.0696C13.4546 11.107 13.4113 11.1406 13.3683 11.1759C13.3253 11.2112 13.2812 11.2491 13.2365 11.2822C13.1918 11.3154 13.1466 11.3449 13.1004 11.3758C13.0541 11.4067 13.0078 11.4365 12.96 11.4651C12.9123 11.4937 12.8645 11.5239 12.8154 11.5502C12.7663 11.5764 12.7169 11.5986 12.6666 11.6224C12.6163 11.6462 12.5649 11.6692 12.5135 11.6905C12.4621 11.7118 12.4085 11.7313 12.3562 11.75C12.3038 11.7688 12.2521 11.7892 12.1988 11.8053C12.1455 11.8215 12.0912 11.8343 12.0372 11.8478C11.9832 11.8614 11.9302 11.8753 11.8756 11.8861C11.821 11.897 11.7648 11.9034 11.7097 11.9116C11.6547 11.9198 11.5993 11.9274 11.5439 11.9329C11.4885 11.9383 11.4336 11.9457 11.378 11.9457C11.3225 11.9457 11.2678 11.9499 11.2122 11.9499C11.1566 11.9499 11.0976 11.9457 11.0421 11.9457C10.9865 11.9457 10.9316 11.9384 10.8762 11.9329C10.8209 11.9274 10.7654 11.9198 10.7104 11.9116C10.6554 11.9034 10.6033 11.897 10.5488 11.8861C10.4942 11.8752 10.4368 11.8614 10.3829 11.8478C10.329 11.8343 10.2788 11.8215 10.2256 11.8053C10.1724 11.7892 10.1163 11.7688 10.064 11.75C10.0116 11.7313 9.96225 11.7117 9.91087 11.6905C9.8595 11.6692 9.80803 11.6462 9.75778 11.6224C9.70752 11.5987 9.65798 11.5763 9.60893 11.5502C9.55991 11.5239 9.51204 11.4937 9.46434 11.4651C9.41664 11.4365 9.37024 11.4067 9.32401 11.3758C9.27777 11.3449 9.2326 11.3154 9.18792 11.2822C9.14324 11.2491 9.09909 11.2154 9.05609 11.1802C9.01311 11.1449 8.96972 11.1069 8.92851 11.0696C8.8873 11.0323 8.84876 10.9941 8.80943 10.9548C8.77011 10.9155 8.73199 10.8769 8.69461 10.8357C8.65726 10.7945 8.61932 10.7511 8.58404 10.7081C8.54876 10.6651 8.51512 10.6209 8.48198 10.5763C8.44884 10.5316 8.41508 10.4864 8.38417 10.4402C8.35326 10.394 8.32347 10.3475 8.29486 10.2999C8.26626 10.2522 8.24032 10.2043 8.21406 10.1553C8.18783 10.1063 8.16131 10.0567 8.13751 10.0064C8.1137 9.95618 8.09077 9.90469 8.06947 9.85334C8.04814 9.80197 8.0287 9.74832 8.00993 9.69599C7.99117 9.64364 7.97507 9.59184 7.9589 9.53865C7.94272 9.48544 7.92568 9.43098 7.91212 9.37704C7.89856 9.32311 7.88899 9.26996 7.8781 9.21544C7.86719 9.16091 7.85654 9.10457 7.84833 9.04959C7.84012 8.99459 7.83256 8.93906 7.82707 8.88374C7.82156 8.82839 7.81431 8.77342 7.81431 8.71788C7.81431 8.66235 7.81006 8.60761 7.81006 8.55203L7.81006 8.54778ZM9.51112 8.54778C9.51112 8.57559 9.51112 8.60504 9.51112 8.63283C9.51112 8.66062 9.51963 8.68593 9.51963 8.71363C9.51963 8.74133 9.52813 8.77115 9.52813 8.79868C9.52813 8.82622 9.53547 8.85218 9.54089 8.87948C9.54633 8.90679 9.55539 8.93328 9.56215 8.96029C9.56892 8.98726 9.57535 9.01446 9.58342 9.04109C9.59149 9.06771 9.59956 9.09568 9.60893 9.12189C9.61831 9.14807 9.62805 9.17271 9.6387 9.19843C9.64935 9.22416 9.66082 9.24982 9.67272 9.27498C9.68461 9.30015 9.69788 9.32697 9.711 9.35153C9.72411 9.37607 9.73922 9.39996 9.75352 9.42382C9.76783 9.44769 9.78058 9.46873 9.79605 9.49187C9.81152 9.51501 9.82625 9.53756 9.84283 9.55991C9.85941 9.58226 9.88046 9.60642 9.89811 9.62795C9.91577 9.64944 9.93047 9.67111 9.94915 9.69174C9.96784 9.71235 9.98901 9.7316 10.0087 9.75128C10.0284 9.77095 10.0476 9.79212 10.0682 9.81082C10.0888 9.82949 10.1105 9.84417 10.132 9.86185C10.1535 9.8795 10.1735 9.8963 10.1958 9.91288C10.2182 9.92944 10.2407 9.94845 10.2638 9.96391C10.287 9.97935 10.3123 9.99211 10.3361 10.0064C10.36 10.0207 10.3839 10.0358 10.4084 10.049C10.433 10.0621 10.4598 10.0753 10.485 10.0872C10.5101 10.0991 10.5358 10.1106 10.5615 10.1213C10.5872 10.1319 10.6119 10.1416 10.6381 10.151C10.6643 10.1604 10.6922 10.1685 10.7189 10.1765C10.7455 10.1846 10.7684 10.191 10.7954 10.1978C10.8224 10.2046 10.8532 10.2094 10.8805 10.2148C10.9078 10.2202 10.9338 10.2318 10.9613 10.2318C10.9888 10.2318 11.0144 10.2403 11.0421 10.2403C11.0698 10.2403 11.0993 10.2488 11.1271 10.2488C11.1549 10.2488 11.1843 10.2488 11.2122 10.2488C11.24 10.2488 11.2652 10.2488 11.293 10.2488C11.3208 10.2488 11.3503 10.2403 11.378 10.2403C11.4057 10.2403 11.4313 10.2318 11.4588 10.2318C11.4864 10.2318 11.5166 10.2202 11.5439 10.2148C11.5712 10.2094 11.5977 10.2046 11.6247 10.1978C11.6517 10.191 11.6789 10.1846 11.7055 10.1765C11.7321 10.1685 11.7558 10.1604 11.782 10.151C11.8083 10.1416 11.8371 10.1319 11.8628 10.1213C11.8886 10.1106 11.9142 10.0991 11.9394 10.0872C11.9646 10.0753 11.9872 10.0621 12.0117 10.049C12.0362 10.0358 12.0601 10.0207 12.084 10.0064C12.1079 9.99214 12.1331 9.97938 12.1563 9.96391C12.1794 9.94845 12.202 9.92944 12.2243 9.91288C12.2467 9.8963 12.2666 9.8795 12.2881 9.86185C12.3096 9.84417 12.3313 9.82949 12.3519 9.81082C12.3725 9.79212 12.3918 9.77095 12.4114 9.75128C12.4311 9.7316 12.4523 9.71235 12.471 9.69174C12.4896 9.67111 12.5086 9.64944 12.5263 9.62795C12.5439 9.60642 12.5607 9.58226 12.5773 9.55991C12.5939 9.53756 12.6086 9.51501 12.6241 9.49187C12.6395 9.46873 12.6565 9.44769 12.6708 9.42382C12.6852 9.39996 12.696 9.37607 12.7091 9.35153C12.7222 9.32697 12.7355 9.30015 12.7474 9.27498C12.7593 9.24982 12.7708 9.22416 12.7814 9.19843C12.7921 9.17271 12.8018 9.14807 12.8112 9.12189C12.8206 9.09568 12.8286 9.06771 12.8367 9.04109C12.8448 9.01446 12.8512 8.98726 12.858 8.96029C12.8647 8.93328 12.8738 8.90679 12.8792 8.87948C12.8846 8.85218 12.892 8.82622 12.892 8.79868C12.892 8.77115 12.9047 8.74133 12.9047 8.71363C12.9047 8.68593 12.909 8.66062 12.909 8.63283C12.909 8.60504 12.909 8.57559 12.909 8.54778C12.909 8.51994 12.909 8.49477 12.909 8.46698C12.909 8.43916 12.9047 8.4096 12.9047 8.38192C12.9047 8.35422 12.892 8.32866 12.892 8.30112C12.892 8.27359 12.8846 8.24337 12.8792 8.21607C12.8738 8.18877 12.8647 8.16225 12.858 8.13527C12.8512 8.10827 12.8448 8.0811 12.8367 8.05447C12.8286 8.02782 12.8206 8.00411 12.8112 7.97792C12.8018 7.95171 12.7921 7.92282 12.7814 7.89712C12.7708 7.8714 12.7593 7.84574 12.7474 7.82057C12.7355 7.79541 12.7222 7.77279 12.7091 7.74828C12.696 7.72372 12.6852 7.69984 12.6708 7.67598C12.6565 7.6521 12.6395 7.6268 12.6241 7.60369C12.6086 7.58055 12.5939 7.55799 12.5773 7.53564C12.5607 7.51327 12.5439 7.49334 12.5263 7.47185C12.5086 7.45032 12.4896 7.42867 12.471 7.40806C12.4523 7.38744 12.4311 7.3682 12.4114 7.34853C12.3918 7.32885 12.3725 7.30769 12.3519 7.28899C12.3313 7.27029 12.3096 7.25136 12.2881 7.23371C12.2666 7.21605 12.2467 7.19925 12.2243 7.18267C12.202 7.16609 12.1794 7.15134 12.1563 7.13589C12.1331 7.12043 12.1079 7.10342 12.084 7.08911C12.0601 7.07479 12.0362 7.06396 12.0117 7.05084C11.9872 7.03772 11.9646 7.02445 11.9394 7.01257C11.9142 7.00066 11.8886 6.9892 11.8628 6.97855C11.8371 6.96789 11.8083 6.95813 11.782 6.94878C11.7558 6.93938 11.7321 6.93133 11.7055 6.92326C11.6789 6.91517 11.6517 6.90449 11.6247 6.89775C11.5977 6.89098 11.5712 6.88618 11.5439 6.88073C11.5166 6.87529 11.4864 6.86798 11.4588 6.86798C11.4313 6.86798 11.4057 6.85522 11.378 6.85522C11.3503 6.85522 11.3208 6.85097 11.293 6.85097C11.2652 6.85097 11.24 6.84671 11.2122 6.84671C11.1843 6.84671 11.1549 6.85097 11.1271 6.85097C11.0993 6.85097 11.0698 6.85522 11.0421 6.85522C11.0144 6.85522 10.9888 6.86798 10.9613 6.86798C10.9337 6.86798 10.9078 6.87525 10.8805 6.88073C10.8532 6.88618 10.8224 6.89521 10.7954 6.902C10.7684 6.90879 10.7413 6.91514 10.7146 6.92326C10.688 6.93138 10.6643 6.93936 10.6381 6.94878C10.6119 6.95817 10.5872 6.96785 10.5615 6.97855C10.5358 6.98924 10.5101 7.00061 10.485 7.01257C10.4598 7.0245 10.433 7.03768 10.4084 7.05084C10.3839 7.064 10.36 7.07902 10.3361 7.09337C10.3123 7.10772 10.287 7.12038 10.2638 7.13589C10.2407 7.15138 10.2182 7.16604 10.1958 7.18267C10.1735 7.19928 10.1535 7.22026 10.132 7.23796C10.1105 7.25563 10.0888 7.27024 10.0682 7.28899C10.0476 7.30771 10.0283 7.3288 10.0087 7.34853C9.98901 7.36825 9.96782 7.38741 9.94915 7.40806C9.93047 7.42872 9.91574 7.45029 9.89811 7.47185C9.88049 7.49339 9.85939 7.5175 9.84283 7.5399C9.82627 7.56229 9.81147 7.58475 9.79605 7.60794C9.78063 7.6311 9.7678 7.65207 9.75352 7.67598C9.73924 7.69989 9.72409 7.72369 9.711 7.74828C9.6979 7.77286 9.68458 7.79961 9.67272 7.82482C9.66086 7.85001 9.64933 7.87563 9.6387 7.90137C9.6281 7.92712 9.61826 7.95169 9.60893 7.97792C9.59961 8.00415 9.59144 8.03205 9.58342 8.05872C9.57537 8.08537 9.56888 8.1125 9.56215 8.13952C9.55543 8.16655 9.55052 8.19297 9.54514 8.22032C9.53977 8.24763 9.52813 8.27356 9.52813 8.30112C9.52813 8.32866 9.51963 8.35845 9.51963 8.38618C9.51963 8.4139 9.51538 8.43916 9.51538 8.46698C9.51538 8.49479 9.51112 8.52417 9.51112 8.55203L9.51112 8.54778Z"   fill="#CC4E1D" ></path><path     fill="#034FA1"  d="M1.90479 17.4148C1.90479 15.8037 3.38424 14.3243 5.9666 13.3457C6.07516 13.5144 6.19162 13.6767 6.31569 13.8366C6.24945 13.75 6.18527 13.6643 6.12297 13.5748C6.06068 13.4853 5.99938 13.3943 5.94115 13.3021C5.88294 13.2099 5.82789 13.1168 5.77388 13.0221C5.71986 12.9274 5.66723 12.8318 5.61751 12.7348C5.56782 12.6378 5.52102 12.5394 5.47569 12.4403C5.43039 12.3411 5.38923 12.2396 5.34842 12.1385C5.30763 12.0374 5.26829 11.9358 5.23206 11.833C5.19584 11.7301 5.1618 11.6246 5.13024 11.5203C5.09868 11.4159 5.06983 11.3132 5.04297 11.2075C5.01612 11.1019 4.99233 10.9943 4.97024 10.8875C4.94817 10.7808 4.92568 10.6752 4.90842 10.5675C4.89114 10.4599 4.87719 10.3522 4.86479 10.2439C4.85238 10.1356 4.84323 10.0254 4.83569 9.91664C4.82816 9.80786 4.82115 9.69834 4.82115 9.58936C4.82115 9.48037 4.82115 9.37109 4.82115 9.26209C4.82115 9.15307 4.82492 9.0436 4.83206 8.93482C4.8392 8.82602 4.84912 8.71952 4.86115 8.61118C4.87318 8.50282 4.88792 8.39525 4.90479 8.28754C4.92167 8.17984 4.94127 8.07074 4.96297 7.96391C4.98466 7.85706 5.00923 7.7533 5.03569 7.64754C5.06216 7.54179 5.09177 7.43564 5.12297 7.33118C5.15417 7.2267 5.18529 7.12141 5.22115 7.01845C5.257 6.91548 5.29708 6.81424 5.33751 6.713C5.37796 6.61174 5.41984 6.51049 5.46479 6.41118C5.50973 6.31185 5.55725 6.21384 5.6066 6.11664C5.65596 6.01943 5.70929 5.92426 5.76297 5.82936C5.81664 5.73446 5.87235 5.64175 5.93024 5.54936C5.98813 5.45697 6.04646 5.36632 6.10842 5.27664C6.17041 5.18693 6.23523 5.098 6.30115 5.01118C6.36709 4.92436 6.43502 4.83676 6.50479 4.753C6.57457 4.66922 6.64587 4.58992 6.71933 4.50936C6.79279 4.4288 6.86779 4.35018 6.94479 4.273C7.02892 4.18886 7.11481 4.10562 7.20297 4.02573C7.29112 3.94582 7.38008 3.86848 7.47206 3.793C7.56403 3.71752 7.66012 3.64206 7.75569 3.57118C7.85125 3.50031 7.94767 3.43365 8.0466 3.36754C8.14554 3.30144 8.24636 3.23599 8.34842 3.17482C8.45048 3.11365 8.55257 3.05636 8.65751 3.00027C8.76243 2.94419 8.86995 2.89114 8.97751 2.84027C9.08508 2.7894 9.19485 2.74035 9.30478 2.69482C9.4147 2.64929 9.52367 2.60763 9.63569 2.56754C9.74771 2.52746 9.86003 2.48936 9.97388 2.45482C10.0877 2.42028 10.2039 2.38918 10.3193 2.36027C10.4347 2.33136 10.5517 2.30348 10.6684 2.28027C10.7851 2.25706 10.8998 2.23955 11.0175 2.22209C11.1352 2.20463 11.2555 2.19012 11.3739 2.17845C11.4923 2.16679 11.6114 2.1552 11.7302 2.14936C11.8491 2.14352 11.9676 2.14209 12.0866 2.14209C12.2056 2.14209 12.3241 2.14352 12.443 2.14936C12.5618 2.1552 12.6809 2.16679 12.7993 2.17845C12.9177 2.19012 13.0344 2.20463 13.1521 2.22209C13.2698 2.23955 13.3881 2.25706 13.5048 2.28027C13.6215 2.30348 13.7348 2.33136 13.8502 2.36027C13.9657 2.38918 14.0818 2.42028 14.1957 2.45482C14.3095 2.48936 14.4219 2.52746 14.5339 2.56754C14.6459 2.60763 14.7585 2.64929 14.8684 2.69482C14.9784 2.74035 15.0845 2.7894 15.1921 2.84027C15.2996 2.89114 15.4071 2.94419 15.5121 3.00027C15.617 3.05636 15.7191 3.11365 15.8211 3.17482C15.9232 3.23599 16.024 3.30144 16.123 3.36754C16.2219 3.43365 16.322 3.50031 16.4175 3.57118C16.5131 3.64206 16.6055 3.71752 16.6975 3.793C16.7895 3.86848 16.8784 3.94582 16.9666 4.02573C17.0548 4.10562 17.1406 4.18886 17.2248 4.273C17.304 4.35244 17.3821 4.43361 17.4575 4.51663C17.5329 4.59964 17.6078 4.68112 17.6793 4.76754C17.7508 4.85395 17.8192 4.94337 17.8866 5.033C17.954 5.12261 18.0197 5.21308 18.083 5.30573C18.1462 5.39836 18.2059 5.49389 18.2648 5.58936C18.3237 5.68482 18.3813 5.78219 18.4357 5.88027C18.4901 5.97835 18.5422 6.07795 18.5921 6.17845C18.6419 6.27892 18.6888 6.37758 18.7339 6.48027C18.779 6.58294 18.8208 6.68834 18.8611 6.793C18.9015 6.89764 18.9421 7.00295 18.9775 7.10936C19.013 7.21575 19.0452 7.32142 19.0757 7.42936C19.1062 7.53729 19.1339 7.6474 19.1593 7.75664C19.1848 7.86585 19.208 7.97725 19.2284 8.08754C19.2488 8.19781 19.2677 8.30733 19.283 8.41845C19.2983 8.52956 19.3092 8.6413 19.3193 8.753C19.3295 8.86468 19.3362 8.97548 19.3411 9.08754C19.3461 9.19958 19.3484 9.31357 19.3484 9.42573C19.3484 9.53789 19.3465 9.64823 19.3411 9.76027C19.3358 9.87231 19.3299 9.98316 19.3193 10.0948C19.3088 10.2065 19.295 10.3183 19.2793 10.4294C19.2636 10.5404 19.2456 10.6501 19.2248 10.7603C19.204 10.8705 19.1779 10.982 19.1521 11.0912C19.1262 11.2003 19.0993 11.307 19.0684 11.4148C19.0375 11.5226 19.0024 11.6322 18.9666 11.7385C18.9308 11.8447 18.8946 11.9503 18.8539 12.0548C18.8132 12.1593 18.7684 12.2614 18.723 12.3639C18.6775 12.4664 18.6313 12.5691 18.5812 12.6694C18.531 12.7697 18.4795 12.8697 18.4248 12.9675C18.37 13.0654 18.3131 13.1596 18.2539 13.2548C18.1947 13.3501 18.132 13.446 18.0684 13.5385C18.0049 13.6309 17.9398 13.7218 17.8721 13.8112C17.8043 13.9006 17.733 13.9868 17.6611 14.073C17.8552 13.8419 18.0357 13.5993 18.1993 13.3457C20.7802 14.3199 22.2575 15.803 22.2575 17.4185C22.2575 20.2247 17.6919 22.5057 12.0793 22.5057C6.46674 22.5057 1.90479 20.2196 1.90479 17.4148ZM3.35933 17.4148C3.35933 19.4185 7.27301 21.0512 12.083 21.0512C16.8929 21.0512 20.8066 19.4185 20.8066 17.4148C20.8066 16.2734 19.4996 15.1833 17.2866 14.4985L17.2248 14.5603L12.083 19.6985L6.94479 14.5603L6.88297 14.4985C4.67574 15.1848 3.35933 16.2719 3.35933 17.4148ZM7.97024 5.30573C7.90296 5.37302 7.83777 5.44246 7.77388 5.513C7.70998 5.58352 7.64878 5.6576 7.58842 5.73118C7.52805 5.80474 7.47055 5.87656 7.41388 5.953C7.3572 6.02944 7.29948 6.11021 7.2466 6.18936C7.19375 6.26849 7.1428 6.34773 7.09388 6.42936C7.04496 6.511 7.00054 6.59269 6.95569 6.67664C6.91085 6.76056 6.86547 6.84515 6.82479 6.93118C6.78412 7.01721 6.74847 7.10506 6.71206 7.193C6.67565 7.28092 6.63866 7.36885 6.6066 7.45845C6.57455 7.54806 6.54695 7.6401 6.51933 7.73118C6.49171 7.82224 6.46609 7.91523 6.44297 8.00754C6.41986 8.09986 6.39972 8.19056 6.38115 8.28391C6.3626 8.37723 6.3442 8.46977 6.33024 8.56391C6.31628 8.65805 6.30684 8.75285 6.29751 8.84754C6.28819 8.94224 6.28037 9.03976 6.27569 9.13482C6.27102 9.22987 6.26842 9.32328 6.26842 9.41845C6.26842 9.51361 6.27102 9.61067 6.27569 9.70573C6.28037 9.80078 6.28819 9.89466 6.29751 9.98936C6.30684 10.0841 6.31628 10.1789 6.33024 10.273C6.3442 10.3671 6.3626 10.4597 6.38115 10.553C6.39972 10.6463 6.41986 10.7407 6.44297 10.833C6.46609 10.9253 6.49171 11.0146 6.51933 11.1057C6.54695 11.1968 6.57455 11.2888 6.6066 11.3785C6.63866 11.4681 6.67565 11.556 6.71206 11.6439C6.74847 11.7318 6.78412 11.8197 6.82479 11.9057C6.86547 11.9918 6.91085 12.0763 6.95569 12.1603C7.00054 12.2442 7.04496 12.3259 7.09388 12.4075C7.1428 12.4892 7.19375 12.572 7.2466 12.6512C7.29948 12.7303 7.3572 12.8075 7.41388 12.8839C7.47055 12.9604 7.52805 13.0358 7.58842 13.1094C7.64878 13.1829 7.70998 13.2534 7.77388 13.3239C7.83777 13.3944 7.90296 13.4639 7.97024 13.5312L12.083 17.6439L16.1957 13.5312C16.263 13.4639 16.3282 13.3944 16.3921 13.3239C16.456 13.2534 16.5208 13.1829 16.5812 13.1094C16.6415 13.0358 16.699 12.9604 16.7557 12.8839C16.8124 12.8075 16.8665 12.7303 16.9193 12.6512C16.9722 12.572 17.0231 12.4928 17.0721 12.4112C17.121 12.3295 17.169 12.2442 17.2139 12.1603C17.2587 12.0763 17.3005 11.9918 17.3411 11.9057C17.3818 11.8197 17.4211 11.7318 17.4575 11.6439C17.4939 11.556 17.5273 11.4681 17.5593 11.3785C17.5914 11.2888 17.6226 11.2004 17.6502 11.1094C17.6779 11.0183 17.7035 10.9253 17.7266 10.833C17.7497 10.7407 17.7699 10.6463 17.7884 10.553C17.807 10.4597 17.8217 10.3671 17.8357 10.273C17.8497 10.1789 17.8627 10.0841 17.8721 9.98936C17.8814 9.89466 17.8892 9.80078 17.8939 9.70573C17.8986 9.61067 17.9011 9.51361 17.9011 9.41845C17.9011 9.32328 17.8986 9.22987 17.8939 9.13482C17.8892 9.03976 17.8814 8.94588 17.8721 8.85118C17.8627 8.75646 17.8497 8.66169 17.8357 8.56754C17.8217 8.4734 17.807 8.37725 17.7884 8.28391C17.7699 8.19056 17.7497 8.09986 17.7266 8.00754C17.7035 7.91523 17.6779 7.82224 17.6502 7.73118C17.6226 7.6401 17.5914 7.55168 17.5593 7.46209C17.5273 7.37248 17.4939 7.28455 17.4575 7.19664C17.4211 7.1087 17.3818 7.02085 17.3411 6.93482C17.3005 6.84879 17.2587 6.76419 17.2139 6.68027C17.169 6.59633 17.121 6.511 17.0721 6.42936C17.0231 6.34773 16.9722 6.26849 16.9193 6.18936C16.8665 6.11021 16.8124 6.03308 16.7557 5.95664C16.699 5.88017 16.6415 5.80474 16.5812 5.73118C16.5208 5.6576 16.456 5.58715 16.3921 5.51663C16.3282 5.4461 16.263 5.37666 16.1957 5.30936C16.1621 5.27567 16.1283 5.24038 16.0939 5.20754C16.0594 5.17471 16.0237 5.14498 15.9884 5.113C15.9532 5.08102 15.919 5.04592 15.883 5.01482C15.847 4.98372 15.8106 4.9541 15.7739 4.92391C15.7371 4.8937 15.6987 4.86591 15.6611 4.83664C15.6236 4.80734 15.5866 4.77772 15.5484 4.74936C15.5102 4.721 15.471 4.69313 15.4321 4.66573C15.3931 4.6383 15.3553 4.61215 15.3157 4.58573C15.2761 4.55928 15.2359 4.53118 15.1957 4.50573C15.1555 4.48027 15.1165 4.45746 15.0757 4.433C15.0349 4.40852 14.9935 4.3837 14.9521 4.36027C14.9107 4.33681 14.8668 4.31359 14.8248 4.29118C14.7828 4.26875 14.74 4.2471 14.6975 4.22573C14.655 4.20433 14.6133 4.18423 14.5702 4.16391C14.5272 4.14356 14.4829 4.12135 14.4393 4.10209C14.3958 4.08282 14.3524 4.06573 14.3084 4.04754C14.2645 4.02936 14.2219 4.0101 14.1775 3.993C14.1331 3.9759 14.0878 3.96173 14.043 3.94573C13.9981 3.92972 13.9536 3.91335 13.9084 3.89845C13.8632 3.88356 13.8158 3.86859 13.7702 3.85482C13.7247 3.84104 13.6816 3.82747 13.6357 3.81482C13.5898 3.80217 13.5437 3.78997 13.4975 3.77845C13.4513 3.76694 13.4058 3.75611 13.3593 3.74573C13.3129 3.73535 13.2642 3.72587 13.2175 3.71664C13.1708 3.7074 13.1262 3.69926 13.0793 3.69118C13.0324 3.6831 12.9846 3.67629 12.9375 3.66936C12.8904 3.66244 12.8429 3.65694 12.7957 3.65118C12.7484 3.64542 12.7012 3.6376 12.6539 3.633C12.6065 3.6284 12.5595 3.62209 12.5121 3.62209C12.4646 3.62209 12.4178 3.61482 12.3702 3.61482C12.3227 3.61482 12.2724 3.60754 12.2248 3.60754C12.1772 3.60754 12.1306 3.60754 12.083 3.60754C12.0354 3.60754 11.9887 3.60754 11.9411 3.60754C11.8936 3.60754 11.8469 3.61482 11.7993 3.61482C11.7518 3.61482 11.7013 3.62209 11.6539 3.62209C11.6064 3.62209 11.5594 3.62842 11.5121 3.633C11.4647 3.63758 11.4175 3.64543 11.3702 3.65118C11.323 3.65693 11.2755 3.66245 11.2284 3.66936C11.1814 3.67627 11.1371 3.68311 11.0902 3.69118C11.0434 3.69925 10.9951 3.70742 10.9484 3.71664C10.9017 3.72585 10.8567 3.73536 10.8102 3.74573C10.7638 3.75609 10.7146 3.76695 10.6684 3.77845C10.6223 3.78996 10.5761 3.80218 10.5302 3.81482C10.4844 3.82745 10.4412 3.84106 10.3957 3.85482C10.3502 3.86858 10.3027 3.88357 10.2575 3.89845C10.2123 3.91333 10.1678 3.92974 10.123 3.94573C10.0782 3.96171 10.0328 3.97591 9.98842 3.993C9.94402 4.01009 9.90148 4.02937 9.85751 4.04754C9.81354 4.06572 9.77009 4.08284 9.7266 4.10209C9.68309 4.12134 9.63871 4.13995 9.59569 4.16027C9.55268 4.18058 9.51092 4.20435 9.46842 4.22573C9.42592 4.24708 9.38311 4.26877 9.34115 4.29118C9.29917 4.31357 9.2589 4.33683 9.21751 4.36027C9.17611 4.3837 9.13468 4.4049 9.09388 4.42936C9.05307 4.4538 9.01043 4.48027 8.97024 4.50573C8.93005 4.53116 8.88979 4.55566 8.85024 4.58209C8.81069 4.6085 8.77275 4.63832 8.73388 4.66573C8.69498 4.69313 8.65571 4.72102 8.61751 4.74936C8.57931 4.7777 8.54229 4.80373 8.50479 4.833C8.4673 4.86227 8.42883 4.89372 8.39206 4.92391C8.35529 4.9541 8.31898 4.98372 8.28297 5.01482C8.24695 5.04588 8.21273 5.07738 8.17751 5.10936C8.14227 5.14132 8.1065 5.17471 8.07206 5.20754C8.03763 5.24036 8.00387 5.27206 7.97024 5.30573Z"></path></svg>