<svg xmlns="http://www.w3.org/2000/svg" xmlns:xlink="http://www.w3.org/1999/xlink" width="24" height="24" viewBox="0 0 24 24" fill="none"><path d="M16.9921 7.09961C16.9228 6.85011 16.6893 6.84138 16.4603 6.9039C16.6573 6.05097 17.0005 3.85318 16.1582 3.3472C16.0892 3.30548 16.0225 3.25991 15.9583 3.21106C15.006 1.31168 13.4796 0.820068 11.874 0.820068C10.2685 0.820068 9.09655 1.56778 8.46198 2.71329C7.82696 2.95675 7.47392 3.2585 7.23245 4.37677C7.06503 5.15135 7.22485 6.1061 7.40263 6.87838C7.22276 6.85567 7.0625 6.89929 7.00696 7.09961C6.91854 7.41659 6.93672 7.70807 7.03249 7.98027C7.1212 8.23184 7.48704 8.45853 7.67916 8.67374C7.76837 8.77333 7.96492 8.81701 8.08759 8.79712C8.30946 9.38296 8.58184 9.53219 8.9172 10.0607C9.68637 11.2732 10.734 12.1539 11.9974 12.1539C13.2607 12.1539 14.3126 11.273 15.0819 10.0607C15.4167 9.53283 15.6897 9.38195 15.9115 8.79712C16.0342 8.8171 16.2308 8.77326 16.3199 8.67374C16.512 8.4586 16.8736 8.23184 16.9623 7.98027C17.0581 7.70814 17.0807 7.41649 16.9921 7.09961ZM10.5296 4.47037C11.9976 5.03404 13.7644 4.82287 14.8819 3.82795C16.1217 5.44904 15.433 8.09828 14.4267 9.67354C13.7841 10.6792 12.9464 11.4093 11.9974 11.4093C11.0483 11.4093 10.2148 10.6793 9.57238 9.67354C8.84475 8.53454 8.35562 7.04739 8.35562 5.69139C8.35562 5.57797 8.35927 5.46633 8.36838 5.35529C8.50133 4.88621 8.71325 4.39073 9.12567 3.98111C9.31634 4.30703 9.63529 4.59859 10.0446 4.83625C10.6617 5.19441 11.4952 5.43669 12.4016 5.47441C12.7224 5.48757 13.0302 5.47511 13.3163 5.44038C13.6167 5.40384 13.8993 5.34041 14.1587 5.25744C14.3037 5.21099 14.3839 5.0578 14.3373 4.91283C14.2908 4.7679 14.1376 4.68762 13.9927 4.73414C13.7695 4.8057 13.5204 4.85885 13.2525 4.89156C12.9891 4.92356 12.7091 4.93731 12.4229 4.92559C11.7081 4.89597 11.0491 4.72492 10.5296 4.47037ZM20.57 14.6044C19.9299 13.3087 16.1927 12.8936 14.7798 12.3453C14.5235 13.2838 13.8305 15.4208 12.9335 16.8295L12.5207 14.3917L12.759 13.8131L11.9933 13.1707L11.2317 13.8131L11.4698 14.3917L11.0572 16.8295C10.148 15.4307 9.5169 13.3818 9.22787 12.3453C7.78898 12.9035 4.06056 13.3436 3.43745 14.6044C2.52841 16.436 2.2077 21.1 1.9995 22.9431L21.9995 22.9431C21.7912 21.1011 21.4793 16.4363 20.57 14.6044ZM17.9621 14.5449C18.34 14.7151 19.4717 14.8988 19.5702 15.0979C20.2978 16.5641 20.6214 20.1375 20.7742 21.8285L3.22473 21.8285C3.37805 20.1369 3.70929 16.5647 4.43728 15.0979C4.53147 14.9074 5.4922 14.7277 6.00468 14.5593C6.12474 14.4551 6.56426 14.3276 6.8454 14.2544L6.84535 14.2513C7.26599 14.1106 7.72559 13.9761 8.15575 13.8514C8.26874 13.8188 8.37802 13.7856 8.4875 13.7536C8.59742 14.0955 8.72415 14.465 8.86621 14.8427C9.635 16.885 10.3663 17.7435 11.6017 19.2247C11.7038 19.347 11.8382 19.4119 11.9974 19.4119C12.1566 19.4119 12.2955 19.3472 12.3973 19.2247C13.488 17.9127 14.2171 17.0614 14.9414 15.3021C15.1636 14.7627 15.354 14.2277 15.5115 13.7536C15.6205 13.7849 15.7311 13.8154 15.8434 13.8471C16.3186 13.9823 16.832 14.124 17.2899 14.2811C17.2895 14.2881 17.2891 14.2952 17.2887 14.3022C17.4931 14.3879 17.7562 14.4975 17.9582 14.5817C17.9595 14.5694 17.9609 14.5571 17.9621 14.5449Z" stroke="rgba(3, 79, 161, 1)" stroke-width="0.2"    fill-rule="evenodd"  fill="#034FA1" ></path><path d="M17.1 16.136C17.3649 16.136 17.5851 16.3402 17.6066 16.6043L17.6066 17.5439L18.5491 17.5439C18.557 17.5439 18.5727 17.5468 18.5727 17.5468C18.5805 17.5468 18.5885 17.5498 18.5963 17.5498C18.604 17.5498 18.6169 17.5527 18.6169 17.5527C18.6246 17.5527 18.6434 17.5615 18.6434 17.5615C18.651 17.5615 18.6565 17.5674 18.664 17.5674C18.6715 17.5674 18.6905 17.5733 18.6905 17.5733C18.6979 17.5733 18.7039 17.5822 18.7111 17.5822C18.7184 17.5822 18.7247 17.591 18.7318 17.591C18.7388 17.591 18.7454 17.599 18.7524 17.6028C18.7593 17.6066 18.7662 17.6105 18.773 17.6146C18.7797 17.6186 18.7871 17.6249 18.7936 17.6293C18.8002 17.6337 18.8049 17.6364 18.8113 17.6411C18.8176 17.6458 18.8258 17.6508 18.8319 17.6558C18.838 17.6608 18.8437 17.6653 18.8496 17.6705C18.8554 17.6758 18.8616 17.6827 18.8672 17.6882C18.8729 17.6937 18.8766 17.6971 18.882 17.7029C18.8873 17.7087 18.8946 17.7145 18.8996 17.7206C18.9047 17.7266 18.9096 17.7349 18.9144 17.7412C18.9192 17.7475 18.9246 17.7524 18.9291 17.7589C18.9336 17.7654 18.9338 17.7758 18.9379 17.7824C18.9421 17.7891 18.9488 17.7932 18.9527 17.8001C18.9565 17.807 18.9644 17.8137 18.9644 17.8207C18.9644 17.8278 18.9733 17.8342 18.9733 17.8414C18.9733 17.8486 18.9821 17.8546 18.9821 17.862C18.9821 17.8693 18.988 17.8781 18.988 17.8855C18.988 17.893 18.9968 17.9015 18.9968 17.9091C18.9968 17.9167 19.0027 17.922 19.0027 17.9297C19.0027 17.9374 19.0057 17.9485 19.0057 17.9562C19.0057 17.964 19.0145 17.969 19.0145 17.9768C19.0145 17.9846 19.0145 17.9955 19.0145 18.0034C19.0145 18.0112 19.0175 18.0161 19.0175 18.024C19.0175 18.0319 19.0175 18.0396 19.0175 18.0475C19.0175 18.0554 19.0175 18.0661 19.0175 18.074C19.0175 18.0819 19.0145 18.0868 19.0145 18.0947C19.0145 18.1025 19.0145 18.1134 19.0145 18.1212C19.0145 18.129 19.0057 18.134 19.0057 18.1418C19.0057 18.1495 19.0027 18.1577 19.0027 18.1653C19.0027 18.173 18.9968 18.1813 18.9968 18.1889C18.9968 18.1965 18.988 18.205 18.988 18.2125C18.988 18.2199 18.9821 18.2257 18.9821 18.2331C18.9821 18.2404 18.9733 18.2495 18.9733 18.2567C18.9733 18.2639 18.9644 18.2702 18.9644 18.2773C18.9644 18.2843 18.9565 18.291 18.9527 18.2979C18.9488 18.3047 18.9421 18.3118 18.9379 18.3185C18.9338 18.3252 18.9336 18.3297 18.9291 18.3362C18.9246 18.3427 18.9192 18.3535 18.9144 18.3597C18.9096 18.366 18.9047 18.3714 18.8996 18.3774C18.8946 18.3835 18.8873 18.3893 18.882 18.3951C18.8766 18.4009 18.8729 18.4072 18.8672 18.4128C18.8616 18.4183 18.8554 18.4222 18.8496 18.4275C18.8437 18.4327 18.838 18.4372 18.8319 18.4422C18.8258 18.4472 18.8176 18.4493 18.8113 18.454C18.8049 18.4587 18.8002 18.4643 18.7936 18.4687C18.7871 18.4731 18.7797 18.4793 18.773 18.4834C18.7662 18.4875 18.7593 18.4914 18.7524 18.4952C18.7454 18.499 18.7388 18.5041 18.7318 18.5041C18.7247 18.5041 18.7184 18.5158 18.7111 18.5158C18.7039 18.5158 18.6979 18.5217 18.6905 18.5217C18.6831 18.5217 18.6715 18.5335 18.664 18.5335C18.6565 18.5335 18.651 18.5394 18.6434 18.5394C18.6358 18.5394 18.6246 18.5453 18.6169 18.5453C18.6092 18.5453 18.604 18.5482 18.5963 18.5482C18.5885 18.5482 18.5805 18.5512 18.5727 18.5512C18.5649 18.5512 18.557 18.5541 18.5491 18.5541L17.6066 18.5541L17.6066 19.4967C17.6066 19.5045 17.6066 19.5124 17.6066 19.5202C17.6066 19.528 17.6037 19.536 17.6037 19.5438C17.6037 19.5515 17.5978 19.5567 17.5978 19.5644C17.5978 19.5721 17.5919 19.5833 17.5919 19.5909C17.5919 19.5985 17.586 19.604 17.586 19.6115C17.586 19.619 17.5801 19.6248 17.5801 19.6321C17.5801 19.6395 17.5683 19.6485 17.5683 19.6557C17.5683 19.6629 17.5624 19.6692 17.5624 19.6763C17.5624 19.6834 17.5544 19.69 17.5506 19.6969C17.5469 19.7039 17.54 19.7138 17.5359 19.7205C17.5318 19.7272 17.5285 19.7346 17.5241 19.7411C17.5197 19.7477 17.5171 19.7525 17.5124 19.7588C17.5077 19.7651 17.5026 19.7703 17.4976 19.7765C17.4926 19.7826 17.4852 19.7883 17.48 19.7941C17.4747 19.8 17.4708 19.8062 17.4652 19.8118C17.4597 19.8174 17.4534 19.8241 17.4476 19.8295C17.4418 19.8348 17.4359 19.8391 17.4299 19.8442C17.4238 19.8493 17.4185 19.8542 17.4122 19.8589C17.4059 19.8637 17.401 19.8692 17.3945 19.8737C17.388 19.8782 17.3777 19.8813 17.371 19.8854C17.3643 19.8896 17.3572 19.8933 17.3504 19.8972C17.3435 19.9011 17.3368 19.909 17.3297 19.909C17.3227 19.909 17.3163 19.9178 17.3091 19.9178C17.3019 19.9178 17.2929 19.9296 17.2856 19.9296C17.2782 19.9296 17.2724 19.9355 17.2649 19.9355C17.2575 19.9355 17.2519 19.9444 17.2443 19.9444C17.2367 19.9444 17.2255 19.9502 17.2178 19.9502C17.2101 19.9502 17.2049 19.9532 17.1972 19.9532C17.1895 19.9532 17.1814 19.9591 17.1736 19.9591C17.1658 19.9591 17.1579 19.962 17.1501 19.962C17.1422 19.962 17.1344 19.962 17.1265 19.962C17.1186 19.962 17.1079 19.965 17.1 19.965C17.0921 19.965 17.0872 19.962 17.0794 19.962C17.0715 19.962 17.0637 19.962 17.0558 19.962C17.048 19.962 17.0401 19.9591 17.0323 19.9591C17.0244 19.9591 17.0164 19.9532 17.0087 19.9532C17.0009 19.9532 16.9957 19.9502 16.9881 19.9502C16.9804 19.9502 16.9692 19.9444 16.9616 19.9444C16.954 19.9444 16.9484 19.9355 16.9409 19.9355C16.9335 19.9355 16.9277 19.9296 16.9203 19.9296C16.913 19.9296 16.901 19.9178 16.8938 19.9178C16.8866 19.9178 16.8802 19.909 16.8732 19.909C16.8661 19.909 16.8624 19.9011 16.8555 19.8972C16.8486 19.8933 16.8416 19.8896 16.8349 19.8854C16.8282 19.8813 16.8178 19.8782 16.8113 19.8737C16.8049 19.8692 16.7999 19.8637 16.7937 19.8589C16.7874 19.8542 16.782 19.8493 16.776 19.8442C16.77 19.8391 16.7641 19.8348 16.7583 19.8295C16.7525 19.8241 16.7462 19.8174 16.7407 19.8118C16.7351 19.8062 16.7283 19.8 16.723 19.7941C16.7177 19.7883 16.7133 19.7826 16.7083 19.7765C16.7032 19.7703 16.6982 19.7651 16.6935 19.7588C16.6888 19.7525 16.6862 19.7477 16.6817 19.7411C16.6773 19.7346 16.6741 19.7272 16.67 19.7205C16.6659 19.7138 16.659 19.7039 16.6552 19.6969C16.6514 19.69 16.6435 19.6834 16.6435 19.6763C16.6435 19.6692 16.6346 19.6629 16.6346 19.6557C16.6346 19.6485 16.6258 19.6395 16.6258 19.6321C16.6258 19.6248 16.6199 19.619 16.6199 19.6115C16.6199 19.604 16.614 19.5985 16.614 19.5909C16.614 19.5833 16.6052 19.5721 16.6052 19.5644C16.6052 19.5567 16.6022 19.5515 16.6022 19.5438C16.6022 19.536 16.5993 19.528 16.5993 19.5202C16.5993 19.5124 16.5963 19.5045 16.5963 19.4967L16.5963 18.5541L15.6568 18.5541C15.6489 18.5541 15.6381 18.5512 15.6303 18.5512C15.6225 18.5512 15.6175 18.5483 15.6097 18.5483C15.6019 18.5483 15.5908 18.5453 15.5831 18.5453C15.5754 18.5453 15.5702 18.5394 15.5625 18.5394C15.5549 18.5394 15.5495 18.5335 15.542 18.5335C15.5345 18.5335 15.5228 18.5217 15.5154 18.5217C15.508 18.5217 15.5021 18.5158 15.4948 18.5158C15.4876 18.5158 15.4813 18.5041 15.4742 18.5041C15.4671 18.5041 15.4605 18.499 15.4535 18.4952C15.4466 18.4914 15.4367 18.4875 15.4299 18.4835C15.4232 18.4793 15.4188 18.4731 15.4123 18.4687C15.4057 18.4643 15.398 18.4587 15.3917 18.454C15.3854 18.4493 15.3801 18.4472 15.374 18.4422C15.3679 18.4372 15.3622 18.4327 15.3563 18.4275C15.3504 18.4222 15.3442 18.4183 15.3386 18.4128C15.333 18.4072 15.3293 18.4009 15.324 18.3951C15.3186 18.3893 15.3113 18.3835 15.3063 18.3774C15.3012 18.3714 15.2964 18.366 15.2916 18.3597C15.2868 18.3535 15.2813 18.3427 15.2768 18.3362C15.2723 18.3297 15.2722 18.3252 15.268 18.3185C15.2638 18.3118 15.2572 18.3047 15.2533 18.2979C15.2495 18.291 15.2415 18.2843 15.2415 18.2773C15.2415 18.2702 15.2326 18.2639 15.2326 18.2567C15.2326 18.2495 15.2239 18.2404 15.2239 18.2331C15.2239 18.2257 15.2121 18.2199 15.2121 18.2125C15.2121 18.205 15.2062 18.1965 15.2062 18.1889C15.2062 18.1813 15.2031 18.173 15.2031 18.1654C15.2031 18.1577 15.1944 18.1495 15.1944 18.1418C15.1944 18.134 15.1914 18.129 15.1914 18.1212C15.1914 18.1134 15.1885 18.1025 15.1885 18.0947C15.1885 18.0868 15.1885 18.0819 15.1885 18.074C15.1885 18.0661 15.1885 18.0554 15.1885 18.0475C15.1885 18.0396 15.1885 18.0319 15.1885 18.024C15.1885 18.0161 15.1885 18.0112 15.1885 18.0034C15.1885 17.9955 15.1914 17.9846 15.1914 17.9768C15.1914 17.969 15.1944 17.964 15.1944 17.9562C15.1944 17.9485 15.2031 17.9374 15.2031 17.9297C15.2031 17.922 15.2062 17.9167 15.2062 17.9091C15.2062 17.9015 15.2121 17.893 15.2121 17.8855C15.2121 17.8781 15.2239 17.8693 15.2239 17.862C15.2239 17.8546 15.2326 17.8486 15.2326 17.8414C15.2326 17.8342 15.2415 17.8278 15.2415 17.8207C15.2415 17.8137 15.2495 17.807 15.2533 17.8001C15.2572 17.7932 15.2638 17.7891 15.268 17.7825C15.2722 17.7758 15.2723 17.7654 15.2768 17.7589C15.2813 17.7524 15.2868 17.7475 15.2916 17.7412C15.2964 17.735 15.3012 17.7266 15.3063 17.7206C15.3113 17.7145 15.3186 17.7087 15.324 17.7029C15.3293 17.6971 15.333 17.6937 15.3386 17.6882C15.3442 17.6827 15.3504 17.6758 15.3563 17.6705C15.3622 17.6653 15.3679 17.6608 15.374 17.6558C15.3801 17.6508 15.3854 17.6458 15.3917 17.6411C15.398 17.6364 15.4057 17.6337 15.4123 17.6293C15.4188 17.6249 15.4232 17.6186 15.4299 17.6146C15.4367 17.6105 15.4466 17.6066 15.4535 17.6028C15.4605 17.599 15.4671 17.591 15.4742 17.591C15.4813 17.591 15.4876 17.5822 15.4948 17.5822C15.5021 17.5822 15.508 17.5733 15.5154 17.5733C15.5228 17.5733 15.5345 17.5674 15.542 17.5674C15.5495 17.5674 15.5549 17.5615 15.5625 17.5615C15.5702 17.5615 15.5754 17.5527 15.5831 17.5527C15.5908 17.5527 15.6019 17.5498 15.6097 17.5498C15.6175 17.5498 15.6225 17.5468 15.6303 17.5468C15.6381 17.5468 15.6489 17.5439 15.6568 17.5439L16.5963 17.5439L16.5963 16.6043C16.5963 16.5964 16.5993 16.5856 16.5993 16.5778C16.5993 16.57 16.6022 16.5649 16.6022 16.5572C16.6022 16.5494 16.6052 16.5384 16.6052 16.5307C16.6052 16.523 16.614 16.5177 16.614 16.51C16.614 16.5024 16.6199 16.494 16.6199 16.4865C16.6199 16.479 16.6258 16.4703 16.6258 16.4629C16.6258 16.4555 16.6346 16.4495 16.6346 16.4423C16.6346 16.4351 16.6435 16.4288 16.6435 16.4217C16.6435 16.4146 16.6515 16.408 16.6552 16.4011C16.659 16.3941 16.6659 16.3843 16.67 16.3775C16.6741 16.3708 16.6773 16.3634 16.6817 16.3569C16.6862 16.3503 16.6888 16.3456 16.6935 16.3392C16.6982 16.3329 16.7033 16.3276 16.7083 16.3215C16.7133 16.3154 16.7177 16.3097 16.723 16.3039C16.7283 16.298 16.7351 16.2918 16.7407 16.2862C16.7462 16.2806 16.7525 16.2739 16.7583 16.2685C16.7641 16.2632 16.7699 16.2589 16.776 16.2538C16.782 16.2487 16.7874 16.2439 16.7937 16.2391C16.7999 16.2343 16.8049 16.2288 16.8113 16.2243C16.8178 16.2199 16.8282 16.2138 16.8349 16.2096C16.8416 16.2054 16.8487 16.2047 16.8555 16.2008C16.8624 16.1969 16.8662 16.189 16.8732 16.189C16.8803 16.189 16.8866 16.1802 16.8938 16.1802C16.901 16.1802 16.913 16.1684 16.9203 16.1684C16.9277 16.1684 16.9335 16.1595 16.9409 16.1595C16.9484 16.1595 16.954 16.1537 16.9616 16.1537C16.9692 16.1537 16.9804 16.1478 16.9881 16.1478C16.9957 16.1478 17.0009 16.1419 17.0087 16.1419C17.0164 16.1419 17.0244 16.1389 17.0323 16.1389C17.0401 16.1389 17.048 16.136 17.0558 16.136C17.0637 16.136 17.0715 16.136 17.0794 16.136C17.0872 16.136 17.0921 16.136 17.1 16.136Z"   fill="#034FA1" ></path><path d="M8.55384 17.0336L7.54113 17.0336L7.20016 16.0158C7.16428 15.8672 7.02447 15.7104 6.80322 15.7104C6.58112 15.7104 6.44135 15.8674 6.41136 15.9954L6.06531 17.0336L5.0017 17.0336C4.80157 17.0336 4.63291 17.1479 4.57422 17.3237C4.50667 17.5272 4.60691 17.6963 4.71163 17.7613L5.61238 18.4025L5.27651 19.4C5.2043 19.5481 5.22682 19.7478 5.40373 19.8733C5.47763 19.9261 5.56189 19.9547 5.6531 19.9547C5.77048 19.9547 5.86108 19.9091 5.90246 19.8835L6.80322 19.2473L7.65309 19.8427C7.68644 19.8713 7.80562 19.9649 7.96861 19.9649C8.05306 19.9649 8.13473 19.9368 8.2027 19.8885C8.37413 19.7664 8.39963 19.5604 8.33502 19.4102L7.99405 18.3975L8.83374 17.802C9.00052 17.7034 9.07518 17.5088 9.01186 17.3288C8.95105 17.147 8.78441 17.0336 8.55893 17.0336L8.55384 17.0336Z"   fill="#CC4E1D" ></path></svg>