<svg xmlns="http://www.w3.org/2000/svg" xmlns:xlink="http://www.w3.org/1999/xlink" width="24" height="24" viewBox="0 0 24 24" fill="none"><path d="M16.9921 7.09961C16.9228 6.85011 16.6893 6.84138 16.4603 6.9039C16.6573 6.05097 17.0005 3.85318 16.1582 3.3472C16.0892 3.30548 16.0225 3.25991 15.9583 3.21106C15.006 1.31168 13.4796 0.820068 11.874 0.820068C10.2685 0.820068 9.09655 1.56778 8.46198 2.71329C7.82696 2.95675 7.47392 3.2585 7.23245 4.37677C7.06503 5.15135 7.22485 6.1061 7.40263 6.87838C7.22276 6.85567 7.0625 6.89929 7.00696 7.09961C6.91854 7.41659 6.93672 7.70807 7.03249 7.98027C7.1212 8.23184 7.48704 8.45853 7.67916 8.67374C7.76837 8.77333 7.96492 8.81701 8.08759 8.79712C8.30946 9.38296 8.58184 9.53219 8.9172 10.0607C9.68637 11.2732 10.734 12.1539 11.9974 12.1539C13.2607 12.1539 14.3126 11.273 15.0819 10.0607C15.4167 9.53283 15.6897 9.38195 15.9115 8.79712C16.0342 8.8171 16.2308 8.77326 16.3199 8.67374C16.512 8.4586 16.8736 8.23184 16.9623 7.98027C17.0581 7.70814 17.0807 7.41649 16.9921 7.09961ZM10.5296 4.47037C11.9976 5.03404 13.7644 4.82287 14.8819 3.82795C16.1217 5.44904 15.433 8.09828 14.4267 9.67354C13.7841 10.6792 12.9464 11.4093 11.9974 11.4093C11.0483 11.4093 10.2148 10.6793 9.57238 9.67354C8.84475 8.53454 8.35562 7.04739 8.35562 5.69139C8.35562 5.57797 8.35927 5.46633 8.36838 5.35529C8.50133 4.88621 8.71325 4.39073 9.12567 3.98111C9.31634 4.30703 9.63529 4.59859 10.0446 4.83625C10.6617 5.19441 11.4952 5.43669 12.4016 5.47441C12.7224 5.48757 13.0302 5.47511 13.3163 5.44038C13.6167 5.40384 13.8993 5.34041 14.1587 5.25744C14.3037 5.21099 14.3839 5.0578 14.3373 4.91283C14.2908 4.7679 14.1376 4.68762 13.9927 4.73414C13.7695 4.8057 13.5204 4.85885 13.2525 4.89156C12.9891 4.92356 12.7091 4.93731 12.4229 4.92559C11.7081 4.89597 11.0491 4.72492 10.5296 4.47037ZM20.57 14.6044C19.9299 13.3087 16.1927 12.8936 14.7798 12.3453C14.5235 13.2838 13.8305 15.4208 12.9335 16.8295L12.5207 14.3917L12.759 13.8131L11.9933 13.1707L11.2317 13.8131L11.4698 14.3917L11.0572 16.8295C10.148 15.4307 9.5169 13.3818 9.22787 12.3453C7.78898 12.9035 4.06056 13.3436 3.43745 14.6044C2.52841 16.436 2.2077 21.1 1.9995 22.9431L21.9995 22.9431C21.7912 21.1011 21.4793 16.4363 20.57 14.6044ZM17.9621 14.5449C18.34 14.7151 19.4717 14.8988 19.5702 15.0979C20.2978 16.5641 20.6214 20.1375 20.7742 21.8285L3.22473 21.8285C3.37805 20.1369 3.70929 16.5647 4.43728 15.0979C4.53147 14.9074 5.4922 14.7277 6.00468 14.5593C6.12474 14.4551 6.56426 14.3276 6.8454 14.2544L6.84535 14.2513C7.26599 14.1106 7.72559 13.9761 8.15575 13.8514C8.26874 13.8188 8.37802 13.7856 8.4875 13.7536C8.59742 14.0955 8.72415 14.465 8.86621 14.8427C9.635 16.885 10.3663 17.7435 11.6017 19.2247C11.7038 19.347 11.8382 19.4119 11.9974 19.4119C12.1566 19.4119 12.2955 19.3472 12.3973 19.2247C13.488 17.9127 14.2171 17.0614 14.9414 15.3021C15.1636 14.7627 15.354 14.2277 15.5115 13.7536C15.6205 13.7849 15.7311 13.8154 15.8434 13.8471C16.3186 13.9823 16.832 14.124 17.2899 14.2811C17.2895 14.2881 17.2891 14.2952 17.2887 14.3022C17.4931 14.3879 17.7562 14.4975 17.9582 14.5817C17.9595 14.5694 17.9609 14.5571 17.9621 14.5449Z" stroke="rgba(3, 79, 161, 1)" stroke-width="0.2"    fill-rule="evenodd"  fill="#034FA1" ></path><path d="M17.1 16.5613C17.3649 16.5613 17.5851 16.7655 17.6066 17.0296L17.6066 17.9692L18.5491 17.9692C18.557 17.9692 18.5727 17.9721 18.5727 17.9721C18.5805 17.9721 18.5885 17.9751 18.5963 17.9751C18.604 17.9751 18.6169 17.978 18.6169 17.978C18.6246 17.978 18.6434 17.9868 18.6434 17.9868C18.651 17.9868 18.6565 17.9927 18.664 17.9927C18.6715 17.9927 18.6905 17.9986 18.6905 17.9986C18.6979 17.9986 18.7039 18.0075 18.7111 18.0075C18.7184 18.0075 18.7247 18.0163 18.7318 18.0163C18.7388 18.0163 18.7454 18.0243 18.7524 18.0281C18.7593 18.0319 18.7662 18.0357 18.773 18.0399C18.7797 18.0439 18.7871 18.0502 18.7936 18.0546C18.8002 18.059 18.8049 18.0617 18.8113 18.0664C18.8176 18.0711 18.8258 18.0761 18.8319 18.0811C18.838 18.0861 18.8437 18.0905 18.8496 18.0958C18.8554 18.1011 18.8616 18.108 18.8672 18.1135C18.8729 18.119 18.8766 18.1224 18.882 18.1282C18.8873 18.134 18.8946 18.1398 18.8996 18.1459C18.9047 18.1519 18.9096 18.1602 18.9144 18.1665C18.9192 18.1728 18.9246 18.1777 18.9291 18.1842C18.9336 18.1907 18.9338 18.2011 18.9379 18.2077C18.9421 18.2144 18.9488 18.2185 18.9527 18.2254C18.9565 18.2323 18.9644 18.239 18.9644 18.246C18.9644 18.2531 18.9733 18.2594 18.9733 18.2667C18.9733 18.2739 18.9821 18.2799 18.9821 18.2873C18.9821 18.2946 18.988 18.3033 18.988 18.3108C18.988 18.3183 18.9968 18.3268 18.9968 18.3344C18.9968 18.342 19.0027 18.3473 19.0027 18.355C19.0027 18.3627 19.0057 18.3738 19.0057 18.3815C19.0057 18.3893 19.0145 18.3943 19.0145 18.4021C19.0145 18.4099 19.0145 18.4208 19.0145 18.4286C19.0145 18.4365 19.0175 18.4414 19.0175 18.4493C19.0175 18.4571 19.0175 18.4649 19.0175 18.4728C19.0175 18.4807 19.0175 18.4914 19.0175 18.4993C19.0175 18.5072 19.0145 18.5121 19.0145 18.52C19.0145 18.5278 19.0145 18.5386 19.0145 18.5465C19.0145 18.5543 19.0057 18.5593 19.0057 18.5671C19.0057 18.5748 19.0027 18.583 19.0027 18.5906C19.0027 18.5983 18.9968 18.6066 18.9968 18.6142C18.9968 18.6218 18.988 18.6303 18.988 18.6378C18.988 18.6452 18.9821 18.651 18.9821 18.6584C18.9821 18.6657 18.9733 18.6747 18.9733 18.6819C18.9733 18.6892 18.9644 18.6955 18.9644 18.7026C18.9644 18.7096 18.9565 18.7163 18.9527 18.7232C18.9488 18.73 18.9421 18.7371 18.9379 18.7438C18.9338 18.7505 18.9336 18.755 18.9291 18.7615C18.9246 18.7679 18.9192 18.7788 18.9144 18.785C18.9096 18.7913 18.9047 18.7967 18.8996 18.8027C18.8946 18.8087 18.8873 18.8146 18.882 18.8204C18.8766 18.8262 18.8729 18.8325 18.8672 18.8381C18.8616 18.8436 18.8554 18.8475 18.8496 18.8528C18.8437 18.858 18.838 18.8625 18.8319 18.8675C18.8258 18.8725 18.8176 18.8746 18.8113 18.8793C18.8049 18.884 18.8002 18.8896 18.7936 18.894C18.7871 18.8984 18.7797 18.9046 18.773 18.9087C18.7662 18.9128 18.7593 18.9167 18.7524 18.9205C18.7454 18.9243 18.7388 18.9294 18.7318 18.9294C18.7247 18.9294 18.7184 18.9411 18.7111 18.9411C18.7039 18.9411 18.6979 18.947 18.6905 18.947C18.6831 18.947 18.6715 18.9588 18.664 18.9588C18.6565 18.9588 18.651 18.9647 18.6434 18.9647C18.6358 18.9647 18.6246 18.9706 18.6169 18.9706C18.6092 18.9706 18.604 18.9735 18.5963 18.9735C18.5885 18.9735 18.5805 18.9765 18.5727 18.9765C18.5649 18.9765 18.557 18.9794 18.5491 18.9794L17.6066 18.9794L17.6066 19.922C17.6066 19.9298 17.6066 19.9377 17.6066 19.9455C17.6066 19.9533 17.6037 19.9613 17.6037 19.9691C17.6037 19.9768 17.5978 19.982 17.5978 19.9897C17.5978 19.9974 17.5919 20.0086 17.5919 20.0162C17.5919 20.0238 17.586 20.0293 17.586 20.0368C17.586 20.0443 17.5801 20.0501 17.5801 20.0574C17.5801 20.0648 17.5683 20.0737 17.5683 20.081C17.5683 20.0882 17.5624 20.0945 17.5624 20.1016C17.5624 20.1087 17.5544 20.1153 17.5506 20.1222C17.5469 20.1292 17.54 20.139 17.5359 20.1458C17.5318 20.1525 17.5285 20.1599 17.5241 20.1664C17.5197 20.173 17.5171 20.1778 17.5124 20.1841C17.5077 20.1904 17.5026 20.1956 17.4976 20.2018C17.4926 20.2079 17.4852 20.2136 17.48 20.2194C17.4747 20.2253 17.4708 20.2315 17.4652 20.2371C17.4597 20.2427 17.4534 20.2494 17.4476 20.2548C17.4418 20.2601 17.4359 20.2644 17.4299 20.2695C17.4238 20.2746 17.4185 20.2794 17.4122 20.2842C17.4059 20.289 17.401 20.2945 17.3945 20.299C17.388 20.3034 17.3777 20.3065 17.371 20.3107C17.3643 20.3149 17.3572 20.3186 17.3504 20.3225C17.3435 20.3264 17.3368 20.3343 17.3297 20.3343C17.3227 20.3343 17.3163 20.3431 17.3091 20.3431C17.3019 20.3431 17.2929 20.3549 17.2856 20.3549C17.2782 20.3549 17.2724 20.3608 17.2649 20.3608C17.2575 20.3608 17.2519 20.3696 17.2443 20.3696C17.2367 20.3696 17.2255 20.3755 17.2178 20.3755C17.2101 20.3755 17.2049 20.3785 17.1972 20.3785C17.1895 20.3785 17.1814 20.3844 17.1736 20.3844C17.1658 20.3844 17.1579 20.3873 17.1501 20.3873C17.1422 20.3873 17.1344 20.3873 17.1265 20.3873C17.1186 20.3873 17.1079 20.3903 17.1 20.3903C17.0921 20.3903 17.0872 20.3873 17.0794 20.3873C17.0715 20.3873 17.0637 20.3873 17.0558 20.3873C17.048 20.3873 17.0401 20.3844 17.0323 20.3844C17.0244 20.3844 17.0164 20.3785 17.0087 20.3785C17.0009 20.3785 16.9957 20.3755 16.9881 20.3755C16.9804 20.3755 16.9692 20.3696 16.9616 20.3696C16.954 20.3696 16.9484 20.3608 16.9409 20.3608C16.9335 20.3608 16.9277 20.3549 16.9203 20.3549C16.913 20.3549 16.901 20.3431 16.8938 20.3431C16.8866 20.3431 16.8802 20.3343 16.8732 20.3343C16.8661 20.3343 16.8624 20.3264 16.8555 20.3225C16.8486 20.3186 16.8416 20.3149 16.8349 20.3107C16.8282 20.3065 16.8178 20.3034 16.8113 20.299C16.8049 20.2945 16.7999 20.289 16.7937 20.2842C16.7874 20.2794 16.782 20.2746 16.776 20.2695C16.77 20.2644 16.7641 20.2601 16.7583 20.2548C16.7525 20.2494 16.7462 20.2427 16.7407 20.2371C16.7351 20.2315 16.7283 20.2253 16.723 20.2194C16.7177 20.2136 16.7133 20.2079 16.7083 20.2018C16.7032 20.1956 16.6982 20.1904 16.6935 20.1841C16.6888 20.1778 16.6862 20.173 16.6817 20.1664C16.6773 20.1599 16.6741 20.1525 16.67 20.1458C16.6659 20.139 16.659 20.1292 16.6552 20.1222C16.6514 20.1153 16.6435 20.1087 16.6435 20.1016C16.6435 20.0945 16.6346 20.0882 16.6346 20.081C16.6346 20.0737 16.6258 20.0648 16.6258 20.0574C16.6258 20.0501 16.6199 20.0443 16.6199 20.0368C16.6199 20.0293 16.614 20.0238 16.614 20.0162C16.614 20.0086 16.6052 19.9974 16.6052 19.9897C16.6052 19.982 16.6022 19.9768 16.6022 19.9691C16.6022 19.9613 16.5993 19.9533 16.5993 19.9455C16.5993 19.9377 16.5963 19.9298 16.5963 19.922L16.5963 18.9794L15.6568 18.9794C15.6489 18.9794 15.6381 18.9765 15.6303 18.9765C15.6225 18.9765 15.6175 18.9735 15.6097 18.9735C15.6019 18.9735 15.5908 18.9706 15.5831 18.9706C15.5754 18.9706 15.5702 18.9647 15.5625 18.9647C15.5549 18.9647 15.5495 18.9588 15.542 18.9588C15.5345 18.9588 15.5228 18.947 15.5154 18.947C15.508 18.947 15.5021 18.9411 15.4948 18.9411C15.4876 18.9411 15.4813 18.9294 15.4742 18.9294C15.4671 18.9294 15.4605 18.9243 15.4535 18.9205C15.4466 18.9167 15.4367 18.9128 15.4299 18.9087C15.4232 18.9046 15.4188 18.8984 15.4123 18.894C15.4057 18.8896 15.398 18.884 15.3917 18.8793C15.3854 18.8746 15.3801 18.8725 15.374 18.8675C15.3679 18.8625 15.3622 18.858 15.3563 18.8528C15.3504 18.8475 15.3442 18.8436 15.3386 18.8381C15.333 18.8325 15.3293 18.8262 15.324 18.8204C15.3186 18.8146 15.3113 18.8087 15.3063 18.8027C15.3012 18.7967 15.2964 18.7913 15.2916 18.785C15.2868 18.7788 15.2813 18.768 15.2768 18.7615C15.2723 18.755 15.2722 18.7505 15.268 18.7438C15.2638 18.7371 15.2572 18.73 15.2533 18.7232C15.2495 18.7163 15.2415 18.7096 15.2415 18.7026C15.2415 18.6955 15.2326 18.6892 15.2326 18.682C15.2326 18.6747 15.2239 18.6657 15.2239 18.6584C15.2239 18.651 15.2121 18.6452 15.2121 18.6378C15.2121 18.6303 15.2062 18.6218 15.2062 18.6142C15.2062 18.6066 15.2031 18.5983 15.2031 18.5906C15.2031 18.583 15.1944 18.5748 15.1944 18.5671C15.1944 18.5593 15.1914 18.5543 15.1914 18.5465C15.1914 18.5386 15.1885 18.5278 15.1885 18.52C15.1885 18.5121 15.1885 18.5072 15.1885 18.4993C15.1885 18.4914 15.1885 18.4807 15.1885 18.4728C15.1885 18.4649 15.1885 18.4572 15.1885 18.4493C15.1885 18.4414 15.1885 18.4365 15.1885 18.4286C15.1885 18.4208 15.1914 18.4099 15.1914 18.4021C15.1914 18.3943 15.1944 18.3893 15.1944 18.3815C15.1944 18.3738 15.2031 18.3627 15.2031 18.355C15.2031 18.3473 15.2062 18.342 15.2062 18.3344C15.2062 18.3268 15.2121 18.3183 15.2121 18.3108C15.2121 18.3034 15.2239 18.2946 15.2239 18.2873C15.2239 18.2799 15.2326 18.2739 15.2326 18.2667C15.2326 18.2594 15.2415 18.2531 15.2415 18.246C15.2415 18.239 15.2495 18.2323 15.2533 18.2254C15.2572 18.2185 15.2638 18.2144 15.268 18.2077C15.2722 18.2011 15.2723 18.1907 15.2768 18.1842C15.2813 18.1777 15.2868 18.1728 15.2916 18.1665C15.2964 18.1602 15.3012 18.1519 15.3063 18.1459C15.3113 18.1398 15.3186 18.134 15.324 18.1282C15.3293 18.1224 15.333 18.119 15.3386 18.1135C15.3442 18.108 15.3504 18.1011 15.3563 18.0958C15.3622 18.0905 15.3679 18.0861 15.374 18.0811C15.3801 18.0761 15.3854 18.0711 15.3917 18.0664C15.398 18.0617 15.4057 18.059 15.4123 18.0546C15.4188 18.0502 15.4232 18.0439 15.4299 18.0399C15.4367 18.0357 15.4466 18.0319 15.4535 18.0281C15.4605 18.0243 15.4671 18.0163 15.4742 18.0163C15.4813 18.0163 15.4876 18.0075 15.4948 18.0075C15.5021 18.0075 15.508 17.9986 15.5154 17.9986C15.5228 17.9986 15.5345 17.9927 15.542 17.9927C15.5495 17.9927 15.5549 17.9868 15.5625 17.9868C15.5702 17.9868 15.5754 17.978 15.5831 17.978C15.5908 17.978 15.6019 17.9751 15.6097 17.9751C15.6175 17.9751 15.6225 17.9721 15.6303 17.9721C15.6381 17.9721 15.6489 17.9692 15.6568 17.9692L16.5963 17.9692L16.5963 17.0296C16.5963 17.0217 16.5993 17.0109 16.5993 17.0031C16.5993 16.9953 16.6022 16.9902 16.6022 16.9825C16.6022 16.9747 16.6052 16.9637 16.6052 16.956C16.6052 16.9483 16.614 16.9429 16.614 16.9353C16.614 16.9277 16.6199 16.9193 16.6199 16.9118C16.6199 16.9043 16.6258 16.8956 16.6258 16.8882C16.6258 16.8808 16.6346 16.8748 16.6346 16.8676C16.6346 16.8604 16.6435 16.8541 16.6435 16.847C16.6435 16.8399 16.6515 16.8333 16.6552 16.8264C16.659 16.8194 16.6659 16.8096 16.67 16.8028C16.6741 16.796 16.6773 16.7887 16.6817 16.7822C16.6862 16.7756 16.6888 16.7708 16.6935 16.7645C16.6982 16.7582 16.7033 16.7529 16.7083 16.7468C16.7133 16.7407 16.7177 16.735 16.723 16.7292C16.7283 16.7233 16.7351 16.7171 16.7407 16.7115C16.7462 16.7059 16.7525 16.6992 16.7583 16.6938C16.7641 16.6885 16.7699 16.6842 16.776 16.6791C16.782 16.674 16.7874 16.6692 16.7937 16.6644C16.7999 16.6596 16.8049 16.6541 16.8113 16.6496C16.8178 16.6451 16.8282 16.6391 16.8349 16.6349C16.8416 16.6307 16.8487 16.6299 16.8555 16.6261C16.8624 16.6222 16.8662 16.6143 16.8732 16.6143C16.8803 16.6143 16.8866 16.6055 16.8938 16.6055C16.901 16.6055 16.913 16.5937 16.9203 16.5937C16.9277 16.5937 16.9335 16.5848 16.9409 16.5848C16.9484 16.5848 16.954 16.579 16.9616 16.579C16.9692 16.579 16.9804 16.5731 16.9881 16.5731C16.9957 16.5731 17.0009 16.5672 17.0087 16.5672C17.0164 16.5672 17.0244 16.5642 17.0323 16.5642C17.0401 16.5642 17.048 16.5613 17.0558 16.5613C17.0637 16.5613 17.0715 16.5613 17.0794 16.5613C17.0872 16.5613 17.0921 16.5613 17.1 16.5613Z"   fill="#CC4E1D" ></path></svg>