<svg xmlns="http://www.w3.org/2000/svg" xmlns:xlink="http://www.w3.org/1999/xlink" width="24" height="24" viewBox="0 0 24 24" fill="none"><path d="M12.0107 9.15999C9.93625 9.15999 8.24707 7.47444 8.24707 5.39999C8.24707 3.32553 9.93625 1.63635 12.0107 1.63635C14.0852 1.63635 15.7743 3.32553 15.7743 5.39999C15.7743 7.47444 14.0852 9.15999 12.0107 9.15999ZM12.0107 3.14181C11.9738 3.14181 11.9385 3.14544 11.9016 3.14544C11.8647 3.14544 11.8257 3.15272 11.7889 3.15272C11.7521 3.15272 11.7163 3.16184 11.6798 3.16726C11.6433 3.17269 11.6069 3.17823 11.5707 3.18544C11.5345 3.19264 11.4975 3.19828 11.4616 3.20726C11.4258 3.21624 11.3915 3.22927 11.3562 3.23999C11.3208 3.25071 11.2855 3.26027 11.2507 3.27272C11.2159 3.28516 11.1794 3.29858 11.1453 3.31272C11.1111 3.32684 11.0805 3.34055 11.0471 3.35635C11.0137 3.37215 10.9778 3.38984 10.9453 3.40726C10.9127 3.42466 10.8824 3.44281 10.8507 3.46181C10.819 3.48081 10.7869 3.49947 10.7562 3.51999C10.7255 3.54051 10.6949 3.56343 10.6653 3.58544C10.6356 3.60745 10.6065 3.6311 10.578 3.65453C10.5494 3.67797 10.5217 3.70245 10.4943 3.72726C10.467 3.75206 10.4405 3.77749 10.4143 3.80363C10.3882 3.82974 10.3628 3.85625 10.338 3.88363C10.3132 3.91101 10.2887 3.93871 10.2653 3.96726C10.2418 3.99583 10.2182 4.02486 10.1962 4.05453C10.1742 4.08421 10.1549 4.11473 10.1343 4.14544C10.1138 4.17618 10.0952 4.20468 10.0762 4.23635C10.0572 4.26805 10.039 4.30197 10.0216 4.33453C10.0042 4.3671 9.98651 4.3993 9.97071 4.43272C9.9549 4.46611 9.9412 4.50041 9.92707 4.53453C9.91294 4.56868 9.89951 4.60521 9.88707 4.63999C9.87463 4.67477 9.86143 4.70644 9.85071 4.74181C9.83998 4.77715 9.8306 4.81506 9.82162 4.8509C9.81263 4.88673 9.80336 4.92375 9.79616 4.95999C9.78894 4.99622 9.78341 5.03254 9.77798 5.06908C9.77255 5.10562 9.76343 5.14142 9.76343 5.17817C9.76343 5.21495 9.75616 5.25037 9.75616 5.28726C9.75616 5.32416 9.75253 5.36305 9.75253 5.39999C9.75253 5.43693 9.75616 5.47219 9.75616 5.50908C9.75616 5.54597 9.76343 5.58139 9.76343 5.61817C9.76343 5.65492 9.77255 5.69436 9.77798 5.7309C9.78341 5.76744 9.78894 5.80375 9.79616 5.83999C9.80336 5.87622 9.81263 5.90961 9.82162 5.94544C9.8306 5.98128 9.83998 6.01919 9.85071 6.05453C9.86143 6.08988 9.87463 6.12521 9.88707 6.15999C9.89951 6.19477 9.91294 6.22766 9.92707 6.26181C9.9412 6.29593 9.9549 6.33023 9.97071 6.36363C9.98651 6.39704 10.0042 6.42924 10.0216 6.46181C10.039 6.49437 10.0572 6.52829 10.0762 6.55999C10.0952 6.59166 10.1138 6.6238 10.1343 6.65453C10.1549 6.68524 10.1742 6.71213 10.1962 6.74181C10.2182 6.77148 10.2418 6.80051 10.2653 6.82908C10.2887 6.85763 10.3132 6.88896 10.338 6.91635C10.3628 6.94372 10.3882 6.97023 10.4143 6.99635C10.4405 7.02248 10.467 7.04791 10.4943 7.07272C10.5217 7.09752 10.5494 7.122 10.578 7.14544C10.6065 7.16889 10.6356 7.18889 10.6653 7.2109C10.6949 7.23291 10.7255 7.25582 10.7562 7.27635C10.7869 7.29688 10.819 7.31553 10.8507 7.33453C10.8824 7.35351 10.9127 7.37166 10.9453 7.38908C10.9778 7.4065 11.0137 7.42419 11.0471 7.43999C11.0805 7.45579 11.1111 7.46949 11.1453 7.48362C11.1794 7.49776 11.2159 7.51119 11.2507 7.52363C11.2855 7.53606 11.3208 7.54927 11.3562 7.55999C11.3915 7.57071 11.4258 7.5801 11.4616 7.58908C11.4975 7.59806 11.5345 7.6037 11.5707 7.6109C11.6069 7.61812 11.6433 7.62728 11.6798 7.63272C11.7163 7.63815 11.7521 7.64363 11.7889 7.64363C11.8257 7.64363 11.8647 7.65453 11.9016 7.65453C11.9385 7.65453 11.9738 7.65453 12.0107 7.65453C12.0476 7.65453 12.0829 7.65453 12.1198 7.65453C12.1567 7.65453 12.1957 7.64363 12.2325 7.64363C12.2693 7.64363 12.3051 7.63815 12.3416 7.63272C12.3782 7.62728 12.4145 7.61812 12.4507 7.6109C12.4869 7.6037 12.524 7.59806 12.5598 7.58908C12.5956 7.5801 12.6299 7.57071 12.6653 7.55999C12.7006 7.54927 12.7359 7.53606 12.7707 7.52363C12.8055 7.51119 12.842 7.49776 12.8762 7.48362C12.9103 7.46949 12.941 7.45579 12.9743 7.43999C13.0078 7.42419 13.0436 7.4065 13.0762 7.38908C13.1087 7.37166 13.139 7.35351 13.1707 7.33453C13.2024 7.31553 13.2345 7.29688 13.2653 7.27635C13.296 7.25582 13.3265 7.23291 13.3562 7.2109C13.3858 7.18889 13.4149 7.16889 13.4434 7.14544C13.472 7.122 13.4997 7.09752 13.5271 7.07272C13.5544 7.04791 13.5809 7.02248 13.6071 6.99635C13.6332 6.97023 13.6586 6.94372 13.6834 6.91635C13.7082 6.88896 13.7327 6.85763 13.7562 6.82908C13.7796 6.80051 13.8032 6.77148 13.8253 6.74181C13.8473 6.71213 13.8665 6.68524 13.8871 6.65453C13.9076 6.6238 13.9263 6.59166 13.9453 6.55999C13.9642 6.52829 13.986 6.49437 14.0034 6.46181C14.0209 6.42924 14.0349 6.39704 14.0507 6.36363C14.0665 6.33023 14.0838 6.29593 14.098 6.26181C14.1121 6.22766 14.1255 6.19477 14.138 6.15999C14.1504 6.12521 14.16 6.08988 14.1707 6.05453C14.1814 6.01919 14.1908 5.98128 14.1998 5.94544C14.2088 5.90961 14.2181 5.87622 14.2253 5.83999C14.2325 5.80375 14.238 5.76744 14.2434 5.7309C14.2489 5.69436 14.258 5.65492 14.258 5.61817C14.258 5.58139 14.2653 5.54597 14.2653 5.50908C14.2653 5.47219 14.2689 5.43693 14.2689 5.39999C14.2689 5.36305 14.2653 5.32416 14.2653 5.28726C14.2653 5.25037 14.2616 5.21492 14.258 5.17817C14.2543 5.14142 14.2489 5.1056 14.2434 5.06908C14.238 5.03256 14.2325 4.9962 14.2253 4.95999C14.218 4.92378 14.2088 4.88671 14.1998 4.8509C14.1908 4.81509 14.1815 4.78079 14.1707 4.74544C14.16 4.7101 14.1468 4.67477 14.1343 4.63999C14.1219 4.60523 14.1085 4.56865 14.0943 4.53453C14.0802 4.50041 14.0665 4.46608 14.0507 4.43272C14.0349 4.39935 14.0172 4.3671 13.9998 4.33453C13.9824 4.30197 13.9643 4.27166 13.9453 4.23999C13.9263 4.20831 13.9076 4.17615 13.8871 4.14544C13.8665 4.11476 13.8436 4.08419 13.8216 4.05453C13.7996 4.02488 13.7796 3.99581 13.7562 3.96726C13.7327 3.93871 13.7082 3.911 13.6834 3.88363C13.6586 3.85627 13.6332 3.82974 13.6071 3.80363C13.5809 3.77751 13.5544 3.75206 13.5271 3.72726C13.4997 3.70245 13.472 3.67795 13.4434 3.65453C13.4149 3.6311 13.3858 3.60745 13.3562 3.58544C13.3265 3.56343 13.2959 3.54415 13.2653 3.52363C13.2345 3.50309 13.2024 3.48081 13.1707 3.46181C13.139 3.44281 13.1087 3.42468 13.0762 3.40726C13.0436 3.38983 13.0077 3.37579 12.9743 3.35999C12.941 3.34419 12.9066 3.32687 12.8725 3.31272C12.8384 3.29856 12.8055 3.28518 12.7707 3.27272C12.7359 3.26025 12.7006 3.25074 12.6653 3.23999C12.6299 3.22925 12.5956 3.2199 12.5598 3.2109C12.524 3.20188 12.4869 3.19267 12.4507 3.18544C12.4145 3.1782 12.3781 3.17272 12.3416 3.16726C12.3051 3.16181 12.2693 3.15637 12.2325 3.15272C12.1958 3.14906 12.1567 3.14544 12.1198 3.14544C12.0829 3.14544 12.0476 3.14181 12.0107 3.14181Z"   fill="#CC4E1D" ></path><path d="M18.7832 16.0927C18.7709 16.0927 18.7586 16.0924 18.7463 16.0918C18.734 16.0912 18.7217 16.0903 18.7094 16.0891C18.6972 16.0879 18.685 16.0864 18.6728 16.0845C18.6606 16.0827 18.6485 16.0806 18.6364 16.0782C18.6243 16.0758 18.6123 16.0731 18.6004 16.0701C18.5884 16.0671 18.5765 16.0639 18.5648 16.0603C18.553 16.0567 18.5413 16.0529 18.5297 16.0487C18.5181 16.0446 18.5066 16.0401 18.4952 16.0354C18.4838 16.0307 18.4726 16.0257 18.4615 16.0204C18.4503 16.0152 18.4393 16.0096 18.4285 16.0038C18.4176 15.998 18.4069 15.9919 18.3964 15.9856C18.3858 15.9793 18.3754 15.9727 18.3651 15.9659C18.3549 15.959 18.3449 15.952 18.335 15.9446C18.3251 15.9373 18.3153 15.9297 18.3058 15.9219C18.2963 15.9141 18.287 15.906 18.2779 15.8977C18.2687 15.8895 18.2598 15.881 18.2511 15.8723C18.2424 15.8636 18.2339 15.8547 18.2257 15.8455C18.2174 15.8364 18.2093 15.8271 18.2015 15.8176C18.1937 15.8081 18.1861 15.7984 18.1788 15.7885C18.1715 15.7786 18.1644 15.7685 18.1575 15.7583C18.1507 15.748 18.1441 15.7376 18.1378 15.7271C18.1315 15.7165 18.1254 15.7058 18.1196 15.6949C18.1138 15.6841 18.1082 15.6731 18.103 15.6619C18.0977 15.6508 18.0927 15.6396 18.088 15.6282C18.0833 15.6168 18.0789 15.6053 18.0747 15.5937C18.0706 15.5821 18.0667 15.5704 18.0631 15.5586C18.0596 15.5469 18.0563 15.535 18.0533 15.523C18.0503 15.5111 18.0476 15.4991 18.0452 15.487C18.0428 15.4749 18.0407 15.4628 18.0389 15.4506C18.037 15.4384 18.0355 15.4262 18.0343 15.414C18.0331 15.4017 18.0322 15.3894 18.0316 15.3771C18.031 15.3648 18.0307 15.3525 18.0307 15.3402C18.0307 14.2172 17.6749 13.1675 17.029 12.3844C16.4176 11.6433 15.6181 11.2353 14.7756 11.2353L9.24638 11.2353C8.40456 11.2353 7.60436 11.6433 6.99298 12.3844C6.34704 13.1675 5.99126 14.2167 5.99126 15.3402C5.99126 15.3525 5.99096 15.3648 5.99034 15.3771C5.98975 15.3894 5.98885 15.4017 5.98764 15.414C5.98643 15.4262 5.98493 15.4384 5.98312 15.4506C5.98131 15.4628 5.9792 15.4749 5.9768 15.487C5.9744 15.4991 5.9717 15.5111 5.96871 15.523C5.96572 15.535 5.96243 15.5469 5.95886 15.5586C5.95528 15.5704 5.95142 15.5821 5.94727 15.5937C5.94313 15.6053 5.9387 15.6168 5.93398 15.6282C5.92926 15.6396 5.92427 15.6508 5.91902 15.6619C5.91376 15.6731 5.90821 15.6841 5.9024 15.6949C5.8966 15.7058 5.89053 15.7165 5.8842 15.7271C5.87787 15.7376 5.87128 15.748 5.86445 15.7583C5.85761 15.7685 5.85053 15.7786 5.84319 15.7885C5.83585 15.7984 5.82827 15.8081 5.82045 15.8176C5.81264 15.8271 5.8046 15.8364 5.79633 15.8455C5.78806 15.8547 5.77958 15.8636 5.77086 15.8723C5.76216 15.881 5.75325 15.8895 5.74412 15.8977C5.735 15.906 5.72568 15.9141 5.71616 15.9219C5.70663 15.9297 5.69692 15.9373 5.68703 15.9446C5.67714 15.952 5.66707 15.959 5.65684 15.9659C5.6466 15.9727 5.6362 15.9793 5.62563 15.9856C5.61507 15.9919 5.60436 15.998 5.59351 16.0038C5.58265 16.0096 5.57165 16.0152 5.56052 16.0204C5.54939 16.0257 5.53814 16.0307 5.52675 16.0354C5.51537 16.0401 5.50388 16.0446 5.49228 16.0487C5.4807 16.0529 5.46901 16.0567 5.45722 16.0603C5.44543 16.0639 5.43357 16.0671 5.42162 16.0701C5.40968 16.0731 5.39767 16.0758 5.3856 16.0782C5.37351 16.0806 5.36138 16.0827 5.3492 16.0845C5.33702 16.0864 5.3248 16.0879 5.31256 16.0891C5.3003 16.0903 5.28802 16.0912 5.27571 16.0918C5.26342 16.0924 5.25112 16.0927 5.23879 16.0927C5.22647 16.0927 5.21417 16.0924 5.20188 16.0918C5.18957 16.0912 5.17729 16.0903 5.16503 16.0891C5.15279 16.0879 5.14057 16.0864 5.12839 16.0845C5.11621 16.0827 5.10408 16.0806 5.09199 16.0782C5.07992 16.0758 5.06791 16.0731 5.05597 16.0701C5.04402 16.0671 5.03216 16.0639 5.02037 16.0603C5.00858 16.0567 4.99688 16.0529 4.98528 16.0487C4.9737 16.0446 4.96222 16.0401 4.95084 16.0354C4.93945 16.0307 4.9282 16.0257 4.91707 16.0204C4.90594 16.0152 4.89494 16.0096 4.88408 16.0038C4.87321 15.998 4.86251 15.9919 4.85196 15.9856C4.84139 15.9793 4.83099 15.9727 4.82075 15.9659C4.81052 15.959 4.80045 15.952 4.79056 15.9446C4.78067 15.9373 4.77096 15.9297 4.76143 15.9219C4.75191 15.9141 4.74259 15.906 4.73347 15.8977C4.72434 15.8895 4.71543 15.881 4.70673 15.8723C4.69801 15.8636 4.68953 15.8547 4.68126 15.8455C4.67299 15.8364 4.66494 15.8271 4.65714 15.8176C4.64932 15.8081 4.64174 15.7984 4.6344 15.7885C4.62706 15.7786 4.61998 15.7685 4.61314 15.7583C4.60629 15.748 4.59971 15.7376 4.59339 15.7271C4.58706 15.7165 4.58098 15.7058 4.57517 15.6949C4.56937 15.6841 4.56383 15.6731 4.55857 15.6619C4.5533 15.6508 4.54831 15.6396 4.54361 15.6282C4.53889 15.6168 4.53446 15.6053 4.53032 15.5937C4.52617 15.5821 4.52231 15.5704 4.51873 15.5586C4.51516 15.5469 4.51187 15.535 4.50888 15.523C4.50588 15.5111 4.50319 15.4991 4.50079 15.487C4.49839 15.4749 4.49628 15.4628 4.49446 15.4506C4.49266 15.4384 4.49116 15.4262 4.48995 15.414C4.48874 15.4017 4.48784 15.3894 4.48725 15.3771C4.48663 15.3648 4.48633 15.3525 4.48633 15.3402C4.48633 13.8684 4.96438 12.4785 5.83207 11.4267C6.26568 10.9009 6.77406 10.4861 7.34311 10.195C7.37968 10.176 7.41655 10.1576 7.45368 10.1397C7.49081 10.1218 7.5282 10.1045 7.56584 10.0878C7.60349 10.071 7.6414 10.0548 7.67954 10.0392C7.71765 10.0236 7.75601 10.0085 7.79459 9.99402C7.83318 9.97955 7.87198 9.96565 7.91097 9.95232C7.94998 9.939 7.98915 9.92627 8.02854 9.91414C8.06793 9.90199 8.10748 9.89043 8.14719 9.87945C8.18691 9.86849 8.22679 9.85813 8.26684 9.84834C8.30688 9.83858 8.34704 9.82941 8.38735 9.82083C8.42765 9.81226 8.46807 9.80429 8.50864 9.79692C8.5492 9.78955 8.58983 9.78279 8.63058 9.77665C8.67134 9.7705 8.71216 9.76496 8.75307 9.76002C8.79399 9.7551 8.83497 9.75079 8.87601 9.74709C8.91706 9.74337 8.95817 9.74029 8.99929 9.73782C9.04042 9.73535 9.08159 9.73348 9.12277 9.73223C9.16397 9.73099 9.20516 9.73036 9.24638 9.73035L14.7756 9.73035C14.8168 9.73038 14.858 9.73102 14.8992 9.73228C14.9404 9.73353 14.9816 9.7354 15.0227 9.7379C15.0638 9.74039 15.1049 9.74349 15.146 9.74721C15.187 9.75092 15.228 9.75525 15.2689 9.76019C15.3099 9.76514 15.3507 9.7707 15.3914 9.77686C15.4322 9.78302 15.4728 9.78979 15.5134 9.79718C15.5539 9.80454 15.5944 9.81252 15.6347 9.82111C15.675 9.8297 15.7151 9.8389 15.7552 9.8487C15.7952 9.85848 15.8351 9.86886 15.8748 9.87983C15.9146 9.89082 15.9541 9.9024 15.9935 9.91456C16.0329 9.92673 16.0721 9.93947 16.111 9.9528C16.1501 9.96613 16.1888 9.98006 16.2274 9.99456C16.266 10.009 16.3044 10.0241 16.3425 10.0398C16.3806 10.0554 16.4185 10.0716 16.4561 10.0884C16.4938 10.1052 16.5312 10.1225 16.5683 10.1404C16.6054 10.1583 16.6423 10.1767 16.6789 10.1957C17.2479 10.4873 17.7561 10.9011 18.1899 11.4274C19.0576 12.4785 19.5357 13.8684 19.5357 15.3402C19.5357 15.3525 19.5354 15.3648 19.5347 15.3771C19.5342 15.3894 19.5332 15.4017 19.532 15.414C19.5308 15.4262 19.5293 15.4384 19.5275 15.4506C19.5257 15.4628 19.5236 15.4749 19.5212 15.487C19.5188 15.4991 19.5161 15.5111 19.5131 15.523C19.5101 15.535 19.5068 15.5469 19.5033 15.5586C19.4997 15.5704 19.4958 15.5821 19.4917 15.5937C19.4875 15.6053 19.4831 15.6168 19.4784 15.6282C19.4736 15.6396 19.4687 15.6508 19.4634 15.6619C19.4582 15.6731 19.4526 15.6841 19.4468 15.6949C19.441 15.7058 19.4349 15.7165 19.4286 15.7271C19.4223 15.7376 19.4157 15.748 19.4088 15.7583C19.402 15.7685 19.3949 15.7786 19.3876 15.7885C19.3802 15.7984 19.3727 15.8081 19.3648 15.8176C19.357 15.8271 19.349 15.8364 19.3407 15.8455C19.3325 15.8547 19.324 15.8636 19.3153 15.8723C19.3066 15.881 19.2976 15.8895 19.2885 15.8977C19.2794 15.906 19.2701 15.9141 19.2606 15.9219C19.251 15.9297 19.2413 15.9373 19.2314 15.9446C19.2215 15.952 19.2115 15.959 19.2012 15.9659C19.191 15.9727 19.1806 15.9793 19.17 15.9856C19.1595 15.9919 19.1487 15.998 19.1379 16.0038C19.127 16.0096 19.116 16.0152 19.1049 16.0204C19.0938 16.0257 19.0825 16.0307 19.0711 16.0354C19.0598 16.0401 19.0483 16.0446 19.0367 16.0487C19.0251 16.0529 19.0134 16.0567 19.0016 16.0603C18.9898 16.0639 18.978 16.0671 18.966 16.0701C18.9541 16.0731 18.9421 16.0758 18.93 16.0782C18.9179 16.0806 18.9058 16.0827 18.8936 16.0845C18.8814 16.0864 18.8692 16.0879 18.857 16.0891C18.8447 16.0903 18.8324 16.0912 18.8201 16.0918C18.8078 16.0924 18.7955 16.0927 18.7832 16.0927Z"   fill="#CC4E1D" ></path><path d="M12.0043 12.1106L11.2255 14.0727C11.2229 14.0793 11.2205 14.086 11.2184 14.0929C11.2163 14.0997 11.2144 14.1066 11.2128 14.1135C11.2111 14.1205 11.2098 14.1275 11.2087 14.1345C11.2076 14.1416 11.2067 14.1487 11.2061 14.1558C11.2055 14.1629 11.2052 14.17 11.2051 14.1772C11.205 14.1843 11.2052 14.1915 11.2056 14.1986C11.2061 14.2057 11.2068 14.2128 11.2077 14.2199C11.2087 14.227 11.2099 14.234 11.2114 14.241C11.2128 14.248 11.2145 14.2549 11.2165 14.2618C11.2185 14.2687 11.2207 14.2755 11.2231 14.2822C11.2256 14.2889 11.2283 14.2955 11.2312 14.302C11.2341 14.3085 11.2373 14.3149 11.2407 14.3212C11.2441 14.3275 11.2477 14.3336 11.2516 14.3396C11.2554 14.3457 11.2595 14.3516 11.2638 14.3573C11.268 14.363 11.2725 14.3686 11.2772 14.3739C11.2819 14.3794 11.2867 14.3846 11.2918 14.3896L11.8091 14.9069C11.8125 14.9104 11.8159 14.9137 11.8195 14.9169C11.823 14.9202 11.8266 14.9233 11.8303 14.9264C11.834 14.9294 11.8378 14.9324 11.8417 14.9353C11.8455 14.9382 11.8494 14.9409 11.8534 14.9436C11.8574 14.9463 11.8614 14.9489 11.8656 14.9514C11.8697 14.9538 11.8738 14.9562 11.8781 14.9585C11.8823 14.9608 11.8866 14.963 11.8909 14.9651C11.8952 14.9671 11.8996 14.9691 11.904 14.9709C11.9085 14.9728 11.9129 14.9745 11.9174 14.9762C11.922 14.9778 11.9265 14.9793 11.9311 14.9807C11.9357 14.9822 11.9403 14.9835 11.945 14.9846C11.9496 14.9858 11.9543 14.9869 11.959 14.9879C11.9637 14.9888 11.9684 14.9896 11.9732 14.9904C11.9779 14.9911 11.9827 14.9917 11.9875 14.9922C11.9922 14.9927 11.997 14.9931 12.0018 14.9933C12.0066 14.9936 12.0114 14.9937 12.0162 14.9938C12.021 14.9938 12.0258 14.9937 12.0306 14.9935C12.0354 14.9932 12.0402 14.9929 12.045 14.9925C12.0498 14.992 12.0545 14.9915 12.0593 14.9908C12.064 14.9901 12.0688 14.9893 12.0735 14.9884C12.0782 14.9875 12.0829 14.9865 12.0876 14.9853C12.0922 14.9841 12.0969 14.9829 12.1014 14.9815C12.1061 14.9802 12.1106 14.9787 12.1152 14.9771C12.1197 14.9755 12.1242 14.9738 12.1286 14.9719C12.1331 14.9701 12.1375 14.9682 12.1418 14.9662C12.1462 14.9641 12.1505 14.962 12.1547 14.9598C12.1589 14.9575 12.1631 14.9552 12.1673 14.9527C12.1714 14.9503 12.1755 14.9477 12.1795 14.9451C12.1835 14.9424 12.1874 14.9397 12.1913 14.9369C12.1952 14.934 12.199 14.9311 12.2027 14.9281C12.2064 14.925 12.2101 14.9219 12.2136 14.9187C12.2172 14.9155 12.2207 14.9122 12.2241 14.9088L12.7367 14.3962C12.7418 14.3912 12.7466 14.3859 12.7513 14.3805C12.7559 14.3751 12.7604 14.3696 12.7646 14.3638C12.7688 14.3581 12.7729 14.3522 12.7767 14.3462C12.7805 14.3402 12.7841 14.334 12.7874 14.3277C12.7908 14.3214 12.7939 14.315 12.7968 14.3085C12.7997 14.302 12.8023 14.2954 12.8047 14.2887C12.8072 14.282 12.8093 14.2752 12.8112 14.2683C12.8131 14.2615 12.8148 14.2545 12.8162 14.2475C12.8176 14.2405 12.8187 14.2335 12.8196 14.2264C12.8205 14.2194 12.8211 14.2123 12.8215 14.2052C12.8219 14.198 12.822 14.1909 12.8218 14.1838C12.8217 14.1767 12.8213 14.1695 12.8206 14.1624C12.8199 14.1553 12.819 14.1483 12.8178 14.1412C12.8166 14.1342 12.8151 14.1272 12.8134 14.1203C12.8117 14.1134 12.8098 14.1066 12.8076 14.0998C12.8054 14.093 12.8029 14.0863 12.8002 14.0797L12.0043 12.1106Z"   fill="#CC4E1D" ></path><path d="M12.4664 12.6574L11.556 12.6574C11.5524 12.6574 11.5488 12.6573 11.5453 12.6571C11.5417 12.657 11.5381 12.6567 11.5346 12.6564C11.531 12.6561 11.5275 12.6557 11.524 12.6553C11.5204 12.6548 11.5169 12.6543 11.5134 12.6537C11.5099 12.6531 11.5064 12.6525 11.5029 12.6517C11.4994 12.651 11.4959 12.6502 11.4925 12.6493C11.489 12.6484 11.4856 12.6474 11.4822 12.6464C11.4788 12.6454 11.4754 12.6443 11.472 12.6431C11.4686 12.642 11.4653 12.6407 11.462 12.6394C11.4587 12.6381 11.4554 12.6367 11.4521 12.6353C11.4489 12.6338 11.4456 12.6323 11.4424 12.6308C11.4392 12.6292 11.4361 12.6275 11.4329 12.6258C11.4298 12.6241 11.4267 12.6224 11.4237 12.6205C11.4206 12.6187 11.4176 12.6168 11.4146 12.6149C11.4116 12.6129 11.4087 12.6109 11.4058 12.6088C11.4029 12.6067 11.4 12.6046 11.3972 12.6024C11.3944 12.6002 11.3917 12.5979 11.389 12.5956C11.3862 12.5933 11.3836 12.5909 11.381 12.5885C11.3783 12.5861 11.3758 12.5836 11.3733 12.5811C11.3708 12.5786 11.3683 12.576 11.3659 12.5733C11.3635 12.5707 11.3611 12.568 11.3588 12.5653C11.3565 12.5626 11.3543 12.5598 11.3521 12.557C11.3499 12.5542 11.3478 12.5513 11.3458 12.5484C11.3437 12.5455 11.3417 12.5426 11.3397 12.5396C11.3378 12.5366 11.3359 12.5336 11.3341 12.5305C11.3323 12.5274 11.3305 12.5243 11.3288 12.5212C11.3272 12.518 11.3255 12.5149 11.324 12.5116C11.3224 12.5084 11.3209 12.5052 11.3195 12.5019C11.3181 12.4987 11.3167 12.4954 11.3154 12.4921C11.3142 12.4887 11.3129 12.4854 11.3118 12.482C11.3107 12.4786 11.3096 12.4752 11.3086 12.4718C11.3076 12.4684 11.3066 12.465 11.3058 12.4615L11.1825 11.9677C11.1813 11.9629 11.1803 11.9582 11.1794 11.9533C11.1785 11.9485 11.1777 11.9437 11.177 11.9389C11.1764 11.934 11.1759 11.9291 11.1755 11.9243C11.1752 11.9194 11.1749 11.9145 11.1749 11.9096C11.1748 11.9047 11.1748 11.8998 11.175 11.8949C11.1752 11.89 11.1755 11.8852 11.176 11.8803C11.1765 11.8754 11.1771 11.8706 11.1778 11.8657C11.1785 11.8609 11.1794 11.8561 11.1804 11.8513C11.1814 11.8465 11.1826 11.8417 11.1839 11.837C11.1852 11.8323 11.1866 11.8276 11.1881 11.823C11.1897 11.8183 11.1914 11.8137 11.1932 11.8092C11.195 11.8047 11.1969 11.8002 11.199 11.7957C11.201 11.7913 11.2032 11.7869 11.2055 11.7826C11.2079 11.7783 11.2103 11.774 11.2129 11.7699C11.2154 11.7657 11.2181 11.7616 11.2209 11.7576C11.2237 11.7535 11.2266 11.7496 11.2296 11.7458C11.2326 11.7419 11.2357 11.7381 11.2389 11.7344C11.2421 11.7308 11.2455 11.7272 11.2489 11.7237C11.2523 11.7202 11.2559 11.7168 11.2595 11.7135C11.2631 11.7102 11.2668 11.707 11.2706 11.7039C11.2744 11.7009 11.2783 11.6979 11.2823 11.695C11.2862 11.6922 11.2903 11.6894 11.2944 11.6868C11.2985 11.6842 11.3027 11.6817 11.307 11.6793C11.3113 11.6769 11.3156 11.6746 11.32 11.6725C11.3244 11.6703 11.3289 11.6683 11.3334 11.6664C11.3379 11.6645 11.3424 11.6627 11.3471 11.6611C11.3517 11.6595 11.3563 11.658 11.361 11.6566C11.3657 11.6552 11.3705 11.654 11.3752 11.6529C11.38 11.6518 11.3848 11.6508 11.3896 11.65C11.3944 11.6491 11.3993 11.6485 11.4041 11.6479C11.409 11.6473 11.4139 11.6469 11.4188 11.6467C11.4237 11.6464 11.4286 11.6462 11.4334 11.6462L12.5908 11.6462C12.5957 11.6462 12.6006 11.6464 12.6055 11.6467C12.6104 11.6469 12.6153 11.6473 12.6201 11.6479C12.625 11.6485 12.6298 11.6491 12.6347 11.65C12.6395 11.6508 12.6443 11.6518 12.649 11.6529C12.6538 11.654 12.6585 11.6552 12.6632 11.6566C12.6679 11.658 12.6726 11.6595 12.6772 11.6611C12.6818 11.6627 12.6864 11.6645 12.6909 11.6664C12.6954 11.6683 12.6999 11.6703 12.7043 11.6725C12.7087 11.6746 12.713 11.6769 12.7173 11.6793C12.7215 11.6817 12.7257 11.6842 12.7298 11.6868C12.734 11.6894 12.738 11.6922 12.742 11.695C12.746 11.6979 12.7499 11.7009 12.7537 11.7039C12.7575 11.707 12.7612 11.7102 12.7648 11.7135C12.7684 11.7168 12.7719 11.7202 12.7754 11.7237C12.7788 11.7272 12.7821 11.7308 12.7853 11.7344C12.7886 11.7381 12.7917 11.7419 12.7947 11.7458C12.7977 11.7496 12.8006 11.7535 12.8034 11.7576C12.8062 11.7616 12.8089 11.7657 12.8114 11.7699C12.814 11.774 12.8164 11.7783 12.8187 11.7826C12.821 11.7869 12.8232 11.7913 12.8253 11.7957C12.8274 11.8002 12.8293 11.8047 12.8311 11.8092C12.8329 11.8137 12.8346 11.8183 12.8362 11.823C12.8377 11.8276 12.8391 11.8323 12.8404 11.837C12.8417 11.8417 12.8428 11.8465 12.8438 11.8513C12.8449 11.8561 12.8457 11.8609 12.8465 11.8657C12.8472 11.8706 12.8478 11.8754 12.8483 11.8803C12.8488 11.8852 12.8491 11.89 12.8493 11.8949C12.8495 11.8998 12.8495 11.9047 12.8494 11.9096C12.8493 11.9145 12.8491 11.9194 12.8487 11.9243C12.8484 11.9292 12.8479 11.934 12.8472 11.9389C12.8466 11.9437 12.8458 11.9485 12.8449 11.9533C12.844 11.9582 12.8429 11.9629 12.8417 11.9677L12.7185 12.4615C12.7177 12.465 12.7167 12.4684 12.7157 12.4719C12.7147 12.4753 12.7136 12.4787 12.7124 12.4821C12.7113 12.4855 12.7101 12.4889 12.7088 12.4922C12.7075 12.4956 12.7061 12.4989 12.7047 12.5021C12.7032 12.5054 12.7017 12.5087 12.7002 12.5119C12.6986 12.5151 12.6969 12.5183 12.6953 12.5215C12.6935 12.5246 12.6918 12.5277 12.69 12.5308C12.6881 12.5339 12.6862 12.5369 12.6843 12.54C12.6823 12.543 12.6803 12.5459 12.6782 12.5488C12.6761 12.5518 12.674 12.5546 12.6718 12.5575C12.6696 12.5603 12.6673 12.5631 12.665 12.5658C12.6627 12.5685 12.6603 12.5712 12.6579 12.5739C12.6555 12.5765 12.653 12.5791 12.6505 12.5816C12.6479 12.5842 12.6454 12.5867 12.6427 12.5891C12.6401 12.5915 12.6374 12.5939 12.6346 12.5962C12.6319 12.5985 12.6291 12.6008 12.6263 12.603C12.6235 12.6052 12.6206 12.6073 12.6177 12.6094C12.6148 12.6115 12.6118 12.6135 12.6088 12.6154C12.6058 12.6174 12.6027 12.6193 12.5997 12.6211C12.5966 12.6229 12.5935 12.6247 12.5903 12.6264C12.5872 12.6281 12.584 12.6297 12.5807 12.6313C12.5775 12.6329 12.5743 12.6344 12.571 12.6358C12.5677 12.6372 12.5644 12.6386 12.561 12.6399C12.5577 12.6412 12.5543 12.6424 12.5509 12.6436C12.5475 12.6447 12.5441 12.6458 12.5407 12.6468C12.5372 12.6478 12.5338 12.6488 12.5303 12.6497C12.5268 12.6505 12.5233 12.6513 12.5198 12.652C12.5163 12.6528 12.5128 12.6534 12.5093 12.654C12.5057 12.6546 12.5022 12.6551 12.4986 12.6555C12.495 12.6559 12.4915 12.6563 12.4879 12.6566C12.4844 12.6568 12.4808 12.6571 12.4772 12.6572C12.4736 12.6573 12.47 12.6574 12.4664 12.6574Z"   fill="#CC4E1D" ></path><path d="M18.7635 21.9999L5.258 21.9999C5.23261 21.9999 5.20701 21.9999 5.18164 21.9999C5.15627 21.9999 5.1306 21.9926 5.10528 21.9926C5.07995 21.9926 5.05412 21.9854 5.02891 21.9854C5.00368 21.9854 4.97764 21.982 4.95255 21.9781C4.92746 21.9742 4.90472 21.9685 4.87982 21.9636C4.85492 21.9586 4.82817 21.9549 4.80346 21.949C4.77877 21.9431 4.75516 21.9341 4.73073 21.9272C4.7063 21.9203 4.68215 21.9132 4.658 21.9054C4.63385 21.8975 4.6091 21.8887 4.58528 21.8799C4.56146 21.8711 4.53963 21.8642 4.51619 21.8545C4.49273 21.8447 4.47014 21.8324 4.44709 21.8217C4.42404 21.8111 4.40061 21.8006 4.378 21.789C4.3554 21.7774 4.33105 21.7651 4.30891 21.7526C4.28678 21.7402 4.26508 21.7296 4.24346 21.7163C4.22184 21.703 4.20273 21.6868 4.18164 21.6726C4.16057 21.6585 4.13669 21.644 4.11619 21.629C4.09568 21.614 4.0779 21.6012 4.058 21.5854C4.03813 21.5696 4.01907 21.551 3.99982 21.5345C3.98057 21.5179 3.96022 21.5009 3.94164 21.4836C3.92306 21.4662 3.90497 21.4507 3.8871 21.4326C3.86921 21.4146 3.85332 21.3932 3.83619 21.3745C3.81904 21.3557 3.80168 21.3393 3.78528 21.3199C3.7689 21.3005 3.74998 21.2781 3.73437 21.2581C3.71875 21.2381 3.70553 21.2205 3.69073 21.1999C3.67592 21.1793 3.66106 21.1557 3.6471 21.1345C3.63313 21.1133 3.62022 21.0944 3.6071 21.0726C3.59396 21.0509 3.57934 21.0294 3.5671 21.0072C3.55485 20.9849 3.54573 20.9608 3.53437 20.9381C3.523 20.9154 3.51208 20.8922 3.50164 20.869C3.49118 20.8459 3.47845 20.8235 3.46891 20.7999C3.4594 20.7764 3.45205 20.7511 3.44346 20.7272C3.43489 20.7033 3.42564 20.6787 3.418 20.6545L2.27619 17.3054C2.27619 17.2993 2.26891 17.2933 2.26891 17.2872C2.25764 17.2512 2.24897 17.2147 2.23982 17.1781C2.23068 17.1415 2.22136 17.1024 2.21437 17.0654C2.20738 17.0283 2.201 16.9936 2.19619 16.9563C2.19138 16.9189 2.18528 16.8812 2.18528 16.8436C2.18528 16.806 2.18164 16.7685 2.18164 16.7308C2.18164 16.6931 2.18528 16.6557 2.18528 16.6181C2.18528 16.5805 2.18854 16.5428 2.19255 16.5054C2.19656 16.4679 2.2009 16.4298 2.2071 16.3926C2.21329 16.3555 2.22055 16.3167 2.22891 16.2799C2.23728 16.2432 2.2475 16.207 2.258 16.1708C2.2685 16.1346 2.28176 16.1009 2.29437 16.0654C2.30697 16.0299 2.31971 15.9947 2.33437 15.9599C2.34904 15.9252 2.36498 15.8883 2.38164 15.8545C2.39832 15.8207 2.41393 15.789 2.43255 15.7563C2.45116 15.7235 2.47021 15.6897 2.49073 15.6581C2.51124 15.6265 2.53386 15.5976 2.55619 15.5672C2.57851 15.5368 2.6012 15.5053 2.62528 15.4763C2.64934 15.4473 2.67592 15.4202 2.70164 15.3926C2.72737 15.3651 2.75435 15.3386 2.78164 15.3126C2.80893 15.2867 2.83651 15.2606 2.86528 15.2363C2.89404 15.2119 2.9224 15.1898 2.95255 15.1672C2.9827 15.1446 3.01203 15.1225 3.04346 15.1017C3.07487 15.0809 3.10907 15.0625 3.14164 15.0436C3.17423 15.0246 3.20618 15.006 3.23982 14.989C3.27345 14.972 3.30706 14.9567 3.34164 14.9417C3.37622 14.9267 3.41172 14.911 3.4471 14.8981C3.48249 14.8851 3.5201 14.8726 3.55619 14.8617C3.59229 14.8509 3.62861 14.8413 3.66528 14.8326C3.70193 14.8239 3.73725 14.8174 3.77437 14.8108C3.81147 14.8043 3.84966 14.797 3.8871 14.7926C3.92453 14.7883 3.9622 14.7854 3.99982 14.7854C4.03745 14.7854 4.07487 14.7817 4.11255 14.7817L19.9089 14.7817C19.9466 14.7817 19.984 14.7854 20.0216 14.7854C20.0592 14.7854 20.097 14.7882 20.1344 14.7926C20.1718 14.797 20.21 14.8042 20.2471 14.8108C20.2842 14.8174 20.3195 14.8239 20.3562 14.8326C20.3928 14.8414 20.4292 14.8509 20.4653 14.8617C20.5013 14.8726 20.539 14.8851 20.5744 14.8981C20.6098 14.9111 20.6453 14.9267 20.6798 14.9417C20.7144 14.9568 20.748 14.972 20.7816 14.989C20.8152 15.006 20.8473 15.0246 20.8798 15.0436C20.9124 15.0625 20.943 15.0809 20.9744 15.1017C21.0058 15.1225 21.0388 15.1446 21.0689 15.1672C21.099 15.1898 21.1274 15.2119 21.1562 15.2363C21.1849 15.2606 21.2125 15.2867 21.2398 15.3126C21.2671 15.3386 21.2941 15.3651 21.3198 15.3926C21.3455 15.4202 21.3721 15.4509 21.3962 15.4799C21.4202 15.5089 21.443 15.5368 21.4653 15.5672C21.4876 15.5976 21.5066 15.6301 21.5271 15.6617C21.5476 15.6933 21.5703 15.7235 21.5889 15.7563C21.6075 15.789 21.6232 15.8243 21.6398 15.8581C21.6565 15.8919 21.6724 15.9252 21.6871 15.9599C21.7017 15.9946 21.7145 16.0299 21.7271 16.0654C21.7397 16.1009 21.7529 16.1346 21.7635 16.1708C21.774 16.207 21.7842 16.2432 21.7925 16.2799C21.8009 16.3167 21.8082 16.3555 21.8144 16.3926C21.8206 16.4298 21.8249 16.4679 21.8289 16.5054C21.8329 16.5428 21.8362 16.5805 21.8362 16.6181C21.8362 16.6557 21.8398 16.6932 21.8398 16.7308C21.8398 16.7685 21.8362 16.806 21.8362 16.8436C21.8362 16.8811 21.8301 16.9189 21.8253 16.9563C21.8205 16.9936 21.814 17.0283 21.8071 17.0654C21.8001 17.1024 21.7907 17.1415 21.7816 17.1781C21.7725 17.2146 21.7638 17.2512 21.7526 17.2872C21.7526 17.2933 21.7453 17.2993 21.7453 17.3054L20.6035 20.6581C20.5958 20.6823 20.5866 20.7033 20.578 20.7272C20.5694 20.7511 20.5621 20.7764 20.5525 20.7999C20.543 20.8235 20.5303 20.8458 20.5198 20.869C20.5094 20.8921 20.4985 20.9154 20.4871 20.9381C20.4757 20.9608 20.4666 20.9849 20.4544 21.0072C20.4421 21.0294 20.4275 21.0509 20.4144 21.0726C20.4012 21.0944 20.3884 21.1133 20.3744 21.1345C20.3604 21.1557 20.3455 21.1793 20.3307 21.1999C20.3159 21.2205 20.3027 21.2417 20.2871 21.2617C20.2715 21.2817 20.2526 21.3005 20.2362 21.3199C20.2198 21.3393 20.2061 21.3557 20.1889 21.3745C20.1718 21.3932 20.1523 21.4146 20.1344 21.4326C20.1165 21.4507 20.0984 21.4662 20.0798 21.4836C20.0612 21.5009 20.0409 21.5179 20.0216 21.5345C20.0024 21.551 19.9833 21.5696 19.9635 21.5854C19.9436 21.6012 19.9258 21.614 19.9053 21.629C19.8848 21.644 19.8609 21.6585 19.8398 21.6726C19.8187 21.6868 19.7996 21.703 19.778 21.7163C19.7564 21.7296 19.7347 21.7402 19.7125 21.7526C19.6904 21.7651 19.6661 21.7775 19.6435 21.789C19.6208 21.8006 19.601 21.8111 19.578 21.8217C19.555 21.8324 19.5287 21.8447 19.5053 21.8545C19.4818 21.8642 19.46 21.8711 19.4362 21.8799C19.4124 21.8887 19.3876 21.8975 19.3635 21.9054C19.3393 21.9132 19.3152 21.9203 19.2907 21.9272C19.2663 21.9341 19.2427 21.9431 19.218 21.949C19.1933 21.9549 19.1665 21.9586 19.1416 21.9636C19.1167 21.9685 19.094 21.9742 19.0689 21.9781C19.0438 21.982 19.0178 21.9854 18.9925 21.9854C18.9673 21.9854 18.9415 21.9926 18.9162 21.9926C18.8909 21.9926 18.8652 21.9999 18.8398 21.9999C18.8145 21.9999 18.7889 21.9999 18.7635 21.9999ZM3.70528 16.829L4.8471 20.1781C4.8471 20.1842 4.85073 20.1902 4.85073 20.1963C4.85073 20.2016 4.858 20.2092 4.858 20.2145C4.858 20.2198 4.86528 20.2238 4.86528 20.229C4.86528 20.2342 4.86891 20.2384 4.86891 20.2436C4.86891 20.2487 4.87619 20.2531 4.87619 20.2581C4.87619 20.2631 4.88346 20.2677 4.88346 20.2726C4.88346 20.2776 4.89437 20.286 4.89437 20.2908C4.89437 20.2957 4.90164 20.2971 4.90164 20.3017C4.90164 20.3064 4.91255 20.3117 4.91255 20.3163C4.91255 20.3209 4.92346 20.3264 4.92346 20.3308C4.92346 20.3353 4.93073 20.3411 4.93073 20.3454C4.93073 20.3497 4.93785 20.3521 4.94164 20.3563C4.9454 20.3604 4.95226 20.3632 4.95619 20.3672C4.96011 20.3712 4.96298 20.3779 4.9671 20.3817C4.97119 20.3856 4.97377 20.389 4.978 20.3926C4.98226 20.3963 4.98818 20.4036 4.99255 20.4036C4.99695 20.4036 5.00258 20.4145 5.0071 20.4145C5.01163 20.4145 5.01337 20.4217 5.018 20.4217C5.02266 20.4217 5.02778 20.4326 5.03255 20.4326C5.03732 20.4326 5.0422 20.4399 5.0471 20.4399C5.05196 20.4399 5.05666 20.4472 5.06164 20.4472C5.06665 20.4472 5.07474 20.4545 5.07982 20.4545C5.08493 20.4545 5.08919 20.4617 5.09437 20.4617C5.09954 20.4617 5.10365 20.469 5.10891 20.469C5.11416 20.469 5.11812 20.4726 5.12346 20.4726C5.1288 20.4726 5.13623 20.4799 5.14164 20.4799C5.14703 20.4799 5.15073 20.4836 5.15619 20.4836C5.16164 20.4836 5.16887 20.4872 5.17437 20.4872C5.17987 20.4872 5.18339 20.4908 5.18891 20.4908C5.19446 20.4908 5.20152 20.4908 5.2071 20.4908C5.21267 20.4908 5.21968 20.4945 5.22528 20.4945C5.23087 20.4945 5.2342 20.4945 5.23982 20.4945C5.24542 20.4945 5.25238 20.4945 5.258 20.4945L18.7635 20.4945C18.7691 20.4945 18.776 20.4945 18.7816 20.4945C18.7872 20.4945 18.7906 20.4945 18.7962 20.4945C18.8018 20.4945 18.8088 20.4908 18.8144 20.4908C18.8199 20.4908 18.827 20.4908 18.8326 20.4908C18.8381 20.4908 18.8416 20.4872 18.8471 20.4872C18.8526 20.4872 18.8598 20.4836 18.8653 20.4836C18.8707 20.4836 18.8744 20.4799 18.8798 20.4799C18.8852 20.4799 18.8927 20.4726 18.898 20.4726C18.9033 20.4726 18.9073 20.469 18.9125 20.469C18.9178 20.469 18.9219 20.4617 18.9271 20.4617C18.9323 20.4617 18.9402 20.4545 18.9453 20.4545C18.9504 20.4545 18.9548 20.4472 18.9598 20.4472C18.9648 20.4472 18.9695 20.4399 18.9744 20.4399C18.9792 20.4399 18.9841 20.4326 18.9889 20.4326C18.9937 20.4326 18.9988 20.4217 19.0035 20.4217C19.0081 20.4217 19.0098 20.4145 19.0144 20.4145C19.0189 20.4145 19.0245 20.4036 19.0289 20.4036C19.0333 20.4036 19.0392 20.3963 19.0435 20.3926C19.0477 20.389 19.0503 20.3856 19.0544 20.3817C19.0585 20.3779 19.0613 20.3712 19.0653 20.3672C19.0692 20.3632 19.076 20.3604 19.0798 20.3563C19.0836 20.3521 19.0907 20.3497 19.0907 20.3454C19.0907 20.3411 19.1016 20.3353 19.1016 20.3308C19.1016 20.3264 19.1089 20.3209 19.1089 20.3163C19.1089 20.3117 19.1198 20.3064 19.1198 20.3017C19.1198 20.2971 19.1271 20.2957 19.1271 20.2908C19.1271 20.286 19.138 20.2776 19.138 20.2726C19.138 20.2677 19.1453 20.2631 19.1453 20.2581C19.1453 20.2531 19.1525 20.2487 19.1525 20.2436C19.1525 20.2384 19.1598 20.2342 19.1598 20.229C19.1598 20.2238 19.1635 20.2198 19.1635 20.2145C19.1635 20.2092 19.1707 20.2016 19.1707 20.1963L19.1744 20.1781L20.3162 16.829C20.3162 16.8211 20.3235 16.8152 20.3235 16.8072C20.3235 16.7992 20.3271 16.7898 20.3271 16.7817C20.3271 16.7736 20.3307 16.7644 20.3307 16.7563C20.3307 16.7481 20.3344 16.7427 20.3344 16.7345C20.3344 16.7263 20.3344 16.7172 20.3344 16.709C20.3344 16.7008 20.3344 16.6918 20.3344 16.6836C20.3344 16.6754 20.3307 16.6663 20.3307 16.6581C20.3307 16.6499 20.3271 16.6444 20.3271 16.6363C20.3271 16.6282 20.3235 16.6188 20.3235 16.6108C20.3235 16.6028 20.3162 16.5932 20.3162 16.5854C20.3162 16.5775 20.3089 16.5713 20.3089 16.5636C20.3089 16.5559 20.298 16.5493 20.298 16.5417C20.298 16.5342 20.2908 16.5272 20.2871 16.5199C20.2834 16.5126 20.2803 16.5052 20.2762 16.4981C20.272 16.491 20.2698 16.4831 20.2653 16.4763C20.2607 16.4694 20.2556 16.461 20.2507 16.4545C20.2458 16.4479 20.2378 16.4426 20.2325 16.4363C20.2273 16.43 20.2236 16.4241 20.218 16.4181C20.2123 16.4122 20.2058 16.4055 20.1998 16.3999C20.1938 16.3943 20.1879 16.3906 20.1816 16.3854C20.1753 16.3801 20.17 16.3757 20.1635 16.3708C20.1569 16.3659 20.1485 16.3608 20.1416 16.3563C20.1348 16.3518 20.1269 16.3458 20.1198 16.3417C20.1127 16.3376 20.1053 16.3345 20.098 16.3308C20.0906 16.3271 20.0837 16.3199 20.0762 16.3199C20.0686 16.3199 20.0621 16.3126 20.0544 16.3126C20.0467 16.3126 20.0404 16.3054 20.0326 16.3054C20.0247 16.3054 20.0151 16.2981 20.0071 16.2981C19.9991 16.2981 19.9897 16.2908 19.9816 16.2908C19.9736 16.2908 19.968 16.2872 19.9598 16.2872C19.9517 16.2872 19.9426 16.2872 19.9344 16.2872C19.9262 16.2872 19.9171 16.2872 19.9089 16.2872L4.11255 16.2872C4.10434 16.2872 4.09529 16.2872 4.0871 16.2872C4.0789 16.2872 4.06979 16.2872 4.06164 16.2872C4.05349 16.2872 4.04791 16.2908 4.03982 16.2908C4.03173 16.2908 4.02236 16.2981 4.01437 16.2981C4.00637 16.2981 3.99678 16.3054 3.98891 16.3054C3.98105 16.3054 3.97481 16.3126 3.9671 16.3126C3.95937 16.3126 3.95282 16.3199 3.94528 16.3199C3.93774 16.3199 3.93081 16.3271 3.92346 16.3308C3.91612 16.3345 3.90876 16.3376 3.90164 16.3417C3.89453 16.3458 3.88671 16.3518 3.87982 16.3563C3.87296 16.3608 3.8646 16.3659 3.858 16.3708C3.85142 16.3757 3.84612 16.3801 3.83982 16.3854C3.83352 16.3906 3.82763 16.3943 3.82164 16.3999C3.81565 16.4055 3.80912 16.4122 3.80346 16.4181C3.79782 16.4241 3.79421 16.43 3.78891 16.4363C3.78362 16.4426 3.77565 16.4479 3.77073 16.4545C3.76581 16.461 3.76072 16.4694 3.75619 16.4763C3.75166 16.4831 3.74942 16.491 3.74528 16.4981C3.74115 16.5052 3.73808 16.5126 3.73437 16.5199C3.73067 16.5272 3.72346 16.5342 3.72346 16.5417C3.72346 16.5493 3.71255 16.5559 3.71255 16.5636C3.71255 16.5713 3.70528 16.5775 3.70528 16.5854C3.70528 16.5932 3.698 16.6028 3.698 16.6108C3.698 16.6188 3.69437 16.6282 3.69437 16.6363C3.69437 16.6444 3.69073 16.6499 3.69073 16.6581C3.69073 16.6663 3.6871 16.6754 3.6871 16.6836C3.6871 16.6918 3.6871 16.7008 3.6871 16.709C3.6871 16.7172 3.6871 16.7263 3.6871 16.7345C3.6871 16.7427 3.69073 16.7481 3.69073 16.7563C3.69073 16.7644 3.69437 16.7736 3.69437 16.7817C3.69437 16.7898 3.698 16.7992 3.698 16.8072C3.698 16.8152 3.70528 16.8211 3.70528 16.829Z"   fill="#034FA1" ></path></svg>