<svg xmlns="http://www.w3.org/2000/svg" xmlns:xlink="http://www.w3.org/1999/xlink" width="24" height="24" viewBox="0 0 24 24" fill="none"><g ><path     fill="#CC4E1D"  d="M13.5703 12.45L13.5703 13.66L4.92031 13.66L4.92031 12.45L7.54031 12.45L7.54031 10.96L6.64031 11.53Q6.55031 11.3 6.42531 10.99Q6.30031 10.68 6.15031 10.33Q6.00031 9.98 5.84031 9.62Q5.68031 9.26 5.53531 8.94Q5.39031 8.62 5.26531 8.365Q5.14031 8.11 5.06031 7.97L6.13031 7.4Q6.23031 7.55 6.40531 7.89Q6.58031 8.23 6.78531 8.645Q6.99031 9.06 7.19031 9.495Q7.39031 9.93 7.54031 10.29L7.54031 6.56L5.32031 6.56L5.32031 5.33L13.1703 5.33L13.1703 6.56L10.9203 6.56L10.9203 10.27Q11.1303 9.92 11.3303 9.54Q11.5303 9.16 11.7103 8.785Q11.8903 8.41 12.0453 8.055Q12.2003 7.7 12.3103 7.4L13.3803 7.95Q13.2703 8.29 13.0753 8.75Q12.8803 9.21 12.6403 9.7Q12.4003 10.19 12.1453 10.655Q11.8903 11.12 11.6703 11.46L10.9203 11.02L10.9203 12.45L13.5703 12.45ZM8.80031 12.45L9.68031 12.45L9.68031 6.56L8.80031 6.56L8.80031 12.45Z"></path></g><path   fill="rgba(3, 79, 161, 1)"  d="M19.91 10.6599L19.91 5.6669L20.71 5.6669L19.91 5.6669C19.91 4.55845 19.0114 3.65987 17.903 3.65988L17.903 2.85988L17.903 3.65988L5.30701 3.65995L5.307 2.85995L5.30701 3.65995L5.307 2.85995L5.30701 3.65995Q4.89815 3.65996 4.52603 3.81735Q4.166 3.96963 3.88784 4.2478Q3.60967 4.52597 3.45739 4.886Q3.3 5.25812 3.3 5.66697L3.3 5.66697L3.3 18.613L2.5 18.613L3.3 18.613C3.3 19.7214 4.19859 20.62 5.30705 20.62L5.30705 20.62L12.48 20.6199L12.48 22.2199L5.30708 22.22L5.30707 21.42L5.30708 22.22C3.31495 22.22 1.7 20.6051 1.7 18.613L1.7 18.613L1.7 5.66697L2.5 5.66697L1.7 5.66697Q1.7 4.93366 1.98378 4.26272Q2.25763 3.61527 2.75646 3.11643Q3.2553 2.6176 3.90274 2.34375Q4.57368 2.05996 5.307 2.05995L5.307 2.05995L5.307 2.05995L17.903 2.05988L17.903 2.05988C19.8951 2.05987 21.51 3.67479 21.51 5.6669L21.51 5.6669L21.51 10.6599L19.91 10.6599ZM12.48 22.2199C12.0382 22.2199 11.68 21.8617 11.68 21.4199C11.68 20.978 12.0382 20.6199 12.48 20.6199C12.9218 20.6199 13.28 20.978 13.28 21.4199C13.28 21.8617 12.9218 22.2199 12.48 22.2199ZM20.71 11.4599C20.2682 11.4599 19.91 11.1017 19.91 10.6599C19.91 10.218 20.2682 9.85986 20.71 9.85986C21.1518 9.85986 21.51 10.218 21.51 10.6599C21.51 11.1017 21.1518 11.4599 20.71 11.4599Z"></path><path d="M16.7737 21.6508C17.0241 21.791 17.3061 21.8616 17.5868 21.8616C17.8675 21.8616 18.1495 21.791 18.4 21.6508L21.6828 19.8049C22.1849 19.5233 22.4959 18.998 22.4959 18.4349L22.4959 14.7432C22.4959 14.1801 22.1837 13.6547 21.6828 13.3732L18.3988 11.5273C17.8978 11.2458 17.2746 11.2458 16.7737 11.5273L13.4909 13.3732C12.9887 13.6547 12.6777 14.1801 12.6777 14.7432L12.6777 18.4349C12.6777 18.998 12.9899 19.5233 13.4909 19.8049L16.7737 21.6508ZM17.317 12.4426C17.4005 12.3955 17.4937 12.3719 17.5868 12.3719C17.68 12.3719 17.7732 12.3955 17.8567 12.4426L21.1407 14.2885C21.3077 14.3815 21.4105 14.5559 21.4105 14.7432L21.4105 18.4349C21.4105 18.6222 21.3077 18.7966 21.1407 18.8896L17.8567 20.7355C17.6897 20.8286 17.484 20.8286 17.317 20.7355L14.033 18.8896C13.866 18.7966 13.7631 18.6222 13.7631 18.4349L13.7631 14.7432C13.7631 14.5559 13.866 14.3815 14.033 14.2885L17.317 12.4426ZM15.5239 15.9475L17.1515 16.7793L17.1515 18.6601C17.1515 18.9788 17.4203 19.2385 17.7504 19.2385C18.0805 19.2385 18.346 18.9775 18.346 18.6601L18.346 16.8066L19.9225 15.989C20.2073 15.8284 20.3049 15.4748 20.1385 15.1997C19.9721 14.9247 19.6051 14.8346 19.3203 14.9952L17.7788 15.7813L16.1229 14.9474C15.8367 14.788 15.473 14.8819 15.3079 15.1582C15.1429 15.4345 15.2377 15.7882 15.5239 15.9475Z" fill-rule="evenodd"  fill="#034FA1" ></path></svg>