<svg xmlns="http://www.w3.org/2000/svg" xmlns:xlink="http://www.w3.org/1999/xlink" width="24" height="24" viewBox="0 0 24 24" fill="none"><path     fill="#034FA1"  d="M6.99257 20.4655L16.6369 20.4655C16.8737 20.4655 17.1007 20.5605 17.2667 20.7294L17.269 20.7317C17.6074 21.0757 17.6057 21.6281 17.2651 21.97L17.2651 21.97C17.1 22.1359 16.8755 22.2291 16.6415 22.2291L6.99257 22.2291L6.96712 22.2291L6.93803 22.2291L6.89803 22.2291L6.88348 22.2145L6.85803 22.2145L6.81803 22.2L6.78894 22.2L6.76348 22.2L6.73803 22.1891L6.70894 22.1745L6.68348 22.1745L6.65439 22.1636L6.62894 22.1491L6.60348 22.1345L6.57439 22.12L6.5453 22.1091L6.53439 22.0945L6.50894 22.08L6.47985 22.0655L6.45439 22.0545L6.43985 22.0291L6.41439 22.0145L6.39985 21.9855L6.37439 21.9709L6.3453 21.9491L6.33076 21.9345L6.30894 21.9055L6.30894 21.8909L6.27985 21.8655L6.25076 21.84L6.25076 21.8109L6.2253 21.8L6.21076 21.7709L6.21076 21.7418L6.19985 21.72L6.1853 21.6909L6.17076 21.6618L6.17076 21.6364L6.15985 21.6109L6.1453 21.5818L6.13076 21.5564L6.13076 21.5164L6.11621 21.5055L6.11621 21.4764L6.11621 21.4327L6.11621 21.4109L6.11621 21.3818L6.11621 21.3527L6.11621 21.3273L6.11621 21.2873L6.11621 21.2764L6.11621 21.2473L6.11621 21.2036L6.13076 21.1818L6.13076 21.1527L6.1453 21.1236L6.15985 21.0982L6.15985 21.0727L6.17076 21.0473L6.17076 21.0182L6.1853 20.9891L6.21076 20.9673L6.21076 20.9382L6.2253 20.9236L6.25076 20.8836L6.25076 20.8691L6.27985 20.8436L6.29439 20.8291L6.30894 20.7891L6.33076 20.7745L6.3453 20.7491L6.37439 20.7382L6.39985 20.7091L6.41439 20.6945L6.43985 20.68L6.45439 20.6545L6.47985 20.6436L6.50894 20.6291L6.53439 20.6L6.5453 20.6L6.57439 20.5745L6.60348 20.56L6.62894 20.56L6.65439 20.5455L6.68348 20.5345L6.70894 20.52L6.73803 20.52L6.76348 20.5091L6.78894 20.5091L6.81803 20.4945L6.85803 20.48L6.88348 20.48L6.89803 20.48L6.93803 20.4655L6.96712 20.4655L6.99257 20.4655Z"></path><path   fill="rgba(3, 79, 161, 1)"  d="M4.72745 1.01824L19.2729 1.01824C21.3214 1.01824 22.982 2.67885 22.982 4.72733L22.982 14.9091C22.982 16.9576 21.3214 18.6182 19.2729 18.6182L4.72745 18.6182C2.67898 18.6182 1.01836 16.9576 1.01836 14.9091L1.01836 4.72733C1.01836 2.67885 2.67898 1.01824 4.72745 1.01824ZM4.72745 2.61824C3.56263 2.61824 2.61836 3.56251 2.61836 4.72733L2.61836 14.9091C2.61836 16.074 3.56263 17.0182 4.72745 17.0182L19.2729 17.0182C20.4377 17.0182 21.382 16.074 21.382 14.9091L21.382 4.72733C21.382 3.56251 20.4377 2.61824 19.2729 2.61824L4.72745 2.61824Z"></path><path d="M16.7606 7.03196L16.7483 7.03196C16.7103 7.0257 16.6783 7.0257 16.6415 7.0257C16.3016 7.0257 16.0169 7.23104 15.8978 7.5666L15.2793 9.52234C15.1786 9.48352 15.0706 9.46474 14.9577 9.46474C14.781 9.46474 14.6043 9.50982 14.4276 9.60623L12.4161 10.6993C12.2455 10.7894 12.1007 10.9247 11.9804 11.0912C11.8601 10.9234 11.7092 10.7882 11.5459 10.6993L9.52833 9.59871C9.35161 9.5023 9.17488 9.45723 8.99816 9.45723C8.88402 9.45723 8.77725 9.47601 8.67662 9.51482L8.05931 7.55908C7.9464 7.22478 7.66167 7.01819 7.31559 7.01819C7.27754 7.01819 7.24563 7.01819 7.20882 7.02445L7.19654 7.02445C6.86886 7.08204 6.51541 7.39757 6.50928 7.95724L6.50928 7.9635L6.59764 10.395C6.59764 10.7681 6.71791 11.16 6.95109 11.5469C7.0775 11.7523 7.23459 11.9263 7.38554 12.0941L7.39168 12.1004L8.61525 13.3036C8.8423 13.529 9.0632 13.7343 9.20802 13.9785L9.7382 14.8537C9.80815 14.9701 9.92719 15.0402 10.0536 15.0402C10.1223 15.0402 10.1923 15.0214 10.2549 14.9826C10.4377 14.8662 10.4881 14.6421 10.3751 14.4555L9.82656 13.5415C9.63756 13.226 9.38475 12.9756 9.12702 12.7176L7.91694 11.5206C7.55736 11.1538 7.34995 10.7168 7.33645 10.3312L7.24809 7.89965C7.24809 7.85457 7.25422 7.77695 7.31804 7.76442L7.32418 7.76442C7.32418 7.77068 7.33031 7.77068 7.33031 7.77695L8.02372 9.98936L8.06176 10.1634C8.0998 10.4201 8.1624 10.7043 8.52812 11.0511C8.57844 11.1212 8.64839 11.1738 8.68521 11.1989L9.39088 11.7711C9.47924 11.8487 9.56761 11.8612 9.6302 11.8612C9.73697 11.8612 9.83883 11.8099 9.90756 11.7197C10.0462 11.5519 10.0278 11.3278 9.86338 11.1926L9.13807 10.6066C8.91102 10.4263 8.87298 10.2848 8.87912 10.246C8.89752 10.2273 8.93557 10.2135 8.97361 10.2135C9.02393 10.2135 9.09389 10.2323 9.15034 10.2648L11.1618 11.3579C11.4134 11.5119 11.5594 11.9238 11.5533 12.2393L11.5791 13.4488L11.5791 13.4551C11.5852 13.5327 11.6171 13.6028 11.6674 13.6604C11.7239 13.7306 11.8061 13.7831 11.8945 13.8019L11.9509 13.8144L11.9632 13.8144L12.0197 13.8019C12.108 13.7831 12.1903 13.7306 12.2467 13.6604C12.297 13.6028 12.3289 13.5252 12.3351 13.4551L12.3351 13.4488L12.3608 12.2393C12.3608 11.9238 12.5057 11.5119 12.7523 11.3579L14.7577 10.2648C14.8264 10.2323 14.8902 10.2135 14.9405 10.2135C14.9786 10.2135 15.0166 10.226 15.035 10.246C15.035 10.2848 15.0031 10.4201 14.7761 10.6066L14.0508 11.1926C13.8863 11.3341 13.8679 11.5532 14.0066 11.7197C14.0827 11.8099 14.1833 11.8612 14.284 11.8612C14.3404 11.8612 14.4288 11.8487 14.5233 11.7711L15.229 11.1989C15.267 11.1726 15.3357 11.1212 15.386 11.0511C15.7456 10.7043 15.8144 10.4201 15.8524 10.1634L15.8904 9.98936L16.5838 7.78321C16.59 7.77068 16.59 7.76442 16.5961 7.76442L16.6084 7.76442C16.6648 7.77068 16.671 7.84831 16.671 7.89965L16.5826 10.3312C16.5703 10.7168 16.3617 11.1475 16.0083 11.5144L14.7982 12.7114C14.5331 12.9618 14.2876 13.2197 14.0925 13.5352L13.5439 14.448C13.431 14.6346 13.4875 14.8599 13.6703 14.9751C13.7329 15.0139 13.8029 15.0327 13.8716 15.0327C13.998 15.0327 14.1171 14.9626 14.187 14.8462L14.7172 13.971C14.862 13.7268 15.0829 13.5202 15.31 13.2961L16.5274 12.0991L16.5397 12.0866C16.6906 11.9188 16.8489 11.746 16.9753 11.5394C17.2024 11.16 17.3288 10.7606 17.3288 10.3875L17.4172 7.95599L17.4172 7.94347C17.4417 7.41259 17.0883 7.09081 16.7606 7.03196Z" stroke="rgba(204, 78, 29, 1)" stroke-width="0.2"      fill="#CC4E1D" ></path><rect  x="9.74560546875" y="6.401123046875" width="4.363636016845703" height="1.2341594696044922" rx="0.6170797348022461"    fill="#CC4E1D" ></rect><rect  x="12.54443359375" y="4.8363037109375" width="4.363636016845703" height="1.2341594696044922" transform="rotate(90 12.54443359375 4.8363037109375)" rx="0.6170797348022461"    fill="#CC4E1D" ></rect></svg>