<svg xmlns="http://www.w3.org/2000/svg" xmlns:xlink="http://www.w3.org/1999/xlink" width="24" height="24" viewBox="0 0 24 24" fill="none"><path d="M21.2835 6.02651L21.2599 6.02651C21.1866 6.01446 21.1252 6.01446 21.0543 6.01446C20.3999 6.01446 19.8519 6.40974 19.6227 7.05568L18.432 10.8205C18.2383 10.7458 18.0304 10.7096 17.813 10.7096C17.4728 10.7096 17.1327 10.7964 16.7925 10.982L12.9204 13.0861C12.592 13.2596 12.3132 13.5199 12.0817 13.8405C11.8502 13.5175 11.5596 13.2572 11.2454 13.0861L7.36148 10.9675C7.02128 10.7819 6.68109 10.6951 6.34089 10.6951C6.12118 10.6951 5.91565 10.7313 5.72193 10.806L4.5336 7.04122C4.31626 6.39769 3.76816 6 3.10195 6C3.02871 6 2.96729 6 2.89641 6.01205L2.87279 6.01205C2.24201 6.12292 1.56162 6.7303 1.5498 7.80768L1.5498 7.81973L1.7199 12.5004C1.7199 13.2187 1.95142 13.9731 2.40029 14.7178C2.64363 15.1131 2.94602 15.4481 3.23661 15.7711L3.24842 15.7832L5.6038 18.0994C6.04086 18.5332 6.4661 18.9285 6.74487 19.3985L7.76546 21.0833C7.90012 21.3074 8.12928 21.4424 8.37262 21.4424C8.50491 21.4424 8.63957 21.4062 8.76006 21.3315C9.11207 21.1074 9.20893 20.6759 8.99158 20.3168L7.93556 18.5573C7.57174 17.95 7.08507 17.4679 6.58895 16.9714L4.25956 14.6672C3.56735 13.961 3.1681 13.1198 3.14211 12.3775L2.97201 7.69681C2.97201 7.61004 2.98382 7.4606 3.10667 7.4365L3.11848 7.4365C3.11848 7.44855 3.1303 7.44855 3.1303 7.4606L4.46509 11.7195L4.53833 12.0545C4.61156 12.5486 4.73205 13.0957 5.43607 13.7634C5.53293 13.8983 5.66759 13.9996 5.73846 14.0478L7.09688 15.1493C7.26698 15.2987 7.43708 15.3228 7.55756 15.3228C7.7631 15.3228 7.95918 15.224 8.09148 15.0504C8.35844 14.7275 8.323 14.296 8.00643 14.0357L6.61021 12.9077C6.17316 12.5607 6.09992 12.2883 6.11173 12.2136C6.14717 12.1774 6.22041 12.1509 6.29364 12.1509C6.3905 12.1509 6.52516 12.1871 6.63384 12.2497L10.5059 14.3539C10.9902 14.6503 11.2714 15.4433 11.2596 16.0507L11.3092 18.379L11.3092 18.391C11.321 18.5405 11.3824 18.6754 11.4793 18.7863C11.5879 18.9213 11.7462 19.0225 11.9163 19.0587L12.025 19.0828L12.0486 19.0828L12.1573 19.0587C12.3274 19.0225 12.4857 18.9213 12.5943 18.7863C12.6912 18.6754 12.7526 18.526 12.7644 18.391L12.7644 18.379L12.8141 16.0507C12.8141 15.4433 13.0928 14.6503 13.5677 14.3539L17.428 12.2497C17.5603 12.1871 17.6831 12.1509 17.78 12.1509C17.8532 12.1509 17.9264 12.175 17.9619 12.2136C17.9619 12.2883 17.9005 12.5486 17.4634 12.9077L16.0672 14.0357C15.7506 14.3081 15.7152 14.7299 15.9821 15.0504C16.1286 15.224 16.3223 15.3228 16.516 15.3228C16.6247 15.3228 16.7948 15.2987 16.9767 15.1493L18.3351 14.0478C18.4084 13.9972 18.5407 13.8983 18.6375 13.7634C19.3297 13.0957 19.462 12.5486 19.5353 12.0545L19.6085 11.7195L20.9433 7.47265C20.9551 7.44855 20.9551 7.4365 20.9669 7.4365L20.9906 7.4365C21.0992 7.44855 21.111 7.59799 21.111 7.69681L20.941 12.3775C20.9173 13.1198 20.5157 13.949 19.8353 14.6552L17.5059 16.9593C16.9956 17.4414 16.5231 17.9379 16.1475 18.5453L15.0915 20.3023C14.8741 20.6615 14.9828 21.0953 15.3348 21.3171C15.4553 21.3918 15.59 21.4279 15.7223 21.4279C15.9656 21.4279 16.1948 21.293 16.3294 21.0688L17.35 19.384C17.6288 18.9141 18.054 18.5164 18.4911 18.0849L20.8346 15.7807L20.8583 15.7566C21.1488 15.4337 21.4536 15.1011 21.6969 14.7034C22.134 13.9731 22.3773 13.2042 22.3773 12.4859L22.5474 7.80527L22.5474 7.78117C22.5947 6.75922 21.9143 6.13979 21.2835 6.02651Z" stroke="rgba(3, 79, 161, 1)" stroke-width="0.2"      fill="#034FA1" ></path><path d="M12.0459 2.64001C12.6639 2.64001 13.1767 3.1133 13.2268 3.72952L13.2268 5.23486L14.7405 5.23486C14.7589 5.23486 14.7904 5.24318 14.7904 5.24318C14.8087 5.24318 14.8305 5.25149 14.8486 5.25149C14.8667 5.25149 14.8985 5.25981 14.8985 5.25981C14.9165 5.25981 14.9567 5.27644 14.9567 5.27644C14.9745 5.27644 14.9891 5.29308 15.0066 5.29308C15.0241 5.29308 15.0649 5.30971 15.0649 5.30971C15.0821 5.30971 15.0978 5.32635 15.1148 5.32635C15.1317 5.32635 15.1481 5.3513 15.1647 5.3513C15.1812 5.3513 15.1984 5.36743 15.2146 5.37625C15.2307 5.38506 15.2404 5.39161 15.2561 5.4012C15.2719 5.4107 15.2908 5.42415 15.306 5.43446C15.3213 5.44474 15.3328 5.45677 15.3476 5.46773C15.3624 5.4787 15.3833 5.48934 15.3975 5.501C15.4118 5.51265 15.4254 5.52196 15.4391 5.53427C15.4528 5.54657 15.4676 5.56293 15.4807 5.57585C15.4938 5.58876 15.5015 5.59559 15.514 5.60912C15.5264 5.62264 15.5437 5.63657 15.5555 5.6507C15.5674 5.66475 15.5776 5.68598 15.5888 5.7006C15.6 5.71522 15.6116 5.72704 15.6221 5.74219C15.6326 5.75729 15.6373 5.77649 15.647 5.79209C15.6568 5.80768 15.6713 5.81759 15.6803 5.83367C15.6893 5.84971 15.7053 5.86712 15.7053 5.88357C15.7053 5.90002 15.7302 5.91666 15.7302 5.93347C15.7302 5.95029 15.7468 5.96624 15.7468 5.98337C15.7468 6.00051 15.7635 6.01581 15.7635 6.03327C15.7635 6.0507 15.7801 6.07379 15.7801 6.09149C15.7801 6.10916 15.7967 6.12344 15.7967 6.14139C15.7967 6.15926 15.8051 6.1815 15.8051 6.19961C15.8051 6.21772 15.8217 6.23128 15.8217 6.24951C15.8217 6.26771 15.8217 6.28937 15.8217 6.30773C15.8217 6.32605 15.83 6.33923 15.83 6.35763C15.83 6.37603 15.83 6.39745 15.83 6.41585C15.83 6.43425 15.83 6.45563 15.83 6.47407C15.83 6.49242 15.8217 6.50561 15.8217 6.52397C15.8217 6.54228 15.8217 6.56395 15.8217 6.58218C15.8217 6.60038 15.8051 6.61397 15.8051 6.63208C15.8051 6.6502 15.7967 6.67239 15.7967 6.6903C15.7967 6.70821 15.7801 6.7225 15.7801 6.7402C15.7801 6.75791 15.7635 6.78096 15.7635 6.79842C15.7635 6.81584 15.7468 6.83118 15.7468 6.84832C15.7468 6.86546 15.7302 6.88141 15.7302 6.89822C15.7302 6.91504 15.7053 6.93164 15.7053 6.94812C15.7053 6.96453 15.6893 6.98194 15.6803 6.99802C15.6713 7.01403 15.6568 7.03229 15.647 7.04793C15.6373 7.06352 15.6326 7.07436 15.6221 7.08951C15.6116 7.10462 15.6 7.12475 15.5888 7.13941C15.5776 7.15403 15.5674 7.1669 15.5555 7.18099C15.5437 7.19509 15.5264 7.20905 15.514 7.22258C15.5015 7.2361 15.4938 7.25121 15.4807 7.26416C15.4676 7.27708 15.4528 7.28508 15.4391 7.29743C15.4254 7.3097 15.4118 7.319 15.3975 7.3307C15.3833 7.34231 15.3624 7.35296 15.3476 7.36397C15.3328 7.37493 15.3213 7.38692 15.306 7.39723C15.2908 7.40747 15.2719 7.42091 15.2561 7.4305C15.2404 7.44004 15.2307 7.4466 15.2146 7.45545C15.1984 7.46422 15.1812 7.4804 15.1647 7.4804C15.1481 7.4804 15.1317 7.50535 15.1148 7.50535C15.0978 7.50535 15.0821 7.52198 15.0649 7.52198C15.0476 7.52198 15.0241 7.54693 15.0066 7.54693C14.9891 7.54693 14.9745 7.56357 14.9567 7.56357C14.9389 7.56357 14.9165 7.57189 14.8985 7.57189C14.8805 7.57189 14.8667 7.5802 14.8486 7.5802C14.8305 7.5802 14.8087 7.58852 14.7904 7.58852C14.7721 7.58852 14.7589 7.59684 14.7405 7.59684L13.2268 7.59684L13.2268 9.1105C13.2268 9.12885 13.2268 9.14212 13.2268 9.1604C13.2268 9.17863 13.2185 9.20046 13.2185 9.21861C13.2185 9.23673 13.2019 9.25056 13.2019 9.26851C13.2019 9.28647 13.1936 9.30894 13.1936 9.32673C13.1936 9.34448 13.1769 9.35909 13.1769 9.37663C13.1769 9.39414 13.1603 9.40932 13.1603 9.42653C13.1603 9.44375 13.1354 9.4595 13.1354 9.47644C13.1354 9.49333 13.1187 9.50977 13.1187 9.52634C13.1187 9.54291 13.1026 9.56007 13.0938 9.57624C13.085 9.5924 13.07 9.61038 13.0605 9.62614C13.0509 9.64186 13.0458 9.66077 13.0356 9.67604C13.0253 9.69131 13.0133 9.70284 13.0023 9.71762C12.9913 9.73237 12.9807 9.74491 12.969 9.75921C12.9574 9.77342 12.9397 9.78706 12.9274 9.80079C12.9151 9.81444 12.9071 9.82926 12.8942 9.84237C12.8813 9.85545 12.8661 9.87145 12.8526 9.88396C12.8391 9.89643 12.8251 9.90537 12.811 9.91723C12.7969 9.92909 12.784 9.93933 12.7694 9.95049C12.7548 9.96166 12.743 9.97328 12.7278 9.98376C12.7127 9.99424 12.6936 10.0072 12.6779 10.017C12.6623 10.0268 12.6441 10.0329 12.628 10.042C12.612 10.051 12.5946 10.0669 12.5781 10.0669C12.5617 10.0669 12.545 10.0919 12.5282 10.0919C12.5114 10.0919 12.4955 10.1168 12.4783 10.1168C12.4611 10.1168 12.4458 10.1335 12.4284 10.1335C12.411 10.1335 12.3962 10.1501 12.3785 10.1501C12.3608 10.1501 12.3382 10.1667 12.3203 10.1667C12.3024 10.1667 12.2885 10.175 12.2704 10.175C12.2523 10.175 12.2304 10.1834 12.2122 10.1834C12.1939 10.1834 12.1806 10.1917 12.1623 10.1917C12.144 10.1917 12.1224 10.1917 12.1041 10.1917C12.0857 10.1917 12.0643 10.2 12.0459 10.2C12.0274 10.2 12.0143 10.1917 11.996 10.1917C11.9776 10.1917 11.9561 10.1917 11.9377 10.1917C11.9194 10.1917 11.906 10.1834 11.8878 10.1834C11.8696 10.1834 11.8477 10.175 11.8296 10.175C11.8115 10.175 11.7976 10.1667 11.7797 10.1667C11.7618 10.1667 11.7392 10.1501 11.7215 10.1501C11.7038 10.1501 11.689 10.1335 11.6716 10.1335C11.6542 10.1335 11.6388 10.1168 11.6217 10.1168C11.6046 10.1168 11.5803 10.0919 11.5635 10.0919C11.5467 10.0919 11.53 10.0669 11.5136 10.0669C11.4971 10.0669 11.488 10.051 11.472 10.042C11.4559 10.0329 11.4377 10.0268 11.4221 10.017C11.4065 10.0072 11.3873 9.99424 11.3722 9.98376C11.357 9.97328 11.3452 9.96166 11.3306 9.95049C11.316 9.93933 11.3031 9.92909 11.289 9.91723C11.2749 9.90537 11.261 9.89643 11.2474 9.88396C11.2339 9.87145 11.2188 9.85545 11.2059 9.84237C11.1929 9.82926 11.1766 9.81444 11.1643 9.80079C11.1519 9.78706 11.1427 9.77342 11.131 9.75921C11.1193 9.74491 11.1087 9.73237 11.0977 9.71762C11.0867 9.70284 11.0747 9.69131 11.0645 9.67604C11.0542 9.66077 11.0491 9.64186 11.0395 9.62614C11.0299 9.61038 11.0151 9.5924 11.0063 9.57624C10.9974 9.56007 10.9813 9.54291 10.9813 9.52634C10.9813 9.50977 10.9564 9.49333 10.9564 9.47644C10.9564 9.4595 10.9397 9.44375 10.9397 9.42653C10.9397 9.40932 10.9231 9.39414 10.9231 9.37663C10.9231 9.35909 10.9064 9.34448 10.9064 9.32673C10.9064 9.30894 10.8898 9.28647 10.8898 9.26851C10.8898 9.25056 10.8815 9.23673 10.8815 9.21861C10.8815 9.20046 10.8732 9.17863 10.8732 9.1604C10.8732 9.14212 10.8649 9.12885 10.8649 9.1105L10.8649 7.59684L9.35952 7.59684C9.34117 7.59684 9.31954 7.58852 9.3013 7.58852C9.28303 7.58852 9.26952 7.5802 9.2514 7.5802C9.23325 7.5802 9.21114 7.57189 9.19319 7.57189C9.17523 7.57189 9.16103 7.56357 9.14328 7.56357C9.12554 7.56357 9.11089 7.54693 9.09338 7.54693C9.07584 7.54693 9.05243 7.52198 9.03517 7.52198C9.01795 7.52198 9.00216 7.50535 8.98527 7.50535C8.96837 7.50535 8.95193 7.4804 8.93536 7.4804C8.91879 7.4804 8.90163 7.46422 8.88546 7.45545C8.8693 7.4466 8.85128 7.44004 8.83556 7.4305C8.81981 7.42091 8.80925 7.40747 8.79398 7.39723C8.77867 7.38692 8.75882 7.37493 8.74408 7.36397C8.72929 7.35296 8.71675 7.34231 8.70249 7.3307C8.68824 7.319 8.67456 7.3097 8.66091 7.29743C8.64722 7.28508 8.6324 7.27708 8.61933 7.26416C8.60621 7.25121 8.59853 7.23606 8.58606 7.22258C8.57359 7.20901 8.55633 7.19509 8.54447 7.18099C8.53266 7.1669 8.52238 7.15403 8.51121 7.13941C8.5 7.12475 8.48842 7.10462 8.47794 7.08951C8.46746 7.07436 8.46274 7.06352 8.45299 7.04793C8.4432 7.03229 8.42874 7.01403 8.41972 6.99802C8.41067 6.98194 8.39477 6.96453 8.39477 6.94812C8.39477 6.93164 8.36982 6.91504 8.36982 6.89822C8.36982 6.88141 8.35319 6.86546 8.35319 6.84832C8.35319 6.83118 8.32824 6.81584 8.32824 6.79842C8.32824 6.78096 8.3116 6.75791 8.3116 6.7402C8.3116 6.7225 8.30329 6.70821 8.30329 6.6903C8.30329 6.67239 8.28665 6.6502 8.28665 6.63208C8.28665 6.61397 8.27834 6.60038 8.27834 6.58218C8.27834 6.56395 8.27002 6.54228 8.27002 6.52397C8.27002 6.50561 8.27002 6.49242 8.27002 6.47407C8.27002 6.45563 8.27002 6.43425 8.27002 6.41585C8.27002 6.39745 8.27002 6.37603 8.27002 6.35763C8.27002 6.33923 8.27002 6.32605 8.27002 6.30773C8.27002 6.28937 8.27834 6.26771 8.27834 6.24951C8.27834 6.23128 8.28665 6.21772 8.28665 6.19961C8.28665 6.1815 8.30329 6.15926 8.30329 6.14139C8.30329 6.12344 8.3116 6.10916 8.3116 6.09149C8.3116 6.07379 8.32824 6.0507 8.32824 6.03327C8.32824 6.01581 8.35319 6.00051 8.35319 5.98337C8.35319 5.96624 8.36982 5.95029 8.36982 5.93347C8.36982 5.91666 8.39477 5.90002 8.39477 5.88357C8.39477 5.86712 8.41071 5.84971 8.41972 5.83367C8.42878 5.81759 8.4432 5.80768 8.45299 5.79209C8.46274 5.77649 8.46746 5.75729 8.47794 5.74219C8.48842 5.72704 8.5 5.71522 8.51121 5.7006C8.52238 5.68598 8.53266 5.66475 8.54447 5.6507C8.55633 5.63657 8.57359 5.62264 8.58606 5.60912C8.59853 5.59559 8.60621 5.58876 8.61933 5.57585C8.6324 5.56293 8.64722 5.54657 8.66091 5.53427C8.67456 5.52196 8.68824 5.51265 8.70249 5.501C8.71675 5.48934 8.72929 5.4787 8.74408 5.46773C8.75882 5.45677 8.77867 5.44474 8.79398 5.43446C8.80925 5.42415 8.81981 5.4107 8.83556 5.4012C8.85128 5.39161 8.8693 5.38506 8.88546 5.37625C8.90163 5.36743 8.91879 5.3513 8.93536 5.3513C8.95193 5.3513 8.96837 5.32635 8.98527 5.32635C9.00216 5.32635 9.01795 5.30971 9.03517 5.30971C9.05243 5.30971 9.07584 5.29308 9.09338 5.29308C9.11089 5.29308 9.12554 5.27644 9.14328 5.27644C9.16103 5.27644 9.17523 5.25981 9.19319 5.25981C9.21114 5.25981 9.23325 5.25149 9.2514 5.25149C9.26952 5.25149 9.28303 5.24318 9.3013 5.24318C9.31954 5.24318 9.34117 5.23486 9.35952 5.23486L10.8649 5.23486L10.8649 3.72952C10.8649 3.71116 10.8732 3.68958 10.8732 3.6713C10.8732 3.65302 10.8815 3.63951 10.8815 3.6214C10.8815 3.60324 10.8898 3.58113 10.8898 3.56318C10.8898 3.54523 10.9064 3.53103 10.9064 3.51328C10.9064 3.49549 10.9231 3.47257 10.9231 3.45506C10.9231 3.43752 10.9397 3.42238 10.9397 3.40516C10.9397 3.38794 10.9564 3.37216 10.9564 3.35526C10.9564 3.33837 10.9813 3.32193 10.9813 3.30536C10.9813 3.28879 10.9974 3.27162 11.0063 3.25546C11.0151 3.2393 11.0299 3.22132 11.0395 3.20556C11.0491 3.1898 11.0542 3.17093 11.0645 3.15566C11.0747 3.14039 11.0868 3.12886 11.0977 3.11407C11.1087 3.09929 11.1193 3.0867 11.131 3.07249C11.1427 3.05823 11.152 3.04459 11.1643 3.0309C11.1766 3.01718 11.1929 3.0024 11.2059 2.98932C11.2188 2.9762 11.2339 2.9602 11.2474 2.94774C11.2609 2.93523 11.2749 2.92634 11.289 2.91447C11.3031 2.90264 11.316 2.89237 11.3306 2.8812C11.3452 2.87003 11.357 2.85842 11.3722 2.84793C11.3873 2.83745 11.4065 2.82443 11.4221 2.81467C11.4377 2.8049 11.456 2.79875 11.472 2.78972C11.488 2.78069 11.4971 2.76477 11.5136 2.76477C11.53 2.76477 11.5467 2.73982 11.5635 2.73982C11.5803 2.73982 11.6046 2.71487 11.6217 2.71487C11.6388 2.71487 11.6542 2.69823 11.6716 2.69823C11.689 2.69823 11.7038 2.6816 11.7215 2.6816C11.7392 2.6816 11.7618 2.66497 11.7797 2.66497C11.7976 2.66497 11.8115 2.65665 11.8296 2.65665C11.8477 2.65665 11.8696 2.64833 11.8878 2.64833C11.9061 2.64833 11.9194 2.64001 11.9377 2.64001C11.9561 2.64001 11.9776 2.64001 11.996 2.64001C12.0143 2.64001 12.0274 2.64001 12.0459 2.64001Z"   fill="#CC4E1D" ></path></svg>