<svg xmlns="http://www.w3.org/2000/svg" xmlns:xlink="http://www.w3.org/1999/xlink" width="24" height="24" viewBox="0 0 24 24" fill="none"><path     fill="#034FA1"  d="M6.99257 20.4655L16.6369 20.4655C16.8737 20.4655 17.1007 20.5605 17.2667 20.7294L17.269 20.7317C17.6074 21.0757 17.6057 21.6281 17.2651 21.97L17.2651 21.97C17.1 22.1359 16.8755 22.2291 16.6415 22.2291L6.99257 22.2291L6.96712 22.2291L6.93803 22.2291L6.89803 22.2291L6.88348 22.2145L6.85803 22.2145L6.81803 22.2L6.78894 22.2L6.76348 22.2L6.73803 22.1891L6.70894 22.1745L6.68348 22.1745L6.65439 22.1636L6.62894 22.1491L6.60348 22.1345L6.57439 22.12L6.5453 22.1091L6.53439 22.0945L6.50894 22.08L6.47985 22.0655L6.45439 22.0545L6.43985 22.0291L6.41439 22.0145L6.39985 21.9855L6.37439 21.9709L6.3453 21.9491L6.33076 21.9345L6.30894 21.9055L6.30894 21.8909L6.27985 21.8655L6.25076 21.84L6.25076 21.8109L6.2253 21.8L6.21076 21.7709L6.21076 21.7418L6.19985 21.72L6.1853 21.6909L6.17076 21.6618L6.17076 21.6364L6.15985 21.6109L6.1453 21.5818L6.13076 21.5564L6.13076 21.5164L6.11621 21.5055L6.11621 21.4764L6.11621 21.4327L6.11621 21.4109L6.11621 21.3818L6.11621 21.3527L6.11621 21.3273L6.11621 21.2873L6.11621 21.2764L6.11621 21.2473L6.11621 21.2036L6.13076 21.1818L6.13076 21.1527L6.1453 21.1236L6.15985 21.0982L6.15985 21.0727L6.17076 21.0473L6.17076 21.0182L6.1853 20.9891L6.21076 20.9673L6.21076 20.9382L6.2253 20.9236L6.25076 20.8836L6.25076 20.8691L6.27985 20.8436L6.29439 20.8291L6.30894 20.7891L6.33076 20.7745L6.3453 20.7491L6.37439 20.7382L6.39985 20.7091L6.41439 20.6945L6.43985 20.68L6.45439 20.6545L6.47985 20.6436L6.50894 20.6291L6.53439 20.6L6.5453 20.6L6.57439 20.5745L6.60348 20.56L6.62894 20.56L6.65439 20.5455L6.68348 20.5345L6.70894 20.52L6.73803 20.52L6.76348 20.5091L6.78894 20.5091L6.81803 20.4945L6.85803 20.48L6.88348 20.48L6.89803 20.48L6.93803 20.4655L6.96712 20.4655L6.99257 20.4655Z"></path><path   fill="rgba(3, 79, 161, 1)"  d="M4.72745 1.01824L19.2729 1.01824C21.3214 1.01824 22.982 2.67885 22.982 4.72733L22.982 14.9091C22.982 16.9576 21.3214 18.6182 19.2729 18.6182L4.72745 18.6182C2.67898 18.6182 1.01836 16.9576 1.01836 14.9091L1.01836 4.72733C1.01836 2.67885 2.67898 1.01824 4.72745 1.01824ZM4.72745 2.61824C3.56263 2.61824 2.61836 3.56251 2.61836 4.72733L2.61836 14.9091C2.61836 16.074 3.56263 17.0182 4.72745 17.0182L19.2729 17.0182C20.4377 17.0182 21.382 16.074 21.382 14.9091L21.382 4.72733C21.382 3.56251 20.4377 2.61824 19.2729 2.61824L4.72745 2.61824Z"></path><path d="M11.8378 4.74976C11.8511 4.74602 11.8641 4.74304 11.8777 4.74022C11.8913 4.73739 11.9051 4.73481 11.9188 4.73291C11.9326 4.73102 11.9467 4.72993 11.9606 4.72898C11.9745 4.72803 11.9884 4.72729 12.0023 4.72729C12.0162 4.72729 12.0302 4.72803 12.0441 4.72898C12.058 4.72993 12.0715 4.73102 12.0852 4.73291C12.099 4.73481 12.1128 4.73739 12.1264 4.74022C12.14 4.74304 12.1536 4.74602 12.1669 4.74976L16.3245 5.9199C16.3317 5.92193 16.3392 5.92434 16.3463 5.92664C16.3534 5.92894 16.3604 5.93138 16.3675 5.93395C16.3745 5.9365 16.3817 5.93899 16.3886 5.94181C16.3956 5.94462 16.4024 5.94773 16.4092 5.9508C16.416 5.95387 16.4225 5.95702 16.4292 5.96035C16.4358 5.96366 16.4421 5.96689 16.4485 5.97046C16.455 5.97401 16.4616 5.97789 16.4679 5.98169C16.4742 5.98549 16.4805 5.98945 16.4867 5.99349C16.4928 5.99753 16.4988 6.00159 16.5048 6.00585C16.5108 6.01011 16.5172 6.01486 16.523 6.01933C16.5288 6.02381 16.5343 6.02812 16.5399 6.03281C16.5455 6.0375 16.5509 6.04253 16.5563 6.04742C16.5617 6.05231 16.5668 6.05693 16.572 6.06203C16.5772 6.06712 16.5828 6.07248 16.5877 6.07775C16.5927 6.08303 16.5975 6.08858 16.6022 6.09405C16.607 6.0995 16.6117 6.10471 16.6162 6.11034C16.6207 6.11595 16.6246 6.12196 16.6289 6.12775C16.6331 6.13353 16.6376 6.13922 16.6416 6.14517C16.6456 6.15111 16.6493 6.15705 16.6531 6.16314C16.6568 6.16922 16.6605 6.17546 16.664 6.18168C16.6674 6.18789 16.6704 6.19388 16.6736 6.20022C16.6768 6.20656 16.6798 6.21342 16.6827 6.21988C16.6856 6.22633 16.6885 6.23242 16.6912 6.23898C16.6938 6.24554 16.6967 6.25254 16.6991 6.2592C16.7014 6.26585 16.7036 6.27213 16.7057 6.27886C16.7078 6.2856 16.7094 6.29285 16.7112 6.29965C16.7129 6.30645 16.7145 6.313 16.716 6.31987C16.7175 6.32673 16.719 6.33373 16.7202 6.34066C16.7214 6.34757 16.7224 6.35449 16.7233 6.36144C16.7242 6.3684 16.7257 6.37525 16.7257 6.38223C16.7257 6.3892 16.7269 6.39657 16.7269 6.40357C16.7269 6.41057 16.7275 6.41735 16.7275 6.42436L16.7275 8.82418C16.7275 11.5684 14.9013 14.0087 12.1863 14.8805C12.1789 14.8828 12.1714 14.8851 12.1639 14.8872C12.1564 14.8893 12.1485 14.891 12.1409 14.8928C12.1333 14.8946 12.1256 14.8964 12.1179 14.8979C12.1102 14.8994 12.1027 14.9012 12.0949 14.9024C12.0872 14.9036 12.0791 14.9043 12.0713 14.9052C12.0635 14.9061 12.0562 14.9068 12.0483 14.9074C12.0405 14.908 12.0326 14.9091 12.0247 14.9091C12.0169 14.9091 12.009 14.9091 12.0011 14.9091C11.9933 14.9091 11.9854 14.9091 11.9775 14.9091C11.9697 14.9091 11.9618 14.908 11.9539 14.9074C11.9461 14.9068 11.9381 14.9061 11.9303 14.9052C11.9225 14.9043 11.9145 14.9036 11.9067 14.9024C11.899 14.9012 11.8914 14.8994 11.8837 14.8979C11.876 14.8964 11.8684 14.8946 11.8607 14.8928C11.8531 14.891 11.8459 14.8893 11.8384 14.8872C11.8308 14.8851 11.8234 14.8828 11.816 14.8805C9.09987 14.009 7.27295 11.5677 7.27295 8.82249L7.27295 6.42436C7.27295 6.41735 7.27355 6.41057 7.27355 6.40357C7.27355 6.39657 7.27476 6.3892 7.27476 6.38223C7.27476 6.37525 7.27629 6.3684 7.27718 6.36144C7.27808 6.35449 7.27901 6.34757 7.28021 6.34066C7.28141 6.33373 7.28296 6.32673 7.28445 6.31987C7.28594 6.313 7.2875 6.30645 7.28929 6.29965C7.29107 6.29285 7.29265 6.2856 7.29473 6.27886C7.29681 6.27213 7.29903 6.26585 7.30139 6.2592C7.30376 6.25254 7.30661 6.24554 7.30925 6.23898C7.3119 6.23242 7.3148 6.22633 7.31773 6.21988C7.32066 6.21342 7.3236 6.20656 7.3268 6.20022C7.33001 6.19388 7.33301 6.18789 7.33648 6.18168C7.33996 6.17546 7.34364 6.16922 7.34738 6.16314C7.35112 6.15705 7.35488 6.15111 7.35887 6.14517C7.36287 6.13922 7.36733 6.13353 7.37158 6.12775C7.37583 6.12196 7.37979 6.11595 7.38429 6.11034C7.38878 6.10471 7.39347 6.0995 7.3982 6.09405C7.40294 6.08858 7.40776 6.08303 7.41272 6.07775C7.41769 6.07248 7.42327 6.06712 7.42846 6.06203C7.43365 6.05693 7.43879 6.05231 7.44419 6.04742C7.44959 6.04253 7.45492 6.0375 7.46053 6.03281C7.46613 6.02812 7.47166 6.02381 7.47747 6.01933C7.48328 6.01486 7.48963 6.01011 7.49562 6.00585C7.50162 6.00159 7.50761 5.99753 7.51378 5.99349C7.51994 5.98945 7.52619 5.98549 7.53253 5.98169C7.53887 5.97789 7.5454 5.97401 7.5519 5.97046C7.55839 5.96689 7.56461 5.96366 7.57126 5.96035C7.5779 5.95702 7.58444 5.95387 7.59123 5.9508C7.59801 5.94773 7.60489 5.94462 7.6118 5.94181C7.61871 5.93899 7.62596 5.9365 7.63298 5.93395C7.64001 5.93138 7.64703 5.92894 7.65416 5.92664C7.66128 5.92434 7.66872 5.92193 7.67594 5.9199L11.8378 4.74976ZM12.0023 5.80418L8.40749 6.81478L8.40749 8.82305C8.40749 11.043 9.82787 13.0187 11.9521 13.8041L12.0005 13.821L12.0495 13.8036C14.1345 13.0326 15.5408 11.1145 15.5911 8.94439L15.5923 8.82361L15.5923 6.81478L12.0017 5.80418L12.0023 5.80418Z"   fill="#CC4E1D" ></path><rect  x="9.818359375" y="8.727294921875" width="4.412120819091797" height="1.2341594696044922" rx="0.6170797348022461"    fill="#CC4E1D" ></rect><rect  x="12.72705078125" y="7.272705078125" width="4.319559097290039" height="1.2606067657470703" transform="rotate(90 12.72705078125 7.272705078125)" rx="0.6303033828735352"    fill="#CC4E1D" ></rect></svg>