<svg xmlns="http://www.w3.org/2000/svg" xmlns:xlink="http://www.w3.org/1999/xlink" width="24" height="24" viewBox="0 0 24 24" fill="none"><path   fill="rgba(3, 79, 161, 1)"  d="M19.5892 9.98552L19.5892 4.9889L20.3892 4.9889L19.5892 4.9889C19.5892 3.88046 18.6906 2.98188 17.5821 2.98188L17.5821 2.98188L4.9889 2.98188L4.9889 2.18188L4.9889 2.98188C3.88046 2.98188 2.98188 3.88046 2.98188 4.9889L2.98188 4.9889L2.98188 17.9349L2.18188 17.9349L2.98188 17.9349C2.98188 19.0433 3.88046 19.9419 4.9889 19.9419L4.9889 20.7419L4.9889 19.9419L11.1637 19.9419L11.1637 21.5419L4.9889 21.5419L4.9889 21.5419C2.9968 21.5419 1.38188 19.927 1.38188 17.9349L1.38188 17.9349L1.38188 4.9889L2.18188 4.9889L1.38188 4.9889C1.38188 2.9968 2.9968 1.38188 4.9889 1.38188L4.9889 1.38188L17.5821 1.38188L17.5821 2.18188L17.5821 1.38188C19.5742 1.38188 21.1892 2.9968 21.1892 4.9889L21.1892 4.9889L21.1892 9.98552L19.5892 9.98552ZM11.1637 21.5419C10.7219 21.5419 10.3637 21.1837 10.3637 20.7419C10.3637 20.3001 10.7219 19.9419 11.1637 19.9419C11.6055 19.9419 11.9637 20.3001 11.9637 20.7419C11.9637 21.1837 11.6055 21.5419 11.1637 21.5419ZM20.3892 10.7855C19.9473 10.7855 19.5892 10.4273 19.5892 9.98552C19.5892 9.54369 19.9473 9.18552 20.3892 9.18552C20.831 9.18552 21.1892 9.54369 21.1892 9.98552C21.1892 10.4273 20.831 10.7855 20.3892 10.7855Z"></path><rect  x="5.0908203125" y="5.45458984375" width="9.824560165405273" height="1.6842193603515625" rx="0.8421096801757812"    fill="#034FA1" ></rect><rect  x="5.0908203125" y="8.727294921875" width="7.017545700073242" height="1.6842193603515625" rx="0.8421096801757812"    fill="#034FA1" ></rect><rect  x="5.0908203125" y="12" width="4.91227912902832" height="1.6842193603515625" rx="0.8421096801757812"    fill="#034FA1" ></rect><path d="M16.4595 21.9711C16.7099 22.1113 16.9919 22.1819 17.2726 22.1819C17.5533 22.1819 17.8353 22.1113 18.0858 21.9711L21.3686 20.1252C21.8707 19.8437 22.1817 19.3183 22.1817 18.7552L22.1817 15.0635C22.1817 14.5004 21.8695 13.975 21.3686 13.6935L18.0846 11.8476C17.5836 11.5661 16.9604 11.5661 16.4595 11.8476L13.1767 13.6935C12.6745 13.975 12.3635 14.5004 12.3635 15.0635L12.3635 18.7552C12.3635 19.3183 12.6757 19.8437 13.1767 20.1252L16.4595 21.9711ZM17.0028 12.7629C17.0863 12.7158 17.1794 12.6922 17.2726 12.6922C17.3658 12.6922 17.459 12.7158 17.5425 12.7629L20.8265 14.6088C20.9935 14.7018 21.0963 14.8762 21.0963 15.0635L21.0963 18.7552C21.0963 18.9425 20.9935 19.1169 20.8265 19.2099L17.5425 21.0558C17.3755 21.1489 17.1698 21.1489 17.0028 21.0558L13.7188 19.2099C13.5518 19.1169 13.4489 18.9425 13.4489 18.7552L13.4489 15.0635C13.4489 14.8762 13.5518 14.7018 13.7188 14.6088L17.0028 12.7629ZM15.2097 16.2678L16.8373 17.0996L16.8373 18.9804C16.8373 19.2991 17.1061 19.5588 17.4362 19.5588C17.7663 19.5588 18.0318 19.2978 18.0318 18.9804L18.0318 17.1269L19.6083 16.3094C19.8931 16.1487 19.9907 15.7951 19.8243 15.5201C19.6579 15.2451 19.2909 15.1549 19.0061 15.3155L17.4646 16.1016L15.8086 15.2677C15.5225 15.1083 15.1588 15.2022 14.9937 15.4785C14.8287 15.7548 14.9235 16.1085 15.2097 16.2678Z" fill-rule="evenodd"  fill="#CC4E1D" ></path></svg>