<svg xmlns="http://www.w3.org/2000/svg" xmlns:xlink="http://www.w3.org/1999/xlink" width="24" height="24" viewBox="0 0 24 24" fill="none"><path d="M11.7516 2.58593C11.7764 2.57897 11.8007 2.5743 11.8259 2.56905C11.8512 2.56379 11.8747 2.55906 11.9002 2.55554C11.9258 2.55202 11.9521 2.54879 11.9779 2.54879C12.0036 2.54879 12.0297 2.54541 12.0555 2.54541C12.0814 2.54541 12.1074 2.54879 12.1332 2.54879C12.159 2.54879 12.1853 2.55202 12.2109 2.55554C12.2364 2.55906 12.2599 2.56379 12.2852 2.56905C12.3104 2.5743 12.3381 2.57897 12.3628 2.58593L20.0818 4.76048C20.0952 4.76424 20.1091 4.7697 20.1223 4.77398C20.1355 4.77824 20.1498 4.78272 20.1628 4.78749C20.1759 4.79224 20.1905 4.79576 20.2033 4.80099C20.2162 4.80621 20.2279 4.81217 20.2405 4.81788C20.2531 4.82358 20.2653 4.82859 20.2776 4.83476C20.29 4.84091 20.3027 4.8484 20.3148 4.85502C20.3268 4.86162 20.3367 4.86821 20.3485 4.87528C20.3603 4.88233 20.3742 4.88804 20.3857 4.89554C20.3971 4.90304 20.4083 4.91127 20.4194 4.91918C20.4306 4.92708 20.4424 4.93788 20.4532 4.94619C20.464 4.9545 20.4732 4.9611 20.4836 4.96983C20.494 4.97853 20.504 4.98775 20.514 4.99684C20.524 5.00593 20.5314 5.0144 20.541 5.02385C20.5506 5.03331 20.5622 5.04444 20.5714 5.05424C20.5806 5.06404 20.5896 5.07448 20.5984 5.08463C20.6072 5.09476 20.6171 5.10457 20.6254 5.11502C20.6338 5.12545 20.6412 5.13465 20.6491 5.14541C20.6569 5.15615 20.6652 5.16813 20.6727 5.17918C20.6801 5.19022 20.686 5.20163 20.6929 5.21294C20.6999 5.22423 20.7067 5.23516 20.7132 5.24671C20.7197 5.25824 20.7241 5.2687 20.7301 5.28047C20.736 5.29225 20.7415 5.30562 20.747 5.31762C20.7524 5.3296 20.7589 5.3392 20.7639 5.35138C20.7688 5.36357 20.773 5.37954 20.7774 5.3919C20.7818 5.40425 20.787 5.41316 20.7909 5.42567C20.7947 5.43818 20.801 5.45356 20.801 5.46619C20.801 5.47882 20.8111 5.49058 20.8111 5.50333C20.8111 5.51607 20.8179 5.52762 20.8179 5.54047C20.8179 5.55331 20.8246 5.56808 20.8246 5.58099C20.8246 5.59391 20.828 5.60518 20.828 5.61814C20.828 5.6311 20.8314 5.64566 20.8314 5.65866C20.8314 5.67166 20.8314 5.68278 20.8314 5.6958L20.8314 10.1529C20.8314 15.2493 17.4387 19.7815 12.3966 21.4005C12.3828 21.4049 12.37 21.4101 12.3561 21.414C12.3421 21.4179 12.3263 21.4241 12.3122 21.4241C12.298 21.4241 12.2859 21.4342 12.2716 21.4342C12.2574 21.4342 12.2422 21.441 12.2278 21.441C12.2133 21.441 12.1984 21.4477 12.1839 21.4477C12.1694 21.4477 12.1545 21.4511 12.14 21.4511C12.1254 21.4511 12.1107 21.4545 12.0961 21.4545C12.0815 21.4545 12.0668 21.4545 12.0522 21.4545C12.0376 21.4545 12.0262 21.4545 12.0116 21.4545C11.9971 21.4545 11.9823 21.4511 11.9678 21.4511C11.9532 21.4511 11.9383 21.4477 11.9239 21.4477C11.9093 21.4477 11.8944 21.441 11.88 21.441C11.8656 21.441 11.8504 21.4342 11.8361 21.4342C11.8218 21.4342 11.8063 21.4241 11.7922 21.4241C11.778 21.4241 11.7657 21.4179 11.7516 21.414C11.7377 21.4101 11.7249 21.4049 11.7111 21.4005C6.66694 19.7821 3.27295 15.2478 3.27295 10.1496L3.27295 5.6958C3.27295 5.68278 3.27295 5.67166 3.27295 5.65866C3.27295 5.64566 3.27633 5.6311 3.27633 5.61814C3.27633 5.60518 3.2797 5.59391 3.2797 5.58099C3.2797 5.56808 3.28646 5.55331 3.28646 5.54047C3.28646 5.52762 3.29321 5.51607 3.29321 5.50333C3.29321 5.49058 3.30334 5.47882 3.30334 5.46619C3.30334 5.45356 3.30961 5.43818 3.31347 5.42567C3.31733 5.41316 3.32259 5.40425 3.32698 5.3919C3.33138 5.37954 3.33557 5.36357 3.34048 5.35138C3.3454 5.3392 3.35192 5.3296 3.35736 5.31762C3.36281 5.30562 3.36829 5.29225 3.37425 5.28047C3.3802 5.2687 3.38468 5.25824 3.39113 5.24671C3.39758 5.23516 3.40446 5.22423 3.41139 5.21294C3.41834 5.20163 3.42423 5.19022 3.43165 5.17918C3.43908 5.16813 3.4474 5.15615 3.45529 5.14541C3.46317 5.13465 3.47057 5.12545 3.47892 5.11502C3.48726 5.10457 3.49714 5.09476 3.50594 5.08463C3.51473 5.07448 3.52373 5.06404 3.53295 5.05424C3.54217 5.04444 3.55371 5.03331 3.56334 5.02385C3.57298 5.0144 3.58033 5.00593 3.59035 4.99684C3.60039 4.98775 3.61032 4.97853 3.62074 4.96983C3.63114 4.9611 3.64035 4.9545 3.65113 4.94619C3.66191 4.93788 3.67378 4.92708 3.6849 4.91918C3.69603 4.91127 3.70721 4.90304 3.71866 4.89554C3.73012 4.88804 3.74403 4.88233 3.75581 4.87528C3.76757 4.86821 3.7775 4.86162 3.78957 4.85502C3.80163 4.8484 3.81437 4.84091 3.82672 4.83476C3.83905 4.82859 3.85126 4.82358 3.86386 4.81788C3.87646 4.81217 3.88817 4.80621 3.901 4.80099C3.91383 4.79576 3.92848 4.79224 3.94152 4.78749C3.95457 4.78272 3.9688 4.77824 3.98204 4.77398C3.99527 4.7697 4.00914 4.76424 4.02256 4.76048L11.7516 2.58593Z" stroke="rgba(3, 79, 161, 1)" stroke-width="1.6"   ></path><path   fill="rgba(204, 78, 29, 1)"  d="M12.7933 6.90906L12.7933 14.1818L11.2067 14.1818L11.2067 6.90906L12.7933 6.90906ZM11.2067 6.90906C11.2067 6.46723 11.5619 6.10906 12 6.10906C12.4381 6.10906 12.7933 6.46723 12.7933 6.90906C12.7933 7.35089 12.4381 7.70906 12 7.70906C11.5619 7.70906 11.2067 7.35089 11.2067 6.90906ZM11.2067 14.1818C11.2067 13.74 11.5619 13.3818 12 13.3818C12.4381 13.3818 12.7933 13.74 12.7933 14.1818C12.7933 14.6236 12.4381 14.9818 12 14.9818C11.5619 14.9818 11.2067 14.6236 11.2067 14.1818Z"></path><path   fill="rgba(204, 78, 29, 1)"  d="M8.36377 9.74496L15.6365 9.74496L15.6365 11.3459L8.36377 11.3459L8.36377 9.74496ZM8.36377 11.3459C7.92194 11.3459 7.56377 10.9875 7.56377 10.5454C7.56377 10.1033 7.92194 9.74496 8.36377 9.74496C8.8056 9.74496 9.16377 10.1033 9.16377 10.5454C9.16377 10.9875 8.8056 11.3459 8.36377 11.3459ZM15.6365 11.3459C15.1947 11.3459 14.8365 10.9875 14.8365 10.5454C14.8365 10.1033 15.1947 9.74496 15.6365 9.74496C16.0783 9.74496 16.4365 10.1033 16.4365 10.5454C16.4365 10.9875 16.0783 11.3459 15.6365 11.3459Z"></path></svg>