<svg xmlns="http://www.w3.org/2000/svg" xmlns:xlink="http://www.w3.org/1999/xlink" width="24" height="24" viewBox="0 0 24 24" fill="none"><path d="M7.86977 22.7771C7.75898 22.7318 7.649 22.6846 7.53982 22.6354C7.43065 22.5863 7.32236 22.5353 7.21492 22.4825C7.10748 22.4296 7.00097 22.3749 6.89542 22.3183C6.78984 22.2618 6.68526 22.2034 6.58169 22.1433C6.47811 22.0831 6.37562 22.0212 6.27415 21.9575C6.17268 21.8938 6.07233 21.8284 5.97311 21.7612C5.87389 21.694 5.77582 21.6252 5.67894 21.5546C5.58207 21.4841 5.48645 21.4119 5.39202 21.338C5.38116 21.3304 5.3705 21.3226 5.36005 21.3144C5.34959 21.3063 5.33934 21.2979 5.32929 21.2892C5.31926 21.2806 5.30945 21.2717 5.29987 21.2625C5.29028 21.2533 5.28094 21.2439 5.27181 21.2343C5.26269 21.2247 5.25381 21.2148 5.24521 21.2047C5.23657 21.1946 5.22823 21.1843 5.22014 21.1738C5.21204 21.1633 5.20419 21.1526 5.19664 21.1417C5.18908 21.1308 5.18181 21.1197 5.1748 21.1084C5.1678 21.0971 5.1611 21.0856 5.15467 21.074C5.14824 21.0624 5.14212 21.0506 5.1363 21.0386C5.13046 21.0267 5.12493 21.0146 5.11972 21.0024C5.11451 20.9902 5.10959 20.9779 5.105 20.9654C5.1004 20.9529 5.09612 20.9403 5.09216 20.9276C5.08817 20.9149 5.08453 20.9022 5.08122 20.8893C5.0779 20.8764 5.07489 20.8635 5.07222 20.8504C5.06956 20.8374 5.06723 20.8243 5.06523 20.8112C5.0632 20.798 5.06154 20.7849 5.06019 20.7716C5.05885 20.7584 5.05784 20.7451 5.05716 20.7318C5.0565 20.7185 5.05616 20.7053 5.05613 20.692C5.05613 20.6786 5.05647 20.6654 5.05713 20.6521C5.0578 20.6388 5.05877 20.6255 5.06012 20.6123C5.06146 20.5991 5.06313 20.5859 5.06511 20.5727C5.06711 20.5596 5.06944 20.5465 5.0721 20.5335C5.07474 20.5204 5.07773 20.5075 5.08103 20.4946C5.08433 20.4817 5.08797 20.4689 5.09194 20.4562C5.09587 20.4435 5.10015 20.431 5.10475 20.4185C5.10932 20.406 5.11422 20.3937 5.11943 20.3815C5.12463 20.3692 5.13016 20.3571 5.13598 20.3452C5.1418 20.3333 5.14792 20.3214 5.15433 20.3098C5.16073 20.2982 5.16743 20.2867 5.17443 20.2754C5.18142 20.2642 5.18869 20.253 5.19624 20.2421C5.2038 20.2312 5.2116 20.2205 5.2197 20.21C5.22779 20.1994 5.23613 20.1891 5.24474 20.179C5.25335 20.1689 5.2622 20.1591 5.2713 20.1494C5.28042 20.1398 5.28977 20.1304 5.29933 20.1212C5.30892 20.112 5.31872 20.1031 5.32875 20.0944C5.33878 20.0858 5.34902 20.0774 5.35947 20.0692C5.36994 20.0611 5.3806 20.0532 5.39143 20.0456C5.40227 20.038 5.4133 20.0307 5.42452 20.0236C5.43575 20.0166 5.44714 20.0099 5.45871 20.0034C5.47026 19.9969 5.48197 19.9908 5.49383 19.9849C5.50569 19.979 5.5177 19.9735 5.52986 19.9682C5.54201 19.963 5.55429 19.9581 5.56669 19.9534C5.57909 19.9488 5.59159 19.9445 5.60421 19.9405C5.61682 19.9365 5.62954 19.9329 5.64233 19.9295C5.65512 19.9262 5.66801 19.9232 5.68095 19.9205C5.69391 19.9178 5.70692 19.9155 5.71998 19.9135C5.73307 19.9114 5.74618 19.9098 5.75933 19.9084C5.77247 19.9071 5.78565 19.906 5.79886 19.9054C5.81206 19.9047 5.82527 19.9043 5.8385 19.9043C5.85173 19.9043 5.86494 19.9047 5.87814 19.9053C5.89135 19.906 5.90453 19.907 5.91769 19.9084C5.93085 19.9097 5.94396 19.9114 5.95702 19.9134C5.9701 19.9154 5.98311 19.9177 5.99605 19.9204C6.00901 19.9231 6.0219 19.9261 6.03469 19.9294C6.04748 19.9327 6.0602 19.9364 6.07282 19.9404C6.08544 19.9443 6.09794 19.9487 6.11033 19.9533C6.12273 19.9579 6.13501 19.9628 6.14717 19.968C6.15932 19.9733 6.17135 19.9788 6.18322 19.9847C6.19508 19.9906 6.20679 19.9967 6.21836 20.0031C6.22993 20.0096 6.24132 20.0164 6.25255 20.0234C6.26378 20.0304 6.27481 20.0377 6.28566 20.0453C6.29652 20.0529 6.30719 20.0608 6.31763 20.0689C6.3281 20.0771 6.33834 20.0855 6.34837 20.0941C6.42893 20.1571 6.51054 20.2186 6.59321 20.2787C6.67587 20.3389 6.75954 20.3975 6.8442 20.4548C6.9289 20.512 7.01452 20.5677 7.1011 20.622C7.1877 20.6762 7.27518 20.7289 7.36359 20.7802C7.452 20.8314 7.54124 20.881 7.63134 20.9291C7.72144 20.9772 7.81235 21.0238 7.90403 21.0687C7.99572 21.1137 8.08817 21.157 8.18137 21.1988C8.27455 21.2405 8.36842 21.2806 8.46299 21.3191C8.53597 21.3496 8.60931 21.3792 8.683 21.4078C8.75669 21.4365 8.83074 21.4643 8.90512 21.4911C8.97949 21.5179 9.05418 21.5439 9.12919 21.5688C9.2042 21.5938 9.27952 21.6179 9.35512 21.641C9.43071 21.6642 9.5066 21.6863 9.58274 21.7076C9.65887 21.7288 9.73527 21.7491 9.81189 21.7685C9.88854 21.7879 9.96541 21.8063 10.0425 21.8237C10.1196 21.8412 10.1969 21.8577 10.2744 21.8732C10.3519 21.8887 10.4295 21.9033 10.5074 21.917C10.5852 21.9306 10.6632 21.9432 10.7414 21.9549C10.8196 21.9666 10.8978 21.9773 10.9763 21.9871C11.0547 21.9968 11.1332 22.0056 11.2118 22.0134C11.2905 22.0212 11.3692 22.0281 11.448 22.0339C11.5268 22.0398 11.6057 22.0447 11.6846 22.0486C11.7635 22.0525 11.8425 22.0554 11.9215 22.0574C12.0005 22.0593 12.0795 22.0603 12.1585 22.0603C12.2375 22.0603 12.3165 22.0593 12.3955 22.0574C12.4745 22.0554 12.5535 22.0525 12.6324 22.0486C12.7113 22.0447 12.7901 22.0398 12.869 22.0339C12.9478 22.0281 13.0265 22.0212 13.1051 22.0134C13.1838 22.0056 13.2623 21.9968 13.3407 21.9871C13.4191 21.9773 13.4974 21.9666 13.5756 21.9549C13.6537 21.9432 13.7318 21.9306 13.8096 21.917C13.8874 21.9033 13.9651 21.8887 14.0426 21.8732C14.1201 21.8577 14.1974 21.8412 14.2745 21.8237C14.3516 21.8063 14.4284 21.7879 14.5051 21.7685C14.5817 21.7491 14.6581 21.7288 14.7342 21.7076C14.8104 21.6863 14.8863 21.6642 14.9619 21.641C15.0374 21.6179 15.1128 21.5938 15.1878 21.5688C15.2628 21.5439 15.3375 21.5179 15.4119 21.4911C15.4862 21.4643 15.5603 21.4365 15.634 21.4078C15.7077 21.3792 15.781 21.3496 15.854 21.3191C15.9487 21.2805 16.0428 21.2402 16.1362 21.1983C16.2295 21.1564 16.3222 21.1129 16.4141 21.0678C16.5059 21.0227 16.597 20.9761 16.6873 20.9278C16.7776 20.8796 16.8671 20.8298 16.9557 20.7785C17.0443 20.7271 17.1319 20.6742 17.2187 20.6199C17.3055 20.5655 17.3913 20.5097 17.4762 20.4523C17.5611 20.395 17.645 20.3362 17.7278 20.2759C17.8107 20.2157 17.8925 20.154 17.9733 20.091C17.9833 20.0823 17.9936 20.0739 18.004 20.0658C18.0145 20.0576 18.0251 20.0498 18.036 20.0422C18.0469 20.0346 18.0579 20.0273 18.0691 20.0202C18.0803 20.0132 18.0917 20.0065 18.1033 20C18.1149 19.9936 18.1266 19.9874 18.1384 19.9815C18.1503 19.9757 18.1623 19.9701 18.1745 19.9649C18.1867 19.9597 18.1989 19.9547 18.2113 19.9501C18.2237 19.9455 18.2362 19.9412 18.2488 19.9372C18.2615 19.9333 18.2742 19.9296 18.287 19.9263C18.2998 19.9229 18.3127 19.9199 18.3256 19.9173C18.3386 19.9146 18.3516 19.9122 18.3646 19.9102C18.3777 19.9082 18.3908 19.9066 18.404 19.9052C18.4171 19.9039 18.4303 19.9028 18.4435 19.9022C18.4567 19.9015 18.4699 19.9012 18.4832 19.9012C18.4964 19.9012 18.5096 19.9015 18.5228 19.9022C18.536 19.9029 18.5492 19.9039 18.5624 19.9053C18.5755 19.9066 18.5886 19.9083 18.6017 19.9103C18.6147 19.9123 18.6278 19.9147 18.6407 19.9174C18.6537 19.92 18.6665 19.9231 18.6793 19.9264C18.6921 19.9297 18.7048 19.9334 18.7175 19.9374C18.7301 19.9414 18.7426 19.9457 18.755 19.9503C18.7674 19.9549 18.7796 19.9598 18.7918 19.9651C18.8039 19.9704 18.8159 19.9759 18.8278 19.9818C18.8397 19.9876 18.8514 19.9938 18.863 20.0002C18.8745 20.0067 18.8859 20.0135 18.8971 20.0205C18.9083 20.0276 18.9194 20.0349 18.9302 20.0425C18.9411 20.0501 18.9517 20.0579 18.9622 20.0661C18.9726 20.0742 18.9829 20.0826 18.9929 20.0913C19.0029 20.1 19.0127 20.1089 19.0223 20.1181C19.0319 20.1272 19.0412 20.1366 19.0503 20.1463C19.0595 20.1559 19.0683 20.1658 19.0769 20.1759C19.0855 20.186 19.0939 20.1963 19.102 20.2068C19.1101 20.2173 19.1179 20.2281 19.1254 20.239C19.133 20.2499 19.1402 20.261 19.1472 20.2723C19.1542 20.2836 19.1609 20.2951 19.1673 20.3067C19.1737 20.3183 19.1799 20.3301 19.1857 20.342C19.1915 20.354 19.197 20.3661 19.2022 20.3783C19.2074 20.3905 19.2123 20.4029 19.2169 20.4154C19.2215 20.4278 19.2258 20.4404 19.2297 20.4531C19.2337 20.4658 19.2373 20.4786 19.2406 20.4914C19.2439 20.5043 19.2469 20.5173 19.2496 20.5303C19.2522 20.5433 19.2546 20.5564 19.2566 20.5696C19.2585 20.5827 19.2602 20.5959 19.2615 20.6092C19.2629 20.6224 19.2639 20.6356 19.2645 20.649C19.2652 20.6622 19.2655 20.6755 19.2655 20.6888C19.2655 20.7021 19.2652 20.7154 19.2645 20.7287C19.2638 20.742 19.2628 20.7552 19.2615 20.7685C19.2601 20.7817 19.2584 20.7949 19.2564 20.808C19.2544 20.8212 19.2521 20.8343 19.2494 20.8473C19.2467 20.8603 19.2438 20.8733 19.2404 20.8861C19.2371 20.899 19.2335 20.9118 19.2295 20.9245C19.2255 20.9372 19.2213 20.9498 19.2167 20.9622C19.2121 20.9747 19.2072 20.9871 19.2019 20.9993C19.1967 21.0115 19.1912 21.0236 19.1854 21.0355C19.1795 21.0475 19.1734 21.0592 19.167 21.0709C19.1606 21.0825 19.1539 21.0939 19.1469 21.1052C19.1398 21.1165 19.1326 21.1276 19.125 21.1385C19.1175 21.1494 19.1096 21.1602 19.1015 21.1707C19.0934 21.1812 19.0851 21.1915 19.0765 21.2016C19.0678 21.2116 19.059 21.2215 19.0498 21.2312C19.0407 21.2408 19.0314 21.2502 19.0218 21.2594C19.0122 21.2685 19.0024 21.2774 18.9924 21.2861C18.9823 21.2947 18.9721 21.3031 18.9616 21.3113C18.9512 21.3194 18.9405 21.3273 18.9296 21.3349C18.8349 21.4089 18.739 21.4812 18.6419 21.5519C18.5447 21.6226 18.4463 21.6916 18.3468 21.7589C18.2473 21.8262 18.1466 21.8917 18.0448 21.9555C17.9431 22.0193 17.8402 22.0813 17.7363 22.1416C17.6324 22.2018 17.5275 22.2602 17.4216 22.3168C17.3157 22.3734 17.2088 22.4281 17.101 22.481C16.9933 22.5338 16.8846 22.5848 16.7751 22.634C16.6655 22.6831 16.5552 22.7303 16.4441 22.7755C16.3594 22.8109 16.2743 22.8453 16.1888 22.8786C16.1033 22.9119 16.0174 22.9441 15.9311 22.9753C15.8448 23.0065 15.7582 23.0366 15.6711 23.0656C15.5841 23.0946 15.4967 23.1225 15.409 23.1494C15.3213 23.1763 15.2332 23.202 15.1449 23.2267C15.0565 23.2514 14.9679 23.275 14.879 23.2975C14.7901 23.3199 14.7009 23.3413 14.6114 23.3616C14.522 23.3818 14.4323 23.401 14.3424 23.4191C14.2525 23.4371 14.1623 23.454 14.072 23.4699C13.9817 23.4857 13.8912 23.5004 13.8005 23.514C13.7098 23.5275 13.6189 23.54 13.5279 23.5513C13.4369 23.5626 13.3458 23.5728 13.2546 23.5819C13.1633 23.591 13.072 23.5989 12.9805 23.6057C12.8891 23.6125 12.7976 23.6182 12.706 23.6227C12.6144 23.6273 12.5228 23.6307 12.4312 23.633C12.3395 23.6352 12.2478 23.6364 12.1561 23.6364C12.0644 23.6364 11.9728 23.6352 11.8811 23.633C11.7895 23.6307 11.6978 23.6273 11.6063 23.6227C11.5147 23.6182 11.4232 23.6125 11.3317 23.6057C11.2403 23.5989 11.1489 23.591 11.0577 23.5819C10.9664 23.5728 10.8753 23.5626 10.7843 23.5513C10.6933 23.54 10.6025 23.5275 10.5118 23.514C10.4211 23.5004 10.3306 23.4857 10.2403 23.4699C10.1499 23.454 10.0598 23.4371 9.96988 23.4191C9.87996 23.401 9.79027 23.3818 9.70084 23.3616C9.6114 23.3413 9.52221 23.3199 9.43328 23.2975C9.34436 23.275 9.25573 23.2514 9.16739 23.2267C9.07903 23.202 8.99101 23.1763 8.90328 23.1494C8.81556 23.1225 8.7282 23.0946 8.64116 23.0656C8.55412 23.0366 8.46746 23.0065 8.38116 22.9753C8.29487 22.9441 8.20898 22.9119 8.12346 22.8786C8.03796 22.8453 7.95287 22.8109 7.8682 22.7755L7.86977 22.7771ZM1.47896 18.6156C1.46045 18.5834 1.44284 18.5507 1.42611 18.5175C1.40938 18.4843 1.39356 18.4506 1.37866 18.4166C1.36376 18.3825 1.34979 18.348 1.33675 18.3132C1.32372 18.2783 1.31164 18.2432 1.30051 18.2077C1.28938 18.1722 1.27922 18.1364 1.27004 18.1003C1.26085 18.0642 1.25265 18.028 1.24543 17.9914C1.23821 17.9549 1.23199 17.9183 1.22676 17.8814C1.22153 17.8445 1.2173 17.8076 1.21408 17.7705C1.21086 17.7334 1.20864 17.6963 1.20743 17.659C1.20623 17.6218 1.20603 17.5846 1.20683 17.5474C1.20764 17.5102 1.20946 17.473 1.21229 17.4359C1.21511 17.3988 1.21894 17.3618 1.22378 17.3249C1.22861 17.2879 1.23444 17.2512 1.24127 17.2146C1.24809 17.178 1.25591 17.1417 1.26471 17.1055C1.27351 17.0693 1.28328 17.0334 1.29402 16.9978C1.30477 16.9622 1.31647 16.9269 1.32913 16.8919C1.3418 16.8569 1.3554 16.8223 1.36993 16.7881C1.38447 16.7539 1.39993 16.7201 1.4163 16.6867C1.43267 16.6533 1.44994 16.6204 1.46809 16.5879C1.48625 16.5555 1.50527 16.5236 1.52516 16.4922C1.54505 16.4608 1.56577 16.43 1.58733 16.3997C1.60889 16.3695 1.63126 16.3398 1.65443 16.3108C1.67759 16.2818 1.70153 16.2534 1.72624 16.2257C1.75094 16.1979 1.77638 16.1709 1.80256 16.1446C1.82873 16.1183 1.85559 16.0927 1.88315 16.0679C1.91071 16.043 1.93892 16.019 1.9678 15.9957C1.99666 15.9724 2.02613 15.9498 2.05621 15.9282C2.08631 15.9065 2.11696 15.8857 2.14817 15.8657C2.17939 15.8457 2.21112 15.8265 2.24338 15.8083C2.27563 15.79 2.30835 15.7727 2.34154 15.7562C2.37474 15.7398 2.40835 15.7242 2.44238 15.7096C2.47642 15.695 2.51083 15.6813 2.54561 15.6686C2.58039 15.6559 2.61548 15.6441 2.6509 15.6333C2.68631 15.6225 2.72199 15.6127 2.75794 15.6039C2.79389 15.595 2.83006 15.5872 2.86643 15.5803C2.90281 15.5735 2.93934 15.5676 2.97602 15.5628C3.01272 15.5579 3.04952 15.5541 3.08642 15.5512C3.12332 15.5484 3.16026 15.5466 3.19726 15.5458C3.23427 15.545 3.27126 15.5452 3.30824 15.5464C3.34524 15.5477 3.38217 15.5499 3.41903 15.5532C3.45589 15.5564 3.49264 15.5607 3.52928 15.5659C3.56592 15.5712 3.60238 15.5775 3.63867 15.5848C3.67497 15.592 3.71104 15.6003 3.74687 15.6096C3.78272 15.6188 3.81828 15.629 3.85357 15.6402C3.88887 15.6514 3.92384 15.6636 3.95847 15.6767C3.9931 15.6899 4.02734 15.7039 4.06121 15.7189C4.09508 15.7339 4.12852 15.7498 4.16153 15.7667C4.19452 15.7835 4.22705 15.8012 4.25909 15.8199C4.29115 15.8385 4.32265 15.858 4.35364 15.8784C4.38463 15.8987 4.41505 15.9199 4.44489 15.9419C4.47472 15.9639 4.50395 15.9867 4.53254 16.0104C4.56113 16.034 4.58908 16.0584 4.61635 16.0836C4.64362 16.1087 4.67021 16.1346 4.69606 16.1612C4.72193 16.1878 4.74707 16.2152 4.77146 16.2432C4.79584 16.2711 4.81947 16.2998 4.84231 16.3291C4.86513 16.3584 4.88716 16.3883 4.90839 16.4188C4.92959 16.4493 4.94997 16.4804 4.96951 16.512C4.98902 16.5436 5.00768 16.5757 5.02546 16.6084C5.04324 16.641 5.06014 16.6741 5.07614 16.7077C5.09213 16.7413 5.1072 16.7752 5.12136 16.8097C5.13552 16.8441 5.14872 16.8788 5.16098 16.9139C5.17323 16.9491 5.18453 16.9845 5.19487 17.0202C5.20522 17.056 5.21459 17.092 5.22298 17.1282C5.23136 17.1645 5.23875 17.201 5.24516 17.2376C5.25159 17.2743 5.25699 17.3111 5.2614 17.3481C5.26582 17.385 5.26922 17.4221 5.27164 17.4592C5.27404 17.4964 5.27543 17.5336 5.27583 17.5708C5.27619 17.608 5.27558 17.6452 5.27394 17.6824C5.2723 17.7196 5.26969 17.7567 5.26604 17.7938C5.2624 17.8308 5.25775 17.8677 5.2521 17.9045C5.24645 17.9413 5.23983 17.9779 5.2322 18.0143C5.22454 18.0508 5.21593 18.087 5.20634 18.1229C5.19673 18.1589 5.18617 18.1945 5.17465 18.2299C5.16313 18.2653 5.15063 18.3003 5.13721 18.335C5.12378 18.3697 5.10942 18.404 5.09414 18.4379C5.07885 18.4718 5.06264 18.5053 5.04554 18.5383C5.02845 18.5713 5.01045 18.6038 4.99159 18.6358C4.97271 18.6679 4.953 18.6993 4.93243 18.7303C4.91184 18.7612 4.89044 18.7916 4.86823 18.8213C4.846 18.8511 4.82299 18.8802 4.79919 18.9088C4.77539 18.9373 4.75082 18.9651 4.7255 18.9923C4.70019 19.0194 4.67417 19.0458 4.64741 19.0716C4.62068 19.0973 4.59324 19.1223 4.56514 19.1465C4.53704 19.1707 4.5083 19.1942 4.47893 19.2168C4.44956 19.2395 4.4196 19.2613 4.38905 19.2823C4.35851 19.3033 4.3274 19.3234 4.29573 19.3427C4.26408 19.362 4.23194 19.3804 4.19929 19.398C4.16664 19.4155 4.13355 19.4321 4.1 19.4478C4.06645 19.4635 4.0325 19.4783 3.99814 19.4922C3.96378 19.506 3.9291 19.5189 3.89405 19.5309C3.859 19.5428 3.82364 19.5538 3.78801 19.5638C3.75235 19.5738 3.71645 19.5828 3.68032 19.5908C3.6442 19.5989 3.60786 19.6059 3.57135 19.612C3.53483 19.618 3.4982 19.623 3.46139 19.6271C3.42461 19.6311 3.38773 19.6341 3.35077 19.6361C3.31382 19.6381 3.27685 19.6391 3.23984 19.6391C3.21765 19.6391 3.19546 19.6387 3.17329 19.638C3.15113 19.6372 3.12898 19.6361 3.10684 19.6346C3.0847 19.6332 3.06259 19.6313 3.04051 19.6291C3.01844 19.6269 2.9964 19.6244 2.97441 19.6214C2.95241 19.6185 2.93048 19.6152 2.9086 19.6116C2.88671 19.6079 2.86489 19.6039 2.84312 19.5996C2.82138 19.5952 2.7997 19.5905 2.77809 19.5854C2.75649 19.5803 2.73498 19.5749 2.71355 19.5691C2.69213 19.5633 2.6708 19.5572 2.64958 19.5507C2.62835 19.5442 2.60723 19.5374 2.58623 19.5302C2.56523 19.523 2.54435 19.5155 2.52357 19.5076C2.50282 19.4997 2.48219 19.4915 2.4617 19.483C2.4412 19.4744 2.42086 19.4655 2.40066 19.4563C2.38045 19.4471 2.36041 19.4375 2.34052 19.4277C2.32063 19.4178 2.3009 19.4076 2.28133 19.3971C2.26177 19.3865 2.24238 19.3757 2.22317 19.3645C2.20397 19.3534 2.18495 19.3419 2.16612 19.3301C2.14728 19.3183 2.12864 19.3062 2.11018 19.2938C2.09174 19.2814 2.07352 19.2687 2.0555 19.2557C2.03747 19.2427 2.01965 19.2294 2.00206 19.2158C1.98445 19.2022 1.96708 19.1883 1.94994 19.1742C1.93279 19.16 1.91588 19.1456 1.8992 19.1309C1.88252 19.1161 1.86609 19.1012 1.8499 19.0859C1.83372 19.0706 1.81778 19.0551 1.80209 19.0393C1.78641 19.0236 1.77099 19.0075 1.75582 18.9912C1.74066 18.9749 1.72577 18.9584 1.71114 18.9416C1.69652 18.9248 1.68217 18.9078 1.6681 18.8906C1.65402 18.8733 1.64024 18.8558 1.62673 18.8381C1.61323 18.8204 1.60002 18.8025 1.5871 18.7844C1.57418 18.7662 1.56155 18.7479 1.54923 18.7293C1.5369 18.7108 1.52488 18.692 1.51317 18.6731C1.50145 18.6541 1.49005 18.635 1.47896 18.6156ZM20.066 19.3635C20.0307 19.3431 19.9961 19.3216 19.9621 19.299C19.9282 19.2765 19.8949 19.2529 19.8623 19.2283C19.8297 19.2038 19.7979 19.1782 19.7669 19.1517C19.7358 19.1252 19.7056 19.0979 19.6762 19.0696C19.6468 19.0412 19.6182 19.0121 19.5906 18.982C19.5629 18.952 19.5361 18.9212 19.5103 18.8895C19.4844 18.8578 19.4596 18.8254 19.4357 18.7923C19.4118 18.7591 19.3889 18.7253 19.367 18.6908C19.3451 18.6562 19.3243 18.6211 19.3045 18.5853C19.2847 18.5495 19.266 18.5131 19.2484 18.4762C19.2308 18.4392 19.2143 18.4018 19.1989 18.3639C19.1836 18.326 19.1693 18.2877 19.1562 18.2489C19.1432 18.2101 19.1312 18.171 19.1205 18.1315C19.1097 18.092 19.1001 18.0522 19.0917 18.0121C19.0834 17.972 19.0762 17.9318 19.0702 17.8912C19.0642 17.8507 19.0595 17.8101 19.0559 17.7693C19.0524 17.7285 19.05 17.6876 19.0489 17.6467C19.0478 17.6057 19.0479 17.5648 19.0492 17.5239C19.0506 17.4829 19.0531 17.4421 19.0569 17.4013C19.0606 17.3605 19.0656 17.3199 19.0718 17.2794C19.078 17.239 19.0854 17.1987 19.094 17.1587C19.1026 17.1186 19.1123 17.0789 19.1233 17.0395C19.1343 17 19.1464 16.9609 19.1597 16.9222C19.173 16.8835 19.1874 16.8453 19.203 16.8074C19.2186 16.7696 19.2353 16.7323 19.2531 16.6954C19.2709 16.6586 19.2897 16.6223 19.3097 16.5866C19.3297 16.5509 19.3507 16.5159 19.3728 16.4815C19.3948 16.4471 19.4179 16.4133 19.442 16.3803C19.4661 16.3473 19.4911 16.315 19.5171 16.2835C19.5431 16.252 19.57 16.2213 19.5978 16.1914C19.6256 16.1615 19.6543 16.1325 19.6839 16.1043C19.7135 16.0762 19.7438 16.0489 19.775 16.0226C19.8062 15.9963 19.8382 15.9709 19.8709 15.9465C19.9036 15.9221 19.9369 15.8987 19.971 15.8764C20.0051 15.854 20.0399 15.8327 20.0752 15.8124C20.1106 15.7921 20.1465 15.7729 20.183 15.7548C20.2196 15.7367 20.2566 15.7197 20.2941 15.7038C20.3316 15.6879 20.3696 15.6732 20.408 15.6596C20.4464 15.646 20.4852 15.6336 20.5243 15.6224C20.5635 15.6111 20.6029 15.6011 20.6427 15.5922C20.6824 15.5834 20.7224 15.5757 20.7626 15.5693C20.8028 15.5628 20.8432 15.5576 20.8837 15.5536C20.9242 15.5496 20.9648 15.5468 21.0055 15.5452C21.0461 15.5437 21.0868 15.5433 21.1276 15.5442C21.1683 15.5451 21.2089 15.5473 21.2495 15.5506C21.29 15.554 21.3305 15.5586 21.3708 15.5643C21.4111 15.5701 21.4512 15.5771 21.4911 15.5853C21.5309 15.5936 21.5705 15.603 21.6099 15.6136C21.6492 15.6242 21.6882 15.6359 21.7268 15.6489C21.7654 15.6619 21.8036 15.676 21.8414 15.6913C21.8792 15.7065 21.9164 15.7229 21.9532 15.7404C21.99 15.7579 22.0263 15.7765 22.062 15.7963C22.0977 15.816 22.1327 15.8367 22.1672 15.8585C22.2016 15.8803 22.2354 15.9032 22.2685 15.9271C22.3016 15.9509 22.3339 15.9758 22.3655 16.0016C22.3971 16.0274 22.4279 16.0541 22.458 16.0818C22.488 16.1095 22.5171 16.138 22.5454 16.1674C22.5737 16.1969 22.6011 16.2272 22.6276 16.2583C22.6541 16.2893 22.6797 16.3212 22.7043 16.3538C22.7289 16.3865 22.7525 16.4198 22.7751 16.4539C22.7977 16.4879 22.8193 16.5226 22.8398 16.558C22.8603 16.5933 22.8798 16.6293 22.8982 16.6658C22.9166 16.7023 22.9339 16.7394 22.9501 16.777C22.9662 16.8146 22.9813 16.8526 22.9952 16.8911C23.0091 16.9296 23.0219 16.9684 23.0335 17.0077C23.0451 17.0469 23.0555 17.0865 23.0647 17.1264C23.0739 17.1663 23.082 17.2064 23.0888 17.2468C23.0957 17.2872 23.1013 17.3277 23.1057 17.3684C23.1101 17.4091 23.1133 17.4499 23.1153 17.4908C23.1173 17.5318 23.1181 17.5727 23.1176 17.6136C23.1171 17.6546 23.1155 17.6955 23.1126 17.7363C23.1097 17.7772 23.1056 17.8179 23.1002 17.8585C23.0949 17.8991 23.0884 17.9395 23.0806 17.9797C23.0729 18.0199 23.064 18.0599 23.0538 18.0995C23.0437 18.1392 23.0324 18.1785 23.02 18.2175C23.0075 18.2565 22.9939 18.2951 22.9791 18.3332C22.9643 18.3714 22.9484 18.4091 22.9314 18.4463C22.9144 18.4835 22.8963 18.5201 22.8771 18.5562C22.8579 18.5923 22.8376 18.6278 22.8163 18.6627C22.795 18.6976 22.7726 18.7318 22.7493 18.7654C22.7259 18.7989 22.7015 18.8317 22.6762 18.8638C22.6509 18.8958 22.6246 18.9271 22.5975 18.9576C22.5703 18.9881 22.5422 19.0177 22.5133 19.0465C22.4843 19.0753 22.4545 19.1032 22.4239 19.1302C22.3933 19.1572 22.3619 19.1832 22.3297 19.2083C22.2975 19.2334 22.2646 19.2575 22.231 19.2806C22.1974 19.3037 22.1631 19.3258 22.1282 19.3468C22.0933 19.3678 22.0578 19.3878 22.0216 19.4067C21.9855 19.4256 21.9489 19.4434 21.9117 19.4601C21.8745 19.4767 21.8369 19.4923 21.7987 19.5067C21.7606 19.5211 21.7222 19.5343 21.6832 19.5464C21.6443 19.5585 21.6051 19.5694 21.5656 19.5791C21.526 19.5888 21.4862 19.5973 21.4462 19.6046C21.4061 19.612 21.3659 19.6181 21.3254 19.6229C21.285 19.6278 21.2445 19.6315 21.2038 19.6339C21.1632 19.6363 21.1225 19.6375 21.0818 19.6375C21.0375 19.6376 20.9933 19.6363 20.9491 19.6334C20.9048 19.6306 20.8608 19.6264 20.8168 19.6207C20.7729 19.615 20.7292 19.6078 20.6857 19.5992C20.6422 19.5906 20.5991 19.5806 20.5562 19.5692C20.5134 19.5578 20.471 19.545 20.429 19.5308C20.387 19.5166 20.3455 19.501 20.3045 19.4841C20.2636 19.4671 20.2232 19.4489 20.1834 19.4293C20.1436 19.4097 20.1044 19.3889 20.066 19.3667L20.066 19.3635ZM22.3763 14.525C22.3635 14.5236 22.3508 14.5219 22.3381 14.5199C22.3255 14.5179 22.3129 14.5155 22.3003 14.5129C22.2878 14.5103 22.2753 14.5073 22.2629 14.504C22.2505 14.5008 22.2382 14.4972 22.2259 14.4934C22.2137 14.4895 22.2015 14.4853 22.1895 14.4808C22.1775 14.4764 22.1656 14.4716 22.1538 14.4665C22.142 14.4615 22.1303 14.4561 22.1188 14.4505C22.1073 14.4449 22.0959 14.4389 22.0846 14.4327C22.0734 14.4265 22.0623 14.4201 22.0514 14.4133C22.0404 14.4066 22.0297 14.3996 22.0191 14.3923C22.0085 14.385 21.9981 14.3775 21.9879 14.3697C21.9777 14.3619 21.9676 14.3538 21.9578 14.3455C21.948 14.3373 21.9384 14.3287 21.929 14.32C21.9196 14.3112 21.9104 14.3022 21.9014 14.293C21.8924 14.2837 21.8837 14.2743 21.8752 14.2647C21.8667 14.255 21.8584 14.2452 21.8504 14.2351C21.8424 14.225 21.8346 14.2148 21.8271 14.2044C21.8195 14.1939 21.8123 14.1833 21.8053 14.1725C21.7983 14.1617 21.7915 14.1507 21.7851 14.1396C21.7786 14.1284 21.7724 14.1171 21.7665 14.1057C21.7605 14.0942 21.7549 14.0827 21.7496 14.0709C21.7442 14.0592 21.7391 14.0474 21.7344 14.0354C21.7296 14.0234 21.7251 14.0113 21.7209 13.9992C21.7167 13.987 21.7129 13.9746 21.7093 13.9623C21.7057 13.9499 21.7024 13.9374 21.6995 13.9249C21.6965 13.9123 21.6938 13.8997 21.6915 13.887C21.6891 13.8743 21.6871 13.8616 21.6853 13.8488C21.6836 13.8361 21.6822 13.8232 21.6811 13.8104C21.68 13.7975 21.6792 13.7847 21.6787 13.7718C21.6782 13.7589 21.678 13.746 21.6782 13.7331C21.6783 13.7202 21.6788 13.7073 21.6796 13.6944C21.6804 13.6816 21.6815 13.6687 21.6829 13.6559C21.7314 13.2416 21.757 12.826 21.7596 12.4089C21.7569 11.9912 21.7313 11.575 21.6829 11.1603C21.6728 11.0814 21.6618 11.0027 21.6498 10.9241C21.6378 10.8455 21.6249 10.7671 21.611 10.6889C21.597 10.6106 21.5821 10.5326 21.5663 10.4547C21.5504 10.3769 21.5336 10.2992 21.5158 10.2217C21.4981 10.1443 21.4793 10.067 21.4596 9.99006C21.4399 9.91308 21.4193 9.83635 21.3977 9.75988C21.3762 9.6834 21.3536 9.6072 21.3302 9.53131C21.3067 9.45541 21.2823 9.37981 21.257 9.30453C21.2316 9.22922 21.2054 9.15426 21.1782 9.07961C21.151 9.00497 21.1229 8.9307 21.0938 8.85677C21.0648 8.78284 21.0349 8.70928 21.004 8.63609C20.9732 8.5629 20.9414 8.49013 20.9088 8.41772C20.8761 8.34532 20.8426 8.27336 20.8082 8.20181C20.7738 8.13025 20.7385 8.05915 20.7023 7.98847C20.6661 7.91781 20.629 7.8476 20.5911 7.77785C20.5532 7.7081 20.5144 7.63885 20.4748 7.57008C20.4351 7.50132 20.3947 7.43305 20.3534 7.3653C20.312 7.29754 20.2699 7.23031 20.2269 7.16361C20.1839 7.09691 20.1401 7.03076 20.0955 6.96515C20.0509 6.89953 20.0055 6.83449 19.9592 6.77003C19.913 6.70555 19.866 6.64168 19.8182 6.57838C19.7704 6.51508 19.7218 6.45239 19.6724 6.39032C19.6231 6.32825 19.573 6.26679 19.5221 6.20595C19.4712 6.14511 19.4196 6.08494 19.3672 6.02542C19.3149 5.96589 19.2618 5.90701 19.208 5.84881C19.1541 5.7906 19.0996 5.73308 19.0444 5.67625C18.9891 5.61939 18.9332 5.56325 18.8765 5.50782C18.8199 5.45239 18.7626 5.39765 18.7046 5.34365C18.6466 5.28965 18.588 5.23636 18.5287 5.18384C18.4694 5.13129 18.4095 5.0795 18.3489 5.02845C18.2883 4.9774 18.2271 4.92714 18.1653 4.87764C18.1035 4.82812 18.041 4.77941 17.978 4.73146C17.8974 4.66825 17.8156 4.60648 17.7329 4.54613C17.6501 4.48578 17.5664 4.42688 17.4816 4.36944C17.3968 4.31199 17.311 4.25605 17.2243 4.2016C17.1376 4.14716 17.05 4.09422 16.9614 4.04282C16.8729 3.9914 16.7836 3.94156 16.6933 3.89327C16.6031 3.84497 16.512 3.79825 16.4202 3.75313C16.3283 3.70799 16.2357 3.66447 16.1423 3.62257C16.049 3.58067 15.955 3.5404 15.8602 3.50175C15.8493 3.49631 15.8385 3.49061 15.8279 3.48463C15.8172 3.47867 15.8067 3.47247 15.7963 3.466C15.7859 3.45956 15.7757 3.45287 15.7657 3.44593C15.7556 3.43899 15.7457 3.43183 15.736 3.42443C15.7262 3.41702 15.7167 3.40939 15.7073 3.40155C15.6979 3.3937 15.6888 3.38565 15.6797 3.37736C15.6707 3.36907 15.6619 3.36058 15.6533 3.3519C15.6448 3.34321 15.6363 3.33431 15.6281 3.32521C15.62 3.31613 15.612 3.30685 15.6042 3.29738C15.5965 3.28791 15.5889 3.27827 15.5816 3.26845C15.5743 3.25863 15.5672 3.24864 15.5604 3.23848C15.5535 3.22832 15.5469 3.21802 15.5405 3.20756C15.5342 3.1971 15.528 3.1865 15.5222 3.17575C15.5163 3.165 15.5107 3.1541 15.5053 3.14308C15.4999 3.13208 15.4948 3.12094 15.49 3.10967C15.4851 3.09843 15.4805 3.08706 15.4762 3.07559C15.4719 3.06411 15.4678 3.05254 15.464 3.04088C15.4603 3.02922 15.4568 3.01748 15.4535 3.00565C15.4502 2.99382 15.4473 2.98191 15.4446 2.96995C15.4419 2.95797 15.4395 2.94594 15.4374 2.93386C15.4353 2.92178 15.4334 2.90968 15.4318 2.8975C15.4303 2.88532 15.429 2.87312 15.428 2.86089C15.427 2.84867 15.4263 2.83644 15.4259 2.82416C15.4254 2.81191 15.4253 2.79966 15.4254 2.78738C15.4256 2.77511 15.426 2.76285 15.4267 2.7506C15.4274 2.73835 15.4284 2.72612 15.4297 2.71392C15.431 2.70172 15.4325 2.68954 15.4344 2.67741C15.4362 2.66528 15.4383 2.65323 15.4407 2.6412C15.4432 2.62917 15.4458 2.61719 15.4488 2.6053C15.4518 2.5934 15.455 2.58156 15.4585 2.5698C15.462 2.55807 15.4658 2.54641 15.4699 2.53482C15.4739 2.52325 15.4782 2.51179 15.4828 2.50042C15.4874 2.48906 15.4922 2.47779 15.4974 2.46665C15.5025 2.45551 15.5078 2.4445 15.5135 2.43361C15.5191 2.42271 15.5249 2.41196 15.5311 2.40135C15.5372 2.39074 15.5436 2.38028 15.5502 2.36996C15.5568 2.35966 15.5636 2.34951 15.5707 2.3395C15.5778 2.32951 15.5851 2.3197 15.5926 2.31005C15.6002 2.30041 15.6079 2.29095 15.6159 2.28166C15.6239 2.27238 15.6321 2.26329 15.6404 2.25438C15.6488 2.24549 15.6574 2.2368 15.6662 2.2283C15.6751 2.21981 15.6841 2.21152 15.6932 2.20345C15.7024 2.19538 15.7118 2.18754 15.7214 2.17991C15.7309 2.17228 15.7406 2.16489 15.7505 2.15772C15.7604 2.15053 15.7705 2.1436 15.7807 2.13691C15.7909 2.1302 15.8013 2.12374 15.8118 2.11754C15.8223 2.11133 15.833 2.10537 15.8438 2.09966C15.8546 2.09395 15.8655 2.0885 15.8766 2.0833C15.8876 2.0781 15.8988 2.07316 15.91 2.06849C15.9213 2.06381 15.9327 2.05941 15.9442 2.05528C15.9556 2.05114 15.9672 2.04728 15.9789 2.04369C15.9906 2.0401 16.0023 2.03678 16.0141 2.03375C16.0259 2.03072 16.0378 2.02795 16.0498 2.02546C16.0617 2.02298 16.0737 2.02078 16.0858 2.01886C16.0978 2.01695 16.1099 2.01531 16.122 2.01397C16.1341 2.01262 16.1463 2.01157 16.1584 2.0108C16.1706 2.01001 16.1828 2.00952 16.195 2.00932C16.2072 2.00911 16.2194 2.00919 16.2316 2.00957C16.2438 2.00994 16.2559 2.0106 16.2681 2.01153C16.2803 2.01249 16.2924 2.01372 16.3045 2.01522C16.3166 2.01673 16.3287 2.01853 16.3407 2.02061C16.3527 2.0227 16.3647 2.02506 16.3766 2.0277C16.3885 2.03034 16.4003 2.03326 16.4121 2.03646C16.4239 2.03965 16.4356 2.04313 16.4472 2.04689C16.5582 2.09222 16.6684 2.13946 16.7779 2.18859C16.8873 2.23773 16.9958 2.28874 17.1035 2.34162C17.2112 2.39448 17.3179 2.44919 17.4238 2.50574C17.5296 2.5623 17.6344 2.62065 17.7382 2.68081C17.8421 2.74096 17.9448 2.80288 18.0466 2.86658C18.1483 2.93027 18.2489 2.99569 18.3484 3.06285C18.4479 3.13001 18.5463 3.19887 18.6434 3.26941C18.7406 3.33994 18.8365 3.41215 18.9312 3.48601C19.0045 3.54193 19.0771 3.59878 19.1489 3.65652C19.2208 3.71426 19.292 3.77291 19.3624 3.83243C19.4328 3.89194 19.5025 3.95234 19.5715 4.01362C19.6404 4.07488 19.7086 4.137 19.776 4.19995C19.8434 4.26294 19.91 4.32673 19.9758 4.39136C20.0416 4.45599 20.1067 4.52143 20.1709 4.58768C20.2351 4.65394 20.2985 4.721 20.361 4.78883C20.4236 4.85668 20.4853 4.9253 20.5462 4.99467C20.607 5.06405 20.667 5.13419 20.7262 5.20507C20.7853 5.27595 20.8436 5.34754 20.9009 5.41987C20.9583 5.49222 21.0148 5.56527 21.0703 5.639C21.1259 5.71273 21.1805 5.78718 21.2343 5.86229C21.288 5.9374 21.3408 6.01315 21.3926 6.08959C21.4445 6.16602 21.4954 6.24308 21.5454 6.3208C21.5953 6.39849 21.6443 6.4768 21.6923 6.55572C21.7403 6.63464 21.7874 6.71416 21.8334 6.79426C21.8795 6.87436 21.9246 6.95503 21.9686 7.03625C22.0127 7.11746 22.0558 7.19923 22.0978 7.28153C22.1398 7.36382 22.1809 7.44666 22.2209 7.52998C22.2609 7.61331 22.2999 7.6971 22.3378 7.78142C22.3757 7.86573 22.4126 7.95048 22.4485 8.03568C22.4843 8.1209 22.5191 8.20656 22.5528 8.29265C22.5865 8.37873 22.6192 8.46523 22.6508 8.55215C22.6824 8.63907 22.7129 8.72635 22.7423 8.81401C22.7718 8.90167 22.8001 8.98969 22.8274 9.07806C22.8547 9.16643 22.8808 9.25515 22.9059 9.34418C22.931 9.43322 22.955 9.52255 22.9778 9.61217C23.0007 9.7018 23.0225 9.79169 23.0431 9.88186C23.0638 9.97203 23.0833 10.0625 23.1017 10.1531C23.1201 10.2438 23.1375 10.3346 23.1536 10.4257C23.1698 10.5168 23.1849 10.6081 23.1988 10.6996C23.2127 10.7911 23.2255 10.8827 23.2371 10.9745C23.2911 11.4516 23.3198 11.9302 23.3232 12.4104C23.32 12.8843 23.2919 13.3566 23.2387 13.8275C23.2374 13.8395 23.2358 13.8514 23.234 13.8633C23.2321 13.8752 23.23 13.887 23.2276 13.8988C23.2252 13.9106 23.2225 13.9223 23.2196 13.9339C23.2166 13.9456 23.2134 13.9572 23.21 13.9687C23.2065 13.9802 23.2028 13.9916 23.1988 14.003C23.1948 14.0143 23.1906 14.0256 23.1861 14.0367C23.1816 14.0479 23.1769 14.0589 23.1719 14.0699C23.1669 14.0808 23.1616 14.0916 23.1561 14.1023C23.1507 14.113 23.1449 14.1235 23.1389 14.1339C23.133 14.1444 23.1268 14.1546 23.1203 14.1648C23.1139 14.1749 23.1073 14.1849 23.1004 14.1947C23.0935 14.2046 23.0863 14.2142 23.079 14.2237C23.0717 14.2332 23.0641 14.2426 23.0564 14.2517C23.0486 14.2609 23.0406 14.2698 23.0325 14.2786C23.0243 14.2874 23.016 14.296 23.0074 14.3044C22.9988 14.3128 22.9901 14.321 22.9812 14.329C22.9722 14.337 22.9631 14.3448 22.9538 14.3524C22.9445 14.3599 22.9351 14.3673 22.9254 14.3745C22.9158 14.3816 22.906 14.3885 22.8961 14.3952C22.8862 14.4019 22.8761 14.4083 22.8658 14.4146C22.8556 14.4208 22.8452 14.4268 22.8347 14.4325C22.8242 14.4383 22.8136 14.4438 22.8028 14.449C22.7921 14.4543 22.7812 14.4593 22.7702 14.4641C22.7593 14.4688 22.7482 14.4733 22.737 14.4776C22.7258 14.4818 22.7145 14.4858 22.7031 14.4895C22.6918 14.4932 22.6803 14.4967 22.6688 14.4999C22.6573 14.5031 22.6457 14.506 22.634 14.5087C22.6223 14.5113 22.6106 14.5137 22.5988 14.5158C22.5871 14.518 22.5753 14.5198 22.5634 14.5214C22.5515 14.523 22.5397 14.5243 22.5278 14.5253C22.5158 14.5263 22.5039 14.5271 22.4919 14.5276C22.48 14.528 22.4681 14.5282 22.4561 14.5282L22.3763 14.525ZM1.08452 13.8307C1.0305 13.3588 1.00233 12.8854 1 12.4104C1.00258 11.9365 1.03075 11.4642 1.08452 10.9934C1.09602 10.9013 1.10866 10.8094 1.12243 10.7176C1.13621 10.6258 1.15111 10.5342 1.16716 10.4428C1.1832 10.3514 1.20037 10.2603 1.21867 10.1693C1.23697 10.0784 1.25639 9.98763 1.27693 9.89714C1.29748 9.80668 1.31914 9.71646 1.34192 9.62652C1.3647 9.5366 1.38859 9.44695 1.41358 9.35762C1.43858 9.26829 1.46468 9.17928 1.49188 9.09059C1.51908 9.0019 1.54738 8.91358 1.57677 8.82562C1.60616 8.73765 1.63663 8.65006 1.66818 8.56285C1.69974 8.47564 1.73237 8.38884 1.76608 8.30244C1.79978 8.21606 1.83455 8.1301 1.87039 8.04458C1.90622 7.95904 1.94311 7.87399 1.98105 7.78939C2.01899 7.70481 2.05797 7.62069 2.09798 7.53707C2.13801 7.45345 2.17906 7.37034 2.22114 7.28775C2.26323 7.20516 2.30632 7.12312 2.35042 7.04161C2.39454 6.9601 2.43966 6.87914 2.48576 6.79876C2.53189 6.71839 2.57899 6.63858 2.62708 6.55939C2.67517 6.48019 2.72424 6.40159 2.77428 6.32362C2.82432 6.24566 2.87531 6.16831 2.92726 6.09163C2.9792 6.01494 3.03209 5.9389 3.08593 5.86354C3.13977 5.78816 3.19453 5.71347 3.25021 5.63949C3.30589 5.56549 3.36248 5.4922 3.41998 5.41962C3.47748 5.34702 3.53586 5.27519 3.59514 5.20406C3.6544 5.13294 3.71456 5.06257 3.77558 4.99298C3.8366 4.92338 3.89845 4.85454 3.96118 4.78647C4.02392 4.71842 4.08745 4.65116 4.15185 4.58468C4.21624 4.51821 4.28144 4.45254 4.34745 4.38772C4.41346 4.32289 4.48028 4.25888 4.54787 4.19572C4.61547 4.13257 4.68383 4.07028 4.75297 4.00882C4.82211 3.94739 4.892 3.88682 4.96263 3.82711C5.03329 3.7674 5.10465 3.7086 5.17675 3.65069C5.24885 3.5928 5.32166 3.5358 5.39515 3.47971C5.48982 3.40625 5.58572 3.33443 5.68283 3.26424C5.77995 3.19405 5.87822 3.12554 5.97763 3.05872C6.07705 2.99187 6.17757 2.92678 6.27918 2.86338C6.3808 2.79998 6.48347 2.73833 6.58717 2.67844C6.69086 2.61854 6.79554 2.56045 6.90119 2.50414C7.00687 2.44782 7.11345 2.39332 7.22093 2.34066C7.32842 2.28798 7.43679 2.23715 7.54601 2.18818C7.65521 2.1392 7.76522 2.0921 7.87603 2.04689C7.88792 2.04205 7.89992 2.03751 7.91203 2.03328C7.92414 2.02905 7.93634 2.02511 7.94864 2.02147C7.96094 2.01783 7.97332 2.0145 7.98577 2.01148C7.99824 2.00845 8.01076 2.00573 8.02336 2.00334C8.03595 2.00093 8.0486 1.99883 8.06129 1.99704C8.07398 1.99527 8.08672 1.9938 8.09949 1.99264C8.11226 1.99149 8.12505 1.99065 8.13786 1.99013C8.15065 1.98961 8.16347 1.9894 8.17631 1.98951C8.18912 1.98963 8.20194 1.99006 8.21473 1.99079C8.22752 1.99155 8.24031 1.99261 8.25305 1.99399C8.2658 1.99537 8.27849 1.99706 8.29116 1.99906C8.30383 2.00106 8.31645 2.00337 8.32899 2.006C8.34154 2.00862 8.35401 2.01156 8.36641 2.01481C8.37881 2.01804 8.39114 2.02158 8.40339 2.02543C8.41562 2.02929 8.42775 2.03344 8.43978 2.03788C8.45181 2.04233 8.46372 2.04707 8.47554 2.0521C8.48735 2.05715 8.49901 2.06248 8.51056 2.06809C8.52208 2.0737 8.53347 2.0796 8.54475 2.08578C8.556 2.09196 8.5671 2.09842 8.57803 2.10514C8.58897 2.11187 8.59973 2.11885 8.61032 2.1261C8.62091 2.13337 8.63132 2.14088 8.64157 2.14864C8.65179 2.15641 8.66182 2.16443 8.67168 2.1727C8.68151 2.18097 8.69114 2.18947 8.70056 2.19821C8.70998 2.20695 8.7192 2.21593 8.72817 2.22513C8.73715 2.23433 8.7459 2.24374 8.75444 2.25337C8.76297 2.263 8.77127 2.27283 8.77931 2.28287C8.78736 2.29292 8.79514 2.30316 8.80269 2.31357C8.81025 2.324 8.81754 2.33461 8.82456 2.34538C8.83158 2.35618 8.83835 2.36713 8.84486 2.37825C8.85134 2.38935 8.85757 2.40062 8.86352 2.41205C8.86946 2.42349 8.87511 2.43505 8.88049 2.44674C8.88587 2.45845 8.89096 2.47029 8.89577 2.48224C8.90059 2.4942 8.90509 2.50628 8.9093 2.51846C8.91353 2.53064 8.91744 2.54291 8.92104 2.55529C8.92466 2.56766 8.92796 2.58011 8.93097 2.59263C8.93398 2.60518 8.93669 2.61778 8.93906 2.63045C8.94146 2.64312 8.94354 2.65584 8.94532 2.6686C8.94708 2.68137 8.94855 2.69419 8.9497 2.70703C8.95085 2.71987 8.95168 2.73274 8.9522 2.74563C8.95271 2.7585 8.95293 2.77139 8.95281 2.78431C8.95268 2.7972 8.95227 2.81009 8.95154 2.82296C8.95078 2.83582 8.94973 2.84869 8.94836 2.86151C8.94699 2.87433 8.9453 2.88709 8.94332 2.89984C8.94134 2.91258 8.93904 2.92528 8.93642 2.9379C8.9338 2.95052 8.93089 2.96306 8.92767 2.97554C8.92446 2.98801 8.92094 3.00041 8.9171 3.01274C8.91326 3.02504 8.90915 3.03724 8.90473 3.04934C8.9003 3.06145 8.89558 3.07343 8.89056 3.08531C8.88555 3.09719 8.88027 3.10893 8.87469 3.12054C8.86912 3.13213 8.86325 3.14359 8.85711 3.15494C8.85097 3.16625 8.84454 3.17742 8.83786 3.18842C8.83118 3.19942 8.82424 3.21024 8.81702 3.22089C8.80981 3.23155 8.80233 3.24203 8.7946 3.25234C8.78689 3.26262 8.77892 3.27271 8.7707 3.28262C8.76249 3.29251 8.75402 3.3022 8.74534 3.31168C8.73664 3.32115 8.72771 3.33042 8.71859 3.33945C8.70944 3.34848 8.70007 3.35729 8.69051 3.36587C8.68095 3.37446 8.67116 3.3828 8.66119 3.39089C8.65118 3.39899 8.64101 3.40681 8.63066 3.41441C8.62029 3.42202 8.60975 3.42935 8.59904 3.43641C8.58831 3.44347 8.57742 3.45028 8.56637 3.45683C8.55534 3.46335 8.54414 3.46962 8.53276 3.4756C8.52139 3.48158 8.5099 3.48726 8.49828 3.49267C8.48664 3.49808 8.47488 3.5032 8.46299 3.50805C8.36854 3.54628 8.27477 3.58611 8.18169 3.62756C8.08858 3.66902 7.99623 3.71205 7.9046 3.75668C7.81296 3.8013 7.7221 3.84748 7.63203 3.89523C7.54195 3.94299 7.45273 3.99226 7.36435 4.04307C7.27596 4.09387 7.18846 4.14617 7.10183 4.2C7.01523 4.25381 6.92953 4.30911 6.84479 4.36587C6.76005 4.42263 6.67631 4.48081 6.59355 4.54045C6.51079 4.60011 6.42905 4.66114 6.34837 4.72358C6.28515 4.77173 6.22252 4.82066 6.16052 4.87038C6.0985 4.9201 6.03711 4.97061 5.97636 5.02186C5.91559 5.07313 5.85547 5.12514 5.79599 5.17791C5.73654 5.23068 5.67772 5.28417 5.61956 5.33841C5.56143 5.39266 5.50396 5.44762 5.44717 5.5033C5.39038 5.55897 5.3343 5.61536 5.27891 5.67246C5.22351 5.72954 5.16883 5.7873 5.11488 5.84576C5.06093 5.90423 5.00771 5.96335 4.9552 6.02314C4.90269 6.08294 4.85094 6.14337 4.79995 6.20445C4.74896 6.26554 4.69872 6.32727 4.64925 6.38961C4.59977 6.45197 4.5511 6.51493 4.50319 6.57848C4.45528 6.64205 4.40815 6.70621 4.36183 6.77096C4.31551 6.83571 4.27 6.90103 4.22532 6.96692C4.18061 7.0328 4.13673 7.09925 4.09367 7.16624C4.0506 7.23323 4.00839 7.30074 3.96701 7.36879C3.92562 7.43684 3.8851 7.50541 3.84541 7.57446C3.80571 7.64352 3.7669 7.71307 3.72892 7.78311C3.69096 7.85316 3.65389 7.92364 3.61767 7.99462C3.58145 8.06559 3.54611 8.13699 3.51165 8.20885C3.47721 8.28071 3.44366 8.35297 3.41101 8.42567C3.37835 8.49837 3.3466 8.57146 3.31575 8.64495C3.2849 8.71843 3.25497 8.79229 3.22594 8.86654C3.19692 8.94076 3.16883 9.01535 3.14167 9.09029C3.11449 9.16525 3.08825 9.24051 3.06294 9.31611C3.03764 9.39172 3.01327 9.46764 2.98984 9.54383C2.96641 9.62005 2.94394 9.69653 2.92241 9.77332C2.90087 9.8501 2.8803 9.92713 2.86068 10.0044C2.84105 10.0817 2.82239 10.1592 2.80468 10.237C2.78697 10.3148 2.77024 10.3927 2.75447 10.4709C2.7387 10.5491 2.7239 10.6274 2.71006 10.706C2.69623 10.7846 2.68337 10.8633 2.67149 10.9421C2.65962 11.021 2.64872 11.1 2.63879 11.1791C2.59227 11.5883 2.56775 11.9987 2.56522 12.4104C2.56808 12.8275 2.59312 13.2431 2.64036 13.6575C2.64176 13.6703 2.64286 13.6831 2.64366 13.696C2.64444 13.7088 2.6449 13.7217 2.64505 13.7346C2.64521 13.7474 2.64506 13.7603 2.64459 13.7732C2.6441 13.7861 2.64331 13.7989 2.64221 13.8118C2.64111 13.8246 2.63969 13.8374 2.63798 13.8502C2.63625 13.863 2.63422 13.8757 2.63187 13.8883C2.62952 13.901 2.62686 13.9136 2.6239 13.9262C2.62093 13.9387 2.61766 13.9512 2.61409 13.9635C2.61052 13.9759 2.60665 13.9882 2.6025 14.0004C2.59832 14.0125 2.59386 14.0246 2.58909 14.0366C2.58433 14.0486 2.57929 14.0604 2.57396 14.0721C2.56862 14.0838 2.56301 14.0954 2.5571 14.1068C2.5512 14.1183 2.54502 14.1295 2.53857 14.1407C2.53211 14.1518 2.52539 14.1628 2.51841 14.1736C2.51142 14.1844 2.50417 14.195 2.49667 14.2054C2.48916 14.2159 2.48139 14.2261 2.47339 14.2362C2.46538 14.2462 2.45714 14.2561 2.44866 14.2657C2.44017 14.2754 2.43145 14.2848 2.4225 14.294C2.41356 14.3033 2.4044 14.3123 2.39501 14.321C2.38561 14.3298 2.37602 14.3383 2.36622 14.3466C2.35642 14.3549 2.34642 14.363 2.33621 14.3708C2.32602 14.3786 2.31564 14.3861 2.30508 14.3934C2.29451 14.4007 2.28378 14.4077 2.27287 14.4145C2.26196 14.4212 2.2509 14.4277 2.23968 14.4339C2.22846 14.4401 2.21709 14.446 2.20556 14.4517C2.19405 14.4573 2.18241 14.4627 2.17064 14.4678C2.15887 14.4728 2.14697 14.4776 2.13496 14.4821C2.12296 14.4866 2.11085 14.4908 2.09864 14.4947C2.08643 14.4985 2.07413 14.5021 2.06174 14.5054C2.04936 14.5087 2.0369 14.5117 2.02437 14.5143C2.01183 14.517 1.99924 14.5194 1.9866 14.5214C1.97395 14.5234 1.96126 14.5252 1.94853 14.5266L1.86087 14.5266C1.84902 14.5266 1.83718 14.5263 1.82535 14.5257C1.81351 14.5252 1.80169 14.5244 1.78989 14.5232C1.77809 14.5222 1.76632 14.5208 1.75458 14.5192C1.74285 14.5175 1.73115 14.5156 1.7195 14.5135C1.70785 14.5113 1.69625 14.5089 1.68471 14.5062C1.67317 14.5035 1.66169 14.5005 1.65028 14.4973C1.63888 14.4941 1.62755 14.4906 1.61629 14.4868C1.60504 14.4831 1.59388 14.4791 1.58281 14.4749C1.57174 14.4706 1.56077 14.4661 1.5499 14.4614C1.53904 14.4566 1.52828 14.4516 1.51764 14.4464C1.507 14.4411 1.49648 14.4356 1.48609 14.4299C1.47569 14.4242 1.46543 14.4182 1.45531 14.412C1.44518 14.4058 1.4352 14.3994 1.42537 14.3928C1.41553 14.3861 1.40585 14.3793 1.39632 14.3722C1.3868 14.3651 1.37744 14.3578 1.36824 14.3502C1.35905 14.3427 1.35003 14.335 1.34118 14.3271C1.33234 14.3192 1.32367 14.311 1.31519 14.3027C1.30671 14.2944 1.29842 14.2859 1.29033 14.2772C1.28223 14.2684 1.27434 14.2596 1.26665 14.2505C1.25895 14.2414 1.25147 14.2322 1.24419 14.2228C1.23691 14.2134 1.22985 14.2038 1.22301 14.1941C1.21616 14.1844 1.20954 14.1745 1.20314 14.1644C1.19674 14.1544 1.19058 14.1442 1.18464 14.1339C1.1787 14.1236 1.17299 14.1132 1.16753 14.1026C1.16206 14.092 1.15683 14.0813 1.15185 14.0705C1.14686 14.0597 1.14213 14.0488 1.13763 14.0377C1.13314 14.0267 1.1289 14.0156 1.12491 14.0043C1.12093 13.9931 1.11719 13.9818 1.11371 13.9704C1.11024 13.959 1.10702 13.9476 1.10406 13.936C1.1011 13.9245 1.0984 13.9129 1.09596 13.9012C1.09352 13.8895 1.09135 13.8778 1.08945 13.8661C1.08754 13.8543 1.0859 13.8425 1.08452 13.8307ZM10.1268 2.04689C10.1268 2.0134 10.1276 1.97992 10.1293 1.94646C10.1309 1.913 10.1334 1.8796 10.1366 1.84626C10.1399 1.81291 10.144 1.77968 10.1489 1.74655C10.1537 1.71341 10.1594 1.68042 10.1659 1.64756C10.1724 1.6147 10.1797 1.58203 10.1878 1.54953C10.1959 1.51704 10.2048 1.48476 10.2145 1.45271C10.2241 1.42065 10.2345 1.38885 10.2458 1.35731C10.257 1.32577 10.269 1.29453 10.2817 1.26358C10.2944 1.23263 10.3079 1.20201 10.3222 1.17173C10.3364 1.14145 10.3514 1.11154 10.3671 1.08199C10.3828 1.05245 10.3992 1.02331 10.4163 0.994575C10.4334 0.965843 10.4512 0.93755 10.4698 0.909696C10.4882 0.881844 10.5074 0.854464 10.5273 0.827557C10.5471 0.80065 10.5676 0.77425 10.5887 0.748356C10.6098 0.72246 10.6316 0.697103 10.6539 0.672282C10.6763 0.647461 10.6993 0.623206 10.7228 0.599519C10.7464 0.575832 10.7704 0.552741 10.7951 0.530244C10.8198 0.507746 10.845 0.485872 10.8707 0.464621C10.8965 0.44337 10.9227 0.422766 10.9495 0.402811C10.9762 0.382856 11.0034 0.363573 11.0311 0.344962C11.0588 0.32635 11.087 0.308435 11.1155 0.291214C11.1441 0.27399 11.1731 0.257485 11.2024 0.241693C11.2318 0.225901 11.2615 0.210845 11.2916 0.196523C11.3217 0.1822 11.3522 0.168629 11.3829 0.155809C11.4137 0.14299 11.4448 0.130938 11.4761 0.119652C11.5075 0.108368 11.5391 0.0978636 11.5709 0.0881391C11.6028 0.0784147 11.6349 0.0694827 11.6672 0.0613426C11.6995 0.0532026 11.732 0.0458655 11.7646 0.0393312C11.7973 0.0327952 11.8301 0.0270696 11.863 0.0221541C11.896 0.0172386 11.929 0.0131391 11.9622 0.00985556C11.9953 0.00657198 12.0285 0.00410853 12.0618 0.00246514C12.095 0.000821744 12.1283 0 12.1616 0C12.1949 0 12.2282 0.000821744 12.2614 0.00246514C12.2947 0.00410853 12.3279 0.00657198 12.3611 0.00985556C12.3942 0.0131391 12.4272 0.0172386 12.4602 0.0221541C12.4931 0.0270696 12.5259 0.0327952 12.5586 0.0393312C12.5912 0.0458655 12.6237 0.0532026 12.656 0.0613426C12.6883 0.0694827 12.7204 0.0784147 12.7523 0.0881391C12.7842 0.0978636 12.8158 0.108368 12.8471 0.119652C12.8785 0.130938 12.9095 0.14299 12.9403 0.155809C12.9711 0.168629 13.0015 0.1822 13.0316 0.196523C13.0617 0.210845 13.0914 0.225901 13.1208 0.241693C13.1502 0.257485 13.1791 0.27399 13.2077 0.291214C13.2363 0.308435 13.2644 0.32635 13.2921 0.344962C13.3198 0.363573 13.347 0.382856 13.3737 0.402811C13.4005 0.422766 13.4267 0.44337 13.4525 0.464621C13.4782 0.485872 13.5034 0.507746 13.5281 0.530244C13.5528 0.552741 13.5769 0.575832 13.6004 0.599519C13.624 0.623206 13.6469 0.647461 13.6693 0.672282C13.6917 0.697103 13.7134 0.72246 13.7345 0.748356C13.7556 0.77425 13.7761 0.80065 13.796 0.827557C13.8158 0.854464 13.835 0.881844 13.8535 0.909696C13.872 0.93755 13.8898 0.965843 13.9069 0.994575C13.924 1.02331 13.9404 1.05245 13.9561 1.08199C13.9718 1.11154 13.9868 1.14145 14.001 1.17173C14.0153 1.20201 14.0288 1.23263 14.0415 1.26358C14.0543 1.29453 14.0662 1.32577 14.0774 1.35731C14.0887 1.38885 14.0991 1.42065 14.1088 1.45271C14.1184 1.48476 14.1273 1.51704 14.1354 1.54953C14.1435 1.58203 14.1508 1.6147 14.1573 1.64756C14.1638 1.68042 14.1695 1.71341 14.1744 1.74655C14.1793 1.77968 14.1833 1.81291 14.1866 1.84626C14.1899 1.8796 14.1923 1.913 14.194 1.94646C14.1956 1.97992 14.1964 2.0134 14.1964 2.04689C14.1964 2.08038 14.1956 2.11385 14.194 2.14731C14.1923 2.18077 14.1899 2.21417 14.1866 2.24752C14.1833 2.28086 14.1793 2.3141 14.1744 2.34723C14.1695 2.38036 14.1638 2.41336 14.1573 2.44623C14.1508 2.47907 14.1435 2.51174 14.1354 2.54424C14.1273 2.57674 14.1184 2.60902 14.1088 2.64107C14.0991 2.67313 14.0887 2.70492 14.0774 2.73646C14.0662 2.768 14.0543 2.79924 14.0415 2.83019C14.0288 2.86114 14.0153 2.89177 14.001 2.92205C13.9868 2.95234 13.9718 2.98223 13.9561 3.01178C13.9404 3.04132 13.924 3.07045 13.9069 3.09919C13.8898 3.12792 13.872 3.15622 13.8535 3.18406C13.835 3.21194 13.8158 3.23932 13.796 3.26621C13.7761 3.29313 13.7556 3.31952 13.7345 3.34543C13.7134 3.37131 13.6917 3.39668 13.6693 3.4215C13.6469 3.44632 13.624 3.47056 13.6004 3.49425C13.5769 3.51794 13.5528 3.54102 13.5281 3.56353C13.5034 3.58604 13.4782 3.60791 13.4525 3.62914C13.4267 3.6504 13.4005 3.67101 13.3737 3.69096C13.347 3.71092 13.3198 3.73018 13.2921 3.7488C13.2644 3.76743 13.2363 3.78534 13.2077 3.80256C13.1791 3.81978 13.1502 3.83629 13.1208 3.85208C13.0914 3.86788 13.0617 3.88293 13.0316 3.89725C13.0015 3.91157 12.9711 3.92515 12.9403 3.93797C12.9095 3.95079 12.8785 3.96282 12.8471 3.97411C12.8158 3.9854 12.7842 3.99591 12.7523 4.00562C12.7204 4.01534 12.6883 4.0243 12.656 4.03244C12.6237 4.04058 12.5912 4.04791 12.5586 4.05443C12.5259 4.06098 12.4931 4.06671 12.4602 4.07161C12.4272 4.07653 12.3942 4.08064 12.3611 4.08391C12.3279 4.0872 12.2947 4.08966 12.2614 4.09131C12.2282 4.09296 12.1949 4.09377 12.1616 4.09377C12.1283 4.09377 12.095 4.09296 12.0618 4.09131C12.0285 4.08966 11.9953 4.0872 11.9622 4.08391C11.929 4.08064 11.896 4.07653 11.863 4.07161C11.8301 4.06671 11.7973 4.06098 11.7646 4.05443C11.732 4.04791 11.6995 4.04058 11.6672 4.03244C11.6349 4.0243 11.6028 4.01534 11.5709 4.00562C11.5391 3.99591 11.5075 3.9854 11.4761 3.97411C11.4448 3.96282 11.4137 3.95079 11.3829 3.93797C11.3522 3.92515 11.3217 3.91157 11.2916 3.89725C11.2615 3.88293 11.2318 3.86788 11.2024 3.85208C11.1731 3.83629 11.1441 3.81978 11.1155 3.80256C11.087 3.78534 11.0588 3.76743 11.0312 3.7488C11.0034 3.7302 10.9762 3.71092 10.9495 3.69096C10.9227 3.67101 10.8965 3.6504 10.8707 3.62914C10.845 3.60791 10.8198 3.58604 10.7951 3.56353C10.7704 3.54104 10.7464 3.51794 10.7228 3.49425C10.6993 3.47056 10.6763 3.44632 10.6539 3.4215C10.6316 3.39668 10.6098 3.37131 10.5887 3.34543C10.5676 3.31952 10.5471 3.29313 10.5273 3.26621C10.5074 3.23932 10.4882 3.21194 10.4698 3.18406C10.4512 3.15622 10.4334 3.12792 10.4163 3.09919C10.3992 3.07045 10.3828 3.04132 10.3671 3.01178C10.3514 2.98223 10.3364 2.95234 10.3222 2.92205C10.3079 2.89177 10.2944 2.86114 10.2817 2.83019C10.269 2.79924 10.257 2.768 10.2458 2.73646C10.2345 2.70492 10.2241 2.67313 10.2145 2.64107C10.2048 2.60902 10.1959 2.57674 10.1878 2.54424C10.1797 2.51174 10.1724 2.47907 10.1659 2.44623C10.1594 2.41336 10.1537 2.38036 10.1488 2.34723C10.144 2.3141 10.1399 2.28086 10.1366 2.24752C10.1334 2.21417 10.1309 2.18077 10.1293 2.14731C10.1276 2.11385 10.1268 2.08038 10.1268 2.04689Z"   fill="#034FA1" ></path><g ><path     fill="#CC4E1D"  d="M17.088 16.072L17.088 17.464L7.356 17.464L7.356 7.432L16.836 7.432L16.836 8.824L11.34 8.824L11.94 9.076Q11.892 9.208 11.838 9.34Q11.784 9.472 11.724 9.604L16.14 9.604L16.14 10.888L13.608 10.888Q13.608 11.128 13.602 11.38Q13.596 11.632 13.584 11.836L16.812 11.836L16.812 13.192L13.428 13.192Q13.428 13.216 13.404 13.288Q13.764 13.468 14.196 13.696Q14.628 13.924 15.054 14.164Q15.48 14.404 15.87 14.626Q16.26 14.848 16.524 15.016L15.936 16.072L17.088 16.072ZM8.772 16.072L9.612 16.072L9.036 15.04Q9.66 14.836 10.134 14.632Q10.608 14.428 10.962 14.206Q11.316 13.984 11.544 13.738Q11.772 13.492 11.916 13.192L9.048 13.192L9.048 11.836L9.828 11.836L9.024 11.26Q9.48 10.756 9.918 10.096Q10.356 9.436 10.596 8.824L8.772 8.824L8.772 16.072ZM11.028 10.888Q10.872 11.14 10.698 11.374Q10.524 11.608 10.344 11.836L12.168 11.836Q12.18 11.644 12.18 11.386Q12.18 11.128 12.192 10.888L11.028 10.888ZM15.444 16.072Q14.832 15.688 14.124 15.256Q13.416 14.824 12.828 14.488Q12.468 14.944 11.904 15.328Q11.34 15.712 10.512 16.072L15.444 16.072Z"></path></g></svg>