<svg xmlns="http://www.w3.org/2000/svg" xmlns:xlink="http://www.w3.org/1999/xlink" width="24" height="24" viewBox="0 0 24 24" fill="none"><path d="M17.3853 2.65491L17.8515 2.81871C18.0806 2.89985 18.2295 3.11349 18.2295 3.35213L18.2295 9.45074C18.1751 11.4821 17.2661 13.4824 15.5498 14.6169C18.9319 14.8522 22.0359 17.6118 22.0474 20.9423L22.0474 21.9966C22.0474 22.4065 21.7085 22.74 21.2914 22.74L2.75618 22.74C2.33855 22.74 2.00015 22.4065 2.00015 21.9966L2.00015 20.9381C1.97629 17.8219 4.75716 15.1609 7.89295 14.6841C8.09342 14.6545 8.29816 14.6169 8.50197 14.6169C6.78468 13.4829 5.88156 11.4826 5.81808 9.45074L5.81808 3.34373C5.81808 3.33646 5.81808 3.32999 5.81808 3.32273C5.81808 3.31547 5.82228 3.30897 5.82228 3.30173C5.82228 3.29449 5.82228 3.28794 5.82228 3.28073C5.82228 3.27351 5.82648 3.26271 5.82648 3.25553C5.82648 3.24835 5.83068 3.24166 5.83068 3.23453C5.83068 3.2274 5.83488 3.2206 5.83488 3.21353C5.83488 3.20645 5.83908 3.19953 5.83908 3.19253C5.83908 3.18552 5.84328 3.17845 5.84328 3.17153C5.84328 3.1646 5.85168 3.15736 5.85168 3.15052C5.85168 3.14369 5.86008 3.13626 5.86008 3.12952C5.86008 3.12279 5.86848 3.11935 5.86848 3.11272C5.86848 3.1061 5.87688 3.09823 5.87688 3.09172C5.87688 3.08522 5.88948 3.0771 5.88948 3.07072C5.88948 3.06434 5.89788 3.06016 5.89788 3.05392C5.89788 3.04768 5.91049 3.03901 5.91049 3.03292C5.91049 3.02683 5.92309 3.02206 5.92309 3.01612C5.92309 3.01018 5.93126 3.00509 5.93569 2.99932C5.9401 2.99355 5.94365 2.98811 5.94829 2.98252C5.95292 2.97692 5.96023 2.97113 5.96509 2.96572C5.96993 2.9603 5.97264 2.95414 5.97769 2.94892C5.98273 2.94369 5.98924 2.94134 5.99449 2.93632C5.99974 2.93129 6.00585 2.92434 6.01129 2.91952C6.01672 2.91469 6.02247 2.91153 6.02809 2.90692C6.03371 2.90231 6.03911 2.8945 6.04489 2.89012C6.05067 2.88572 6.05572 2.87751 6.06169 2.87751C6.06764 2.87751 6.07238 2.86491 6.07849 2.86491C6.0846 2.86491 6.09324 2.85651 6.09949 2.85651C6.10575 2.85651 6.10991 2.84391 6.11629 2.84391C6.12269 2.84391 6.13077 2.83551 6.13729 2.83551C6.14379 2.83551 6.14745 2.82711 6.15409 2.82711C6.16072 2.82711 6.16833 2.81871 6.17509 2.81871C6.18184 2.81871 6.18924 2.81031 6.19609 2.81031L6.66651 2.65071C10.2347 1.43362 13.8171 1.43782 17.3853 2.65491ZM14.63 16.0576L8.68258 16.0576C8.57472 16.0576 8.46562 16.0598 8.35917 16.066C8.34943 16.0949 8.34281 16.125 8.33397 16.1542C8.32513 16.1834 8.3167 16.2129 8.30877 16.2424C8.30081 16.2718 8.29058 16.3009 8.28357 16.3306C8.27653 16.3603 8.27288 16.3931 8.26676 16.423C8.26065 16.4529 8.25515 16.4811 8.24996 16.5112C8.24477 16.5412 8.23743 16.5691 8.23316 16.5994C8.22892 16.6296 8.22476 16.6614 8.22476 16.6918C8.22476 16.7221 8.21636 16.7537 8.21636 16.7842C8.21636 16.8146 8.20796 16.8461 8.20796 16.8766C8.20796 16.9071 8.20376 16.9343 8.20376 16.9648C8.20376 16.9953 8.20376 17.0267 8.20376 17.0572C8.20376 17.0877 8.20796 17.1191 8.20796 17.1496C8.20796 17.1801 8.21216 17.2116 8.21216 17.242C8.21216 17.2724 8.22056 17.2999 8.22056 17.3302C8.22056 17.3605 8.23316 17.3924 8.23316 17.4226C8.23316 17.4528 8.24066 17.4849 8.24576 17.515C8.27671 17.5203 8.30755 17.5248 8.33817 17.5318C8.36879 17.5388 8.4004 17.5483 8.43057 17.557C8.46074 17.5657 8.48914 17.5718 8.51877 17.5822C8.54841 17.5926 8.57797 17.6038 8.60698 17.6158C8.63596 17.6279 8.6669 17.6441 8.69518 17.6578C8.72346 17.6715 8.75172 17.6846 8.77918 17.6998C8.80662 17.7151 8.83242 17.7292 8.85898 17.746C8.88552 17.7628 8.91321 17.7824 8.93879 17.8006C8.96436 17.8189 8.9857 17.8356 9.01019 17.8552C9.0347 17.8749 9.06243 17.8972 9.08579 17.9182C9.10915 17.9392 9.13084 17.9589 9.15299 17.9812C9.17513 18.0035 9.19514 18.0291 9.216 18.0526C9.23684 18.0761 9.25951 18.0994 9.279 18.124C9.29848 18.1486 9.31553 18.1739 9.3336 18.1996C9.35167 18.2253 9.36741 18.2528 9.384 18.2794C9.40059 18.3061 9.41933 18.3317 9.4344 18.3592C9.44946 18.3868 9.46291 18.4149 9.47641 18.4432C9.48988 18.4716 9.50235 18.4982 9.51421 18.5272C9.52608 18.5563 9.53759 18.5858 9.54781 18.6154C9.558 18.6451 9.56448 18.6776 9.57301 18.7079C9.58152 18.7381 9.59142 18.7696 9.59821 18.8003C9.60502 18.8309 9.60994 18.8617 9.61501 18.8927C9.62006 18.9236 9.62761 18.9538 9.62761 18.9851C9.62761 19.0163 9.63601 19.0461 9.63601 19.0775C9.63601 19.1088 9.63601 19.1427 9.63601 19.1741C9.63601 19.2055 9.63601 19.2351 9.63601 19.2665C9.63601 19.2978 9.62341 19.3277 9.62341 19.3589C9.62341 19.39 9.61631 19.4203 9.61081 19.4513C9.60529 19.4822 9.60123 19.5131 9.59401 19.5437C9.58677 19.5742 9.57775 19.606 9.56881 19.6361C9.55985 19.6662 9.55005 19.6947 9.53941 19.7243C9.52876 19.7538 9.51807 19.7836 9.50581 19.8125C9.4935 19.8414 9.47769 19.8725 9.46381 19.9007C9.4499 19.9289 9.43727 19.9532 9.4218 19.9805C9.40634 20.0078 9.38838 20.0381 9.3714 20.0645C9.35444 20.0909 9.33944 20.1147 9.321 20.1401C9.30254 20.1655 9.28203 20.1913 9.2622 20.2157C9.24234 20.24 9.22036 20.2639 9.1992 20.2871C9.17801 20.3103 9.15863 20.3324 9.13619 20.3543C9.11374 20.3763 9.08844 20.3966 9.06479 20.4173C9.04112 20.4379 9.01817 20.461 8.99339 20.4803C8.96859 20.4996 8.94361 20.517 8.91779 20.5349C8.89194 20.5528 8.86477 20.5689 8.83798 20.5853C8.81118 20.6017 8.78585 20.6167 8.75818 20.6315C8.73049 20.6463 8.70265 20.6602 8.67418 20.6735C8.64571 20.6868 8.61514 20.6997 8.58598 20.7113C8.55679 20.7229 8.52753 20.735 8.49777 20.7449C8.46799 20.7549 8.43566 20.7618 8.40537 20.7701C8.37508 20.7784 8.34787 20.7888 8.31717 20.7953C8.28646 20.8019 8.25579 20.8073 8.22476 20.8121C8.19371 20.8169 8.1594 20.8247 8.12816 20.8247C8.0969 20.8247 8.06714 20.8289 8.03576 20.8289C8.00438 20.8289 7.97473 20.8289 7.94335 20.8289C7.91195 20.8289 7.87807 20.8247 7.84675 20.8247C7.81541 20.8247 7.78548 20.8163 7.75435 20.8163C7.72319 20.8163 7.69281 20.8095 7.66194 20.8037C7.63106 20.798 7.60002 20.7902 7.56954 20.7827C7.53902 20.7752 7.50716 20.7667 7.47714 20.7575C7.44711 20.7483 7.41841 20.739 7.38894 20.7281C7.35946 20.7172 7.32953 20.7028 7.30073 20.6903C7.27191 20.6778 7.24477 20.6666 7.21673 20.6525C7.18867 20.6384 7.15992 20.622 7.13273 20.6063C7.10551 20.5906 7.07922 20.5773 7.05292 20.5601C7.02665 20.5429 7.00259 20.5241 6.97732 20.5055C6.95205 20.4868 6.9259 20.4667 6.90172 20.4467C6.87752 20.4267 6.85333 20.4051 6.83032 20.3837C6.80728 20.3623 6.78487 20.3391 6.76311 20.3165C6.74133 20.2939 6.72058 20.2731 6.70011 20.2493C6.67964 20.2255 6.66038 20.1986 6.64131 20.1737C6.62219 20.1488 6.60435 20.1241 6.58671 20.0981C6.56905 20.0721 6.55247 20.0452 6.53631 20.0183C6.52014 19.9914 6.50473 19.9663 6.4901 19.9385C6.47548 19.9107 6.46113 19.8831 6.4481 19.8545C6.43506 19.8259 6.42171 19.7955 6.4103 19.7663C6.3989 19.737 6.38642 19.7079 6.3767 19.6781C6.36696 19.6482 6.35954 19.616 6.3515 19.5857C6.34346 19.5553 6.33682 19.5282 6.3305 19.4975C6.32418 19.4667 6.31825 19.4361 6.3137 19.4051C6.3091 19.374 6.3011 19.3398 6.3011 19.3085C6.3011 19.2772 6.2969 19.2474 6.2969 19.2161C6.2969 19.1847 6.2969 19.1508 6.2969 19.1195C6.2969 19.0881 6.3011 19.0584 6.3011 19.0271C6.3011 18.9958 6.30945 18.9658 6.3137 18.9347C6.31794 18.9035 6.32029 18.8731 6.3263 18.8423C6.33231 18.8114 6.33957 18.7803 6.3473 18.7499C6.35503 18.7194 6.36307 18.6874 6.3725 18.6574C6.38191 18.6275 6.39499 18.5986 6.4061 18.5692C6.4172 18.5399 6.42697 18.5097 6.4397 18.481C6.45244 18.4523 6.46737 18.425 6.4817 18.397C6.49604 18.3691 6.51201 18.3401 6.52791 18.313C6.54378 18.2859 6.55671 18.2594 6.57411 18.2332C6.5915 18.2071 6.60988 18.1827 6.62871 18.1576C6.64754 18.1325 6.66729 18.1102 6.68751 18.0862C6.70773 18.0622 6.72896 18.0377 6.75051 18.0148C6.77205 17.992 6.79491 17.9692 6.81772 17.9476C6.8405 17.926 6.86512 17.9049 6.88912 17.8846C6.86986 17.8136 6.85318 17.7425 6.83872 17.6704C6.82426 17.5983 6.81051 17.5249 6.80091 17.452C6.7913 17.3791 6.78465 17.307 6.77991 17.2336C6.77518 17.1602 6.77151 17.0845 6.77151 17.011C6.77151 16.7972 6.79307 16.5907 6.83032 16.3936C4.84479 17.1424 3.4324 19.0597 3.4324 21.3077L20.6152 21.3077L20.611 21.1691C20.548 18.7063 18.7914 16.6659 16.4612 16.171C16.6145 16.4573 16.7201 16.7808 16.7679 17.1244C16.7943 17.1333 16.8216 17.1438 16.8477 17.1538C16.8737 17.1637 16.8976 17.1722 16.9233 17.1832C16.9489 17.1942 16.9737 17.2049 16.9989 17.2168C17.024 17.2287 17.0498 17.2417 17.0745 17.2546C17.0992 17.2675 17.1259 17.2827 17.1501 17.2966C17.1742 17.3105 17.1978 17.3238 17.2215 17.3386C17.2451 17.3534 17.2656 17.3691 17.2887 17.3848C17.3117 17.4005 17.3335 17.4186 17.3559 17.4352C17.3783 17.4518 17.4013 17.4682 17.4231 17.4856C17.4448 17.503 17.465 17.5177 17.4861 17.536C17.5071 17.5543 17.5288 17.5757 17.5491 17.5948C17.5694 17.6139 17.5883 17.6338 17.6079 17.6536C17.6274 17.6735 17.6479 17.6918 17.6667 17.7124C17.6854 17.733 17.7033 17.7541 17.7213 17.7754C17.7392 17.7967 17.7588 17.8206 17.7759 17.8426C17.793 17.8646 17.81 17.883 17.8263 17.9056C17.8425 17.9283 17.8571 17.9538 17.8725 17.977C17.8878 18.0003 17.9043 18.0246 17.9187 18.0484C17.9331 18.0723 17.9472 18.0954 17.9607 18.1198C17.9742 18.1442 17.9859 18.1705 17.9985 18.1954C18.011 18.2203 18.0247 18.2415 18.0363 18.2668C18.0479 18.2922 18.0551 18.3208 18.0657 18.3466C18.0763 18.3724 18.0897 18.3961 18.0993 18.4222C18.1089 18.4484 18.116 18.4755 18.1245 18.502C18.133 18.5286 18.1422 18.555 18.1497 18.5818C18.1572 18.6087 18.1642 18.6345 18.1707 18.6616C18.1771 18.6887 18.1821 18.7183 18.1875 18.7457C18.1929 18.773 18.1958 18.7979 18.2001 18.8255C18.2044 18.853 18.2127 18.8818 18.2127 18.9095C18.2127 18.9371 18.2211 18.9657 18.2211 18.9935C18.2211 19.0212 18.2253 19.0496 18.2253 19.0775C18.2253 19.1053 18.2295 19.1336 18.2295 19.1615L18.2295 20.1149C18.2295 20.1266 18.2253 20.1368 18.2253 20.1485C18.2253 20.1602 18.2253 20.1746 18.2253 20.1863C18.2253 20.198 18.2211 20.2083 18.2211 20.2199C18.2211 20.2315 18.2127 20.242 18.2127 20.2535C18.2127 20.265 18.2085 20.2757 18.2085 20.2871C18.2085 20.2985 18.1959 20.3095 18.1959 20.3207C18.1959 20.3319 18.1875 20.3433 18.1875 20.3543C18.1875 20.3653 18.1794 20.3771 18.1749 20.3879C18.1704 20.3987 18.1631 20.4109 18.1581 20.4215C18.1531 20.4321 18.151 20.4406 18.1455 20.4509C18.14 20.4612 18.1305 20.4745 18.1245 20.4845C18.1185 20.4946 18.1142 20.5042 18.1077 20.5139C18.1012 20.5236 18.0937 20.5339 18.0867 20.5433C18.0797 20.5527 18.0731 20.5594 18.0657 20.5685C18.0583 20.5776 18.0526 20.585 18.0447 20.5937C18.0368 20.6024 18.0278 20.6148 18.0195 20.6231C18.0112 20.6314 18.003 20.6362 17.9943 20.6441C17.9856 20.652 17.974 20.6619 17.9649 20.6693C17.9558 20.6767 17.9491 20.6833 17.9397 20.6903C17.9303 20.6973 17.92 20.7048 17.9103 20.7113C17.9005 20.7178 17.8909 20.7221 17.8809 20.7281C17.8708 20.7341 17.8618 20.7394 17.8515 20.7449C17.8412 20.7504 17.8285 20.7567 17.8179 20.7617C17.8073 20.7667 17.7951 20.7698 17.7843 20.7743C17.7735 20.7788 17.7659 20.7869 17.7549 20.7869C17.7439 20.7869 17.7325 20.7995 17.7213 20.7995C17.7101 20.7995 17.699 20.8079 17.6877 20.8079C17.6763 20.8079 17.6614 20.8163 17.6499 20.8163C17.6384 20.8163 17.6278 20.8247 17.6163 20.8247C17.6047 20.8247 17.5943 20.8289 17.5827 20.8289C17.571 20.8289 17.5608 20.8289 17.5491 20.8289C17.5374 20.8289 17.523 20.8289 17.5113 20.8289C17.4995 20.8289 17.4894 20.8289 17.4777 20.8289C17.466 20.8289 17.4557 20.8289 17.4441 20.8289C17.4324 20.8289 17.4179 20.8247 17.4063 20.8247C17.3947 20.8247 17.3842 20.8163 17.3727 20.8163C17.3612 20.8163 17.3504 20.8079 17.3391 20.8079C17.3277 20.8079 17.3167 20.7995 17.3055 20.7995C17.2943 20.7995 17.2829 20.7869 17.2719 20.7869C17.2608 20.7869 17.2491 20.7788 17.2383 20.7743C17.2274 20.7698 17.2153 20.7667 17.2047 20.7617C17.1941 20.7567 17.1856 20.7504 17.1753 20.7449C17.1649 20.7394 17.1559 20.7341 17.1459 20.7281C17.1358 20.7221 17.1262 20.7178 17.1165 20.7113C17.1067 20.7048 17.0965 20.6973 17.0871 20.6903C17.0776 20.6833 17.0667 20.6767 17.0577 20.6693C17.0486 20.6619 17.0411 20.652 17.0325 20.6441C17.0238 20.6362 17.0155 20.6314 17.0073 20.6231C16.999 20.6148 16.9899 20.6024 16.9821 20.5937C16.9742 20.585 16.9643 20.5776 16.9569 20.5685C16.9494 20.5594 16.9428 20.5527 16.9359 20.5433C16.9289 20.5339 16.9214 20.5236 16.9149 20.5139C16.9083 20.5042 16.9041 20.4946 16.8981 20.4845C16.892 20.4745 16.8868 20.4612 16.8813 20.4509C16.8757 20.4406 16.8695 20.4321 16.8645 20.4215C16.8595 20.4109 16.8563 20.3987 16.8519 20.3879C16.8474 20.3771 16.8393 20.3653 16.8393 20.3543C16.8393 20.3433 16.8267 20.3319 16.8267 20.3207C16.8267 20.3095 16.8183 20.2985 16.8183 20.2871C16.8183 20.2757 16.8099 20.265 16.8099 20.2535C16.8099 20.242 16.8057 20.2315 16.8057 20.2199C16.8057 20.2083 16.8015 20.198 16.8015 20.1863C16.8015 20.1746 16.7973 20.1602 16.7973 20.1485C16.7973 20.1368 16.7973 20.1266 16.7973 20.1149L16.7973 19.1615C16.7973 19.1505 16.7973 19.1389 16.7973 19.1279C16.7973 19.1169 16.7931 19.1052 16.7931 19.0943C16.7931 19.0833 16.7889 19.0716 16.7889 19.0607C16.7889 19.0498 16.7847 19.0379 16.7847 19.0271C16.7847 19.0162 16.7763 19.0084 16.7763 18.9977C16.7763 18.987 16.7679 18.9746 16.7679 18.9641C16.7679 18.9535 16.7595 18.9451 16.7595 18.9347C16.7595 18.9242 16.7469 18.9113 16.7469 18.9011C16.7469 18.8908 16.7387 18.8817 16.7343 18.8717C16.7298 18.8616 16.7265 18.8521 16.7217 18.8423C16.7167 18.8324 16.7102 18.8225 16.7048 18.8129C16.6995 18.8032 16.6938 18.7928 16.688 18.7835C16.6823 18.7741 16.6774 18.7673 16.6712 18.7583C16.665 18.7492 16.6569 18.7376 16.6502 18.7289C16.6436 18.7201 16.6404 18.7121 16.6334 18.7037C16.6264 18.6952 16.6156 18.6866 16.6082 18.6784C16.6008 18.6703 16.595 18.661 16.5872 18.6532C16.5795 18.6455 16.5702 18.6397 16.562 18.6322C16.5539 18.6248 16.5453 18.6183 16.5368 18.6112C16.5284 18.6042 16.5204 18.5969 16.5116 18.5902C16.5029 18.5836 16.4955 18.5755 16.4864 18.5692C16.4774 18.563 16.4664 18.5583 16.457 18.5524C16.4477 18.5466 16.4414 18.541 16.4318 18.5356C16.4222 18.5303 16.4123 18.5238 16.4024 18.5188C16.3926 18.5139 16.3831 18.5107 16.373 18.5062C16.363 18.5018 16.3497 18.4936 16.3394 18.4936C16.3292 18.4936 16.3205 18.481 16.31 18.481C16.2996 18.481 16.287 18.4726 16.2764 18.4726C16.2659 18.4726 16.2577 18.4642 16.247 18.4642C16.2363 18.4642 16.2242 18.4558 16.2134 18.4558C16.2026 18.4558 16.1907 18.4516 16.1798 18.4516C16.1689 18.4516 16.1614 18.4474 16.1504 18.4474L16.079 18.4432C16.0673 18.4432 16.0571 18.4432 16.0454 18.4432C16.0337 18.4432 16.0235 18.4474 16.0118 18.4474C16.0002 18.4474 15.9856 18.4516 15.974 18.4516C15.9624 18.4516 15.9519 18.46 15.9404 18.46C15.9289 18.46 15.9182 18.4642 15.9068 18.4642C15.8955 18.4642 15.8844 18.4768 15.8732 18.4768C15.862 18.4768 15.8507 18.4852 15.8396 18.4852C15.8286 18.4852 15.8168 18.4934 15.806 18.4978C15.7952 18.5023 15.783 18.5096 15.7724 18.5146C15.7618 18.5196 15.7533 18.5217 15.743 18.5272C15.7327 18.5328 15.7237 18.5422 15.7136 18.5482C15.7036 18.5543 15.694 18.5585 15.6842 18.565C15.6745 18.5715 15.6642 18.5791 15.6548 18.586C15.6454 18.593 15.6345 18.5996 15.6254 18.607C15.6163 18.6145 15.6089 18.6202 15.6002 18.628C15.5915 18.6359 15.5833 18.645 15.575 18.6532C15.5667 18.6615 15.5577 18.6698 15.5498 18.6784C15.5419 18.6871 15.5362 18.6988 15.5288 18.7079C15.5214 18.7169 15.5106 18.7236 15.5036 18.7331C15.4966 18.7424 15.4933 18.7527 15.4868 18.7625C15.4803 18.7722 15.4718 18.7818 15.4658 18.7919C15.4598 18.8019 15.4545 18.8109 15.449 18.8213C15.4435 18.8316 15.4372 18.8443 15.4322 18.8549C15.4272 18.8654 15.4241 18.8734 15.4196 18.8843C15.4151 18.8951 15.407 18.9068 15.407 18.9179C15.407 18.9289 15.3944 18.9402 15.3944 18.9515C15.3944 18.9627 15.386 18.9737 15.386 18.9851C15.386 18.9964 15.3776 19.0072 15.3776 19.0187C15.3776 19.0301 15.3734 19.0449 15.3734 19.0565C15.3734 19.068 15.3692 19.0784 15.3692 19.0901C15.3692 19.1017 15.365 19.112 15.365 19.1237C15.365 19.1354 15.365 19.1498 15.365 19.1615L15.365 20.1149C15.365 20.1266 15.365 20.1368 15.365 20.1485C15.365 20.1602 15.3608 20.1746 15.3608 20.1863C15.3608 20.198 15.3566 20.2083 15.3566 20.2199C15.3566 20.2315 15.3524 20.242 15.3524 20.2535C15.3524 20.265 15.344 20.2757 15.344 20.2871C15.344 20.2985 15.3356 20.3095 15.3356 20.3207C15.3356 20.3319 15.323 20.3433 15.323 20.3543C15.323 20.3653 15.3149 20.3771 15.3104 20.3879C15.3059 20.3987 15.2986 20.4109 15.2936 20.4215C15.2886 20.4321 15.2865 20.4406 15.281 20.4509C15.2755 20.4612 15.2702 20.4745 15.2642 20.4845C15.2582 20.4946 15.2497 20.5042 15.2432 20.5139C15.2367 20.5236 15.2292 20.5339 15.2222 20.5433C15.2152 20.5527 15.2086 20.5594 15.2012 20.5685C15.1938 20.5776 15.1881 20.585 15.1802 20.5937C15.1723 20.6024 15.1633 20.6148 15.155 20.6231C15.1467 20.6314 15.1385 20.6362 15.1298 20.6441C15.1211 20.652 15.1137 20.6619 15.1046 20.6693C15.0955 20.6767 15.0846 20.6833 15.0752 20.6903C15.0658 20.6973 15.0555 20.7048 15.0458 20.7113C15.036 20.7178 15.0264 20.7221 15.0164 20.7281C15.0063 20.7341 14.9973 20.7394 14.987 20.7449C14.9767 20.7504 14.964 20.7567 14.9534 20.7617C14.9428 20.7667 14.9348 20.7698 14.924 20.7743C14.9132 20.7788 14.9014 20.7869 14.8904 20.7869C14.8794 20.7869 14.868 20.7995 14.8568 20.7995C14.8456 20.7995 14.8345 20.8079 14.8232 20.8079C14.8118 20.8079 14.8011 20.8163 14.7896 20.8163C14.7781 20.8163 14.7634 20.8247 14.7518 20.8247C14.7402 20.8247 14.7298 20.8289 14.7182 20.8289C14.7065 20.8289 14.6963 20.8289 14.6846 20.8289C14.6729 20.8289 14.6585 20.8289 14.6468 20.8289C14.635 20.8289 14.6249 20.8289 14.6132 20.8289C14.6015 20.8289 14.5912 20.8289 14.5796 20.8289C14.5679 20.8289 14.5534 20.8247 14.5418 20.8247C14.5302 20.8247 14.5197 20.8163 14.5082 20.8163C14.4967 20.8163 14.4859 20.8079 14.4746 20.8079C14.4632 20.8079 14.4522 20.7995 14.441 20.7995C14.4298 20.7995 14.4184 20.7869 14.4074 20.7869C14.3963 20.7869 14.3846 20.7788 14.3738 20.7743C14.3629 20.7698 14.355 20.7667 14.3444 20.7617C14.3338 20.7567 14.3211 20.7504 14.3108 20.7449C14.3004 20.7394 14.2914 20.7341 14.2814 20.7281C14.2713 20.7221 14.2617 20.7178 14.252 20.7113C14.2422 20.7048 14.232 20.6973 14.2226 20.6903C14.2132 20.6833 14.2022 20.6767 14.1932 20.6693C14.1841 20.6619 14.1766 20.652 14.168 20.6441C14.1593 20.6362 14.151 20.6314 14.1428 20.6231C14.1345 20.6148 14.1254 20.6024 14.1176 20.5937C14.1097 20.585 14.104 20.5776 14.0966 20.5685C14.0891 20.5594 14.0783 20.5527 14.0714 20.5433C14.0644 20.5339 14.0611 20.5236 14.0546 20.5139C14.048 20.5042 14.0396 20.4946 14.0336 20.4845C14.0275 20.4745 14.0223 20.4612 14.0168 20.4509C14.0112 20.4406 14.005 20.4321 14 20.4215C13.9949 20.4109 13.9918 20.3987 13.9874 20.3879C13.9829 20.3771 13.9748 20.3653 13.9748 20.3543C13.9748 20.3433 13.9622 20.3319 13.9622 20.3207C13.9622 20.3095 13.9538 20.2985 13.9538 20.2871C13.9538 20.2757 13.9454 20.265 13.9454 20.2535C13.9454 20.242 13.9412 20.2315 13.9412 20.2199C13.9412 20.2083 13.937 20.198 13.937 20.1863C13.937 20.1746 13.9328 20.1602 13.9328 20.1485C13.9328 20.1368 13.9328 20.1266 13.9328 20.1149L13.9328 19.1615C13.9328 19.1352 13.9328 19.1079 13.9328 19.0817C13.9328 19.0554 13.937 19.0281 13.937 19.0019C13.937 18.9756 13.9454 18.9482 13.9454 18.9221C13.9454 18.8959 13.9538 18.8725 13.9538 18.8465C13.9538 18.8204 13.9658 18.7925 13.9706 18.7667C13.9754 18.7408 13.9774 18.7167 13.9832 18.6911C13.9889 18.6654 13.9975 18.6409 14.0042 18.6154C14.0108 18.59 14.0175 18.565 14.0252 18.5398C14.0328 18.5147 14.0418 18.4891 14.0504 18.4642C14.0589 18.4393 14.0661 18.4132 14.0756 18.3886C14.085 18.3641 14.0946 18.3414 14.105 18.3172C14.1153 18.293 14.1273 18.2696 14.1386 18.2458C14.1498 18.222 14.1601 18.1978 14.1722 18.1744C14.1842 18.1511 14.197 18.1259 14.21 18.103C14.2229 18.0801 14.2382 18.0582 14.252 18.0358C14.2657 18.0134 14.2794 17.9905 14.294 17.9686C14.3086 17.9467 14.3206 17.927 14.336 17.9056C14.3513 17.8843 14.3702 17.8634 14.3864 17.8426C14.4025 17.8218 14.4199 17.7998 14.4368 17.7796C14.4537 17.7594 14.4695 17.7403 14.4872 17.7208C14.5048 17.7013 14.5234 17.6809 14.5418 17.662C14.5601 17.6431 14.5773 17.6256 14.5964 17.6074C14.6154 17.5892 14.6355 17.5703 14.6552 17.5528C14.6749 17.5353 14.6937 17.5191 14.714 17.5024C14.7343 17.4857 14.7561 17.468 14.777 17.452C14.7979 17.436 14.8185 17.421 14.84 17.4058C14.8614 17.3906 14.881 17.3782 14.903 17.3638C14.925 17.3494 14.9477 17.3354 14.9702 17.3218C14.9927 17.3082 15.0186 17.2925 15.0416 17.2798C15.0646 17.267 15.0853 17.2539 15.1088 17.242C15.1323 17.2301 15.1563 17.2194 15.1802 17.2084C15.2041 17.1974 15.2273 17.1891 15.2516 17.179C15.2372 17.1271 15.2228 17.0746 15.2054 17.0236C15.1879 16.9726 15.167 16.9222 15.1466 16.8724C15.1261 16.8225 15.1069 16.774 15.0836 16.7254C15.0603 16.6768 15.0342 16.6297 15.008 16.5826C14.9818 16.5355 14.9529 16.4894 14.924 16.444C14.8951 16.3985 14.8673 16.3533 14.8358 16.3096C14.8042 16.2659 14.7691 16.2211 14.735 16.1794C14.7009 16.1376 14.6665 16.0972 14.63 16.0576ZM7.96435 18.4432C7.95264 18.4432 7.94244 18.4432 7.93075 18.4432C7.91904 18.4432 7.9088 18.4474 7.89715 18.4474C7.88548 18.4474 7.87092 18.4516 7.85935 18.4516C7.84776 18.4516 7.83724 18.46 7.82575 18.46C7.81424 18.46 7.80351 18.4642 7.79215 18.4642C7.78079 18.4642 7.76975 18.4768 7.75855 18.4768C7.74733 18.4768 7.73598 18.4852 7.72495 18.4852C7.71391 18.4852 7.70217 18.4934 7.69135 18.4978C7.68054 18.5023 7.67255 18.5096 7.66194 18.5146C7.65134 18.5196 7.63866 18.5217 7.62834 18.5272C7.61801 18.5328 7.60899 18.5422 7.59894 18.5482C7.58889 18.5543 7.57926 18.5585 7.56954 18.565C7.5598 18.5715 7.54955 18.5791 7.54014 18.586C7.53073 18.593 7.5198 18.5996 7.51074 18.607C7.50167 18.6145 7.49421 18.6202 7.48554 18.628C7.47686 18.6359 7.46862 18.645 7.46034 18.6532C7.45205 18.6615 7.44299 18.6698 7.43514 18.6784C7.42726 18.6871 7.42156 18.6988 7.41414 18.7079C7.40669 18.7169 7.40013 18.7236 7.39314 18.7331C7.38616 18.7424 7.37864 18.7527 7.37213 18.7625C7.36561 18.7722 7.35716 18.7818 7.35113 18.7919C7.3451 18.8019 7.33985 18.8109 7.33433 18.8213C7.32882 18.8316 7.32254 18.8443 7.31753 18.8549C7.31251 18.8654 7.3094 18.8734 7.30493 18.8843C7.30044 18.8951 7.29233 18.9068 7.29233 18.9179C7.29233 18.9289 7.27973 18.9402 7.27973 18.9515C7.27973 18.9627 7.27133 18.9737 7.27133 18.9851C7.27133 18.9964 7.26293 19.0072 7.26293 19.0187C7.26293 19.0301 7.25873 19.0449 7.25873 19.0565C7.25873 19.068 7.25453 19.0784 7.25453 19.0901C7.25453 19.1017 7.25033 19.112 7.25033 19.1237C7.25033 19.1354 7.25033 19.1498 7.25033 19.1615C7.25033 19.1732 7.25033 19.1834 7.25033 19.1951C7.25033 19.2068 7.25453 19.217 7.25453 19.2287C7.25453 19.2403 7.25873 19.2549 7.25873 19.2665C7.25873 19.2781 7.26293 19.2886 7.26293 19.3001C7.26293 19.3116 7.27133 19.3223 7.27133 19.3337C7.27133 19.345 7.27973 19.3561 7.27973 19.3673C7.27973 19.3785 7.29233 19.3898 7.29233 19.4009C7.29233 19.4119 7.30044 19.4236 7.30493 19.4345C7.3094 19.4453 7.31251 19.4575 7.31753 19.4681C7.32254 19.4787 7.32882 19.4871 7.33433 19.4975C7.33985 19.5078 7.3451 19.5168 7.35113 19.5269C7.35716 19.5369 7.36561 19.5465 7.37213 19.5563C7.37864 19.566 7.38616 19.5763 7.39314 19.5857C7.40013 19.5951 7.40669 19.606 7.41414 19.6151C7.42156 19.6241 7.42726 19.6316 7.43514 19.6403C7.44299 19.649 7.45205 19.6572 7.46034 19.6655C7.46862 19.6738 7.47686 19.6828 7.48554 19.6907C7.49421 19.6986 7.50167 19.7043 7.51074 19.7117C7.5198 19.7191 7.53073 19.7299 7.54014 19.7369C7.54955 19.7439 7.5598 19.7472 7.56954 19.7537C7.57926 19.7602 7.58889 19.7687 7.59894 19.7747C7.60899 19.7807 7.61801 19.7859 7.62834 19.7915C7.63866 19.797 7.65134 19.8033 7.66194 19.8083C7.67255 19.8133 7.68054 19.8164 7.69135 19.8209C7.70217 19.8254 7.71391 19.8335 7.72495 19.8335C7.73598 19.8335 7.74733 19.8461 7.75855 19.8461C7.76975 19.8461 7.78079 19.8545 7.79215 19.8545C7.80351 19.8545 7.81424 19.8629 7.82575 19.8629C7.83724 19.8629 7.84776 19.8671 7.85935 19.8671C7.87092 19.8671 7.88548 19.8713 7.89715 19.8713C7.9088 19.8713 7.91904 19.8755 7.93075 19.8755C7.94244 19.8755 7.95264 19.8755 7.96435 19.8755C7.97607 19.8755 7.99044 19.8755 8.00216 19.8755C8.01385 19.8755 8.02409 19.8713 8.03576 19.8713C8.04741 19.8713 8.06197 19.8671 8.07356 19.8671C8.08515 19.8671 8.09567 19.8629 8.10716 19.8629C8.11864 19.8629 8.1294 19.8545 8.14076 19.8545C8.15212 19.8545 8.16314 19.8461 8.17436 19.8461C8.18558 19.8461 8.19693 19.8335 8.20796 19.8335C8.219 19.8335 8.23073 19.8254 8.24156 19.8209C8.25237 19.8164 8.26036 19.8133 8.27096 19.8083C8.28157 19.8033 8.29425 19.797 8.30457 19.7915C8.3149 19.7859 8.32392 19.7807 8.33397 19.7747C8.34402 19.7687 8.35363 19.7602 8.36337 19.7537C8.37311 19.7472 8.38335 19.7439 8.39277 19.7369C8.40218 19.7299 8.41311 19.7191 8.42217 19.7117C8.43122 19.7043 8.43867 19.6986 8.44737 19.6907C8.45605 19.6828 8.46428 19.6738 8.47257 19.6655C8.48086 19.6572 8.48992 19.649 8.49777 19.6403C8.50565 19.6316 8.51135 19.6241 8.51877 19.6151C8.5262 19.606 8.53278 19.5951 8.53977 19.5857C8.54675 19.5763 8.55425 19.566 8.56077 19.5563C8.56728 19.5465 8.57575 19.5369 8.58178 19.5269C8.58778 19.5168 8.59306 19.5078 8.59858 19.4975C8.60409 19.4871 8.61037 19.4787 8.61538 19.4681C8.6204 19.4575 8.62349 19.4453 8.62798 19.4345C8.63247 19.4236 8.64058 19.4119 8.64058 19.4009C8.64058 19.3898 8.65318 19.3785 8.65318 19.3673C8.65318 19.3561 8.66158 19.345 8.66158 19.3337C8.66158 19.3223 8.66998 19.3116 8.66998 19.3001C8.66998 19.2886 8.67418 19.2781 8.67418 19.2665C8.67418 19.2549 8.67838 19.2403 8.67838 19.2287C8.67838 19.217 8.68258 19.2068 8.68258 19.1951C8.68258 19.1834 8.68258 19.1732 8.68258 19.1615C8.68258 19.1498 8.68258 19.1354 8.68258 19.1237C8.68258 19.112 8.67838 19.1017 8.67838 19.0901C8.67838 19.0784 8.67418 19.068 8.67418 19.0565C8.67418 19.0449 8.66998 19.0301 8.66998 19.0187C8.66998 19.0072 8.66158 18.9964 8.66158 18.9851C8.66158 18.9737 8.65318 18.9627 8.65318 18.9515C8.65318 18.9402 8.64058 18.9289 8.64058 18.9179C8.64058 18.9068 8.63247 18.8951 8.62798 18.8843C8.62349 18.8734 8.6204 18.8654 8.61538 18.8549C8.61037 18.8443 8.60409 18.8316 8.59858 18.8213C8.59306 18.8109 8.58778 18.8019 8.58178 18.7919C8.57575 18.7818 8.56728 18.7722 8.56077 18.7625C8.55425 18.7527 8.54675 18.7424 8.53977 18.7331C8.53278 18.7236 8.5262 18.7169 8.51877 18.7079C8.51135 18.6988 8.50565 18.6871 8.49777 18.6784C8.48992 18.6698 8.48086 18.6615 8.47257 18.6532C8.46428 18.645 8.45605 18.6359 8.44737 18.628C8.43867 18.6202 8.43122 18.6145 8.42217 18.607C8.41311 18.5996 8.40218 18.593 8.39277 18.586C8.38335 18.5791 8.37311 18.5715 8.36337 18.565C8.35363 18.5585 8.34402 18.5543 8.33397 18.5482C8.32392 18.5422 8.3149 18.5328 8.30457 18.5272C8.29423 18.5217 8.28155 18.5196 8.27096 18.5146C8.26036 18.5096 8.25237 18.5023 8.24156 18.4978C8.23073 18.4934 8.219 18.4852 8.20796 18.4852C8.19693 18.4852 8.18558 18.4768 8.17436 18.4768C8.16314 18.4768 8.15212 18.4642 8.14076 18.4642C8.1294 18.4642 8.11864 18.46 8.10716 18.46C8.09567 18.46 8.08515 18.4516 8.07356 18.4516C8.06197 18.4516 8.04741 18.4474 8.03576 18.4474C8.02409 18.4474 8.01385 18.4432 8.00216 18.4432C7.99044 18.4432 7.97607 18.4432 7.96435 18.4432ZM7.25033 9.96735C7.25033 9.98311 7.25033 9.9978 7.25033 10.0136C7.25033 10.0551 7.25033 10.0976 7.25033 10.1396C7.26799 10.2398 7.28393 10.3459 7.30493 10.4462L7.30493 10.484C7.31763 10.5163 7.32593 10.5502 7.32593 10.5848C7.35457 10.6993 7.38265 10.8087 7.41414 10.9166L7.44774 11.0216C7.48593 11.1371 7.53021 11.2501 7.57794 11.3618L7.61994 11.4584C7.66911 11.5696 7.72323 11.6744 7.77955 11.7818L7.82575 11.891C7.87826 11.9846 7.94001 12.0843 8.00636 12.185L8.06936 12.2774C8.13187 12.3634 8.20547 12.4523 8.27517 12.542L8.35497 12.6344C8.42466 12.7204 8.49614 12.8035 8.56917 12.8823L8.66578 12.9789C8.72544 13.04 8.79178 13.0938 8.85478 13.1511L8.99339 13.3233C9.06353 13.3805 9.14422 13.4424 9.2244 13.4997L9.3588 13.5963L9.59821 13.7433L9.74941 13.8315L9.90062 13.9029L10.182 14.0331L10.3416 14.0919L10.6146 14.1885C10.6987 14.2133 10.8243 14.2557 10.8835 14.2557L10.9591 14.2809C10.9834 14.2809 11.0061 14.2809 11.0305 14.2809C11.1703 14.3062 11.2741 14.3313 11.3791 14.3313L11.5387 14.3565C11.8489 14.3961 12.1604 14.3961 12.4711 14.3565L12.6223 14.3313C12.7306 14.317 12.8319 14.3066 12.9331 14.2851L13.0465 14.2557L13.1893 14.2179L13.3699 14.1675L13.4707 14.1339L13.6135 14.0835L13.7942 14.0163L13.9748 13.9323L14.063 13.8903L14.2058 13.8147L14.3192 13.7517L14.3822 13.7139L14.5922 13.5879L14.7602 13.4661L14.8022 13.4325L14.9576 13.3149C14.9838 13.2933 15.0121 13.2727 15.0416 13.2561C15.0726 13.2384 15.1026 13.2202 15.1298 13.1973L15.3146 13.0293L15.386 12.9495L15.4574 12.8739C15.5132 12.8166 15.5759 12.7514 15.6212 12.6974C15.6665 12.6435 15.7027 12.5986 15.7514 12.5336L15.8816 12.3572L15.9026 12.332L16.0202 12.1598L16.1504 11.9456C16.1862 11.8893 16.2198 11.8308 16.247 11.7692L16.3604 11.534C16.3881 11.4729 16.4134 11.4242 16.4444 11.345C16.4759 11.2663 16.5121 11.1781 16.5326 11.1098L16.6418 10.8872C16.6628 10.8223 16.7006 10.7509 16.7006 10.6898L16.7006 10.6436C16.7217 10.561 16.7292 10.5304 16.7469 10.4336C16.764 10.3367 16.7931 10.2363 16.7931 10.1648L16.7931 10.0934C16.7931 10.0504 16.7931 10.0061 16.7931 9.96315C16.6957 9.93871 16.5968 9.9147 16.499 9.89175C16.4013 9.8688 16.3073 9.85018 16.2092 9.82875C16.1111 9.8073 16.0095 9.78568 15.911 9.76575C15.8126 9.74581 15.7157 9.72536 15.617 9.70695C15.5183 9.68853 15.4178 9.67342 15.3188 9.65654C15.2198 9.63964 15.124 9.62151 15.0248 9.60614C14.9255 9.59076 14.826 9.57796 14.7266 9.56414C14.6271 9.55032 14.5238 9.53445 14.4242 9.52214C14.3245 9.50983 14.2258 9.49931 14.126 9.48854C14.0261 9.47777 13.9278 9.46837 13.8278 9.45914C13.7277 9.44991 13.6255 9.44163 13.5253 9.43394C13.4252 9.42625 13.3274 9.41909 13.2271 9.41294C13.1269 9.40678 13.025 9.40073 12.9247 9.39614C12.8244 9.39152 12.7269 9.38354 12.6265 9.38354C12.5261 9.38354 12.4245 9.37934 12.3241 9.37934C12.2237 9.37934 12.1221 9.37514 12.0217 9.37514C11.9213 9.37514 11.8197 9.37934 11.7193 9.37934C11.6189 9.37934 11.5214 9.38354 11.4211 9.38354C11.3207 9.38354 11.219 9.39146 11.1187 9.39614C11.0183 9.40079 10.9165 9.40672 10.8163 9.41294C10.716 9.41913 10.6182 9.42618 10.518 9.43394C10.4179 9.44169 10.3156 9.44983 10.2156 9.45914C10.1156 9.46841 10.0173 9.47771 9.91742 9.48854C9.81758 9.49937 9.71885 9.51397 9.61921 9.52634C9.51955 9.53869 9.42045 9.55024 9.321 9.56414C9.22155 9.57805 9.12202 9.59072 9.02279 9.60614C8.92356 9.62157 8.82356 9.63958 8.72458 9.65654C8.6256 9.67349 8.52509 9.69267 8.42637 9.71115C8.32765 9.72961 8.23077 9.74575 8.13236 9.76575C8.03393 9.78573 7.93645 9.80726 7.83835 9.82875C7.74025 9.85025 7.64209 9.87294 7.54434 9.89595C7.44659 9.91897 7.34773 9.94285 7.25033 9.96735ZM7.32593 3.93175L7.25033 3.96115L7.25033 8.4217C7.25033 8.4217 7.44624 8.37929 7.54434 8.3587C7.64246 8.33811 7.73996 8.31914 7.83835 8.2999C7.93674 8.28066 8.03793 8.25896 8.13656 8.2411C8.23519 8.22321 8.33169 8.20719 8.43057 8.19069C8.52945 8.17416 8.62967 8.15963 8.72878 8.14449C8.82786 8.12934 8.9277 8.11207 9.02699 8.09829C9.12628 8.08451 9.22571 8.07288 9.3252 8.06049C9.42467 8.04806 9.52377 8.03792 9.62341 8.02689C9.72305 8.01585 9.82184 8.00295 9.92162 7.99329C10.0214 7.98361 10.1199 7.97637 10.2198 7.96809C10.3197 7.9598 10.4222 7.9498 10.5222 7.94289C10.6222 7.93597 10.7203 7.9316 10.8205 7.92609C10.9205 7.92055 11.0227 7.90929 11.1229 7.90929C11.223 7.90929 11.3209 7.90089 11.4211 7.90089C11.5213 7.90089 11.6232 7.89669 11.7235 7.89669C11.8237 7.89669 11.9214 7.89249 12.0217 7.89249C12.1219 7.89249 12.2239 7.89669 12.3241 7.89669C12.4243 7.89669 12.5263 7.90089 12.6265 7.90089C12.7267 7.90089 12.8246 7.90929 12.9247 7.90929C13.0249 7.90929 13.127 7.92055 13.2271 7.92609C13.3272 7.9316 13.4253 7.93597 13.5253 7.94289C13.6253 7.9498 13.7278 7.9598 13.8278 7.96809C13.9276 7.97637 14.0262 7.98361 14.126 7.99329C14.2257 8.00295 14.3245 8.01585 14.4242 8.02689C14.5238 8.03792 14.6229 8.04806 14.7224 8.06049C14.8219 8.07288 14.9213 8.08451 15.0206 8.09829C15.1199 8.11207 15.2197 8.12934 15.3188 8.14449C15.4179 8.15963 15.5181 8.17416 15.617 8.19069C15.7159 8.20719 15.8124 8.22321 15.911 8.2411C16.0097 8.25896 16.1108 8.28066 16.2092 8.2999C16.3076 8.31914 16.5032 8.3587 16.5032 8.3587L16.7973 8.4217L16.7973 3.95695L16.7217 3.93175L16.4402 3.83935L16.1546 3.75534L15.8648 3.67554L15.575 3.59994L15.2852 3.53274L14.9912 3.46974L14.7014 3.41513L14.4032 3.36053L14.1092 3.31853L13.8152 3.28073L13.5169 3.24713L13.2187 3.21773L12.9205 3.19673L12.6223 3.18413L12.3241 3.17572C12.2245 3.17572 12.1255 3.17153 12.0259 3.17153C11.9263 3.17153 11.8272 3.17572 11.7277 3.17572C11.6281 3.17572 11.529 3.18413 11.4295 3.18413C11.33 3.18413 11.2307 3.19073 11.1313 3.19673C11.0318 3.20271 10.9323 3.20974 10.8331 3.21773C10.7338 3.22571 10.6339 3.23715 10.5348 3.24713C10.4358 3.2571 10.3355 3.26877 10.2366 3.28073C10.1378 3.29269 10.0412 3.30459 9.94262 3.31853C9.84401 3.33247 9.74272 3.34461 9.64441 3.36053C9.54611 3.37645 9.44838 3.39724 9.3504 3.41513C9.25242 3.43302 9.15398 3.44989 9.05639 3.46974C8.9588 3.48958 8.86376 3.51093 8.76658 3.53274C8.6694 3.55454 8.57348 3.57619 8.47677 3.59994C8.38005 3.62369 8.28317 3.64986 8.18696 3.67554C8.09073 3.70122 7.99283 3.72773 7.89715 3.75534C7.80145 3.78296 7.70665 3.80981 7.61154 3.83935C7.51642 3.86886 7.42042 3.90031 7.32593 3.93175Z"   fill="#034FA1" ></path><path d="M11.9742 3.40735C12.3176 3.40735 12.6025 3.6703 12.6304 4.01265L12.6304 4.84898L13.4713 4.84898C13.4815 4.84898 13.499 4.8536 13.499 4.8536C13.5092 4.8536 13.5213 4.85822 13.5314 4.85822C13.5414 4.85822 13.5591 4.86284 13.5591 4.86284C13.5691 4.86284 13.5914 4.87208 13.5914 4.87208C13.6013 4.87208 13.6094 4.88133 13.6192 4.88133C13.6289 4.88133 13.6515 4.89057 13.6515 4.89057C13.6611 4.89057 13.6698 4.89981 13.6792 4.89981C13.6886 4.89981 13.6978 4.91367 13.707 4.91367C13.7161 4.91367 13.7257 4.92264 13.7347 4.92753C13.7437 4.93243 13.749 4.93607 13.7578 4.94139C13.7665 4.94667 13.777 4.95415 13.7855 4.95988C13.794 4.96558 13.8004 4.97227 13.8086 4.97836C13.8168 4.98445 13.8284 4.99037 13.8363 4.99684C13.8443 5.00332 13.8518 5.00849 13.8594 5.01532C13.867 5.02216 13.8753 5.03125 13.8825 5.03843C13.8898 5.0456 13.8941 5.0494 13.901 5.05691C13.908 5.06442 13.9175 5.07216 13.9241 5.08001C13.9307 5.08782 13.9364 5.09961 13.9426 5.10774C13.9488 5.11586 13.9553 5.12242 13.9611 5.13084C13.9669 5.13923 13.9695 5.1499 13.975 5.15856C13.9804 5.16723 13.9884 5.17273 13.9934 5.18167C13.9984 5.19058 14.0073 5.20025 14.0073 5.20939C14.0073 5.21853 14.0212 5.22777 14.0212 5.23711C14.0212 5.24645 14.0304 5.25532 14.0304 5.26484C14.0304 5.27436 14.0396 5.28286 14.0396 5.29256C14.0396 5.30224 14.0489 5.31507 14.0489 5.32491C14.0489 5.33472 14.0581 5.34266 14.0581 5.35263C14.0581 5.36256 14.0627 5.37491 14.0627 5.38497C14.0627 5.39504 14.072 5.40257 14.072 5.4127C14.072 5.42281 14.072 5.43484 14.072 5.44504C14.072 5.45522 14.0766 5.46254 14.0766 5.47276C14.0766 5.48299 14.0766 5.49489 14.0766 5.50511C14.0766 5.51533 14.0766 5.52721 14.0766 5.53745C14.0766 5.54765 14.072 5.55498 14.072 5.56518C14.072 5.57535 14.072 5.58739 14.072 5.59752C14.072 5.60763 14.0627 5.61518 14.0627 5.62525C14.0627 5.63531 14.0581 5.64764 14.0581 5.65759C14.0581 5.66754 14.0489 5.67548 14.0489 5.68531C14.0489 5.69515 14.0396 5.70796 14.0396 5.71766C14.0396 5.72734 14.0304 5.73586 14.0304 5.74538C14.0304 5.7549 14.0212 5.76376 14.0212 5.77311C14.0212 5.78245 14.0073 5.79167 14.0073 5.80083C14.0073 5.80994 13.9984 5.81962 13.9934 5.82855C13.9884 5.83744 13.9804 5.84759 13.975 5.85628C13.9695 5.86494 13.9669 5.87096 13.9611 5.87938C13.9553 5.88777 13.9488 5.89896 13.9426 5.9071C13.9364 5.91523 13.9307 5.92238 13.9241 5.93021C13.9175 5.93804 13.908 5.9458 13.901 5.95331C13.8941 5.96082 13.8898 5.96921 13.8825 5.97641C13.8753 5.98359 13.867 5.98804 13.8594 5.99489C13.8518 6.00171 13.8443 6.00688 13.8363 6.01338C13.8284 6.01983 13.8168 6.02575 13.8086 6.03186C13.8004 6.03795 13.794 6.04461 13.7855 6.05034C13.777 6.05603 13.7665 6.0635 13.7578 6.06882C13.749 6.07413 13.7437 6.07777 13.7347 6.08269C13.7257 6.08756 13.7161 6.09655 13.707 6.09655C13.6978 6.09655 13.6886 6.11041 13.6792 6.11041C13.6698 6.11041 13.6611 6.11965 13.6515 6.11965C13.6419 6.11965 13.6289 6.13351 13.6192 6.13351C13.6094 6.13351 13.6013 6.14275 13.5914 6.14275C13.5816 6.14275 13.5691 6.14738 13.5591 6.14738C13.5491 6.14738 13.5414 6.152 13.5314 6.152C13.5213 6.152 13.5092 6.15662 13.499 6.15662C13.4889 6.15662 13.4815 6.16124 13.4713 6.16124L12.6304 6.16124L12.6304 7.00219C12.6304 7.01239 12.6304 7.01976 12.6304 7.02991C12.6304 7.04004 12.6257 7.05217 12.6257 7.06226C12.6257 7.07232 12.6165 7.08001 12.6165 7.08998C12.6165 7.09995 12.6119 7.11244 12.6119 7.12233C12.6119 7.13219 12.6026 7.1403 12.6026 7.15005C12.6026 7.15977 12.5934 7.16821 12.5934 7.17777C12.5934 7.18734 12.5795 7.19609 12.5795 7.2055C12.5795 7.21488 12.5703 7.22402 12.5703 7.23322C12.5703 7.24243 12.5613 7.25196 12.5564 7.26094C12.5515 7.26993 12.5432 7.27991 12.5379 7.28867C12.5326 7.2974 12.5298 7.30791 12.5241 7.31639C12.5184 7.32488 12.5117 7.33128 12.5056 7.3395C12.4995 7.34769 12.4936 7.35466 12.4871 7.3626C12.4806 7.3705 12.4708 7.37807 12.464 7.3857C12.4572 7.39328 12.4527 7.40152 12.4455 7.4088C12.4384 7.41607 12.4299 7.42496 12.4224 7.43191C12.4149 7.43883 12.4071 7.4438 12.3993 7.45039C12.3915 7.45698 12.3843 7.46267 12.3762 7.46887C12.3681 7.47508 12.3615 7.48153 12.3531 7.48735C12.3447 7.49318 12.3341 7.5004 12.3254 7.50584C12.3167 7.51125 12.3066 7.51467 12.2977 7.5197C12.2888 7.52471 12.2791 7.53356 12.2699 7.53356C12.2608 7.53356 12.2516 7.54742 12.2422 7.54742C12.2329 7.54742 12.224 7.56129 12.2145 7.56129C12.205 7.56129 12.1965 7.57053 12.1868 7.57053C12.1771 7.57053 12.1689 7.57977 12.159 7.57977C12.1492 7.57977 12.1367 7.58901 12.1267 7.58901C12.1167 7.58901 12.109 7.59363 12.099 7.59363C12.0889 7.59363 12.0767 7.59825 12.0666 7.59825C12.0565 7.59825 12.0491 7.60287 12.0389 7.60287C12.0287 7.60287 12.0168 7.60287 12.0066 7.60287C11.9963 7.60287 11.9844 7.60749 11.9742 7.60749C11.964 7.60749 11.9567 7.60287 11.9465 7.60287C11.9363 7.60287 11.9243 7.60287 11.9142 7.60287C11.904 7.60287 11.8965 7.59825 11.8864 7.59825C11.8763 7.59825 11.8641 7.59363 11.8541 7.59363C11.844 7.59363 11.8363 7.58901 11.8264 7.58901C11.8164 7.58901 11.8039 7.57977 11.794 7.57977C11.7842 7.57977 11.776 7.57053 11.7663 7.57053C11.7566 7.57053 11.7481 7.56129 11.7386 7.56129C11.7291 7.56129 11.7156 7.54742 11.7062 7.54742C11.6969 7.54742 11.6876 7.53356 11.6785 7.53356C11.6693 7.53356 11.6643 7.52471 11.6554 7.5197C11.6465 7.51467 11.6363 7.51125 11.6277 7.50584C11.619 7.5004 11.6083 7.49318 11.6 7.48735C11.5915 7.48153 11.585 7.47508 11.5769 7.46887C11.5687 7.46267 11.5616 7.45698 11.5537 7.45039C11.5459 7.4438 11.5382 7.43883 11.5306 7.43191C11.5231 7.42496 11.5147 7.41607 11.5075 7.4088C11.5003 7.40152 11.4913 7.39328 11.4844 7.3857C11.4776 7.37807 11.4724 7.3705 11.466 7.3626C11.4595 7.35466 11.4536 7.34769 11.4475 7.3395C11.4414 7.33128 11.4347 7.32488 11.429 7.31639C11.4233 7.30791 11.4204 7.2974 11.4151 7.28867C11.4098 7.27991 11.4015 7.26993 11.3966 7.26094C11.3917 7.25196 11.3828 7.24243 11.3828 7.23322C11.3828 7.22402 11.3689 7.21488 11.3689 7.2055C11.3689 7.19609 11.3597 7.18734 11.3597 7.17777C11.3597 7.16821 11.3504 7.15977 11.3504 7.15005C11.3504 7.1403 11.3412 7.13219 11.3412 7.12233C11.3412 7.11244 11.332 7.09995 11.332 7.08998C11.332 7.08001 11.3273 7.07232 11.3273 7.06226C11.3273 7.05217 11.3227 7.04004 11.3227 7.02991C11.3227 7.01976 11.3181 7.01239 11.3181 7.00219L11.3181 6.16124L10.4818 6.16124C10.4716 6.16124 10.4596 6.15662 10.4494 6.15662C10.4393 6.15662 10.4318 6.152 10.4217 6.152C10.4116 6.152 10.3993 6.14738 10.3894 6.14738C10.3794 6.14738 10.3715 6.14275 10.3616 6.14275C10.3518 6.14275 10.3436 6.13351 10.3339 6.13351C10.3242 6.13351 10.3112 6.11965 10.3016 6.11965C10.292 6.11965 10.2832 6.11041 10.2738 6.11041C10.2645 6.11041 10.2553 6.09655 10.2461 6.09655C10.2369 6.09655 10.2274 6.08756 10.2184 6.08269C10.2094 6.07777 10.1994 6.07413 10.1907 6.06882C10.1819 6.0635 10.176 6.05603 10.1676 6.05034C10.1591 6.04461 10.148 6.03795 10.1398 6.03186C10.1316 6.02575 10.1247 6.01983 10.1167 6.01338C10.1088 6.00688 10.1012 6.00171 10.0936 5.99489C10.086 5.98804 10.0778 5.98359 10.0705 5.97641C10.0632 5.96921 10.059 5.9608 10.052 5.95331C10.0451 5.94577 10.0355 5.93804 10.0289 5.93021C10.0224 5.92238 10.0167 5.91523 10.0105 5.9071C10.0042 5.89896 9.9978 5.88777 9.99198 5.87938C9.98616 5.87096 9.98353 5.86494 9.97812 5.85628C9.97268 5.84759 9.96465 5.83744 9.95964 5.82855C9.9546 5.81962 9.94577 5.80994 9.94577 5.80083C9.94577 5.79167 9.93191 5.78245 9.93191 5.77311C9.93191 5.76376 9.92267 5.7549 9.92267 5.74538C9.92267 5.73586 9.90881 5.72734 9.90881 5.71766C9.90881 5.70796 9.89957 5.69515 9.89957 5.68531C9.89957 5.67548 9.89495 5.66754 9.89495 5.65759C9.89495 5.64764 9.88571 5.63531 9.88571 5.62525C9.88571 5.61518 9.88109 5.60763 9.88109 5.59752C9.88109 5.58739 9.87646 5.57535 9.87646 5.56518C9.87646 5.55498 9.87646 5.54765 9.87646 5.53745C9.87646 5.52721 9.87646 5.51533 9.87646 5.50511C9.87646 5.49489 9.87646 5.48299 9.87646 5.47276C9.87646 5.46254 9.87646 5.45522 9.87646 5.44504C9.87646 5.43484 9.88109 5.42281 9.88109 5.4127C9.88109 5.40257 9.88571 5.39504 9.88571 5.38497C9.88571 5.37491 9.89495 5.36256 9.89495 5.35263C9.89495 5.34266 9.89957 5.33472 9.89957 5.32491C9.89957 5.31507 9.90881 5.30224 9.90881 5.29256C9.90881 5.28286 9.92267 5.27436 9.92267 5.26484C9.92267 5.25532 9.93191 5.24645 9.93191 5.23711C9.93191 5.22777 9.94577 5.21853 9.94577 5.20939C9.94577 5.20025 9.95463 5.19058 9.95964 5.18167C9.96467 5.17273 9.97268 5.16723 9.97812 5.15856C9.98353 5.1499 9.98616 5.13923 9.99198 5.13084C9.9978 5.12242 10.0042 5.11586 10.0105 5.10774C10.0167 5.09961 10.0224 5.08782 10.0289 5.08001C10.0355 5.07216 10.0451 5.06442 10.052 5.05691C10.059 5.0494 10.0632 5.0456 10.0705 5.03843C10.0778 5.03125 10.086 5.02216 10.0936 5.01532C10.1012 5.00849 10.1088 5.00332 10.1167 4.99684C10.1247 4.99037 10.1316 4.98445 10.1398 4.97836C10.148 4.97227 10.1591 4.96558 10.1676 4.95988C10.176 4.95415 10.1819 4.94667 10.1907 4.94139C10.1994 4.93607 10.2094 4.93243 10.2184 4.92753C10.2274 4.92264 10.2369 4.91367 10.2461 4.91367C10.2553 4.91367 10.2645 4.89981 10.2738 4.89981C10.2832 4.89981 10.292 4.89057 10.3016 4.89057C10.3112 4.89057 10.3242 4.88133 10.3339 4.88133C10.3436 4.88133 10.3518 4.87208 10.3616 4.87208C10.3715 4.87208 10.3794 4.86284 10.3894 4.86284C10.3993 4.86284 10.4116 4.85822 10.4217 4.85822C10.4318 4.85822 10.4393 4.8536 10.4494 4.8536C10.4596 4.8536 10.4716 4.84898 10.4818 4.84898L11.3181 4.84898L11.3181 4.01265C11.3181 4.00245 11.3227 3.99046 11.3227 3.98031C11.3227 3.97015 11.3273 3.96265 11.3273 3.95258C11.3273 3.9425 11.332 3.93021 11.332 3.92024C11.332 3.91026 11.3412 3.90237 11.3412 3.89251C11.3412 3.88263 11.3504 3.86989 11.3504 3.86017C11.3504 3.85042 11.3597 3.84201 11.3597 3.83245C11.3597 3.82288 11.3689 3.81411 11.3689 3.80472C11.3689 3.79534 11.3828 3.7862 11.3828 3.777C11.3828 3.76779 11.3918 3.75825 11.3966 3.74927C11.4015 3.74029 11.4098 3.73031 11.4151 3.72155C11.4204 3.7128 11.4233 3.70231 11.429 3.69383C11.4347 3.68534 11.4414 3.67894 11.4475 3.67072C11.4536 3.66251 11.4595 3.65552 11.466 3.64762C11.4724 3.6397 11.4776 3.63212 11.4844 3.62452C11.4913 3.61689 11.5004 3.60868 11.5075 3.60141C11.5147 3.59413 11.5231 3.58524 11.5306 3.57831C11.5381 3.57136 11.5459 3.56642 11.5537 3.55983C11.5616 3.55325 11.5687 3.54755 11.5769 3.54135C11.585 3.53514 11.5915 3.52869 11.6 3.52286C11.6083 3.51704 11.619 3.50981 11.6277 3.50438C11.6364 3.49896 11.6465 3.49554 11.6554 3.49052C11.6643 3.4855 11.6694 3.47666 11.6785 3.47666C11.6876 3.47666 11.6969 3.4628 11.7062 3.4628C11.7156 3.4628 11.7291 3.44893 11.7386 3.44893C11.7481 3.44893 11.7566 3.43969 11.7663 3.43969C11.776 3.43969 11.7842 3.43045 11.794 3.43045C11.8039 3.43045 11.8164 3.42121 11.8264 3.42121C11.8363 3.42121 11.844 3.41659 11.8541 3.41659C11.8641 3.41659 11.8763 3.41197 11.8864 3.41197C11.8966 3.41197 11.904 3.40735 11.9142 3.40735C11.9243 3.40735 11.9363 3.40735 11.9465 3.40735C11.9567 3.40735 11.964 3.40735 11.9742 3.40735Z"   fill="#CC4E1D" ></path></svg>