<svg xmlns="http://www.w3.org/2000/svg" xmlns:xlink="http://www.w3.org/1999/xlink" width="24" height="24" viewBox="0 0 24 24" fill="none"><path d="M17.5372 2.07096L17.0744 1.90833C13.5318 0.700005 9.97528 0.695836 6.43274 1.90416L5.96571 2.06262C5.95891 2.06262 5.95156 2.07096 5.94486 2.07096C5.93814 2.07096 5.93059 2.0793 5.92401 2.0793C5.91741 2.0793 5.91378 2.08764 5.90733 2.08764C5.90085 2.08764 5.89283 2.09598 5.88648 2.09598C5.88015 2.09598 5.87601 2.10849 5.8698 2.10849C5.86359 2.10849 5.85502 2.11683 5.84895 2.11683C5.84288 2.11683 5.83818 2.12934 5.83227 2.12934C5.82634 2.12934 5.82133 2.13749 5.81559 2.14185C5.80985 2.14621 5.80449 2.15395 5.79891 2.15853C5.79333 2.16311 5.78763 2.16625 5.78223 2.17104C5.77684 2.17582 5.77076 2.18273 5.76555 2.18772C5.76034 2.19271 5.75388 2.19504 5.74887 2.20023C5.74386 2.20542 5.74117 2.21153 5.73636 2.21691C5.73154 2.22228 5.72428 2.22803 5.71968 2.23359C5.71508 2.23914 5.71155 2.24454 5.70717 2.25027C5.70277 2.256 5.69466 2.26105 5.69466 2.26695C5.69466 2.27284 5.68215 2.27758 5.68215 2.28363C5.68215 2.28967 5.66964 2.29828 5.66964 2.30448C5.66964 2.31067 5.6613 2.31482 5.6613 2.32116C5.6613 2.32749 5.64879 2.33555 5.64879 2.34201C5.64879 2.34846 5.64045 2.35628 5.64045 2.36286C5.64045 2.36943 5.63211 2.37285 5.63211 2.37954C5.63211 2.38622 5.62377 2.3936 5.62377 2.40038C5.62377 2.40717 5.61543 2.41436 5.61543 2.42123C5.61543 2.42811 5.61126 2.43513 5.61126 2.44208C5.61126 2.44904 5.60709 2.45591 5.60709 2.46293C5.60709 2.46995 5.60292 2.4767 5.60292 2.48378C5.60292 2.49086 5.59875 2.49751 5.59875 2.50463C5.59875 2.51176 5.59458 2.52249 5.59458 2.52965L5.59458 2.5505C5.59458 2.55769 5.59042 2.56414 5.59042 2.57135L5.59042 8.65527C5.65344 10.6725 6.55006 12.6584 8.255 13.7843C8.05265 13.7843 7.84938 13.8216 7.65036 13.851C4.53712 14.3244 1.77626 16.9662 1.79996 20.06L1.79996 21.1108C1.79996 21.5178 2.13592 21.8489 2.55054 21.8489L9.60627 21.8489C9.53258 21.4391 9.4941 21.017 9.4941 20.586C9.4941 20.5328 9.49469 20.4798 9.49585 20.427L3.2219 20.427C3.2219 18.1951 4.62413 16.2916 6.59537 15.5481C6.55839 15.7439 6.53699 15.9488 6.53699 16.1611C6.53699 16.2341 6.54062 16.3093 6.54533 16.3821C6.55003 16.455 6.55663 16.5266 6.56618 16.599C6.57571 16.6713 6.58935 16.7442 6.60371 16.8158C6.61806 16.8874 6.63462 16.958 6.65375 17.0285C6.62992 17.0486 6.60548 17.0696 6.58286 17.091C6.56021 17.1125 6.53752 17.1351 6.51614 17.1577C6.49474 17.1804 6.47367 17.2048 6.45359 17.2286C6.43351 17.2525 6.4139 17.2745 6.39521 17.2995C6.37652 17.3244 6.35827 17.3486 6.341 17.3746C6.32373 17.4005 6.31089 17.4269 6.29513 17.4538C6.27935 17.4807 6.2635 17.5095 6.24926 17.5372C6.23503 17.5649 6.22021 17.5921 6.20756 17.6206C6.19492 17.6491 6.18522 17.679 6.1742 17.7082C6.16317 17.7373 6.15019 17.766 6.14084 17.7957C6.13148 17.8255 6.1235 17.8573 6.11583 17.8875C6.10815 17.9177 6.10094 17.9486 6.09498 17.9792C6.08901 18.0098 6.08668 18.0401 6.08247 18.0709C6.07825 18.1018 6.06996 18.1316 6.06996 18.1627C6.06996 18.1938 6.06579 18.2233 6.06579 18.2544L6.06579 18.3503C6.06579 18.3815 6.06996 18.411 6.06996 18.4421C6.06996 18.4731 6.0779 18.5071 6.08247 18.538C6.08699 18.5688 6.09287 18.5992 6.09915 18.6297C6.10542 18.6603 6.11201 18.6872 6.12 18.7173C6.12798 18.7474 6.13534 18.7794 6.14501 18.809C6.15467 18.8387 6.16705 18.8675 6.17837 18.8966C6.1897 18.9256 6.20295 18.9558 6.2159 18.9842C6.22883 19.0125 6.24308 19.04 6.2576 19.0676C6.27212 19.0952 6.28743 19.1201 6.30347 19.1468C6.31952 19.1735 6.33598 19.2002 6.35351 19.226C6.37102 19.2518 6.38874 19.2763 6.40772 19.3011C6.42666 19.3258 6.44578 19.3525 6.4661 19.3761C6.48642 19.3998 6.50702 19.4204 6.52865 19.4429C6.55025 19.4653 6.5725 19.4884 6.59537 19.5096C6.61821 19.5308 6.64223 19.5522 6.66625 19.5721C6.69026 19.592 6.71623 19.612 6.74131 19.6305C6.7664 19.649 6.79029 19.6676 6.81637 19.6847C6.84248 19.7018 6.86858 19.715 6.8956 19.7306C6.9226 19.7461 6.95114 19.7624 6.979 19.7764C7.00683 19.7905 7.03379 19.8015 7.0624 19.814C7.09099 19.8264 7.1207 19.8407 7.14997 19.8515C7.17923 19.8623 7.20772 19.8716 7.23753 19.8807C7.26734 19.8898 7.29897 19.8983 7.32927 19.9057C7.35953 19.9131 7.39034 19.9208 7.42101 19.9266C7.45166 19.9323 7.48182 19.9391 7.51275 19.9391C7.54366 19.9391 7.57337 19.9474 7.60449 19.9474C7.63558 19.9474 7.66922 19.9516 7.7004 19.9516L7.79213 19.9516C7.82329 19.9516 7.85284 19.9474 7.88387 19.9474C7.91488 19.9474 7.94895 19.9397 7.97978 19.9349C8.01059 19.9301 8.04104 19.9247 8.07152 19.9182C8.102 19.9117 8.12901 19.9014 8.15909 19.8932C8.18916 19.885 8.22126 19.8781 8.25082 19.8682C8.28037 19.8583 8.30942 19.8464 8.33839 19.8348C8.36735 19.8233 8.3977 19.8105 8.42596 19.7973C8.45423 19.7841 8.48187 19.7703 8.50936 19.7556C8.53683 19.7409 8.56198 19.726 8.58859 19.7097C8.61518 19.6935 8.64216 19.6774 8.66782 19.6597C8.69345 19.642 8.71826 19.6246 8.74288 19.6055C8.76747 19.5863 8.79027 19.5634 8.81376 19.5429C8.83724 19.5224 8.86236 19.5022 8.88465 19.4804C8.90693 19.4586 8.92617 19.4367 8.9472 19.4137C8.96822 19.3906 8.99004 19.3669 9.00975 19.3428C9.02944 19.3186 9.0498 19.2929 9.06813 19.2677C9.08644 19.2425 9.10133 19.2189 9.11817 19.1927C9.13503 19.1664 9.15285 19.1364 9.16821 19.1093C9.18356 19.0821 9.1961 19.058 9.20991 19.03C9.22369 19.0021 9.23939 18.9712 9.25161 18.9425C9.26378 18.9138 9.2744 18.8842 9.28497 18.8549C9.29553 18.8256 9.30526 18.7972 9.31416 18.7673C9.32303 18.7374 9.33199 18.7059 9.33917 18.6756C9.34634 18.6452 9.35038 18.6145 9.35585 18.5839C9.36131 18.5531 9.36836 18.5231 9.36836 18.4921C9.36836 18.4612 9.38087 18.4315 9.38087 18.4004L9.38087 18.2127C9.38087 18.1816 9.37253 18.152 9.37253 18.121C9.37253 18.09 9.36503 18.06 9.36002 18.0293C9.35499 17.9985 9.35011 17.968 9.34334 17.9375C9.33661 17.9071 9.32678 17.8758 9.31833 17.8458C9.30985 17.8158 9.30343 17.7835 9.29331 17.754C9.28316 17.7246 9.27174 17.6953 9.25995 17.6665C9.24818 17.6376 9.2358 17.6112 9.22242 17.5831C9.20902 17.5549 9.19566 17.527 9.18072 17.4997C9.16575 17.4723 9.14715 17.4469 9.13068 17.4204C9.11421 17.394 9.09858 17.3667 9.08064 17.3412C9.0627 17.3157 9.04577 17.2906 9.02643 17.2662C9.00709 17.2417 8.98457 17.2186 8.96388 17.1953C8.94317 17.1719 8.9233 17.1465 8.90133 17.1244C8.87934 17.1022 8.85781 17.0827 8.83461 17.0618C8.81142 17.041 8.78389 17.0188 8.75956 16.9993C8.73524 16.9798 8.71406 16.9632 8.68867 16.9451C8.66327 16.9269 8.63579 16.9075 8.60944 16.8909C8.58307 16.8742 8.55746 16.8601 8.53021 16.845C8.50294 16.8299 8.47489 16.8169 8.44681 16.8033C8.41873 16.7897 8.38802 16.7736 8.35924 16.7616C8.33045 16.7496 8.3011 16.7385 8.27168 16.7282C8.24225 16.7179 8.21406 16.7119 8.18411 16.7032C8.15415 16.6946 8.12277 16.6851 8.09237 16.6782C8.06197 16.6712 8.03136 16.6667 8.00063 16.6615C7.99556 16.6316 7.98812 16.5998 7.98812 16.5698C7.98812 16.5398 7.97561 16.5082 7.97561 16.478C7.97561 16.4479 7.96727 16.4207 7.96727 16.3905C7.96727 16.3603 7.9631 16.329 7.9631 16.2987C7.9631 16.2685 7.95893 16.2373 7.95893 16.207L7.95893 16.1153C7.95893 16.085 7.9631 16.0579 7.9631 16.0277C7.9631 15.9974 7.97144 15.9661 7.97144 15.936C7.97144 15.9057 7.97978 15.8743 7.97978 15.8442C7.97978 15.8141 7.9839 15.7825 7.98812 15.7525C7.99236 15.7225 7.99965 15.6948 8.0048 15.6649C8.00995 15.635 8.01541 15.607 8.02148 15.5773C8.02755 15.5476 8.03117 15.5151 8.03816 15.4856C8.04512 15.4561 8.05528 15.4273 8.06318 15.398C8.07106 15.3688 8.07942 15.3395 8.0882 15.3105C8.09697 15.2815 8.10355 15.2516 8.11322 15.2229C8.2189 15.2167 8.32722 15.2146 8.4343 15.2146L11.9568 15.2146C12.9523 14.3564 14.1889 13.7703 15.5512 13.5716C17.0617 12.4187 17.8618 10.5506 17.9125 8.65527L17.9125 2.60054C17.9125 2.36361 17.7647 2.15152 17.5372 2.07096ZM7.01236 3.20518L7.08742 3.17599C7.18123 3.14477 7.27653 3.11355 7.37097 3.08425C7.46539 3.05493 7.55951 3.02827 7.65453 3.00085C7.74952 2.97344 7.84671 2.94712 7.94225 2.92163C8.03777 2.89612 8.13395 2.87014 8.22997 2.84657C8.32598 2.82299 8.42122 2.80149 8.5177 2.77985C8.61418 2.7582 8.70854 2.737 8.80542 2.7173C8.90231 2.69759 9.00005 2.68085 9.09732 2.66309C9.19459 2.64533 9.29162 2.62468 9.38921 2.60888C9.48681 2.59308 9.58737 2.58102 9.68528 2.56718C9.78316 2.55334 9.879 2.54153 9.97717 2.52965C10.0753 2.51778 10.1749 2.5062 10.2732 2.49629C10.3716 2.48639 10.4707 2.47503 10.5693 2.4671C10.6679 2.45917 10.7667 2.4522 10.8654 2.44625C10.9641 2.4403 11.0626 2.43374 11.1614 2.43374C11.2602 2.43374 11.3586 2.4254 11.4575 2.4254C11.5563 2.4254 11.6547 2.42123 11.7536 2.42123C11.8524 2.42123 11.9508 2.4254 12.0496 2.4254L12.3457 2.43374L12.6418 2.44625L12.9378 2.4671L13.2339 2.49629L13.5299 2.52965L13.8218 2.56718L14.1137 2.60888L14.4098 2.66309L14.6975 2.7173L14.9894 2.77985L15.2771 2.84657L15.5649 2.92163L15.8526 3.00085L16.1361 3.08425L16.4155 3.17599L16.4906 3.20101L16.4906 7.63364L16.1987 7.57109C16.1987 7.57109 16.0045 7.53181 15.9068 7.51271C15.8091 7.49361 15.7087 7.47207 15.6107 7.45433C15.5128 7.43657 15.417 7.42066 15.3188 7.40429C15.2207 7.38788 15.1212 7.37345 15.0228 7.35842C14.9244 7.34337 14.8253 7.32624 14.7267 7.31255C14.6281 7.29887 14.5294 7.28732 14.4306 7.27502C14.3319 7.26268 14.2335 7.25262 14.1346 7.24166C14.0357 7.23071 13.9376 7.2179 13.8385 7.2083C13.7394 7.19869 13.6416 7.19151 13.5425 7.18328C13.4432 7.17506 13.3415 7.16513 13.2422 7.15827C13.1429 7.1514 13.0455 7.14706 12.9462 7.14159C12.8468 7.13609 12.7454 7.12491 12.6459 7.12491C12.5465 7.12491 12.4493 7.11657 12.3499 7.11657C12.2504 7.11657 12.1491 7.1124 12.0496 7.1124C11.9501 7.1124 11.8489 7.10823 11.7494 7.10823C11.6499 7.10823 11.5528 7.1124 11.4533 7.1124C11.3538 7.1124 11.2526 7.11657 11.1531 7.11657C11.0536 7.11657 10.9565 7.12491 10.857 7.12491C10.7576 7.12491 10.6562 7.13609 10.5568 7.14159C10.4574 7.14706 10.36 7.1514 10.2607 7.15827C10.1614 7.16513 10.0597 7.17506 9.96049 7.18328C9.86131 7.19151 9.76349 7.19869 9.66443 7.2083C9.56536 7.2179 9.46729 7.23071 9.36836 7.24166C9.26944 7.25262 9.17106 7.26268 9.0723 7.27502C8.97352 7.28732 8.87481 7.29887 8.77624 7.31255C8.67766 7.32624 8.57854 7.34337 8.48017 7.35842C8.38178 7.37345 8.28227 7.38788 8.18411 7.40429C8.08594 7.42066 7.99014 7.43657 7.89221 7.45433C7.79429 7.47207 7.69383 7.49361 7.59615 7.51271C7.49847 7.53181 7.40167 7.55064 7.30425 7.57109C7.20686 7.59153 7.01236 7.63364 7.01236 7.63364L7.01236 3.20518ZM7.01236 9.21404L7.01236 9.16817C7.10906 9.14383 7.2072 9.12013 7.30425 9.09728C7.4013 9.07443 7.49875 9.0519 7.59615 9.03056C7.69354 9.00922 7.79032 8.98784 7.88804 8.96801C7.98574 8.94816 8.08193 8.93213 8.17994 8.9138C8.27794 8.89546 8.37773 8.87641 8.476 8.85959C8.57427 8.84275 8.67355 8.82487 8.77207 8.80955C8.87058 8.79424 8.96939 8.78166 9.06813 8.76785C9.16687 8.75405 9.26525 8.74258 9.36419 8.73033C9.46312 8.71805 9.56113 8.70355 9.66026 8.6928C9.75938 8.68204 9.85706 8.67281 9.95632 8.66361C10.0556 8.65436 10.1572 8.64628 10.2566 8.63859C10.356 8.63089 10.4531 8.62389 10.5526 8.61774C10.6521 8.61157 10.7533 8.60568 10.8529 8.60106C10.9524 8.59642 11.0534 8.58855 11.1531 8.58855C11.2527 8.58855 11.3495 8.58438 11.4492 8.58438C11.5489 8.58438 11.6497 8.58021 11.7494 8.58021C11.8491 8.58021 11.9499 8.58438 12.0496 8.58438C12.1493 8.58438 12.2502 8.58855 12.3499 8.58855C12.4495 8.58855 12.5463 8.59648 12.6459 8.60106C12.7455 8.60562 12.8466 8.61163 12.9462 8.61774C13.0457 8.62385 13.1428 8.63095 13.2422 8.63859C13.3416 8.64622 13.4432 8.65444 13.5425 8.66361C13.6417 8.67277 13.7394 8.68211 13.8385 8.6928C13.9376 8.70349 14.0356 8.71394 14.1346 8.72616C14.2335 8.73837 14.3361 8.75413 14.4348 8.76785C14.5336 8.78158 14.6323 8.79428 14.7309 8.80955C14.8294 8.82481 14.9245 8.84281 15.0228 8.85959C15.121 8.87635 15.2208 8.89135 15.3188 8.90963C15.4168 8.92792 15.513 8.94822 15.6107 8.96801C15.7085 8.9878 15.8094 9.00926 15.9068 9.03056C16.0042 9.05184 16.0975 9.07032 16.1945 9.09311C16.2916 9.11589 16.3897 9.13973 16.4864 9.164L16.4864 9.36415C16.4864 9.43522 16.4576 9.53484 16.4406 9.63103C16.423 9.7272 16.4155 9.75755 16.3947 9.83953L16.3947 9.88539C16.3947 9.94605 16.3572 10.0169 16.3363 10.0814L16.2279 10.3024C16.2075 10.3702 16.1716 10.4577 16.1403 10.5359C16.1095 10.6146 16.0844 10.6629 16.0569 10.7235L15.9443 10.9571C15.9173 11.0182 15.884 11.0763 15.8484 11.1322L15.7192 11.3449L15.6024 11.5158L15.5815 11.5409L15.4523 11.716C15.404 11.7804 15.368 11.8251 15.323 11.8786C15.278 11.9321 15.2158 11.9969 15.1604 12.0538L15.0895 12.1288L15.0186 12.208L14.8351 12.3748C14.8081 12.3976 14.7784 12.4157 14.7476 12.4332C14.7183 12.4498 14.6901 12.4702 14.6642 12.4916L14.5099 12.6084L14.4682 12.6417L14.3014 12.7626L14.0929 12.8877L14.0303 12.9253L13.9177 12.9878L13.776 13.0629L13.6884 13.1046L13.5091 13.188L13.3298 13.2547L13.188 13.3047L13.0879 13.3381L12.9086 13.3881L12.7669 13.4257L12.6543 13.4548C12.5538 13.4762 12.4532 13.4865 12.3457 13.5007L12.1956 13.5257C11.8871 13.5651 11.5779 13.5651 11.2698 13.5257L11.1114 13.5007C11.0071 13.5007 10.9041 13.4758 10.7653 13.4507L10.6944 13.4507L10.6193 13.4257C10.5606 13.4257 10.4359 13.3836 10.3525 13.3589L10.0814 13.263L9.92296 13.2047L9.64358 13.0754L9.49346 13.0045L9.34334 12.9169L9.10566 12.771L8.97222 12.6751C8.89262 12.6182 8.81252 12.5568 8.74288 12.4999L8.60527 12.329C8.54272 12.2721 8.47686 12.2187 8.41762 12.158L8.32171 12.0621C8.2492 11.9839 8.17824 11.9014 8.10905 11.8161L8.02982 11.7243C7.96063 11.6352 7.88756 11.5469 7.82549 11.4616L7.76294 11.3699C7.69707 11.2699 7.63577 11.1709 7.58364 11.078L7.53777 10.9696C7.48185 10.863 7.42812 10.7589 7.37931 10.6485L7.33761 10.5526C7.29023 10.4417 7.24626 10.3295 7.20834 10.2148L7.17499 10.1106C7.14373 10.0035 7.11584 9.89487 7.08742 9.78115C7.08742 9.74686 7.07917 9.71312 7.06657 9.68107L7.06657 9.64354C7.04572 9.54403 7.02989 9.43865 7.01236 9.33913L7.01236 9.21404ZM7.68789 17.5831L7.75877 17.5831C7.77038 17.5831 7.78055 17.5872 7.79213 17.5872C7.8037 17.5872 7.81816 17.5914 7.82966 17.5914C7.84117 17.5914 7.85162 17.5997 7.86302 17.5997C7.87443 17.5997 7.8851 17.6039 7.89638 17.6039C7.90766 17.6039 7.9186 17.6164 7.92974 17.6164C7.94088 17.6164 7.95215 17.6248 7.9631 17.6248C7.97406 17.6248 7.98571 17.6328 7.99646 17.6373C8.00719 17.6417 8.01512 17.649 8.02565 17.654C8.03616 17.6589 8.04875 17.661 8.05901 17.6665C8.06927 17.6719 8.07822 17.6813 8.0882 17.6873C8.09818 17.6933 8.10772 17.6975 8.11739 17.704C8.12706 17.7105 8.13723 17.7179 8.14658 17.7248C8.15592 17.7318 8.16677 17.7383 8.17577 17.7457C8.18475 17.7531 8.19215 17.7587 8.20079 17.7665C8.2094 17.7744 8.21758 17.7833 8.22581 17.7916C8.23403 17.7998 8.24303 17.808 8.25082 17.8166C8.25864 17.8252 8.2643 17.8368 8.27168 17.8458C8.27905 17.8548 8.28558 17.8614 8.29252 17.8708C8.29945 17.8801 8.3069 17.8903 8.31337 17.9C8.31983 17.9097 8.32824 17.9192 8.33422 17.9292C8.34019 17.9391 8.34543 17.9481 8.3509 17.9584C8.35638 17.9686 8.36261 17.9812 8.36758 17.9917C8.37257 18.0022 8.37563 18.0102 8.38009 18.0209C8.38455 18.0317 8.3926 18.0433 8.3926 18.0543C8.3926 18.0652 8.40511 18.0765 8.40511 18.0876C8.40511 18.0987 8.41345 18.1097 8.41345 18.121C8.41345 18.1323 8.42179 18.1429 8.42179 18.1543C8.42179 18.1658 8.42596 18.1804 8.42596 18.1919C8.42596 18.2034 8.43013 18.2137 8.43013 18.2252C8.43013 18.2368 8.4343 18.247 8.4343 18.2586L8.4343 18.3295C8.4343 18.3411 8.43013 18.3513 8.43013 18.3628C8.43013 18.3744 8.42596 18.3889 8.42596 18.4004C8.42596 18.4119 8.42179 18.4223 8.42179 18.4337C8.42179 18.4451 8.41345 18.4558 8.41345 18.4671C8.41345 18.4784 8.40511 18.4893 8.40511 18.5005C8.40511 18.5116 8.3926 18.5229 8.3926 18.5338C8.3926 18.5448 8.38455 18.5564 8.38009 18.5672C8.37563 18.5779 8.37257 18.59 8.36758 18.6005C8.36261 18.611 8.35638 18.6195 8.3509 18.6297C8.34543 18.64 8.34019 18.6489 8.33422 18.6589C8.32824 18.6689 8.31983 18.6784 8.31337 18.6881C8.3069 18.6978 8.29945 18.7079 8.29252 18.7173C8.28558 18.7266 8.27905 18.7375 8.27168 18.7465C8.2643 18.7555 8.25864 18.7629 8.25082 18.7715C8.24303 18.7801 8.23403 18.7883 8.22581 18.7965C8.21758 18.8047 8.2094 18.8137 8.20079 18.8215C8.19215 18.8294 8.18475 18.835 8.17577 18.8424C8.16677 18.8498 8.15592 18.8605 8.14658 18.8674C8.13723 18.8743 8.12706 18.8776 8.11739 18.8841C8.10772 18.8905 8.09818 18.8989 8.0882 18.9049C8.07822 18.9109 8.06927 18.9161 8.05901 18.9216C8.04877 18.9271 8.03618 18.9333 8.02565 18.9383C8.01512 18.9433 8.00719 18.9463 7.99646 18.9508C7.98571 18.9552 7.97406 18.9633 7.9631 18.9633C7.95215 18.9633 7.94088 18.9758 7.92974 18.9758C7.9186 18.9758 7.90766 18.9842 7.89638 18.9842C7.8851 18.9842 7.87443 18.9925 7.86302 18.9925C7.85162 18.9925 7.84117 18.9967 7.82966 18.9967C7.81816 18.9967 7.8037 19.0008 7.79213 19.0008C7.78055 19.0008 7.77038 19.005 7.75877 19.005L7.68789 19.005C7.67626 19.005 7.66609 19.0008 7.65453 19.0008C7.64294 19.0008 7.62848 18.9967 7.617 18.9967C7.60549 18.9967 7.59504 18.9925 7.58364 18.9925C7.57221 18.9925 7.56156 18.9842 7.55028 18.9842C7.539 18.9842 7.52804 18.9758 7.51692 18.9758C7.50578 18.9758 7.49451 18.9633 7.48356 18.9633C7.4726 18.9633 7.46095 18.9552 7.4502 18.9508C7.43947 18.9463 7.43154 18.9433 7.42101 18.9383C7.41048 18.9333 7.39789 18.9271 7.38765 18.9216C7.37739 18.9161 7.36844 18.9109 7.35846 18.9049C7.34848 18.8989 7.33892 18.8905 7.32927 18.8841C7.3196 18.8776 7.30943 18.8743 7.30008 18.8674C7.29074 18.8605 7.27989 18.8498 7.27089 18.8424C7.26189 18.835 7.25449 18.8294 7.24587 18.8215C7.23726 18.8137 7.22908 18.8047 7.22085 18.7965C7.21263 18.7883 7.20363 18.7801 7.19583 18.7715C7.18802 18.7629 7.18236 18.7555 7.17499 18.7465C7.16759 18.7375 7.16108 18.7266 7.15414 18.7173C7.14721 18.7079 7.13974 18.6978 7.13329 18.6881C7.12681 18.6784 7.11842 18.6689 7.11244 18.6589C7.10645 18.6489 7.10123 18.64 7.09576 18.6297C7.09028 18.6195 7.08405 18.611 7.07908 18.6005C7.07409 18.59 7.07101 18.5779 7.06657 18.5672C7.06211 18.5564 7.05406 18.5448 7.05406 18.5338C7.05406 18.5229 7.04155 18.5116 7.04155 18.5005C7.04155 18.4893 7.03321 18.4784 7.03321 18.4671C7.03321 18.4558 7.02487 18.4451 7.02487 18.4337C7.02487 18.4223 7.0207 18.4119 7.0207 18.4004C7.0207 18.3889 7.01653 18.3744 7.01653 18.3628C7.01653 18.3513 7.01236 18.3411 7.01236 18.3295L7.01236 18.2586C7.01236 18.247 7.01653 18.2368 7.01653 18.2252C7.01653 18.2137 7.0207 18.2034 7.0207 18.1919C7.0207 18.1804 7.02487 18.1658 7.02487 18.1543C7.02487 18.1429 7.03321 18.1323 7.03321 18.121C7.03321 18.1097 7.04155 18.0987 7.04155 18.0876C7.04155 18.0765 7.05406 18.0652 7.05406 18.0543C7.05406 18.0433 7.06211 18.0317 7.06657 18.0209C7.07101 18.0102 7.07409 18.0022 7.07908 17.9917C7.08405 17.9812 7.09028 17.9686 7.09576 17.9584C7.10123 17.9481 7.10645 17.9391 7.11244 17.9292C7.11842 17.9192 7.12681 17.9097 7.13329 17.9C7.13974 17.8903 7.14721 17.8801 7.15414 17.8708C7.16108 17.8614 7.16759 17.8548 7.17499 17.8458C7.18236 17.8368 7.18802 17.8252 7.19583 17.8166C7.20363 17.808 7.21263 17.7998 7.22085 17.7916C7.22908 17.7833 7.23726 17.7743 7.24587 17.7665C7.25449 17.7587 7.26189 17.7531 7.27089 17.7457C7.27989 17.7383 7.29074 17.7318 7.30008 17.7248C7.30943 17.7179 7.3196 17.7105 7.32927 17.704C7.33892 17.6975 7.34848 17.6933 7.35846 17.6873C7.36844 17.6813 7.37739 17.6719 7.38765 17.6665C7.39789 17.661 7.41048 17.6589 7.42101 17.654C7.43154 17.649 7.43947 17.6417 7.4502 17.6373C7.46095 17.6328 7.4726 17.6248 7.48356 17.6248C7.49451 17.6248 7.50578 17.6164 7.51692 17.6164C7.52804 17.6164 7.539 17.6039 7.55028 17.6039C7.56156 17.6039 7.57221 17.5997 7.58364 17.5997C7.59504 17.5997 7.60549 17.5914 7.617 17.5914C7.62848 17.5914 7.64294 17.5872 7.65453 17.5872C7.66609 17.5872 7.67626 17.5831 7.68789 17.5831Z" fill-rule="evenodd"  fill="#034FA1" ></path><path d="M11.7496 2.89307C12.0595 2.89307 12.3166 3.13036 12.3417 3.43933L12.3417 4.19408L13.1006 4.19408C13.1098 4.19408 13.1257 4.19825 13.1257 4.19825C13.1348 4.19825 13.1458 4.20242 13.1549 4.20242C13.1639 4.20242 13.1799 4.20659 13.1799 4.20659C13.1889 4.20659 13.2091 4.21493 13.2091 4.21493C13.218 4.21493 13.2253 4.22327 13.2341 4.22327C13.2429 4.22327 13.2633 4.23161 13.2633 4.23161C13.2719 4.23161 13.2798 4.23995 13.2883 4.23995C13.2968 4.23995 13.305 4.25246 13.3133 4.25246C13.3216 4.25246 13.3302 4.26055 13.3383 4.26497C13.3464 4.26939 13.3513 4.27268 13.3592 4.27748C13.3671 4.28225 13.3765 4.28899 13.3842 4.29416C13.3919 4.29931 13.3976 4.30534 13.405 4.31084C13.4125 4.31634 13.4229 4.32168 13.4301 4.32752C13.4372 4.33336 13.4441 4.33803 13.4509 4.3442C13.4578 4.35037 13.4652 4.35857 13.4718 4.36505C13.4783 4.37152 13.4822 4.37495 13.4884 4.38173C13.4947 4.38851 13.5034 4.39549 13.5093 4.40258C13.5152 4.40962 13.5204 4.42027 13.526 4.4276C13.5316 4.43493 13.5374 4.44085 13.5427 4.44845C13.5479 4.45602 13.5503 4.46565 13.5552 4.47347C13.5601 4.48129 13.5673 4.48625 13.5718 4.49432C13.5764 4.50236 13.5844 4.51109 13.5844 4.51934C13.5844 4.52758 13.5969 4.53593 13.5969 4.54436C13.5969 4.55279 13.6052 4.56078 13.6052 4.56938C13.6052 4.57797 13.6135 4.58564 13.6135 4.59439C13.6135 4.60313 13.6219 4.61471 13.6219 4.62358C13.6219 4.63244 13.6302 4.6396 13.6302 4.6486C13.6302 4.65756 13.6344 4.66871 13.6344 4.67779C13.6344 4.68687 13.6427 4.69367 13.6427 4.70281C13.6427 4.71194 13.6427 4.7228 13.6427 4.732C13.6427 4.74119 13.6469 4.7478 13.6469 4.75702C13.6469 4.76625 13.6469 4.77699 13.6469 4.78621C13.6469 4.79544 13.6469 4.80616 13.6469 4.8154C13.6469 4.8246 13.6427 4.83122 13.6427 4.84042C13.6427 4.8496 13.6427 4.86047 13.6427 4.86961C13.6427 4.87873 13.6344 4.88555 13.6344 4.89463C13.6344 4.90371 13.6302 4.91484 13.6302 4.92382C13.6302 4.9328 13.6219 4.93996 13.6219 4.94884C13.6219 4.95772 13.6135 4.96927 13.6135 4.97803C13.6135 4.98676 13.6052 4.99445 13.6052 5.00305C13.6052 5.01164 13.5969 5.01964 13.5969 5.02807C13.5969 5.0365 13.5844 5.04482 13.5844 5.05309C13.5844 5.06131 13.5764 5.07004 13.5718 5.07811C13.5673 5.08613 13.5601 5.09529 13.5552 5.10313C13.5503 5.11094 13.5479 5.11638 13.5427 5.12397C13.5374 5.13155 13.5316 5.14164 13.526 5.14899C13.5204 5.15632 13.5152 5.16278 13.5093 5.16984C13.5034 5.17691 13.4947 5.18391 13.4884 5.19069C13.4822 5.19747 13.4783 5.20505 13.4718 5.21154C13.4652 5.21802 13.4578 5.22203 13.4509 5.22822C13.4441 5.23437 13.4372 5.23904 13.4301 5.2449C13.4229 5.25073 13.4125 5.25606 13.405 5.26158C13.3976 5.26708 13.3919 5.27309 13.3842 5.27826C13.3765 5.28339 13.3671 5.29014 13.3592 5.29494C13.3513 5.29973 13.3464 5.30301 13.3383 5.30745C13.3302 5.31185 13.3216 5.31996 13.3133 5.31996C13.305 5.31996 13.2968 5.33247 13.2883 5.33247C13.2798 5.33247 13.2719 5.34081 13.2633 5.34081C13.2546 5.34081 13.2429 5.35332 13.2341 5.35332C13.2253 5.35332 13.218 5.36166 13.2091 5.36166C13.2001 5.36166 13.1889 5.36583 13.1799 5.36583C13.1709 5.36583 13.1639 5.37 13.1549 5.37C13.1458 5.37 13.1348 5.37417 13.1257 5.37417C13.1165 5.37417 13.1098 5.37834 13.1006 5.37834L12.3417 5.37834L12.3417 6.13727C12.3417 6.14647 12.3417 6.15312 12.3417 6.16229C12.3417 6.17143 12.3375 6.18237 12.3375 6.19147C12.3375 6.20056 12.3292 6.20749 12.3292 6.21649C12.3292 6.22549 12.325 6.23676 12.325 6.24568C12.325 6.25458 12.3167 6.26191 12.3167 6.2707C12.3167 6.27948 12.3084 6.28709 12.3084 6.29572C12.3084 6.30436 12.2958 6.31225 12.2958 6.32074C12.2958 6.32921 12.2875 6.33745 12.2875 6.34576C12.2875 6.35407 12.2794 6.36268 12.275 6.37078C12.2706 6.37889 12.2631 6.3879 12.2583 6.3958C12.2535 6.40368 12.251 6.41316 12.2458 6.42082C12.2407 6.42848 12.2346 6.43426 12.2291 6.44167C12.2236 6.44906 12.2183 6.45535 12.2125 6.46252C12.2066 6.46965 12.1978 6.47649 12.1916 6.48337C12.1854 6.49021 12.1814 6.49764 12.1749 6.50422C12.1684 6.51078 12.1609 6.5188 12.1541 6.52507C12.1473 6.53132 12.1403 6.5358 12.1332 6.54175C12.1262 6.54769 12.1197 6.55283 12.1124 6.55843C12.105 6.56403 12.0991 6.56985 12.0915 6.57511C12.0839 6.58036 12.0743 6.58688 12.0665 6.59179C12.0587 6.59667 12.0495 6.59976 12.0415 6.6043C12.0334 6.60882 12.0247 6.61681 12.0165 6.61681C12.0082 6.61681 11.9999 6.62932 11.9914 6.62932C11.983 6.62932 11.975 6.64183 11.9664 6.64183C11.9578 6.64183 11.9501 6.65017 11.9414 6.65017C11.9327 6.65017 11.9252 6.65851 11.9164 6.65851C11.9075 6.65851 11.8962 6.66685 11.8872 6.66685C11.8782 6.66685 11.8712 6.67102 11.8622 6.67102C11.8531 6.67102 11.8421 6.67519 11.833 6.67519C11.8238 6.67519 11.8172 6.67936 11.808 6.67936C11.7988 6.67936 11.788 6.67936 11.7788 6.67936C11.7696 6.67936 11.7588 6.68353 11.7496 6.68353C11.7403 6.68353 11.7338 6.67936 11.7246 6.67936C11.7153 6.67936 11.7046 6.67936 11.6954 6.67936C11.6862 6.67936 11.6795 6.67519 11.6704 6.67519C11.6612 6.67519 11.6502 6.67102 11.6412 6.67102C11.6321 6.67102 11.6251 6.66685 11.6162 6.66685C11.6072 6.66685 11.5958 6.65851 11.587 6.65851C11.5781 6.65851 11.5707 6.65017 11.5619 6.65017C11.5532 6.65017 11.5455 6.64183 11.5369 6.64183C11.5283 6.64183 11.5162 6.62932 11.5077 6.62932C11.4993 6.62932 11.4909 6.61681 11.4827 6.61681C11.4744 6.61681 11.4699 6.60882 11.4619 6.6043C11.4538 6.59976 11.4447 6.59667 11.4368 6.59179C11.429 6.58688 11.4194 6.58036 11.4118 6.57511C11.4042 6.56985 11.3983 6.56403 11.391 6.55843C11.3836 6.55283 11.3772 6.54769 11.3701 6.54175C11.3631 6.5358 11.3561 6.53132 11.3493 6.52507C11.3425 6.5188 11.3349 6.51078 11.3284 6.50422C11.3219 6.49764 11.3137 6.49021 11.3076 6.48337C11.3014 6.47649 11.2967 6.46965 11.2909 6.46252C11.285 6.45535 11.2797 6.44906 11.2742 6.44167C11.2687 6.43426 11.2627 6.42848 11.2575 6.42082C11.2524 6.41316 11.2498 6.40368 11.245 6.3958C11.2402 6.3879 11.2328 6.37889 11.2283 6.37078C11.2239 6.36268 11.2158 6.35407 11.2158 6.34576C11.2158 6.33745 11.2033 6.32921 11.2033 6.32074C11.2033 6.31225 11.195 6.30436 11.195 6.29572C11.195 6.28709 11.1867 6.27948 11.1867 6.2707C11.1867 6.26191 11.1783 6.25458 11.1783 6.24568C11.1783 6.23676 11.17 6.22549 11.17 6.21649C11.17 6.20749 11.1658 6.20056 11.1658 6.19147C11.1658 6.18237 11.1616 6.17143 11.1616 6.16229C11.1616 6.15312 11.1575 6.14647 11.1575 6.13727L11.1575 5.37834L10.4027 5.37834C10.3935 5.37834 10.3827 5.37417 10.3735 5.37417C10.3644 5.37417 10.3576 5.37 10.3485 5.37C10.3394 5.37 10.3283 5.36583 10.3193 5.36583C10.3103 5.36583 10.3032 5.36166 10.2943 5.36166C10.2854 5.36166 10.278 5.35332 10.2693 5.35332C10.2605 5.35332 10.2487 5.34081 10.2401 5.34081C10.2314 5.34081 10.2235 5.33247 10.2151 5.33247C10.2066 5.33247 10.1983 5.31996 10.19 5.31996C10.1817 5.31996 10.1731 5.31185 10.165 5.30745C10.1569 5.30301 10.1479 5.29973 10.14 5.29494C10.1321 5.29014 10.1268 5.28339 10.1192 5.27826C10.1115 5.27309 10.1015 5.26708 10.0941 5.26158C10.0867 5.25606 10.0804 5.25073 10.0733 5.2449C10.0661 5.23904 10.0593 5.23437 10.0524 5.22822C10.0456 5.22203 10.0381 5.21802 10.0316 5.21154C10.025 5.20505 10.0212 5.19745 10.0149 5.19069C10.0087 5.18389 10 5.17691 9.99405 5.16984C9.98813 5.16278 9.98297 5.15632 9.97737 5.14899C9.97175 5.14164 9.96595 5.13155 9.96069 5.12397C9.95544 5.11638 9.95307 5.11094 9.94818 5.10313C9.94328 5.09529 9.93602 5.08613 9.9315 5.07811C9.92696 5.07004 9.91899 5.06131 9.91899 5.05309C9.91899 5.04482 9.90648 5.0365 9.90648 5.02807C9.90648 5.01964 9.89814 5.01164 9.89814 5.00305C9.89814 4.99445 9.88563 4.98676 9.88563 4.97803C9.88563 4.96927 9.87729 4.95772 9.87729 4.94884C9.87729 4.93996 9.87313 4.9328 9.87313 4.92382C9.87313 4.91484 9.86479 4.90371 9.86479 4.89463C9.86479 4.88555 9.86061 4.87873 9.86061 4.86961C9.86061 4.86047 9.85645 4.8496 9.85645 4.84042C9.85645 4.83122 9.85645 4.8246 9.85645 4.8154C9.85645 4.80616 9.85645 4.79544 9.85645 4.78621C9.85645 4.77699 9.85645 4.76625 9.85645 4.75702C9.85645 4.7478 9.85645 4.74119 9.85645 4.732C9.85645 4.7228 9.86061 4.71194 9.86061 4.70281C9.86061 4.69367 9.86479 4.68687 9.86479 4.67779C9.86479 4.66871 9.87313 4.65756 9.87313 4.6486C9.87313 4.6396 9.87729 4.63244 9.87729 4.62358C9.87729 4.61471 9.88563 4.60313 9.88563 4.59439C9.88563 4.58564 9.89814 4.57797 9.89814 4.56938C9.89814 4.56078 9.90648 4.55279 9.90648 4.54436C9.90648 4.53593 9.91899 4.52758 9.91899 4.51934C9.91899 4.51109 9.92698 4.50236 9.9315 4.49432C9.93604 4.48625 9.94328 4.48129 9.94818 4.47347C9.95307 4.46565 9.95544 4.45602 9.96069 4.44845C9.96595 4.44085 9.97175 4.43493 9.97737 4.4276C9.98297 4.42027 9.98813 4.40962 9.99405 4.40258C10 4.39549 10.0087 4.38851 10.0149 4.38173C10.0212 4.37495 10.025 4.37152 10.0316 4.36505C10.0381 4.35857 10.0456 4.35037 10.0524 4.3442C10.0593 4.33803 10.0661 4.33336 10.0733 4.32752C10.0804 4.32168 10.0867 4.31634 10.0941 4.31084C10.1015 4.30534 10.1115 4.29931 10.1192 4.29416C10.1268 4.28899 10.1321 4.28225 10.14 4.27748C10.1479 4.27268 10.1569 4.26939 10.165 4.26497C10.1731 4.26055 10.1817 4.25246 10.19 4.25246C10.1983 4.25246 10.2066 4.23995 10.2151 4.23995C10.2235 4.23995 10.2314 4.23161 10.2401 4.23161C10.2487 4.23161 10.2605 4.22327 10.2693 4.22327C10.278 4.22327 10.2854 4.21493 10.2943 4.21493C10.3032 4.21493 10.3103 4.20659 10.3193 4.20659C10.3283 4.20659 10.3394 4.20242 10.3485 4.20242C10.3576 4.20242 10.3644 4.19825 10.3735 4.19825C10.3827 4.19825 10.3935 4.19408 10.4027 4.19408L11.1575 4.19408L11.1575 3.43933C11.1575 3.43012 11.1616 3.4193 11.1616 3.41014C11.1616 3.40097 11.1658 3.3942 11.1658 3.38512C11.1658 3.37602 11.17 3.36493 11.17 3.35593C11.17 3.34693 11.1783 3.33981 11.1783 3.33091C11.1783 3.32199 11.1867 3.3105 11.1867 3.30172C11.1867 3.29292 11.195 3.28533 11.195 3.2767C11.195 3.26807 11.2033 3.26015 11.2033 3.25168C11.2033 3.24321 11.2158 3.23497 11.2158 3.22666C11.2158 3.21835 11.2239 3.20974 11.2283 3.20164C11.2328 3.19354 11.2402 3.18452 11.245 3.17662C11.2498 3.16872 11.2524 3.15926 11.2575 3.1516C11.2627 3.14395 11.2687 3.13816 11.2742 3.13075C11.2797 3.12334 11.2851 3.11703 11.2909 3.1099C11.2967 3.10276 11.3014 3.09591 11.3076 3.08905C11.3137 3.08217 11.322 3.07476 11.3284 3.0682C11.3349 3.06163 11.3425 3.0536 11.3493 3.04735C11.356 3.04108 11.363 3.03663 11.3701 3.03067C11.3772 3.02474 11.3836 3.0196 11.391 3.01399C11.3983 3.00839 11.4042 3.00257 11.4118 2.99731C11.4194 2.99206 11.429 2.98553 11.4368 2.98063C11.4447 2.97574 11.4538 2.97265 11.4619 2.96813C11.4699 2.9636 11.4745 2.95562 11.4827 2.95562C11.491 2.95562 11.4993 2.94311 11.5077 2.94311C11.5162 2.94311 11.5283 2.9306 11.5369 2.9306C11.5455 2.9306 11.5532 2.92226 11.5619 2.92226C11.5707 2.92226 11.5781 2.91392 11.587 2.91392C11.5958 2.91392 11.6072 2.90558 11.6162 2.90558C11.6251 2.90558 11.6321 2.90141 11.6412 2.90141C11.6502 2.90141 11.6612 2.89724 11.6704 2.89724C11.6795 2.89724 11.6862 2.89307 11.6954 2.89307C11.7046 2.89307 11.7153 2.89307 11.7246 2.89307C11.7338 2.89307 11.7403 2.89307 11.7496 2.89307Z"   fill="#034FA1" ></path><path     fill="#CC4E1D"  d="M16.166 14.1226L20.9651 14.1226C21.4257 14.1226 21.7991 14.4959 21.7991 14.9565L21.7991 14.9565C21.7991 15.4171 21.4257 15.7905 20.9651 15.7905L16.166 15.7905C15.7054 15.7905 15.332 15.4171 15.332 14.9565L15.332 14.9565C15.332 14.4959 15.7054 14.1226 16.166 14.1226Z"></path><path     fill="#CC4E1D"  d="M12.4131 17.4585L20.9656 17.4585C21.4262 17.4585 21.7996 17.8319 21.7996 18.2925L21.7996 18.2925C21.7996 18.7531 21.4262 19.1265 20.9656 19.1265L12.4131 19.1265C11.9525 19.1265 11.5791 18.7531 11.5791 18.2925L11.5791 18.2925C11.5791 17.8319 11.9525 17.4585 12.4131 17.4585Z"></path><path     fill="#CC4E1D"  d="M14.498 20.7944L20.9656 20.7944C21.4262 20.7944 21.7996 21.1678 21.7996 21.6284L21.7996 21.6284C21.7996 22.089 21.4262 22.4624 20.9656 22.4624L14.498 22.4624C14.0374 22.4624 13.6641 22.089 13.6641 21.6284L13.6641 21.6284C13.6641 21.1678 14.0374 20.7944 14.498 20.7944Z"></path></svg>