<svg xmlns="http://www.w3.org/2000/svg" xmlns:xlink="http://www.w3.org/1999/xlink" width="24" height="24" viewBox="0 0 24 24" fill="none"><path     fill="#034FA1"  d="M19.7636 19.6416L19.7636 13.649C19.7636 12.669 18.9693 11.8747 17.9893 11.8747L17.498 11.8747L17.498 8.55136C17.498 7.56936 16.7006 6.77392 15.7206 6.77392L12.416 6.77392L12.416 5.32506L13.7804 5.32506C14.0189 5.32506 14.2122 5.13172 14.2122 4.89322L14.2122 4.89322C14.2122 4.65472 14.0189 4.46138 13.7804 4.46138L12.416 4.46138L12.416 3.46626C12.416 3.20875 12.2073 3 11.9498 3L11.9498 3C11.6923 3 11.4835 3.20875 11.4835 3.46626L11.4835 4.45512L10.1207 4.45512C9.88133 4.45512 9.68729 4.64916 9.68729 4.88853L9.68729 4.88853C9.68729 5.12789 9.88133 5.32193 10.1207 5.32193L11.4835 5.32193L11.4835 6.77079L8.1821 6.77079C7.2001 6.77079 6.40467 7.5651 6.40467 8.5451L6.40467 11.8715L6.01038 11.8715C5.03038 11.8715 4.23607 12.6658 4.23607 13.6458L4.23607 19.6353L3.44436 19.6353C3.19895 19.6353 3 19.8342 3 20.0797L3 20.0797C3 20.3251 3.19895 20.524 3.44436 20.524L20.5553 20.524C20.8007 20.524 20.9997 20.3251 20.9997 20.0797L20.9997 20.0797C20.9997 19.8342 20.8007 19.6353 20.5553 19.6353L19.7636 19.6353L19.7636 19.6416ZM5.15295 19.6416L5.15295 13.649C5.15295 13.159 5.54854 12.7634 6.03854 12.7634L6.40467 12.7634L6.40467 19.6384L5.15295 19.6384L5.15295 19.6416ZM7.29338 19.6416L7.29338 8.54823C7.29338 8.05823 7.68897 7.65951 8.17897 7.65951L15.7206 7.65951C16.2106 7.65951 16.6093 8.05823 16.6093 8.54823L16.6093 19.6416L7.29338 19.6416ZM18.9062 19.6416L17.4949 19.6416L17.4949 12.7634L18.0175 12.7634C18.5075 12.7634 18.9062 13.159 18.9062 13.649L18.9062 19.6416Z"></path><path   fill="rgba(3, 79, 161, 1)"  d="M19.4636 19.6416L19.4636 13.649C19.4636 12.8347 18.8035 12.1747 17.9893 12.1747L17.198 12.1747L17.198 8.55136C17.198 7.73539 16.5365 7.07392 15.7206 7.07392L12.116 7.07392L12.116 5.02506L13.7804 5.02506C13.8532 5.02506 13.9122 4.96603 13.9122 4.89322C13.9122 4.82041 13.8532 4.76138 13.7804 4.76138L12.116 4.76138L12.116 3.46626C12.116 3.37444 12.0416 3.3 11.9498 3.3C11.8579 3.3 11.7835 3.37444 11.7835 3.46626L11.7835 4.75512L10.1207 4.75512C10.047 4.75512 9.98729 4.81485 9.98729 4.88853C9.98729 4.9622 10.047 5.02193 10.1207 5.02193L11.7835 5.02193L11.7835 7.07079L8.1821 7.07079C7.36787 7.07079 6.70467 7.73086 6.70467 8.5451L6.70467 12.1715L6.01038 12.1715C5.19614 12.1715 4.53607 12.8316 4.53607 13.6458L4.53607 19.9353L3.44436 19.9353Q3.38456 19.9353 3.34228 19.9776Q3.3 20.0199 3.3 20.0797C3.3 20.1594 3.36463 20.224 3.44436 20.224L20.5553 20.224C20.635 20.224 20.6997 20.1594 20.6997 20.0797C20.6997 19.9999 20.635 19.9353 20.5553 19.9353L19.7636 19.9353L19.7636 19.6353L20.0636 19.6353L20.0636 19.6416L19.4636 19.6416ZM20.0636 19.6416L19.7636 19.6416L19.4636 19.6416L19.4636 19.3353L20.5553 19.3353C20.9664 19.3353 21.2997 19.6686 21.2997 20.0797C21.2997 20.4908 20.9664 20.824 20.5553 20.824L3.44436 20.824C3.03326 20.824 2.7 20.4908 2.7 20.0797Q2.7 19.7713 2.91802 19.5533Q3.13604 19.3353 3.44436 19.3353L4.23607 19.3353L4.23607 19.6353L3.93607 19.6353L3.93607 13.6458C3.93607 12.5002 4.86477 11.5715 6.01038 11.5715L6.40467 11.5715L6.40467 11.8715L6.10467 11.8715L6.10467 8.5451C6.10467 7.39949 7.03649 6.47079 8.1821 6.47079L11.4835 6.47079L11.4835 6.77079L11.1835 6.77079L11.1835 5.32193L11.4835 5.32193L11.4835 5.62193L10.1207 5.62193C9.71565 5.62193 9.38729 5.29358 9.38729 4.88853C9.38729 4.48348 9.71565 4.15512 10.1207 4.15512L11.4835 4.15512L11.4835 4.45512L11.1835 4.45512L11.1835 3.46626C11.1835 3.04307 11.5266 2.7 11.9498 2.7C12.373 2.7 12.716 3.04307 12.716 3.46626L12.716 4.46138L12.416 4.46138L12.416 4.16138L13.7804 4.16138C14.1846 4.16138 14.5122 4.48903 14.5122 4.89322C14.5122 5.2974 14.1846 5.62506 13.7804 5.62506L12.416 5.62506L12.416 5.32506L12.716 5.32506L12.716 6.77392L12.416 6.77392L12.416 6.47392L15.7206 6.47392C16.8679 6.47392 17.798 7.40402 17.798 8.55136L17.798 11.8747L17.498 11.8747L17.498 11.5747L17.9893 11.5747C19.1349 11.5747 20.0636 12.5034 20.0636 13.649L20.0636 19.6416ZM4.85295 19.6416L4.85295 13.649C4.85295 12.9942 5.38376 12.4634 6.03854 12.4634L6.70467 12.4634L6.70467 19.9384L5.15295 19.9384L5.15295 19.6384L5.45295 19.6384L5.45295 19.6416L4.85295 19.6416ZM5.45295 19.6416L5.15295 19.6416L4.85295 19.6416L4.85295 19.3384L6.40467 19.3384L6.40467 19.6384L6.10467 19.6384L6.10467 12.7634L6.40467 12.7634L6.40467 13.0634L6.03854 13.0634C5.71513 13.0634 5.45295 13.3256 5.45295 13.649L5.45295 19.6416ZM6.99338 19.6416L6.99338 8.54823C6.99338 7.89345 7.52419 7.35951 8.17897 7.35951L15.7206 7.35951C16.3771 7.35951 16.9093 7.89172 16.9093 8.54823L16.9093 19.9416L6.99338 19.9416L6.99338 19.6416ZM7.59338 19.6416L7.29338 19.6416L7.29338 19.3416L16.6093 19.3416L16.6093 19.6416L16.3093 19.6416L16.3093 8.54823C16.3093 8.22309 16.0457 7.95951 15.7206 7.95951L8.17897 7.95951C7.85556 7.95951 7.59338 8.22482 7.59338 8.54823L7.59338 19.6416ZM18.9062 19.9416L17.1949 19.9416L17.1949 12.4634L18.0175 12.4634C18.6722 12.4634 19.2062 12.9942 19.2062 13.649L19.2062 19.9416L18.9062 19.9416ZM18.9062 19.3416L18.9062 19.6416L18.6062 19.6416L18.6062 13.649C18.6062 13.3256 18.3409 13.0634 18.0175 13.0634L17.4949 13.0634L17.4949 12.7634L17.7949 12.7634L17.7949 19.6416L17.4949 19.6416L17.4949 19.3416L18.9062 19.3416Z"></path><path d="M11.1151 10.9415C11.1202 10.9415 11.1257 10.9353 11.1307 10.9353C11.1357 10.9353 11.1415 10.929 11.1464 10.929C11.1512 10.929 11.1541 10.9196 11.1589 10.9196C11.1637 10.9196 11.1699 10.9134 11.1745 10.9134C11.1792 10.9134 11.1825 10.904 11.187 10.904C11.1916 10.904 11.1952 10.8979 11.1995 10.8946C11.2039 10.8913 11.211 10.8887 11.2152 10.8852C11.2194 10.8817 11.2205 10.8764 11.2246 10.8727C11.2286 10.869 11.2332 10.8641 11.2371 10.8602C11.241 10.8563 11.2459 10.8549 11.2496 10.8508C11.2533 10.8467 11.2555 10.8425 11.259 10.8383C11.2625 10.834 11.2682 10.8271 11.2715 10.8226C11.2748 10.8182 11.2809 10.8147 11.2809 10.8101C11.2809 10.8055 11.2903 10.8023 11.2903 10.7976C11.2903 10.7929 11.2966 10.7868 11.2966 10.782C11.2966 10.7771 11.3059 10.7713 11.3059 10.7663C11.3059 10.7613 11.3122 10.7558 11.3122 10.7507C11.3122 10.7456 11.3185 10.7433 11.3185 10.7381C11.3185 10.733 11.3247 10.7278 11.3247 10.7225C11.3247 10.7172 11.3278 10.7091 11.3278 10.7037C11.3278 10.6984 11.3341 10.6935 11.3341 10.6881C11.3341 10.6827 11.3372 10.6779 11.3372 10.6724C11.3372 10.6669 11.3404 10.6623 11.3404 10.6568C11.3404 10.6513 11.3404 10.6436 11.3404 10.638C11.3404 10.6324 11.3435 10.6279 11.3435 10.6224C11.3435 10.6168 11.3435 10.6123 11.3435 10.6067C11.3435 10.6011 11.3435 10.5935 11.3435 10.5879C11.3435 10.5824 11.3435 10.5779 11.3435 10.5723C11.3435 10.5667 11.3404 10.5622 11.3404 10.5566C11.3404 10.5511 11.3372 10.5434 11.3372 10.5379C11.3372 10.5324 11.3341 10.5277 11.3341 10.5222C11.3341 10.5168 11.331 10.512 11.331 10.5066C11.331 10.5004 11.3247 10.4939 11.3247 10.4878C11.3247 10.4817 11.3185 10.475 11.3185 10.469C11.3185 10.463 11.3122 10.4593 11.3122 10.4534C11.3122 10.4475 11.3059 10.4403 11.3059 10.4346C11.3059 10.4289 11.2966 10.4245 11.2966 10.419C11.2966 10.4134 11.2905 10.4056 11.2872 10.4002C11.2839 10.3948 11.2814 10.3898 11.2778 10.3845C11.2742 10.3793 11.2691 10.3739 11.2653 10.3689C11.2614 10.3639 11.2568 10.3612 11.2527 10.3564C11.2487 10.3516 11.2445 10.3453 11.2402 10.3407C11.2359 10.3361 11.2323 10.3326 11.2277 10.3282C11.2232 10.3239 11.2199 10.3198 11.2152 10.3157C11.2104 10.3116 11.2045 10.307 11.1995 10.3032C11.1946 10.2993 11.1891 10.2942 11.1839 10.2907C11.1788 10.2871 11.1736 10.2846 11.1683 10.2813C11.1629 10.278 11.1581 10.2719 11.1526 10.2719C11.14 10.2652 11.1252 10.2582 11.1119 10.2531C11.0986 10.248 11.085 10.244 11.0712 10.2406C11.0574 10.2371 11.0447 10.2343 11.0306 10.2343C11.0165 10.2343 11.001 10.2312 10.9868 10.2312C10.9762 10.2312 10.966 10.2312 10.9555 10.2312C10.9449 10.2312 10.9346 10.2375 10.9242 10.2375C10.9138 10.2375 10.9031 10.2437 10.8929 10.2437C10.8827 10.2437 10.8746 10.2493 10.8647 10.2531C10.8288 10.2659 10.7937 10.2796 10.7583 10.2938C10.7229 10.3079 10.6868 10.3221 10.6519 10.3376C10.6171 10.3531 10.5829 10.3708 10.5487 10.3877C10.5144 10.4045 10.479 10.4227 10.4454 10.4409C10.4118 10.459 10.3782 10.4778 10.3453 10.4972C10.3123 10.5166 10.2805 10.536 10.2482 10.5566C10.216 10.5773 10.1858 10.5973 10.1544 10.6192C10.1229 10.6411 10.0911 10.665 10.0605 10.6881C10.0299 10.7112 9.99949 10.7358 9.96974 10.7601C9.93999 10.7843 9.91097 10.8066 9.88212 10.832C9.85327 10.8574 9.82553 10.8838 9.79763 10.9103C9.76973 10.9368 9.74005 10.9641 9.71314 10.9916C9.68622 11.0192 9.66079 11.0475 9.6349 11.0761C9.60901 11.1047 9.58463 11.1342 9.5598 11.1637C9.53497 11.1933 9.50843 11.224 9.4847 11.2545C9.46096 11.285 9.43846 11.3138 9.41585 11.3452C9.39325 11.3766 9.37159 11.41 9.35014 11.4422C9.32869 11.4745 9.30781 11.5062 9.28755 11.5392C9.26729 11.5723 9.24714 11.6056 9.2281 11.6394C9.20906 11.6732 9.19269 11.7081 9.1749 11.7426C9.1571 11.7772 9.13822 11.8107 9.1217 11.8459C9.10518 11.8811 9.09 11.9165 9.07476 11.9523C9.05953 11.9881 9.04487 12.0255 9.03095 12.0618C9.01703 12.0982 9.00285 12.1345 8.99027 12.1714C8.97769 12.2082 8.96708 12.2467 8.95585 12.284C8.94462 12.3213 8.93441 12.3589 8.92456 12.3967C8.91469 12.4344 8.90487 12.4712 8.89639 12.5093C8.88791 12.5474 8.88157 12.5867 8.87449 12.6251C8.8674 12.6635 8.85827 12.7023 8.85258 12.7409C8.8469 12.7795 8.84433 12.8179 8.84007 12.8567C8.83579 12.8955 8.82755 12.9335 8.82755 12.9725C8.82755 13.0114 8.82129 13.0492 8.82129 13.0882C8.82129 13.0942 8.82129 13.101 8.82129 13.107C8.82129 13.113 8.82129 13.1198 8.82129 13.1258C8.82129 13.1318 8.82129 13.1386 8.82129 13.1446C8.82129 13.1506 8.82442 13.1543 8.82442 13.1602C8.82442 13.1662 8.82755 13.1731 8.82755 13.179C8.82755 13.1849 8.83068 13.1919 8.83068 13.1978C8.83068 13.2036 8.83694 13.2077 8.83694 13.2134C8.83694 13.2192 8.84007 13.2265 8.84007 13.2322C8.84007 13.2379 8.84632 13.2423 8.84632 13.2478C8.84632 13.2534 8.85571 13.258 8.85571 13.2635C8.85571 13.2689 8.86197 13.2738 8.86197 13.2791C8.86197 13.2844 8.87136 13.2896 8.87136 13.2948C8.87136 13.2999 8.87754 13.3054 8.88075 13.3104C8.88395 13.3154 8.88669 13.3212 8.89013 13.3261C8.89357 13.3309 8.89585 13.337 8.89952 13.3417C8.9032 13.3464 8.90815 13.3498 8.91204 13.3542C8.91593 13.3587 8.92046 13.3625 8.92456 13.3667C8.92865 13.371 8.93278 13.3752 8.93707 13.3793C8.94137 13.3833 8.9451 13.388 8.94959 13.3918C8.95407 13.3956 8.95744 13.4007 8.96211 13.4043C8.96677 13.4079 8.97292 13.4103 8.97775 13.4137C8.98258 13.4171 8.98842 13.4231 8.9934 13.4231C8.99839 13.4231 9.00392 13.4325 9.00905 13.4325C9.01418 13.4325 9.01944 13.4387 9.02469 13.4387C9.02995 13.4387 9.03496 13.4481 9.04034 13.4481C9.04572 13.4481 9.05051 13.4544 9.05599 13.4544C9.06147 13.4544 9.06606 13.4606 9.07163 13.4606C9.0772 13.4606 9.08163 13.4638 9.08728 13.4638C9.09293 13.4638 9.10034 13.47 9.10605 13.47C9.11177 13.47 9.11593 13.4731 9.1217 13.4731C9.12747 13.4731 9.13467 13.4731 9.14048 13.4731C9.14628 13.4731 9.15343 13.4763 9.15925 13.4763C9.16508 13.4763 9.16907 13.4763 9.1749 13.4763C9.18074 13.4763 9.18785 13.4763 9.19367 13.4763C9.1995 13.4763 9.20351 13.4763 9.20932 13.4763C9.21513 13.4763 9.22231 13.4731 9.2281 13.4731C9.23387 13.4731 9.23801 13.47 9.24374 13.47C9.24947 13.47 9.25685 13.4669 9.26252 13.4669C9.26818 13.4669 9.27257 13.4606 9.27816 13.4606C9.28376 13.4606 9.29143 13.4544 9.29694 13.4544C9.30244 13.4544 9.30717 13.4481 9.31259 13.4481C9.31799 13.4481 9.32295 13.4419 9.32823 13.4419C9.33352 13.4419 9.33871 13.4356 9.34388 13.4356C9.34905 13.4356 9.3545 13.4262 9.35953 13.4262C9.36456 13.4262 9.3703 13.4201 9.37517 13.4168C9.38004 13.4135 9.38298 13.4078 9.38769 13.4043C9.3924 13.4008 9.3988 13.3987 9.40334 13.3949C9.40787 13.3911 9.41151 13.3864 9.41585 13.3824C9.42021 13.3784 9.42422 13.3741 9.42837 13.3699C9.43252 13.3657 9.43694 13.3618 9.44089 13.3574C9.44484 13.3529 9.44968 13.3495 9.45341 13.3448C9.45714 13.3402 9.45929 13.334 9.46279 13.3292C9.4663 13.3244 9.4689 13.3217 9.47218 13.3167C9.47545 13.3117 9.48157 13.3062 9.48157 13.301C9.48157 13.2959 9.49096 13.2907 9.49096 13.2854C9.49096 13.2801 9.50034 13.2752 9.50034 13.2697C9.50034 13.2643 9.5066 13.2565 9.5066 13.251C9.5066 13.2454 9.51286 13.241 9.51286 13.2353C9.51286 13.2297 9.51912 13.2254 9.51912 13.2197C9.51912 13.2139 9.52225 13.2067 9.52225 13.2009C9.52225 13.1951 9.52851 13.188 9.52851 13.1821C9.52851 13.1762 9.53164 13.1724 9.53164 13.1665C9.53164 13.1606 9.53164 13.1537 9.53164 13.1477C9.53164 13.1417 9.53477 13.1349 9.53477 13.1289C9.53477 13.0987 9.5379 13.0684 9.5379 13.0382C9.5379 13.008 9.54416 12.9807 9.54416 12.9506C9.54416 12.9205 9.55251 12.8898 9.55667 12.8598C9.56083 12.8299 9.56392 12.7988 9.56919 12.7691C9.57446 12.7393 9.58159 12.711 9.58797 12.6814C9.59433 12.6519 9.6024 12.62 9.60987 12.5907C9.61733 12.5614 9.62322 12.5351 9.63177 12.5062C9.64033 12.4772 9.65032 12.4472 9.65994 12.4186C9.66956 12.39 9.68055 12.3623 9.69123 12.3341C9.70191 12.3059 9.7108 12.2773 9.72252 12.2496C9.73424 12.2218 9.74734 12.1955 9.76008 12.1682C9.77281 12.141 9.78701 12.1136 9.80076 12.0869C9.8145 12.0601 9.82671 12.0317 9.84144 12.0055C9.85617 11.9793 9.87268 11.9529 9.88838 11.9273C9.90407 11.9017 9.92181 11.8771 9.93845 11.8522C9.95508 11.8272 9.97097 11.8045 9.98851 11.7802C10.0061 11.7559 10.0233 11.7318 10.0417 11.7082C10.0602 11.6847 10.0787 11.6591 10.098 11.6363C10.1173 11.6134 10.1374 11.5926 10.1575 11.5705C10.1776 11.5485 10.1991 11.5261 10.2201 11.5048C10.241 11.4836 10.261 11.4627 10.2827 11.4422C10.3044 11.4218 10.3259 11.4023 10.3484 11.3828C10.3708 11.3632 10.3941 11.3451 10.4172 11.3265C10.4404 11.3078 10.4654 11.2879 10.4892 11.2701C10.513 11.2524 10.5367 11.2368 10.5612 11.2201C10.5857 11.2033 10.6112 11.1858 10.6363 11.17C10.6614 11.1542 10.6857 11.1378 10.7114 11.123C10.737 11.1082 10.7634 11.0961 10.7896 11.0824C10.8158 11.0686 10.8412 11.0544 10.8678 11.0417C10.8945 11.029 10.9221 11.0158 10.9492 11.0041C10.9764 10.9925 11.003 10.9834 11.0306 10.9728C11.0581 10.9622 11.0871 10.9511 11.1151 10.9415ZM12.0069 16.0173C12.0069 16.0125 12.0006 16.0095 12.0006 16.0047C12.0006 16 11.9975 15.9937 11.9975 15.9891C11.9975 15.9844 11.9913 15.9811 11.9913 15.9766C11.9913 15.972 11.985 15.9685 11.985 15.9641C11.985 15.9596 11.9787 15.9528 11.9787 15.9484C11.9787 15.944 11.9725 15.9402 11.9725 15.9359C11.9725 15.9316 11.9631 15.9275 11.9631 15.9234C11.9631 15.9192 11.9537 15.9149 11.9537 15.9109C11.9537 15.9068 11.9474 15.9023 11.9474 15.8983C11.9474 15.8944 11.9412 15.8928 11.9381 15.889C11.9349 15.8851 11.932 15.8801 11.9287 15.8764C11.9254 15.8728 11.9196 15.8706 11.9162 15.8671C11.9127 15.8635 11.9104 15.8579 11.9068 15.8545C11.9032 15.8512 11.898 15.8484 11.8943 15.8451C11.8905 15.8419 11.8887 15.8358 11.8849 15.8358C11.881 15.8358 11.8763 15.8264 11.8723 15.8264C11.8684 15.8264 11.8639 15.8201 11.8598 15.8201C11.8557 15.8201 11.8515 15.8107 11.8473 15.8107C11.8431 15.8107 11.8391 15.8045 11.8348 15.8045C11.8305 15.8045 11.8266 15.7982 11.8223 15.7982C11.8179 15.7982 11.8142 15.7919 11.8098 15.7919C11.8053 15.7919 11.8018 15.7857 11.7972 15.7857C11.7927 15.7857 11.7862 15.7794 11.7816 15.7794C11.777 15.7794 11.7737 15.7763 11.7691 15.7763C11.7644 15.7763 11.7581 15.77 11.7534 15.77C11.7487 15.77 11.7457 15.7669 11.7409 15.7669C11.7362 15.7669 11.7301 15.7638 11.7253 15.7638C11.7205 15.7638 11.7144 15.7638 11.7096 15.7638C11.7048 15.7638 11.702 15.7607 11.6971 15.7607C11.6923 15.7607 11.6863 15.7607 11.6815 15.7607C11.6766 15.7607 11.6738 15.7607 11.6689 15.7607C11.6641 15.7607 11.6581 15.7607 11.6533 15.7607C11.6326 15.7607 11.6114 15.7607 11.5907 15.7607C11.57 15.7607 11.5488 15.7607 11.5281 15.7607C11.5074 15.7607 11.4862 15.7607 11.4655 15.7607C11.4448 15.7607 11.4236 15.7544 11.403 15.7544C11.3823 15.7544 11.3641 15.7481 11.3435 15.7481C11.3229 15.7481 11.3014 15.7419 11.2809 15.7387C11.2604 15.7356 11.2387 15.7332 11.2183 15.7294C11.1979 15.7255 11.1791 15.7213 11.1589 15.7168C11.1386 15.7124 11.1195 15.7095 11.0994 15.7043C11.0793 15.6992 11.0568 15.6913 11.0368 15.6856C11.0169 15.6798 10.9971 15.6732 10.9774 15.6668C10.9576 15.6603 10.9375 15.6551 10.9179 15.648C10.8984 15.6409 10.8809 15.6338 10.8616 15.6261C10.8423 15.6184 10.8212 15.6094 10.8021 15.6011C10.783 15.5927 10.7646 15.585 10.7458 15.576C10.727 15.5671 10.708 15.5574 10.6895 15.5479C10.6709 15.5383 10.6545 15.5299 10.6363 15.5197C10.6181 15.5095 10.5978 15.4992 10.5799 15.4884C10.5621 15.4776 10.5443 15.4653 10.5268 15.454C10.5092 15.4426 10.4939 15.4315 10.4767 15.4196C10.4595 15.4077 10.4403 15.3945 10.4235 15.382C10.4067 15.3695 10.393 15.3575 10.3765 15.3445C10.3601 15.3315 10.3425 15.3173 10.3265 15.3038C10.3105 15.2902 10.2951 15.2771 10.2795 15.2631C10.2639 15.249 10.2477 15.2338 10.2326 15.2193C10.2175 15.2047 10.2035 15.1905 10.1888 15.1755C10.1741 15.1604 10.1592 15.1441 10.145 15.1285C10.1308 15.113 10.118 15.0976 10.1043 15.0816C10.0906 15.0656 10.0768 15.0511 10.0636 15.0347C10.0504 15.0182 10.0357 15.0014 10.0229 14.9846C10.0102 14.9678 9.99758 14.9486 9.98538 14.9314C9.97319 14.9142 9.96262 14.899 9.95096 14.8813L9.9447 14.8719L9.93845 14.8625L9.93219 14.8532L9.9228 14.8438L9.91654 14.8375L9.91028 14.8281L9.90089 14.8187L9.89464 14.8125L9.88525 14.8062L9.87586 14.7968L9.8696 14.7906L9.86021 14.7843L9.85083 14.7781L9.84144 14.7718C9.84144 14.7718 9.83521 14.7655 9.83205 14.7655C9.82889 14.7655 9.82588 14.7593 9.82266 14.7593C9.81945 14.7593 9.81654 14.7562 9.81327 14.7562C9.81 14.7562 9.8072 14.7499 9.80389 14.7499C9.80057 14.7499 9.79473 14.7468 9.79137 14.7468C9.78801 14.7468 9.78538 14.7405 9.78198 14.7405C9.77858 14.7405 9.77603 14.7374 9.77259 14.7374C9.76915 14.7374 9.76668 14.7342 9.7632 14.7342C9.75973 14.7342 9.7542 14.7311 9.75069 14.7311C9.74718 14.7311 9.74484 14.728 9.7413 14.728C9.73776 14.728 9.73235 14.7249 9.72878 14.7249C9.72522 14.7249 9.72298 14.7249 9.71939 14.7249C9.71581 14.7249 9.71361 14.7217 9.71001 14.7217C9.70641 14.7217 9.70111 14.7217 9.69749 14.7217C9.69387 14.7217 9.69174 14.7186 9.6881 14.7186C9.68447 14.7186 9.67922 14.7186 9.67558 14.7186C9.67195 14.7186 9.66984 14.7186 9.6662 14.7186C9.66256 14.7186 9.65733 14.7186 9.65368 14.7186C9.64974 14.7186 9.6451 14.7186 9.64116 14.7186C9.63723 14.7186 9.63571 14.7186 9.63177 14.7186C9.62784 14.7186 9.62318 14.7186 9.61926 14.7186C9.61534 14.7186 9.61065 14.7217 9.60674 14.7217C9.60283 14.7217 9.5981 14.7217 9.59422 14.7217C9.59034 14.7217 9.58869 14.7249 9.58484 14.7249C9.58098 14.7249 9.57615 14.728 9.57232 14.728C9.56849 14.728 9.5636 14.7311 9.5598 14.7311C9.556 14.7311 9.55417 14.7342 9.55041 14.7342C9.54666 14.7342 9.54162 14.7374 9.5379 14.7374C9.53418 14.7374 9.53218 14.7436 9.52851 14.7436C9.52484 14.7436 9.51962 14.7468 9.51599 14.7468C9.51237 14.7468 9.51017 14.753 9.5066 14.753C9.50303 14.753 9.4976 14.7562 9.49409 14.7562C9.49058 14.7562 9.48815 14.7624 9.4847 14.7624C9.48125 14.7624 9.47869 14.7687 9.47531 14.7687C9.47193 14.7687 9.4661 14.7749 9.46279 14.7749C9.45948 14.7749 9.45664 14.7812 9.45341 14.7812C9.45016 14.7812 9.44718 14.7906 9.44402 14.7906C9.44086 14.7906 9.43463 14.7968 9.43463 14.7968L9.42524 14.8031L9.41585 14.8125L9.4096 14.8219L9.40021 14.8313L9.39082 14.8375L9.38456 14.8469C9.38456 14.8469 9.3783 14.8531 9.3783 14.8563C9.3783 14.8595 9.36891 14.8624 9.36891 14.8657C9.36891 14.869 9.36266 14.8748 9.36266 14.8782C9.36266 14.8816 9.3564 14.8842 9.3564 14.8876C9.3564 14.891 9.35014 14.8935 9.35014 14.897C9.35014 14.9005 9.34388 14.9059 9.34388 14.9095C9.34388 14.9131 9.34075 14.9152 9.34075 14.9189C9.34075 14.9225 9.33449 14.9277 9.33449 14.9314C9.33449 14.9351 9.32823 14.937 9.32823 14.9408C9.32823 14.9445 9.3251 14.9495 9.3251 14.9533C9.3251 14.9571 9.32198 14.9589 9.32198 14.9627C9.32198 14.9665 9.31885 14.9713 9.31885 14.9752C9.31885 14.9791 9.31572 14.9838 9.31572 14.9877C9.31572 14.9916 9.31259 14.9963 9.31259 15.0002C9.31259 15.0042 9.30946 15.0056 9.30946 15.0096C9.30946 15.0136 9.30633 15.0181 9.30633 15.0221C9.30633 15.0261 9.30633 15.0306 9.30633 15.0347C9.30633 15.0387 9.3032 15.0431 9.3032 15.0472C9.3032 15.0512 9.3032 15.0557 9.3032 15.0597C9.3032 15.0637 9.3032 15.0682 9.3032 15.0722C9.3032 15.0763 9.3032 15.0807 9.3032 15.0847C9.3032 15.0888 9.3032 15.0901 9.3032 15.0941C9.3032 15.0982 9.3032 15.1026 9.3032 15.1066C9.3032 15.1107 9.3032 15.1151 9.3032 15.1192C9.3032 15.1232 9.30633 15.1277 9.30633 15.1317C9.30633 15.1357 9.30946 15.1402 9.30946 15.1442C9.30946 15.1482 9.30946 15.1527 9.30946 15.1567C9.30946 15.1607 9.31259 15.1622 9.31259 15.1661C9.31259 15.17 9.31572 15.1747 9.31572 15.1786C9.31572 15.1825 9.31885 15.1873 9.31885 15.1911C9.31885 15.195 9.32198 15.1998 9.32198 15.2036C9.32198 15.2075 9.32823 15.2093 9.32823 15.213C9.32823 15.2168 9.33136 15.2218 9.33136 15.2255C9.33136 15.2293 9.33762 15.2313 9.33762 15.2349C9.33762 15.2386 9.34075 15.2439 9.34075 15.2475C9.34075 15.2511 9.34701 15.2533 9.34701 15.2568C9.34701 15.2604 9.35327 15.2659 9.35327 15.2694C9.35327 15.2728 9.35953 15.2754 9.35953 15.2787C9.37522 15.303 9.39002 15.327 9.40647 15.3507C9.42291 15.3744 9.44249 15.3964 9.45966 15.4196C9.47684 15.4427 9.49184 15.4659 9.50973 15.4884C9.52762 15.5109 9.54748 15.5353 9.56606 15.5573C9.58464 15.5792 9.60313 15.5985 9.62239 15.6198C9.64164 15.6412 9.66193 15.6617 9.68184 15.6824C9.70175 15.7031 9.72075 15.725 9.7413 15.745C9.76185 15.765 9.78273 15.7851 9.80389 15.8045C9.82505 15.8238 9.84785 15.8422 9.8696 15.8608C9.89135 15.8794 9.91299 15.8961 9.93532 15.914C9.95764 15.9319 9.98129 15.9501 10.0042 15.9672C10.027 15.9843 10.0496 16.0009 10.073 16.0173C10.0964 16.0336 10.118 16.0517 10.1418 16.0673C10.1657 16.0829 10.1895 16.0963 10.2138 16.1111C10.2382 16.1259 10.2641 16.141 10.2889 16.1549C10.3137 16.1689 10.3388 16.1825 10.364 16.1956C10.3893 16.2088 10.4135 16.2209 10.4391 16.2332C10.4648 16.2455 10.4914 16.2593 10.5174 16.2707C10.5434 16.2822 10.5693 16.2914 10.5956 16.302C10.6219 16.3126 10.6503 16.3236 10.677 16.3333C10.7036 16.343 10.7282 16.3526 10.7552 16.3615C10.7821 16.3703 10.8093 16.3786 10.8366 16.3865C10.8638 16.3945 10.8936 16.4014 10.921 16.4084C10.9485 16.4155 10.9747 16.4211 11.0024 16.4272C11.0301 16.4333 11.0591 16.4407 11.0869 16.446C11.1147 16.4512 11.1403 16.4542 11.1683 16.4585C11.1962 16.4628 11.2246 16.4676 11.2527 16.471C11.2808 16.4744 11.309 16.4804 11.3372 16.4804C11.3654 16.4804 11.3935 16.4866 11.4217 16.4866C11.45 16.4866 11.4779 16.4898 11.5062 16.4898C11.5345 16.4898 11.5624 16.4898 11.5907 16.4898C11.619 16.4898 11.6501 16.4866 11.6783 16.4866C11.6851 16.4866 11.6904 16.4866 11.6971 16.4866C11.7038 16.4866 11.7092 16.4835 11.7159 16.4835C11.7225 16.4835 11.7312 16.4804 11.7378 16.4804C11.7444 16.4804 11.75 16.4741 11.7566 16.4741C11.7631 16.4741 11.7689 16.4679 11.7753 16.4679C11.7817 16.4679 11.7878 16.4616 11.7941 16.4616C11.8004 16.4616 11.8068 16.4522 11.8129 16.4522C11.819 16.4522 11.8257 16.4492 11.8317 16.446C11.8376 16.4427 11.8447 16.4371 11.8504 16.4335C11.8562 16.4298 11.8606 16.428 11.8661 16.4241C11.8716 16.4201 11.8764 16.4158 11.8817 16.4115C11.887 16.4073 11.8923 16.4005 11.8974 16.3959C11.9024 16.3913 11.9082 16.3883 11.913 16.3834C11.9178 16.3785 11.921 16.3729 11.9255 16.3677C11.9301 16.3626 11.937 16.3575 11.9412 16.3521C11.9454 16.3467 11.9498 16.3421 11.9537 16.3364C11.9576 16.3308 11.9595 16.3235 11.9631 16.3177C11.9667 16.3118 11.9692 16.305 11.9725 16.2989C11.9758 16.2928 11.9819 16.2895 11.9819 16.2832C11.9819 16.277 11.9913 16.2709 11.9913 16.2645C11.9913 16.2581 11.9975 16.2491 11.9975 16.2426C11.9975 16.236 12.0038 16.2305 12.0038 16.2238C12.0038 16.2171 12.01 16.2118 12.01 16.205C12.01 16.1982 12.0132 16.19 12.0132 16.1831C12.0132 16.1763 12.0163 16.1681 12.0163 16.1612C12.0163 16.1543 12.0163 16.1494 12.0163 16.1424C12.0163 16.1355 12.0194 16.1275 12.0194 16.1205C12.0194 16.1136 12.0163 16.1087 12.0163 16.1017C12.0163 16.0948 12.0163 16.0867 12.0163 16.0798C12.0163 16.073 12.0132 16.0648 12.0132 16.0579C12.0132 16.0511 12.0069 16.0459 12.0069 16.0392C12.0069 16.0324 12.0038 16.0239 12.0038 16.0173L12.0069 16.0173ZM11.6408 12.2652C11.6445 12.2685 11.6463 12.2746 11.6502 12.2746C11.654 12.2746 11.6587 12.284 11.6627 12.284C11.6667 12.284 11.6711 12.2934 11.6752 12.2934C11.6793 12.2934 11.6835 12.2997 11.6877 12.2997C11.6919 12.2997 11.6959 12.309 11.7002 12.309C11.7045 12.309 11.7084 12.3153 11.7128 12.3153C11.7171 12.3153 11.7208 12.3216 11.7253 12.3216C11.7297 12.3216 11.7364 12.3278 11.7409 12.3278C11.7455 12.3278 11.7488 12.331 11.7534 12.331C11.7581 12.331 11.7644 12.3372 11.7691 12.3372C11.7738 12.3372 11.7769 12.3403 11.7816 12.3403C11.7863 12.3403 11.7925 12.3435 11.7972 12.3435C11.802 12.3435 11.8049 12.3466 11.8098 12.3466C11.8146 12.3466 11.8206 12.3497 11.8254 12.3497C11.8302 12.3497 11.8362 12.3497 11.8411 12.3497C11.8459 12.3497 11.8487 12.3497 11.8536 12.3497C11.8584 12.3497 11.8643 12.3497 11.8692 12.3497C11.8741 12.3497 11.88 12.3497 11.8849 12.3497C11.8897 12.3497 11.8925 12.3497 11.8974 12.3497C11.9022 12.3497 11.9082 12.3466 11.913 12.3466C11.9179 12.3466 11.9207 12.3466 11.9255 12.3466C11.9304 12.3466 11.9364 12.3435 11.9412 12.3435C11.946 12.3435 11.9521 12.3403 11.9568 12.3403C11.9616 12.3403 11.9647 12.3341 11.9694 12.3341C11.974 12.3341 11.9804 12.331 11.985 12.331C11.9896 12.331 11.993 12.3247 11.9975 12.3247C12.0021 12.3247 12.0056 12.3184 12.01 12.3184C12.0145 12.3184 12.0182 12.3122 12.0226 12.3122C12.0269 12.3122 12.0339 12.3059 12.0382 12.3059C12.0425 12.3059 12.0465 12.2997 12.0507 12.2997C12.0549 12.2997 12.0592 12.2903 12.0632 12.2903C12.0673 12.2903 12.0687 12.284 12.0726 12.284C12.0891 12.271 12.1058 12.2558 12.1227 12.2433C12.1395 12.2309 12.1587 12.2208 12.1759 12.2089C12.1931 12.197 12.2084 12.1827 12.226 12.1714C12.2435 12.16 12.2612 12.1508 12.2792 12.1401C12.2971 12.1293 12.3172 12.119 12.3355 12.1088C12.3537 12.0986 12.3701 12.0871 12.3887 12.0775C12.4072 12.0679 12.4262 12.0583 12.445 12.0493C12.4638 12.0403 12.4854 12.0327 12.5045 12.0243C12.5236 12.0159 12.5414 12.007 12.5608 11.9992C12.5801 11.9915 12.6007 11.9845 12.6202 11.9773C12.6398 11.9702 12.6568 11.9651 12.6766 11.9586C12.6964 11.9521 12.7192 11.9456 12.7392 11.9398C12.7591 11.934 12.7785 11.9293 12.7986 11.9241C12.8188 11.919 12.8378 11.913 12.8581 11.9085C12.8784 11.904 12.9002 11.8998 12.9207 11.896C12.9411 11.8921 12.9596 11.8867 12.9801 11.8835C13.0006 11.8803 13.0221 11.8772 13.0427 11.8772C13.0633 11.8772 13.0846 11.8709 13.1053 11.8709C13.126 11.8709 13.1471 11.8647 13.1679 11.8647C13.1886 11.8647 13.2097 11.8616 13.2305 11.8616C13.2512 11.8616 13.2692 11.8616 13.2899 11.8616C13.3107 11.8616 13.3318 11.8647 13.3525 11.8647C13.3732 11.8647 13.3944 11.8678 13.4151 11.8678C13.4358 11.8678 13.457 11.8741 13.4777 11.8741C13.4983 11.8741 13.5197 11.8803 13.5403 11.8803C13.5608 11.8803 13.5792 11.8862 13.5997 11.8897C13.6202 11.8932 13.6419 11.8981 13.6623 11.9022C13.6827 11.9064 13.7015 11.9099 13.7218 11.9148C13.742 11.9196 13.7643 11.9249 13.7843 11.9304C13.8044 11.9359 13.8239 11.9399 13.8438 11.9461C13.8637 11.9522 13.8836 11.9612 13.9033 11.968C13.9229 11.9747 13.9432 11.9793 13.9627 11.9867C13.9666 11.9867 13.9682 11.993 13.9721 11.993C13.976 11.993 13.9806 11.9961 13.9846 11.9961C13.9886 11.9961 13.9931 11.9992 13.9971 11.9992C14.0012 11.9992 14.0056 12.0024 14.0096 12.0024C14.0137 12.0024 14.0181 12.0055 14.0222 12.0055C14.0263 12.0055 14.0306 12.0086 14.0347 12.0086C14.0388 12.0086 14.0431 12.0118 14.0472 12.0118C14.0513 12.0118 14.0556 12.0118 14.0597 12.0118C14.0639 12.0118 14.0681 12.0149 14.0722 12.0149C14.0764 12.0149 14.0806 12.0149 14.0848 12.0149C14.0889 12.0149 14.0931 12.0149 14.0973 12.0149C14.1014 12.0149 14.1056 12.0149 14.1098 12.0149C14.114 12.0149 14.1181 12.0118 14.1223 12.0118C14.1265 12.0118 14.1307 12.0118 14.1348 12.0118C14.139 12.0118 14.1432 12.0086 14.1473 12.0086C14.1515 12.0086 14.1558 12.0086 14.1599 12.0086C14.164 12.0086 14.1683 12.0055 14.1724 12.0055C14.1764 12.0055 14.1808 12.0024 14.1849 12.0024C14.1889 12.0024 14.1903 11.9992 14.1943 11.9992C14.1983 11.9992 14.2028 11.993 14.2068 11.993C14.2107 11.993 14.2154 11.9899 14.2193 11.9899C14.2232 11.9899 14.228 11.9836 14.2318 11.9836C14.2357 11.9836 14.2374 11.9805 14.2412 11.9805C14.245 11.9805 14.25 11.9742 14.2537 11.9742C14.2575 11.9742 14.2595 11.968 14.2631 11.968C14.2668 11.968 14.2721 11.9617 14.2756 11.9617C14.2792 11.9617 14.2815 11.9554 14.285 11.9554C14.2885 11.9554 14.2941 11.9461 14.2975 11.9461C14.301 11.9461 14.3036 11.9398 14.3069 11.9398C14.3102 11.9398 14.3131 11.9304 14.3163 11.9304C14.3195 11.9304 14.3226 11.9241 14.3257 11.9241C14.3288 11.9241 14.3351 11.9148 14.3351 11.9148L14.3445 11.9054C14.3445 11.9054 14.3539 11.8992 14.3539 11.896C14.3539 11.8928 14.3601 11.8899 14.3601 11.8866C14.3601 11.8833 14.3695 11.8806 14.3695 11.8772C14.3695 11.8738 14.3758 11.8682 14.3758 11.8647C14.3758 11.8612 14.382 11.8589 14.382 11.8553C14.382 11.8517 14.3914 11.8464 14.3914 11.8428C14.3914 11.8391 14.3977 11.8371 14.3977 11.8334C14.3977 11.8297 14.4039 11.8247 14.4039 11.8209C14.4039 11.8171 14.4071 11.8154 14.4071 11.8115C14.4071 11.8076 14.4133 11.8029 14.4133 11.799C14.4133 11.795 14.4196 11.7905 14.4196 11.7865C14.4196 11.7825 14.4227 11.778 14.4227 11.7739C14.4227 11.7699 14.4258 11.7655 14.4258 11.7614C14.4258 11.7573 14.4321 11.7531 14.4321 11.7489C14.4321 11.7448 14.4352 11.7406 14.4352 11.7364C14.4352 11.7322 14.4352 11.7281 14.4352 11.7239C14.4352 11.7197 14.4384 11.7156 14.4384 11.7114C14.4384 11.7071 14.4415 11.7031 14.4415 11.6988C14.4415 11.6946 14.4415 11.6906 14.4415 11.6863C14.4415 11.682 14.4446 11.6781 14.4446 11.6738C14.4446 11.6695 14.4446 11.6656 14.4446 11.6613C14.4446 11.657 14.4446 11.6531 14.4446 11.6488C14.4446 11.6445 14.4446 11.6405 14.4446 11.6363C14.4446 11.632 14.4415 11.628 14.4415 11.6237C14.4415 11.6194 14.4415 11.6124 14.4415 11.6081C14.4415 11.6038 14.4384 11.5998 14.4384 11.5956C14.4384 11.5913 14.4384 11.5873 14.4384 11.5831C14.4384 11.5788 14.4352 11.5747 14.4352 11.5705C14.4352 11.5663 14.4321 11.5622 14.4321 11.558C14.4321 11.5539 14.429 11.5496 14.429 11.5455C14.429 11.5414 14.4258 11.5371 14.4258 11.533C14.4258 11.527 14.4196 11.5232 14.4196 11.5173C14.4196 11.5114 14.4102 11.5043 14.4102 11.4986C14.4102 11.4928 14.4039 11.4885 14.4039 11.4829C14.4039 11.4773 14.3977 11.4696 14.3946 11.4641C14.3914 11.4587 14.3886 11.4538 14.3852 11.4485C14.3817 11.4432 14.3763 11.4379 14.3726 11.4328C14.369 11.4278 14.3641 11.4221 14.3601 11.4172C14.3562 11.4123 14.3549 11.4094 14.3507 11.4047C14.3465 11.4 14.3395 11.3935 14.3351 11.389C14.3307 11.3846 14.3272 11.3807 14.3226 11.3765C14.3179 11.3723 14.3149 11.3679 14.3101 11.364C14.3052 11.3601 14.2995 11.3583 14.2944 11.3546C14.2894 11.351 14.284 11.3455 14.2788 11.3421C14.2735 11.3387 14.2685 11.3327 14.2631 11.3327C14.2577 11.3327 14.253 11.3233 14.2475 11.3233C14.2419 11.3233 14.2344 11.3171 14.2287 11.3171C14.2023 11.3067 14.1772 11.2952 14.1505 11.2858C14.1237 11.2763 14.0961 11.2693 14.0691 11.2607C14.0421 11.2522 14.015 11.2434 13.9877 11.2357C13.9605 11.228 13.9339 11.2206 13.9064 11.2138C13.8789 11.207 13.8496 11.2009 13.8219 11.195C13.7942 11.1891 13.7684 11.1844 13.7405 11.1794C13.7127 11.1744 13.684 11.1678 13.656 11.1637C13.628 11.1597 13.5997 11.1575 13.5715 11.1543C13.5434 11.1512 13.5153 11.145 13.4871 11.145C13.4589 11.145 13.4308 11.1418 13.4026 11.1418C13.3743 11.1418 13.3463 11.1387 13.3181 11.1387C13.2898 11.1387 13.2619 11.1387 13.2336 11.1387C13.2053 11.1387 13.1773 11.1418 13.1491 11.1418C13.1209 11.1418 13.0928 11.1481 13.0646 11.1481C13.0364 11.1481 13.0082 11.1541 12.9801 11.1575C12.952 11.1608 12.9236 11.1626 12.8956 11.1669C12.8676 11.1711 12.839 11.1774 12.8111 11.1825C12.7833 11.1877 12.7543 11.1921 12.7266 11.1982C12.699 11.2042 12.6727 11.21 12.6453 11.2169C12.6178 11.2239 12.5911 11.231 12.5639 11.2388C12.5367 11.2467 12.5095 11.2551 12.4826 11.2639C12.4556 11.2726 12.4279 11.2824 12.4012 11.292C12.3745 11.3016 12.3493 11.3128 12.323 11.3233C12.2966 11.3338 12.2676 11.3433 12.2416 11.3546C12.2156 11.366 12.1922 11.38 12.1665 11.3922C12.1408 11.4044 12.1135 11.4167 12.0883 11.4297C12.063 11.4427 12.038 11.4566 12.0132 11.4704C11.9883 11.4843 11.9656 11.4964 11.9412 11.5111C11.9168 11.5257 11.8901 11.5426 11.8661 11.558C11.8421 11.5735 11.8207 11.5887 11.7972 11.605C11.7738 11.6212 11.7482 11.6381 11.7253 11.655C11.7023 11.672 11.682 11.6874 11.6596 11.7051C11.6545 11.7092 11.6488 11.7133 11.6439 11.7176C11.639 11.722 11.6329 11.7286 11.6283 11.7333C11.6236 11.7379 11.6201 11.7409 11.6157 11.7458C11.6114 11.7507 11.6073 11.7563 11.6032 11.7614C11.5991 11.7665 11.5945 11.7717 11.5907 11.7771C11.5869 11.7824 11.5849 11.7872 11.5813 11.7927C11.5778 11.7983 11.572 11.8057 11.5688 11.8115C11.5656 11.8172 11.5594 11.8212 11.5594 11.8271C11.5594 11.8331 11.5532 11.8398 11.5532 11.8459C11.5532 11.852 11.5438 11.8585 11.5438 11.8647C11.5438 11.8709 11.5375 11.8771 11.5375 11.8835C11.5375 11.8898 11.5344 11.8958 11.5344 11.9022C11.5344 11.9087 11.5281 11.9145 11.5281 11.921C11.5281 11.9275 11.525 11.9363 11.525 11.9429C11.525 11.9495 11.5219 11.9551 11.5219 11.9617C11.5219 11.9683 11.5219 11.9738 11.5219 11.9805C11.5219 11.9871 11.5219 11.9957 11.5219 12.0024C11.5219 12.009 11.5219 12.0145 11.5219 12.0212C11.5219 12.0278 11.525 12.0333 11.525 12.0399C11.525 12.0465 11.5281 12.0553 11.5281 12.0618C11.5281 12.0684 11.5313 12.0742 11.5313 12.0806C11.5313 12.0871 11.5375 12.093 11.5375 12.0994C11.5375 12.1057 11.5438 12.1119 11.5438 12.1182C11.5438 12.1244 11.55 12.1308 11.55 12.1369C11.55 12.1431 11.5594 12.1498 11.5594 12.1557C11.5594 12.1617 11.5656 12.1656 11.5688 12.1714C11.572 12.1771 11.5747 12.1845 11.5782 12.1901C11.5817 12.1957 11.5838 12.2004 11.5876 12.2058C11.5914 12.2112 11.596 12.2163 11.6001 12.2214C11.6042 12.2266 11.6083 12.2321 11.6126 12.2371C11.6169 12.242 11.6362 12.2606 11.6408 12.2652C11.6454 12.2699 11.6359 12.2608 11.6408 12.2652ZM14.9359 13.3542C14.9317 13.351 14.9277 13.3448 14.9234 13.3448C14.9191 13.3448 14.9154 13.3355 14.9109 13.3355C14.9064 13.3355 14.8998 13.3261 14.8952 13.3261C14.8906 13.3261 14.8874 13.3198 14.8827 13.3198C14.878 13.3198 14.8719 13.3136 14.8671 13.3136C14.8623 13.3136 14.8595 13.3073 14.8546 13.3073C14.8497 13.3073 14.8439 13.301 14.8389 13.301C14.8339 13.301 14.8283 13.2948 14.8233 13.2948C14.8182 13.2948 14.8127 13.2916 14.8076 13.2916C14.8025 13.2916 14.7971 13.2885 14.792 13.2885C14.7868 13.2885 14.7815 13.2854 14.7763 13.2854C14.7711 13.2854 14.7659 13.2823 14.7607 13.2823C14.7554 13.2823 14.7503 13.2823 14.745 13.2823C14.7398 13.2823 14.7347 13.2791 14.7294 13.2791C14.7241 13.2791 14.719 13.2791 14.7137 13.2791C14.7085 13.2791 14.7033 13.2823 14.6981 13.2823C14.6928 13.2823 14.6877 13.2823 14.6824 13.2823C14.6772 13.2823 14.672 13.2854 14.6668 13.2854C14.6616 13.2854 14.6563 13.2885 14.6512 13.2885C14.646 13.2885 14.6406 13.2916 14.6355 13.2916C14.6304 13.2916 14.6249 13.2948 14.6199 13.2948C14.6148 13.2948 14.6092 13.301 14.6042 13.301C14.5992 13.301 14.5966 13.3073 14.5917 13.3073C14.5868 13.3073 14.5809 13.3136 14.5761 13.3136C14.5712 13.3136 14.5682 13.3198 14.5635 13.3198C14.5588 13.3198 14.5525 13.3261 14.5479 13.3261C14.5433 13.3261 14.5398 13.3355 14.5354 13.3355C14.5309 13.3355 14.5241 13.3448 14.5197 13.3448C14.5154 13.3448 14.5114 13.3509 14.5072 13.3542C14.503 13.3575 14.4987 13.3601 14.4947 13.3636C14.4906 13.3671 14.4892 13.3725 14.4853 13.3761C14.4814 13.3798 14.4765 13.3817 14.4728 13.3855C13.3415 14.5283 11.9157 13.9058 11.55 13.7172L11.3904 13.9957C11.3872 14.0014 11.381 14.0087 11.381 14.0145C11.381 14.0203 11.3717 14.0242 11.3717 14.0302C11.3717 14.0361 11.3654 14.0428 11.3654 14.0489C11.3654 14.055 11.356 14.0615 11.356 14.0677C11.356 14.0739 11.3529 14.0802 11.3529 14.0865C11.3529 14.0928 11.3466 14.0989 11.3466 14.1053C11.3466 14.1117 11.3435 14.1176 11.3435 14.124C11.3435 14.1305 11.3404 14.1363 11.3404 14.1428C11.3404 14.1493 11.3404 14.1582 11.3404 14.1647C11.3404 14.1713 11.3404 14.177 11.3404 14.1835C11.3404 14.19 11.3404 14.1957 11.3404 14.2023C11.3404 14.2088 11.3435 14.2145 11.3435 14.221C11.3435 14.2275 11.3435 14.2365 11.3435 14.2429C11.3435 14.2494 11.3498 14.2553 11.3498 14.2617C11.3498 14.2681 11.3529 14.2742 11.3529 14.2805C11.3529 14.2868 11.3591 14.2931 11.3591 14.2993C11.3591 14.3055 11.3654 14.312 11.3654 14.3181C11.3654 14.3241 11.3717 14.3278 11.3717 14.3337C11.3717 14.3396 11.381 14.3467 11.381 14.3525C11.381 14.3582 11.3872 14.3625 11.3904 14.3681C11.3937 14.3737 11.3962 14.3815 11.3998 14.3869C11.4034 14.3923 11.4085 14.3973 11.4123 14.4025C11.4162 14.4077 11.4207 14.4132 11.4249 14.4182C11.429 14.4232 11.433 14.426 11.4374 14.4307C11.4418 14.4355 11.4453 14.4419 11.4499 14.4464C11.4545 14.4509 11.4607 14.4546 11.4655 14.4589C11.4704 14.4631 11.473 14.4674 11.4781 14.4714C11.4831 14.4754 11.4884 14.4802 11.4937 14.4839C11.499 14.4876 11.507 14.4899 11.5125 14.4933C11.5179 14.4967 11.5225 14.5027 11.5281 14.5027C11.5337 14.5027 11.538 14.5121 11.5438 14.5121C11.5495 14.5121 11.5566 14.5183 11.5625 14.5183C11.6147 14.5398 11.666 14.562 11.719 14.5809C11.7721 14.5998 11.8279 14.6177 11.8817 14.6341C11.9356 14.6505 11.9868 14.6642 12.0413 14.6779C12.0959 14.6917 12.1521 14.7043 12.2072 14.7155C12.2623 14.7266 12.3175 14.7352 12.373 14.7436C12.4286 14.7521 12.483 14.7597 12.5389 14.7655C12.5948 14.7713 12.6518 14.7812 12.7079 14.7812C12.7639 14.7812 12.8207 14.7843 12.8768 14.7843C12.9012 14.7843 12.9245 14.7843 12.9488 14.7843C12.9731 14.7843 12.9996 14.7843 13.0239 14.7843C13.0482 14.7843 13.0716 14.7781 13.0959 14.7781C13.1202 14.7781 13.1437 14.7749 13.1679 14.7749C13.1921 14.7749 13.2157 14.7655 13.2398 14.7655C13.264 14.7655 13.2877 14.7596 13.3118 14.7562C13.3359 14.7527 13.3598 14.7508 13.3838 14.7468C13.4078 14.7427 13.4319 14.7358 13.4558 14.7311C13.4796 14.7264 13.504 14.7239 13.5277 14.7186C13.5515 14.7133 13.5761 14.7057 13.5997 14.6998C13.6233 14.6939 13.6451 14.6876 13.6686 14.681C13.692 14.6745 13.7172 14.6694 13.7405 14.6623C13.7638 14.6551 13.7863 14.6481 13.8094 14.6404C13.8325 14.6327 13.8553 14.6237 13.8782 14.6153C13.9011 14.607 13.9244 14.5992 13.9471 14.5903C13.9698 14.5814 13.9934 14.5716 14.0159 14.5621C14.0384 14.5526 14.0594 14.5409 14.0816 14.5308C14.1039 14.5208 14.1253 14.5133 14.1473 14.5027C14.1693 14.492 14.1913 14.4795 14.2131 14.4683C14.2348 14.4571 14.2573 14.4456 14.2788 14.4338C14.3002 14.4221 14.3202 14.4117 14.3414 14.3994C14.3625 14.3871 14.3862 14.3716 14.4071 14.3587C14.4279 14.3459 14.446 14.3346 14.4665 14.3212C14.4871 14.3078 14.5089 14.2944 14.5291 14.2805C14.5493 14.2666 14.5687 14.2511 14.5886 14.2367C14.6084 14.2223 14.6285 14.2078 14.648 14.1929C14.6675 14.1779 14.6884 14.1645 14.7075 14.1491C14.7266 14.1336 14.7451 14.1181 14.7638 14.1021C14.7826 14.0862 14.7987 14.0685 14.817 14.0521C14.8354 14.0357 14.8554 14.0189 14.8733 14.002C14.8913 13.9851 14.909 13.9692 14.9265 13.9519C14.9441 13.9346 14.9626 13.9165 14.9797 13.8987C14.9841 13.8941 14.9881 13.8879 14.9922 13.8831C14.9964 13.8783 14.9977 13.8756 15.0016 13.8706C15.0055 13.8655 15.0105 13.8602 15.0142 13.8549C15.0178 13.8497 15.0202 13.8447 15.0235 13.8393C15.0269 13.8338 15.0361 13.8261 15.0361 13.8205C15.0361 13.8149 15.0423 13.8106 15.0423 13.8048C15.0423 13.7991 15.0517 13.792 15.0517 13.7861C15.0517 13.7802 15.058 13.7765 15.058 13.7704C15.058 13.7644 15.0642 13.7578 15.0642 13.7517C15.0642 13.7455 15.0705 13.7391 15.0705 13.7329C15.0705 13.7266 15.0736 13.7204 15.0736 13.7141C15.0736 13.7078 15.0767 13.7017 15.0767 13.6953C15.0767 13.6889 15.0799 13.683 15.0799 13.6765C15.0799 13.6701 15.0799 13.6611 15.0799 13.6546C15.0799 13.6482 15.0799 13.6423 15.0799 13.6359C15.0799 13.6294 15.0799 13.6235 15.0799 13.6171C15.0799 13.6107 15.0767 13.6047 15.0767 13.5983C15.0767 13.5919 15.0736 13.5859 15.0736 13.5795C15.0736 13.5732 15.0705 13.567 15.0705 13.5608C15.0705 13.5545 15.0642 13.5482 15.0642 13.542C15.0642 13.5358 15.0611 13.5293 15.0611 13.5232C15.0611 13.5171 15.0517 13.5104 15.0517 13.5044C15.0517 13.4985 15.0454 13.4946 15.0454 13.4888C15.0454 13.483 15.0361 13.4757 15.0361 13.47C15.0361 13.4644 15.03 13.4598 15.0267 13.4544C15.0234 13.4489 15.0208 13.444 15.0173 13.4387C15.0137 13.4334 15.0086 13.4282 15.0048 13.4231C15.0009 13.418 14.9995 13.4123 14.9954 13.4074C14.9913 13.4026 14.9872 13.3964 14.9829 13.3918C14.9785 13.3871 14.9718 13.3837 14.9672 13.3793C14.9626 13.3749 14.9595 13.3709 14.9547 13.3667C14.9499 13.3626 14.944 13.3581 14.939 13.3542L14.9359 13.3542Z" stroke="rgba(204, 78, 29, 1)" stroke-width="0.6"      fill="#CC4E1D" ></path></svg>