<svg xmlns="http://www.w3.org/2000/svg" xmlns:xlink="http://www.w3.org/1999/xlink" width="24" height="24" viewBox="0 0 24 24" fill="none"><path d="M12.1149 16.0849L12.064 16.0849C12.0576 16.0844 12.0513 16.0837 12.045 16.083C12.0387 16.0822 12.0324 16.0813 12.0262 16.0803C12.0199 16.0793 12.0136 16.0782 12.0074 16.077C12.0012 16.0757 11.995 16.0744 11.9888 16.0729C11.9826 16.0714 11.9765 16.0698 11.9704 16.0681C11.9643 16.0664 11.9582 16.0646 11.9522 16.0626C11.9461 16.0607 11.9401 16.0587 11.9341 16.0565C11.9282 16.0543 11.9222 16.052 11.9163 16.0496C11.9105 16.0472 11.9046 16.0447 11.8988 16.0421C11.8931 16.0395 11.8873 16.0368 11.8816 16.0339C11.876 16.0311 11.8703 16.0282 11.8648 16.0251C11.8592 16.0221 11.8537 16.0189 11.8482 16.0157C11.8428 16.0124 11.8374 16.0091 11.8321 16.0056C11.8268 16.0021 11.8215 15.9986 11.8163 15.9949C11.8111 15.9912 11.806 15.9875 11.801 15.9836C11.7959 15.9798 11.791 15.9758 11.7861 15.9718C11.7812 15.9677 11.7764 15.9636 11.7716 15.9593C11.7669 15.9551 11.7622 15.9508 11.7577 15.9464C11.7531 15.942 11.7486 15.9375 11.7442 15.9329C11.7398 15.9283 11.7355 15.9237 11.7313 15.9189C11.727 15.9142 11.7229 15.9094 11.7189 15.9045C11.7148 15.8996 11.7109 15.8946 11.7071 15.8896C11.7032 15.8845 11.6994 15.8794 11.6958 15.8742C11.6921 15.869 11.6886 15.8638 11.6851 15.8584C11.6817 15.8531 11.6783 15.8477 11.6751 15.8423C11.6718 15.8368 11.6686 15.8313 11.6656 15.8257C11.6626 15.8201 11.6596 15.8145 11.6568 15.8088C11.654 15.8031 11.6513 15.7974 11.6487 15.7916C11.6461 15.7858 11.6436 15.78 11.6412 15.7741C11.6388 15.7682 11.6365 15.7623 11.6344 15.7563C11.6322 15.7503 11.6301 15.7443 11.6282 15.7383C11.6263 15.7322 11.6245 15.7262 11.6228 15.72L10.104 10.2898L8.69551 12.8861C8.69271 12.8911 8.68983 12.896 8.68688 12.9008C8.68391 12.9057 8.68087 12.9105 8.67776 12.9152C8.67464 12.92 8.67144 12.9247 8.66817 12.9294C8.66491 12.934 8.66157 12.9386 8.65814 12.9431C8.65471 12.9477 8.6512 12.9522 8.64764 12.9566C8.64407 12.961 8.64043 12.9654 8.63671 12.9697C8.63299 12.974 8.6292 12.9783 8.62535 12.9824C8.6215 12.9866 8.61757 12.9907 8.61358 12.9948C8.60958 12.9988 8.60552 13.0028 8.60141 13.0067C8.5973 13.0107 8.5931 13.0145 8.58886 13.0183C8.5846 13.0221 8.58029 13.0258 8.57593 13.0294C8.57156 13.033 8.56712 13.0366 8.56263 13.0401C8.55814 13.0436 8.55361 13.047 8.549 13.0503C8.5444 13.0537 8.53973 13.057 8.53503 13.0602C8.53032 13.0634 8.52555 13.0665 8.52075 13.0695C8.51594 13.0725 8.51107 13.0755 8.50616 13.0783C8.50125 13.0812 8.4963 13.084 8.49131 13.0867C8.4863 13.0894 8.48126 13.092 8.47616 13.0946C8.47107 13.0971 8.46595 13.0996 8.46079 13.1019C8.45562 13.1043 8.45041 13.1066 8.44517 13.1088C8.43992 13.111 8.43464 13.1131 8.42933 13.1152C8.424 13.1172 8.41867 13.1191 8.4133 13.121C8.40791 13.1228 8.40249 13.1246 8.39708 13.1262C8.39162 13.1279 8.38617 13.1295 8.38069 13.131C8.37519 13.1325 8.36967 13.1339 8.36416 13.1352C8.35861 13.1365 8.35306 13.1377 8.34749 13.1389C8.34191 13.14 8.33631 13.141 8.33072 13.142C8.3251 13.1429 8.31949 13.1438 8.31386 13.1445C8.30821 13.1453 8.30255 13.1459 8.2969 13.1465C8.29124 13.1471 8.28557 13.1476 8.27991 13.148C8.27423 13.1483 8.26855 13.1486 8.26287 13.1488C8.25719 13.149 8.2515 13.1491 8.24582 13.1491L2.89189 13.1491C2.88357 13.1491 2.87524 13.1489 2.86693 13.1485C2.85861 13.1481 2.85031 13.1475 2.84203 13.1467C2.83374 13.1458 2.82548 13.1448 2.81725 13.1436C2.80901 13.1423 2.80081 13.1409 2.79264 13.1393C2.78448 13.1376 2.77636 13.1358 2.76828 13.1338C2.76021 13.1318 2.75219 13.1295 2.74422 13.1271C2.73626 13.1247 2.72836 13.1221 2.72052 13.1192C2.71268 13.1164 2.70492 13.1134 2.69723 13.1102C2.68954 13.1071 2.68193 13.1037 2.6744 13.1001C2.66688 13.0965 2.65945 13.0928 2.65211 13.0889C2.64476 13.0849 2.63753 13.0808 2.63039 13.0765C2.62325 13.0723 2.61622 13.0678 2.6093 13.0632C2.60238 13.0585 2.59557 13.0537 2.58889 13.0488C2.5822 13.0438 2.57564 13.0387 2.56921 13.0334C2.56278 13.0281 2.55648 13.0227 2.55031 13.0171C2.54414 13.0115 2.53812 13.0058 2.53223 12.9998C2.52635 12.994 2.52061 12.9879 2.51502 12.9818C2.50943 12.9756 2.504 12.9693 2.49872 12.9628C2.49344 12.9564 2.48832 12.9498 2.48337 12.9431C2.47841 12.9365 2.47362 12.9297 2.46899 12.9227C2.46437 12.9158 2.45992 12.9088 2.45564 12.9016C2.45136 12.8945 2.44726 12.8872 2.44334 12.8799C2.43942 12.8725 2.43568 12.8651 2.43212 12.8576C2.42856 12.8501 2.42519 12.8425 2.42201 12.8347C2.41882 12.8271 2.41583 12.8193 2.41302 12.8115C2.41022 12.8036 2.40761 12.7957 2.40519 12.7877C2.40278 12.7798 2.40056 12.7718 2.39854 12.7637C2.39652 12.7556 2.39469 12.7475 2.39307 12.7393C2.39145 12.7311 2.39002 12.7229 2.3888 12.7147C2.38758 12.7065 2.38656 12.6982 2.38575 12.6899C2.38493 12.6816 2.38432 12.6733 2.38391 12.665C2.3835 12.6567 2.3833 12.6484 2.3833 12.64C2.3833 12.6317 2.3835 12.6234 2.38391 12.6151C2.38432 12.6068 2.38493 12.5985 2.38575 12.5902C2.38656 12.5819 2.38758 12.5736 2.3888 12.5654C2.39002 12.5572 2.39145 12.549 2.39307 12.5408C2.39469 12.5326 2.39652 12.5245 2.39854 12.5164C2.40056 12.5084 2.40278 12.5003 2.40519 12.4924C2.40761 12.4844 2.41022 12.4765 2.41302 12.4686C2.41583 12.4608 2.41882 12.453 2.42201 12.4453C2.42519 12.4377 2.42856 12.43 2.43212 12.4225C2.43568 12.415 2.43942 12.4075 2.44334 12.4002C2.44726 12.3929 2.45136 12.3856 2.45564 12.3785C2.45992 12.3713 2.46437 12.3643 2.46899 12.3574C2.47362 12.3505 2.47841 12.3436 2.48337 12.3369C2.48832 12.3303 2.49344 12.3237 2.49872 12.3173C2.504 12.3108 2.50943 12.3045 2.51502 12.2983C2.52061 12.2922 2.52635 12.2862 2.53223 12.2802C2.53812 12.2744 2.54414 12.2686 2.55031 12.263C2.55648 12.2574 2.56278 12.252 2.56921 12.2467C2.57564 12.2414 2.5822 12.2363 2.58889 12.2313C2.59557 12.2264 2.60238 12.2216 2.6093 12.2169C2.61622 12.2123 2.62325 12.2078 2.63039 12.2036C2.63753 12.1993 2.64476 12.1952 2.65211 12.1912C2.65945 12.1873 2.66688 12.1836 2.6744 12.18C2.68193 12.1764 2.68954 12.1731 2.69723 12.1699C2.70492 12.1667 2.71268 12.1637 2.72052 12.1609C2.72836 12.1581 2.73626 12.1554 2.74422 12.153C2.75219 12.1506 2.76021 12.1484 2.76828 12.1463C2.77636 12.1443 2.78448 12.1425 2.79264 12.1408C2.80081 12.1392 2.80901 12.1378 2.81725 12.1365C2.82548 12.1353 2.83374 12.1343 2.84203 12.1335C2.85031 12.1326 2.85861 12.132 2.86693 12.1316C2.87524 12.1312 2.88357 12.131 2.89189 12.131L7.98278 12.131L9.84944 8.73704C9.85228 8.73137 9.85521 8.72576 9.85826 8.7202C9.8613 8.71463 9.86447 8.70912 9.86773 8.70368C9.87098 8.69824 9.87434 8.69287 9.8778 8.68756C9.88126 8.68224 9.88482 8.67698 9.88849 8.67181C9.89215 8.66663 9.89592 8.66152 9.89977 8.6565C9.90362 8.65146 9.90757 8.6465 9.91162 8.64161C9.91566 8.63673 9.91979 8.63192 9.92402 8.62719C9.92823 8.62247 9.93256 8.61782 9.93696 8.61325C9.94137 8.60869 9.94586 8.60421 9.95043 8.59982C9.955 8.59542 9.95965 8.59111 9.9644 8.58689C9.96913 8.58268 9.97395 8.57856 9.97884 8.57452C9.98374 8.57048 9.9887 8.56655 9.99374 8.5627C9.99879 8.55886 10.0039 8.55512 10.0091 8.55146C10.0143 8.54781 10.0195 8.54426 10.0248 8.5408C10.0302 8.53735 10.0356 8.53401 10.041 8.53076C10.0465 8.52751 10.052 8.52437 10.0575 8.52133C10.0631 8.5183 10.0687 8.51537 10.0744 8.51255C10.0801 8.50972 10.0858 8.50701 10.0916 8.50441C10.0974 8.5018 10.1032 8.4993 10.1091 8.49692C10.115 8.49453 10.1209 8.49227 10.1268 8.49011C10.1328 8.48795 10.1388 8.4859 10.1448 8.48397C10.1509 8.48204 10.157 8.48022 10.1631 8.47852C10.1692 8.47683 10.1753 8.47524 10.1815 8.47377C10.1877 8.47231 10.1938 8.47096 10.2001 8.46973C10.2063 8.4685 10.2125 8.46739 10.2188 8.4664C10.2251 8.4654 10.2314 8.46452 10.2377 8.46377C10.2439 8.46302 10.2502 8.46238 10.2566 8.46186C10.2629 8.46135 10.2692 8.46096 10.2756 8.46068C10.2819 8.4604 10.2882 8.46024 10.2946 8.46021C10.3009 8.46018 10.3073 8.46027 10.3136 8.46047C10.3199 8.46068 10.3263 8.46101 10.3326 8.46145C10.3389 8.4619 10.3452 8.46247 10.3515 8.46317C10.3578 8.46385 10.3641 8.46466 10.3704 8.46558C10.3767 8.46651 10.3829 8.46755 10.3892 8.46871C10.3954 8.46988 10.4016 8.47116 10.4078 8.47257C10.414 8.47397 10.4201 8.47549 10.4263 8.47712C10.4324 8.47875 10.4385 8.4805 10.4445 8.48238C10.4506 8.48424 10.4566 8.48622 10.4626 8.48832C10.4686 8.4904 10.4745 8.49261 10.4805 8.49494C10.4864 8.49726 10.4922 8.49969 10.498 8.50224C10.5038 8.50478 10.5096 8.50743 10.5153 8.51019C10.521 8.51295 10.5267 8.51582 10.5323 8.5188C10.5379 8.52178 10.5434 8.52487 10.5489 8.52806C10.5544 8.53124 10.5598 8.53453 10.5652 8.53791C10.5705 8.54131 10.5758 8.54481 10.581 8.54841C10.5862 8.552 10.5914 8.55569 10.5965 8.55949C10.6016 8.56328 10.6066 8.56716 10.6115 8.57114C10.6164 8.57512 10.6213 8.5792 10.6261 8.58337C10.6309 8.58753 10.6356 8.59179 10.6402 8.59613C10.6448 8.60047 10.6494 8.6049 10.6538 8.60941C10.6582 8.61394 10.6626 8.61854 10.6669 8.62322C10.6712 8.6279 10.6754 8.63266 10.6794 8.6375C10.6835 8.64234 10.6875 8.64727 10.6915 8.65227C10.6954 8.65725 10.6992 8.66232 10.7029 8.66747C10.7066 8.6726 10.7102 8.67781 10.7138 8.68308C10.7173 8.68836 10.7207 8.6937 10.724 8.69911C10.7273 8.70452 10.7305 8.70999 10.7336 8.71551C10.7367 8.72104 10.7397 8.72663 10.7426 8.73227C10.7455 8.73791 10.7483 8.74361 10.751 8.74936C10.7537 8.75511 10.7563 8.7609 10.7587 8.76674C10.7612 8.7726 10.7635 8.77849 10.7657 8.78442C10.768 8.79036 10.7701 8.79633 10.7721 8.80234C10.7741 8.80836 10.776 8.81441 10.7778 8.8205C10.7796 8.82659 10.7812 8.83271 10.7828 8.83886L12.2422 14.1928L14.3125 9.95037C14.315 9.94534 14.3176 9.94035 14.3203 9.9354C14.323 9.93046 14.3258 9.92557 14.3286 9.92072C14.3315 9.91586 14.3344 9.91106 14.3374 9.90631C14.3404 9.90155 14.3435 9.89685 14.3467 9.8922C14.3499 9.88755 14.3531 9.88295 14.3565 9.8784C14.3598 9.87386 14.3632 9.86938 14.3666 9.86495C14.3701 9.86051 14.3737 9.85614 14.3773 9.85183C14.3809 9.84751 14.3846 9.84325 14.3883 9.83906C14.3921 9.83488 14.3959 9.83075 14.3998 9.82668C14.4037 9.82262 14.4077 9.81862 14.4117 9.81468C14.4157 9.81075 14.4198 9.80689 14.424 9.80309C14.4281 9.7993 14.4324 9.79557 14.4367 9.79191C14.4409 9.78826 14.4453 9.78467 14.4497 9.78116C14.4541 9.77765 14.4585 9.77421 14.463 9.77085C14.4676 9.76747 14.4721 9.76418 14.4768 9.76097C14.4814 9.75776 14.486 9.75463 14.4908 9.75157C14.4955 9.7485 14.5003 9.74552 14.5051 9.74263C14.5099 9.73972 14.5148 9.7369 14.5197 9.73417C14.5246 9.73143 14.5296 9.72877 14.5346 9.72619C14.5396 9.72363 14.5447 9.72114 14.5498 9.71873C14.5548 9.71633 14.56 9.71401 14.5651 9.71177C14.5703 9.70953 14.5755 9.70739 14.5807 9.70532C14.586 9.70325 14.5912 9.70128 14.5966 9.69939C14.6019 9.6975 14.6072 9.6957 14.6126 9.69399C14.6179 9.69227 14.6233 9.69065 14.6287 9.68913C14.6341 9.68759 14.6396 9.68615 14.645 9.68479C14.6505 9.68344 14.656 9.68218 14.6615 9.68102C14.667 9.67984 14.6725 9.67876 14.6781 9.67777C14.6836 9.67679 14.6892 9.6759 14.6948 9.67509C14.7003 9.67429 14.7059 9.67357 14.7115 9.67295C14.7171 9.67235 14.7227 9.67182 14.7283 9.67139C14.7339 9.67095 14.7396 9.67062 14.7452 9.67038C14.7508 9.67024 14.7565 9.67019 14.7622 9.67023C14.7678 9.67028 14.7735 9.67043 14.7792 9.67065C14.7848 9.67088 14.7905 9.6712 14.7961 9.67162C14.8018 9.67202 14.8074 9.67252 14.8131 9.67312C14.8187 9.67372 14.8243 9.6744 14.83 9.67517C14.8356 9.67595 14.8412 9.67681 14.8468 9.67777C14.8523 9.67873 14.8579 9.67978 14.8635 9.68092C14.869 9.68205 14.8745 9.68327 14.88 9.68459C14.8856 9.68591 14.891 9.68731 14.8965 9.6888C14.902 9.6903 14.9074 9.69189 14.9128 9.69355C14.9183 9.69522 14.9236 9.69697 14.929 9.69882C14.9344 9.70066 14.9397 9.70259 14.945 9.7046C14.9503 9.70662 14.9555 9.70872 14.9608 9.7109C14.966 9.71309 14.9712 9.71536 14.9764 9.71772C14.9815 9.72007 14.9866 9.7225 14.9917 9.72502C14.9968 9.72754 15.0018 9.73014 15.0068 9.73282C15.0118 9.73551 15.0167 9.73827 15.0216 9.74111C15.0265 9.74395 15.0314 9.74687 15.0362 9.74986C15.041 9.75286 15.0458 9.75594 15.0505 9.75909C15.0552 9.76224 15.0599 9.76546 15.0645 9.76877C15.0691 9.77207 15.0736 9.77544 15.0781 9.77889C15.0826 9.78234 15.0871 9.78586 15.0914 9.78947C15.0958 9.79306 15.1001 9.79672 15.1044 9.80045C15.1087 9.80418 15.1129 9.80799 15.117 9.81186C15.1212 9.81572 15.1252 9.81965 15.1292 9.82366C15.1333 9.82765 15.1372 9.83172 15.1411 9.83585C15.145 9.83997 15.1488 9.84416 15.1525 9.84842C15.1563 9.85267 15.16 9.85698 15.1636 9.86134C15.1672 9.86572 15.1707 9.87014 15.1742 9.87463C15.1777 9.87911 15.181 9.88365 15.1844 9.88825C15.1877 9.89285 15.1909 9.89749 15.1941 9.90219C15.1973 9.90688 15.2003 9.91163 15.2034 9.91642L16.264 11.7067L20.9985 11.7067C21.0068 11.7067 21.0151 11.7069 21.0234 11.7073C21.0317 11.7078 21.0401 11.7084 21.0484 11.7092C21.0566 11.71 21.0649 11.711 21.0732 11.7122C21.0814 11.7135 21.0897 11.7149 21.0978 11.7165C21.106 11.7181 21.114 11.7199 21.1222 11.722C21.1303 11.724 21.1383 11.7262 21.1463 11.7286C21.1542 11.7311 21.1621 11.7337 21.17 11.7365C21.1778 11.7393 21.1855 11.7423 21.1933 11.7455C21.201 11.7487 21.2087 11.752 21.2162 11.7556C21.2237 11.7592 21.231 11.7629 21.2385 11.7668C21.2457 11.7708 21.2531 11.7749 21.2602 11.7792C21.2674 11.7834 21.2744 11.7879 21.2813 11.7925C21.2881 11.7972 21.295 11.8019 21.3019 11.8069C21.3084 11.8119 21.3149 11.817 21.3214 11.8223C21.328 11.8276 21.3342 11.833 21.3404 11.8386C21.3466 11.8442 21.3526 11.8499 21.3585 11.8558C21.3644 11.8617 21.3701 11.8678 21.3758 11.8739C21.3813 11.8801 21.3867 11.8864 21.3921 11.8928C21.3973 11.8993 21.4024 11.9059 21.4074 11.9125C21.4123 11.9192 21.4171 11.9261 21.4218 11.933C21.4264 11.9399 21.4309 11.9469 21.4352 11.9541C21.4394 11.9612 21.4435 11.9685 21.4474 11.9758C21.4513 11.9832 21.4551 11.9906 21.4587 11.9981C21.4623 12.0057 21.4655 12.0133 21.4688 12.021C21.4721 12.0287 21.475 12.0365 21.4778 12.0443C21.4806 12.0521 21.4832 12.0601 21.4856 12.068C21.4881 12.076 21.4904 12.084 21.4923 12.0921C21.4943 12.1002 21.4962 12.1083 21.4979 12.1165C21.4995 12.1247 21.5008 12.1329 21.5021 12.1411C21.5032 12.1494 21.5042 12.1576 21.5052 12.1659C21.5059 12.1742 21.5065 12.1825 21.507 12.1908C21.5073 12.1991 21.5077 12.2075 21.5077 12.2158C21.5077 12.2242 21.5073 12.2325 21.507 12.2408C21.5065 12.2491 21.5059 12.2574 21.5052 12.2657C21.5042 12.274 21.5032 12.2823 21.5021 12.2905C21.5008 12.2988 21.4995 12.307 21.4979 12.3151C21.4962 12.3233 21.4943 12.3314 21.4923 12.3395C21.4904 12.3476 21.4881 12.3556 21.4856 12.3636C21.4832 12.3716 21.4806 12.3795 21.4778 12.3873C21.475 12.3952 21.4721 12.4029 21.4688 12.4106C21.4655 12.4183 21.4623 12.4259 21.4587 12.4335C21.4551 12.441 21.4513 12.4484 21.4474 12.4558C21.4435 12.4631 21.4394 12.4704 21.4352 12.4775C21.4309 12.4847 21.4264 12.4917 21.4218 12.4986C21.4171 12.5056 21.4123 12.5124 21.4074 12.5191C21.4024 12.5258 21.3973 12.5323 21.3921 12.5388C21.3867 12.5452 21.3813 12.5515 21.3758 12.5577C21.3701 12.5639 21.3644 12.5699 21.3585 12.5758C21.3526 12.5817 21.3466 12.5874 21.3404 12.593C21.3342 12.5986 21.328 12.6041 21.3214 12.6093C21.3149 12.6146 21.3084 12.6197 21.3019 12.6247C21.295 12.6297 21.2881 12.6345 21.2813 12.6391C21.2744 12.6437 21.2674 12.6482 21.2602 12.6525C21.2531 12.6568 21.2457 12.6609 21.2385 12.6648C21.231 12.6687 21.2237 12.6725 21.2162 12.676C21.2087 12.6796 21.201 12.683 21.1933 12.6862C21.1855 12.6894 21.1778 12.6923 21.17 12.6951C21.1621 12.698 21.1542 12.7006 21.1463 12.703C21.1383 12.7054 21.1303 12.7076 21.1222 12.7096C21.114 12.7117 21.106 12.7135 21.0978 12.7151C21.0897 12.7168 21.0814 12.7182 21.0732 12.7194C21.0649 12.7206 21.0566 12.7216 21.0484 12.7224C21.0401 12.7233 21.0317 12.7239 21.0234 12.7243C21.0151 12.7247 21.0068 12.7249 20.9985 12.7249L15.9755 12.7249C15.9701 12.7249 15.9646 12.7247 15.9592 12.7245C15.9538 12.7243 15.9484 12.724 15.943 12.7237C15.9376 12.7233 15.9322 12.7228 15.9268 12.7223C15.9214 12.7217 15.916 12.7211 15.9107 12.7204C15.9053 12.7196 15.8999 12.7188 15.8946 12.7179C15.8892 12.717 15.8839 12.7161 15.8786 12.715C15.8733 12.7139 15.868 12.7128 15.8627 12.7115C15.8574 12.7103 15.8522 12.709 15.847 12.7076C15.8417 12.7062 15.8365 12.7047 15.8313 12.7031C15.8261 12.7016 15.821 12.6999 15.8158 12.6982C15.8107 12.6964 15.8056 12.6946 15.8005 12.6927C15.7954 12.6909 15.7904 12.6889 15.7854 12.6868C15.7804 12.6848 15.7754 12.6826 15.7705 12.6804C15.7655 12.6782 15.7606 12.6759 15.7557 12.6735C15.7509 12.6712 15.746 12.6687 15.7412 12.6662C15.7364 12.6637 15.7317 12.6611 15.727 12.6584C15.7223 12.6557 15.7176 12.6529 15.713 12.6501C15.7084 12.6473 15.7038 12.6444 15.6993 12.6414C15.6948 12.6384 15.6903 12.6354 15.6858 12.6323C15.6814 12.6292 15.677 12.626 15.6727 12.6227C15.6683 12.6195 15.6641 12.6161 15.6598 12.6127C15.6556 12.6093 15.6515 12.6059 15.6473 12.6024C15.6432 12.5988 15.6392 12.5952 15.6352 12.5916C15.6312 12.5879 15.6272 12.5842 15.6233 12.5804C15.6195 12.5767 15.6156 12.5728 15.6119 12.5689C15.6081 12.565 15.6044 12.561 15.6008 12.557C15.5972 12.553 15.5936 12.5489 15.5901 12.5448C15.5866 12.5407 15.5832 12.5365 15.5798 12.5322C15.5764 12.528 15.5731 12.5237 15.5699 12.5193C15.5667 12.515 15.5635 12.5106 15.5604 12.5061C15.5573 12.5017 15.5543 12.4972 15.5514 12.4926C15.5484 12.4881 15.5455 12.4835 15.5428 12.4788L14.8046 11.2401L12.5646 15.7625C12.5624 15.7682 12.5601 15.7739 12.5578 15.7795C12.5554 15.7851 12.5529 15.7907 12.5503 15.7962C12.5478 15.8018 12.5451 15.8072 12.5423 15.8127C12.5395 15.8181 12.5366 15.8235 12.5336 15.8288C12.5306 15.8342 12.5276 15.8394 12.5244 15.8446C12.5212 15.8499 12.518 15.855 12.5146 15.8601C12.5112 15.8652 12.5078 15.8703 12.5043 15.8752C12.5007 15.8802 12.4971 15.8851 12.4933 15.8899C12.4896 15.8948 12.4858 15.8996 12.4819 15.9043C12.478 15.909 12.474 15.9136 12.47 15.9181C12.4659 15.9227 12.4617 15.9272 12.4575 15.9316C12.4533 15.936 12.4489 15.9403 12.4446 15.9446C12.4402 15.9488 12.4357 15.953 12.4312 15.957C12.4266 15.9611 12.422 15.9651 12.4173 15.969C12.4126 15.973 12.4079 15.9768 12.403 15.9805C12.3982 15.9843 12.3933 15.9879 12.3883 15.9915C12.3834 15.995 12.3783 15.9985 12.3733 16.0019C12.3682 16.0052 12.363 16.0085 12.3578 16.0117C12.3526 16.0149 12.3473 16.018 12.342 16.021C12.3367 16.024 12.3313 16.0269 12.3259 16.0296C12.3204 16.0325 12.315 16.0351 12.3094 16.0377C12.3039 16.0403 12.2983 16.0428 12.2927 16.0452C12.2871 16.0476 12.2814 16.0499 12.2757 16.0521C12.27 16.0543 12.2643 16.0564 12.2585 16.0583C12.2527 16.0603 12.2469 16.0622 12.2411 16.0639C12.2352 16.0657 12.2293 16.0674 12.2234 16.0689C12.2175 16.0704 12.2116 16.0719 12.2056 16.0732C12.1997 16.0745 12.1937 16.0758 12.1877 16.0769C12.1817 16.078 12.1756 16.079 12.1696 16.0799C12.1636 16.0808 12.1575 16.0815 12.1514 16.0822C12.1454 16.0829 12.1393 16.0834 12.1332 16.0839C12.1271 16.0843 12.121 16.0847 12.1149 16.0849L12.1149 16.0849Z" stroke="rgba(204, 78, 29, 1)" stroke-width="0.6"      fill="#CC4E1D" ></path><path d="M19.7939 20.1321L4.097 20.1321C4.05881 20.1321 4.02065 20.1312 3.98251 20.1293C3.94437 20.1274 3.90629 20.1246 3.8683 20.1209C3.83029 20.1172 3.79241 20.1125 3.75462 20.1069C3.71684 20.1013 3.67924 20.0947 3.64179 20.0873C3.60433 20.0798 3.56709 20.0715 3.53004 20.0622C3.49301 20.0529 3.4562 20.0427 3.41966 20.0317C3.38312 20.0206 3.34688 20.0086 3.31092 19.9957C3.27497 19.9829 3.23935 19.9691 3.20407 19.9545C3.16879 19.9399 3.13389 19.9244 3.09937 19.9081C3.06485 19.8918 3.03075 19.8746 2.99708 19.8566C2.9634 19.8386 2.93018 19.8198 2.89743 19.8002C2.86467 19.7805 2.83242 19.7601 2.80067 19.7389C2.76892 19.7177 2.73771 19.6957 2.70704 19.6729C2.67636 19.6502 2.64627 19.6267 2.61675 19.6025C2.58723 19.5783 2.55833 19.5533 2.53003 19.5277C2.50174 19.5021 2.47409 19.4757 2.44709 19.4487C2.42008 19.4217 2.39376 19.3941 2.36812 19.3658C2.34247 19.3375 2.31754 19.3086 2.29331 19.2791C2.26909 19.2495 2.2456 19.2194 2.22285 19.1888C2.2001 19.1581 2.17812 19.1269 2.15691 19.0951C2.13569 19.0634 2.11527 19.0311 2.09564 18.9984C2.07601 18.9656 2.05719 18.9324 2.03919 18.8987C2.02119 18.865 2.00402 18.831 1.9877 18.7964C1.97137 18.7619 1.9559 18.727 1.94129 18.6917C1.92667 18.6565 1.91293 18.6208 1.90007 18.5849C1.8872 18.5489 1.87523 18.5127 1.86414 18.4761C1.85306 18.4396 1.84288 18.4028 1.8336 18.3658C1.82432 18.3287 1.81596 18.2915 1.80851 18.254C1.80106 18.2166 1.79453 18.179 1.78893 18.1412C1.78332 18.1034 1.77865 18.0655 1.77491 18.0275C1.77116 17.9895 1.76836 17.9514 1.76648 17.9133C1.76461 17.8752 1.76367 17.837 1.76367 17.7988L1.76367 6.34431C1.76367 6.30612 1.76461 6.26796 1.76648 6.22982C1.76836 6.19168 1.77116 6.15361 1.77491 6.11561C1.77865 6.0776 1.78332 6.03972 1.78893 6.00194C1.79453 5.96416 1.80106 5.92656 1.80851 5.8891C1.81596 5.85164 1.82432 5.8144 1.8336 5.77735C1.84288 5.74032 1.85306 5.70352 1.86414 5.66698C1.87523 5.63044 1.8872 5.59419 1.90007 5.55824C1.91293 5.52228 1.92667 5.48667 1.94129 5.45139C1.9559 5.41611 1.97137 5.38121 1.9877 5.34669C2.00402 5.31217 2.02119 5.27807 2.03919 5.24439C2.05719 5.21071 2.07601 5.1775 2.09564 5.14474C2.11527 5.11199 2.13569 5.07974 2.15691 5.04799C2.17812 5.01623 2.2001 4.98502 2.22285 4.95435C2.2456 4.92368 2.26909 4.89358 2.29331 4.86407C2.31754 4.83455 2.34247 4.80564 2.36812 4.77735C2.39376 4.74905 2.42008 4.7214 2.44709 4.6944C2.47409 4.6674 2.50174 4.64108 2.53003 4.61543C2.55833 4.58979 2.58723 4.56485 2.61675 4.54063C2.64627 4.5164 2.67636 4.49291 2.70704 4.47017C2.73771 4.44742 2.76892 4.42544 2.80067 4.40422C2.83242 4.38301 2.86467 4.36258 2.89743 4.34295C2.93018 4.32332 2.9634 4.3045 2.99708 4.2865C3.03075 4.2685 3.06485 4.25134 3.09937 4.23501C3.13389 4.21868 3.16879 4.20321 3.20407 4.1886C3.23935 4.17399 3.27497 4.16025 3.31092 4.14738C3.34688 4.13452 3.38312 4.12254 3.41966 4.11146C3.4562 4.10037 3.49301 4.09019 3.53004 4.08091C3.56709 4.07163 3.60433 4.06327 3.64179 4.05582C3.67924 4.04837 3.71684 4.04184 3.75462 4.03624C3.79241 4.03064 3.83029 4.02596 3.8683 4.02222C3.90629 4.01848 3.94437 4.01567 3.98251 4.0138C4.02065 4.01192 4.05881 4.01099 4.097 4.01099L19.7939 4.01099C19.8321 4.01099 19.8703 4.01192 19.9085 4.0138C19.9465 4.01567 19.9845 4.01848 20.0225 4.02222C20.0606 4.02596 20.0986 4.03064 20.1363 4.03624C20.174 4.04184 20.2117 4.04837 20.2491 4.05582C20.2864 4.06327 20.3238 4.07163 20.3609 4.08091C20.3979 4.09019 20.4346 4.10037 20.4712 4.11146C20.5078 4.12254 20.544 4.13452 20.5801 4.14738C20.616 4.16025 20.6515 4.17399 20.6868 4.1886C20.722 4.20321 20.757 4.21868 20.7916 4.23501C20.826 4.25134 20.8601 4.2685 20.8939 4.2865C20.9275 4.3045 20.9606 4.32332 20.9935 4.34295C21.0263 4.36258 21.0584 4.38301 21.0902 4.40422C21.1221 4.42544 21.1532 4.44742 21.1839 4.47017C21.2146 4.49291 21.2446 4.5164 21.2742 4.54063C21.3037 4.56485 21.3326 4.58979 21.3608 4.61543C21.3891 4.64107 21.4168 4.6674 21.4437 4.6944C21.4708 4.7214 21.4971 4.74905 21.5227 4.77735C21.5483 4.80564 21.5733 4.83455 21.5976 4.86407C21.6218 4.89358 21.6453 4.92368 21.668 4.95435C21.6907 4.98502 21.7127 5.01623 21.7339 5.04799C21.7551 5.07974 21.7755 5.11199 21.7953 5.14474C21.8149 5.1775 21.8336 5.21071 21.8517 5.24439C21.8697 5.27807 21.8868 5.31217 21.9032 5.34669C21.9195 5.38121 21.935 5.41611 21.9497 5.45139C21.9642 5.48667 21.9779 5.52228 21.9908 5.55824C22.0037 5.59419 22.0156 5.63044 22.0267 5.66698C22.0378 5.70352 22.0479 5.74032 22.0572 5.77735C22.0665 5.8144 22.075 5.85164 22.0824 5.8891C22.0899 5.92656 22.0964 5.96416 22.1019 6.00194C22.1077 6.03972 22.1122 6.0776 22.116 6.11561C22.1197 6.15361 22.1225 6.19168 22.1245 6.22982C22.1263 6.26796 22.1272 6.30612 22.1272 6.34431L22.1272 17.7988C22.1272 17.837 22.1263 17.8752 22.1245 17.9133C22.1225 17.9514 22.1197 17.9895 22.116 18.0275C22.1122 18.0655 22.1077 18.1034 22.1019 18.1412C22.0964 18.179 22.0899 18.2166 22.0824 18.254C22.075 18.2915 22.0665 18.3287 22.0572 18.3658C22.0479 18.4028 22.0378 18.4396 22.0267 18.4761C22.0156 18.5127 22.0037 18.5489 21.9908 18.5849C21.9779 18.6208 21.9642 18.6565 21.9497 18.6917C21.935 18.727 21.9195 18.7619 21.9032 18.7964C21.8868 18.831 21.8697 18.865 21.8517 18.8987C21.8336 18.9324 21.8149 18.9656 21.7953 18.9984C21.7755 19.0311 21.7551 19.0634 21.7339 19.0951C21.7127 19.1269 21.6907 19.1581 21.668 19.1888C21.6453 19.2194 21.6218 19.2495 21.5976 19.2791C21.5733 19.3086 21.5483 19.3375 21.5227 19.3658C21.4971 19.3941 21.4708 19.4217 21.4437 19.4487C21.4168 19.4757 21.3891 19.5021 21.3608 19.5277C21.3326 19.5533 21.3037 19.5783 21.2742 19.6025C21.2446 19.6267 21.2146 19.6502 21.1839 19.6729C21.1532 19.6957 21.1221 19.7177 21.0902 19.7389C21.0584 19.7601 21.0263 19.7805 20.9935 19.8002C20.9606 19.8198 20.9275 19.8386 20.8939 19.8566C20.8601 19.8746 20.826 19.8918 20.7916 19.9081C20.757 19.9244 20.722 19.9399 20.6868 19.9545C20.6515 19.9691 20.616 19.9829 20.5801 19.9957C20.544 20.0086 20.5078 20.0206 20.4712 20.0317C20.4346 20.0428 20.3979 20.0529 20.3609 20.0622C20.3238 20.0715 20.2864 20.0798 20.2491 20.0873C20.2117 20.0947 20.174 20.1013 20.1363 20.1069C20.0986 20.1125 20.0606 20.1172 20.0225 20.1209C19.9845 20.1246 19.9465 20.1274 19.9085 20.1293C19.8703 20.1312 19.8321 20.1321 19.7939 20.1321ZM4.097 5.28371C4.07965 5.28371 4.0623 5.28413 4.04495 5.28499C4.02762 5.28584 4.01032 5.28711 3.99303 5.28882C3.97577 5.29052 3.95855 5.29264 3.94138 5.29519C3.92421 5.29773 3.90711 5.3007 3.89008 5.30409C3.87306 5.30747 3.85612 5.31128 3.8393 5.31549C3.82245 5.31971 3.80572 5.32434 3.78913 5.32938C3.77251 5.33442 3.75603 5.33986 3.73969 5.34571C3.72335 5.35155 3.70716 5.3578 3.69112 5.36444C3.67508 5.37108 3.65922 5.37812 3.64353 5.38554C3.62785 5.39296 3.61234 5.40076 3.59703 5.40894C3.58173 5.41713 3.56663 5.42568 3.55174 5.4346C3.53684 5.44353 3.52219 5.45281 3.50776 5.46245C3.49332 5.4721 3.47914 5.48209 3.4652 5.49243C3.45126 5.50277 3.43758 5.51344 3.42415 5.52445C3.41074 5.53547 3.3976 5.5468 3.38474 5.55846C3.37188 5.57011 3.35931 5.58208 3.34704 5.59435C3.33476 5.60663 3.3228 5.61919 3.31114 5.63205C3.29949 5.64491 3.28815 5.65805 3.27714 5.67147C3.26613 5.6849 3.25545 5.69857 3.24511 5.71251C3.23477 5.72645 3.22478 5.74063 3.21514 5.75508C3.20549 5.7695 3.19621 5.78416 3.18729 5.79906C3.17836 5.81394 3.16981 5.82904 3.16163 5.84435C3.15345 5.85966 3.14564 5.87516 3.13822 5.89085C3.1308 5.90653 3.12377 5.92239 3.11713 5.93844C3.11048 5.95448 3.10424 5.97067 3.09839 5.98701C3.09255 6.00334 3.0871 6.01983 3.08206 6.03644C3.07703 6.05304 3.0724 6.06977 3.06818 6.08661C3.06396 6.10344 3.06016 6.12038 3.05677 6.1374C3.05339 6.15442 3.05042 6.17151 3.04787 6.18869C3.04533 6.20586 3.0432 6.22308 3.0415 6.24035C3.0398 6.25763 3.03852 6.27493 3.03767 6.29226C3.03682 6.30961 3.03639 6.32696 3.03639 6.34431L3.03639 17.7988C3.03639 17.8162 3.03682 17.8335 3.03767 17.8508C3.03852 17.8682 3.0398 17.8855 3.0415 17.9028C3.0432 17.92 3.04533 17.9373 3.04787 17.9544C3.05042 17.9716 3.05339 17.9887 3.05677 18.0057C3.06016 18.0227 3.06396 18.0397 3.06818 18.0565C3.0724 18.0734 3.07703 18.0901 3.08206 18.1067C3.0871 18.1233 3.09255 18.1398 3.09839 18.1561C3.10424 18.1725 3.11048 18.1886 3.11713 18.2047C3.12377 18.2207 3.1308 18.2366 3.13822 18.2523C3.14564 18.268 3.15345 18.2835 3.16163 18.2988C3.16981 18.3141 3.17836 18.3292 3.18729 18.3441C3.19621 18.359 3.20549 18.3736 3.21514 18.3881C3.22478 18.4025 3.23477 18.4167 3.24511 18.4306C3.25545 18.4446 3.26613 18.4582 3.27714 18.4716C3.28815 18.4851 3.29949 18.4982 3.31114 18.5111C3.3228 18.5239 3.33476 18.5365 3.34704 18.5488C3.35931 18.561 3.37188 18.573 3.38474 18.5847C3.3976 18.5963 3.41074 18.6077 3.42415 18.6187C3.43758 18.6297 3.45126 18.6404 3.4652 18.6507C3.47914 18.661 3.49332 18.671 3.50776 18.6807C3.52219 18.6903 3.53684 18.6996 3.55174 18.7085C3.56663 18.7174 3.58173 18.726 3.59703 18.7342C3.61234 18.7424 3.62785 18.7502 3.64353 18.7576C3.65922 18.765 3.67508 18.772 3.69112 18.7787C3.70716 18.7853 3.72335 18.7916 3.73969 18.7974C3.75603 18.8033 3.77251 18.8087 3.78913 18.8137C3.80572 18.8188 3.82245 18.8234 3.8393 18.8276C3.85612 18.8319 3.87306 18.8357 3.89008 18.839C3.90711 18.8424 3.92421 18.8454 3.94138 18.8479C3.95855 18.8505 3.97577 18.8526 3.99303 18.8543C4.01032 18.856 4.02762 18.8573 4.04495 18.8581C4.0623 18.859 4.07965 18.8594 4.097 18.8594L19.7939 18.8594C19.8114 18.8594 19.8287 18.859 19.846 18.8581C19.8633 18.8573 19.8806 18.856 19.8979 18.8543C19.9152 18.8526 19.9325 18.8505 19.9496 18.8479C19.9667 18.8454 19.9837 18.8424 20.0008 18.839C20.0178 18.8357 20.0348 18.8319 20.0516 18.8276C20.0684 18.8234 20.0852 18.8188 20.1017 18.8137C20.1183 18.8087 20.1348 18.8033 20.1512 18.7974C20.1676 18.7916 20.1838 18.7853 20.1998 18.7787C20.2158 18.772 20.2316 18.765 20.2474 18.7576C20.2631 18.7502 20.2786 18.7424 20.2938 18.7342C20.3091 18.726 20.3243 18.7174 20.3392 18.7085C20.354 18.6996 20.3687 18.6903 20.3831 18.6807C20.3976 18.671 20.4118 18.661 20.4257 18.6507C20.4395 18.6404 20.4532 18.6297 20.4668 18.6187C20.4802 18.6077 20.4932 18.5963 20.5061 18.5847C20.519 18.573 20.5316 18.561 20.5438 18.5488C20.5561 18.5365 20.5681 18.5239 20.5797 18.5111C20.5913 18.4982 20.6027 18.4851 20.6137 18.4716C20.6248 18.4582 20.6355 18.4446 20.6458 18.4306C20.6561 18.4167 20.6661 18.4025 20.6757 18.3881C20.6853 18.3736 20.6946 18.359 20.7036 18.3441C20.7126 18.3292 20.7211 18.3141 20.7292 18.2988C20.7374 18.2835 20.7452 18.268 20.7527 18.2523C20.7601 18.2366 20.7671 18.2207 20.7738 18.2047C20.7805 18.1886 20.7867 18.1725 20.7925 18.1561C20.7983 18.1398 20.8038 18.1233 20.8089 18.1067C20.8139 18.0901 20.8185 18.0734 20.8227 18.0565C20.827 18.0397 20.8307 18.0227 20.8342 18.0057C20.8376 17.9887 20.8405 17.9716 20.843 17.9544C20.8456 17.9373 20.8477 17.92 20.8493 17.9028C20.8511 17.8855 20.8524 17.8682 20.8533 17.8508C20.8541 17.8335 20.8546 17.8162 20.8546 17.7988L20.8546 6.34431C20.8546 6.32696 20.8541 6.30961 20.8533 6.29226C20.8524 6.27493 20.8511 6.25763 20.8493 6.24035C20.8477 6.22308 20.8456 6.20586 20.843 6.18869C20.8405 6.17153 20.8376 6.15442 20.8342 6.1374C20.8307 6.12038 20.827 6.10344 20.8227 6.08661C20.8185 6.06977 20.8139 6.05304 20.8089 6.03644C20.8038 6.01983 20.7983 6.00334 20.7925 5.98701C20.7867 5.97067 20.7805 5.95448 20.7738 5.93844C20.7671 5.92239 20.7601 5.90653 20.7527 5.89085C20.7452 5.87516 20.7374 5.85966 20.7292 5.84435C20.7211 5.82904 20.7126 5.81394 20.7036 5.79906C20.6946 5.78416 20.6853 5.7695 20.6757 5.75508C20.6661 5.74063 20.6561 5.72645 20.6458 5.71251C20.6355 5.69857 20.6248 5.6849 20.6137 5.67147C20.6027 5.65805 20.5913 5.64491 20.5797 5.63205C20.5681 5.61919 20.5561 5.60663 20.5438 5.59435C20.5316 5.58208 20.519 5.57011 20.5061 5.55846C20.4932 5.5468 20.4802 5.53547 20.4668 5.52445C20.4532 5.51344 20.4395 5.50277 20.4257 5.49243C20.4118 5.48209 20.3976 5.4721 20.3831 5.46245C20.3687 5.45281 20.354 5.44353 20.3392 5.4346C20.3243 5.42568 20.3091 5.41713 20.2938 5.40894C20.2786 5.40076 20.2631 5.39296 20.2474 5.38554C20.2316 5.37812 20.2158 5.37108 20.1998 5.36444C20.1838 5.3578 20.1676 5.35155 20.1512 5.34571C20.1348 5.33986 20.1183 5.33441 20.1017 5.32938C20.0852 5.32434 20.0684 5.31971 20.0516 5.31549C20.0348 5.31128 20.0178 5.30747 20.0008 5.30409C19.9837 5.3007 19.9667 5.29773 19.9496 5.29519C19.9325 5.29264 19.9152 5.29052 19.8979 5.28882C19.8806 5.28711 19.8633 5.28584 19.846 5.28499C19.8287 5.28413 19.8114 5.28371 19.7939 5.28371L4.097 5.28371Z" stroke="rgba(3, 79, 161, 1)" stroke-width="0.6"      fill="#034FA1" ></path></svg>