<svg xmlns="http://www.w3.org/2000/svg" xmlns:xlink="http://www.w3.org/1999/xlink" width="24" height="24" viewBox="0 0 24 24" fill="none"><path d="M5.16319 22.0064C3.7277 22.0064 2.55664 20.8354 2.55664 19.3999L2.55664 19.3404C2.60755 15.7059 4.84715 12.5294 8.26786 11.2262L8.25846 11.2262L8.24906 11.2137C6.96629 10.1346 6.27382 8.65006 6.29415 7.03133C6.31455 5.64675 6.87307 4.33146 7.86058 3.34394C8.83794 2.35641 10.1109 1.81824 11.4446 1.81824L11.5041 1.81824C12.9396 1.83859 14.2752 2.40813 15.2729 3.416C16.2707 4.42389 16.7994 5.74858 16.7893 7.15351C16.7689 8.75189 16.0168 10.2575 14.7341 11.2858L14.449 11.4988C13.6956 12.1402 12.3507 12.3157 11.6075 12.3666L11.5856 12.3666L10.5893 12.3541C7.08716 12.5068 4.08235 15.7145 4.04162 19.3592L4.04162 19.3905C4.04162 19.8995 4.67293 20.5309 5.18198 20.5309L11.6983 20.6123C11.9325 20.6123 12.1362 20.6828 12.2685 20.8253C12.4009 20.9577 12.4628 21.152 12.4628 21.3861C12.4526 21.8239 12.1479 22.0973 11.6796 22.0973L5.16319 22.0064ZM11.5981 3.31575C9.53139 3.31575 7.82141 4.99364 7.80106 7.05013C7.78069 8.04784 8.16611 9.00514 8.87877 9.73812C9.59142 10.4711 10.5377 10.8777 11.5354 10.8879L11.5981 10.8879C13.6444 10.8879 15.3325 9.21002 15.3732 7.15351C15.3936 6.1558 15.0081 5.1985 14.2955 4.46551C13.5829 3.73252 12.6366 3.32594 11.6388 3.31575L11.5981 3.31575Z" stroke="rgba(3, 79, 161, 1)" stroke-width="0.1"      fill="#034FA1" ></path><path d="M16.8014 22.1818C16.5417 22.1818 16.2808 22.1146 16.049 21.9813L13.0112 20.2265C12.5477 19.9589 12.2588 19.4594 12.2588 18.9241L12.2588 15.4145C12.2588 14.8793 12.5466 14.3798 13.0112 14.1122L16.049 12.3573C16.5126 12.0897 17.0892 12.0897 17.5528 12.3573L20.5917 14.1122C21.0552 14.3798 21.3441 14.8793 21.3441 15.4145L21.3441 18.9241C21.3441 19.4594 21.0563 19.9589 20.5917 20.2265L17.5539 21.9813C17.3221 22.1146 17.0612 22.1818 16.8014 22.1818ZM16.8014 13.1603C16.7152 13.1603 16.629 13.1827 16.5518 13.2275L13.5129 14.9823C13.3583 15.0707 13.2632 15.2365 13.2632 15.4145L13.2632 18.9241C13.2632 19.1022 13.3583 19.2679 13.5129 19.3564L16.5518 21.1112C16.7063 21.1997 16.8966 21.1997 17.0511 21.1112L20.09 19.3564C20.2446 19.2679 20.3397 19.1022 20.3397 18.9241L20.3397 15.4145C20.3397 15.2365 20.2446 15.0707 20.09 14.9823L17.0511 13.2275C16.9739 13.1827 16.8877 13.1603 16.8014 13.1603Z"   fill="#CC4E1D" ></path><path d="M16.2944 17.5124L14.7364 16.697C14.4624 16.5407 14.3717 16.194 14.5296 15.9232C14.6876 15.6523 15.0358 15.5602 15.3097 15.7164L16.895 16.534L18.3706 15.7633C18.6432 15.6059 18.9945 15.6942 19.1538 15.9638C19.313 16.2335 19.2197 16.5802 18.947 16.7377L17.4379 17.5391L17.4379 19.3562C17.4379 19.6674 17.1837 19.9233 16.8677 19.9233C16.5517 19.9233 16.2944 19.6687 16.2944 19.3562L16.2944 17.5124Z" fill-rule="evenodd"  fill="#CC4E1D" ></path></svg>