<svg xmlns="http://www.w3.org/2000/svg" xmlns:xlink="http://www.w3.org/1999/xlink" width="24" height="24" viewBox="0 0 24 24" fill="none"><path   fill="rgba(3, 79, 161, 1)"  d="M22.5627 7.51836L22.5627 16.4817Q22.5627 17.2319 22.1876 17.8817Q21.8125 18.5314 21.1627 18.9066L13.4003 23.3882Q12.7505 23.7633 12.0003 23.7633Q11.25 23.7633 10.6003 23.3882L2.8378 18.9066Q2.18806 18.5314 1.81293 17.8817Q1.4378 17.2319 1.4378 16.4817L1.4378 7.51836Q1.4378 6.7681 1.81293 6.11836Q2.18806 5.46862 2.8378 5.09349L10.6003 0.611825Q11.25 0.236696 12.0003 0.236696Q12.7505 0.236696 13.4003 0.611825L21.1627 5.09349Q21.8125 5.46862 22.1876 6.11836Q22.5627 6.7681 22.5627 7.51836ZM20.9627 7.51836Q20.9627 7.19682 20.802 6.91836Q20.6412 6.6399 20.3627 6.47913L12.6003 1.99747Q12.3218 1.8367 12.0003 1.8367Q11.6787 1.8367 11.4003 1.99747L3.6378 6.47913Q3.35934 6.6399 3.19857 6.91836Q3.0378 7.19682 3.0378 7.51836L3.0378 16.4817Q3.0378 16.8032 3.19857 17.0817Q3.35934 17.3601 3.6378 17.5209L11.4003 22.0026Q11.6787 22.1633 12.0003 22.1633Q12.3218 22.1633 12.6003 22.0026L20.3627 17.5209Q20.6412 17.3601 20.802 17.0817Q20.9627 16.8032 20.9627 16.4817L20.9627 7.51836Z"></path><path d="M14.0953 7.72835C14.0953 7.71811 14.0956 7.70787 14.0961 7.69762C14.0966 7.68738 14.0974 7.67717 14.0984 7.66696C14.0994 7.65677 14.1007 7.6466 14.1022 7.63646C14.1037 7.62632 14.1055 7.61622 14.1076 7.60618C14.1096 7.59612 14.1119 7.58612 14.1144 7.57618C14.1169 7.56624 14.1197 7.55636 14.1227 7.54655C14.1258 7.53675 14.129 7.52702 14.1325 7.51736C14.136 7.50772 14.1398 7.49816 14.1438 7.48869C14.1478 7.47923 14.152 7.46986 14.1564 7.46058C14.1609 7.45132 14.1656 7.44217 14.1705 7.43313C14.1754 7.42409 14.1805 7.41518 14.1859 7.40639C14.1912 7.39759 14.1968 7.38894 14.2026 7.38042C14.2084 7.3719 14.2144 7.36351 14.2206 7.35528C14.2268 7.34705 14.2332 7.33897 14.2398 7.33105C14.2464 7.32313 14.2532 7.31537 14.2602 7.30778C14.2672 7.30018 14.2744 7.29276 14.2817 7.28552C14.2891 7.27827 14.2966 7.27121 14.3044 7.26432C14.3121 7.25744 14.32 7.25075 14.328 7.24425C14.3361 7.23774 14.3443 7.23144 14.3526 7.22533C14.361 7.21923 14.3695 7.21332 14.3782 7.20763C14.3868 7.20194 14.3956 7.19646 14.4046 7.19119C14.4135 7.18592 14.4226 7.18087 14.4318 7.17604C14.4409 7.1712 14.4502 7.1666 14.4596 7.16222C14.4691 7.15784 14.4786 7.15369 14.4882 7.14976C14.4978 7.14584 14.5076 7.14215 14.5174 7.1387C14.5272 7.13525 14.5371 7.13203 14.547 7.12906C14.557 7.12608 14.567 7.12335 14.5771 7.12086C14.5872 7.11837 14.5974 7.11612 14.6076 7.11412C14.6178 7.11212 14.6281 7.11037 14.6384 7.10887C14.6487 7.10737 14.659 7.10611 14.6694 7.1051C14.6798 7.1041 14.6901 7.10335 14.7005 7.10285C14.7109 7.10234 14.7214 7.10209 14.7318 7.10209L16.4289 7.10209C16.4393 7.1021 16.4497 7.10235 16.4602 7.10286C16.4706 7.10336 16.4809 7.10412 16.4913 7.10513C16.5016 7.10614 16.512 7.1074 16.5223 7.10891C16.5326 7.11042 16.5428 7.11217 16.553 7.11417C16.5633 7.11618 16.5734 7.11843 16.5835 7.12092C16.5936 7.12341 16.6036 7.12615 16.6136 7.12912C16.6236 7.13211 16.6335 7.13532 16.6433 7.13878C16.653 7.14223 16.6628 7.14592 16.6724 7.14985C16.682 7.15378 16.6915 7.15793 16.7009 7.16231C16.7103 7.1667 16.7196 7.1713 16.7288 7.17613C16.738 7.18097 16.7471 7.18602 16.756 7.19129C16.7649 7.19656 16.7737 7.20205 16.7824 7.20774C16.791 7.21343 16.7995 7.21933 16.8079 7.22544C16.8163 7.23154 16.8245 7.23785 16.8325 7.24435C16.8406 7.25085 16.8484 7.25754 16.8562 7.26443C16.8639 7.27131 16.8714 7.27838 16.8788 7.28562C16.8861 7.29287 16.8933 7.30029 16.9003 7.30788C16.9073 7.31547 16.9141 7.32324 16.9207 7.33116C16.9273 7.33908 16.9337 7.34715 16.9399 7.35539C16.9461 7.36362 16.9521 7.37199 16.9579 7.38051C16.9636 7.38903 16.9692 7.39768 16.9746 7.40648C16.9799 7.41526 16.985 7.42417 16.99 7.43321C16.9949 7.44225 16.9995 7.4514 17.004 7.46066C17.0084 7.46993 17.0126 7.47929 17.0166 7.48877C17.0206 7.49823 17.0244 7.50779 17.0279 7.51743C17.0314 7.52707 17.0346 7.53681 17.0377 7.54662C17.0407 7.55642 17.0435 7.56629 17.046 7.57622C17.0485 7.58616 17.0508 7.59616 17.0528 7.60622C17.0549 7.61626 17.0566 7.62635 17.0582 7.63649C17.0597 7.64662 17.061 7.65679 17.062 7.66699C17.063 7.67718 17.0638 7.6874 17.0643 7.69762C17.0648 7.70787 17.0651 7.71811 17.0651 7.72835C17.0651 7.73859 17.0648 7.74883 17.0643 7.75908C17.0638 7.7693 17.063 7.77952 17.062 7.78971C17.061 7.79991 17.0597 7.81008 17.0582 7.82021C17.0566 7.83035 17.0549 7.84044 17.0528 7.85048C17.0508 7.86054 17.0485 7.87054 17.046 7.88047C17.0435 7.89041 17.0407 7.90028 17.0377 7.91008C17.0346 7.91989 17.0314 7.92963 17.0279 7.93927C17.0244 7.94891 17.0206 7.95847 17.0166 7.96793C17.0126 7.97741 17.0084 7.98677 17.004 7.99604C16.9995 8.0053 16.9949 8.01445 16.99 8.02349C16.985 8.03253 16.9799 8.04144 16.9746 8.05022C16.9692 8.05902 16.9636 8.06767 16.9579 8.07619C16.9521 8.08471 16.9461 8.09308 16.9399 8.10131C16.9337 8.10955 16.9273 8.11762 16.9207 8.12554C16.9141 8.13346 16.9073 8.14123 16.9003 8.14882C16.8933 8.15641 16.8861 8.16384 16.8788 8.17108C16.8714 8.17832 16.8639 8.18539 16.8562 8.19227C16.8484 8.19915 16.8406 8.20585 16.8325 8.21235C16.8245 8.21886 16.8163 8.22516 16.8079 8.23126C16.7995 8.23737 16.791 8.24327 16.7824 8.24896C16.7737 8.25466 16.7649 8.26014 16.756 8.26541C16.7471 8.27068 16.738 8.27573 16.7288 8.28057C16.7196 8.2854 16.7103 8.29 16.7009 8.29439C16.6915 8.29877 16.682 8.30293 16.6724 8.30686C16.6628 8.31079 16.6531 8.31447 16.6433 8.31792C16.6335 8.32138 16.6236 8.32459 16.6136 8.32758C16.6036 8.33055 16.5936 8.33329 16.5835 8.33578C16.5734 8.33828 16.5633 8.34052 16.553 8.34253C16.5428 8.34453 16.5326 8.34629 16.5223 8.34779C16.512 8.3493 16.5016 8.35057 16.4913 8.35157C16.4809 8.35258 16.4706 8.35333 16.4601 8.35384C16.4497 8.35435 16.4393 8.3546 16.4289 8.35461L14.7318 8.35461C14.7214 8.35461 14.7109 8.35436 14.7005 8.35385C14.6901 8.35335 14.6798 8.3526 14.6694 8.3516C14.659 8.35059 14.6487 8.34933 14.6384 8.34783C14.6281 8.34633 14.6178 8.34458 14.6076 8.34258C14.5974 8.34059 14.5872 8.33834 14.5771 8.33585C14.567 8.33336 14.557 8.33062 14.547 8.32764C14.5371 8.32467 14.5272 8.32146 14.5174 8.318C14.5076 8.31454 14.4978 8.31086 14.4882 8.30694C14.4786 8.30301 14.4691 8.29886 14.4596 8.29448C14.4502 8.29011 14.4409 8.2855 14.4318 8.28066C14.4226 8.27583 14.4135 8.27078 14.4046 8.26551C14.3956 8.26024 14.3868 8.25476 14.3782 8.24907C14.3695 8.24337 14.361 8.23747 14.3526 8.23137C14.3443 8.22526 14.3361 8.21896 14.328 8.21246C14.32 8.20595 14.3121 8.19926 14.3044 8.19238C14.2966 8.18549 14.2891 8.17842 14.2817 8.17118C14.2744 8.16394 14.2672 8.15652 14.2602 8.14892C14.2532 8.14133 14.2464 8.13357 14.2398 8.12565C14.2332 8.11773 14.2268 8.10965 14.2206 8.10142C14.2144 8.09319 14.2084 8.0848 14.2026 8.07628C14.1968 8.06776 14.1912 8.05911 14.1859 8.05031C14.1805 8.04152 14.1754 8.03261 14.1705 8.02357C14.1656 8.01453 14.1609 8.00538 14.1564 7.99612C14.152 7.98684 14.1478 7.97747 14.1438 7.96801C14.1398 7.95854 14.136 7.94898 14.1325 7.93933C14.129 7.92968 14.1258 7.91995 14.1227 7.91015C14.1197 7.90034 14.1169 7.89046 14.1144 7.88052C14.1119 7.87058 14.1096 7.86058 14.1076 7.85052C14.1055 7.84048 14.1037 7.83038 14.1022 7.82024C14.1007 7.8101 14.0994 7.79993 14.0984 7.78974C14.0974 7.77953 14.0966 7.76932 14.0961 7.75908C14.0956 7.74883 14.0953 7.73859 14.0953 7.72835ZM12.4694 5.98901C12.4799 5.98901 12.4903 5.98926 12.5007 5.98977C12.5111 5.99027 12.5215 5.99102 12.5318 5.99203C12.5422 5.99303 12.5525 5.99429 12.5628 5.99579C12.5731 5.9973 12.5834 5.99905 12.5936 6.00105C12.6038 6.00305 12.614 6.00529 12.6241 6.00778C12.6342 6.01027 12.6442 6.01301 12.6542 6.01598C12.6642 6.01896 12.674 6.02217 12.6839 6.02562C12.6937 6.02907 12.7034 6.03276 12.713 6.03668C12.7226 6.04061 12.7321 6.04476 12.7416 6.04914C12.751 6.05352 12.7603 6.05813 12.7695 6.06296C12.7786 6.06779 12.7877 6.07284 12.7966 6.07811C12.8056 6.08338 12.8144 6.08886 12.823 6.09456C12.8317 6.10025 12.8402 6.10615 12.8486 6.11226C12.8569 6.11836 12.8651 6.12467 12.8732 6.13117C12.8813 6.13767 12.8891 6.14436 12.8969 6.15125C12.9046 6.15813 12.9121 6.16519 12.9195 6.17244C12.9268 6.17969 12.934 6.18711 12.941 6.1947C12.948 6.2023 12.9548 6.21006 12.9614 6.21798C12.968 6.2259 12.9744 6.23398 12.9806 6.24221C12.9868 6.25045 12.9928 6.25882 12.9986 6.26735C13.0044 6.27586 13.01 6.28452 13.0153 6.29331C13.0207 6.3021 13.0258 6.31102 13.0307 6.32006C13.0356 6.3291 13.0403 6.33825 13.0448 6.34751C13.0492 6.35678 13.0534 6.36615 13.0574 6.37561C13.0614 6.38508 13.0652 6.39464 13.0687 6.40429C13.0722 6.41395 13.0755 6.42367 13.0785 6.43348C13.0815 6.44329 13.0843 6.45316 13.0868 6.46311C13.0893 6.47305 13.0916 6.48305 13.0937 6.4931C13.0957 6.50315 13.0975 6.51324 13.099 6.52338C13.1005 6.53353 13.1018 6.54369 13.1028 6.55389C13.1038 6.56409 13.1046 6.57431 13.1051 6.58455C13.1056 6.59479 13.1059 6.60503 13.1059 6.61527L13.1059 8.84226C13.1059 8.8525 13.1056 8.86274 13.1051 8.87299C13.1046 8.88323 13.1038 8.89344 13.1028 8.90365C13.1018 8.91384 13.1005 8.92401 13.099 8.93415C13.0975 8.94429 13.0957 8.95439 13.0937 8.96443C13.0916 8.97449 13.0893 8.98449 13.0868 8.99443C13.0843 9.00437 13.0815 9.01425 13.0785 9.02406C13.0755 9.03386 13.0722 9.04359 13.0687 9.05324C13.0652 9.06289 13.0614 9.07245 13.0574 9.08192C13.0534 9.09138 13.0492 9.10075 13.0448 9.11003C13.0403 9.11929 13.0356 9.12844 13.0307 9.13748C13.0258 9.14652 13.0207 9.15543 13.0153 9.16422C13.01 9.17302 13.0044 9.18167 12.9986 9.19019C12.9928 9.19871 12.9868 9.20708 12.9806 9.21532C12.9744 9.22355 12.968 9.23164 12.9614 9.23956C12.9548 9.24748 12.948 9.25524 12.941 9.26283C12.934 9.27043 12.9268 9.27785 12.9195 9.28509C12.9121 9.29233 12.9046 9.2994 12.8969 9.30629C12.8891 9.31317 12.8813 9.31986 12.8732 9.32636C12.8651 9.33287 12.8569 9.33917 12.8486 9.34528C12.8402 9.35138 12.8317 9.35728 12.823 9.36298C12.8144 9.36867 12.8056 9.37415 12.7966 9.37942C12.7877 9.38469 12.7786 9.38974 12.7695 9.39457C12.7603 9.39941 12.751 9.40402 12.7416 9.40839C12.7321 9.41277 12.7226 9.41692 12.713 9.42085C12.7034 9.42477 12.6937 9.42845 12.6839 9.43191C12.674 9.43537 12.6642 9.43858 12.6542 9.44155C12.6442 9.44453 12.6342 9.44725 12.6241 9.44975C12.614 9.45224 12.6038 9.4545 12.5936 9.45649C12.5834 9.45849 12.5731 9.46024 12.5628 9.46174C12.5525 9.46324 12.5422 9.4645 12.5318 9.46551C12.5215 9.46651 12.5111 9.46726 12.5007 9.46776C12.4903 9.46827 12.4799 9.46852 12.4694 9.46852C12.459 9.46852 12.4486 9.46827 12.4382 9.46776C12.4278 9.46726 12.4174 9.46651 12.4071 9.46551C12.3967 9.4645 12.3864 9.46324 12.3761 9.46174C12.3658 9.46024 12.3555 9.45849 12.3453 9.45649C12.3351 9.4545 12.3249 9.45225 12.3148 9.44976C12.3047 9.44727 12.2947 9.44453 12.2847 9.44155C12.2747 9.43858 12.2648 9.43537 12.255 9.43191C12.2452 9.42845 12.2355 9.42477 12.2259 9.42085C12.2163 9.41692 12.2067 9.41277 12.1973 9.40839C12.1879 9.40402 12.1786 9.39941 12.1694 9.39457C12.1602 9.38974 12.1512 9.38469 12.1423 9.37942C12.1333 9.37415 12.1245 9.36867 12.1159 9.36298C12.1072 9.35728 12.0987 9.35138 12.0903 9.34528C12.082 9.33917 12.0737 9.33287 12.0657 9.32636C12.0576 9.31986 12.0498 9.31317 12.042 9.30629C12.0343 9.2994 12.0268 9.29233 12.0194 9.28509C12.0121 9.27785 12.0049 9.27043 11.9979 9.26283C11.9909 9.25524 11.9841 9.24748 11.9775 9.23956C11.9709 9.23164 11.9645 9.22356 11.9583 9.21533C11.952 9.2071 11.9461 9.19871 11.9403 9.19019C11.9345 9.18167 11.9289 9.17302 11.9236 9.16422C11.9182 9.15543 11.9131 9.14652 11.9082 9.13748C11.9032 9.12844 11.8986 9.11929 11.8941 9.11003C11.8897 9.10075 11.8854 9.09138 11.8815 9.08192C11.8775 9.07245 11.8737 9.06289 11.8702 9.05324C11.8667 9.04359 11.8634 9.03386 11.8604 9.02406C11.8574 9.01425 11.8546 9.00437 11.8521 8.99443C11.8495 8.98449 11.8473 8.97449 11.8452 8.96443C11.8432 8.95439 11.8414 8.94429 11.8399 8.93415C11.8384 8.92401 11.8371 8.91384 11.8361 8.90365C11.8351 8.89344 11.8343 8.88323 11.8338 8.87299C11.8333 8.86274 11.833 8.8525 11.833 8.84226L11.833 6.61527C11.833 6.60503 11.8333 6.59479 11.8338 6.58455C11.8343 6.57431 11.8351 6.56409 11.8361 6.55389C11.8371 6.54369 11.8384 6.53353 11.8399 6.52338C11.8414 6.51324 11.8432 6.50315 11.8452 6.4931C11.8473 6.48305 11.8496 6.47305 11.8521 6.46311C11.8546 6.45316 11.8574 6.44329 11.8604 6.43348C11.8634 6.42367 11.8667 6.41395 11.8702 6.40429C11.8737 6.39464 11.8775 6.38508 11.8815 6.37561C11.8854 6.36615 11.8897 6.35678 11.8941 6.34751C11.8986 6.33825 11.9032 6.3291 11.9082 6.32006C11.9131 6.31102 11.9182 6.3021 11.9236 6.29331C11.9289 6.28452 11.9345 6.27586 11.9403 6.26735C11.9461 6.25882 11.952 6.25045 11.9583 6.24221C11.9645 6.23398 11.9709 6.2259 11.9775 6.21798C11.9841 6.21006 11.9909 6.2023 11.9979 6.1947C12.0049 6.18711 12.0121 6.17969 12.0194 6.17244C12.0268 6.16519 12.0343 6.15813 12.042 6.15125C12.0498 6.14436 12.0576 6.13767 12.0657 6.13117C12.0737 6.12467 12.082 6.11836 12.0903 6.11226C12.0987 6.10615 12.1072 6.10025 12.1159 6.09456C12.1245 6.08886 12.1333 6.08338 12.1423 6.07811C12.1512 6.07284 12.1602 6.06779 12.1694 6.06296C12.1786 6.05813 12.1879 6.05352 12.1973 6.04914C12.2068 6.04476 12.2163 6.04061 12.2259 6.03668C12.2355 6.03276 12.2452 6.02908 12.255 6.02562C12.2648 6.02217 12.2747 6.01896 12.2847 6.01598C12.2947 6.01301 12.3047 6.01027 12.3148 6.00778C12.3249 6.00529 12.3351 6.00305 12.3453 6.00105C12.3555 5.99905 12.3658 5.9973 12.3761 5.99579C12.3864 5.99429 12.3967 5.99303 12.4071 5.99203C12.4174 5.99102 12.4278 5.99027 12.4382 5.98977C12.4486 5.98926 12.459 5.98901 12.4694 5.98901Z" stroke="rgba(3, 79, 161, 1)" stroke-width="0.4"      fill="#034FA1" ></path><path d="M5.61035 11.9996C5.61035 11.9894 5.61035 11.9786 5.61035 11.9683C5.61035 11.9581 5.61035 11.9472 5.61035 11.937C5.61035 11.9268 5.61668 11.9221 5.61668 11.912C5.61668 11.9018 5.62301 11.8907 5.62301 11.8806C5.62301 11.8706 5.62933 11.8593 5.62933 11.8493C5.62933 11.8394 5.63566 11.8278 5.63566 11.818C5.63566 11.8082 5.64832 11.8026 5.64832 11.793C5.64832 11.7833 5.66097 11.7711 5.66097 11.7617C5.66097 11.7522 5.67362 11.7459 5.67362 11.7366C5.67362 11.7273 5.68628 11.7143 5.68628 11.7053C5.68628 11.6963 5.69893 11.689 5.69893 11.6802C5.69893 11.6714 5.71792 11.6637 5.71792 11.6552C5.71792 11.6467 5.7369 11.6384 5.7369 11.6301C5.7369 11.6219 5.74927 11.613 5.75588 11.6051C5.76249 11.5972 5.76787 11.5876 5.77486 11.58C5.78186 11.5724 5.78648 11.5685 5.79384 11.5613C5.80121 11.554 5.81143 11.5431 5.81915 11.5362C5.82687 11.5293 5.83641 11.5239 5.84446 11.5174C5.85251 11.5109 5.86141 11.4986 5.86977 11.4986C5.87814 11.4986 5.88642 11.4798 5.89508 11.4798C5.90374 11.4798 5.91146 11.4611 5.92039 11.4611C5.92932 11.4611 5.93651 11.4485 5.9457 11.4485C5.95488 11.4485 5.96792 11.436 5.97734 11.436C5.98675 11.436 5.99302 11.4235 6.00264 11.4235C6.01227 11.4235 6.02448 11.411 6.03428 11.411C6.04409 11.411 6.04963 11.4047 6.05959 11.4047C6.06956 11.4047 6.08112 11.3922 6.09123 11.3922C6.10133 11.3922 6.11264 11.3859 6.12286 11.3859C6.13307 11.3859 6.14419 11.3796 6.1545 11.3796C6.16481 11.3796 6.17578 11.3796 6.18614 11.3796C6.19651 11.3796 6.20737 11.3734 6.21777 11.3734C6.22818 11.3734 6.239 11.3734 6.24941 11.3734L8.50826 11.3734C8.51867 11.3734 8.52949 11.3734 8.53989 11.3734C8.5503 11.3734 8.56116 11.3796 8.57153 11.3796C8.5819 11.3796 8.59286 11.3796 8.60317 11.3796C8.61347 11.3796 8.62459 11.3859 8.6348 11.3859C8.64503 11.3859 8.65634 11.3922 8.66644 11.3922C8.67654 11.3922 8.68178 11.4047 8.69175 11.4047C8.70171 11.4047 8.71357 11.411 8.72339 11.411C8.73318 11.411 8.7454 11.4235 8.75502 11.4235C8.76464 11.4235 8.7709 11.436 8.78033 11.436C8.78975 11.436 8.80278 11.4485 8.81197 11.4485C8.82116 11.4485 8.82834 11.4611 8.83728 11.4611C8.84621 11.4611 8.85393 11.4798 8.86259 11.4798C8.87124 11.4798 8.87953 11.4986 8.8879 11.4986C8.89626 11.4986 8.90516 11.5109 8.9132 11.5174C8.92125 11.5239 8.9308 11.5293 8.93851 11.5362C8.94623 11.5431 8.95014 11.554 8.9575 11.5613C8.96485 11.5685 8.9758 11.5724 8.98281 11.58C8.98979 11.5876 8.99518 11.5972 9.00179 11.6051C9.0084 11.613 9.02077 11.6219 9.02077 11.6301C9.02077 11.6384 9.03975 11.6467 9.03975 11.6552C9.03975 11.6637 9.05873 11.6714 9.05873 11.6802C9.05873 11.689 9.07139 11.6963 9.07139 11.7053C9.07139 11.7143 9.08404 11.7273 9.08404 11.7366C9.08404 11.7459 9.0967 11.7522 9.0967 11.7617C9.0967 11.7711 9.10935 11.7833 9.10935 11.793C9.10935 11.8026 9.12201 11.8082 9.12201 11.818C9.12201 11.8278 9.12833 11.8394 9.12833 11.8493C9.12833 11.8593 9.13466 11.8706 9.13466 11.8806C9.13466 11.8907 9.14099 11.9018 9.14099 11.912C9.14099 11.9221 9.14099 11.9268 9.14099 11.937C9.14099 11.9472 9.14732 11.9581 9.14732 11.9683C9.14732 11.9786 9.14732 11.9894 9.14732 11.9996C9.14732 12.0099 9.14732 12.0207 9.14732 12.031C9.14732 12.0412 9.14099 12.0521 9.14099 12.0623C9.14099 12.0725 9.14099 12.0834 9.14099 12.0936C9.14099 12.1037 9.13466 12.1148 9.13466 12.1249C9.13466 12.1349 9.12833 12.1463 9.12833 12.1562C9.12833 12.1661 9.12201 12.1714 9.12201 12.1813C9.12201 12.1911 9.10935 12.2029 9.10935 12.2126C9.10935 12.2222 9.0967 12.2344 9.0967 12.2439C9.0967 12.2533 9.08404 12.2597 9.08404 12.2689C9.08404 12.2782 9.07139 12.2849 9.07139 12.294C9.07139 12.303 9.05873 12.3165 9.05873 12.3253C9.05873 12.3341 9.03975 12.3418 9.03975 12.3503C9.03975 12.3589 9.02077 12.3672 9.02077 12.3754C9.02077 12.3836 9.0084 12.3925 9.00179 12.4004C8.99518 12.4084 8.98979 12.4116 8.98281 12.4192C8.9758 12.4268 8.96485 12.437 8.9575 12.4443C8.95014 12.4515 8.94623 12.4562 8.93851 12.4631C8.9308 12.4699 8.92125 12.4816 8.9132 12.4881C8.90516 12.4946 8.89626 12.5069 8.8879 12.5069C8.87953 12.5069 8.87124 12.5194 8.86259 12.5194C8.85393 12.5194 8.84621 12.5382 8.83728 12.5382C8.82834 12.5382 8.82116 12.5507 8.81197 12.5507C8.80278 12.5507 8.78975 12.5695 8.78033 12.5695C8.7709 12.5695 8.76464 12.5821 8.75502 12.5821C8.7454 12.5821 8.73318 12.5883 8.72339 12.5883C8.71357 12.5883 8.70171 12.6008 8.69175 12.6008C8.68178 12.6008 8.67654 12.6071 8.66644 12.6071C8.65634 12.6071 8.64503 12.6134 8.6348 12.6134C8.62459 12.6134 8.61347 12.6196 8.60317 12.6196C8.59286 12.6196 8.5819 12.6259 8.57153 12.6259C8.56116 12.6259 8.5503 12.6259 8.53989 12.6259C8.52949 12.6259 8.51867 12.6259 8.50826 12.6259L6.24941 12.6259C6.239 12.6259 6.22818 12.6259 6.21777 12.6259C6.20737 12.6259 6.19651 12.6259 6.18614 12.6259C6.17578 12.6259 6.16481 12.6196 6.1545 12.6196C6.14419 12.6196 6.13307 12.6134 6.12286 12.6134C6.11264 12.6134 6.10133 12.6071 6.09123 12.6071C6.08112 12.6071 6.06956 12.6008 6.05959 12.6008C6.04963 12.6008 6.04409 12.5883 6.03428 12.5883C6.02448 12.5883 6.01227 12.5821 6.00264 12.5821C5.99302 12.5821 5.98675 12.5695 5.97734 12.5695C5.96792 12.5695 5.95488 12.5507 5.9457 12.5507C5.93651 12.5507 5.92932 12.5382 5.92039 12.5382C5.91146 12.5382 5.90374 12.5194 5.89508 12.5194C5.88642 12.5194 5.87814 12.5069 5.86977 12.5069C5.86141 12.5069 5.85251 12.4946 5.84446 12.4881C5.83641 12.4816 5.82687 12.4699 5.81915 12.4631C5.81143 12.4562 5.80121 12.4515 5.79384 12.4443C5.78648 12.437 5.78186 12.4268 5.77486 12.4192C5.76787 12.4116 5.76249 12.4084 5.75588 12.4004C5.74927 12.3925 5.7369 12.3836 5.7369 12.3754C5.7369 12.3672 5.71792 12.3589 5.71792 12.3503C5.71792 12.3418 5.69893 12.3341 5.69893 12.3253C5.69893 12.3165 5.68628 12.303 5.68628 12.294C5.68628 12.2849 5.67362 12.2782 5.67362 12.2689C5.67362 12.2597 5.66097 12.2533 5.66097 12.2439C5.66097 12.2344 5.64832 12.2222 5.64832 12.2126C5.64832 12.2029 5.63566 12.1911 5.63566 12.1813C5.63566 12.1714 5.62933 12.1661 5.62933 12.1562C5.62933 12.1463 5.62301 12.1349 5.62301 12.1249C5.62301 12.1148 5.61668 12.1037 5.61668 12.0936C5.61668 12.0834 5.61035 12.0725 5.61035 12.0623C5.61035 12.0521 5.61035 12.0412 5.61035 12.031C5.61035 12.0207 5.61035 12.0099 5.61035 11.9996ZM10.7734 10.2649C10.7838 10.2649 10.7947 10.2649 10.8051 10.2649C10.8155 10.2649 10.8263 10.2649 10.8367 10.2649C10.8471 10.2649 10.858 10.2712 10.8683 10.2712C10.8786 10.2712 10.8898 10.2712 10.9 10.2712C10.9102 10.2712 10.9152 10.2837 10.9253 10.2837C10.9354 10.2837 10.947 10.2899 10.9569 10.2899C10.9669 10.2899 10.9787 10.2962 10.9886 10.2962C10.9984 10.2962 11.0042 10.3087 11.0139 10.3087C11.0235 10.3087 11.0361 10.3213 11.0455 10.3213C11.0549 10.3213 11.0616 10.3338 11.0708 10.3338C11.08 10.3338 11.0935 10.3526 11.1025 10.3526C11.1114 10.3526 11.1191 10.3651 11.1278 10.3651C11.1364 10.3651 11.1447 10.3839 11.1531 10.3839C11.1614 10.3839 11.1703 10.3962 11.1784 10.4027C11.1864 10.4092 11.196 10.4146 11.2037 10.4215C11.2114 10.4283 11.2153 10.4393 11.2227 10.4465C11.23 10.4537 11.2347 10.4577 11.2417 10.4653C11.2486 10.4729 11.2603 10.4824 11.267 10.4903C11.2736 10.4983 11.2859 10.5072 11.2859 10.5154C11.2859 10.5236 11.3049 10.5319 11.3049 10.5404C11.3049 10.549 11.3176 10.5567 11.3176 10.5655C11.3176 10.5743 11.3366 10.5815 11.3366 10.5905C11.3366 10.5996 11.3492 10.6126 11.3492 10.6219C11.3492 10.6311 11.3619 10.6375 11.3619 10.6469C11.3619 10.6564 11.3745 10.6686 11.3745 10.6782C11.3745 10.6879 11.3809 10.6997 11.3809 10.7095C11.3809 10.7193 11.3935 10.7246 11.3935 10.7346C11.3935 10.7445 11.3998 10.7558 11.3998 10.7659C11.3998 10.7759 11.3998 10.7871 11.3998 10.7972C11.3998 10.8074 11.4062 10.8183 11.4062 10.8285C11.4062 10.8387 11.4062 10.8496 11.4062 10.8598C11.4062 10.8701 11.4125 10.8809 11.4125 10.8912L11.4125 13.1144C11.4125 13.1246 11.4062 13.1355 11.4062 13.1457C11.4062 13.1559 11.4062 13.1668 11.4062 13.177C11.4062 13.1872 11.3998 13.1982 11.3998 13.2083C11.3998 13.2185 11.3998 13.2296 11.3998 13.2396C11.3998 13.2497 11.3935 13.2547 11.3935 13.2647C11.3935 13.2746 11.3809 13.2862 11.3809 13.296C11.3809 13.3058 11.3745 13.3177 11.3745 13.3273C11.3745 13.337 11.3619 13.3429 11.3619 13.3524C11.3619 13.3618 11.3492 13.3744 11.3492 13.3837C11.3492 13.3929 11.3366 13.3997 11.3366 13.4087C11.3366 13.4178 11.3176 13.425 11.3176 13.4338C11.3176 13.4426 11.3049 13.4566 11.3049 13.4651C11.3049 13.4736 11.2859 13.4819 11.2859 13.4901C11.2859 13.4984 11.2736 13.501 11.267 13.5089C11.2604 13.5168 11.2486 13.5264 11.2417 13.534C11.2347 13.5416 11.23 13.5518 11.2227 13.559C11.2153 13.5663 11.2114 13.5709 11.2037 13.5778C11.196 13.5847 11.1864 13.5901 11.1784 13.5966C11.1703 13.6031 11.1614 13.6154 11.1531 13.6154C11.1447 13.6154 11.1364 13.6342 11.1278 13.6342C11.1191 13.6342 11.1114 13.653 11.1025 13.653C11.0935 13.653 11.08 13.6655 11.0708 13.6655C11.0616 13.6655 11.0549 13.678 11.0455 13.678C11.0361 13.678 11.0235 13.6905 11.0139 13.6905C11.0042 13.6905 10.9984 13.7031 10.9886 13.7031C10.9787 13.7031 10.9669 13.7156 10.9569 13.7156C10.947 13.7156 10.9354 13.7219 10.9253 13.7219C10.9152 13.7219 10.9102 13.7281 10.9 13.7281C10.8898 13.7281 10.8786 13.7344 10.8683 13.7344C10.858 13.7344 10.8471 13.7406 10.8367 13.7406C10.8263 13.7406 10.8155 13.7406 10.8051 13.7406C10.7947 13.7406 10.7838 13.7406 10.7734 13.7406C10.763 13.7406 10.7522 13.7406 10.7418 13.7406C10.7314 13.7406 10.7205 13.7406 10.7102 13.7406C10.6998 13.7406 10.6888 13.7344 10.6785 13.7344C10.6682 13.7344 10.6571 13.7281 10.6469 13.7281C10.6367 13.7281 10.6317 13.7219 10.6216 13.7219C10.6115 13.7219 10.5999 13.7156 10.5899 13.7156C10.58 13.7156 10.5681 13.7031 10.5583 13.7031C10.5485 13.7031 10.5363 13.6905 10.5267 13.6905C10.517 13.6905 10.5108 13.678 10.5014 13.678C10.4919 13.678 10.4852 13.6655 10.476 13.6655C10.4669 13.6655 10.4533 13.653 10.4444 13.653C10.4355 13.653 10.4278 13.6342 10.4191 13.6342C10.4104 13.6342 10.4022 13.6154 10.3938 13.6154C10.3854 13.6154 10.3765 13.6031 10.3685 13.5966C10.3604 13.5901 10.3509 13.5847 10.3432 13.5778C10.3355 13.5709 10.3316 13.5663 10.3242 13.559C10.3168 13.5518 10.3059 13.5416 10.2989 13.534C10.2919 13.5264 10.2865 13.5168 10.2799 13.5089C10.2733 13.501 10.2609 13.4984 10.2609 13.4901C10.2609 13.4819 10.2419 13.4736 10.2419 13.4651C10.2419 13.4566 10.2293 13.4426 10.2293 13.4338C10.2293 13.425 10.2103 13.4178 10.2103 13.4087C10.2103 13.3997 10.1976 13.3929 10.1976 13.3837C10.1976 13.3744 10.185 13.3618 10.185 13.3524C10.185 13.3429 10.1723 13.337 10.1723 13.3273C10.1723 13.3177 10.166 13.3058 10.166 13.296C10.166 13.2862 10.1534 13.2746 10.1534 13.2647C10.1534 13.2547 10.147 13.2497 10.147 13.2396C10.147 13.2296 10.1407 13.2185 10.1407 13.2083C10.1407 13.1982 10.1407 13.1872 10.1407 13.177C10.1407 13.1668 10.1344 13.1559 10.1344 13.1457C10.1344 13.1355 10.1344 13.1246 10.1344 13.1144L10.1344 10.8912C10.1344 10.8809 10.1344 10.8701 10.1344 10.8598C10.1344 10.8496 10.1407 10.8387 10.1407 10.8285C10.1407 10.8183 10.1407 10.8074 10.1407 10.7972C10.1407 10.7871 10.147 10.7759 10.147 10.7659C10.147 10.7558 10.1534 10.7445 10.1534 10.7346C10.1534 10.7246 10.166 10.7193 10.166 10.7095C10.166 10.6997 10.1723 10.6879 10.1723 10.6782C10.1723 10.6686 10.185 10.6564 10.185 10.6469C10.185 10.6375 10.1976 10.6311 10.1976 10.6219C10.1976 10.6126 10.2103 10.5996 10.2103 10.5905C10.2103 10.5815 10.2293 10.5743 10.2293 10.5655C10.2293 10.5567 10.2419 10.549 10.2419 10.5404C10.2419 10.5319 10.2609 10.5236 10.2609 10.5154C10.2609 10.5072 10.2733 10.4983 10.2799 10.4903C10.2865 10.4824 10.2919 10.4729 10.2989 10.4653C10.3059 10.4577 10.3168 10.4537 10.3242 10.4465C10.3316 10.4393 10.3355 10.4283 10.3432 10.4215C10.3509 10.4146 10.3604 10.4092 10.3685 10.4027C10.3765 10.3962 10.3854 10.3839 10.3938 10.3839C10.4022 10.3839 10.4104 10.3651 10.4191 10.3651C10.4278 10.3651 10.4355 10.3526 10.4444 10.3526C10.4533 10.3526 10.4669 10.3338 10.476 10.3338C10.4852 10.3338 10.4919 10.3213 10.5014 10.3213C10.5108 10.3213 10.5171 10.3087 10.5267 10.3087C10.5363 10.3087 10.5485 10.2962 10.5583 10.2962C10.5681 10.2962 10.58 10.2899 10.5899 10.2899C10.5999 10.2899 10.6115 10.2837 10.6216 10.2837C10.6317 10.2837 10.6367 10.2712 10.6469 10.2712C10.6571 10.2712 10.6682 10.2712 10.6785 10.2712C10.6888 10.2712 10.6998 10.2649 10.7102 10.2649C10.7205 10.2649 10.7314 10.2649 10.7418 10.2649C10.7522 10.2649 10.763 10.2649 10.7734 10.2649Z" stroke="rgba(204, 78, 29, 1)" stroke-width="0.4"      fill="#DE5018" ></path><path d="M5.61035 7.72758C5.61035 7.71733 5.61035 7.7065 5.61035 7.69627C5.61035 7.68603 5.61035 7.67516 5.61035 7.66495C5.61035 7.65476 5.61668 7.64378 5.61668 7.63364C5.61668 7.6235 5.62301 7.61237 5.62301 7.60233C5.62301 7.59227 5.62933 7.58722 5.62933 7.57728C5.62933 7.56734 5.63566 7.55578 5.63566 7.54596C5.63566 7.53616 5.64832 7.52431 5.64832 7.51465C5.64832 7.50501 5.66097 7.49907 5.66097 7.4896C5.66097 7.48014 5.67362 7.46756 5.67362 7.45829C5.67362 7.44902 5.68628 7.44227 5.68628 7.43324C5.68628 7.4242 5.69893 7.41698 5.69893 7.40819C5.69893 7.39939 5.71792 7.38539 5.71792 7.37687C5.71792 7.36835 5.7369 7.36006 5.7369 7.35182C5.7369 7.34359 5.74927 7.34096 5.75588 7.33303C5.76249 7.32511 5.76787 7.31558 5.77486 7.30798C5.78186 7.30039 5.78648 7.29018 5.79384 7.28293C5.80121 7.27569 5.81143 7.27104 5.81915 7.26415C5.82687 7.25727 5.83641 7.25186 5.84446 7.24536C5.85251 7.23885 5.86141 7.22657 5.86977 7.22657C5.87814 7.22657 5.88642 7.20778 5.89508 7.20778C5.90374 7.20778 5.91146 7.18899 5.92039 7.18899C5.92932 7.18899 5.93651 7.17647 5.9457 7.17647C5.95488 7.17647 5.96792 7.16394 5.97733 7.16394C5.98675 7.16394 5.99302 7.15142 6.00264 7.15142C6.01227 7.15142 6.02448 7.13889 6.03428 7.13889C6.04409 7.13889 6.04963 7.12637 6.05959 7.12637C6.06956 7.12637 6.08112 7.12011 6.09123 7.12011C6.10133 7.12011 6.11264 7.11384 6.12286 7.11384C6.13307 7.11384 6.14419 7.10758 6.1545 7.10758C6.16481 7.10758 6.17578 7.10132 6.18614 7.10132C6.1965 7.10132 6.20737 7.10132 6.21777 7.10132C6.22818 7.10132 6.239 7.10132 6.24941 7.10132L12.4691 7.10132C12.4796 7.10132 12.4904 7.10132 12.5008 7.10132C12.5112 7.10132 12.5221 7.10132 12.5324 7.10132C12.5428 7.10132 12.5538 7.10758 12.5641 7.10758C12.5744 7.10758 12.5855 7.11384 12.5957 7.11384C12.6059 7.11384 12.6109 7.12011 12.621 7.12011C12.6311 7.12011 12.6427 7.12637 12.6526 7.12637C12.6626 7.12637 12.6745 7.13889 12.6843 7.13889C12.6941 7.13889 12.7063 7.15142 12.7159 7.15142C12.7255 7.15142 12.7318 7.16394 12.7412 7.16394C12.7506 7.16394 12.7573 7.17647 12.7665 7.17647C12.7757 7.17647 12.7892 7.18899 12.7982 7.18899C12.8071 7.18899 12.8148 7.20778 12.8235 7.20778C12.8321 7.20778 12.8404 7.22657 12.8488 7.22657C12.8572 7.22657 12.866 7.23885 12.8741 7.24536C12.8821 7.25186 12.8917 7.25726 12.8994 7.26415C12.9071 7.27103 12.911 7.27569 12.9184 7.28293C12.9257 7.29018 12.9367 7.30039 12.9437 7.30798C12.9507 7.31558 12.9561 7.32511 12.9627 7.33303C12.9693 7.34096 12.9817 7.34359 12.9817 7.35182C12.9817 7.36005 13.0006 7.36835 13.0006 7.37687C13.0006 7.38539 13.0133 7.39939 13.0133 7.40819C13.0133 7.41697 13.0323 7.4242 13.0323 7.43324C13.0323 7.44227 13.0449 7.44902 13.0449 7.45829C13.0449 7.46755 13.0576 7.48013 13.0576 7.4896C13.0576 7.49906 13.0702 7.50501 13.0702 7.51465C13.0702 7.5243 13.0766 7.53615 13.0766 7.54596C13.0766 7.55577 13.0892 7.56734 13.0892 7.57728C13.0892 7.58722 13.0956 7.59227 13.0956 7.60233C13.0956 7.61237 13.0956 7.62351 13.0956 7.63364C13.0956 7.64377 13.1019 7.65475 13.1019 7.66495C13.1019 7.67515 13.1019 7.68604 13.1019 7.69627C13.1019 7.7065 13.1082 7.71733 13.1082 7.72758C13.1082 7.73783 13.1019 7.74865 13.1019 7.75889C13.1019 7.76912 13.1019 7.78001 13.1019 7.79021C13.1019 7.80041 13.0956 7.81139 13.0956 7.82152C13.0956 7.83165 13.0956 7.84279 13.0956 7.85283C13.0956 7.86289 13.0892 7.86795 13.0892 7.87788C13.0892 7.88782 13.0766 7.89939 13.0766 7.9092C13.0766 7.91901 13.0702 7.93086 13.0702 7.94051C13.0702 7.95015 13.0576 7.9561 13.0576 7.96556C13.0576 7.97503 13.0449 7.98761 13.0449 7.99687C13.0449 8.00614 13.0323 8.01289 13.0323 8.02192C13.0323 8.03096 13.0133 8.03819 13.0133 8.04697C13.0133 8.05577 13.0006 8.06977 13.0006 8.07829C13.0006 8.08681 12.9817 8.09511 12.9817 8.10334C12.9817 8.11157 12.9693 8.1142 12.9627 8.12212C12.9561 8.13005 12.9507 8.13958 12.9437 8.14717C12.9367 8.15477 12.9257 8.16498 12.9184 8.17223C12.911 8.17947 12.9071 8.18413 12.8994 8.19101C12.8917 8.1979 12.8821 8.2033 12.8741 8.2098C12.866 8.21631 12.8572 8.22859 12.8488 8.22859C12.8404 8.22859 12.8321 8.24738 12.8235 8.24738C12.8148 8.24738 12.8071 8.26616 12.7982 8.26616C12.7892 8.26616 12.7757 8.27869 12.7665 8.27869C12.7573 8.27869 12.7506 8.29121 12.7412 8.29121C12.7318 8.29121 12.7255 8.30374 12.7159 8.30374C12.7063 8.30374 12.6941 8.31627 12.6843 8.31627C12.6745 8.31627 12.6626 8.32879 12.6526 8.32879C12.6427 8.32879 12.6311 8.33505 12.621 8.33505C12.6109 8.33505 12.6059 8.34132 12.5957 8.34132C12.5855 8.34132 12.5744 8.34758 12.5641 8.34758C12.5538 8.34758 12.5428 8.35384 12.5324 8.35384C12.5221 8.35384 12.5112 8.35384 12.5008 8.35384C12.4904 8.35384 12.4796 8.35384 12.4691 8.35384L6.24941 8.35384C6.239 8.35384 6.22818 8.35384 6.21777 8.35384C6.20737 8.35384 6.1965 8.35384 6.18614 8.35384C6.17578 8.35384 6.16481 8.34758 6.1545 8.34758C6.14419 8.34758 6.13307 8.34132 6.12286 8.34132C6.11264 8.34132 6.10133 8.33505 6.09123 8.33505C6.08112 8.33505 6.06956 8.32879 6.05959 8.32879C6.04963 8.32879 6.04409 8.31627 6.03428 8.31627C6.02448 8.31627 6.01227 8.30374 6.00264 8.30374C5.99302 8.30374 5.98675 8.29121 5.97733 8.29121C5.96792 8.29121 5.95488 8.27869 5.9457 8.27869C5.93651 8.27869 5.92932 8.26616 5.92039 8.26616C5.91146 8.26616 5.90374 8.24738 5.89508 8.24738C5.88642 8.24738 5.87814 8.22859 5.86977 8.22859C5.86141 8.22859 5.85251 8.2163 5.84446 8.2098C5.83641 8.20329 5.82687 8.19789 5.81915 8.19101C5.81143 8.18412 5.80121 8.17947 5.79384 8.17223C5.78648 8.16498 5.78186 8.15477 5.77486 8.14717C5.76787 8.13958 5.76249 8.13005 5.75588 8.12212C5.74927 8.1142 5.7369 8.11157 5.7369 8.10334C5.7369 8.0951 5.71792 8.08681 5.71792 8.07829C5.71792 8.06977 5.69893 8.05577 5.69893 8.04697C5.69893 8.03818 5.68628 8.03096 5.68628 8.02192C5.68628 8.01289 5.67362 8.00614 5.67362 7.99687C5.67362 7.9876 5.66097 7.97502 5.66097 7.96556C5.66097 7.95609 5.64832 7.95015 5.64832 7.94051C5.64832 7.93085 5.63566 7.919 5.63566 7.9092C5.63566 7.89938 5.62933 7.88782 5.62933 7.87788C5.62933 7.86794 5.62301 7.86289 5.62301 7.85283C5.62301 7.84279 5.61668 7.83166 5.61668 7.82152C5.61668 7.81138 5.61035 7.8004 5.61035 7.79021C5.61035 7.78 5.61035 7.76913 5.61035 7.75889C5.61035 7.74865 5.61035 7.73783 5.61035 7.72758Z" stroke="rgba(3, 79, 161, 1)" stroke-width="0.4"      fill="#034FA1" ></path><path d="M14.0982 16.271C14.0982 16.2608 14.0982 16.25 14.0982 16.2397C14.0982 16.2295 14.0982 16.2186 14.0982 16.2084C14.0982 16.1982 14.1045 16.1935 14.1045 16.1834C14.1045 16.1732 14.1108 16.1621 14.1108 16.152C14.1108 16.142 14.1172 16.1307 14.1172 16.1207C14.1172 16.1108 14.1235 16.0992 14.1235 16.0894C14.1235 16.0796 14.1361 16.074 14.1361 16.0644C14.1361 16.0547 14.1425 16.0425 14.1425 16.0331C14.1425 16.0236 14.1551 16.0173 14.1551 16.008C14.1551 15.9987 14.1741 15.9857 14.1741 15.9767C14.1741 15.9677 14.1868 15.9604 14.1868 15.9516C14.1868 15.9428 14.2057 15.9351 14.2057 15.9266C14.2057 15.9181 14.2247 15.9098 14.2247 15.9015C14.2247 15.8933 14.2371 15.8844 14.2437 15.8765C14.2503 15.8686 14.2557 15.859 14.2627 15.8514C14.2697 15.8438 14.2743 15.8399 14.2817 15.8327C14.289 15.8254 14.2993 15.8145 14.307 15.8076C14.3147 15.8007 14.3242 15.7953 14.3323 15.7888C14.3403 15.7823 14.3429 15.77 14.3513 15.77C14.3596 15.77 14.3679 15.7512 14.3766 15.7512C14.3852 15.7512 14.3993 15.7325 14.4082 15.7325C14.4172 15.7325 14.4243 15.7199 14.4335 15.7199C14.4427 15.7199 14.4494 15.7074 14.4588 15.7074C14.4683 15.7074 14.4809 15.6949 14.4905 15.6949C14.5001 15.6949 14.506 15.6824 14.5158 15.6824C14.5256 15.6824 14.5375 15.6761 14.5474 15.6761C14.5574 15.6761 14.569 15.6636 14.5791 15.6636C14.5892 15.6636 14.6005 15.6573 14.6107 15.6573C14.6209 15.6573 14.632 15.651 14.6423 15.651C14.6526 15.651 14.6636 15.651 14.674 15.651C14.6843 15.651 14.6889 15.6448 14.6993 15.6448C14.7097 15.6448 14.7205 15.6448 14.7309 15.6448L16.433 15.6448C16.4434 15.6448 16.4542 15.6448 16.4646 15.6448C16.475 15.6448 16.4795 15.651 16.4899 15.651C16.5003 15.651 16.5112 15.651 16.5215 15.651C16.5318 15.651 16.543 15.6573 16.5532 15.6573C16.5634 15.6573 16.5747 15.6636 16.5848 15.6636C16.5949 15.6636 16.6065 15.6761 16.6164 15.6761C16.6264 15.6761 16.6319 15.6824 16.6418 15.6824C16.6516 15.6824 16.6638 15.6949 16.6734 15.6949C16.683 15.6949 16.6956 15.7074 16.705 15.7074C16.7144 15.7074 16.7211 15.7199 16.7303 15.7199C16.7395 15.7199 16.7467 15.7325 16.7556 15.7325C16.7646 15.7325 16.7723 15.7512 16.781 15.7512C16.7896 15.7512 16.8042 15.77 16.8126 15.77C16.821 15.77 16.8235 15.7823 16.8316 15.7888C16.8396 15.7953 16.8492 15.8007 16.8569 15.8076C16.8646 15.8145 16.8748 15.8254 16.8822 15.8327C16.8896 15.8399 16.8942 15.8438 16.9012 15.8514C16.9082 15.859 16.9135 15.8686 16.9202 15.8765C16.9268 15.8844 16.9391 15.8933 16.9391 15.9015C16.9391 15.9098 16.9581 15.9181 16.9581 15.9266C16.9581 15.9351 16.9771 15.9428 16.9771 15.9516C16.9771 15.9604 16.9898 15.9677 16.9898 15.9767C16.9898 15.9857 17.0087 15.9987 17.0087 16.008C17.0087 16.0173 17.0214 16.0236 17.0214 16.0331C17.0214 16.0425 17.0277 16.0547 17.0277 16.0644C17.0277 16.074 17.0404 16.0796 17.0404 16.0894C17.0404 16.0992 17.0467 16.1108 17.0467 16.1207C17.0467 16.1307 17.053 16.142 17.053 16.152C17.053 16.1621 17.0594 16.1732 17.0594 16.1834C17.0594 16.1935 17.0657 16.1982 17.0657 16.2084C17.0657 16.2186 17.0657 16.2295 17.0657 16.2397C17.0657 16.25 17.0657 16.2608 17.0657 16.271C17.0657 16.2813 17.0657 16.2921 17.0657 16.3023C17.0657 16.3126 17.0657 16.3235 17.0657 16.3337C17.0657 16.3439 17.0594 16.3548 17.0594 16.365C17.0594 16.3751 17.053 16.3862 17.053 16.3963C17.053 16.4063 17.0467 16.4177 17.0467 16.4276C17.0467 16.4375 17.0404 16.4428 17.0404 16.4527C17.0404 16.4625 17.0277 16.4743 17.0277 16.484C17.0277 16.4936 17.0214 16.5058 17.0214 16.5153C17.0214 16.5247 17.0087 16.5311 17.0087 16.5403C17.0087 16.5496 16.9898 16.5563 16.9898 16.5654C16.9898 16.5744 16.9771 16.5879 16.9771 16.5967C16.9771 16.6055 16.9581 16.6132 16.9581 16.6217C16.9581 16.6303 16.9391 16.6386 16.9391 16.6468C16.9391 16.655 16.9268 16.6639 16.9202 16.6718C16.9135 16.6798 16.9082 16.683 16.9012 16.6906C16.8942 16.6982 16.8896 16.7084 16.8822 16.7157C16.8748 16.7229 16.8646 16.7276 16.8569 16.7345C16.8492 16.7413 16.8396 16.753 16.8316 16.7595C16.8235 16.766 16.821 16.7783 16.8126 16.7783C16.8042 16.7783 16.7896 16.7908 16.781 16.7908C16.7723 16.7908 16.7646 16.8096 16.7556 16.8096C16.7467 16.8096 16.7395 16.8221 16.7303 16.8221C16.7211 16.8221 16.7144 16.8409 16.705 16.8409C16.6956 16.8409 16.683 16.8535 16.6734 16.8535C16.6638 16.8535 16.6516 16.8597 16.6418 16.8597C16.6319 16.8597 16.6264 16.8722 16.6164 16.8722C16.6065 16.8722 16.5949 16.8785 16.5848 16.8785C16.5747 16.8785 16.5634 16.8848 16.5532 16.8848C16.543 16.8848 16.5318 16.891 16.5215 16.891C16.5112 16.891 16.5003 16.8973 16.4899 16.8973C16.4795 16.8973 16.475 16.8973 16.4646 16.8973C16.4542 16.8973 16.4434 16.8973 16.433 16.8973L14.7309 16.8973C14.7205 16.8973 14.7097 16.8973 14.6993 16.8973C14.6889 16.8973 14.6843 16.8973 14.674 16.8973C14.6636 16.8973 14.6526 16.891 14.6423 16.891C14.632 16.891 14.6209 16.8848 14.6107 16.8848C14.6005 16.8848 14.5892 16.8785 14.5791 16.8785C14.569 16.8785 14.5574 16.8722 14.5474 16.8722C14.5375 16.8722 14.5256 16.8597 14.5158 16.8597C14.506 16.8597 14.5001 16.8535 14.4905 16.8535C14.4808 16.8535 14.4683 16.8409 14.4588 16.8409C14.4494 16.8409 14.4427 16.8221 14.4335 16.8221C14.4243 16.8221 14.4172 16.8096 14.4082 16.8096C14.3993 16.8096 14.3852 16.7908 14.3766 16.7908C14.3679 16.7908 14.3596 16.7783 14.3513 16.7783C14.3429 16.7783 14.3403 16.766 14.3323 16.7595C14.3242 16.753 14.3147 16.7413 14.307 16.7345C14.2993 16.7276 14.289 16.7229 14.2817 16.7157C14.2743 16.7084 14.2697 16.6982 14.2627 16.6906C14.2557 16.683 14.2503 16.6798 14.2437 16.6718C14.2371 16.6639 14.2247 16.655 14.2247 16.6468C14.2247 16.6386 14.2057 16.6303 14.2057 16.6217C14.2057 16.6132 14.1868 16.6055 14.1868 16.5967C14.1868 16.5879 14.1741 16.5744 14.1741 16.5654C14.1741 16.5563 14.1551 16.5496 14.1551 16.5403C14.1551 16.5311 14.1425 16.5247 14.1425 16.5153C14.1425 16.5058 14.1361 16.4936 14.1361 16.484C14.1361 16.4743 14.1235 16.4625 14.1235 16.4527C14.1235 16.4428 14.1172 16.4375 14.1172 16.4276C14.1172 16.4177 14.1108 16.4063 14.1108 16.3963C14.1108 16.3862 14.1045 16.3751 14.1045 16.365C14.1045 16.3548 14.0982 16.3439 14.0982 16.3337C14.0982 16.3235 14.0982 16.3126 14.0982 16.3023C14.0982 16.2921 14.0982 16.2813 14.0982 16.271ZM12.4721 14.53C12.4825 14.53 12.4933 14.5363 12.5037 14.5363C12.5141 14.5363 12.525 14.5363 12.5353 14.5363C12.5457 14.5363 12.5567 14.5363 12.567 14.5363C12.5773 14.5363 12.5821 14.5426 12.5923 14.5426C12.6025 14.5426 12.6138 14.5488 12.6239 14.5488C12.634 14.5488 12.6456 14.5613 12.6556 14.5613C12.6655 14.5613 12.6774 14.5676 12.6872 14.5676C12.697 14.5676 12.7029 14.5801 12.7125 14.5801C12.7221 14.5801 12.7347 14.5927 12.7441 14.5927C12.7536 14.5927 12.7603 14.6052 12.7694 14.6052C12.7786 14.6052 12.7921 14.624 12.8011 14.624C12.81 14.624 12.8177 14.6365 12.8264 14.6365C12.8351 14.6365 12.8433 14.6553 12.8517 14.6553C12.8601 14.6553 12.869 14.6676 12.877 14.6741C12.8851 14.6806 12.8883 14.686 12.896 14.6929C12.9037 14.6997 12.9139 14.7107 12.9213 14.7179C12.9287 14.7251 12.9333 14.7291 12.9403 14.7367C12.9473 14.7443 12.959 14.7538 12.9656 14.7617C12.9722 14.7697 12.9846 14.7786 12.9846 14.7868C12.9846 14.795 12.9972 14.8033 12.9972 14.8118C12.9972 14.8204 13.0162 14.8281 13.0162 14.8369C13.0162 14.8457 13.0352 14.8529 13.0352 14.8619C13.0352 14.871 13.0478 14.884 13.0478 14.8933C13.0478 14.9025 13.0605 14.9088 13.0605 14.9183C13.0605 14.9278 13.0732 14.94 13.0732 14.9496C13.0732 14.9593 13.0795 14.9649 13.0795 14.9747C13.0795 14.9845 13.0858 14.996 13.0858 15.006C13.0858 15.0159 13.0921 15.0272 13.0921 15.0373C13.0921 15.0473 13.0985 15.0585 13.0985 15.0686C13.0985 15.0788 13.1048 15.0897 13.1048 15.0999C13.1048 15.1101 13.1048 15.1147 13.1048 15.125C13.1048 15.1352 13.1048 15.146 13.1048 15.1563L13.1048 17.3858C13.1048 17.396 13.1048 17.4069 13.1048 17.4171C13.1048 17.4273 13.1048 17.4382 13.1048 17.4484C13.1048 17.4586 13.0985 17.4696 13.0985 17.4797C13.0985 17.4899 13.0921 17.501 13.0921 17.511C13.0921 17.5211 13.0858 17.5261 13.0858 17.5361C13.0858 17.546 13.0795 17.5576 13.0795 17.5674C13.0795 17.5772 13.0732 17.5891 13.0732 17.5987C13.0732 17.6084 13.0605 17.6143 13.0605 17.6238C13.0605 17.6332 13.0478 17.6458 13.0478 17.6551C13.0478 17.6643 13.0352 17.6711 13.0352 17.6801C13.0352 17.6892 13.0162 17.6964 13.0162 17.7052C13.0162 17.714 12.9972 17.728 12.9972 17.7365C12.9972 17.745 12.9846 17.7533 12.9846 17.7615C12.9846 17.7698 12.9722 17.7724 12.9656 17.7803C12.959 17.7882 12.9473 17.7978 12.9403 17.8054C12.9333 17.813 12.9287 17.8232 12.9213 17.8304C12.9139 17.8377 12.9037 17.8423 12.896 17.8492C12.8883 17.8561 12.8851 17.8615 12.877 17.868C12.869 17.8745 12.8601 17.8868 12.8517 17.8868C12.8433 17.8868 12.8351 17.9056 12.8264 17.9056C12.8177 17.9056 12.81 17.9244 12.8011 17.9244C12.7921 17.9244 12.7786 17.9369 12.7694 17.9369C12.7603 17.9369 12.7536 17.9494 12.7441 17.9494C12.7347 17.9494 12.7221 17.9619 12.7125 17.9619C12.7029 17.9619 12.697 17.9745 12.6872 17.9745C12.6774 17.9745 12.6655 17.987 12.6556 17.987C12.6456 17.987 12.634 17.9933 12.6239 17.9933C12.6138 17.9933 12.6025 17.9995 12.5923 17.9995C12.5821 17.9995 12.5773 18.0058 12.567 18.0058C12.5567 18.0058 12.5457 18.012 12.5353 18.012C12.525 18.012 12.5141 18.012 12.5037 18.012C12.4933 18.012 12.4825 18.012 12.4721 18.012C12.4617 18.012 12.4508 18.012 12.4404 18.012C12.43 18.012 12.4192 18.012 12.4088 18.012C12.3984 18.012 12.3875 18.0058 12.3772 18.0058C12.3669 18.0058 12.3557 17.9995 12.3455 17.9995C12.3353 17.9995 12.324 17.9933 12.3139 17.9933C12.3038 17.9933 12.2985 17.987 12.2886 17.987C12.2786 17.987 12.2667 17.9745 12.2569 17.9745C12.2471 17.9745 12.2349 17.9619 12.2253 17.9619C12.2157 17.9619 12.2094 17.9494 12.2 17.9494C12.1906 17.9494 12.1775 17.9369 12.1684 17.9369C12.1592 17.9369 12.152 17.9244 12.143 17.9244C12.1341 17.9244 12.1264 17.9056 12.1177 17.9056C12.1091 17.9056 12.1008 17.8868 12.0924 17.8868C12.0841 17.8868 12.0752 17.8745 12.0671 17.868C12.0591 17.8615 12.0495 17.8561 12.0418 17.8492C12.0341 17.8423 12.0302 17.8377 12.0228 17.8304C12.0155 17.8232 12.0045 17.813 11.9975 17.8054C11.9905 17.7978 11.9852 17.7882 11.9785 17.7803C11.9719 17.7724 11.9596 17.7698 11.9596 17.7615C11.9596 17.7533 11.9406 17.745 11.9406 17.7365C11.9406 17.728 11.9279 17.714 11.9279 17.7052C11.9279 17.6964 11.9089 17.6892 11.9089 17.6801C11.9089 17.6711 11.8963 17.6643 11.8963 17.6551C11.8963 17.6458 11.8836 17.6332 11.8836 17.6238C11.8836 17.6143 11.871 17.6084 11.871 17.5987C11.871 17.5891 11.8646 17.5772 11.8646 17.5674C11.8646 17.5576 11.852 17.546 11.852 17.5361C11.852 17.5261 11.8457 17.5211 11.8457 17.511C11.8457 17.501 11.8393 17.4899 11.8393 17.4797C11.8393 17.4696 11.8393 17.4586 11.8393 17.4484C11.8393 17.4382 11.833 17.4273 11.833 17.4171C11.833 17.4069 11.833 17.396 11.833 17.3858L11.833 15.1563C11.833 15.146 11.833 15.1352 11.833 15.125C11.833 15.1147 11.8393 15.1101 11.8393 15.0999C11.8393 15.0897 11.8393 15.0788 11.8393 15.0686C11.8393 15.0585 11.8457 15.0473 11.8457 15.0373C11.8457 15.0272 11.852 15.0159 11.852 15.006C11.852 14.996 11.8646 14.9845 11.8646 14.9747C11.8646 14.9649 11.871 14.9593 11.871 14.9496C11.871 14.94 11.8836 14.9278 11.8836 14.9183C11.8836 14.9089 11.8963 14.9025 11.8963 14.8933C11.8963 14.884 11.9089 14.871 11.9089 14.8619C11.9089 14.8529 11.9279 14.8457 11.9279 14.8369C11.9279 14.8281 11.9406 14.8204 11.9406 14.8118C11.9406 14.8033 11.9596 14.795 11.9596 14.7868C11.9596 14.7786 11.9719 14.7697 11.9785 14.7617C11.9852 14.7538 11.9905 14.7443 11.9975 14.7367C12.0045 14.7291 12.0155 14.7251 12.0228 14.7179C12.0302 14.7107 12.0341 14.6997 12.0418 14.6929C12.0495 14.686 12.0591 14.6806 12.0671 14.6741C12.0752 14.6676 12.0841 14.6553 12.0924 14.6553C12.1008 14.6553 12.1091 14.6365 12.1177 14.6365C12.1264 14.6365 12.1341 14.624 12.143 14.624C12.152 14.624 12.1592 14.6052 12.1684 14.6052C12.1775 14.6052 12.1906 14.5927 12.2 14.5927C12.2094 14.5927 12.2157 14.5801 12.2253 14.5801C12.2349 14.5801 12.2471 14.5676 12.2569 14.5676C12.2667 14.5676 12.2786 14.5613 12.2886 14.5613C12.2985 14.5613 12.3038 14.5488 12.3139 14.5488C12.324 14.5488 12.3353 14.5426 12.3455 14.5426C12.3557 14.5426 12.3669 14.5363 12.3772 14.5363C12.3875 14.5363 12.3984 14.5363 12.4088 14.5363C12.4192 14.5363 12.43 14.5363 12.4404 14.5363C12.4508 14.5363 12.4617 14.53 12.4721 14.53Z" stroke="rgba(3, 79, 161, 1)" stroke-width="0.4"      fill="#034FA1" ></path><path d="M10.1367 12.0013C10.1367 11.991 10.1367 11.9802 10.1367 11.9699C10.1367 11.9597 10.1367 11.9488 10.1367 11.9386C10.1367 11.9284 10.143 11.9175 10.143 11.9073C10.143 11.8972 10.1494 11.8861 10.1494 11.876C10.1494 11.866 10.1557 11.8609 10.1557 11.851C10.1557 11.841 10.162 11.8295 10.162 11.8196C10.162 11.8098 10.1747 11.798 10.1747 11.7883C10.1747 11.7787 10.1873 11.7728 10.1873 11.7633C10.1873 11.7538 10.2 11.7412 10.2 11.732C10.2 11.7227 10.2126 11.716 10.2126 11.7069C10.2126 11.6979 10.2253 11.6907 10.2253 11.6819C10.2253 11.6731 10.2443 11.6591 10.2443 11.6506C10.2443 11.642 10.2633 11.6337 10.2633 11.6255C10.2633 11.6173 10.2756 11.6146 10.2822 11.6067C10.2889 11.5988 10.2942 11.5893 10.3012 11.5817C10.3082 11.5741 10.3128 11.5639 10.3202 11.5566C10.3276 11.5494 10.3378 11.5447 10.3455 11.5378C10.3532 11.5309 10.3628 11.5255 10.3708 11.519C10.3789 11.5125 10.3878 11.5003 10.3961 11.5003C10.4045 11.5003 10.4128 11.4815 10.4214 11.4815C10.4301 11.4815 10.4378 11.4627 10.4468 11.4627C10.4557 11.4627 10.4629 11.4502 10.4721 11.4502C10.4813 11.4502 10.4943 11.4376 10.5037 11.4376C10.5131 11.4376 10.5194 11.4251 10.529 11.4251C10.5386 11.4251 10.5508 11.4126 10.5606 11.4126C10.5705 11.4126 10.576 11.4001 10.586 11.4001C10.5959 11.4001 10.6075 11.3938 10.6176 11.3938C10.6277 11.3938 10.639 11.3875 10.6492 11.3875C10.6594 11.3875 10.6706 11.3813 10.6809 11.3813C10.6912 11.3813 10.7021 11.375 10.7125 11.375C10.7229 11.375 10.7337 11.375 10.7441 11.375C10.7545 11.375 10.7654 11.375 10.7758 11.375L16.9955 11.375C17.0059 11.375 17.0167 11.375 17.0272 11.375C17.0376 11.375 17.0484 11.375 17.0588 11.375C17.0692 11.375 17.0801 11.3813 17.0904 11.3813C17.1007 11.3813 17.1119 11.3875 17.1221 11.3875C17.1323 11.3875 17.1373 11.3938 17.1474 11.3938C17.1575 11.3938 17.169 11.4001 17.179 11.4001C17.189 11.4001 17.2008 11.4126 17.2106 11.4126C17.2204 11.4126 17.2327 11.4251 17.2423 11.4251C17.2519 11.4251 17.2582 11.4376 17.2676 11.4376C17.277 11.4376 17.2837 11.4502 17.2929 11.4502C17.3021 11.4502 17.3156 11.4627 17.3245 11.4627C17.3335 11.4627 17.3412 11.4815 17.3498 11.4815C17.3585 11.4815 17.3668 11.5003 17.3752 11.5003C17.3835 11.5003 17.3924 11.5125 17.4005 11.519C17.4085 11.5255 17.4181 11.5309 17.4258 11.5378C17.4335 11.5447 17.4374 11.5494 17.4448 11.5566C17.4521 11.5639 17.4631 11.5741 17.4701 11.5817C17.4771 11.5893 17.4824 11.5988 17.489 11.6067C17.4957 11.6146 17.508 11.6173 17.508 11.6255C17.508 11.6337 17.527 11.642 17.527 11.6506C17.527 11.6591 17.5397 11.6731 17.5397 11.6819C17.5397 11.6907 17.5586 11.6979 17.5586 11.7069C17.5586 11.716 17.5713 11.7227 17.5713 11.732C17.5713 11.7412 17.584 11.7538 17.584 11.7633C17.584 11.7728 17.5966 11.7787 17.5966 11.7883C17.5966 11.798 17.6029 11.8098 17.6029 11.8196C17.6029 11.8295 17.6156 11.841 17.6156 11.851C17.6156 11.8609 17.6219 11.866 17.6219 11.876C17.6219 11.8861 17.6282 11.8972 17.6282 11.9073C17.6282 11.9175 17.6282 11.9284 17.6282 11.9386C17.6282 11.9488 17.6346 11.9597 17.6346 11.9699C17.6346 11.9802 17.6346 11.991 17.6346 12.0013C17.6346 12.0115 17.6346 12.0223 17.6346 12.0326C17.6346 12.0428 17.6282 12.0537 17.6282 12.0639C17.6282 12.0741 17.6282 12.0851 17.6282 12.0952C17.6282 12.1053 17.6219 12.1165 17.6219 12.1265C17.6219 12.1366 17.6156 12.1416 17.6156 12.1516C17.6156 12.1615 17.6029 12.1731 17.6029 12.1829C17.6029 12.1927 17.5966 12.2045 17.5966 12.2142C17.5966 12.2238 17.584 12.2298 17.584 12.2392C17.584 12.2487 17.5713 12.2613 17.5713 12.2706C17.5713 12.2798 17.5586 12.2866 17.5586 12.2956C17.5586 12.3046 17.5397 12.3119 17.5397 12.3207C17.5397 12.3294 17.527 12.3435 17.527 12.352C17.527 12.3605 17.508 12.3688 17.508 12.377C17.508 12.3852 17.4957 12.3879 17.489 12.3958C17.4824 12.4037 17.4771 12.4133 17.4701 12.4209C17.4631 12.4284 17.4521 12.4387 17.4448 12.4459C17.4374 12.4532 17.4335 12.4578 17.4258 12.4647C17.4181 12.4716 17.4085 12.477 17.4005 12.4835C17.3924 12.49 17.3835 12.5023 17.3752 12.5023C17.3668 12.5023 17.3585 12.5211 17.3498 12.5211C17.3412 12.5211 17.3335 12.5398 17.3245 12.5398C17.3156 12.5398 17.3021 12.5524 17.2929 12.5524C17.2837 12.5524 17.277 12.5649 17.2676 12.5649C17.2582 12.5649 17.2519 12.5774 17.2423 12.5774C17.2327 12.5774 17.2204 12.5899 17.2106 12.5899C17.2008 12.5899 17.189 12.6025 17.179 12.6025C17.169 12.6025 17.1575 12.6087 17.1474 12.6087C17.1373 12.6087 17.1323 12.615 17.1221 12.615C17.1119 12.615 17.1007 12.6213 17.0904 12.6213C17.0801 12.6213 17.0691 12.6275 17.0588 12.6275C17.0484 12.6275 17.0376 12.6275 17.0272 12.6275C17.0167 12.6275 17.0059 12.6275 16.9955 12.6275L10.7758 12.6275C10.7654 12.6275 10.7545 12.6275 10.7441 12.6275C10.7337 12.6275 10.7229 12.6275 10.7125 12.6275C10.7021 12.6275 10.6912 12.6213 10.6809 12.6213C10.6706 12.6213 10.6594 12.615 10.6492 12.615C10.639 12.615 10.6277 12.6087 10.6176 12.6087C10.6075 12.6087 10.5959 12.6025 10.586 12.6025C10.576 12.6025 10.5705 12.5899 10.5606 12.5899C10.5508 12.5899 10.5386 12.5774 10.529 12.5774C10.5194 12.5774 10.5131 12.5649 10.5037 12.5649C10.4943 12.5649 10.4813 12.5524 10.4721 12.5524C10.4629 12.5524 10.4557 12.5398 10.4468 12.5398C10.4378 12.5398 10.4301 12.5211 10.4214 12.5211C10.4128 12.5211 10.4045 12.5023 10.3961 12.5023C10.3878 12.5023 10.3789 12.49 10.3708 12.4835C10.3628 12.477 10.3532 12.4716 10.3455 12.4647C10.3378 12.4578 10.3276 12.4532 10.3202 12.4459C10.3128 12.4387 10.3082 12.4284 10.3012 12.4209C10.2942 12.4133 10.2889 12.4037 10.2822 12.3958C10.2756 12.3879 10.2633 12.3852 10.2633 12.377C10.2633 12.3688 10.2443 12.3605 10.2443 12.352C10.2443 12.3435 10.2253 12.3294 10.2253 12.3207C10.2253 12.3119 10.2126 12.3046 10.2126 12.2956C10.2126 12.2866 10.2 12.2798 10.2 12.2706C10.2 12.2613 10.1873 12.2487 10.1873 12.2392C10.1873 12.2298 10.1747 12.2238 10.1747 12.2142C10.1747 12.2045 10.162 12.1927 10.162 12.1829C10.162 12.1731 10.1557 12.1615 10.1557 12.1516C10.1557 12.1416 10.1494 12.1366 10.1494 12.1265C10.1494 12.1165 10.143 12.1053 10.143 12.0952C10.143 12.0851 10.1367 12.0741 10.1367 12.0639C10.1367 12.0537 10.1367 12.0428 10.1367 12.0326C10.1367 12.0223 10.1367 12.0115 10.1367 12.0013Z" stroke="rgba(204, 78, 29, 1)" stroke-width="0.4"      fill="#DE5018" ></path><path d="M5.61035 16.2723C5.61035 16.262 5.61061 16.2518 5.61112 16.2415C5.61163 16.2313 5.61239 16.2211 5.61342 16.2109C5.61444 16.2007 5.61571 16.1905 5.61724 16.1804C5.61877 16.1702 5.62055 16.1601 5.62258 16.1501C5.62461 16.14 5.62689 16.13 5.62943 16.1201C5.63196 16.1101 5.63473 16.1003 5.63776 16.0905C5.64078 16.0807 5.64405 16.0709 5.64756 16.0613C5.65106 16.0516 5.65481 16.0421 5.6588 16.0326C5.66278 16.0231 5.667 16.0138 5.67146 16.0045C5.67591 15.9952 5.68059 15.9861 5.6855 15.977C5.69041 15.968 5.69554 15.9591 5.7009 15.9503C5.70625 15.9415 5.71182 15.9328 5.71761 15.9243C5.7234 15.9158 5.72939 15.9074 5.7356 15.8992C5.7418 15.891 5.74821 15.8829 5.75482 15.875C5.76142 15.867 5.76823 15.8593 5.77522 15.8517C5.78221 15.8441 5.78939 15.8367 5.79676 15.8294C5.80413 15.8222 5.81167 15.8151 5.81938 15.8082C5.8271 15.8013 5.83499 15.7947 5.84304 15.7881C5.85109 15.7816 5.8593 15.7753 5.86766 15.7692C5.87603 15.7631 5.88454 15.7572 5.8932 15.7515C5.90186 15.7458 5.91066 15.7404 5.9196 15.7351C5.92853 15.7298 5.93759 15.7248 5.94677 15.7199C5.95596 15.7151 5.96526 15.7105 5.97468 15.7061C5.98409 15.7017 5.99361 15.6976 6.00323 15.6937C6.01286 15.6897 6.02257 15.6861 6.03238 15.6826C6.04219 15.6792 6.05207 15.6759 6.06204 15.673C6.07201 15.67 6.08204 15.6673 6.09215 15.6648C6.10225 15.6623 6.11241 15.66 6.12263 15.658C6.13284 15.656 6.1431 15.6543 6.15341 15.6528C6.16371 15.6513 6.17405 15.65 6.1844 15.649C6.19477 15.648 6.20516 15.6473 6.21556 15.6468C6.22597 15.6462 6.23638 15.646 6.24679 15.646L12.4694 15.646C12.4799 15.646 12.4903 15.6462 12.5007 15.6468C12.5111 15.6473 12.5215 15.648 12.5318 15.649C12.5422 15.65 12.5525 15.6513 12.5628 15.6528C12.5731 15.6543 12.5834 15.656 12.5936 15.658C12.6038 15.66 12.614 15.6623 12.6241 15.6648C12.6342 15.6673 12.6442 15.67 12.6542 15.673C12.6642 15.6759 12.674 15.6792 12.6839 15.6826C12.6937 15.6861 12.7034 15.6897 12.713 15.6937C12.7226 15.6976 12.7321 15.7017 12.7416 15.7061C12.751 15.7105 12.7603 15.7151 12.7695 15.7199C12.7787 15.7248 12.7877 15.7298 12.7966 15.7351C12.8056 15.7404 12.8144 15.7458 12.823 15.7515C12.8317 15.7572 12.8402 15.7631 12.8486 15.7692C12.8569 15.7753 12.8652 15.7816 12.8732 15.7881C12.8813 15.7947 12.8891 15.8013 12.8969 15.8082C12.9046 15.8151 12.9121 15.8222 12.9195 15.8294C12.9268 15.8367 12.934 15.8441 12.941 15.8517C12.948 15.8593 12.9548 15.867 12.9614 15.875C12.968 15.8829 12.9744 15.891 12.9806 15.8992C12.9868 15.9074 12.9928 15.9158 12.9986 15.9243C13.0044 15.9328 13.01 15.9415 13.0153 15.9503C13.0207 15.9591 13.0258 15.968 13.0307 15.977C13.0357 15.9861 13.0403 15.9952 13.0448 16.0045C13.0492 16.0138 13.0534 16.0231 13.0574 16.0326C13.0614 16.0421 13.0652 16.0516 13.0687 16.0613C13.0722 16.0709 13.0755 16.0807 13.0785 16.0905C13.0815 16.1003 13.0843 16.1101 13.0868 16.1201C13.0894 16.13 13.0916 16.14 13.0937 16.1501C13.0957 16.1601 13.0975 16.1702 13.099 16.1804C13.1005 16.1905 13.1018 16.2007 13.1028 16.2109C13.1038 16.2211 13.1046 16.2313 13.1051 16.2415C13.1056 16.2518 13.1059 16.262 13.1059 16.2723C13.1059 16.2825 13.1056 16.2927 13.1051 16.303C13.1046 16.3132 13.1038 16.3234 13.1028 16.3336C13.1018 16.3438 13.1005 16.354 13.099 16.3641C13.0975 16.3743 13.0957 16.3844 13.0937 16.3944C13.0916 16.4045 13.0893 16.4145 13.0868 16.4244C13.0843 16.4344 13.0815 16.4442 13.0785 16.4541C13.0755 16.4639 13.0722 16.4736 13.0687 16.4832C13.0652 16.4929 13.0614 16.5024 13.0574 16.5119C13.0534 16.5214 13.0492 16.5308 13.0448 16.54C13.0403 16.5493 13.0357 16.5584 13.0307 16.5675C13.0258 16.5765 13.0207 16.5854 13.0153 16.5942C13.01 16.603 13.0044 16.6117 12.9986 16.6202C12.9928 16.6287 12.9868 16.6371 12.9806 16.6453C12.9744 16.6536 12.968 16.6616 12.9614 16.6696C12.9548 16.6775 12.948 16.6852 12.941 16.6928C12.934 16.7004 12.9268 16.7078 12.9195 16.7151C12.9121 16.7223 12.9046 16.7294 12.8969 16.7363C12.8891 16.7432 12.8813 16.7499 12.8732 16.7564C12.8652 16.7629 12.8569 16.7692 12.8486 16.7753C12.8402 16.7814 12.8317 16.7873 12.823 16.793C12.8144 16.7987 12.8056 16.8041 12.7966 16.8094C12.7877 16.8147 12.7787 16.8197 12.7695 16.8246C12.7603 16.8294 12.751 16.834 12.7416 16.8384C12.7321 16.8428 12.7226 16.8469 12.713 16.8508C12.7034 16.8548 12.6937 16.8585 12.6839 16.8619C12.674 16.8654 12.6642 16.8686 12.6542 16.8715C12.6442 16.8745 12.6342 16.8773 12.6241 16.8797C12.614 16.8822 12.6038 16.8845 12.5936 16.8865C12.5834 16.8885 12.5731 16.8902 12.5628 16.8917C12.5525 16.8932 12.5422 16.8945 12.5318 16.8955C12.5215 16.8965 12.5111 16.8973 12.5007 16.8978C12.4903 16.8983 12.4799 16.8985 12.4694 16.8985L6.24679 16.8985C6.23638 16.8985 6.22597 16.8983 6.21556 16.8978C6.20516 16.8973 6.19477 16.8965 6.1844 16.8955C6.17405 16.8945 6.16371 16.8932 6.15341 16.8917C6.1431 16.8902 6.13284 16.8885 6.12263 16.8865C6.11241 16.8845 6.10225 16.8822 6.09215 16.8798C6.08204 16.8773 6.07201 16.8745 6.06204 16.8715C6.05207 16.8686 6.04219 16.8654 6.03238 16.8619C6.02257 16.8585 6.01286 16.8548 6.00323 16.8508C5.99361 16.8469 5.98409 16.8428 5.97468 16.8384C5.96526 16.834 5.95596 16.8294 5.94677 16.8246C5.93759 16.8197 5.92853 16.8147 5.9196 16.8094C5.91066 16.8041 5.90186 16.7987 5.8932 16.793C5.88454 16.7873 5.87603 16.7814 5.86766 16.7753C5.8593 16.7692 5.85109 16.7629 5.84304 16.7564C5.83498 16.7499 5.8271 16.7432 5.81938 16.7363C5.81167 16.7294 5.80413 16.7223 5.79676 16.7151C5.78939 16.7078 5.78221 16.7004 5.77522 16.6928C5.76823 16.6852 5.76142 16.6775 5.75482 16.6696C5.74821 16.6616 5.7418 16.6536 5.7356 16.6453C5.72939 16.6371 5.7234 16.6287 5.71761 16.6202C5.71182 16.6117 5.70625 16.603 5.7009 16.5942C5.69554 16.5854 5.69041 16.5765 5.6855 16.5675C5.68059 16.5584 5.67591 16.5493 5.67146 16.54C5.667 16.5308 5.66278 16.5214 5.6588 16.5119C5.65481 16.5024 5.65106 16.4929 5.64756 16.4832C5.64405 16.4736 5.64078 16.4639 5.63776 16.4541C5.63473 16.4442 5.63196 16.4344 5.62943 16.4244C5.62689 16.4145 5.62461 16.4045 5.62258 16.3944C5.62055 16.3844 5.61877 16.3743 5.61724 16.3641C5.61571 16.354 5.61444 16.3438 5.61342 16.3336C5.61239 16.3234 5.61163 16.3132 5.61112 16.303C5.61061 16.2927 5.61035 16.2825 5.61035 16.2723Z" stroke="rgba(3, 79, 161, 1)" stroke-width="0.4"      fill="#034FA1" ></path></svg>