<svg xmlns="http://www.w3.org/2000/svg" xmlns:xlink="http://www.w3.org/1999/xlink" width="24" height="24" viewBox="0 0 24 24" fill="none"><path d="M20.4791 13.5518L20.4791 19.763C20.4791 20.1581 20.16 20.4772 19.7649 20.4772L4.05273 20.4772C3.65769 20.4772 3.33854 20.1581 3.33854 19.763L3.33854 13.5518C3.33854 13.1568 3.65769 12.8376 4.05273 12.8376L5.45656 12.8376C5.61502 12.8376 5.77125 12.8912 5.89623 12.9894L9.59887 15.8863L9.79304 16.0381C9.91802 16.1363 10.0743 16.1898 10.2327 16.1898L13.5805 16.1898C13.7389 16.1898 13.8952 16.1363 14.0202 16.0381L14.2143 15.8863L17.917 12.9894C18.0419 12.8912 18.1982 12.8376 18.3566 12.8376L19.7649 12.8376C20.16 12.8354 20.4791 13.1568 20.4791 13.5518ZM20.4791 11.407L17.8679 11.407C17.7094 11.407 17.5532 11.4605 17.4282 11.5587L13.5314 14.6075C13.4064 14.7057 13.2502 14.7592 13.0917 14.7592L10.726 14.7592C10.5675 14.7592 10.4113 14.7057 10.2863 14.6075L6.38947 11.5587C6.26449 11.4605 6.10826 11.407 5.9498 11.407L3.33854 11.407C2.5507 11.407 1.91016 12.0475 1.91016 12.8376L1.91016 20.4794C1.91016 21.2695 2.5507 21.9101 3.33854 21.9101L20.4791 21.9101C21.267 21.9101 21.9075 21.2695 21.9075 20.4794L21.9075 12.8354C21.9075 12.0475 21.267 11.407 20.4791 11.407Z"   fill="#034FA1" ></path><path d="M15.3904 7.9699C15.7855 7.9699 16.1046 7.65075 16.1046 7.25571C16.1046 6.86067 15.7855 6.54152 15.3904 6.54152L13.3505 6.54152L15.9618 3.05538C16.1984 2.73846 16.1336 2.29209 15.819 2.05551C15.5043 1.81894 15.0557 1.88366 14.8191 2.19835L11.9088 6.08176L8.99843 2.19612C8.76186 1.8792 8.31326 1.81671 7.99857 2.05328C7.68388 2.28986 7.61915 2.73846 7.85573 3.05315L10.467 6.53929L8.42708 6.53929C8.03204 6.53929 7.71289 6.85844 7.71289 7.25348C7.71289 7.64851 8.03204 7.96767 8.42708 7.96767L11.1946 7.96767L11.1946 9.67726L8.42708 9.67726C8.03204 9.67726 7.71289 9.99642 7.71289 10.3915C7.71289 10.7865 8.03204 11.1056 8.42708 11.1056L11.1946 11.1056L11.1946 13.0764C11.1946 13.4714 11.5137 13.7906 11.9088 13.7906C12.3038 13.7906 12.623 13.4714 12.623 13.0764L12.623 11.1056L15.3904 11.1056C15.7855 11.1056 16.1046 10.7865 16.1046 10.3915C16.1046 9.99642 15.7855 9.67726 15.3904 9.67726L12.623 9.67726L12.623 7.96767L15.3904 7.96767L15.3904 7.9699Z"   fill="#CC4E1D" ></path></svg>