<svg xmlns="http://www.w3.org/2000/svg" xmlns:xlink="http://www.w3.org/1999/xlink" width="24" height="24" viewBox="0 0 24 24" fill="none"><path d="M16.5453 21.6727C16.2646 21.6727 15.9827 21.5981 15.7322 21.4502L12.4494 19.5025C11.9484 19.2054 11.6362 18.6511 11.6362 18.0569L11.6362 14.1615C11.6362 13.5674 11.9472 13.013 12.4494 12.7159L15.7322 10.7682C16.2331 10.4711 16.8563 10.4711 17.3573 10.7682L20.6413 12.7159C21.1422 13.013 21.4544 13.5674 21.4544 14.1615L21.4544 18.0569C21.4544 18.6511 21.1434 19.2054 20.6413 19.5025L17.3585 21.4502C17.108 21.5981 16.8261 21.6727 16.5453 21.6727ZM16.5453 11.6594C16.4522 11.6594 16.359 11.6843 16.2755 11.734L12.9915 13.6817C12.8245 13.7799 12.7216 13.9639 12.7216 14.1615L12.7216 18.0569C12.7216 18.2545 12.8245 18.4385 12.9915 18.5367L16.2755 20.4844C16.4425 20.5826 16.6482 20.5826 16.8152 20.4844L20.0992 18.5367C20.2662 18.4385 20.369 18.2545 20.369 18.0569L20.369 14.1615C20.369 13.9639 20.2662 13.7799 20.0992 13.6817L16.8152 11.734C16.7317 11.6843 16.6385 11.6594 16.5453 11.6594Z" stroke="rgba(222, 80, 24, 1)" stroke-width="0.3"      fill="#DE5018" ></path><path d="M16.1098 16.31L14.4822 15.4324C14.1961 15.2642 14.1012 14.891 14.2663 14.5995C14.4313 14.308 14.795 14.2089 15.0812 14.377L16.7372 15.257L18.2786 14.4275C18.5635 14.258 18.9304 14.3531 19.0968 14.6433C19.2632 14.9335 19.1656 15.3067 18.8808 15.4762L17.3043 16.3388L17.3043 18.2945C17.3043 18.6295 17.0388 18.9049 16.7087 18.9049C16.3786 18.9049 16.1098 18.6308 16.1098 18.2945L16.1098 16.31Z" stroke="rgba(222, 80, 24, 1)" stroke-width="0.2"    fill-rule="evenodd"  fill="#DE5018" ></path><path     fill="#034FA1"  d="M9.70854 21.4545L3.74492 21.4545C2.07891 21.4545 0.726807 20.0359 0.726807 18.2909L0.726895 6.43634C0.726895 4.69131 2.07907 3.27271 3.74508 3.27271L20.2469 3.27271C21.9129 3.27271 23.2687 4.69131 23.2687 6.43634L23.2687 11.5582C23.2687 12.005 22.9065 12.3672 22.4596 12.3672L22.4596 12.3672C22.0128 12.3672 21.6505 12.005 21.6505 11.5582L21.6505 6.43634C21.6505 5.62877 21.0179 4.96725 20.2469 4.96725L3.74508 4.96725C2.97408 4.96725 2.34508 5.62877 2.34508 6.43634L2.34506 18.2909C2.34506 19.0985 2.97392 19.76 3.74492 19.76L9.70854 19.76C10.1765 19.76 10.5558 20.1393 10.5558 20.6072L10.5558 20.6072C10.5558 21.0752 10.1765 21.4545 9.70854 21.4545Z"></path><path   fill="rgba(3, 79, 161, 1)"  d="M9.70854 21.6545L3.74492 21.6545Q3.08889 21.6545 2.48935 21.3884Q1.91161 21.132 1.46638 20.6651Q1.02218 20.1994 0.778652 19.5963Q0.526806 18.9726 0.526806 18.2909L0.526895 6.43634Q0.526895 5.75465 0.778753 5.13095Q1.02229 4.52785 1.46651 4.0621Q1.91174 3.59528 2.4895 3.33883Q3.08904 3.07271 3.74508 3.07271L20.2469 3.07271Q20.9029 3.07271 21.503 3.3388Q22.0813 3.59525 22.5272 4.06198Q22.9722 4.52779 23.2162 5.13081Q23.4687 5.75467 23.4687 6.43634L23.4687 11.5582C23.4687 12.1155 23.0169 12.5672 22.4596 12.5672C21.9023 12.5672 21.4505 12.1155 21.4505 11.5582L21.4505 6.43634Q21.4505 5.91097 21.0933 5.53714Q20.7397 5.16725 20.2469 5.16725L3.74508 5.16725Q3.25279 5.16725 2.90079 5.53688Q2.54508 5.9104 2.54508 6.43634L2.54506 18.2909Q2.54506 18.8169 2.9007 19.1904Q3.25264 19.56 3.74492 19.56L9.70854 19.56C10.2869 19.56 10.7558 20.0288 10.7558 20.6072C10.7558 21.1856 10.2869 21.6545 9.70854 21.6545ZM9.70854 21.2545C10.066 21.2545 10.3558 20.9647 10.3558 20.6072C10.3558 20.2498 10.066 19.96 9.70854 19.96L3.74492 19.96Q3.41845 19.96 3.11947 19.8267Q2.83234 19.6986 2.61102 19.4662Q2.14506 18.9768 2.14506 18.2909L2.14508 6.43634Q2.14508 5.75041 2.61112 5.26103Q2.83247 5.0286 3.11962 4.90057Q3.41861 4.76725 3.74508 4.76725L20.2469 4.76725Q20.5733 4.76725 20.8728 4.9005Q21.1604 5.0285 21.3824 5.26077Q21.8505 5.75057 21.8505 6.43634L21.8505 11.5582C21.8505 11.8945 22.1232 12.1672 22.4596 12.1672C22.796 12.1672 23.0687 11.8945 23.0687 11.5582L23.0687 6.43634Q23.0687 5.83254 22.8455 5.28087Q22.6301 4.74878 22.238 4.33829Q21.8468 3.92882 21.3408 3.70446Q20.8182 3.47271 20.2469 3.47271L3.74508 3.47271Q3.17383 3.47271 2.65178 3.70443Q2.14648 3.92872 1.75596 4.33817Q1.36455 4.74856 1.14965 5.28073Q0.926895 5.83237 0.926895 6.43634L0.926806 18.2909Q0.926806 18.8949 1.14956 19.4465Q1.36444 19.9787 1.75584 20.3891Q2.14635 20.7985 2.65163 21.0228Q3.17367 21.2545 3.74492 21.2545L9.70854 21.2545Z"></path><path d="M11.9894 7.91271C11.9894 7.44398 11.626 7.06544 11.1785 7.06544L4.88743 7.06543C4.43993 7.06543 4.08008 7.44396 4.08008 7.91269C4.08008 8.38142 4.43993 8.75999 4.88743 8.75999L11.1785 8.75998C11.626 8.75998 11.9894 8.37579 11.9894 7.91271Z" stroke="rgba(3, 79, 161, 1)" stroke-width="0.4"      fill="#034FA1" ></path></svg>