<svg xmlns="http://www.w3.org/2000/svg" xmlns:xlink="http://www.w3.org/1999/xlink" width="24" height="24" viewBox="0 0 24 24" fill="none"><path   fill="rgba(3, 79, 161, 1)"  d="M19.5331 10.5926L19.5331 5.78988L20.2331 5.78988L19.5331 5.78988C19.5331 4.68583 18.6381 3.79082 17.5341 3.79082L17.5341 3.79082L6.15364 3.79082L6.15364 3.79082L6.15364 3.79082Q5.74647 3.79082 5.37574 3.94763Q5.01712 4.09932 4.7401 4.37633Q4.46308 4.65335 4.3114 5.01197Q4.15459 5.38271 4.15459 5.78988L4.15459 5.78988L4.15459 18.239L3.45459 18.239L4.15459 18.239C4.15459 19.3431 5.0496 20.2381 6.15365 20.2381L6.15365 20.9381L6.15365 20.2381L12.091 20.2381L12.091 21.6381L6.15365 21.6381L6.15365 21.6381C4.2764 21.6381 2.75459 20.1163 2.75459 18.239L2.75459 18.239L2.75459 5.78988L3.45459 5.78988L2.75459 5.78988Q2.75459 5.09881 3.02199 4.4666Q3.28005 3.85649 3.75015 3.38639Q4.22025 2.91628 4.83036 2.65823Q5.46257 2.39083 6.15364 2.39082L6.15364 3.09082L6.15364 2.39082L6.15364 3.09082L6.15364 2.39082L17.5341 2.39082L17.5341 3.09082L17.5341 2.39082C19.4113 2.39082 20.9331 3.91263 20.9331 5.78988L20.9331 5.78988L20.9331 10.5926L19.5331 10.5926ZM12.091 21.6381C11.7044 21.6381 11.391 21.3247 11.391 20.9381C11.391 20.5515 11.7044 20.2381 12.091 20.2381C12.4776 20.2381 12.791 20.5515 12.791 20.9381C12.791 21.3247 12.4776 21.6381 12.091 21.6381ZM20.2331 11.2926C19.8465 11.2926 19.5331 10.9792 19.5331 10.5926C19.5331 10.206 19.8465 9.89264 20.2331 9.89264C20.6197 9.89264 20.9331 10.206 20.9331 10.5926C20.9331 10.9792 20.6197 11.2926 20.2331 11.2926Z"></path><g ><path     fill="#034FA1"  d="M8.39348 8.99989Q8.19348 9.52989 7.98348 9.95989L12.9235 9.96989L12.9235 10.8899Q12.4835 11.2699 11.9335 11.7699Q11.3835 12.2699 10.8635 12.7499Q11.2835 12.9099 11.6585 13.0549Q12.0335 13.1999 12.3435 13.3399L12.0635 14.4199Q11.4735 14.1499 10.7285 13.8449Q9.98348 13.5399 9.19848 13.2399Q8.41348 12.9399 7.65848 12.6699Q6.90348 12.3999 6.30348 12.1999L6.62348 11.2599Q7.25348 11.4599 8.09348 11.7499Q8.93348 12.0399 9.81348 12.3599Q10.2335 11.9899 10.6535 11.5999Q11.0735 11.2099 11.4035 10.9099L6.77348 10.9099L6.77348 10.0899Q6.90348 9.84989 7.02348 9.57489Q7.14348 9.29989 7.27348 8.99989L5.10348 8.99989L5.10348 8.05989L7.63348 8.05989Q7.71348 7.81989 7.79848 7.57489Q7.88348 7.32989 7.96348 7.07989L5.73348 7.07989L5.73348 6.13989L8.25348 6.13989Q8.33348 5.84989 8.40348 5.57989Q8.47348 5.30989 8.53348 5.04989L9.57348 5.15989Q9.52348 5.39989 9.45848 5.64489Q9.39348 5.88989 9.33348 6.13989L13.1735 6.13989L13.1735 7.07989L9.06348 7.07989Q8.98348 7.32989 8.90348 7.57489Q8.82348 7.81989 8.74348 8.05989L13.8035 8.05989L13.8035 8.99989L8.39348 8.99989Z"></path><path fill-rule="evenodd"  fill="rgba(3, 79, 161, 1)"  d="M8.48704,9.0352c-0.13443,0.35625 -0.27233,0.67912 -0.4137,0.9686l-0.08986,-0.04391l0.0002,-0.1l5.03982,0.01021v1.0656l-0.0347,0.0299c-0.29273,0.2528 -0.6221,0.54557 -0.9881,0.8783c-0.3666,0.33333 -0.72307,0.65983 -1.0694,0.9795l-0.0678,-0.0735l0.0358,-0.0934l0.795,0.305c0.25187,0.0974 0.48197,0.19317 0.6903,0.2873l0.0768,0.0346l-0.3311,1.2771l-0.1084,-0.0497c-0.39213,-0.1794 -0.8359,-0.37053 -1.3313,-0.5734c-0.49588,-0.203 -1.00515,-0.40437 -1.52782,-0.6041c-0.52263,-0.19973 -1.03529,-0.38947 -1.53797,-0.5692c-0.50259,-0.17973 -0.95358,-0.33617 -1.35295,-0.4693l-0.09548,-0.0319l0.384,-1.128l0.09336,0.0297c0.42087,0.1336 0.91166,0.2972 1.47237,0.4908c0.56061,0.19353 1.13446,0.39703 1.72154,0.6105l-0.03417,0.094l-0.0661,-0.075c0.27935,-0.24613 0.55869,-0.4989 0.83802,-0.7583c0.28033,-0.26027 0.5306,-0.4905 0.7508,-0.6907l0.0673,0.074v0.1h-4.73002v-0.9454l0.01207,-0.0222c0.08532,-0.15753 0.16741,-0.32667 0.24628,-0.5074l0.24994,-0.57488l0.09171,0.03987v0.1h-2.27v-1.14h2.63v0.1l-0.09487,-0.03162c0.05346,-0.16039 0.10859,-0.32244 0.16539,-0.48615c0.05641,-0.16257 0.11115,-0.32681 0.16424,-0.4927l0.09524,0.03047v0.1h-2.33v-1.14h2.62v0.1l-0.0964,-0.02659c0.0532,-0.19285 0.10307,-0.37902 0.1496,-0.5585c0.04645,-0.17915 0.08957,-0.35495 0.12936,-0.52739l0.01991,-0.08628l1.23797,0.13094l-0.02254,0.10822c-0.0337,0.16175 -0.07245,0.32517 -0.11624,0.49025c-0.04313,0.16257 -0.08461,0.3268 -0.12442,0.49269l-0.09724,-0.02334v-0.1h3.94002v1.14h-4.21002v-0.1l0.09515,0.03076l-0.16,0.495l-0.16018,0.48557l-0.09497,-0.03133v-0.1h5.16002v1.14h-5.51002v-0.1zM8.32433,8.89989h5.47917v0.1h-0.1v-0.94h0.1v0.1h-5.19831l0.20314,-0.61575l0.18238,-0.56425h4.18279v0.1h-0.1v-0.94h0.1v0.1h-3.96686l0.0296,-0.12333c0.04018,-0.16743 0.08204,-0.3332 0.12558,-0.49731c0.04287,-0.1616 0.08079,-0.32152 0.11376,-0.47975l0.0979,0.02039l-0.01052,0.09945l-1.04,-0.11l0.01052,-0.09945l0.09744,0.02249c-0.0402,0.17419 -0.08375,0.35173 -0.13064,0.53261c-0.04679,0.1805 -0.09693,0.36767 -0.1504,0.5615l-0.02025,0.0734h-2.59615v-0.1h0.1v0.94h-0.1v-0.1h2.367l-0.04176,0.13048c-0.05358,0.16743 -0.10883,0.3332 -0.16576,0.4973c-0.05654,0.16296 -0.11141,0.32424 -0.16461,0.48385l-0.02279,0.06837h-2.60208v-0.1h0.1v0.94h-0.1v-0.1h2.32252l-0.31087,0.715c-0.08113,0.18592 -0.1657,0.36012 -0.25372,0.52261l-0.08793,-0.0476h0.1v0.82h-0.1v-0.1h4.88862l-0.1914,0.174c-0.21967,0.19967 -0.4694,0.42943 -0.7492,0.6893c-0.2806,0.26053 -0.56124,0.51443 -0.84192,0.7617l-0.04452,0.0392l-0.05575,-0.0202c-0.5861,-0.21313 -1.15892,-0.4163 -1.71846,-0.6095c-0.55912,-0.193 -1.04833,-0.35607 -1.46763,-0.4892l0.03026,-0.0953l0.09466,0.0322l-0.32,0.94l-0.09466,-0.0322l0.03162,-0.0949c0.40076,0.1336 0.85311,0.2905 1.35705,0.4707c0.50407,0.18027 1.01808,0.37053 1.54203,0.5708c0.52408,0.20027 1.03482,0.4022 1.53222,0.6058c0.49787,0.20387 0.9441,0.3961 1.3387,0.5767l-0.0416,0.0909l-0.0968,-0.0251l0.28,-1.08l0.0968,0.0251l-0.0412,0.0911c-0.20493,-0.09253 -0.43147,-0.18677 -0.6796,-0.2827l-0.9453,-0.3627l0.1183,-0.1092c0.34667,-0.32 0.7035,-0.64683 1.0705,-0.9805c0.36727,-0.33387 0.6979,-0.62777 0.9919,-0.8817l0.0654,0.0757h-0.1v-0.92001h0.1l-0.0002,0.10001l-5.09979,-0.0103l0.07011,-0.14359c0.13863,-0.28387 0.27407,-0.60101 0.4063,-0.95142z"></path></g><circle cx="16.5" cy="15.8017578125" r="4.5" stroke="rgba(204, 78, 29, 1)" stroke-width="1.2"   ></circle><path d="M14.1985 15.9041L15.686 17.4988C15.7388 17.5553 15.831 17.5616 15.892 17.5126C15.896 17.5095 15.9001 17.5057 15.9035 17.5019L18.625 14.7713C18.6765 14.7197 18.6765 14.6399 18.6243 14.5884C18.5722 14.5369 18.4861 14.5312 18.4265 14.5752L15.875 16.4903C15.8256 16.5274 15.7564 16.5305 15.7036 16.4985L14.3889 15.7049C14.3279 15.6685 14.2479 15.6785 14.1998 15.7288C14.1517 15.7785 14.1517 15.8538 14.1985 15.9041Z" stroke="rgba(204, 78, 29, 1)" stroke-width="1"      fill="#CC4E1D" ></path></svg>