<svg xmlns="http://www.w3.org/2000/svg" xmlns:xlink="http://www.w3.org/1999/xlink" width="24" height="24" viewBox="0 0 24 24" fill="none"><path d="M22.3425 13.3331C22.7684 13.3331 23.112 12.9893 23.112 12.5634L23.112 5.82779C23.112 4.26803 21.844 3 20.2842 3L3.82779 3C2.268 3 1 4.268 1 5.82779L1 18.168C1 19.7278 2.268 21 3.82779 21L20.2842 21C21.844 21 23.112 19.7277 23.112 18.168L23.112 11.9979C23.112 11.5721 22.7682 11.2282 22.3423 11.2282C21.9165 11.2282 21.5684 11.572 21.5684 11.9979L21.5684 14.6981L2.54359 14.6981L2.54359 5.82779C2.54359 5.1187 3.1187 4.54359 3.82779 4.54359L20.2842 4.54359C20.9933 4.54359 21.5684 5.11868 21.5684 5.82779L21.5685 12.5634C21.5685 12.9893 21.9167 13.3331 22.3425 13.3331ZM21.5684 16.2417L21.5684 18.168C21.5684 18.8771 20.9933 19.4564 20.2842 19.4564L3.82779 19.4564C3.1187 19.4564 2.54359 18.8771 2.54359 18.168L2.54359 16.2417L21.5684 16.2417ZM4.08718 18.168C4.08718 17.7421 4.43099 17.3983 4.85685 17.3983L6.91496 17.3983C7.34082 17.3983 7.68463 17.7421 7.68463 18.168C7.68463 18.5939 7.34084 18.9419 6.91496 18.9419L4.85685 18.9419C4.43099 18.9419 4.08718 18.5938 4.08718 18.168ZM9.22822 18.168C9.22822 17.7421 9.57201 17.3983 9.99789 17.3983L12.056 17.3983C12.4818 17.3983 12.8257 17.7421 12.8257 18.168C12.8257 18.5939 12.4819 18.9419 12.056 18.9419L9.99789 18.9419C9.57201 18.9419 9.22822 18.5938 9.22822 18.168ZM17.1971 18.168C17.1971 17.6 17.6581 17.1432 18.2261 17.1432C18.7941 17.1432 19.2552 17.5999 19.2552 18.168C19.2552 18.736 18.7941 19.1971 18.2261 19.1971C17.6581 19.1971 17.1971 18.736 17.1971 18.168Z"   fill="#034FA1" ></path><path d="M18.4809 10.0801C18.9067 10.0801 19.2548 10.4239 19.2548 10.8498C19.2548 11.2756 18.9067 11.6194 18.4809 11.6194L16.1081 11.6194C16.0999 11.6194 16.0907 11.6194 16.0825 11.6194L16.057 11.6194C16.0489 11.6194 16.0439 11.6194 16.0358 11.6194C16.0276 11.6194 16.0184 11.6152 16.0103 11.6152C16.0021 11.6152 15.9928 11.6109 15.9847 11.6109C15.9767 11.6109 15.9673 11.6067 15.9592 11.6067C15.9512 11.6067 15.946 11.6024 15.938 11.6024C15.93 11.6024 15.9204 11.5982 15.9125 11.5982C15.9045 11.5982 15.899 11.5897 15.8912 11.5897C15.8833 11.5897 15.8734 11.5812 15.8657 11.5812C15.8579 11.5812 15.8521 11.5727 15.8444 11.5727C15.8367 11.5727 15.8265 11.5642 15.8189 11.5642C15.8113 11.5642 15.8051 11.5557 15.7976 11.5557C15.7901 11.5557 15.7838 11.5472 15.7764 11.5472C15.769 11.5472 15.7581 11.5344 15.7509 11.5344C15.7436 11.5344 15.7367 11.5216 15.7296 11.5216C15.7224 11.5216 15.7154 11.5131 15.7083 11.5131C15.7013 11.5131 15.6939 11.5048 15.6871 11.5004C15.6802 11.4959 15.6768 11.488 15.6701 11.4834C15.6634 11.4787 15.6554 11.4755 15.6488 11.4706C15.6422 11.4657 15.634 11.4587 15.6275 11.4536C15.6211 11.4485 15.6168 11.4461 15.6105 11.4408C15.6043 11.4356 15.5996 11.4293 15.5935 11.4238C15.5874 11.4184 15.5782 11.4125 15.5723 11.4068C15.5663 11.4012 15.561 11.3956 15.5553 11.3898C15.5495 11.384 15.5438 11.3788 15.5382 11.3728C15.5327 11.3668 15.5266 11.362 15.5212 11.3558C15.5159 11.3496 15.5136 11.3409 15.5085 11.3345C15.5033 11.3282 15.4964 11.324 15.4915 11.3175C15.4865 11.311 15.4835 11.3029 15.4787 11.2963C15.474 11.2896 15.4662 11.2818 15.4617 11.275C15.4572 11.2682 15.4533 11.2607 15.449 11.2537L14.9642 10.4671L13.157 13.4692C13.0163 13.7032 12.7618 13.8434 12.4936 13.8434C12.4625 13.8434 12.4322 13.8391 12.4 13.8391C12.0977 13.801 11.8463 13.5871 11.7579 13.2949L10.4823 9.08081L9.94646 11.1177C9.8571 11.4561 9.55284 11.6917 9.20231 11.6917L5.63037 11.6917C5.20454 11.6917 4.85645 11.3437 4.85645 10.9178C4.85645 10.4919 5.20451 10.1481 5.63037 10.1481L8.60698 10.1481L9.68707 6.04892C9.77542 5.71547 10.074 5.4809 10.4185 5.47485C10.7499 5.48791 11.0717 5.69195 11.1711 6.0234L12.7317 11.1857L14.2966 8.58755C14.2966 8.58049 14.3049 8.57319 14.3093 8.56628C14.3138 8.55937 14.3174 8.55181 14.3221 8.54502C14.3268 8.53826 14.33 8.53037 14.3348 8.52376C14.3397 8.51715 14.3468 8.51322 14.3519 8.50675C14.357 8.50028 14.3636 8.49176 14.3689 8.48549C14.3742 8.47919 14.3761 8.4746 14.3816 8.46848C14.3871 8.46236 14.3929 8.4574 14.3986 8.45147C14.4043 8.44555 14.4098 8.44022 14.4156 8.43446C14.4215 8.42871 14.4308 8.42301 14.4369 8.41745C14.443 8.41189 14.4477 8.4058 14.4539 8.40044C14.4601 8.39508 14.4645 8.3886 14.4709 8.38343C14.4773 8.37827 14.4856 8.37137 14.4922 8.36642C14.4987 8.36148 14.5067 8.35839 14.5134 8.35367C14.5202 8.34892 14.5278 8.34544 14.5347 8.34091C14.5416 8.33639 14.5447 8.33246 14.5517 8.32815C14.5587 8.32385 14.5658 8.3154 14.573 8.3154C14.5801 8.3154 14.5912 8.30264 14.5985 8.30264C14.6058 8.30264 14.6123 8.28988 14.6198 8.28988C14.6272 8.28988 14.6335 8.28138 14.641 8.28138C14.6485 8.28138 14.6547 8.27287 14.6623 8.27287C14.6699 8.27287 14.6801 8.26012 14.6878 8.26012C14.6955 8.26012 14.7013 8.25587 14.709 8.25587C14.7168 8.25587 14.7267 8.24736 14.7346 8.24736C14.7425 8.24736 14.7479 8.23886 14.7558 8.23886C14.7638 8.23886 14.7733 8.2346 14.7813 8.2346C14.7894 8.2346 14.7988 8.23035 14.8069 8.23035C14.8149 8.23035 14.82 8.22185 14.8281 8.22185C14.8362 8.22185 14.8455 8.22185 14.8536 8.22185C14.8618 8.22185 14.871 8.21759 14.8791 8.21759C14.8873 8.21759 14.8964 8.21334 14.9047 8.21334C14.9129 8.21334 14.9177 8.21334 14.9259 8.21334C14.9342 8.21334 14.9432 8.21334 14.9514 8.21334L14.9557 8.21334C14.9639 8.21334 14.973 8.21334 14.9812 8.21334C14.9894 8.21334 14.9985 8.21334 15.0067 8.21334C15.0149 8.21334 15.0198 8.21759 15.028 8.21759C15.0361 8.21759 15.0454 8.22185 15.0535 8.22185C15.0616 8.22185 15.0709 8.22185 15.079 8.22185C15.0871 8.22185 15.0965 8.2261 15.1045 8.2261C15.1126 8.2261 15.1178 8.2346 15.1258 8.2346C15.1338 8.2346 15.1434 8.23886 15.1513 8.23886C15.1592 8.23886 15.1647 8.24311 15.1726 8.24311C15.1804 8.24311 15.1903 8.25161 15.1981 8.25161C15.2058 8.25161 15.2116 8.26012 15.2193 8.26012C15.227 8.26012 15.2372 8.26862 15.2448 8.26862C15.2524 8.26862 15.2586 8.27713 15.2661 8.27713C15.2736 8.27713 15.28 8.28988 15.2874 8.28988C15.2947 8.28988 15.3013 8.29839 15.3086 8.29839C15.3159 8.29839 15.327 8.31114 15.3341 8.31114C15.3413 8.31114 15.3484 8.3239 15.3554 8.3239C15.3624 8.3239 15.3655 8.33223 15.3724 8.33666C15.3793 8.34111 15.3869 8.34477 15.3937 8.34941C15.4004 8.35406 15.4083 8.36156 15.4149 8.36642C15.4215 8.37129 15.4298 8.37412 15.4362 8.37918C15.4426 8.38425 15.4469 8.3909 15.4532 8.39619C15.4595 8.40145 15.4641 8.40772 15.4702 8.4132C15.4763 8.41866 15.4855 8.42028 15.4915 8.42596C15.4974 8.43161 15.5028 8.44139 15.5085 8.44722C15.5142 8.45307 15.52 8.4582 15.5255 8.46423C15.531 8.47025 15.5372 8.47504 15.5425 8.48124C15.5478 8.48743 15.5501 8.49188 15.5553 8.49825C15.5604 8.50461 15.5673 8.51299 15.5723 8.51951C15.5772 8.52602 15.5803 8.53411 15.585 8.54077C15.5898 8.54746 15.5933 8.55097 15.5978 8.55778C15.6023 8.56459 15.6105 8.57208 15.6148 8.57904L16.5375 10.0801L18.4809 10.0801Z"   fill="#CC4E1D" ></path></svg>