<svg xmlns="http://www.w3.org/2000/svg" xmlns:xlink="http://www.w3.org/1999/xlink" width="24" height="24" viewBox="0 0 24 24" fill="none"><g ><path     fill="#034FA1"  d="M9.676 6.748Q9.612 6.892 9.552 7.028Q9.492 7.164 9.428 7.284L13.148 7.284L13.148 8.284Q12.804 8.54 12.432 8.848Q12.06 9.156 11.708 9.46Q12.02 9.564 12.304 9.656Q12.588 9.748 12.828 9.836L12.548 10.852Q12.044 10.652 11.44 10.44Q10.836 10.228 10.224 10.028Q9.612 9.828 9.04 9.656Q8.468 9.484 8.036 9.372L8.332 8.452Q8.812 8.588 9.416 8.764Q10.02 8.94 10.644 9.124Q10.94 8.892 11.224 8.66Q11.508 8.428 11.764 8.244L8.212 8.244L8.212 7.388Q8.292 7.252 8.372 7.092Q8.452 6.932 8.54 6.748L7.052 6.748L7.052 5.796L8.924 5.796Q8.98 5.66 9.028 5.516Q9.076 5.372 9.124 5.228L7.516 5.228L7.516 4.268L9.428 4.268Q9.492 4.06 9.548 3.856Q9.604 3.652 9.652 3.46L10.684 3.644Q10.644 3.804 10.604 3.956Q10.564 4.108 10.524 4.268L13.348 4.268L13.348 5.228L10.236 5.228L10.044 5.796L13.82 5.796L13.82 6.748L9.676 6.748Z"></path></g><path d="M3.93424 17.9909L3.93424 16.4975C5.64252 17.5225 7.59065 18.0814 9.58289 18.1153L9.73788 18.1153L9.73788 16.6378L9.5942 16.6299C6.3677 16.4489 3.93424 15.4805 3.93424 14.3775L3.93424 12.8502C3.98731 12.8821 4.04064 12.9135 4.09423 12.9445C4.14782 12.9755 4.20165 13.0061 4.25573 13.0362C4.30982 13.0664 4.36415 13.0961 4.41872 13.1253C4.47328 13.1545 4.52809 13.1833 4.58312 13.2117C4.63816 13.24 4.69343 13.2679 4.74891 13.2954C4.80441 13.3228 4.86011 13.3498 4.91605 13.3764C4.97199 13.4029 5.02813 13.429 5.08451 13.4546C5.14087 13.4802 5.19743 13.5054 5.2542 13.5301C5.31098 13.5548 5.36793 13.579 5.4251 13.6028C5.48228 13.6265 5.53963 13.6498 5.59718 13.6726C5.65471 13.6955 5.71244 13.7178 5.77037 13.7397C5.82828 13.7616 5.88637 13.783 5.94464 13.804C6.00288 13.8249 6.06131 13.8454 6.11991 13.8654C6.17852 13.8854 6.23726 13.9049 6.29619 13.9239C6.35509 13.9429 6.41415 13.9615 6.47337 13.9795C6.5326 13.9976 6.59196 14.0151 6.65146 14.0322C6.71096 14.0494 6.7706 14.066 6.83037 14.0821C6.89015 14.0982 6.95005 14.1138 7.01009 14.129C7.07012 14.1441 7.13026 14.1587 7.19054 14.1729C7.25081 14.1871 7.31119 14.2007 7.37168 14.2139C7.43218 14.2271 7.49277 14.2398 7.55346 14.2519C7.61418 14.2641 7.67497 14.2758 7.73584 14.287C7.79673 14.2982 7.8577 14.3089 7.91878 14.3191C7.97985 14.3293 8.04098 14.339 8.10221 14.3482C8.16344 14.3574 8.22473 14.3661 8.2861 14.3743C8.34747 14.3825 8.40889 14.3902 8.47038 14.3974C8.53187 14.4046 8.59342 14.4113 8.65501 14.4174C8.71662 14.4236 8.77826 14.4293 8.83995 14.4345C8.90166 14.4397 8.96339 14.4444 9.02515 14.4485C9.08692 14.4527 9.14873 14.4564 9.21055 14.4595C9.27238 14.4627 9.33423 14.4654 9.39609 14.4675C9.45796 14.4697 9.51985 14.4713 9.58175 14.4725L9.73788 14.4793L9.73788 12.9633L9.59534 12.952C6.31452 12.7405 3.93424 11.7867 3.93424 10.6894L3.93424 8.97091C5.46152 10.1294 7.9606 10.8138 10.6916 10.8138C13.0945 10.927 15.4714 10.2708 17.4761 8.9415L17.4761 10.4065L19.0033 10.4065L19.0033 6.40736C19.0033 3.96373 15.3039 1.97827 10.7561 1.97827C6.20819 1.97827 2.50879 3.966 2.50879 6.40736L2.50879 17.9977C2.50879 19.0385 3.38216 20.0057 4.96826 20.7241C6.51816 21.4244 8.57262 21.8102 10.7561 21.8102L10.8579 21.8102L10.8579 20.2829L10.7063 20.2829C7.03516 20.2829 3.93424 19.2331 3.93424 17.9909ZM3.95234 6.45147C3.95234 4.88347 7.05441 3.55872 10.7244 3.55872C14.3955 3.55872 17.5066 4.88236 17.5066 6.45147C17.5066 8.04097 14.4634 9.33406 10.7244 9.33406C7.05441 9.33406 3.95234 8.01382 3.95234 6.45147Z"   fill="#034FA1" ></path><path d="M15.0051 21.6073C15.2556 21.7475 15.5376 21.8182 15.8183 21.8182C16.099 21.8182 16.3809 21.7475 16.6314 21.6073L19.9142 19.7614C20.4164 19.4799 20.7274 18.9545 20.7274 18.3915L20.7274 14.6997C20.7274 14.1366 20.4152 13.6113 19.9142 13.3297L16.6302 11.4839C16.1292 11.2023 15.5061 11.2023 15.0051 11.4839L11.7223 13.3297C11.2202 13.6113 10.9092 14.1366 10.9092 14.6997L10.9092 18.3915C10.9092 18.9545 11.2214 19.4799 11.7223 19.7614L15.0051 21.6073ZM15.5484 12.3991C15.6319 12.352 15.7251 12.3285 15.8183 12.3285C15.9114 12.3285 16.0046 12.352 16.0881 12.3991L19.3721 14.245C19.5391 14.3381 19.642 14.5124 19.642 14.6997L19.642 18.3915C19.642 18.5788 19.5391 18.7531 19.3721 18.8462L16.0881 20.692C15.9211 20.7851 15.7154 20.7851 15.5484 20.692L12.2644 18.8462C12.0974 18.7531 11.9946 18.5788 11.9946 18.3915L11.9946 14.6997C11.9946 14.5124 12.0974 14.3381 12.2644 14.245L15.5484 12.3991ZM13.7554 15.9041L15.3829 16.7359L15.3829 18.6166C15.3829 18.9353 15.6518 19.195 15.9818 19.195C16.3119 19.195 16.5775 18.934 16.5775 18.6166L16.5775 16.7631L18.154 15.9456C18.4388 15.785 18.5363 15.4313 18.3699 15.1563C18.2036 14.8813 17.8366 14.7911 17.5518 14.9518L16.0103 15.7379L14.3543 14.9039C14.0681 14.7446 13.7044 14.8385 13.5394 15.1148C13.3743 15.3911 13.4692 15.7447 13.7554 15.9041Z" fill-rule="evenodd"  fill="#CC4E1D" ></path></svg>