<svg xmlns="http://www.w3.org/2000/svg" xmlns:xlink="http://www.w3.org/1999/xlink" width="24" height="24" viewBox="0 0 24 24" fill="none"><path   fill="rgba(3, 79, 161, 1)"  d="M4.72745 3.01812L19.2729 3.01812C21.3214 3.01812 22.982 4.67873 22.982 6.72721L22.982 16.909C22.982 18.9575 21.3214 20.6181 19.2729 20.6181L4.72745 20.6181C2.67898 20.6181 1.01836 18.9575 1.01836 16.909L1.01836 6.72721C1.01836 4.67873 2.67898 3.01812 4.72745 3.01812ZM4.72745 4.61811C3.56263 4.61811 2.61836 5.56239 2.61836 6.72721L2.61836 16.909C2.61836 18.0738 3.56263 19.0181 4.72745 19.0181L19.2729 19.0181C20.4377 19.0181 21.382 18.0738 21.382 16.909L21.382 6.72721C21.382 5.56239 20.4377 4.61811 19.2729 4.61811L4.72745 4.61811Z"></path><path     fill="#034FA1"  d="M4.66047 6.72729L18.9826 6.72729C19.4477 6.72729 19.8248 7.10432 19.8248 7.56941L19.8248 7.56941C19.8248 8.03449 19.4477 8.41152 18.9826 8.41152L4.66047 8.41151C4.19538 8.41151 3.81836 8.03449 3.81836 7.5694L3.81836 7.5694C3.81836 7.10432 4.19538 6.72729 4.66047 6.72729Z"></path><rect  x="3.818359375" y="10.727294921875" width="7.017545700073242" height="1.6842193603515625" rx="0.8421096801757812"    fill="#034FA1" ></rect><rect  x="3.818359375" y="14.727294921875" width="4.91227912902832" height="1.6842193603515625" rx="0.8421096801757812"    fill="#034FA1" ></rect><g ><path     fill="#CC4E1D"  d="M14.97 13.56Q14.89 13.74 14.815 13.91Q14.74 14.08 14.66 14.23L19.31 14.23L19.31 15.48Q18.88 15.8 18.415 16.185Q17.95 16.57 17.51 16.95Q17.9 17.08 18.255 17.195Q18.61 17.31 18.91 17.42L18.56 18.69Q17.93 18.44 17.175 18.175Q16.42 17.91 15.655 17.66Q14.89 17.41 14.175 17.195Q13.46 16.98 12.92 16.84L13.29 15.69Q13.89 15.86 14.645 16.08Q15.4 16.3 16.18 16.53Q16.55 16.24 16.905 15.95Q17.26 15.66 17.58 15.43L13.14 15.43L13.14 14.36Q13.24 14.19 13.34 13.99Q13.44 13.79 13.55 13.56L11.69 13.56L11.69 12.37L14.03 12.37Q14.1 12.2 14.16 12.02Q14.22 11.84 14.28 11.66L12.27 11.66L12.27 10.46L14.66 10.46Q14.74 10.2 14.81 9.945Q14.88 9.69 14.94 9.45L16.23 9.68Q16.18 9.88 16.13 10.07Q16.08 10.26 16.03 10.46L19.56 10.46L19.56 11.66L15.67 11.66L15.43 12.37L20.15 12.37L20.15 13.56L14.97 13.56Z"></path></g></svg>