<svg xmlns="http://www.w3.org/2000/svg" xmlns:xlink="http://www.w3.org/1999/xlink" width="24" height="24" viewBox="0 0 24 24" fill="none"><path   fill="rgba(3, 79, 161, 1)"  d="M19.5346 8.59082L19.5346 5.78988L20.2346 5.78988L19.5346 5.78988C19.5346 4.68583 18.6396 3.79082 17.5355 3.79082L17.5355 3.79082L6.15365 3.79082L6.15365 3.09082L6.15365 3.79082C5.0496 3.79082 4.15459 4.68583 4.15459 5.78988L4.15459 5.78988L4.15459 18.2418L3.45459 18.2418L4.15459 18.2418C4.15459 19.3458 5.0496 20.2408 6.15365 20.2408L6.15366 20.9408L6.15365 20.2408L10.0945 20.2408L10.0945 21.6408L6.15366 21.6408L6.15366 21.6408C4.27641 21.6408 2.75459 20.119 2.75459 18.2418L2.75459 18.2418L2.75459 5.78988L3.45459 5.78988L2.75459 5.78988C2.75459 3.91263 4.2764 2.39082 6.15365 2.39082L6.15365 2.39082L17.5355 2.39082L17.5355 3.09082L17.5355 2.39082C19.4128 2.39082 20.9346 3.91263 20.9346 5.78988L20.9346 5.78988L20.9346 8.59082L19.5346 8.59082ZM10.0945 21.6408C9.70788 21.6408 9.39448 21.3274 9.39448 20.9408C9.39448 20.5542 9.70788 20.2408 10.0945 20.2408C10.4811 20.2408 10.7945 20.5542 10.7945 20.9408C10.7945 21.3274 10.4811 21.6408 10.0945 21.6408ZM20.2346 9.29082C19.848 9.29082 19.5346 8.97742 19.5346 8.59082C19.5346 8.20422 19.848 7.89082 20.2346 7.89082C20.6212 7.89082 20.9346 8.20422 20.9346 8.59082C20.9346 8.97742 20.6212 9.29082 20.2346 9.29082Z"></path><g ><path     fill="#034FA1"  d="M9.39348 8.99989Q9.19348 9.52989 8.98348 9.95989L13.9235 9.96989L13.9235 10.8899Q13.4835 11.2699 12.9335 11.7699Q12.3835 12.2699 11.8635 12.7499Q12.2835 12.9099 12.6585 13.0549Q13.0335 13.1999 13.3435 13.3399L13.0635 14.4199Q12.4735 14.1499 11.7285 13.8449Q10.9835 13.5399 10.1985 13.2399Q9.41348 12.9399 8.65848 12.6699Q7.90348 12.3999 7.30348 12.1999L7.62348 11.2599Q8.25348 11.4599 9.09348 11.7499Q9.93348 12.0399 10.8135 12.3599Q11.2335 11.9899 11.6535 11.5999Q12.0735 11.2099 12.4035 10.9099L7.77348 10.9099L7.77348 10.0899Q7.90348 9.84989 8.02348 9.57489Q8.14348 9.29989 8.27348 8.99989L6.10348 8.99989L6.10348 8.05989L8.63348 8.05989Q8.71348 7.81989 8.79848 7.57489Q8.88348 7.32989 8.96348 7.07989L6.73348 7.07989L6.73348 6.13989L9.25348 6.13989Q9.33348 5.84989 9.40348 5.57989Q9.47348 5.30989 9.53348 5.04989L10.5735 5.15989Q10.5235 5.39989 10.4585 5.64489Q10.3935 5.88989 10.3335 6.13989L14.1735 6.13989L14.1735 7.07989L10.0635 7.07989Q9.98348 7.32989 9.90348 7.57489Q9.82348 7.81989 9.74348 8.05989L14.8035 8.05989L14.8035 8.99989L9.39348 8.99989Z"></path><path fill-rule="evenodd"  fill="rgba(3, 79, 161, 1)"  d="M9.48704,9.0352c-0.13443,0.35625 -0.27233,0.67912 -0.4137,0.9686l-0.08986,-0.04391l0.0002,-0.1l5.03982,0.01021v1.0656l-0.0347,0.0299c-0.29273,0.2528 -0.6221,0.54557 -0.9881,0.8783c-0.3666,0.33333 -0.72307,0.65983 -1.0694,0.9795l-0.0678,-0.0735l0.0358,-0.0934l0.795,0.305c0.25187,0.0974 0.48197,0.19317 0.6903,0.2873l0.0768,0.0346l-0.3311,1.2771l-0.1084,-0.0497c-0.39213,-0.1794 -0.8359,-0.37053 -1.3313,-0.5734c-0.49587,-0.203 -1.00513,-0.40437 -1.5278,-0.6041c-0.52265,-0.19973 -1.03531,-0.38947 -1.53799,-0.5692c-0.50259,-0.17973 -0.95358,-0.33617 -1.35295,-0.4693l-0.09548,-0.0319l0.384,-1.128l0.09336,0.0297c0.42087,0.1336 0.91166,0.2972 1.47237,0.4908c0.56061,0.19353 1.13448,0.39703 1.72159,0.6105l-0.0342,0.094l-0.0661,-0.075c0.27933,-0.24613 0.55867,-0.4989 0.838,-0.7583c0.28033,-0.26027 0.5306,-0.4905 0.7508,-0.6907l0.0673,0.074v0.1h-4.73002v-0.9454l0.01207,-0.0222c0.08532,-0.15753 0.16741,-0.32667 0.24628,-0.5074l0.24994,-0.57488l0.09171,0.03987v0.1h-2.27v-1.14h2.63v0.1l-0.09487,-0.03162c0.05346,-0.16039 0.10859,-0.32244 0.16539,-0.48615c0.05641,-0.16257 0.11115,-0.32681 0.16424,-0.4927l0.09524,0.03047v0.1h-2.33v-1.14h2.62v0.1l-0.0964,-0.02659c0.0532,-0.19285 0.10307,-0.37902 0.1496,-0.5585c0.04645,-0.17915 0.08957,-0.35495 0.12936,-0.52739l0.01991,-0.08628l1.23795,0.13094l-0.0225,0.10822c-0.03373,0.16175 -0.0725,0.32517 -0.1163,0.49025c-0.04313,0.16257 -0.0846,0.3268 -0.1244,0.49269l-0.0972,-0.02334v-0.1h3.94v1.14h-4.21v-0.1l0.0951,0.03076l-0.15997,0.495l-0.16018,0.48557l-0.09497,-0.03133v-0.1h5.16002v1.14h-5.51002v-0.1zM9.32433,8.89989h5.47917v0.1h-0.1v-0.94h0.1v0.1h-5.19831l0.20314,-0.61575l0.18238,-0.56425h4.18279v0.1h-0.1v-0.94h0.1v0.1h-3.9669l0.0296,-0.12333c0.0402,-0.16743 0.08207,-0.3332 0.1256,-0.49731c0.04287,-0.1616 0.0808,-0.32152 0.1138,-0.47975l0.0979,0.02039l-0.0105,0.09945l-1.04004,-0.11l0.01052,-0.09945l0.09744,0.02249c-0.0402,0.17419 -0.08375,0.35173 -0.13064,0.53261c-0.04679,0.1805 -0.09693,0.36767 -0.1504,0.5615l-0.02025,0.0734h-2.59615v-0.1h0.1v0.94h-0.1v-0.1h2.367l-0.04176,0.13048c-0.05357,0.16743 -0.10883,0.3332 -0.16576,0.4973c-0.05654,0.16296 -0.11141,0.32424 -0.16461,0.48385l-0.02279,0.06837h-2.60208v-0.1h0.1v0.94h-0.1v-0.1h2.32252l-0.31087,0.715c-0.08113,0.18592 -0.1657,0.36012 -0.25372,0.52261l-0.08793,-0.0476h0.1v0.82h-0.1v-0.1h4.88862l-0.1914,0.174c-0.21967,0.19967 -0.4694,0.42943 -0.7492,0.6893c-0.2806,0.26053 -0.56123,0.51443 -0.8419,0.7617l-0.0445,0.0392l-0.0558,-0.0202c-0.58609,-0.21313 -1.15891,-0.4163 -1.71845,-0.6095c-0.55912,-0.193 -1.04833,-0.35607 -1.46763,-0.4892l0.03026,-0.0953l0.09466,0.0322l-0.32,0.94l-0.09466,-0.0322l0.03162,-0.0949c0.40076,0.1336 0.85311,0.2905 1.35705,0.4707c0.50407,0.18027 1.01808,0.37053 1.54205,0.5708c0.52407,0.20027 1.0348,0.4022 1.5322,0.6058c0.49787,0.20387 0.9441,0.3961 1.3387,0.5767l-0.0416,0.0909l-0.0968,-0.0251l0.28,-1.08l0.0968,0.0251l-0.0412,0.0911c-0.20493,-0.09253 -0.43147,-0.18677 -0.6796,-0.2827l-0.9453,-0.3627l0.1183,-0.1092c0.34667,-0.32 0.7035,-0.64683 1.0705,-0.9805c0.36727,-0.33387 0.6979,-0.62777 0.9919,-0.8817l0.0654,0.0757h-0.1v-0.92001h0.1l-0.0002,0.10001l-5.09979,-0.0103l0.07011,-0.14359c0.13863,-0.28387 0.27407,-0.60101 0.4063,-0.95142z"></path></g><path d="M11.5094 20.5256L11.4768 20.5239L11.4551 20.5228L11.4226 20.521L11.4015 20.5088L11.3695 20.496L11.3479 20.4949L11.3159 20.4821L11.2948 20.4699L11.2736 20.4577L11.2422 20.4339L11.2211 20.4217L11.2 20.4095L11.1794 20.3862L11.1589 20.3629L11.1486 20.3513L11.128 20.328L11.1075 20.3048L11.0978 20.2821L11.0772 20.2588L11.0675 20.2361L11.0583 20.2024L11.0486 20.1797L11.0389 20.157L11.0406 20.1238L11.0309 20.1012L11.0217 20.0674L11.0228 20.0453L11.0245 20.0121L11.0257 19.99L11.0273 19.9568L11.0285 19.9347L11.0404 19.9132L11.5324 17.7217C11.533 17.709 11.5448 17.6905 11.5455 17.678C11.5461 17.6655 11.5574 17.6576 11.558 17.6454C11.5586 17.6332 11.5699 17.6247 11.5705 17.6128C11.5711 17.601 11.5933 17.5922 11.5939 17.5808C11.5945 17.5694 11.6064 17.5482 11.6064 17.5482L11.6298 17.5162L11.664 17.4847L11.6874 17.4527L18.0762 11.748C18.6565 11.2494 19.5337 11.2958 20.0603 11.853L20.5439 12.3886C21.0628 12.9607 21.0179 13.8426 20.4438 14.3569L14.0545 20.0726L14.0208 20.093L13.998 20.114L13.9644 20.1344L13.9313 20.1437C13.9313 20.1437 13.9087 20.1647 13.8976 20.1641C13.8865 20.1635 13.876 20.1741 13.8645 20.1735C13.8531 20.1729 13.8431 20.1834 13.8315 20.1828C13.8198 20.1822 13.7994 20.1922 13.7875 20.1916L11.6075 20.5197L11.5094 20.5256ZM12.4913 18.105L12.1847 19.4304L13.4889 19.2222L19.7637 13.6224C19.9185 13.4803 19.9308 13.2382 19.7913 13.0805L19.2967 12.5443C19.151 12.3949 18.9147 12.3824 18.7546 12.5157L12.4913 18.105Z" stroke="rgba(204, 78, 29, 1)" stroke-width="0.2"      fill="#CC4E1D" ></path><path d="M18.5589 15.3574C18.5431 15.3565 18.5264 15.3523 18.5107 15.3515C18.495 15.3507 18.4812 15.3433 18.4657 15.3425C18.4502 15.3417 18.4359 15.3354 18.4209 15.3302C18.406 15.325 18.3909 15.3212 18.3765 15.3147C18.3621 15.3082 18.3459 15.3003 18.3322 15.2925C18.3185 15.2847 18.3075 15.2764 18.2946 15.2674C18.2817 15.2583 18.2691 15.2492 18.2571 15.239C18.2451 15.2288 18.2343 15.2154 18.2233 15.2041L16.8037 13.7511C16.7973 13.7453 16.7912 13.7398 16.7851 13.7336C16.7791 13.7275 16.7757 13.7195 16.77 13.713C16.7642 13.7066 16.757 13.6989 16.7516 13.6922C16.7462 13.6855 16.7415 13.6786 16.7364 13.6716C16.7314 13.6646 16.7259 13.6582 16.7213 13.651C16.7166 13.6437 16.7136 13.638 16.7094 13.6305C16.7051 13.623 16.7015 13.6144 16.6976 13.6067C16.6937 13.5991 16.6894 13.5909 16.6859 13.583C16.6823 13.5752 16.6772 13.5673 16.6741 13.5592C16.671 13.5512 16.6652 13.5437 16.6656 13.5357C16.666 13.5276 16.6599 13.5204 16.6603 13.5123C16.6607 13.5041 16.6515 13.4937 16.6519 13.4854C16.6524 13.4771 16.6462 13.4703 16.6467 13.462C16.6471 13.4536 16.6443 13.4439 16.6448 13.4354C16.6452 13.427 16.6424 13.4174 16.6429 13.4089C16.6433 13.4004 16.6405 13.3909 16.641 13.3824C16.6414 13.3738 16.6417 13.3679 16.6422 13.3593C16.6426 13.3507 16.6431 13.3415 16.6435 13.3329C16.6439 13.3244 16.6476 13.3153 16.6481 13.3067C16.6485 13.2982 16.6522 13.289 16.6526 13.2806C16.6531 13.2721 16.6566 13.2661 16.657 13.2577C16.6575 13.2492 16.6644 13.2399 16.6648 13.2316C16.6653 13.2233 16.6722 13.2138 16.6727 13.2056C16.6731 13.1974 16.6831 13.1911 16.6835 13.1831C16.6839 13.175 16.6906 13.1682 16.6944 13.1605C16.6982 13.1528 16.7011 13.1455 16.7053 13.1379C16.7094 13.1304 16.7148 13.1228 16.7193 13.1156C16.7239 13.1083 16.7285 13.1002 16.7334 13.0932C16.7384 13.0861 16.7421 13.0809 16.7474 13.0741C16.7527 13.0673 16.7591 13.0584 16.7647 13.0519C16.7703 13.0454 16.7759 13.0392 16.7819 13.033C16.7878 13.0267 16.7928 13.0199 16.799 13.014C16.8053 13.0081 16.8127 13.0042 16.8193 12.9986C16.8258 12.993 16.8326 12.9884 16.8395 12.9831C16.8463 12.9779 16.8526 12.9726 16.8597 12.9677C16.8668 12.9628 16.8726 12.9568 16.8799 12.9522C16.8873 12.9477 16.8956 12.9444 16.9032 12.9403C16.9108 12.9361 16.9187 12.932 16.9265 12.9283C16.9343 12.9245 16.9418 12.9196 16.9498 12.9163C16.9577 12.9129 16.968 12.9107 16.9761 12.9078C16.9843 12.9048 16.9911 12.8986 16.9993 12.8991C17.0074 12.8995 17.0172 12.8934 17.0254 12.8938C17.0337 12.8943 17.04 12.888 17.0484 12.8885C17.0568 12.8889 17.0661 12.8828 17.0746 12.8832C17.0831 12.8837 17.0921 12.8809 17.1006 12.8813C17.1091 12.8818 17.118 12.8789 17.1266 12.8794C17.1352 12.8798 17.144 12.877 17.1526 12.8774C17.1613 12.8779 17.1698 12.8784 17.1785 12.8788C17.1871 12.8793 17.1957 12.8797 17.2043 12.8802C17.2129 12.8806 17.2214 12.8844 17.23 12.8848C17.2386 12.8853 17.2472 12.8891 17.2557 12.8895C17.2642 12.89 17.2729 12.8937 17.2814 12.8942C17.2898 12.8946 17.2985 12.9017 17.3069 12.9021C17.3152 12.9026 17.3209 12.9095 17.3292 12.9099C17.3374 12.9104 17.3464 12.9207 17.3545 12.9212C17.3626 12.9216 17.3689 12.9284 17.3766 12.9323C17.3843 12.9361 17.3944 12.9392 17.402 12.9435C17.4095 12.9478 17.4166 12.9532 17.4239 12.9579C17.4312 12.9625 17.4356 12.9671 17.4426 12.9721C17.4497 12.9771 17.4578 12.9811 17.4646 12.9865C17.4713 12.9918 17.4766 12.9983 17.4831 13.004C17.4896 13.0097 17.4987 13.0156 17.5049 13.0216C17.5111 13.0277 17.5174 13.0361 17.5233 13.0424C17.5291 13.0488 17.5331 13.0532 17.5386 13.0598L18.9548 14.5159C18.9599 14.5203 18.9655 14.5253 18.9704 14.5299C18.9753 14.5345 18.9811 14.5392 18.9858 14.544C18.9905 14.5487 18.9936 14.5529 18.9981 14.5578C19.0026 14.5628 19.0092 14.5667 19.0135 14.5719C19.0178 14.577 19.0215 14.5837 19.0256 14.589C19.0297 14.5943 19.034 14.5975 19.0379 14.6029C19.0417 14.6084 19.0431 14.6143 19.0468 14.6199C19.0505 14.6255 19.0555 14.6313 19.0589 14.6371C19.0624 14.6428 19.0645 14.6482 19.0677 14.654C19.0709 14.6599 19.0737 14.665 19.0766 14.671C19.0796 14.677 19.0856 14.6854 19.0853 14.6913C19.085 14.6973 19.0944 14.7023 19.094 14.7083C19.0937 14.7143 19.1031 14.7225 19.1028 14.7286C19.1025 14.7348 19.1088 14.7392 19.1084 14.7454C19.1081 14.7517 19.1142 14.7592 19.1139 14.7655C19.1136 14.7719 19.1197 14.7792 19.1194 14.7856C19.1191 14.792 19.1219 14.7991 19.1215 14.8056C19.1212 14.8121 19.1242 14.819 19.1238 14.8255C19.1235 14.832 19.1296 14.8391 19.1293 14.8456C19.129 14.8522 19.1286 14.8588 19.1283 14.8654C19.128 14.872 19.1308 14.8787 19.1304 14.8854C19.1301 14.892 19.1298 14.8985 19.1294 14.9051C19.1291 14.9118 19.1288 14.9183 19.1284 14.9249C19.1281 14.9316 19.1278 14.938 19.1274 14.9446C19.1271 14.9513 19.1268 14.9578 19.1264 14.9644C19.1261 14.9711 19.1226 14.9774 19.1223 14.9841C19.1219 14.9907 19.1183 14.9971 19.1179 15.0036C19.1176 15.0102 19.1141 15.0168 19.1138 15.0233C19.1134 15.0298 19.1098 15.0364 19.1095 15.0428C19.1091 15.0493 19.1023 15.0559 19.102 15.0623C19.1017 15.0687 19.095 15.0721 19.0947 15.0784C19.0944 15.0847 19.0875 15.0916 19.0872 15.0979C19.0869 15.1041 19.08 15.1111 19.0797 15.1173C19.0794 15.1234 19.0696 15.1272 19.0693 15.1332C19.069 15.1393 19.0621 15.1468 19.0618 15.1527C19.0615 15.1585 19.055 15.163 19.0513 15.1686C19.0477 15.1742 19.0414 15.179 19.0376 15.1844C19.0337 15.1899 19.031 15.1951 19.0269 15.2004C19.0229 15.2057 19.0174 15.2111 19.0132 15.2162C19.0089 15.2213 19.0039 15.227 18.9994 15.232C18.9949 15.2369 18.9904 15.2397 18.9858 15.2445C18.9811 15.2492 18.977 15.2557 18.9722 15.2603C18.9673 15.2649 18.9636 15.2684 18.9586 15.2728C18.9535 15.2771 18.9468 15.2809 18.9416 15.2851C18.9364 15.2893 18.9334 15.2936 18.928 15.2976C18.9227 15.3016 18.9168 15.3062 18.9113 15.3099C18.9057 15.3137 18.9 15.3187 18.8943 15.3222C18.8886 15.3258 18.8836 15.328 18.8778 15.3313C18.8719 15.3346 18.8638 15.3371 18.8578 15.3402C18.8519 15.3432 18.8471 15.3495 18.8412 15.3492C18.8353 15.3488 18.8274 15.3583 18.8213 15.358C18.8153 15.3577 18.8109 15.3674 18.8047 15.3671C18.7986 15.3667 18.7912 15.373 18.785 15.3726C18.7788 15.3723 18.7716 15.3785 18.7653 15.3782C18.7589 15.3779 18.7519 15.3841 18.7455 15.3837C18.7391 15.3834 18.7324 15.3864 18.726 15.386C18.7195 15.3857 18.7127 15.3919 18.7062 15.3916C18.6996 15.3912 18.6932 15.3942 18.6866 15.3939C18.68 15.3935 18.6737 15.3965 18.6671 15.3961C18.6604 15.3958 18.6541 15.3988 18.6475 15.3984C18.6408 15.398 18.6316 15.3976 18.6249 15.3972C18.6182 15.3969 18.6122 15.3965 18.6055 15.3962C18.5988 15.3958 18.5928 15.3955 18.5861 15.3952C18.5794 15.3948 18.5734 15.3945 18.5667 15.3941L18.5589 15.3574Z"   fill="#CC4E1D" ></path></svg>