<svg xmlns="http://www.w3.org/2000/svg" xmlns:xlink="http://www.w3.org/1999/xlink" width="24" height="24" viewBox="0 0 24 24" fill="none"><path     fill="#034FA1"  d="M6.99257 20.4655L16.6369 20.4655C16.8737 20.4655 17.1007 20.5605 17.2667 20.7294L17.269 20.7317C17.6074 21.0757 17.6057 21.6281 17.2651 21.97L17.2651 21.97C17.1 22.1359 16.8755 22.2291 16.6415 22.2291L6.99257 22.2291L6.96712 22.2291L6.93803 22.2291L6.89803 22.2291L6.88348 22.2145L6.85803 22.2145L6.81803 22.2L6.78894 22.2L6.76348 22.2L6.73803 22.1891L6.70894 22.1745L6.68348 22.1745L6.65439 22.1636L6.62894 22.1491L6.60348 22.1345L6.57439 22.12L6.5453 22.1091L6.53439 22.0945L6.50894 22.08L6.47985 22.0655L6.45439 22.0545L6.43985 22.0291L6.41439 22.0145L6.39985 21.9855L6.37439 21.9709L6.3453 21.9491L6.33076 21.9345L6.30894 21.9055L6.30894 21.8909L6.27985 21.8655L6.25076 21.84L6.25076 21.8109L6.2253 21.8L6.21076 21.7709L6.21076 21.7418L6.19985 21.72L6.1853 21.6909L6.17076 21.6618L6.17076 21.6364L6.15985 21.6109L6.1453 21.5818L6.13076 21.5564L6.13076 21.5164L6.11621 21.5055L6.11621 21.4764L6.11621 21.4327L6.11621 21.4109L6.11621 21.3818L6.11621 21.3527L6.11621 21.3273L6.11621 21.2873L6.11621 21.2764L6.11621 21.2473L6.11621 21.2036L6.13076 21.1818L6.13076 21.1527L6.1453 21.1236L6.15985 21.0982L6.15985 21.0727L6.17076 21.0473L6.17076 21.0182L6.1853 20.9891L6.21076 20.9673L6.21076 20.9382L6.2253 20.9236L6.25076 20.8836L6.25076 20.8691L6.27985 20.8436L6.29439 20.8291L6.30894 20.7891L6.33076 20.7745L6.3453 20.7491L6.37439 20.7382L6.39985 20.7091L6.41439 20.6945L6.43985 20.68L6.45439 20.6545L6.47985 20.6436L6.50894 20.6291L6.53439 20.6L6.5453 20.6L6.57439 20.5745L6.60348 20.56L6.62894 20.56L6.65439 20.5455L6.68348 20.5345L6.70894 20.52L6.73803 20.52L6.76348 20.5091L6.78894 20.5091L6.81803 20.4945L6.85803 20.48L6.88348 20.48L6.89803 20.48L6.93803 20.4655L6.96712 20.4655L6.99257 20.4655Z"></path><path   fill="rgba(3, 79, 161, 1)"  d="M4.72745 1.01824L19.2729 1.01824C21.3214 1.01824 22.982 2.67885 22.982 4.72733L22.982 14.9091C22.982 16.9576 21.3214 18.6182 19.2729 18.6182L4.72745 18.6182C2.67898 18.6182 1.01836 16.9576 1.01836 14.9091L1.01836 4.72733C1.01836 2.67885 2.67898 1.01824 4.72745 1.01824ZM4.72745 2.61824C3.56263 2.61824 2.61836 3.56251 2.61836 4.72733L2.61836 14.9091C2.61836 16.074 3.56263 17.0182 4.72745 17.0182L19.2729 17.0182C20.4377 17.0182 21.382 16.074 21.382 14.9091L21.382 4.72733C21.382 3.56251 20.4377 2.61824 19.2729 2.61824L4.72745 2.61824Z"></path><path     fill="#CC4E1D"  d="M7.37006 10.3212L10.1964 10.3212C10.204 10.3207 10.2117 10.32 10.2194 10.3191C10.227 10.3182 10.2347 10.3172 10.2423 10.3159C10.2499 10.3147 10.2575 10.3133 10.2651 10.3117C10.2726 10.3101 10.2801 10.3084 10.2876 10.3064C10.295 10.3045 10.3024 10.3024 10.3098 10.3001C10.3172 10.2978 10.3245 10.2954 10.3317 10.2927C10.339 10.2901 10.3462 10.2873 10.3533 10.2844C10.3604 10.2814 10.3674 10.2783 10.3744 10.275C10.3814 10.2717 10.3883 10.2682 10.3951 10.2646C10.4019 10.261 10.4086 10.2572 10.4152 10.2533C10.4219 10.2493 10.4284 10.2453 10.4348 10.241C10.4413 10.2368 10.4476 10.2324 10.4538 10.2279C10.4601 10.2233 10.4662 10.2187 10.4722 10.2138C10.4782 10.209 10.4841 10.2041 10.4899 10.199C10.4956 10.1939 10.5013 10.1886 10.5068 10.1833C10.5123 10.1779 10.5177 10.1724 10.523 10.1668C10.5283 10.1612 10.5334 10.1555 10.5384 10.1496C10.5434 10.1438 10.5483 10.1378 10.553 10.1317C10.5577 10.1256 10.5623 10.1194 10.5667 10.1131C10.5711 10.1068 10.5754 10.1004 10.5795 10.0939C10.5836 10.0874 10.5876 10.0809 10.5914 10.0742C10.5952 10.0675 10.5989 10.0607 10.6024 10.0539C10.6059 10.047 10.6092 10.0401 10.6124 10.0331C10.6155 10.0261 10.6185 10.019 10.6214 10.0118C10.6242 10.0047 10.6269 9.99747 10.6294 9.9902C10.6318 9.98293 10.6342 9.97559 10.6363 9.96821C10.6385 9.96082 10.6404 9.95339 10.6422 9.94592C10.644 9.93844 10.6456 9.93092 10.6471 9.92338C10.6485 9.91583 10.6498 9.90824 10.6509 9.90063C10.652 9.89302 10.6529 9.88539 10.6536 9.87774C10.6543 9.87008 10.6549 9.86241 10.6552 9.85474C10.6556 9.84706 10.6558 9.83937 10.6558 9.83168C10.6558 9.824 10.6556 9.81632 10.6552 9.80864C10.6549 9.80096 10.6543 9.79329 10.6536 9.78564C10.6529 9.77798 10.652 9.77036 10.6509 9.76274C10.6498 9.75513 10.6485 9.74755 10.6471 9.74C10.6456 9.73245 10.644 9.72493 10.6422 9.71746C10.6404 9.70998 10.6385 9.70255 10.6363 9.69516C10.6342 9.68778 10.6318 9.68045 10.6294 9.67317C10.6269 9.6659 10.6242 9.65868 10.6214 9.65154C10.6185 9.64439 10.6155 9.63731 10.6124 9.6303C10.6092 9.62329 10.6059 9.61636 10.6024 9.6095C10.5989 9.60265 10.5952 9.59587 10.5914 9.5892C10.5876 9.58252 10.5836 9.57593 10.5795 9.56943C10.5754 9.56293 10.5711 9.55654 10.5667 9.55024C10.5623 9.54395 10.5577 9.53775 10.553 9.53167C10.5483 9.52559 10.5434 9.51962 10.5384 9.51376C10.5334 9.50791 10.5283 9.50217 10.523 9.49656C10.5177 9.49095 10.5123 9.48546 10.5068 9.4801C10.5013 9.47473 10.4956 9.4695 10.4899 9.46441C10.4841 9.45931 10.4782 9.45436 10.4722 9.44953C10.4662 9.44472 10.4601 9.44004 10.4538 9.4355C10.4476 9.43096 10.4413 9.42658 10.4348 9.42234C10.4284 9.4181 10.4219 9.41403 10.4152 9.4101C10.4086 9.40616 10.4019 9.40239 10.3951 9.39877C10.3883 9.39515 10.3814 9.3917 10.3744 9.38841C10.3674 9.38511 10.3604 9.38198 10.3533 9.37902C10.3462 9.37605 10.339 9.37326 10.3317 9.37063C10.3245 9.368 10.3172 9.36555 10.3098 9.36326C10.3024 9.36098 10.295 9.35886 10.2876 9.35693C10.2801 9.355 10.2726 9.35324 10.2651 9.35164C10.2575 9.35005 10.2499 9.34865 10.2423 9.34743C10.2347 9.3462 10.227 9.34514 10.2194 9.34426C10.2117 9.3434 10.204 9.34271 10.1964 9.34218L7.37006 9.34218C7.36236 9.34271 7.35468 9.3434 7.34702 9.34426C7.33935 9.34514 7.33171 9.3462 7.3241 9.34743C7.31649 9.34865 7.30891 9.35005 7.30136 9.35164C7.29381 9.35324 7.2863 9.355 7.27884 9.35693C7.27137 9.35886 7.26396 9.36098 7.25659 9.36326C7.24923 9.36555 7.24192 9.368 7.23467 9.37063C7.22742 9.37326 7.22024 9.37605 7.21312 9.37902C7.20601 9.38198 7.19896 9.38511 7.19199 9.38841C7.18502 9.3917 7.17814 9.39515 7.17133 9.39877C7.16452 9.40239 7.1578 9.40616 7.15118 9.4101C7.14455 9.41403 7.13801 9.4181 7.13158 9.42234C7.12514 9.42658 7.11881 9.43096 7.11258 9.4355C7.10635 9.44004 7.10023 9.44472 7.09422 9.44953C7.08822 9.45436 7.08232 9.45931 7.07655 9.46441C7.07077 9.4695 7.06512 9.47473 7.0596 9.4801C7.05407 9.48546 7.04867 9.49095 7.0434 9.49656C7.03813 9.50217 7.033 9.50791 7.028 9.51376C7.023 9.51962 7.01814 9.52559 7.01342 9.53167C7.00871 9.53775 7.00414 9.54395 6.99971 9.55024C6.99529 9.55654 6.99101 9.56293 6.98689 9.56943C6.98276 9.57593 6.9788 9.58252 6.97498 9.5892C6.97117 9.59587 6.96752 9.60265 6.96402 9.6095C6.96053 9.61636 6.9572 9.62329 6.95403 9.6303C6.95087 9.63731 6.94787 9.64439 6.94504 9.65154C6.9422 9.65868 6.93954 9.6659 6.93705 9.67317C6.93456 9.68045 6.93224 9.68778 6.93009 9.69516C6.92794 9.70255 6.92597 9.70998 6.92418 9.71746C6.92238 9.72493 6.92076 9.73245 6.91932 9.74C6.91788 9.74755 6.91662 9.75513 6.91553 9.76274C6.91445 9.77036 6.91354 9.77798 6.91282 9.78564C6.9121 9.79329 6.91155 9.80096 6.91119 9.80864C6.91083 9.81632 6.91065 9.824 6.91065 9.83168C6.91065 9.83937 6.91083 9.84706 6.91119 9.85474C6.91155 9.86241 6.9121 9.87008 6.91282 9.87774C6.91354 9.88539 6.91445 9.89302 6.91553 9.90063C6.91662 9.90824 6.91788 9.91583 6.91932 9.92338C6.92076 9.93092 6.92238 9.93844 6.92418 9.94592C6.92597 9.95339 6.92794 9.96082 6.93009 9.96821C6.93224 9.97559 6.93456 9.98293 6.93705 9.9902C6.93954 9.99747 6.9422 10.0047 6.94504 10.0118C6.94787 10.019 6.95087 10.0261 6.95403 10.0331C6.9572 10.0401 6.96053 10.047 6.96402 10.0539C6.96752 10.0607 6.97117 10.0675 6.97498 10.0742C6.9788 10.0809 6.98276 10.0874 6.98689 10.0939C6.99101 10.1004 6.99529 10.1068 6.99971 10.1131C7.00414 10.1194 7.00871 10.1256 7.01342 10.1317C7.01814 10.1378 7.023 10.1438 7.028 10.1496C7.033 10.1555 7.03813 10.1612 7.0434 10.1668C7.04867 10.1724 7.05407 10.1779 7.0596 10.1833C7.06512 10.1886 7.07077 10.1939 7.07655 10.199C7.08232 10.2041 7.08822 10.209 7.09422 10.2138C7.10023 10.2187 7.10635 10.2233 7.11258 10.2279C7.11881 10.2324 7.12514 10.2368 7.13158 10.241C7.13801 10.2453 7.14455 10.2493 7.15118 10.2533C7.1578 10.2572 7.16452 10.261 7.17133 10.2646C7.17814 10.2682 7.18502 10.2717 7.19199 10.275C7.19896 10.2783 7.20601 10.2814 7.21312 10.2844C7.22024 10.2873 7.22742 10.2901 7.23467 10.2927C7.24192 10.2954 7.24923 10.2978 7.25659 10.3001C7.26396 10.3024 7.27137 10.3045 7.27884 10.3064C7.2863 10.3084 7.29381 10.3101 7.30136 10.3117C7.30891 10.3133 7.31649 10.3147 7.3241 10.3159C7.33171 10.3172 7.33935 10.3182 7.34702 10.3191C7.35468 10.32 7.36236 10.3207 7.37006 10.3212ZM11.4603 11.7478C11.4544 11.7423 11.4484 11.737 11.4423 11.7318C11.4361 11.7266 11.4299 11.7216 11.4235 11.7167C11.4171 11.7118 11.4106 11.7071 11.404 11.7026C11.3974 11.698 11.3906 11.6936 11.3838 11.6894C11.377 11.6852 11.37 11.6811 11.363 11.6772C11.356 11.6733 11.3488 11.6696 11.3416 11.6661C11.3344 11.6626 11.3271 11.6592 11.3197 11.656C11.3123 11.6528 11.3049 11.6498 11.2974 11.647C11.2898 11.6442 11.2822 11.6415 11.2746 11.6391C11.2669 11.6366 11.2592 11.6344 11.2514 11.6323C11.2437 11.6302 11.2359 11.6284 11.228 11.6267C11.2201 11.625 11.2122 11.6235 11.2043 11.6222C11.1964 11.6209 11.1884 11.6198 11.1804 11.6189C11.1724 11.6179 11.1644 11.6172 11.1564 11.6167C11.1484 11.6162 11.1403 11.6158 11.1323 11.6157C11.1242 11.6156 11.1162 11.6156 11.1082 11.6159C11.1001 11.6162 11.0921 11.6166 11.0841 11.6173C11.0761 11.6179 11.0681 11.6188 11.0601 11.6198C11.0521 11.6209 11.0442 11.6221 11.0363 11.6235C11.0283 11.625 11.0205 11.6266 11.0126 11.6284C11.0048 11.6302 10.997 11.6322 10.9893 11.6344C10.9816 11.6366 10.9739 11.639 10.9663 11.6416C10.9586 11.6442 10.9511 11.6469 10.9436 11.6499C10.9361 11.6528 10.9287 11.6559 10.9214 11.6592C10.9141 11.6625 10.9068 11.666 10.8997 11.6697C10.8925 11.6733 10.8854 11.6771 10.8785 11.6812C10.8715 11.6852 10.8646 11.6893 10.8579 11.6937C10.8511 11.698 10.8445 11.7025 10.8379 11.7072C10.8314 11.7118 10.825 11.7166 10.8187 11.7216C10.8123 11.7266 10.8062 11.7317 10.8001 11.737C10.7941 11.7423 10.7881 11.7477 10.7823 11.7533C10.7766 11.7588 10.7709 11.7645 10.7654 11.7704C10.4399 12.1166 9.78748 12.6976 9.07359 12.6976L7.36859 12.6976C7.3609 12.6981 7.35322 12.6988 7.34555 12.6997C7.33789 12.7006 7.33025 12.7016 7.32264 12.7028C7.31502 12.7041 7.30744 12.7055 7.29989 12.7071C7.29235 12.7087 7.28484 12.7104 7.27738 12.7124C7.26991 12.7143 7.2625 12.7164 7.25513 12.7187C7.24777 12.721 7.24046 12.7234 7.23321 12.7261C7.22596 12.7287 7.21878 12.7315 7.21166 12.7344C7.20454 12.7374 7.1975 12.7405 7.19053 12.7438C7.18356 12.7471 7.17667 12.7506 7.16986 12.7542C7.16306 12.7578 7.15634 12.7616 7.14971 12.7655C7.14308 12.7694 7.13655 12.7735 7.13011 12.7778C7.12368 12.782 7.11734 12.7864 7.11112 12.7909C7.10489 12.7955 7.09877 12.8001 7.09276 12.805C7.08675 12.8098 7.08086 12.8147 7.07508 12.8198C7.06931 12.8249 7.06366 12.8302 7.05813 12.8355C7.0526 12.8409 7.0472 12.8464 7.04193 12.852C7.03666 12.8576 7.03153 12.8633 7.02653 12.8692C7.02153 12.875 7.01668 12.881 7.01196 12.8871C7.00724 12.8932 7.00267 12.8994 6.99824 12.9057C6.99382 12.912 6.98955 12.9184 6.98542 12.9249C6.9813 12.9313 6.97733 12.9379 6.97352 12.9446C6.9697 12.9513 6.96605 12.9581 6.96256 12.9649C6.95906 12.9718 6.95573 12.9787 6.95257 12.9857C6.9494 12.9927 6.9464 12.9998 6.94357 13.007C6.94074 13.0141 6.93807 13.0213 6.93558 13.0286C6.93309 13.0359 6.93077 13.0432 6.92862 13.0506C6.92648 13.058 6.92451 13.0654 6.92271 13.0729C6.92091 13.0803 6.9193 13.0879 6.91785 13.0954C6.91641 13.103 6.91515 13.1105 6.91407 13.1182C6.91298 13.1258 6.91208 13.1334 6.91135 13.1411C6.91063 13.1487 6.91009 13.1564 6.90972 13.1641C6.90936 13.1717 6.90918 13.1794 6.90918 13.1871C6.90918 13.1948 6.90936 13.2025 6.90972 13.2102C6.91009 13.2178 6.91063 13.2255 6.91135 13.2332C6.91208 13.2408 6.91298 13.2484 6.91407 13.2561C6.91515 13.2637 6.91641 13.2713 6.91785 13.2788C6.9193 13.2864 6.92091 13.2939 6.92271 13.3013C6.92451 13.3088 6.92648 13.3163 6.92862 13.3236C6.93077 13.331 6.93309 13.3383 6.93558 13.3456C6.93808 13.3529 6.94074 13.3601 6.94357 13.3673C6.9464 13.3744 6.9494 13.3815 6.95257 13.3885C6.95573 13.3955 6.95906 13.4024 6.96256 13.4093C6.96605 13.4161 6.9697 13.4229 6.97352 13.4296C6.97733 13.4363 6.9813 13.4429 6.98542 13.4494C6.98955 13.4559 6.99382 13.4623 6.99824 13.4686C7.00267 13.4749 7.00724 13.481 7.01196 13.4871C7.01668 13.4932 7.02153 13.4992 7.02653 13.505C7.03153 13.5109 7.03666 13.5166 7.04193 13.5222C7.0472 13.5279 7.0526 13.5333 7.05813 13.5387C7.06366 13.5441 7.06931 13.5493 7.07508 13.5544C7.08086 13.5595 7.08675 13.5644 7.09276 13.5693C7.09877 13.5741 7.10489 13.5788 7.11112 13.5833C7.11734 13.5878 7.12368 13.5922 7.13011 13.5964C7.13655 13.6007 7.14308 13.6048 7.14971 13.6087C7.15634 13.6126 7.16306 13.6164 7.16986 13.62C7.17667 13.6236 7.18356 13.6271 7.19053 13.6304C7.1975 13.6337 7.20454 13.6368 7.21166 13.6398C7.21878 13.6427 7.22596 13.6455 7.23321 13.6482C7.24046 13.6508 7.24777 13.6532 7.25513 13.6555C7.2625 13.6578 7.26991 13.6599 7.27738 13.6619C7.28484 13.6638 7.29235 13.6656 7.29989 13.6671C7.30744 13.6687 7.31502 13.6701 7.32264 13.6714C7.33025 13.6726 7.33789 13.6737 7.34555 13.6745C7.35322 13.6754 7.3609 13.6761 7.36859 13.6766L9.07285 13.6766C10.1035 13.6766 10.9527 13.0038 11.4822 12.4388C11.4877 12.433 11.4931 12.427 11.4983 12.421C11.5036 12.4149 11.5086 12.4087 11.5135 12.4023C11.5185 12.396 11.5232 12.3895 11.5278 12.383C11.5324 12.3764 11.5368 12.3697 11.5411 12.3629C11.5454 12.3561 11.5495 12.3492 11.5534 12.3422C11.5573 12.3352 11.5611 12.3282 11.5646 12.321C11.5682 12.3138 11.5716 12.3066 11.5748 12.2992C11.578 12.2919 11.5811 12.2845 11.5839 12.277C11.5868 12.2695 11.5894 12.2619 11.5919 12.2543C11.5944 12.2467 11.5966 12.239 11.5987 12.2313C11.6008 12.2235 11.6027 12.2158 11.6044 12.2079C11.6061 12.2001 11.6077 12.1922 11.609 12.1843C11.6103 12.1764 11.6114 12.1685 11.6123 12.1605C11.6133 12.1526 11.614 12.1446 11.6145 12.1366C11.615 12.1286 11.6154 12.1206 11.6155 12.1126C11.6156 12.1046 11.6156 12.0966 11.6153 12.0886C11.6151 12.0806 11.6146 12.0726 11.6139 12.0646C11.6133 12.0566 11.6124 12.0487 11.6114 12.0407C11.6103 12.0328 11.6091 12.0249 11.6076 12.017C11.6062 12.0091 11.6045 12.0013 11.6027 11.9935C11.6009 11.9857 11.5988 11.9779 11.5966 11.9702C11.5944 11.9625 11.592 11.9549 11.5894 11.9473C11.5868 11.9397 11.584 11.9322 11.5811 11.9248C11.5781 11.9173 11.575 11.91 11.5716 11.9027C11.5683 11.8954 11.5648 11.8882 11.5611 11.8811C11.5574 11.8739 11.5535 11.8669 11.5495 11.86C11.5455 11.8531 11.5413 11.8462 11.5369 11.8395C11.5325 11.8328 11.528 11.8262 11.5233 11.8197C11.5186 11.8132 11.5137 11.8068 11.5087 11.8005C11.5037 11.7943 11.4985 11.7882 11.4932 11.7822C11.4879 11.7762 11.4824 11.7703 11.4768 11.7646C11.4712 11.7588 11.4654 11.7532 11.4596 11.7478M12.469 7.89811C12.4751 7.9033 12.4814 7.90833 12.4878 7.91321C12.4942 7.91808 12.5007 7.92278 12.5074 7.92734C12.514 7.9319 12.5208 7.93629 12.5276 7.94051C12.5345 7.94473 12.5415 7.94878 12.5485 7.95265C12.5556 7.95653 12.5627 7.96023 12.57 7.96376C12.5772 7.96728 12.5846 7.97062 12.592 7.97378C12.5994 7.97694 12.6069 7.97992 12.6144 7.98271C12.622 7.98551 12.6296 7.98811 12.6373 7.99053C12.645 7.99294 12.6528 7.99516 12.6606 7.9972C12.6684 7.99924 12.6762 8.00108 12.6841 8.00272C12.692 8.00438 12.6999 8.00583 12.7079 8.00708C12.7158 8.00834 12.7238 8.0094 12.7319 8.01026C12.7399 8.01113 12.7479 8.01179 12.7559 8.01225C12.764 8.01271 12.7721 8.01297 12.7801 8.01305C12.7882 8.01311 12.7962 8.01298 12.8043 8.01265C12.8124 8.01232 12.8204 8.0118 12.8284 8.01107C12.8365 8.01035 12.8445 8.00942 12.8525 8.0083C12.8604 8.00717 12.8684 8.00585 12.8763 8.00434C12.8842 8.00283 12.8921 8.00112 12.8999 7.99922C12.9078 7.99731 12.9156 7.99521 12.9233 7.99293C12.931 7.99064 12.9387 7.98817 12.9463 7.9855C12.9539 7.98284 12.9614 7.97999 12.9689 7.97694C12.9764 7.97391 12.9837 7.9707 12.9911 7.96729C12.9984 7.96389 13.0056 7.96031 13.0127 7.95655C13.0198 7.9528 13.0269 7.94887 13.0338 7.94476C13.0407 7.94065 13.0476 7.93638 13.0543 7.93194C13.061 7.9275 13.0676 7.9229 13.0741 7.91813C13.0806 7.91336 13.087 7.90843 13.0932 7.90335C13.0994 7.89828 13.1056 7.89305 13.1116 7.88765C13.1175 7.88227 13.1234 7.87674 13.1291 7.87107C13.1348 7.8654 13.1404 7.85959 13.1458 7.85364C13.1512 7.8477 13.1565 7.84162 13.1616 7.83542C13.6297 7.27484 14.2595 6.95338 14.8893 6.95338L15.4306 6.95338L15.0283 7.3543C15.0226 7.35997 15.017 7.36577 15.0116 7.37171C15.0062 7.37764 15.001 7.38371 14.9959 7.3899C14.9907 7.39609 14.9858 7.40242 14.981 7.40885C14.9762 7.41529 14.9716 7.42184 14.9671 7.4285C14.9626 7.43517 14.9583 7.44194 14.9542 7.44881C14.9501 7.45568 14.9461 7.46265 14.9423 7.46972C14.9385 7.47679 14.9349 7.48394 14.9314 7.49119C14.928 7.49844 14.9247 7.50577 14.9216 7.51317C14.9186 7.52057 14.9157 7.52804 14.913 7.53559C14.9102 7.54314 14.9077 7.55075 14.9054 7.55842C14.903 7.5661 14.9009 7.57382 14.8989 7.5816C14.897 7.58937 14.8952 7.59719 14.8937 7.60504C14.8921 7.61291 14.8907 7.62081 14.8895 7.62874C14.8883 7.63667 14.8874 7.64462 14.8866 7.65259C14.8858 7.66057 14.8852 7.66857 14.8848 7.67658C14.8844 7.68458 14.8842 7.69258 14.8842 7.7006C14.8842 7.70862 14.8844 7.71664 14.8848 7.72464C14.8852 7.73265 14.8857 7.74065 14.8865 7.74862C14.8873 7.7566 14.8883 7.76456 14.8895 7.77248C14.8907 7.78041 14.892 7.7883 14.8936 7.79617C14.8952 7.80403 14.8969 7.81185 14.8989 7.81963C14.9008 7.82741 14.903 7.83513 14.9053 7.84281C14.9076 7.85048 14.9102 7.85809 14.9129 7.86563C14.9156 7.87318 14.9185 7.88066 14.9216 7.88807C14.9246 7.89547 14.9279 7.9028 14.9313 7.91005C14.9348 7.9173 14.9384 7.92445 14.9422 7.93152C14.946 7.9386 14.9499 7.94557 14.9541 7.95245C14.9582 7.95932 14.9625 7.96608 14.967 7.97276C14.9714 7.97942 14.9761 7.98598 14.9809 7.99242C14.9856 7.99886 14.9906 8.00517 14.9957 8.01137C15.0008 8.01756 15.0061 8.02363 15.0115 8.02958C15.0169 8.03551 15.0224 8.04131 15.0281 8.04698C15.0338 8.05265 15.0396 8.05818 15.0456 8.06357C15.0515 8.06895 15.0576 8.07418 15.0638 8.07926C15.07 8.08436 15.0764 8.08929 15.0828 8.09406C15.0893 8.09884 15.0959 8.10345 15.1026 8.1079C15.1093 8.11235 15.1161 8.11665 15.123 8.12076C15.1299 8.12488 15.1368 8.12883 15.144 8.13261C15.151 8.13639 15.1582 8.13999 15.1655 8.14342C15.1728 8.14684 15.1801 8.15009 15.1875 8.15316C15.195 8.15622 15.2025 8.1591 15.2101 8.16181C15.2176 8.16451 15.2253 8.16703 15.233 8.16934C15.2407 8.17167 15.2484 8.17381 15.2562 8.17575C15.264 8.17771 15.2719 8.17946 15.2798 8.18102C15.2876 8.18258 15.2956 8.18395 15.3035 8.18513C15.3115 8.1863 15.3195 8.18728 15.3275 8.18806C15.3355 8.18884 15.3435 8.18943 15.3515 8.18983C15.3596 8.19022 15.3676 8.19041 15.3757 8.19041C15.3837 8.19041 15.3917 8.19021 15.3998 8.18981C15.4078 8.18942 15.4158 8.18883 15.4238 8.18804C15.4318 8.18725 15.4398 8.18627 15.4478 8.18509C15.4557 8.18391 15.4636 8.18254 15.4715 8.18097C15.4794 8.1794 15.4873 8.17765 15.4951 8.1757C15.5029 8.17374 15.5106 8.17161 15.5183 8.16928C15.526 8.16695 15.5336 8.16443 15.5412 8.16173C15.5488 8.15903 15.5563 8.15614 15.5637 8.15307C15.5711 8.15 15.5785 8.14675 15.5858 8.14332C15.593 8.13989 15.6002 8.13628 15.6073 8.13249C15.6144 8.12871 15.6214 8.12476 15.6283 8.12064C15.6352 8.11652 15.642 8.11223 15.6487 8.10777C15.6554 8.10331 15.6619 8.09869 15.6684 8.09391C15.6749 8.08914 15.6812 8.08421 15.6874 8.07911C15.6936 8.07402 15.6997 8.06879 15.7057 8.06341C15.7116 8.05801 15.7174 8.05249 15.7231 8.04682L16.9468 6.82726C16.9506 6.82348 16.9544 6.81963 16.958 6.81573C16.9617 6.81183 16.9653 6.80787 16.9689 6.80384C16.9724 6.79981 16.9759 6.79573 16.9793 6.7916C16.9827 6.78747 16.986 6.78327 16.9893 6.77903C16.9926 6.77479 16.9958 6.77049 16.9989 6.76615C17.002 6.7618 17.0051 6.7574 17.0081 6.75295C17.0111 6.74849 17.014 6.744 17.0168 6.73945C17.0196 6.73491 17.0224 6.73032 17.0251 6.72569C17.0278 6.72105 17.0304 6.71637 17.0329 6.71165C17.0355 6.70693 17.0379 6.70217 17.0403 6.69738C17.0427 6.69258 17.0449 6.68775 17.0472 6.68287C17.0494 6.67799 17.0515 6.67307 17.0536 6.66813C17.0556 6.66319 17.0576 6.65821 17.0595 6.6532C17.0614 6.64819 17.0632 6.64316 17.0649 6.63809C17.0666 6.63302 17.0683 6.62793 17.0698 6.6228C17.0714 6.61769 17.0729 6.61254 17.0743 6.60737C17.0757 6.60219 17.077 6.597 17.0782 6.59179C17.0794 6.58658 17.0805 6.58135 17.0816 6.57611C17.0826 6.57085 17.0836 6.56559 17.0845 6.5603C17.0853 6.55503 17.0861 6.54973 17.0868 6.54442C17.0875 6.53912 17.0881 6.53381 17.0886 6.52848C17.0892 6.52315 17.0896 6.51781 17.0899 6.51247C17.0903 6.50713 17.0906 6.5018 17.0907 6.49645C17.0909 6.4911 17.091 6.48574 17.091 6.48039C17.091 6.47504 17.0909 6.46969 17.0907 6.46434C17.0905 6.45899 17.0903 6.45365 17.0899 6.44831C17.0896 6.44296 17.0891 6.43763 17.0886 6.4323C17.088 6.42697 17.0874 6.42167 17.0867 6.41636C17.086 6.41105 17.0852 6.40577 17.0843 6.40048C17.0835 6.3952 17.0825 6.38993 17.0815 6.38469C17.0804 6.37945 17.0793 6.37421 17.078 6.369C17.0768 6.36379 17.0755 6.3586 17.0741 6.35343C17.072 6.3411 17.0694 6.32887 17.0663 6.31675C17.0632 6.30462 17.0597 6.29263 17.0557 6.28077C17.0517 6.26892 17.0473 6.25722 17.0424 6.2457C17.0375 6.23418 17.0322 6.22287 17.0264 6.21175C17.0206 6.20064 17.0145 6.18977 17.0079 6.17912C17.0013 6.16849 16.9943 6.15812 16.9869 6.14801C16.9795 6.13789 16.9717 6.12809 16.9636 6.11858C16.9554 6.10906 16.9469 6.09987 16.9381 6.09101L15.7136 4.87072C15.7079 4.86505 15.7021 4.85953 15.6962 4.85415C15.6902 4.84876 15.6841 4.84353 15.6779 4.83845C15.6717 4.83336 15.6653 4.82843 15.6589 4.82366C15.6524 4.81889 15.6458 4.81427 15.6392 4.80982C15.6325 4.80537 15.6257 4.80108 15.6188 4.79696C15.6119 4.79284 15.6049 4.78889 15.5978 4.78512C15.5907 4.78134 15.5835 4.77774 15.5763 4.77431C15.569 4.77088 15.5616 4.76764 15.5542 4.76457C15.5468 4.7615 15.5393 4.75862 15.5317 4.75592C15.5241 4.75322 15.5165 4.75071 15.5088 4.74838C15.5011 4.74605 15.4934 4.74392 15.4856 4.74197C15.4778 4.74002 15.4699 4.73827 15.462 4.7367C15.4542 4.73514 15.4462 4.73377 15.4383 4.73259C15.4303 4.73142 15.4223 4.73044 15.4144 4.72965C15.4063 4.72887 15.3983 4.72828 15.3903 4.72788C15.3823 4.72749 15.3742 4.72729 15.3662 4.72729C15.3581 4.72729 15.3501 4.72749 15.3421 4.72788C15.334 4.72828 15.326 4.72887 15.318 4.72965C15.31 4.73044 15.302 4.73142 15.2941 4.73259C15.2861 4.73377 15.2782 4.73514 15.2703 4.7367C15.2624 4.73827 15.2546 4.74002 15.2468 4.74197C15.239 4.74392 15.2313 4.74605 15.2236 4.74838C15.2159 4.75071 15.2082 4.75322 15.2007 4.75592C15.1931 4.75862 15.1856 4.7615 15.1782 4.76457C15.1707 4.76764 15.1634 4.77088 15.1561 4.77431C15.1488 4.77774 15.1417 4.78134 15.1346 4.78512C15.1275 4.78889 15.1205 4.79284 15.1136 4.79696C15.1067 4.80108 15.0999 4.80537 15.0932 4.80982C15.0865 4.81427 15.0799 4.81889 15.0735 4.82366C15.067 4.82843 15.0607 4.83336 15.0545 4.83845C15.0483 4.84353 15.0422 4.84876 15.0362 4.85415C15.0303 4.85953 15.0244 4.86505 15.0188 4.87072C15.0131 4.87639 15.0075 4.88219 15.0021 4.88813C14.9967 4.89406 14.9915 4.90013 14.9864 4.90633C14.9813 4.91252 14.9763 4.91884 14.9715 4.92527C14.9667 4.93171 14.9621 4.93826 14.9576 4.94492C14.9532 4.95159 14.9489 4.95836 14.9447 4.96523C14.9406 4.9721 14.9366 4.97907 14.9329 4.98614C14.9291 4.99321 14.9254 5.00037 14.922 5.00761C14.9186 5.01486 14.9153 5.02218 14.9122 5.02958C14.9092 5.03699 14.9063 5.04446 14.9036 5.05201C14.9009 5.05955 14.8983 5.06716 14.896 5.07483C14.8937 5.0825 14.8915 5.09022 14.8896 5.09799C14.8876 5.10577 14.8858 5.11358 14.8843 5.12144C14.8827 5.12931 14.8813 5.1372 14.8802 5.14513C14.879 5.15305 14.878 5.161 14.8772 5.16898C14.8764 5.17696 14.8758 5.18495 14.8754 5.19295C14.875 5.20095 14.8748 5.20896 14.8748 5.21698C14.8748 5.22499 14.875 5.233 14.8754 5.24101C14.8758 5.24901 14.8764 5.257 14.8772 5.26497C14.878 5.27295 14.879 5.2809 14.8802 5.28883C14.8813 5.29676 14.8827 5.30465 14.8843 5.31251C14.8858 5.32037 14.8876 5.32819 14.8896 5.33596C14.8915 5.34373 14.8937 5.35146 14.896 5.35913C14.8983 5.36679 14.9009 5.3744 14.9036 5.38195C14.9063 5.38949 14.9092 5.39697 14.9122 5.40437C14.9153 5.41178 14.9186 5.4191 14.922 5.42634C14.9254 5.43359 14.9291 5.44075 14.9329 5.44781C14.9366 5.45488 14.9406 5.46185 14.9447 5.46872C14.9489 5.4756 14.9532 5.48237 14.9576 5.48903C14.9621 5.4957 14.9667 5.50224 14.9715 5.50868C14.9763 5.51512 14.9813 5.52143 14.9864 5.52762C14.9915 5.53382 14.9967 5.53989 15.0021 5.54583C15.0075 5.55177 15.0131 5.55757 15.0188 5.56324L15.432 5.97437L14.8907 5.97437C14.4095 5.97437 13.9399 6.09101 13.4959 6.32136C13.087 6.53421 12.7206 6.83236 12.406 7.20851C12.4009 7.21468 12.396 7.22097 12.3912 7.22739C12.3864 7.23381 12.3817 7.24033 12.3773 7.24696C12.3728 7.2536 12.3685 7.26035 12.3643 7.2672C12.3602 7.27404 12.3562 7.28099 12.3524 7.28804C12.3486 7.29508 12.3449 7.30221 12.3415 7.30943C12.338 7.31665 12.3348 7.32395 12.3317 7.33133C12.3286 7.33871 12.3256 7.34616 12.3229 7.35369C12.3202 7.36121 12.3176 7.36879 12.3153 7.37644C12.3129 7.38409 12.3107 7.39179 12.3088 7.39954C12.3068 7.4073 12.305 7.41509 12.3034 7.42293C12.3018 7.43077 12.3004 7.43864 12.2992 7.44655C12.2979 7.45446 12.2969 7.46239 12.2961 7.47035C12.2953 7.47831 12.2947 7.48628 12.2942 7.49427C12.2938 7.50226 12.2936 7.51025 12.2935 7.51825C12.2935 7.52625 12.2936 7.53425 12.294 7.54224C12.2943 7.55023 12.2949 7.55821 12.2956 7.56618C12.2964 7.57414 12.2973 7.58209 12.2985 7.59001C12.2996 7.59792 12.3009 7.60581 12.3024 7.61367C12.304 7.62152 12.3057 7.62934 12.3076 7.63711C12.3095 7.64487 12.3116 7.65259 12.3139 7.66027C12.3161 7.66794 12.3186 7.67555 12.3213 7.6831C12.3239 7.69065 12.3268 7.69813 12.3298 7.70554C12.3328 7.71295 12.336 7.72028 12.3394 7.72753C12.3428 7.73479 12.3464 7.74196 12.3501 7.74904C12.3538 7.75612 12.3577 7.7631 12.3618 7.76999C12.3659 7.77688 12.3701 7.78367 12.3746 7.79035C12.379 7.79704 12.3835 7.80361 12.3883 7.81007C12.393 7.81653 12.3979 7.82287 12.4029 7.82909C12.408 7.83532 12.4132 7.84141 12.4185 7.84738C12.4239 7.85334 12.4294 7.85919 12.435 7.86488C12.4406 7.87058 12.4464 7.87614 12.4523 7.88157C12.4582 7.88698 12.4642 7.89226 12.4704 7.89738"></path><path    stroke="rgba(204, 78, 29, 1)" stroke-width="0.2"    d="M7.37006 10.3212L10.1964 10.3212C10.204 10.3207 10.2117 10.32 10.2194 10.3191C10.227 10.3182 10.2347 10.3172 10.2423 10.3159C10.2499 10.3147 10.2575 10.3133 10.2651 10.3117C10.2726 10.3101 10.2801 10.3084 10.2876 10.3064C10.295 10.3045 10.3024 10.3024 10.3098 10.3001C10.3172 10.2978 10.3245 10.2954 10.3317 10.2927C10.339 10.2901 10.3462 10.2873 10.3533 10.2844C10.3604 10.2814 10.3674 10.2783 10.3744 10.275C10.3814 10.2717 10.3883 10.2682 10.3951 10.2646C10.4019 10.261 10.4086 10.2572 10.4152 10.2533C10.4219 10.2493 10.4284 10.2453 10.4348 10.241C10.4413 10.2368 10.4476 10.2324 10.4538 10.2279C10.4601 10.2233 10.4662 10.2187 10.4722 10.2138C10.4782 10.209 10.4841 10.2041 10.4899 10.199C10.4956 10.1939 10.5013 10.1886 10.5068 10.1833C10.5123 10.1779 10.5177 10.1724 10.523 10.1668C10.5283 10.1612 10.5334 10.1555 10.5384 10.1496C10.5434 10.1438 10.5483 10.1378 10.553 10.1317C10.5577 10.1256 10.5623 10.1194 10.5667 10.1131C10.5711 10.1068 10.5754 10.1004 10.5795 10.0939C10.5836 10.0874 10.5876 10.0809 10.5914 10.0742C10.5952 10.0675 10.5989 10.0607 10.6024 10.0539C10.6059 10.047 10.6092 10.0401 10.6124 10.0331C10.6155 10.0261 10.6185 10.019 10.6214 10.0118C10.6242 10.0047 10.6269 9.99747 10.6294 9.9902C10.6318 9.98293 10.6342 9.97559 10.6363 9.96821C10.6385 9.96082 10.6404 9.95339 10.6422 9.94592C10.644 9.93844 10.6456 9.93092 10.6471 9.92338C10.6485 9.91583 10.6498 9.90824 10.6509 9.90063C10.652 9.89302 10.6529 9.88539 10.6536 9.87774C10.6543 9.87008 10.6549 9.86241 10.6552 9.85474C10.6556 9.84706 10.6558 9.83937 10.6558 9.83168C10.6558 9.824 10.6556 9.81632 10.6552 9.80864C10.6549 9.80096 10.6543 9.79329 10.6536 9.78564C10.6529 9.77798 10.652 9.77036 10.6509 9.76274C10.6498 9.75513 10.6485 9.74755 10.6471 9.74C10.6456 9.73245 10.644 9.72493 10.6422 9.71746C10.6404 9.70998 10.6385 9.70255 10.6363 9.69516C10.6342 9.68778 10.6318 9.68045 10.6294 9.67317C10.6269 9.6659 10.6242 9.65868 10.6214 9.65154C10.6185 9.64439 10.6155 9.63731 10.6124 9.6303C10.6092 9.62329 10.6059 9.61636 10.6024 9.6095C10.5989 9.60265 10.5952 9.59587 10.5914 9.5892C10.5876 9.58252 10.5836 9.57593 10.5795 9.56943C10.5754 9.56293 10.5711 9.55654 10.5667 9.55024C10.5623 9.54395 10.5577 9.53775 10.553 9.53167C10.5483 9.52559 10.5434 9.51962 10.5384 9.51376C10.5334 9.50791 10.5283 9.50217 10.523 9.49656C10.5177 9.49095 10.5123 9.48546 10.5068 9.4801C10.5013 9.47473 10.4956 9.4695 10.4899 9.46441C10.4841 9.45931 10.4782 9.45436 10.4722 9.44953C10.4662 9.44472 10.4601 9.44004 10.4538 9.4355C10.4476 9.43096 10.4413 9.42658 10.4348 9.42234C10.4284 9.4181 10.4219 9.41403 10.4152 9.4101C10.4086 9.40616 10.4019 9.40239 10.3951 9.39877C10.3883 9.39515 10.3814 9.3917 10.3744 9.38841C10.3674 9.38511 10.3604 9.38198 10.3533 9.37902C10.3462 9.37605 10.339 9.37326 10.3317 9.37063C10.3245 9.368 10.3172 9.36555 10.3098 9.36326C10.3024 9.36098 10.295 9.35886 10.2876 9.35693C10.2801 9.355 10.2726 9.35324 10.2651 9.35164C10.2575 9.35005 10.2499 9.34865 10.2423 9.34743C10.2347 9.3462 10.227 9.34514 10.2194 9.34426C10.2117 9.3434 10.204 9.34271 10.1964 9.34218L7.37006 9.34218C7.36236 9.34271 7.35468 9.3434 7.34702 9.34426C7.33935 9.34514 7.33171 9.3462 7.3241 9.34743C7.31649 9.34865 7.30891 9.35005 7.30136 9.35164C7.29381 9.35324 7.2863 9.355 7.27884 9.35693C7.27137 9.35886 7.26396 9.36098 7.25659 9.36326C7.24923 9.36555 7.24192 9.368 7.23467 9.37063C7.22742 9.37326 7.22024 9.37605 7.21312 9.37902C7.20601 9.38198 7.19896 9.38511 7.19199 9.38841C7.18502 9.3917 7.17814 9.39515 7.17133 9.39877C7.16452 9.40239 7.1578 9.40616 7.15118 9.4101C7.14455 9.41403 7.13801 9.4181 7.13158 9.42234C7.12514 9.42658 7.11881 9.43096 7.11258 9.4355C7.10635 9.44004 7.10023 9.44472 7.09422 9.44953C7.08822 9.45436 7.08232 9.45931 7.07655 9.46441C7.07077 9.4695 7.06512 9.47473 7.0596 9.4801C7.05407 9.48546 7.04867 9.49095 7.0434 9.49656C7.03813 9.50217 7.033 9.50791 7.028 9.51376C7.023 9.51962 7.01814 9.52559 7.01342 9.53167C7.00871 9.53775 7.00414 9.54395 6.99971 9.55024C6.99529 9.55654 6.99101 9.56293 6.98689 9.56943C6.98276 9.57593 6.9788 9.58252 6.97498 9.5892C6.97117 9.59587 6.96752 9.60265 6.96402 9.6095C6.96053 9.61636 6.9572 9.62329 6.95403 9.6303C6.95087 9.63731 6.94787 9.64439 6.94504 9.65154C6.9422 9.65868 6.93954 9.6659 6.93705 9.67317C6.93456 9.68045 6.93224 9.68778 6.93009 9.69516C6.92794 9.70255 6.92597 9.70998 6.92418 9.71746C6.92238 9.72493 6.92076 9.73245 6.91932 9.74C6.91788 9.74755 6.91662 9.75513 6.91553 9.76274C6.91445 9.77036 6.91354 9.77798 6.91282 9.78564C6.9121 9.79329 6.91155 9.80096 6.91119 9.80864C6.91083 9.81632 6.91065 9.824 6.91065 9.83168C6.91065 9.83937 6.91083 9.84706 6.91119 9.85474C6.91155 9.86241 6.9121 9.87008 6.91282 9.87774C6.91354 9.88539 6.91445 9.89302 6.91553 9.90063C6.91662 9.90824 6.91788 9.91583 6.91932 9.92338C6.92076 9.93092 6.92238 9.93844 6.92418 9.94592C6.92597 9.95339 6.92794 9.96082 6.93009 9.96821C6.93224 9.97559 6.93456 9.98293 6.93705 9.9902C6.93954 9.99747 6.9422 10.0047 6.94504 10.0118C6.94787 10.019 6.95087 10.0261 6.95403 10.0331C6.9572 10.0401 6.96053 10.047 6.96402 10.0539C6.96752 10.0607 6.97117 10.0675 6.97498 10.0742C6.9788 10.0809 6.98276 10.0874 6.98689 10.0939C6.99101 10.1004 6.99529 10.1068 6.99971 10.1131C7.00414 10.1194 7.00871 10.1256 7.01342 10.1317C7.01814 10.1378 7.023 10.1438 7.028 10.1496C7.033 10.1555 7.03813 10.1612 7.0434 10.1668C7.04867 10.1724 7.05407 10.1779 7.0596 10.1833C7.06512 10.1886 7.07077 10.1939 7.07655 10.199C7.08232 10.2041 7.08822 10.209 7.09422 10.2138C7.10023 10.2187 7.10635 10.2233 7.11258 10.2279C7.11881 10.2324 7.12514 10.2368 7.13158 10.241C7.13801 10.2453 7.14455 10.2493 7.15118 10.2533C7.1578 10.2572 7.16452 10.261 7.17133 10.2646C7.17814 10.2682 7.18502 10.2717 7.19199 10.275C7.19896 10.2783 7.20601 10.2814 7.21312 10.2844C7.22024 10.2873 7.22742 10.2901 7.23467 10.2927C7.24192 10.2954 7.24923 10.2978 7.25659 10.3001C7.26396 10.3024 7.27137 10.3045 7.27884 10.3064C7.2863 10.3084 7.29381 10.3101 7.30136 10.3117C7.30891 10.3133 7.31649 10.3147 7.3241 10.3159C7.33171 10.3172 7.33935 10.3182 7.34702 10.3191C7.35468 10.32 7.36236 10.3207 7.37006 10.3212ZM11.4603 11.7478C11.4544 11.7423 11.4484 11.737 11.4423 11.7318C11.4361 11.7266 11.4299 11.7216 11.4235 11.7167C11.4171 11.7118 11.4106 11.7071 11.404 11.7026C11.3974 11.698 11.3906 11.6936 11.3838 11.6894C11.377 11.6852 11.37 11.6811 11.363 11.6772C11.356 11.6733 11.3488 11.6696 11.3416 11.6661C11.3344 11.6626 11.3271 11.6592 11.3197 11.656C11.3123 11.6528 11.3049 11.6498 11.2974 11.647C11.2898 11.6442 11.2822 11.6415 11.2746 11.6391C11.2669 11.6366 11.2592 11.6344 11.2514 11.6323C11.2437 11.6302 11.2359 11.6284 11.228 11.6267C11.2201 11.625 11.2122 11.6235 11.2043 11.6222C11.1964 11.6209 11.1884 11.6198 11.1804 11.6189C11.1724 11.6179 11.1644 11.6172 11.1564 11.6167C11.1484 11.6162 11.1403 11.6158 11.1323 11.6157C11.1242 11.6156 11.1162 11.6156 11.1082 11.6159C11.1001 11.6162 11.0921 11.6166 11.0841 11.6173C11.0761 11.6179 11.0681 11.6188 11.0601 11.6198C11.0521 11.6209 11.0442 11.6221 11.0363 11.6235C11.0283 11.625 11.0205 11.6266 11.0126 11.6284C11.0048 11.6302 10.997 11.6322 10.9893 11.6344C10.9816 11.6366 10.9739 11.639 10.9663 11.6416C10.9586 11.6442 10.9511 11.6469 10.9436 11.6499C10.9361 11.6528 10.9287 11.6559 10.9214 11.6592C10.9141 11.6625 10.9068 11.666 10.8997 11.6697C10.8925 11.6733 10.8854 11.6771 10.8785 11.6812C10.8715 11.6852 10.8646 11.6893 10.8579 11.6937C10.8511 11.698 10.8445 11.7025 10.8379 11.7072C10.8314 11.7118 10.825 11.7166 10.8187 11.7216C10.8123 11.7266 10.8062 11.7317 10.8001 11.737C10.7941 11.7423 10.7881 11.7477 10.7823 11.7533C10.7766 11.7588 10.7709 11.7645 10.7654 11.7704C10.4399 12.1166 9.78748 12.6976 9.07359 12.6976L7.36859 12.6976C7.3609 12.6981 7.35322 12.6988 7.34555 12.6997C7.33789 12.7006 7.33025 12.7016 7.32264 12.7028C7.31502 12.7041 7.30744 12.7055 7.29989 12.7071C7.29235 12.7087 7.28484 12.7104 7.27738 12.7124C7.26991 12.7143 7.2625 12.7164 7.25513 12.7187C7.24777 12.721 7.24046 12.7234 7.23321 12.7261C7.22596 12.7287 7.21878 12.7315 7.21166 12.7344C7.20454 12.7374 7.1975 12.7405 7.19053 12.7438C7.18356 12.7471 7.17667 12.7506 7.16986 12.7542C7.16306 12.7578 7.15634 12.7616 7.14971 12.7655C7.14308 12.7694 7.13655 12.7735 7.13011 12.7778C7.12368 12.782 7.11734 12.7864 7.11112 12.7909C7.10489 12.7955 7.09877 12.8001 7.09276 12.805C7.08675 12.8098 7.08086 12.8147 7.07508 12.8198C7.06931 12.8249 7.06366 12.8302 7.05813 12.8355C7.0526 12.8409 7.0472 12.8464 7.04193 12.852C7.03666 12.8576 7.03153 12.8633 7.02653 12.8692C7.02153 12.875 7.01668 12.881 7.01196 12.8871C7.00724 12.8932 7.00267 12.8994 6.99824 12.9057C6.99382 12.912 6.98955 12.9184 6.98542 12.9249C6.9813 12.9313 6.97733 12.9379 6.97352 12.9446C6.9697 12.9513 6.96605 12.9581 6.96256 12.9649C6.95906 12.9718 6.95573 12.9787 6.95257 12.9857C6.9494 12.9927 6.9464 12.9998 6.94357 13.007C6.94074 13.0141 6.93807 13.0213 6.93558 13.0286C6.93309 13.0359 6.93077 13.0432 6.92862 13.0506C6.92648 13.058 6.92451 13.0654 6.92271 13.0729C6.92091 13.0803 6.9193 13.0879 6.91785 13.0954C6.91641 13.103 6.91515 13.1105 6.91407 13.1182C6.91298 13.1258 6.91208 13.1334 6.91135 13.1411C6.91063 13.1487 6.91009 13.1564 6.90972 13.1641C6.90936 13.1717 6.90918 13.1794 6.90918 13.1871C6.90918 13.1948 6.90936 13.2025 6.90972 13.2102C6.91009 13.2178 6.91063 13.2255 6.91135 13.2332C6.91208 13.2408 6.91298 13.2484 6.91407 13.2561C6.91515 13.2637 6.91641 13.2713 6.91785 13.2788C6.9193 13.2864 6.92091 13.2939 6.92271 13.3013C6.92451 13.3088 6.92648 13.3163 6.92862 13.3236C6.93077 13.331 6.93309 13.3383 6.93558 13.3456C6.93808 13.3529 6.94074 13.3601 6.94357 13.3673C6.9464 13.3744 6.9494 13.3815 6.95257 13.3885C6.95573 13.3955 6.95906 13.4024 6.96256 13.4093C6.96605 13.4161 6.9697 13.4229 6.97352 13.4296C6.97733 13.4363 6.9813 13.4429 6.98542 13.4494C6.98955 13.4559 6.99382 13.4623 6.99824 13.4686C7.00267 13.4749 7.00724 13.481 7.01196 13.4871C7.01668 13.4932 7.02153 13.4992 7.02653 13.505C7.03153 13.5109 7.03666 13.5166 7.04193 13.5222C7.0472 13.5279 7.0526 13.5333 7.05813 13.5387C7.06366 13.5441 7.06931 13.5493 7.07508 13.5544C7.08086 13.5595 7.08675 13.5644 7.09276 13.5693C7.09877 13.5741 7.10489 13.5788 7.11112 13.5833C7.11734 13.5878 7.12368 13.5922 7.13011 13.5964C7.13655 13.6007 7.14308 13.6048 7.14971 13.6087C7.15634 13.6126 7.16306 13.6164 7.16986 13.62C7.17667 13.6236 7.18356 13.6271 7.19053 13.6304C7.1975 13.6337 7.20454 13.6368 7.21166 13.6398C7.21878 13.6427 7.22596 13.6455 7.23321 13.6482C7.24046 13.6508 7.24777 13.6532 7.25513 13.6555C7.2625 13.6578 7.26991 13.6599 7.27738 13.6619C7.28484 13.6638 7.29235 13.6656 7.29989 13.6671C7.30744 13.6687 7.31502 13.6701 7.32264 13.6714C7.33025 13.6726 7.33789 13.6737 7.34555 13.6745C7.35322 13.6754 7.3609 13.6761 7.36859 13.6766L9.07285 13.6766C10.1035 13.6766 10.9527 13.0038 11.4822 12.4388C11.4877 12.433 11.4931 12.427 11.4983 12.421C11.5036 12.4149 11.5086 12.4087 11.5135 12.4023C11.5185 12.396 11.5232 12.3895 11.5278 12.383C11.5324 12.3764 11.5368 12.3697 11.5411 12.3629C11.5454 12.3561 11.5495 12.3492 11.5534 12.3422C11.5573 12.3352 11.5611 12.3282 11.5646 12.321C11.5682 12.3138 11.5716 12.3066 11.5748 12.2992C11.578 12.2919 11.5811 12.2845 11.5839 12.277C11.5868 12.2695 11.5894 12.2619 11.5919 12.2543C11.5944 12.2467 11.5966 12.239 11.5987 12.2313C11.6008 12.2235 11.6027 12.2158 11.6044 12.2079C11.6061 12.2001 11.6077 12.1922 11.609 12.1843C11.6103 12.1764 11.6114 12.1685 11.6123 12.1605C11.6133 12.1526 11.614 12.1446 11.6145 12.1366C11.615 12.1286 11.6154 12.1206 11.6155 12.1126C11.6156 12.1046 11.6156 12.0966 11.6153 12.0886C11.6151 12.0806 11.6146 12.0726 11.6139 12.0646C11.6133 12.0566 11.6124 12.0487 11.6114 12.0407C11.6103 12.0328 11.6091 12.0249 11.6076 12.017C11.6062 12.0091 11.6045 12.0013 11.6027 11.9935C11.6009 11.9857 11.5988 11.9779 11.5966 11.9702C11.5944 11.9625 11.592 11.9549 11.5894 11.9473C11.5868 11.9397 11.584 11.9322 11.5811 11.9248C11.5781 11.9173 11.575 11.91 11.5716 11.9027C11.5683 11.8954 11.5648 11.8882 11.5611 11.8811C11.5574 11.8739 11.5535 11.8669 11.5495 11.86C11.5455 11.8531 11.5413 11.8462 11.5369 11.8395C11.5325 11.8328 11.528 11.8262 11.5233 11.8197C11.5186 11.8132 11.5137 11.8068 11.5087 11.8005C11.5037 11.7943 11.4985 11.7882 11.4932 11.7822C11.4879 11.7762 11.4824 11.7703 11.4768 11.7646C11.4712 11.7588 11.4654 11.7532 11.4596 11.7478M12.469 7.89811C12.4751 7.9033 12.4814 7.90833 12.4878 7.91321C12.4942 7.91808 12.5007 7.92278 12.5074 7.92734C12.514 7.9319 12.5208 7.93629 12.5276 7.94051C12.5345 7.94473 12.5415 7.94878 12.5485 7.95265C12.5556 7.95653 12.5627 7.96023 12.57 7.96376C12.5772 7.96728 12.5846 7.97062 12.592 7.97378C12.5994 7.97694 12.6069 7.97992 12.6144 7.98271C12.622 7.98551 12.6296 7.98811 12.6373 7.99053C12.645 7.99294 12.6528 7.99516 12.6606 7.9972C12.6684 7.99924 12.6762 8.00108 12.6841 8.00272C12.692 8.00438 12.6999 8.00583 12.7079 8.00708C12.7158 8.00834 12.7238 8.0094 12.7319 8.01026C12.7399 8.01113 12.7479 8.01179 12.7559 8.01225C12.764 8.01271 12.7721 8.01297 12.7801 8.01305C12.7882 8.01311 12.7962 8.01298 12.8043 8.01265C12.8124 8.01232 12.8204 8.0118 12.8284 8.01107C12.8365 8.01035 12.8445 8.00942 12.8525 8.0083C12.8604 8.00717 12.8684 8.00585 12.8763 8.00434C12.8842 8.00283 12.8921 8.00112 12.8999 7.99922C12.9078 7.99731 12.9156 7.99521 12.9233 7.99293C12.931 7.99064 12.9387 7.98817 12.9463 7.9855C12.9539 7.98284 12.9614 7.97999 12.9689 7.97694C12.9764 7.97391 12.9837 7.9707 12.9911 7.96729C12.9984 7.96389 13.0056 7.96031 13.0127 7.95655C13.0198 7.9528 13.0269 7.94887 13.0338 7.94476C13.0407 7.94065 13.0476 7.93638 13.0543 7.93194C13.061 7.9275 13.0676 7.9229 13.0741 7.91813C13.0806 7.91336 13.087 7.90843 13.0932 7.90335C13.0994 7.89828 13.1056 7.89305 13.1116 7.88765C13.1175 7.88227 13.1234 7.87674 13.1291 7.87107C13.1348 7.8654 13.1404 7.85959 13.1458 7.85364C13.1512 7.8477 13.1565 7.84162 13.1616 7.83542C13.6297 7.27484 14.2595 6.95338 14.8893 6.95338L15.4306 6.95338L15.0283 7.3543C15.0226 7.35997 15.017 7.36577 15.0116 7.37171C15.0062 7.37764 15.001 7.38371 14.9959 7.3899C14.9907 7.39609 14.9858 7.40242 14.981 7.40885C14.9762 7.41529 14.9716 7.42184 14.9671 7.4285C14.9626 7.43517 14.9583 7.44194 14.9542 7.44881C14.9501 7.45568 14.9461 7.46265 14.9423 7.46972C14.9385 7.47679 14.9349 7.48394 14.9314 7.49119C14.928 7.49844 14.9247 7.50577 14.9216 7.51317C14.9186 7.52057 14.9157 7.52804 14.913 7.53559C14.9102 7.54314 14.9077 7.55075 14.9054 7.55842C14.903 7.5661 14.9009 7.57382 14.8989 7.5816C14.897 7.58937 14.8952 7.59719 14.8937 7.60504C14.8921 7.61291 14.8907 7.62081 14.8895 7.62874C14.8883 7.63667 14.8874 7.64462 14.8866 7.65259C14.8858 7.66057 14.8852 7.66857 14.8848 7.67658C14.8844 7.68458 14.8842 7.69258 14.8842 7.7006C14.8842 7.70862 14.8844 7.71664 14.8848 7.72464C14.8852 7.73265 14.8857 7.74065 14.8865 7.74862C14.8873 7.7566 14.8883 7.76456 14.8895 7.77248C14.8907 7.78041 14.892 7.7883 14.8936 7.79617C14.8952 7.80403 14.8969 7.81185 14.8989 7.81963C14.9008 7.82741 14.903 7.83513 14.9053 7.84281C14.9076 7.85048 14.9102 7.85809 14.9129 7.86563C14.9156 7.87318 14.9185 7.88066 14.9216 7.88807C14.9246 7.89547 14.9279 7.9028 14.9313 7.91005C14.9348 7.9173 14.9384 7.92445 14.9422 7.93152C14.946 7.9386 14.9499 7.94557 14.9541 7.95245C14.9582 7.95932 14.9625 7.96608 14.967 7.97276C14.9714 7.97942 14.9761 7.98598 14.9809 7.99242C14.9856 7.99886 14.9906 8.00517 14.9957 8.01137C15.0008 8.01756 15.0061 8.02363 15.0115 8.02958C15.0169 8.03551 15.0224 8.04131 15.0281 8.04698C15.0338 8.05265 15.0396 8.05818 15.0456 8.06357C15.0515 8.06895 15.0576 8.07418 15.0638 8.07926C15.07 8.08436 15.0764 8.08929 15.0828 8.09406C15.0893 8.09884 15.0959 8.10345 15.1026 8.1079C15.1093 8.11235 15.1161 8.11665 15.123 8.12076C15.1299 8.12488 15.1368 8.12883 15.144 8.13261C15.151 8.13639 15.1582 8.13999 15.1655 8.14342C15.1728 8.14684 15.1801 8.15009 15.1875 8.15316C15.195 8.15622 15.2025 8.1591 15.2101 8.16181C15.2176 8.16451 15.2253 8.16703 15.233 8.16934C15.2407 8.17167 15.2484 8.17381 15.2562 8.17575C15.264 8.17771 15.2719 8.17946 15.2798 8.18102C15.2876 8.18258 15.2956 8.18395 15.3035 8.18513C15.3115 8.1863 15.3195 8.18728 15.3275 8.18806C15.3355 8.18884 15.3435 8.18943 15.3515 8.18983C15.3596 8.19022 15.3676 8.19041 15.3757 8.19041C15.3837 8.19041 15.3917 8.19021 15.3998 8.18981C15.4078 8.18942 15.4158 8.18883 15.4238 8.18804C15.4318 8.18725 15.4398 8.18627 15.4478 8.18509C15.4557 8.18391 15.4636 8.18254 15.4715 8.18097C15.4794 8.1794 15.4873 8.17765 15.4951 8.1757C15.5029 8.17374 15.5106 8.17161 15.5183 8.16928C15.526 8.16695 15.5336 8.16443 15.5412 8.16173C15.5488 8.15903 15.5563 8.15614 15.5637 8.15307C15.5711 8.15 15.5785 8.14675 15.5858 8.14332C15.593 8.13989 15.6002 8.13628 15.6073 8.13249C15.6144 8.12871 15.6214 8.12476 15.6283 8.12064C15.6352 8.11652 15.642 8.11223 15.6487 8.10777C15.6554 8.10331 15.6619 8.09869 15.6684 8.09391C15.6749 8.08914 15.6812 8.08421 15.6874 8.07911C15.6936 8.07402 15.6997 8.06879 15.7057 8.06341C15.7116 8.05801 15.7174 8.05249 15.7231 8.04682L16.9468 6.82726C16.9506 6.82348 16.9544 6.81963 16.958 6.81573C16.9617 6.81183 16.9653 6.80787 16.9689 6.80384C16.9724 6.79981 16.9759 6.79573 16.9793 6.7916C16.9827 6.78747 16.986 6.78327 16.9893 6.77903C16.9926 6.77479 16.9958 6.77049 16.9989 6.76615C17.002 6.7618 17.0051 6.7574 17.0081 6.75295C17.0111 6.74849 17.014 6.744 17.0168 6.73945C17.0196 6.73491 17.0224 6.73032 17.0251 6.72569C17.0278 6.72105 17.0304 6.71637 17.0329 6.71165C17.0355 6.70693 17.0379 6.70217 17.0403 6.69738C17.0427 6.69258 17.0449 6.68775 17.0472 6.68287C17.0494 6.67799 17.0515 6.67307 17.0536 6.66813C17.0556 6.66319 17.0576 6.65821 17.0595 6.6532C17.0614 6.64819 17.0632 6.64316 17.0649 6.63809C17.0666 6.63302 17.0683 6.62793 17.0698 6.6228C17.0714 6.61769 17.0729 6.61254 17.0743 6.60737C17.0757 6.60219 17.077 6.597 17.0782 6.59179C17.0794 6.58658 17.0805 6.58135 17.0816 6.57611C17.0826 6.57085 17.0836 6.56559 17.0845 6.5603C17.0853 6.55503 17.0861 6.54973 17.0868 6.54442C17.0875 6.53912 17.0881 6.53381 17.0886 6.52848C17.0892 6.52315 17.0896 6.51781 17.0899 6.51247C17.0903 6.50713 17.0906 6.5018 17.0907 6.49645C17.0909 6.4911 17.091 6.48574 17.091 6.48039C17.091 6.47504 17.0909 6.46969 17.0907 6.46434C17.0905 6.45899 17.0903 6.45365 17.0899 6.44831C17.0896 6.44296 17.0891 6.43763 17.0886 6.4323C17.088 6.42697 17.0874 6.42167 17.0867 6.41636C17.086 6.41105 17.0852 6.40577 17.0843 6.40048C17.0835 6.3952 17.0825 6.38993 17.0815 6.38469C17.0804 6.37945 17.0793 6.37421 17.078 6.369C17.0768 6.36379 17.0755 6.3586 17.0741 6.35343C17.072 6.3411 17.0694 6.32887 17.0663 6.31675C17.0632 6.30462 17.0597 6.29263 17.0557 6.28077C17.0517 6.26892 17.0473 6.25722 17.0424 6.2457C17.0375 6.23418 17.0322 6.22287 17.0264 6.21175C17.0206 6.20064 17.0145 6.18977 17.0079 6.17912C17.0013 6.16849 16.9943 6.15812 16.9869 6.14801C16.9795 6.13789 16.9717 6.12809 16.9636 6.11858C16.9554 6.10906 16.9469 6.09987 16.9381 6.09101L15.7136 4.87072C15.7079 4.86505 15.7021 4.85953 15.6962 4.85415C15.6902 4.84876 15.6841 4.84353 15.6779 4.83845C15.6717 4.83336 15.6653 4.82843 15.6589 4.82366C15.6524 4.81889 15.6458 4.81427 15.6392 4.80982C15.6325 4.80537 15.6257 4.80108 15.6188 4.79696C15.6119 4.79284 15.6049 4.78889 15.5978 4.78512C15.5907 4.78134 15.5835 4.77774 15.5763 4.77431C15.569 4.77088 15.5616 4.76764 15.5542 4.76457C15.5468 4.7615 15.5393 4.75862 15.5317 4.75592C15.5241 4.75322 15.5165 4.75071 15.5088 4.74838C15.5011 4.74605 15.4934 4.74392 15.4856 4.74197C15.4778 4.74002 15.4699 4.73827 15.462 4.7367C15.4542 4.73514 15.4462 4.73377 15.4383 4.73259C15.4303 4.73142 15.4223 4.73044 15.4144 4.72965C15.4063 4.72887 15.3983 4.72828 15.3903 4.72788C15.3823 4.72749 15.3742 4.72729 15.3662 4.72729C15.3581 4.72729 15.3501 4.72749 15.3421 4.72788C15.334 4.72828 15.326 4.72887 15.318 4.72965C15.31 4.73044 15.302 4.73142 15.2941 4.73259C15.2861 4.73377 15.2782 4.73514 15.2703 4.7367C15.2624 4.73827 15.2546 4.74002 15.2468 4.74197C15.239 4.74392 15.2313 4.74605 15.2236 4.74838C15.2159 4.75071 15.2082 4.75322 15.2007 4.75592C15.1931 4.75862 15.1856 4.7615 15.1782 4.76457C15.1707 4.76764 15.1634 4.77088 15.1561 4.77431C15.1488 4.77774 15.1417 4.78134 15.1346 4.78512C15.1275 4.78889 15.1205 4.79284 15.1136 4.79696C15.1067 4.80108 15.0999 4.80537 15.0932 4.80982C15.0865 4.81427 15.0799 4.81889 15.0735 4.82366C15.067 4.82843 15.0607 4.83336 15.0545 4.83845C15.0483 4.84353 15.0422 4.84876 15.0362 4.85415C15.0303 4.85953 15.0244 4.86505 15.0188 4.87072C15.0131 4.87639 15.0075 4.88219 15.0021 4.88813C14.9967 4.89406 14.9915 4.90013 14.9864 4.90633C14.9813 4.91252 14.9763 4.91884 14.9715 4.92527C14.9667 4.93171 14.9621 4.93826 14.9576 4.94492C14.9532 4.95159 14.9489 4.95836 14.9447 4.96523C14.9406 4.9721 14.9366 4.97907 14.9329 4.98614C14.9291 4.99321 14.9254 5.00037 14.922 5.00761C14.9186 5.01486 14.9153 5.02218 14.9122 5.02958C14.9092 5.03699 14.9063 5.04446 14.9036 5.05201C14.9009 5.05955 14.8983 5.06716 14.896 5.07483C14.8937 5.0825 14.8915 5.09022 14.8896 5.09799C14.8876 5.10577 14.8858 5.11358 14.8843 5.12144C14.8827 5.12931 14.8813 5.1372 14.8802 5.14513C14.879 5.15305 14.878 5.161 14.8772 5.16898C14.8764 5.17696 14.8758 5.18495 14.8754 5.19295C14.875 5.20095 14.8748 5.20896 14.8748 5.21698C14.8748 5.22499 14.875 5.233 14.8754 5.24101C14.8758 5.24901 14.8764 5.257 14.8772 5.26497C14.878 5.27295 14.879 5.2809 14.8802 5.28883C14.8813 5.29676 14.8827 5.30465 14.8843 5.31251C14.8858 5.32037 14.8876 5.32819 14.8896 5.33596C14.8915 5.34373 14.8937 5.35146 14.896 5.35913C14.8983 5.36679 14.9009 5.3744 14.9036 5.38195C14.9063 5.38949 14.9092 5.39697 14.9122 5.40437C14.9153 5.41178 14.9186 5.4191 14.922 5.42634C14.9254 5.43359 14.9291 5.44075 14.9329 5.44781C14.9366 5.45488 14.9406 5.46185 14.9447 5.46872C14.9489 5.4756 14.9532 5.48237 14.9576 5.48903C14.9621 5.4957 14.9667 5.50224 14.9715 5.50868C14.9763 5.51512 14.9813 5.52143 14.9864 5.52762C14.9915 5.53382 14.9967 5.53989 15.0021 5.54583C15.0075 5.55177 15.0131 5.55757 15.0188 5.56324L15.432 5.97437L14.8907 5.97437C14.4095 5.97437 13.9399 6.09101 13.4959 6.32136C13.087 6.53421 12.7206 6.83236 12.406 7.20851C12.4009 7.21468 12.396 7.22097 12.3912 7.22739C12.3864 7.23381 12.3817 7.24033 12.3773 7.24696C12.3728 7.2536 12.3685 7.26035 12.3643 7.2672C12.3602 7.27404 12.3562 7.28099 12.3524 7.28804C12.3486 7.29508 12.3449 7.30221 12.3415 7.30943C12.338 7.31665 12.3348 7.32395 12.3317 7.33133C12.3286 7.33871 12.3256 7.34616 12.3229 7.35369C12.3202 7.36121 12.3176 7.36879 12.3153 7.37644C12.3129 7.38409 12.3107 7.39179 12.3088 7.39954C12.3068 7.4073 12.305 7.41509 12.3034 7.42293C12.3018 7.43077 12.3004 7.43864 12.2992 7.44655C12.2979 7.45446 12.2969 7.46239 12.2961 7.47035C12.2953 7.47831 12.2947 7.48628 12.2942 7.49427C12.2938 7.50226 12.2936 7.51025 12.2935 7.51825C12.2935 7.52625 12.2936 7.53425 12.294 7.54224C12.2943 7.55023 12.2949 7.55821 12.2956 7.56618C12.2964 7.57414 12.2973 7.58209 12.2985 7.59001C12.2996 7.59792 12.3009 7.60581 12.3024 7.61367C12.304 7.62152 12.3057 7.62934 12.3076 7.63711C12.3095 7.64487 12.3116 7.65259 12.3139 7.66027C12.3161 7.66794 12.3186 7.67555 12.3213 7.6831C12.3239 7.69065 12.3268 7.69813 12.3298 7.70554C12.3328 7.71295 12.336 7.72028 12.3394 7.72753C12.3428 7.73479 12.3464 7.74196 12.3501 7.74904C12.3538 7.75612 12.3577 7.7631 12.3618 7.76999C12.3659 7.77688 12.3701 7.78367 12.3746 7.79035C12.379 7.79704 12.3835 7.80361 12.3883 7.81007C12.393 7.81653 12.3979 7.82287 12.4029 7.82909C12.408 7.83532 12.4132 7.84141 12.4185 7.84738C12.4239 7.85334 12.4294 7.85919 12.435 7.86488C12.4406 7.87058 12.4464 7.87614 12.4523 7.88157C12.4582 7.88698 12.4642 7.89226 12.4704 7.89738"></path><path     fill="#CC4E1D"  d="M16.9373 12.8084L15.7144 11.5881C15.7087 11.5825 15.7029 11.5769 15.6969 11.5716C15.6909 11.5662 15.6848 11.5609 15.6786 11.5559C15.6724 11.5508 15.6661 11.5458 15.6596 11.5411C15.6532 11.5363 15.6466 11.5317 15.6399 11.5272C15.6332 11.5228 15.6264 11.5185 15.6195 11.5144C15.6126 11.5103 15.6056 11.5063 15.5985 11.5025C15.5915 11.4988 15.5843 11.4951 15.577 11.4917C15.5697 11.4883 15.5624 11.485 15.5549 11.482C15.5475 11.4789 15.54 11.476 15.5324 11.4733C15.5249 11.4706 15.5172 11.4681 15.5096 11.4658C15.5019 11.4635 15.4941 11.4613 15.4863 11.4594C15.4785 11.4574 15.4707 11.4557 15.4628 11.4541C15.4549 11.4525 15.447 11.4512 15.439 11.45C15.4311 11.4488 15.4231 11.4479 15.4151 11.4471C15.4071 11.4463 15.3991 11.4457 15.391 11.4453C15.383 11.4449 15.375 11.4447 15.3669 11.4447C15.3589 11.4447 15.3508 11.4449 15.3428 11.4453C15.3348 11.4457 15.3268 11.4463 15.3188 11.4471C15.3108 11.4479 15.3028 11.4488 15.2948 11.45C15.2869 11.4512 15.279 11.4525 15.2711 11.4541C15.2632 11.4557 15.2553 11.4574 15.2475 11.4594C15.2397 11.4613 15.232 11.4635 15.2243 11.4658C15.2166 11.4681 15.209 11.4706 15.2014 11.4733C15.1938 11.476 15.1863 11.4789 15.1789 11.482C15.1715 11.485 15.1641 11.4883 15.1568 11.4917C15.1496 11.4951 15.1424 11.4988 15.1353 11.5025C15.1282 11.5063 15.1212 11.5103 15.1143 11.5144C15.1074 11.5185 15.1006 11.5228 15.0939 11.5272C15.0872 11.5317 15.0807 11.5363 15.0742 11.5411C15.0678 11.5458 15.0614 11.5508 15.0552 11.5559C15.049 11.5609 15.0429 11.5662 15.0369 11.5716C15.031 11.5769 15.0252 11.5825 15.0195 11.5881C15.0138 11.5938 15.0083 11.5996 15.0029 11.6055C14.9975 11.6115 14.9922 11.6175 14.9871 11.6237C14.982 11.6299 14.9771 11.6362 14.9723 11.6427C14.9675 11.6491 14.9628 11.6557 14.9584 11.6623C14.9539 11.669 14.9496 11.6758 14.9455 11.6826C14.9413 11.6895 14.9374 11.6965 14.9336 11.7036C14.9298 11.7106 14.9262 11.7178 14.9227 11.725C14.9193 11.7323 14.916 11.7396 14.913 11.747C14.9099 11.7544 14.907 11.7619 14.9043 11.7694C14.9016 11.777 14.8991 11.7846 14.8967 11.7922C14.8944 11.7999 14.8923 11.8076 14.8903 11.8154C14.8883 11.8232 14.8866 11.831 14.885 11.8389C14.8834 11.8467 14.8821 11.8546 14.8809 11.8625C14.8797 11.8705 14.8787 11.8784 14.8779 11.8864C14.8771 11.8944 14.8766 11.9024 14.8762 11.9104C14.8758 11.9184 14.8756 11.9264 14.8756 11.9344C14.8756 11.9424 14.8758 11.9504 14.8762 11.9584C14.8766 11.9664 14.8771 11.9744 14.8779 11.9824C14.8787 11.9904 14.8797 11.9983 14.8809 12.0062C14.8821 12.0142 14.8834 12.0221 14.885 12.0299C14.8866 12.0378 14.8883 12.0456 14.8903 12.0534C14.8923 12.0611 14.8944 12.0689 14.8967 12.0765C14.8991 12.0842 14.9016 12.0918 14.9043 12.0994C14.907 12.1069 14.9099 12.1144 14.913 12.1218C14.916 12.1292 14.9193 12.1365 14.9227 12.1438C14.9262 12.151 14.9298 12.1582 14.9336 12.1652C14.9374 12.1723 14.9413 12.1793 14.9455 12.1861C14.9496 12.193 14.9539 12.1998 14.9584 12.2064C14.9628 12.2131 14.9675 12.2197 14.9723 12.2261C14.9771 12.2325 14.982 12.2388 14.9871 12.245C14.9922 12.2512 14.9975 12.2573 15.0029 12.2632C15.0083 12.2692 15.0138 12.275 15.0195 12.2806L15.4393 12.6983L14.8907 12.6983C13.5105 12.6983 12.4792 11.2681 12.4792 9.98806L12.4792 9.65128C12.4792 8.75173 12.1237 7.83397 11.5034 7.1327C11.4659 7.08975 11.4274 7.04773 11.3878 7.00663C11.3483 6.96554 11.3078 6.92543 11.2663 6.88628C11.2248 6.84714 11.1824 6.80902 11.139 6.77192C11.0957 6.73481 11.0515 6.69878 11.0064 6.66381C10.9613 6.62884 10.9154 6.59497 10.8686 6.56221C10.8219 6.52945 10.7744 6.49783 10.7262 6.46736C10.6779 6.43689 10.6289 6.40759 10.5792 6.37947C10.5296 6.35136 10.4792 6.32446 10.4282 6.29877C10.4021 6.2856 10.3757 6.27281 10.3492 6.2604C10.3227 6.24799 10.296 6.23598 10.2691 6.22435C10.2423 6.21272 10.2152 6.20148 10.188 6.19064C10.1608 6.1798 10.1334 6.16936 10.1059 6.15932C10.0784 6.14927 10.0508 6.13964 10.023 6.1304C9.99519 6.12116 9.96727 6.11233 9.93922 6.10391C9.91117 6.09549 9.883 6.08748 9.85471 6.07987C9.82642 6.07227 9.79803 6.06508 9.76953 6.0583C9.74103 6.05153 9.71244 6.04517 9.68376 6.03923C9.65508 6.03329 9.62631 6.02776 9.59747 6.02266C9.56861 6.01756 9.53969 6.01288 9.51071 6.00862C9.48173 6.00436 9.45269 6.00052 9.42359 5.99711C9.3945 5.9937 9.36536 5.99071 9.33617 5.98814C9.30699 5.98557 9.27777 5.98344 9.24853 5.98172C9.21928 5.98001 9.19002 5.97873 9.16073 5.97787C9.13145 5.977 9.10216 5.97657 9.07285 5.97656L7.36859 5.97656C7.3609 5.97708 7.35322 5.97777 7.34555 5.97864C7.33789 5.97951 7.33025 5.98056 7.32264 5.98179C7.31502 5.98303 7.30744 5.98444 7.29989 5.98602C7.29235 5.98761 7.28484 5.98937 7.27738 5.99131C7.26991 5.99325 7.2625 5.99536 7.25513 5.99764C7.24777 5.99993 7.24046 6.00238 7.23321 6.00501C7.22596 6.00764 7.21878 6.01043 7.21166 6.01339C7.20454 6.01636 7.1975 6.01949 7.19053 6.02278C7.18356 6.02607 7.17667 6.02953 7.16987 6.03315C7.16306 6.03676 7.15634 6.04054 7.14971 6.04447C7.14308 6.0484 7.13655 6.05249 7.13011 6.05672C7.12368 6.06096 7.11735 6.06534 7.11112 6.06988C7.10489 6.07441 7.09877 6.07909 7.09276 6.08391C7.08675 6.08873 7.08086 6.09369 7.07509 6.09878C7.06931 6.10388 7.06366 6.10911 7.05813 6.11447C7.0526 6.11983 7.0472 6.12532 7.04193 6.13094C7.03666 6.13655 7.03153 6.14229 7.02653 6.14814C7.02153 6.15399 7.01668 6.15996 7.01196 6.16605C7.00724 6.17213 7.00267 6.17832 6.99824 6.18462C6.99382 6.19091 6.98955 6.19731 6.98542 6.2038C6.9813 6.2103 6.97733 6.21689 6.97352 6.22357C6.96971 6.23025 6.96605 6.23702 6.96256 6.24388C6.95906 6.25074 6.95573 6.25767 6.95257 6.26467C6.9494 6.27168 6.9464 6.27876 6.94357 6.28591C6.94074 6.29306 6.93808 6.30028 6.93558 6.30755C6.93309 6.31483 6.93077 6.32216 6.92862 6.32954C6.92648 6.33692 6.92451 6.34435 6.92271 6.35184C6.92091 6.35931 6.9193 6.36683 6.91785 6.37438C6.91641 6.38192 6.91515 6.38951 6.91407 6.39712C6.91298 6.40473 6.91208 6.41236 6.91135 6.42002C6.91063 6.42767 6.91009 6.43534 6.90972 6.44302C6.90936 6.45069 6.90918 6.45837 6.90918 6.46606C6.90918 6.47375 6.90936 6.48143 6.90972 6.48912C6.91009 6.4968 6.91063 6.50446 6.91135 6.51212C6.91208 6.51977 6.91298 6.5274 6.91407 6.53501C6.91515 6.54262 6.91641 6.5502 6.91785 6.55775C6.9193 6.56531 6.92091 6.57282 6.92271 6.5803C6.92451 6.58777 6.92648 6.5952 6.92862 6.60258C6.93077 6.60997 6.93309 6.6173 6.93558 6.62458C6.93808 6.63185 6.94074 6.63907 6.94357 6.64621C6.9464 6.65337 6.9494 6.66045 6.95257 6.66745C6.95573 6.67446 6.95906 6.6814 6.96256 6.68825C6.96605 6.69511 6.96971 6.70188 6.97352 6.70855C6.97733 6.71524 6.9813 6.72183 6.98542 6.72833C6.98955 6.73482 6.99382 6.74122 6.99824 6.74752C7.00267 6.75381 7.00724 6.76 7.01196 6.76609C7.01668 6.77217 7.02153 6.77813 7.02653 6.78399C7.03153 6.78985 7.03666 6.79558 7.04193 6.8012C7.0472 6.80681 7.0526 6.81229 7.05813 6.81765C7.06366 6.82302 7.06931 6.82825 7.07509 6.83335C7.08086 6.83844 7.08675 6.8434 7.09276 6.84822C7.09877 6.85304 7.10489 6.85772 7.11112 6.86225C7.11735 6.86679 7.12368 6.87117 7.13011 6.87541C7.13655 6.87965 7.14308 6.88373 7.14971 6.88766C7.15634 6.89159 7.16306 6.89536 7.16987 6.89898C7.17667 6.90259 7.18356 6.90605 7.19053 6.90934C7.1975 6.91264 7.20454 6.91577 7.21166 6.91873C7.21878 6.92169 7.22596 6.92449 7.23321 6.92712C7.24046 6.92975 7.24777 6.93221 7.25513 6.93449C7.2625 6.93678 7.26991 6.93889 7.27738 6.94082C7.28484 6.94276 7.29235 6.94452 7.29989 6.94611C7.30744 6.94769 7.31502 6.9491 7.32264 6.95033C7.33025 6.95156 7.33789 6.95261 7.34555 6.95349C7.35322 6.95436 7.3609 6.95505 7.36859 6.95556L9.07285 6.95556C10.3397 6.95556 11.4947 8.24146 11.4947 9.65201L11.4947 9.98878C11.4947 10.8883 11.8479 11.8083 12.4638 12.5125C12.7754 12.8689 13.1368 13.151 13.5354 13.3515C13.9669 13.568 14.4219 13.6781 14.8893 13.6781L15.424 13.6781L15.0275 14.0732C15.0218 14.0788 15.0163 14.0846 15.0109 14.0906C15.0055 14.0965 15.0002 14.1026 14.9951 14.1088C14.99 14.115 14.9851 14.1213 14.9803 14.1277C14.9755 14.1342 14.9709 14.1407 14.9664 14.1474C14.962 14.154 14.9577 14.1608 14.9535 14.1677C14.9494 14.1746 14.9454 14.1815 14.9416 14.1886C14.9378 14.1957 14.9342 14.2028 14.9308 14.2101C14.9274 14.2173 14.9241 14.2246 14.921 14.232C14.9179 14.2394 14.915 14.2469 14.9123 14.2545C14.9096 14.262 14.9071 14.2696 14.9048 14.2773C14.9024 14.2849 14.9003 14.2927 14.8983 14.3004C14.8964 14.3082 14.8946 14.316 14.8931 14.3239C14.8915 14.3318 14.8901 14.3396 14.8889 14.3476C14.8878 14.3555 14.8868 14.3635 14.886 14.3714C14.8852 14.3794 14.8846 14.3874 14.8842 14.3954C14.8838 14.4034 14.8836 14.4114 14.8836 14.4194C14.8836 14.4275 14.8838 14.4355 14.8842 14.4435C14.8846 14.4515 14.8852 14.4595 14.886 14.4674C14.8868 14.4754 14.8878 14.4834 14.8889 14.4913C14.8901 14.4992 14.8915 14.5071 14.8931 14.515C14.8946 14.5228 14.8964 14.5306 14.8983 14.5384C14.9003 14.5462 14.9024 14.5539 14.9048 14.5616C14.9071 14.5692 14.9096 14.5768 14.9123 14.5844C14.915 14.5919 14.9179 14.5994 14.921 14.6068C14.9241 14.6142 14.9274 14.6215 14.9308 14.6288C14.9342 14.636 14.9378 14.6432 14.9416 14.6503C14.9454 14.6573 14.9494 14.6643 14.9535 14.6712C14.9577 14.678 14.962 14.6848 14.9664 14.6915C14.9709 14.6981 14.9755 14.7047 14.9803 14.7111C14.9851 14.7176 14.99 14.7239 14.9951 14.7301C15.0002 14.7363 15.0055 14.7423 15.0109 14.7483C15.0163 14.7542 15.0218 14.76 15.0275 14.7657C15.0332 14.7714 15.039 14.7769 15.045 14.7823C15.0509 14.7876 15.057 14.7929 15.0633 14.798C15.0695 14.803 15.0758 14.808 15.0823 14.8128C15.0887 14.8175 15.0953 14.8221 15.102 14.8266C15.1087 14.831 15.1155 14.8353 15.1224 14.8394C15.1293 14.8436 15.1363 14.8475 15.1434 14.8513C15.1504 14.8551 15.1576 14.8587 15.1649 14.8621C15.1722 14.8655 15.1795 14.8688 15.1869 14.8718C15.1944 14.8749 15.2019 14.8778 15.2094 14.8805C15.217 14.8832 15.2246 14.8857 15.2323 14.888C15.24 14.8903 15.2478 14.8925 15.2556 14.8944C15.2634 14.8964 15.2712 14.8981 15.2791 14.8997C15.287 14.9013 15.2949 14.9026 15.3029 14.9038C15.3108 14.905 15.3188 14.906 15.3268 14.9068C15.3348 14.9075 15.3428 14.9081 15.3509 14.9085C15.3589 14.9089 15.3669 14.9091 15.375 14.9091C15.383 14.9091 15.391 14.9089 15.3991 14.9085C15.4071 14.9081 15.4151 14.9075 15.4231 14.9068C15.4311 14.906 15.4391 14.905 15.4471 14.9038C15.455 14.9026 15.4629 14.9013 15.4708 14.8997C15.4787 14.8981 15.4866 14.8964 15.4944 14.8944C15.5022 14.8925 15.5099 14.8903 15.5176 14.888C15.5253 14.8857 15.5329 14.8832 15.5405 14.8805C15.5481 14.8778 15.5556 14.8749 15.563 14.8718C15.5704 14.8688 15.5778 14.8655 15.585 14.8621C15.5923 14.8587 15.5995 14.8551 15.6066 14.8513C15.6137 14.8475 15.6207 14.8436 15.6276 14.8394C15.6345 14.8353 15.6413 14.831 15.6479 14.8266C15.6546 14.8221 15.6612 14.8175 15.6677 14.8128C15.6741 14.808 15.6805 14.803 15.6867 14.798C15.6929 14.7929 15.699 14.7876 15.7049 14.7823C15.7109 14.7769 15.7167 14.7714 15.7224 14.7657L16.9461 13.5461C16.9499 13.5423 16.9536 13.5385 16.9573 13.5346C16.961 13.5307 16.9646 13.5267 16.9682 13.5227C16.9717 13.5186 16.9752 13.5146 16.9786 13.5104C16.982 13.5063 16.9853 13.5021 16.9886 13.4978C16.9919 13.4936 16.9951 13.4893 16.9982 13.4849C17.0013 13.4805 17.0044 13.4761 17.0074 13.4717C17.0104 13.4672 17.0133 13.4627 17.0161 13.4582C17.019 13.4536 17.0217 13.449 17.0244 13.4444C17.0271 13.4397 17.0297 13.435 17.0322 13.4303C17.0347 13.4256 17.0372 13.4208 17.0396 13.416C17.0419 13.4112 17.0442 13.4063 17.0464 13.4015C17.0487 13.3966 17.0508 13.3917 17.0528 13.3867C17.0549 13.3818 17.0569 13.3768 17.0587 13.3718C17.0606 13.3667 17.0624 13.3617 17.0641 13.3566C17.0659 13.3515 17.0675 13.3464 17.0691 13.3413C17.0706 13.3362 17.0721 13.331 17.0734 13.3258C17.0748 13.3206 17.0761 13.3154 17.0773 13.3102C17.0785 13.305 17.0797 13.2998 17.0807 13.2945C17.0818 13.2892 17.0827 13.284 17.0836 13.2787C17.0844 13.2734 17.0852 13.2681 17.0859 13.2628C17.0866 13.2575 17.0872 13.2521 17.0877 13.2468C17.0882 13.2415 17.0886 13.2361 17.089 13.2308C17.0893 13.2254 17.0895 13.2201 17.0897 13.2147C17.0899 13.2094 17.0899 13.204 17.0899 13.1986C17.0899 13.1933 17.0898 13.1879 17.0896 13.1826C17.0894 13.1772 17.0891 13.1719 17.0887 13.1665C17.0884 13.1612 17.0879 13.1558 17.0874 13.1505C17.0868 13.1452 17.0862 13.1399 17.0855 13.1345C17.0848 13.1292 17.0839 13.1239 17.083 13.1187C17.0822 13.1134 17.0812 13.1081 17.0801 13.1029C17.079 13.0976 17.0779 13.0924 17.0766 13.0872C17.0754 13.0819 17.0741 13.0767 17.0726 13.0716C17.0706 13.0592 17.0681 13.0469 17.065 13.0347C17.062 13.0226 17.0586 13.0105 17.0546 12.9986C17.0506 12.9867 17.0462 12.975 17.0414 12.9634C17.0365 12.9518 17.0312 12.9405 17.0254 12.9293C17.0196 12.9182 17.0134 12.9073 17.0068 12.8966C17.0002 12.8859 16.9932 12.8755 16.9857 12.8654C16.9783 12.8553 16.9705 12.8455 16.9623 12.836C16.9541 12.8264 16.9455 12.8173 16.9366 12.8084"></path><path    stroke="rgba(204, 78, 29, 1)" stroke-width="0.2"    d="M16.9373 12.8084L15.7144 11.5881C15.7087 11.5825 15.7029 11.5769 15.6969 11.5716C15.6909 11.5662 15.6848 11.5609 15.6786 11.5559C15.6724 11.5508 15.6661 11.5458 15.6596 11.5411C15.6532 11.5363 15.6466 11.5317 15.6399 11.5272C15.6332 11.5228 15.6264 11.5185 15.6195 11.5144C15.6126 11.5103 15.6056 11.5063 15.5985 11.5025C15.5915 11.4988 15.5843 11.4951 15.577 11.4917C15.5697 11.4883 15.5624 11.485 15.5549 11.482C15.5475 11.4789 15.54 11.476 15.5324 11.4733C15.5249 11.4706 15.5172 11.4681 15.5096 11.4658C15.5019 11.4635 15.4941 11.4613 15.4863 11.4594C15.4785 11.4574 15.4707 11.4557 15.4628 11.4541C15.4549 11.4525 15.447 11.4512 15.439 11.45C15.4311 11.4488 15.4231 11.4479 15.4151 11.4471C15.4071 11.4463 15.3991 11.4457 15.391 11.4453C15.383 11.4449 15.375 11.4447 15.3669 11.4447C15.3589 11.4447 15.3508 11.4449 15.3428 11.4453C15.3348 11.4457 15.3268 11.4463 15.3188 11.4471C15.3108 11.4479 15.3028 11.4488 15.2948 11.45C15.2869 11.4512 15.279 11.4525 15.2711 11.4541C15.2632 11.4557 15.2553 11.4574 15.2475 11.4594C15.2397 11.4613 15.232 11.4635 15.2243 11.4658C15.2166 11.4681 15.209 11.4706 15.2014 11.4733C15.1938 11.476 15.1863 11.4789 15.1789 11.482C15.1715 11.485 15.1641 11.4883 15.1568 11.4917C15.1496 11.4951 15.1424 11.4988 15.1353 11.5025C15.1282 11.5063 15.1212 11.5103 15.1143 11.5144C15.1074 11.5185 15.1006 11.5228 15.0939 11.5272C15.0872 11.5317 15.0807 11.5363 15.0742 11.5411C15.0678 11.5458 15.0614 11.5508 15.0552 11.5559C15.049 11.5609 15.0429 11.5662 15.0369 11.5716C15.031 11.5769 15.0252 11.5825 15.0195 11.5881C15.0138 11.5938 15.0083 11.5996 15.0029 11.6055C14.9975 11.6115 14.9922 11.6175 14.9871 11.6237C14.982 11.6299 14.9771 11.6362 14.9723 11.6427C14.9675 11.6491 14.9628 11.6557 14.9584 11.6623C14.9539 11.669 14.9496 11.6758 14.9455 11.6826C14.9413 11.6895 14.9374 11.6965 14.9336 11.7036C14.9298 11.7106 14.9262 11.7178 14.9227 11.725C14.9193 11.7323 14.916 11.7396 14.913 11.747C14.9099 11.7544 14.907 11.7619 14.9043 11.7694C14.9016 11.777 14.8991 11.7846 14.8967 11.7922C14.8944 11.7999 14.8923 11.8076 14.8903 11.8154C14.8883 11.8232 14.8866 11.831 14.885 11.8389C14.8834 11.8467 14.8821 11.8546 14.8809 11.8625C14.8797 11.8705 14.8787 11.8784 14.8779 11.8864C14.8771 11.8944 14.8766 11.9024 14.8762 11.9104C14.8758 11.9184 14.8756 11.9264 14.8756 11.9344C14.8756 11.9424 14.8758 11.9504 14.8762 11.9584C14.8766 11.9664 14.8771 11.9744 14.8779 11.9824C14.8787 11.9904 14.8797 11.9983 14.8809 12.0062C14.8821 12.0142 14.8834 12.0221 14.885 12.0299C14.8866 12.0378 14.8883 12.0456 14.8903 12.0534C14.8923 12.0611 14.8944 12.0689 14.8967 12.0765C14.8991 12.0842 14.9016 12.0918 14.9043 12.0994C14.907 12.1069 14.9099 12.1144 14.913 12.1218C14.916 12.1292 14.9193 12.1365 14.9227 12.1438C14.9262 12.151 14.9298 12.1582 14.9336 12.1652C14.9374 12.1723 14.9413 12.1793 14.9455 12.1861C14.9496 12.193 14.9539 12.1998 14.9584 12.2064C14.9628 12.2131 14.9675 12.2197 14.9723 12.2261C14.9771 12.2325 14.982 12.2388 14.9871 12.245C14.9922 12.2512 14.9975 12.2573 15.0029 12.2632C15.0083 12.2692 15.0138 12.275 15.0195 12.2806L15.4393 12.6983L14.8907 12.6983C13.5105 12.6983 12.4792 11.2681 12.4792 9.98806L12.4792 9.65128C12.4792 8.75173 12.1237 7.83397 11.5034 7.1327C11.4659 7.08975 11.4274 7.04773 11.3878 7.00663C11.3483 6.96554 11.3078 6.92543 11.2663 6.88628C11.2248 6.84714 11.1824 6.80902 11.139 6.77192C11.0957 6.73481 11.0515 6.69878 11.0064 6.66381C10.9613 6.62884 10.9154 6.59497 10.8686 6.56221C10.8219 6.52945 10.7744 6.49783 10.7262 6.46736C10.6779 6.43689 10.6289 6.40759 10.5792 6.37947C10.5296 6.35136 10.4792 6.32446 10.4282 6.29877C10.4021 6.2856 10.3757 6.27281 10.3492 6.2604C10.3227 6.24799 10.296 6.23598 10.2691 6.22435C10.2423 6.21272 10.2152 6.20148 10.188 6.19064C10.1608 6.1798 10.1334 6.16936 10.1059 6.15932C10.0784 6.14927 10.0508 6.13964 10.023 6.1304C9.99519 6.12116 9.96727 6.11233 9.93922 6.10391C9.91117 6.09549 9.883 6.08748 9.85471 6.07987C9.82642 6.07227 9.79803 6.06508 9.76953 6.0583C9.74103 6.05153 9.71244 6.04517 9.68376 6.03923C9.65508 6.03329 9.62631 6.02776 9.59747 6.02266C9.56861 6.01756 9.53969 6.01288 9.51071 6.00862C9.48173 6.00436 9.45269 6.00052 9.42359 5.99711C9.3945 5.9937 9.36536 5.99071 9.33617 5.98814C9.30699 5.98557 9.27777 5.98344 9.24853 5.98172C9.21928 5.98001 9.19002 5.97873 9.16073 5.97787C9.13145 5.977 9.10216 5.97657 9.07285 5.97656L7.36859 5.97656C7.3609 5.97708 7.35322 5.97777 7.34555 5.97864C7.33789 5.97951 7.33025 5.98056 7.32264 5.98179C7.31502 5.98303 7.30744 5.98444 7.29989 5.98602C7.29235 5.98761 7.28484 5.98937 7.27738 5.99131C7.26991 5.99325 7.2625 5.99536 7.25513 5.99764C7.24777 5.99993 7.24046 6.00238 7.23321 6.00501C7.22596 6.00764 7.21878 6.01043 7.21166 6.01339C7.20454 6.01636 7.1975 6.01949 7.19053 6.02278C7.18356 6.02607 7.17667 6.02953 7.16987 6.03315C7.16306 6.03676 7.15634 6.04054 7.14971 6.04447C7.14308 6.0484 7.13655 6.05249 7.13011 6.05672C7.12368 6.06096 7.11735 6.06534 7.11112 6.06988C7.10489 6.07441 7.09877 6.07909 7.09276 6.08391C7.08675 6.08873 7.08086 6.09369 7.07509 6.09878C7.06931 6.10388 7.06366 6.10911 7.05813 6.11447C7.0526 6.11983 7.0472 6.12532 7.04193 6.13094C7.03666 6.13655 7.03153 6.14229 7.02653 6.14814C7.02153 6.15399 7.01668 6.15996 7.01196 6.16605C7.00724 6.17213 7.00267 6.17832 6.99824 6.18462C6.99382 6.19091 6.98955 6.19731 6.98542 6.2038C6.9813 6.2103 6.97733 6.21689 6.97352 6.22357C6.96971 6.23025 6.96605 6.23702 6.96256 6.24388C6.95906 6.25074 6.95573 6.25767 6.95257 6.26467C6.9494 6.27168 6.9464 6.27876 6.94357 6.28591C6.94074 6.29306 6.93808 6.30028 6.93558 6.30755C6.93309 6.31483 6.93077 6.32216 6.92862 6.32954C6.92648 6.33692 6.92451 6.34435 6.92271 6.35184C6.92091 6.35931 6.9193 6.36683 6.91785 6.37438C6.91641 6.38192 6.91515 6.38951 6.91407 6.39712C6.91298 6.40473 6.91208 6.41236 6.91135 6.42002C6.91063 6.42767 6.91009 6.43534 6.90972 6.44302C6.90936 6.45069 6.90918 6.45837 6.90918 6.46606C6.90918 6.47375 6.90936 6.48143 6.90972 6.48912C6.91009 6.4968 6.91063 6.50446 6.91135 6.51212C6.91208 6.51977 6.91298 6.5274 6.91407 6.53501C6.91515 6.54262 6.91641 6.5502 6.91785 6.55775C6.9193 6.56531 6.92091 6.57282 6.92271 6.5803C6.92451 6.58777 6.92648 6.5952 6.92862 6.60258C6.93077 6.60997 6.93309 6.6173 6.93558 6.62458C6.93808 6.63185 6.94074 6.63907 6.94357 6.64621C6.9464 6.65337 6.9494 6.66045 6.95257 6.66745C6.95573 6.67446 6.95906 6.6814 6.96256 6.68825C6.96605 6.69511 6.96971 6.70188 6.97352 6.70855C6.97733 6.71524 6.9813 6.72183 6.98542 6.72833C6.98955 6.73482 6.99382 6.74122 6.99824 6.74752C7.00267 6.75381 7.00724 6.76 7.01196 6.76609C7.01668 6.77217 7.02153 6.77813 7.02653 6.78399C7.03153 6.78985 7.03666 6.79558 7.04193 6.8012C7.0472 6.80681 7.0526 6.81229 7.05813 6.81765C7.06366 6.82302 7.06931 6.82825 7.07509 6.83335C7.08086 6.83844 7.08675 6.8434 7.09276 6.84822C7.09877 6.85304 7.10489 6.85772 7.11112 6.86225C7.11735 6.86679 7.12368 6.87117 7.13011 6.87541C7.13655 6.87965 7.14308 6.88373 7.14971 6.88766C7.15634 6.89159 7.16306 6.89536 7.16987 6.89898C7.17667 6.90259 7.18356 6.90605 7.19053 6.90934C7.1975 6.91264 7.20454 6.91577 7.21166 6.91873C7.21878 6.92169 7.22596 6.92449 7.23321 6.92712C7.24046 6.92975 7.24777 6.93221 7.25513 6.93449C7.2625 6.93678 7.26991 6.93889 7.27738 6.94082C7.28484 6.94276 7.29235 6.94452 7.29989 6.94611C7.30744 6.94769 7.31502 6.9491 7.32264 6.95033C7.33025 6.95156 7.33789 6.95261 7.34555 6.95349C7.35322 6.95436 7.3609 6.95505 7.36859 6.95556L9.07285 6.95556C10.3397 6.95556 11.4947 8.24146 11.4947 9.65201L11.4947 9.98878C11.4947 10.8883 11.8479 11.8083 12.4638 12.5125C12.7754 12.8689 13.1368 13.151 13.5354 13.3515C13.9669 13.568 14.4219 13.6781 14.8893 13.6781L15.424 13.6781L15.0275 14.0732C15.0218 14.0788 15.0163 14.0846 15.0109 14.0906C15.0055 14.0965 15.0002 14.1026 14.9951 14.1088C14.99 14.115 14.9851 14.1213 14.9803 14.1277C14.9755 14.1342 14.9709 14.1407 14.9664 14.1474C14.962 14.154 14.9577 14.1608 14.9535 14.1677C14.9494 14.1746 14.9454 14.1815 14.9416 14.1886C14.9378 14.1957 14.9342 14.2028 14.9308 14.2101C14.9274 14.2173 14.9241 14.2246 14.921 14.232C14.9179 14.2394 14.915 14.2469 14.9123 14.2545C14.9096 14.262 14.9071 14.2696 14.9048 14.2773C14.9024 14.2849 14.9003 14.2927 14.8983 14.3004C14.8964 14.3082 14.8946 14.316 14.8931 14.3239C14.8915 14.3318 14.8901 14.3396 14.8889 14.3476C14.8878 14.3555 14.8868 14.3635 14.886 14.3714C14.8852 14.3794 14.8846 14.3874 14.8842 14.3954C14.8838 14.4034 14.8836 14.4114 14.8836 14.4194C14.8836 14.4275 14.8838 14.4355 14.8842 14.4435C14.8846 14.4515 14.8852 14.4595 14.886 14.4674C14.8868 14.4754 14.8878 14.4834 14.8889 14.4913C14.8901 14.4992 14.8915 14.5071 14.8931 14.515C14.8946 14.5228 14.8964 14.5306 14.8983 14.5384C14.9003 14.5462 14.9024 14.5539 14.9048 14.5616C14.9071 14.5692 14.9096 14.5768 14.9123 14.5844C14.915 14.5919 14.9179 14.5994 14.921 14.6068C14.9241 14.6142 14.9274 14.6215 14.9308 14.6288C14.9342 14.636 14.9378 14.6432 14.9416 14.6503C14.9454 14.6573 14.9494 14.6643 14.9535 14.6712C14.9577 14.678 14.962 14.6848 14.9664 14.6915C14.9709 14.6981 14.9755 14.7047 14.9803 14.7111C14.9851 14.7176 14.99 14.7239 14.9951 14.7301C15.0002 14.7363 15.0055 14.7423 15.0109 14.7483C15.0163 14.7542 15.0218 14.76 15.0275 14.7657C15.0332 14.7714 15.039 14.7769 15.045 14.7823C15.0509 14.7876 15.057 14.7929 15.0633 14.798C15.0695 14.803 15.0758 14.808 15.0823 14.8128C15.0887 14.8175 15.0953 14.8221 15.102 14.8266C15.1087 14.831 15.1155 14.8353 15.1224 14.8394C15.1293 14.8436 15.1363 14.8475 15.1434 14.8513C15.1504 14.8551 15.1576 14.8587 15.1649 14.8621C15.1722 14.8655 15.1795 14.8688 15.1869 14.8718C15.1944 14.8749 15.2019 14.8778 15.2094 14.8805C15.217 14.8832 15.2246 14.8857 15.2323 14.888C15.24 14.8903 15.2478 14.8925 15.2556 14.8944C15.2634 14.8964 15.2712 14.8981 15.2791 14.8997C15.287 14.9013 15.2949 14.9026 15.3029 14.9038C15.3108 14.905 15.3188 14.906 15.3268 14.9068C15.3348 14.9075 15.3428 14.9081 15.3509 14.9085C15.3589 14.9089 15.3669 14.9091 15.375 14.9091C15.383 14.9091 15.391 14.9089 15.3991 14.9085C15.4071 14.9081 15.4151 14.9075 15.4231 14.9068C15.4311 14.906 15.4391 14.905 15.4471 14.9038C15.455 14.9026 15.4629 14.9013 15.4708 14.8997C15.4787 14.8981 15.4866 14.8964 15.4944 14.8944C15.5022 14.8925 15.5099 14.8903 15.5176 14.888C15.5253 14.8857 15.5329 14.8832 15.5405 14.8805C15.5481 14.8778 15.5556 14.8749 15.563 14.8718C15.5704 14.8688 15.5778 14.8655 15.585 14.8621C15.5923 14.8587 15.5995 14.8551 15.6066 14.8513C15.6137 14.8475 15.6207 14.8436 15.6276 14.8394C15.6345 14.8353 15.6413 14.831 15.6479 14.8266C15.6546 14.8221 15.6612 14.8175 15.6677 14.8128C15.6741 14.808 15.6805 14.803 15.6867 14.798C15.6929 14.7929 15.699 14.7876 15.7049 14.7823C15.7109 14.7769 15.7167 14.7714 15.7224 14.7657L16.9461 13.5461C16.9499 13.5423 16.9536 13.5385 16.9573 13.5346C16.961 13.5307 16.9646 13.5267 16.9682 13.5227C16.9717 13.5186 16.9752 13.5146 16.9786 13.5104C16.982 13.5063 16.9853 13.5021 16.9886 13.4978C16.9919 13.4936 16.9951 13.4893 16.9982 13.4849C17.0013 13.4805 17.0044 13.4761 17.0074 13.4717C17.0104 13.4672 17.0133 13.4627 17.0161 13.4582C17.019 13.4536 17.0217 13.449 17.0244 13.4444C17.0271 13.4397 17.0297 13.435 17.0322 13.4303C17.0347 13.4256 17.0372 13.4208 17.0396 13.416C17.0419 13.4112 17.0442 13.4063 17.0464 13.4015C17.0487 13.3966 17.0508 13.3917 17.0528 13.3867C17.0549 13.3818 17.0569 13.3768 17.0587 13.3718C17.0606 13.3667 17.0624 13.3617 17.0641 13.3566C17.0659 13.3515 17.0675 13.3464 17.0691 13.3413C17.0706 13.3362 17.0721 13.331 17.0734 13.3258C17.0748 13.3206 17.0761 13.3154 17.0773 13.3102C17.0785 13.305 17.0797 13.2998 17.0807 13.2945C17.0818 13.2892 17.0827 13.284 17.0836 13.2787C17.0844 13.2734 17.0852 13.2681 17.0859 13.2628C17.0866 13.2575 17.0872 13.2521 17.0877 13.2468C17.0882 13.2415 17.0886 13.2361 17.089 13.2308C17.0893 13.2254 17.0895 13.2201 17.0897 13.2147C17.0899 13.2094 17.0899 13.204 17.0899 13.1986C17.0899 13.1933 17.0898 13.1879 17.0896 13.1826C17.0894 13.1772 17.0891 13.1719 17.0887 13.1665C17.0884 13.1612 17.0879 13.1558 17.0874 13.1505C17.0868 13.1452 17.0862 13.1399 17.0855 13.1345C17.0848 13.1292 17.0839 13.1239 17.083 13.1187C17.0822 13.1134 17.0812 13.1081 17.0801 13.1029C17.079 13.0976 17.0779 13.0924 17.0766 13.0872C17.0754 13.0819 17.0741 13.0767 17.0726 13.0716C17.0706 13.0592 17.0681 13.0469 17.065 13.0347C17.062 13.0226 17.0586 13.0105 17.0546 12.9986C17.0506 12.9867 17.0462 12.975 17.0414 12.9634C17.0365 12.9518 17.0312 12.9405 17.0254 12.9293C17.0196 12.9182 17.0134 12.9073 17.0068 12.8966C17.0002 12.8859 16.9932 12.8755 16.9857 12.8654C16.9783 12.8553 16.9705 12.8455 16.9623 12.836C16.9541 12.8264 16.9455 12.8173 16.9366 12.8084"></path></svg>