<svg xmlns="http://www.w3.org/2000/svg" xmlns:xlink="http://www.w3.org/1999/xlink" width="24" height="24" viewBox="0 0 24 24" fill="none"><path d="M3.81342 12.8888L8.81217 12.8888C8.82577 12.8888 8.83985 12.885 8.85341 12.885C8.86696 12.885 8.87745 12.8813 8.89091 12.8813C8.90436 12.8813 8.91881 12.8738 8.93217 12.8738C8.9455 12.8738 8.96021 12.8625 8.97342 12.8625C8.9866 12.8625 8.99788 12.8553 9.01091 12.8513C9.02395 12.8472 9.03561 12.8447 9.04842 12.84C9.06122 12.8354 9.07707 12.8303 9.08966 12.825C9.10224 12.8198 9.11483 12.8121 9.12716 12.8063C9.13948 12.8005 9.14889 12.7939 9.16092 12.7875C9.17294 12.7811 9.18669 12.7757 9.19841 12.7688C9.21012 12.7618 9.22078 12.7538 9.23216 12.7463C9.24353 12.7388 9.25489 12.7318 9.26591 12.7238C9.27692 12.7158 9.28904 12.7098 9.29967 12.7013C9.31027 12.6928 9.31946 12.684 9.32966 12.675C9.33987 12.666 9.34989 12.6545 9.35966 12.645C9.36944 12.6355 9.38035 12.6249 9.38966 12.615C9.39898 12.6051 9.40707 12.5954 9.41591 12.585C9.42474 12.5747 9.43383 12.5658 9.44217 12.555C9.4505 12.5443 9.45682 12.5324 9.46466 12.5213C9.47247 12.5101 9.47985 12.499 9.48717 12.4875C9.49444 12.476 9.50292 12.4656 9.50966 12.4538C9.51641 12.442 9.52224 12.4284 9.52841 12.4163C9.53459 12.4042 9.54156 12.3912 9.54716 12.3788C9.55275 12.3664 9.55715 12.3539 9.56216 12.3413C9.56717 12.3287 9.57275 12.3166 9.57716 12.3038C9.58156 12.2909 9.58461 12.2793 9.58842 12.2663C9.5922 12.2532 9.59966 12.2382 9.59966 12.225C9.59966 12.2118 9.60716 12.2009 9.60716 12.1875C9.60716 12.1742 9.61466 12.1597 9.61466 12.1463C9.61466 12.1328 9.61841 12.1186 9.61841 12.105C9.61841 12.0915 9.62216 12.0774 9.62216 12.0638C9.62216 12.0502 9.62216 12.0361 9.62216 12.0225C9.62216 12.009 9.62216 11.9949 9.62216 11.9813C9.62216 11.9677 9.61841 11.9573 9.61841 11.9438C9.61841 11.9302 9.61466 11.916 9.61466 11.9025C9.61466 11.8891 9.60716 11.8746 9.60716 11.8613C9.60716 11.8479 9.59966 11.837 9.59966 11.8238C9.59966 11.8106 9.5922 11.7956 9.58842 11.7825C9.58461 11.7695 9.58156 11.7579 9.57716 11.745C9.57275 11.7322 9.56717 11.7164 9.56216 11.7038C9.55715 11.6911 9.55275 11.6787 9.54716 11.6663C9.54156 11.6539 9.53459 11.6447 9.52841 11.6325C9.52224 11.6204 9.51641 11.6068 9.50966 11.595C9.50292 11.5832 9.49444 11.5728 9.48717 11.5613C9.47985 11.5498 9.47247 11.5387 9.46466 11.5275C9.45682 11.5164 9.4505 11.5045 9.44217 11.4938C9.43383 11.483 9.42474 11.4704 9.41591 11.46C9.40707 11.4497 9.39898 11.44 9.38966 11.43C9.38035 11.4201 9.36944 11.4133 9.35966 11.4038C9.34989 11.3943 9.33987 11.3828 9.32966 11.3738C9.31946 11.3648 9.31027 11.3561 9.29967 11.3475C9.28904 11.339 9.27692 11.3331 9.26591 11.325C9.25489 11.317 9.24353 11.3063 9.23216 11.2988C9.22078 11.2913 9.21012 11.287 9.19841 11.28C9.18669 11.2731 9.17292 11.2639 9.16092 11.2575C9.14887 11.2511 9.13948 11.2446 9.12716 11.2388C9.11483 11.233 9.10224 11.229 9.08966 11.2238C9.07707 11.2185 9.06122 11.2134 9.04842 11.2088C9.03561 11.2041 9.02393 11.2016 9.01091 11.1975C8.99788 11.1935 8.9866 11.1863 8.97342 11.1863C8.96021 11.1863 8.9455 11.175 8.93217 11.175C8.91881 11.175 8.90436 11.1675 8.89091 11.1675C8.87745 11.1675 8.86696 11.1638 8.85341 11.1638C8.83985 11.1638 8.82577 11.16 8.81217 11.16L3.81342 11.16C3.79981 11.16 3.78572 11.1638 3.77217 11.1638C3.75862 11.1638 3.74813 11.1675 3.73467 11.1675C3.72121 11.1675 3.70676 11.175 3.69342 11.175C3.68008 11.175 3.66536 11.1863 3.65217 11.1863C3.63897 11.1863 3.62769 11.1935 3.61467 11.1975C3.60165 11.2016 3.58623 11.2041 3.57342 11.2088C3.5606 11.2134 3.5485 11.2185 3.53592 11.2238C3.52333 11.229 3.51074 11.233 3.49842 11.2388C3.4861 11.2446 3.4767 11.2511 3.46467 11.2575C3.45263 11.2639 3.43889 11.2731 3.42717 11.28C3.41545 11.287 3.4048 11.2913 3.39342 11.2988C3.38204 11.3063 3.37068 11.317 3.35967 11.325C3.34866 11.3331 3.33654 11.339 3.32592 11.3475C3.3153 11.3561 3.30613 11.3648 3.29592 11.3738C3.28571 11.3828 3.27569 11.3943 3.26592 11.4038C3.25615 11.4133 3.24523 11.4201 3.23592 11.43C3.2266 11.44 3.21851 11.4497 3.20967 11.46C3.20083 11.4704 3.19176 11.483 3.18342 11.4938C3.17508 11.5045 3.16874 11.5164 3.16092 11.5275C3.15309 11.5387 3.14571 11.5498 3.13842 11.5613C3.13113 11.5728 3.12266 11.5832 3.11592 11.595C3.10918 11.6068 3.10334 11.6204 3.09717 11.6325C3.09099 11.6447 3.08402 11.6539 3.07842 11.6663C3.07282 11.6787 3.06842 11.6911 3.06342 11.7038C3.05841 11.7164 3.05282 11.7322 3.04842 11.745C3.04401 11.7579 3.04096 11.7695 3.03717 11.7825C3.03337 11.7956 3.02592 11.8106 3.02592 11.8238C3.02592 11.837 3.01842 11.8479 3.01842 11.8613C3.01842 11.8746 3.01092 11.8891 3.01092 11.9025C3.01092 11.916 3.00717 11.9302 3.00717 11.9438C3.00717 11.9573 3.00342 11.9677 3.00342 11.9813C3.00342 11.9949 3.00342 12.009 3.00342 12.0225C3.00342 12.0361 3.00342 12.0502 3.00342 12.0638C3.00342 12.0774 3.00717 12.0915 3.00717 12.105C3.00717 12.1186 3.01092 12.1328 3.01092 12.1463C3.01092 12.1597 3.01842 12.1742 3.01842 12.1875C3.01842 12.2009 3.02592 12.2118 3.02592 12.225C3.02592 12.2382 3.03337 12.2532 3.03717 12.2663C3.04096 12.2793 3.04401 12.2909 3.04842 12.3038C3.05282 12.3166 3.05841 12.3287 3.06342 12.3413C3.06843 12.3539 3.07282 12.3664 3.07842 12.3788C3.08402 12.3912 3.09099 12.4042 3.09717 12.4163C3.10334 12.4284 3.10918 12.442 3.11592 12.4538C3.12266 12.4656 3.13113 12.476 3.13842 12.4875C3.14571 12.499 3.15309 12.5101 3.16092 12.5213C3.16874 12.5324 3.17508 12.5443 3.18342 12.555C3.19176 12.5658 3.20083 12.5747 3.20967 12.585C3.2185 12.5954 3.2266 12.6051 3.23592 12.615C3.24523 12.6249 3.25615 12.6355 3.26592 12.645C3.27569 12.6545 3.28571 12.666 3.29592 12.675C3.30613 12.684 3.3153 12.6928 3.32592 12.7013C3.33654 12.7098 3.34866 12.7158 3.35967 12.7238C3.37068 12.7318 3.38204 12.7388 3.39342 12.7463C3.4048 12.7538 3.41545 12.7618 3.42717 12.7688C3.43889 12.7757 3.45263 12.7811 3.46467 12.7875C3.4767 12.7939 3.4861 12.8005 3.49842 12.8063C3.51074 12.8121 3.52333 12.8198 3.53592 12.825C3.5485 12.8303 3.5606 12.8354 3.57342 12.84C3.58623 12.8447 3.60165 12.8472 3.61467 12.8513C3.62769 12.8553 3.63897 12.8625 3.65217 12.8625C3.66536 12.8625 3.68008 12.8738 3.69342 12.8738C3.70676 12.8738 3.72121 12.8813 3.73467 12.8813C3.74813 12.8813 3.75862 12.885 3.77217 12.885C3.78572 12.885 3.79981 12.8888 3.81342 12.8888Z" stroke="rgba(204, 78, 29, 1)" stroke-width="0.2"      fill="#CC4E1D" ></path><path     fill="#034FA1"  d="M11.0475 15.4125C11.0371 15.4028 11.0246 15.3917 11.0137 15.3825C11.0029 15.3733 10.9913 15.3649 10.98 15.3563C10.9687 15.3476 10.9579 15.3381 10.9462 15.33C10.9345 15.3219 10.9208 15.315 10.9087 15.3075C10.8967 15.3 10.8874 15.2919 10.875 15.285C10.8626 15.2781 10.8503 15.2725 10.8375 15.2663C10.8247 15.26 10.8093 15.2531 10.7962 15.2475C10.7832 15.2419 10.772 15.2375 10.7587 15.2325C10.7454 15.2275 10.731 15.2218 10.7175 15.2175C10.704 15.2132 10.69 15.2063 10.6762 15.2063C10.6625 15.2063 10.6489 15.1988 10.635 15.1988C10.6211 15.1988 10.6078 15.1875 10.5937 15.1875C10.5797 15.1875 10.5666 15.1838 10.5525 15.1838C10.5384 15.1838 10.5217 15.18 10.5075 15.18C10.4933 15.18 10.4805 15.1763 10.4662 15.1763C10.452 15.1763 10.4392 15.1763 10.425 15.1763C10.4108 15.1763 10.3942 15.18 10.38 15.18C10.3658 15.18 10.3528 15.1838 10.3387 15.1838C10.3246 15.1838 10.3115 15.1913 10.2975 15.1913C10.2835 15.1913 10.2663 15.1988 10.2525 15.1988C10.2386 15.1988 10.2249 15.2061 10.2112 15.21C10.1976 15.2139 10.1872 15.2205 10.1737 15.225C10.1603 15.2296 10.1457 15.2311 10.1325 15.2363C10.1193 15.2415 10.1042 15.2492 10.0912 15.255C10.0783 15.2608 10.0664 15.2673 10.0537 15.2738C10.0411 15.2802 10.0286 15.2854 10.0162 15.2925C10.0039 15.2996 9.99445 15.3073 9.9825 15.315C9.97052 15.3227 9.95655 15.333 9.945 15.3413C9.93342 15.3495 9.92238 15.355 9.91125 15.3638C9.90009 15.3725 9.88818 15.3844 9.8775 15.3938C9.86679 15.4031 9.85772 15.4102 9.8475 15.42C9.83727 15.4298 9.82723 15.4397 9.8175 15.45C9.24209 16.0621 8.08704 17.0888 6.825 17.0888L3.81375 17.0888C3.80014 17.0888 3.78605 17.0925 3.7725 17.0925C3.75895 17.0925 3.74471 17.1 3.73125 17.1C3.71779 17.1 3.70334 17.1075 3.69 17.1075C3.67666 17.1075 3.6657 17.115 3.6525 17.115C3.6393 17.115 3.62427 17.1222 3.61125 17.1263C3.59823 17.1303 3.58657 17.1366 3.57375 17.1413C3.56094 17.1459 3.54883 17.151 3.53625 17.1563C3.52367 17.1615 3.51107 17.1654 3.49875 17.1713C3.48643 17.1771 3.47328 17.1836 3.46125 17.19C3.44922 17.1964 3.43547 17.2018 3.42375 17.2088C3.41203 17.2157 3.40138 17.2238 3.39 17.2313C3.37862 17.2388 3.36726 17.2457 3.35625 17.2538C3.34524 17.2618 3.33687 17.2715 3.32625 17.28C3.31563 17.2885 3.30271 17.2973 3.2925 17.3063C3.28229 17.3153 3.27227 17.323 3.2625 17.3325C3.25273 17.342 3.24557 17.3526 3.23625 17.3625C3.22693 17.3724 3.21509 17.3821 3.20625 17.3925C3.19741 17.4029 3.18834 17.4155 3.18 17.4263C3.17166 17.437 3.16532 17.4489 3.1575 17.46C3.14968 17.4711 3.14229 17.4823 3.135 17.4938C3.12771 17.5052 3.11924 17.5157 3.1125 17.5275C3.10576 17.5393 3.09993 17.5492 3.09375 17.5613C3.08757 17.5734 3.0806 17.5864 3.075 17.5988C3.0694 17.6112 3.06501 17.6236 3.06 17.6363C3.05499 17.6489 3.04941 17.6609 3.045 17.6738C3.04059 17.6866 3.03754 17.702 3.03375 17.715C3.02996 17.7281 3.0225 17.7393 3.0225 17.7525C3.0225 17.7657 3.015 17.7804 3.015 17.7938C3.015 17.8071 3.0075 17.8215 3.0075 17.835C3.0075 17.8485 3.00375 17.859 3.00375 17.8725C3.00375 17.886 3 17.9002 3 17.9138C3 17.9273 3 17.9414 3 17.955C3 17.9686 3 17.9827 3 17.9963C3 18.0098 3.00375 18.024 3.00375 18.0375C3.00375 18.051 3.0075 18.0653 3.0075 18.0788C3.0075 18.0922 3.015 18.1029 3.015 18.1163C3.015 18.1296 3.0225 18.1443 3.0225 18.1575C3.0225 18.1707 3.02996 18.1857 3.03375 18.1988C3.03754 18.2118 3.04059 18.2234 3.045 18.2363C3.04941 18.2491 3.05499 18.2611 3.06 18.2738C3.06501 18.2864 3.0694 18.2989 3.075 18.3113C3.0806 18.3237 3.08757 18.3367 3.09375 18.3488C3.09993 18.3609 3.10576 18.3744 3.1125 18.3863C3.11924 18.3981 3.12771 18.4085 3.135 18.42C3.14229 18.4315 3.14968 18.4426 3.1575 18.4538C3.16532 18.4649 3.17166 18.4768 3.18 18.4875C3.18834 18.4983 3.19741 18.5072 3.20625 18.5175C3.21509 18.5279 3.22693 18.5376 3.23625 18.5475C3.24557 18.5574 3.25273 18.568 3.2625 18.5775C3.27227 18.587 3.28229 18.5948 3.2925 18.6038C3.30271 18.6128 3.31563 18.6215 3.32625 18.63C3.33687 18.6385 3.34524 18.6482 3.35625 18.6563C3.36726 18.6643 3.37862 18.6713 3.39 18.6788C3.40138 18.6862 3.41203 18.6943 3.42375 18.7013C3.43547 18.7082 3.44922 18.7136 3.46125 18.72C3.47328 18.7264 3.48643 18.7329 3.49875 18.7388C3.51107 18.7446 3.52367 18.7523 3.53625 18.7575C3.54883 18.7627 3.56094 18.7679 3.57375 18.7725C3.58657 18.7771 3.59823 18.7797 3.61125 18.7838C3.62427 18.7878 3.6393 18.795 3.6525 18.795C3.6657 18.795 3.67666 18.8063 3.69 18.8063C3.70334 18.8063 3.71779 18.81 3.73125 18.81C3.74471 18.81 3.75895 18.8175 3.7725 18.8175C3.78605 18.8175 3.80014 18.8213 3.81375 18.8213L6.825 18.8213C8.64696 18.8213 10.1488 17.63 11.085 16.6313C11.0947 16.621 11.102 16.612 11.1112 16.6013C11.1205 16.5905 11.1326 16.5787 11.1412 16.5675C11.1499 16.5563 11.1556 16.5454 11.1637 16.5338C11.1719 16.5221 11.1825 16.512 11.19 16.5C11.1975 16.488 11.2018 16.4749 11.2087 16.4625C11.2157 16.4501 11.2249 16.4377 11.2312 16.425C11.2376 16.4123 11.2443 16.4005 11.25 16.3875C11.2557 16.3745 11.26 16.3595 11.265 16.3463C11.27 16.333 11.2756 16.3185 11.28 16.305C11.2844 16.2915 11.2912 16.2812 11.2912 16.2675C11.2912 16.2538 11.2987 16.2401 11.2987 16.2263C11.2987 16.2124 11.31 16.1952 11.31 16.1813C11.31 16.1673 11.3137 16.1541 11.3137 16.14C11.3137 16.1259 11.3175 16.1129 11.3175 16.0988C11.3175 16.0846 11.3212 16.0717 11.3212 16.0575C11.3212 16.0433 11.3212 16.0267 11.3212 16.0125C11.3212 15.9983 11.3175 15.9854 11.3175 15.9713C11.3175 15.9572 11.3137 15.944 11.3137 15.93C11.3137 15.916 11.3062 15.9027 11.3062 15.8888C11.3062 15.8748 11.2987 15.8576 11.2987 15.8438C11.2987 15.83 11.2914 15.8199 11.2875 15.8063C11.2836 15.7926 11.2771 15.7784 11.2725 15.765C11.2679 15.7516 11.2627 15.7369 11.2575 15.7238C11.2522 15.7106 11.2484 15.6991 11.2425 15.6863C11.2366 15.6734 11.2303 15.6576 11.2237 15.645C11.2172 15.6324 11.2121 15.6235 11.205 15.6113C11.1979 15.599 11.1902 15.5856 11.1825 15.5738C11.1748 15.5619 11.1645 15.5515 11.1562 15.54C11.1479 15.5285 11.1389 15.5173 11.13 15.5063C11.1211 15.4952 11.1131 15.4831 11.1037 15.4725C11.0943 15.4619 11.0837 15.4526 11.0737 15.4425C11.0638 15.4324 11.0541 15.4222 11.0437 15.4125M12.8287 8.60625C12.8396 8.61543 12.8512 8.62387 12.8625 8.6325C12.8738 8.64111 12.8845 8.65069 12.8962 8.65875C12.908 8.66681 12.9216 8.6738 12.9337 8.68125C12.9459 8.68871 12.9587 8.6969 12.9712 8.70375C12.9837 8.7106 12.9959 8.71627 13.0087 8.7225C13.0215 8.72873 13.0331 8.73191 13.0462 8.7375C13.0593 8.74309 13.0741 8.75133 13.0875 8.75625C13.1008 8.7612 13.1114 8.76324 13.125 8.7675C13.1386 8.77177 13.1525 8.7825 13.1662 8.7825C13.18 8.7825 13.1935 8.79 13.2075 8.79C13.2214 8.79 13.2384 8.7975 13.2525 8.7975C13.2666 8.7975 13.2796 8.805 13.2937 8.805C13.3079 8.805 13.3207 8.80875 13.335 8.80875C13.3492 8.80875 13.3657 8.80875 13.38 8.80875C13.3942 8.80875 13.407 8.80875 13.4212 8.80875C13.4355 8.80875 13.452 8.805 13.4662 8.805C13.4804 8.805 13.4934 8.80125 13.5075 8.80125C13.5216 8.80125 13.5347 8.79375 13.5487 8.79375C13.5627 8.79375 13.5761 8.7825 13.59 8.7825C13.6038 8.7825 13.6176 8.77904 13.6312 8.775C13.6449 8.77096 13.659 8.76472 13.6725 8.76C13.6859 8.7553 13.7005 8.75038 13.7137 8.745C13.7269 8.73964 13.7383 8.73227 13.7512 8.72625C13.7642 8.72023 13.7761 8.71415 13.7887 8.7075C13.8013 8.70088 13.814 8.69602 13.8262 8.68875C13.8385 8.68148 13.8519 8.6741 13.8637 8.66625C13.8756 8.65842 13.886 8.64844 13.8975 8.64C13.909 8.63156 13.9202 8.62274 13.9312 8.61375C13.9423 8.60478 13.9544 8.59703 13.965 8.5875C13.9756 8.57799 13.9849 8.56753 13.995 8.5575C14.0051 8.54748 14.0154 8.53802 14.025 8.5275C14.0346 8.51699 14.0459 8.50472 14.055 8.49375C14.8826 7.50274 15.9941 6.93375 17.1075 6.93375L18.0637 6.93375L17.355 7.6425C17.3449 7.65253 17.3345 7.66576 17.325 7.67625C17.3154 7.68675 17.304 7.6953 17.295 7.70625C17.286 7.7172 17.2772 7.72862 17.2687 7.74C17.2603 7.75138 17.2541 7.76197 17.2462 7.77375C17.2383 7.78553 17.2311 7.79909 17.2237 7.81125C17.2164 7.82339 17.2079 7.83625 17.2012 7.84875C17.1945 7.86125 17.1886 7.87343 17.1825 7.88625C17.1764 7.89907 17.1692 7.91067 17.1637 7.92375C17.1583 7.93683 17.1535 7.95166 17.1487 7.965C17.1439 7.97835 17.1416 7.99268 17.1375 8.00625C17.1334 8.01982 17.1262 8.03376 17.1262 8.0475C17.1262 8.06124 17.115 8.07486 17.115 8.08875C17.115 8.10266 17.1075 8.11598 17.1075 8.13C17.1075 8.14403 17.1037 8.15715 17.1037 8.17125C17.1037 8.18535 17.1 8.19834 17.1 8.2125C17.1 8.22664 17.1 8.24332 17.1 8.2575C17.1 8.27168 17.1 8.28461 17.1 8.29875C17.1 8.31291 17.1037 8.3259 17.1037 8.34C17.1037 8.3541 17.1075 8.37099 17.1075 8.385C17.1075 8.39903 17.115 8.41234 17.115 8.42625C17.115 8.44015 17.1262 8.45374 17.1262 8.4675C17.1262 8.48125 17.1334 8.49518 17.1375 8.50875C17.1416 8.52232 17.1439 8.53666 17.1487 8.55C17.1535 8.56335 17.1583 8.5744 17.1637 8.5875C17.1692 8.60058 17.1764 8.61218 17.1825 8.625C17.1886 8.63782 17.1945 8.65376 17.2012 8.66625C17.2079 8.67877 17.2164 8.68785 17.2237 8.7C17.2311 8.71214 17.2383 8.7257 17.2462 8.7375C17.2541 8.74928 17.2603 8.75987 17.2687 8.77125C17.2772 8.78263 17.286 8.79403 17.295 8.805C17.304 8.81595 17.3154 8.82824 17.325 8.83875C17.3345 8.84925 17.3412 8.85873 17.3512 8.86875C17.3613 8.87878 17.3745 8.88924 17.385 8.89875C17.3955 8.90827 17.404 8.91602 17.415 8.925C17.426 8.93401 17.4373 8.94281 17.4487 8.95125C17.4602 8.95969 17.4744 8.96963 17.4862 8.9775C17.4981 8.98537 17.5078 8.99273 17.52 9C17.5322 9.00729 17.5449 9.01207 17.5575 9.01875C17.57 9.02543 17.5821 9.03144 17.595 9.0375C17.6078 9.04356 17.6231 9.05083 17.6362 9.05625C17.6494 9.06167 17.6604 9.06648 17.6737 9.07125C17.6871 9.07603 17.7014 9.08216 17.715 9.08625C17.7286 9.09037 17.7425 9.0975 17.7562 9.0975C17.77 9.0975 17.7836 9.105 17.7975 9.105C17.8114 9.105 17.8247 9.1125 17.8387 9.1125C17.8528 9.1125 17.8696 9.12 17.8837 9.12C17.8979 9.12 17.9108 9.12 17.925 9.12C17.9392 9.12 17.952 9.12375 17.9662 9.12375C17.9804 9.12375 17.997 9.12 18.0112 9.12C18.0254 9.12 18.0383 9.11625 18.0525 9.11625C18.0666 9.11625 18.0797 9.1125 18.0937 9.1125C18.1078 9.1125 18.1248 9.105 18.1387 9.105C18.1527 9.105 18.1662 9.0975 18.18 9.0975C18.1938 9.0975 18.2076 9.09037 18.2212 9.08625C18.2348 9.08214 18.2453 9.07603 18.2587 9.07125C18.2721 9.06648 18.2868 9.06167 18.3 9.05625C18.3131 9.05082 18.3246 9.04356 18.3375 9.0375C18.3503 9.03144 18.3662 9.02545 18.3787 9.01875C18.3913 9.01207 18.4003 9.00729 18.4125 9C18.4247 8.99272 18.4382 8.98537 18.45 8.9775C18.4618 8.96961 18.4723 8.95969 18.4837 8.95125C18.4952 8.94281 18.5065 8.93401 18.5175 8.925C18.5285 8.916 18.5407 8.90827 18.5512 8.89875C18.5618 8.88922 18.5712 8.87878 18.5812 8.86875L20.745 6.7125C20.7517 6.70582 20.7572 6.70064 20.7637 6.69375C20.7702 6.68684 20.7762 6.67837 20.7825 6.67125C20.7887 6.66413 20.7952 6.65606 20.8012 6.64875C20.8073 6.64145 20.8142 6.63375 20.82 6.62625C20.8258 6.61876 20.8332 6.61143 20.8387 6.60375C20.8443 6.59607 20.8485 6.58912 20.8537 6.58125C20.859 6.57338 20.8637 6.56679 20.8687 6.55875C20.8737 6.55073 20.879 6.54069 20.8837 6.5325C20.8885 6.52431 20.8942 6.5146 20.8987 6.50625C20.9032 6.49791 20.9058 6.49223 20.91 6.48375C20.9142 6.47528 20.9173 6.46613 20.9212 6.4575C20.9252 6.44887 20.9325 6.43999 20.9325 6.43125C20.9325 6.42251 20.9437 6.41385 20.9437 6.405C20.9437 6.39615 20.955 6.38772 20.955 6.37875C20.955 6.36978 20.9625 6.36156 20.9625 6.3525C20.9625 6.34346 20.97 6.33164 20.97 6.3225C20.97 6.31335 20.9775 6.30546 20.9775 6.29625C20.9775 6.28704 20.985 6.27927 20.985 6.27C20.985 6.26071 20.9887 6.24935 20.9887 6.24C20.9887 6.23068 20.9925 6.22313 20.9925 6.21375C20.9925 6.20437 20.9962 6.19317 20.9962 6.18375C20.9962 6.17433 21 6.16694 21 6.1575C21 6.14806 21 6.13696 21 6.1275C21 6.11804 21 6.10696 21 6.0975C21 6.08804 21 6.08071 21 6.07125C21 6.06179 20.9962 6.05069 20.9962 6.04125C20.9962 6.03179 20.9962 6.02442 20.9962 6.015C20.9962 6.00558 20.9925 5.99438 20.9925 5.985C20.9925 5.97562 20.9887 5.9681 20.9887 5.95875C20.9887 5.94941 20.9812 5.93802 20.9812 5.92875C20.9812 5.91948 20.9775 5.91171 20.9775 5.9025C20.9775 5.89329 20.97 5.88539 20.97 5.87625C20.9662 5.85445 20.9604 5.83018 20.955 5.80875C20.9496 5.78731 20.9433 5.76597 20.9362 5.745C20.9292 5.72405 20.9224 5.70537 20.9137 5.685C20.9051 5.66463 20.8977 5.64465 20.8875 5.625C20.8773 5.60535 20.8654 5.58382 20.8537 5.565C20.8421 5.5462 20.8293 5.53038 20.8162 5.5125C20.8032 5.49462 20.7894 5.47682 20.775 5.46C20.7606 5.44318 20.7456 5.42692 20.73 5.41125L18.5662 3.255C18.5562 3.24498 18.543 3.23451 18.5325 3.225C18.522 3.21549 18.5135 3.20399 18.5025 3.195C18.4915 3.18601 18.4802 3.17719 18.4687 3.16875C18.4573 3.16031 18.4468 3.15412 18.435 3.14625C18.4232 3.13838 18.4097 3.13103 18.3975 3.12375C18.3853 3.11647 18.3725 3.10793 18.36 3.10125C18.3475 3.09457 18.3353 3.08856 18.3225 3.0825C18.3096 3.07644 18.2981 3.07292 18.285 3.0675C18.2718 3.06208 18.2571 3.05352 18.2437 3.04875C18.2304 3.04398 18.2161 3.04161 18.2025 3.0375C18.1889 3.03339 18.175 3.02625 18.1612 3.02625C18.1475 3.02625 18.1339 3.015 18.12 3.015C18.106 3.015 18.0928 3.0075 18.0787 3.0075C18.0647 3.0075 18.0516 3.00375 18.0375 3.00375C18.0233 3.00375 18.0067 3 17.9925 3C17.9783 3 17.9654 3 17.9512 3C17.937 3 17.9242 3 17.91 3C17.8958 3 17.8791 3.00375 17.865 3.00375C17.8508 3.00375 17.8378 3.0075 17.8237 3.0075C17.8097 3.0075 17.7964 3.015 17.7825 3.015C17.7686 3.015 17.755 3.02625 17.7412 3.02625C17.7275 3.02625 17.7136 3.03339 17.7 3.0375C17.6864 3.04161 17.6721 3.04398 17.6587 3.04875C17.6453 3.05352 17.6306 3.06208 17.6175 3.0675C17.6043 3.07292 17.5928 3.07644 17.58 3.0825C17.5671 3.08856 17.555 3.09457 17.5425 3.10125C17.53 3.10793 17.5172 3.11647 17.505 3.12375C17.4928 3.13103 17.4793 3.13838 17.4675 3.14625C17.4557 3.15412 17.4451 3.16031 17.4337 3.16875C17.4223 3.17719 17.411 3.18601 17.4 3.195C17.389 3.20399 17.3768 3.21549 17.3662 3.225C17.3557 3.23451 17.3463 3.24498 17.3362 3.255C17.3262 3.26502 17.3158 3.2745 17.3062 3.285C17.2967 3.2955 17.289 3.30405 17.28 3.315C17.271 3.32595 17.2622 3.33737 17.2537 3.34875C17.2453 3.36013 17.2354 3.37447 17.2275 3.38625C17.2196 3.39803 17.2123 3.40785 17.205 3.42C17.1977 3.43215 17.1929 3.44501 17.1862 3.4575C17.1795 3.47 17.1698 3.48219 17.1637 3.495C17.1577 3.50781 17.1542 3.52316 17.1487 3.53625C17.1433 3.54934 17.1385 3.56041 17.1337 3.57375C17.1289 3.58709 17.1229 3.60144 17.1187 3.615C17.1146 3.62856 17.1075 3.64251 17.1075 3.65625C17.1075 3.66999 17.1 3.6836 17.1 3.6975C17.1 3.7114 17.0925 3.72474 17.0925 3.73875C17.0925 3.75276 17.085 3.7659 17.085 3.78C17.085 3.7941 17.085 3.81085 17.085 3.825C17.085 3.83915 17.0812 3.85208 17.0812 3.86625C17.0812 3.88042 17.085 3.89335 17.085 3.9075C17.085 3.92165 17.085 3.93465 17.085 3.94875C17.085 3.96285 17.0925 3.97974 17.0925 3.99375C17.0925 4.00776 17.1 4.0211 17.1 4.035C17.1 4.0489 17.1075 4.06251 17.1075 4.07625C17.1075 4.08999 17.1146 4.10394 17.1187 4.1175C17.1229 4.13106 17.1289 4.14541 17.1337 4.15875C17.1385 4.17209 17.1433 4.18316 17.1487 4.19625C17.1542 4.20934 17.1577 4.2247 17.1637 4.2375C17.1698 4.25031 17.1795 4.2625 17.1862 4.275C17.1929 4.2875 17.1977 4.30036 17.205 4.3125C17.2123 4.32466 17.2196 4.33447 17.2275 4.34625C17.2354 4.35803 17.2453 4.36862 17.2537 4.38C17.2622 4.39138 17.271 4.4028 17.28 4.41375C17.289 4.42471 17.2967 4.437 17.3062 4.4475C17.3158 4.458 17.3262 4.46748 17.3362 4.4775L18.0675 5.205L17.1112 5.205C16.2604 5.205 15.4286 5.40903 14.6437 5.81625C13.9209 6.19256 13.2723 6.72252 12.7162 7.3875C12.7072 7.39841 12.6985 7.40991 12.69 7.42125C12.6815 7.4326 12.6754 7.44328 12.6675 7.455C12.6596 7.46674 12.6523 7.47665 12.645 7.48875C12.6376 7.50085 12.6292 7.51379 12.6225 7.52625C12.6158 7.53869 12.6098 7.55099 12.6037 7.56375C12.5976 7.57651 12.5904 7.59196 12.585 7.605C12.5795 7.61805 12.5748 7.62919 12.57 7.6425C12.5652 7.65579 12.5629 7.67024 12.5587 7.68375C12.5546 7.69729 12.5475 7.7113 12.5475 7.725C12.5475 7.73871 12.5362 7.7524 12.5362 7.76625C12.5362 7.78011 12.5287 7.79351 12.5287 7.8075C12.5287 7.82149 12.525 7.83469 12.525 7.84875C12.525 7.86282 12.5212 7.87588 12.5212 7.89C12.5212 7.90412 12.5175 7.92086 12.5175 7.935C12.5175 7.94914 12.5212 7.96213 12.5212 7.97625C12.5212 7.99039 12.5212 8.00342 12.5212 8.0175C12.5212 8.03158 12.5287 8.04849 12.5287 8.0625C12.5287 8.07649 12.5362 8.08986 12.5362 8.10375C12.5362 8.11763 12.5437 8.13126 12.5437 8.145C12.5437 8.15873 12.5509 8.17268 12.555 8.18625C12.559 8.19981 12.5615 8.21041 12.5662 8.22375C12.5709 8.2371 12.5759 8.2519 12.5812 8.265C12.5866 8.2781 12.594 8.28968 12.6 8.3025C12.606 8.31532 12.6121 8.33124 12.6187 8.34375C12.6253 8.35627 12.634 8.36533 12.6412 8.3775C12.6484 8.38968 12.6559 8.40318 12.6637 8.415C12.6715 8.42682 12.6779 8.43733 12.6862 8.44875C12.6946 8.46017 12.7036 8.4715 12.7125 8.4825C12.7214 8.49351 12.7293 8.5057 12.7387 8.51625C12.7482 8.5268 12.7588 8.53619 12.7687 8.54625C12.7787 8.55633 12.7883 8.56666 12.7987 8.57625C12.8092 8.58582 12.8216 8.59344 12.8325 8.6025"></path><path    stroke="rgba(3, 79, 161, 1)" stroke-width="0.2"    d="M11.0475 15.4125C11.0371 15.4028 11.0246 15.3917 11.0137 15.3825C11.0029 15.3733 10.9913 15.3649 10.98 15.3563C10.9687 15.3476 10.9579 15.3381 10.9462 15.33C10.9345 15.3219 10.9208 15.315 10.9087 15.3075C10.8967 15.3 10.8874 15.2919 10.875 15.285C10.8626 15.2781 10.8503 15.2725 10.8375 15.2663C10.8247 15.26 10.8093 15.2531 10.7962 15.2475C10.7832 15.2419 10.772 15.2375 10.7587 15.2325C10.7454 15.2275 10.731 15.2218 10.7175 15.2175C10.704 15.2132 10.69 15.2063 10.6762 15.2063C10.6625 15.2063 10.6489 15.1988 10.635 15.1988C10.6211 15.1988 10.6078 15.1875 10.5937 15.1875C10.5797 15.1875 10.5666 15.1838 10.5525 15.1838C10.5384 15.1838 10.5217 15.18 10.5075 15.18C10.4933 15.18 10.4805 15.1763 10.4662 15.1763C10.452 15.1763 10.4392 15.1763 10.425 15.1763C10.4108 15.1763 10.3942 15.18 10.38 15.18C10.3658 15.18 10.3528 15.1838 10.3387 15.1838C10.3246 15.1838 10.3115 15.1913 10.2975 15.1913C10.2835 15.1913 10.2663 15.1988 10.2525 15.1988C10.2386 15.1988 10.2249 15.2061 10.2112 15.21C10.1976 15.2139 10.1872 15.2205 10.1737 15.225C10.1603 15.2296 10.1457 15.2311 10.1325 15.2363C10.1193 15.2415 10.1042 15.2492 10.0912 15.255C10.0783 15.2608 10.0664 15.2673 10.0537 15.2738C10.0411 15.2802 10.0286 15.2854 10.0162 15.2925C10.0039 15.2996 9.99445 15.3073 9.9825 15.315C9.97052 15.3227 9.95655 15.333 9.945 15.3413C9.93342 15.3495 9.92238 15.355 9.91125 15.3638C9.90009 15.3725 9.88818 15.3844 9.8775 15.3938C9.86679 15.4031 9.85772 15.4102 9.8475 15.42C9.83727 15.4298 9.82723 15.4397 9.8175 15.45C9.24209 16.0621 8.08704 17.0888 6.825 17.0888L3.81375 17.0888C3.80014 17.0888 3.78605 17.0925 3.7725 17.0925C3.75895 17.0925 3.74471 17.1 3.73125 17.1C3.71779 17.1 3.70334 17.1075 3.69 17.1075C3.67666 17.1075 3.6657 17.115 3.6525 17.115C3.6393 17.115 3.62427 17.1222 3.61125 17.1263C3.59823 17.1303 3.58657 17.1366 3.57375 17.1413C3.56094 17.1459 3.54883 17.151 3.53625 17.1563C3.52367 17.1615 3.51107 17.1654 3.49875 17.1713C3.48643 17.1771 3.47328 17.1836 3.46125 17.19C3.44922 17.1964 3.43547 17.2018 3.42375 17.2088C3.41203 17.2157 3.40138 17.2238 3.39 17.2313C3.37862 17.2388 3.36726 17.2457 3.35625 17.2538C3.34524 17.2618 3.33687 17.2715 3.32625 17.28C3.31563 17.2885 3.30271 17.2973 3.2925 17.3063C3.28229 17.3153 3.27227 17.323 3.2625 17.3325C3.25273 17.342 3.24557 17.3526 3.23625 17.3625C3.22693 17.3724 3.21509 17.3821 3.20625 17.3925C3.19741 17.4029 3.18834 17.4155 3.18 17.4263C3.17166 17.437 3.16532 17.4489 3.1575 17.46C3.14968 17.4711 3.14229 17.4823 3.135 17.4938C3.12771 17.5052 3.11924 17.5157 3.1125 17.5275C3.10576 17.5393 3.09993 17.5492 3.09375 17.5613C3.08757 17.5734 3.0806 17.5864 3.075 17.5988C3.0694 17.6112 3.06501 17.6236 3.06 17.6363C3.05499 17.6489 3.04941 17.6609 3.045 17.6738C3.04059 17.6866 3.03754 17.702 3.03375 17.715C3.02996 17.7281 3.0225 17.7393 3.0225 17.7525C3.0225 17.7657 3.015 17.7804 3.015 17.7938C3.015 17.8071 3.0075 17.8215 3.0075 17.835C3.0075 17.8485 3.00375 17.859 3.00375 17.8725C3.00375 17.886 3 17.9002 3 17.9138C3 17.9273 3 17.9414 3 17.955C3 17.9686 3 17.9827 3 17.9963C3 18.0098 3.00375 18.024 3.00375 18.0375C3.00375 18.051 3.0075 18.0653 3.0075 18.0788C3.0075 18.0922 3.015 18.1029 3.015 18.1163C3.015 18.1296 3.0225 18.1443 3.0225 18.1575C3.0225 18.1707 3.02996 18.1857 3.03375 18.1988C3.03754 18.2118 3.04059 18.2234 3.045 18.2363C3.04941 18.2491 3.05499 18.2611 3.06 18.2738C3.06501 18.2864 3.0694 18.2989 3.075 18.3113C3.0806 18.3237 3.08757 18.3367 3.09375 18.3488C3.09993 18.3609 3.10576 18.3744 3.1125 18.3863C3.11924 18.3981 3.12771 18.4085 3.135 18.42C3.14229 18.4315 3.14968 18.4426 3.1575 18.4538C3.16532 18.4649 3.17166 18.4768 3.18 18.4875C3.18834 18.4983 3.19741 18.5072 3.20625 18.5175C3.21509 18.5279 3.22693 18.5376 3.23625 18.5475C3.24557 18.5574 3.25273 18.568 3.2625 18.5775C3.27227 18.587 3.28229 18.5948 3.2925 18.6038C3.30271 18.6128 3.31563 18.6215 3.32625 18.63C3.33687 18.6385 3.34524 18.6482 3.35625 18.6563C3.36726 18.6643 3.37862 18.6713 3.39 18.6788C3.40138 18.6862 3.41203 18.6943 3.42375 18.7013C3.43547 18.7082 3.44922 18.7136 3.46125 18.72C3.47328 18.7264 3.48643 18.7329 3.49875 18.7388C3.51107 18.7446 3.52367 18.7523 3.53625 18.7575C3.54883 18.7627 3.56094 18.7679 3.57375 18.7725C3.58657 18.7771 3.59823 18.7797 3.61125 18.7838C3.62427 18.7878 3.6393 18.795 3.6525 18.795C3.6657 18.795 3.67666 18.8063 3.69 18.8063C3.70334 18.8063 3.71779 18.81 3.73125 18.81C3.74471 18.81 3.75895 18.8175 3.7725 18.8175C3.78605 18.8175 3.80014 18.8213 3.81375 18.8213L6.825 18.8213C8.64696 18.8213 10.1488 17.63 11.085 16.6313C11.0947 16.621 11.102 16.612 11.1112 16.6013C11.1205 16.5905 11.1326 16.5787 11.1412 16.5675C11.1499 16.5563 11.1556 16.5454 11.1637 16.5338C11.1719 16.5221 11.1825 16.512 11.19 16.5C11.1975 16.488 11.2018 16.4749 11.2087 16.4625C11.2157 16.4501 11.2249 16.4377 11.2312 16.425C11.2376 16.4123 11.2443 16.4005 11.25 16.3875C11.2557 16.3745 11.26 16.3595 11.265 16.3463C11.27 16.333 11.2756 16.3185 11.28 16.305C11.2844 16.2915 11.2912 16.2812 11.2912 16.2675C11.2912 16.2538 11.2987 16.2401 11.2987 16.2263C11.2987 16.2124 11.31 16.1952 11.31 16.1813C11.31 16.1673 11.3137 16.1541 11.3137 16.14C11.3137 16.1259 11.3175 16.1129 11.3175 16.0988C11.3175 16.0846 11.3212 16.0717 11.3212 16.0575C11.3212 16.0433 11.3212 16.0267 11.3212 16.0125C11.3212 15.9983 11.3175 15.9854 11.3175 15.9713C11.3175 15.9572 11.3137 15.944 11.3137 15.93C11.3137 15.916 11.3062 15.9027 11.3062 15.8888C11.3062 15.8748 11.2987 15.8576 11.2987 15.8438C11.2987 15.83 11.2914 15.8199 11.2875 15.8063C11.2836 15.7926 11.2771 15.7784 11.2725 15.765C11.2679 15.7516 11.2627 15.7369 11.2575 15.7238C11.2522 15.7106 11.2484 15.6991 11.2425 15.6863C11.2366 15.6734 11.2303 15.6576 11.2237 15.645C11.2172 15.6324 11.2121 15.6235 11.205 15.6113C11.1979 15.599 11.1902 15.5856 11.1825 15.5738C11.1748 15.5619 11.1645 15.5515 11.1562 15.54C11.1479 15.5285 11.1389 15.5173 11.13 15.5063C11.1211 15.4952 11.1131 15.4831 11.1037 15.4725C11.0943 15.4619 11.0837 15.4526 11.0737 15.4425C11.0638 15.4324 11.0541 15.4222 11.0437 15.4125M12.8287 8.60625C12.8396 8.61543 12.8512 8.62387 12.8625 8.6325C12.8738 8.64111 12.8845 8.65069 12.8962 8.65875C12.908 8.66681 12.9216 8.6738 12.9337 8.68125C12.9459 8.68871 12.9587 8.6969 12.9712 8.70375C12.9837 8.7106 12.9959 8.71627 13.0087 8.7225C13.0215 8.72873 13.0331 8.73191 13.0462 8.7375C13.0593 8.74309 13.0741 8.75133 13.0875 8.75625C13.1008 8.7612 13.1114 8.76324 13.125 8.7675C13.1386 8.77177 13.1525 8.7825 13.1662 8.7825C13.18 8.7825 13.1935 8.79 13.2075 8.79C13.2214 8.79 13.2384 8.7975 13.2525 8.7975C13.2666 8.7975 13.2796 8.805 13.2937 8.805C13.3079 8.805 13.3207 8.80875 13.335 8.80875C13.3492 8.80875 13.3657 8.80875 13.38 8.80875C13.3942 8.80875 13.407 8.80875 13.4212 8.80875C13.4355 8.80875 13.452 8.805 13.4662 8.805C13.4804 8.805 13.4934 8.80125 13.5075 8.80125C13.5216 8.80125 13.5347 8.79375 13.5487 8.79375C13.5627 8.79375 13.5761 8.7825 13.59 8.7825C13.6038 8.7825 13.6176 8.77904 13.6312 8.775C13.6449 8.77096 13.659 8.76472 13.6725 8.76C13.6859 8.7553 13.7005 8.75038 13.7137 8.745C13.7269 8.73964 13.7383 8.73227 13.7512 8.72625C13.7642 8.72023 13.7761 8.71415 13.7887 8.7075C13.8013 8.70088 13.814 8.69602 13.8262 8.68875C13.8385 8.68148 13.8519 8.6741 13.8637 8.66625C13.8756 8.65842 13.886 8.64844 13.8975 8.64C13.909 8.63156 13.9202 8.62274 13.9312 8.61375C13.9423 8.60478 13.9544 8.59703 13.965 8.5875C13.9756 8.57799 13.9849 8.56753 13.995 8.5575C14.0051 8.54748 14.0154 8.53802 14.025 8.5275C14.0346 8.51699 14.0459 8.50472 14.055 8.49375C14.8826 7.50274 15.9941 6.93375 17.1075 6.93375L18.0637 6.93375L17.355 7.6425C17.3449 7.65253 17.3345 7.66576 17.325 7.67625C17.3154 7.68675 17.304 7.6953 17.295 7.70625C17.286 7.7172 17.2772 7.72862 17.2687 7.74C17.2603 7.75138 17.2541 7.76197 17.2462 7.77375C17.2383 7.78553 17.2311 7.79909 17.2237 7.81125C17.2164 7.82339 17.2079 7.83625 17.2012 7.84875C17.1945 7.86125 17.1886 7.87343 17.1825 7.88625C17.1764 7.89907 17.1692 7.91067 17.1637 7.92375C17.1583 7.93683 17.1535 7.95166 17.1487 7.965C17.1439 7.97835 17.1416 7.99268 17.1375 8.00625C17.1334 8.01982 17.1262 8.03376 17.1262 8.0475C17.1262 8.06124 17.115 8.07486 17.115 8.08875C17.115 8.10266 17.1075 8.11598 17.1075 8.13C17.1075 8.14403 17.1037 8.15715 17.1037 8.17125C17.1037 8.18535 17.1 8.19834 17.1 8.2125C17.1 8.22664 17.1 8.24332 17.1 8.2575C17.1 8.27168 17.1 8.28461 17.1 8.29875C17.1 8.31291 17.1037 8.3259 17.1037 8.34C17.1037 8.3541 17.1075 8.37099 17.1075 8.385C17.1075 8.39903 17.115 8.41234 17.115 8.42625C17.115 8.44015 17.1262 8.45374 17.1262 8.4675C17.1262 8.48125 17.1334 8.49518 17.1375 8.50875C17.1416 8.52232 17.1439 8.53666 17.1487 8.55C17.1535 8.56335 17.1583 8.5744 17.1637 8.5875C17.1692 8.60058 17.1764 8.61218 17.1825 8.625C17.1886 8.63782 17.1945 8.65376 17.2012 8.66625C17.2079 8.67877 17.2164 8.68785 17.2237 8.7C17.2311 8.71214 17.2383 8.7257 17.2462 8.7375C17.2541 8.74928 17.2603 8.75987 17.2687 8.77125C17.2772 8.78263 17.286 8.79403 17.295 8.805C17.304 8.81595 17.3154 8.82824 17.325 8.83875C17.3345 8.84925 17.3412 8.85873 17.3512 8.86875C17.3613 8.87878 17.3745 8.88924 17.385 8.89875C17.3955 8.90827 17.404 8.91602 17.415 8.925C17.426 8.93401 17.4373 8.94281 17.4487 8.95125C17.4602 8.95969 17.4744 8.96963 17.4862 8.9775C17.4981 8.98537 17.5078 8.99273 17.52 9C17.5322 9.00729 17.5449 9.01207 17.5575 9.01875C17.57 9.02543 17.5821 9.03144 17.595 9.0375C17.6078 9.04356 17.6231 9.05083 17.6362 9.05625C17.6494 9.06167 17.6604 9.06648 17.6737 9.07125C17.6871 9.07603 17.7014 9.08216 17.715 9.08625C17.7286 9.09037 17.7425 9.0975 17.7562 9.0975C17.77 9.0975 17.7836 9.105 17.7975 9.105C17.8114 9.105 17.8247 9.1125 17.8387 9.1125C17.8528 9.1125 17.8696 9.12 17.8837 9.12C17.8979 9.12 17.9108 9.12 17.925 9.12C17.9392 9.12 17.952 9.12375 17.9662 9.12375C17.9804 9.12375 17.997 9.12 18.0112 9.12C18.0254 9.12 18.0383 9.11625 18.0525 9.11625C18.0666 9.11625 18.0797 9.1125 18.0937 9.1125C18.1078 9.1125 18.1248 9.105 18.1387 9.105C18.1527 9.105 18.1662 9.0975 18.18 9.0975C18.1938 9.0975 18.2076 9.09037 18.2212 9.08625C18.2348 9.08214 18.2453 9.07603 18.2587 9.07125C18.2721 9.06648 18.2868 9.06167 18.3 9.05625C18.3131 9.05082 18.3246 9.04356 18.3375 9.0375C18.3503 9.03144 18.3662 9.02545 18.3787 9.01875C18.3913 9.01207 18.4003 9.00729 18.4125 9C18.4247 8.99272 18.4382 8.98537 18.45 8.9775C18.4618 8.96961 18.4723 8.95969 18.4837 8.95125C18.4952 8.94281 18.5065 8.93401 18.5175 8.925C18.5285 8.916 18.5407 8.90827 18.5512 8.89875C18.5618 8.88922 18.5712 8.87878 18.5812 8.86875L20.745 6.7125C20.7517 6.70582 20.7572 6.70064 20.7637 6.69375C20.7702 6.68684 20.7762 6.67837 20.7825 6.67125C20.7887 6.66413 20.7952 6.65606 20.8012 6.64875C20.8073 6.64145 20.8142 6.63375 20.82 6.62625C20.8258 6.61876 20.8332 6.61143 20.8387 6.60375C20.8443 6.59607 20.8485 6.58912 20.8537 6.58125C20.859 6.57338 20.8637 6.56679 20.8687 6.55875C20.8737 6.55073 20.879 6.54069 20.8837 6.5325C20.8885 6.52431 20.8942 6.5146 20.8987 6.50625C20.9032 6.49791 20.9058 6.49223 20.91 6.48375C20.9142 6.47528 20.9173 6.46613 20.9212 6.4575C20.9252 6.44887 20.9325 6.43999 20.9325 6.43125C20.9325 6.42251 20.9437 6.41385 20.9437 6.405C20.9437 6.39615 20.955 6.38772 20.955 6.37875C20.955 6.36978 20.9625 6.36156 20.9625 6.3525C20.9625 6.34346 20.97 6.33164 20.97 6.3225C20.97 6.31335 20.9775 6.30546 20.9775 6.29625C20.9775 6.28704 20.985 6.27927 20.985 6.27C20.985 6.26071 20.9887 6.24935 20.9887 6.24C20.9887 6.23068 20.9925 6.22313 20.9925 6.21375C20.9925 6.20437 20.9962 6.19317 20.9962 6.18375C20.9962 6.17433 21 6.16694 21 6.1575C21 6.14806 21 6.13696 21 6.1275C21 6.11804 21 6.10696 21 6.0975C21 6.08804 21 6.08071 21 6.07125C21 6.06179 20.9962 6.05069 20.9962 6.04125C20.9962 6.03179 20.9962 6.02442 20.9962 6.015C20.9962 6.00558 20.9925 5.99438 20.9925 5.985C20.9925 5.97562 20.9887 5.9681 20.9887 5.95875C20.9887 5.94941 20.9812 5.93802 20.9812 5.92875C20.9812 5.91948 20.9775 5.91171 20.9775 5.9025C20.9775 5.89329 20.97 5.88539 20.97 5.87625C20.9662 5.85445 20.9604 5.83018 20.955 5.80875C20.9496 5.78731 20.9433 5.76597 20.9362 5.745C20.9292 5.72405 20.9224 5.70537 20.9137 5.685C20.9051 5.66463 20.8977 5.64465 20.8875 5.625C20.8773 5.60535 20.8654 5.58382 20.8537 5.565C20.8421 5.5462 20.8293 5.53038 20.8162 5.5125C20.8032 5.49462 20.7894 5.47682 20.775 5.46C20.7606 5.44318 20.7456 5.42692 20.73 5.41125L18.5662 3.255C18.5562 3.24498 18.543 3.23451 18.5325 3.225C18.522 3.21549 18.5135 3.20399 18.5025 3.195C18.4915 3.18601 18.4802 3.17719 18.4687 3.16875C18.4573 3.16031 18.4468 3.15412 18.435 3.14625C18.4232 3.13838 18.4097 3.13103 18.3975 3.12375C18.3853 3.11647 18.3725 3.10793 18.36 3.10125C18.3475 3.09457 18.3353 3.08856 18.3225 3.0825C18.3096 3.07644 18.2981 3.07292 18.285 3.0675C18.2718 3.06208 18.2571 3.05352 18.2437 3.04875C18.2304 3.04398 18.2161 3.04161 18.2025 3.0375C18.1889 3.03339 18.175 3.02625 18.1612 3.02625C18.1475 3.02625 18.1339 3.015 18.12 3.015C18.106 3.015 18.0928 3.0075 18.0787 3.0075C18.0647 3.0075 18.0516 3.00375 18.0375 3.00375C18.0233 3.00375 18.0067 3 17.9925 3C17.9783 3 17.9654 3 17.9512 3C17.937 3 17.9242 3 17.91 3C17.8958 3 17.8791 3.00375 17.865 3.00375C17.8508 3.00375 17.8378 3.0075 17.8237 3.0075C17.8097 3.0075 17.7964 3.015 17.7825 3.015C17.7686 3.015 17.755 3.02625 17.7412 3.02625C17.7275 3.02625 17.7136 3.03339 17.7 3.0375C17.6864 3.04161 17.6721 3.04398 17.6587 3.04875C17.6453 3.05352 17.6306 3.06208 17.6175 3.0675C17.6043 3.07292 17.5928 3.07644 17.58 3.0825C17.5671 3.08856 17.555 3.09457 17.5425 3.10125C17.53 3.10793 17.5172 3.11647 17.505 3.12375C17.4928 3.13103 17.4793 3.13838 17.4675 3.14625C17.4557 3.15412 17.4451 3.16031 17.4337 3.16875C17.4223 3.17719 17.411 3.18601 17.4 3.195C17.389 3.20399 17.3768 3.21549 17.3662 3.225C17.3557 3.23451 17.3463 3.24498 17.3362 3.255C17.3262 3.26502 17.3158 3.2745 17.3062 3.285C17.2967 3.2955 17.289 3.30405 17.28 3.315C17.271 3.32595 17.2622 3.33737 17.2537 3.34875C17.2453 3.36013 17.2354 3.37447 17.2275 3.38625C17.2196 3.39803 17.2123 3.40785 17.205 3.42C17.1977 3.43215 17.1929 3.44501 17.1862 3.4575C17.1795 3.47 17.1698 3.48219 17.1637 3.495C17.1577 3.50781 17.1542 3.52316 17.1487 3.53625C17.1433 3.54934 17.1385 3.56041 17.1337 3.57375C17.1289 3.58709 17.1229 3.60144 17.1187 3.615C17.1146 3.62856 17.1075 3.64251 17.1075 3.65625C17.1075 3.66999 17.1 3.6836 17.1 3.6975C17.1 3.7114 17.0925 3.72474 17.0925 3.73875C17.0925 3.75276 17.085 3.7659 17.085 3.78C17.085 3.7941 17.085 3.81085 17.085 3.825C17.085 3.83915 17.0812 3.85208 17.0812 3.86625C17.0812 3.88042 17.085 3.89335 17.085 3.9075C17.085 3.92165 17.085 3.93465 17.085 3.94875C17.085 3.96285 17.0925 3.97974 17.0925 3.99375C17.0925 4.00776 17.1 4.0211 17.1 4.035C17.1 4.0489 17.1075 4.06251 17.1075 4.07625C17.1075 4.08999 17.1146 4.10394 17.1187 4.1175C17.1229 4.13106 17.1289 4.14541 17.1337 4.15875C17.1385 4.17209 17.1433 4.18316 17.1487 4.19625C17.1542 4.20934 17.1577 4.2247 17.1637 4.2375C17.1698 4.25031 17.1795 4.2625 17.1862 4.275C17.1929 4.2875 17.1977 4.30036 17.205 4.3125C17.2123 4.32466 17.2196 4.33447 17.2275 4.34625C17.2354 4.35803 17.2453 4.36862 17.2537 4.38C17.2622 4.39138 17.271 4.4028 17.28 4.41375C17.289 4.42471 17.2967 4.437 17.3062 4.4475C17.3158 4.458 17.3262 4.46748 17.3362 4.4775L18.0675 5.205L17.1112 5.205C16.2604 5.205 15.4286 5.40903 14.6437 5.81625C13.9209 6.19256 13.2723 6.72252 12.7162 7.3875C12.7072 7.39841 12.6985 7.40991 12.69 7.42125C12.6815 7.4326 12.6754 7.44328 12.6675 7.455C12.6596 7.46674 12.6523 7.47665 12.645 7.48875C12.6376 7.50085 12.6292 7.51379 12.6225 7.52625C12.6158 7.53869 12.6098 7.55099 12.6037 7.56375C12.5976 7.57651 12.5904 7.59196 12.585 7.605C12.5795 7.61805 12.5748 7.62919 12.57 7.6425C12.5652 7.65579 12.5629 7.67024 12.5587 7.68375C12.5546 7.69729 12.5475 7.7113 12.5475 7.725C12.5475 7.73871 12.5362 7.7524 12.5362 7.76625C12.5362 7.78011 12.5287 7.79351 12.5287 7.8075C12.5287 7.82149 12.525 7.83469 12.525 7.84875C12.525 7.86282 12.5212 7.87588 12.5212 7.89C12.5212 7.90412 12.5175 7.92086 12.5175 7.935C12.5175 7.94914 12.5212 7.96213 12.5212 7.97625C12.5212 7.99039 12.5212 8.00342 12.5212 8.0175C12.5212 8.03158 12.5287 8.04849 12.5287 8.0625C12.5287 8.07649 12.5362 8.08986 12.5362 8.10375C12.5362 8.11763 12.5437 8.13126 12.5437 8.145C12.5437 8.15873 12.5509 8.17268 12.555 8.18625C12.559 8.19981 12.5615 8.21041 12.5662 8.22375C12.5709 8.2371 12.5759 8.2519 12.5812 8.265C12.5866 8.2781 12.594 8.28968 12.6 8.3025C12.606 8.31532 12.6121 8.33124 12.6187 8.34375C12.6253 8.35627 12.634 8.36533 12.6412 8.3775C12.6484 8.38968 12.6559 8.40318 12.6637 8.415C12.6715 8.42682 12.6779 8.43733 12.6862 8.44875C12.6946 8.46017 12.7036 8.4715 12.7125 8.4825C12.7214 8.49351 12.7293 8.5057 12.7387 8.51625C12.7482 8.5268 12.7588 8.53619 12.7687 8.54625C12.7787 8.55633 12.7883 8.56666 12.7987 8.57625C12.8092 8.58582 12.8216 8.59344 12.8325 8.6025"></path><path     fill="#034FA1"  d="M20.7283 17.2862L18.5663 15.129C18.5562 15.1189 18.5459 15.1092 18.5354 15.0997C18.5249 15.0901 18.5141 15.0809 18.5031 15.0719C18.4921 15.0629 18.4809 15.0542 18.4695 15.0458C18.4581 15.0373 18.4465 15.0292 18.4346 15.0213C18.4228 15.0134 18.4108 15.0058 18.3986 14.9986C18.3864 14.9913 18.3741 14.9843 18.3615 14.9776C18.349 14.9709 18.3363 14.9646 18.3235 14.9585C18.3106 14.9524 18.2976 14.9467 18.2845 14.9413C18.2713 14.9359 18.2581 14.9308 18.2447 14.926C18.2313 14.9212 18.2178 14.9168 18.2042 14.9127C18.1906 14.9086 18.1769 14.9048 18.1631 14.9013C18.1493 14.8979 18.1355 14.8948 18.1215 14.892C18.1076 14.8893 18.0936 14.8868 18.0795 14.8848C18.0654 14.8827 18.0514 14.881 18.0372 14.8796C18.0231 14.8782 18.0089 14.8771 17.9947 14.8764C17.9805 14.8757 17.9663 14.8754 17.9521 14.8754C17.9378 14.8754 17.9236 14.8757 17.9094 14.8764C17.8952 14.8771 17.8811 14.8782 17.8669 14.8796C17.8528 14.881 17.8387 14.8827 17.8246 14.8848C17.8105 14.8868 17.7966 14.8893 17.7826 14.892C17.7687 14.8948 17.7548 14.8979 17.741 14.9013C17.7272 14.9048 17.7135 14.9086 17.6999 14.9127C17.6863 14.9168 17.6728 14.9212 17.6594 14.926C17.646 14.9308 17.6328 14.9359 17.6197 14.9413C17.6065 14.9467 17.5935 14.9524 17.5807 14.9585C17.5678 14.9646 17.5551 14.9709 17.5426 14.9776C17.5301 14.9843 17.5177 14.9913 17.5055 14.9986C17.4933 15.0058 17.4813 15.0134 17.4695 15.0213C17.4576 15.0292 17.446 15.0373 17.4346 15.0458C17.4232 15.0542 17.412 15.0629 17.401 15.0719C17.39 15.0809 17.3793 15.0901 17.3687 15.0997C17.3582 15.1092 17.3479 15.1189 17.3378 15.129C17.3278 15.139 17.318 15.1492 17.3084 15.1597C17.2989 15.1702 17.2896 15.1809 17.2806 15.1919C17.2716 15.2029 17.2628 15.214 17.2544 15.2254C17.2459 15.2368 17.2377 15.2484 17.2298 15.2601C17.2219 15.2719 17.2143 15.2839 17.207 15.296C17.1997 15.3082 17.1927 15.3205 17.186 15.333C17.1793 15.3455 17.1729 15.3581 17.1668 15.371C17.1608 15.3838 17.155 15.3967 17.1495 15.4098C17.1441 15.4229 17.139 15.4361 17.1342 15.4495C17.1294 15.4628 17.125 15.4762 17.1208 15.4898C17.1167 15.5033 17.1129 15.517 17.1095 15.5307C17.106 15.5445 17.1029 15.5583 17.1001 15.5722C17.0973 15.5861 17.0949 15.6 17.0928 15.6141C17.0907 15.6281 17.089 15.6421 17.0876 15.6562C17.0862 15.6703 17.0852 15.6845 17.0845 15.6986C17.0838 15.7128 17.0834 15.7269 17.0834 15.7411C17.0834 15.7552 17.0838 15.7694 17.0845 15.7836C17.0852 15.7977 17.0862 15.8118 17.0876 15.8259C17.089 15.84 17.0907 15.8541 17.0928 15.8681C17.0949 15.8821 17.0973 15.8961 17.1001 15.91C17.1029 15.9239 17.106 15.9377 17.1095 15.9514C17.1129 15.9652 17.1167 15.9788 17.1208 15.9924C17.125 16.0059 17.1294 16.0194 17.1342 16.0327C17.139 16.0461 17.1441 16.0593 17.1495 16.0724C17.155 16.0855 17.1608 16.0984 17.1668 16.1112C17.1729 16.124 17.1793 16.1367 17.186 16.1492C17.1927 16.1617 17.1997 16.174 17.207 16.1861C17.2143 16.1983 17.2219 16.2103 17.2298 16.222C17.2377 16.2338 17.2459 16.2454 17.2544 16.2568C17.2628 16.2682 17.2716 16.2793 17.2806 16.2903C17.2896 16.3012 17.2989 16.3119 17.3084 16.3224C17.318 16.3329 17.3278 16.3432 17.3378 16.3532L18.0801 17.0916L17.1103 17.0916C14.6702 17.0916 12.847 14.5632 12.847 12.3002L12.847 11.7049C12.847 10.1146 12.2185 8.49213 11.122 7.25238C11.0557 7.17646 10.9876 7.10217 10.9176 7.02952C10.8477 6.95687 10.7761 6.88595 10.7027 6.81675C10.6294 6.74756 10.5544 6.68016 10.4778 6.61457C10.4011 6.54897 10.323 6.48527 10.2433 6.42345C10.1636 6.36162 10.0824 6.30175 9.99976 6.24383C9.91716 6.18592 9.83319 6.13003 9.74786 6.07616C9.66252 6.02229 9.57596 5.97049 9.48813 5.92078C9.4003 5.87108 9.31129 5.82353 9.22115 5.77811C9.17493 5.75482 9.12837 5.73221 9.08149 5.71028C9.03461 5.68834 8.98741 5.6671 8.9399 5.64655C8.89239 5.62599 8.84459 5.60612 8.79649 5.58695C8.7484 5.5678 8.70004 5.54934 8.65142 5.53158C8.60278 5.51383 8.55389 5.49679 8.50475 5.48046C8.45562 5.46413 8.40626 5.44852 8.35667 5.43363C8.30708 5.41874 8.25728 5.40458 8.20727 5.39114C8.15727 5.3777 8.10707 5.36498 8.05669 5.353C8.0063 5.34102 7.95577 5.32978 7.90506 5.31929C7.85435 5.30878 7.80349 5.29901 7.7525 5.28999C7.70149 5.28098 7.65037 5.27271 7.59913 5.26517C7.54789 5.25764 7.49656 5.25086 7.44512 5.24482C7.39369 5.23879 7.34217 5.2335 7.29057 5.22896C7.23898 5.22443 7.18732 5.22065 7.13563 5.21761C7.08392 5.21459 7.03219 5.21232 6.98042 5.2108C6.92865 5.20928 6.87687 5.20851 6.82506 5.2085L3.81218 5.2085C3.79857 5.2094 3.785 5.21063 3.77145 5.21218C3.7579 5.21371 3.74439 5.21557 3.73093 5.21775C3.71747 5.21992 3.70407 5.22241 3.69073 5.22522C3.67738 5.22803 3.66412 5.23114 3.65092 5.23457C3.63772 5.23799 3.62461 5.24172 3.61159 5.24576C3.59857 5.2498 3.58566 5.25414 3.57284 5.25879C3.56002 5.26343 3.54733 5.26837 3.53474 5.2736C3.52216 5.27885 3.50971 5.28438 3.49739 5.2902C3.48507 5.29602 3.47289 5.30213 3.46085 5.30853C3.44882 5.31492 3.43695 5.32159 3.42523 5.32854C3.41351 5.3355 3.40196 5.34272 3.39058 5.35021C3.3792 5.3577 3.36801 5.36545 3.357 5.37347C3.34598 5.38148 3.33517 5.38975 3.32454 5.39827C3.31392 5.40679 3.3035 5.41556 3.2933 5.42457C3.28309 5.43358 3.2731 5.44282 3.26332 5.4523C3.25355 5.46178 3.24401 5.47148 3.23469 5.48141C3.22538 5.49134 3.2163 5.50148 3.20746 5.51182C3.19863 5.52216 3.19004 5.53272 3.1817 5.54348C3.17336 5.55422 3.16528 5.56517 3.15745 5.57631C3.14963 5.58743 3.14208 5.59874 3.13479 5.61023C3.1275 5.62172 3.12048 5.63337 3.11374 5.64517C3.107 5.65699 3.10054 5.66896 3.09437 5.68108C3.08819 5.6932 3.0823 5.70545 3.0767 5.71783C3.07111 5.73023 3.0658 5.74274 3.0608 5.75538C3.05579 5.76803 3.05108 5.78078 3.04668 5.79364C3.04227 5.8065 3.03817 5.81946 3.03438 5.83251C3.03058 5.84556 3.0271 5.8587 3.02392 5.87193C3.02075 5.88514 3.01788 5.89843 3.01534 5.91178C3.01279 5.92512 3.01055 5.93852 3.00864 5.95199C3.00672 5.96544 3.00512 5.97893 3.00384 5.99246C3.00256 6.00599 3.0016 6.01954 3.00096 6.03312C3.00032 6.04669 3 6.06027 3 6.07386C3 6.08745 3.00032 6.10104 3.00096 6.11462C3.0016 6.1282 3.00256 6.14175 3.00384 6.15528C3.00512 6.16881 3.00672 6.1823 3.00864 6.19575C3.01055 6.20921 3.01279 6.22261 3.01534 6.23596C3.01788 6.24931 3.02075 6.2626 3.02392 6.27581C3.0271 6.28903 3.03058 6.30216 3.03438 6.31521C3.03817 6.32827 3.04227 6.34124 3.04668 6.3541C3.05108 6.36696 3.05579 6.37971 3.0608 6.39234C3.0658 6.40499 3.07111 6.41751 3.0767 6.42989C3.0823 6.44229 3.08819 6.45454 3.09437 6.46666C3.10054 6.47878 3.107 6.49075 3.11374 6.50255C3.12048 6.51437 3.1275 6.52602 3.13479 6.53751C3.14208 6.54899 3.14963 6.5603 3.15745 6.57143C3.16528 6.58256 3.17336 6.5935 3.1817 6.60426C3.19004 6.61501 3.19863 6.62556 3.20746 6.63592C3.2163 6.64626 3.22538 6.6564 3.23469 6.66633C3.24401 6.67625 3.25355 6.68594 3.26332 6.69542C3.2731 6.70491 3.28309 6.71416 3.2933 6.72317C3.3035 6.73217 3.31392 6.74093 3.32454 6.74947C3.33517 6.75799 3.34598 6.76626 3.357 6.77427C3.36801 6.78229 3.3792 6.79004 3.39058 6.79753C3.40196 6.80502 3.41351 6.81224 3.42523 6.81918C3.43695 6.82613 3.44882 6.8328 3.46085 6.83919C3.47289 6.84559 3.48507 6.8517 3.49739 6.85752C3.50971 6.86335 3.52216 6.86888 3.53474 6.87412C3.54733 6.87935 3.56002 6.8843 3.57284 6.88895C3.58566 6.8936 3.59857 6.89794 3.61159 6.90198C3.62461 6.90602 3.63772 6.90975 3.65092 6.91317C3.66412 6.9166 3.67738 6.91971 3.69073 6.92252C3.70407 6.92531 3.71747 6.9278 3.73093 6.92997C3.74439 6.93215 3.7579 6.93401 3.77145 6.93556C3.785 6.9371 3.79857 6.93832 3.81218 6.93922L6.82506 6.93922C9.06469 6.93922 11.1065 9.21251 11.1065 11.7062L11.1065 12.3015C11.1065 13.8918 11.731 15.5181 12.8198 16.763C13.3707 17.3932 14.0094 17.8919 14.7142 18.2463C15.4771 18.6291 16.2814 18.8237 17.1077 18.8237L18.0529 18.8237L17.3521 19.5221C17.342 19.5322 17.3322 19.5424 17.3227 19.5529C17.3131 19.5634 17.3038 19.5741 17.2948 19.5851C17.2858 19.5961 17.2771 19.6072 17.2686 19.6186C17.2601 19.63 17.2519 19.6415 17.244 19.6533C17.2361 19.6651 17.2285 19.6771 17.2212 19.6892C17.2139 19.7014 17.2069 19.7137 17.2002 19.7262C17.1935 19.7387 17.1871 19.7513 17.1811 19.7642C17.175 19.777 17.1692 19.7899 17.1638 19.803C17.1583 19.8161 17.1532 19.8293 17.1484 19.8426C17.1436 19.856 17.1392 19.8694 17.1351 19.883C17.1309 19.8965 17.1272 19.9102 17.1237 19.9239C17.1202 19.9377 17.1171 19.9515 17.1143 19.9654C17.1116 19.9793 17.1091 19.9932 17.1071 20.0073C17.105 20.0213 17.1032 20.0353 17.1018 20.0494C17.1004 20.0635 17.0994 20.0777 17.0987 20.0918C17.098 20.1059 17.0977 20.1201 17.0977 20.1343C17.0977 20.1485 17.098 20.1626 17.0987 20.1768C17.0994 20.1909 17.1004 20.205 17.1018 20.2191C17.1032 20.2332 17.105 20.2473 17.1071 20.2613C17.1091 20.2753 17.1116 20.2893 17.1143 20.3032C17.1171 20.3171 17.1202 20.3309 17.1237 20.3446C17.1272 20.3584 17.1309 20.372 17.1351 20.3856C17.1392 20.3991 17.1436 20.4126 17.1484 20.4259C17.1532 20.4393 17.1583 20.4525 17.1638 20.4656C17.1692 20.4786 17.175 20.4916 17.1811 20.5044C17.1871 20.5172 17.1935 20.5299 17.2002 20.5424C17.2069 20.5549 17.2139 20.5672 17.2212 20.5793C17.2285 20.5915 17.2361 20.6034 17.244 20.6152C17.2519 20.627 17.2601 20.6386 17.2686 20.65C17.2771 20.6614 17.2858 20.6725 17.2948 20.6835C17.3038 20.6944 17.3131 20.7051 17.3227 20.7156C17.3322 20.7261 17.342 20.7364 17.3521 20.7464C17.3621 20.7564 17.3724 20.7662 17.3829 20.7757C17.3935 20.7852 17.4042 20.7945 17.4152 20.8035C17.4262 20.8125 17.4374 20.8212 17.4488 20.8296C17.4603 20.8381 17.4719 20.8462 17.4837 20.8541C17.4955 20.862 17.5075 20.8695 17.5197 20.8768C17.5319 20.8841 17.5443 20.8911 17.5568 20.8977C17.5693 20.9044 17.582 20.9108 17.5949 20.9169C17.6078 20.9229 17.6208 20.9286 17.6339 20.9341C17.647 20.9395 17.6603 20.9446 17.6737 20.9494C17.687 20.9541 17.7005 20.9586 17.7141 20.9627C17.7277 20.9668 17.7414 20.9706 17.7552 20.974C17.769 20.9775 17.7829 20.9806 17.7968 20.9833C17.8108 20.9861 17.8248 20.9885 17.8388 20.9906C17.8529 20.9927 17.867 20.9944 17.8811 20.9958C17.8953 20.9972 17.9095 20.9982 17.9237 20.9989C17.9379 20.9996 17.9521 21 17.9663 21C17.9805 21 17.9947 20.9996 18.0089 20.9989C18.0231 20.9982 18.0373 20.9972 18.0514 20.9958C18.0656 20.9944 18.0797 20.9927 18.0937 20.9906C18.1078 20.9885 18.1218 20.9861 18.1357 20.9833C18.1497 20.9806 18.1636 20.9775 18.1774 20.974C18.1911 20.9706 18.2048 20.9668 18.2184 20.9627C18.232 20.9586 18.2455 20.9542 18.2589 20.9494C18.2723 20.9446 18.2856 20.9395 18.2987 20.9341C18.3118 20.9286 18.3248 20.9229 18.3377 20.9169C18.3505 20.9108 18.3632 20.9044 18.3757 20.8977C18.3883 20.8911 18.4007 20.8841 18.4129 20.8768C18.425 20.8695 18.437 20.862 18.4489 20.8541C18.4607 20.8462 18.4723 20.8381 18.4837 20.8296C18.4952 20.8212 18.5064 20.8125 18.5173 20.8035C18.5283 20.7945 18.5391 20.7852 18.5496 20.7757C18.5602 20.7662 18.5704 20.7565 18.5805 20.7464L20.7438 18.5904C20.7506 18.5837 20.7572 18.5769 20.7637 18.57C20.7702 18.5631 20.7766 18.5561 20.7828 18.5489C20.7891 18.5418 20.7952 18.5346 20.8013 18.5273C20.8073 18.5199 20.8132 18.5125 20.819 18.505C20.8248 18.4975 20.8304 18.4899 20.836 18.4822C20.8415 18.4745 20.8469 18.4667 20.8522 18.4588C20.8574 18.4509 20.8626 18.443 20.8676 18.4349C20.8726 18.4269 20.8775 18.4187 20.8822 18.4105C20.887 18.4023 20.8916 18.394 20.8961 18.3857C20.9005 18.3773 20.9049 18.3689 20.9091 18.3604C20.9133 18.3519 20.9173 18.3433 20.9212 18.3347C20.9251 18.326 20.9289 18.3173 20.9325 18.3086C20.9362 18.2998 20.9396 18.291 20.943 18.2821C20.9463 18.2733 20.9495 18.2643 20.9525 18.2554C20.9556 18.2464 20.9584 18.2374 20.9612 18.2283C20.9639 18.2192 20.9665 18.2101 20.969 18.2009C20.9714 18.1918 20.9737 18.1826 20.9758 18.1734C20.978 18.1641 20.98 18.1549 20.9818 18.1456C20.9836 18.1363 20.9853 18.1269 20.9868 18.1176C20.9884 18.1083 20.9897 18.0989 20.9909 18.0895C20.9922 18.0801 20.9932 18.0707 20.9941 18.0613C20.995 18.0518 20.9958 18.0424 20.9964 18.0329C20.997 18.0235 20.9974 18.014 20.9977 18.0045C20.998 17.9951 20.9981 17.9856 20.9981 17.9761C20.9981 17.9666 20.9979 17.9572 20.9975 17.9477C20.9972 17.9382 20.9967 17.9288 20.996 17.9193C20.9954 17.9099 20.9945 17.9004 20.9936 17.891C20.9926 17.8816 20.9915 17.8722 20.9902 17.8628C20.9889 17.8534 20.9875 17.844 20.9859 17.8347C20.9844 17.8254 20.9826 17.816 20.9807 17.8068C20.9788 17.7975 20.9768 17.7882 20.9746 17.779C20.9724 17.7698 20.97 17.7606 20.9675 17.7515C20.9639 17.7296 20.9594 17.7079 20.9541 17.6863C20.9488 17.6648 20.9426 17.6435 20.9356 17.6225C20.9287 17.6014 20.9208 17.5807 20.9122 17.5602C20.9036 17.5398 20.8942 17.5197 20.884 17.5C20.8738 17.4803 20.8629 17.461 20.8512 17.4421C20.8395 17.4233 20.827 17.4049 20.8139 17.387C20.8008 17.3691 20.7869 17.3518 20.7724 17.3349C20.7579 17.3181 20.7428 17.3019 20.727 17.2863"></path><path    stroke="rgba(3, 79, 161, 1)" stroke-width="0.2"    d="M20.7283 17.2862L18.5663 15.129C18.5562 15.1189 18.5459 15.1092 18.5354 15.0997C18.5249 15.0901 18.5141 15.0809 18.5031 15.0719C18.4921 15.0629 18.4809 15.0542 18.4695 15.0458C18.4581 15.0373 18.4465 15.0292 18.4346 15.0213C18.4228 15.0134 18.4108 15.0058 18.3986 14.9986C18.3864 14.9913 18.3741 14.9843 18.3615 14.9776C18.349 14.9709 18.3363 14.9646 18.3235 14.9585C18.3106 14.9524 18.2976 14.9467 18.2845 14.9413C18.2713 14.9359 18.2581 14.9308 18.2447 14.926C18.2313 14.9212 18.2178 14.9168 18.2042 14.9127C18.1906 14.9086 18.1769 14.9048 18.1631 14.9013C18.1493 14.8979 18.1355 14.8948 18.1215 14.892C18.1076 14.8893 18.0936 14.8868 18.0795 14.8848C18.0654 14.8827 18.0514 14.881 18.0372 14.8796C18.0231 14.8782 18.0089 14.8771 17.9947 14.8764C17.9805 14.8757 17.9663 14.8754 17.9521 14.8754C17.9378 14.8754 17.9236 14.8757 17.9094 14.8764C17.8952 14.8771 17.8811 14.8782 17.8669 14.8796C17.8528 14.881 17.8387 14.8827 17.8246 14.8848C17.8105 14.8868 17.7966 14.8893 17.7826 14.892C17.7687 14.8948 17.7548 14.8979 17.741 14.9013C17.7272 14.9048 17.7135 14.9086 17.6999 14.9127C17.6863 14.9168 17.6728 14.9212 17.6594 14.926C17.646 14.9308 17.6328 14.9359 17.6197 14.9413C17.6065 14.9467 17.5935 14.9524 17.5807 14.9585C17.5678 14.9646 17.5551 14.9709 17.5426 14.9776C17.5301 14.9843 17.5177 14.9913 17.5055 14.9986C17.4933 15.0058 17.4813 15.0134 17.4695 15.0213C17.4576 15.0292 17.446 15.0373 17.4346 15.0458C17.4232 15.0542 17.412 15.0629 17.401 15.0719C17.39 15.0809 17.3793 15.0901 17.3687 15.0997C17.3582 15.1092 17.3479 15.1189 17.3378 15.129C17.3278 15.139 17.318 15.1492 17.3084 15.1597C17.2989 15.1702 17.2896 15.1809 17.2806 15.1919C17.2716 15.2029 17.2628 15.214 17.2544 15.2254C17.2459 15.2368 17.2377 15.2484 17.2298 15.2601C17.2219 15.2719 17.2143 15.2839 17.207 15.296C17.1997 15.3082 17.1927 15.3205 17.186 15.333C17.1793 15.3455 17.1729 15.3581 17.1668 15.371C17.1608 15.3838 17.155 15.3967 17.1495 15.4098C17.1441 15.4229 17.139 15.4361 17.1342 15.4495C17.1294 15.4628 17.125 15.4762 17.1208 15.4898C17.1167 15.5033 17.1129 15.517 17.1095 15.5307C17.106 15.5445 17.1029 15.5583 17.1001 15.5722C17.0973 15.5861 17.0949 15.6 17.0928 15.6141C17.0907 15.6281 17.089 15.6421 17.0876 15.6562C17.0862 15.6703 17.0852 15.6845 17.0845 15.6986C17.0838 15.7128 17.0834 15.7269 17.0834 15.7411C17.0834 15.7552 17.0838 15.7694 17.0845 15.7836C17.0852 15.7977 17.0862 15.8118 17.0876 15.8259C17.089 15.84 17.0907 15.8541 17.0928 15.8681C17.0949 15.8821 17.0973 15.8961 17.1001 15.91C17.1029 15.9239 17.106 15.9377 17.1095 15.9514C17.1129 15.9652 17.1167 15.9788 17.1208 15.9924C17.125 16.0059 17.1294 16.0194 17.1342 16.0327C17.139 16.0461 17.1441 16.0593 17.1495 16.0724C17.155 16.0855 17.1608 16.0984 17.1668 16.1112C17.1729 16.124 17.1793 16.1367 17.186 16.1492C17.1927 16.1617 17.1997 16.174 17.207 16.1861C17.2143 16.1983 17.2219 16.2103 17.2298 16.222C17.2377 16.2338 17.2459 16.2454 17.2544 16.2568C17.2628 16.2682 17.2716 16.2793 17.2806 16.2903C17.2896 16.3012 17.2989 16.3119 17.3084 16.3224C17.318 16.3329 17.3278 16.3432 17.3378 16.3532L18.0801 17.0916L17.1103 17.0916C14.6702 17.0916 12.847 14.5632 12.847 12.3002L12.847 11.7049C12.847 10.1146 12.2185 8.49213 11.122 7.25238C11.0557 7.17646 10.9876 7.10217 10.9176 7.02952C10.8477 6.95687 10.7761 6.88595 10.7027 6.81675C10.6294 6.74756 10.5544 6.68016 10.4778 6.61457C10.4011 6.54897 10.323 6.48527 10.2433 6.42345C10.1636 6.36162 10.0824 6.30175 9.99976 6.24383C9.91716 6.18592 9.83319 6.13003 9.74786 6.07616C9.66252 6.02229 9.57596 5.97049 9.48813 5.92078C9.4003 5.87108 9.31129 5.82353 9.22115 5.77811C9.17493 5.75482 9.12837 5.73221 9.08149 5.71028C9.03461 5.68834 8.98741 5.6671 8.9399 5.64655C8.89239 5.62599 8.84459 5.60612 8.79649 5.58695C8.7484 5.5678 8.70004 5.54934 8.65142 5.53158C8.60278 5.51383 8.55389 5.49679 8.50475 5.48046C8.45562 5.46413 8.40626 5.44852 8.35667 5.43363C8.30708 5.41874 8.25728 5.40458 8.20727 5.39114C8.15727 5.3777 8.10707 5.36498 8.05669 5.353C8.0063 5.34102 7.95577 5.32978 7.90506 5.31929C7.85435 5.30878 7.80349 5.29901 7.7525 5.28999C7.70149 5.28098 7.65037 5.27271 7.59913 5.26517C7.54789 5.25764 7.49656 5.25086 7.44512 5.24482C7.39369 5.23879 7.34217 5.2335 7.29057 5.22896C7.23898 5.22443 7.18732 5.22065 7.13563 5.21761C7.08392 5.21459 7.03219 5.21232 6.98042 5.2108C6.92865 5.20928 6.87687 5.20851 6.82506 5.2085L3.81218 5.2085C3.79857 5.2094 3.785 5.21063 3.77145 5.21218C3.7579 5.21371 3.74439 5.21557 3.73093 5.21775C3.71747 5.21992 3.70407 5.22241 3.69073 5.22522C3.67738 5.22803 3.66412 5.23114 3.65092 5.23457C3.63772 5.23799 3.62461 5.24172 3.61159 5.24576C3.59857 5.2498 3.58566 5.25414 3.57284 5.25879C3.56002 5.26343 3.54733 5.26837 3.53474 5.2736C3.52216 5.27885 3.50971 5.28438 3.49739 5.2902C3.48507 5.29602 3.47289 5.30213 3.46085 5.30853C3.44882 5.31492 3.43695 5.32159 3.42523 5.32854C3.41351 5.3355 3.40196 5.34272 3.39058 5.35021C3.3792 5.3577 3.36801 5.36545 3.357 5.37347C3.34598 5.38148 3.33517 5.38975 3.32454 5.39827C3.31392 5.40679 3.3035 5.41556 3.2933 5.42457C3.28309 5.43358 3.2731 5.44282 3.26332 5.4523C3.25355 5.46178 3.24401 5.47148 3.23469 5.48141C3.22538 5.49134 3.2163 5.50148 3.20746 5.51182C3.19863 5.52216 3.19004 5.53272 3.1817 5.54348C3.17336 5.55422 3.16528 5.56517 3.15745 5.57631C3.14963 5.58743 3.14208 5.59874 3.13479 5.61023C3.1275 5.62172 3.12048 5.63337 3.11374 5.64517C3.107 5.65699 3.10054 5.66896 3.09437 5.68108C3.08819 5.6932 3.0823 5.70545 3.0767 5.71783C3.07111 5.73023 3.0658 5.74274 3.0608 5.75538C3.05579 5.76803 3.05108 5.78078 3.04668 5.79364C3.04227 5.8065 3.03817 5.81946 3.03438 5.83251C3.03058 5.84556 3.0271 5.8587 3.02392 5.87193C3.02075 5.88514 3.01788 5.89843 3.01534 5.91178C3.01279 5.92512 3.01055 5.93852 3.00864 5.95199C3.00672 5.96544 3.00512 5.97893 3.00384 5.99246C3.00256 6.00599 3.0016 6.01954 3.00096 6.03312C3.00032 6.04669 3 6.06027 3 6.07386C3 6.08745 3.00032 6.10104 3.00096 6.11462C3.0016 6.1282 3.00256 6.14175 3.00384 6.15528C3.00512 6.16881 3.00672 6.1823 3.00864 6.19575C3.01055 6.20921 3.01279 6.22261 3.01534 6.23596C3.01788 6.24931 3.02075 6.2626 3.02392 6.27581C3.0271 6.28903 3.03058 6.30216 3.03438 6.31521C3.03817 6.32827 3.04227 6.34124 3.04668 6.3541C3.05108 6.36696 3.05579 6.37971 3.0608 6.39234C3.0658 6.40499 3.07111 6.41751 3.0767 6.42989C3.0823 6.44229 3.08819 6.45454 3.09437 6.46666C3.10054 6.47878 3.107 6.49075 3.11374 6.50255C3.12048 6.51437 3.1275 6.52602 3.13479 6.53751C3.14208 6.54899 3.14963 6.5603 3.15745 6.57143C3.16528 6.58256 3.17336 6.5935 3.1817 6.60426C3.19004 6.61501 3.19863 6.62556 3.20746 6.63592C3.2163 6.64626 3.22538 6.6564 3.23469 6.66633C3.24401 6.67625 3.25355 6.68594 3.26332 6.69542C3.2731 6.70491 3.28309 6.71416 3.2933 6.72317C3.3035 6.73217 3.31392 6.74093 3.32454 6.74947C3.33517 6.75799 3.34598 6.76626 3.357 6.77427C3.36801 6.78229 3.3792 6.79004 3.39058 6.79753C3.40196 6.80502 3.41351 6.81224 3.42523 6.81918C3.43695 6.82613 3.44882 6.8328 3.46085 6.83919C3.47289 6.84559 3.48507 6.8517 3.49739 6.85752C3.50971 6.86335 3.52216 6.86888 3.53474 6.87412C3.54733 6.87935 3.56002 6.8843 3.57284 6.88895C3.58566 6.8936 3.59857 6.89794 3.61159 6.90198C3.62461 6.90602 3.63772 6.90975 3.65092 6.91317C3.66412 6.9166 3.67738 6.91971 3.69073 6.92252C3.70407 6.92531 3.71747 6.9278 3.73093 6.92997C3.74439 6.93215 3.7579 6.93401 3.77145 6.93556C3.785 6.9371 3.79857 6.93832 3.81218 6.93922L6.82506 6.93922C9.06469 6.93922 11.1065 9.21251 11.1065 11.7062L11.1065 12.3015C11.1065 13.8918 11.731 15.5181 12.8198 16.763C13.3707 17.3932 14.0094 17.8919 14.7142 18.2463C15.4771 18.6291 16.2814 18.8237 17.1077 18.8237L18.0529 18.8237L17.3521 19.5221C17.342 19.5322 17.3322 19.5424 17.3227 19.5529C17.3131 19.5634 17.3038 19.5741 17.2948 19.5851C17.2858 19.5961 17.2771 19.6072 17.2686 19.6186C17.2601 19.63 17.2519 19.6415 17.244 19.6533C17.2361 19.6651 17.2285 19.6771 17.2212 19.6892C17.2139 19.7014 17.2069 19.7137 17.2002 19.7262C17.1935 19.7387 17.1871 19.7513 17.1811 19.7642C17.175 19.777 17.1692 19.7899 17.1638 19.803C17.1583 19.8161 17.1532 19.8293 17.1484 19.8426C17.1436 19.856 17.1392 19.8694 17.1351 19.883C17.1309 19.8965 17.1272 19.9102 17.1237 19.9239C17.1202 19.9377 17.1171 19.9515 17.1143 19.9654C17.1116 19.9793 17.1091 19.9932 17.1071 20.0073C17.105 20.0213 17.1032 20.0353 17.1018 20.0494C17.1004 20.0635 17.0994 20.0777 17.0987 20.0918C17.098 20.1059 17.0977 20.1201 17.0977 20.1343C17.0977 20.1485 17.098 20.1626 17.0987 20.1768C17.0994 20.1909 17.1004 20.205 17.1018 20.2191C17.1032 20.2332 17.105 20.2473 17.1071 20.2613C17.1091 20.2753 17.1116 20.2893 17.1143 20.3032C17.1171 20.3171 17.1202 20.3309 17.1237 20.3446C17.1272 20.3584 17.1309 20.372 17.1351 20.3856C17.1392 20.3991 17.1436 20.4126 17.1484 20.4259C17.1532 20.4393 17.1583 20.4525 17.1638 20.4656C17.1692 20.4786 17.175 20.4916 17.1811 20.5044C17.1871 20.5172 17.1935 20.5299 17.2002 20.5424C17.2069 20.5549 17.2139 20.5672 17.2212 20.5793C17.2285 20.5915 17.2361 20.6034 17.244 20.6152C17.2519 20.627 17.2601 20.6386 17.2686 20.65C17.2771 20.6614 17.2858 20.6725 17.2948 20.6835C17.3038 20.6944 17.3131 20.7051 17.3227 20.7156C17.3322 20.7261 17.342 20.7364 17.3521 20.7464C17.3621 20.7564 17.3724 20.7662 17.3829 20.7757C17.3935 20.7852 17.4042 20.7945 17.4152 20.8035C17.4262 20.8125 17.4374 20.8212 17.4488 20.8296C17.4603 20.8381 17.4719 20.8462 17.4837 20.8541C17.4955 20.862 17.5075 20.8695 17.5197 20.8768C17.5319 20.8841 17.5443 20.8911 17.5568 20.8977C17.5693 20.9044 17.582 20.9108 17.5949 20.9169C17.6078 20.9229 17.6208 20.9286 17.6339 20.9341C17.647 20.9395 17.6603 20.9446 17.6737 20.9494C17.687 20.9541 17.7005 20.9586 17.7141 20.9627C17.7277 20.9668 17.7414 20.9706 17.7552 20.974C17.769 20.9775 17.7829 20.9806 17.7968 20.9833C17.8108 20.9861 17.8248 20.9885 17.8388 20.9906C17.8529 20.9927 17.867 20.9944 17.8811 20.9958C17.8953 20.9972 17.9095 20.9982 17.9237 20.9989C17.9379 20.9996 17.9521 21 17.9663 21C17.9805 21 17.9947 20.9996 18.0089 20.9989C18.0231 20.9982 18.0373 20.9972 18.0514 20.9958C18.0656 20.9944 18.0797 20.9927 18.0937 20.9906C18.1078 20.9885 18.1218 20.9861 18.1357 20.9833C18.1497 20.9806 18.1636 20.9775 18.1774 20.974C18.1911 20.9706 18.2048 20.9668 18.2184 20.9627C18.232 20.9586 18.2455 20.9542 18.2589 20.9494C18.2723 20.9446 18.2856 20.9395 18.2987 20.9341C18.3118 20.9286 18.3248 20.9229 18.3377 20.9169C18.3505 20.9108 18.3632 20.9044 18.3757 20.8977C18.3883 20.8911 18.4007 20.8841 18.4129 20.8768C18.425 20.8695 18.437 20.862 18.4489 20.8541C18.4607 20.8462 18.4723 20.8381 18.4837 20.8296C18.4952 20.8212 18.5064 20.8125 18.5173 20.8035C18.5283 20.7945 18.5391 20.7852 18.5496 20.7757C18.5602 20.7662 18.5704 20.7565 18.5805 20.7464L20.7438 18.5904C20.7506 18.5837 20.7572 18.5769 20.7637 18.57C20.7702 18.5631 20.7766 18.5561 20.7828 18.5489C20.7891 18.5418 20.7952 18.5346 20.8013 18.5273C20.8073 18.5199 20.8132 18.5125 20.819 18.505C20.8248 18.4975 20.8304 18.4899 20.836 18.4822C20.8415 18.4745 20.8469 18.4667 20.8522 18.4588C20.8574 18.4509 20.8626 18.443 20.8676 18.4349C20.8726 18.4269 20.8775 18.4187 20.8822 18.4105C20.887 18.4023 20.8916 18.394 20.8961 18.3857C20.9005 18.3773 20.9049 18.3689 20.9091 18.3604C20.9133 18.3519 20.9173 18.3433 20.9212 18.3347C20.9251 18.326 20.9289 18.3173 20.9325 18.3086C20.9362 18.2998 20.9396 18.291 20.943 18.2821C20.9463 18.2733 20.9495 18.2643 20.9525 18.2554C20.9556 18.2464 20.9584 18.2374 20.9612 18.2283C20.9639 18.2192 20.9665 18.2101 20.969 18.2009C20.9714 18.1918 20.9737 18.1826 20.9758 18.1734C20.978 18.1641 20.98 18.1549 20.9818 18.1456C20.9836 18.1363 20.9853 18.1269 20.9868 18.1176C20.9884 18.1083 20.9897 18.0989 20.9909 18.0895C20.9922 18.0801 20.9932 18.0707 20.9941 18.0613C20.995 18.0518 20.9958 18.0424 20.9964 18.0329C20.997 18.0235 20.9974 18.014 20.9977 18.0045C20.998 17.9951 20.9981 17.9856 20.9981 17.9761C20.9981 17.9666 20.9979 17.9572 20.9975 17.9477C20.9972 17.9382 20.9967 17.9288 20.996 17.9193C20.9954 17.9099 20.9945 17.9004 20.9936 17.891C20.9926 17.8816 20.9915 17.8722 20.9902 17.8628C20.9889 17.8534 20.9875 17.844 20.9859 17.8347C20.9844 17.8254 20.9826 17.816 20.9807 17.8068C20.9788 17.7975 20.9768 17.7882 20.9746 17.779C20.9724 17.7698 20.97 17.7606 20.9675 17.7515C20.9639 17.7296 20.9594 17.7079 20.9541 17.6863C20.9488 17.6648 20.9426 17.6435 20.9356 17.6225C20.9287 17.6014 20.9208 17.5807 20.9122 17.5602C20.9036 17.5398 20.8942 17.5197 20.884 17.5C20.8738 17.4803 20.8629 17.461 20.8512 17.4421C20.8395 17.4233 20.827 17.4049 20.8139 17.387C20.8008 17.3691 20.7869 17.3518 20.7724 17.3349C20.7579 17.3181 20.7428 17.3019 20.727 17.2863"></path></svg>