<svg xmlns="http://www.w3.org/2000/svg" xmlns:xlink="http://www.w3.org/1999/xlink" width="24" height="24" viewBox="0 0 24 24" fill="none"><path d="M7.19047 14.7499L7.26047 14.7499L7.28047 14.7399L7.33047 14.7399L7.37047 14.7199L7.40047 14.7099L7.42047 14.6999L7.44047 14.6899L7.46047 14.6799L7.48047 14.6699L7.50047 14.6499L7.52047 14.6399L7.53047 14.6199L7.55047 14.6099L7.57047 14.5899L7.58047 14.5699L7.60047 14.5499L7.61047 14.5299L7.62047 14.5099L7.64047 14.4899L7.65047 14.4699L7.66047 14.4499L7.66047 14.4299L7.67047 14.4099L7.68047 14.3799L7.68047 14.3599L7.69047 14.3399L7.69047 3.53993L7.70047 3.51993L7.70047 3.49993L7.71047 3.47993L7.71047 3.45993L7.73047 3.41993L7.73047 3.39993L7.74047 3.37993L7.76047 3.35993L7.78047 3.31993L7.79047 3.30993L7.81047 3.28993L7.82047 3.26993L7.84047 3.25993L7.85047 3.24993L7.87047 3.22993L7.89047 3.21993L7.90047 3.20993L7.92047 3.19993L7.98047 3.16993L8.00047 3.16993L8.02047 3.15993L8.04047 3.15993L8.06047 3.14993L19.9405 3.14993L19.9605 3.15993L19.9805 3.15993L20.0005 3.16993L20.0205 3.16993L20.0405 3.17993L20.0605 3.18993L20.0805 3.19993L20.1005 3.20993L20.1205 3.21993L20.1405 3.22993L20.1505 3.24993L20.1705 3.25993L20.2005 3.28993L20.2105 3.30993L20.2405 3.33993L20.2505 3.35993L20.2605 3.37993L20.2905 3.43993L20.2905 3.45993L20.3005 3.47993L20.3005 3.49993L20.3105 3.51993L20.3105 3.58993L20.3105 12.2799L20.3105 12.2999L20.3205 12.33L20.3205 12.3799L20.3305 12.3999L20.3305 12.4199L20.3406 12.4399L20.3506 12.47L20.3606 12.49L20.3706 12.5099L20.3806 12.5299L20.4006 12.5499L20.4106 12.5699L20.4205 12.59L20.4405 12.61L20.4505 12.6199L20.4706 12.6399L20.4906 12.6499L20.5106 12.6699L20.5306 12.6799L20.5505 12.7L20.6306 12.74L20.6506 12.74L20.6805 12.7499L20.7005 12.7499L20.7206 12.7599L20.8606 12.7599L20.8906 12.7499L20.9106 12.7499L20.9305 12.74L20.9606 12.74L21.0406 12.7L21.0605 12.6799L21.0805 12.6699L21.1006 12.6499L21.1206 12.6399L21.1306 12.6199L21.1506 12.61L21.1705 12.59L21.1805 12.5699L21.2005 12.5499L21.2206 12.5099L21.2306 12.49L21.2406 12.47L21.2506 12.4399L21.2506 12.4199L21.2606 12.3999L21.2606 12.3799L21.2706 12.35L21.2706 12.33L21.2806 12.2999L21.2806 12.2799L21.2805 3.58993C21.2805 3.56695 21.2705 3.53289 21.2705 3.50993L21.2705 3.44993C21.2705 3.42706 21.2605 3.40267 21.2605 3.37993C21.2605 3.3572 21.2505 3.33247 21.2505 3.30993C21.2505 3.28739 21.2405 3.27223 21.2405 3.24993C21.2405 3.22764 21.2105 3.20192 21.2105 3.17993C21.2105 3.15794 21.1905 3.13157 21.1905 3.10993C21.1905 3.08829 21.1705 3.07116 21.1705 3.04993C21.1705 3.0287 21.1405 3.00071 21.1405 2.97993C21.1405 2.95916 21.1213 2.9402 21.1105 2.91993C21.0996 2.89966 21.0922 2.87964 21.0805 2.85993C21.0687 2.84022 21.0532 2.82904 21.0405 2.80993C21.0278 2.79082 21.0142 2.76839 21.0005 2.74993C20.9869 2.73147 20.975 2.7177 20.9605 2.69993C20.9459 2.68216 20.9258 2.65696 20.9105 2.63993C20.895 2.6229 20.8766 2.60619 20.8605 2.58993C20.8442 2.57368 20.8273 2.55537 20.8105 2.53993C20.7935 2.52449 20.7781 2.51452 20.7605 2.49993C20.7428 2.48535 20.7289 2.47363 20.7105 2.45993C20.6921 2.44623 20.6695 2.43271 20.6505 2.41993C20.6314 2.40716 20.6201 2.39176 20.6005 2.37993C20.5808 2.36811 20.5507 2.36078 20.5305 2.34993C20.5103 2.33909 20.5012 2.30993 20.4805 2.30993C20.4598 2.30993 20.4316 2.28993 20.4105 2.28993C20.3893 2.28993 20.372 2.25993 20.3505 2.25993C20.3289 2.25993 20.3024 2.23993 20.2805 2.23993C20.2586 2.23993 20.2427 2.21993 20.2205 2.21993C20.1983 2.21993 20.1729 2.20993 20.1505 2.20993C20.128 2.20993 20.1031 2.18993 20.0805 2.18993L20.0105 2.18993C19.9877 2.18993 19.9633 2.17993 19.9405 2.17993L8.06047 2.17993C8.03761 2.17993 8.01324 2.18993 7.99047 2.18993L7.92047 2.18993C7.89783 2.18993 7.88291 2.20993 7.86047 2.20993C7.83802 2.20993 7.81267 2.21993 7.79047 2.21993C7.76827 2.21993 7.74237 2.23993 7.72047 2.23993C7.69857 2.23993 7.68201 2.25993 7.66047 2.25993C7.63892 2.25993 7.61161 2.28993 7.59047 2.28993C7.56933 2.28993 7.55116 2.30993 7.53047 2.30993C7.50978 2.30993 7.49065 2.33909 7.47047 2.34993C7.45029 2.36078 7.4301 2.36811 7.41047 2.37993C7.39084 2.39176 7.3695 2.40716 7.35047 2.41993C7.33144 2.43271 7.31885 2.44623 7.30047 2.45993C7.28209 2.47363 7.25816 2.48535 7.24047 2.49993C7.22278 2.51452 7.20743 2.52449 7.19047 2.53993C7.17351 2.55537 7.15665 2.57368 7.14047 2.58993C7.12428 2.60619 7.10584 2.6229 7.09047 2.63993C7.0751 2.65696 7.06499 2.68216 7.05047 2.69993C7.03595 2.7177 7.02411 2.73147 7.01047 2.74993C6.99683 2.76839 6.98319 2.79082 6.97047 2.80993C6.95775 2.82904 6.94224 2.84022 6.93047 2.85993C6.91869 2.87964 6.91127 2.89966 6.90047 2.91993C6.88967 2.9402 6.86047 2.95916 6.86047 2.97993C6.86047 2.98612 6.8587 2.99294 6.85621 3.00003L6.99997 3.00003L6.99997 14.6964L7.01047 14.6999L7.02047 14.7099L7.05047 14.7199L7.07047 14.7299L7.10047 14.7399L7.14047 14.7399L7.17047 14.7499L7.19047 14.7499Z" stroke="rgba(204, 78, 29, 1)" stroke-width="0.6"    fill-rule="evenodd"  fill="#CC4E1D" ></path><path d="M7 13.039L7 11.8727C7.14763 11.8247 7.30573 11.7986 7.47007 11.7986L20.8601 11.7986L20.8801 11.8086L20.9101 11.8086L20.9302 11.8186L20.9501 11.8286L20.9801 11.8386L21.0201 11.8586L21.0401 11.8685L21.0602 11.8785L21.0801 11.8885L21.1001 11.9086L21.1201 11.9186L21.1301 11.9386L21.1601 11.9686L21.1802 11.9985L21.19 12.0085L21.2101 12.0486L21.2301 12.0786L21.2401 12.0986L21.2401 12.1185L21.2501 12.1385L21.2601 12.1686L21.2601 12.1886L21.2701 12.2086L21.2701 12.3486L21.2601 12.3785L21.2601 12.3986L21.2501 12.4286L21.2401 12.4486L21.2401 12.4686L21.2301 12.4885L21.2101 12.5085L21.19 12.5486L21.1802 12.5686L21.1601 12.5886L21.1501 12.6086L21.1301 12.6285L21.1001 12.6586L21.0801 12.6686L21.0602 12.6886L20.9801 12.7286L20.9501 12.7385L20.9302 12.7485L20.9101 12.7485L20.8801 12.7585L20.8401 12.7585L20.8102 12.7686L7.47007 12.7686C7.25987 12.7686 7.07764 12.8809 7 13.039Z" stroke="rgba(204, 78, 29, 1)" stroke-width="0.6"    fill-rule="evenodd"  fill="#CC4E1D" ></path><path d="M20.2439 15.511L9.06581 15.511C9.05427 15.511 9.04097 15.511 9.02944 15.511C9.01793 15.511 9.0082 15.5074 8.99672 15.5074C8.98524 15.5074 8.9754 15.5001 8.96399 15.5001C8.95258 15.5001 8.93893 15.5001 8.92762 15.5001C8.91631 15.5001 8.90607 15.4892 8.8949 15.4892C8.88371 15.4892 8.87321 15.4819 8.86217 15.4819C8.85114 15.4819 8.83666 15.4713 8.82581 15.4674C8.81495 15.4635 8.80373 15.4609 8.79308 15.4565C8.78242 15.452 8.77441 15.4505 8.76399 15.4456C8.75356 15.4406 8.74143 15.4328 8.73126 15.4274C8.72109 15.4219 8.71206 15.4151 8.70217 15.4092C8.69228 15.4033 8.68631 15.3974 8.67671 15.391C8.66713 15.3846 8.65325 15.3761 8.64399 15.3692C8.63472 15.3623 8.62744 15.3583 8.61853 15.351C8.60961 15.3437 8.60162 15.337 8.59308 15.3292C8.58453 15.3214 8.57578 15.3119 8.56762 15.3037C8.55947 15.2955 8.54991 15.2868 8.54217 15.2783C8.53443 15.2697 8.52767 15.2617 8.52035 15.2528C8.51304 15.2439 8.5054 15.233 8.49853 15.2237C8.49166 15.2145 8.48676 15.2079 8.48035 15.1983C8.47394 15.1887 8.4681 15.1791 8.46217 15.1692C8.45624 15.1593 8.44942 15.1503 8.44399 15.1401C8.43855 15.1299 8.43437 15.1178 8.42944 15.1074C8.42451 15.0969 8.41931 15.0853 8.4149 15.0746C8.41048 15.064 8.40424 15.0528 8.40035 15.0419C8.39647 15.031 8.38944 15.0203 8.38944 15.0092C8.38944 14.9981 8.38581 14.9877 8.38581 14.9765C8.38581 14.9653 8.3749 14.9551 8.3749 14.9437C8.3749 14.9324 8.36762 14.9224 8.36762 14.911C8.36762 14.8996 8.36399 14.8861 8.36399 14.8746C8.36399 14.8632 8.36035 14.8535 8.36035 14.8419C8.36035 14.8304 8.36035 14.8171 8.36035 14.8056C8.36035 14.794 8.36035 14.7807 8.36035 14.7692C8.36035 14.7577 8.36399 14.7443 8.36399 14.7328C8.36399 14.7213 8.36762 14.7115 8.36762 14.7001C8.36762 14.6887 8.3749 14.6751 8.3749 14.6637C8.3749 14.6524 8.38581 14.6422 8.38581 14.631C8.38581 14.6198 8.38944 14.6093 8.38944 14.5983C8.38944 14.5872 8.39647 14.5764 8.40035 14.5656C8.40424 14.5547 8.41048 14.5435 8.4149 14.5328C8.41931 14.5221 8.42451 14.5142 8.42944 14.5037C8.43437 14.4933 8.43855 14.4812 8.44399 14.471C8.44942 14.4608 8.45624 14.4518 8.46217 14.4419C8.4681 14.432 8.47394 14.4224 8.48035 14.4128C8.48676 14.4032 8.49166 14.393 8.49853 14.3837C8.5054 14.3745 8.51304 14.3672 8.52035 14.3583C8.52767 14.3494 8.53443 14.3378 8.54217 14.3292C8.54991 14.3206 8.55947 14.3119 8.56762 14.3037C8.57578 14.2956 8.58453 14.2897 8.59308 14.2819C8.60162 14.2741 8.60961 14.2674 8.61853 14.2601C8.62744 14.2528 8.63472 14.2452 8.64399 14.2383C8.65325 14.2314 8.66713 14.2265 8.67671 14.2201C8.68631 14.2137 8.69228 14.2042 8.70217 14.1983C8.71206 14.1923 8.72109 14.1855 8.73126 14.1801C8.74143 14.1747 8.75356 14.1741 8.76399 14.1692C8.77441 14.1642 8.78242 14.1591 8.79308 14.1546C8.80373 14.1502 8.81495 14.144 8.82581 14.1401C8.83666 14.1362 8.85114 14.1256 8.86217 14.1256C8.87321 14.1256 8.88371 14.1219 8.8949 14.1219C8.90607 14.1219 8.91631 14.111 8.92762 14.111C8.93893 14.111 8.95258 14.1074 8.96399 14.1074C8.9754 14.1074 8.98524 14.1037 8.99672 14.1037C9.0082 14.1037 9.01793 14.1001 9.02944 14.1001C9.04097 14.1001 9.05427 14.1001 9.06581 14.1001L20.2439 14.1001C20.2555 14.1001 20.2651 14.1001 20.2765 14.1001C20.288 14.1001 20.3016 14.1037 20.3131 14.1037C20.3246 14.1037 20.3343 14.1074 20.3458 14.1074C20.3571 14.1074 20.3671 14.111 20.3785 14.111C20.3897 14.111 20.4038 14.1219 20.415 14.1219C20.4263 14.1219 20.4367 14.1256 20.4477 14.1256C20.4588 14.1256 20.4695 14.1362 20.4804 14.1401C20.4912 14.144 20.5024 14.1502 20.5131 14.1547C20.5238 14.1591 20.5354 14.1642 20.5457 14.1692C20.5562 14.1741 20.5646 14.1746 20.5748 14.1801C20.585 14.1855 20.5977 14.1923 20.6075 14.1983C20.6175 14.2042 20.6235 14.2137 20.6331 14.2201C20.6426 14.2265 20.653 14.2314 20.6622 14.2383C20.6715 14.2452 20.6824 14.2528 20.6913 14.2601C20.7002 14.2674 20.7044 14.2742 20.713 14.2819C20.7215 14.2897 20.7339 14.2956 20.7421 14.3037C20.7501 14.3119 20.7563 14.3206 20.7641 14.3292C20.7719 14.3378 20.7821 14.3494 20.7893 14.3583C20.7966 14.3672 20.8045 14.3745 20.8113 14.3837C20.8182 14.393 20.8195 14.4032 20.8259 14.4128C20.8324 14.4224 20.8417 14.432 20.8476 14.4419C20.8534 14.4518 20.8566 14.4608 20.8621 14.471C20.8676 14.4812 20.8754 14.4933 20.8802 14.5037C20.8852 14.5142 20.8903 14.5221 20.8948 14.5328C20.8991 14.5435 20.9054 14.5547 20.9094 14.5656C20.9132 14.5764 20.9168 14.5872 20.9168 14.5983C20.9168 14.6093 20.9239 14.6198 20.9239 14.631C20.9239 14.6422 20.9349 14.6524 20.9349 14.6637C20.9349 14.6751 20.9385 14.6887 20.9385 14.7001C20.9385 14.7115 20.9459 14.7213 20.9459 14.7328C20.9459 14.7443 20.9495 14.7577 20.9495 14.7692C20.9495 14.7807 20.9495 14.794 20.9495 14.8056C20.9495 14.8171 20.9495 14.8304 20.9495 14.8419C20.9495 14.8535 20.9459 14.8632 20.9459 14.8746C20.9459 14.8861 20.9385 14.8996 20.9385 14.911C20.9385 14.9224 20.9349 14.9324 20.9349 14.9437C20.9349 14.9551 20.9239 14.9653 20.9239 14.9765C20.9239 14.9877 20.9168 14.9981 20.9168 15.0092C20.9168 15.0203 20.9132 15.0311 20.9094 15.0419C20.9054 15.0528 20.8991 15.064 20.8948 15.0746C20.8903 15.0853 20.8852 15.0969 20.8802 15.1074C20.8754 15.1178 20.8676 15.1299 20.8621 15.1401C20.8566 15.1503 20.8534 15.1593 20.8476 15.1692C20.8417 15.1791 20.8324 15.1887 20.8259 15.1983C20.8195 15.2079 20.8182 15.2145 20.8113 15.2237C20.8045 15.233 20.7966 15.2439 20.7893 15.2528C20.7821 15.2617 20.7719 15.2697 20.7641 15.2783C20.7563 15.2868 20.7501 15.2956 20.7421 15.3037C20.7339 15.3119 20.7215 15.3214 20.713 15.3292C20.7044 15.337 20.7002 15.3437 20.6913 15.351C20.6824 15.3583 20.6715 15.3623 20.6622 15.3692C20.653 15.3761 20.6426 15.3846 20.6331 15.391C20.6235 15.3974 20.6175 15.4032 20.6075 15.4092C20.5977 15.4151 20.585 15.4219 20.5748 15.4274C20.5646 15.4328 20.5562 15.4406 20.5457 15.4456C20.5354 15.4505 20.5238 15.452 20.5131 15.4565C20.5024 15.4609 20.4912 15.4635 20.4804 15.4674C20.4695 15.4713 20.4588 15.4819 20.4477 15.4819C20.4367 15.4819 20.4263 15.4892 20.415 15.4892C20.4038 15.4892 20.3897 15.5001 20.3785 15.5001C20.3671 15.5001 20.3571 15.5001 20.3458 15.5001C20.3343 15.5001 20.3246 15.5074 20.3131 15.5074C20.3016 15.5074 20.288 15.511 20.2765 15.511C20.2651 15.511 20.2555 15.511 20.2439 15.511Z" stroke="rgba(204, 78, 29, 1)" stroke-width="0.1"      fill="#CC4E1D" ></path><path d="M5.30328 1.09082L5.03328 1.09082C4.98743 1.09082 4.93898 1.10082 4.89328 1.10082C4.84759 1.10082 4.79871 1.12082 4.75328 1.12082C4.70787 1.12082 4.66832 1.14082 4.62328 1.14082C4.57827 1.14082 4.52781 1.15967 4.48328 1.17082C4.43873 1.18198 4.3972 1.19749 4.35328 1.21082C4.30935 1.22415 4.26651 1.23535 4.22328 1.25082C4.18006 1.26629 4.13569 1.28325 4.09328 1.30082C4.05085 1.31839 4.01477 1.34119 3.97328 1.36082C3.93177 1.38045 3.88377 1.39918 3.84328 1.42082C3.8028 1.44246 3.76266 1.46722 3.72328 1.49082C3.68391 1.51442 3.65146 1.53531 3.61328 1.56082C3.5751 1.58633 3.53016 1.61347 3.49328 1.64082C3.45642 1.66817 3.42877 1.7017 3.39328 1.73082C3.35779 1.75994 3.31731 1.78999 3.28328 1.82082C3.24927 1.85165 3.21574 1.87836 3.18328 1.91082C3.15082 1.94328 3.12411 1.97681 3.09328 2.01082C3.06245 2.04485 3.0324 2.08533 3.00328 2.12082C2.97416 2.15631 2.94063 2.18396 2.91328 2.22082C2.88593 2.2577 2.85879 2.30264 2.83328 2.34082C2.80778 2.379 2.78688 2.41144 2.76328 2.45082C2.73968 2.4902 2.71492 2.53034 2.69328 2.57082C2.67164 2.6113 2.65291 2.65931 2.63328 2.70082C2.61365 2.74231 2.59085 2.77839 2.57328 2.82082C2.55571 2.86323 2.53875 2.9076 2.52328 2.95082C2.50781 2.99405 2.49661 3.03689 2.48328 3.08082C2.46995 3.12474 2.45444 3.16627 2.44328 3.21082C2.43213 3.25535 2.41328 3.30581 2.41328 3.35082C2.41328 3.39586 2.39328 3.43541 2.39328 3.48082C2.39328 3.52625 2.37328 3.57513 2.37328 3.62082C2.37328 3.66651 2.36328 3.71497 2.36328 3.76082L2.36328 19.5208C2.36328 19.5667 2.37328 19.6051 2.37328 19.6508C2.37328 19.6965 2.39328 19.7454 2.39328 19.7908C2.39328 19.8363 2.41328 19.8758 2.41328 19.9208C2.41328 19.9659 2.43213 20.0163 2.44328 20.0608C2.45444 20.1054 2.46995 20.1469 2.48328 20.1908C2.49661 20.2348 2.50782 20.2776 2.52328 20.3208C2.53875 20.364 2.55571 20.4084 2.57328 20.4508C2.59085 20.4932 2.61365 20.5293 2.63328 20.5708C2.65291 20.6123 2.67164 20.6603 2.69328 20.7008C2.71492 20.7413 2.73968 20.7814 2.76328 20.8208C2.78688 20.8602 2.80778 20.8926 2.83328 20.9308C2.85879 20.969 2.88593 21.0139 2.91328 21.0508C2.94063 21.0877 2.97416 21.1253 3.00328 21.1608C3.0324 21.1963 3.06245 21.2268 3.09328 21.2608C3.12411 21.2948 3.15082 21.3284 3.18328 21.3608C3.21574 21.3933 3.24927 21.42 3.28328 21.4508C3.31731 21.4817 3.35779 21.5117 3.39328 21.5408C3.42877 21.5699 3.45642 21.6035 3.49328 21.6308C3.53016 21.6582 3.5751 21.6853 3.61328 21.7108C3.65146 21.7363 3.68391 21.7572 3.72328 21.7808C3.76266 21.8044 3.8028 21.8292 3.84328 21.8508C3.88377 21.8724 3.93177 21.8912 3.97328 21.9108C4.01477 21.9304 4.05085 21.9533 4.09328 21.9708C4.13569 21.9884 4.18006 22.0053 4.22328 22.0208C4.26651 22.0363 4.30935 22.0475 4.35328 22.0608C4.3972 22.0741 4.43873 22.0897 4.48328 22.1008C4.52781 22.112 4.57827 22.1308 4.62328 22.1308C4.66832 22.1308 4.70787 22.1508 4.75328 22.1508C4.79871 22.1508 4.84759 22.1708 4.89328 22.1708C4.93898 22.1708 4.98743 22.1808 5.03328 22.1808L19.3333 22.1808C19.3791 22.1808 19.4276 22.1708 19.4733 22.1708C19.519 22.1708 19.5579 22.1508 19.6033 22.1508C19.6487 22.1508 19.6983 22.1308 19.7433 22.1308C19.7883 22.1308 19.8287 22.112 19.8733 22.1008C19.9178 22.0897 19.9693 22.0741 20.0133 22.0608C20.0572 22.0475 20.09 22.0363 20.1333 22.0208C20.1765 22.0053 20.2309 21.9884 20.2733 21.9708C20.3157 21.9533 20.3518 21.9304 20.3933 21.9108C20.4348 21.8912 20.4728 21.8724 20.5133 21.8508C20.5538 21.8292 20.5939 21.8044 20.6333 21.7808C20.6727 21.7572 20.7151 21.7363 20.7533 21.7108C20.7915 21.6853 20.8264 21.6581 20.8633 21.6308C20.9001 21.6035 20.9378 21.5699 20.9733 21.5408C21.0088 21.5117 21.0492 21.4817 21.0833 21.4508C21.1173 21.42 21.1408 21.3933 21.1733 21.3608C21.2057 21.3284 21.2424 21.2949 21.2733 21.2608C21.3041 21.2268 21.3342 21.1963 21.3633 21.1608C21.3924 21.1253 21.416 21.0877 21.4433 21.0508C21.4706 21.014 21.4978 20.969 21.5233 20.9308C21.5488 20.8926 21.5797 20.8602 21.6033 20.8208C21.6269 20.7814 21.6517 20.7413 21.6733 20.7008C21.6949 20.6603 21.7136 20.6123 21.7333 20.5708C21.7529 20.5293 21.7657 20.4932 21.7833 20.4508C21.8009 20.4084 21.8178 20.364 21.8333 20.3208C21.8487 20.2776 21.87 20.2348 21.8833 20.1908C21.8966 20.1469 21.9021 20.1054 21.9133 20.0608C21.9244 20.0163 21.9433 19.9658 21.9433 19.9208C21.9433 19.8758 21.9733 19.8363 21.9733 19.7908C21.9733 19.7454 21.9833 19.6965 21.9833 19.6508C21.9833 19.6051 21.9933 19.5667 21.9933 19.5208C21.9933 19.4749 22.0033 19.4267 22.0033 19.3808C22.0033 19.3349 21.9933 19.2867 21.9933 19.2408C21.9933 19.195 21.9833 19.1465 21.9833 19.1008C21.9833 19.0551 21.9733 19.0062 21.9733 18.9608C21.9733 18.9154 21.9433 18.8759 21.9433 18.8308C21.9433 18.7858 21.9244 18.7354 21.9133 18.6908C21.9021 18.6463 21.8966 18.6047 21.8833 18.5608C21.87 18.5169 21.8487 18.4741 21.8333 18.4308C21.8178 18.3876 21.8009 18.3432 21.7833 18.3008C21.7657 18.2584 21.7529 18.2223 21.7333 18.1808C21.7136 18.1393 21.6949 18.0913 21.6733 18.0508C21.6517 18.0103 21.6269 17.9702 21.6033 17.9308C21.5797 17.8914 21.5488 17.859 21.5233 17.8208C21.4978 17.7826 21.4706 17.7377 21.4433 17.7008C21.4159 17.664 21.3924 17.6363 21.3633 17.6008C21.3342 17.5653 21.3041 17.5249 21.2733 17.4908C21.2424 17.4568 21.2057 17.4233 21.1733 17.3908C21.1408 17.3584 21.1173 17.3317 21.0833 17.3008C21.0493 17.27 21.0088 17.2399 20.9733 17.2108C20.9378 17.1817 20.9002 17.1482 20.8633 17.1208C20.8264 17.0935 20.7915 17.0663 20.7533 17.0408C20.7151 17.0153 20.6727 16.9944 20.6333 16.9708C20.5939 16.9472 20.5538 16.9224 20.5133 16.9008C20.4728 16.8792 20.4348 16.8605 20.3933 16.8408C20.3518 16.8212 20.3157 16.7984 20.2733 16.7808C20.2309 16.7633 20.1765 16.7463 20.1333 16.7308C20.09 16.7154 20.0572 16.7041 20.0133 16.6908C19.9694 16.6775 19.9178 16.662 19.8733 16.6508C19.8287 16.6397 19.7883 16.6208 19.7433 16.6208C19.6982 16.6208 19.6487 16.6008 19.6033 16.6008C19.5579 16.6008 19.519 16.5808 19.4733 16.5808C19.4276 16.5808 19.3791 16.5708 19.3333 16.5708L7.97328 16.5708L7.97328 3.76082C7.97328 3.71497 7.96328 3.66651 7.96328 3.62082C7.96328 3.57513 7.94328 3.52625 7.94328 3.48082C7.94328 3.43541 7.92328 3.39586 7.92328 3.35082C7.92328 3.30581 7.90444 3.25535 7.89328 3.21082C7.88213 3.16627 7.86663 3.12474 7.85328 3.08082C7.83996 3.03689 7.82873 2.99405 7.81328 2.95082C7.79781 2.9076 7.78084 2.86323 7.76328 2.82082C7.74571 2.77839 7.7229 2.74231 7.70328 2.70082C7.68364 2.65931 7.66491 2.6113 7.64328 2.57082C7.62165 2.53034 7.59688 2.4902 7.57328 2.45082C7.54968 2.41144 7.52879 2.379 7.50328 2.34082C7.47777 2.30264 7.45061 2.2577 7.42328 2.22082C7.39593 2.18396 7.36241 2.15631 7.33328 2.12082C7.30416 2.08533 7.27412 2.04485 7.24328 2.01082C7.21245 1.97681 7.18574 1.94328 7.15328 1.91082C7.12082 1.87836 7.08729 1.85165 7.05328 1.82082C7.01925 1.78999 6.98876 1.75994 6.95328 1.73082C6.9178 1.70169 6.88014 1.66817 6.84328 1.64082C6.8064 1.61347 6.76146 1.58633 6.72328 1.56082C6.6851 1.53531 6.65266 1.51442 6.61328 1.49082C6.5739 1.46722 6.53376 1.44246 6.49328 1.42082C6.4528 1.39918 6.40479 1.38045 6.36328 1.36082C6.32179 1.34119 6.28571 1.31839 6.24328 1.30082C6.20087 1.28325 6.1565 1.26629 6.11328 1.25082C6.07004 1.23535 6.02722 1.22415 5.98328 1.21082C5.93936 1.19749 5.89784 1.18198 5.85328 1.17082C5.80875 1.15967 5.7583 1.14082 5.71328 1.14082C5.66824 1.14082 5.62871 1.12082 5.58328 1.12082C5.53787 1.12082 5.48898 1.10082 5.44328 1.10082C5.39759 1.10082 5.34913 1.09082 5.30328 1.09082ZM5.10328 2.49082L5.23328 2.49082C5.25623 2.49082 5.28045 2.50082 5.30328 2.50082C5.32614 2.50082 5.35058 2.51082 5.37328 2.51082C5.39599 2.51082 5.42077 2.52082 5.44328 2.52082C5.46579 2.52082 5.49101 2.53082 5.51328 2.53082C5.53555 2.53082 5.55132 2.55082 5.57328 2.55082C5.59526 2.55082 5.62167 2.57082 5.64328 2.57082C5.66489 2.57082 5.68207 2.60082 5.70328 2.60082C5.72447 2.60082 5.74253 2.63082 5.76328 2.63082C5.78404 2.63082 5.81305 2.64999 5.83328 2.66082C5.85353 2.67165 5.87358 2.67903 5.89328 2.69082C5.91296 2.70263 5.93419 2.71807 5.95328 2.73082C5.97237 2.74358 5.98485 2.75714 6.00328 2.77082C6.02171 2.7845 6.03555 2.79627 6.05328 2.81082C6.07103 2.82539 6.09627 2.84541 6.11328 2.86082C6.13029 2.87623 6.14704 2.88459 6.16328 2.90082C6.17952 2.91705 6.18787 2.94381 6.20328 2.96082C6.21869 2.97783 6.23871 2.99307 6.25328 3.01082C6.26783 3.02856 6.27961 3.04238 6.29328 3.06082C6.30696 3.07926 6.32053 3.10174 6.33328 3.12082C6.34604 3.13992 6.36147 3.15114 6.37328 3.17082C6.38507 3.19052 6.39246 3.22057 6.40328 3.24082C6.41411 3.26105 6.43328 3.28007 6.43328 3.30082C6.43328 3.32157 6.46328 3.33963 6.46328 3.36082C6.46328 3.38203 6.49328 3.39921 6.49328 3.42082C6.49328 3.44243 6.51328 3.46884 6.51328 3.49082C6.51328 3.51278 6.53328 3.53855 6.53328 3.56082C6.53328 3.58309 6.54328 3.59831 6.54328 3.62082C6.54328 3.64333 6.55328 3.66812 6.55328 3.69082C6.55328 3.71352 6.56328 3.73796 6.56328 3.76082C6.56328 3.78366 6.57328 3.80787 6.57328 3.83082L6.57328 17.9708L19.2633 17.9708C19.2862 17.9708 19.3104 17.9808 19.3333 17.9808C19.3561 17.9808 19.3806 17.9908 19.4033 17.9908C19.426 17.9908 19.4508 18.0008 19.4733 18.0008C19.4958 18.0008 19.511 18.0108 19.5333 18.0108C19.5555 18.0108 19.5813 18.0408 19.6033 18.0408C19.6253 18.0408 19.6417 18.0508 19.6633 18.0508C19.6849 18.0508 19.7121 18.0808 19.7333 18.0808C19.7545 18.0808 19.7725 18.1108 19.7933 18.1108C19.814 18.1108 19.8331 18.13 19.8533 18.1408C19.8735 18.1516 19.8936 18.159 19.9133 18.1708C19.933 18.1826 19.9542 18.1981 19.9733 18.2108C19.9924 18.2236 20.0149 18.2371 20.0333 18.2508C20.0517 18.2645 20.0656 18.2763 20.0833 18.2908C20.101 18.3054 20.1163 18.3254 20.1333 18.3408C20.1503 18.3562 20.167 18.3646 20.1833 18.3808C20.1995 18.3971 20.2179 18.4238 20.2333 18.4408C20.2487 18.4578 20.2687 18.4731 20.2833 18.4908C20.2978 18.5085 20.3096 18.5224 20.3233 18.5408C20.337 18.5592 20.3505 18.5817 20.3633 18.6008C20.376 18.6199 20.3815 18.6311 20.3933 18.6508C20.4051 18.6705 20.4225 18.7006 20.4333 18.7208C20.4441 18.741 20.4633 18.7601 20.4633 18.7808C20.4633 18.8016 20.4933 18.8196 20.4933 18.8408C20.4933 18.862 20.5133 18.8792 20.5133 18.9008C20.5133 18.9224 20.5333 18.9488 20.5333 18.9708C20.5333 18.9928 20.5533 19.0186 20.5533 19.0408C20.5533 19.0631 20.5733 19.0783 20.5733 19.1008C20.5733 19.1233 20.5833 19.1481 20.5833 19.1708C20.5833 19.1935 20.5933 19.218 20.5933 19.2408L20.5933 19.5208C20.5933 19.5437 20.5833 19.5581 20.5833 19.5808C20.5833 19.6035 20.5733 19.6283 20.5733 19.6508C20.5733 19.6733 20.5533 19.6986 20.5533 19.7208C20.5533 19.7431 20.5333 19.7589 20.5333 19.7808C20.5333 19.8028 20.5133 19.8292 20.5133 19.8508C20.5133 19.8724 20.4933 19.8896 20.4933 19.9108C20.4933 19.932 20.4633 19.9501 20.4633 19.9708C20.4633 19.9916 20.4441 20.0206 20.4333 20.0408C20.4225 20.0611 20.4051 20.0811 20.3933 20.1008C20.3815 20.1205 20.376 20.1417 20.3633 20.1608C20.3505 20.1799 20.337 20.1924 20.3233 20.2108C20.3096 20.2292 20.2978 20.2431 20.2833 20.2608C20.2687 20.2786 20.2487 20.3038 20.2333 20.3208C20.2179 20.3378 20.1995 20.3546 20.1833 20.3708C20.167 20.3871 20.1503 20.3954 20.1333 20.4108C20.1163 20.4262 20.101 20.4462 20.0833 20.4608C20.0656 20.4754 20.0517 20.4871 20.0333 20.5008C20.0149 20.5145 19.9924 20.5281 19.9733 20.5408C19.9542 20.5536 19.933 20.569 19.9133 20.5808C19.8936 20.5926 19.8735 20.6 19.8533 20.6108C19.8331 20.6216 19.814 20.6408 19.7933 20.6408C19.7725 20.6408 19.7545 20.6708 19.7333 20.6708C19.7121 20.6708 19.6849 20.7008 19.6633 20.7008C19.6417 20.7008 19.6253 20.7208 19.6033 20.7208C19.5813 20.7208 19.5555 20.7408 19.5333 20.7408C19.511 20.7408 19.4958 20.7508 19.4733 20.7508C19.4508 20.7508 19.426 20.7608 19.4033 20.7608C19.3806 20.7608 19.3561 20.7708 19.3333 20.7708C19.3104 20.7708 19.2862 20.7808 19.2633 20.7808L16.3933 20.7808L16.3933 19.3808L14.9833 19.3808L14.9833 20.7808L13.5833 20.7808L13.5833 20.78L12.1833 20.78L12.1833 20.7808L10.7733 20.7808L10.7733 19.3808L9.37328 19.3808L9.37328 20.7808L7.97328 20.7808L7.97328 20.78L6.57328 20.78L6.57328 20.7808L5.10328 20.7808C5.08034 20.7808 5.05612 20.7708 5.03328 20.7708C5.01042 20.7708 4.98599 20.7608 4.96328 20.7608C4.94058 20.7608 4.91579 20.7508 4.89328 20.7508C4.87077 20.7508 4.85555 20.7408 4.83328 20.7408C4.81102 20.7408 4.78524 20.7208 4.76328 20.7208C4.7413 20.7208 4.71489 20.7008 4.69328 20.7008C4.67167 20.7008 4.6545 20.6708 4.63328 20.6708C4.61209 20.6708 4.59404 20.6408 4.57328 20.6408C4.55253 20.6408 4.53352 20.6216 4.51328 20.6108C4.49303 20.6 4.46298 20.5926 4.44328 20.5808C4.4236 20.569 4.41238 20.5536 4.39328 20.5408C4.3742 20.5281 4.35172 20.5145 4.33328 20.5008C4.31484 20.4871 4.30102 20.4754 4.28328 20.4608C4.26553 20.4462 4.25029 20.4262 4.23328 20.4108C4.21627 20.3954 4.18951 20.3871 4.17328 20.3708C4.15705 20.3546 4.14869 20.3378 4.13328 20.3208C4.11787 20.3038 4.09785 20.2786 4.08328 20.2608C4.06873 20.2431 4.05696 20.2292 4.04328 20.2108C4.02961 20.1924 4.01604 20.1799 4.00328 20.1608C3.99053 20.1417 3.97509 20.1205 3.96328 20.1008C3.95149 20.0811 3.94411 20.0611 3.93328 20.0408C3.92245 20.0206 3.90328 19.9916 3.90328 19.9708C3.90328 19.9501 3.87328 19.932 3.87328 19.9108C3.87328 19.8896 3.84328 19.8724 3.84328 19.8508C3.84328 19.8292 3.82328 19.8028 3.82328 19.7808C3.82328 19.7589 3.80328 19.7431 3.80328 19.7208C3.80328 19.6986 3.79328 19.6733 3.79328 19.6508C3.79328 19.6283 3.78328 19.6035 3.78328 19.5808C3.78328 19.5581 3.77328 19.5437 3.77328 19.5208C3.77328 19.498 3.76328 19.4638 3.76328 19.4408L3.76328 19L3.75978 19L3.75978 16L3.76328 16L3.76328 15.1708L5.16328 15.1708L5.16328 13.7708L3.76328 13.7708L3.76328 13L3.75978 13L3.75978 10L3.76328 10L3.76328 9.56082L5.16328 9.56082L5.16328 8.16082L3.76328 8.16082L3.76328 3.83082C3.76328 3.80787 3.77328 3.78366 3.77328 3.76082C3.77328 3.73796 3.78328 3.71352 3.78328 3.69082C3.78328 3.66812 3.79328 3.64333 3.79328 3.62082C3.79328 3.59831 3.80328 3.58309 3.80328 3.56082C3.80328 3.53855 3.82328 3.51278 3.82328 3.49082C3.82328 3.46884 3.84328 3.44243 3.84328 3.42082C3.84328 3.39921 3.87328 3.38203 3.87328 3.36082C3.87328 3.33963 3.90328 3.32157 3.90328 3.30082C3.90328 3.28007 3.92245 3.26105 3.93328 3.24082C3.94411 3.22057 3.95149 3.19052 3.96328 3.17082C3.97509 3.15114 3.99053 3.13992 4.00328 3.12082C4.01604 3.10174 4.02961 3.07926 4.04328 3.06082C4.05696 3.04238 4.06873 3.02856 4.08328 3.01082C4.09785 2.99307 4.11787 2.97783 4.13328 2.96082C4.14869 2.94381 4.15705 2.91705 4.17328 2.90082C4.18951 2.88459 4.21627 2.87623 4.23328 2.86082C4.25029 2.84541 4.26553 2.82539 4.28328 2.81082C4.30102 2.79627 4.31484 2.7845 4.33328 2.77082C4.35172 2.75714 4.37419 2.74358 4.39328 2.73082C4.41236 2.71807 4.4236 2.70263 4.44328 2.69082C4.46298 2.67903 4.49303 2.67165 4.51328 2.66082C4.53352 2.64999 4.55253 2.63082 4.57328 2.63082C4.59404 2.63082 4.61209 2.60082 4.63328 2.60082C4.6545 2.60082 4.67167 2.57082 4.69328 2.57082C4.71489 2.57082 4.7413 2.55082 4.76328 2.55082C4.78524 2.55082 4.81102 2.53082 4.83328 2.53082C4.85555 2.53082 4.87077 2.52082 4.89328 2.52082C4.91579 2.52082 4.94058 2.51082 4.96328 2.51082C4.98599 2.51082 5.01042 2.50082 5.03328 2.50082C5.05612 2.50082 5.08034 2.49082 5.10328 2.49082Z" fill-rule="evenodd"  fill="#034FA1" ></path></svg>