<svg xmlns="http://www.w3.org/2000/svg" xmlns:xlink="http://www.w3.org/1999/xlink" width="24" height="24" viewBox="0 0 24 24" fill="none"><path d="M5.30328 1.09082L5.03328 1.09082C4.98743 1.09082 4.93898 1.10082 4.89328 1.10082C4.84759 1.10082 4.79871 1.12082 4.75328 1.12082C4.70787 1.12082 4.66832 1.14082 4.62328 1.14082C4.57827 1.14082 4.52781 1.15967 4.48328 1.17082C4.43873 1.18198 4.3972 1.19749 4.35328 1.21082C4.30935 1.22415 4.26651 1.23535 4.22328 1.25082C4.18006 1.26629 4.13569 1.28325 4.09328 1.30082C4.05085 1.31839 4.01477 1.34119 3.97328 1.36082C3.93177 1.38045 3.88377 1.39918 3.84328 1.42082C3.8028 1.44246 3.76266 1.46722 3.72328 1.49082C3.68391 1.51442 3.65146 1.53531 3.61328 1.56082C3.5751 1.58633 3.53016 1.61347 3.49328 1.64082C3.45642 1.66817 3.42877 1.7017 3.39328 1.73082C3.35779 1.75994 3.31731 1.78999 3.28328 1.82082C3.24927 1.85165 3.21574 1.87836 3.18328 1.91082C3.15082 1.94328 3.12411 1.97681 3.09328 2.01082C3.06245 2.04485 3.0324 2.08533 3.00328 2.12082C2.97416 2.15631 2.94063 2.18396 2.91328 2.22082C2.88593 2.2577 2.85879 2.30264 2.83328 2.34082C2.80778 2.379 2.78688 2.41144 2.76328 2.45082C2.73968 2.4902 2.71492 2.53034 2.69328 2.57082C2.67164 2.6113 2.65291 2.65931 2.63328 2.70082C2.61365 2.74231 2.59085 2.77839 2.57328 2.82082C2.55571 2.86323 2.53875 2.9076 2.52328 2.95082C2.50781 2.99405 2.49661 3.03689 2.48328 3.08082C2.46995 3.12474 2.45444 3.16627 2.44328 3.21082C2.43213 3.25535 2.41328 3.30581 2.41328 3.35082C2.41328 3.39586 2.39328 3.43541 2.39328 3.48082C2.39328 3.52625 2.37328 3.57513 2.37328 3.62082C2.37328 3.66651 2.36328 3.71497 2.36328 3.76082L2.36328 19.5208C2.36328 19.5667 2.37328 19.6051 2.37328 19.6508C2.37328 19.6965 2.39328 19.7454 2.39328 19.7908C2.39328 19.8363 2.41328 19.8758 2.41328 19.9208C2.41328 19.9659 2.43213 20.0163 2.44328 20.0608C2.45444 20.1054 2.46995 20.1469 2.48328 20.1908C2.49661 20.2348 2.50782 20.2776 2.52328 20.3208C2.53875 20.364 2.55571 20.4084 2.57328 20.4508C2.59085 20.4932 2.61365 20.5293 2.63328 20.5708C2.65291 20.6123 2.67164 20.6603 2.69328 20.7008C2.71492 20.7413 2.73968 20.7814 2.76328 20.8208C2.78688 20.8602 2.80778 20.8926 2.83328 20.9308C2.85879 20.969 2.88593 21.0139 2.91328 21.0508C2.94063 21.0877 2.97416 21.1253 3.00328 21.1608C3.0324 21.1963 3.06245 21.2268 3.09328 21.2608C3.12411 21.2948 3.15082 21.3284 3.18328 21.3608C3.21574 21.3933 3.24927 21.42 3.28328 21.4508C3.31731 21.4817 3.35779 21.5117 3.39328 21.5408C3.42877 21.5699 3.45642 21.6035 3.49328 21.6308C3.53016 21.6582 3.5751 21.6853 3.61328 21.7108C3.65146 21.7363 3.68391 21.7572 3.72328 21.7808C3.76266 21.8044 3.8028 21.8292 3.84328 21.8508C3.88377 21.8724 3.93177 21.8912 3.97328 21.9108C4.01477 21.9304 4.05085 21.9533 4.09328 21.9708C4.13569 21.9884 4.18006 22.0053 4.22328 22.0208C4.26651 22.0363 4.30935 22.0475 4.35328 22.0608C4.3972 22.0741 4.43873 22.0897 4.48328 22.1008C4.52781 22.112 4.57827 22.1308 4.62328 22.1308C4.66832 22.1308 4.70787 22.1508 4.75328 22.1508C4.79871 22.1508 4.84759 22.1708 4.89328 22.1708C4.93898 22.1708 4.98743 22.1808 5.03328 22.1808L19.3333 22.1808C19.3791 22.1808 19.4276 22.1708 19.4733 22.1708C19.519 22.1708 19.5579 22.1508 19.6033 22.1508C19.6487 22.1508 19.6983 22.1308 19.7433 22.1308C19.7883 22.1308 19.8287 22.112 19.8733 22.1008C19.9178 22.0897 19.9693 22.0741 20.0133 22.0608C20.0572 22.0475 20.09 22.0363 20.1333 22.0208C20.1765 22.0053 20.2309 21.9884 20.2733 21.9708C20.3157 21.9533 20.3518 21.9304 20.3933 21.9108C20.4348 21.8912 20.4728 21.8724 20.5133 21.8508C20.5538 21.8292 20.5939 21.8044 20.6333 21.7808C20.6727 21.7572 20.7151 21.7363 20.7533 21.7108C20.7915 21.6853 20.8264 21.6581 20.8633 21.6308C20.9001 21.6035 20.9378 21.5699 20.9733 21.5408C21.0088 21.5117 21.0492 21.4817 21.0833 21.4508C21.1173 21.42 21.1408 21.3933 21.1733 21.3608C21.2057 21.3284 21.2424 21.2949 21.2733 21.2608C21.3041 21.2268 21.3342 21.1963 21.3633 21.1608C21.3924 21.1253 21.416 21.0877 21.4433 21.0508C21.4706 21.014 21.4978 20.969 21.5233 20.9308C21.5488 20.8926 21.5797 20.8602 21.6033 20.8208C21.6269 20.7814 21.6517 20.7413 21.6733 20.7008C21.6949 20.6603 21.7136 20.6123 21.7333 20.5708C21.7529 20.5293 21.7657 20.4932 21.7833 20.4508C21.8009 20.4084 21.8178 20.364 21.8333 20.3208C21.8487 20.2776 21.87 20.2348 21.8833 20.1908C21.8966 20.1469 21.9021 20.1054 21.9133 20.0608C21.9244 20.0163 21.9433 19.9658 21.9433 19.9208C21.9433 19.8758 21.9733 19.8363 21.9733 19.7908C21.9733 19.7454 21.9833 19.6965 21.9833 19.6508C21.9833 19.6051 21.9933 19.5667 21.9933 19.5208C21.9933 19.4749 22.0033 19.4267 22.0033 19.3808C22.0033 19.3349 21.9933 19.2867 21.9933 19.2408C21.9933 19.195 21.9833 19.1465 21.9833 19.1008C21.9833 19.0551 21.9733 19.0062 21.9733 18.9608C21.9733 18.9154 21.9433 18.8759 21.9433 18.8308C21.9433 18.7858 21.9244 18.7354 21.9133 18.6908C21.9021 18.6463 21.8966 18.6047 21.8833 18.5608C21.87 18.5169 21.8487 18.4741 21.8333 18.4308C21.8178 18.3876 21.8009 18.3432 21.7833 18.3008C21.7657 18.2584 21.7529 18.2223 21.7333 18.1808C21.7136 18.1393 21.6949 18.0913 21.6733 18.0508C21.6517 18.0103 21.6269 17.9702 21.6033 17.9308C21.5797 17.8914 21.5488 17.859 21.5233 17.8208C21.4978 17.7826 21.4706 17.7377 21.4433 17.7008C21.4159 17.664 21.3924 17.6363 21.3633 17.6008C21.3342 17.5653 21.3041 17.5249 21.2733 17.4908C21.2424 17.4568 21.2057 17.4233 21.1733 17.3908C21.1408 17.3584 21.1173 17.3317 21.0833 17.3008C21.0493 17.27 21.0088 17.2399 20.9733 17.2108C20.9378 17.1817 20.9002 17.1482 20.8633 17.1208C20.8264 17.0935 20.7915 17.0663 20.7533 17.0408C20.7151 17.0153 20.6727 16.9944 20.6333 16.9708C20.5939 16.9472 20.5538 16.9224 20.5133 16.9008C20.4728 16.8792 20.4348 16.8605 20.3933 16.8408C20.3518 16.8212 20.3157 16.7984 20.2733 16.7808C20.2309 16.7633 20.1765 16.7463 20.1333 16.7308C20.09 16.7154 20.0572 16.7041 20.0133 16.6908C19.9694 16.6775 19.9178 16.662 19.8733 16.6508C19.8287 16.6397 19.7883 16.6208 19.7433 16.6208C19.6982 16.6208 19.6487 16.6008 19.6033 16.6008C19.5579 16.6008 19.519 16.5808 19.4733 16.5808C19.4276 16.5808 19.3791 16.5708 19.3333 16.5708L7.97328 16.5708L7.97328 3.76082C7.97328 3.71497 7.96328 3.66651 7.96328 3.62082C7.96328 3.57513 7.94328 3.52625 7.94328 3.48082C7.94328 3.43541 7.92328 3.39586 7.92328 3.35082C7.92328 3.30581 7.90444 3.25535 7.89328 3.21082C7.88213 3.16627 7.86663 3.12474 7.85328 3.08082C7.83996 3.03689 7.82873 2.99405 7.81328 2.95082C7.79781 2.9076 7.78084 2.86323 7.76328 2.82082C7.74571 2.77839 7.7229 2.74231 7.70328 2.70082C7.68364 2.65931 7.66491 2.6113 7.64328 2.57082C7.62165 2.53034 7.59688 2.4902 7.57328 2.45082C7.54968 2.41144 7.52879 2.379 7.50328 2.34082C7.47777 2.30264 7.45061 2.2577 7.42328 2.22082C7.39593 2.18396 7.36241 2.15631 7.33328 2.12082C7.30416 2.08533 7.27412 2.04485 7.24328 2.01082C7.21245 1.97681 7.18574 1.94328 7.15328 1.91082C7.12082 1.87836 7.08729 1.85165 7.05328 1.82082C7.01925 1.78999 6.98876 1.75994 6.95328 1.73082C6.9178 1.70169 6.88014 1.66817 6.84328 1.64082C6.8064 1.61347 6.76146 1.58633 6.72328 1.56082C6.6851 1.53531 6.65266 1.51442 6.61328 1.49082C6.5739 1.46722 6.53376 1.44246 6.49328 1.42082C6.4528 1.39918 6.40479 1.38045 6.36328 1.36082C6.32179 1.34119 6.28571 1.31839 6.24328 1.30082C6.20087 1.28325 6.1565 1.26629 6.11328 1.25082C6.07004 1.23535 6.02722 1.22415 5.98328 1.21082C5.93936 1.19749 5.89784 1.18198 5.85328 1.17082C5.80875 1.15967 5.7583 1.14082 5.71328 1.14082C5.66824 1.14082 5.62871 1.12082 5.58328 1.12082C5.53787 1.12082 5.48898 1.10082 5.44328 1.10082C5.39759 1.10082 5.34913 1.09082 5.30328 1.09082ZM5.10328 2.49082L5.23328 2.49082C5.25623 2.49082 5.28045 2.50082 5.30328 2.50082C5.32614 2.50082 5.35058 2.51082 5.37328 2.51082C5.39599 2.51082 5.42077 2.52082 5.44328 2.52082C5.46579 2.52082 5.49101 2.53082 5.51328 2.53082C5.53555 2.53082 5.55132 2.55082 5.57328 2.55082C5.59526 2.55082 5.62167 2.57082 5.64328 2.57082C5.66489 2.57082 5.68207 2.60082 5.70328 2.60082C5.72447 2.60082 5.74253 2.63082 5.76328 2.63082C5.78404 2.63082 5.81305 2.64999 5.83328 2.66082C5.85353 2.67165 5.87358 2.67903 5.89328 2.69082C5.91296 2.70263 5.93419 2.71807 5.95328 2.73082C5.97237 2.74358 5.98485 2.75714 6.00328 2.77082C6.02171 2.7845 6.03555 2.79627 6.05328 2.81082C6.07103 2.82539 6.09627 2.84541 6.11328 2.86082C6.13029 2.87623 6.14704 2.88459 6.16328 2.90082C6.17952 2.91705 6.18787 2.94381 6.20328 2.96082C6.21869 2.97783 6.23871 2.99307 6.25328 3.01082C6.26783 3.02856 6.27961 3.04238 6.29328 3.06082C6.30696 3.07926 6.32053 3.10174 6.33328 3.12082C6.34604 3.13992 6.36147 3.15114 6.37328 3.17082C6.38507 3.19052 6.39246 3.22057 6.40328 3.24082C6.41411 3.26105 6.43328 3.28007 6.43328 3.30082C6.43328 3.32157 6.46328 3.33963 6.46328 3.36082C6.46328 3.38203 6.49328 3.39921 6.49328 3.42082C6.49328 3.44243 6.51328 3.46884 6.51328 3.49082C6.51328 3.51278 6.53328 3.53855 6.53328 3.56082C6.53328 3.58309 6.54328 3.59831 6.54328 3.62082C6.54328 3.64333 6.55328 3.66812 6.55328 3.69082C6.55328 3.71352 6.56328 3.73796 6.56328 3.76082C6.56328 3.78366 6.57328 3.80787 6.57328 3.83082L6.57328 17.9708L19.2633 17.9708C19.2862 17.9708 19.3104 17.9808 19.3333 17.9808C19.3561 17.9808 19.3806 17.9908 19.4033 17.9908C19.426 17.9908 19.4508 18.0008 19.4733 18.0008C19.4958 18.0008 19.511 18.0108 19.5333 18.0108C19.5555 18.0108 19.5813 18.0408 19.6033 18.0408C19.6253 18.0408 19.6417 18.0508 19.6633 18.0508C19.6849 18.0508 19.7121 18.0808 19.7333 18.0808C19.7545 18.0808 19.7725 18.1108 19.7933 18.1108C19.814 18.1108 19.8331 18.13 19.8533 18.1408C19.8735 18.1516 19.8936 18.159 19.9133 18.1708C19.933 18.1826 19.9542 18.1981 19.9733 18.2108C19.9924 18.2236 20.0149 18.2371 20.0333 18.2508C20.0517 18.2645 20.0656 18.2763 20.0833 18.2908C20.101 18.3054 20.1163 18.3254 20.1333 18.3408C20.1503 18.3562 20.167 18.3646 20.1833 18.3808C20.1995 18.3971 20.2179 18.4238 20.2333 18.4408C20.2487 18.4578 20.2687 18.4731 20.2833 18.4908C20.2978 18.5085 20.3096 18.5224 20.3233 18.5408C20.337 18.5592 20.3505 18.5817 20.3633 18.6008C20.376 18.6199 20.3815 18.6311 20.3933 18.6508C20.4051 18.6705 20.4225 18.7006 20.4333 18.7208C20.4441 18.741 20.4633 18.7601 20.4633 18.7808C20.4633 18.8016 20.4933 18.8196 20.4933 18.8408C20.4933 18.862 20.5133 18.8792 20.5133 18.9008C20.5133 18.9224 20.5333 18.9488 20.5333 18.9708C20.5333 18.9928 20.5533 19.0186 20.5533 19.0408C20.5533 19.0631 20.5733 19.0783 20.5733 19.1008C20.5733 19.1233 20.5833 19.1481 20.5833 19.1708C20.5833 19.1935 20.5933 19.218 20.5933 19.2408L20.5933 19.5208C20.5933 19.5437 20.5833 19.5581 20.5833 19.5808C20.5833 19.6035 20.5733 19.6283 20.5733 19.6508C20.5733 19.6733 20.5533 19.6986 20.5533 19.7208C20.5533 19.7431 20.5333 19.7589 20.5333 19.7808C20.5333 19.8028 20.5133 19.8292 20.5133 19.8508C20.5133 19.8724 20.4933 19.8896 20.4933 19.9108C20.4933 19.932 20.4633 19.9501 20.4633 19.9708C20.4633 19.9916 20.4441 20.0206 20.4333 20.0408C20.4225 20.0611 20.4051 20.0811 20.3933 20.1008C20.3815 20.1205 20.376 20.1417 20.3633 20.1608C20.3505 20.1799 20.337 20.1924 20.3233 20.2108C20.3096 20.2292 20.2978 20.2431 20.2833 20.2608C20.2687 20.2786 20.2487 20.3038 20.2333 20.3208C20.2179 20.3378 20.1995 20.3546 20.1833 20.3708C20.167 20.3871 20.1503 20.3954 20.1333 20.4108C20.1163 20.4262 20.101 20.4462 20.0833 20.4608C20.0656 20.4754 20.0517 20.4871 20.0333 20.5008C20.0149 20.5145 19.9924 20.5281 19.9733 20.5408C19.9542 20.5536 19.933 20.569 19.9133 20.5808C19.8936 20.5926 19.8735 20.6 19.8533 20.6108C19.8331 20.6216 19.814 20.6408 19.7933 20.6408C19.7725 20.6408 19.7545 20.6708 19.7333 20.6708C19.7121 20.6708 19.6849 20.7008 19.6633 20.7008C19.6417 20.7008 19.6253 20.7208 19.6033 20.7208C19.5813 20.7208 19.5555 20.7408 19.5333 20.7408C19.511 20.7408 19.4958 20.7508 19.4733 20.7508C19.4508 20.7508 19.426 20.7608 19.4033 20.7608C19.3806 20.7608 19.3561 20.7708 19.3333 20.7708C19.3104 20.7708 19.2862 20.7808 19.2633 20.7808L16.3933 20.7808L16.3933 19.3808L14.9833 19.3808L14.9833 20.7808L13.5833 20.7808L13.5833 20.78L12.1833 20.78L12.1833 20.7808L10.7733 20.7808L10.7733 19.3808L9.37328 19.3808L9.37328 20.7808L7.97328 20.7808L7.97328 20.78L6.57328 20.78L6.57328 20.7808L5.10328 20.7808C5.08034 20.7808 5.05612 20.7708 5.03328 20.7708C5.01042 20.7708 4.98599 20.7608 4.96328 20.7608C4.94058 20.7608 4.91579 20.7508 4.89328 20.7508C4.87077 20.7508 4.85555 20.7408 4.83328 20.7408C4.81102 20.7408 4.78524 20.7208 4.76328 20.7208C4.7413 20.7208 4.71489 20.7008 4.69328 20.7008C4.67167 20.7008 4.6545 20.6708 4.63328 20.6708C4.61209 20.6708 4.59404 20.6408 4.57328 20.6408C4.55253 20.6408 4.53352 20.6216 4.51328 20.6108C4.49303 20.6 4.46298 20.5926 4.44328 20.5808C4.4236 20.569 4.41238 20.5536 4.39328 20.5408C4.3742 20.5281 4.35172 20.5145 4.33328 20.5008C4.31484 20.4871 4.30102 20.4754 4.28328 20.4608C4.26553 20.4462 4.25029 20.4262 4.23328 20.4108C4.21627 20.3954 4.18951 20.3871 4.17328 20.3708C4.15705 20.3546 4.14869 20.3378 4.13328 20.3208C4.11787 20.3038 4.09785 20.2786 4.08328 20.2608C4.06873 20.2431 4.05696 20.2292 4.04328 20.2108C4.02961 20.1924 4.01604 20.1799 4.00328 20.1608C3.99053 20.1417 3.97509 20.1205 3.96328 20.1008C3.95149 20.0811 3.94411 20.0611 3.93328 20.0408C3.92245 20.0206 3.90328 19.9916 3.90328 19.9708C3.90328 19.9501 3.87328 19.932 3.87328 19.9108C3.87328 19.8896 3.84328 19.8724 3.84328 19.8508C3.84328 19.8292 3.82328 19.8028 3.82328 19.7808C3.82328 19.7589 3.80328 19.7431 3.80328 19.7208C3.80328 19.6986 3.79328 19.6733 3.79328 19.6508C3.79328 19.6283 3.78328 19.6035 3.78328 19.5808C3.78328 19.5581 3.77328 19.5437 3.77328 19.5208C3.77328 19.498 3.76328 19.4638 3.76328 19.4408L3.76328 19L3.75978 19L3.75978 16L3.76328 16L3.76328 15.1708L5.16328 15.1708L5.16328 13.7708L3.76328 13.7708L3.76328 13L3.75978 13L3.75978 10L3.76328 10L3.76328 9.56082L5.16328 9.56082L5.16328 8.16082L3.76328 8.16082L3.76328 3.83082C3.76328 3.80787 3.77328 3.78366 3.77328 3.76082C3.77328 3.73796 3.78328 3.71352 3.78328 3.69082C3.78328 3.66812 3.79328 3.64333 3.79328 3.62082C3.79328 3.59831 3.80328 3.58309 3.80328 3.56082C3.80328 3.53855 3.82328 3.51278 3.82328 3.49082C3.82328 3.46884 3.84328 3.44243 3.84328 3.42082C3.84328 3.39921 3.87328 3.38203 3.87328 3.36082C3.87328 3.33963 3.90328 3.32157 3.90328 3.30082C3.90328 3.28007 3.92245 3.26105 3.93328 3.24082C3.94411 3.22057 3.95149 3.19052 3.96328 3.17082C3.97509 3.15114 3.99053 3.13992 4.00328 3.12082C4.01604 3.10174 4.02961 3.07926 4.04328 3.06082C4.05696 3.04238 4.06873 3.02856 4.08328 3.01082C4.09785 2.99307 4.11787 2.97783 4.13328 2.96082C4.14869 2.94381 4.15705 2.91705 4.17328 2.90082C4.18951 2.88459 4.21627 2.87623 4.23328 2.86082C4.25029 2.84541 4.26553 2.82539 4.28328 2.81082C4.30102 2.79627 4.31484 2.7845 4.33328 2.77082C4.35172 2.75714 4.37419 2.74358 4.39328 2.73082C4.41236 2.71807 4.4236 2.70263 4.44328 2.69082C4.46298 2.67903 4.49303 2.67165 4.51328 2.66082C4.53352 2.64999 4.55253 2.63082 4.57328 2.63082C4.59404 2.63082 4.61209 2.60082 4.63328 2.60082C4.6545 2.60082 4.67167 2.57082 4.69328 2.57082C4.71489 2.57082 4.7413 2.55082 4.76328 2.55082C4.78524 2.55082 4.81102 2.53082 4.83328 2.53082C4.85555 2.53082 4.87077 2.52082 4.89328 2.52082C4.91579 2.52082 4.94058 2.51082 4.96328 2.51082C4.98599 2.51082 5.01042 2.50082 5.03328 2.50082C5.05612 2.50082 5.08034 2.49082 5.10328 2.49082Z" fill-rule="evenodd"  fill="#034FA1" ></path><path d="M14.1718 14.4759C14.4269 14.618 14.7141 14.6897 15 14.6897C15.2859 14.6897 15.5731 14.618 15.8282 14.4759L19.1718 12.6048C19.6833 12.3194 20 11.7869 20 11.2161L20 7.47386C20 6.9031 19.682 6.37054 19.1718 6.08516L15.827 4.21404C15.3167 3.92865 14.682 3.92865 14.1718 4.21404L10.8282 6.08516C10.3167 6.37054 10 6.9031 10 7.47386L10 11.2161C10 11.7869 10.318 12.3194 10.8282 12.6048L14.1718 14.4759ZM14.7252 5.14183C14.8102 5.09407 14.9051 5.07019 15 5.07019C15.0949 5.07019 15.1898 5.09407 15.2748 5.14183L18.6197 7.01295C18.7898 7.10728 18.8945 7.28401 18.8945 7.47386L18.8945 11.2161C18.8945 11.406 18.7898 11.5827 18.6197 11.677L15.2748 13.5481C15.1047 13.6425 14.8953 13.6425 14.7252 13.5481L11.3803 11.677C11.2103 11.5827 11.1055 11.406 11.1055 11.2161L11.1055 7.47386C11.1055 7.28401 11.2103 7.10728 11.3803 7.01295L14.7252 5.14183ZM12.8989 8.6947L14.5566 9.53787L14.5566 11.4443C14.5566 11.7674 14.8304 12.0306 15.1666 12.0306C15.5028 12.0306 15.7733 11.7661 15.7733 11.4443L15.7733 9.56548L17.3789 8.73678C17.669 8.57396 17.7684 8.21546 17.5989 7.93669C17.4295 7.65792 17.0557 7.56654 16.7656 7.72936L15.1956 8.52622L13.5089 7.68084C13.2175 7.51933 12.847 7.61453 12.6789 7.8946C12.5108 8.17468 12.6074 8.53318 12.8989 8.6947Z" fill-rule="evenodd"  fill="#CC4E1D" ></path></svg>