<svg xmlns="http://www.w3.org/2000/svg" xmlns:xlink="http://www.w3.org/1999/xlink" width="24" height="24" viewBox="0 0 24 24" fill="none"><path d="M13.0351 18.5595C12.7192 18.1785 12.4402 17.7659 12.2036 17.3271C9.0432 17.3169 6.47302 14.7406 6.47302 11.5778C6.47302 8.40889 9.05335 5.82856 12.2223 5.82856C13.497 5.82856 14.6764 6.24606 15.631 6.95144C16.0726 6.74376 16.5377 6.57776 17.0212 6.45852C16.8598 6.3068 16.6912 6.16277 16.516 6.02705L16.881 5.29242L16.8947 5.29242C17.1366 5.29242 17.3807 5.23538 17.6042 5.12587C17.9875 4.93423 18.2681 4.60798 18.4096 4.20645C18.5442 3.80491 18.5191 3.36915 18.3274 2.98587C17.9282 2.20105 16.9723 1.87936 16.1829 2.26721C15.3958 2.6619 15.0741 3.61555 15.462 4.40721C15.5258 4.54182 15.6148 4.66274 15.7175 4.77225L15.4369 5.33348C14.4718 4.84069 13.3813 4.55322 12.2245 4.55322C11.4831 4.55322 10.769 4.6673 10.0982 4.88632L9.93855 4.61711C10.048 4.48934 10.137 4.33648 10.2009 4.16994C10.5157 3.34634 10.1051 2.42235 9.2815 2.10751C8.46245 1.79039 7.54071 2.19877 7.22587 3.01781C7.07302 3.4125 7.08442 3.85282 7.25782 4.24067C7.43121 4.63764 7.74376 4.93651 8.14531 5.0848C8.33011 5.16237 8.52176 5.19431 8.7134 5.19431C8.7385 5.19431 8.77045 5.18747 8.79551 5.18747L8.9096 5.3928C8.23201 5.75783 7.62516 6.2301 7.10267 6.7845L5.14748 5.25135C5.19767 5.04602 5.21136 4.82928 5.17257 4.61254C5.10869 4.19048 4.87826 3.82088 4.52692 3.57677C4.18469 3.32809 3.75578 3.22998 3.33827 3.30299C2.91621 3.36687 2.54661 3.5973 2.30249 3.94864C2.05381 4.29314 1.95115 4.71521 2.02187 5.13728C2.17017 6.00651 2.9915 6.59285 3.86073 6.4537C4.04553 6.42175 4.21207 6.35785 4.37178 6.2689L6.31332 7.79519C5.58323 8.92449 5.19539 10.2386 5.19539 11.5824C5.19539 12.5589 5.39388 13.4851 5.75662 14.3361L5.27752 14.5346C5.09272 14.3749 4.87598 14.2471 4.62502 14.1901C4.21664 14.0829 3.78088 14.1445 3.41813 14.3635C3.05309 14.5802 2.79301 14.9247 2.6835 15.3399C2.57399 15.7552 2.63787 16.1841 2.85689 16.5468C3.07591 16.9096 3.41813 17.172 3.83335 17.2815C3.9748 17.3134 4.10713 17.3317 4.23489 17.3317C4.96268 17.3294 5.5992 16.8366 5.77944 16.1316C5.81822 15.9856 5.82507 15.8373 5.82507 15.6913L6.36807 15.4609C7.33541 16.9119 8.80465 17.9522 10.4929 18.3857L10.4108 18.6275C10.169 18.6595 9.9317 18.7416 9.7218 18.8831C9.37045 19.1249 9.1332 19.4899 9.0579 19.9052C8.98031 20.3272 9.0716 20.7493 9.30656 21.0984C9.5484 21.4497 9.91345 21.687 10.3286 21.7691C10.4245 21.7874 10.5271 21.7942 10.623 21.7942C10.9424 21.7942 11.2549 21.6984 11.5241 21.5136C11.8755 21.2718 12.1128 20.9067 12.188 20.4915C12.2656 20.0763 12.1744 19.6474 11.9394 19.2983C11.8572 19.1774 11.7477 19.0679 11.6382 18.9789L11.7728 18.5819C11.9188 18.5887 12.074 18.607 12.22 18.607C12.4957 18.607 12.7677 18.5909 13.0351 18.5595ZM13.3633 8.59364C13.009 8.45807 12.6244 8.38379 12.2225 8.38379C10.459 8.38379 9.02849 9.81428 9.02849 11.5778C9.02849 13.0422 10.0147 14.2768 11.3589 14.6537C11.3244 14.3612 11.3066 14.0636 11.3066 13.7618C11.3066 13.596 11.312 13.4314 11.3225 13.2683C10.719 12.9447 10.3061 12.3071 10.3061 11.5778C10.3061 10.5238 11.1685 9.66139 12.2225 9.66139C12.3194 9.66139 12.4146 9.66866 12.5076 9.6827C12.7593 9.29347 13.046 8.92896 13.3633 8.59364ZM8.41681 3.72278C8.38486 3.64521 8.3826 3.55851 8.40996 3.48094C8.46016 3.35318 8.58335 3.27561 8.71111 3.27561C8.7499 3.27561 8.7887 3.28246 8.8252 3.29386C8.9347 3.33265 8.9849 3.41478 9.00315 3.46041C9.07386 3.6224 8.99856 3.81176 8.8366 3.88248C8.75901 3.9167 8.67231 3.9167 8.59476 3.88704C8.51491 3.85967 8.45101 3.80035 8.41681 3.72278ZM16.7441 3.41478C16.8194 3.37828 16.9084 3.37371 16.986 3.40109C17.0316 3.41478 17.1206 3.45813 17.1708 3.5608C17.2506 3.71594 17.1913 3.90529 17.0362 3.98514C17.0339 3.98514 17.0316 3.98743 17.0293 3.98743C16.8742 4.06728 16.6848 4.00796 16.605 3.85282C16.605 3.85054 16.6027 3.84826 16.6027 3.84598C16.5274 3.69084 16.589 3.4992 16.7441 3.41478ZM3.28808 4.92282C3.26983 4.80875 3.31318 4.72434 3.33827 4.68555C3.36337 4.64677 3.4341 4.57604 3.54817 4.55779C3.56642 4.55094 3.58695 4.55094 3.59836 4.55094C3.68734 4.55094 3.75122 4.58973 3.78316 4.60798C3.82195 4.63308 3.89267 4.7038 3.91092 4.81331C3.93602 4.9867 3.82195 5.15097 3.64855 5.18291C3.47973 5.21256 3.31546 5.09621 3.28808 4.92282ZM4.54517 15.8054C4.52008 15.9149 4.44251 15.9787 4.39916 15.997C4.35353 16.0221 4.26455 16.0609 4.15732 16.0289C3.98849 15.9879 3.88355 15.8168 3.92461 15.6457C3.92461 15.6434 3.92689 15.6411 3.92689 15.6388C3.96111 15.4974 4.08659 15.397 4.23261 15.397C4.2577 15.397 4.2828 15.397 4.31018 15.4107C4.41969 15.4358 4.48357 15.5133 4.50867 15.5567C4.53833 15.6091 4.57711 15.6981 4.54517 15.8054ZM10.9401 20.2588C10.9332 20.309 10.9013 20.4002 10.8055 20.4641C10.7097 20.528 10.6138 20.5212 10.5682 20.5143C10.4838 20.5006 10.4085 20.4527 10.3629 20.3797C10.299 20.2839 10.3058 20.1881 10.3127 20.1424C10.3195 20.0968 10.3515 20.001 10.4473 19.9371C10.5157 19.8892 10.6001 19.8709 10.6846 19.8869C10.7347 19.8938 10.826 19.9257 10.8899 20.0215C10.9515 20.1173 10.9515 20.2132 10.9401 20.2588Z" stroke="rgba(3, 79, 161, 1)" stroke-width="0.2"    fill-rule="evenodd"  fill="#034FA1" ></path><path     fill="#CC4E1D"  d="M16.7762 8.41724L21.0823 8.41724C21.5886 8.41724 21.9991 8.8277 21.9991 9.33403L21.9991 9.33403C21.9991 9.84035 21.5886 10.2508 21.0823 10.2508L16.7762 10.2508C16.2698 10.2508 15.8594 9.84035 15.8594 9.33403L15.8594 9.33403C15.8594 8.8277 16.2698 8.41724 16.7762 8.41724Z"></path><path     fill="#CC4E1D"  d="M13.2133 11.5842L21.0835 11.5842C21.5897 11.5842 22 11.9945 22 12.5007L22 12.5007C22 13.0069 21.5897 13.4172 21.0835 13.4172L13.2133 13.4172C12.7072 13.4172 12.2969 13.0069 12.2969 12.5007L12.2969 12.5007C12.2969 11.9945 12.7072 11.5842 13.2133 11.5842Z"></path><path     fill="#CC4E1D"  d="M15.1928 14.7512L21.0836 14.7512C21.5897 14.7512 22.0001 15.1615 22.0001 15.6677L22.0001 15.6677C22.0001 16.1738 21.5897 16.5842 21.0836 16.5842L15.1928 16.5842C14.6867 16.5842 14.2764 16.1738 14.2764 15.6677L14.2764 15.6677C14.2764 15.1615 14.6867 14.7512 15.1928 14.7512Z"></path></svg>