<svg xmlns="http://www.w3.org/2000/svg" xmlns:xlink="http://www.w3.org/1999/xlink" width="24" height="24" viewBox="0 0 24 24" fill="none"><path d="M17.6314 19.335L3.73245 19.335C1.86578 19.335 0.399902 17.8659 0.399902 15.9992L0.399902 5.33253C0.399902 3.46587 1.86578 2.00001 3.73245 2.00001L17.6314 2C19.498 2 20.9671 3.46586 20.9671 5.33253L20.9671 15.9992C20.9671 17.8659 19.498 19.335 17.6314 19.335ZM3.73245 3.33496C2.66578 3.33496 1.73481 4.26587 1.73481 5.33253L1.73481 15.9992C1.73481 17.0659 2.66578 18 3.73245 18L17.6314 18C18.698 18 19.6322 17.0659 19.6322 15.9992L19.6322 5.33253C19.6322 4.26586 18.698 3.33495 17.6314 3.33495L3.73245 3.33496Z" stroke="rgba(3, 79, 161, 1)" stroke-width="0.2"      fill="#034FA1" ></path><path d="M20.2992 21.9999L9.63249 21.9999C9.23249 21.9999 8.96582 21.7333 8.96582 21.3333C8.96582 20.9333 9.23249 20.6666 9.63249 20.6666L20.2992 20.6666C21.3658 20.6666 22.2992 19.7333 22.2992 18.6666L22.2992 7.99992C22.2992 7.59992 22.5658 7.33325 22.9658 7.33325C23.3658 7.33325 23.6325 7.59992 23.6325 7.99992L23.6325 18.6666C23.6325 20.5333 22.1658 21.9999 20.2992 21.9999Z" stroke="rgba(3, 79, 161, 1)" stroke-width="0.2"      fill="#034FA1" ></path><g ><path     fill="#D6330B"  d="M3.9241 8.13189Q4.4701 8.13189 4.9111 8.22639Q5.3521 8.32089 5.6636 8.58689Q5.9751 8.85289 6.1431 9.32889Q6.3111 9.80489 6.3111 10.5609Q6.3111 11.2679 6.1431 11.7334Q5.9751 12.1989 5.6636 12.4789Q5.3521 12.7589 4.9111 12.8744Q4.4701 12.9899 3.9241 12.9899L2.0621 12.9899L2.0621 8.13189L3.9241 8.13189ZM3.8401 11.7999Q4.1411 11.7999 4.3406 11.7439Q4.5401 11.6879 4.6556 11.5444Q4.7711 11.4009 4.8166 11.1629Q4.8621 10.9249 4.8621 10.5609Q4.8621 10.1829 4.8131 9.93439Q4.7641 9.68589 4.6451 9.54589Q4.5261 9.40589 4.3301 9.34989Q4.1341 9.29389 3.8401 9.29389L3.4551 9.29389L3.4551 11.7999L3.8401 11.7999ZM9.7971 12.9899L8.7961 11.3589L8.5231 11.3589L8.5231 12.9899L7.1301 12.9899L7.1301 8.13189L9.1041 8.13189Q10.0351 8.13189 10.5111 8.50989Q10.9871 8.88789 10.9871 9.75589Q10.9871 10.3439 10.7841 10.6974Q10.5811 11.0509 10.1401 11.2119L11.4421 12.9899L9.7971 12.9899ZM8.5231 10.3649L8.8591 10.3649Q9.2861 10.3649 9.4506 10.2319Q9.6151 10.0989 9.6151 9.75589Q9.6151 9.58789 9.5766 9.47939Q9.5381 9.37089 9.4506 9.30789Q9.3631 9.24489 9.2161 9.22039Q9.0691 9.19589 8.8591 9.19589L8.5231 9.19589L8.5231 10.3649ZM14.2211 13.0599Q13.6331 13.0599 13.1746 12.9549Q12.7161 12.8499 12.3976 12.5734Q12.0791 12.2969 11.9111 11.8104Q11.7431 11.3239 11.7431 10.5609Q11.7431 9.86089 11.9181 9.38139Q12.0931 8.90189 12.4151 8.60789Q12.7371 8.31389 13.1991 8.18789Q13.6611 8.06189 14.2351 8.06189Q14.4101 8.06189 14.5991 8.07589Q14.7881 8.08989 14.9666 8.11089Q15.1451 8.13189 15.2991 8.15989Q15.4531 8.18789 15.5651 8.22289L15.5651 9.43389Q15.2711 9.33589 14.9526 9.28689Q14.6341 9.23789 14.3541 9.23789Q14.0461 9.23789 13.8431 9.30789Q13.6401 9.37789 13.5141 9.53539Q13.3881 9.69289 13.3356 9.94489Q13.2831 10.1969 13.2831 10.5609Q13.2831 10.9389 13.3181 11.1979Q13.3531 11.4569 13.4616 11.6144Q13.5701 11.7719 13.7696 11.8384Q13.9691 11.9049 14.2911 11.9049Q14.4311 11.9049 14.4766 11.9049Q14.5221 11.9049 14.5991 11.8979L14.5991 11.1909L13.8851 11.1909L13.8851 10.0289L15.8801 10.0289L15.8801 12.8359Q15.7401 12.8779 15.5476 12.9199Q15.3551 12.9619 15.1346 12.9934Q14.9141 13.0249 14.6761 13.0424Q14.4381 13.0599 14.2211 13.0599ZM17.8751 13.0319Q17.6931 13.0319 17.5321 13.0249Q17.3711 13.0179 17.2171 13.0039Q17.0631 12.9899 16.9126 12.9689Q16.7621 12.9479 16.5941 12.9129L16.5941 11.8209Q16.9301 11.9189 17.2276 11.9679Q17.5251 12.0169 17.7841 12.0169Q18.0291 12.0169 18.1236 11.9784Q18.2181 11.9399 18.2181 11.7859Q18.2181 11.7089 18.1936 11.6599Q18.1691 11.6109 18.0991 11.5724Q18.0291 11.5339 17.9066 11.4954Q17.7841 11.4569 17.5881 11.4079Q17.2941 11.3309 17.1051 11.2469Q16.9161 11.1629 16.8111 11.0404Q16.7061 10.9179 16.6641 10.7534Q16.6221 10.5889 16.6221 10.3439Q16.6221 10.0499 16.6991 9.82239Q16.7761 9.59489 16.9651 9.44439Q17.1541 9.29389 17.4691 9.21689Q17.7841 9.13989 18.2531 9.13989Q18.5961 9.13989 18.8936 9.17489Q19.1911 9.20989 19.3591 9.26589L19.3171 10.2529Q19.2401 10.2319 19.1211 10.2074Q19.0021 10.1829 18.8656 10.1619Q18.7291 10.1409 18.5821 10.1269Q18.4351 10.1129 18.3091 10.1129Q18.1621 10.1129 18.0746 10.1234Q17.9871 10.1339 17.9416 10.1584Q17.8961 10.1829 17.8821 10.2214Q17.8681 10.2599 17.8681 10.3089Q17.8681 10.3579 17.8926 10.3894Q17.9171 10.4209 17.9906 10.4489Q18.0641 10.4769 18.2006 10.5119Q18.3371 10.5469 18.5611 10.6099Q18.8551 10.6939 19.0371 10.7884Q19.2191 10.8829 19.3206 11.0124Q19.4221 11.1419 19.4571 11.3239Q19.4921 11.5059 19.4921 11.7579Q19.4921 12.1289 19.3836 12.3739Q19.2751 12.6189 19.0651 12.7659Q18.8551 12.9129 18.5541 12.9724Q18.2531 13.0319 17.8751 13.0319Z"></path></g></svg>