<svg xmlns="http://www.w3.org/2000/svg" xmlns:xlink="http://www.w3.org/1999/xlink" width="24" height="24" viewBox="0 0 24 24" fill="none"><path   fill="rgba(3, 79, 161, 1)"  d="M4.0541 2.29094L10.1268 2.29094C10.9 2.29094 11.5268 2.91774 11.5268 3.69094L11.5268 9.76367C11.5268 10.5369 10.9 11.1637 10.1268 11.1637L4.0541 11.1637C3.2809 11.1637 2.6541 10.5369 2.6541 9.76367L2.6541 3.69094C2.6541 2.91774 3.2809 2.29094 4.0541 2.29094ZM4.0541 3.89094C4.16456 3.89094 4.2541 3.8014 4.2541 3.69094L4.2541 9.76367C4.2541 9.65321 4.16456 9.56367 4.0541 9.56367L10.1268 9.56367C10.0164 9.56367 9.92683 9.65321 9.92683 9.76367L9.92683 3.69094C9.92683 3.8014 10.0164 3.89094 10.1268 3.89094L4.0541 3.89094Z"></path><path d="M20.6686 18.6691C20.6825 18.6691 20.6948 18.6691 20.7086 18.6691C20.7225 18.6691 20.7384 18.6727 20.7523 18.6727C20.7661 18.6727 20.7785 18.6763 20.7923 18.6763C20.806 18.6763 20.8186 18.6836 20.8323 18.6836C20.8459 18.6836 20.8588 18.6945 20.8723 18.6945C20.8858 18.6945 20.899 18.7014 20.9123 18.7054C20.9256 18.7094 20.9392 18.7117 20.9523 18.7163C20.9654 18.721 20.9794 18.7256 20.9923 18.7309C21.0051 18.7362 21.0197 18.7431 21.0323 18.7491C21.0449 18.755 21.0564 18.7607 21.0686 18.7673C21.0809 18.7738 21.0931 18.7819 21.105 18.7891C21.1169 18.7962 21.1262 18.8032 21.1377 18.8109C21.1493 18.8186 21.1629 18.8244 21.1741 18.8327C21.1853 18.841 21.1961 18.853 21.2068 18.8618C21.2176 18.8706 21.2292 18.8779 21.2396 18.8873C21.2499 18.8966 21.2588 18.9065 21.2686 18.9163C21.2785 18.9261 21.2884 18.9351 21.2977 18.9454C21.3071 18.9557 21.3144 18.9674 21.3232 18.9782C21.332 18.9889 21.3404 18.9997 21.3486 19.0109C21.3569 19.022 21.3664 19.032 21.3741 19.0436C21.3818 19.0551 21.3888 19.068 21.3959 19.08C21.4031 19.0919 21.4112 19.1041 21.4177 19.1163C21.4243 19.1286 21.43 19.1401 21.4359 19.1527C21.4418 19.1653 21.4488 19.1799 21.4541 19.1927C21.4594 19.2055 21.464 19.216 21.4686 19.2291C21.4733 19.2422 21.4755 19.2558 21.4796 19.2691C21.4836 19.2824 21.4905 19.2956 21.4905 19.3091C21.4905 19.3226 21.5014 19.3354 21.5014 19.3491C21.5014 19.3627 21.5086 19.3789 21.5086 19.3927C21.5086 19.4064 21.5123 19.4189 21.5123 19.4327C21.5123 19.4465 21.5159 19.4625 21.5159 19.4763C21.5159 19.4902 21.5159 19.5024 21.5159 19.5163C21.5159 19.5302 21.5159 19.5425 21.5159 19.5563C21.5159 19.5702 21.5123 19.5861 21.5123 19.6C21.5123 19.6138 21.5086 19.6262 21.5086 19.64C21.5086 19.6537 21.5014 19.67 21.5014 19.6836C21.5014 19.6972 21.4905 19.7101 21.4905 19.7236C21.4905 19.7371 21.4836 19.7503 21.4796 19.7636C21.4755 19.7769 21.4733 19.7905 21.4686 19.8036C21.464 19.8167 21.4594 19.8271 21.4541 19.84C21.4488 19.8528 21.4418 19.8674 21.4359 19.88C21.43 19.8925 21.4243 19.9041 21.4177 19.9163C21.4112 19.9286 21.4031 19.9408 21.3959 19.9527C21.3888 19.9646 21.3818 19.9775 21.3741 19.9891C21.3664 20.0006 21.3569 20.0106 21.3486 20.0218C21.3404 20.033 21.332 20.0438 21.3232 20.0545C21.3144 20.0653 21.3071 20.077 21.2977 20.0873C21.2884 20.0975 21.2785 20.1065 21.2686 20.1163C21.2588 20.1262 21.2499 20.1361 21.2396 20.1454C21.2292 20.1548 21.2176 20.1621 21.2068 20.1709C21.1961 20.1797 21.1853 20.1917 21.1741 20.2C21.1629 20.2083 21.1493 20.2141 21.1377 20.2218C21.1262 20.2295 21.1169 20.2365 21.105 20.2436C21.0931 20.2507 21.0809 20.2589 21.0686 20.2654C21.0564 20.272 21.0449 20.2777 21.0323 20.2836C21.0197 20.2895 21.0051 20.2965 20.9923 20.3018C20.9794 20.3071 20.9654 20.3117 20.9523 20.3163C20.9392 20.321 20.9256 20.3232 20.9123 20.3273C20.899 20.3313 20.8858 20.3382 20.8723 20.3382C20.8588 20.3382 20.8459 20.3491 20.8323 20.3491C20.8186 20.3491 20.806 20.3563 20.7923 20.3563C20.7785 20.3563 20.7661 20.36 20.7523 20.36C20.7384 20.36 20.7225 20.3636 20.7086 20.3636C20.6948 20.3636 20.6825 20.3636 20.6686 20.3636L16.425 20.3636C16.4111 20.3636 16.3989 20.3636 16.385 20.3636C16.3711 20.3636 16.3552 20.36 16.3414 20.36C16.3275 20.36 16.3151 20.3563 16.3014 20.3563C16.2876 20.3563 16.2714 20.3491 16.2577 20.3491C16.2441 20.3491 16.2312 20.3382 16.2177 20.3382C16.2042 20.3382 16.191 20.3313 16.1777 20.3273C16.1644 20.3232 16.1508 20.321 16.1377 20.3163C16.1246 20.3117 16.1142 20.3071 16.1014 20.3018C16.0885 20.2965 16.0739 20.2895 16.0614 20.2836C16.0488 20.2777 16.0373 20.272 16.025 20.2654C16.0127 20.2589 16.0006 20.2507 15.9886 20.2436C15.9767 20.2365 15.9638 20.2295 15.9523 20.2218C15.9407 20.2141 15.9307 20.2082 15.9196 20.2C15.9084 20.1917 15.8976 20.1797 15.8868 20.1709C15.8761 20.1621 15.8644 20.1548 15.8541 20.1454C15.8438 20.1361 15.8348 20.1262 15.825 20.1163C15.8152 20.1065 15.8053 20.0975 15.7959 20.0873C15.7866 20.077 15.7757 20.0653 15.7668 20.0545C15.758 20.0438 15.7496 20.033 15.7414 20.0218C15.7331 20.0106 15.7273 20.0006 15.7196 19.9891C15.7118 19.9775 15.7049 19.9646 15.6977 19.9527C15.6906 19.9408 15.6825 19.9286 15.6759 19.9163C15.6694 19.9041 15.6637 19.8925 15.6577 19.88C15.6518 19.8674 15.6449 19.8528 15.6396 19.84C15.6342 19.8271 15.6297 19.8167 15.625 19.8036C15.6203 19.7905 15.6145 19.7769 15.6105 19.7636C15.6064 19.7503 15.5996 19.7371 15.5996 19.7236C15.5996 19.7101 15.5923 19.6972 15.5923 19.6836C15.5923 19.67 15.585 19.6537 15.585 19.64C15.585 19.6262 15.5777 19.6138 15.5777 19.6C15.5777 19.5861 15.5777 19.5702 15.5777 19.5563C15.5777 19.5425 15.5741 19.5302 15.5741 19.5163C15.5741 19.5024 15.5777 19.4902 15.5777 19.4763C15.5777 19.4625 15.5777 19.4465 15.5777 19.4327C15.5777 19.4189 15.585 19.4064 15.585 19.3927C15.585 19.3789 15.5923 19.3627 15.5923 19.3491C15.5923 19.3354 15.5996 19.3226 15.5996 19.3091C15.5996 19.2956 15.6064 19.2824 15.6105 19.2691C15.6145 19.2558 15.6203 19.2422 15.625 19.2291C15.6297 19.216 15.6342 19.2055 15.6396 19.1927C15.6449 19.1799 15.6518 19.1653 15.6577 19.1527C15.6637 19.1401 15.6694 19.1286 15.6759 19.1163C15.6825 19.1041 15.6906 19.0919 15.6977 19.08C15.7049 19.068 15.7118 19.0551 15.7196 19.0436C15.7273 19.032 15.7331 19.022 15.7414 19.0109C15.7496 18.9997 15.758 18.9889 15.7668 18.9782C15.7757 18.9674 15.7866 18.9557 15.7959 18.9454C15.8053 18.9351 15.8152 18.9261 15.825 18.9163C15.8348 18.9065 15.8438 18.8966 15.8541 18.8873C15.8644 18.8779 15.8761 18.8706 15.8868 18.8618C15.8976 18.853 15.9084 18.841 15.9196 18.8327C15.9307 18.8244 15.9407 18.8186 15.9523 18.8109C15.9638 18.8032 15.9767 18.7962 15.9886 18.7891C16.0006 18.7819 16.0127 18.7738 16.025 18.7673C16.0373 18.7607 16.0488 18.755 16.0614 18.7491C16.0739 18.7431 16.0885 18.7362 16.1014 18.7309C16.1142 18.7256 16.1246 18.721 16.1377 18.7163C16.1508 18.7117 16.1644 18.7094 16.1777 18.7054C16.191 18.7014 16.2042 18.6945 16.2177 18.6945C16.2312 18.6945 16.2441 18.6836 16.2577 18.6836C16.2714 18.6836 16.2876 18.6763 16.3014 18.6763C16.3151 18.6763 16.3275 18.6727 16.3414 18.6727C16.3552 18.6727 16.3711 18.6691 16.385 18.6691C16.3989 18.6691 16.4111 18.6691 16.425 18.6691L20.6686 18.6691ZM20.6686 14.9091C20.6825 14.9091 20.6948 14.9127 20.7086 14.9127C20.7225 14.9127 20.7384 14.9127 20.7523 14.9127C20.7661 14.9127 20.7785 14.92 20.7923 14.92C20.806 14.92 20.8187 14.9273 20.8323 14.9273C20.8459 14.9273 20.8588 14.9345 20.8723 14.9345C20.8857 14.9345 20.899 14.9414 20.9123 14.9454C20.9256 14.9495 20.9392 14.9553 20.9523 14.96C20.9653 14.9647 20.9795 14.9692 20.9923 14.9745C21.0051 14.9798 21.0161 14.9868 21.0286 14.9927C21.0412 14.9986 21.0564 15.0043 21.0686 15.0109C21.0809 15.0174 21.0931 15.0256 21.105 15.0327C21.1169 15.0398 21.1262 15.0468 21.1377 15.0545C21.1493 15.0622 21.1629 15.0681 21.1741 15.0763C21.1852 15.0846 21.1961 15.093 21.2068 15.1018C21.2176 15.1106 21.2256 15.1215 21.2359 15.1309C21.2462 15.1402 21.2588 15.1502 21.2686 15.16C21.2785 15.1698 21.2884 15.1788 21.2977 15.1891C21.3071 15.1994 21.3144 15.2111 21.3232 15.2218C21.332 15.2325 21.3404 15.2434 21.3486 15.2545C21.3569 15.2657 21.3664 15.2757 21.3741 15.2873C21.3818 15.2988 21.3888 15.3117 21.3959 15.3236C21.403 15.3355 21.4075 15.3477 21.4141 15.36C21.4206 15.3722 21.43 15.3838 21.4359 15.3963C21.4418 15.4089 21.4452 15.4199 21.4505 15.4327C21.4558 15.4455 21.4603 15.4596 21.465 15.4727C21.4697 15.4858 21.4755 15.4994 21.4796 15.5127C21.4836 15.526 21.4905 15.5392 21.4905 15.5527C21.4905 15.5662 21.5014 15.5791 21.5014 15.5927C21.5014 15.6063 21.505 15.619 21.505 15.6327C21.505 15.6464 21.5123 15.6625 21.5123 15.6763C21.5123 15.6901 21.5159 15.7025 21.5159 15.7163C21.5159 15.7302 21.5159 15.7461 21.5159 15.76C21.5159 15.7739 21.5159 15.7861 21.5159 15.8C21.5159 15.8138 21.5123 15.8298 21.5123 15.8436C21.5123 15.8574 21.505 15.8699 21.505 15.8836C21.505 15.8973 21.5014 15.91 21.5014 15.9236C21.5014 15.9372 21.4905 15.9501 21.4905 15.9636C21.4905 15.9771 21.4836 15.9903 21.4796 16.0036C21.4755 16.0169 21.4697 16.0305 21.465 16.0436C21.4603 16.0567 21.4558 16.0708 21.4505 16.0836C21.4452 16.0964 21.4418 16.1074 21.4359 16.12C21.43 16.1325 21.4206 16.1477 21.4141 16.16C21.4076 16.1722 21.4031 16.1844 21.3959 16.1963C21.3888 16.2082 21.3818 16.2175 21.3741 16.2291C21.3664 16.2406 21.3569 16.2543 21.3486 16.2654C21.3404 16.2766 21.332 16.2874 21.3232 16.2982C21.3144 16.3089 21.307 16.317 21.2977 16.3273C21.2884 16.3375 21.2785 16.3502 21.2686 16.36C21.2588 16.3698 21.2462 16.3797 21.2359 16.3891C21.2256 16.3984 21.2176 16.4057 21.2068 16.4145C21.1961 16.4233 21.1852 16.4317 21.1741 16.44C21.1629 16.4483 21.1493 16.4577 21.1377 16.4654C21.1262 16.4731 21.1169 16.4801 21.105 16.4873C21.0931 16.4944 21.0809 16.4989 21.0686 16.5054C21.0564 16.512 21.0412 16.5213 21.0286 16.5273C21.0161 16.5332 21.0051 16.5365 20.9923 16.5418C20.9795 16.5471 20.9653 16.5516 20.9523 16.5563C20.9392 16.561 20.9256 16.5669 20.9123 16.5709C20.899 16.5749 20.8857 16.5818 20.8723 16.5818C20.8588 16.5818 20.8459 16.5927 20.8323 16.5927C20.8187 16.5927 20.806 16.5963 20.7923 16.5963C20.7785 16.5963 20.7661 16.6036 20.7523 16.6036C20.7384 16.6036 20.7225 16.6073 20.7086 16.6073C20.6948 16.6073 20.6825 16.6073 20.6686 16.6073L14.305 16.6073C14.2911 16.6073 14.2752 16.6073 14.2614 16.6073C14.2475 16.6073 14.2352 16.6036 14.2214 16.6036C14.2075 16.6036 14.1915 16.5963 14.1777 16.5963C14.164 16.5963 14.1513 16.5927 14.1377 16.5927C14.1241 16.5927 14.1112 16.5818 14.0977 16.5818C14.0843 16.5818 14.071 16.5749 14.0577 16.5709C14.0445 16.5669 14.0308 16.561 14.0177 16.5563C14.0047 16.5516 13.9906 16.5471 13.9777 16.5418C13.9649 16.5365 13.9539 16.5332 13.9414 16.5273C13.9288 16.5213 13.9173 16.512 13.905 16.5054C13.8928 16.4989 13.8805 16.4944 13.8686 16.4873C13.8567 16.4801 13.8438 16.4731 13.8323 16.4654C13.8207 16.4577 13.8107 16.4483 13.7996 16.44C13.7884 16.4317 13.7776 16.4233 13.7668 16.4145C13.7561 16.4057 13.7444 16.3984 13.7341 16.3891C13.7238 16.3797 13.7148 16.3698 13.705 16.36C13.6952 16.3502 13.6852 16.3375 13.6759 16.3273C13.6666 16.317 13.6556 16.3089 13.6468 16.2982C13.638 16.2874 13.6296 16.2766 13.6214 16.2654C13.6131 16.2543 13.6073 16.2406 13.5996 16.2291C13.5918 16.2175 13.5849 16.2082 13.5777 16.1963C13.5706 16.1844 13.5625 16.1722 13.5559 16.16C13.5494 16.1477 13.5437 16.1325 13.5377 16.12C13.5318 16.1074 13.5249 16.0964 13.5196 16.0836C13.5142 16.0708 13.5097 16.0567 13.505 16.0436C13.5003 16.0305 13.4945 16.0169 13.4905 16.0036C13.4864 15.9903 13.4796 15.9771 13.4796 15.9636C13.4796 15.9501 13.4723 15.9372 13.4723 15.9236C13.4723 15.91 13.465 15.8973 13.465 15.8836C13.465 15.8699 13.4577 15.8574 13.4577 15.8436C13.4577 15.8298 13.4577 15.8138 13.4577 15.8C13.4577 15.7861 13.4541 15.7739 13.4541 15.76C13.4541 15.7461 13.4577 15.7302 13.4577 15.7163C13.4577 15.7025 13.4577 15.6901 13.4577 15.6763C13.4577 15.6625 13.465 15.6464 13.465 15.6327C13.465 15.619 13.4723 15.6063 13.4723 15.5927C13.4723 15.5791 13.4796 15.5662 13.4796 15.5527C13.4796 15.5392 13.4864 15.526 13.4905 15.5127C13.4945 15.4994 13.5003 15.4858 13.505 15.4727C13.5097 15.4596 13.5142 15.4455 13.5196 15.4327C13.5249 15.4199 13.5318 15.4089 13.5377 15.3963C13.5437 15.3838 13.5494 15.3722 13.5559 15.36C13.5625 15.3477 13.5706 15.3355 13.5777 15.3236C13.5849 15.3117 13.5918 15.2988 13.5996 15.2873C13.6073 15.2757 13.6131 15.2657 13.6214 15.2545C13.6296 15.2434 13.638 15.2325 13.6468 15.2218C13.6556 15.2111 13.6666 15.1994 13.6759 15.1891C13.6852 15.1788 13.6952 15.1698 13.705 15.16C13.7148 15.1502 13.7238 15.1402 13.7341 15.1309C13.7444 15.1215 13.7561 15.1106 13.7668 15.1018C13.7776 15.093 13.7884 15.0846 13.7996 15.0763C13.8107 15.0681 13.8207 15.0622 13.8323 15.0545C13.8438 15.0468 13.8567 15.0398 13.8686 15.0327C13.8805 15.0256 13.8928 15.0174 13.905 15.0109C13.9172 15.0043 13.9288 14.9986 13.9414 14.9927C13.9539 14.9868 13.9649 14.9798 13.9777 14.9745C13.9905 14.9692 14.0047 14.9647 14.0177 14.96C14.0308 14.9553 14.0445 14.9495 14.0577 14.9454C14.071 14.9414 14.0843 14.9345 14.0977 14.9345C14.1112 14.9345 14.1241 14.9273 14.1377 14.9273C14.1513 14.9273 14.164 14.92 14.1777 14.92C14.1915 14.92 14.2075 14.9127 14.2214 14.9127C14.2352 14.9127 14.2475 14.9127 14.2614 14.9127C14.2752 14.9127 14.2911 14.9091 14.305 14.9091L20.6686 14.9091ZM20.6686 11.1527C20.6825 11.1527 20.6948 11.1527 20.7086 11.1527C20.7225 11.1527 20.7384 11.1563 20.7523 11.1563C20.7661 11.1563 20.7785 11.1636 20.7923 11.1636C20.806 11.1636 20.8187 11.1673 20.8323 11.1673C20.8459 11.1673 20.8588 11.1782 20.8723 11.1782C20.8857 11.1782 20.899 11.185 20.9123 11.1891C20.9256 11.1931 20.9392 11.1989 20.9523 11.2036C20.9653 11.2083 20.9795 11.2128 20.9923 11.2182C21.0051 11.2235 21.0161 11.2268 21.0286 11.2327C21.0412 11.2386 21.0564 11.248 21.0686 11.2545C21.0809 11.2611 21.0931 11.2655 21.105 11.2727C21.1169 11.2798 21.1262 11.2868 21.1377 11.2945C21.1493 11.3022 21.1629 11.3117 21.1741 11.32C21.1852 11.3283 21.1961 11.3366 21.2068 11.3454C21.2176 11.3542 21.2256 11.3616 21.2359 11.3709C21.2462 11.3802 21.2588 11.3902 21.2686 11.4C21.2785 11.4098 21.2884 11.4224 21.2977 11.4327C21.3071 11.443 21.3144 11.4511 21.3232 11.4618C21.332 11.4725 21.3404 11.4834 21.3486 11.4945C21.3569 11.5057 21.3664 11.5193 21.3741 11.5309C21.3818 11.5424 21.3888 11.5517 21.3959 11.5636C21.403 11.5755 21.4075 11.5877 21.4141 11.6C21.4206 11.6122 21.43 11.6274 21.4359 11.64C21.4418 11.6525 21.4452 11.6635 21.4505 11.6763C21.4558 11.6892 21.4603 11.7033 21.465 11.7163C21.4697 11.7294 21.4755 11.7431 21.4796 11.7563C21.4836 11.7696 21.4905 11.7829 21.4905 11.7963C21.4905 11.8098 21.5014 11.8227 21.5014 11.8363C21.5014 11.8499 21.505 11.8626 21.505 11.8763C21.505 11.8901 21.5123 11.9025 21.5123 11.9163C21.5123 11.9301 21.5159 11.9461 21.5159 11.96C21.5159 11.9739 21.5159 11.9861 21.5159 12C21.5159 12.0139 21.5159 12.0297 21.5159 12.0436C21.5159 12.0575 21.5123 12.0698 21.5123 12.0836C21.5123 12.0974 21.505 12.1135 21.505 12.1273C21.505 12.141 21.5014 12.1536 21.5014 12.1673C21.5014 12.1809 21.4905 12.1938 21.4905 12.2073C21.4905 12.2207 21.4836 12.234 21.4796 12.2473C21.4755 12.2605 21.4697 12.2742 21.465 12.2873C21.4603 12.3003 21.4558 12.3144 21.4505 12.3273C21.4452 12.3401 21.4418 12.351 21.4359 12.3636C21.43 12.3762 21.4206 12.3877 21.4141 12.4C21.4076 12.4122 21.4031 12.4244 21.3959 12.4363C21.3888 12.4482 21.3818 12.4612 21.3741 12.4727C21.3664 12.4842 21.3569 12.4943 21.3486 12.5054C21.3404 12.5166 21.332 12.5274 21.3232 12.5382C21.3144 12.5489 21.307 12.5606 21.2977 12.5709C21.2884 12.5812 21.2785 12.5902 21.2686 12.6C21.2588 12.6098 21.2462 12.6197 21.2359 12.6291C21.2256 12.6384 21.2176 12.6493 21.2068 12.6582C21.1961 12.667 21.1852 12.6753 21.1741 12.6836C21.1629 12.6919 21.1493 12.6977 21.1377 12.7054C21.1262 12.7131 21.1169 12.7201 21.105 12.7273C21.0931 12.7344 21.0809 12.7425 21.0686 12.7491C21.0564 12.7556 21.0412 12.7613 21.0286 12.7673C21.0161 12.7732 21.0051 12.7801 20.9923 12.7854C20.9795 12.7907 20.9653 12.7953 20.9523 12.8C20.9392 12.8047 20.9256 12.8105 20.9123 12.8145C20.899 12.8185 20.8857 12.8254 20.8723 12.8254C20.8588 12.8254 20.8459 12.8327 20.8323 12.8327C20.8187 12.8327 20.806 12.84 20.7923 12.84C20.7785 12.84 20.7661 12.8473 20.7523 12.8473C20.7384 12.8473 20.7225 12.8473 20.7086 12.8473C20.6948 12.8473 20.6825 12.8509 20.6686 12.8509L16.425 12.8509C16.4111 12.8509 16.3989 12.8473 16.385 12.8473C16.3711 12.8473 16.3552 12.8473 16.3414 12.8473C16.3276 12.8473 16.3151 12.84 16.3014 12.84C16.2876 12.84 16.2714 12.8327 16.2577 12.8327C16.2441 12.8327 16.2312 12.8254 16.2177 12.8254C16.2043 12.8254 16.191 12.8185 16.1777 12.8145C16.1644 12.8105 16.1508 12.8047 16.1377 12.8C16.1247 12.7953 16.1142 12.7907 16.1014 12.7854C16.0885 12.7801 16.0739 12.7732 16.0614 12.7673C16.0488 12.7613 16.0373 12.7556 16.025 12.7491C16.0128 12.7425 16.0006 12.7344 15.9886 12.7273C15.9767 12.7201 15.9638 12.7131 15.9523 12.7054C15.9407 12.6977 15.9307 12.6919 15.9196 12.6836C15.9084 12.6753 15.8976 12.667 15.8868 12.6582C15.8761 12.6493 15.8644 12.6384 15.8541 12.6291C15.8438 12.6197 15.8348 12.6098 15.825 12.6C15.8152 12.5902 15.8052 12.5812 15.7959 12.5709C15.7866 12.5606 15.7793 12.5489 15.7705 12.5382C15.7616 12.5274 15.7533 12.5166 15.745 12.5054C15.7367 12.4943 15.7273 12.4842 15.7196 12.4727C15.7118 12.4612 15.7049 12.4482 15.6977 12.4363C15.6906 12.4244 15.6824 12.4122 15.6759 12.4C15.6694 12.3877 15.6637 12.3762 15.6577 12.3636C15.6518 12.351 15.6449 12.3401 15.6396 12.3273C15.6342 12.3144 15.6297 12.3003 15.625 12.2873C15.6203 12.2742 15.6181 12.2605 15.6141 12.2473C15.6101 12.234 15.6032 12.2207 15.6032 12.2073C15.6032 12.1938 15.5923 12.1809 15.5923 12.1673C15.5923 12.1536 15.585 12.141 15.585 12.1273C15.585 12.1135 15.5814 12.0974 15.5814 12.0836C15.5814 12.0698 15.5777 12.0575 15.5777 12.0436C15.5777 12.0297 15.5777 12.0139 15.5777 12C15.5777 11.9861 15.5777 11.9739 15.5777 11.96C15.5777 11.9461 15.5814 11.9301 15.5814 11.9163C15.5814 11.9025 15.585 11.8901 15.585 11.8763C15.585 11.8626 15.5923 11.8499 15.5923 11.8363C15.5923 11.8227 15.6032 11.8098 15.6032 11.7963C15.6032 11.7829 15.6101 11.7696 15.6141 11.7563C15.6181 11.7431 15.6203 11.7294 15.625 11.7163C15.6297 11.7033 15.6342 11.6892 15.6396 11.6763C15.6449 11.6635 15.6518 11.6525 15.6577 11.64C15.6637 11.6274 15.6694 11.6122 15.6759 11.6C15.6824 11.5877 15.6906 11.5755 15.6977 11.5636C15.7049 11.5517 15.7118 11.5424 15.7196 11.5309C15.7273 11.5193 15.7367 11.5057 15.745 11.4945C15.7533 11.4834 15.7616 11.4725 15.7705 11.4618C15.7793 11.4511 15.7866 11.443 15.7959 11.4327C15.8052 11.4224 15.8152 11.4098 15.825 11.4C15.8348 11.3902 15.8438 11.3802 15.8541 11.3709C15.8644 11.3616 15.8761 11.3542 15.8868 11.3454C15.8976 11.3366 15.9084 11.3283 15.9196 11.32C15.9307 11.3117 15.9407 11.3022 15.9523 11.2945C15.9638 11.2868 15.9767 11.2798 15.9886 11.2727C16.0006 11.2656 16.0128 11.2611 16.025 11.2545C16.0373 11.248 16.0488 11.2386 16.0614 11.2327C16.0739 11.2268 16.0885 11.2235 16.1014 11.2182C16.1142 11.2128 16.1247 11.2083 16.1377 11.2036C16.1508 11.1989 16.1644 11.1931 16.1777 11.1891C16.191 11.185 16.2043 11.1782 16.2177 11.1782C16.2312 11.1782 16.2441 11.1673 16.2577 11.1673C16.2714 11.1673 16.2876 11.1636 16.3014 11.1636C16.3151 11.1636 16.3276 11.1563 16.3414 11.1563C16.3552 11.1563 16.3711 11.1527 16.385 11.1527C16.3989 11.1527 16.4111 11.1527 16.425 11.1527L20.6686 11.1527ZM20.6686 7.39634C20.6825 7.39634 20.6948 7.39634 20.7087 7.39634C20.7226 7.39634 20.7386 7.39998 20.7524 7.39998C20.7662 7.39998 20.7784 7.40361 20.7922 7.40361C20.8059 7.40361 20.8187 7.41089 20.8323 7.41089C20.8459 7.41089 20.8589 7.4218 20.8724 7.4218C20.8859 7.4218 20.8989 7.42867 20.9122 7.4327C20.9255 7.43672 20.9392 7.43892 20.9523 7.44361C20.9654 7.44829 20.9796 7.45285 20.9925 7.45816C21.0053 7.46347 21.0161 7.4704 21.0287 7.47634C21.0412 7.48227 21.0566 7.48796 21.0688 7.49452C21.081 7.50105 21.0931 7.50918 21.105 7.51634C21.1169 7.52346 21.1261 7.53044 21.1377 7.53816C21.1492 7.54588 21.1631 7.55534 21.1743 7.56361C21.1854 7.57189 21.1962 7.58024 21.2069 7.58907C21.2177 7.59786 21.2258 7.6052 21.2361 7.61452C21.2463 7.62385 21.2589 7.63379 21.2687 7.64361C21.2786 7.65344 21.2885 7.6624 21.2979 7.6727C21.3072 7.68298 21.3143 7.69469 21.3231 7.70543C21.3319 7.71615 21.3404 7.72698 21.3486 7.73816C21.3569 7.74929 21.3665 7.75933 21.3742 7.77089C21.3819 7.78242 21.3887 7.79534 21.3959 7.80725C21.403 7.81916 21.4074 7.83136 21.414 7.84361C21.4205 7.85586 21.43 7.86741 21.436 7.87998C21.4419 7.89252 21.4452 7.90715 21.4506 7.91998C21.4559 7.9328 21.4604 7.94326 21.4651 7.95634C21.4698 7.96941 21.4756 7.98304 21.4797 7.99634C21.4837 8.00962 21.4903 8.02286 21.4903 8.03634C21.4903 8.0498 21.5013 8.06272 21.5013 8.07634C21.5013 8.08996 21.5049 8.10624 21.5049 8.11998C21.5049 8.1337 21.5123 8.14616 21.5123 8.15998C21.5123 8.1738 21.5159 8.18973 21.5159 8.20362C21.5159 8.21748 21.5159 8.22973 21.5159 8.24361C21.5159 8.25749 21.5159 8.26973 21.5159 8.28361C21.5159 8.29747 21.5123 8.31343 21.5123 8.32725C21.5123 8.34107 21.5049 8.35351 21.5049 8.36725C21.5049 8.38097 21.5013 8.39727 21.5013 8.41089C21.5013 8.42449 21.4903 8.4374 21.4903 8.45089C21.4903 8.46435 21.4837 8.47758 21.4797 8.49088C21.4756 8.50417 21.4698 8.5178 21.4651 8.53089C21.4604 8.54395 21.4559 8.55441 21.4506 8.56725C21.4452 8.58008 21.4419 8.59468 21.436 8.60725C21.43 8.61978 21.4205 8.63136 21.414 8.64361C21.4074 8.65586 21.403 8.66807 21.3959 8.67998C21.3887 8.69189 21.3819 8.70479 21.3742 8.71634C21.3665 8.72787 21.3569 8.73789 21.3486 8.74907C21.3404 8.76021 21.3319 8.77106 21.3231 8.7818C21.3143 8.79251 21.3072 8.80422 21.2979 8.81452C21.2885 8.82483 21.2786 8.83379 21.2687 8.84361C21.2589 8.85344 21.2463 8.86338 21.2361 8.8727C21.2258 8.88203 21.2177 8.88935 21.2069 8.89816C21.1962 8.90695 21.1854 8.91534 21.1743 8.92361C21.1631 8.93189 21.1492 8.94135 21.1377 8.94907C21.1261 8.95678 21.1169 8.96373 21.105 8.97089C21.0931 8.97801 21.081 8.98614 21.0688 8.99271C21.0566 8.99925 21.0412 9.00496 21.0287 9.01089C21.0161 9.01681 21.0053 9.02374 20.9925 9.02907C20.9796 9.03438 20.9654 9.03892 20.9523 9.04361C20.9392 9.04829 20.9255 9.05049 20.9122 9.05452C20.8989 9.05854 20.8859 9.06543 20.8724 9.06543C20.8589 9.06543 20.8459 9.07634 20.8323 9.07634C20.8187 9.07634 20.8059 9.08361 20.7922 9.08361C20.7784 9.08361 20.7662 9.08725 20.7524 9.08725C20.7386 9.08725 20.7226 9.09089 20.7087 9.09089C20.6948 9.09089 20.6825 9.09089 20.6686 9.09089L16.425 9.09089C16.4111 9.09089 16.3987 9.09089 16.3849 9.09089C16.371 9.09089 16.3554 9.08725 16.3415 9.08725C16.3277 9.08725 16.3151 9.08361 16.3014 9.08361C16.2877 9.08361 16.2713 9.07634 16.2577 9.07634C16.2441 9.07634 16.2311 9.06543 16.2176 9.06543C16.2041 9.06543 16.1911 9.05854 16.1778 9.05452C16.1645 9.05049 16.1508 9.04829 16.1377 9.04361C16.1246 9.03892 16.1143 9.03438 16.1015 9.02907C16.0886 9.02374 16.0739 9.01681 16.0613 9.01089C16.0488 9.00496 16.0374 8.99925 16.0251 8.99271C16.0129 8.98614 16.0005 8.97801 15.9885 8.97089C15.9766 8.96373 15.9639 8.95678 15.9523 8.94907C15.9408 8.94135 15.9308 8.93189 15.9197 8.92361C15.9085 8.91534 15.8977 8.90695 15.887 8.89816C15.8762 8.88935 15.8642 8.88203 15.854 8.8727C15.8437 8.86338 15.8347 8.85344 15.8248 8.84361C15.815 8.83379 15.8054 8.82483 15.7961 8.81452C15.7867 8.80422 15.7793 8.79251 15.7705 8.7818C15.7617 8.77106 15.7532 8.76021 15.7449 8.74907C15.7367 8.73789 15.7274 8.72787 15.7197 8.71634C15.712 8.70479 15.7048 8.69189 15.6977 8.67998C15.6905 8.66807 15.6826 8.65586 15.676 8.64361C15.6695 8.63136 15.6635 8.61978 15.6576 8.60725C15.6516 8.59468 15.6448 8.58008 15.6395 8.56725C15.6342 8.55441 15.6296 8.54395 15.6249 8.53089C15.6202 8.5178 15.6183 8.50417 15.6143 8.49088C15.6102 8.47758 15.6032 8.46435 15.6032 8.45089C15.6032 8.4374 15.5922 8.42449 15.5922 8.41089C15.5922 8.39727 15.5851 8.38097 15.5851 8.36725C15.5851 8.35351 15.5812 8.34107 15.5812 8.32725C15.5812 8.31343 15.5777 8.29747 15.5777 8.28361C15.5777 8.26973 15.5777 8.25749 15.5777 8.24361C15.5777 8.22973 15.5777 8.21748 15.5777 8.20362C15.5777 8.18973 15.5812 8.1738 15.5812 8.15998C15.5812 8.14616 15.5851 8.1337 15.5851 8.11998C15.5851 8.10624 15.5922 8.08996 15.5922 8.07634C15.5922 8.06272 15.6032 8.0498 15.6032 8.03634C15.6032 8.02286 15.6102 8.00962 15.6143 7.99634C15.6183 7.98304 15.6202 7.96941 15.6249 7.95634C15.6296 7.94326 15.6342 7.9328 15.6395 7.91998C15.6448 7.90715 15.6516 7.89252 15.6576 7.87998C15.6635 7.86741 15.6695 7.85586 15.676 7.84361C15.6826 7.83136 15.6905 7.81916 15.6977 7.80725C15.7048 7.79534 15.712 7.78242 15.7197 7.77089C15.7274 7.75933 15.7367 7.74929 15.7449 7.73816C15.7532 7.72698 15.7617 7.71615 15.7705 7.70543C15.7793 7.69469 15.7867 7.68298 15.7961 7.6727C15.8054 7.6624 15.815 7.65344 15.8248 7.64361C15.8347 7.63379 15.8437 7.62385 15.854 7.61452C15.8642 7.6052 15.8762 7.59786 15.887 7.58907C15.8977 7.58024 15.9085 7.57189 15.9197 7.56361C15.9308 7.55534 15.9408 7.54588 15.9523 7.53816C15.9639 7.53044 15.9766 7.52346 15.9885 7.51634C16.0005 7.50918 16.0129 7.50105 16.0251 7.49452C16.0374 7.48796 16.0488 7.48227 16.0613 7.47634C16.0739 7.4704 16.0886 7.46347 16.1015 7.45816C16.1143 7.45285 16.1246 7.44829 16.1377 7.44361C16.1508 7.43892 16.1645 7.43672 16.1778 7.4327C16.1911 7.42867 16.2041 7.4218 16.2176 7.4218C16.2311 7.4218 16.2441 7.41089 16.2577 7.41089C16.2713 7.41089 16.2877 7.40361 16.3014 7.40361C16.3151 7.40361 16.3277 7.39998 16.3415 7.39998C16.3554 7.39998 16.371 7.39634 16.3849 7.39634C16.3987 7.39634 16.4111 7.39634 16.425 7.39634L20.6686 7.39634ZM20.6686 3.27271C20.6825 3.27271 20.6948 3.27634 20.7086 3.27634C20.7225 3.27634 20.7384 3.27634 20.7523 3.27634C20.7661 3.27634 20.7785 3.28361 20.7923 3.28361C20.806 3.28361 20.8187 3.29089 20.8323 3.29089C20.8459 3.29089 20.8588 3.29816 20.8723 3.29816C20.8857 3.29816 20.899 3.30504 20.9123 3.30907C20.9256 3.3131 20.9392 3.31893 20.9523 3.32361C20.9653 3.32829 20.9795 3.33284 20.9923 3.33816C21.0051 3.34348 21.0161 3.35042 21.0286 3.35634C21.0412 3.36228 21.0564 3.36797 21.0686 3.37452C21.0809 3.38107 21.0931 3.38921 21.105 3.39634C21.1169 3.40349 21.1262 3.41044 21.1377 3.41816C21.1493 3.42586 21.1629 3.4317 21.1741 3.43998C21.1852 3.44825 21.1961 3.45662 21.2068 3.46543C21.2176 3.47424 21.2256 3.48519 21.2359 3.49452C21.2462 3.50384 21.2588 3.51379 21.2686 3.52361C21.2785 3.53342 21.2884 3.54242 21.2977 3.55271C21.3071 3.56299 21.3144 3.57469 21.3232 3.58543C21.332 3.59617 21.3404 3.60701 21.3486 3.61816C21.3569 3.62931 21.3664 3.63934 21.3741 3.65089C21.3818 3.66244 21.3888 3.67533 21.3959 3.68725C21.403 3.69916 21.4075 3.71136 21.4141 3.72361C21.4206 3.73585 21.43 3.74742 21.4359 3.75998C21.4418 3.77253 21.4452 3.78351 21.4505 3.79634C21.4558 3.80916 21.4603 3.82326 21.465 3.83634C21.4697 3.84941 21.4755 3.86306 21.4796 3.87634C21.4836 3.88963 21.4905 3.90287 21.4905 3.91634C21.4905 3.92981 21.5014 3.94271 21.5014 3.95634C21.5014 3.96996 21.505 3.98261 21.505 3.99634C21.505 4.01008 21.5123 4.02615 21.5123 4.03998C21.5123 4.05379 21.5159 4.06611 21.5159 4.07998C21.5159 4.09384 21.5159 4.10972 21.5159 4.12361C21.5159 4.1375 21.5159 4.14975 21.5159 4.16361C21.5159 4.17748 21.5123 4.19342 21.5123 4.20725C21.5123 4.22107 21.505 4.23352 21.505 4.24725C21.505 4.26099 21.5014 4.27363 21.5014 4.28725C21.5014 4.30088 21.4905 4.31378 21.4905 4.32725C21.4905 4.34072 21.4836 4.35397 21.4796 4.36725C21.4755 4.38053 21.4697 4.39417 21.465 4.40725C21.4603 4.42032 21.4558 4.43442 21.4505 4.44725C21.4452 4.46008 21.4418 4.47105 21.4359 4.48361C21.43 4.49616 21.4206 4.51136 21.4141 4.52361C21.4076 4.53584 21.4031 4.54805 21.3959 4.55998C21.3888 4.57187 21.3818 4.58115 21.3741 4.59271C21.3664 4.60424 21.3569 4.61791 21.3486 4.62907C21.3404 4.64021 21.332 4.65106 21.3232 4.6618C21.3144 4.67253 21.307 4.68059 21.2977 4.69089C21.2884 4.70117 21.2785 4.71379 21.2686 4.72361C21.2588 4.73344 21.2462 4.74336 21.2359 4.75271C21.2256 4.76201 21.2176 4.76935 21.2068 4.77816C21.1961 4.78697 21.1852 4.79534 21.1741 4.80361C21.1629 4.81189 21.1493 4.82135 21.1377 4.82907C21.1262 4.83678 21.1169 4.84375 21.105 4.85089C21.0931 4.85801 21.0809 4.86251 21.0686 4.86907C21.0564 4.87561 21.0412 4.88494 21.0286 4.89089C21.0161 4.89681 21.0051 4.90012 20.9923 4.90543C20.9795 4.91074 20.9653 4.91528 20.9523 4.91998C20.9392 4.92465 20.9256 4.93049 20.9123 4.93452C20.899 4.93854 20.8857 4.94543 20.8723 4.94543C20.8588 4.94543 20.8459 4.95634 20.8323 4.95634C20.8187 4.95634 20.806 4.95998 20.7923 4.95998C20.7785 4.95998 20.7661 4.96725 20.7523 4.96725C20.7384 4.96725 20.7225 4.97089 20.7086 4.97089C20.6948 4.97089 20.6825 4.97089 20.6686 4.97089L14.305 4.97089C14.2911 4.97089 14.2752 4.97089 14.2614 4.97089C14.2475 4.97089 14.2352 4.96725 14.2214 4.96725C14.2075 4.96725 14.1915 4.95998 14.1777 4.95998C14.164 4.95998 14.1513 4.95634 14.1377 4.95634C14.1241 4.95634 14.1112 4.94543 14.0977 4.94543C14.0843 4.94543 14.071 4.93854 14.0577 4.93452C14.0445 4.93049 14.0308 4.92465 14.0177 4.91998C14.0047 4.91528 13.9906 4.91074 13.9777 4.90543C13.9649 4.90012 13.9539 4.89681 13.9414 4.89089C13.9288 4.88494 13.9173 4.87561 13.905 4.86907C13.8928 4.86251 13.8805 4.85801 13.8686 4.85089C13.8567 4.84375 13.8438 4.83678 13.8323 4.82907C13.8207 4.82135 13.8107 4.81189 13.7996 4.80361C13.7884 4.79534 13.7776 4.78697 13.7668 4.77816C13.7561 4.76935 13.7444 4.76203 13.7341 4.75271C13.7238 4.74338 13.7148 4.73344 13.705 4.72361C13.6952 4.71379 13.6852 4.70117 13.6759 4.69089C13.6666 4.68059 13.6556 4.67253 13.6468 4.6618C13.638 4.65106 13.6296 4.64021 13.6214 4.62907C13.6131 4.61791 13.6073 4.60424 13.5996 4.59271C13.5918 4.58115 13.5849 4.57187 13.5777 4.55998C13.5706 4.54805 13.5625 4.53584 13.5559 4.52361C13.5494 4.51136 13.5437 4.49616 13.5377 4.48361C13.5318 4.47105 13.5249 4.46008 13.5196 4.44725C13.5142 4.43442 13.5097 4.42032 13.505 4.40725C13.5003 4.39417 13.4945 4.38053 13.4905 4.36725C13.4864 4.35397 13.4796 4.34072 13.4796 4.32725C13.4796 4.31378 13.4723 4.30088 13.4723 4.28725C13.4723 4.27363 13.465 4.26099 13.465 4.24725C13.465 4.23352 13.4577 4.22107 13.4577 4.20725C13.4577 4.19342 13.4577 4.17748 13.4577 4.16361C13.4577 4.14975 13.4541 4.1375 13.4541 4.12361C13.4541 4.10972 13.4577 4.09384 13.4577 4.07998C13.4577 4.06611 13.4577 4.05379 13.4577 4.03998C13.4577 4.02615 13.465 4.01008 13.465 3.99634C13.465 3.98261 13.4723 3.96996 13.4723 3.95634C13.4723 3.94271 13.4796 3.92981 13.4796 3.91634C13.4796 3.90287 13.4864 3.88963 13.4905 3.87634C13.4945 3.86306 13.5003 3.84941 13.505 3.83634C13.5097 3.82326 13.5142 3.80916 13.5196 3.79634C13.5249 3.78351 13.5318 3.77253 13.5377 3.75998C13.5437 3.74742 13.5494 3.73585 13.5559 3.72361C13.5625 3.71136 13.5706 3.69916 13.5777 3.68725C13.5849 3.67533 13.5918 3.66244 13.5996 3.65089C13.6073 3.63934 13.6131 3.62931 13.6214 3.61816C13.6296 3.60701 13.638 3.59617 13.6468 3.58543C13.6556 3.57469 13.6666 3.56299 13.6759 3.55271C13.6852 3.54242 13.6952 3.53342 13.705 3.52361C13.7148 3.51379 13.7238 3.50384 13.7341 3.49452C13.7444 3.48519 13.7561 3.47424 13.7668 3.46543C13.7776 3.45662 13.7884 3.44825 13.7996 3.43998C13.8107 3.4317 13.8207 3.42586 13.8323 3.41816C13.8438 3.41044 13.8567 3.40349 13.8686 3.39634C13.8805 3.38921 13.8928 3.38107 13.905 3.37452C13.9172 3.36797 13.9288 3.36228 13.9414 3.35634C13.9539 3.35042 13.9649 3.34348 13.9777 3.33816C13.9905 3.33284 14.0047 3.32829 14.0177 3.32361C14.0308 3.31893 14.0445 3.3131 14.0577 3.30907C14.071 3.30504 14.0843 3.29816 14.0977 3.29816C14.1112 3.29816 14.1241 3.29089 14.1377 3.29089C14.1513 3.29089 14.164 3.28361 14.1777 3.28361C14.1915 3.28361 14.2075 3.27634 14.2214 3.27634C14.2352 3.27634 14.2475 3.27634 14.2614 3.27634C14.2752 3.27634 14.2911 3.27271 14.305 3.27271L20.6686 3.27271Z"   fill="#CC4E1D" ></path><path   fill="rgba(3, 79, 161, 1)"  d="M4.0541 12.8364L10.1268 12.8364C10.9 12.8364 11.5268 13.4632 11.5268 14.2364L11.5268 20.3091C11.5268 21.0823 10.9 21.7091 10.1268 21.7091L4.0541 21.7091C3.2809 21.7091 2.6541 21.0823 2.6541 20.3091L2.6541 14.2364C2.6541 13.4632 3.2809 12.8364 4.0541 12.8364ZM4.0541 14.4364C4.16456 14.4364 4.2541 14.3468 4.2541 14.2364L4.2541 20.3091C4.2541 20.1986 4.16456 20.1091 4.0541 20.1091L10.1268 20.1091C10.0164 20.1091 9.92683 20.1986 9.92683 20.3091L9.92683 14.2364C9.92683 14.3468 10.0164 14.4364 10.1268 14.4364L4.0541 14.4364Z"></path></svg>