<svg xmlns="http://www.w3.org/2000/svg" xmlns:xlink="http://www.w3.org/1999/xlink" width="24" height="24" viewBox="0 0 24 24" fill="none"><path   fill="rgba(3, 79, 161, 1)"  d="M4.0541 12.8364L10.1268 12.8364C10.9 12.8364 11.5268 13.4632 11.5268 14.2364L11.5268 20.3091C11.5268 21.0823 10.9 21.7091 10.1268 21.7091L4.0541 21.7091C3.2809 21.7091 2.6541 21.0823 2.6541 20.3091L2.6541 14.2364C2.6541 13.4632 3.2809 12.8364 4.0541 12.8364ZM4.0541 14.4364C4.16456 14.4364 4.2541 14.3468 4.2541 14.2364L4.2541 20.3091C4.2541 20.1986 4.16456 20.1091 4.0541 20.1091L10.1268 20.1091C10.0164 20.1091 9.92683 20.1986 9.92683 20.3091L9.92683 14.2364C9.92683 14.3468 10.0164 14.4364 10.1268 14.4364L4.0541 14.4364Z"></path><path   fill="rgba(3, 79, 161, 1)"  d="M4.0541 2.29094L10.1268 2.29094C10.9 2.29094 11.5268 2.91774 11.5268 3.69094L11.5268 9.76367C11.5268 10.5369 10.9 11.1637 10.1268 11.1637L4.0541 11.1637C3.2809 11.1637 2.6541 10.5369 2.6541 9.76367L2.6541 3.69094C2.6541 2.91774 3.2809 2.29094 4.0541 2.29094ZM4.0541 3.89094C4.16456 3.89094 4.2541 3.8014 4.2541 3.69094L4.2541 9.76367C4.2541 9.65321 4.16456 9.56367 4.0541 9.56367L10.1268 9.56367C10.0164 9.56367 9.92683 9.65321 9.92683 9.76367L9.92683 3.69094C9.92683 3.8014 10.0164 3.89094 10.1268 3.89094L4.0541 3.89094Z"></path><path   fill="rgba(204, 78, 29, 1)"  d="M14.6 4.01995L20.6727 4.01995C21.4459 4.01995 22.0727 4.64675 22.0727 5.41995L22.0727 7.12904C22.0727 7.90224 21.4459 8.52904 20.6727 8.52904L14.6 8.52904C13.8268 8.52904 13.2 7.90224 13.2 7.12904L13.2 5.41995C13.2 4.64675 13.8268 4.01995 14.6 4.01995ZM14.6 5.61995C14.7105 5.61995 14.8 5.5304 14.8 5.41995L14.8 7.12904C14.8 7.01858 14.7105 6.92904 14.6 6.92904L20.6727 6.92904C20.5623 6.92904 20.4727 7.01858 20.4727 7.12904L20.4727 5.41995C20.4727 5.5304 20.5623 5.61995 20.6727 5.61995L14.6 5.61995Z"></path><path   fill="rgba(204, 78, 29, 1)"  d="M14.7816 9.65459L20.8544 9.65459C21.6276 9.65459 22.2544 10.2814 22.2544 11.0546L22.2544 12.7637C22.2544 13.5369 21.6276 14.1637 20.8544 14.1637L14.7816 14.1637C14.0084 14.1637 13.3816 13.5369 13.3816 12.7637L13.3816 11.0546C13.3816 10.2814 14.0084 9.65459 14.7816 9.65459ZM14.7816 11.2546C14.8921 11.2546 14.9816 11.165 14.9816 11.0546L14.9816 12.7637C14.9816 12.6532 14.8921 12.5637 14.7816 12.5637L20.8544 12.5637C20.7439 12.5637 20.6544 12.6532 20.6544 12.7637L20.6544 11.0546C20.6544 11.165 20.7439 11.2546 20.8544 11.2546L14.7816 11.2546Z"></path><path   fill="rgba(204, 78, 29, 1)"  d="M14.7797 15.29L20.8524 15.29C21.6256 15.29 22.2524 15.9168 22.2524 16.69L22.2524 18.3991C22.2524 19.1723 21.6256 19.7991 20.8524 19.7991L14.7797 19.7991C14.0065 19.7991 13.3797 19.1723 13.3797 18.3991L13.3797 16.69C13.3797 15.9168 14.0065 15.29 14.7797 15.29ZM14.7797 16.89C14.8901 16.89 14.9797 16.8004 14.9797 16.69L14.9797 18.3991C14.9797 18.2886 14.8901 18.1991 14.7797 18.1991L20.8524 18.1991C20.742 18.1991 20.6524 18.2886 20.6524 18.3991L20.6524 16.69C20.6524 16.8004 20.742 16.89 20.8524 16.89L14.7797 16.89Z"></path></svg>