<svg xmlns="http://www.w3.org/2000/svg" xmlns:xlink="http://www.w3.org/1999/xlink" width="24" height="24" viewBox="0 0 24 24" fill="none"><path d="M20.5711 14.0489C20.557 14.0489 20.5415 14.0453 20.5274 14.0453C20.5134 14.0453 20.5013 14.0453 20.4873 14.0453C20.4733 14.0453 20.4615 14.0416 20.4475 14.0416C20.4336 14.0416 20.4177 14.0307 20.4039 14.0307C20.39 14.0307 20.3738 14.0234 20.3602 14.0234C20.3465 14.0234 20.3374 14.0166 20.324 14.0125C20.3105 14.0084 20.2971 14.0027 20.2838 13.998C20.2706 13.9932 20.2532 13.9888 20.2401 13.9834C20.2271 13.9781 20.2166 13.9713 20.2039 13.9653C20.1912 13.9592 20.1762 13.9537 20.1638 13.9471C20.1514 13.9404 20.1432 13.9325 20.1311 13.9253C20.1191 13.918 20.1066 13.9113 20.0949 13.9034C20.0832 13.8956 20.0696 13.89 20.0583 13.8816C20.047 13.8732 20.0365 13.8615 20.0257 13.8525C20.0148 13.8436 20.0034 13.8365 19.993 13.8271C19.9825 13.8176 19.9738 13.808 19.9639 13.798C19.9539 13.788 19.9442 13.7757 19.9347 13.7653C19.9253 13.7548 19.9146 13.7471 19.9056 13.7362C19.8967 13.7253 19.8885 13.7111 19.8801 13.6998C19.8717 13.6885 19.8627 13.6788 19.8548 13.6671C19.847 13.6554 19.8401 13.6428 19.8328 13.6307C19.8256 13.6186 19.8178 13.6068 19.8112 13.5943C19.8045 13.5819 19.7991 13.5707 19.7931 13.558C19.787 13.5453 19.78 13.531 19.7746 13.518C19.7692 13.505 19.7648 13.4912 19.76 13.478C19.7553 13.4647 19.7496 13.4515 19.7455 13.438C19.7414 13.4245 19.7384 13.4117 19.7384 13.398C19.7384 13.3843 19.7274 13.3682 19.7274 13.3543C19.7274 13.3405 19.7203 13.3319 19.7203 13.318C19.7203 13.3041 19.7167 13.2884 19.7167 13.2743C19.7167 13.2603 19.7092 13.2448 19.7092 13.2307C19.7092 13.2166 19.7092 13.2048 19.7092 13.1907L19.7093 5.50344C19.7093 5.49089 19.702 5.47954 19.702 5.46707C19.702 5.45463 19.6984 5.44304 19.6984 5.43071C19.6984 5.41838 19.6875 5.40289 19.6875 5.39071C19.6875 5.37855 19.6806 5.36636 19.6766 5.35435C19.6725 5.34236 19.6666 5.32978 19.662 5.31798C19.6574 5.30619 19.6563 5.29684 19.6511 5.28526C19.6459 5.2737 19.6386 5.26019 19.6329 5.24889C19.6272 5.23759 19.621 5.22719 19.6147 5.21617C19.6085 5.20515 19.6033 5.19414 19.5966 5.18344C19.5898 5.17273 19.582 5.16474 19.5747 5.15435C19.5675 5.14397 19.557 5.13527 19.5493 5.12526C19.5415 5.11524 19.5357 5.10217 19.5275 5.09253C19.5192 5.08289 19.5107 5.07631 19.502 5.06707C19.4933 5.05783 19.482 5.04679 19.4729 5.03798C19.4638 5.02916 19.457 5.02089 19.4475 5.01253C19.438 5.00415 19.4282 4.995 19.4184 4.98707C19.4085 4.97917 19.3959 4.97269 19.3856 4.96526C19.3754 4.95781 19.3671 4.95401 19.3566 4.94707C19.3459 4.94013 19.3347 4.93169 19.3238 4.92526C19.3129 4.91881 19.3023 4.91297 19.2911 4.90707C19.2799 4.90116 19.2698 4.89426 19.2584 4.88889C19.2469 4.88353 19.2337 4.87917 19.222 4.87435C19.2103 4.86954 19.2012 4.86043 19.1893 4.85617C19.1774 4.85192 19.165 4.84894 19.1529 4.84526C19.1408 4.84157 19.1288 4.83798 19.1166 4.83798C19.1043 4.83798 19.089 4.82708 19.0766 4.82708C19.0641 4.82708 19.0527 4.82344 19.0402 4.82344C19.0277 4.82344 19.0128 4.8198 19.0002 4.8198C18.9876 4.8198 18.9765 4.81253 18.9638 4.81253C18.9512 4.81253 18.9365 4.81253 18.9238 4.81253C18.9111 4.81253 18.9001 4.81253 18.8875 4.81253C18.8748 4.81253 18.8637 4.81617 18.8511 4.81617L17.9384 4.81617C17.9244 4.81617 17.9087 4.81253 17.8947 4.81253C17.8807 4.81253 17.8687 4.80889 17.8547 4.80889C17.8408 4.80889 17.8249 4.80526 17.8111 4.80526C17.7972 4.80526 17.7849 4.79798 17.7711 4.79798C17.7573 4.79798 17.741 4.78708 17.7275 4.78708C17.7139 4.78708 17.7009 4.78033 17.6875 4.77617C17.6741 4.77202 17.6607 4.77005 17.6475 4.76526C17.6343 4.76046 17.624 4.75615 17.6111 4.75071C17.5982 4.74527 17.5837 4.7386 17.5711 4.73253C17.5584 4.72647 17.5471 4.71738 17.5347 4.71071C17.5224 4.70404 17.5104 4.69979 17.4984 4.69253C17.4864 4.68525 17.4737 4.67491 17.462 4.66707C17.4504 4.65922 17.4405 4.65367 17.4293 4.64526C17.4181 4.63686 17.4074 4.6251 17.3966 4.61617C17.3857 4.60723 17.3705 4.60017 17.3602 4.59071C17.3498 4.58124 17.341 4.57156 17.3311 4.56162C17.3212 4.55166 17.315 4.54295 17.3056 4.53253C17.2963 4.5221 17.2818 4.51066 17.2729 4.4998C17.2641 4.48893 17.2594 4.47837 17.2511 4.46707C17.2428 4.4558 17.2334 4.44241 17.2256 4.43071C17.2179 4.41903 17.211 4.41002 17.2038 4.39798C17.1967 4.38593 17.1922 4.374 17.1856 4.36162C17.1791 4.34924 17.1734 4.33432 17.1675 4.32162C17.1615 4.30894 17.1546 4.29459 17.1493 4.28162C17.1439 4.26866 17.1358 4.25484 17.1311 4.24162C17.1264 4.2284 17.1242 4.21505 17.1202 4.20162C17.1161 4.18819 17.1093 4.17886 17.1093 4.16526C17.1093 4.15164 17.0984 4.13537 17.0984 4.12162C17.0984 4.10786 17.0911 4.09186 17.0911 4.07798C17.0911 4.06411 17.0875 4.05558 17.0875 4.04162C17.0875 4.02766 17.0802 4.00836 17.0802 3.99435C17.0802 3.98034 17.0802 3.96837 17.0802 3.95435C17.0802 3.94032 17.0802 3.92836 17.0802 3.91435C17.0802 3.90034 17.0875 3.88467 17.0875 3.87071C17.0875 3.85675 17.0911 3.84095 17.0911 3.82707C17.0911 3.8132 17.0984 3.80083 17.0984 3.78707C17.0984 3.77332 17.1093 3.76068 17.1093 3.74707C17.1093 3.73347 17.1161 3.71687 17.1202 3.70344C17.1242 3.69001 17.1264 3.68029 17.1311 3.66707C17.1358 3.65386 17.1439 3.64004 17.1493 3.62707C17.1546 3.61411 17.1615 3.59977 17.1675 3.58707C17.1734 3.57438 17.1791 3.5631 17.1856 3.55071C17.1922 3.53833 17.1967 3.52639 17.2038 3.51435C17.211 3.5023 17.2179 3.48967 17.2256 3.47798C17.2334 3.4663 17.2428 3.45291 17.2511 3.44162C17.2594 3.43033 17.2641 3.4234 17.2729 3.41253C17.2818 3.40166 17.2963 3.39023 17.3056 3.3798C17.315 3.36938 17.3212 3.36067 17.3311 3.35071C17.341 3.34076 17.3498 3.32744 17.3602 3.31798C17.3705 3.30852 17.3857 3.30147 17.3966 3.29253C17.4074 3.28359 17.4181 3.27184 17.4293 3.26344C17.4405 3.25504 17.4504 3.24946 17.462 3.24162C17.4737 3.23378 17.4864 3.22707 17.4984 3.2198C17.5104 3.21254 17.5224 3.20466 17.5347 3.19798C17.5471 3.19131 17.5584 3.18223 17.5711 3.17617C17.5837 3.1701 17.5982 3.16706 17.6111 3.16162C17.624 3.15618 17.6343 3.15187 17.6475 3.14707C17.6607 3.14228 17.6741 3.13668 17.6875 3.13253C17.7009 3.12838 17.7139 3.11798 17.7275 3.11798C17.741 3.11798 17.7574 3.11071 17.7711 3.11071C17.7849 3.11071 17.7972 3.10344 17.8111 3.10344C17.8249 3.10344 17.8408 3.0998 17.8547 3.0998C17.8687 3.0998 17.8807 3.09617 17.8947 3.09617C17.9087 3.09617 17.9244 3.09253 17.9384 3.09253L18.8511 3.09253C18.8919 3.09253 18.9303 3.09253 18.9711 3.09253C19.0119 3.09253 19.054 3.0998 19.0947 3.0998C19.1355 3.0998 19.1742 3.10238 19.2147 3.10707C19.2553 3.11177 19.2981 3.11859 19.3384 3.12526C19.3787 3.13193 19.4184 3.14208 19.4584 3.15071C19.4983 3.15934 19.5389 3.16559 19.5784 3.17617C19.6178 3.18674 19.6558 3.20004 19.6947 3.21253C19.7336 3.22502 19.7729 3.23815 19.8111 3.25253C19.8493 3.26691 19.8863 3.27994 19.9238 3.29617C19.9613 3.3124 19.9999 3.33267 20.0366 3.35071C20.0732 3.36875 20.1099 3.38544 20.1456 3.40526C20.1814 3.42507 20.2164 3.44917 20.2511 3.47071C20.2858 3.49225 20.3193 3.51296 20.3529 3.53617C20.3865 3.55937 20.4187 3.58407 20.4511 3.60889C20.4835 3.63372 20.5145 3.65887 20.5456 3.68526C20.5768 3.71164 20.6103 3.73738 20.6402 3.76526C20.6701 3.79313 20.699 3.82323 20.7275 3.85253C20.7559 3.88183 20.7804 3.91278 20.8075 3.94344C20.8345 3.97409 20.862 4.00604 20.8875 4.03798C20.9129 4.06992 20.94 4.09938 20.9638 4.13253C20.9877 4.16568 21.0107 4.20008 21.0329 4.23435C21.0551 4.26863 21.0742 4.30449 21.0947 4.3398C21.1152 4.37513 21.1341 4.41262 21.1529 4.44889C21.1717 4.48518 21.1905 4.5172 21.2075 4.55435C21.2244 4.59151 21.2396 4.63277 21.2547 4.67071C21.2699 4.70865 21.2851 4.74843 21.2984 4.78708C21.3116 4.8257 21.3234 4.86056 21.3347 4.8998C21.3461 4.93905 21.358 4.98005 21.3675 5.0198C21.3769 5.05955 21.3818 5.09964 21.3893 5.1398C21.3967 5.17995 21.4056 5.21933 21.4111 5.2598C21.4166 5.30029 21.4256 5.34274 21.4256 5.38344C21.4256 5.42414 21.4329 5.46263 21.4329 5.50344L21.433 13.1907C21.433 13.2048 21.4294 13.2166 21.4294 13.2307C21.4294 13.2448 21.4255 13.2603 21.4255 13.2743C21.4255 13.2884 21.4255 13.3041 21.4255 13.318C21.4255 13.3319 21.4149 13.3405 21.4149 13.3543C21.4149 13.3682 21.4074 13.3843 21.4074 13.398C21.4074 13.4117 21.3969 13.4245 21.3928 13.438C21.3888 13.4515 21.3866 13.4647 21.3818 13.478C21.3771 13.4912 21.373 13.505 21.3676 13.518C21.3622 13.531 21.3552 13.5453 21.3492 13.558C21.3431 13.5707 21.3377 13.5819 21.3311 13.5943C21.3244 13.6068 21.3166 13.6186 21.3094 13.6307C21.3021 13.6428 21.2952 13.6554 21.2874 13.6671C21.2796 13.6788 21.2741 13.6885 21.2657 13.6998C21.2573 13.7111 21.2455 13.7253 21.2366 13.7362C21.2277 13.7471 21.2205 13.7548 21.211 13.7653C21.2016 13.7757 21.1883 13.788 21.1784 13.798C21.1684 13.808 21.1597 13.8176 21.1492 13.8271C21.1388 13.8365 21.1275 13.8436 21.1166 13.8525C21.1057 13.8615 21.0952 13.8733 21.0839 13.8816C21.0726 13.89 21.063 13.8956 21.0512 13.9034C21.0395 13.9113 21.0267 13.918 21.0146 13.9253C21.0026 13.9325 20.9908 13.9404 20.9784 13.9471C20.966 13.9537 20.9546 13.9592 20.9419 13.9653C20.9291 13.9713 20.9151 13.9781 20.9021 13.9834C20.8891 13.9888 20.8752 13.9932 20.8619 13.998C20.8487 14.0027 20.8357 14.0084 20.8222 14.0125C20.8087 14.0166 20.7957 14.0234 20.782 14.0234C20.7684 14.0234 20.7522 14.0307 20.7384 14.0307C20.7246 14.0307 20.7122 14.0416 20.6982 14.0416C20.6843 14.0416 20.6686 14.0453 20.6546 14.0453C20.6406 14.0453 20.6288 14.0453 20.6148 14.0453C20.6007 14.0453 20.5852 14.0489 20.5711 14.0489ZM18.5893 4.81617L5.44382 4.81617C5.42977 4.81617 5.41784 4.81253 5.40382 4.81253C5.38981 4.81253 5.37416 4.80889 5.36019 4.80889C5.34622 4.80889 5.33407 4.80889 5.32019 4.80889C5.3063 4.80889 5.29394 4.79798 5.28019 4.79798C5.26643 4.79798 5.25015 4.79071 5.23655 4.79071C5.22293 4.79071 5.20996 4.7803 5.19655 4.77617C5.18312 4.77203 5.16975 4.77003 5.15655 4.76526C5.14336 4.76046 5.13315 4.75613 5.12019 4.75071C5.10723 4.74529 5.09287 4.73857 5.08019 4.73253C5.06751 4.72647 5.05618 4.721 5.04382 4.71435C5.03145 4.70767 5.01586 4.69979 5.00382 4.69253C4.99179 4.68527 4.9791 4.67855 4.96746 4.67071C4.95582 4.66288 4.94599 4.65367 4.93473 4.64526C4.92348 4.63686 4.91283 4.62874 4.90201 4.6198C4.89118 4.61086 4.88331 4.6038 4.87292 4.59435C4.86254 4.58489 4.84647 4.57158 4.83655 4.56162C4.82665 4.55166 4.8205 4.54296 4.8111 4.53253C4.80169 4.5221 4.79453 4.51068 4.78564 4.4998C4.77675 4.48893 4.76488 4.47837 4.75655 4.46707C4.7482 4.45578 4.73887 4.44604 4.7311 4.43435C4.72333 4.42265 4.72013 4.41004 4.71292 4.39798C4.7057 4.38592 4.69771 4.37402 4.6911 4.36162C4.68449 4.34922 4.6789 4.33432 4.67292 4.32162C4.66693 4.30892 4.66009 4.29461 4.65473 4.28162C4.64937 4.26863 4.6449 4.25849 4.64019 4.24526C4.63547 4.23203 4.62971 4.2187 4.62564 4.20526C4.62157 4.19183 4.61473 4.17889 4.61473 4.16526C4.61473 4.15163 4.60746 4.13539 4.60746 4.12162C4.60746 4.10784 4.59655 4.09551 4.59655 4.08162C4.59655 4.06773 4.59292 4.0556 4.59292 4.04162C4.59292 4.02764 4.58928 4.01201 4.58928 3.99798C4.58928 3.98396 4.58928 3.97203 4.58928 3.95798C4.58928 3.94394 4.58928 3.92837 4.58928 3.91435C4.58928 3.90032 4.59292 3.88469 4.59292 3.87071C4.59292 3.85673 4.59655 3.8446 4.59655 3.83071C4.59655 3.81682 4.60746 3.80085 4.60746 3.78707C4.60746 3.7733 4.61473 3.7607 4.61473 3.74707C4.61473 3.73345 4.62157 3.72052 4.62564 3.70707C4.62971 3.69363 4.63547 3.6803 4.64019 3.66707C4.6449 3.65385 4.64937 3.64006 4.65473 3.62707C4.66009 3.61409 4.66693 3.59978 4.67292 3.58707C4.6789 3.57437 4.68449 3.56311 4.6911 3.55071C4.69771 3.53832 4.7057 3.52641 4.71292 3.51435C4.72013 3.50229 4.72333 3.48968 4.7311 3.47798C4.73887 3.46629 4.7482 3.45292 4.75655 3.44162C4.76488 3.43032 4.77675 3.41977 4.78564 3.40889C4.79453 3.39802 4.80169 3.39023 4.8111 3.3798C4.8205 3.36937 4.82665 3.35703 4.83655 3.34707C4.84647 3.33712 4.86254 3.32744 4.87292 3.31798C4.88331 3.30852 4.89118 3.30147 4.90201 3.29253C4.91283 3.28359 4.92348 3.27184 4.93473 3.26344C4.94599 3.25504 4.95582 3.24946 4.96746 3.24162C4.9791 3.23378 4.99179 3.22706 5.00382 3.2198C5.01586 3.21254 5.03145 3.20465 5.04382 3.19798C5.05618 3.19132 5.06751 3.18222 5.08019 3.17617C5.09287 3.17012 5.10723 3.16704 5.12019 3.16162C5.13315 3.1562 5.14336 3.15186 5.15655 3.14707C5.16975 3.14229 5.18312 3.13666 5.19655 3.13253C5.20996 3.1284 5.22293 3.12162 5.23655 3.12162C5.25015 3.12162 5.26643 3.11071 5.28019 3.11071C5.29394 3.11071 5.3063 3.10707 5.32019 3.10707C5.33407 3.10707 5.34622 3.0998 5.36019 3.0998C5.37416 3.0998 5.38981 3.09617 5.40382 3.09617C5.41784 3.09617 5.42977 3.09253 5.44382 3.09253L18.5893 3.09253C18.6033 3.09253 18.6189 3.09617 18.6329 3.09617C18.6469 3.09617 18.6589 3.0998 18.6729 3.0998C18.6869 3.0998 18.7027 3.10344 18.7166 3.10344C18.7304 3.10344 18.7464 3.11071 18.7602 3.11071C18.7739 3.11071 18.7866 3.11798 18.8002 3.11798C18.8138 3.11798 18.8268 3.1284 18.8402 3.13253C18.8536 3.13666 18.867 3.14229 18.8802 3.14707C18.8934 3.15186 18.9072 3.1562 18.9202 3.16162C18.9331 3.16704 18.9475 3.17012 18.9602 3.17617C18.9729 3.18222 18.9806 3.19132 18.9929 3.19798C19.0053 3.20465 19.0172 3.21254 19.0293 3.2198C19.0413 3.22706 19.054 3.23378 19.0656 3.24162C19.0773 3.24946 19.0907 3.25504 19.102 3.26344C19.1133 3.27184 19.1239 3.28359 19.1347 3.29253C19.1456 3.30147 19.1571 3.30852 19.1675 3.31798C19.1778 3.32744 19.1866 3.33712 19.1966 3.34707C19.2065 3.35703 19.2162 3.36937 19.2256 3.3798C19.235 3.39023 19.2458 3.39802 19.2547 3.40889C19.2636 3.41977 19.2682 3.43032 19.2766 3.44162C19.2849 3.45292 19.2942 3.46629 19.302 3.47798C19.3098 3.48968 19.3202 3.50229 19.3275 3.51435C19.3347 3.52641 19.3427 3.53832 19.3493 3.55071C19.3559 3.56311 19.3615 3.57437 19.3675 3.58707C19.3734 3.59978 19.3766 3.61409 19.382 3.62707C19.3874 3.64006 19.3918 3.65385 19.3966 3.66707C19.4013 3.6803 19.407 3.68999 19.4111 3.70344C19.4152 3.71688 19.4184 3.73345 19.4184 3.74707C19.4184 3.7607 19.4293 3.7733 19.4293 3.78707C19.4293 3.80085 19.4366 3.81318 19.4366 3.82707C19.4366 3.84097 19.4402 3.85673 19.4402 3.87071C19.4402 3.88469 19.4475 3.90032 19.4475 3.91435C19.4475 3.92837 19.4475 3.9403 19.4475 3.95435C19.4475 3.96839 19.4475 3.98396 19.4475 3.99798C19.4475 4.01201 19.4402 4.02764 19.4402 4.04162C19.4402 4.0556 19.4366 4.06773 19.4366 4.08162C19.4366 4.09551 19.4293 4.10784 19.4293 4.12162C19.4293 4.13539 19.4184 4.15163 19.4184 4.16526C19.4184 4.17889 19.4152 4.18819 19.4111 4.20162C19.407 4.21507 19.4013 4.23203 19.3966 4.24526C19.3918 4.25849 19.3874 4.26863 19.382 4.28162C19.3766 4.29461 19.3734 4.30892 19.3675 4.32162C19.3615 4.33432 19.3559 4.34922 19.3493 4.36162C19.3427 4.37402 19.3347 4.38592 19.3275 4.39798C19.3202 4.41004 19.3098 4.41902 19.302 4.43071C19.2942 4.44241 19.2849 4.45578 19.2766 4.46707C19.2682 4.47837 19.2636 4.48893 19.2547 4.4998C19.2458 4.51068 19.235 4.5221 19.2256 4.53253C19.2162 4.54296 19.2065 4.55166 19.1966 4.56162C19.1866 4.57158 19.1778 4.58126 19.1675 4.59071C19.1571 4.60017 19.1456 4.61086 19.1347 4.6198C19.1239 4.62874 19.1133 4.63686 19.102 4.64526C19.0907 4.65367 19.0773 4.66288 19.0656 4.67071C19.054 4.67855 19.0413 4.68527 19.0293 4.69253C19.0172 4.69979 19.0053 4.70767 18.9929 4.71435C18.9806 4.721 18.9729 4.72647 18.9602 4.73253C18.9475 4.73857 18.9331 4.74529 18.9202 4.75071C18.9072 4.75613 18.8934 4.76046 18.8802 4.76526C18.867 4.77003 18.8536 4.77203 18.8402 4.77617C18.8268 4.7803 18.8138 4.78708 18.8002 4.78708C18.7866 4.78708 18.7739 4.79798 18.7602 4.79798C18.7464 4.79798 18.7304 4.80526 18.7166 4.80526C18.7027 4.80526 18.6869 4.80889 18.6729 4.80889C18.6589 4.80889 18.6469 4.81253 18.6329 4.81253C18.6189 4.81253 18.6033 4.81617 18.5893 4.81617ZM13.0911 21.5871L5.22928 21.5871C5.18845 21.5871 5.14647 21.5907 5.10564 21.5907C5.06479 21.5907 5.02639 21.5871 4.98564 21.5871C4.94488 21.5871 4.90258 21.5773 4.86201 21.5725C4.82143 21.5678 4.78231 21.5646 4.74201 21.558C4.7017 21.5512 4.66194 21.5411 4.62201 21.5325C4.58209 21.5239 4.54147 21.514 4.50201 21.5034C4.46255 21.4928 4.42454 21.4832 4.38564 21.4707C4.34674 21.4582 4.30751 21.4451 4.26928 21.4307C4.23104 21.4164 4.19405 21.3996 4.15655 21.3834C4.11906 21.3672 4.08047 21.3506 4.04382 21.3325C4.00718 21.3144 3.97046 21.2941 3.93473 21.2743C3.89902 21.2545 3.864 21.2341 3.82928 21.2125C3.79457 21.191 3.76108 21.1703 3.72746 21.1471C3.69384 21.1238 3.66172 21.0992 3.62928 21.0743C3.59683 21.0496 3.56593 21.0244 3.53473 20.998C3.50354 20.9716 3.47005 20.9422 3.44019 20.9143C3.41032 20.8865 3.38138 20.86 3.35292 20.8307C3.32445 20.8014 3.29992 20.7705 3.27292 20.7398C3.24592 20.7092 3.21475 20.6772 3.18928 20.6453C3.16381 20.6133 3.14043 20.5839 3.11655 20.5507C3.09268 20.5176 3.06969 20.4832 3.04746 20.4489C3.02523 20.4146 3.00617 20.3788 2.98564 20.3434C2.96512 20.3081 2.9426 20.2743 2.92382 20.238C2.90505 20.2017 2.88626 20.1661 2.86928 20.1289C2.8523 20.0917 2.83715 20.0505 2.82201 20.0125C2.80686 19.9746 2.79527 19.9385 2.78201 19.8998C2.76874 19.8612 2.757 19.8227 2.74564 19.7834C2.73428 19.7442 2.72235 19.7032 2.71292 19.6634C2.70349 19.6237 2.69857 19.5836 2.6911 19.5434C2.68362 19.5033 2.67478 19.4603 2.66928 19.4198C2.66378 19.3793 2.65473 19.3405 2.65473 19.2998C2.65473 19.2591 2.64746 19.2206 2.64746 19.1798L2.64746 5.50344C2.64746 5.46263 2.65473 5.42414 2.65473 5.38344C2.65473 5.34274 2.66377 5.30029 2.66928 5.2598C2.67478 5.21933 2.68362 5.17997 2.6911 5.1398C2.69857 5.09965 2.70349 5.05956 2.71292 5.0198C2.72235 4.98005 2.73428 4.93903 2.74564 4.8998C2.75701 4.86056 2.76874 4.8257 2.78201 4.78708C2.79527 4.74843 2.80687 4.70865 2.82201 4.67071C2.83715 4.63277 2.8523 4.59151 2.86928 4.55435C2.88626 4.5172 2.90505 4.48518 2.92382 4.44889C2.9426 4.41262 2.96512 4.37513 2.98564 4.3398C3.00617 4.30449 3.02523 4.26863 3.04746 4.23435C3.06969 4.20007 3.09268 4.16568 3.11655 4.13253C3.14043 4.09938 3.16381 4.06992 3.18928 4.03798C3.21475 4.00604 3.24592 3.97409 3.27292 3.94344C3.29992 3.91278 3.32445 3.88183 3.35292 3.85253C3.38138 3.82323 3.41032 3.79313 3.44019 3.76526C3.47005 3.73738 3.50354 3.71164 3.53473 3.68526C3.56593 3.65888 3.59684 3.63372 3.62928 3.60889C3.66172 3.58407 3.69384 3.55937 3.72746 3.53617C3.76108 3.51296 3.79457 3.49225 3.82928 3.47071C3.86399 3.44918 3.899 3.42507 3.93473 3.40526C3.97046 3.38544 4.00718 3.36875 4.04382 3.35071C4.08047 3.33267 4.11906 3.3124 4.15655 3.29617C4.19403 3.27994 4.23104 3.26691 4.26928 3.25253C4.30752 3.23815 4.34676 3.22502 4.38564 3.21253C4.42454 3.20004 4.46255 3.18674 4.50201 3.17617C4.54147 3.16559 4.58207 3.15934 4.62201 3.15071C4.66193 3.14208 4.7017 3.13193 4.74201 3.12526C4.78231 3.11859 4.82143 3.11177 4.86201 3.10707C4.90258 3.10238 4.94488 3.0998 4.98564 3.0998C5.02639 3.0998 5.06479 3.09253 5.10564 3.09253C5.14647 3.09253 5.18845 3.09253 5.22928 3.09253L6.2111 3.09253C6.22515 3.09253 6.24072 3.09617 6.25473 3.09617C6.26875 3.09617 6.28076 3.0998 6.29473 3.0998C6.3087 3.0998 6.32449 3.10344 6.33837 3.10344C6.35225 3.10344 6.36462 3.11071 6.37837 3.11071C6.39212 3.11071 6.40477 3.11798 6.41837 3.11798C6.43199 3.11798 6.4486 3.1284 6.46201 3.13253C6.47544 3.13666 6.48881 3.14229 6.50201 3.14707C6.5152 3.15186 6.52905 3.1562 6.54201 3.16162C6.55496 3.16704 6.56569 3.17012 6.57837 3.17617C6.59105 3.18222 6.60238 3.19132 6.61473 3.19798C6.62711 3.20465 6.63907 3.21254 6.6511 3.2198C6.66313 3.22706 6.67582 3.23378 6.68746 3.24162C6.69911 3.24946 6.70893 3.25504 6.72019 3.26344C6.73145 3.27184 6.74209 3.28359 6.75292 3.29253C6.76374 3.30147 6.77888 3.30852 6.78928 3.31798C6.79965 3.32744 6.80845 3.33712 6.81837 3.34707C6.82827 3.35703 6.83442 3.36937 6.84382 3.3798C6.85323 3.39023 6.86403 3.39802 6.87292 3.40889C6.8818 3.41977 6.89004 3.43032 6.89837 3.44162C6.90672 3.45292 6.91605 3.46629 6.92382 3.47798C6.93159 3.48968 6.94207 3.50229 6.94928 3.51435C6.95649 3.52641 6.96085 3.53832 6.96746 3.55071C6.97407 3.56311 6.97966 3.57437 6.98564 3.58707C6.99163 3.59978 6.99847 3.61409 7.00382 3.62707C7.00918 3.64006 7.01366 3.65385 7.01837 3.66707C7.02308 3.6803 7.02885 3.68999 7.03292 3.70344C7.03698 3.71688 7.04019 3.73345 7.04019 3.74707C7.04019 3.7607 7.05473 3.7733 7.05473 3.78707C7.05473 3.80085 7.05837 3.81318 7.05837 3.82707C7.05837 3.84097 7.06564 3.85673 7.06564 3.87071C7.06564 3.88469 7.06928 3.90032 7.06928 3.91435C7.06928 3.92837 7.06928 3.9403 7.06928 3.95435C7.06928 3.96839 7.06928 3.98396 7.06928 3.99798C7.06928 4.01201 7.06564 4.02764 7.06564 4.04162C7.06564 4.0556 7.05837 4.06773 7.05837 4.08162C7.05837 4.09551 7.05473 4.10784 7.05473 4.12162C7.05473 4.13539 7.04019 4.15163 7.04019 4.16526C7.04019 4.17889 7.03698 4.18819 7.03292 4.20162C7.02885 4.21507 7.02308 4.23203 7.01837 4.24526C7.01366 4.25849 7.00918 4.26863 7.00382 4.28162C6.99847 4.29461 6.99163 4.30892 6.98564 4.32162C6.97966 4.33432 6.97407 4.34922 6.96746 4.36162C6.96085 4.37402 6.95649 4.38592 6.94928 4.39798C6.94207 4.41004 6.93159 4.41902 6.92382 4.43071C6.91605 4.44241 6.90672 4.45578 6.89837 4.46707C6.89004 4.47837 6.8818 4.48893 6.87292 4.4998C6.86403 4.51068 6.85323 4.5221 6.84382 4.53253C6.83442 4.54296 6.82827 4.55166 6.81837 4.56162C6.80845 4.57158 6.79965 4.58126 6.78928 4.59071C6.77888 4.60017 6.76374 4.61086 6.75292 4.6198C6.74209 4.62874 6.73145 4.63686 6.72019 4.64526C6.70893 4.65367 6.69911 4.66288 6.68746 4.67071C6.67582 4.67855 6.66313 4.68527 6.6511 4.69253C6.63907 4.69979 6.62711 4.70767 6.61473 4.71435C6.60238 4.721 6.59105 4.72647 6.57837 4.73253C6.56569 4.73857 6.55496 4.74529 6.54201 4.75071C6.52905 4.75613 6.5152 4.76046 6.50201 4.76526C6.48881 4.77003 6.47544 4.77203 6.46201 4.77617C6.4486 4.7803 6.43199 4.78708 6.41837 4.78708C6.40477 4.78708 6.39212 4.79798 6.37837 4.79798C6.36462 4.79798 6.35225 4.80526 6.33837 4.80526C6.32449 4.80526 6.3087 4.80889 6.29473 4.80889C6.28076 4.80889 6.26875 4.81253 6.25473 4.81253C6.24072 4.81253 6.22515 4.81617 6.2111 4.81617L5.22928 4.81617C5.21664 4.81617 5.20557 4.81253 5.19292 4.81253C5.18026 4.81253 5.16923 4.81253 5.15655 4.81253C5.14387 4.81253 5.12921 4.81253 5.11655 4.81253C5.10392 4.81253 5.09278 4.8198 5.08019 4.8198C5.0676 4.8198 5.05272 4.82344 5.04019 4.82344C5.02766 4.82344 5.01624 4.82708 5.00382 4.82708C4.99141 4.82708 4.97611 4.83798 4.96382 4.83798C4.95153 4.83798 4.93958 4.84157 4.92746 4.84526C4.91534 4.84894 4.90304 4.85192 4.8911 4.85617C4.87917 4.86043 4.8701 4.86953 4.85837 4.87435C4.84664 4.87915 4.83348 4.88353 4.82201 4.88889C4.81053 4.89426 4.80049 4.90116 4.78928 4.90707C4.77806 4.91299 4.76746 4.91883 4.75655 4.92526C4.74563 4.93169 4.73443 4.94013 4.72382 4.94707C4.71323 4.95401 4.70499 4.95781 4.69473 4.96526C4.68447 4.97269 4.67191 4.97917 4.66201 4.98707C4.65212 4.995 4.64243 5.00415 4.63292 5.01253C4.62342 5.0209 4.61656 5.02916 4.60746 5.03798C4.59836 5.04679 4.58704 5.05783 4.57837 5.06707C4.56969 5.07631 4.56114 5.08289 4.55292 5.09253C4.54469 5.10217 4.53885 5.11524 4.5311 5.12526C4.52335 5.13527 4.51292 5.14397 4.50564 5.15435C4.49837 5.16472 4.4906 5.17272 4.48382 5.18344C4.47705 5.19414 4.47188 5.20515 4.46564 5.21617C4.45939 5.22719 4.45319 5.2376 4.44746 5.24889C4.44174 5.26021 4.43446 5.2737 4.42928 5.28526C4.42409 5.29681 4.41935 5.30619 4.41473 5.31798C4.4101 5.32978 4.40789 5.34236 4.40382 5.35435C4.39976 5.36636 4.39292 5.37853 4.39292 5.39071C4.39292 5.40289 4.38201 5.41838 4.38201 5.43071C4.38201 5.44304 4.37837 5.45463 4.37837 5.46707C4.37837 5.47954 4.36746 5.49089 4.36746 5.50344L4.36746 19.1725C4.36746 19.1851 4.37837 19.1964 4.37837 19.2089C4.37837 19.2214 4.38201 19.2329 4.38201 19.2453C4.38201 19.2576 4.39292 19.2694 4.39292 19.2816C4.39292 19.2938 4.39976 19.306 4.40382 19.318C4.40789 19.33 4.4101 19.3426 4.41473 19.3543C4.41937 19.3661 4.4241 19.3755 4.42928 19.3871C4.43446 19.3987 4.44174 19.4121 4.44746 19.4234C4.45319 19.4347 4.45939 19.4451 4.46564 19.4562C4.4719 19.4672 4.47705 19.4782 4.48382 19.4889C4.49058 19.4996 4.49837 19.5112 4.50564 19.5216C4.51292 19.532 4.52335 19.5407 4.5311 19.5507C4.53886 19.5607 4.54469 19.5702 4.55292 19.5798C4.56114 19.5894 4.5697 19.5997 4.57837 19.6089C4.58704 19.6181 4.59836 19.6255 4.60746 19.6343C4.61656 19.6432 4.6234 19.6514 4.63292 19.6598C4.64241 19.6682 4.65211 19.681 4.66201 19.6889C4.67189 19.6968 4.68447 19.6996 4.69473 19.7071C4.70499 19.7145 4.71322 19.722 4.72382 19.7289C4.73441 19.7358 4.74563 19.7443 4.75655 19.7507C4.76747 19.7571 4.77807 19.763 4.78928 19.7689C4.80049 19.7748 4.81053 19.7817 4.82201 19.7871C4.83348 19.7924 4.84666 19.7968 4.85837 19.8016C4.8701 19.8064 4.87915 19.8119 4.8911 19.8162C4.90302 19.8204 4.91534 19.8234 4.92746 19.8271C4.93958 19.8308 4.95153 19.838 4.96382 19.838C4.97611 19.838 4.99141 19.8453 5.00382 19.8453C5.01624 19.8453 5.02766 19.8525 5.04019 19.8525C5.05272 19.8525 5.0676 19.8562 5.08019 19.8562C5.09278 19.8562 5.10392 19.8634 5.11655 19.8634C5.12921 19.8634 5.14387 19.8634 5.15655 19.8634C5.16923 19.8634 5.18026 19.8634 5.19292 19.8634C5.20557 19.8634 5.21664 19.8598 5.22928 19.8598L13.0911 19.8598C13.1052 19.8598 13.1207 19.8598 13.1347 19.8598C13.1488 19.8598 13.1607 19.8634 13.1747 19.8634C13.1887 19.8634 13.2044 19.8671 13.2184 19.8671C13.2323 19.8671 13.2482 19.8743 13.262 19.8743C13.2758 19.8743 13.2847 19.8853 13.2984 19.8853C13.312 19.8853 13.3285 19.8921 13.342 19.8962C13.3555 19.9003 13.3687 19.906 13.382 19.9107C13.3953 19.9155 13.409 19.9199 13.422 19.9253C13.435 19.9306 13.4456 19.9338 13.4584 19.9398C13.4711 19.9458 13.486 19.9514 13.4984 19.958C13.5108 19.9646 13.5227 19.9725 13.5347 19.9798C13.5468 19.987 13.5557 19.9974 13.5675 20.0053C13.5792 20.0131 13.5925 20.0187 13.6038 20.0271C13.6151 20.0355 13.6257 20.0436 13.6366 20.0525C13.6474 20.0615 13.6625 20.0722 13.6729 20.0816C13.6834 20.0911 13.692 20.1008 13.702 20.1107C13.712 20.1207 13.718 20.133 13.7275 20.1434C13.7369 20.1539 13.7513 20.1616 13.7602 20.1725C13.7691 20.1834 13.7736 20.194 13.782 20.2053C13.7904 20.2166 13.7996 20.2299 13.8075 20.2416C13.8153 20.2534 13.8257 20.2659 13.8329 20.278C13.8402 20.2901 13.8444 20.3019 13.8511 20.3143C13.8577 20.3268 13.8633 20.338 13.8693 20.3507C13.8753 20.3635 13.8821 20.3777 13.8875 20.3907C13.8929 20.4037 13.8972 20.4174 13.902 20.4307C13.9068 20.444 13.9125 20.4572 13.9166 20.4707C13.9206 20.4842 13.9275 20.4971 13.9275 20.5107C13.9275 20.5244 13.9384 20.5405 13.9384 20.5543C13.9384 20.5682 13.942 20.5768 13.942 20.5907C13.942 20.6046 13.9493 20.6203 13.9493 20.6343C13.9493 20.6484 13.9529 20.6639 13.9529 20.678C13.9529 20.6921 13.9529 20.7039 13.9529 20.718C13.9529 20.7321 13.9529 20.7475 13.9529 20.7616C13.9529 20.7757 13.9493 20.7912 13.9493 20.8053C13.9493 20.8193 13.942 20.8313 13.942 20.8453C13.942 20.8592 13.9384 20.8751 13.9384 20.8889C13.9384 20.9027 13.9275 20.9152 13.9275 20.9289C13.9275 20.9426 13.9206 20.9554 13.9166 20.9689C13.9125 20.9824 13.9068 20.9956 13.902 21.0089C13.8972 21.0222 13.8929 21.0359 13.8875 21.0489C13.8821 21.0619 13.8753 21.0762 13.8693 21.0889C13.8633 21.1017 13.8577 21.1128 13.8511 21.1253C13.8444 21.1376 13.8402 21.1494 13.8329 21.1616C13.8257 21.1737 13.8153 21.1864 13.8075 21.198C13.7996 21.2098 13.7904 21.2194 13.782 21.2307C13.7736 21.2421 13.7691 21.2562 13.7602 21.2671C13.7513 21.278 13.7369 21.2895 13.7275 21.2998C13.718 21.3103 13.712 21.319 13.702 21.3289C13.692 21.3389 13.6834 21.3485 13.6729 21.358C13.6625 21.3675 13.6474 21.3782 13.6366 21.3871C13.6257 21.396 13.6151 21.4004 13.6038 21.4089C13.5925 21.4172 13.5792 21.4265 13.5675 21.4343C13.5557 21.4421 13.5468 21.4525 13.5347 21.4598C13.5227 21.467 13.5108 21.4712 13.4984 21.478C13.486 21.4846 13.4711 21.4901 13.4584 21.4962C13.4456 21.5022 13.435 21.5089 13.422 21.5143C13.409 21.5197 13.3953 21.5278 13.382 21.5325C13.3687 21.5373 13.3555 21.5393 13.342 21.5434C13.3285 21.5475 13.312 21.5543 13.2984 21.5543C13.2847 21.5543 13.2758 21.5653 13.262 21.5653C13.2482 21.5653 13.2323 21.5689 13.2184 21.5689C13.2044 21.5689 13.1887 21.5762 13.1747 21.5762C13.1607 21.5762 13.1488 21.5798 13.1347 21.5798C13.1207 21.5798 13.1052 21.5834 13.0911 21.5834L13.0911 21.5871Z"   fill="#034FA1" ></path><path d="M20.9934 17.0498L17.6667 13.9745C17.2885 13.6253 16.6854 13.8994 16.6854 14.4204L16.6854 15.6483C16.6854 15.6896 16.6523 15.7234 16.6119 15.7234L13.7479 15.7234C13.5854 15.7234 13.4541 15.8576 13.4541 16.0238L13.4541 18.5208C13.4541 18.687 13.5854 18.8212 13.7479 18.8212L16.6119 18.8212C16.6523 18.8212 16.6854 18.855 16.6854 18.8963L16.6854 20.1252C16.6854 20.6462 17.2894 20.9203 17.6667 20.5711L20.9934 17.4957C21.1228 17.3756 21.1228 17.1691 20.9934 17.0498ZM14.0416 18.0702L14.0416 16.4744C14.0416 16.3918 14.1077 16.3242 14.1885 16.3242L16.9791 16.3242C17.1416 16.3242 17.2729 16.1899 17.2729 16.0238L17.2729 14.7649C17.2729 14.6345 17.4234 14.5659 17.518 14.6532L20.3022 17.2169C20.3343 17.247 20.3343 17.2986 20.3022 17.3286L17.518 19.8914C17.4234 19.9787 17.2729 19.9102 17.2729 19.7797L17.2729 18.5208C17.2729 18.3547 17.1416 18.2204 16.9791 18.2204L14.1885 18.2204C14.1077 18.2204 14.0416 18.1529 14.0416 18.0702Z" stroke="rgba(204, 78, 29, 1)" stroke-width="0.8"      fill="#CC4E1D" ></path><path d="M6.82156 11.6517L12.8309 11.6517C13.313 11.6517 13.5538 11.8925 13.5538 12.3746C13.5538 12.8567 13.313 13.0986 12.8309 13.0986L6.82156 13.0986C6.33945 13.0986 6.09863 12.8567 6.09863 12.3746C6.09863 11.8925 6.33945 11.6517 6.82156 11.6517ZM6.82156 15.1727L10.1453 15.1727C10.6274 15.1727 10.8682 15.4135 10.8682 15.8956C10.8682 16.3777 10.6274 16.6196 10.1453 16.6196L6.82156 16.6196C6.33944 16.6196 6.09863 16.3777 6.09863 15.8956C6.09863 15.4135 6.33945 15.1727 6.82156 15.1727ZM6.82156 8.13074L15.4394 8.13074C15.9215 8.13074 16.1623 8.37154 16.1623 8.85366C16.1623 9.33577 15.9215 9.57659 15.4394 9.57659L6.82156 9.57659C6.33945 9.57659 6.09863 9.33577 6.09863 8.85366C6.09863 8.37153 6.33945 8.13074 6.82156 8.13074Z"   fill="#034FA1" ></path><path d="M7.52832 5.18578L7.52832 2.83517C7.52832 2.26123 7.81507 1.97449 8.389 1.97449C8.96293 1.97449 9.24968 2.26123 9.24968 2.83517L9.24968 5.18578C9.24968 5.75971 8.96293 6.04646 8.389 6.04646C7.81506 6.04646 7.52832 5.75971 7.52832 5.18578ZM15.0695 5.18578L15.0695 2.83517C15.0695 2.26123 15.3573 1.97449 15.9312 1.97449C16.5052 1.97449 16.7919 2.26123 16.7919 2.83517L16.7919 5.18578C16.7919 5.75971 16.5052 6.04646 15.9312 6.04646C15.3573 6.04646 15.0695 5.75971 15.0695 5.18578Z"   fill="#034FA1" ></path></svg>