<svg xmlns="http://www.w3.org/2000/svg" xmlns:xlink="http://www.w3.org/1999/xlink" width="24" height="24" viewBox="0 0 24 24" fill="none"><path d="M9.30711 19.4422L9.40854 19.4614L9.50854 19.4948L9.61425 19.5467L11.9014 20.84C11.9357 20.8656 11.985 20.8756 12.0235 20.872L12.0571 20.8635L12.1192 20.8265L14.2985 19.5737C14.7221 19.3641 15.2356 19.4941 15.4456 19.8693C15.4524 19.8796 15.459 19.89 15.4653 19.9006C15.4716 19.9112 15.4777 19.9219 15.4835 19.9328C15.4893 19.9437 15.4949 19.9546 15.5002 19.9658C15.5055 19.9769 15.5106 19.9881 15.5154 19.9994C15.5202 20.0108 15.5248 20.0222 15.5291 20.0338C15.5334 20.0453 15.5374 20.0569 15.5412 20.0686C15.5449 20.0804 15.5484 20.0922 15.5517 20.1041C15.5549 20.1159 15.5578 20.1279 15.5605 20.1399C15.5632 20.1519 15.5656 20.164 15.5678 20.1761C15.5699 20.1882 15.5718 20.2004 15.5733 20.2126C15.5749 20.2248 15.5762 20.237 15.5773 20.2493C15.5783 20.2616 15.5791 20.2739 15.5795 20.2862C15.58 20.2984 15.5802 20.3107 15.5801 20.3231C15.58 20.3354 15.5797 20.3477 15.579 20.36C15.5784 20.3723 15.5775 20.3845 15.5762 20.3968C15.575 20.409 15.5736 20.4212 15.5718 20.4334C15.57 20.4456 15.568 20.4577 15.5657 20.4698C15.5634 20.4819 15.5608 20.494 15.558 20.5059C15.5551 20.5179 15.552 20.5298 15.5486 20.5417C15.5452 20.5535 15.5415 20.5653 15.5376 20.5769C15.5337 20.5886 15.5295 20.6002 15.525 20.6117C15.5206 20.6231 15.5159 20.6345 15.5109 20.6458C15.5059 20.657 15.5007 20.6682 15.4952 20.6792C15.4898 20.6903 15.484 20.7012 15.4781 20.712C15.4721 20.7227 15.4659 20.7334 15.4594 20.7439C15.453 20.7544 15.4463 20.7647 15.4393 20.7749C15.4324 20.7851 15.4253 20.7952 15.4179 20.805C15.4105 20.8149 15.4029 20.8246 15.3951 20.8341C15.3872 20.8437 15.3792 20.853 15.371 20.8622C15.3627 20.8714 15.3543 20.8804 15.3456 20.8892C15.337 20.898 15.3281 20.9066 15.3191 20.915C15.31 20.9234 15.3008 20.9315 15.2914 20.9395L15.2199 20.9942L12.9864 22.2798C12.7092 22.451 12.3578 22.5356 12 22.5356C11.75 22.5356 11.5 22.4937 11.2714 22.4063L11.1378 22.348L11.0207 22.284L8.75782 21.0063C8.36354 20.7896 8.2314 20.2801 8.46425 19.8281C8.61283 19.6313 8.77711 19.4998 8.98139 19.4593C9.09711 19.4365 9.20425 19.4294 9.30711 19.4422ZM12.7535 1.64241L12.8878 1.70282L13.0149 1.77033L16.4899 3.81907L16.5914 3.89724L16.6185 3.9214C16.6899 3.98535 16.7471 4.05144 16.7971 4.15591C16.8456 4.30016 16.8735 4.44442 16.8735 4.60787C16.8735 4.6839 16.8542 4.74715 16.7914 4.87009L16.7128 5.01505C16.6847 5.04173 16.6542 5.06542 16.6214 5.08612L16.5135 5.15149C16.4479 5.18874 16.381 5.22356 16.3128 5.25596C16.1882 5.30182 16.0644 5.34963 15.9413 5.39937C15.8182 5.44912 15.696 5.50079 15.5745 5.55438C15.4531 5.60796 15.3325 5.66344 15.2129 5.72082C15.0932 5.77818 14.9745 5.83743 14.8567 5.89854C14.7389 5.95963 14.6221 6.02257 14.5063 6.08735C14.3905 6.15213 14.2758 6.2187 14.1621 6.28708C14.0484 6.35545 13.9358 6.42558 13.8244 6.49749C13.7129 6.56942 13.6026 6.64306 13.4935 6.71843L13.3692 6.80655L13.4528 6.88827C13.585 7.01849 13.7147 7.15122 13.8417 7.28649C13.9687 7.42175 14.093 7.55946 14.2146 7.69956C14.3362 7.83967 14.455 7.9821 14.5709 8.12685C14.6869 8.2716 14.8 8.41854 14.9102 8.56768C15.0204 8.71685 15.1276 8.86808 15.2319 9.02142C15.3361 9.17474 15.4373 9.33003 15.5354 9.4873C15.6335 9.64457 15.7285 9.80369 15.8204 9.96467C15.9122 10.1256 16.0009 10.2883 16.0864 10.4528L16.2492 10.7797L16.4035 11.1115C16.7392 11.8946 16.9864 12.5712 17.1628 13.2235L17.2278 13.4758L17.5842 13.3067L17.9349 13.1326L18.1249 13.0302C18.1856 12.9968 18.2435 12.9627 18.3035 12.9265C18.8863 12.6095 19.4749 12.196 20.1135 11.6701C20.3678 11.4612 20.7113 11.4143 21.0135 11.5422C21.2656 11.6488 21.4328 11.8726 21.4663 12.1483L21.472 12.2421L21.4678 12.3139L21.4678 16.2792C21.4678 16.8747 21.1913 17.4375 20.7149 17.812L20.6006 17.8945L20.4863 17.9662L16.9392 20.0058C16.7906 20.1038 16.4078 20.1457 16.2192 20.0988C16.201 20.0945 16.183 20.0896 16.1651 20.084C16.1473 20.0783 16.1296 20.0721 16.1122 20.0652C16.0948 20.0583 16.0777 20.0508 16.0609 20.0427C16.044 20.0346 16.0275 20.0259 16.0113 20.0166C15.995 20.0073 15.9792 19.9974 15.9637 19.9869C15.9482 19.9764 15.9331 19.9654 15.9184 19.9539C15.9037 19.9424 15.8895 19.9303 15.8757 19.9177C15.8618 19.9051 15.8485 19.8921 15.8356 19.8786C15.8042 19.8452 15.7757 19.8095 15.7502 19.7714C15.7246 19.7334 15.7024 19.6935 15.6835 19.6519C15.671 19.6197 15.6608 19.5868 15.6528 19.5533C15.6448 19.5197 15.6391 19.4858 15.6356 19.4515C15.626 19.362 15.6248 19.2725 15.6321 19.1828L15.6392 19.1182C15.6637 18.9834 15.686 18.8484 15.7062 18.7129C15.7263 18.5775 15.7441 18.4417 15.7598 18.3057C15.7755 18.1697 15.7889 18.0335 15.8001 17.897C15.8113 17.7605 15.8203 17.6239 15.8271 17.4872C15.8338 17.3504 15.8383 17.2136 15.8406 17.0767C15.8429 16.9398 15.8429 16.8029 15.8407 16.666C15.8385 16.5291 15.8341 16.3923 15.8274 16.2556C15.8207 16.1188 15.8118 15.9822 15.8006 15.8457L15.7892 15.7221L15.6892 15.7505C14.2899 16.1207 12.8392 16.2771 11.3628 16.2202L10.96 16.1996L10.5871 16.1712C9.68353 16.0788 8.88354 15.9353 8.11926 15.7164L8.05354 15.6965L8.03569 15.9786L8.01426 16.4121L8.00854 16.6665L8.00854 16.7909C8.00854 17.3807 8.06569 18.0217 8.17497 18.7167L8.23426 19.0763L8.23568 19.1011C8.2395 19.1544 8.2393 19.2077 8.2351 19.2609C8.23091 19.3141 8.22276 19.3667 8.21068 19.4188C8.20502 19.4438 8.19787 19.4684 8.18926 19.4925C8.18066 19.5167 8.17064 19.5403 8.15921 19.5633C8.14776 19.5863 8.13502 19.6085 8.12093 19.63C8.10685 19.6514 8.09151 19.672 8.07497 19.6917C7.99426 19.7712 7.8464 19.8807 7.75997 19.9233C7.63069 19.9873 7.45497 20.0413 7.30855 20.0413C7.25926 20.0413 7.15069 20.0228 7.05498 19.9951L6.98641 19.9724L6.94283 19.9489L3.47999 17.9662C3.46395 17.957 3.44804 17.9475 3.43227 17.9377C3.4165 17.928 3.40086 17.9181 3.38535 17.9079C3.36986 17.8977 3.35452 17.8873 3.33932 17.8768C3.32413 17.8662 3.30908 17.8553 3.29419 17.8443C3.27929 17.8333 3.26456 17.8221 3.24999 17.8106C3.23542 17.7992 3.22102 17.7875 3.20678 17.7757C3.19254 17.7639 3.17846 17.7518 3.16455 17.7396C3.15065 17.7274 3.13693 17.7149 3.12339 17.7023C3.10985 17.6897 3.09648 17.6769 3.0833 17.6639C3.07011 17.6509 3.05712 17.6377 3.0443 17.6243C3.03151 17.611 3.01889 17.5974 3.00647 17.5837C2.99404 17.57 2.98182 17.5561 2.96979 17.542C2.95776 17.528 2.94593 17.5138 2.9343 17.4993C2.92268 17.485 2.91126 17.4704 2.90004 17.4557C2.88883 17.441 2.87784 17.4261 2.86705 17.4111C2.85626 17.396 2.84569 17.3809 2.83533 17.3655C2.82497 17.3502 2.81484 17.3348 2.80493 17.3192C2.795 17.3035 2.78531 17.2878 2.77584 17.2719C2.76636 17.256 2.75712 17.24 2.74811 17.2239C2.73909 17.2077 2.7303 17.1915 2.72175 17.1751C2.7132 17.1587 2.70488 17.1422 2.69679 17.1256C2.68871 17.109 2.68086 17.0922 2.67325 17.0754C2.66564 17.0586 2.65827 17.0416 2.65114 17.0246C2.64401 17.0075 2.63713 16.9904 2.63049 16.9731C2.62385 16.9559 2.61745 16.9385 2.6113 16.9211C2.60515 16.9037 2.59925 16.8862 2.5936 16.8686C2.58795 16.851 2.58255 16.8334 2.5774 16.8156C2.57225 16.7979 2.56736 16.7801 2.56271 16.7622C2.55807 16.7443 2.55368 16.7264 2.54955 16.7084C2.54541 16.6904 2.54153 16.6723 2.53791 16.6542C2.53429 16.6361 2.53093 16.6179 2.52782 16.5997C2.52472 16.5815 2.52187 16.5633 2.51929 16.545L2.505 16.4078L2.5 16.2792L2.5 12.2812C2.5 11.9444 2.70857 11.641 3.01857 11.5095C3.32142 11.3816 3.66428 11.4285 3.91856 11.6374C4.02115 11.7218 4.12506 11.8045 4.23028 11.8856C4.3355 11.9668 4.44199 12.0462 4.54974 12.1239C4.65749 12.2017 4.76646 12.2777 4.87664 12.352C4.9868 12.4264 5.09813 12.4989 5.21061 12.5697C5.32309 12.6406 5.43668 12.7096 5.55137 12.7768C5.66603 12.844 5.78175 12.9095 5.89851 12.9731C6.01527 13.0366 6.13302 13.0984 6.25174 13.1583C6.37047 13.2181 6.49014 13.2761 6.61069 13.3322L6.74212 13.3898L6.77069 13.2782C6.81737 13.1011 6.86752 12.925 6.92116 12.7498C6.97478 12.5747 7.03181 12.4006 7.09228 12.2277C7.15274 12.0547 7.2166 11.883 7.28384 11.7126C7.35105 11.5421 7.4216 11.373 7.49549 11.2053C7.56937 11.0377 7.64654 10.8715 7.72696 10.7067C7.80738 10.542 7.891 10.379 7.97785 10.2175C8.0647 10.0561 8.15468 9.8964 8.2478 9.73847C8.34093 9.58055 8.43713 9.42448 8.5364 9.2703L8.73854 8.96686L8.94854 8.66839C9.18996 8.3443 9.443 8.02945 9.70764 7.72381C9.97228 7.41818 10.2478 7.12262 10.5342 6.8371L10.6292 6.74401L10.4578 6.62605C10.2757 6.50311 10.1078 6.39367 9.94567 6.29276L9.78568 6.19541L9.62853 6.10303C9.37081 5.95733 9.1082 5.82091 8.84072 5.69377C8.57325 5.56664 8.30155 5.44914 8.02569 5.34123L7.7264 5.2254C7.57497 5.17566 7.34069 5.01577 7.31926 4.95039C7.21283 4.84521 7.16712 4.73578 7.1264 4.47924C7.1264 4.39468 7.13783 4.32361 7.16212 4.25184L7.1864 4.18859L7.22783 4.10332L7.25998 4.04078C7.3114 3.96404 7.40069 3.88445 7.50926 3.80059L7.59426 3.73806L7.62283 3.71887L11.0507 1.76891C11.0665 1.7595 11.0825 1.75033 11.0986 1.74139C11.1147 1.73244 11.1309 1.72374 11.1473 1.71526C11.1636 1.70678 11.1801 1.69855 11.1967 1.69054C11.2133 1.68254 11.23 1.67478 11.2468 1.66726C11.2636 1.65974 11.2806 1.65246 11.2976 1.64543C11.3146 1.63839 11.3317 1.6316 11.349 1.62506C11.3662 1.61852 11.3835 1.61223 11.4009 1.60619C11.4183 1.60015 11.4358 1.59436 11.4534 1.58882C11.471 1.58328 11.4887 1.57799 11.5064 1.57296C11.5241 1.56793 11.5419 1.56315 11.5598 1.55863C11.5777 1.55411 11.5956 1.54985 11.6136 1.54585C11.6316 1.54185 11.6497 1.5381 11.6678 1.53462C11.6859 1.53114 11.704 1.52792 11.7222 1.52495C11.7404 1.52199 11.7587 1.51929 11.7769 1.51686C11.7952 1.51442 11.8135 1.51225 11.8319 1.51034C11.8502 1.50843 11.8686 1.50678 11.887 1.5054C11.9053 1.50402 11.9237 1.5029 11.9422 1.50205C11.9606 1.5012 11.979 1.50061 11.9975 1.50029C12.0159 1.49997 12.0343 1.49991 12.0528 1.50012C12.0712 1.50033 12.0897 1.50081 12.1081 1.50155C12.1265 1.50229 12.1449 1.50329 12.1633 1.50456C12.1817 1.50583 12.2001 1.50736 12.2184 1.50916C12.2368 1.51096 12.2551 1.51302 12.2734 1.51535C12.2917 1.51767 12.3099 1.52026 12.3282 1.52311C12.3464 1.52596 12.3645 1.52907 12.3827 1.53244C12.4008 1.53582 12.4189 1.53945 12.4369 1.54334C12.4549 1.54724 12.4729 1.55139 12.4908 1.5558C12.5087 1.56021 12.5265 1.56487 12.5443 1.5698C12.562 1.57472 12.5797 1.5799 12.5973 1.58533C12.6149 1.59076 12.6325 1.59645 12.6499 1.60238C12.6674 1.60832 12.6847 1.61451 12.702 1.62094C12.7193 1.62738 12.7364 1.63406 12.7535 1.64099L12.7535 1.64241ZM19.7771 14.0223L19.3063 14.3108L19.1206 14.4216C18.6989 14.6441 18.2711 14.8542 17.8371 15.052L17.5214 15.1905L17.5549 15.5622C17.6078 16.2089 17.6242 16.8221 17.6013 17.4098L17.5842 17.7161L19.6699 16.5358C19.6797 16.5299 19.689 16.5233 19.6977 16.516C19.7065 16.5087 19.7147 16.5008 19.7222 16.4922C19.7297 16.4837 19.7365 16.4746 19.7426 16.465C19.7487 16.4553 19.754 16.4453 19.7585 16.4348L19.7728 16.3936L19.7771 16.3432L19.7771 14.0223ZM4.25499 13.9889L4.25499 16.3112C4.25499 16.3567 4.27285 16.4014 4.30856 16.4441L4.37499 16.5102L6.35855 17.6536L6.32712 16.9628L6.31784 16.8228C6.31784 16.2572 6.34569 15.7455 6.40784 15.2566L6.42641 15.1287L6.23355 15.0505C5.93572 14.923 5.64326 14.7843 5.35617 14.6344C5.06907 14.4845 4.7882 14.3238 4.51356 14.1523L4.25499 13.9889ZM11.9678 7.87178L11.8371 7.99401C11.7029 8.12254 11.5721 8.25439 11.4446 8.38952C11.3172 8.52465 11.1933 8.66293 11.0728 8.80432C10.9524 8.94572 10.8357 9.09004 10.7226 9.23732C10.6096 9.3846 10.5004 9.53463 10.395 9.68743C9.46354 10.995 8.79854 12.4255 8.43283 13.9228L8.40211 14.0564L8.51997 14.0926C9.12925 14.2731 9.76496 14.401 10.4671 14.4906L10.8235 14.5318C12.3857 14.681 13.9485 14.546 15.4164 14.1303L15.5614 14.0869L15.5206 13.915C15.4429 13.6124 15.3547 13.3129 15.256 13.0164C15.1573 12.72 15.0484 12.4273 14.9292 12.1384L14.7814 11.7944C14.1149 10.327 13.2028 9.03366 12.0707 7.96629L11.9678 7.87178ZM17.9928 4.63629L18.0913 4.66756L18.1899 4.71162L20.5199 6.0547C20.536 6.06399 20.5518 6.07349 20.5676 6.08322C20.5834 6.09294 20.5991 6.10289 20.6145 6.11306C20.63 6.12321 20.6454 6.13361 20.6606 6.1442C20.6758 6.15479 20.6908 6.16561 20.7057 6.17664C20.7206 6.18766 20.7353 6.19889 20.7499 6.21033C20.7645 6.22177 20.7789 6.2334 20.7931 6.24524C20.8074 6.25708 20.8214 6.26911 20.8354 6.28135C20.8493 6.29359 20.863 6.30602 20.8765 6.31864C20.8901 6.33127 20.9034 6.34408 20.9166 6.35708C20.9298 6.37007 20.9428 6.38326 20.9556 6.39663C20.9684 6.40997 20.981 6.42352 20.9935 6.43724C21.0059 6.45097 21.0181 6.46485 21.0301 6.4789C21.0422 6.49296 21.054 6.5072 21.0656 6.52161C21.0772 6.536 21.0886 6.55054 21.0999 6.56527C21.1111 6.57999 21.1221 6.59485 21.1328 6.60988C21.1436 6.62492 21.1542 6.64008 21.1646 6.65541C21.1749 6.67073 21.1851 6.68619 21.195 6.7018C21.2049 6.71741 21.2146 6.73315 21.2241 6.74903C21.2335 6.76491 21.2428 6.78092 21.2518 6.79707C21.2608 6.81321 21.2696 6.82947 21.2782 6.84585C21.2867 6.86224 21.295 6.87874 21.3031 6.89535C21.3112 6.91199 21.3191 6.92871 21.3267 6.94556C21.3343 6.9624 21.3416 6.97934 21.3488 6.9964C21.3559 7.01343 21.3628 7.03057 21.3694 7.04783C21.376 7.06508 21.3824 7.0824 21.3886 7.09984C21.3947 7.11725 21.4007 7.13475 21.4063 7.15234C21.412 7.16992 21.4174 7.1876 21.4225 7.20534C21.4277 7.22309 21.4326 7.2409 21.4372 7.25877C21.4418 7.27665 21.4462 7.29457 21.4503 7.31258C21.4545 7.33059 21.4584 7.34865 21.462 7.36674C21.4656 7.38487 21.469 7.40303 21.4721 7.42122C21.4752 7.43943 21.478 7.45768 21.4806 7.47596L21.4949 7.61311L21.4999 7.74102L21.4999 10.2673C21.4998 10.2803 21.4994 10.2933 21.4987 10.3063C21.498 10.3193 21.497 10.3323 21.4957 10.3452C21.4944 10.3582 21.4928 10.3711 21.4909 10.3839C21.4891 10.3968 21.4869 10.4096 21.4844 10.4224C21.4819 10.4352 21.4792 10.4479 21.4761 10.4606C21.473 10.4732 21.4697 10.4858 21.4661 10.4983C21.4624 10.5108 21.4585 10.5232 21.4543 10.5355C21.4501 10.5478 21.4457 10.56 21.4409 10.5721C21.4362 10.5843 21.4311 10.5963 21.4258 10.6082C21.4205 10.62 21.4149 10.6318 21.4091 10.6435C21.4032 10.6551 21.3971 10.6666 21.3908 10.6779C21.3844 10.6893 21.3778 10.7005 21.3709 10.7116C21.364 10.7226 21.3569 10.7335 21.3495 10.7443C21.3421 10.755 21.3345 10.7656 21.3266 10.776C21.3187 10.7864 21.3106 10.7966 21.3023 10.8066C21.294 10.8166 21.2854 10.8265 21.2766 10.8361C21.2679 10.8457 21.2589 10.8552 21.2497 10.8644C21.2404 10.8736 21.231 10.8826 21.2214 10.8914C21.2118 10.9002 21.2019 10.9088 21.1919 10.9172C21.1819 10.9255 21.1717 10.9337 21.1613 10.9416C21.1509 10.9494 21.1403 10.9571 21.1296 10.9645C21.1189 10.9719 21.1079 10.9791 21.0969 10.986C21.0858 10.9929 21.0746 10.9996 21.0632 11.006C21.0518 11.0124 21.0403 11.0186 21.0287 11.0245C21.017 11.0304 21.0052 11.036 20.9933 11.0414C20.9814 11.0467 20.9693 11.0518 20.9572 11.0566C20.945 11.0614 20.9328 11.066 20.9204 11.0702C20.9081 11.0745 20.8956 11.0784 20.8831 11.0822C20.8706 11.0858 20.8579 11.0892 20.8452 11.0924C20.8325 11.0955 20.8198 11.0983 20.807 11.1009C20.7941 11.1034 20.7813 11.1057 20.7683 11.1076C20.7554 11.1096 20.7424 11.1113 20.7295 11.1126C20.7164 11.114 20.7034 11.1151 20.6904 11.1159C20.6773 11.1166 20.6643 11.1171 20.6512 11.1173C20.6381 11.1175 20.625 11.1174 20.612 11.117C20.5989 11.1166 20.5858 11.1159 20.5728 11.1149C20.5598 11.1139 20.5468 11.1126 20.5338 11.1111C20.5208 11.1095 20.5079 11.1076 20.495 11.1054C20.4821 11.1033 20.4692 11.1008 20.4565 11.0981C20.4437 11.0953 20.431 11.0923 20.4183 11.0889C20.4057 11.0856 20.3931 11.082 20.3806 11.0781C20.3682 11.0742 20.3558 11.0701 20.3435 11.0656C20.3312 11.0611 20.3191 11.0564 20.307 11.0514C20.2949 11.0464 20.283 11.0411 20.2711 11.0356C20.2593 11.03 20.2476 11.0242 20.236 11.0181C20.2245 11.0121 20.2131 11.0057 20.2018 10.9991C20.1905 10.9925 20.1794 10.9857 20.1685 10.9786C20.1575 10.9715 20.1467 10.9641 20.1361 10.9565C20.1255 10.949 20.115 10.9411 20.1048 10.9331C20.0945 10.925 20.0844 10.9167 20.0745 10.9082C20.0646 10.8997 20.055 10.891 20.0455 10.882C20.036 10.8731 20.0267 10.8639 20.0177 10.8545C20.0086 10.8451 19.9998 10.8356 19.9911 10.8258C19.9825 10.816 19.9741 10.806 19.9659 10.7959C19.9578 10.7857 19.9498 10.7754 19.9421 10.7649C19.9344 10.7544 19.927 10.7437 19.9198 10.7328C19.9126 10.722 19.9056 10.711 19.8989 10.6998C19.8922 10.6886 19.8858 10.6773 19.8796 10.6658C19.8734 10.6544 19.8675 10.6428 19.8618 10.6311C19.8562 10.6193 19.8508 10.6075 19.8457 10.5955C19.8406 10.5835 19.8357 10.5714 19.8312 10.5592C19.8266 10.547 19.8223 10.5348 19.8183 10.5224C19.8143 10.51 19.8106 10.4975 19.8072 10.485C19.8038 10.4724 19.8006 10.4598 19.7978 10.4471L19.7828 10.3611L19.7771 10.2673L19.7771 7.70905C19.7769 7.70298 19.7764 7.69692 19.7757 7.69088C19.775 7.68484 19.774 7.67884 19.7728 7.67289C19.7716 7.66692 19.7701 7.66103 19.7683 7.65522C19.7666 7.6494 19.7646 7.64367 19.7623 7.63801C19.7601 7.63234 19.7576 7.62681 19.7548 7.62137C19.7521 7.61593 19.7492 7.6106 19.746 7.60543C19.7428 7.60025 19.7394 7.59521 19.7357 7.59033C19.7321 7.58544 19.7282 7.58071 19.7242 7.57616L19.6578 7.51007L17.3321 6.16983C16.9371 5.95308 16.8049 5.44356 17.0221 5.01577C17.2085 4.68319 17.6121 4.5368 17.9935 4.63629L17.9928 4.63629ZM6.93783 5.01008L7.01355 5.13941C7.17212 5.44143 7.11926 5.81735 6.88355 6.06963L6.81498 6.135L6.74355 6.18972L4.36285 7.54844C4.35298 7.55428 4.34363 7.56084 4.33481 7.56812C4.32599 7.5754 4.31778 7.58333 4.31019 7.59188C4.30262 7.60045 4.29575 7.60956 4.28961 7.6192C4.28346 7.62883 4.27811 7.63889 4.27356 7.64935L4.25999 7.69128L4.25499 7.74102L4.25499 10.2673C4.25488 10.2803 4.25448 10.2933 4.25378 10.3063C4.25308 10.3193 4.25209 10.3323 4.25079 10.3452C4.2495 10.3582 4.24791 10.3711 4.24602 10.3839C4.24414 10.3968 4.24196 10.4096 4.23948 10.4224C4.237 10.4352 4.23425 10.4479 4.23119 10.4606C4.22814 10.4732 4.2248 10.4858 4.22117 10.4983C4.21754 10.5108 4.21363 10.5232 4.20943 10.5355C4.20523 10.5478 4.20076 10.56 4.19602 10.5721C4.19125 10.5843 4.18622 10.5963 4.1809 10.6082C4.17561 10.62 4.17003 10.6318 4.16419 10.6435C4.15834 10.6551 4.15223 10.6666 4.14586 10.6779C4.13949 10.6893 4.13286 10.7005 4.12597 10.7116C4.1191 10.7226 4.11197 10.7335 4.10459 10.7443C4.09721 10.755 4.08958 10.7656 4.08171 10.776C4.07384 10.7864 4.06573 10.7966 4.0574 10.8066C4.04907 10.8166 4.04051 10.8265 4.03173 10.8361C4.02295 10.8457 4.01396 10.8552 4.00474 10.8644C3.99552 10.8736 3.98609 10.8826 3.97646 10.8914C3.96684 10.9003 3.95701 10.9088 3.947 10.9172C3.93698 10.9255 3.92678 10.9337 3.91637 10.9416C3.90599 10.9494 3.89542 10.9571 3.88468 10.9645C3.87393 10.9719 3.86303 10.9791 3.85195 10.986C3.84088 10.9929 3.82966 10.9996 3.81827 11.006C3.8069 11.0124 3.79539 11.0186 3.78374 11.0245C3.77207 11.0304 3.76028 11.036 3.74836 11.0414C3.73646 11.0467 3.72443 11.0518 3.71227 11.0566C3.70013 11.0614 3.68788 11.066 3.67553 11.0702C3.66316 11.0745 3.65071 11.0785 3.63818 11.0822C3.62564 11.0858 3.61302 11.0892 3.60033 11.0924C3.58763 11.0955 3.57487 11.0983 3.56205 11.1009C3.54923 11.1034 3.53636 11.1057 3.52343 11.1076C3.5105 11.1096 3.49754 11.1113 3.48455 11.1126C3.47154 11.114 3.45851 11.1151 3.44546 11.1159C3.43241 11.1166 3.41935 11.1171 3.40627 11.1173C3.39319 11.1175 3.38011 11.1174 3.36705 11.117C3.35398 11.1166 3.34093 11.1159 3.3279 11.1149C3.31484 11.1139 3.30183 11.1126 3.28886 11.1111C3.27588 11.1095 3.26295 11.1076 3.25006 11.1054C3.23716 11.1033 3.22432 11.1008 3.21153 11.0981C3.19877 11.0953 3.18606 11.0923 3.17341 11.0889C3.16078 11.0856 3.14822 11.082 3.13573 11.0781C3.12326 11.0742 3.11088 11.0701 3.09859 11.0656C3.08631 11.0611 3.07414 11.0564 3.06207 11.0514C3.04999 11.0464 3.03804 11.0411 3.02622 11.0356C3.01439 11.03 3.0027 11.0242 2.99113 11.0181C2.97957 11.0121 2.96816 11.0057 2.95689 10.9991C2.94561 10.9925 2.9345 10.9857 2.92354 10.9786C2.91259 10.9715 2.9018 10.9641 2.89118 10.9566C2.88055 10.949 2.87011 10.9412 2.85984 10.9331C2.84959 10.925 2.83951 10.9167 2.82962 10.9082C2.81974 10.8997 2.81005 10.891 2.80057 10.882C2.79109 10.8731 2.78181 10.8639 2.77275 10.8545C2.76368 10.8451 2.75484 10.8356 2.74621 10.8258C2.73759 10.816 2.72919 10.806 2.72102 10.7959C2.71285 10.7857 2.70492 10.7754 2.69722 10.7649C2.68952 10.7544 2.68207 10.7437 2.67486 10.7328C2.66765 10.722 2.6607 10.711 2.65399 10.6998C2.64729 10.6886 2.64084 10.6773 2.63466 10.6658C2.62847 10.6544 2.62255 10.6428 2.6169 10.6311C2.61124 10.6193 2.60586 10.6075 2.60074 10.5955C2.59563 10.5835 2.5908 10.5714 2.58624 10.5592C2.58168 10.547 2.5774 10.5348 2.5734 10.5224C2.5694 10.51 2.56569 10.4975 2.56227 10.485C2.55884 10.4724 2.5557 10.4598 2.55285 10.4471L2.53785 10.3611L2.53214 10.2673L2.53214 7.773C2.53214 7.1775 2.80857 6.61468 3.28499 6.24089L3.39928 6.15774L3.51356 6.08597L5.79927 4.78197C5.8105 4.77466 5.82188 4.76765 5.83346 4.76089C5.84505 4.75417 5.85677 4.7477 5.86864 4.74151C5.88054 4.73533 5.89257 4.72945 5.90474 4.72385C5.9169 4.71826 5.92922 4.71295 5.94166 4.70795C5.95409 4.70296 5.96663 4.69825 5.97929 4.69385C5.99195 4.68945 6.00471 4.68537 6.01757 4.68157C6.03045 4.6778 6.0434 4.67433 6.05641 4.67118C6.06945 4.66802 6.08255 4.66518 6.09572 4.66267C6.10889 4.66016 6.1221 4.65796 6.13538 4.65608C6.14866 4.65419 6.16199 4.65263 6.17534 4.65139C6.18869 4.65017 6.20206 4.64926 6.21547 4.64866C6.22886 4.64806 6.24226 4.64779 6.25567 4.64786C6.26909 4.64793 6.2825 4.6483 6.2959 4.64899C6.30929 4.6497 6.32266 4.65075 6.33598 4.6521C6.34933 4.65346 6.36264 4.65512 6.3759 4.65712C6.38915 4.6591 6.40237 4.66141 6.41551 4.66405C6.42866 4.66669 6.44172 4.66965 6.45473 4.67291C6.46775 4.67617 6.48065 4.67975 6.49348 4.68364C6.50632 4.68752 6.51904 4.69174 6.53165 4.69625C6.54426 4.70076 6.55679 4.70555 6.56918 4.71066C6.58156 4.71577 6.59382 4.72119 6.60594 4.7269C6.61806 4.7326 6.63005 4.73858 6.64188 4.74486C6.65371 4.75115 6.66538 4.75772 6.6769 4.76456C6.68839 4.77142 6.69973 4.77853 6.71089 4.78592C6.72208 4.79332 6.73306 4.80098 6.74384 4.80891C6.75462 4.81683 6.76522 4.82501 6.7756 4.83345C6.78598 4.84188 6.79616 4.85057 6.80612 4.85949C6.81609 4.86842 6.82583 4.87759 6.83536 4.88699C6.84487 4.89638 6.85415 4.90602 6.86319 4.91588C6.87223 4.92572 6.88105 4.93578 6.8896 4.94606C6.89815 4.95634 6.90645 4.9668 6.91451 4.97748C6.92254 4.98816 6.93031 4.99902 6.93783 5.01008ZM11.9685 3.21716L11.9292 3.22853L9.91853 4.37762L10.4364 4.6505L10.4907 4.67964C10.9835 4.96673 11.3464 5.19413 11.6928 5.44214L11.84 5.55016L11.9585 5.64254L12.1857 5.47199C12.4331 5.29218 12.6871 5.12198 12.9476 4.96138C13.2081 4.8008 13.4744 4.65026 13.7464 4.5098L14.0328 4.36483L12.0985 3.24417C12.0938 3.241 12.089 3.23807 12.084 3.23537C12.079 3.23268 12.0739 3.23023 12.0687 3.22802C12.0634 3.22582 12.0581 3.22387 12.0527 3.22218C12.0472 3.2205 12.0418 3.21908 12.0362 3.21792C12.0306 3.21676 12.025 3.21588 12.0194 3.21527C12.0137 3.21466 12.0081 3.21432 12.0024 3.21425C11.9967 3.21419 11.991 3.2144 11.9854 3.21489C11.9797 3.21538 11.9741 3.21613 11.9685 3.21716Z"   fill="#034FA1" ></path><path     fill="#CC4E1D"  d="M9.30577 19.4414L9.40756 19.4618L9.50934 19.4957L9.61452 19.5466L11.9013 20.8392C11.9356 20.8648 11.9849 20.8767 12.0234 20.8732L12.0574 20.863L12.1184 20.8257L14.2966 19.5737C14.7202 19.3641 15.2368 19.4937 15.4468 19.8689C15.4536 19.8792 15.4575 19.8888 15.4638 19.8994C15.4701 19.91 15.4783 19.9225 15.4841 19.9334C15.49 19.9442 15.4958 19.9562 15.5011 19.9673C15.5064 19.9784 15.5099 19.9865 15.5147 19.9978C15.5195 20.0092 15.524 20.0236 15.5282 20.0351C15.5325 20.0467 15.538 20.0573 15.5418 20.0691C15.5456 20.0808 15.552 20.0911 15.552 20.103C15.552 20.1149 15.5588 20.1283 15.5588 20.1403C15.5588 20.1523 15.569 20.1655 15.569 20.1776C15.569 20.1898 15.5723 20.1994 15.5723 20.2116C15.5723 20.2238 15.5757 20.2366 15.5757 20.2489C15.5757 20.2612 15.5791 20.2739 15.5791 20.2862C15.5791 20.2985 15.5791 20.3112 15.5791 20.3235C15.5791 20.3358 15.5791 20.3486 15.5791 20.3609C15.5791 20.3732 15.5757 20.3859 15.5757 20.3982C15.5757 20.4104 15.5723 20.4199 15.5723 20.4321C15.5723 20.4443 15.5656 20.4573 15.5656 20.4694C15.5656 20.4815 15.5588 20.4948 15.5588 20.5068C15.5588 20.5187 15.552 20.5288 15.5486 20.5407C15.5452 20.5525 15.5423 20.5663 15.5384 20.578C15.5345 20.5897 15.5293 20.6004 15.5248 20.6119C15.5204 20.6234 15.5163 20.6346 15.5113 20.6459C15.5063 20.6571 15.4998 20.6687 15.4943 20.6798C15.4888 20.6908 15.4833 20.7029 15.4773 20.7137C15.4714 20.7245 15.4668 20.7337 15.4604 20.7442C15.4539 20.7548 15.447 20.7646 15.44 20.7748C15.4331 20.785 15.4237 20.7954 15.4163 20.8053C15.4089 20.8152 15.4038 20.8263 15.3959 20.8359C15.3881 20.8454 15.3804 20.8538 15.3722 20.863C15.3639 20.8722 15.3537 20.8813 15.345 20.8901C15.3364 20.8989 15.3269 20.9055 15.3179 20.9139C15.3088 20.9223 15.3002 20.9331 15.2907 20.941L15.2195 20.9953L12.987 22.2812C12.7099 22.4525 12.3575 22.5357 11.9997 22.5357C11.7497 22.5357 11.4988 22.4941 11.2702 22.4067L11.1379 22.3491L11.0192 22.2846L8.75613 21.0055C8.36185 20.7888 8.23149 20.2801 8.46435 19.8282C8.61292 19.6313 8.77578 19.4989 8.98006 19.4584C9.09577 19.4356 9.20292 19.4286 9.30577 19.4414ZM17.9914 4.63506L18.0898 4.66899L18.1882 4.7131L20.5191 6.05327C20.5352 6.06255 20.5508 6.07407 20.5666 6.0838L20.6141 6.11434C20.6141 6.11434 20.6464 6.13428 20.6616 6.14487C20.6768 6.15547 20.6908 6.16437 20.7057 6.17541C20.7206 6.18642 20.7352 6.1979 20.7498 6.20934L20.7939 6.24666L20.8346 6.28059C20.8485 6.29282 20.8618 6.30529 20.8754 6.31791C20.8889 6.33054 20.9029 6.34563 20.9161 6.35862C20.9293 6.37161 20.944 6.38257 20.9568 6.39594C20.9696 6.40929 20.9817 6.42293 20.9941 6.43666C21.0065 6.45038 21.0194 6.46331 21.0314 6.47737C21.0435 6.49143 21.0537 6.50706 21.0654 6.52148C21.077 6.53587 21.0881 6.55086 21.0993 6.56558C21.1105 6.58031 21.1224 6.59466 21.1332 6.60969C21.144 6.62473 21.1534 6.63847 21.1637 6.6538C21.1741 6.66912 21.1843 6.68569 21.1943 6.7013C21.2042 6.71691 21.2153 6.73292 21.2248 6.7488C21.2343 6.76468 21.2429 6.78015 21.252 6.7963C21.261 6.81244 21.2706 6.8308 21.2791 6.84719C21.2877 6.86358 21.2948 6.87808 21.3029 6.89469C21.3109 6.91132 21.319 6.92873 21.3266 6.94558C21.3342 6.96241 21.3398 6.97942 21.347 6.99647C21.3541 7.01351 21.3641 7.03011 21.3707 7.04737C21.3773 7.06462 21.3815 7.08083 21.3877 7.09826C21.3938 7.11567 21.399 7.13496 21.4046 7.15254C21.4103 7.17013 21.4164 7.18909 21.4216 7.20683C21.4268 7.22457 21.4339 7.23985 21.4386 7.25772C21.4432 7.2756 21.4446 7.294 21.4487 7.31201C21.4529 7.33002 21.4587 7.34819 21.4623 7.36629C21.4659 7.38441 21.4725 7.40239 21.4725 7.42058C21.4725 7.43879 21.4793 7.45659 21.4793 7.47486L21.4962 7.61397L21.4996 7.73951L21.4996 10.2672C21.4996 10.2802 21.4996 10.2949 21.4996 10.3079C21.4996 10.3209 21.4962 10.3323 21.4962 10.3452C21.4962 10.3582 21.4895 10.3696 21.4895 10.3825C21.4895 10.3954 21.4827 10.4105 21.4827 10.4232C21.4827 10.436 21.4759 10.4479 21.4759 10.4606C21.4759 10.4732 21.4693 10.4854 21.4657 10.4979C21.4621 10.5104 21.4597 10.5229 21.4555 10.5352C21.4513 10.5475 21.4467 10.5604 21.442 10.5725C21.4372 10.5846 21.4303 10.598 21.425 10.6098C21.4197 10.6217 21.4139 10.6321 21.408 10.6438C21.4022 10.6554 21.3974 10.6664 21.3911 10.6777C21.3847 10.6891 21.3776 10.7006 21.3707 10.7116C21.3638 10.7227 21.3577 10.7348 21.3504 10.7456C21.343 10.7563 21.3345 10.7657 21.3266 10.7761C21.3187 10.7865 21.3112 10.7966 21.3029 10.8066C21.2945 10.8167 21.2845 10.8275 21.2757 10.8372C21.2669 10.8468 21.2578 10.8551 21.2486 10.8643C21.2393 10.8735 21.231 10.8826 21.2214 10.8915C21.2118 10.9002 21.2009 10.9102 21.1909 10.9186C21.1809 10.9269 21.1708 10.9344 21.1604 10.9423C21.15 10.9502 21.1406 10.9587 21.1298 10.9661C21.1191 10.9735 21.107 10.9795 21.0959 10.9865C21.0848 10.9934 21.0733 11.0004 21.062 11.0068C21.0506 11.0132 21.0397 11.0179 21.028 11.0238C21.0164 11.0297 21.006 11.0354 20.9941 11.0407C20.9822 11.0461 20.9689 11.0529 20.9568 11.0577C20.9446 11.0625 20.9318 11.067 20.9195 11.0713C20.9071 11.0755 20.8947 11.0777 20.8821 11.0814C20.8696 11.0851 20.8575 11.0916 20.8448 11.0916C20.8321 11.0916 20.8203 11.1018 20.8075 11.1018C20.7947 11.1018 20.7797 11.1086 20.7668 11.1086C20.7539 11.1086 20.7425 11.112 20.7295 11.112C20.7164 11.112 20.7018 11.1154 20.6887 11.1154C20.6757 11.1154 20.6645 11.1188 20.6514 11.1188C20.6383 11.1188 20.6238 11.1188 20.6107 11.1188C20.5977 11.1188 20.5864 11.1154 20.5734 11.1154C20.5604 11.1154 20.5457 11.112 20.5327 11.112C20.5197 11.112 20.5082 11.1052 20.4954 11.1052C20.4825 11.1052 20.4674 11.0984 20.4546 11.0984C20.4419 11.0984 20.43 11.0882 20.4173 11.0882C20.4047 11.0882 20.3925 11.0819 20.38 11.0781C20.3675 11.0742 20.355 11.0689 20.3427 11.0645C20.3304 11.06 20.3174 11.0559 20.3054 11.0509C20.2933 11.0459 20.2833 11.0429 20.2714 11.0373C20.2596 11.0318 20.2457 11.0231 20.2341 11.017C20.2225 11.0109 20.2115 11.0066 20.2002 11C20.1889 10.9934 20.1806 10.9868 20.1696 10.9797C20.1587 10.9726 20.1463 10.9635 20.1357 10.9559C20.1251 10.9483 20.1154 10.9402 20.1052 10.9322C20.0949 10.9241 20.0845 10.9169 20.0746 10.9084C20.0648 10.8999 20.0536 10.8902 20.0441 10.8813C20.0346 10.8723 20.0261 10.8635 20.017 10.8541C20.0079 10.8448 19.9984 10.8368 19.9898 10.827C19.9812 10.8172 19.9742 10.8066 19.9661 10.7965C19.9579 10.7863 19.95 10.7764 19.9423 10.7659C19.9346 10.7554 19.9258 10.7428 19.9186 10.732C19.9114 10.7211 19.9049 10.7126 19.8982 10.7015C19.8915 10.6903 19.884 10.679 19.8779 10.6675C19.8717 10.6561 19.8665 10.6419 19.8609 10.6302C19.8552 10.6185 19.849 10.6082 19.8439 10.5963C19.8388 10.5843 19.8349 10.5711 19.8304 10.559C19.8258 10.5468 19.8208 10.534 19.8168 10.5216C19.8128 10.5093 19.81 10.4969 19.8066 10.4843C19.8032 10.4718 19.7964 10.4597 19.7964 10.447L19.7829 10.3622L19.7761 10.2672L19.7761 7.70897C19.7761 7.70291 19.7761 7.69805 19.7761 7.69201C19.7761 7.68597 19.7727 7.6776 19.7727 7.67165C19.7727 7.66568 19.7693 7.6605 19.7693 7.65468C19.7693 7.64887 19.7625 7.64338 19.7625 7.63772C19.7625 7.63206 19.7557 7.6262 19.7557 7.62076C19.7557 7.61532 19.7455 7.61236 19.7455 7.60718C19.7455 7.60201 19.739 7.59511 19.7354 7.59022C19.7317 7.58533 19.7292 7.5812 19.7252 7.57665L19.6573 7.50879L17.3332 6.16862C16.9382 5.95188 16.8039 5.44286 17.0211 5.01506C17.2075 4.68248 17.6134 4.53557 17.9948 4.63506L17.9914 4.63506ZM6.93757 5.01166L7.01221 5.14059C7.17078 5.44261 7.119 5.81796 6.88329 6.07023L6.81543 6.13469L6.74418 6.18898L4.36241 7.54951C4.35254 7.55535 4.34409 7.56258 4.33526 7.56986C4.32644 7.57715 4.3191 7.58506 4.31151 7.59361C4.30394 7.60219 4.29391 7.61112 4.28776 7.62076C4.28162 7.63039 4.27875 7.63744 4.27419 7.6479L4.26062 7.69201L4.25384 7.73951L4.25384 10.2672C4.25384 10.2802 4.25384 10.2949 4.25384 10.3079C4.25384 10.3209 4.25044 10.3323 4.25044 10.3452C4.25044 10.3582 4.24705 10.3696 4.24705 10.3825C4.24705 10.3954 4.24026 10.4105 4.24026 10.4232C4.24026 10.436 4.23009 10.4479 4.23009 10.4606C4.23009 10.4732 4.22354 10.4854 4.21991 10.4979C4.21628 10.5104 4.21393 10.5229 4.20973 10.5352C4.20553 10.5475 4.20091 10.5604 4.19616 10.5725C4.1914 10.5846 4.18451 10.598 4.17919 10.6098C4.1739 10.6217 4.16808 10.6321 4.16223 10.6438C4.15638 10.6554 4.15163 10.6664 4.14526 10.6777C4.1389 10.6891 4.1318 10.7006 4.12491 10.7116C4.11803 10.7227 4.11193 10.7348 4.10455 10.7456C4.09717 10.7563 4.08867 10.7657 4.0808 10.7761C4.07293 10.7865 4.06538 10.7966 4.05705 10.8066C4.04872 10.8166 4.03869 10.8275 4.02991 10.8372C4.02113 10.8468 4.01537 10.8551 4.00616 10.8643C3.99693 10.8735 3.98525 10.8826 3.97562 10.8915C3.966 10.9003 3.9551 10.9102 3.94509 10.9186C3.93507 10.9269 3.92495 10.9344 3.91455 10.9423C3.90417 10.9502 3.89476 10.9587 3.88402 10.9661C3.87327 10.9735 3.86116 10.9795 3.85009 10.9865C3.83902 10.9934 3.83094 11.0004 3.81955 11.0068C3.80818 11.0132 3.79388 11.0179 3.78223 11.0238C3.77056 11.0297 3.76022 11.0354 3.7483 11.0407C3.7364 11.0461 3.72314 11.0529 3.71098 11.0577C3.69884 11.0625 3.68601 11.067 3.67366 11.0713C3.66129 11.0755 3.64887 11.0778 3.63634 11.0814C3.62379 11.0851 3.61171 11.0916 3.59902 11.0916C3.58632 11.0916 3.57452 11.1018 3.5617 11.1018C3.54888 11.1018 3.53731 11.1086 3.52438 11.1086C3.51144 11.1086 3.49665 11.112 3.48366 11.112C3.47065 11.112 3.45939 11.1154 3.44634 11.1154C3.43329 11.1154 3.41871 11.1188 3.40563 11.1188C3.39255 11.1188 3.38137 11.1188 3.3683 11.1188C3.35524 11.1188 3.34063 11.1154 3.32759 11.1154C3.31454 11.1154 3.30324 11.112 3.29027 11.112C3.27729 11.112 3.26244 11.1052 3.24956 11.1052C3.23665 11.1052 3.22502 11.0984 3.21223 11.0984C3.19947 11.0984 3.18417 11.0882 3.17152 11.0882C3.15889 11.0882 3.14668 11.0819 3.1342 11.0781C3.12173 11.0742 3.10917 11.0689 3.09688 11.0645C3.0846 11.06 3.07502 11.0559 3.06295 11.0509C3.05087 11.0459 3.03744 11.0429 3.02563 11.0373C3.0138 11.0318 3.00326 11.0231 2.9917 11.017C2.98014 11.0109 2.96904 11.0066 2.95777 11C2.94649 10.9934 2.9348 10.9868 2.92384 10.9797C2.91289 10.9726 2.90054 10.9635 2.88991 10.9559C2.87929 10.9483 2.86965 10.9402 2.85938 10.9322C2.84913 10.9241 2.83874 10.9169 2.82884 10.9084C2.81896 10.8999 2.81118 10.8902 2.8017 10.8813C2.79222 10.8723 2.78023 10.8635 2.77116 10.8541C2.7621 10.8448 2.75604 10.8368 2.74742 10.827C2.73879 10.8172 2.72844 10.8066 2.72027 10.7965C2.7121 10.7863 2.70422 10.7764 2.69652 10.7659C2.68883 10.7554 2.68337 10.7428 2.67617 10.732C2.66896 10.7211 2.65912 10.7126 2.65242 10.7015C2.64571 10.6903 2.64164 10.679 2.63545 10.6675C2.62927 10.6561 2.62075 10.6419 2.61509 10.6302C2.60944 10.6185 2.60664 10.6082 2.60152 10.5963C2.59641 10.5843 2.58912 10.5711 2.58456 10.559C2.58 10.5468 2.57838 10.534 2.57438 10.5216C2.57038 10.5093 2.56423 10.4969 2.56081 10.4843C2.55738 10.4718 2.55402 10.4597 2.55402 10.447L2.53706 10.3622L2.53027 10.2672L2.53027 7.77343C2.53027 7.17793 2.80706 6.61366 3.28348 6.23987L3.39884 6.15844L3.5142 6.08719L5.79758 4.78095C5.80881 4.77365 5.82331 4.76735 5.8349 4.76059C5.84648 4.75387 5.85695 4.74643 5.86883 4.74024C5.88072 4.73406 5.89398 4.72887 5.90615 4.72327C5.91831 4.71768 5.92764 4.7147 5.94008 4.7097C5.95251 4.70471 5.96474 4.69714 5.9774 4.69274C5.99005 4.68834 6.00525 4.68636 6.01811 4.68256C6.03099 4.67878 6.04242 4.67238 6.05543 4.67238C6.06847 4.67238 6.08298 4.6622 6.09615 4.6622C6.10932 4.6622 6.12019 4.65542 6.13347 4.65542C6.14675 4.65542 6.16083 4.65202 6.17418 4.65202C6.18753 4.65202 6.20148 4.64863 6.2149 4.64863C6.22829 4.64863 6.2422 4.64863 6.25561 4.64863C6.26903 4.64863 6.28293 4.64863 6.29632 4.64863C6.30972 4.64863 6.32371 4.65202 6.33704 4.65202C6.35039 4.65202 6.3611 4.65881 6.37436 4.65881C6.38762 4.65881 6.40193 4.6656 6.41507 4.6656C6.42822 4.6656 6.44277 4.67238 6.45579 4.67238C6.4688 4.67238 6.48028 4.67867 6.49311 4.68256C6.50594 4.68645 6.51782 4.69162 6.53043 4.69613C6.54304 4.70064 6.55536 4.70459 6.56775 4.7097C6.58014 4.71481 6.59295 4.72096 6.60507 4.72667C6.61719 4.73237 6.63056 4.73735 6.64239 4.74363C6.65422 4.74992 6.6648 4.75715 6.67632 4.76399C6.68782 4.77085 6.69909 4.77695 6.71025 4.78434C6.72143 4.79174 6.7334 4.80017 6.74418 4.80809C6.75496 4.81602 6.76434 4.82341 6.77472 4.83184C6.78509 4.84028 6.7953 4.85006 6.80525 4.85899C6.81523 4.86791 6.82626 4.87674 6.83579 4.88613C6.8453 4.89552 6.85389 4.90681 6.86293 4.91667C6.87197 4.9265 6.88152 4.93692 6.89007 4.9472C6.89862 4.95748 6.90576 4.96705 6.91382 4.97774C6.92186 4.98842 6.93005 5.00061 6.93757 5.01166Z"></path></svg>