<svg xmlns="http://www.w3.org/2000/svg" xmlns:xlink="http://www.w3.org/1999/xlink" width="24" height="24" viewBox="0 0 24 24" fill="none"><path d="M12 2C6.4871 2 2 6.4871 2 12C2 17.5129 6.4871 22 12 22C17.5152 22 22.0023 17.5129 22.0023 12C22.0023 6.4871 17.5152 2 12 2ZM5.94613 18.6398C6.63974 18.9001 7.43884 19.0999 8.27162 19.0999C8.95175 19.0999 9.65433 18.9675 10.3345 18.6285C10.9248 18.3367 11.4501 17.908 11.8968 17.358C12.0718 17.1426 12.0382 16.8261 11.8227 16.6532C11.6072 16.4804 11.2929 16.5096 11.1156 16.7273C10.761 17.165 10.3479 17.5017 9.88778 17.7307C7.4164 18.963 4.35242 16.6689 4.32099 16.6442C4.31426 16.6398 4.30752 16.6398 4.30079 16.6353C3.48148 15.2795 3.00112 13.697 3.00112 12C3.00112 9.90798 3.72391 7.9843 4.92705 6.45568C4.54097 7.65209 4.38384 9.10663 5.06622 10.4804C5.36028 11.0707 5.78676 11.596 6.33446 12.0404C6.42649 12.1167 6.53873 12.1527 6.65096 12.1527C6.79687 12.1527 6.94053 12.0898 7.04153 11.9663C7.21662 11.7509 7.18295 11.4344 6.96746 11.2615C6.53199 10.9069 6.19305 10.4938 5.96409 10.0337C4.81033 7.71494 6.7385 4.90012 7.01684 4.51403C8.44446 3.56005 10.1571 3.00337 11.9978 3.00337C14.1392 3.00337 16.1033 3.75758 17.6499 5.01011C16.413 4.57015 14.8575 4.34119 13.3895 5.07296C12.7991 5.36701 12.2739 5.7935 11.8294 6.34344C11.6543 6.55893 11.688 6.87543 11.9035 7.04827C12.119 7.22111 12.4355 7.18968 12.6083 6.97419C12.9607 6.53873 13.3738 6.19978 13.8362 5.97083C16.3255 4.73177 19.3715 7.03256 19.4007 7.05725C19.4411 7.08643 19.4882 7.08418 19.5331 7.10214C20.4535 8.51404 20.9944 10.1953 20.9944 12.0023C20.9944 13.7868 20.4669 15.4456 19.5668 16.8463C19.8519 15.7419 19.9058 14.4692 19.3019 13.257C19.0101 12.6667 18.5814 12.1414 18.0315 11.697C17.8182 11.5241 17.4995 11.5556 17.3266 11.7711C17.1515 11.9865 17.1852 12.303 17.4007 12.4759C17.8384 12.8305 18.1751 13.2436 18.4041 13.7037C19.5444 15.9955 17.6745 18.7699 17.3648 19.2054C15.8631 20.3255 14.009 20.9989 11.9955 20.9989C9.6678 20.9989 7.54659 20.0988 5.94613 18.6398Z" stroke="rgba(3, 79, 161, 1)" stroke-width="0.6"      fill="#034FA1" ></path><path d="M15.9633 10.6088C15.9674 10.6088 15.9715 10.6087 15.9756 10.6085C15.9797 10.6083 15.9838 10.608 15.9879 10.6077C15.992 10.6073 15.996 10.6068 16.0001 10.6062C16.0042 10.6057 16.0082 10.605 16.0122 10.6043C16.0163 10.6035 16.0203 10.6027 16.0243 10.6017C16.0282 10.6008 16.0322 10.5998 16.0361 10.5987C16.0401 10.5976 16.044 10.5964 16.0479 10.5951C16.0517 10.5938 16.0555 10.5924 16.0593 10.5909C16.0632 10.5894 16.0669 10.5879 16.0706 10.5862C16.0743 10.5846 16.078 10.5829 16.0816 10.5811C16.0852 10.5792 16.0888 10.5773 16.0923 10.5754C16.0959 10.5734 16.0993 10.5713 16.1028 10.5692C16.1062 10.5671 16.1095 10.5649 16.1128 10.5626C16.1161 10.5603 16.1194 10.5579 16.1225 10.5555C16.1257 10.553 16.1288 10.5505 16.1319 10.5479C16.1349 10.5453 16.1379 10.5427 16.1408 10.54C16.1437 10.5373 16.1466 10.5345 16.1493 10.5316C16.1521 10.5288 16.1547 10.5259 16.1574 10.5229C16.16 10.5199 16.1625 10.5169 16.1649 10.5138C16.1674 10.5107 16.1698 10.5076 16.172 10.5044C16.1743 10.5012 16.1765 10.4979 16.1786 10.4946C16.1807 10.4913 16.1828 10.488 16.1847 10.4846C16.1866 10.4812 16.1885 10.4778 16.1902 10.4743C16.192 10.4708 16.1937 10.4673 16.1952 10.4638C16.1968 10.4602 16.1983 10.4566 16.1997 10.453C16.2011 10.4494 16.2024 10.4457 16.2035 10.4421C16.2047 10.4384 16.2058 10.4347 16.2068 10.4309C16.2078 10.4272 16.2087 10.4235 16.2095 10.4197C16.2103 10.4159 16.211 10.4121 16.2116 10.4083C16.2122 10.4045 16.2127 10.4007 16.2131 10.3969C16.2135 10.3931 16.2138 10.3892 16.2141 10.3854C16.2142 10.3816 16.2143 10.3777 16.2143 10.3739C16.2143 10.37 16.2142 10.3662 16.2141 10.3623C16.2138 10.3585 16.2135 10.3547 16.2131 10.3508C16.2127 10.347 16.2122 10.3432 16.2116 10.3394C16.211 10.3356 16.2103 10.3318 16.2095 10.328C16.2087 10.3243 16.2078 10.3205 16.2068 10.3168C16.2058 10.3131 16.2047 10.3093 16.2035 10.3057C16.2024 10.302 16.2011 10.2983 16.1997 10.2947C16.1983 10.2911 16.1968 10.2875 16.1952 10.284C16.1937 10.2804 16.192 10.2769 16.1902 10.2734C16.1885 10.2699 16.1866 10.2665 16.1847 10.2631C16.1828 10.2597 16.1807 10.2564 16.1786 10.2531C16.1765 10.2498 16.1743 10.2465 16.172 10.2433C16.1698 10.2401 16.1674 10.237 16.1649 10.2339C16.1625 10.2308 16.16 10.2278 16.1574 10.2248C16.1547 10.2218 16.1521 10.2189 16.1493 10.2161C16.1466 10.2132 16.1437 10.2105 16.1408 10.2078C16.1379 10.205 16.1349 10.2024 16.1319 10.1998C16.1288 10.1972 16.1257 10.1947 16.1225 10.1923C16.1194 10.1898 16.1161 10.1875 16.1128 10.1852C16.1095 10.1829 16.1062 10.1807 16.1028 10.1785C16.0993 10.1764 16.0959 10.1743 16.0923 10.1724C16.0888 10.1704 16.0852 10.1685 16.0816 10.1667C16.078 10.1649 16.0743 10.1631 16.0706 10.1615C16.0669 10.1598 16.0632 10.1583 16.0593 10.1568C16.0555 10.1554 16.0517 10.154 16.0479 10.1527C16.044 10.1514 16.0401 10.1502 16.0361 10.149C16.0322 10.1479 16.0282 10.1469 16.0243 10.146C16.0203 10.145 16.0163 10.1442 16.0122 10.1435C16.0082 10.1427 16.0042 10.142 16.0001 10.1415C15.996 10.1409 15.992 10.1404 15.9879 10.1401C15.9838 10.1397 15.9797 10.1394 15.9756 10.1392C15.9715 10.139 15.9674 10.1389 15.9633 10.1389L15.21 10.1389L15.21 9.99798C15.2099 9.9832 15.2095 9.96843 15.2087 9.95366C15.2078 9.93889 15.2066 9.92416 15.205 9.90945C15.2034 9.89473 15.2014 9.88007 15.199 9.86546C15.1966 9.85084 15.1939 9.83629 15.1908 9.8218C15.1876 9.8073 15.1841 9.79289 15.1802 9.77856C15.1763 9.76423 15.1721 9.75 15.1674 9.73586C15.1628 9.72173 15.1578 9.7077 15.1525 9.69379C15.1471 9.67988 15.1414 9.6661 15.1353 9.65246C15.1292 9.63881 15.1228 9.62531 15.116 9.61195C15.1092 9.5986 15.1021 9.58541 15.0946 9.57239C15.0872 9.55935 15.0794 9.5465 15.0712 9.53384C15.0631 9.52117 15.0546 9.50869 15.0458 9.4964C15.037 9.48412 15.0279 9.47204 15.0185 9.46017C15.0091 9.4483 14.9993 9.43666 14.9893 9.42523C14.9793 9.41381 14.969 9.40263 14.9583 9.39167C14.9477 9.38072 14.9368 9.37002 14.9257 9.35957C14.9145 9.3491 14.903 9.33891 14.8913 9.32898C14.8796 9.31905 14.8677 9.3094 14.8555 9.30001C14.8433 9.29062 14.8308 9.28152 14.8181 9.2727C14.8054 9.26389 14.7925 9.25537 14.7794 9.24714C14.7663 9.23891 14.7529 9.23098 14.7394 9.22336C14.7258 9.21575 14.7121 9.20845 14.6982 9.20145C14.6843 9.19446 14.6702 9.18779 14.6559 9.18145C14.6416 9.1751 14.6272 9.16908 14.6126 9.16339C14.598 9.15771 14.5833 9.15236 14.5684 9.14735C14.5536 9.14233 14.5386 9.13766 14.5235 9.13333C14.5084 9.129 14.4932 9.12502 14.4778 9.12138C14.4625 9.11774 14.4471 9.11446 14.4316 9.11153C14.4161 9.1086 14.4006 9.10603 14.385 9.10381C14.3693 9.10158 14.3537 9.09972 14.338 9.09822C14.3222 9.09671 14.3065 9.09557 14.2907 9.09478C14.2749 9.094 14.2591 9.09357 14.2433 9.09351L14.0969 9.09351L14.0969 8.38874C14.0969 8.38489 14.0968 8.38105 14.0966 8.37721C14.0964 8.37336 14.0961 8.36953 14.0957 8.36571C14.0953 8.36188 14.0948 8.35807 14.0942 8.35427C14.0935 8.35046 14.0928 8.34667 14.092 8.34291C14.0912 8.33913 14.0903 8.33538 14.0893 8.33165C14.0883 8.32793 14.0873 8.32422 14.0861 8.32054C14.0849 8.31686 14.0836 8.31321 14.0822 8.30959C14.0808 8.30597 14.0793 8.30239 14.0778 8.29883C14.0762 8.29528 14.0745 8.29177 14.0728 8.28829C14.071 8.28481 14.0692 8.28138 14.0672 8.27799C14.0653 8.2746 14.0633 8.27126 14.0611 8.26796C14.059 8.26466 14.0568 8.2614 14.0546 8.25821C14.0523 8.25501 14.0499 8.25187 14.0475 8.24878C14.045 8.2457 14.0425 8.24267 14.0399 8.2397C14.0373 8.23672 14.0346 8.23381 14.0318 8.23096C14.0291 8.22812 14.0262 8.22533 14.0233 8.22261C14.0204 8.21989 14.0174 8.21724 14.0144 8.21466C14.0114 8.21208 14.0082 8.20957 14.0051 8.20713C14.0019 8.20469 13.9987 8.20233 13.9953 8.20004C13.992 8.19775 13.9887 8.19554 13.9853 8.1934C13.9819 8.19126 13.9784 8.1892 13.9749 8.18723C13.9713 8.18526 13.9678 8.18336 13.9641 8.18155C13.9605 8.17973 13.9568 8.17801 13.9531 8.17637C13.9494 8.17472 13.9457 8.17316 13.9419 8.17168C13.9381 8.17022 13.9342 8.16883 13.9304 8.16753C13.9265 8.16624 13.9226 8.16504 13.9187 8.16392C13.9147 8.1628 13.9108 8.16178 13.9068 8.16084C13.9028 8.15991 13.8988 8.15907 13.8948 8.15831C13.8907 8.15756 13.8867 8.15691 13.8826 8.15635C13.8786 8.15578 13.8745 8.15531 13.8704 8.15493C13.8663 8.15456 13.8622 8.15428 13.8581 8.15408C13.854 8.1539 13.8499 8.15381 13.8458 8.15381C13.8417 8.15381 13.8376 8.1539 13.8335 8.15408C13.8294 8.15428 13.8253 8.15456 13.8212 8.15493C13.8171 8.15531 13.813 8.15578 13.8089 8.15635C13.8049 8.15691 13.8008 8.15756 13.7968 8.15831C13.7928 8.15907 13.7888 8.15991 13.7848 8.16084C13.7808 8.16178 13.7768 8.1628 13.7729 8.16392C13.769 8.16504 13.7651 8.16624 13.7612 8.16753C13.7573 8.16883 13.7535 8.17022 13.7497 8.17168C13.7459 8.17316 13.7421 8.17472 13.7384 8.17637C13.7347 8.17801 13.731 8.17973 13.7274 8.18155C13.7238 8.18336 13.7202 8.18526 13.7167 8.18723C13.7132 8.1892 13.7097 8.19126 13.7063 8.1934C13.7029 8.19554 13.6995 8.19775 13.6962 8.20004C13.6929 8.20233 13.6897 8.20469 13.6865 8.20713C13.6833 8.20957 13.6802 8.21208 13.6772 8.21466C13.6741 8.21724 13.6711 8.21989 13.6682 8.22261C13.6653 8.22533 13.6625 8.22812 13.6597 8.23096C13.657 8.23381 13.6543 8.23672 13.6517 8.2397C13.6491 8.24267 13.6466 8.2457 13.6441 8.24878C13.6417 8.25187 13.6393 8.25501 13.637 8.25821C13.6347 8.2614 13.6325 8.26466 13.6304 8.26796C13.6283 8.27126 13.6263 8.2746 13.6243 8.27799C13.6224 8.28138 13.6206 8.28481 13.6188 8.28829C13.617 8.29177 13.6154 8.29528 13.6138 8.29883C13.6122 8.30239 13.6108 8.30597 13.6094 8.30959C13.608 8.31321 13.6067 8.31686 13.6055 8.32054C13.6043 8.32422 13.6032 8.32793 13.6022 8.33165C13.6012 8.33538 13.6003 8.33913 13.5995 8.34291C13.5987 8.34667 13.598 8.35046 13.5974 8.35427C13.5968 8.35807 13.5963 8.36188 13.5959 8.36571C13.5955 8.36953 13.5952 8.37336 13.595 8.37721C13.5948 8.38105 13.5947 8.38489 13.5947 8.38874L13.5947 9.09351L12.2556 9.09351L12.2556 8.38874C12.2556 8.38489 12.2555 8.38105 12.2553 8.37721C12.2551 8.37338 12.2547 8.36955 12.2543 8.36572C12.2539 8.36191 12.2534 8.3581 12.2528 8.35429C12.2522 8.35049 12.2515 8.34671 12.2507 8.34295C12.2499 8.33918 12.249 8.33543 12.248 8.33171C12.247 8.32798 12.2459 8.32428 12.2447 8.32061C12.2435 8.31693 12.2422 8.31329 12.2408 8.30967C12.2394 8.30605 12.2379 8.30247 12.2364 8.29893C12.2348 8.29538 12.2331 8.29188 12.2314 8.2884C12.2296 8.28493 12.2278 8.2815 12.2258 8.27811C12.2239 8.27472 12.2218 8.27139 12.2197 8.2681C12.2176 8.2648 12.2154 8.26156 12.2131 8.25837C12.2109 8.25518 12.2085 8.25204 12.206 8.24896C12.2036 8.24587 12.2011 8.24285 12.1985 8.23988C12.1959 8.23691 12.1932 8.234 12.1904 8.23116C12.1876 8.22832 12.1848 8.22554 12.1819 8.22282C12.179 8.22011 12.176 8.21746 12.173 8.21489C12.17 8.21231 12.1668 8.2098 12.1637 8.20736C12.1605 8.20492 12.1573 8.20257 12.1539 8.20029C12.1506 8.198 12.1473 8.19578 12.1439 8.19365C12.1405 8.19152 12.137 8.18946 12.1335 8.1875C12.13 8.18553 12.1264 8.18363 12.1228 8.18182C12.1191 8.18001 12.1155 8.17828 12.1118 8.17664C12.108 8.175 12.1043 8.17345 12.1005 8.17198C12.0967 8.17051 12.0929 8.16913 12.089 8.16784C12.0851 8.16654 12.0812 8.16534 12.0773 8.16422C12.0734 8.16311 12.0694 8.16209 12.0655 8.16116C12.0615 8.16022 12.0575 8.15938 12.0534 8.15863C12.0494 8.15789 12.0454 8.15723 12.0413 8.15667C12.0372 8.15611 12.0332 8.15564 12.0291 8.15526C12.025 8.15489 12.0209 8.15461 12.0168 8.15441C12.0127 8.15422 12.0086 8.15412 12.0045 8.15412C12.0004 8.15412 11.9963 8.15422 11.9922 8.15441C11.9881 8.15461 11.984 8.15489 11.9799 8.15526C11.9758 8.15564 11.9717 8.15611 11.9677 8.15667C11.9636 8.15723 11.9596 8.15789 11.9555 8.15863C11.9515 8.15938 11.9475 8.16022 11.9435 8.16116C11.9396 8.16209 11.9356 8.16311 11.9317 8.16422C11.9277 8.16534 11.9238 8.16654 11.92 8.16784C11.9161 8.16913 11.9123 8.17051 11.9085 8.17198C11.9047 8.17345 11.9009 8.175 11.8972 8.17664C11.8935 8.17828 11.8899 8.18001 11.8862 8.18182C11.8826 8.18363 11.879 8.18553 11.8755 8.1875C11.872 8.18946 11.8685 8.19152 11.8651 8.19365C11.8617 8.19578 11.8583 8.198 11.855 8.20029C11.8517 8.20257 11.8485 8.20492 11.8453 8.20736C11.8421 8.2098 11.839 8.21231 11.836 8.21489C11.833 8.21746 11.83 8.22011 11.8271 8.22282C11.8242 8.22554 11.8213 8.22832 11.8186 8.23116C11.8158 8.234 11.8131 8.23691 11.8105 8.23988C11.8079 8.24285 11.8054 8.24587 11.8029 8.24896C11.8005 8.25204 11.7981 8.25518 11.7958 8.25837C11.7936 8.26156 11.7914 8.2648 11.7892 8.2681C11.7871 8.27139 11.7851 8.27472 11.7832 8.27811C11.7812 8.2815 11.7794 8.28493 11.7776 8.2884C11.7759 8.29188 11.7742 8.29538 11.7726 8.29893C11.771 8.30247 11.7696 8.30605 11.7682 8.30967C11.7668 8.31329 11.7655 8.31693 11.7643 8.32061C11.7631 8.32428 11.762 8.32798 11.761 8.33171C11.76 8.33543 11.7591 8.33918 11.7583 8.34295C11.7575 8.34671 11.7568 8.35049 11.7562 8.35429C11.7556 8.3581 11.7551 8.36191 11.7546 8.36572C11.7542 8.36955 11.7539 8.37338 11.7537 8.37721C11.7535 8.38105 11.7534 8.38489 11.7534 8.38874L11.7534 9.09351L10.3975 9.09351L10.3975 8.38874C10.3975 8.38489 10.3974 8.38105 10.3972 8.37721C10.3971 8.37336 10.3967 8.36953 10.3963 8.36571C10.3959 8.36188 10.3954 8.35807 10.3948 8.35427C10.3942 8.35046 10.3935 8.34667 10.3927 8.34291C10.3919 8.33913 10.391 8.33538 10.39 8.33165C10.389 8.32793 10.3879 8.32422 10.3867 8.32054C10.3856 8.31686 10.3843 8.31321 10.3829 8.30959C10.3815 8.30597 10.38 8.30239 10.3784 8.29883C10.3769 8.29528 10.3752 8.29177 10.3734 8.28829C10.3717 8.28481 10.3698 8.28138 10.3679 8.27799C10.366 8.2746 10.3639 8.27126 10.3618 8.26796C10.3597 8.26466 10.3575 8.2614 10.3552 8.25821C10.353 8.25501 10.3506 8.25187 10.3481 8.24878C10.3457 8.2457 10.3432 8.24267 10.3406 8.2397C10.3379 8.23672 10.3353 8.23381 10.3325 8.23096C10.3297 8.22812 10.3269 8.22533 10.324 8.22261C10.3211 8.21989 10.3181 8.21724 10.3151 8.21466C10.312 8.21208 10.3089 8.20957 10.3057 8.20713C10.3026 8.20469 10.2993 8.20233 10.296 8.20004C10.2927 8.19775 10.2894 8.19554 10.286 8.1934C10.2825 8.19126 10.2791 8.1892 10.2755 8.18723C10.272 8.18526 10.2685 8.18336 10.2648 8.18155C10.2612 8.17973 10.2575 8.17801 10.2538 8.17637C10.2501 8.17472 10.2464 8.17316 10.2426 8.17168C10.2387 8.17022 10.2349 8.16883 10.2311 8.16753C10.2272 8.16624 10.2233 8.16504 10.2194 8.16392C10.2154 8.1628 10.2115 8.16178 10.2075 8.16084C10.2035 8.15991 10.1995 8.15907 10.1954 8.15831C10.1914 8.15756 10.1874 8.15691 10.1833 8.15635C10.1792 8.15578 10.1752 8.15531 10.1711 8.15493C10.167 8.15456 10.1629 8.15428 10.1588 8.15408C10.1547 8.1539 10.1506 8.15381 10.1465 8.15381C10.1424 8.15381 10.1382 8.1539 10.1341 8.15408C10.13 8.15428 10.126 8.15456 10.1219 8.15493C10.1178 8.15531 10.1137 8.15578 10.1096 8.15635C10.1056 8.15691 10.1015 8.15756 10.0975 8.15831C10.0934 8.15907 10.0894 8.15991 10.0855 8.16084C10.0815 8.16178 10.0775 8.1628 10.0736 8.16392C10.0697 8.16504 10.0657 8.16624 10.0619 8.16753C10.058 8.16883 10.0542 8.17022 10.0504 8.17168C10.0466 8.17316 10.0428 8.17472 10.0391 8.17637C10.0354 8.17801 10.0317 8.17973 10.0281 8.18155C10.0245 8.18336 10.0209 8.18526 10.0174 8.18723C10.0139 8.1892 10.0104 8.19126 10.007 8.1934C10.0036 8.19554 10.0002 8.19775 9.9969 8.20004C9.9936 8.20233 9.99037 8.20469 9.98718 8.20713C9.98401 8.20957 9.98089 8.21208 9.97784 8.21466C9.9748 8.21724 9.97182 8.21989 9.96893 8.22261C9.96602 8.22533 9.96319 8.22812 9.96043 8.23096C9.95766 8.23381 9.95498 8.23672 9.95238 8.2397C9.94977 8.24267 9.94724 8.2457 9.94479 8.24878C9.94234 8.25187 9.93997 8.25501 9.9377 8.25821C9.93542 8.2614 9.93322 8.26466 9.9311 8.26796C9.92899 8.27126 9.92696 8.2746 9.92502 8.27799C9.92309 8.28138 9.92124 8.28481 9.91949 8.28829C9.91773 8.29177 9.91607 8.29528 9.9145 8.29883C9.91292 8.30239 9.91144 8.30597 9.91006 8.30959C9.90867 8.31321 9.90739 8.31686 9.9062 8.32054C9.90501 8.32422 9.90391 8.32793 9.90291 8.33165C9.90191 8.33538 9.90102 8.33913 9.90021 8.34291C9.8994 8.34667 9.8987 8.35046 9.89809 8.35427C9.89749 8.35807 9.89699 8.36188 9.8966 8.36571C9.89618 8.36953 9.89588 8.37336 9.89569 8.37721C9.89548 8.38105 9.89538 8.38489 9.89538 8.38874L9.89538 9.09351L9.74054 9.09351C9.72474 9.09357 9.70896 9.094 9.69317 9.09478C9.67739 9.09557 9.66165 9.09671 9.64592 9.09822C9.6302 9.09972 9.61453 9.10158 9.59891 9.10381C9.58328 9.10603 9.56773 9.1086 9.55224 9.11153C9.53675 9.11446 9.52135 9.11774 9.50603 9.12138C9.49072 9.12502 9.47551 9.129 9.4604 9.13333C9.44529 9.13766 9.43031 9.14233 9.41544 9.14735C9.40056 9.15236 9.38583 9.15771 9.37125 9.16339C9.35667 9.16908 9.34224 9.1751 9.32797 9.18145C9.31369 9.18779 9.2996 9.19446 9.28568 9.20145C9.27176 9.20845 9.25803 9.21575 9.24448 9.22336C9.23094 9.23098 9.2176 9.23891 9.20447 9.24714C9.19134 9.25537 9.17843 9.26389 9.16575 9.2727C9.15307 9.28152 9.14062 9.29062 9.12841 9.30001C9.1162 9.3094 9.10424 9.31905 9.09253 9.32898C9.08083 9.33891 9.06939 9.3491 9.05822 9.35957C9.04704 9.37002 9.03615 9.38072 9.02553 9.39167C9.01492 9.40263 9.0046 9.41381 8.99457 9.42523C8.98453 9.43666 8.97481 9.4483 8.96539 9.46017C8.95596 9.47204 8.94686 9.48412 8.93806 9.4964C8.92927 9.50869 8.9208 9.52117 8.91266 9.53384C8.90452 9.5465 8.89671 9.55935 8.88924 9.57239C8.88176 9.58541 8.87463 9.5986 8.86785 9.61195C8.86108 9.62531 8.85465 9.63881 8.84857 9.65246C8.84249 9.6661 8.83677 9.67988 8.8314 9.69379C8.82605 9.7077 8.82106 9.72173 8.81643 9.73586C8.8118 9.75 8.80754 9.76423 8.80365 9.77856C8.79977 9.79289 8.79626 9.8073 8.79313 9.8218C8.78999 9.83629 8.78724 9.85084 8.78487 9.86546C8.78249 9.88007 8.7805 9.89473 8.7789 9.90945C8.77729 9.92416 8.77607 9.93889 8.77523 9.95366C8.77439 9.96843 8.77394 9.9832 8.77388 9.99798L8.77388 10.1389L8.02062 10.1389C8.01651 10.1389 8.0124 10.139 8.0083 10.1392C8.0042 10.1394 8.0001 10.1397 7.99601 10.1401C7.99192 10.1404 7.98784 10.1409 7.98378 10.1415C7.97971 10.142 7.97567 10.1427 7.97163 10.1435C7.9676 10.1442 7.96359 10.145 7.95961 10.146C7.95562 10.1469 7.95166 10.1479 7.94773 10.149C7.94379 10.1502 7.93989 10.1514 7.93603 10.1527C7.93216 10.154 7.92833 10.1554 7.92453 10.1568C7.92073 10.1583 7.91698 10.1598 7.91327 10.1615C7.90955 10.1631 7.90588 10.1649 7.90225 10.1667C7.89863 10.1685 7.89506 10.1704 7.89154 10.1724C7.88801 10.1743 7.88454 10.1764 7.88112 10.1785C7.87771 10.1807 7.87435 10.1829 7.87104 10.1852C7.86774 10.1875 7.8645 10.1898 7.86133 10.1923C7.85815 10.1947 7.85504 10.1972 7.85199 10.1998C7.84895 10.2024 7.84597 10.205 7.84307 10.2077C7.84017 10.2105 7.83734 10.2132 7.83458 10.2161C7.83182 10.2189 7.82913 10.2218 7.82652 10.2248C7.82391 10.2278 7.82139 10.2308 7.81894 10.2339C7.81649 10.237 7.81413 10.2401 7.81185 10.2433C7.80957 10.2465 7.80737 10.2498 7.80526 10.2531C7.80314 10.2564 7.80112 10.2597 7.79918 10.2631C7.79724 10.2665 7.79539 10.2699 7.79364 10.2734C7.79188 10.2769 7.79022 10.2804 7.78865 10.284C7.78707 10.2875 7.78559 10.2911 7.7842 10.2947C7.78282 10.2983 7.78153 10.302 7.78034 10.3057C7.77914 10.3093 7.77805 10.3131 7.77705 10.3168C7.77605 10.3205 7.77515 10.3243 7.77435 10.328C7.77355 10.3318 7.77285 10.3356 7.77225 10.3394C7.77164 10.3432 7.77114 10.347 7.77074 10.3508C7.77033 10.3547 7.77004 10.3585 7.76984 10.3623C7.76963 10.3662 7.76953 10.37 7.76953 10.3739C7.76953 10.3777 7.76963 10.3816 7.76984 10.3854C7.77004 10.3892 7.77033 10.3931 7.77074 10.3969C7.77114 10.4007 7.77164 10.4045 7.77225 10.4083C7.77285 10.4121 7.77355 10.4159 7.77435 10.4197C7.77515 10.4235 7.77605 10.4272 7.77705 10.4309C7.77805 10.4347 7.77914 10.4384 7.78034 10.4421C7.78153 10.4457 7.78282 10.4494 7.7842 10.453C7.78559 10.4566 7.78707 10.4602 7.78865 10.4638C7.79022 10.4673 7.79188 10.4708 7.79364 10.4743C7.79539 10.4778 7.79724 10.4812 7.79918 10.4846C7.80112 10.488 7.80314 10.4913 7.80526 10.4946C7.80737 10.4979 7.80957 10.5012 7.81185 10.5044C7.81413 10.5076 7.81649 10.5107 7.81894 10.5138C7.82139 10.5169 7.82391 10.5199 7.82652 10.5229C7.82913 10.5259 7.83182 10.5288 7.83458 10.5316C7.83734 10.5345 7.84017 10.5373 7.84307 10.54C7.84597 10.5427 7.84895 10.5453 7.85199 10.5479C7.85504 10.5505 7.85815 10.553 7.86133 10.5555C7.8645 10.5579 7.86774 10.5603 7.87104 10.5626C7.87435 10.5649 7.87771 10.5671 7.88112 10.5692C7.88454 10.5713 7.88801 10.5734 7.89154 10.5754C7.89506 10.5773 7.89863 10.5792 7.90225 10.5811C7.90588 10.5829 7.90955 10.5846 7.91327 10.5862C7.91698 10.5879 7.92073 10.5894 7.92453 10.5909C7.92833 10.5924 7.93216 10.5938 7.93603 10.5951C7.93989 10.5964 7.94379 10.5976 7.94773 10.5987C7.95166 10.5998 7.95562 10.6008 7.95961 10.6017C7.96359 10.6027 7.9676 10.6035 7.97163 10.6043C7.97567 10.605 7.97971 10.6057 7.98378 10.6062C7.98784 10.6068 7.99192 10.6073 7.99601 10.6077C8.0001 10.608 8.0042 10.6083 8.0083 10.6085C8.0124 10.6087 8.01651 10.6088 8.02062 10.6088L8.77388 10.6088L8.77388 11.8696L8.02062 11.8696C8.01651 11.8696 8.0124 11.8697 8.0083 11.8698C8.0042 11.87 8.0001 11.8703 7.99601 11.8707C7.99192 11.8711 7.98784 11.8715 7.98378 11.8721C7.97971 11.8727 7.97567 11.8733 7.97163 11.8741C7.9676 11.8748 7.96359 11.8757 7.95961 11.8766C7.95562 11.8775 7.95166 11.8786 7.94773 11.8797C7.94379 11.8808 7.93989 11.882 7.93603 11.8833C7.93216 11.8846 7.92833 11.886 7.92453 11.8874C7.92073 11.8889 7.91698 11.8905 7.91327 11.8921C7.90955 11.8938 7.90588 11.8955 7.90225 11.8973C7.89863 11.8991 7.89506 11.901 7.89154 11.903C7.88801 11.905 7.88454 11.907 7.88112 11.9092C7.87771 11.9113 7.87435 11.9135 7.87104 11.9158C7.86774 11.9181 7.8645 11.9205 7.86133 11.9229C7.85815 11.9253 7.85504 11.9278 7.85199 11.9304C7.84895 11.933 7.84597 11.9357 7.84307 11.9384C7.84017 11.9411 7.83734 11.9439 7.83458 11.9467C7.83182 11.9496 7.82913 11.9525 7.82652 11.9554C7.82391 11.9584 7.82139 11.9615 7.81894 11.9645C7.81649 11.9676 7.81413 11.9708 7.81185 11.974C7.80957 11.9772 7.80737 11.9804 7.80526 11.9837C7.80314 11.987 7.80112 11.9903 7.79918 11.9937C7.79724 11.9971 7.79539 12.0006 7.79364 12.004C7.79188 12.0075 7.79022 12.011 7.78865 12.0146C7.78707 12.0181 7.78559 12.0217 7.7842 12.0254C7.78282 12.029 7.78153 12.0326 7.78034 12.0363C7.77914 12.04 7.77805 12.0437 7.77705 12.0474C7.77605 12.0511 7.77515 12.0549 7.77435 12.0587C7.77355 12.0624 7.77285 12.0662 7.77225 12.07C7.77164 12.0738 7.77114 12.0776 7.77074 12.0815C7.77033 12.0853 7.77004 12.0891 7.76984 12.093C7.76963 12.0968 7.76953 12.1007 7.76953 12.1045C7.76953 12.1083 7.76963 12.1122 7.76984 12.116C7.77004 12.1199 7.77033 12.1237 7.77074 12.1275C7.77114 12.1313 7.77164 12.1351 7.77225 12.139C7.77285 12.1428 7.77355 12.1466 7.77435 12.1503C7.77515 12.1541 7.77605 12.1578 7.77705 12.1616C7.77805 12.1653 7.77914 12.169 7.78034 12.1727C7.78153 12.1764 7.78282 12.18 7.7842 12.1836C7.78559 12.1872 7.78707 12.1908 7.78865 12.1944C7.79022 12.1979 7.79188 12.2015 7.79364 12.2049C7.79539 12.2084 7.79724 12.2118 7.79918 12.2152C7.80112 12.2186 7.80314 12.222 7.80526 12.2253C7.80737 12.2286 7.80957 12.2318 7.81185 12.235C7.81413 12.2382 7.81649 12.2413 7.81894 12.2444C7.82139 12.2475 7.82391 12.2506 7.82652 12.2535C7.82913 12.2565 7.83182 12.2594 7.83458 12.2623C7.83734 12.2651 7.84017 12.2679 7.84307 12.2706C7.84597 12.2733 7.84895 12.276 7.85199 12.2786C7.85504 12.2811 7.85815 12.2836 7.86133 12.2861C7.8645 12.2885 7.86774 12.2909 7.87104 12.2932C7.87435 12.2955 7.87771 12.2977 7.88112 12.2998C7.88454 12.302 7.88801 12.304 7.89154 12.306C7.89506 12.308 7.89863 12.3099 7.90225 12.3117C7.90588 12.3135 7.90955 12.3152 7.91327 12.3169C7.91698 12.3185 7.92073 12.3201 7.92453 12.3215C7.92833 12.323 7.93216 12.3244 7.93603 12.3257C7.93989 12.327 7.94379 12.3282 7.94773 12.3293C7.95166 12.3304 7.95562 12.3314 7.95961 12.3324C7.96359 12.3333 7.9676 12.3342 7.97163 12.3349C7.97567 12.3357 7.97971 12.3363 7.98378 12.3369C7.98784 12.3374 7.99192 12.3379 7.99601 12.3383C8.0001 12.3387 8.0042 12.3389 8.0083 12.3391C8.0124 12.3393 8.01651 12.3394 8.02062 12.3394L8.77388 12.3394L8.77388 13.5963L8.02062 13.5963C8.01651 13.5963 8.0124 13.5964 8.0083 13.5965C8.0042 13.5967 8.0001 13.597 7.99601 13.5974C7.99192 13.5978 7.98784 13.5983 7.98378 13.5988C7.97971 13.5994 7.97567 13.6 7.97163 13.6008C7.9676 13.6015 7.96359 13.6024 7.95961 13.6033C7.95562 13.6042 7.95166 13.6053 7.94773 13.6064C7.94379 13.6075 7.93989 13.6087 7.93603 13.61C7.93216 13.6113 7.92833 13.6127 7.92453 13.6141C7.92073 13.6156 7.91698 13.6172 7.91327 13.6188C7.90955 13.6205 7.90588 13.6222 7.90225 13.624C7.89863 13.6258 7.89506 13.6277 7.89154 13.6297C7.88801 13.6317 7.88454 13.6337 7.88112 13.6359C7.87771 13.638 7.87435 13.6402 7.87104 13.6425C7.86774 13.6448 7.8645 13.6472 7.86133 13.6496C7.85815 13.652 7.85504 13.6546 7.85199 13.6571C7.84895 13.6597 7.84597 13.6624 7.84307 13.6651C7.84017 13.6678 7.83734 13.6706 7.83458 13.6734C7.83182 13.6763 7.82913 13.6792 7.82652 13.6822C7.82391 13.6851 7.82139 13.6882 7.81894 13.6912C7.81649 13.6943 7.81413 13.6975 7.81185 13.7007C7.80957 13.7039 7.80737 13.7071 7.80526 13.7104C7.80314 13.7137 7.80112 13.7171 7.79918 13.7205C7.79724 13.7239 7.79539 13.7273 7.79364 13.7308C7.79188 13.7342 7.79022 13.7377 7.78865 13.7413C7.78707 13.7449 7.78559 13.7484 7.7842 13.7521C7.78282 13.7557 7.78153 13.7593 7.78034 13.763C7.77914 13.7667 7.77805 13.7704 7.77705 13.7741C7.77605 13.7778 7.77515 13.7816 7.77435 13.7854C7.77355 13.7891 7.77285 13.7929 7.77225 13.7967C7.77164 13.8005 7.77114 13.8043 7.77074 13.8082C7.77033 13.812 7.77004 13.8158 7.76984 13.8197C7.76963 13.8235 7.76953 13.8274 7.76953 13.8312C7.76953 13.835 7.76963 13.8389 7.76984 13.8427C7.77004 13.8466 7.77033 13.8504 7.77074 13.8542C7.77114 13.8581 7.77164 13.8619 7.77225 13.8657C7.77285 13.8695 7.77355 13.8733 7.77435 13.877C7.77515 13.8808 7.77605 13.8846 7.77705 13.8883C7.77805 13.892 7.77914 13.8957 7.78034 13.8994C7.78153 13.9031 7.78282 13.9067 7.7842 13.9103C7.78559 13.914 7.78707 13.9175 7.78865 13.9211C7.79022 13.9247 7.79188 13.9282 7.79364 13.9316C7.79539 13.9351 7.79724 13.9386 7.79918 13.9419C7.80112 13.9453 7.80314 13.9487 7.80526 13.952C7.80737 13.9553 7.80957 13.9585 7.81185 13.9617C7.81413 13.9649 7.81649 13.9681 7.81894 13.9711C7.82139 13.9742 7.82391 13.9773 7.82652 13.9802C7.82913 13.9832 7.83182 13.9861 7.83458 13.989C7.83734 13.9918 7.84017 13.9946 7.84307 13.9973C7.84597 14 7.84895 14.0027 7.85199 14.0053C7.85504 14.0079 7.85815 14.0104 7.86133 14.0128C7.8645 14.0152 7.86774 14.0176 7.87104 14.0199C7.87435 14.0222 7.87771 14.0244 7.88112 14.0265C7.88454 14.0287 7.88801 14.0307 7.89154 14.0327C7.89506 14.0347 7.89863 14.0366 7.90225 14.0384C7.90588 14.0402 7.90955 14.0419 7.91327 14.0436C7.91698 14.0452 7.92073 14.0468 7.92453 14.0482C7.92833 14.0497 7.93216 14.0511 7.93603 14.0524C7.93989 14.0537 7.94379 14.0549 7.94773 14.056C7.95166 14.0571 7.95562 14.0581 7.95961 14.0591C7.96359 14.06 7.9676 14.0609 7.97163 14.0616C7.97567 14.0624 7.97971 14.063 7.98378 14.0636C7.98784 14.0642 7.99192 14.0646 7.99601 14.065C8.0001 14.0654 8.0042 14.0656 8.0083 14.0658C8.0124 14.066 8.01651 14.0661 8.02062 14.0661L8.77388 14.0661L8.77388 14.211C8.77394 14.2258 8.77439 14.2406 8.77523 14.2553C8.77607 14.2701 8.77729 14.2848 8.7789 14.2995C8.78051 14.3142 8.78251 14.3289 8.78487 14.3435C8.78724 14.3581 8.78999 14.3727 8.79313 14.3872C8.79626 14.4017 8.79977 14.4161 8.80365 14.4304C8.80754 14.4447 8.8118 14.459 8.81643 14.4731C8.82106 14.4873 8.82605 14.5013 8.8314 14.5152C8.83677 14.5291 8.84249 14.5429 8.84857 14.5565C8.85465 14.5702 8.86108 14.5837 8.86785 14.597C8.87463 14.6104 8.88176 14.6236 8.88924 14.6366C8.89671 14.6496 8.90452 14.6625 8.91266 14.6751C8.9208 14.6878 8.92927 14.7003 8.93806 14.7126C8.94686 14.7249 8.95596 14.7369 8.96539 14.7488C8.97481 14.7607 8.98453 14.7723 8.99457 14.7837C9.0046 14.7952 9.01492 14.8064 9.02553 14.8173C9.03615 14.8283 9.04705 14.839 9.05822 14.8494C9.06939 14.8599 9.08083 14.8701 9.09253 14.88C9.10424 14.8899 9.1162 14.8996 9.12841 14.909C9.14062 14.9184 9.15307 14.9275 9.16575 14.9363C9.17843 14.9451 9.19134 14.9536 9.20447 14.9618C9.2176 14.9701 9.23094 14.978 9.24448 14.9856C9.25803 14.9932 9.27176 15.0005 9.28568 15.0075C9.2996 15.0145 9.31369 15.0212 9.32797 15.0275C9.34224 15.0339 9.35667 15.0399 9.37125 15.0456C9.38583 15.0513 9.40056 15.0566 9.41544 15.0616C9.43031 15.0666 9.44529 15.0713 9.4604 15.0756C9.47551 15.08 9.49072 15.084 9.50603 15.0876C9.52135 15.0912 9.53675 15.0945 9.55224 15.0974C9.56773 15.1004 9.58328 15.1029 9.59891 15.1052C9.61453 15.1074 9.6302 15.1093 9.64592 15.1108C9.66165 15.1123 9.67739 15.1134 9.69317 15.1142C9.70896 15.115 9.72474 15.1154 9.74054 15.1155L9.91212 15.1155L9.91212 15.8163C9.91212 15.8202 9.91222 15.824 9.91243 15.8279C9.91262 15.8317 9.91292 15.8355 9.91334 15.8394C9.91373 15.8432 9.91423 15.847 9.91483 15.8508C9.91544 15.8546 9.91614 15.8584 9.91695 15.8622C9.91776 15.8659 9.91865 15.8697 9.91965 15.8734C9.92065 15.8771 9.92173 15.8808 9.92292 15.8845C9.92411 15.8882 9.92541 15.8918 9.9268 15.8955C9.92818 15.8991 9.92966 15.9027 9.93123 15.9062C9.93281 15.9098 9.93447 15.9133 9.93623 15.9168C9.93797 15.9202 9.93983 15.9237 9.94176 15.9271C9.9437 15.9305 9.94573 15.9338 9.94784 15.9371C9.94996 15.9404 9.95216 15.9436 9.95443 15.9468C9.95671 15.95 9.95907 15.9532 9.96153 15.9563C9.96398 15.9594 9.9665 15.9624 9.96912 15.9654C9.97172 15.9683 9.9744 15.9712 9.97716 15.9741C9.97993 15.9769 9.98276 15.9797 9.98567 15.9824C9.98856 15.9852 9.99154 15.9878 9.99458 15.9904C9.99763 15.993 10.0007 15.9955 10.0039 15.9979C10.0071 16.0004 10.0103 16.0027 10.0136 16.005C10.0169 16.0073 10.0203 16.0095 10.0237 16.0117C10.0271 16.0138 10.0306 16.0159 10.0341 16.0178C10.0376 16.0198 10.0412 16.0217 10.0448 16.0235C10.0485 16.0253 10.0521 16.0271 10.0559 16.0287C10.0596 16.0303 10.0633 16.0319 10.0671 16.0334C10.0709 16.0348 10.0747 16.0362 10.0786 16.0375C10.0825 16.0388 10.0864 16.04 10.0903 16.0411C10.0942 16.0423 10.0982 16.0433 10.1022 16.0442C10.1062 16.0451 10.1102 16.046 10.1142 16.0467C10.1183 16.0475 10.1223 16.0482 10.1264 16.0487C10.1304 16.0493 10.1345 16.0497 10.1386 16.0501C10.1427 16.0505 10.1468 16.0508 10.1509 16.051C10.155 16.0512 10.1591 16.0513 10.1632 16.0513C10.1673 16.0513 10.1714 16.0512 10.1755 16.051C10.1796 16.0508 10.1837 16.0505 10.1878 16.0501C10.1919 16.0497 10.196 16.0493 10.2 16.0487C10.2041 16.0482 10.2081 16.0475 10.2122 16.0467C10.2162 16.046 10.2202 16.0451 10.2242 16.0442C10.2282 16.0433 10.2322 16.0423 10.2361 16.0411C10.24 16.04 10.2439 16.0388 10.2478 16.0375C10.2517 16.0362 10.2555 16.0348 10.2593 16.0334C10.2631 16.0319 10.2668 16.0303 10.2706 16.0287C10.2743 16.0271 10.2779 16.0253 10.2816 16.0235C10.2852 16.0217 10.2888 16.0198 10.2923 16.0178C10.2958 16.0159 10.2993 16.0138 10.3027 16.0117C10.3061 16.0095 10.3095 16.0073 10.3128 16.005C10.3161 16.0027 10.3193 16.0004 10.3225 15.9979C10.3257 15.9955 10.3288 15.993 10.3318 15.9904C10.3349 15.9878 10.3378 15.9852 10.3408 15.9824C10.3436 15.9797 10.3465 15.9769 10.3492 15.9741C10.352 15.9712 10.3547 15.9683 10.3573 15.9654C10.3599 15.9624 10.3624 15.9594 10.3649 15.9563C10.3673 15.9532 10.3697 15.95 10.372 15.9468C10.3742 15.9436 10.3764 15.9404 10.3786 15.9371C10.3807 15.9338 10.3827 15.9305 10.3846 15.9271C10.3866 15.9237 10.3884 15.9202 10.3902 15.9168C10.3919 15.9133 10.3936 15.9098 10.3952 15.9062C10.3967 15.9027 10.3982 15.8991 10.3996 15.8955C10.401 15.8918 10.4023 15.8882 10.4035 15.8845C10.4047 15.8808 10.4058 15.8771 10.4068 15.8734C10.4078 15.8697 10.4087 15.8659 10.4095 15.8622C10.4103 15.8584 10.411 15.8546 10.4116 15.8508C10.4122 15.847 10.4127 15.8432 10.4131 15.8394C10.4135 15.8355 10.4138 15.8317 10.414 15.8279C10.4142 15.824 10.4143 15.8202 10.4143 15.8163L10.4143 15.1155L11.7618 15.1155L11.7618 15.8163C11.7618 15.8202 11.7619 15.824 11.7621 15.8279C11.7623 15.8317 11.7626 15.8355 11.763 15.8394C11.7634 15.8432 11.7639 15.847 11.7645 15.8508C11.7651 15.8546 11.7658 15.8584 11.7666 15.8622C11.7674 15.8659 11.7683 15.8697 11.7693 15.8734C11.7703 15.8771 11.7714 15.8808 11.7726 15.8845C11.7738 15.8882 11.7751 15.8918 11.7765 15.8955C11.7778 15.8991 11.7793 15.9027 11.7809 15.9062C11.7825 15.9098 11.7841 15.9133 11.7859 15.9168C11.7876 15.9202 11.7895 15.9237 11.7914 15.9271C11.7934 15.9305 11.7954 15.9338 11.7975 15.9371C11.7996 15.9404 11.8018 15.9436 11.8041 15.9468C11.8064 15.95 11.8087 15.9532 11.8112 15.9563C11.8136 15.9594 11.8162 15.9624 11.8188 15.9654C11.8214 15.9683 11.8241 15.9712 11.8268 15.9741C11.8296 15.9769 11.8324 15.9797 11.8353 15.9824C11.8382 15.9852 11.8412 15.9878 11.8442 15.9904C11.8473 15.993 11.8504 15.9955 11.8536 15.9979C11.8568 16.0004 11.86 16.0027 11.8633 16.005C11.8666 16.0073 11.8699 16.0095 11.8734 16.0117C11.8768 16.0138 11.8802 16.0159 11.8838 16.0178C11.8873 16.0198 11.8909 16.0217 11.8945 16.0235C11.8981 16.0253 11.9018 16.0271 11.9055 16.0287C11.9092 16.0303 11.913 16.0319 11.9168 16.0334C11.9206 16.0348 11.9244 16.0362 11.9283 16.0375C11.9321 16.0388 11.936 16.04 11.94 16.0411C11.9439 16.0423 11.9479 16.0433 11.9519 16.0442C11.9558 16.0451 11.9598 16.046 11.9639 16.0467C11.9679 16.0475 11.9719 16.0482 11.976 16.0487C11.9801 16.0493 11.9842 16.0497 11.9882 16.0501C11.9923 16.0505 11.9964 16.0508 12.0005 16.051C12.0046 16.0512 12.0088 16.0513 12.0129 16.0513C12.017 16.0513 12.0211 16.0512 12.0252 16.051C12.0293 16.0508 12.0334 16.0505 12.0375 16.0501C12.0416 16.0497 12.0456 16.0493 12.0497 16.0487C12.0538 16.0482 12.0578 16.0475 12.0619 16.0467C12.0659 16.046 12.0699 16.0451 12.0739 16.0442C12.0779 16.0433 12.0818 16.0423 12.0857 16.0411C12.0897 16.04 12.0936 16.0388 12.0974 16.0375C12.1013 16.0362 12.1052 16.0348 12.1089 16.0334C12.1127 16.0319 12.1165 16.0303 12.1202 16.0287C12.1239 16.0271 12.1276 16.0253 12.1312 16.0235C12.1348 16.0217 12.1384 16.0198 12.142 16.0178C12.1455 16.0159 12.1489 16.0138 12.1524 16.0117C12.1558 16.0095 12.1591 16.0073 12.1624 16.005C12.1657 16.0027 12.169 16.0004 12.1722 15.9979C12.1753 15.9955 12.1784 15.993 12.1815 15.9904C12.1845 15.9878 12.1875 15.9852 12.1904 15.9824C12.1933 15.9797 12.1961 15.9769 12.1989 15.9741C12.2017 15.9712 12.2044 15.9683 12.207 15.9654C12.2096 15.9624 12.2121 15.9594 12.2145 15.9563C12.217 15.9532 12.2193 15.95 12.2216 15.9468C12.2239 15.9436 12.2261 15.9404 12.2282 15.9371C12.2303 15.9338 12.2324 15.9305 12.2343 15.9271C12.2362 15.9237 12.2381 15.9202 12.2398 15.9168C12.2416 15.9133 12.2433 15.9098 12.2448 15.9062C12.2464 15.9027 12.2479 15.8991 12.2493 15.8955C12.2507 15.8918 12.2519 15.8882 12.2531 15.8845C12.2543 15.8808 12.2554 15.8771 12.2564 15.8734C12.2574 15.8697 12.2583 15.8659 12.2591 15.8622C12.2599 15.8584 12.2606 15.8546 12.2612 15.8508C12.2618 15.847 12.2623 15.8432 12.2627 15.8394C12.2631 15.8355 12.2634 15.8317 12.2636 15.8279C12.2638 15.824 12.2639 15.8202 12.2639 15.8163L12.2639 15.1155L13.6031 15.1155L13.6031 15.8163C13.6031 15.8202 13.6032 15.824 13.6034 15.8279C13.6036 15.8317 13.6039 15.8355 13.6043 15.8394C13.6047 15.8432 13.6052 15.847 13.6058 15.8508C13.6064 15.8546 13.6071 15.8584 13.6079 15.8622C13.6087 15.8659 13.6096 15.8697 13.6106 15.8734C13.6116 15.8771 13.6127 15.8808 13.6139 15.8845C13.6151 15.8882 13.6164 15.8918 13.6178 15.8955C13.6191 15.8991 13.6206 15.9027 13.6222 15.9062C13.6238 15.9098 13.6254 15.9133 13.6272 15.9168C13.6289 15.9202 13.6308 15.9237 13.6327 15.9271C13.6347 15.9305 13.6367 15.9338 13.6388 15.9371C13.6409 15.9404 13.6431 15.9436 13.6454 15.9468C13.6477 15.95 13.65 15.9532 13.6525 15.9563C13.6549 15.9594 13.6575 15.9624 13.6601 15.9654C13.6627 15.9683 13.6654 15.9712 13.6681 15.9741C13.6709 15.9769 13.6737 15.9797 13.6766 15.9824C13.6795 15.9852 13.6825 15.9878 13.6855 15.9904C13.6886 15.993 13.6917 15.9955 13.6949 15.9979C13.698 16.0004 13.7013 16.0027 13.7046 16.005C13.7079 16.0073 13.7112 16.0095 13.7147 16.0117C13.7181 16.0138 13.7215 16.0159 13.7251 16.0178C13.7286 16.0198 13.7322 16.0217 13.7358 16.0235C13.7394 16.0253 13.7431 16.0271 13.7468 16.0287C13.7505 16.0303 13.7543 16.0319 13.7581 16.0334C13.7619 16.0348 13.7657 16.0362 13.7696 16.0375C13.7734 16.0388 13.7773 16.04 13.7813 16.0411C13.7852 16.0423 13.7892 16.0433 13.7931 16.0442C13.7971 16.0451 13.8011 16.046 13.8052 16.0467C13.8092 16.0475 13.8132 16.0482 13.8173 16.0487C13.8214 16.0493 13.8254 16.0497 13.8295 16.0501C13.8336 16.0505 13.8377 16.0508 13.8418 16.051C13.8459 16.0512 13.85 16.0513 13.8542 16.0513C13.8583 16.0513 13.8624 16.0512 13.8665 16.051C13.8706 16.0508 13.8747 16.0505 13.8788 16.0501C13.8829 16.0497 13.8869 16.0493 13.891 16.0487C13.8951 16.0482 13.8991 16.0475 13.9031 16.0467C13.9072 16.046 13.9112 16.0451 13.9152 16.0442C13.9191 16.0433 13.9231 16.0423 13.927 16.0411C13.931 16.04 13.9349 16.0388 13.9387 16.0375C13.9426 16.0362 13.9464 16.0348 13.9502 16.0334C13.954 16.0319 13.9578 16.0303 13.9615 16.0287C13.9652 16.0271 13.9689 16.0253 13.9725 16.0235C13.9761 16.0217 13.9797 16.0198 13.9832 16.0178C13.9868 16.0159 13.9902 16.0138 13.9936 16.0117C13.9971 16.0095 14.0004 16.0073 14.0037 16.005C14.007 16.0027 14.0103 16.0004 14.0134 15.9979C14.0166 15.9955 14.0197 15.993 14.0228 15.9904C14.0258 15.9878 14.0288 15.9852 14.0317 15.9824C14.0346 15.9797 14.0374 15.9769 14.0402 15.9741C14.043 15.9712 14.0456 15.9683 14.0482 15.9654C14.0509 15.9624 14.0534 15.9594 14.0558 15.9563C14.0583 15.9532 14.0606 15.95 14.0629 15.9468C14.0652 15.9436 14.0674 15.9404 14.0695 15.9371C14.0716 15.9338 14.0737 15.9305 14.0756 15.9271C14.0775 15.9237 14.0794 15.9202 14.0811 15.9168C14.0829 15.9133 14.0845 15.9098 14.0861 15.9062C14.0877 15.9027 14.0892 15.8991 14.0906 15.8955C14.0919 15.8918 14.0932 15.8882 14.0944 15.8845C14.0956 15.8808 14.0967 15.8771 14.0977 15.8734C14.0987 15.8697 14.0996 15.8659 14.1004 15.8622C14.1012 15.8584 14.1019 15.8546 14.1025 15.8508C14.1031 15.847 14.1036 15.8432 14.104 15.8394C14.1044 15.8355 14.1047 15.8317 14.1049 15.8279C14.1051 15.824 14.1052 15.8202 14.1052 15.8163L14.1052 15.1155L14.2601 15.1155C14.2759 15.1154 14.2917 15.115 14.3074 15.1142C14.3232 15.1134 14.339 15.1123 14.3547 15.1108C14.3704 15.1093 14.3861 15.1074 14.4017 15.1052C14.4173 15.1029 14.4329 15.1004 14.4484 15.0974C14.4639 15.0945 14.4793 15.0912 14.4946 15.0876C14.5099 15.084 14.5251 15.08 14.5402 15.0756C14.5553 15.0713 14.5703 15.0666 14.5852 15.0616C14.6 15.0566 14.6148 15.0513 14.6294 15.0456C14.6439 15.0399 14.6584 15.0339 14.6726 15.0275C14.6869 15.0212 14.701 15.0145 14.7149 15.0075C14.7289 15.0005 14.7426 14.9932 14.7561 14.9856C14.7697 14.978 14.783 14.9701 14.7962 14.9618C14.8093 14.9536 14.8222 14.9451 14.8349 14.9363C14.8475 14.9275 14.86 14.9184 14.8722 14.909C14.8844 14.8996 14.8964 14.8899 14.9081 14.88C14.9198 14.8701 14.9312 14.8599 14.9424 14.8494C14.9536 14.839 14.9645 14.8283 14.9751 14.8173C14.9857 14.8064 14.996 14.7952 15.006 14.7837C15.0161 14.7723 15.0258 14.7607 15.0352 14.7488C15.0447 14.7369 15.0538 14.7249 15.0626 14.7126C15.0713 14.7003 15.0798 14.6878 15.088 14.6751C15.0961 14.6625 15.1039 14.6496 15.1114 14.6366C15.1188 14.6236 15.126 14.6104 15.1328 14.597C15.1396 14.5837 15.146 14.5702 15.152 14.5565C15.1581 14.5429 15.1639 14.5291 15.1692 14.5152C15.1746 14.5013 15.1796 14.4873 15.1842 14.4731C15.1888 14.459 15.1931 14.4447 15.197 14.4304C15.2009 14.4161 15.2044 14.4017 15.2075 14.3872C15.2106 14.3727 15.2134 14.3581 15.2157 14.3435C15.2181 14.3289 15.2201 14.3142 15.2217 14.2995C15.2233 14.2848 15.2246 14.2701 15.2254 14.2553C15.2262 14.2406 15.2267 14.2258 15.2267 14.211L15.2267 14.0661L15.98 14.0661C15.9841 14.0661 15.9882 14.066 15.9923 14.0658C15.9964 14.0656 16.0005 14.0654 16.0046 14.065C16.0087 14.0646 16.0128 14.0642 16.0168 14.0636C16.0209 14.063 16.0249 14.0624 16.029 14.0616C16.033 14.0609 16.037 14.06 16.041 14.0591C16.045 14.0581 16.049 14.0571 16.0529 14.056C16.0568 14.0549 16.0607 14.0537 16.0646 14.0524C16.0685 14.0511 16.0723 14.0497 16.0761 14.0482C16.0799 14.0468 16.0836 14.0452 16.0873 14.0436C16.0911 14.0419 16.0947 14.0402 16.0984 14.0384C16.102 14.0366 16.1056 14.0347 16.1091 14.0327C16.1126 14.0307 16.1161 14.0287 16.1195 14.0265C16.1229 14.0244 16.1263 14.0222 16.1296 14.0199C16.1329 14.0176 16.1361 14.0152 16.1393 14.0128C16.1425 14.0104 16.1456 14.0079 16.1486 14.0053C16.1517 14.0027 16.1546 14 16.1576 13.9973C16.1604 13.9946 16.1633 13.9918 16.166 13.989C16.1688 13.9861 16.1715 13.9832 16.1741 13.9802C16.1767 13.9773 16.1792 13.9742 16.1817 13.9711C16.1841 13.9681 16.1865 13.9649 16.1888 13.9617C16.191 13.9585 16.1932 13.9553 16.1954 13.952C16.1975 13.9487 16.1995 13.9453 16.2014 13.9419C16.2034 13.9386 16.2052 13.9351 16.207 13.9316C16.2087 13.9282 16.2104 13.9247 16.212 13.9211C16.2135 13.9175 16.215 13.914 16.2164 13.9103C16.2178 13.9067 16.2191 13.9031 16.2203 13.8994C16.2215 13.8957 16.2226 13.892 16.2236 13.8883C16.2246 13.8846 16.2254 13.8808 16.2263 13.877C16.2271 13.8733 16.2278 13.8695 16.2284 13.8657C16.229 13.8619 16.2295 13.8581 16.2299 13.8542C16.2303 13.8504 16.2306 13.8466 16.2308 13.8427C16.231 13.8389 16.2311 13.835 16.2311 13.8312C16.2311 13.8274 16.231 13.8235 16.2308 13.8197C16.2306 13.8158 16.2303 13.812 16.2299 13.8082C16.2295 13.8043 16.229 13.8005 16.2284 13.7967C16.2278 13.7929 16.2271 13.7891 16.2263 13.7854C16.2254 13.7816 16.2246 13.7778 16.2236 13.7741C16.2226 13.7704 16.2215 13.7667 16.2203 13.763C16.2191 13.7593 16.2178 13.7557 16.2164 13.7521C16.215 13.7484 16.2135 13.7449 16.212 13.7413C16.2104 13.7377 16.2087 13.7342 16.207 13.7308C16.2052 13.7273 16.2034 13.7239 16.2014 13.7205C16.1995 13.7171 16.1975 13.7137 16.1954 13.7104C16.1932 13.7071 16.191 13.7039 16.1888 13.7007C16.1865 13.6975 16.1841 13.6943 16.1817 13.6912C16.1792 13.6882 16.1767 13.6851 16.1741 13.6822C16.1715 13.6792 16.1688 13.6763 16.166 13.6734C16.1633 13.6706 16.1604 13.6678 16.1575 13.6651C16.1546 13.6624 16.1517 13.6597 16.1486 13.6571C16.1456 13.6546 16.1425 13.652 16.1393 13.6496C16.1361 13.6472 16.1329 13.6448 16.1296 13.6425C16.1263 13.6402 16.1229 13.638 16.1195 13.6359C16.1161 13.6337 16.1126 13.6317 16.1091 13.6297C16.1056 13.6277 16.102 13.6258 16.0984 13.624C16.0947 13.6222 16.0911 13.6205 16.0873 13.6188C16.0836 13.6172 16.0799 13.6156 16.0761 13.6141C16.0723 13.6127 16.0685 13.6113 16.0646 13.61C16.0607 13.6087 16.0568 13.6075 16.0529 13.6064C16.049 13.6053 16.045 13.6042 16.041 13.6033C16.037 13.6024 16.033 13.6015 16.029 13.6008C16.0249 13.6 16.0209 13.5994 16.0168 13.5988C16.0128 13.5983 16.0087 13.5978 16.0046 13.5974C16.0005 13.597 15.9964 13.5967 15.9923 13.5965C15.9882 13.5964 15.9841 13.5963 15.98 13.5963L15.2267 13.5963L15.2267 12.3394L15.98 12.3394C15.9841 12.3394 15.9882 12.3393 15.9923 12.3391C15.9964 12.3389 16.0005 12.3387 16.0046 12.3383C16.0087 12.3379 16.0128 12.3374 16.0168 12.3369C16.0209 12.3363 16.0249 12.3357 16.029 12.3349C16.033 12.3342 16.037 12.3333 16.041 12.3324C16.045 12.3314 16.049 12.3304 16.0529 12.3293C16.0568 12.3282 16.0607 12.327 16.0646 12.3257C16.0685 12.3244 16.0723 12.323 16.0761 12.3215C16.0799 12.3201 16.0836 12.3185 16.0873 12.3169C16.0911 12.3152 16.0947 12.3135 16.0984 12.3117C16.102 12.3099 16.1056 12.308 16.1091 12.306C16.1126 12.304 16.1161 12.302 16.1195 12.2998C16.1229 12.2977 16.1263 12.2955 16.1296 12.2932C16.1329 12.2909 16.1361 12.2885 16.1393 12.2861C16.1425 12.2836 16.1456 12.2811 16.1486 12.2786C16.1517 12.276 16.1546 12.2733 16.1576 12.2706C16.1604 12.2679 16.1633 12.2651 16.166 12.2623C16.1688 12.2594 16.1715 12.2565 16.1741 12.2535C16.1767 12.2506 16.1792 12.2475 16.1817 12.2444C16.1841 12.2413 16.1865 12.2382 16.1888 12.235C16.191 12.2318 16.1932 12.2286 16.1954 12.2253C16.1975 12.222 16.1995 12.2186 16.2014 12.2152C16.2034 12.2118 16.2052 12.2084 16.207 12.2049C16.2087 12.2015 16.2104 12.1979 16.212 12.1944C16.2135 12.1908 16.215 12.1872 16.2164 12.1836C16.2178 12.18 16.2191 12.1764 16.2203 12.1727C16.2215 12.169 16.2226 12.1653 16.2236 12.1616C16.2246 12.1578 16.2254 12.1541 16.2263 12.1503C16.2271 12.1466 16.2278 12.1428 16.2284 12.139C16.229 12.1351 16.2295 12.1313 16.2299 12.1275C16.2303 12.1237 16.2306 12.1199 16.2308 12.116C16.231 12.1122 16.2311 12.1083 16.2311 12.1045C16.2311 12.1007 16.231 12.0968 16.2308 12.093C16.2306 12.0891 16.2303 12.0853 16.2299 12.0815C16.2295 12.0776 16.229 12.0738 16.2284 12.07C16.2278 12.0662 16.2271 12.0624 16.2263 12.0587C16.2254 12.0549 16.2246 12.0511 16.2236 12.0474C16.2226 12.0437 16.2215 12.04 16.2203 12.0363C16.2191 12.0326 16.2178 12.029 16.2164 12.0254C16.215 12.0217 16.2135 12.0181 16.212 12.0146C16.2104 12.011 16.2087 12.0075 16.207 12.004C16.2052 12.0006 16.2034 11.9971 16.2014 11.9937C16.1995 11.9903 16.1975 11.987 16.1954 11.9837C16.1932 11.9804 16.191 11.9772 16.1888 11.974C16.1865 11.9708 16.1841 11.9676 16.1817 11.9645C16.1792 11.9615 16.1767 11.9584 16.1741 11.9554C16.1715 11.9525 16.1688 11.9496 16.166 11.9467C16.1633 11.9439 16.1604 11.9411 16.1575 11.9384C16.1546 11.9357 16.1517 11.933 16.1486 11.9304C16.1456 11.9278 16.1425 11.9253 16.1393 11.9229C16.1361 11.9205 16.1329 11.9181 16.1296 11.9158C16.1263 11.9135 16.1229 11.9113 16.1195 11.9092C16.1161 11.907 16.1126 11.905 16.1091 11.903C16.1056 11.901 16.102 11.8991 16.0984 11.8973C16.0947 11.8955 16.0911 11.8938 16.0873 11.8921C16.0836 11.8905 16.0799 11.8889 16.0761 11.8874C16.0723 11.886 16.0685 11.8846 16.0646 11.8833C16.0607 11.882 16.0568 11.8808 16.0529 11.8797C16.049 11.8786 16.045 11.8775 16.041 11.8766C16.037 11.8757 16.033 11.8748 16.029 11.8741C16.0249 11.8733 16.0209 11.8727 16.0168 11.8721C16.0128 11.8715 16.0087 11.8711 16.0046 11.8707C16.0005 11.8703 15.9964 11.87 15.9923 11.8698C15.9882 11.8697 15.9841 11.8696 15.98 11.8696L15.2267 11.8696L15.2267 10.6088L15.9633 10.6088ZM14.7078 14.211C14.7078 14.2181 14.7077 14.2252 14.7073 14.2323C14.7069 14.2394 14.7063 14.2465 14.7056 14.2536C14.7048 14.2607 14.7039 14.2677 14.7028 14.2748C14.7017 14.2818 14.7004 14.2888 14.6989 14.2958C14.6974 14.3028 14.6958 14.3097 14.6939 14.3166C14.6921 14.3235 14.69 14.3304 14.6878 14.3372C14.6856 14.344 14.6832 14.3507 14.6807 14.3574C14.6781 14.3641 14.6754 14.3707 14.6725 14.3773C14.6696 14.3839 14.6665 14.3904 14.6632 14.3968C14.66 14.4032 14.6566 14.4096 14.653 14.4159C14.6494 14.4221 14.6457 14.4283 14.6418 14.4344C14.6378 14.4405 14.6338 14.4465 14.6296 14.4525C14.6253 14.4584 14.621 14.4642 14.6164 14.4699C14.6119 14.4756 14.6072 14.4812 14.6024 14.4867C14.5976 14.4922 14.5926 14.4976 14.5875 14.5029C14.5824 14.5081 14.5772 14.5133 14.5718 14.5183C14.5664 14.5233 14.5609 14.5283 14.5553 14.533C14.5496 14.5378 14.5439 14.5424 14.538 14.547C14.5321 14.5515 14.5261 14.5558 14.52 14.5601C14.5139 14.5643 14.5077 14.5684 14.5014 14.5724C14.4951 14.5763 14.4887 14.5801 14.4821 14.5838C14.4756 14.5874 14.469 14.5909 14.4623 14.5943C14.4556 14.5976 14.4488 14.6008 14.4419 14.6039C14.4351 14.6069 14.4281 14.6098 14.4211 14.6125C14.4141 14.6152 14.407 14.6178 14.3998 14.6202C14.3927 14.6226 14.3854 14.6248 14.3782 14.6269C14.3709 14.629 14.3636 14.6309 14.3562 14.6326C14.3488 14.6343 14.3414 14.6359 14.3339 14.6373C14.3265 14.6387 14.319 14.6399 14.3115 14.6409C14.304 14.642 14.2964 14.6428 14.2889 14.6435C14.2813 14.6442 14.2737 14.6447 14.2661 14.6451C14.2585 14.6454 14.2509 14.6456 14.2433 14.6456L9.74054 14.6456C9.73295 14.6456 9.72534 14.6454 9.71775 14.6451C9.71016 14.6447 9.70259 14.6442 9.69502 14.6435C9.68746 14.6428 9.67991 14.642 9.67238 14.6409C9.66486 14.6399 9.65737 14.6387 9.64993 14.6373C9.64247 14.6359 9.63506 14.6343 9.62768 14.6326C9.6203 14.6309 9.61297 14.629 9.6057 14.6269C9.59844 14.6248 9.59121 14.6226 9.58406 14.6202C9.57691 14.6178 9.56982 14.6153 9.56278 14.6125C9.55577 14.6098 9.54882 14.6069 9.54195 14.6039C9.53508 14.6008 9.52829 14.5976 9.52158 14.5943C9.51487 14.5909 9.50826 14.5874 9.50175 14.5838C9.49523 14.5801 9.48881 14.5763 9.48248 14.5724C9.47615 14.5684 9.46994 14.5643 9.46383 14.5601C9.45774 14.5558 9.45175 14.5515 9.44586 14.547C9.43999 14.5424 9.43423 14.5378 9.42861 14.533C9.42297 14.5283 9.41746 14.5233 9.41209 14.5183C9.40671 14.5133 9.40147 14.5081 9.39636 14.5029C9.39127 14.4976 9.3863 14.4922 9.38147 14.4867C9.37666 14.4812 9.37199 14.4756 9.36745 14.4699C9.36291 14.4642 9.35854 14.4584 9.35432 14.4525C9.3501 14.4465 9.34603 14.4405 9.34212 14.4344C9.33822 14.4283 9.33447 14.4221 9.33089 14.4159C9.32731 14.4096 9.32389 14.4032 9.32064 14.3968C9.3174 14.3904 9.31431 14.3839 9.31139 14.3773C9.30848 14.3707 9.30575 14.3641 9.3032 14.3574C9.30063 14.3507 9.29825 14.344 9.29605 14.3372C9.29383 14.3304 9.2918 14.3235 9.28995 14.3166C9.28812 14.3097 9.28644 14.3028 9.28496 14.2958C9.28348 14.2888 9.28218 14.2818 9.28107 14.2748C9.27995 14.2677 9.27903 14.2607 9.27828 14.2536C9.27753 14.2465 9.27697 14.2394 9.27659 14.2323C9.27622 14.2252 9.27603 14.2181 9.27603 14.211L9.27603 9.99798C9.27603 9.99088 9.27622 9.98376 9.27659 9.97666C9.27697 9.96955 9.27753 9.96245 9.27828 9.95537C9.27903 9.9483 9.27995 9.94124 9.28107 9.9342C9.28218 9.92717 9.28348 9.92016 9.28496 9.91318C9.28644 9.90622 9.28812 9.89928 9.28995 9.89237C9.2918 9.88547 9.29383 9.87862 9.29605 9.87182C9.29825 9.86502 9.30063 9.85826 9.3032 9.85157C9.30575 9.84486 9.30848 9.83823 9.31139 9.83166C9.31431 9.82509 9.3174 9.81859 9.32064 9.81215C9.32389 9.80572 9.32731 9.79937 9.33089 9.79311C9.33447 9.78683 9.33822 9.78065 9.34212 9.77455C9.34603 9.76844 9.3501 9.76243 9.35432 9.75653C9.35854 9.7506 9.36291 9.74479 9.36745 9.73908C9.37199 9.73338 9.37666 9.72777 9.38147 9.72226C9.3863 9.71677 9.39127 9.71138 9.39636 9.7061C9.40147 9.70084 9.40671 9.69569 9.41209 9.69066C9.41746 9.68563 9.42297 9.68073 9.42861 9.67595C9.43423 9.67118 9.43999 9.66654 9.44586 9.66202C9.45175 9.6575 9.45774 9.65313 9.46383 9.6489C9.46994 9.64465 9.47615 9.64056 9.48248 9.63661C9.48881 9.63266 9.49523 9.62885 9.50175 9.6252C9.50826 9.62154 9.51487 9.61804 9.52158 9.61469C9.52829 9.61134 9.53508 9.60814 9.54195 9.6051C9.54882 9.60205 9.55577 9.59916 9.56278 9.59644C9.56982 9.59372 9.57691 9.59117 9.58406 9.58876C9.59121 9.58637 9.59844 9.58415 9.6057 9.58207C9.61297 9.58001 9.6203 9.57812 9.62768 9.57639C9.63506 9.57467 9.64247 9.5731 9.64993 9.57171C9.65737 9.57033 9.66486 9.56912 9.67238 9.56807C9.67991 9.56703 9.68746 9.56616 9.69502 9.56546C9.70259 9.56476 9.71016 9.56423 9.71775 9.56388C9.72534 9.56354 9.73295 9.56336 9.74054 9.56336L14.2433 9.56336C14.2509 9.56336 14.2585 9.56354 14.2661 9.56388C14.2737 9.56423 14.2813 9.56476 14.2889 9.56546C14.2964 9.56616 14.304 9.56703 14.3115 9.56807C14.319 9.56912 14.3265 9.57033 14.3339 9.57171C14.3414 9.5731 14.3488 9.57467 14.3562 9.57639C14.3636 9.57812 14.3709 9.58001 14.3782 9.58207C14.3854 9.58415 14.3927 9.58637 14.3998 9.58876C14.407 9.59117 14.4141 9.59372 14.4211 9.59644C14.4281 9.59916 14.4351 9.60205 14.4419 9.6051C14.4488 9.60814 14.4556 9.61134 14.4623 9.61469C14.469 9.61804 14.4756 9.62154 14.4821 9.6252C14.4887 9.62885 14.4951 9.63266 14.5014 9.63661C14.5077 9.64056 14.5139 9.64465 14.52 9.6489C14.5261 9.65313 14.5321 9.6575 14.538 9.66202C14.5439 9.66654 14.5496 9.67118 14.5553 9.67595C14.5609 9.68073 14.5664 9.68563 14.5718 9.69066C14.5772 9.69569 14.5824 9.70084 14.5875 9.7061C14.5926 9.71138 14.5976 9.71677 14.6024 9.72226C14.6072 9.72776 14.6119 9.73336 14.6164 9.73908C14.621 9.74479 14.6253 9.7506 14.6296 9.75653C14.6338 9.76243 14.6378 9.76844 14.6418 9.77455C14.6457 9.78065 14.6494 9.78683 14.653 9.79311C14.6566 9.79937 14.66 9.80572 14.6632 9.81215C14.6665 9.81858 14.6696 9.82508 14.6725 9.83166C14.6754 9.83823 14.6781 9.84486 14.6807 9.85157C14.6832 9.85826 14.6856 9.86502 14.6878 9.87182C14.69 9.87862 14.6921 9.88547 14.6939 9.89237C14.6958 9.89928 14.6974 9.90622 14.6989 9.91318C14.7004 9.92016 14.7017 9.92717 14.7028 9.9342C14.7039 9.94125 14.7048 9.9483 14.7056 9.95537C14.7063 9.96245 14.7069 9.96955 14.7073 9.97666C14.7077 9.98376 14.7078 9.99088 14.7078 9.99798L14.7078 14.211Z" stroke="rgba(204, 78, 29, 1)" stroke-width="0.6"      fill="#CC4E1D" ></path></svg>