<svg xmlns="http://www.w3.org/2000/svg" xmlns:xlink="http://www.w3.org/1999/xlink" width="24" height="24" viewBox="0 0 24 24" fill="none"><rect  x="5.13671875" y="6.13623046875" width="8.863636016845703" height="1.3779983520507812" rx="0.6889991760253906"    fill="#034FA1" ></rect><rect  transform="matrix(-0.9999999403953552, 0, 0, 0.999999463558197, 13.4091796875, 10.301513671875)" x="0" y="0" width="8.863635063171387" height="1.3779983520507812" rx="0.6889991760253906"    fill="#034FA1" ></rect><ellipse cx="8.321466445922852" cy="6.826557159423828" rx="1.1818180084228516" ry="1.1900825500488281" stroke="rgba(3, 79, 161, 1)" stroke-width="1.2"      fill="#FFFFFF" ></ellipse><ellipse transform="matrix(-1.0000001192092896, 0, 0, 0.9999998211860657, 11.40625, 9.8017578125)" cx="1.1818180084228516" cy="1.1900825500488281" rx="1.1818180084228516" ry="1.1900825500488281" stroke="rgba(3, 79, 161, 1)" stroke-width="1.2"      fill="#FFFFFF" ></ellipse><path   fill="rgba(3, 79, 161, 1)"  d="M19.7706 10.1672L19.7706 5.17054L20.5706 5.17054L19.7706 5.17054C19.7706 4.0621 18.872 3.16353 17.7635 3.16353L17.7635 3.16353L5.1703 3.16353L5.1703 2.36353L5.1703 3.16353C4.06185 3.16353 3.16328 4.0621 3.16328 5.17054L3.16328 5.17054L3.16328 18.4801L2.36328 18.4801L3.16328 18.4801C3.16328 19.5886 4.06185 20.4872 5.1703 20.4872L5.1703 21.2872L5.1703 20.4872L11.3451 20.4872L11.3451 22.0872L5.1703 22.0872L5.1703 22.0872C3.1782 22.0872 1.56328 20.4722 1.56328 18.4801L1.56328 18.4801L1.56328 5.17054L2.36328 5.17054L1.56328 5.17054C1.56328 3.17844 3.1782 1.56353 5.1703 1.56353L5.1703 1.56353L17.7635 1.56353L17.7635 2.36353L17.7635 1.56353C19.7556 1.56353 21.3706 3.17844 21.3706 5.17054L21.3706 5.17054L21.3706 10.1672L19.7706 10.1672ZM11.3451 22.0872C10.9033 22.0872 10.5451 21.729 10.5451 21.2872C10.5451 20.8453 10.9033 20.4872 11.3451 20.4872C11.7869 20.4872 12.1451 20.8453 12.1451 21.2872C12.1451 21.729 11.7869 22.0872 11.3451 22.0872ZM20.5706 10.9672C20.1287 10.9672 19.7706 10.609 19.7706 10.1672C19.7706 9.72533 20.1287 9.36716 20.5706 9.36716C21.0124 9.36716 21.3706 9.72533 21.3706 10.1672C21.3706 10.609 21.0124 10.9672 20.5706 10.9672Z"></path><path d="M14.5563 14.9491L14.5563 15.9564C14.5563 15.963 14.5563 15.9716 14.5563 15.9782C14.5563 15.9848 14.5563 15.9898 14.5563 15.9964C14.5563 16.003 14.5599 16.0117 14.5599 16.0182C14.5599 16.0247 14.5635 16.0299 14.5635 16.0364C14.5635 16.0429 14.5672 16.0482 14.5672 16.0546C14.5672 16.061 14.5708 16.0664 14.5708 16.0728C14.5708 16.0791 14.5781 16.0884 14.5781 16.0946C14.5781 16.1008 14.5854 16.1066 14.5854 16.1127C14.5854 16.1188 14.5963 16.125 14.5963 16.1309C14.5963 16.1369 14.6035 16.1433 14.6035 16.1491C14.6035 16.1549 14.6145 16.158 14.6145 16.1637C14.6145 16.1693 14.6216 16.1763 14.6254 16.1818C14.6292 16.1873 14.6322 16.1911 14.6363 16.1964C14.6404 16.2017 14.6465 16.2095 14.6508 16.2146C14.6552 16.2197 14.6571 16.2242 14.6617 16.2291C14.6663 16.234 14.6714 16.239 14.6763 16.2437C14.6811 16.2483 14.6857 16.2501 14.6908 16.2546C14.6959 16.259 14.7037 16.2649 14.709 16.2691C14.7143 16.2733 14.7181 16.2761 14.7235 16.28C14.729 16.2839 14.736 16.2873 14.7417 16.2909C14.7474 16.2946 14.7504 16.3018 14.7563 16.3018C14.7621 16.3018 14.7684 16.3127 14.7745 16.3127C14.7805 16.3127 14.7865 16.3237 14.7926 16.3237C14.7988 16.3237 14.8081 16.3309 14.8145 16.3309C14.8208 16.3309 14.8262 16.3382 14.8326 16.3382C14.8391 16.3382 14.8443 16.3418 14.8508 16.3418C14.8574 16.3418 14.866 16.3491 14.8726 16.3491C14.8793 16.3491 14.8841 16.3527 14.8908 16.3527C14.8975 16.3527 14.9059 16.3564 14.9126 16.3564C14.9194 16.3564 14.924 16.36 14.9308 16.36C14.9376 16.36 14.9458 16.36 14.9526 16.36C14.9595 16.36 14.9676 16.36 14.9745 16.36C14.9813 16.36 14.9858 16.36 14.9926 16.36C14.9995 16.36 15.0076 16.36 15.0145 16.36C15.0213 16.36 15.0259 16.3564 15.0326 16.3564C15.0394 16.3564 15.0477 16.3527 15.0545 16.3527C15.0612 16.3527 15.066 16.3491 15.0726 16.3491C15.0793 16.3491 15.0879 16.3418 15.0945 16.3418C15.101 16.3418 15.1062 16.3382 15.1126 16.3382C15.1191 16.3382 15.1281 16.3309 15.1345 16.3309C15.1408 16.3309 15.1465 16.3237 15.1526 16.3237C15.1588 16.3237 15.1648 16.3127 15.1708 16.3127C15.1769 16.3127 15.1831 16.3018 15.189 16.3018C15.1949 16.3018 15.1979 16.2946 15.2035 16.2909C15.2092 16.2873 15.2162 16.2839 15.2217 16.28C15.2272 16.2761 15.231 16.2733 15.2363 16.2691C15.2416 16.2649 15.2494 16.259 15.2545 16.2546C15.2595 16.2501 15.2642 16.2483 15.269 16.2437C15.2738 16.239 15.279 16.234 15.2835 16.2291C15.2881 16.2242 15.2901 16.2197 15.2945 16.2146C15.2988 16.2095 15.3049 16.2017 15.309 16.1964C15.3131 16.1911 15.3161 16.1873 15.3199 16.1818C15.3237 16.1763 15.3308 16.1693 15.3308 16.1637C15.3308 16.158 15.3417 16.1549 15.3417 16.1491C15.3417 16.1433 15.349 16.1369 15.349 16.1309C15.349 16.125 15.3599 16.1188 15.3599 16.1127C15.3599 16.1066 15.3672 16.1008 15.3672 16.0946C15.3672 16.0884 15.3745 16.0791 15.3745 16.0728C15.3745 16.0664 15.3781 16.061 15.3781 16.0546C15.3781 16.0482 15.3817 16.0429 15.3817 16.0364C15.3817 16.0299 15.3854 16.0247 15.3854 16.0182C15.3854 16.0117 15.389 16.003 15.389 15.9964C15.389 15.9898 15.389 15.9848 15.389 15.9782C15.389 15.9716 15.3926 15.963 15.3926 15.9564L15.3926 14.9491L16.4363 14.9491C16.4431 14.9491 16.4513 14.9491 16.4581 14.9491C16.4649 14.9491 16.4695 14.9455 16.4763 14.9455C16.4831 14.9455 16.4913 14.9455 16.4981 14.9455C16.5049 14.9455 16.5096 14.9418 16.5163 14.9418C16.523 14.9418 16.5315 14.9382 16.5381 14.9382C16.5447 14.9382 16.5497 14.9309 16.5563 14.9309C16.5628 14.9309 16.5716 14.9273 16.5781 14.9273C16.5845 14.9273 16.5899 14.92 16.5963 14.92C16.6026 14.92 16.6083 14.9091 16.6145 14.9091C16.6206 14.9091 16.6266 14.9018 16.6326 14.9018C16.6387 14.9018 16.645 14.8909 16.6508 14.8909C16.6567 14.8909 16.6633 14.8837 16.669 14.88C16.6747 14.8764 16.6817 14.873 16.6872 14.8691C16.6927 14.8652 16.6964 14.8624 16.7017 14.8582C16.707 14.854 16.7112 14.8481 16.7163 14.8437C16.7213 14.8392 16.726 14.8374 16.7308 14.8327C16.7357 14.8281 16.7408 14.8231 16.7454 14.8182C16.75 14.8133 16.7556 14.8051 16.7599 14.8C16.7643 14.7949 16.7667 14.7908 16.7708 14.7855C16.7749 14.7802 16.7816 14.7764 16.7854 14.7709C16.7892 14.7654 16.7963 14.7584 16.7963 14.7527C16.7963 14.7471 16.8035 14.7404 16.8035 14.7346C16.8035 14.7288 16.8145 14.726 16.8145 14.72C16.8145 14.714 16.8217 14.7079 16.8217 14.7018C16.8217 14.6957 16.829 14.6862 16.829 14.68C16.829 14.6738 16.8363 14.6682 16.8363 14.6618C16.8363 14.6555 16.8435 14.6501 16.8435 14.6437C16.8435 14.6373 16.8472 14.632 16.8472 14.6255C16.8472 14.619 16.8508 14.6102 16.8508 14.6037C16.8508 14.5971 16.8508 14.592 16.8508 14.5855C16.8508 14.5789 16.8545 14.5739 16.8545 14.5673C16.8545 14.5607 16.8545 14.5521 16.8545 14.5455C16.8545 14.5389 16.8545 14.5339 16.8545 14.5273C16.8545 14.5207 16.8508 14.512 16.8508 14.5055C16.8508 14.4989 16.8508 14.4938 16.8508 14.4873C16.8508 14.4808 16.8472 14.472 16.8472 14.4655C16.8472 14.459 16.8435 14.4537 16.8435 14.4473C16.8435 14.4409 16.8363 14.4354 16.8363 14.4291C16.8363 14.4228 16.829 14.4171 16.829 14.4109C16.829 14.4047 16.8217 14.3988 16.8217 14.3927C16.8217 14.3866 16.8145 14.3805 16.8145 14.3746C16.8145 14.3686 16.8035 14.3622 16.8035 14.3564C16.8035 14.3506 16.7963 14.3439 16.7963 14.3382C16.7963 14.3325 16.7892 14.3255 16.7854 14.32C16.7816 14.3145 16.7749 14.3108 16.7708 14.3055C16.7667 14.3002 16.7643 14.296 16.7599 14.2909C16.7556 14.2858 16.75 14.2813 16.7454 14.2764C16.7408 14.2715 16.7357 14.2665 16.7308 14.2618C16.726 14.2572 16.7213 14.2517 16.7163 14.2473C16.7112 14.2429 16.707 14.2369 16.7017 14.2327C16.6964 14.2286 16.6927 14.2258 16.6872 14.2218C16.6817 14.2179 16.6747 14.2146 16.669 14.2109C16.6633 14.2073 16.6567 14.2 16.6508 14.2C16.645 14.2 16.6387 14.1891 16.6326 14.1891C16.6266 14.1891 16.6206 14.1818 16.6145 14.1818C16.6083 14.1818 16.6026 14.1746 16.5963 14.1746C16.5899 14.1746 16.5845 14.1673 16.5781 14.1673C16.5716 14.1673 16.5628 14.16 16.5563 14.16C16.5497 14.16 16.5447 14.1564 16.5381 14.1564C16.5315 14.1564 16.523 14.1491 16.5163 14.1491C16.5096 14.1491 16.5049 14.1455 16.4981 14.1455C16.4913 14.1455 16.4831 14.1455 16.4763 14.1455C16.4695 14.1455 16.4649 14.1418 16.4581 14.1418C16.4513 14.1418 16.4431 14.1418 16.4363 14.1418L15.3926 14.1418L15.3926 13.1346C15.3926 13.128 15.389 13.1193 15.389 13.1127C15.389 13.1062 15.389 13.1011 15.389 13.0946C15.389 13.088 15.3854 13.0829 15.3854 13.0764C15.3854 13.0699 15.3817 13.061 15.3817 13.0546C15.3817 13.0481 15.3781 13.0428 15.3781 13.0364C15.3781 13.03 15.3745 13.0245 15.3745 13.0182C15.3745 13.0119 15.3672 13.0062 15.3672 13C15.3672 12.9938 15.3599 12.9843 15.3599 12.9782C15.3599 12.9721 15.349 12.966 15.349 12.96C15.349 12.9541 15.3417 12.9513 15.3417 12.9455C15.3417 12.9397 15.3308 12.933 15.3308 12.9273C15.3308 12.9216 15.3237 12.9146 15.3199 12.9091C15.3161 12.9036 15.3131 12.8999 15.309 12.8946C15.3049 12.8893 15.2988 12.8851 15.2945 12.88C15.2901 12.8749 15.2881 12.8667 15.2835 12.8618C15.279 12.8569 15.2738 12.852 15.269 12.8473C15.2642 12.8426 15.2595 12.8408 15.2545 12.8364C15.2494 12.832 15.2416 12.826 15.2363 12.8218C15.231 12.8177 15.2272 12.8149 15.2217 12.8109C15.2162 12.807 15.2092 12.8037 15.2035 12.8C15.1979 12.7964 15.1949 12.7891 15.189 12.7891C15.1831 12.7891 15.1769 12.7782 15.1708 12.7782C15.1648 12.7782 15.1588 12.7709 15.1526 12.7709C15.1465 12.7709 15.1408 12.76 15.1345 12.76C15.1281 12.76 15.1191 12.7527 15.1126 12.7527C15.1062 12.7527 15.101 12.7491 15.0945 12.7491C15.0879 12.7491 15.0793 12.7418 15.0726 12.7418C15.066 12.7418 15.0612 12.7382 15.0545 12.7382C15.0477 12.7382 15.0394 12.7346 15.0326 12.7346C15.0259 12.7346 15.0213 12.7346 15.0145 12.7346C15.0076 12.7346 14.9995 12.7309 14.9926 12.7309C14.9858 12.7309 14.9813 12.7309 14.9745 12.7309C14.9676 12.7309 14.9595 12.7309 14.9526 12.7309C14.9458 12.7309 14.9376 12.7346 14.9308 12.7346C14.924 12.7346 14.9194 12.7346 14.9126 12.7346C14.9059 12.7346 14.8975 12.7382 14.8908 12.7382C14.8841 12.7382 14.8793 12.7418 14.8726 12.7418C14.866 12.7418 14.8574 12.7491 14.8508 12.7491C14.8443 12.7491 14.8391 12.7527 14.8326 12.7527C14.8262 12.7527 14.8208 12.76 14.8145 12.76C14.8081 12.76 14.7988 12.7709 14.7926 12.7709C14.7865 12.7709 14.7805 12.7782 14.7745 12.7782C14.7684 12.7782 14.7621 12.7891 14.7563 12.7891C14.7504 12.7891 14.7474 12.7964 14.7417 12.8C14.736 12.8037 14.729 12.807 14.7235 12.8109C14.7181 12.8149 14.7143 12.8177 14.709 12.8218C14.7037 12.826 14.6959 12.832 14.6908 12.8364C14.6857 12.8408 14.6811 12.8426 14.6763 12.8473C14.6714 12.852 14.6663 12.8569 14.6617 12.8618C14.6571 12.8667 14.6552 12.8749 14.6508 12.88C14.6465 12.8851 14.6404 12.8893 14.6363 12.8946C14.6322 12.8999 14.6292 12.9036 14.6254 12.9091C14.6216 12.9146 14.6145 12.9216 14.6145 12.9273C14.6145 12.933 14.6035 12.9397 14.6035 12.9455C14.6035 12.9513 14.5963 12.9541 14.5963 12.96C14.5963 12.966 14.5854 12.9721 14.5854 12.9782C14.5854 12.9843 14.5781 12.9938 14.5781 13C14.5781 13.0062 14.5708 13.0119 14.5708 13.0182C14.5708 13.0245 14.5672 13.03 14.5672 13.0364C14.5672 13.0428 14.5635 13.0481 14.5635 13.0546C14.5635 13.061 14.5599 13.0699 14.5599 13.0764C14.5599 13.0829 14.5563 13.088 14.5563 13.0946C14.5563 13.1011 14.5563 13.1062 14.5563 13.1127C14.5563 13.1193 14.5563 13.128 14.5563 13.1346L14.5563 14.1418L13.509 14.1418C13.5022 14.1418 13.494 14.1418 13.4872 14.1418C13.4803 14.1418 13.4758 14.1455 13.469 14.1455C13.4622 14.1455 13.454 14.1455 13.4472 14.1455C13.4404 14.1455 13.4357 14.1491 13.429 14.1491C13.4223 14.1491 13.4138 14.1564 13.4072 14.1564C13.4005 14.1564 13.3956 14.16 13.389 14.16C13.3825 14.16 13.3736 14.1673 13.3672 14.1673C13.3607 14.1673 13.3553 14.1746 13.349 14.1746C13.3427 14.1746 13.337 14.1818 13.3308 14.1818C13.3246 14.1818 13.3187 14.1891 13.3126 14.1891C13.3066 14.1891 13.3003 14.2 13.2945 14.2C13.2886 14.2 13.282 14.2073 13.2763 14.2109C13.2706 14.2146 13.2636 14.2179 13.2581 14.2218C13.2526 14.2258 13.2488 14.2286 13.2435 14.2327C13.2383 14.2369 13.2341 14.2429 13.229 14.2473C13.2239 14.2517 13.2193 14.2572 13.2145 14.2618C13.2096 14.2665 13.2045 14.2715 13.1999 14.2764C13.1953 14.2813 13.1897 14.2858 13.1854 14.2909C13.181 14.296 13.1785 14.3002 13.1745 14.3055C13.1704 14.3108 13.1637 14.3145 13.1599 14.32C13.1561 14.3255 13.149 14.3325 13.149 14.3382C13.149 14.3439 13.1417 14.3506 13.1417 14.3564C13.1417 14.3622 13.1308 14.3686 13.1308 14.3746C13.1308 14.3805 13.1235 14.3866 13.1235 14.3927C13.1235 14.3988 13.1163 14.4047 13.1163 14.4109C13.1163 14.4171 13.109 14.4228 13.109 14.4291C13.109 14.4354 13.1017 14.4409 13.1017 14.4473C13.1017 14.4537 13.0981 14.459 13.0981 14.4655C13.0981 14.472 13.0945 14.4808 13.0945 14.4873C13.0945 14.4938 13.0945 14.4989 13.0945 14.5055C13.0945 14.512 13.0908 14.5207 13.0908 14.5273C13.0908 14.5339 13.0908 14.5389 13.0908 14.5455C13.0908 14.5521 13.0908 14.5607 13.0908 14.5673C13.0908 14.5739 13.0945 14.5789 13.0945 14.5855C13.0945 14.592 13.0945 14.5971 13.0945 14.6037C13.0945 14.6102 13.0981 14.619 13.0981 14.6255C13.0981 14.632 13.1017 14.6373 13.1017 14.6437C13.1017 14.6501 13.109 14.6555 13.109 14.6618C13.109 14.6682 13.1163 14.6738 13.1163 14.68C13.1163 14.6862 13.1235 14.6957 13.1235 14.7018C13.1235 14.7079 13.1308 14.714 13.1308 14.72C13.1308 14.726 13.1417 14.7288 13.1417 14.7346C13.1417 14.7404 13.149 14.7471 13.149 14.7527C13.149 14.7584 13.1561 14.7654 13.1599 14.7709C13.1637 14.7764 13.1704 14.7802 13.1745 14.7855C13.1785 14.7908 13.181 14.7949 13.1854 14.8C13.1897 14.8051 13.1953 14.8133 13.1999 14.8182C13.2045 14.8231 13.2096 14.8281 13.2145 14.8327C13.2193 14.8374 13.2239 14.8392 13.229 14.8437C13.2341 14.8481 13.2383 14.854 13.2435 14.8582C13.2488 14.8624 13.2526 14.8652 13.2581 14.8691C13.2636 14.873 13.2706 14.8764 13.2763 14.88C13.282 14.8837 13.2886 14.8909 13.2945 14.8909C13.3003 14.8909 13.3066 14.9018 13.3126 14.9018C13.3187 14.9018 13.3246 14.9091 13.3308 14.9091C13.337 14.9091 13.3427 14.92 13.349 14.92C13.3553 14.92 13.3607 14.9273 13.3672 14.9273C13.3736 14.9273 13.3825 14.9309 13.389 14.9309C13.3956 14.9309 13.4005 14.9382 13.4072 14.9382C13.4138 14.9382 13.4223 14.9418 13.429 14.9418C13.4357 14.9418 13.4404 14.9455 13.4472 14.9455C13.454 14.9455 13.4622 14.9455 13.469 14.9455C13.4758 14.9455 13.4803 14.9491 13.4872 14.9491C13.494 14.9491 13.5022 14.9491 13.509 14.9491L14.5563 14.9491ZM18.109 17.1709C18.1022 17.1709 18.094 17.1709 18.0872 17.1709C18.0804 17.1709 18.0758 17.1746 18.069 17.1746C18.0622 17.1746 18.054 17.1746 18.0472 17.1746C18.0404 17.1746 18.0357 17.1782 18.029 17.1782C18.0223 17.1782 18.0138 17.1818 18.0072 17.1818C18.0005 17.1818 17.9955 17.1891 17.989 17.1891C17.9825 17.1891 17.9736 17.1964 17.9672 17.1964C17.9607 17.1964 17.9553 17.2037 17.949 17.2037C17.9427 17.2037 17.937 17.2109 17.9308 17.2109C17.9246 17.2109 17.9187 17.2182 17.9126 17.2182C17.9066 17.2182 17.9003 17.2291 17.8945 17.2291C17.8886 17.2291 17.882 17.2364 17.8763 17.24C17.8706 17.2437 17.8672 17.247 17.8617 17.2509C17.8562 17.2549 17.8488 17.2577 17.8435 17.2618C17.8383 17.266 17.8341 17.2719 17.829 17.2764C17.8239 17.2808 17.8193 17.2863 17.8145 17.2909C17.8096 17.2956 17.8045 17.3006 17.7999 17.3055C17.7953 17.3104 17.7897 17.3149 17.7854 17.32C17.781 17.3251 17.7785 17.3293 17.7745 17.3346C17.7704 17.3399 17.7673 17.3436 17.7635 17.3491C17.7598 17.3546 17.7526 17.3616 17.7526 17.3673C17.7526 17.373 17.7417 17.3797 17.7417 17.3855C17.7417 17.3913 17.7308 17.3977 17.7308 17.4037C17.7308 17.4096 17.7235 17.4157 17.7235 17.4218C17.7235 17.4279 17.7163 17.4338 17.7163 17.44C17.7163 17.4462 17.709 17.4519 17.709 17.4582C17.709 17.4645 17.7054 17.47 17.7054 17.4764C17.7054 17.4828 17.6981 17.4881 17.6981 17.4946C17.6981 17.501 17.6945 17.5099 17.6945 17.5164C17.6945 17.5229 17.6945 17.528 17.6945 17.5346C17.6945 17.5411 17.6908 17.5498 17.6908 17.5564C17.6908 17.563 17.6908 17.568 17.6908 17.5746C17.6908 17.5812 17.6908 17.5862 17.6908 17.5927C17.6908 17.5993 17.6945 17.608 17.6945 17.6146C17.6945 17.6211 17.6945 17.6262 17.6945 17.6327C17.6945 17.6393 17.6981 17.6481 17.6981 17.6546C17.6981 17.661 17.7054 17.6664 17.7054 17.6727C17.7054 17.6791 17.709 17.6846 17.709 17.6909C17.709 17.6972 17.7163 17.7029 17.7163 17.7091C17.7163 17.7153 17.7235 17.7212 17.7235 17.7273C17.7235 17.7334 17.7308 17.7395 17.7308 17.7455C17.7308 17.7514 17.7417 17.7578 17.7417 17.7637C17.7417 17.7695 17.7526 17.7762 17.7526 17.7818C17.7526 17.7875 17.7598 17.7945 17.7635 17.8C17.7673 17.8055 17.7704 17.8093 17.7745 17.8146C17.7785 17.8199 17.781 17.824 17.7854 17.8291C17.7897 17.8342 17.7953 17.8388 17.7999 17.8437C17.8045 17.8486 17.8096 17.8535 17.8145 17.8582C17.8193 17.8629 17.8239 17.8683 17.829 17.8727C17.8341 17.8772 17.8383 17.8831 17.8435 17.8873C17.8488 17.8915 17.8562 17.8943 17.8617 17.8982C17.8672 17.9021 17.8706 17.9054 17.8763 17.9091C17.882 17.9128 17.8886 17.92 17.8945 17.92C17.9003 17.92 17.9066 17.9309 17.9126 17.9309C17.9187 17.9309 17.9246 17.9382 17.9308 17.9382C17.937 17.9382 17.9427 17.9455 17.949 17.9455C17.9553 17.9455 17.9607 17.9527 17.9672 17.9527C17.9736 17.9527 17.9825 17.96 17.989 17.96C17.9955 17.96 18.0005 17.9673 18.0072 17.9673C18.0138 17.9673 18.0223 17.9709 18.029 17.9709C18.0357 17.9709 18.0404 17.9746 18.0472 17.9746C18.054 17.9746 18.0622 17.9746 18.069 17.9746C18.0758 17.9746 18.0804 17.9782 18.0872 17.9782C18.094 17.9782 18.1022 17.9782 18.109 17.9782L21.0363 17.9782C21.0431 17.9782 21.0512 17.9782 21.0581 17.9782C21.0649 17.9782 21.0695 17.9746 21.0763 17.9746C21.0831 17.9746 21.0913 17.9746 21.0981 17.9746C21.1049 17.9746 21.1132 17.9709 21.1199 17.9709C21.1266 17.9709 21.1315 17.9673 21.1381 17.9673C21.1447 17.9673 21.1497 17.96 21.1563 17.96C21.1628 17.96 21.1717 17.9527 21.1781 17.9527C21.1845 17.9527 21.1899 17.9455 21.1963 17.9455C21.2025 17.9455 21.2083 17.9382 21.2145 17.9382C21.2206 17.9382 21.2266 17.9309 21.2326 17.9309C21.2387 17.9309 21.245 17.92 21.2508 17.92C21.2567 17.92 21.2633 17.9128 21.269 17.9091C21.2747 17.9054 21.2817 17.9021 21.2872 17.8982C21.2927 17.8943 21.2964 17.8915 21.3017 17.8873C21.307 17.8831 21.3112 17.8772 21.3163 17.8727C21.3214 17.8683 21.326 17.8629 21.3308 17.8582C21.3357 17.8535 21.3408 17.8486 21.3454 17.8437C21.35 17.8388 21.3556 17.8342 21.3599 17.8291C21.3643 17.824 21.3668 17.8199 21.3708 17.8146C21.3749 17.8093 21.3815 17.8055 21.3854 17.8C21.3891 17.7945 21.3963 17.7875 21.3963 17.7818C21.3963 17.7762 21.4035 17.7695 21.4035 17.7637C21.4035 17.7578 21.4145 17.7514 21.4145 17.7455C21.4145 17.7395 21.4217 17.7334 21.4217 17.7273C21.4217 17.7212 21.429 17.7153 21.429 17.7091C21.429 17.7029 21.4363 17.6972 21.4363 17.6909C21.4363 17.6846 21.4435 17.6791 21.4435 17.6727C21.4435 17.6664 21.4472 17.661 21.4472 17.6546C21.4472 17.6481 21.4508 17.6393 21.4508 17.6327C21.4508 17.6262 21.4508 17.6211 21.4508 17.6146C21.4508 17.608 21.4545 17.5993 21.4545 17.5927C21.4545 17.5862 21.4545 17.5812 21.4545 17.5746C21.4545 17.568 21.4545 17.563 21.4545 17.5564C21.4545 17.5498 21.4508 17.5411 21.4508 17.5346C21.4508 17.528 21.4508 17.5229 21.4508 17.5164C21.4508 17.5099 21.4472 17.501 21.4472 17.4946C21.4472 17.4881 21.4435 17.4828 21.4435 17.4764C21.4435 17.47 21.4363 17.4645 21.4363 17.4582C21.4363 17.4519 21.429 17.4462 21.429 17.44C21.429 17.4338 21.4217 17.4279 21.4217 17.4218C21.4217 17.4157 21.4145 17.4096 21.4145 17.4037C21.4145 17.3977 21.4035 17.3913 21.4035 17.3855C21.4035 17.3797 21.3963 17.373 21.3963 17.3673C21.3963 17.3616 21.3891 17.3546 21.3854 17.3491C21.3815 17.3436 21.3749 17.3399 21.3708 17.3346C21.3668 17.3293 21.3643 17.3251 21.3599 17.32C21.3556 17.3149 21.35 17.3104 21.3454 17.3055C21.3408 17.3006 21.3357 17.2956 21.3308 17.2909C21.326 17.2863 21.3214 17.2808 21.3163 17.2764C21.3112 17.2719 21.307 17.266 21.3017 17.2618C21.2964 17.2577 21.2927 17.2549 21.2872 17.2509C21.2817 17.247 21.2747 17.2437 21.269 17.24C21.2633 17.2364 21.2567 17.2291 21.2508 17.2291C21.245 17.2291 21.2387 17.2182 21.2326 17.2182C21.2266 17.2182 21.2206 17.2109 21.2145 17.2109C21.2083 17.2109 21.2025 17.2037 21.1963 17.2037C21.1899 17.2037 21.1845 17.1964 21.1781 17.1964C21.1717 17.1964 21.1628 17.1891 21.1563 17.1891C21.1497 17.1891 21.1447 17.1818 21.1381 17.1818C21.1315 17.1818 21.1266 17.1782 21.1199 17.1782C21.1132 17.1782 21.1049 17.1746 21.0981 17.1746C21.0913 17.1746 21.0831 17.1746 21.0763 17.1746C21.0695 17.1746 21.0649 17.1709 21.0581 17.1709C21.0512 17.1709 21.0431 17.1709 21.0363 17.1709L18.109 17.1709ZM20.9126 12.8473C20.908 12.8425 20.903 12.8409 20.8981 12.8364C20.8932 12.8318 20.8851 12.8261 20.8799 12.8218C20.8748 12.8175 20.8707 12.8113 20.8654 12.8073C20.86 12.8033 20.8564 12.8001 20.8508 12.7964C20.8452 12.7926 20.8385 12.7855 20.8326 12.7855C20.8268 12.7855 20.8204 12.7746 20.8145 12.7746C20.8085 12.7746 20.8024 12.7673 20.7963 12.7673C20.7902 12.7673 20.7844 12.76 20.7781 12.76C20.7718 12.76 20.7663 12.7527 20.7599 12.7527C20.7535 12.7527 20.7446 12.7455 20.7381 12.7455C20.7316 12.7455 20.7265 12.7382 20.7199 12.7382C20.7134 12.7382 20.7266 12.7273 20.7199 12.7273C20.7132 12.7273 20.6866 12.7309 20.6799 12.7309C20.6731 12.7309 20.6649 12.7309 20.6581 12.7309C20.6513 12.7309 20.6468 12.7273 20.6399 12.7273C20.6331 12.7273 20.6249 12.7273 20.6181 12.7273C20.6112 12.7273 20.6031 12.7273 20.5963 12.7273C20.5894 12.7273 20.5849 12.7309 20.5781 12.7309C20.5713 12.7309 20.563 12.7309 20.5563 12.7309C20.5496 12.7309 20.5448 12.7346 20.5381 12.7346C20.5314 12.7346 20.5229 12.7382 20.5163 12.7382C20.5097 12.7382 20.5046 12.7455 20.4981 12.7455C20.4915 12.7455 20.4863 12.7527 20.4799 12.7527C20.4735 12.7527 20.4644 12.76 20.4581 12.76C20.4518 12.76 20.446 12.7673 20.4399 12.7673C20.4338 12.7673 20.4277 12.7746 20.4217 12.7746C20.4158 12.7746 20.4093 12.7855 20.4035 12.7855C20.3978 12.7855 20.3946 12.7926 20.389 12.7964C20.3834 12.8001 20.3762 12.8033 20.3708 12.8073C20.3654 12.8113 20.3615 12.8175 20.3563 12.8218C20.3511 12.8261 20.3467 12.8318 20.3417 12.8364C20.3368 12.8409 20.3319 12.8425 20.3272 12.8473L13.6363 19.3127C13.6313 19.3173 13.6264 19.3225 13.6217 19.3273C13.617 19.3321 13.6116 19.3368 13.6072 19.3418C13.6027 19.3468 13.5968 19.3512 13.5926 19.3564C13.5885 19.3616 13.5856 19.3691 13.5817 19.3746C13.5778 19.38 13.5708 19.3835 13.5708 19.3891C13.5708 19.3947 13.5599 19.4015 13.5599 19.4073C13.5599 19.4131 13.549 19.4196 13.549 19.4255C13.549 19.4314 13.5417 19.434 13.5417 19.44C13.5417 19.4461 13.5345 19.4557 13.5345 19.4618C13.5345 19.468 13.5272 19.4737 13.5272 19.48C13.5272 19.4863 13.5235 19.4918 13.5235 19.4982C13.5235 19.5046 13.5163 19.5099 13.5163 19.5164C13.5163 19.5228 13.5126 19.5317 13.5126 19.5382C13.5126 19.5447 13.5126 19.5498 13.5126 19.5564C13.5126 19.5629 13.509 19.568 13.509 19.5746C13.509 19.5812 13.509 19.5898 13.509 19.5964C13.509 19.603 13.509 19.608 13.509 19.6146C13.509 19.6212 13.5126 19.6298 13.5126 19.6364C13.5126 19.6429 13.5126 19.6481 13.5126 19.6546C13.5126 19.6611 13.5163 19.6663 13.5163 19.6727C13.5163 19.6792 13.5235 19.6882 13.5235 19.6946C13.5235 19.701 13.5272 19.7065 13.5272 19.7127C13.5272 19.719 13.5345 19.7247 13.5345 19.7309C13.5345 19.7371 13.5417 19.7431 13.5417 19.7491C13.5417 19.7552 13.549 19.7614 13.549 19.7673C13.549 19.7732 13.5599 19.7797 13.5599 19.7855C13.5599 19.7912 13.5708 19.7981 13.5708 19.8037C13.5708 19.8093 13.5778 19.8128 13.5817 19.8182C13.5856 19.8236 13.5885 19.8311 13.5926 19.8364C13.5968 19.8416 13.6027 19.8459 13.6072 19.8509C13.6116 19.8559 13.617 19.8606 13.6217 19.8655C13.6264 19.8702 13.6313 19.8755 13.6363 19.88C13.641 19.8848 13.6422 19.8864 13.6472 19.8909C13.6521 19.8955 13.6602 19.9011 13.6654 19.9055C13.6705 19.9097 13.6745 19.916 13.6799 19.92C13.6853 19.924 13.6925 19.9272 13.6981 19.9309C13.7037 19.9347 13.7068 19.9418 13.7126 19.9418C13.7184 19.9418 13.7249 19.9527 13.7308 19.9527C13.7368 19.9527 13.7429 19.96 13.749 19.96C13.7551 19.96 13.7609 19.9673 13.7672 19.9673C13.7735 19.9673 13.779 19.9746 13.7854 19.9746C13.7918 19.9746 13.8007 19.9818 13.8072 19.9818C13.8137 19.9818 13.8188 19.9891 13.8254 19.9891C13.832 19.9891 13.8405 19.9927 13.8472 19.9927C13.8539 19.9927 13.8586 19.9964 13.8654 19.9964C13.8721 19.9964 13.8804 19.9964 13.8872 19.9964C13.894 19.9964 13.8986 20 13.9054 20C13.9122 20 13.9204 20 13.9272 20C13.934 20 13.9422 20 13.949 20C13.9558 20 13.9604 19.9964 13.9672 19.9964C13.974 19.9964 13.9823 19.9964 13.989 19.9964C13.9957 19.9964 14.0005 19.9927 14.0072 19.9927C14.0139 19.9927 14.0224 19.9891 14.029 19.9891C14.0356 19.9891 14.0407 19.9818 14.0472 19.9818C14.0537 19.9818 14.0626 19.9746 14.069 19.9746C14.0754 19.9746 14.0809 19.9673 14.0872 19.9673C14.0935 19.9673 14.0992 19.96 14.1054 19.96C14.1115 19.96 14.1176 19.9527 14.1235 19.9527C14.1295 19.9527 14.1359 19.9418 14.1417 19.9418C14.1475 19.9418 14.1507 19.9347 14.1563 19.9309C14.1619 19.9272 14.1691 19.924 14.1745 19.92C14.1798 19.916 14.1838 19.9097 14.189 19.9055C14.1942 19.9011 14.2022 19.8955 14.2072 19.8909C14.2121 19.8864 14.217 19.8848 14.2217 19.88L20.9126 13.4146C20.9176 13.41 20.9225 13.4048 20.9272 13.4C20.9319 13.3952 20.9336 13.3905 20.9381 13.3855C20.9426 13.3805 20.9484 13.3762 20.9526 13.3709C20.9568 13.3657 20.9596 13.3582 20.9635 13.3527C20.9674 13.3473 20.9745 13.3438 20.9745 13.3382C20.9745 13.3326 20.9854 13.3258 20.9854 13.32C20.9854 13.3142 20.9963 13.3078 20.9963 13.3018C20.9963 13.2959 21.0035 13.2897 21.0035 13.2837C21.0035 13.2776 21.0108 13.2717 21.0108 13.2655C21.0108 13.2593 21.0181 13.2536 21.0181 13.2473C21.0181 13.241 21.0254 13.2355 21.0254 13.2291C21.0254 13.2227 21.029 13.2174 21.029 13.2109C21.029 13.2045 21.0326 13.1956 21.0326 13.1891C21.0326 13.1826 21.0363 13.1775 21.0363 13.1709C21.0363 13.1644 21.0363 13.1593 21.0363 13.1527C21.0363 13.1462 21.0363 13.1375 21.0363 13.1309C21.0363 13.1243 21.0363 13.1193 21.0363 13.1127C21.0363 13.1062 21.0363 13.0975 21.0363 13.0909C21.0363 13.0844 21.0326 13.0793 21.0326 13.0727C21.0326 13.0662 21.029 13.0574 21.029 13.0509C21.029 13.0445 21.0254 13.0391 21.0254 13.0327C21.0254 13.0264 21.0181 13.0209 21.0181 13.0146C21.0181 13.0083 21.0108 13.0026 21.0108 12.9964C21.0108 12.9902 21.0035 12.9843 21.0035 12.9782C21.0035 12.9721 20.9963 12.966 20.9963 12.96C20.9963 12.9541 20.9854 12.9476 20.9854 12.9418C20.9854 12.9361 20.9745 12.9293 20.9745 12.9237C20.9745 12.9181 20.9674 12.9145 20.9635 12.9091C20.9596 12.9037 20.9568 12.8962 20.9526 12.8909C20.9484 12.8857 20.9426 12.8814 20.9381 12.8764C20.9336 12.8714 20.9319 12.8666 20.9272 12.8618C20.9225 12.8571 20.9176 12.8518 20.9126 12.8473ZM21.0363 18.7891L18.109 18.7891C18.1022 18.7891 18.094 18.7891 18.0872 18.7891C18.0804 18.7891 18.0758 18.7891 18.069 18.7891C18.0622 18.7891 18.054 18.7927 18.0472 18.7927C18.0404 18.7927 18.0357 18.7964 18.029 18.7964C18.0223 18.7964 18.0138 18.8 18.0072 18.8C18.0005 18.8 17.9955 18.8037 17.989 18.8037C17.9825 18.8037 17.9736 18.8109 17.9672 18.8109C17.9607 18.8109 17.9553 18.8182 17.949 18.8182C17.9427 18.8182 17.937 18.8255 17.9308 18.8255C17.9246 18.8255 17.9187 18.8364 17.9126 18.8364C17.9066 18.8364 17.9003 18.8437 17.8945 18.8437C17.8886 18.8437 17.882 18.8509 17.8763 18.8546C17.8706 18.8582 17.8672 18.8652 17.8617 18.8691C17.8562 18.873 17.8488 18.8758 17.8435 18.88C17.8383 18.8842 17.8341 18.8865 17.829 18.8909C17.8239 18.8954 17.8193 18.9008 17.8145 18.9055C17.8096 18.9101 17.8045 18.9151 17.7999 18.92C17.7953 18.9249 17.7897 18.9295 17.7854 18.9346C17.781 18.9397 17.7785 18.9474 17.7745 18.9527C17.7704 18.958 17.7673 18.9618 17.7635 18.9673C17.7598 18.9728 17.7526 18.9798 17.7526 18.9855C17.7526 18.9911 17.7417 18.9942 17.7417 19C17.7417 19.0058 17.7308 19.0122 17.7308 19.0182C17.7308 19.0242 17.7235 19.0303 17.7235 19.0364C17.7235 19.0425 17.7163 19.0484 17.7163 19.0546C17.7163 19.0608 17.709 19.0664 17.709 19.0728C17.709 19.0791 17.7054 19.0882 17.7054 19.0946C17.7054 19.101 17.6981 19.1063 17.6981 19.1127C17.6981 19.1192 17.6945 19.1244 17.6945 19.1309C17.6945 19.1375 17.6945 19.1462 17.6945 19.1527C17.6945 19.1593 17.6908 19.1643 17.6908 19.1709C17.6908 19.1775 17.6908 19.1862 17.6908 19.1927C17.6908 19.1993 17.6908 19.2043 17.6908 19.2109C17.6908 19.2175 17.6945 19.2225 17.6945 19.2291C17.6945 19.2357 17.6945 19.2444 17.6945 19.2509C17.6945 19.2575 17.6981 19.2626 17.6981 19.2691C17.6981 19.2756 17.7054 19.2809 17.7054 19.2873C17.7054 19.2937 17.709 19.3028 17.709 19.3091C17.709 19.3154 17.7163 19.3211 17.7163 19.3273C17.7163 19.3335 17.7235 19.3394 17.7235 19.3455C17.7235 19.3516 17.7308 19.3577 17.7308 19.3637C17.7308 19.3696 17.7417 19.376 17.7417 19.3818C17.7417 19.3877 17.7526 19.3944 17.7526 19.4C17.7526 19.4057 17.7598 19.4091 17.7635 19.4146C17.7673 19.42 17.7704 19.4274 17.7745 19.4327C17.7785 19.438 17.781 19.4422 17.7854 19.4473C17.7897 19.4524 17.7953 19.4569 17.7999 19.4618C17.8045 19.4667 17.8096 19.4717 17.8145 19.4764C17.8193 19.4811 17.8239 19.4865 17.829 19.4909C17.8341 19.4954 17.8383 19.4977 17.8435 19.5018C17.8488 19.506 17.8562 19.5125 17.8617 19.5164C17.8672 19.5203 17.8706 19.5236 17.8763 19.5273C17.882 19.531 17.8886 19.5382 17.8945 19.5382C17.9003 19.5382 17.9066 19.5455 17.9126 19.5455C17.9187 19.5455 17.9246 19.5564 17.9308 19.5564C17.937 19.5564 17.9427 19.5637 17.949 19.5637C17.9553 19.5637 17.9607 19.5709 17.9672 19.5709C17.9736 19.5709 17.9825 19.5782 17.989 19.5782C17.9955 19.5782 18.0005 19.5818 18.0072 19.5818C18.0138 19.5818 18.0223 19.5855 18.029 19.5855C18.0357 19.5855 18.0404 19.5891 18.0472 19.5891C18.054 19.5891 18.0622 19.5927 18.069 19.5927C18.0758 19.5927 18.0804 19.5927 18.0872 19.5927C18.094 19.5927 18.1022 19.5927 18.109 19.5927L21.0363 19.5927C21.0431 19.5927 21.0512 19.5927 21.0581 19.5927C21.0649 19.5927 21.0695 19.5927 21.0763 19.5927C21.0831 19.5927 21.0913 19.5891 21.0981 19.5891C21.1049 19.5891 21.1132 19.5855 21.1199 19.5855C21.1266 19.5855 21.1315 19.5818 21.1381 19.5818C21.1447 19.5818 21.1497 19.5782 21.1563 19.5782C21.1628 19.5782 21.1717 19.5709 21.1781 19.5709C21.1845 19.5709 21.1899 19.5637 21.1963 19.5637C21.2025 19.5637 21.2083 19.5564 21.2145 19.5564C21.2206 19.5564 21.2266 19.5455 21.2326 19.5455C21.2387 19.5455 21.245 19.5382 21.2508 19.5382C21.2567 19.5382 21.2633 19.531 21.269 19.5273C21.2747 19.5236 21.2817 19.5203 21.2872 19.5164C21.2927 19.5125 21.2964 19.506 21.3017 19.5018C21.307 19.4977 21.3112 19.4954 21.3163 19.4909C21.3214 19.4865 21.326 19.4811 21.3308 19.4764C21.3357 19.4717 21.3408 19.4667 21.3454 19.4618C21.35 19.4569 21.3556 19.4524 21.3599 19.4473C21.3643 19.4422 21.3668 19.438 21.3708 19.4327C21.3749 19.4274 21.3815 19.42 21.3854 19.4146C21.3891 19.4091 21.3963 19.4057 21.3963 19.4C21.3963 19.3944 21.4035 19.3877 21.4035 19.3818C21.4035 19.376 21.4145 19.3696 21.4145 19.3637C21.4145 19.3577 21.4217 19.3516 21.4217 19.3455C21.4217 19.3394 21.429 19.3335 21.429 19.3273C21.429 19.3211 21.4363 19.3154 21.4363 19.3091C21.4363 19.3028 21.4435 19.2937 21.4435 19.2873C21.4435 19.2809 21.4472 19.2756 21.4472 19.2691C21.4472 19.2626 21.4508 19.2575 21.4508 19.2509C21.4508 19.2444 21.4508 19.2357 21.4508 19.2291C21.4508 19.2225 21.4545 19.2175 21.4545 19.2109C21.4545 19.2043 21.4545 19.1993 21.4545 19.1927C21.4545 19.1862 21.4545 19.1775 21.4545 19.1709C21.4545 19.1643 21.4508 19.1593 21.4508 19.1527C21.4508 19.1462 21.4508 19.1375 21.4508 19.1309C21.4508 19.1244 21.4472 19.1192 21.4472 19.1127C21.4472 19.1063 21.4435 19.101 21.4435 19.0946C21.4435 19.0882 21.4363 19.0791 21.4363 19.0728C21.4363 19.0664 21.429 19.0608 21.429 19.0546C21.429 19.0484 21.4217 19.0425 21.4217 19.0364C21.4217 19.0303 21.4145 19.0242 21.4145 19.0182C21.4145 19.0122 21.4035 19.0058 21.4035 19C21.4035 18.9942 21.3963 18.9911 21.3963 18.9855C21.3963 18.9798 21.3891 18.9728 21.3854 18.9673C21.3815 18.9618 21.3749 18.958 21.3708 18.9527C21.3668 18.9474 21.3643 18.9397 21.3599 18.9346C21.3556 18.9295 21.35 18.9249 21.3454 18.92C21.3408 18.9151 21.3357 18.9101 21.3308 18.9055C21.326 18.9008 21.3214 18.8954 21.3163 18.8909C21.3112 18.8865 21.307 18.8842 21.3017 18.88C21.2964 18.8758 21.2927 18.873 21.2872 18.8691C21.2817 18.8652 21.2747 18.8582 21.269 18.8546C21.2633 18.8509 21.2567 18.8437 21.2508 18.8437C21.245 18.8437 21.2387 18.8364 21.2326 18.8364C21.2266 18.8364 21.2206 18.8255 21.2145 18.8255C21.2083 18.8255 21.2025 18.8182 21.1963 18.8182C21.1899 18.8182 21.1845 18.8109 21.1781 18.8109C21.1717 18.8109 21.1628 18.8037 21.1563 18.8037C21.1497 18.8037 21.1447 18.8 21.1381 18.8C21.1315 18.8 21.1266 18.7964 21.1199 18.7964C21.1132 18.7964 21.1049 18.7927 21.0981 18.7927C21.0913 18.7927 21.0831 18.7891 21.0763 18.7891C21.0695 18.7891 21.0649 18.7891 21.0581 18.7891C21.0512 18.7891 21.0431 18.7891 21.0363 18.7891Z" stroke="rgba(204, 78, 29, 1)" stroke-width="0.6"      fill="#CC4E1D" ></path></svg>