<svg xmlns="http://www.w3.org/2000/svg" xmlns:xlink="http://www.w3.org/1999/xlink" width="24" height="24" viewBox="0 0 24 24" fill="none"><path d="M16.9568 12.493C17.0349 12.493 17.1144 12.495 17.1924 12.4989C17.2705 12.5027 17.3474 12.5087 17.4251 12.5163C17.5029 12.524 17.5806 12.5339 17.6578 12.5454C17.7351 12.5569 17.8139 12.5709 17.8905 12.5861C17.9672 12.6014 18.0417 12.6166 18.1174 12.6356C18.1932 12.6546 18.2695 12.6769 18.3443 12.6996C18.419 12.7222 18.4918 12.746 18.5654 12.7723C18.6389 12.7986 18.7114 12.8268 18.7835 12.8567C18.8557 12.8865 18.9282 12.9192 18.9988 12.9526C19.0694 12.986 19.1393 13.0205 19.2082 13.0574C19.2771 13.0942 19.3448 13.1307 19.4118 13.1708C19.4788 13.211 19.5447 13.2554 19.6096 13.2988C19.6746 13.3422 19.7388 13.3861 19.8016 13.4326C19.8643 13.4792 19.9274 13.5256 19.9877 13.5751C20.0481 13.6247 20.1073 13.6768 20.1652 13.7293C20.2231 13.7818 20.2786 13.837 20.3339 13.8922C20.3891 13.9475 20.4414 14.003 20.4939 14.0609C20.5463 14.1188 20.5985 14.178 20.648 14.2384C20.6976 14.2988 20.7469 14.3589 20.7935 14.4216C20.84 14.4844 20.8839 14.5486 20.9273 14.6136C20.9707 14.6786 21.0122 14.7444 21.0523 14.8114C21.0925 14.8784 21.1319 14.9462 21.1687 15.015C21.2055 15.0839 21.24 15.1539 21.2734 15.2245C21.3068 15.2951 21.3395 15.3676 21.3694 15.4397C21.3993 15.5119 21.4274 15.5843 21.4538 15.6579C21.4801 15.7315 21.5038 15.8071 21.5265 15.8819C21.5492 15.9567 21.5686 16.0301 21.5876 16.1059C21.6065 16.1817 21.6247 16.259 21.6399 16.3357C21.6552 16.4123 21.6692 16.4882 21.6806 16.5655C21.6921 16.6427 21.7021 16.7204 21.7097 16.7982C21.7174 16.8759 21.7233 16.9529 21.7272 17.0309C21.731 17.1089 21.7301 17.1884 21.7301 17.2665C21.7301 17.3446 21.731 17.4241 21.7272 17.5021C21.7233 17.5802 21.7174 17.6571 21.7097 17.7348C21.7021 17.8126 21.6921 17.8903 21.6806 17.9676C21.6692 18.0449 21.6552 18.1208 21.6399 18.1974C21.6247 18.274 21.6065 18.3514 21.5876 18.4272C21.5686 18.5029 21.5492 18.5764 21.5265 18.6511C21.5038 18.7259 21.4801 18.8016 21.4538 18.8751C21.4274 18.9487 21.3993 19.0211 21.3694 19.0933C21.3395 19.1655 21.3068 19.2379 21.2734 19.3086C21.24 19.3792 21.2055 19.4491 21.1687 19.518C21.1319 19.5869 21.0925 19.6546 21.0523 19.7216C21.0122 19.7886 20.9707 19.8545 20.9273 19.9194C20.8839 19.9844 20.84 20.0487 20.7935 20.1114C20.747 20.1742 20.6976 20.2343 20.648 20.2947C20.5985 20.3551 20.5463 20.4142 20.4939 20.4721C20.4414 20.53 20.3891 20.5856 20.3339 20.6408C20.2786 20.6961 20.2231 20.7513 20.1652 20.8037C20.1073 20.8562 20.0481 20.9083 19.9877 20.9579C19.9274 21.0075 19.8643 21.0539 19.8016 21.1004C19.7388 21.147 19.6746 21.1909 19.6096 21.2342C19.5447 21.2776 19.4788 21.3221 19.4118 21.3622C19.3448 21.4024 19.2771 21.4388 19.2082 21.4757C19.1393 21.5125 19.0694 21.547 18.9988 21.5804C18.9282 21.6138 18.8557 21.6465 18.7835 21.6764C18.7114 21.7063 18.6389 21.7344 18.5654 21.7607C18.4918 21.7871 18.419 21.8108 18.3443 21.8335C18.2695 21.8561 18.1932 21.8785 18.1174 21.8975C18.0416 21.9164 17.9672 21.9317 17.8905 21.9469C17.8139 21.9622 17.7351 21.9762 17.6578 21.9876C17.5806 21.9991 17.5029 22.0091 17.4251 22.0167C17.3474 22.0244 17.2705 22.0303 17.1924 22.0342C17.1144 22.038 17.0349 22.04 16.9568 22.04C16.8787 22.04 16.8022 22.038 16.7241 22.0342C16.6461 22.0303 16.5692 22.0244 16.4914 22.0167C16.4137 22.0091 16.336 21.9991 16.2587 21.9876C16.1815 21.9762 16.1026 21.9622 16.026 21.9469C15.9494 21.9317 15.8749 21.9164 15.7992 21.8975C15.7234 21.8785 15.647 21.8561 15.5723 21.8335C15.4975 21.8108 15.4248 21.7871 15.3512 21.7607C15.2777 21.7344 15.2052 21.7063 15.1331 21.6764C15.0609 21.6465 14.9884 21.6138 14.9178 21.5804C14.8472 21.547 14.7773 21.5125 14.7084 21.4757C14.6395 21.4388 14.5718 21.4024 14.5048 21.3622C14.4378 21.3221 14.3719 21.2776 14.307 21.2342C14.242 21.1909 14.1777 21.147 14.115 21.1004C14.0523 21.0539 13.9892 21.0075 13.9288 20.9579C13.8685 20.9083 13.8093 20.8562 13.7514 20.8037C13.6935 20.7513 13.6379 20.6961 13.5827 20.6408C13.5275 20.5856 13.4752 20.53 13.4227 20.4721C13.3702 20.4142 13.3181 20.3551 13.2686 20.2947C13.219 20.2343 13.1697 20.1742 13.1231 20.1114C13.0766 20.0487 13.0327 19.9844 12.9893 19.9194C12.9459 19.8545 12.9044 19.7886 12.8642 19.7216C12.8241 19.6546 12.7847 19.5869 12.7479 19.518C12.7111 19.4491 12.6766 19.3792 12.6432 19.3086C12.6098 19.2379 12.5771 19.1655 12.5472 19.0933C12.5173 19.0211 12.4891 18.9487 12.4628 18.8751C12.4365 18.8016 12.4128 18.7259 12.3901 18.6511C12.3674 18.5764 12.348 18.5029 12.329 18.4272C12.3101 18.3514 12.2919 18.274 12.2767 18.1974C12.2614 18.1208 12.2474 18.0449 12.236 17.9676C12.2245 17.8903 12.2145 17.8126 12.2069 17.7348C12.1992 17.6571 12.1933 17.5802 12.1894 17.5021C12.1856 17.4241 12.1836 17.3446 12.1836 17.2665C12.1836 17.1884 12.1856 17.1089 12.1894 17.0309C12.1933 16.9529 12.1992 16.8759 12.2069 16.7982C12.2145 16.7204 12.2245 16.6427 12.236 16.5655C12.2474 16.4882 12.2614 16.4123 12.2767 16.3357C12.2919 16.259 12.3101 16.1816 12.329 16.1059C12.348 16.0301 12.3674 15.9567 12.3901 15.8819C12.4128 15.8071 12.4365 15.7315 12.4628 15.6579C12.4891 15.5843 12.5173 15.5119 12.5472 15.4397C12.5771 15.3676 12.6098 15.2951 12.6432 15.2245C12.6766 15.1539 12.7111 15.0839 12.7479 15.015C12.7847 14.9462 12.8241 14.8784 12.8642 14.8114C12.9044 14.7444 12.9459 14.6786 12.9893 14.6136C13.0327 14.5486 13.0766 14.4844 13.1231 14.4216C13.1697 14.3589 13.219 14.2988 13.2686 14.2384C13.3181 14.178 13.3702 14.1188 13.4227 14.0609C13.4752 14.003 13.5275 13.9475 13.5827 13.8922C13.6379 13.837 13.6935 13.7818 13.7514 13.7293C13.8093 13.6768 13.8685 13.6247 13.9288 13.5751C13.9892 13.5256 14.0523 13.4792 14.115 13.4326C14.1777 13.3861 14.242 13.3422 14.307 13.2988C14.3719 13.2554 14.4378 13.211 14.5048 13.1708C14.5718 13.1307 14.6395 13.0942 14.7084 13.0574C14.7773 13.0205 14.8472 12.986 14.9178 12.9526C14.9884 12.9192 15.0609 12.8865 15.1331 12.8567C15.2052 12.8268 15.2777 12.7986 15.3512 12.7723C15.4248 12.746 15.4975 12.7222 15.5723 12.6996C15.647 12.6769 15.7234 12.6546 15.7992 12.6356C15.8749 12.6166 15.9494 12.6014 16.026 12.5861C16.1026 12.5709 16.1815 12.5569 16.2587 12.5454C16.336 12.5339 16.4137 12.524 16.4914 12.5163C16.5692 12.5087 16.6461 12.5027 16.7241 12.4989C16.8022 12.495 16.8787 12.493 16.9568 12.493ZM14.3128 15.9139C14.295 15.9486 14.2768 15.9833 14.2604 16.0186C14.2441 16.0539 14.2289 16.0874 14.2139 16.1233C14.2139 16.1233 14.1867 16.1973 14.1732 16.2339C14.1596 16.2704 14.1446 16.3074 14.1325 16.3444C14.1203 16.3814 14.1111 16.4175 14.1005 16.4549C14.0898 16.4924 14.0776 16.5305 14.0685 16.5684C14.0593 16.6063 14.0528 16.6436 14.0452 16.6818C14.0375 16.72 14.031 16.7597 14.0248 16.7982C14.0187 16.8367 14.012 16.8759 14.0074 16.9145C14.0027 16.9532 13.9989 16.9892 13.9957 17.028C13.9926 17.0668 13.9899 17.1083 13.9899 17.1473C13.9899 17.1862 13.987 17.2246 13.987 17.2636C13.987 17.3026 13.987 17.341 13.987 17.38C13.987 17.4189 13.9927 17.4575 13.9957 17.4963C13.9987 17.5352 14.0028 17.574 14.0074 17.6127C14.0119 17.6514 14.0159 17.6906 14.0219 17.729C14.028 17.7675 14.0347 17.8043 14.0423 17.8425C14.0498 17.8807 14.0594 17.921 14.0685 17.9588C14.0775 17.9967 14.087 18.0319 14.0975 18.0694C14.1081 18.1069 14.1175 18.1458 14.1295 18.1828C14.1416 18.2199 14.1568 18.2568 14.1703 18.2934C14.1837 18.3299 14.1961 18.365 14.211 18.401C14.2259 18.437 14.2412 18.4732 14.2575 18.5086C14.2738 18.544 14.2922 18.5786 14.3099 18.6133C14.3275 18.6481 14.3461 18.6841 14.3651 18.7181C14.3842 18.7521 14.403 18.7837 14.4233 18.817C14.4437 18.8502 14.4657 18.8834 14.4873 18.9159C14.5089 18.9483 14.5313 18.9803 14.5542 19.0119C14.5771 19.0434 14.5999 19.0743 14.624 19.1049C14.6481 19.1355 14.6715 19.1655 14.6967 19.1951C14.722 19.2247 14.7489 19.2538 14.7753 19.2824C14.8017 19.311 14.8292 19.3392 14.8567 19.3667C14.8843 19.3943 14.9125 19.4217 14.9411 19.4482C14.9697 19.4746 14.9987 19.5014 15.0283 19.5267C15.058 19.552 15.0879 19.5753 15.1185 19.5994C15.1491 19.6236 15.1801 19.6493 15.2116 19.6722C15.2431 19.6951 15.2752 19.7174 15.3076 19.7391C15.34 19.7607 15.3733 19.7798 15.4065 19.8002C15.4397 19.8205 15.4714 19.8393 15.5054 19.8583C15.5394 19.8774 15.5754 19.8959 15.6101 19.9136C15.6448 19.9313 15.6794 19.9497 15.7148 19.966C15.7502 19.9823 15.7864 19.9976 15.8224 20.0125C15.8584 20.0274 15.8935 20.0427 15.9301 20.0561C15.9666 20.0696 16.0035 20.0819 16.0406 20.094C16.0776 20.106 16.1136 20.1154 16.1511 20.126C16.1886 20.1365 16.2267 20.1489 16.2646 20.158C16.3024 20.167 16.3427 20.1737 16.3809 20.1812C16.4191 20.1888 16.4559 20.1955 16.4943 20.2016C16.5328 20.2077 16.572 20.2145 16.6107 20.219C16.6494 20.2236 16.6882 20.2276 16.727 20.2307C16.7659 20.2337 16.8045 20.2365 16.8434 20.2365C16.8823 20.2365 16.9208 20.2394 16.9597 20.2394C16.9987 20.2394 17.0372 20.2365 17.0761 20.2365C17.115 20.2365 17.1536 20.2309 17.1924 20.2278C17.2313 20.2247 17.2701 20.2207 17.3088 20.2161C17.3475 20.2115 17.3867 20.2077 17.4251 20.2016C17.4636 20.1954 17.5033 20.1889 17.5415 20.1812C17.5797 20.1736 17.6171 20.1642 17.6549 20.155C17.6928 20.1459 17.7309 20.1366 17.7684 20.126C17.8059 20.1153 17.8419 20.1031 17.8789 20.091C17.9159 20.079 17.9529 20.0668 17.9894 20.0532C18.026 20.0397 18.064 20.0246 18.1 20.0096C18.1359 19.9946 18.1694 19.9794 18.2047 19.9631C18.24 19.9467 18.2747 19.9314 18.3094 19.9136L14.3128 15.9139ZM16.9568 14.2965C16.4609 14.2965 15.9926 14.4187 15.581 14.634L19.5922 18.6424C19.6216 18.5861 19.6479 18.5289 19.6736 18.4708C19.6994 18.4127 19.7243 18.353 19.7463 18.2934C19.7683 18.2337 19.7893 18.1739 19.8074 18.113C19.8255 18.0521 19.8398 17.9917 19.8539 17.9297C19.8681 17.8678 19.8816 17.8063 19.8918 17.7436C19.9019 17.6809 19.9089 17.6177 19.915 17.5545C19.9212 17.4913 19.9296 17.426 19.9296 17.3625C19.9296 17.299 19.9296 17.237 19.9296 17.1734C19.9296 17.1099 19.9211 17.0447 19.915 16.9814C19.9089 16.9182 19.9019 16.8551 19.8918 16.7924C19.8816 16.7296 19.871 16.6682 19.8569 16.6062C19.8427 16.5443 19.8255 16.4839 19.8074 16.4229C19.7893 16.362 19.7683 16.2993 19.7463 16.2397C19.7244 16.18 19.7022 16.1233 19.6765 16.0652C19.6508 16.007 19.6215 15.9499 19.5922 15.8935C19.5628 15.8372 19.532 15.7821 19.4991 15.7277C19.4662 15.6734 19.4336 15.6199 19.3973 15.5677C19.3609 15.5156 19.3205 15.4633 19.2809 15.4136C19.2413 15.3639 19.2015 15.3152 19.1588 15.2681C19.116 15.2211 19.0706 15.1756 19.025 15.1314C18.9793 15.0872 18.9337 15.0446 18.8853 15.0034C18.837 14.9622 18.7879 14.9222 18.737 14.8841C18.6861 14.8461 18.6332 14.8112 18.5799 14.7765C18.5267 14.7419 18.4724 14.7088 18.417 14.6776C18.3617 14.6464 18.3056 14.6179 18.2483 14.5903C18.1911 14.5628 18.1327 14.5356 18.0738 14.5118C18.0149 14.488 17.9538 14.4678 17.8935 14.4478C17.8331 14.4278 17.7746 14.4087 17.7131 14.3925C17.6516 14.3764 17.5893 14.3611 17.527 14.3489C17.4646 14.3368 17.4009 14.3279 17.3379 14.3198C17.2749 14.3117 17.2122 14.3064 17.1488 14.3024C17.0854 14.2983 17.0204 14.2965 16.9568 14.2965Z"   fill="#CC4E1D" ></path><path d="M18.4913 1.67639C19.425 1.67639 20.1915 2.38761 20.2831 3.29664L20.2947 3.4799L20.2947 11.139C20.2947 11.153 20.2947 11.1657 20.2947 11.1797C20.2947 11.1937 20.2918 11.2094 20.2918 11.2233C20.2918 11.2373 20.286 11.2641 20.286 11.2641L20.2802 11.3077L20.2686 11.3484C20.2653 11.3621 20.2637 11.3757 20.2598 11.3892C20.2559 11.4027 20.2498 11.4166 20.2453 11.4299C20.2408 11.4432 20.2359 11.4546 20.2307 11.4677C20.2256 11.4808 20.2219 11.4927 20.2162 11.5055C20.2104 11.5183 20.2051 11.5337 20.1987 11.5462C20.1924 11.5588 20.1853 11.5689 20.1784 11.5811C20.1714 11.5934 20.1626 11.6071 20.1551 11.619C20.1476 11.6308 20.1399 11.6423 20.1318 11.6539C20.1238 11.6654 20.1171 11.6776 20.1086 11.6888C20.1 11.6999 20.0915 11.71 20.0824 11.7208C20.0733 11.7315 20.0629 11.7425 20.0533 11.7528C20.0437 11.7631 20.0342 11.772 20.0242 11.7819C20.0142 11.7917 20.0027 11.8016 19.9922 11.8109C19.9817 11.8203 19.9711 11.8283 19.9602 11.8371C19.9493 11.846 19.9395 11.855 19.9282 11.8633C19.9169 11.8716 19.905 11.8788 19.8933 11.8866C19.8816 11.8944 19.8704 11.9026 19.8584 11.9098C19.8464 11.9171 19.833 11.9235 19.8206 11.9302C19.8082 11.9369 19.7955 11.9445 19.7828 11.9506C19.7701 11.9567 19.7579 11.9625 19.745 11.968C19.732 11.9735 19.7203 11.9777 19.7072 11.9826C19.694 11.9875 19.6664 11.9971 19.6664 11.9971L19.6257 12.0087L19.585 12.0175L19.5443 12.0262L19.5006 12.032C19.5006 12.032 19.4739 12.0378 19.4599 12.0378C19.4459 12.0378 19.4332 12.0378 19.4192 12.0378C19.4052 12.0378 19.3896 12.0378 19.3756 12.0378C19.3615 12.0378 19.3489 12.0378 19.3348 12.0378C19.3208 12.0378 19.3052 12.0349 19.2912 12.0349C19.2773 12.0349 19.2644 12.0291 19.2505 12.0291C19.2366 12.0291 19.2235 12.0204 19.2098 12.0204C19.196 12.0204 19.1827 12.0152 19.169 12.0117C19.1554 12.0081 19.1417 12.0042 19.1283 12C19.1149 11.9959 19.1008 11.9902 19.0876 11.9855C19.0744 11.9807 19.0599 11.9763 19.0469 11.9709C19.0339 11.9655 19.0218 11.9595 19.0091 11.9535C18.9964 11.9475 18.9837 11.9426 18.9713 11.936C18.9588 11.9295 18.9485 11.9228 18.9363 11.9157C18.9243 11.9085 18.9103 11.9001 18.8985 11.8924C18.8868 11.8847 18.875 11.8774 18.8636 11.8691C18.8522 11.8609 18.8426 11.8517 18.8316 11.8429C18.8207 11.8342 18.8102 11.826 18.7996 11.8168C18.7891 11.8075 18.7778 11.7974 18.7676 11.7877C18.7575 11.7779 18.7482 11.7688 18.7386 11.7586C18.7289 11.7484 18.7186 11.7372 18.7095 11.7266C18.7003 11.7159 18.6919 11.7057 18.6833 11.6946C18.6746 11.6835 18.6652 11.6711 18.6571 11.6597C18.649 11.6482 18.6414 11.6366 18.6338 11.6248C18.6262 11.613 18.6205 11.602 18.6135 11.5899C18.6065 11.5777 18.5996 11.5645 18.5931 11.5521C18.5867 11.5396 18.5786 11.527 18.5728 11.5142C18.5669 11.5015 18.5635 11.4894 18.5582 11.4764C18.553 11.4634 18.5454 11.4489 18.5408 11.4357C18.5361 11.4224 18.5331 11.4084 18.5291 11.395C18.5251 11.3815 18.5209 11.3679 18.5175 11.3542C18.5141 11.3406 18.5088 11.3273 18.5088 11.3135C18.5088 11.2998 18.5 11.2867 18.5 11.2728L18.4913 11.139L18.4913 3.4799L4.7126 3.4799L4.7126 19.7027L10.8326 19.7027L10.8733 19.7057L10.9169 19.7086L10.9577 19.7115C10.9577 19.7115 10.9847 19.7202 10.9984 19.7202C11.0121 19.7202 11.0256 19.7256 11.0391 19.7289C11.0527 19.7323 11.0665 19.7366 11.0798 19.7406C11.0932 19.7445 11.1074 19.7476 11.1206 19.7522C11.1337 19.7568 11.1454 19.7615 11.1584 19.7667C11.1713 19.7719 11.1835 19.7784 11.1962 19.7842C11.2089 19.79 11.2216 19.7953 11.234 19.8016C11.2464 19.808 11.2718 19.822 11.2718 19.822L11.3067 19.8453C11.3185 19.8528 11.3302 19.8605 11.3416 19.8686C11.353 19.8766 11.3655 19.8833 11.3765 19.8918C11.3875 19.9004 11.4085 19.918 11.4085 19.918L11.4405 19.9471C11.4507 19.9566 11.4599 19.9662 11.4696 19.9762C11.4793 19.9862 11.4894 19.9977 11.4987 20.0082C11.5079 20.0186 11.5161 20.0293 11.5249 20.0402C11.5336 20.0511 11.5511 20.0722 11.5511 20.0722L11.5743 20.1071L11.5976 20.142C11.6048 20.154 11.6114 20.1646 11.618 20.1769C11.6245 20.1892 11.6294 20.2021 11.6354 20.2147C11.6414 20.2273 11.6474 20.2397 11.6529 20.2525C11.6583 20.2654 11.6626 20.2802 11.6674 20.2932L11.6819 20.3311L11.6936 20.3718L11.7023 20.4125L11.711 20.4532L11.7169 20.4969L11.7227 20.5376L11.7227 20.5783L11.7227 20.622L11.7227 20.6627C11.7227 20.6627 11.7198 20.6895 11.7198 20.7034C11.7198 20.7173 11.7139 20.7332 11.7139 20.747C11.7139 20.7608 11.7052 20.7741 11.7052 20.7878C11.7052 20.8014 11.6999 20.815 11.6965 20.8285C11.693 20.842 11.6889 20.8559 11.6849 20.8692C11.6808 20.8825 11.675 20.8939 11.6703 20.907C11.6656 20.9202 11.6611 20.9348 11.6558 20.9477C11.6505 20.9607 11.6383 20.9856 11.6383 20.9856L11.6209 21.0234L11.6005 21.0583L11.5801 21.0961C11.5725 21.1078 11.565 21.1168 11.5569 21.1281C11.5487 21.1394 11.5393 21.1521 11.5307 21.163C11.5221 21.174 11.5136 21.1845 11.5045 21.195C11.4954 21.2055 11.485 21.2169 11.4754 21.227C11.4658 21.2371 11.4564 21.2464 11.4463 21.2561C11.4362 21.2657 11.4248 21.276 11.4143 21.2852C11.4038 21.2943 11.3933 21.3027 11.3823 21.3114C11.3714 21.32 11.3617 21.3265 11.3503 21.3346C11.339 21.3428 11.3271 21.3532 11.3154 21.3608C11.3038 21.3684 11.2926 21.3741 11.2805 21.3812C11.2685 21.3882 11.2551 21.395 11.2427 21.4015C11.2304 21.408 11.2175 21.416 11.2049 21.4219C11.1923 21.4278 11.18 21.4311 11.1671 21.4364C11.1542 21.4418 11.1424 21.4492 11.1293 21.4539C11.1162 21.4586 11.1019 21.4614 11.0886 21.4655C11.0752 21.4696 11.0613 21.4737 11.0478 21.4772C11.0343 21.4807 11.0208 21.4859 11.0071 21.4859C10.9935 21.4859 10.9802 21.4946 10.9664 21.4946L10.8326 21.5033L4.7126 21.5033C4.68503 21.5033 4.65868 21.5033 4.63116 21.5033C4.60361 21.5033 4.57424 21.4975 4.5468 21.4975C4.51935 21.4975 4.49266 21.4926 4.46536 21.4888C4.43804 21.485 4.41102 21.4793 4.38391 21.4743C4.35682 21.4692 4.32931 21.4631 4.30247 21.4568C4.27562 21.4505 4.25046 21.4439 4.22393 21.4364C4.1974 21.4289 4.16864 21.4219 4.14249 21.4132C4.11632 21.4045 4.09258 21.394 4.06686 21.3841C4.04113 21.3742 4.01358 21.3631 3.98832 21.3521C3.96307 21.341 3.94031 21.3294 3.9156 21.3172C3.8909 21.305 3.86411 21.2927 3.83998 21.2794C3.81584 21.266 3.79365 21.2531 3.77017 21.2386C3.74667 21.2242 3.72317 21.2105 3.70036 21.195C3.67756 21.1795 3.65553 21.1621 3.63346 21.1456C3.61138 21.1291 3.58786 21.1107 3.56656 21.0932C3.54526 21.0757 3.52594 21.0593 3.50547 21.0408C3.485 21.0224 3.46399 21.002 3.44439 20.9827C3.42478 20.9633 3.40782 20.9447 3.38912 20.9245C3.37043 20.9042 3.3516 20.8845 3.33386 20.8634C3.31611 20.8423 3.29825 20.8184 3.2815 20.7965C3.26473 20.7746 3.24779 20.7551 3.23205 20.7325C3.21631 20.7099 3.2031 20.686 3.18842 20.6627C3.17374 20.6393 3.15839 20.6139 3.14479 20.59C3.13118 20.566 3.11655 20.5418 3.10407 20.5172C3.09157 20.4927 3.08051 20.4696 3.06916 20.4445C3.05781 20.4194 3.04734 20.3945 3.03716 20.3689C3.02697 20.3433 3.01708 20.3164 3.00808 20.2903C2.99908 20.2643 2.99259 20.2383 2.98481 20.2118C2.977 20.1854 2.96811 20.1571 2.96154 20.1304C2.95495 20.1036 2.94942 20.0789 2.94408 20.0518C2.93874 20.0248 2.93365 19.9976 2.92954 19.9704C2.92545 19.9431 2.91791 19.9163 2.91791 19.8889L2.90918 19.7027L2.90918 3.4799C2.90918 2.5476 3.61746 1.77675 4.52644 1.68512L4.70969 1.67639L18.4913 1.67639ZM11.7314 10.6881C11.7454 10.6881 11.761 10.6881 11.775 10.6881C11.789 10.6881 11.8018 10.691 11.8157 10.691C11.8297 10.691 11.8455 10.6968 11.8594 10.6968C11.8733 10.6968 11.8863 10.7027 11.9001 10.7027C11.9139 10.7027 11.9272 10.711 11.9408 10.7143C11.9545 10.7176 11.968 10.7191 11.9815 10.723C11.995 10.7269 12.009 10.733 12.0223 10.7376C12.0356 10.7421 12.0499 10.747 12.063 10.7521C12.0761 10.7573 12.088 10.7609 12.1008 10.7667C12.1136 10.7724 12.1261 10.7778 12.1386 10.7841C12.1511 10.7904 12.1642 10.7975 12.1764 10.8045C12.1887 10.8114 12.1995 10.8203 12.2113 10.8277C12.2232 10.8352 12.2347 10.843 12.2462 10.851C12.2578 10.859 12.27 10.8657 12.2811 10.8743C12.2923 10.8828 12.3024 10.8914 12.3131 10.9005C12.3239 10.9095 12.3348 10.92 12.3451 10.9296C12.3554 10.9391 12.3644 10.9486 12.3742 10.9586C12.3841 10.9687 12.394 10.9802 12.4033 10.9906C12.4127 11.0011 12.4236 11.0117 12.4324 11.0226C12.4413 11.0335 12.4502 11.0433 12.4586 11.0546C12.4669 11.0659 12.4741 11.0779 12.4818 11.0895C12.4896 11.1012 12.4979 11.1124 12.5051 11.1244C12.5124 11.1365 12.5188 11.1499 12.5255 11.1623C12.5322 11.1746 12.5369 11.1874 12.5429 11.2001C12.549 11.2127 12.5549 11.225 12.5604 11.2379C12.5659 11.2508 12.573 11.2626 12.5778 11.2757C12.5827 11.2889 12.5852 11.303 12.5895 11.3164C12.5937 11.3298 12.6004 11.3436 12.604 11.3572C12.6077 11.3707 12.6098 11.3842 12.6127 11.3979C12.6157 11.4116 12.6215 11.4248 12.6215 11.4386C12.6215 11.4524 12.6273 11.4683 12.6273 11.4822C12.6273 11.4962 12.6302 11.509 12.6302 11.523C12.6302 11.537 12.6331 11.5496 12.6331 11.5637C12.6331 11.5777 12.6331 11.5933 12.6331 11.6073C12.6331 11.6214 12.6302 11.634 12.6302 11.648C12.6302 11.6621 12.6273 11.6777 12.6273 11.6917C12.6273 11.7056 12.6215 11.7185 12.6215 11.7324C12.6215 11.7463 12.6157 11.7594 12.6157 11.7731C12.6157 11.7869 12.6075 11.8002 12.604 11.8139C12.6005 11.8275 12.5965 11.8412 12.5924 11.8546C12.5882 11.868 12.5855 11.8821 12.5807 11.8953C12.576 11.9085 12.5687 11.923 12.5633 11.936C12.5579 11.949 12.5547 11.9611 12.5488 11.9738C12.5428 11.9865 12.535 11.9992 12.5284 12.0117C12.5218 12.0241 12.5152 12.0344 12.508 12.0466C12.5009 12.0587 12.4924 12.0726 12.4848 12.0844C12.4771 12.0961 12.4697 12.1079 12.4615 12.1193C12.4532 12.1307 12.4441 12.1403 12.4353 12.1513C12.4266 12.1623 12.4184 12.1727 12.4091 12.1833C12.3999 12.1938 12.3898 12.2052 12.38 12.2153C12.3703 12.2254 12.3612 12.2347 12.351 12.2444C12.3408 12.254 12.3296 12.2643 12.319 12.2735C12.3083 12.2826 12.298 12.291 12.287 12.2996C12.2759 12.3083 12.2664 12.3177 12.255 12.3258C12.2435 12.334 12.2319 12.3415 12.2201 12.3491C12.2082 12.3567 12.1944 12.3624 12.1822 12.3694C12.1701 12.3765 12.1569 12.3834 12.1444 12.3898C12.132 12.3963 12.1194 12.4043 12.1066 12.4102C12.0939 12.416 12.0818 12.4194 12.0688 12.4247C12.0558 12.43 12.0442 12.4375 12.031 12.4422C12.0177 12.4468 12.0037 12.4498 11.9903 12.4538C11.9768 12.4578 11.9632 12.4621 11.9495 12.4654C11.9359 12.4688 11.9226 12.4742 11.9088 12.4742C11.8951 12.4742 11.8791 12.48 11.8652 12.48L11.7314 12.4916L7.5748 12.4916C7.56076 12.4916 7.5481 12.4916 7.53408 12.4916C7.52006 12.4916 7.50442 12.4887 7.49045 12.4887C7.47647 12.4887 7.46363 12.4829 7.44973 12.4829C7.43582 12.4829 7.41989 12.4771 7.4061 12.4771C7.3923 12.4771 7.37903 12.4687 7.36537 12.4654C7.35172 12.4622 7.33813 12.4606 7.32465 12.4567C7.31115 12.4528 7.29722 12.4467 7.28393 12.4422C7.27063 12.4376 7.25918 12.4328 7.24611 12.4276C7.23305 12.4225 7.22109 12.4188 7.2083 12.4131C7.19548 12.4073 7.1801 12.402 7.16758 12.3956C7.15506 12.3893 7.1449 12.3822 7.13267 12.3753C7.12047 12.3683 7.10674 12.3595 7.09486 12.352C7.08297 12.3445 7.07148 12.3367 7.05995 12.3287C7.04843 12.3207 7.03618 12.314 7.02505 12.3055C7.01391 12.2969 7.00378 12.2883 6.99305 12.2793C6.98235 12.2702 6.97135 12.2598 6.96106 12.2502C6.95076 12.2406 6.94181 12.2311 6.93197 12.2211C6.92213 12.2111 6.91222 12.1996 6.90288 12.1891C6.89354 12.1786 6.88554 12.168 6.8767 12.1571C6.86786 12.1462 6.85886 12.1364 6.85052 12.1251C6.84219 12.1138 6.83505 12.1019 6.82726 12.0902C6.81946 12.0785 6.81123 12.0673 6.80399 12.0553C6.79674 12.0433 6.79028 12.0298 6.78362 12.0175C6.77697 12.0051 6.76935 11.9923 6.76326 11.9797C6.75717 11.967 6.75129 11.9548 6.74581 11.9418C6.74033 11.9289 6.73615 11.9172 6.73127 11.904C6.72638 11.8908 6.72097 11.8767 6.71672 11.8633C6.71247 11.8499 6.70872 11.8361 6.70509 11.8226C6.70148 11.809 6.69936 11.7956 6.69636 11.7819C6.69339 11.7681 6.68764 11.755 6.68764 11.7411C6.68764 11.7273 6.68182 11.7114 6.68182 11.6975C6.68182 11.6836 6.676 11.6708 6.676 11.6568C6.676 11.6427 6.676 11.6301 6.676 11.616C6.676 11.602 6.676 11.5865 6.676 11.5724C6.676 11.5584 6.676 11.5457 6.676 11.5317C6.676 11.5177 6.67891 11.502 6.67891 11.4881C6.67891 11.4741 6.68473 11.4612 6.68473 11.4473C6.68473 11.4334 6.69345 11.4204 6.69345 11.4066C6.69345 11.3929 6.69868 11.3795 6.70218 11.3659C6.7057 11.3523 6.70968 11.3386 6.71381 11.3252C6.71795 11.3117 6.72359 11.2976 6.72836 11.2844C6.73311 11.2712 6.73752 11.2567 6.7429 11.2437C6.74829 11.2307 6.75438 11.2186 6.76035 11.2059C6.76633 11.1932 6.77124 11.1805 6.77781 11.1681C6.78437 11.1557 6.79103 11.1453 6.79817 11.1332C6.8053 11.1211 6.81373 11.1071 6.82144 11.0954C6.82912 11.0836 6.83646 11.0718 6.84471 11.0605C6.85293 11.0491 6.86214 11.0394 6.87089 11.0285C6.87964 11.0175 6.88782 11.007 6.89707 10.9965C6.90631 10.9859 6.91643 10.9746 6.92615 10.9645C6.9359 10.9543 6.94504 10.945 6.95524 10.9354C6.96544 10.9257 6.9766 10.9154 6.98724 10.9063C6.99789 10.8971 7.00817 10.8888 7.01923 10.8801C7.0303 10.8714 7.04271 10.8621 7.05414 10.8539C7.06559 10.8458 7.07723 10.8382 7.08904 10.8306C7.10086 10.8231 7.11179 10.8173 7.12395 10.8103C7.1361 10.8033 7.14928 10.7964 7.16176 10.7899C7.17424 10.7835 7.18683 10.7754 7.19957 10.7696C7.21235 10.7637 7.22437 10.7603 7.23739 10.755C7.25041 10.7497 7.26486 10.7422 7.27811 10.7376L7.31883 10.7259L7.35956 10.7143L7.40028 10.7056L7.441 10.6997L7.5748 10.6881L11.7314 10.6881ZM15.3382 7.08401L15.379 7.08692L15.4226 7.08982C15.4365 7.08982 15.4495 7.09564 15.4633 7.09564C15.4771 7.09564 15.4904 7.10146 15.504 7.10146C15.5177 7.10146 15.5312 7.1068 15.5448 7.11019C15.5583 7.11357 15.5721 7.1178 15.5855 7.12182C15.5988 7.12582 15.613 7.12884 15.6262 7.13346C15.6394 7.13807 15.6511 7.14568 15.664 7.15091C15.6769 7.15614 15.6891 7.15964 15.7018 7.16546C15.7145 7.17127 15.7273 7.17943 15.7396 7.18582L15.7775 7.20327L15.8124 7.22654L15.8473 7.24981L15.8822 7.27308C15.8822 7.27308 15.9036 7.29311 15.9142 7.30217C15.9248 7.31124 15.9331 7.31879 15.9433 7.32835C15.9534 7.3379 15.9655 7.34742 15.9752 7.35744C15.985 7.36746 15.9922 7.37899 16.0014 7.38944C16.0107 7.39989 16.0218 7.41057 16.0305 7.42144C16.0392 7.43232 16.0456 7.44219 16.0538 7.45343C16.062 7.46471 16.0723 7.47671 16.08 7.48834C16.0876 7.49998 16.1003 7.52325 16.1003 7.52325L16.1207 7.56106C16.1207 7.56106 16.135 7.58629 16.141 7.59888C16.147 7.61147 16.1531 7.62385 16.1585 7.63669C16.1639 7.64953 16.1682 7.66142 16.173 7.67451C16.1778 7.6876 16.1834 7.70194 16.1876 7.71523C16.1918 7.72853 16.1957 7.74248 16.1992 7.75596C16.2028 7.76943 16.205 7.78014 16.2079 7.79377C16.2109 7.80739 16.2167 7.82366 16.2167 7.83741C16.2167 7.85116 16.2225 7.86429 16.2225 7.87813C16.2225 7.89197 16.2254 7.90495 16.2254 7.91886C16.2254 7.93276 16.2283 7.94565 16.2283 7.95958C16.2283 7.97351 16.2283 7.98928 16.2283 8.00321C16.2283 8.01715 16.2254 8.03001 16.2254 8.04394C16.2254 8.05785 16.2225 8.07371 16.2225 8.08757C16.2225 8.10141 16.2167 8.11452 16.2167 8.1283C16.2167 8.14207 16.2109 8.15536 16.2109 8.16902C16.2109 8.18268 16.2027 8.19625 16.1992 8.20974C16.1957 8.22327 16.1917 8.23713 16.1876 8.25047C16.1835 8.26381 16.1807 8.27517 16.176 8.28828C16.1712 8.30142 16.1667 8.31612 16.1614 8.32901C16.1561 8.34189 16.1498 8.35419 16.144 8.36682C16.1381 8.37946 16.133 8.39228 16.1265 8.40464C16.12 8.41698 16.1132 8.42752 16.1061 8.43955C16.0991 8.45159 16.0905 8.46566 16.0829 8.47736C16.0753 8.48907 16.0677 8.50093 16.0596 8.51227C16.0515 8.52361 16.0421 8.53333 16.0334 8.54427C16.0248 8.5552 16.0164 8.56572 16.0072 8.57626C15.9981 8.58679 15.9878 8.59817 15.9782 8.60826C15.9685 8.61835 15.9591 8.62769 15.9491 8.63735C15.939 8.64699 15.9305 8.65728 15.92 8.66644C15.9095 8.6756 15.8989 8.68396 15.888 8.69262C15.8771 8.70128 15.8644 8.71064 15.8531 8.7188C15.8418 8.72696 15.8299 8.73446 15.8182 8.74207C15.8065 8.74968 15.7953 8.75537 15.7833 8.76243C15.7713 8.7695 15.7607 8.77629 15.7484 8.78279C15.736 8.78929 15.7232 8.79723 15.7106 8.80316C15.6979 8.80909 15.6856 8.81236 15.6727 8.8177L15.632 8.83515C15.6189 8.83988 15.6046 8.84268 15.5913 8.84679C15.578 8.8509 15.567 8.85493 15.5535 8.85843C15.54 8.8619 15.5264 8.86715 15.5128 8.86715C15.4991 8.86715 15.4829 8.87588 15.4691 8.87588L15.3382 8.88461L7.5748 8.88461L7.53408 8.88461L7.49045 8.8817L7.44973 8.87588L7.409 8.87006L7.36828 8.85843C7.36828 8.85843 7.34094 8.85368 7.32756 8.8497C7.3142 8.84572 7.29999 8.83977 7.28684 8.83515C7.27366 8.83056 7.26195 8.82581 7.24902 8.82061C7.23609 8.81541 7.22389 8.80895 7.21121 8.80316C7.19851 8.79736 7.1858 8.79209 7.1734 8.7857C7.16101 8.77932 7.14769 8.77229 7.13558 8.76534C7.12349 8.75839 7.11243 8.75248 7.10068 8.74498C7.08893 8.73746 7.07716 8.72975 7.06577 8.72171C7.05436 8.71366 7.04189 8.7041 7.03087 8.69553C7.01987 8.68696 7.00948 8.67842 6.99887 8.66935C6.98826 8.66028 6.97703 8.65271 6.96688 8.64317C6.95669 8.63362 6.94749 8.62119 6.93779 8.61117C6.92806 8.60115 6.91795 8.59251 6.9087 8.58208C6.89945 8.57163 6.89127 8.56095 6.88252 8.55008C6.87377 8.5392 6.86457 8.52643 6.85634 8.51518L6.83307 8.48318L6.8098 8.44827L6.78944 8.41046L6.77199 8.37264L6.75454 8.33483L6.73999 8.29701L6.72545 8.25629C6.72125 8.24299 6.7174 8.22904 6.71381 8.21556C6.71022 8.20209 6.70804 8.18845 6.70509 8.17484C6.70213 8.1612 6.69636 8.14786 6.69636 8.13411C6.69636 8.12037 6.69054 8.10723 6.69054 8.09339C6.69054 8.07955 6.68473 8.0666 6.68473 8.05266C6.68473 8.03876 6.68473 8.02296 6.68473 8.00903C6.68473 7.99508 6.68473 7.98224 6.68473 7.96831C6.68473 7.95435 6.68473 7.9386 6.68473 7.92467C6.68473 7.91074 6.68764 7.89781 6.68764 7.88395C6.68764 7.87009 6.69345 7.85702 6.69345 7.84323C6.69345 7.82945 6.70218 7.81616 6.70218 7.8025C6.70218 7.78884 6.70745 7.7753 6.71091 7.76178C6.71438 7.74825 6.71847 7.73439 6.72254 7.72105C6.72661 7.70771 6.73238 7.69346 6.73708 7.68033C6.74179 7.66719 6.74633 7.65542 6.75163 7.64251C6.75692 7.6296 6.7632 7.61735 6.76908 7.6047C6.77497 7.59206 6.78006 7.57924 6.78653 7.56688C6.79301 7.55452 6.79987 7.54111 6.80689 7.52907C6.81394 7.51702 6.81969 7.50586 6.82726 7.49416C6.83485 7.48246 6.84241 7.47059 6.85052 7.45925C6.85866 7.44791 6.86807 7.43819 6.8767 7.42725C6.88534 7.4163 6.89375 7.40289 6.90288 7.39235C6.91204 7.3818 6.92236 7.37337 6.93197 7.36326C6.94158 7.35315 6.95099 7.34383 6.96106 7.33417C6.97115 7.32453 6.98253 7.31426 6.99305 7.30508C7.00355 7.29592 7.01412 7.28756 7.02505 7.2789C7.03598 7.27022 7.04573 7.26088 7.05705 7.25272C7.06836 7.24456 7.08027 7.23706 7.09195 7.22945C7.10363 7.22184 7.11483 7.21325 7.12686 7.20618C7.13888 7.19911 7.15233 7.19234 7.16467 7.18582C7.17701 7.17932 7.18985 7.1743 7.20248 7.16836C7.2151 7.16243 7.22741 7.15625 7.2403 7.15091C7.25318 7.14557 7.265 7.14109 7.27811 7.13637C7.29122 7.13162 7.30549 7.12594 7.31883 7.12182C7.33217 7.11771 7.34606 7.11369 7.35956 7.11019C7.37308 7.10669 7.38662 7.10146 7.40028 7.10146C7.41393 7.10146 7.42723 7.09564 7.441 7.09564L7.5748 7.08401L15.3382 7.08401Z"   fill="#034FA1" ></path></svg>