<svg xmlns="http://www.w3.org/2000/svg" xmlns:xlink="http://www.w3.org/1999/xlink" width="24" height="24" viewBox="0 0 24 24" fill="none"><g  clip-path="url(#clip-path-72_2972)"><path d="M10.6462 7.81812L10.6462 9.00472L9.23226 9.00472L9.23226 11.378C9.23226 11.4168 9.2334 11.4556 9.23568 11.4944C9.23794 11.5332 9.24134 11.5719 9.24588 11.6106C9.25041 11.6492 9.25607 11.6878 9.26287 11.7262C9.26966 11.7646 9.27757 11.8029 9.28659 11.8409C9.29563 11.879 9.30577 11.9169 9.31702 11.9546C9.32826 11.9923 9.3406 12.0297 9.35403 12.0669C9.36746 12.104 9.38197 12.1409 9.39756 12.1775C9.41316 12.214 9.42981 12.2503 9.44752 12.2861C9.46522 12.322 9.48397 12.3575 9.50377 12.3926C9.52355 12.4277 9.54435 12.4624 9.56617 12.4967C9.58799 12.5309 9.61079 12.5647 9.63458 12.598C9.65838 12.6313 9.68313 12.6642 9.70883 12.6964C9.73454 12.7287 9.76119 12.7605 9.78876 12.7917C9.81633 12.8229 9.8448 12.8535 9.87416 12.8835C9.9035 12.9135 9.93372 12.9429 9.96481 12.9717C9.99589 13.0005 10.0278 13.0286 10.0605 13.0561C10.0932 13.0835 10.1268 13.1103 10.161 13.1364C10.1953 13.1625 10.2304 13.1878 10.2661 13.2125C10.3019 13.2371 10.3384 13.261 10.3756 13.2841C10.4127 13.3073 10.4506 13.3296 10.489 13.3512C10.5275 13.3728 10.5666 13.3936 10.6063 13.4135C10.646 13.4335 10.6862 13.4526 10.7271 13.471C10.7679 13.4893 10.8092 13.5067 10.851 13.5233C10.8929 13.5399 10.9352 13.5557 10.9779 13.5705C11.0207 13.5854 11.0638 13.5994 11.1074 13.6124C11.151 13.6255 11.1949 13.6377 11.2392 13.649C11.2835 13.6603 11.3281 13.6706 11.373 13.6801C11.4179 13.6895 11.463 13.698 11.5084 13.7056C11.5538 13.7131 11.5994 13.7198 11.6452 13.7255C11.6909 13.7312 11.7369 13.7359 11.7829 13.7397C11.829 13.7435 11.8751 13.7464 11.9213 13.7483C11.9676 13.7502 12.0138 13.7512 12.0601 13.7512C12.1064 13.7512 12.1526 13.7502 12.1988 13.7483C12.2451 13.7464 12.2912 13.7435 12.3373 13.7397C12.3833 13.7359 12.4292 13.7312 12.475 13.7255C12.5208 13.7198 12.5664 13.7131 12.6118 13.7056C12.6571 13.698 12.7023 13.6895 12.7472 13.6801C12.7921 13.6706 12.8367 13.6603 12.881 13.649C12.9253 13.6377 12.9692 13.6255 13.0128 13.6124C13.0563 13.5994 13.0995 13.5854 13.1422 13.5705C13.185 13.5557 13.2273 13.5399 13.2691 13.5233C13.311 13.5067 13.3523 13.4893 13.3931 13.471C13.4339 13.4526 13.4742 13.4335 13.5139 13.4135C13.5536 13.3936 13.5926 13.3728 13.6311 13.3512C13.6696 13.3296 13.7075 13.3073 13.7446 13.2841C13.7818 13.261 13.8183 13.2371 13.854 13.2125C13.8898 13.1878 13.9248 13.1625 13.9591 13.1364C13.9934 13.1103 14.0269 13.0835 14.0597 13.0561C14.0924 13.0286 14.1243 13.0005 14.1554 12.9717C14.1864 12.9429 14.2167 12.9135 14.246 12.8835C14.2754 12.8535 14.3039 12.8229 14.3314 12.7917C14.359 12.7605 14.3856 12.7287 14.4113 12.6964C14.437 12.6642 14.4618 12.6313 14.4856 12.598C14.5094 12.5647 14.5322 12.5309 14.554 12.4967C14.5758 12.4624 14.5966 12.4277 14.6164 12.3926C14.6362 12.3575 14.6549 12.322 14.6726 12.2861C14.6904 12.2503 14.707 12.214 14.7226 12.1775C14.7382 12.1409 14.7527 12.104 14.7661 12.0669C14.7796 12.0297 14.7919 11.9923 14.8032 11.9546C14.8144 11.9169 14.8245 11.879 14.8336 11.8409C14.8426 11.8029 14.8505 11.7646 14.8573 11.7262C14.8641 11.6878 14.8698 11.6492 14.8743 11.6106C14.8788 11.5719 14.8822 11.5332 14.8845 11.4944C14.8868 11.4556 14.8879 11.4168 14.8879 11.378L14.8879 9.00472L13.474 9.00472L13.474 7.81812L15.5949 7.81812C15.6064 7.81812 15.618 7.81835 15.6296 7.81882C15.6411 7.81931 15.6526 7.82002 15.6642 7.82097C15.6757 7.82192 15.6872 7.82311 15.6986 7.82454C15.71 7.82596 15.7214 7.82762 15.7328 7.82952C15.7441 7.83141 15.7554 7.83354 15.7666 7.8359C15.7779 7.83825 15.789 7.84084 15.8001 7.84366C15.8112 7.84648 15.8221 7.84952 15.833 7.8528C15.8439 7.85607 15.8547 7.85956 15.8654 7.86328C15.8761 7.867 15.8867 7.87093 15.8971 7.87507C15.9076 7.87923 15.9179 7.88359 15.9281 7.88817C15.9383 7.89275 15.9484 7.89753 15.9583 7.90252C15.9682 7.90752 15.978 7.91271 15.9876 7.91811C15.9972 7.92351 16.0067 7.92909 16.016 7.93487C16.0253 7.94065 16.0344 7.94663 16.0434 7.95279C16.0523 7.95895 16.0611 7.96529 16.0696 7.97181C16.0782 7.97833 16.0866 7.98502 16.0948 7.99189C16.1029 7.99875 16.1109 8.00578 16.1187 8.01297C16.1265 8.02018 16.134 8.02753 16.1413 8.03503C16.1487 8.04254 16.1558 8.05019 16.1627 8.05799C16.1696 8.06578 16.1762 8.07372 16.1827 8.08179C16.1891 8.08987 16.1953 8.09807 16.2012 8.10641C16.2072 8.11473 16.2129 8.12318 16.2183 8.13174C16.2238 8.1403 16.229 8.14897 16.2339 8.15775C16.2389 8.16652 16.2436 8.1754 16.248 8.18437C16.2524 8.19335 16.2566 8.20241 16.2605 8.21155C16.2644 8.22069 16.268 8.2299 16.2714 8.23919C16.2747 8.24848 16.2778 8.25783 16.2806 8.26725C16.2834 8.27668 16.286 8.28615 16.2882 8.29568C16.2905 8.3052 16.2925 8.31476 16.2942 8.32436C16.2959 8.33397 16.2973 8.3436 16.2984 8.35327C16.2996 8.36293 16.3004 8.37261 16.301 8.38231C16.3015 8.392 16.3018 8.40171 16.3018 8.41143L16.3018 11.378C16.3018 11.43 16.3004 11.482 16.2977 11.534C16.295 11.586 16.2909 11.6379 16.2855 11.6898C16.28 11.7416 16.2732 11.7934 16.2651 11.845C16.257 11.8966 16.2475 11.948 16.2366 11.9992C16.2258 12.0505 16.2137 12.1015 16.2002 12.1523C16.1867 12.2031 16.1719 12.2536 16.1557 12.3039C16.1396 12.3542 16.1221 12.4041 16.1034 12.4537C16.0847 12.5033 16.0646 12.5526 16.0433 12.6014C16.022 12.6503 15.9994 12.6988 15.9756 12.7468C15.9517 12.7949 15.9266 12.8425 15.9003 12.8896C15.874 12.9367 15.8464 12.9833 15.8176 13.0294C15.7889 13.0755 15.7589 13.1211 15.7277 13.1661C15.6966 13.2111 15.6643 13.2555 15.6308 13.2993C15.5973 13.3432 15.5627 13.3864 15.527 13.4289C15.4913 13.4714 15.4545 13.5133 15.4166 13.5545C15.3786 13.5957 15.3397 13.6362 15.2996 13.6759C15.2596 13.7157 15.2186 13.7547 15.1765 13.7929C15.1344 13.8312 15.0914 13.8686 15.0474 13.9053C15.0033 13.9419 14.9584 13.9778 14.9125 14.0128C14.8666 14.0478 14.8198 14.0819 14.7721 14.1152C14.7244 14.1485 14.6759 14.1809 14.6265 14.2124C14.5772 14.2439 14.527 14.2745 14.476 14.3041C14.425 14.3338 14.3733 14.3625 14.3209 14.3902C14.2684 14.418 14.2152 14.4447 14.1614 14.4705C14.1075 14.4963 14.053 14.5211 13.9978 14.5449C13.9426 14.5687 13.8869 14.5915 13.8305 14.6132C13.7742 14.6349 13.7173 14.6556 13.6599 14.6752C13.6024 14.6949 13.5445 14.7135 13.4861 14.731C13.4277 14.7485 13.3689 14.7649 13.3096 14.7803C13.2503 14.7956 13.1907 14.8098 13.1307 14.823C13.0707 14.8361 13.0104 14.8482 12.9497 14.8591C12.8891 14.87 12.8282 14.8799 12.767 14.8885L12.767 15.8277C12.767 15.8578 12.7677 15.8879 12.7693 15.918C12.7708 15.9481 12.7731 15.9781 12.7762 16.0081C12.7793 16.038 12.7831 16.068 12.7877 16.0978C12.7924 16.1276 12.7978 16.1574 12.8039 16.187C12.8101 16.2167 12.817 16.2462 12.8247 16.2756C12.8324 16.305 12.8409 16.3342 12.8501 16.3633C12.8593 16.3924 12.8693 16.4213 12.88 16.45C12.8907 16.4787 12.9022 16.5072 12.9144 16.5355C12.9265 16.5638 12.9395 16.5919 12.9531 16.6197C12.9667 16.6476 12.9811 16.6751 12.9962 16.7024C13.0112 16.7297 13.027 16.7568 13.0435 16.7835C13.0599 16.8102 13.0771 16.8367 13.0949 16.8628C13.1128 16.8889 13.1313 16.9146 13.1504 16.9401C13.1696 16.9655 13.1895 16.9906 13.2099 17.0153C13.2304 17.04 13.2515 17.0643 13.2732 17.0882C13.2949 17.1122 13.3173 17.1357 13.3402 17.1588C13.3632 17.1819 13.3867 17.2046 13.4109 17.2269C13.435 17.2492 13.4597 17.271 13.4849 17.2923C13.5102 17.3137 13.536 17.3346 13.5623 17.355C13.5887 17.3754 13.6155 17.3954 13.6429 17.4148C13.6703 17.4342 13.6981 17.4532 13.7265 17.4716C13.7548 17.49 13.7836 17.5079 13.8129 17.5253C13.8422 17.5427 13.8719 17.5595 13.9021 17.5758C13.9322 17.5921 13.9628 17.6078 13.9937 17.623C14.0247 17.6382 14.0561 17.6528 14.0878 17.6668C14.1195 17.6808 14.1516 17.6943 14.184 17.7071C14.2164 17.72 14.2491 17.7323 14.2822 17.7439C14.3152 17.7556 14.3486 17.7666 14.3822 17.7771C14.4158 17.7875 14.4497 17.7974 14.4839 17.8066C14.518 17.8158 14.5524 17.8244 14.5869 17.8324C14.6215 17.8403 14.6563 17.8476 14.6913 17.8543C14.7262 17.861 14.7613 17.8671 14.7966 17.8725C14.8319 17.8779 14.8673 17.8826 14.9028 17.8868C14.9383 17.8909 14.9739 17.8944 15.0096 17.8972C15.0453 17.9 15.0811 17.9022 15.1169 17.9037C15.1527 17.9052 15.1885 17.906 15.2244 17.9063C15.2603 17.9065 15.2961 17.906 15.3319 17.9049C15.3678 17.9038 15.4036 17.9021 15.4393 17.8997C15.475 17.8972 15.5107 17.8942 15.5463 17.8905C15.5819 17.8868 15.6174 17.8824 15.6527 17.8774C15.6881 17.8724 15.7233 17.8668 15.7584 17.8605C15.7934 17.8542 15.8283 17.8473 15.863 17.8397C15.8977 17.8321 15.9322 17.824 15.9665 17.8151C16.0008 17.8063 16.0348 17.7969 16.0686 17.7868C16.1024 17.7768 16.1359 17.7661 16.1692 17.7548C16.2024 17.7435 16.2354 17.7316 16.268 17.7191C16.3006 17.7066 16.3329 17.6936 16.3648 17.6799C16.3968 17.6662 16.4284 17.652 16.4596 17.6372C16.4908 17.6224 16.5216 17.607 16.552 17.5911C16.5824 17.5751 16.6124 17.5586 16.642 17.5416C16.6715 17.5245 16.7007 17.507 16.7293 17.4889C16.758 17.4708 16.7861 17.4522 16.8138 17.4331C16.8415 17.4139 16.8687 17.3943 16.8953 17.3742C16.922 17.3541 16.9482 17.3335 16.9738 17.3124C16.9994 17.2914 17.0244 17.2698 17.0489 17.2478C17.0734 17.2259 17.0973 17.2034 17.1206 17.1806C17.1439 17.1577 17.1667 17.1345 17.1888 17.1108C17.2109 17.0871 17.2324 17.063 17.2533 17.0385C17.2742 17.0141 17.2944 16.9892 17.314 16.964C17.3336 16.9388 17.3525 16.9133 17.3708 16.8874C17.389 16.8615 17.4066 16.8353 17.4235 16.8087C17.4404 16.7822 17.4566 16.7553 17.4721 16.7282C17.4876 16.7011 17.5024 16.6737 17.5165 16.646C17.5306 16.6183 17.544 16.5904 17.5567 16.5623C17.5191 16.5481 17.4821 16.5331 17.4456 16.5172C17.4091 16.5012 17.3732 16.4844 17.3379 16.4667C17.3026 16.449 17.2679 16.4305 17.2339 16.4111C17.1999 16.3917 17.1665 16.3715 17.1339 16.3505C17.1013 16.3295 17.0694 16.3077 17.0382 16.2852C17.0071 16.2626 16.9768 16.2393 16.9473 16.2152C16.9178 16.1912 16.8891 16.1664 16.8613 16.141C16.8335 16.1155 16.8067 16.0894 16.7807 16.0627C16.7547 16.0359 16.7297 16.0085 16.7056 15.9806C16.6815 15.9526 16.6584 15.924 16.6363 15.8949C16.6142 15.8658 16.5931 15.8362 16.573 15.8061C16.553 15.7759 16.534 15.7453 16.5161 15.7142C16.4981 15.6832 16.4813 15.6517 16.4655 15.6198C16.4498 15.5879 16.4352 15.5557 16.4216 15.5231C16.4081 15.4905 16.3958 15.4576 16.3845 15.4244C16.3733 15.3912 16.3632 15.3577 16.3543 15.324C16.3454 15.2903 16.3376 15.2564 16.3311 15.2223C16.3245 15.1882 16.3191 15.154 16.3149 15.1197C16.3108 15.0854 16.3078 15.051 16.3059 15.0165C16.3041 14.982 16.3035 14.9475 16.3041 14.913C16.3047 14.8784 16.3065 14.844 16.3095 14.8095C16.3124 14.7751 16.3166 14.7408 16.322 14.7066C16.3273 14.6723 16.3338 14.6383 16.3416 14.6044C16.3493 14.5704 16.3582 14.5368 16.3682 14.5033C16.3783 14.4698 16.3895 14.4366 16.4018 14.4037C16.4142 14.3708 16.4277 14.3382 16.4423 14.3059C16.4569 14.2736 16.4726 14.2417 16.4894 14.2102C16.5063 14.1787 16.5242 14.1477 16.5431 14.1171C16.5621 14.0864 16.5821 14.0563 16.6032 14.0266C16.6243 13.997 16.6463 13.9679 16.6694 13.9393C16.6925 13.9107 16.7166 13.8828 16.7416 13.8554C16.7666 13.828 16.7926 13.8012 16.8195 13.7751C16.8463 13.749 16.8741 13.7235 16.9027 13.6987C16.9314 13.674 16.9609 13.6499 16.9912 13.6266C17.0215 13.6032 17.0526 13.5807 17.0845 13.5588C17.1163 13.537 17.1489 13.516 17.1823 13.4958C17.2156 13.4756 17.2496 13.4562 17.2843 13.4376C17.319 13.419 17.3543 13.4013 17.3902 13.3845C17.4261 13.3677 17.4625 13.3517 17.4995 13.3367C17.5366 13.3216 17.5741 13.3075 17.6121 13.2942C17.65 13.281 17.6885 13.2687 17.7273 13.2573C17.7662 13.246 17.8054 13.2356 17.8449 13.2262C17.8845 13.2167 17.9244 13.2083 17.9645 13.2008C18.0047 13.1933 18.045 13.1868 18.0856 13.1813C18.1262 13.1757 18.167 13.1712 18.2079 13.1677C18.2488 13.1642 18.2898 13.1616 18.3309 13.1601C18.372 13.1586 18.4131 13.158 18.4543 13.1585C18.4954 13.159 18.5365 13.1605 18.5775 13.163C18.6185 13.1655 18.6594 13.1689 18.7002 13.1734C18.741 13.1779 18.7816 13.1834 18.822 13.1899C18.8624 13.1963 18.9025 13.2038 18.9424 13.2122C18.9823 13.2206 19.0219 13.23 19.0611 13.2404C19.1004 13.2507 19.1392 13.262 19.1776 13.2743C19.2161 13.2865 19.2541 13.2997 19.2916 13.3138C19.3292 13.3279 19.3662 13.3429 19.4027 13.3589C19.4392 13.3748 19.4751 13.3916 19.5104 13.4093C19.5458 13.4269 19.5805 13.4454 19.6145 13.4648C19.6486 13.4842 19.6819 13.5043 19.7146 13.5253C19.7472 13.5463 19.7791 13.5681 19.8103 13.5907C19.8414 13.6132 19.8717 13.6365 19.9013 13.6605C19.9308 13.6846 19.9595 13.7093 19.9873 13.7347C20.0151 13.7602 20.042 13.7862 20.068 13.813C20.094 13.8397 20.1191 13.8671 20.1432 13.8951C20.1673 13.923 20.1904 13.9516 20.2125 13.9807C20.2346 14.0098 20.2558 14.0394 20.2758 14.0695C20.2959 14.0996 20.3149 14.1302 20.3329 14.1613C20.3508 14.1923 20.3677 14.2238 20.3835 14.2557C20.3993 14.2876 20.4139 14.3198 20.4275 14.3524C20.441 14.385 20.4534 14.4179 20.4646 14.4511C20.4759 14.4843 20.486 14.5178 20.4949 14.5514C20.5039 14.5851 20.5117 14.619 20.5182 14.6531C20.5248 14.6872 20.5302 14.7214 20.5345 14.7557C20.5387 14.7901 20.5417 14.8245 20.5435 14.859C20.5454 14.8934 20.546 14.9279 20.5454 14.9625C20.5449 14.997 20.5431 15.0314 20.5402 15.0659C20.5372 15.1003 20.5331 15.1346 20.5278 15.1689C20.5224 15.2031 20.5159 15.2372 20.5082 15.2711C20.5005 15.305 20.4917 15.3387 20.4817 15.3722C20.4716 15.4056 20.4605 15.4388 20.4481 15.4718C20.4358 15.5047 20.4223 15.5373 20.4077 15.5696C20.3932 15.6019 20.3775 15.6338 20.3607 15.6653C20.3439 15.6968 20.326 15.7278 20.307 15.7585C20.2881 15.7891 20.2681 15.8193 20.247 15.8489C20.226 15.8786 20.2039 15.9077 20.1809 15.9363C20.1578 15.9649 20.1338 15.9929 20.1088 16.0203C20.0838 16.0477 20.0578 16.0745 20.031 16.1006C20.0041 16.1268 19.9764 16.1522 19.9478 16.177C19.9191 16.2018 19.8897 16.2259 19.8594 16.2492C19.8291 16.2726 19.798 16.2952 19.7661 16.317C19.7343 16.3388 19.7017 16.3599 19.6684 16.3801C19.635 16.4003 19.6011 16.4198 19.5664 16.4383C19.5317 16.4569 19.4964 16.4746 19.4606 16.4915C19.4247 16.5084 19.3882 16.5243 19.3512 16.5394C19.3142 16.5545 19.2767 16.5686 19.2387 16.5819C19.2007 16.5951 19.1623 16.6074 19.1235 16.6188C19.0847 16.6302 19.0455 16.6406 19.0059 16.6501C18.9912 16.6976 18.9751 16.7448 18.9579 16.7916C18.9406 16.8385 18.922 16.885 18.9022 16.9312C18.8824 16.9774 18.8614 17.0232 18.8392 17.0686C18.8169 17.114 18.7935 17.1589 18.7688 17.2034C18.7441 17.2479 18.7183 17.2919 18.6912 17.3354C18.6642 17.379 18.636 17.4219 18.6067 17.4644C18.5773 17.5068 18.5469 17.5487 18.5153 17.59C18.4837 17.6313 18.451 17.672 18.4172 17.7121C18.3834 17.7521 18.3486 17.7915 18.3127 17.8303C18.2768 17.869 18.2399 17.9071 18.2019 17.9444C18.164 17.9818 18.1251 18.0184 18.0852 18.0542C18.0453 18.0901 18.0044 18.1252 17.9626 18.1595C17.9208 18.1939 17.8781 18.2274 17.8345 18.2601C17.7909 18.2928 17.7465 18.3247 17.7012 18.3557C17.6558 18.3867 17.6097 18.4169 17.5628 18.4462C17.5159 18.4754 17.4682 18.5038 17.4197 18.5313C17.3713 18.5588 17.3221 18.5853 17.2722 18.6109C17.2223 18.6366 17.1718 18.6612 17.1206 18.6849C17.0694 18.7086 17.0175 18.7313 16.9651 18.7531C16.9127 18.7748 16.8597 18.7956 16.8062 18.8153C16.7526 18.835 16.6986 18.8537 16.644 18.8714C16.5895 18.8891 16.5345 18.9058 16.479 18.9214C16.4236 18.937 16.3678 18.9515 16.3115 18.965C16.2553 18.9785 16.1987 18.9909 16.1418 19.0023C16.085 19.0136 16.0278 19.0239 15.9703 19.0331C15.9129 19.0423 15.8552 19.0504 15.7974 19.0574C15.7395 19.0644 15.6814 19.0703 15.6232 19.0751C15.565 19.0799 15.5067 19.0836 15.4483 19.0862C15.3899 19.0888 15.3315 19.0903 15.273 19.0907C15.2146 19.0911 15.1561 19.0904 15.0976 19.0886C15.0392 19.0868 14.9809 19.0838 14.9226 19.0798C14.8643 19.0758 14.8061 19.0706 14.7481 19.0644C14.6901 19.0582 14.6323 19.0508 14.5747 19.0424C14.5171 19.034 14.4597 19.0245 14.4027 19.0139C14.3455 19.0033 14.2888 18.9916 14.2323 18.9789C14.1758 18.9662 14.1197 18.9524 14.064 18.9375C14.0083 18.9226 13.9529 18.9067 13.8981 18.8898C13.8432 18.8728 13.7888 18.8548 13.7349 18.8358C13.681 18.8168 13.6276 18.7968 13.5748 18.7757C13.5219 18.7547 13.4697 18.7327 13.418 18.7096C13.3664 18.6866 13.3154 18.6626 13.265 18.6377C13.2147 18.6127 13.165 18.5869 13.116 18.56C13.0671 18.5332 13.0188 18.5055 12.9713 18.4768C12.9239 18.4482 12.8772 18.4186 12.8313 18.3882C12.7854 18.3578 12.7403 18.3265 12.6961 18.2944C12.6519 18.2623 12.6086 18.2293 12.5661 18.1956C12.5237 18.1618 12.4822 18.1273 12.4416 18.0919C12.401 18.0566 12.3614 18.0205 12.3228 17.9837C12.2841 17.9468 12.2465 17.9093 12.2099 17.871C12.1732 17.8328 12.1377 17.7938 12.1031 17.7542C12.0686 17.7146 12.0351 17.6744 12.0028 17.6335C11.9704 17.5926 11.9391 17.5512 11.909 17.5091C11.8788 17.4671 11.8498 17.4245 11.822 17.3813C11.7941 17.3382 11.7674 17.2945 11.7419 17.2503C11.7164 17.2062 11.6921 17.1615 11.669 17.1165C11.6459 17.0714 11.624 17.0259 11.6034 16.98C11.5827 16.934 11.5633 16.8878 11.5451 16.8411C11.5269 16.7945 11.51 16.7475 11.4943 16.7002C11.4787 16.6529 11.4643 16.6054 11.4512 16.5575C11.4381 16.5097 11.4263 16.4617 11.4158 16.4134C11.4053 16.3651 11.3961 16.3166 11.3882 16.268C11.3803 16.2194 11.3737 16.1706 11.3684 16.1218C11.3631 16.0729 11.3591 16.0239 11.3564 15.9749C11.3538 15.9259 11.3524 15.8768 11.3524 15.8277L11.3524 14.8885C11.2913 14.8799 11.2304 14.87 11.1698 14.8591C11.1091 14.8482 11.0488 14.8361 10.9888 14.823C10.9288 14.8098 10.8692 14.7955 10.81 14.7802C10.7507 14.7648 10.6919 14.7484 10.6335 14.7309C10.5751 14.7134 10.5172 14.6948 10.4597 14.6752C10.4023 14.6555 10.3454 14.6348 10.2891 14.6131C10.2327 14.5913 10.177 14.5686 10.1219 14.5448C10.0667 14.521 10.0122 14.4962 9.95833 14.4704C9.90446 14.4446 9.85131 14.4178 9.79885 14.3901C9.74639 14.3623 9.69468 14.3336 9.64371 14.304C9.59276 14.2743 9.54259 14.2437 9.49323 14.2122C9.44386 14.1807 9.39535 14.1483 9.34769 14.115C9.30001 14.0818 9.25323 14.0476 9.20734 14.0126C9.16146 13.9776 9.11651 13.9418 9.07249 13.9051C9.02848 13.8684 8.98544 13.831 8.94338 13.7927C8.90133 13.7545 8.86029 13.7155 8.82027 13.6757C8.78025 13.636 8.74128 13.5955 8.70337 13.5543C8.66546 13.5131 8.62865 13.4713 8.59294 13.4287C8.55722 13.3862 8.52262 13.343 8.48917 13.2992C8.4557 13.2554 8.42339 13.211 8.39225 13.166C8.3611 13.121 8.33115 13.0754 8.3024 13.0293C8.27363 12.9832 8.24608 12.9366 8.21975 12.8895C8.19343 12.8423 8.16834 12.7948 8.14449 12.7467C8.12065 12.6987 8.09808 12.6502 8.07677 12.6013C8.05545 12.5525 8.03543 12.5032 8.01669 12.4536C7.99796 12.404 7.98053 12.3541 7.9644 12.3038C7.94826 12.2536 7.93345 12.203 7.91996 12.1522C7.90647 12.1014 7.89432 12.0504 7.88349 11.9992C7.87267 11.9479 7.86318 11.8965 7.85504 11.8449C7.84691 11.7933 7.84013 11.7416 7.8347 11.6898C7.82925 11.6379 7.82517 11.586 7.82245 11.534C7.81972 11.482 7.81836 11.43 7.81836 11.378L7.81836 8.41143C7.81836 8.40171 7.81864 8.392 7.8192 8.38231C7.81977 8.37261 7.82062 8.36293 7.82176 8.35327C7.82289 8.3436 7.82431 8.33397 7.826 8.32436C7.8277 8.31476 7.82968 8.3052 7.83193 8.29568C7.83419 8.28615 7.83673 8.27668 7.83953 8.26727C7.84235 8.25784 7.84544 8.24848 7.8488 8.23919C7.85216 8.2299 7.85578 8.22069 7.85968 8.21155C7.86358 8.20241 7.86774 8.19335 7.87216 8.18437C7.87659 8.1754 7.88128 8.16652 7.88623 8.15775C7.89118 8.14897 7.89638 8.1403 7.90183 8.13174C7.90728 8.12318 7.91298 8.11473 7.91893 8.10641C7.92488 8.09807 7.93106 8.08987 7.93749 8.08179C7.94392 8.07372 7.95058 8.06578 7.95747 8.05799C7.96437 8.05019 7.97149 8.04254 7.97883 8.03503C7.98617 8.02753 7.99372 8.02018 8.00148 8.01297C8.00926 8.00578 8.01723 7.99875 8.02541 7.99189C8.03359 7.98502 8.04197 7.97833 8.05054 7.97181C8.05912 7.96529 8.06788 7.95895 8.07682 7.95279C8.08577 7.94663 8.09489 7.94065 8.10418 7.93487C8.11347 7.92909 8.12292 7.92351 8.13255 7.91811C8.14217 7.91271 8.15194 7.90752 8.16186 7.90252C8.17179 7.89753 8.18185 7.89275 8.19205 7.88817C8.20225 7.88359 8.21259 7.87923 8.22305 7.87507C8.23351 7.87093 8.24409 7.867 8.25478 7.86328C8.26546 7.85956 8.27625 7.85607 8.28714 7.8528C8.29804 7.84952 8.30902 7.84648 8.32009 7.84366C8.33116 7.84084 8.34231 7.83825 8.35353 7.8359C8.36475 7.83354 8.37604 7.83141 8.38738 7.82952C8.39874 7.82762 8.41014 7.82596 8.42158 7.82454C8.43302 7.82311 8.4445 7.82192 8.45601 7.82097C8.46753 7.82002 8.47907 7.81931 8.49062 7.81882C8.50218 7.81835 8.51374 7.81812 8.5253 7.81812L10.6462 7.81812ZM18.4227 14.3445C18.4111 14.3445 18.3995 14.3447 18.388 14.3452C18.3764 14.3456 18.3649 14.3463 18.3533 14.3473C18.3418 14.3482 18.3303 14.3494 18.3189 14.3508C18.3074 14.3522 18.296 14.3539 18.2847 14.3558C18.2733 14.3577 18.262 14.3598 18.2508 14.3622C18.2395 14.3645 18.2284 14.3671 18.2173 14.3699C18.2062 14.3727 18.1952 14.3757 18.1843 14.379C18.1734 14.3823 18.1626 14.3858 18.1519 14.3895C18.1412 14.3932 18.1307 14.3971 18.1202 14.4013C18.1097 14.4054 18.0994 14.4098 18.0892 14.4144C18.0789 14.4189 18.0689 14.4237 18.0589 14.4287C18.049 14.4337 18.0392 14.4389 18.0296 14.4443C18.02 14.4497 18.0105 14.4552 18.0012 14.461C17.9919 14.4668 17.9828 14.4728 17.9738 14.479C17.9648 14.4851 17.9561 14.4914 17.9475 14.498C17.9389 14.5045 17.9305 14.5112 17.9223 14.518C17.9142 14.5249 17.9062 14.532 17.8984 14.5392C17.8906 14.5463 17.883 14.5537 17.8757 14.5612C17.8684 14.5687 17.8612 14.5764 17.8543 14.5842C17.8474 14.592 17.8408 14.5999 17.8343 14.608C17.8279 14.6161 17.8217 14.6243 17.8157 14.6326C17.8098 14.6409 17.8041 14.6494 17.7986 14.6579C17.7932 14.6665 17.788 14.6752 17.783 14.684C17.778 14.6928 17.7734 14.7016 17.7689 14.7106C17.7645 14.7196 17.7603 14.7286 17.7564 14.7378C17.7525 14.7469 17.7489 14.7562 17.7455 14.7655C17.7422 14.7748 17.7391 14.7841 17.7363 14.7935C17.7334 14.803 17.7309 14.8124 17.7286 14.822C17.7264 14.8315 17.7244 14.8411 17.7227 14.8507C17.721 14.8603 17.7196 14.8699 17.7184 14.8796C17.7173 14.8893 17.7165 14.8989 17.7159 14.9087C17.7153 14.9184 17.715 14.9281 17.715 14.9378C17.715 14.9475 17.7153 14.9572 17.7159 14.9669C17.7165 14.9766 17.7173 14.9863 17.7184 14.996C17.7196 15.0056 17.721 15.0153 17.7227 15.0249C17.7244 15.0345 17.7264 15.0441 17.7286 15.0536C17.7309 15.0631 17.7334 15.0726 17.7363 15.082C17.7391 15.0915 17.7422 15.1008 17.7455 15.1101C17.7489 15.1194 17.7525 15.1286 17.7564 15.1378C17.7603 15.1469 17.7645 15.156 17.7689 15.165C17.7734 15.1739 17.778 15.1828 17.783 15.1916C17.788 15.2004 17.7932 15.2091 17.7986 15.2176C17.8041 15.2262 17.8098 15.2347 17.8157 15.243C17.8217 15.2513 17.8279 15.2595 17.8343 15.2676C17.8408 15.2757 17.8474 15.2836 17.8543 15.2914C17.8612 15.2992 17.8684 15.3069 17.8757 15.3144C17.883 15.3219 17.8906 15.3292 17.8984 15.3364C17.9062 15.3436 17.9142 15.3507 17.9223 15.3575C17.9305 15.3644 17.9389 15.3711 17.9475 15.3776C17.9561 15.3841 17.9648 15.3905 17.9738 15.3966C17.9828 15.4028 17.9919 15.4088 18.0012 15.4145C18.0105 15.4203 18.02 15.4259 18.0296 15.4313C18.0392 15.4367 18.049 15.4419 18.0589 15.4469C18.0689 15.4519 18.0789 15.4566 18.0892 15.4612C18.0994 15.4658 18.1097 15.4702 18.1202 15.4743C18.1307 15.4785 18.1412 15.4824 18.1519 15.4861C18.1626 15.4898 18.1734 15.4933 18.1843 15.4966C18.1952 15.4998 18.2062 15.5029 18.2173 15.5057C18.2284 15.5085 18.2395 15.5111 18.2508 15.5134C18.262 15.5158 18.2733 15.5179 18.2847 15.5198C18.296 15.5217 18.3074 15.5233 18.3189 15.5248C18.3303 15.5262 18.3418 15.5273 18.3533 15.5283C18.3649 15.5292 18.3764 15.5299 18.388 15.5304C18.3995 15.5309 18.4111 15.5311 18.4227 15.5311C18.4342 15.5311 18.4458 15.5308 18.4573 15.5303C18.4689 15.5299 18.4804 15.5292 18.4919 15.5282C18.5034 15.5272 18.5149 15.526 18.5263 15.5246C18.5378 15.5232 18.5492 15.5215 18.5605 15.5196C18.5718 15.5177 18.5831 15.5156 18.5943 15.5132C18.6055 15.5108 18.6167 15.5082 18.6277 15.5054C18.6388 15.5026 18.6498 15.4995 18.6607 15.4963C18.6716 15.493 18.6823 15.4895 18.693 15.4858C18.7037 15.4821 18.7142 15.4781 18.7247 15.474C18.7351 15.4698 18.7455 15.4654 18.7557 15.4608C18.7659 15.4563 18.7759 15.4515 18.7858 15.4465C18.7957 15.4415 18.8055 15.4363 18.8151 15.4309C18.8247 15.4255 18.8342 15.4199 18.8434 15.4141C18.8527 15.4083 18.8619 15.4024 18.8708 15.3962C18.8797 15.3901 18.8885 15.3837 18.897 15.3772C18.9056 15.3707 18.914 15.364 18.9221 15.3571C18.9303 15.3503 18.9383 15.3432 18.946 15.336C18.9538 15.3288 18.9613 15.3215 18.9687 15.314C18.976 15.3065 18.9831 15.2988 18.99 15.291C18.9969 15.2832 19.0035 15.2753 19.0099 15.2672C19.0164 15.2592 19.0225 15.251 19.0285 15.2426C19.0344 15.2343 19.0401 15.2259 19.0456 15.2173C19.051 15.2088 19.0562 15.2001 19.0611 15.1913C19.0661 15.1825 19.0708 15.1737 19.0752 15.1647C19.0796 15.1557 19.0838 15.1467 19.0877 15.1375C19.0916 15.1284 19.0952 15.1192 19.0985 15.1099C19.1019 15.1006 19.105 15.0913 19.1078 15.0819C19.1106 15.0724 19.1131 15.063 19.1154 15.0535C19.1176 15.0439 19.1196 15.0344 19.1213 15.0248C19.123 15.0152 19.1244 15.0056 19.1256 14.9959C19.1267 14.9862 19.1275 14.9766 19.1281 14.9669C19.1287 14.9572 19.129 14.9475 19.129 14.9378C19.129 14.9281 19.1287 14.9184 19.1281 14.9087C19.1275 14.899 19.1267 14.8893 19.1256 14.8797C19.1244 14.87 19.123 14.8604 19.1213 14.8508C19.1196 14.8412 19.1176 14.8316 19.1154 14.8221C19.1131 14.8126 19.1106 14.8031 19.1078 14.7937C19.105 14.7843 19.1019 14.775 19.0985 14.7657C19.0952 14.7564 19.0916 14.7472 19.0877 14.738C19.0838 14.7289 19.0796 14.7198 19.0752 14.7109C19.0708 14.7019 19.0661 14.693 19.0611 14.6843C19.0562 14.6755 19.051 14.6668 19.0456 14.6583C19.0401 14.6497 19.0344 14.6413 19.0285 14.6329C19.0225 14.6246 19.0164 14.6164 19.0099 14.6083C19.0035 14.6003 18.9969 14.5923 18.99 14.5845C18.9831 14.5767 18.976 14.5691 18.9687 14.5616C18.9613 14.5541 18.9538 14.5467 18.946 14.5395C18.9383 14.5324 18.9303 14.5253 18.9221 14.5185C18.914 14.5116 18.9056 14.5049 18.897 14.4984C18.8885 14.4919 18.8797 14.4855 18.8708 14.4794C18.8619 14.4732 18.8527 14.4672 18.8434 14.4615C18.8342 14.4557 18.8247 14.4501 18.8151 14.4447C18.8055 14.4393 18.7957 14.4341 18.7858 14.4291C18.7759 14.4241 18.7659 14.4193 18.7557 14.4147C18.7455 14.4102 18.7351 14.4058 18.7247 14.4016C18.7142 14.3975 18.7037 14.3935 18.693 14.3898C18.6823 14.3861 18.6716 14.3826 18.6607 14.3793C18.6498 14.376 18.6388 14.373 18.6277 14.3702C18.6167 14.3673 18.6055 14.3648 18.5943 14.3624C18.5831 14.36 18.5718 14.3579 18.5605 14.356C18.5492 14.3541 18.5378 14.3524 18.5263 14.351C18.5149 14.3496 18.5034 14.3484 18.4919 14.3474C18.4804 14.3464 18.4689 14.3457 18.4573 14.3452C18.4458 14.3447 18.4342 14.3445 18.4227 14.3445Z" stroke="rgba(204, 78, 29, 1)" stroke-width="0.5"      fill="#CC4E1D" ></path><path    stroke="rgba(3, 79, 161, 1)" stroke-width="1.6"    d="M20.909 11.2726C20.909 10.4755 20.8035 9.70236 20.6072 8.96716C19.5914 5.16408 16.1232 2.36353 11.9999 2.36353C7.07956 2.36353 3.09082 6.35226 3.09082 11.2726C3.09082 15.4795 6.00623 19.004 9.92718 19.9381C10.2632 20.0181 10.6067 20.0791 10.9563 20.1199"></path><ellipse cx="20.81853675842285" cy="10.280902862548828" rx="1.1818180084228516" ry="1.1900825500488281" stroke="rgba(3, 79, 161, 1)" stroke-width="1.6"      fill="#FFFFFF" ></ellipse><ellipse cx="9.909357070922852" cy="20.099262237548828" rx="1.1818180084228516" ry="1.1900825500488281" stroke="rgba(3, 79, 161, 1)" stroke-width="1.6"      fill="#FFFFFF" ></ellipse></g><defs><clipPath id="clip-path-72_2972"><path d="M0 24L24 24L24 0L0 0L0 24Z" fill="white"/></clipPath></defs></svg>