<svg xmlns="http://www.w3.org/2000/svg" xmlns:xlink="http://www.w3.org/1999/xlink" width="24" height="24" viewBox="0 0 24 24" fill="none"><path   fill="rgba(3, 79, 161, 1)"  d="M19.4398 10.5134L19.4398 5.93321L20.2398 5.93321L19.4398 5.93321C19.4398 4.95395 18.646 4.16011 17.6667 4.16011L17.6667 4.16011L6.12291 4.16011L6.12291 3.36011L6.12291 4.16011C5.14365 4.16011 4.3498 4.95395 4.3498 5.93321L4.3498 5.93321L4.3498 18.1337L3.5498 18.1337L4.3498 18.1337C4.3498 19.1129 5.14365 19.9068 6.12291 19.9068L6.12291 20.7068L6.12291 19.9068L11.7831 19.9068L11.7831 21.5068L6.12291 21.5068L6.12291 21.5068C4.25999 21.5068 2.7498 19.9966 2.7498 18.1337L2.7498 18.1337L2.7498 5.93321L3.5498 5.93321L2.7498 5.93321C2.7498 4.0703 4.25999 2.56011 6.12291 2.56011L6.12291 2.56011L17.6667 2.56011L17.6667 3.36011L17.6667 2.56011C19.5296 2.56011 21.0398 4.0703 21.0398 5.93321L21.0398 5.93321L21.0398 10.5134L19.4398 10.5134ZM11.7831 21.5068C11.3413 21.5068 10.9831 21.1486 10.9831 20.7068C10.9831 20.265 11.3413 19.9068 11.7831 19.9068C12.225 19.9068 12.5831 20.265 12.5831 20.7068C12.5831 21.1486 12.225 21.5068 11.7831 21.5068ZM20.2398 11.3134C19.798 11.3134 19.4398 10.9553 19.4398 10.5134C19.4398 10.0716 19.798 9.71344 20.2398 9.71344C20.6816 9.71344 21.0398 10.0716 21.0398 10.5134C21.0398 10.9553 20.6816 11.3134 20.2398 11.3134Z"></path><path d="M15.9165 21.1533C16.1631 21.2907 16.4407 21.3599 16.7171 21.3599C16.9935 21.3599 17.2711 21.2907 17.5177 21.1533L20.7499 19.3446C21.2443 19.0687 21.5505 18.5539 21.5505 18.0022L21.5505 14.3847C21.5505 13.8329 21.2431 13.3181 20.7499 13.0423L17.5165 11.2335C17.0233 10.9576 16.4098 10.9576 15.9165 11.2335L12.6844 13.0423C12.19 13.3181 11.8838 13.8329 11.8838 14.3847L11.8838 18.0022C11.8838 18.5539 12.1912 19.0687 12.6844 19.3446L15.9165 21.1533ZM16.4515 12.1304C16.5337 12.0842 16.6254 12.0611 16.7171 12.0611C16.8089 12.0611 16.9006 12.0842 16.9828 12.1304L20.2161 13.9391C20.3806 14.0303 20.4818 14.2012 20.4818 14.3847L20.4818 18.0022C20.4818 18.1857 20.3806 18.3565 20.2161 18.4477L16.9828 20.2565C16.8184 20.3477 16.6159 20.3477 16.4515 20.2565L13.2181 18.4477C13.0537 18.3565 12.9524 18.1857 12.9524 18.0022L12.9524 14.3847C12.9524 14.2012 13.0537 14.0303 13.2181 13.9391L16.4515 12.1304ZM14.6861 15.5648L16.2885 16.3799L16.2885 18.2228C16.2885 18.5351 16.5532 18.7896 16.8782 18.7896C17.2032 18.7896 17.4646 18.5338 17.4646 18.2228L17.4646 16.4066L19.0168 15.6055C19.2972 15.4481 19.3932 15.1016 19.2294 14.8321C19.0656 14.5626 18.7043 14.4743 18.4239 14.6317L16.9062 15.402L15.2757 14.5848C14.994 14.4286 14.6359 14.5207 14.4734 14.7914C14.3109 15.0621 14.4043 15.4087 14.6861 15.5648Z" fill-rule="evenodd"  fill="#CC4E1D" ></path><path     fill="#034FA1"  d="M10.1237 6.69336L15.4629 6.69336C15.8311 6.69336 16.1295 6.99184 16.1295 7.36003L16.1295 7.36003C16.1295 7.72822 15.8311 8.02669 15.4629 8.02669L10.1237 8.02669C9.75551 8.02669 9.45703 7.72821 9.45703 7.36002L9.45703 7.36002C9.45703 6.99184 9.75551 6.69336 10.1237 6.69336Z"></path><path     fill="#034FA1"  d="M10.1237 11.0266L12.1237 11.0266C12.4919 11.0266 12.7904 11.3251 12.7904 11.6933L12.7904 11.6933C12.7904 12.0615 12.4919 12.3599 12.1237 12.3599L10.1237 12.3599C9.75551 12.3599 9.45703 12.0615 9.45703 11.6933L9.45703 11.6933C9.45703 11.3251 9.75551 11.0266 10.1237 11.0266Z"></path><path fill-rule="evenodd"  fill="rgba(3, 79, 161, 1)"  d="M7.70712 5.49336L6.39379 5.49336C5.72552 5.49336 5.18379 6.03509 5.18379 6.70336L5.18379 8.01669C5.18379 8.68496 5.72552 9.22669 6.39379 9.22669L7.70712 9.22669C8.37539 9.22669 8.91712 8.68496 8.91712 8.01669L8.91712 6.70336C8.91712 6.03509 8.37539 5.49336 7.70712 5.49336ZM7.70712 6.69336L6.39379 6.69336C6.38827 6.69336 6.38379 6.69784 6.38379 6.70336L6.38379 8.01669C6.38379 8.02222 6.38827 8.02669 6.39379 8.02669L7.70712 8.02669C7.71265 8.02669 7.71712 8.02222 7.71712 8.01669L7.71712 6.70336C7.71712 6.69784 7.71265 6.69336 7.70712 6.69336Z"></path><path fill-rule="evenodd"  fill="rgba(3, 79, 161, 1)"  d="M7.70712 9.82661L6.39379 9.82661C5.72552 9.82661 5.18379 10.3683 5.18379 11.0366L5.18379 12.3499C5.18379 13.0182 5.72552 13.5599 6.39379 13.5599L7.70712 13.5599C8.37539 13.5599 8.91712 13.0182 8.91712 12.3499L8.91712 11.0366C8.91712 10.3683 8.37539 9.82661 7.70712 9.82661ZM7.70712 11.0266L6.39379 11.0266C6.38827 11.0266 6.38379 11.0311 6.38379 11.0366L6.38379 12.3499C6.38379 12.3555 6.38827 12.3599 6.39379 12.3599L7.70712 12.3599C7.71265 12.3599 7.71712 12.3555 7.71712 12.3499L7.71712 11.0366C7.71712 11.0311 7.71265 11.0266 7.70712 11.0266Z"></path></svg>