<svg xmlns="http://www.w3.org/2000/svg" xmlns:xlink="http://www.w3.org/1999/xlink" width="24" height="24" viewBox="0 0 24 24" fill="none"><path d="M13.0369 18.5616C12.721 18.1809 12.4419 17.7685 12.2052 17.33C9.04302 17.3219 6.46999 14.744 6.46999 11.58C6.46999 8.41106 9.05106 5.82999 12.22 5.82999C13.4944 5.82999 14.6738 6.24745 15.6284 6.95272C16.071 6.74437 16.5372 6.57789 17.0219 6.4584C16.8615 6.30777 16.694 6.16475 16.52 6.02999L16.88 5.28999L16.89 5.28999C17.1318 5.28999 17.3764 5.2395 17.6 5.12999C17.9832 4.93835 18.2685 4.61152 18.41 4.20999C18.5446 3.80845 18.5216 3.37328 18.33 2.98999C17.9307 2.20517 16.9693 1.88214 16.18 2.26999C15.3929 2.66468 15.0721 3.61833 15.46 4.40999C15.5238 4.54459 15.6173 4.66048 15.72 4.76999L15.44 5.32999C14.4749 4.8372 13.3767 4.54999 12.22 4.54999C11.4785 4.54999 10.7707 4.67097 10.1 4.88999L9.93999 4.61999C10.0495 4.49223 10.1361 4.33653 10.2 4.16999C10.5148 3.34638 10.1036 2.42483 9.27999 2.10999C8.46095 1.79287 7.54484 2.20095 7.22999 3.01999C7.07714 3.41468 7.08659 3.85214 7.25999 4.23999C7.43339 4.63696 7.74845 4.9317 8.14999 5.07999C8.33479 5.15756 8.51834 5.18999 8.70999 5.18999L8.79999 5.18999L8.90999 5.38999C8.2324 5.75502 7.62248 6.22559 7.09999 6.77999L5.14999 5.24999C5.20018 5.04466 5.20878 4.82673 5.16999 4.60999C5.10611 4.18793 4.88133 3.8241 4.52999 3.57999C4.18776 3.33131 3.7575 3.22698 3.33999 3.29999C2.91792 3.36387 2.54411 3.59864 2.29999 3.94999C2.05131 4.29448 1.94927 4.71792 2.01999 5.13999C2.16828 6.00922 2.99076 6.58914 3.85999 6.44999C4.04479 6.41804 4.21028 6.35894 4.36999 6.26999L6.30999 7.79999C5.57991 8.92929 5.19999 10.2362 5.19999 11.58C5.19999 12.5564 5.39724 13.489 5.75999 14.34L5.27999 14.53C5.09519 14.3703 4.88095 14.247 4.62999 14.19C4.22161 14.0827 3.78274 14.1409 3.41999 14.36C3.05495 14.5767 2.7895 14.9248 2.67999 15.34C2.57048 15.7552 2.64097 16.1872 2.85999 16.55C3.07901 16.9127 3.41477 17.1705 3.82999 17.28C3.97144 17.3119 4.10223 17.33 4.22999 17.33C4.95778 17.33 5.59976 16.8349 5.77999 16.13C5.81878 15.9839 5.82999 15.836 5.82999 15.69L6.36999 15.46C7.33733 16.911 8.8017 17.9565 10.49 18.39L10.41 18.63C10.1681 18.6619 9.92989 18.7385 9.71999 18.88C9.36864 19.1218 9.13529 19.4947 9.05999 19.91C8.9824 20.332 9.07503 20.7509 9.30999 21.1C9.55184 21.4513 9.91479 21.6878 10.33 21.77C10.4258 21.7882 10.5241 21.79 10.62 21.79C10.9394 21.79 11.2508 21.6948 11.52 21.51C11.8713 21.2682 12.1147 20.9052 12.19 20.49C12.2676 20.0748 12.175 19.6491 11.94 19.3C11.8578 19.1791 11.7495 19.069 11.64 18.98L11.77 18.58C11.916 18.58 12.074 18.61 12.22 18.61C12.4963 18.61 12.7689 18.5935 13.0369 18.5616ZM8.41999 3.71999C8.38804 3.64242 8.38264 3.55756 8.40999 3.47999C8.46019 3.35223 8.58224 3.27999 8.70999 3.27999L8.72152 3.27996C8.75745 3.27984 8.79706 3.2797 8.82999 3.28999C8.93949 3.32877 8.98174 3.41436 8.99999 3.45999C9.0707 3.62197 9.00195 3.80927 8.83999 3.87999C8.7624 3.91421 8.66754 3.91965 8.58999 3.88999C8.51014 3.86261 8.4542 3.79756 8.41999 3.71999ZM16.74 3.40999C16.8153 3.37349 16.9124 3.37261 16.99 3.39999C17.0356 3.41368 17.1198 3.45732 17.17 3.55999C17.2498 3.71513 17.1951 3.91014 17.04 3.98999L17.03 3.98999C16.8748 4.06984 16.6798 4.00513 16.6 3.84999C16.5247 3.69485 16.5849 3.4944 16.74 3.40999ZM3.28999 4.91999C3.27174 4.80592 3.3149 4.72877 3.33999 4.68999C3.36509 4.65121 3.43592 4.57824 3.54999 4.55999C3.56824 4.55999 3.58858 4.54999 3.59999 4.54999C3.68897 4.54999 3.74805 4.59174 3.77999 4.60999C3.81878 4.63509 3.89174 4.70048 3.90999 4.80999C3.93509 4.98338 3.82338 5.14805 3.64999 5.17999C3.48117 5.20965 3.31737 5.09338 3.28999 4.91999ZM10.94 20.26C10.94 20.3102 10.9058 20.3961 10.81 20.46C10.727 20.5153 10.642 20.5123 10.591 20.5105C10.5832 20.5102 10.5761 20.51 10.57 20.51C10.4856 20.4963 10.4056 20.453 10.36 20.38C10.3047 20.297 10.3077 20.212 10.3095 20.1611C10.3097 20.1532 10.31 20.1461 10.31 20.14C10.31 20.0944 10.3542 20.0039 10.45 19.94C10.5184 19.8921 10.5955 19.874 10.68 19.89C10.7301 19.89 10.8261 19.9241 10.89 20.02C10.9516 20.1158 10.9514 20.2144 10.94 20.26Z" stroke="rgba(3, 79, 161, 1)" stroke-width="0.2"    fill-rule="evenodd"  fill="#034FA1" ></path><g ><path     fill="#034FA1"  d="M14.616 8.416L14.616 14.952L9.312 14.952L9.312 8.416L14.616 8.416ZM10.384 9.44L10.384 11.072L13.544 11.072L13.544 9.44L10.384 9.44ZM13.544 13.928L13.544 12.088L10.384 12.088L10.384 13.928L13.544 13.928Z"></path></g><path     fill="#CC4E1D"  d="M16.7762 8.41724L21.0823 8.41724C21.5886 8.41724 21.9991 8.8277 21.9991 9.33403L21.9991 9.33403C21.9991 9.84035 21.5886 10.2508 21.0823 10.2508L16.7762 10.2508C16.2698 10.2508 15.8594 9.84035 15.8594 9.33403L15.8594 9.33403C15.8594 8.8277 16.2698 8.41724 16.7762 8.41724Z"></path><path     fill="#CC4E1D"  d="M15.2119 11.5842L21.0819 11.5842C21.5872 11.5842 21.9969 11.9939 21.9969 12.4992L21.9969 12.4992C21.9969 13.0046 21.5872 13.4142 21.0819 13.4142L15.2119 13.4143C14.7066 13.4143 14.2969 13.0046 14.2969 12.4993L14.2969 12.4993C14.2969 11.9939 14.7066 11.5842 15.2119 11.5842Z"></path><path     fill="#CC4E1D"  d="M16.1914 14.7512L21.0814 14.7512C21.5867 14.7512 21.9964 15.1609 21.9964 15.6662L21.9964 15.6662C21.9964 16.1716 21.5867 16.5812 21.0814 16.5812L16.1914 16.5813C15.686 16.5813 15.2764 16.1716 15.2764 15.6663L15.2764 15.6663C15.2764 15.1609 15.686 14.7512 16.1914 14.7512Z"></path></svg>