<svg xmlns="http://www.w3.org/2000/svg" xmlns:xlink="http://www.w3.org/1999/xlink" width="24" height="24" viewBox="0 0 24 24" fill="none"><path d="M10.5715 2.5C5.79502 2.5 2 6.801 2 12.0239C2 17.2467 5.79502 21.5477 10.5715 21.5477C15.3479 21.5477 19.1429 17.2467 19.1429 12.0239C19.1429 6.801 15.3479 2.5 10.5715 2.5ZM10.5715 3.92857C14.5164 3.92857 17.7143 7.55297 17.7143 12.0239C17.7143 16.4947 14.5164 20.1191 10.5715 20.1191C6.62656 20.1191 3.42858 16.4947 3.42858 12.0239C3.42858 7.55297 6.62656 3.92857 10.5715 3.92857Z"   fill="#034FA1" ></path><path d="M13.4289 2.5C8.65244 2.5 4.85742 6.801 4.85742 12.0239C4.85742 17.2467 8.65244 21.5477 13.4289 21.5477C18.2053 21.5477 22.0003 17.2467 22.0003 12.0239C22.0003 6.801 18.2053 2.5 13.4289 2.5ZM13.4289 3.92857C17.3738 3.92857 20.5718 7.55297 20.5718 12.0239C20.5718 16.4947 17.3738 20.1191 13.4289 20.1191C9.48398 20.1191 6.286 16.4947 6.286 12.0239C6.286 7.55297 9.48398 3.92857 13.4289 3.92857Z"   fill="#034FA1" ></path><path d="M11.2861 14.881L11.2861 9.16668C11.2861 8.69049 11.5242 8.45239 12.0004 8.45239C12.4766 8.45239 12.7147 8.69049 12.7147 9.16668L12.7147 14.881C12.7147 15.3572 12.4766 15.5953 12.0004 15.5953C11.5242 15.5953 11.2861 15.3572 11.2861 14.881Z"   fill="#CC4E1D" ></path><path d="M9.143 11.3096L14.8573 11.3096C15.3335 11.3096 15.5716 11.5477 15.5716 12.0239C15.5716 12.5001 15.3335 12.7381 14.8573 12.7381L9.143 12.7381C8.66681 12.7381 8.42871 12.5001 8.42871 12.0239C8.42871 11.5477 8.66681 11.3096 9.143 11.3096Z"   fill="#CC4E1D" ></path></svg>