<svg xmlns="http://www.w3.org/2000/svg" xmlns:xlink="http://www.w3.org/1999/xlink" width="24" height="24" viewBox="0 0 24 24" fill="none"><path d="M15.5161 19.6181C15.1137 19.3569 14.7401 19.055 14.4012 18.7181L5.77754 18.7181L5.77754 14.9581L12.4568 14.9581C12.408 14.664 12.3777 14.3636 12.3673 14.0581L3.61754 14.0581L3.61743 5.41809C3.61743 4.47628 4.39267 3.70813 5.33765 3.70813L6.95752 3.70813C6.99119 3.70813 7.02402 3.71814 7.05762 3.71814C7.09122 3.71814 7.12402 3.72815 7.15747 3.72815C7.19089 3.72815 7.22433 3.74817 7.25757 3.74817C7.29077 3.74817 7.33449 3.75806 7.36743 3.75806C7.40038 3.75806 7.42494 3.78809 7.45752 3.78809C7.49014 3.78809 7.52544 3.80811 7.55762 3.81812C7.58984 3.82812 7.61572 3.83677 7.64746 3.84814C7.67921 3.85952 7.71632 3.86544 7.74756 3.87817C7.77879 3.8909 7.80699 3.90403 7.83765 3.91809C7.8683 3.93215 7.89749 3.95277 7.92749 3.96814C7.95753 3.98351 7.98823 4.00143 8.01758 4.01807C8.04692 4.03471 8.07884 4.05022 8.10742 4.06812C8.136 4.086 8.15972 4.09906 8.1875 4.11816C8.21528 4.13727 8.25064 4.15782 8.27759 4.1781C8.30453 4.19838 8.33135 4.22675 8.35742 4.24817C8.38346 4.26959 8.4024 4.28559 8.42749 4.30811C8.45258 4.33063 8.47345 4.3546 8.49756 4.37817C8.52167 4.40174 8.55455 4.42352 8.57764 4.44812C8.60069 4.47271 8.61545 4.50252 8.63745 4.52808C8.65941 4.55364 8.68665 4.58167 8.70752 4.60815C8.72839 4.63463 8.74787 4.66074 8.76758 4.68811C8.78729 4.71546 8.80909 4.7399 8.82764 4.76807C8.84615 4.79624 8.86017 4.82919 8.87744 4.85815C8.89475 4.8871 8.91145 4.90844 8.92749 4.93811C8.94356 4.96776 8.96281 4.99774 8.97754 5.02808C8.9923 5.05839 9.00416 5.08721 9.01758 5.11816C9.031 5.14909 9.04551 5.18666 9.05762 5.21814C9.06969 5.24962 9.07692 5.28614 9.08765 5.31812C9.09837 5.35009 9.11743 5.37566 9.11743 5.40808C9.11743 5.44048 9.14746 5.47529 9.14746 5.50806C9.14746 5.54083 9.16748 5.57507 9.16748 5.60815L7.49756 5.60815C7.25087 5.60815 7.04761 5.80176 7.04761 6.0481C7.04761 6.29402 7.25087 6.49817 7.49756 6.49817L11.8176 6.49817C12.0648 6.49817 12.2676 6.29402 12.2676 6.0481C12.2676 5.80176 12.0648 5.60815 11.8176 5.60815L10.0776 5.60815C9.85942 4.03491 8.49473 2.81812 6.85742 2.81812L5.33765 2.81812C3.89962 2.81812 2.72754 3.98441 2.72754 5.41809L2.72754 14.5681L2.73754 14.5881L2.73754 14.6081L2.74754 14.6281L2.74754 14.6581L2.75754 14.6781L2.76754 14.6981L2.77754 14.7181L2.78754 14.7381L2.79754 14.7581L2.80754 14.7681L2.82754 14.7881L2.83754 14.8081L2.85754 14.8181L2.86754 14.8381L2.88754 14.8481L2.90754 14.8681L2.91754 14.8781L2.93754 14.8881L2.95754 14.8981L2.97754 14.9181L2.99754 14.9181L3.02754 14.9281L3.03754 14.9381L3.06754 14.9381L3.08754 14.9481L3.12754 14.9481L3.15754 14.9581L4.88754 14.9581L4.88754 18.7181L3.17754 18.7181C2.93042 18.7181 2.72754 18.9222 2.72754 19.1681C2.72754 19.414 2.93042 19.6181 3.17754 19.6181L15.5161 19.6181ZM12.8373 11.2981L9.19754 11.2981C8.95085 11.2981 8.74754 11.5022 8.74754 11.7481C8.74754 11.9944 8.95085 12.1881 9.19754 12.1881L12.5567 12.1881C12.6305 11.883 12.7245 11.5859 12.8373 11.2981ZM6.39754 8.28811C7.47772 8.28811 8.35754 9.16106 8.35754 10.2381C8.35754 11.3151 7.47772 12.1881 6.39754 12.1881C5.31734 12.1881 4.43754 11.3151 4.43754 10.2381C4.43754 9.16106 5.31734 8.28811 6.39754 8.28811ZM6.39754 9.17811L6.28754 9.17811C6.27023 9.17811 6.25476 9.18811 6.23754 9.18811C6.22032 9.18811 6.2046 9.19811 6.18754 9.19811C6.17047 9.19811 6.15442 9.20811 6.13754 9.20811C6.12066 9.20811 6.1042 9.21811 6.08754 9.21811C6.07089 9.21811 6.05392 9.23811 6.03754 9.23811C6.02115 9.23811 6.00362 9.25811 5.98754 9.25811C5.97146 9.25811 5.95328 9.27811 5.93754 9.27811C5.9218 9.27811 5.91289 9.29811 5.89754 9.29811C5.88219 9.29811 5.86247 9.32811 5.84754 9.32811C5.8326 9.32811 5.82203 9.34811 5.80754 9.34811C5.79307 9.34811 5.78153 9.37775 5.76754 9.38811C5.75356 9.39844 5.73101 9.4071 5.71754 9.41811C5.70407 9.42917 5.69045 9.43644 5.67754 9.44811C5.66463 9.45979 5.65985 9.47582 5.64754 9.48811C5.63522 9.50041 5.61924 9.51524 5.60754 9.52811C5.59583 9.54102 5.5886 9.55466 5.57754 9.56811C5.56648 9.58153 5.54793 9.59415 5.53754 9.60811C5.52714 9.62208 5.51754 9.63364 5.51754 9.64811C5.51754 9.66255 5.48754 9.67321 5.48754 9.68811C5.48754 9.70302 5.45754 9.72277 5.45754 9.73811C5.45754 9.75342 5.43754 9.77241 5.43754 9.78811C5.43754 9.80382 5.40754 9.81204 5.40754 9.82811C5.40754 9.84415 5.39754 9.86171 5.39754 9.87811C5.39754 9.89448 5.37754 9.91146 5.37754 9.92811C5.37754 9.94477 5.36754 9.96124 5.36754 9.97811C5.36754 9.99499 5.35754 10.0111 5.35754 10.0281C5.35754 10.0452 5.34754 10.0609 5.34754 10.0781C5.34754 10.0953 5.33754 10.1108 5.33754 10.1281L5.33754 10.1881C5.33754 10.2055 5.32754 10.2207 5.32754 10.2381C5.32754 10.2555 5.33754 10.2707 5.33754 10.2881L5.33754 10.3381C5.33754 10.3554 5.34754 10.3809 5.34754 10.3981C5.34754 10.4153 5.35754 10.431 5.35754 10.4481C5.35754 10.4652 5.36754 10.4812 5.36754 10.4981C5.36754 10.515 5.37754 10.5315 5.37754 10.5481C5.37754 10.5648 5.39754 10.5818 5.39754 10.5981C5.39754 10.6145 5.40754 10.6321 5.40754 10.6481C5.40754 10.6642 5.43754 10.6824 5.43754 10.6981C5.43754 10.7138 5.45754 10.7228 5.45754 10.7381C5.45754 10.7535 5.48754 10.7732 5.48754 10.7881C5.48754 10.803 5.51754 10.8136 5.51754 10.8281C5.51754 10.8426 5.52714 10.8542 5.53754 10.8681C5.54793 10.8821 5.56647 10.8947 5.57754 10.9081C5.5886 10.9215 5.59583 10.9352 5.60754 10.9481C5.61924 10.961 5.63523 10.9758 5.64754 10.9881C5.65987 11.0004 5.66463 11.0164 5.67754 11.0281C5.69045 11.0398 5.70407 11.0471 5.71754 11.0581C5.73099 11.0691 5.75355 11.0778 5.76754 11.0881C5.78153 11.0985 5.79307 11.1181 5.80754 11.1181C5.82201 11.1181 5.8326 11.1481 5.84754 11.1481C5.86247 11.1481 5.88219 11.1781 5.89754 11.1781C5.91289 11.1781 5.9218 11.1981 5.93754 11.1981C5.95328 11.1981 5.97146 11.2181 5.98754 11.2181C6.00362 11.2181 6.02115 11.2381 6.03754 11.2381C6.05392 11.2381 6.07087 11.2581 6.08754 11.2581C6.1042 11.2581 6.12066 11.2681 6.13754 11.2681C6.15442 11.2681 6.17047 11.2781 6.18754 11.2781C6.2046 11.2781 6.22032 11.2881 6.23754 11.2881C6.25476 11.2881 6.27023 11.2981 6.28754 11.2981L6.49754 11.2981C6.51488 11.2981 6.5303 11.2881 6.54754 11.2881C6.56474 11.2881 6.59048 11.2781 6.60754 11.2781C6.62459 11.2781 6.64067 11.2681 6.65754 11.2681C6.67445 11.2681 6.69088 11.2581 6.70754 11.2581C6.72423 11.2581 6.74114 11.2381 6.75754 11.2381C6.7739 11.2381 6.79147 11.2181 6.80754 11.2181C6.82361 11.2181 6.83179 11.1981 6.84754 11.1981C6.86325 11.1981 6.88216 11.1781 6.89754 11.1781C6.91288 11.1781 6.93263 11.1481 6.94754 11.1481C6.96248 11.1481 6.97307 11.1181 6.98754 11.1181C7.00201 11.1181 7.01354 11.0985 7.02754 11.0881C7.04154 11.0778 7.05408 11.0691 7.06754 11.0581C7.08099 11.0471 7.09463 11.0398 7.10754 11.0281C7.12045 11.0164 7.13521 11.0004 7.14754 10.9881C7.15987 10.9758 7.17583 10.961 7.18754 10.9481C7.19928 10.9352 7.20648 10.9215 7.21754 10.9081C7.22863 10.8947 7.24714 10.8821 7.25754 10.8681C7.26794 10.8542 7.27754 10.8426 7.27754 10.8281C7.27754 10.8136 7.30754 10.803 7.30754 10.7881C7.30754 10.7732 7.33754 10.7535 7.33754 10.7381C7.33754 10.7228 7.35754 10.7138 7.35754 10.6981C7.35754 10.6824 7.37754 10.6642 7.37754 10.6481C7.37754 10.632 7.39754 10.6145 7.39754 10.5981C7.39754 10.5818 7.41754 10.5648 7.41754 10.5481C7.41754 10.5315 7.42754 10.515 7.42754 10.4981C7.42754 10.4812 7.43754 10.4652 7.43754 10.4481C7.43754 10.431 7.44754 10.4153 7.44754 10.3981C7.44754 10.3809 7.45754 10.3554 7.45754 10.3381L7.45754 10.2881C7.45754 10.2707 7.46754 10.2555 7.46754 10.2381C7.46754 10.2207 7.45754 10.2055 7.45754 10.1881L7.45754 10.1281C7.45754 10.1108 7.44754 10.0953 7.44754 10.0781C7.44754 10.0609 7.43754 10.0452 7.43754 10.0281C7.43754 10.0111 7.42754 9.99499 7.42754 9.97811C7.42754 9.96124 7.41754 9.94477 7.41754 9.92811C7.41754 9.91146 7.39754 9.89448 7.39754 9.87811C7.39754 9.86175 7.37754 9.84415 7.37754 9.82811C7.37754 9.81204 7.35754 9.80382 7.35754 9.78811C7.35754 9.77241 7.33754 9.75346 7.33754 9.73811C7.33754 9.72277 7.30754 9.70302 7.30754 9.68811C7.30754 9.67321 7.27754 9.66255 7.27754 9.64811C7.27754 9.63364 7.26794 9.62208 7.25754 9.60811C7.24714 9.59415 7.22859 9.58153 7.21754 9.56811C7.20648 9.55466 7.19925 9.54102 7.18754 9.52811C7.17583 9.51524 7.15987 9.50041 7.14754 9.48811C7.13521 9.47582 7.12045 9.45979 7.10754 9.44811C7.09463 9.43644 7.08099 9.42917 7.06754 9.41811C7.05408 9.4071 7.04154 9.39844 7.02754 9.38811C7.01354 9.37775 7.00201 9.34811 6.98754 9.34811C6.97307 9.34811 6.96248 9.32811 6.94754 9.32811C6.93263 9.32811 6.91288 9.29811 6.89754 9.29811C6.88216 9.29811 6.86325 9.27811 6.84754 9.27811C6.83179 9.27811 6.82361 9.25811 6.80754 9.25811C6.79143 9.25811 6.7739 9.23811 6.75754 9.23811C6.74114 9.23811 6.72423 9.21811 6.70754 9.21811C6.69088 9.21811 6.67445 9.20811 6.65754 9.20811C6.64067 9.20811 6.62459 9.19811 6.60754 9.19811C6.59045 9.19811 6.56474 9.18811 6.54754 9.18811C6.5303 9.18811 6.51488 9.17811 6.49754 9.17811L6.39754 9.17811Z" stroke="rgba(3, 79, 161, 1)" stroke-width="0.6"    fill-rule="evenodd"  fill="#034FA1" ></path><path d="M15.815 5.09082C16.142 5.09082 16.414 5.34296 16.4405 5.669L16.4405 6.829L17.6041 6.829C17.6138 6.829 17.6332 6.83264 17.6332 6.83264C17.6429 6.83264 17.6527 6.83627 17.6623 6.83627C17.6719 6.83627 17.6877 6.83991 17.6877 6.83991C17.6972 6.83991 17.7205 6.85082 17.7205 6.85082C17.7299 6.85082 17.7366 6.85809 17.7459 6.85809C17.7552 6.85809 17.7787 6.86537 17.7787 6.86537C17.7878 6.86537 17.7951 6.87627 17.8041 6.87627C17.813 6.87627 17.8208 6.88718 17.8296 6.88718C17.8383 6.88718 17.8465 6.89707 17.855 6.90173C17.8636 6.90639 17.8721 6.9112 17.8805 6.91627C17.8888 6.9213 17.8978 6.929 17.9059 6.93446C17.914 6.93989 17.9199 6.9432 17.9277 6.949C17.9356 6.9548 17.9457 6.96102 17.9532 6.96718C17.9607 6.97335 17.9678 6.97885 17.975 6.98537C17.9823 6.99188 17.9899 7.00035 17.9968 7.00718C18.0037 7.01402 18.0084 7.01821 18.015 7.02537C18.0216 7.03252 18.0306 7.03971 18.0368 7.04718C18.0431 7.05462 18.0491 7.0649 18.055 7.07264C18.0609 7.08037 18.0677 7.08644 18.0732 7.09446C18.0787 7.10245 18.0789 7.1153 18.0841 7.12355C18.0893 7.1318 18.0975 7.13686 18.1023 7.14537C18.1071 7.15385 18.1168 7.16212 18.1168 7.17082C18.1168 7.17952 18.1277 7.18738 18.1277 7.19627C18.1277 7.20517 18.1386 7.21266 18.1386 7.22173C18.1386 7.2308 18.1459 7.24158 18.1459 7.25082C18.1459 7.26004 18.1568 7.27054 18.1568 7.27991C18.1568 7.28926 18.1641 7.29587 18.1641 7.30537C18.1641 7.31482 18.1677 7.32851 18.1677 7.33809C18.1677 7.34768 18.1786 7.3539 18.1786 7.36355C18.1786 7.37317 18.1786 7.38656 18.1786 7.39627C18.1786 7.40597 18.1823 7.41199 18.1823 7.42173C18.1823 7.43146 18.1823 7.44109 18.1823 7.45082C18.1823 7.46055 18.1823 7.47379 18.1823 7.48355C18.1823 7.49326 18.1786 7.49929 18.1786 7.509C18.1786 7.51869 18.1786 7.53208 18.1786 7.54173C18.1786 7.55136 18.1677 7.5576 18.1677 7.56718C18.1677 7.57677 18.1641 7.5868 18.1641 7.59627C18.1641 7.60575 18.1568 7.616 18.1568 7.62537C18.1568 7.63473 18.1459 7.64522 18.1459 7.65446C18.1459 7.66367 18.1386 7.67084 18.1386 7.67991C18.1386 7.68898 18.1277 7.70011 18.1277 7.709C18.1277 7.7179 18.1168 7.72573 18.1168 7.73446C18.1168 7.74314 18.1071 7.7514 18.1023 7.75991C18.0975 7.76838 18.0893 7.77709 18.0841 7.78537C18.0789 7.79362 18.0787 7.79917 18.0732 7.80718C18.0677 7.81518 18.0609 7.82852 18.055 7.83627C18.0491 7.84401 18.0431 7.85064 18.0368 7.85809C18.0306 7.86555 18.0216 7.87276 18.015 7.87991C18.0084 7.88707 18.0037 7.89487 17.9968 7.90173C17.9899 7.90856 17.9823 7.91338 17.975 7.91991C17.9678 7.9264 17.9607 7.9319 17.9532 7.93809C17.9457 7.94424 17.9356 7.94681 17.9277 7.95264C17.9199 7.95844 17.914 7.96536 17.9059 7.97082C17.8978 7.97623 17.8888 7.98393 17.8805 7.989C17.8721 7.99405 17.8636 7.99886 17.855 8.00355C17.8465 8.00819 17.8383 8.01446 17.8296 8.01446C17.8208 8.01446 17.813 8.029 17.8041 8.029C17.7951 8.029 17.7878 8.03627 17.7787 8.03627C17.7695 8.03627 17.7552 8.05082 17.7459 8.05082C17.7366 8.05082 17.7299 8.05809 17.7205 8.05809C17.7111 8.05809 17.6972 8.06536 17.6877 8.06536C17.6782 8.06536 17.6719 8.069 17.6623 8.069C17.6527 8.069 17.6429 8.07264 17.6332 8.07264C17.6235 8.07264 17.6138 8.07627 17.6041 8.07627L16.4405 8.07627L16.4405 9.23991C16.4405 9.24962 16.4405 9.25933 16.4405 9.269C16.4405 9.27865 16.4368 9.28849 16.4368 9.29809C16.4368 9.30768 16.4296 9.31405 16.4296 9.32355C16.4296 9.33304 16.4223 9.34686 16.4223 9.35627C16.4223 9.36566 16.415 9.37245 16.415 9.38173C16.415 9.39099 16.4077 9.39807 16.4077 9.40718C16.4077 9.41629 16.3932 9.42731 16.3932 9.43627C16.3932 9.44521 16.3859 9.45296 16.3859 9.46173C16.3859 9.4705 16.376 9.47863 16.3714 9.48718C16.3667 9.49574 16.3582 9.50794 16.3532 9.51627C16.3481 9.52459 16.3441 9.53365 16.3386 9.54173C16.3332 9.54981 16.3299 9.55573 16.3241 9.56355C16.3183 9.57135 16.3121 9.5778 16.3059 9.58537C16.2998 9.59289 16.2906 9.59992 16.2841 9.60718C16.2776 9.6144 16.2728 9.62206 16.2659 9.629C16.2591 9.63592 16.2513 9.6442 16.2441 9.65082C16.2369 9.65742 16.2297 9.66273 16.2223 9.669C16.2148 9.67528 16.2082 9.68127 16.2005 9.68718C16.1927 9.69309 16.1867 9.69982 16.1786 9.70537C16.1706 9.71091 16.1578 9.71473 16.1496 9.71991C16.1413 9.72507 16.1326 9.72966 16.1241 9.73446C16.1156 9.73923 16.1074 9.749 16.0986 9.749C16.0899 9.749 16.0821 9.75991 16.0732 9.75991C16.0643 9.75991 16.0532 9.77446 16.0441 9.77446C16.035 9.77446 16.0279 9.78173 16.0187 9.78173C16.0094 9.78173 16.0025 9.79264 15.9932 9.79264C15.9838 9.79264 15.9699 9.79991 15.9605 9.79991C15.951 9.79991 15.9446 9.80355 15.935 9.80355C15.9255 9.80355 15.9156 9.81082 15.9059 9.81082C15.8963 9.81082 15.8865 9.81446 15.8768 9.81446C15.8671 9.81446 15.8575 9.81446 15.8477 9.81446C15.838 9.81446 15.8247 9.81809 15.815 9.81809C15.8053 9.81809 15.7993 9.81446 15.7896 9.81446C15.7798 9.81446 15.7702 9.81446 15.7605 9.81446C15.7508 9.81446 15.741 9.81082 15.7314 9.81082C15.7217 9.81082 15.7118 9.80355 15.7023 9.80355C15.6927 9.80355 15.6863 9.79991 15.6768 9.79991C15.6674 9.79991 15.6535 9.79264 15.6441 9.79264C15.6347 9.79264 15.6279 9.78173 15.6187 9.78173C15.6094 9.78173 15.6023 9.77446 15.5932 9.77446C15.5841 9.77446 15.5694 9.75991 15.5605 9.75991C15.5516 9.75991 15.5437 9.749 15.535 9.749C15.5263 9.749 15.5217 9.73923 15.5132 9.73446C15.5047 9.72966 15.496 9.72507 15.4877 9.71991C15.4795 9.71473 15.4666 9.71091 15.4587 9.70537C15.4506 9.69982 15.4446 9.69309 15.4368 9.68718C15.4291 9.68127 15.4225 9.67528 15.415 9.669C15.4076 9.66273 15.4004 9.65742 15.3932 9.65082C15.386 9.6442 15.3782 9.63592 15.3714 9.629C15.3645 9.62206 15.3561 9.6144 15.3496 9.60718C15.343 9.59992 15.3375 9.59289 15.3314 9.58537C15.3252 9.5778 15.319 9.57135 15.3132 9.56355C15.3074 9.55573 15.3041 9.54981 15.2987 9.54173C15.2932 9.53365 15.2892 9.52459 15.2841 9.51627C15.279 9.50794 15.2706 9.49574 15.2659 9.48718C15.2612 9.47863 15.2514 9.4705 15.2514 9.46173C15.2514 9.45296 15.2405 9.44521 15.2405 9.43627C15.2405 9.42731 15.2296 9.41629 15.2296 9.40718C15.2296 9.39807 15.2223 9.39099 15.2223 9.38173C15.2223 9.37245 15.215 9.36566 15.215 9.35627C15.215 9.34686 15.2041 9.33304 15.2041 9.32355C15.2041 9.31405 15.2005 9.30768 15.2005 9.29809C15.2005 9.28849 15.1968 9.27865 15.1968 9.269C15.1968 9.25933 15.1932 9.24962 15.1932 9.23991L15.1932 8.07627L14.0332 8.07627C14.0235 8.07627 14.0102 8.07265 14.0005 8.07265C13.9909 8.07265 13.9847 8.06901 13.9751 8.06901C13.9655 8.06901 13.9518 8.06536 13.9423 8.06536C13.9328 8.06536 13.9263 8.0581 13.9169 8.0581C13.9075 8.0581 13.9008 8.05083 13.8915 8.05083C13.8822 8.05083 13.8678 8.03628 13.8587 8.03628C13.8496 8.03628 13.8422 8.029 13.8333 8.029C13.8243 8.029 13.8167 8.01446 13.8079 8.01446C13.7991 8.01446 13.7909 8.00819 13.7823 8.00355C13.7738 7.99887 13.7615 7.99405 13.7532 7.989C13.7449 7.98393 13.7394 7.97624 13.7314 7.97083C13.7233 7.96537 13.7138 7.95844 13.706 7.95264C13.6981 7.94682 13.6917 7.94424 13.6841 7.93809C13.6766 7.9319 13.6695 7.9264 13.6623 7.91991C13.655 7.91338 13.6474 7.90857 13.6404 7.90174C13.6335 7.89488 13.6289 7.88705 13.6223 7.87992C13.6157 7.87274 13.6068 7.86555 13.6005 7.85809C13.5942 7.85063 13.5883 7.84401 13.5824 7.83627C13.5765 7.82852 13.5696 7.81518 13.5641 7.80719C13.5586 7.79917 13.5584 7.79362 13.5533 7.78537C13.5481 7.7771 13.5399 7.76838 13.5352 7.75991C13.5304 7.7514 13.5206 7.74314 13.5206 7.73445C13.5206 7.72573 13.5096 7.71791 13.5096 7.70901C13.5096 7.70011 13.4988 7.68898 13.4988 7.67991C13.4988 7.67084 13.4842 7.66367 13.4842 7.65445C13.4842 7.64521 13.4769 7.63474 13.4769 7.62537C13.4769 7.616 13.4732 7.60576 13.4732 7.59628C13.4732 7.58681 13.4624 7.57677 13.4624 7.56719C13.4624 7.5576 13.4586 7.55135 13.4586 7.54173C13.4586 7.53208 13.4551 7.51869 13.4551 7.509C13.4551 7.49929 13.4551 7.49326 13.4551 7.48354C13.4551 7.47379 13.4551 7.46055 13.4551 7.45082C13.4551 7.44108 13.4551 7.43147 13.4551 7.42173C13.4551 7.412 13.4551 7.40597 13.4551 7.39628C13.4551 7.38656 13.4586 7.37318 13.4586 7.36355C13.4586 7.3539 13.4624 7.34768 13.4624 7.33809C13.4624 7.32851 13.4732 7.31482 13.4732 7.30537C13.4732 7.29587 13.4769 7.28926 13.4769 7.27991C13.4769 7.27054 13.4842 7.26004 13.4842 7.25082C13.4842 7.24158 13.4988 7.23079 13.4988 7.22173C13.4988 7.21266 13.5096 7.20518 13.5096 7.19628C13.5096 7.18738 13.5206 7.17953 13.5206 7.17082C13.5206 7.16212 13.5304 7.15385 13.5352 7.14537C13.5399 7.13686 13.5481 7.1318 13.5533 7.12355C13.5584 7.1153 13.5586 7.10246 13.5641 7.09446C13.5696 7.08645 13.5765 7.08038 13.5824 7.07265C13.5883 7.06491 13.5942 7.05462 13.6005 7.04719C13.6068 7.03971 13.6157 7.03253 13.6223 7.02537C13.6289 7.01822 13.6335 7.01402 13.6404 7.00718C13.6474 7.00035 13.655 6.99188 13.6623 6.98536C13.6695 6.97885 13.6766 6.97335 13.6841 6.96719C13.6917 6.96102 13.6981 6.9548 13.706 6.949C13.7138 6.9432 13.7233 6.9399 13.7314 6.93446C13.7394 6.929 13.7449 6.9213 13.7532 6.91627C13.7615 6.9112 13.7738 6.9064 13.7823 6.90174C13.7909 6.89707 13.7991 6.88719 13.8079 6.88719C13.8167 6.88719 13.8243 6.87628 13.8333 6.87628C13.8422 6.87628 13.8496 6.86537 13.8587 6.86537C13.8678 6.86537 13.8822 6.85809 13.8915 6.85809C13.9008 6.85809 13.9075 6.85082 13.9169 6.85082C13.9263 6.85082 13.9328 6.83991 13.9423 6.83991C13.9518 6.83991 13.9655 6.83627 13.9751 6.83627C13.9847 6.83627 13.9909 6.83264 14.0005 6.83264C14.0102 6.83264 14.0235 6.829 14.0332 6.829L15.1932 6.829L15.1932 5.669C15.1932 5.65929 15.1968 5.64594 15.1968 5.63627C15.1968 5.62661 15.2005 5.6204 15.2005 5.61082C15.2005 5.60121 15.2041 5.58759 15.2041 5.57809C15.2041 5.56859 15.215 5.56203 15.215 5.55264C15.215 5.54323 15.2223 5.53281 15.2223 5.52355C15.2223 5.51426 15.2296 5.50357 15.2296 5.49446C15.2296 5.48535 15.2405 5.47794 15.2405 5.469C15.2405 5.46006 15.2514 5.45231 15.2514 5.44355C15.2514 5.43478 15.2613 5.42665 15.2659 5.41809C15.2706 5.40954 15.279 5.39734 15.2841 5.389C15.2892 5.38066 15.2932 5.37163 15.2987 5.36355C15.3041 5.35547 15.3074 5.34955 15.3132 5.34173C15.319 5.33391 15.3252 5.32743 15.3314 5.31991C15.3375 5.31237 15.343 5.30533 15.3496 5.29809C15.3561 5.29083 15.3645 5.28319 15.3714 5.27627C15.3782 5.26933 15.386 5.26105 15.3932 5.25446C15.4003 5.24784 15.4075 5.24256 15.415 5.23627C15.4224 5.23001 15.4291 5.224 15.4368 5.21809C15.4446 5.21218 15.4506 5.20546 15.4587 5.19991C15.4666 5.19437 15.4795 5.1869 15.4877 5.18173C15.496 5.17656 15.5047 5.1756 15.5132 5.17082C15.5217 5.16604 15.5263 5.15627 15.535 5.15627C15.5437 5.15627 15.5516 5.14537 15.5605 5.14537C15.5694 5.14537 15.5841 5.13082 15.5932 5.13082C15.6023 5.13082 15.6094 5.11991 15.6187 5.11991C15.6279 5.11991 15.6347 5.11264 15.6441 5.11264C15.6535 5.11264 15.6674 5.10537 15.6768 5.10537C15.6863 5.10537 15.6927 5.09809 15.7023 5.09809C15.7118 5.09809 15.7217 5.09446 15.7314 5.09446C15.741 5.09446 15.7508 5.09082 15.7605 5.09082C15.7702 5.09082 15.7798 5.09082 15.7896 5.09082C15.7993 5.09082 15.8053 5.09082 15.815 5.09082Z"   fill="#034FA1" ></path><path     fill="#CC4E1D"  d="M17.2054 10.7273L21.1607 10.7273C21.6258 10.7273 22.0028 11.1043 22.0028 11.5694L22.0028 11.5694C22.0028 12.0345 21.6258 12.4115 21.1607 12.4115L17.2054 12.4115C16.7403 12.4115 16.3633 12.0345 16.3633 11.5694L16.3633 11.5694C16.3633 11.1043 16.7403 10.7273 17.2054 10.7273Z"></path><path     fill="#CC4E1D"  d="M13.9326 13.6365L21.1617 13.6365C21.6267 13.6365 22.0035 14.0134 22.0035 14.4783L22.0035 14.4783C22.0035 14.9432 21.6267 15.3201 21.1617 15.3201L13.9326 15.3201C13.4677 15.3201 13.0908 14.9432 13.0908 14.4783L13.0908 14.4783C13.0908 14.0134 13.4677 13.6365 13.9326 13.6365Z"></path><path     fill="#CC4E1D"  d="M15.751 16.5454L21.1619 16.5454C21.6268 16.5454 22.0037 16.9223 22.0037 17.3872L22.0037 17.3872C22.0037 17.8522 21.6268 18.229 21.1619 18.229L15.751 18.229C15.2861 18.229 14.9092 17.8521 14.9092 17.3872L14.9092 17.3872C14.9092 16.9223 15.2861 16.5454 15.751 16.5454Z"></path></svg>