<svg xmlns="http://www.w3.org/2000/svg" xmlns:xlink="http://www.w3.org/1999/xlink" width="24" height="24" viewBox="0 0 24 24" fill="none"><path d="M17.637 19.6746C17.8716 19.8011 18.1357 19.8649 18.3987 19.8649C18.6617 19.8649 18.9259 19.8011 19.1605 19.6746L22.2359 18.0091C22.7063 17.7551 22.9977 17.2811 22.9977 16.773L22.9977 13.442C22.9977 12.9339 22.7052 12.4599 22.2359 12.2059L19.1594 10.5404C18.6901 10.2863 18.1063 10.2863 17.637 10.5404L14.5616 12.2059C14.0911 12.4599 13.7998 12.9339 13.7998 13.442L13.7998 16.773C13.7998 17.2811 14.0923 17.7551 14.5616 18.0091L17.637 19.6746ZM18.1459 11.3662C18.2242 11.3237 18.3114 11.3024 18.3987 11.3024C18.486 11.3024 18.5733 11.3237 18.6515 11.3662L21.728 13.0317C21.8845 13.1157 21.9808 13.273 21.9808 13.442L21.9808 16.773C21.9808 16.942 21.8845 17.0993 21.728 17.1833L18.6515 18.8488C18.4951 18.9328 18.3024 18.9328 18.1459 18.8488L15.0694 17.1833C14.913 17.0993 14.8166 16.942 14.8166 16.773L14.8166 13.442C14.8166 13.273 14.913 13.1157 15.0694 13.0317L18.1459 11.3662ZM16.4662 14.5287L17.9909 15.2792L17.9909 16.9761C17.9909 17.2637 18.2427 17.498 18.552 17.498C18.8612 17.498 19.11 17.2625 19.11 16.9761L19.11 15.3038L20.5868 14.5661C20.8537 14.4212 20.945 14.1021 20.7892 13.854C20.6333 13.6058 20.2895 13.5245 20.0227 13.6694L18.5786 14.3787L17.0273 13.6262C16.7592 13.4825 16.4185 13.5672 16.2638 13.8165C16.1092 14.0658 16.1981 14.3849 16.4662 14.5287Z" fill-rule="evenodd"  fill="#CC4E1D" ></path><path d="M1.63664 7.68139L9.4701 10.4771C9.77285 10.5861 10.0998 10.6362 10.4147 10.6362L11.3593 10.4771L19.1962 7.68139L19.2273 7.66755L19.2585 7.65371L19.2931 7.63987L19.3242 7.62257L19.3519 7.60527L19.383 7.58797L19.4107 7.56721L19.4384 7.54645L19.4661 7.52569L19.4937 7.50147L19.518 7.47725L19.5456 7.45303L19.5664 7.42881L19.5906 7.40113L19.6114 7.37345L19.6321 7.34577L19.6529 7.31809L19.6702 7.28695L19.6875 7.25581L19.7048 7.22467L19.7186 7.19353L19.7325 7.16239L19.7463 7.12779L19.7567 7.09665L19.7671 7.06205L19.774 7.02745L19.7809 6.99285L19.7878 6.96171L19.7913 6.92711L19.7948 6.88905L19.7982 6.85445L19.7982 6.81985L19.7982 6.78525L19.7948 6.75065L19.7913 6.71605L19.7878 6.68145L19.7809 6.64685C19.7809 6.6354 19.774 6.6236 19.774 6.61225C19.774 6.60091 19.7671 6.58891 19.7671 6.57765C19.7671 6.56641 19.7602 6.55763 19.7567 6.54651C19.7567 6.5354 19.7504 6.52288 19.7463 6.51191C19.7424 6.50093 19.7368 6.49159 19.7325 6.48077C19.7281 6.46996 19.7234 6.45682 19.7186 6.44617C19.714 6.43553 19.71 6.42549 19.7048 6.41503C19.6996 6.40458 19.6931 6.39414 19.6875 6.38389C19.682 6.37365 19.6761 6.36278 19.6702 6.35275C19.6641 6.34274 19.6592 6.33487 19.6529 6.32507C19.6466 6.31528 19.6388 6.30346 19.6321 6.29393C19.6254 6.28439 19.6184 6.27554 19.6114 6.26625C19.6043 6.25697 19.598 6.24757 19.5906 6.23857C19.5832 6.22956 19.5742 6.22307 19.5664 6.21435C19.5587 6.20564 19.5537 6.19509 19.5456 6.18667C19.5376 6.17826 19.5264 6.17054 19.518 6.16245C19.5096 6.15435 19.5024 6.146 19.4937 6.13823C19.4851 6.13047 19.475 6.1249 19.4661 6.11747C19.4571 6.11005 19.4477 6.10032 19.4384 6.09325C19.4291 6.08617 19.4202 6.07922 19.4107 6.07249C19.4012 6.06577 19.3928 6.06154 19.383 6.05519C19.3733 6.04883 19.3619 6.04041 19.3519 6.03443C19.3419 6.02847 19.3344 6.02273 19.3242 6.01713C19.314 6.01154 19.3035 6.00849 19.2931 6.00329C19.2826 5.9981 19.2691 5.99077 19.2585 5.98599C19.2478 5.9812 19.2381 5.97654 19.2273 5.97215C19.2165 5.96776 19.2072 5.96574 19.1962 5.96177L11.3593 3.16262C11.3404 3.15587 11.323 3.15166 11.3039 3.14532C11.2849 3.13898 11.2643 3.13049 11.2451 3.12456C11.2259 3.11863 11.209 3.11278 11.1897 3.10726C11.1704 3.10174 11.1503 3.09852 11.1309 3.09342C11.1115 3.08832 11.0916 3.08081 11.0721 3.07612C11.0526 3.07143 11.0329 3.07001 11.0133 3.06574C10.9937 3.06147 10.9741 3.05575 10.9544 3.0519C10.9347 3.04805 10.9154 3.04152 10.8956 3.04152C10.8759 3.04152 10.8567 3.03114 10.8368 3.03114C10.817 3.03114 10.7944 3.02422 10.7745 3.02422C10.7546 3.02422 10.7357 3.0173 10.7157 3.0173C10.6958 3.0173 10.6769 3.01038 10.6569 3.01038C10.6369 3.01038 10.6146 3.00692 10.5946 3.00692C10.5746 3.00692 10.5558 3.00346 10.5358 3.00346C10.5157 3.00346 10.497 3 10.477 3C10.4569 3 10.4348 3 10.4147 3C10.3946 3 10.3759 3 10.3559 3C10.3358 3 10.3136 3.00346 10.2936 3.00346C10.2735 3.00346 10.2548 3.00692 10.2348 3.00692C10.2147 3.00692 10.1959 3.01038 10.1759 3.01038C10.1559 3.01038 10.1336 3.0173 10.1137 3.0173C10.0937 3.0173 10.0747 3.02422 10.0548 3.02422C10.0349 3.02422 10.0159 3.03114 9.99602 3.03114C9.97617 3.03114 9.95697 3.04152 9.9372 3.04152C9.91743 3.04152 9.8981 3.04805 9.87838 3.0519C9.8587 3.05575 9.83918 3.06147 9.81956 3.06574C9.79996 3.07001 9.78027 3.07143 9.76074 3.07612C9.74123 3.08081 9.72133 3.08832 9.70192 3.09342C9.6825 3.09852 9.6624 3.10174 9.6431 3.10726C9.6238 3.11278 9.60347 3.11863 9.58428 3.12456C9.56513 3.13049 9.54797 3.13898 9.52892 3.14532C9.50988 3.15166 9.489 3.15587 9.4701 3.16262L1.63664 5.96177C1.62568 5.96574 1.61284 5.96776 1.60204 5.97215C1.59124 5.97654 1.58153 5.9812 1.5709 5.98599C1.56027 5.99077 1.5502 5.9981 1.53976 6.00329C1.52932 6.00849 1.51885 6.01154 1.50862 6.01713C1.49839 6.02273 1.48749 6.02847 1.47748 6.03443C1.46747 6.04041 1.45957 6.04883 1.4498 6.05519C1.44003 6.06154 1.42818 6.06577 1.41866 6.07249C1.40914 6.07922 1.40024 6.08617 1.39098 6.09325C1.38172 6.10032 1.37228 6.11005 1.3633 6.11747C1.35432 6.1249 1.34431 6.13047 1.33562 6.13823C1.32693 6.146 1.31979 6.15435 1.3114 6.16245C1.30301 6.17054 1.29525 6.17826 1.28718 6.18667C1.27911 6.19509 1.2707 6.20564 1.26296 6.21435C1.25522 6.22307 1.24961 6.22956 1.2422 6.23857C1.23479 6.24757 1.22504 6.25697 1.21798 6.26625C1.21092 6.27552 1.20391 6.28439 1.19722 6.29393C1.19052 6.30346 1.18625 6.31528 1.17992 6.32507C1.17359 6.33487 1.16511 6.34274 1.15916 6.35275C1.15321 6.36278 1.14742 6.37365 1.14186 6.38389C1.1363 6.39414 1.13318 6.40458 1.12802 6.41503C1.12286 6.42547 1.11548 6.43553 1.11072 6.44617C1.10596 6.45682 1.10123 6.46996 1.09688 6.48077C1.09253 6.49159 1.09043 6.50093 1.0865 6.51191C1.08257 6.52288 1.07963 6.5354 1.07612 6.54651C1.07261 6.55763 1.06574 6.56641 1.06574 6.57765C1.06574 6.58891 1.05536 6.60091 1.05536 6.61225C1.05536 6.6236 1.04844 6.6354 1.04844 6.64685C1.04844 6.65829 1.04152 6.66994 1.04152 6.68145C1.04152 6.69297 1.03806 6.70447 1.03806 6.71605C1.03806 6.72763 1.0346 6.73903 1.0346 6.75065C1.0346 6.76227 1.0346 6.77359 1.0346 6.78525C1.0346 6.7969 1.03114 6.80819 1.03114 6.81985C1.03114 6.8315 1.0346 6.84281 1.0346 6.85445C1.0346 6.8661 1.0346 6.87743 1.0346 6.88905C1.0346 6.90068 1.03806 6.91553 1.03806 6.92711C1.03806 6.93869 1.04152 6.9502 1.04152 6.96171C1.04152 6.97323 1.04844 6.98142 1.04844 6.99285C1.04844 7.00431 1.05536 7.01609 1.05536 7.02745C1.05536 7.0388 1.06574 7.05081 1.06574 7.06205C1.06574 7.07329 1.07261 7.08554 1.07612 7.09665C1.07963 7.10777 1.08257 7.11681 1.0865 7.12779C1.09043 7.13876 1.09253 7.15158 1.09688 7.16239C1.10123 7.17321 1.10596 7.18289 1.11072 7.19353C1.11548 7.20416 1.12286 7.21422 1.12802 7.22467C1.13318 7.23511 1.1363 7.24555 1.14186 7.25581C1.14742 7.26606 1.15321 7.27692 1.15916 7.28695C1.16511 7.29698 1.17359 7.30829 1.17992 7.31809C1.18625 7.32789 1.19052 7.33623 1.19722 7.34577C1.20391 7.35531 1.21092 7.36418 1.21798 7.37345C1.22504 7.38274 1.23479 7.39214 1.2422 7.40113C1.24961 7.41014 1.25522 7.4201 1.26296 7.42881C1.2707 7.43751 1.27911 7.44463 1.28718 7.45303C1.29525 7.46145 1.30301 7.46917 1.3114 7.47725C1.31979 7.48535 1.32693 7.49371 1.33562 7.50147C1.34431 7.50925 1.35432 7.51827 1.3633 7.52569C1.37228 7.53313 1.38172 7.53937 1.39098 7.54645C1.40024 7.55354 1.40914 7.56049 1.41866 7.56721C1.42818 7.57395 1.44003 7.58163 1.4498 7.58797C1.45957 7.59433 1.46747 7.59929 1.47748 7.60527C1.48749 7.61125 1.49839 7.61699 1.50862 7.62257C1.51885 7.62817 1.52932 7.63468 1.53976 7.63987C1.5502 7.64507 1.56027 7.64892 1.5709 7.65371C1.58153 7.6585 1.59124 7.66316 1.60204 7.66755C1.61284 7.67194 1.62568 7.67743 1.63664 7.68139ZM10.0894 4.87186C10.3074 4.7992 10.5358 4.7992 10.7538 4.87186L16.1929 6.81985L10.7434 8.77129C10.5254 8.84395 10.2936 8.84395 10.0756 8.77129L4.63993 6.81985L10.0894 4.87186ZM11.4976 13.4388L10.7538 13.7364C10.5358 13.8091 10.3074 13.8091 10.0894 13.7364L2.24214 10.9269C2.22806 10.9213 2.2115 10.9144 2.19716 10.9096C2.18282 10.9047 2.1702 10.8999 2.15564 10.8957C2.14108 10.8916 2.12541 10.8854 2.11066 10.8854C2.09591 10.8854 2.08058 10.8784 2.06568 10.8784C2.05078 10.8784 2.03571 10.8715 2.0207 10.8715C2.00569 10.8715 1.99081 10.8646 1.97572 10.8646C1.96063 10.8646 1.94587 10.8646 1.93074 10.8646C1.91562 10.8646 1.90089 10.8646 1.88576 10.8646C1.87063 10.8646 1.85587 10.8646 1.84078 10.8646C1.82569 10.8646 1.81082 10.8715 1.7958 10.8715C1.78079 10.8715 1.76572 10.875 1.75082 10.875C1.73592 10.875 1.72059 10.8854 1.70584 10.8854C1.69109 10.8854 1.67543 10.8916 1.66086 10.8957C1.6463 10.8998 1.63368 10.9048 1.61934 10.9096C1.605 10.9144 1.59191 10.9214 1.57782 10.9269C1.56374 10.9324 1.54663 10.938 1.53284 10.9442C1.51905 10.9504 1.50824 10.9546 1.49478 10.9615C1.48132 10.9684 1.46636 10.9781 1.45326 10.9857C1.44016 10.9933 1.42791 11.0017 1.4152 11.0099C1.40249 11.0181 1.38942 11.0253 1.37714 11.0341C1.36486 11.043 1.35436 11.0524 1.34254 11.0618C1.33072 11.0713 1.31927 11.0795 1.30794 11.0895C1.2966 11.0995 1.28416 11.1101 1.27334 11.1206C1.26252 11.1312 1.25248 11.1441 1.2422 11.1552C1.23192 11.1663 1.22077 11.1782 1.21106 11.1898C1.20135 11.2015 1.1925 11.2124 1.18338 11.2244C1.17426 11.2365 1.16421 11.2465 1.1557 11.259C1.14719 11.2716 1.13935 11.2842 1.13148 11.2971C1.12361 11.31 1.11793 11.3253 1.11072 11.3386C1.10351 11.3519 1.0965 11.3665 1.08996 11.3801C1.08342 11.3938 1.07505 11.4043 1.0692 11.4182C1.06335 11.4322 1.06051 11.4489 1.05536 11.4632C1.05021 11.4774 1.04595 11.4902 1.04152 11.5047C1.03709 11.5192 1.03138 11.535 1.02768 11.5497C1.02398 11.5644 1.0173 11.5798 1.0173 11.5947C1.0173 11.6095 1.01038 11.6212 1.01038 11.6362C1.01038 11.6512 1.00346 11.6696 1.00346 11.6846C1.00346 11.6997 1 11.7145 1 11.7296C1 11.7447 1 11.7594 1 11.7746C1 11.7897 1 11.8045 1 11.8196C1 11.8347 1.00346 11.8495 1.00346 11.8645C1.00346 11.8796 1.01038 11.8946 1.01038 11.9095C1.01038 11.9245 1.0173 11.9397 1.0173 11.9545C1.0173 11.9693 1.0239 11.9848 1.02768 11.9995C1.03146 12.0141 1.03701 12.0266 1.04152 12.041C1.04603 12.0555 1.05014 12.0718 1.05536 12.086C1.06058 12.1002 1.06673 12.1136 1.07266 12.1275C1.07859 12.1414 1.08334 12.1554 1.08996 12.169C1.09658 12.1826 1.10343 12.1938 1.11072 12.2071C1.11801 12.2203 1.127 12.2357 1.13494 12.2486C1.14288 12.2615 1.15059 12.2742 1.15916 12.2867C1.16773 12.2991 1.17765 12.3092 1.18684 12.3213C1.19603 12.3333 1.20475 12.3478 1.21452 12.3593C1.2243 12.3709 1.23532 12.3794 1.24566 12.3905C1.256 12.4015 1.26592 12.4146 1.2768 12.4251C1.28768 12.4356 1.30001 12.4462 1.3114 12.4562C1.32279 12.4662 1.33413 12.4745 1.346 12.4839C1.35787 12.4933 1.36827 12.5028 1.3806 12.5116C1.39293 12.5203 1.40591 12.5276 1.41866 12.5358C1.43141 12.5439 1.44358 12.5525 1.45672 12.56C1.46986 12.5675 1.48474 12.5739 1.49824 12.5808C1.51174 12.5876 1.52594 12.5954 1.53976 12.6015C1.55359 12.6077 1.56717 12.6134 1.58128 12.6188C1.5954 12.6243 1.60843 12.6279 1.6228 12.6327L9.45972 15.4318C9.76247 15.5408 10.0894 15.5875 10.4043 15.5875C10.7192 15.5875 11.0461 15.5408 11.3489 15.4318L12.0893 15.1342C12.1036 15.1295 12.1201 15.1259 12.1342 15.1204C12.1483 15.115 12.1619 15.1093 12.1758 15.1031C12.1896 15.097 12.2038 15.0892 12.2173 15.0823C12.2308 15.0755 12.2424 15.0691 12.2555 15.0616C12.2686 15.0541 12.2806 15.0455 12.2933 15.0374C12.3061 15.0292 12.3192 15.0219 12.3315 15.0131C12.3439 15.0044 12.3578 14.9949 12.3697 14.9855C12.3816 14.9761 12.3928 14.9678 12.4042 14.9578C12.4156 14.9478 12.4244 14.9372 12.4353 14.9266C12.4461 14.9161 12.4597 14.9031 12.4701 14.892C12.4804 14.881 12.488 14.8725 12.4978 14.8609C12.5075 14.8494 12.5197 14.8349 12.5289 14.8228C12.538 14.8108 12.5443 14.8007 12.5528 14.7882C12.5614 14.7758 12.5692 14.7631 12.5772 14.7502C12.5851 14.7373 12.5942 14.7219 12.6015 14.7087C12.6088 14.6954 12.6155 14.6842 12.6221 14.6706C12.6287 14.657 12.6334 14.643 12.6393 14.6291C12.6453 14.6152 12.6517 14.6018 12.6569 14.5876C12.6621 14.5734 12.6696 14.557 12.6741 14.5426C12.6787 14.5281 12.6805 14.5157 12.6843 14.5011C12.6881 14.4864 12.6948 14.4709 12.6948 14.4561C12.6948 14.4413 12.7019 14.4261 12.7019 14.4111C12.7019 14.3962 12.7086 14.3812 12.7086 14.3661C12.7086 14.3511 12.712 14.3363 12.712 14.3211C12.712 14.306 12.712 14.2913 12.712 14.2762C12.712 14.261 12.712 14.2463 12.712 14.2312C12.712 14.2161 12.7086 14.2013 12.7086 14.1862C12.7086 14.1711 12.7052 14.1528 12.7052 14.1378C12.7052 14.1228 12.6948 14.1111 12.6948 14.0962C12.6948 14.0814 12.688 14.0659 12.6843 14.0513C12.6806 14.0366 12.6786 14.0208 12.6741 14.0063C12.6697 13.9918 12.6654 13.979 12.6603 13.9648C12.6551 13.9505 12.6489 13.9337 12.6431 13.9198C12.6372 13.9058 12.632 13.8954 12.6255 13.8817C12.619 13.8681 12.6121 13.8535 12.6049 13.8402C12.5977 13.8269 12.5884 13.8116 12.5806 13.7987C12.5727 13.7858 12.5651 13.7732 12.5566 13.7606C12.5481 13.7481 12.538 13.7381 12.5289 13.726C12.5197 13.7139 12.5109 13.703 12.5011 13.6914C12.4914 13.6798 12.4837 13.6679 12.4734 13.6568C12.4632 13.6457 12.4495 13.6328 12.4386 13.6222C12.4278 13.6117 12.4189 13.6011 12.4075 13.5911C12.3962 13.5811 12.3849 13.5729 12.3731 13.5634C12.3613 13.554 12.3472 13.5446 12.3349 13.5357C12.3226 13.5269 12.3132 13.5197 12.3004 13.5115C12.2877 13.5033 12.272 13.4949 12.2589 13.4873C12.2458 13.4797 12.2342 13.47 12.2207 13.4631C12.2072 13.4562 12.1929 13.452 12.1791 13.4458C12.1653 13.4395 12.152 13.434 12.1379 13.4285C12.1238 13.4229 12.1107 13.416 12.0964 13.4112C12.082 13.4064 12.066 13.4014 12.0514 13.3973C12.0368 13.3932 12.0209 13.3869 12.0061 13.3869C11.9914 13.3869 11.9761 13.3766 11.9612 13.3766C11.9463 13.3766 11.9347 13.3731 11.9196 13.3731C11.9046 13.3731 11.8864 13.3662 11.8713 13.3662C11.8562 13.3662 11.8415 13.3662 11.8264 13.3662C11.8113 13.3662 11.7966 13.3662 11.7814 13.3662C11.7663 13.3662 11.7516 13.3662 11.7365 13.3662C11.7214 13.3662 11.7066 13.3731 11.6916 13.3731C11.6766 13.3731 11.6612 13.38 11.6463 13.38C11.6314 13.38 11.6161 13.3869 11.6013 13.3869C11.5866 13.3869 11.5744 13.3932 11.5598 13.3973C11.5452 13.4014 11.5292 13.4063 11.5148 13.4112C11.5005 13.416 11.4874 13.4229 11.4733 13.4285L11.4976 13.4388ZM10.7434 19.0648C10.5254 19.1375 10.2936 19.1375 10.0756 19.0648L2.24214 16.2657C2.22806 16.2601 2.2115 16.2567 2.19716 16.2518C2.18282 16.247 2.1702 16.2421 2.15564 16.238C2.14108 16.2339 2.12541 16.2276 2.11066 16.2276C2.09591 16.2276 2.08058 16.2172 2.06568 16.2172C2.05078 16.2172 2.03571 16.2103 2.0207 16.2103C2.00569 16.2103 1.99081 16.2068 1.97572 16.2068C1.96063 16.2068 1.94587 16.2034 1.93074 16.2034C1.91561 16.2034 1.90089 16.2034 1.88576 16.2034C1.87063 16.2034 1.85587 16.2068 1.84078 16.2068C1.82569 16.2068 1.81082 16.2103 1.7958 16.2103C1.78079 16.2103 1.76572 16.2172 1.75082 16.2172C1.73592 16.2172 1.72059 16.2276 1.70584 16.2276C1.69109 16.2276 1.67543 16.2339 1.66086 16.238C1.6463 16.2421 1.63368 16.247 1.61934 16.2518C1.605 16.2567 1.5919 16.2601 1.57782 16.2657C1.56374 16.2712 1.54663 16.2767 1.53284 16.283C1.51905 16.2892 1.50824 16.2968 1.49478 16.3037C1.48132 16.3106 1.46636 16.3169 1.45326 16.3245C1.44016 16.3321 1.42791 16.3405 1.4152 16.3487C1.40249 16.3569 1.38942 16.3641 1.37714 16.3729C1.36486 16.3818 1.35436 16.3912 1.34254 16.4006C1.33072 16.41 1.31928 16.4217 1.30794 16.4317C1.2966 16.4418 1.28416 16.4523 1.27334 16.4629C1.26252 16.4735 1.25248 16.4829 1.2422 16.494C1.23192 16.5051 1.22077 16.517 1.21106 16.5286C1.20135 16.5402 1.1925 16.5512 1.18338 16.5632C1.17426 16.5753 1.16421 16.5888 1.1557 16.6013C1.14719 16.6138 1.13935 16.6264 1.13148 16.6393C1.12361 16.6523 1.11793 16.6641 1.11072 16.6774C1.10351 16.6907 1.0965 16.7053 1.08996 16.7189C1.08342 16.7326 1.07505 16.7465 1.0692 16.7604C1.06335 16.7744 1.06051 16.7877 1.05536 16.802C1.05021 16.8162 1.04249 16.8325 1.03806 16.8469C1.03363 16.8614 1.03138 16.8738 1.02768 16.8885C1.02398 16.9032 1.0173 16.9186 1.0173 16.9334C1.0173 16.9483 1.01038 16.9635 1.01038 16.9784C1.01038 16.9934 1.00346 17.0083 1.00346 17.0234C1.00346 17.0385 1 17.0533 1 17.0684C1 17.0835 1 17.0982 1 17.1134C1 17.1285 1 17.1432 1 17.1583C1 17.1735 1.00346 17.1883 1.00346 17.2033C1.00346 17.2184 1.01038 17.2334 1.01038 17.2483C1.01038 17.2633 1.0173 17.2785 1.0173 17.2933C1.0173 17.3081 1.0239 17.3236 1.02768 17.3383C1.03146 17.3529 1.03701 17.3688 1.04152 17.3832C1.04603 17.3977 1.05014 17.4106 1.05536 17.4248C1.06059 17.439 1.06673 17.4524 1.07266 17.4663C1.07859 17.4802 1.08334 17.4942 1.08996 17.5078C1.09658 17.5214 1.10343 17.5361 1.11072 17.5493C1.11801 17.5626 1.127 17.5745 1.13494 17.5874C1.14288 17.6003 1.15059 17.613 1.15916 17.6255C1.16773 17.6379 1.17765 17.6515 1.18684 17.6635C1.19603 17.6755 1.20474 17.6866 1.21452 17.6981C1.2243 17.7097 1.23532 17.7217 1.24566 17.7327C1.256 17.7438 1.26592 17.7533 1.2768 17.7638C1.28768 17.7744 1.30001 17.785 1.3114 17.795C1.32279 17.805 1.33413 17.8133 1.346 17.8227C1.35787 17.8321 1.36827 17.8416 1.3806 17.8503C1.39293 17.8591 1.40591 17.8699 1.41866 17.878C1.43141 17.8862 1.44358 17.8913 1.45672 17.8988C1.46986 17.9063 1.48474 17.9162 1.49824 17.923C1.51174 17.9299 1.52594 17.9342 1.53976 17.9403C1.55359 17.9465 1.56717 17.9522 1.58128 17.9576C1.5954 17.9631 1.60843 17.9702 1.6228 17.9749L9.45972 20.7706C9.76247 20.8796 10.0894 20.9298 10.4043 20.9298C10.7192 20.9298 11.0461 20.8796 11.3489 20.7706C11.3633 20.7659 11.3763 20.7622 11.3904 20.7568C11.4045 20.7513 11.4181 20.7456 11.4319 20.7395C11.4458 20.7333 11.46 20.7255 11.4734 20.7187C11.487 20.7119 11.5018 20.7054 11.515 20.6979C11.5281 20.6904 11.5403 20.6819 11.553 20.6737C11.5658 20.6656 11.5787 20.6583 11.5911 20.6495C11.6034 20.6407 11.6138 20.6312 11.6257 20.6218C11.6376 20.6124 11.6489 20.6041 11.6603 20.5941C11.6717 20.5842 11.684 20.5735 11.6949 20.563C11.7058 20.5525 11.7157 20.5394 11.726 20.5284C11.7364 20.5173 11.7474 20.5088 11.7572 20.4973C11.7669 20.4857 11.7757 20.4712 11.7848 20.4592C11.794 20.4472 11.804 20.4371 11.8125 20.4246C11.8211 20.4121 11.8288 20.3994 11.8367 20.3865C11.8447 20.3737 11.8537 20.3583 11.861 20.345C11.8682 20.3318 11.8751 20.3206 11.8817 20.307C11.8883 20.2934 11.8931 20.2794 11.899 20.2654C11.905 20.2515 11.9111 20.2381 11.9163 20.2239C11.9215 20.2097 11.9257 20.1934 11.9302 20.1789C11.9347 20.1645 11.9402 20.1521 11.944 20.1374C11.9478 20.1228 11.9544 20.1073 11.9544 20.0924C11.9544 20.0776 11.9613 20.0624 11.9613 20.0475C11.9613 20.0325 11.9682 20.0175 11.9682 20.0025C11.9682 19.9874 11.9717 19.9726 11.9717 19.9575C11.9717 19.9424 11.9717 19.9277 11.9717 19.9125C11.9717 19.8974 11.9717 19.8827 11.9717 19.8675C11.9717 19.8524 11.9682 19.8376 11.9682 19.8226C11.9682 19.8075 11.9613 19.7925 11.9613 19.7776C11.9613 19.7626 11.9544 19.7474 11.9544 19.7326C11.9544 19.7178 11.9477 19.7023 11.944 19.6876C11.9403 19.6729 11.9346 19.6571 11.9302 19.6426C11.9257 19.6282 11.9215 19.6153 11.9163 19.6011C11.9112 19.5869 11.9083 19.5701 11.9025 19.5561C11.8966 19.5422 11.8883 19.5317 11.8817 19.5181C11.8752 19.5044 11.8682 19.4899 11.861 19.4766C11.8538 19.4633 11.8481 19.448 11.8402 19.435C11.8324 19.4221 11.8245 19.4095 11.816 19.397C11.8075 19.3845 11.7974 19.3744 11.7883 19.3624C11.7792 19.3503 11.7703 19.3394 11.7606 19.3278C11.7509 19.3162 11.7398 19.3043 11.7295 19.2932C11.7192 19.2821 11.7092 19.2691 11.6983 19.2586C11.6875 19.248 11.6751 19.2375 11.6637 19.2274C11.6524 19.2174 11.641 19.2092 11.6291 19.1998C11.6173 19.1903 11.6068 19.1809 11.5945 19.1721C11.5823 19.1632 11.5692 19.1561 11.5565 19.1479C11.5438 19.1396 11.5315 19.1312 11.5184 19.1236C11.5053 19.1161 11.4904 19.1063 11.4769 19.0994C11.4634 19.0925 11.4527 19.0884 11.4388 19.0821C11.4251 19.0759 11.4079 19.0703 11.3939 19.0648C11.3798 19.0593 11.3667 19.0523 11.3523 19.0475C11.338 19.0427 11.3254 19.0378 11.3108 19.0337C11.2963 19.0296 11.2806 19.0233 11.2658 19.0233C11.2511 19.0233 11.2358 19.0129 11.2209 19.0129C11.206 19.0129 11.1909 19.0095 11.1759 19.0095C11.1609 19.0095 11.146 19.0025 11.1309 19.0025C11.1158 19.0025 11.1011 19.0025 11.0859 19.0025C11.0708 19.0025 11.0561 19.0025 11.0409 19.0025C11.0258 19.0025 11.0111 19.0025 10.996 19.0025C10.9809 19.0025 10.966 19.0095 10.951 19.0095C10.936 19.0095 10.9209 19.0164 10.906 19.0164C10.8911 19.0164 10.8758 19.0233 10.861 19.0233C10.8463 19.0233 10.8306 19.0296 10.816 19.0337C10.8015 19.0378 10.7889 19.0427 10.7745 19.0475C10.7602 19.0524 10.7436 19.0593 10.7295 19.0648L10.7434 19.0648Z"   fill="#034FA1" ></path></svg>