<svg xmlns="http://www.w3.org/2000/svg" xmlns:xlink="http://www.w3.org/1999/xlink" width="24" height="24" viewBox="0 0 24 24" fill="none"><path   fill="rgba(3, 79, 161, 1)"  d="M4 6.8001L19.9999 6.8001C21.5463 6.8001 22.7999 8.0537 22.7999 9.6001L22.7999 18.8C22.7999 20.3464 21.5463 21.6 19.9999 21.6L4 21.6C2.4536 21.6 1.2 20.3464 1.2 18.8L1.2 9.6001C1.2 8.0537 2.4536 6.8001 4 6.8001ZM4 8.4001C3.33726 8.4001 2.8 8.93736 2.8 9.6001L2.8 18.8C2.8 19.4628 3.33726 20 4 20L19.9999 20C20.6627 20 21.1999 19.4628 21.1999 18.8L21.1999 9.6001C21.1999 8.93736 20.6627 8.4001 19.9999 8.4001L4 8.4001Z"></path><path   fill="rgba(3, 79, 161, 1)"  d="M7.39454 6.87709L10.6044 3.16038L10.6044 3.16038C11.2319 2.43383 12.3535 2.41955 12.9992 3.1299L12.4073 3.66803L12.9992 3.1299L16.3919 6.86185L15.208 7.93812L11.8153 4.20617L11.8153 4.20617C11.8153 4.20617 11.8153 4.20617 11.8153 4.20617L11.2099 3.68328L11.8153 4.20617L8.60546 7.92288L7.39454 6.87709ZM8 8.19998C7.55817 8.19998 7.2 7.84181 7.2 7.39998C7.2 6.95816 7.55817 6.59998 8 6.59998C8.44183 6.59998 8.8 6.95816 8.8 7.39998C8.8 7.84181 8.44183 8.19998 8 8.19998ZM15.8 8.19998C15.3581 8.19998 15 7.84181 15 7.39998C15 6.95816 15.3581 6.59998 15.8 6.59998C16.2418 6.59998 16.6 6.95816 16.6 7.39998C16.6 7.84181 16.2418 8.19998 15.8 8.19998Z"></path><path d="M17.7277 14.9559C17.7452 14.9559 17.7621 14.9559 17.7796 14.9559C17.7972 14.9559 17.8141 14.9599 17.8316 14.9599C17.849 14.9599 17.8701 14.9679 17.8875 14.9679C17.9048 14.9679 17.9222 14.9719 17.9394 14.9719C17.9566 14.9719 17.9747 14.9839 17.9918 14.9839C18.0088 14.9839 18.0226 14.9916 18.0394 14.9959C18.0562 15.0003 18.0709 15.0068 18.0875 15.0119C18.104 15.017 18.1193 15.0222 18.1355 15.0279C18.1517 15.0337 18.1677 15.0375 18.1835 15.0439C18.1994 15.0504 18.2161 15.0568 18.2316 15.0639C18.2471 15.071 18.2646 15.0762 18.2796 15.0839C18.2947 15.0917 18.3088 15.1036 18.3234 15.1119C18.338 15.1203 18.3534 15.1269 18.3675 15.1359C18.3816 15.1449 18.3938 15.1544 18.4074 15.1639C18.4209 15.1735 18.4346 15.1858 18.4476 15.1959C18.4606 15.2061 18.4751 15.2133 18.4875 15.2239C18.4998 15.2346 18.5116 15.2488 18.5234 15.2599C18.5352 15.2711 18.5443 15.2843 18.5554 15.2959C18.5666 15.3076 18.577 15.3158 18.5875 15.3279C18.5979 15.3401 18.6058 15.3514 18.6156 15.3639C18.6253 15.3765 18.6386 15.391 18.6476 15.4039C18.6566 15.4169 18.6632 15.4306 18.6714 15.4439C18.6797 15.4572 18.6882 15.4703 18.6957 15.4839C18.7032 15.4976 18.7089 15.514 18.7156 15.5279C18.7223 15.5419 18.7296 15.5537 18.7355 15.5679C18.7414 15.5821 18.7464 15.5975 18.7515 15.6119C18.7566 15.6264 18.7633 15.6373 18.7675 15.6519C18.7718 15.6666 18.7796 15.6811 18.7796 15.6959C18.7796 15.7107 18.7875 15.725 18.7875 15.7399C18.7875 15.7549 18.7957 15.7729 18.7957 15.7879C18.7957 15.803 18.7996 15.8169 18.7996 15.8319C18.7996 15.847 18.7996 15.8649 18.7996 15.8799C18.7996 15.895 18.7996 15.9089 18.7996 15.9239C18.7996 15.939 18.7957 15.9529 18.7957 15.9679C18.7957 15.9829 18.7875 16.001 18.7875 16.0159C18.7875 16.0309 18.7796 16.0451 18.7796 16.0599C18.7796 16.0747 18.7718 16.0893 18.7675 16.1039C18.7633 16.1186 18.7566 16.1295 18.7515 16.1439C18.7464 16.1584 18.7414 16.1737 18.7355 16.1879C18.7296 16.2021 18.7223 16.214 18.7156 16.2279C18.7089 16.2419 18.7032 16.2583 18.6957 16.2719C18.6882 16.2856 18.6797 16.2986 18.6714 16.3119C18.6632 16.3252 18.6566 16.339 18.6476 16.3519C18.6386 16.3649 18.6253 16.3794 18.6156 16.3919C18.6058 16.4045 18.5979 16.4158 18.5875 16.4279C18.577 16.4401 18.5666 16.4483 18.5554 16.4599C18.5443 16.4716 18.5352 16.4848 18.5234 16.4959C18.5116 16.5071 18.4998 16.5213 18.4875 16.5319C18.4751 16.5426 18.4606 16.5498 18.4476 16.5599C18.4346 16.5701 18.4209 16.5824 18.4074 16.5919C18.3938 16.6015 18.3816 16.6109 18.3675 16.6199C18.3534 16.6289 18.338 16.6355 18.3234 16.6439C18.3088 16.6523 18.2947 16.6642 18.2796 16.6719C18.2646 16.6797 18.2471 16.6848 18.2316 16.6919C18.2161 16.6991 18.1994 16.7055 18.1835 16.7119C18.1677 16.7184 18.1517 16.7222 18.1355 16.7279C18.1193 16.7337 18.104 16.7388 18.0875 16.7439C18.0709 16.749 18.0562 16.7555 18.0394 16.7599C18.0226 16.7643 18.0088 16.7719 17.9918 16.7719C17.9747 16.7719 17.9566 16.7839 17.9394 16.7839C17.9222 16.7839 17.9048 16.7879 17.8875 16.7879C17.8701 16.7879 17.849 16.7959 17.8316 16.7959C17.8141 16.7959 17.7972 16.7999 17.7796 16.7999C17.7621 16.7999 17.7452 16.7999 17.7277 16.7999L6.67161 16.7999C6.65408 16.7999 6.63712 16.7999 6.61961 16.7999C6.60209 16.7999 6.58506 16.7959 6.56761 16.7959C6.55017 16.7959 6.52896 16.7879 6.51161 16.7879C6.49426 16.7879 6.47679 16.7839 6.45961 16.7839C6.4424 16.7839 6.42462 16.7719 6.40761 16.7719C6.3906 16.7719 6.37639 16.7643 6.35961 16.7599C6.34284 16.7556 6.32812 16.749 6.31161 16.7439C6.2951 16.7388 6.27981 16.7337 6.26361 16.7279C6.24742 16.7221 6.23147 16.7184 6.21561 16.7119C6.19976 16.7055 6.18307 16.6991 6.16761 16.6919C6.15215 16.6848 6.13465 16.6797 6.11961 16.6719C6.10456 16.6642 6.09018 16.6523 6.07561 16.6439C6.06103 16.6355 6.0457 16.6289 6.03161 16.6199C6.01753 16.6109 6.00516 16.6015 5.99161 16.5919C5.97805 16.5824 5.9646 16.5701 5.95161 16.5599C5.93862 16.5498 5.924 16.5426 5.91161 16.5319C5.89921 16.5213 5.88739 16.5071 5.87561 16.4959C5.86384 16.4848 5.85472 16.4716 5.84361 16.4599C5.83248 16.4483 5.82205 16.4401 5.81161 16.4279C5.80116 16.4158 5.79336 16.4045 5.78361 16.3919C5.77388 16.3794 5.76063 16.3649 5.75161 16.3519C5.74259 16.339 5.73587 16.3252 5.72761 16.3119C5.71934 16.2986 5.71111 16.2856 5.70361 16.2719C5.69612 16.2583 5.69032 16.2419 5.68361 16.2279C5.6769 16.214 5.66952 16.2021 5.66361 16.1879C5.6577 16.1737 5.6527 16.1584 5.64761 16.1439C5.64252 16.1295 5.63588 16.1186 5.63161 16.1039C5.62735 16.0893 5.61961 16.0747 5.61961 16.0599C5.61961 16.0451 5.61161 16.0309 5.61161 16.0159C5.61161 16.001 5.60361 15.9829 5.60361 15.9679C5.60361 15.9529 5.59961 15.939 5.59961 15.9239C5.59961 15.9089 5.59961 15.895 5.59961 15.8799C5.59961 15.8649 5.59961 15.847 5.59961 15.8319C5.59961 15.8169 5.60361 15.803 5.60361 15.7879C5.60361 15.7729 5.61161 15.7549 5.61161 15.7399C5.61161 15.725 5.61961 15.7107 5.61961 15.6959C5.61961 15.6811 5.62735 15.6666 5.63161 15.6519C5.63588 15.6373 5.64252 15.6264 5.64761 15.6119C5.6527 15.5975 5.6577 15.5821 5.66361 15.5679C5.66952 15.5537 5.6769 15.5419 5.68361 15.5279C5.69032 15.514 5.69612 15.4976 5.70361 15.4839C5.71111 15.4703 5.71934 15.4572 5.72761 15.4439C5.73587 15.4306 5.74259 15.4169 5.75161 15.4039C5.76063 15.391 5.77388 15.3765 5.78361 15.3639C5.79336 15.3514 5.80116 15.3401 5.81161 15.3279C5.82205 15.3158 5.83248 15.3076 5.84361 15.2959C5.85472 15.2843 5.86384 15.2711 5.87561 15.2599C5.88739 15.2488 5.89921 15.2346 5.91161 15.2239C5.924 15.2133 5.93862 15.2061 5.95161 15.1959C5.9646 15.1858 5.97805 15.1735 5.99161 15.1639C6.00516 15.1544 6.01753 15.1449 6.03161 15.1359C6.0457 15.1269 6.06103 15.1203 6.07561 15.1119C6.09018 15.1036 6.10456 15.0917 6.11961 15.0839C6.13465 15.0762 6.15215 15.071 6.16761 15.0639C6.18307 15.0568 6.19976 15.0504 6.21561 15.0439C6.23147 15.0375 6.24742 15.0337 6.26361 15.0279C6.27981 15.0222 6.2951 15.017 6.31161 15.0119C6.32812 15.0068 6.34284 15.0003 6.35961 14.9959C6.37639 14.9916 6.3906 14.9839 6.40761 14.9839C6.42462 14.9839 6.4424 14.9719 6.45961 14.9719C6.47679 14.9719 6.49426 14.9679 6.51161 14.9679C6.52894 14.9679 6.55015 14.9599 6.56761 14.9599C6.58506 14.9599 6.60209 14.9559 6.61961 14.9559C6.63712 14.9559 6.65408 14.9559 6.67161 14.9559L17.7277 14.9559ZM14.8715 11.2C14.889 11.2 14.9059 11.2 14.9234 11.2C14.9409 11.2 14.9583 11.204 14.9757 11.204C14.9932 11.204 15.0143 11.212 15.0316 11.212C15.0489 11.212 15.0625 11.216 15.0797 11.216C15.0969 11.216 15.1146 11.228 15.1316 11.228C15.1486 11.228 15.1629 11.2356 15.1797 11.24C15.1964 11.2443 15.2151 11.2509 15.2316 11.256C15.2481 11.261 15.2634 11.2662 15.2797 11.272C15.2958 11.2777 15.3118 11.2815 15.3277 11.288C15.3435 11.2944 15.3603 11.3008 15.3757 11.308C15.3912 11.3151 15.4084 11.3202 15.4234 11.328C15.4384 11.3357 15.453 11.3476 15.4675 11.356C15.4821 11.3643 15.4976 11.371 15.5117 11.3799C15.5258 11.3889 15.5341 11.3984 15.5476 11.4079C15.5612 11.4175 15.5745 11.4298 15.5875 11.4399C15.6005 11.4501 15.6153 11.4573 15.6277 11.4679C15.6401 11.4786 15.6518 11.4928 15.6636 11.504C15.6754 11.5151 15.6885 11.5283 15.6996 11.5399C15.7107 11.5516 15.7212 11.5598 15.7316 11.5719C15.742 11.5841 15.75 11.5954 15.7597 11.6079C15.7695 11.6205 15.7827 11.635 15.7918 11.648C15.8008 11.6609 15.8073 11.6746 15.8156 11.688C15.8239 11.7013 15.8319 11.7143 15.8394 11.7279C15.8469 11.7416 15.853 11.758 15.8597 11.7719C15.8664 11.7859 15.8737 11.7977 15.8796 11.8119C15.8856 11.8262 15.8906 11.8415 15.8957 11.8559C15.9008 11.8704 15.9074 11.8813 15.9117 11.8959C15.9159 11.9106 15.9234 11.9251 15.9234 11.9399C15.9234 11.9547 15.9316 11.969 15.9316 11.9839C15.9316 11.9989 15.9394 12.0169 15.9394 12.0319C15.9394 12.047 15.9437 12.0609 15.9437 12.0759C15.9437 12.091 15.9437 12.1049 15.9437 12.1199C15.9437 12.135 15.9437 12.1529 15.9437 12.1679C15.9437 12.183 15.9394 12.1969 15.9394 12.2119C15.9394 12.227 15.9316 12.245 15.9316 12.2599C15.9316 12.2749 15.9234 12.2892 15.9234 12.3039C15.9234 12.3187 15.9159 12.3333 15.9117 12.3479C15.9074 12.3626 15.9008 12.3735 15.8957 12.3879C15.8906 12.4024 15.8856 12.4177 15.8796 12.4319C15.8737 12.4461 15.8664 12.458 15.8597 12.4719C15.853 12.4859 15.8469 12.5023 15.8394 12.5159C15.8319 12.5296 15.8239 12.5426 15.8156 12.5559C15.8073 12.5692 15.8008 12.583 15.7918 12.5959C15.7827 12.6089 15.7695 12.6234 15.7597 12.6359C15.75 12.6485 15.742 12.6598 15.7316 12.6719C15.7212 12.6841 15.7107 12.6923 15.6996 12.7039C15.6885 12.7156 15.6754 12.7288 15.6636 12.7399C15.6518 12.7511 15.6401 12.7653 15.6277 12.7759C15.6153 12.7866 15.6005 12.7938 15.5875 12.8039C15.5745 12.8141 15.5612 12.8264 15.5476 12.8359C15.5341 12.8455 15.5258 12.855 15.5117 12.8639C15.4976 12.8729 15.4821 12.8796 15.4675 12.8879C15.453 12.8963 15.4384 12.9082 15.4234 12.9159C15.4084 12.9237 15.3912 12.9288 15.3757 12.9359C15.3603 12.9431 15.3435 12.9495 15.3277 12.9559C15.3118 12.9624 15.2958 12.9662 15.2797 12.9719C15.2634 12.9777 15.2481 12.9829 15.2316 12.9879C15.2151 12.993 15.1964 12.9996 15.1797 13.0039C15.1629 13.0083 15.1486 13.0159 15.1316 13.0159C15.1146 13.0159 15.0969 13.0279 15.0797 13.0279C15.0625 13.0279 15.0489 13.0319 15.0316 13.0319C15.0143 13.0319 14.9932 13.0399 14.9757 13.0399C14.9583 13.0399 14.9409 13.0439 14.9234 13.0439C14.9059 13.0439 14.889 13.0439 14.8715 13.0439L6.67161 13.0439C6.65408 13.0439 6.63712 13.0439 6.61961 13.0439C6.60209 13.0439 6.58506 13.0399 6.56761 13.0399C6.55017 13.0399 6.52896 13.0319 6.51161 13.0319C6.49426 13.0319 6.47679 13.0279 6.45961 13.0279C6.4424 13.0279 6.42462 13.0159 6.40761 13.0159C6.3906 13.0159 6.37639 13.0083 6.35961 13.0039C6.34284 12.9996 6.32812 12.993 6.31161 12.9879C6.2951 12.9829 6.27981 12.9777 6.26361 12.9719C6.24742 12.9662 6.23147 12.9624 6.21561 12.9559C6.19976 12.9495 6.18307 12.9431 6.16761 12.9359C6.15215 12.9288 6.13465 12.9237 6.11961 12.9159C6.10456 12.9082 6.09018 12.8963 6.07561 12.8879C6.06103 12.8796 6.0457 12.8729 6.03161 12.8639C6.01753 12.855 6.00516 12.8455 5.99161 12.8359C5.97805 12.8264 5.9646 12.8141 5.95161 12.8039C5.93862 12.7938 5.924 12.7866 5.91161 12.7759C5.89921 12.7653 5.88739 12.7511 5.87561 12.7399C5.86384 12.7288 5.85472 12.7156 5.84361 12.7039C5.83248 12.6923 5.82205 12.6841 5.81161 12.6719C5.80116 12.6598 5.79336 12.6485 5.78361 12.6359C5.77388 12.6234 5.76063 12.6089 5.75161 12.5959C5.74259 12.583 5.73587 12.5692 5.72761 12.5559C5.71934 12.5426 5.71111 12.5296 5.70361 12.5159C5.69612 12.5023 5.69032 12.4859 5.68361 12.4719C5.6769 12.458 5.66952 12.4461 5.66361 12.4319C5.6577 12.4177 5.6527 12.4024 5.64761 12.3879C5.64252 12.3735 5.63588 12.3626 5.63161 12.3479C5.62735 12.3333 5.61961 12.3187 5.61961 12.3039C5.61961 12.2892 5.61161 12.2749 5.61161 12.2599C5.61161 12.245 5.60361 12.227 5.60361 12.2119C5.60361 12.1969 5.59961 12.183 5.59961 12.1679C5.59961 12.1529 5.59961 12.135 5.59961 12.1199C5.59961 12.1049 5.59961 12.091 5.59961 12.0759C5.59961 12.0609 5.60361 12.047 5.60361 12.0319C5.60361 12.0169 5.61161 11.9989 5.61161 11.9839C5.61161 11.969 5.61961 11.9547 5.61961 11.9399C5.61961 11.9251 5.62735 11.9106 5.63161 11.8959C5.63588 11.8813 5.64252 11.8704 5.64761 11.8559C5.6527 11.8415 5.6577 11.8262 5.66361 11.8119C5.66952 11.7977 5.6769 11.7859 5.68361 11.7719C5.69032 11.758 5.69612 11.7416 5.70361 11.7279C5.71111 11.7143 5.71934 11.7013 5.72761 11.6879C5.73587 11.6746 5.74259 11.6609 5.75161 11.6479C5.76063 11.635 5.77388 11.6205 5.78361 11.6079C5.79336 11.5954 5.80116 11.5841 5.81161 11.5719C5.82205 11.5598 5.83248 11.5516 5.84361 11.5399C5.85472 11.5283 5.86384 11.5151 5.87561 11.504C5.88739 11.4928 5.89921 11.4786 5.91161 11.4679C5.924 11.4573 5.93862 11.4501 5.95161 11.4399C5.9646 11.4298 5.97805 11.4175 5.99161 11.408C6.00516 11.3984 6.01753 11.3889 6.03161 11.38C6.0457 11.371 6.06103 11.3643 6.07561 11.356C6.09018 11.3476 6.10456 11.3357 6.11961 11.328C6.13465 11.3202 6.15215 11.3151 6.16761 11.308C6.18307 11.3008 6.19976 11.2944 6.21561 11.288C6.23147 11.2815 6.24742 11.2777 6.26361 11.272C6.27981 11.2662 6.2951 11.261 6.31161 11.256C6.32812 11.2509 6.34284 11.2443 6.35961 11.24C6.37639 11.2356 6.3906 11.228 6.40761 11.228C6.42462 11.228 6.4424 11.216 6.45961 11.216C6.47679 11.216 6.49426 11.212 6.51161 11.212C6.52894 11.212 6.55015 11.204 6.56761 11.204C6.58506 11.204 6.60209 11.2 6.61961 11.2C6.63712 11.2 6.65408 11.2 6.67161 11.2L14.8715 11.2Z"   fill="#CC4E1D" ></path></svg>