<svg xmlns="http://www.w3.org/2000/svg" xmlns:xlink="http://www.w3.org/1999/xlink" width="24" height="24" viewBox="0 0 24 24" fill="none"><path     fill="#034FA1"  d="M4.57452 5.59429L5.88415 6.84696C6.1119 6.16369 6.73823 5.70817 7.47844 5.70817L20.3468 5.70817M20.3468 5.70817C21.3148 5.70817 22.055 6.4484 22.055 7.41636L22.055 15.7295C22.055 17.1531 20.9162 18.2918 19.4927 18.2918L8.33255 18.2918C7.87702 18.2918 7.47844 18.6904 7.47844 19.1459C7.47844 19.6015 7.87702 20 8.33255 20L19.4927 20C21.8272 20 23.7632 18.0641 23.7632 15.7295L23.7632 7.41636C23.7632 5.53736 22.2258 4 20.3468 4L7.47844 4C6.22577 4 5.08698 4.68327 4.51758 5.70817"></path><path d="M13.4007 12.0285L4.85977 6.79001C4.46119 6.56226 4.34731 5.99286 4.57506 5.59428C4.85977 5.19571 5.37223 5.08182 5.77079 5.36653L14.3117 10.605C14.7103 10.8327 14.8242 11.4021 14.5964 11.8007C14.3117 12.1993 13.7993 12.3131 13.4007 12.0285Z"   fill="#034FA1" ></path><path d="M14.3118 12.0286L22.5681 6.96102C22.9666 6.73325 23.0805 6.16385 22.8528 5.76529C22.625 5.3667 22.0556 5.25283 21.657 5.48058L13.4008 10.5482C13.0022 10.776 12.8883 11.3454 13.1161 11.7439C13.4008 12.1994 13.9132 12.3133 14.3118 12.0286Z"   fill="#034FA1" ></path><path d="M6.39754 10.891L1.05358 10.891C0.598064 10.891 0.200195 10.4905 0.200195 10.035C0.200195 9.57945 0.598064 9.18164 1.05358 9.18164L6.39754 9.18164C6.85309 9.18164 7.25088 9.57945 7.25088 10.035C7.25088 10.4905 6.85309 10.891 6.39754 10.891ZM8.04822 13.851L2.7042 13.851C2.24869 13.851 1.85086 13.4531 1.85086 12.9976C1.85086 12.5421 2.24869 12.1416 2.7042 12.1416L8.04822 12.1416C8.50374 12.1416 8.90155 12.5421 8.90155 12.9976C8.90155 13.4531 8.56068 13.851 8.04822 13.851ZM9.75756 16.755L4.41354 16.755C3.95801 16.755 3.5602 16.3572 3.5602 15.9016C3.5602 15.4461 3.95801 15.0456 4.41354 15.0456L9.75756 15.0456C10.2131 15.0456 10.6109 15.4461 10.6109 15.9016C10.6109 16.4141 10.2131 16.755 9.75756 16.755Z"   fill="#CC4E1D" ></path></svg>