<svg xmlns="http://www.w3.org/2000/svg" xmlns:xlink="http://www.w3.org/1999/xlink" width="24" height="24" viewBox="0 0 24 24" fill="none"><path d="M20.5711 11.1398C20.557 11.1398 20.5415 11.1362 20.5274 11.1362C20.5134 11.1362 20.5013 11.1362 20.4873 11.1362C20.4733 11.1362 20.4615 11.1325 20.4475 11.1325C20.4336 11.1325 20.4177 11.1216 20.4039 11.1216C20.39 11.1216 20.3738 11.1143 20.3602 11.1143C20.3465 11.1143 20.3374 11.1075 20.324 11.1034C20.3105 11.0993 20.2971 11.0937 20.2838 11.0889C20.2706 11.0841 20.2532 11.0797 20.2401 11.0743C20.2271 11.069 20.2166 11.0622 20.2039 11.0562C20.1912 11.0501 20.1762 11.0446 20.1638 11.038C20.1514 11.0314 20.1432 11.0234 20.1311 11.0162C20.1191 11.0089 20.1066 11.0022 20.0949 10.9943C20.0832 10.9865 20.0696 10.9809 20.0583 10.9725C20.047 10.9641 20.0365 10.9524 20.0257 10.9434C20.0148 10.9345 20.0034 10.9275 19.993 10.918C19.9825 10.9085 19.9738 10.8989 19.9639 10.8889C19.9539 10.8789 19.9442 10.8666 19.9347 10.8562C19.9253 10.8457 19.9146 10.838 19.9056 10.8271C19.8967 10.8162 19.8885 10.802 19.8801 10.7907C19.8717 10.7794 19.8627 10.7697 19.8548 10.758C19.847 10.7463 19.8401 10.7337 19.8328 10.7216C19.8256 10.7095 19.8178 10.6977 19.8112 10.6853C19.8045 10.6728 19.7991 10.6616 19.7931 10.6489C19.787 10.6362 19.78 10.6219 19.7746 10.6089C19.7692 10.5959 19.7648 10.5822 19.76 10.5689C19.7553 10.5556 19.7496 10.5424 19.7455 10.5289C19.7414 10.5154 19.7384 10.5026 19.7384 10.4889C19.7384 10.4752 19.7274 10.4591 19.7274 10.4453C19.7274 10.4314 19.7203 10.4228 19.7203 10.4089C19.7203 10.395 19.7167 10.3793 19.7167 10.3653C19.7167 10.3512 19.7092 10.3357 19.7092 10.3216C19.7092 10.3075 19.7092 10.2957 19.7092 10.2816L19.7093 5.50344C19.7093 5.49089 19.702 5.47954 19.702 5.46707C19.702 5.45463 19.6984 5.44304 19.6984 5.43071C19.6984 5.41838 19.6875 5.40289 19.6875 5.39071C19.6875 5.37855 19.6806 5.36636 19.6766 5.35435C19.6725 5.34236 19.6666 5.32978 19.662 5.31798C19.6574 5.30619 19.6563 5.29684 19.6511 5.28526C19.6459 5.2737 19.6386 5.26019 19.6329 5.24889C19.6272 5.23759 19.621 5.22719 19.6147 5.21617C19.6085 5.20515 19.6033 5.19414 19.5966 5.18344C19.5898 5.17273 19.582 5.16474 19.5747 5.15435C19.5675 5.14397 19.557 5.13527 19.5493 5.12526C19.5415 5.11524 19.5357 5.10217 19.5275 5.09253C19.5192 5.08289 19.5107 5.07631 19.502 5.06707C19.4933 5.05783 19.482 5.04679 19.4729 5.03798C19.4638 5.02916 19.457 5.02089 19.4475 5.01253C19.438 5.00415 19.4282 4.995 19.4184 4.98707C19.4085 4.97917 19.3959 4.97269 19.3856 4.96526C19.3754 4.95781 19.3671 4.95401 19.3566 4.94707C19.3459 4.94013 19.3347 4.93169 19.3238 4.92526C19.3129 4.91881 19.3023 4.91297 19.2911 4.90707C19.2799 4.90116 19.2698 4.89426 19.2584 4.88889C19.2469 4.88353 19.2337 4.87917 19.222 4.87435C19.2103 4.86954 19.2012 4.86043 19.1893 4.85617C19.1774 4.85192 19.165 4.84894 19.1529 4.84526C19.1408 4.84157 19.1288 4.83798 19.1166 4.83798C19.1043 4.83798 19.089 4.82708 19.0766 4.82708C19.0641 4.82708 19.0527 4.82344 19.0402 4.82344C19.0277 4.82344 19.0128 4.8198 19.0002 4.8198C18.9876 4.8198 18.9765 4.81253 18.9638 4.81253C18.9512 4.81253 18.9365 4.81253 18.9238 4.81253C18.9111 4.81253 18.9001 4.81253 18.8875 4.81253C18.8748 4.81253 18.8637 4.81617 18.8511 4.81617L17.9384 4.81617C17.9244 4.81617 17.9087 4.81253 17.8947 4.81253C17.8807 4.81253 17.8687 4.80889 17.8547 4.80889C17.8408 4.80889 17.8249 4.80526 17.8111 4.80526C17.7972 4.80526 17.7849 4.79798 17.7711 4.79798C17.7573 4.79798 17.741 4.78708 17.7275 4.78708C17.7139 4.78708 17.7009 4.78033 17.6875 4.77617C17.6741 4.77202 17.6607 4.77005 17.6475 4.76526C17.6343 4.76046 17.624 4.75615 17.6111 4.75071C17.5982 4.74527 17.5837 4.7386 17.5711 4.73253C17.5584 4.72647 17.5471 4.71738 17.5347 4.71071C17.5224 4.70404 17.5104 4.69979 17.4984 4.69253C17.4864 4.68525 17.4737 4.67491 17.462 4.66707C17.4504 4.65922 17.4405 4.65367 17.4293 4.64526C17.4181 4.63686 17.4074 4.6251 17.3966 4.61617C17.3857 4.60723 17.3705 4.60017 17.3602 4.59071C17.3498 4.58124 17.341 4.57156 17.3311 4.56162C17.3212 4.55166 17.315 4.54295 17.3056 4.53253C17.2963 4.5221 17.2818 4.51066 17.2729 4.4998C17.2641 4.48893 17.2594 4.47837 17.2511 4.46707C17.2428 4.4558 17.2334 4.44241 17.2256 4.43071C17.2179 4.41903 17.211 4.41002 17.2038 4.39798C17.1967 4.38593 17.1922 4.374 17.1856 4.36162C17.1791 4.34924 17.1734 4.33432 17.1675 4.32162C17.1615 4.30894 17.1546 4.29459 17.1493 4.28162C17.1439 4.26866 17.1358 4.25484 17.1311 4.24162C17.1264 4.2284 17.1242 4.21505 17.1202 4.20162C17.1161 4.18819 17.1093 4.17886 17.1093 4.16526C17.1093 4.15164 17.0984 4.13537 17.0984 4.12162C17.0984 4.10786 17.0911 4.09186 17.0911 4.07798C17.0911 4.06411 17.0875 4.05558 17.0875 4.04162C17.0875 4.02766 17.0802 4.00836 17.0802 3.99435C17.0802 3.98034 17.0802 3.96837 17.0802 3.95435C17.0802 3.94032 17.0802 3.92836 17.0802 3.91435C17.0802 3.90034 17.0875 3.88467 17.0875 3.87071C17.0875 3.85675 17.0911 3.84095 17.0911 3.82707C17.0911 3.8132 17.0984 3.80083 17.0984 3.78707C17.0984 3.77332 17.1093 3.76068 17.1093 3.74707C17.1093 3.73347 17.1161 3.71687 17.1202 3.70344C17.1242 3.69001 17.1264 3.68029 17.1311 3.66707C17.1358 3.65386 17.1439 3.64004 17.1493 3.62707C17.1546 3.61411 17.1615 3.59977 17.1675 3.58707C17.1734 3.57438 17.1791 3.5631 17.1856 3.55071C17.1922 3.53833 17.1967 3.52639 17.2038 3.51435C17.211 3.5023 17.2179 3.48967 17.2256 3.47798C17.2334 3.4663 17.2428 3.45291 17.2511 3.44162C17.2594 3.43033 17.2641 3.4234 17.2729 3.41253C17.2818 3.40166 17.2963 3.39023 17.3056 3.3798C17.315 3.36938 17.3212 3.36067 17.3311 3.35071C17.341 3.34076 17.3498 3.32744 17.3602 3.31798C17.3705 3.30852 17.3857 3.30147 17.3966 3.29253C17.4074 3.28359 17.4181 3.27184 17.4293 3.26344C17.4405 3.25504 17.4504 3.24946 17.462 3.24162C17.4737 3.23378 17.4864 3.22707 17.4984 3.2198C17.5104 3.21254 17.5224 3.20466 17.5347 3.19798C17.5471 3.19131 17.5584 3.18223 17.5711 3.17617C17.5837 3.1701 17.5982 3.16706 17.6111 3.16162C17.624 3.15618 17.6343 3.15187 17.6475 3.14707C17.6607 3.14228 17.6741 3.13668 17.6875 3.13253C17.7009 3.12838 17.7139 3.11798 17.7275 3.11798C17.741 3.11798 17.7574 3.11071 17.7711 3.11071C17.7849 3.11071 17.7972 3.10344 17.8111 3.10344C17.8249 3.10344 17.8408 3.0998 17.8547 3.0998C17.8687 3.0998 17.8807 3.09617 17.8947 3.09617C17.9087 3.09617 17.9244 3.09253 17.9384 3.09253L18.8511 3.09253C18.8919 3.09253 18.9303 3.09253 18.9711 3.09253C19.0119 3.09253 19.054 3.0998 19.0947 3.0998C19.1355 3.0998 19.1742 3.10238 19.2147 3.10707C19.2553 3.11177 19.2981 3.11859 19.3384 3.12526C19.3787 3.13193 19.4184 3.14208 19.4584 3.15071C19.4983 3.15934 19.5389 3.16559 19.5784 3.17617C19.6178 3.18674 19.6558 3.20004 19.6947 3.21253C19.7336 3.22502 19.7729 3.23815 19.8111 3.25253C19.8493 3.26691 19.8863 3.27994 19.9238 3.29617C19.9613 3.3124 19.9999 3.33267 20.0366 3.35071C20.0732 3.36875 20.1099 3.38544 20.1456 3.40526C20.1814 3.42507 20.2164 3.44917 20.2511 3.47071C20.2858 3.49225 20.3193 3.51296 20.3529 3.53617C20.3865 3.55937 20.4187 3.58407 20.4511 3.60889C20.4835 3.63372 20.5145 3.65887 20.5456 3.68526C20.5768 3.71164 20.6103 3.73738 20.6402 3.76526C20.6701 3.79313 20.699 3.82323 20.7275 3.85253C20.7559 3.88183 20.7804 3.91278 20.8075 3.94344C20.8345 3.97409 20.862 4.00604 20.8875 4.03798C20.9129 4.06992 20.94 4.09938 20.9638 4.13253C20.9877 4.16568 21.0107 4.20008 21.0329 4.23435C21.0551 4.26863 21.0742 4.30449 21.0947 4.3398C21.1152 4.37513 21.1341 4.41262 21.1529 4.44889C21.1717 4.48518 21.1905 4.5172 21.2075 4.55435C21.2244 4.59151 21.2396 4.63277 21.2547 4.67071C21.2699 4.70865 21.2851 4.74843 21.2984 4.78708C21.3116 4.8257 21.3234 4.86056 21.3347 4.8998C21.3461 4.93905 21.358 4.98005 21.3675 5.0198C21.3769 5.05955 21.3818 5.09964 21.3893 5.1398C21.3967 5.17995 21.4056 5.21933 21.4111 5.2598C21.4166 5.30029 21.4256 5.34274 21.4256 5.38344C21.4256 5.42414 21.4329 5.46263 21.4329 5.50344L21.433 10.2816C21.433 10.2957 21.4294 10.3075 21.4294 10.3216C21.4294 10.3357 21.4255 10.3512 21.4255 10.3653C21.4255 10.3793 21.4255 10.395 21.4255 10.4089C21.4255 10.4228 21.4149 10.4314 21.4149 10.4453C21.4149 10.4591 21.4074 10.4752 21.4074 10.4889C21.4074 10.5026 21.3969 10.5154 21.3928 10.5289C21.3888 10.5424 21.3866 10.5556 21.3818 10.5689C21.3771 10.5822 21.373 10.5959 21.3676 10.6089C21.3622 10.6219 21.3552 10.6362 21.3492 10.6489C21.3431 10.6616 21.3377 10.6728 21.3311 10.6853C21.3244 10.6977 21.3166 10.7095 21.3094 10.7216C21.3021 10.7337 21.2952 10.7463 21.2874 10.758C21.2796 10.7697 21.2741 10.7794 21.2657 10.7907C21.2573 10.802 21.2455 10.8162 21.2366 10.8271C21.2277 10.838 21.2205 10.8457 21.211 10.8562C21.2016 10.8666 21.1883 10.8789 21.1784 10.8889C21.1684 10.8989 21.1597 10.9085 21.1492 10.918C21.1388 10.9275 21.1275 10.9345 21.1166 10.9434C21.1057 10.9524 21.0952 10.9642 21.0839 10.9725C21.0726 10.9809 21.063 10.9865 21.0512 10.9943C21.0395 11.0022 21.0267 11.0089 21.0146 11.0162C21.0026 11.0234 20.9908 11.0313 20.9784 11.038C20.966 11.0446 20.9546 11.0501 20.9419 11.0562C20.9291 11.0622 20.9151 11.069 20.9021 11.0743C20.8891 11.0797 20.8752 11.0842 20.8619 11.0889C20.8487 11.0936 20.8357 11.0993 20.8222 11.1034C20.8087 11.1075 20.7957 11.1143 20.782 11.1143C20.7684 11.1143 20.7522 11.1216 20.7384 11.1216C20.7246 11.1216 20.7122 11.1325 20.6982 11.1325C20.6843 11.1325 20.6686 11.1362 20.6546 11.1362C20.6406 11.1362 20.6288 11.1362 20.6148 11.1362C20.6007 11.1362 20.5852 11.1398 20.5711 11.1398ZM18.5893 4.81617L5.44382 4.81617C5.42977 4.81617 5.41784 4.81253 5.40382 4.81253C5.38981 4.81253 5.37416 4.80889 5.36019 4.80889C5.34622 4.80889 5.33407 4.80889 5.32019 4.80889C5.3063 4.80889 5.29394 4.79798 5.28019 4.79798C5.26643 4.79798 5.25015 4.79071 5.23655 4.79071C5.22293 4.79071 5.20996 4.7803 5.19655 4.77617C5.18312 4.77203 5.16975 4.77003 5.15655 4.76526C5.14336 4.76046 5.13315 4.75613 5.12019 4.75071C5.10723 4.74529 5.09287 4.73857 5.08019 4.73253C5.06751 4.72647 5.05618 4.721 5.04382 4.71435C5.03145 4.70767 5.01586 4.69979 5.00382 4.69253C4.99179 4.68527 4.9791 4.67855 4.96746 4.67071C4.95582 4.66288 4.94599 4.65367 4.93473 4.64526C4.92348 4.63686 4.91283 4.62874 4.90201 4.6198C4.89118 4.61086 4.88331 4.6038 4.87292 4.59435C4.86254 4.58489 4.84647 4.57158 4.83655 4.56162C4.82665 4.55166 4.8205 4.54296 4.8111 4.53253C4.80169 4.5221 4.79453 4.51068 4.78564 4.4998C4.77675 4.48893 4.76488 4.47837 4.75655 4.46707C4.7482 4.45578 4.73887 4.44604 4.7311 4.43435C4.72333 4.42265 4.72013 4.41004 4.71292 4.39798C4.7057 4.38592 4.69771 4.37402 4.6911 4.36162C4.68449 4.34922 4.6789 4.33432 4.67292 4.32162C4.66693 4.30892 4.66009 4.29461 4.65473 4.28162C4.64937 4.26863 4.6449 4.25849 4.64019 4.24526C4.63547 4.23203 4.62971 4.2187 4.62564 4.20526C4.62157 4.19183 4.61473 4.17889 4.61473 4.16526C4.61473 4.15163 4.60746 4.13539 4.60746 4.12162C4.60746 4.10784 4.59655 4.09551 4.59655 4.08162C4.59655 4.06773 4.59292 4.0556 4.59292 4.04162C4.59292 4.02764 4.58928 4.01201 4.58928 3.99798C4.58928 3.98396 4.58928 3.97203 4.58928 3.95798C4.58928 3.94394 4.58928 3.92837 4.58928 3.91435C4.58928 3.90032 4.59292 3.88469 4.59292 3.87071C4.59292 3.85673 4.59655 3.8446 4.59655 3.83071C4.59655 3.81682 4.60746 3.80085 4.60746 3.78707C4.60746 3.7733 4.61473 3.7607 4.61473 3.74707C4.61473 3.73345 4.62157 3.72052 4.62564 3.70707C4.62971 3.69363 4.63547 3.6803 4.64019 3.66707C4.6449 3.65385 4.64937 3.64006 4.65473 3.62707C4.66009 3.61409 4.66693 3.59978 4.67292 3.58707C4.6789 3.57437 4.68449 3.56311 4.6911 3.55071C4.69771 3.53832 4.7057 3.52641 4.71292 3.51435C4.72013 3.50229 4.72333 3.48968 4.7311 3.47798C4.73887 3.46629 4.7482 3.45292 4.75655 3.44162C4.76488 3.43032 4.77675 3.41977 4.78564 3.40889C4.79453 3.39802 4.80169 3.39023 4.8111 3.3798C4.8205 3.36937 4.82665 3.35703 4.83655 3.34707C4.84647 3.33712 4.86254 3.32744 4.87292 3.31798C4.88331 3.30852 4.89118 3.30147 4.90201 3.29253C4.91283 3.28359 4.92348 3.27184 4.93473 3.26344C4.94599 3.25504 4.95582 3.24946 4.96746 3.24162C4.9791 3.23378 4.99179 3.22706 5.00382 3.2198C5.01586 3.21254 5.03145 3.20465 5.04382 3.19798C5.05618 3.19132 5.06751 3.18222 5.08019 3.17617C5.09287 3.17012 5.10723 3.16704 5.12019 3.16162C5.13315 3.1562 5.14336 3.15186 5.15655 3.14707C5.16975 3.14229 5.18312 3.13666 5.19655 3.13253C5.20996 3.1284 5.22293 3.12162 5.23655 3.12162C5.25015 3.12162 5.26643 3.11071 5.28019 3.11071C5.29394 3.11071 5.3063 3.10707 5.32019 3.10707C5.33407 3.10707 5.34622 3.0998 5.36019 3.0998C5.37416 3.0998 5.38981 3.09617 5.40382 3.09617C5.41784 3.09617 5.42977 3.09253 5.44382 3.09253L18.5893 3.09253C18.6033 3.09253 18.6189 3.09617 18.6329 3.09617C18.6469 3.09617 18.6589 3.0998 18.6729 3.0998C18.6869 3.0998 18.7027 3.10344 18.7166 3.10344C18.7304 3.10344 18.7464 3.11071 18.7602 3.11071C18.7739 3.11071 18.7866 3.11798 18.8002 3.11798C18.8138 3.11798 18.8268 3.1284 18.8402 3.13253C18.8536 3.13666 18.867 3.14229 18.8802 3.14707C18.8934 3.15186 18.9072 3.1562 18.9202 3.16162C18.9331 3.16704 18.9475 3.17012 18.9602 3.17617C18.9729 3.18222 18.9806 3.19132 18.9929 3.19798C19.0053 3.20465 19.0172 3.21254 19.0293 3.2198C19.0413 3.22706 19.054 3.23378 19.0656 3.24162C19.0773 3.24946 19.0907 3.25504 19.102 3.26344C19.1133 3.27184 19.1239 3.28359 19.1347 3.29253C19.1456 3.30147 19.1571 3.30852 19.1675 3.31798C19.1778 3.32744 19.1866 3.33712 19.1966 3.34707C19.2065 3.35703 19.2162 3.36937 19.2256 3.3798C19.235 3.39023 19.2458 3.39802 19.2547 3.40889C19.2636 3.41977 19.2682 3.43032 19.2766 3.44162C19.2849 3.45292 19.2942 3.46629 19.302 3.47798C19.3098 3.48968 19.3202 3.50229 19.3275 3.51435C19.3347 3.52641 19.3427 3.53832 19.3493 3.55071C19.3559 3.56311 19.3615 3.57437 19.3675 3.58707C19.3734 3.59978 19.3766 3.61409 19.382 3.62707C19.3874 3.64006 19.3918 3.65385 19.3966 3.66707C19.4013 3.6803 19.407 3.68999 19.4111 3.70344C19.4152 3.71688 19.4184 3.73345 19.4184 3.74707C19.4184 3.7607 19.4293 3.7733 19.4293 3.78707C19.4293 3.80085 19.4366 3.81318 19.4366 3.82707C19.4366 3.84097 19.4402 3.85673 19.4402 3.87071C19.4402 3.88469 19.4475 3.90032 19.4475 3.91435C19.4475 3.92837 19.4475 3.9403 19.4475 3.95435C19.4475 3.96839 19.4475 3.98396 19.4475 3.99798C19.4475 4.01201 19.4402 4.02764 19.4402 4.04162C19.4402 4.0556 19.4366 4.06773 19.4366 4.08162C19.4366 4.09551 19.4293 4.10784 19.4293 4.12162C19.4293 4.13539 19.4184 4.15163 19.4184 4.16526C19.4184 4.17889 19.4152 4.18819 19.4111 4.20162C19.407 4.21507 19.4013 4.23203 19.3966 4.24526C19.3918 4.25849 19.3874 4.26863 19.382 4.28162C19.3766 4.29461 19.3734 4.30892 19.3675 4.32162C19.3615 4.33432 19.3559 4.34922 19.3493 4.36162C19.3427 4.37402 19.3347 4.38592 19.3275 4.39798C19.3202 4.41004 19.3098 4.41902 19.302 4.43071C19.2942 4.44241 19.2849 4.45578 19.2766 4.46707C19.2682 4.47837 19.2636 4.48893 19.2547 4.4998C19.2458 4.51068 19.235 4.5221 19.2256 4.53253C19.2162 4.54296 19.2065 4.55166 19.1966 4.56162C19.1866 4.57158 19.1778 4.58126 19.1675 4.59071C19.1571 4.60017 19.1456 4.61086 19.1347 4.6198C19.1239 4.62874 19.1133 4.63686 19.102 4.64526C19.0907 4.65367 19.0773 4.66288 19.0656 4.67071C19.054 4.67855 19.0413 4.68527 19.0293 4.69253C19.0172 4.69979 19.0053 4.70767 18.9929 4.71435C18.9806 4.721 18.9729 4.72647 18.9602 4.73253C18.9475 4.73857 18.9331 4.74529 18.9202 4.75071C18.9072 4.75613 18.8934 4.76046 18.8802 4.76526C18.867 4.77003 18.8536 4.77203 18.8402 4.77617C18.8268 4.7803 18.8138 4.78708 18.8002 4.78708C18.7866 4.78708 18.7739 4.79798 18.7602 4.79798C18.7464 4.79798 18.7304 4.80526 18.7166 4.80526C18.7027 4.80526 18.6869 4.80889 18.6729 4.80889C18.6589 4.80889 18.6469 4.81253 18.6329 4.81253C18.6189 4.81253 18.6033 4.81617 18.5893 4.81617ZM13.0911 21.5871L5.22928 21.5871C5.18845 21.5871 5.14647 21.5907 5.10564 21.5907C5.06479 21.5907 5.02639 21.5871 4.98564 21.5871C4.94488 21.5871 4.90258 21.5773 4.86201 21.5725C4.82143 21.5678 4.78231 21.5646 4.74201 21.558C4.7017 21.5512 4.66194 21.5411 4.62201 21.5325C4.58209 21.5239 4.54147 21.514 4.50201 21.5034C4.46255 21.4928 4.42454 21.4832 4.38564 21.4707C4.34674 21.4582 4.30751 21.4451 4.26928 21.4307C4.23104 21.4164 4.19405 21.3996 4.15655 21.3834C4.11906 21.3672 4.08047 21.3506 4.04382 21.3325C4.00718 21.3144 3.97046 21.2941 3.93473 21.2743C3.89902 21.2545 3.864 21.2341 3.82928 21.2125C3.79457 21.191 3.76108 21.1703 3.72746 21.1471C3.69384 21.1238 3.66172 21.0992 3.62928 21.0743C3.59683 21.0496 3.56593 21.0244 3.53473 20.998C3.50354 20.9716 3.47005 20.9422 3.44019 20.9143C3.41032 20.8865 3.38138 20.86 3.35292 20.8307C3.32445 20.8014 3.29992 20.7705 3.27292 20.7398C3.24592 20.7092 3.21475 20.6772 3.18928 20.6453C3.16381 20.6133 3.14043 20.5839 3.11655 20.5507C3.09268 20.5176 3.06969 20.4832 3.04746 20.4489C3.02523 20.4146 3.00617 20.3788 2.98564 20.3434C2.96512 20.3081 2.9426 20.2743 2.92382 20.238C2.90505 20.2017 2.88626 20.1661 2.86928 20.1289C2.8523 20.0917 2.83715 20.0505 2.82201 20.0125C2.80686 19.9746 2.79527 19.9385 2.78201 19.8998C2.76874 19.8612 2.757 19.8227 2.74564 19.7834C2.73428 19.7442 2.72235 19.7032 2.71292 19.6634C2.70349 19.6237 2.69857 19.5836 2.6911 19.5434C2.68362 19.5033 2.67478 19.4603 2.66928 19.4198C2.66378 19.3793 2.65473 19.3405 2.65473 19.2998C2.65473 19.2591 2.64746 19.2206 2.64746 19.1798L2.64746 5.50344C2.64746 5.46263 2.65473 5.42414 2.65473 5.38344C2.65473 5.34274 2.66377 5.30029 2.66928 5.2598C2.67478 5.21933 2.68362 5.17997 2.6911 5.1398C2.69857 5.09965 2.70349 5.05956 2.71292 5.0198C2.72235 4.98005 2.73428 4.93903 2.74564 4.8998C2.75701 4.86056 2.76874 4.8257 2.78201 4.78708C2.79527 4.74843 2.80687 4.70865 2.82201 4.67071C2.83715 4.63277 2.8523 4.59151 2.86928 4.55435C2.88626 4.5172 2.90505 4.48518 2.92382 4.44889C2.9426 4.41262 2.96512 4.37513 2.98564 4.3398C3.00617 4.30449 3.02523 4.26863 3.04746 4.23435C3.06969 4.20007 3.09268 4.16568 3.11655 4.13253C3.14043 4.09938 3.16381 4.06992 3.18928 4.03798C3.21475 4.00604 3.24592 3.97409 3.27292 3.94344C3.29992 3.91278 3.32445 3.88183 3.35292 3.85253C3.38138 3.82323 3.41032 3.79313 3.44019 3.76526C3.47005 3.73738 3.50354 3.71164 3.53473 3.68526C3.56593 3.65888 3.59684 3.63372 3.62928 3.60889C3.66172 3.58407 3.69384 3.55937 3.72746 3.53617C3.76108 3.51296 3.79457 3.49225 3.82928 3.47071C3.86399 3.44918 3.899 3.42507 3.93473 3.40526C3.97046 3.38544 4.00718 3.36875 4.04382 3.35071C4.08047 3.33267 4.11906 3.3124 4.15655 3.29617C4.19403 3.27994 4.23104 3.26691 4.26928 3.25253C4.30752 3.23815 4.34676 3.22502 4.38564 3.21253C4.42454 3.20004 4.46255 3.18674 4.50201 3.17617C4.54147 3.16559 4.58207 3.15934 4.62201 3.15071C4.66193 3.14208 4.7017 3.13193 4.74201 3.12526C4.78231 3.11859 4.82143 3.11177 4.86201 3.10707C4.90258 3.10238 4.94488 3.0998 4.98564 3.0998C5.02639 3.0998 5.06479 3.09253 5.10564 3.09253C5.14647 3.09253 5.18845 3.09253 5.22928 3.09253L6.2111 3.09253C6.22515 3.09253 6.24072 3.09617 6.25473 3.09617C6.26875 3.09617 6.28076 3.0998 6.29473 3.0998C6.3087 3.0998 6.32449 3.10344 6.33837 3.10344C6.35225 3.10344 6.36462 3.11071 6.37837 3.11071C6.39212 3.11071 6.40477 3.11798 6.41837 3.11798C6.43199 3.11798 6.4486 3.1284 6.46201 3.13253C6.47544 3.13666 6.48881 3.14229 6.50201 3.14707C6.5152 3.15186 6.52905 3.1562 6.54201 3.16162C6.55496 3.16704 6.56569 3.17012 6.57837 3.17617C6.59105 3.18222 6.60238 3.19132 6.61473 3.19798C6.62711 3.20465 6.63907 3.21254 6.6511 3.2198C6.66313 3.22706 6.67582 3.23378 6.68746 3.24162C6.69911 3.24946 6.70893 3.25504 6.72019 3.26344C6.73145 3.27184 6.74209 3.28359 6.75292 3.29253C6.76374 3.30147 6.77888 3.30852 6.78928 3.31798C6.79965 3.32744 6.80845 3.33712 6.81837 3.34707C6.82827 3.35703 6.83442 3.36937 6.84382 3.3798C6.85323 3.39023 6.86403 3.39802 6.87292 3.40889C6.8818 3.41977 6.89004 3.43032 6.89837 3.44162C6.90672 3.45292 6.91605 3.46629 6.92382 3.47798C6.93159 3.48968 6.94207 3.50229 6.94928 3.51435C6.95649 3.52641 6.96085 3.53832 6.96746 3.55071C6.97407 3.56311 6.97966 3.57437 6.98564 3.58707C6.99163 3.59978 6.99847 3.61409 7.00382 3.62707C7.00918 3.64006 7.01366 3.65385 7.01837 3.66707C7.02308 3.6803 7.02885 3.68999 7.03292 3.70344C7.03698 3.71688 7.04019 3.73345 7.04019 3.74707C7.04019 3.7607 7.05473 3.7733 7.05473 3.78707C7.05473 3.80085 7.05837 3.81318 7.05837 3.82707C7.05837 3.84097 7.06564 3.85673 7.06564 3.87071C7.06564 3.88469 7.06928 3.90032 7.06928 3.91435C7.06928 3.92837 7.06928 3.9403 7.06928 3.95435C7.06928 3.96839 7.06928 3.98396 7.06928 3.99798C7.06928 4.01201 7.06564 4.02764 7.06564 4.04162C7.06564 4.0556 7.05837 4.06773 7.05837 4.08162C7.05837 4.09551 7.05473 4.10784 7.05473 4.12162C7.05473 4.13539 7.04019 4.15163 7.04019 4.16526C7.04019 4.17889 7.03698 4.18819 7.03292 4.20162C7.02885 4.21507 7.02308 4.23203 7.01837 4.24526C7.01366 4.25849 7.00918 4.26863 7.00382 4.28162C6.99847 4.29461 6.99163 4.30892 6.98564 4.32162C6.97966 4.33432 6.97407 4.34922 6.96746 4.36162C6.96085 4.37402 6.95649 4.38592 6.94928 4.39798C6.94207 4.41004 6.93159 4.41902 6.92382 4.43071C6.91605 4.44241 6.90672 4.45578 6.89837 4.46707C6.89004 4.47837 6.8818 4.48893 6.87292 4.4998C6.86403 4.51068 6.85323 4.5221 6.84382 4.53253C6.83442 4.54296 6.82827 4.55166 6.81837 4.56162C6.80845 4.57158 6.79965 4.58126 6.78928 4.59071C6.77888 4.60017 6.76374 4.61086 6.75292 4.6198C6.74209 4.62874 6.73145 4.63686 6.72019 4.64526C6.70893 4.65367 6.69911 4.66288 6.68746 4.67071C6.67582 4.67855 6.66313 4.68527 6.6511 4.69253C6.63907 4.69979 6.62711 4.70767 6.61473 4.71435C6.60238 4.721 6.59105 4.72647 6.57837 4.73253C6.56569 4.73857 6.55496 4.74529 6.54201 4.75071C6.52905 4.75613 6.5152 4.76046 6.50201 4.76526C6.48881 4.77003 6.47544 4.77203 6.46201 4.77617C6.4486 4.7803 6.43199 4.78708 6.41837 4.78708C6.40477 4.78708 6.39212 4.79798 6.37837 4.79798C6.36462 4.79798 6.35225 4.80526 6.33837 4.80526C6.32449 4.80526 6.3087 4.80889 6.29473 4.80889C6.28076 4.80889 6.26875 4.81253 6.25473 4.81253C6.24072 4.81253 6.22515 4.81617 6.2111 4.81617L5.22928 4.81617C5.21664 4.81617 5.20557 4.81253 5.19292 4.81253C5.18026 4.81253 5.16923 4.81253 5.15655 4.81253C5.14387 4.81253 5.12921 4.81253 5.11655 4.81253C5.10392 4.81253 5.09278 4.8198 5.08019 4.8198C5.0676 4.8198 5.05272 4.82344 5.04019 4.82344C5.02766 4.82344 5.01624 4.82708 5.00382 4.82708C4.99141 4.82708 4.97611 4.83798 4.96382 4.83798C4.95153 4.83798 4.93958 4.84157 4.92746 4.84526C4.91534 4.84894 4.90304 4.85192 4.8911 4.85617C4.87917 4.86043 4.8701 4.86953 4.85837 4.87435C4.84664 4.87915 4.83348 4.88353 4.82201 4.88889C4.81053 4.89426 4.80049 4.90116 4.78928 4.90707C4.77806 4.91299 4.76746 4.91883 4.75655 4.92526C4.74563 4.93169 4.73443 4.94013 4.72382 4.94707C4.71323 4.95401 4.70499 4.95781 4.69473 4.96526C4.68447 4.97269 4.67191 4.97917 4.66201 4.98707C4.65212 4.995 4.64243 5.00415 4.63292 5.01253C4.62342 5.0209 4.61656 5.02916 4.60746 5.03798C4.59836 5.04679 4.58704 5.05783 4.57837 5.06707C4.56969 5.07631 4.56114 5.08289 4.55292 5.09253C4.54469 5.10217 4.53885 5.11524 4.5311 5.12526C4.52335 5.13527 4.51292 5.14397 4.50564 5.15435C4.49837 5.16472 4.4906 5.17272 4.48382 5.18344C4.47705 5.19414 4.47188 5.20515 4.46564 5.21617C4.45939 5.22719 4.45319 5.2376 4.44746 5.24889C4.44174 5.26021 4.43446 5.2737 4.42928 5.28526C4.42409 5.29681 4.41935 5.30619 4.41473 5.31798C4.4101 5.32978 4.40789 5.34236 4.40382 5.35435C4.39976 5.36636 4.39292 5.37853 4.39292 5.39071C4.39292 5.40289 4.38201 5.41838 4.38201 5.43071C4.38201 5.44304 4.37837 5.45463 4.37837 5.46707C4.37837 5.47954 4.36746 5.49089 4.36746 5.50344L4.36746 19.1725C4.36746 19.1851 4.37837 19.1964 4.37837 19.2089C4.37837 19.2214 4.38201 19.2329 4.38201 19.2453C4.38201 19.2576 4.39292 19.2694 4.39292 19.2816C4.39292 19.2938 4.39976 19.306 4.40382 19.318C4.40789 19.33 4.4101 19.3426 4.41473 19.3543C4.41937 19.3661 4.4241 19.3755 4.42928 19.3871C4.43446 19.3987 4.44174 19.4121 4.44746 19.4234C4.45319 19.4347 4.45939 19.4451 4.46564 19.4562C4.4719 19.4672 4.47705 19.4782 4.48382 19.4889C4.49058 19.4996 4.49837 19.5112 4.50564 19.5216C4.51292 19.532 4.52335 19.5407 4.5311 19.5507C4.53886 19.5607 4.54469 19.5702 4.55292 19.5798C4.56114 19.5894 4.5697 19.5997 4.57837 19.6089C4.58704 19.6181 4.59836 19.6255 4.60746 19.6343C4.61656 19.6432 4.6234 19.6514 4.63292 19.6598C4.64241 19.6682 4.65211 19.681 4.66201 19.6889C4.67189 19.6968 4.68447 19.6996 4.69473 19.7071C4.70499 19.7145 4.71322 19.722 4.72382 19.7289C4.73441 19.7358 4.74563 19.7443 4.75655 19.7507C4.76747 19.7571 4.77807 19.763 4.78928 19.7689C4.80049 19.7748 4.81053 19.7817 4.82201 19.7871C4.83348 19.7924 4.84666 19.7968 4.85837 19.8016C4.8701 19.8064 4.87915 19.8119 4.8911 19.8162C4.90302 19.8204 4.91534 19.8234 4.92746 19.8271C4.93958 19.8308 4.95153 19.838 4.96382 19.838C4.97611 19.838 4.99141 19.8453 5.00382 19.8453C5.01624 19.8453 5.02766 19.8525 5.04019 19.8525C5.05272 19.8525 5.0676 19.8562 5.08019 19.8562C5.09278 19.8562 5.10392 19.8634 5.11655 19.8634C5.12921 19.8634 5.14387 19.8634 5.15655 19.8634C5.16923 19.8634 5.18026 19.8634 5.19292 19.8634C5.20557 19.8634 5.21664 19.8598 5.22928 19.8598L13.0911 19.8598C13.1052 19.8598 13.1207 19.8598 13.1347 19.8598C13.1488 19.8598 13.1607 19.8634 13.1747 19.8634C13.1887 19.8634 13.2044 19.8671 13.2184 19.8671C13.2323 19.8671 13.2482 19.8743 13.262 19.8743C13.2758 19.8743 13.2847 19.8853 13.2984 19.8853C13.312 19.8853 13.3285 19.8921 13.342 19.8962C13.3555 19.9003 13.3687 19.906 13.382 19.9107C13.3953 19.9155 13.409 19.9199 13.422 19.9253C13.435 19.9306 13.4456 19.9338 13.4584 19.9398C13.4711 19.9458 13.486 19.9514 13.4984 19.958C13.5108 19.9646 13.5227 19.9725 13.5347 19.9798C13.5468 19.987 13.5557 19.9974 13.5675 20.0053C13.5792 20.0131 13.5925 20.0187 13.6038 20.0271C13.6151 20.0355 13.6257 20.0436 13.6366 20.0525C13.6474 20.0615 13.6625 20.0722 13.6729 20.0816C13.6834 20.0911 13.692 20.1008 13.702 20.1107C13.712 20.1207 13.718 20.133 13.7275 20.1434C13.7369 20.1539 13.7513 20.1616 13.7602 20.1725C13.7691 20.1834 13.7736 20.194 13.782 20.2053C13.7904 20.2166 13.7996 20.2299 13.8075 20.2416C13.8153 20.2534 13.8257 20.2659 13.8329 20.278C13.8402 20.2901 13.8444 20.3019 13.8511 20.3143C13.8577 20.3268 13.8633 20.338 13.8693 20.3507C13.8753 20.3635 13.8821 20.3777 13.8875 20.3907C13.8929 20.4037 13.8972 20.4174 13.902 20.4307C13.9068 20.444 13.9125 20.4572 13.9166 20.4707C13.9206 20.4842 13.9275 20.4971 13.9275 20.5107C13.9275 20.5244 13.9384 20.5405 13.9384 20.5543C13.9384 20.5682 13.942 20.5768 13.942 20.5907C13.942 20.6046 13.9493 20.6203 13.9493 20.6343C13.9493 20.6484 13.9529 20.6639 13.9529 20.678C13.9529 20.6921 13.9529 20.7039 13.9529 20.718C13.9529 20.7321 13.9529 20.7475 13.9529 20.7616C13.9529 20.7757 13.9493 20.7912 13.9493 20.8053C13.9493 20.8193 13.942 20.8313 13.942 20.8453C13.942 20.8592 13.9384 20.8751 13.9384 20.8889C13.9384 20.9027 13.9275 20.9152 13.9275 20.9289C13.9275 20.9426 13.9206 20.9554 13.9166 20.9689C13.9125 20.9824 13.9068 20.9956 13.902 21.0089C13.8972 21.0222 13.8929 21.0359 13.8875 21.0489C13.8821 21.0619 13.8753 21.0762 13.8693 21.0889C13.8633 21.1017 13.8577 21.1128 13.8511 21.1253C13.8444 21.1376 13.8402 21.1494 13.8329 21.1616C13.8257 21.1737 13.8153 21.1864 13.8075 21.198C13.7996 21.2098 13.7904 21.2194 13.782 21.2307C13.7736 21.2421 13.7691 21.2562 13.7602 21.2671C13.7513 21.278 13.7369 21.2895 13.7275 21.2998C13.718 21.3103 13.712 21.319 13.702 21.3289C13.692 21.3389 13.6834 21.3485 13.6729 21.358C13.6625 21.3675 13.6474 21.3782 13.6366 21.3871C13.6257 21.396 13.6151 21.4004 13.6038 21.4089C13.5925 21.4172 13.5792 21.4265 13.5675 21.4343C13.5557 21.4421 13.5468 21.4525 13.5347 21.4598C13.5227 21.467 13.5108 21.4712 13.4984 21.478C13.486 21.4846 13.4711 21.4901 13.4584 21.4962C13.4456 21.5022 13.435 21.5089 13.422 21.5143C13.409 21.5197 13.3953 21.5278 13.382 21.5325C13.3687 21.5373 13.3555 21.5393 13.342 21.5434C13.3285 21.5475 13.312 21.5543 13.2984 21.5543C13.2847 21.5543 13.2758 21.5653 13.262 21.5653C13.2482 21.5653 13.2323 21.5689 13.2184 21.5689C13.2044 21.5689 13.1887 21.5762 13.1747 21.5762C13.1607 21.5762 13.1488 21.5798 13.1347 21.5798C13.1207 21.5798 13.1052 21.5834 13.0911 21.5834L13.0911 21.5871Z"   fill="#034FA1" ></path><path d="M15.8288 21.1C15.821 21.1 15.8132 21.0998 15.8054 21.0995C15.7976 21.0991 15.7898 21.0985 15.782 21.0977C15.7742 21.097 15.7665 21.096 15.7588 21.0949C15.751 21.0937 15.7434 21.0924 15.7357 21.0909C15.728 21.0893 15.7204 21.0876 15.7128 21.0857C15.7053 21.0838 15.6977 21.0818 15.6902 21.0795C15.6828 21.0772 15.6754 21.0748 15.668 21.0721C15.6607 21.0695 15.6534 21.0667 15.6462 21.0637C15.6389 21.0607 15.6318 21.0575 15.6247 21.0542C15.6177 21.0509 15.6107 21.0474 15.6038 21.0437C15.5969 21.04 15.5901 21.0361 15.5834 21.0321C15.5767 21.0281 15.5701 21.0239 15.5636 21.0196C15.5571 21.0153 15.5508 21.0108 15.5445 21.0061C15.5382 21.0015 15.5321 20.9967 15.526 20.9917C15.52 20.9867 15.5141 20.9816 15.5083 20.9764C15.5025 20.9711 15.4968 20.9658 15.4913 20.9602C15.4858 20.9547 15.4804 20.9491 15.4752 20.9433C15.4699 20.9375 15.4648 20.9316 15.4599 20.9255C15.4549 20.9195 15.4501 20.9133 15.4454 20.9071C15.4408 20.9008 15.4363 20.8944 15.432 20.8879C15.4276 20.8814 15.4234 20.8748 15.4194 20.8681C15.4154 20.8614 15.4116 20.8546 15.4079 20.8478C15.4042 20.8409 15.4007 20.8339 15.3973 20.8268C15.394 20.8198 15.3908 20.8126 15.3878 20.8054C15.3849 20.7982 15.3821 20.7909 15.3794 20.7836C15.3768 20.7762 15.3743 20.7688 15.3721 20.7613C15.3698 20.7538 15.3677 20.7463 15.3658 20.7387C15.3639 20.7312 15.3622 20.7235 15.3607 20.7159C15.3592 20.7082 15.3578 20.7005 15.3567 20.6928C15.3555 20.6851 15.3546 20.6773 15.3538 20.6695C15.3531 20.6618 15.3525 20.654 15.3521 20.6462C15.3517 20.6384 15.3515 20.6306 15.3515 20.6228L15.3515 17.6732C15.3515 17.6645 15.3518 17.6558 15.3522 17.6471C15.3527 17.6385 15.3534 17.6298 15.3544 17.6212C15.3553 17.6125 15.3565 17.6039 15.3579 17.5953C15.3594 17.5867 15.361 17.5782 15.3629 17.5697C15.3648 17.5612 15.3669 17.5528 15.3692 17.5444C15.3716 17.536 15.3742 17.5277 15.3769 17.5195C15.3798 17.5113 15.3828 17.5031 15.386 17.4951C15.3893 17.487 15.3927 17.479 15.3964 17.4711C15.4001 17.4633 15.404 17.4555 15.4081 17.4478C15.4122 17.4402 15.4165 17.4326 15.421 17.4252C15.4256 17.4178 15.4303 17.4104 15.4352 17.4033C15.4401 17.3961 15.4452 17.3891 15.4505 17.3822C15.4558 17.3753 15.4613 17.3686 15.467 17.362C15.4727 17.3554 15.4785 17.3489 15.4845 17.3427C15.4906 17.3364 15.4968 17.3303 15.5031 17.3244C15.5095 17.3184 15.516 17.3127 15.5227 17.3071L18.3863 14.9119C18.3923 14.9068 18.3984 14.902 18.4046 14.8972C18.4108 14.8925 18.4172 14.8879 18.4236 14.8835C18.4301 14.8791 18.4366 14.8749 18.4433 14.8708C18.4499 14.8667 18.4567 14.8628 18.4636 14.859C18.4704 14.8553 18.4773 14.8517 18.4844 14.8483C18.4914 14.8448 18.4985 14.8416 18.5057 14.8385C18.5129 14.8355 18.5201 14.8326 18.5275 14.8299C18.5348 14.8272 18.5422 14.8246 18.5496 14.8223C18.5571 14.8199 18.5646 14.8178 18.5722 14.8158C18.5797 14.8138 18.5873 14.812 18.595 14.8104C18.6026 14.8088 18.6103 14.8074 18.618 14.8062C18.6257 14.8049 18.6335 14.8039 18.6412 14.803C18.649 14.8022 18.6568 14.8015 18.6646 14.8011C18.6724 14.8006 18.6802 14.8003 18.688 14.8002C18.6958 14.8002 18.7036 14.8003 18.7114 14.8006C18.7192 14.8009 18.727 14.8014 18.7348 14.802C18.7426 14.8027 18.7504 14.8036 18.7581 14.8047C18.7658 14.8057 18.7736 14.807 18.7812 14.8084C18.7889 14.8099 18.7966 14.8115 18.8042 14.8133C18.8118 14.8151 18.8193 14.8171 18.8268 14.8193C18.8343 14.8215 18.8417 14.8239 18.8491 14.8264C18.8565 14.829 18.8638 14.8317 18.8711 14.8346C18.8783 14.8375 18.8855 14.8406 18.8926 14.8439C18.8997 14.8472 18.9067 14.8506 18.9136 14.8542C18.9206 14.8578 18.9274 14.8616 18.9342 14.8655C18.9409 14.8695 18.9475 14.8736 18.9541 14.8779C18.9606 14.8821 18.9671 14.8866 18.9734 14.8911C18.9797 14.8957 18.9859 14.9005 18.992 14.9054C18.9981 14.9103 19.0041 14.9153 19.0099 14.9205C19.0158 14.9257 19.0215 14.931 19.0271 14.9365C19.0327 14.9419 19.0381 14.9475 19.0434 14.9533C19.0487 14.959 19.0539 14.9648 19.0589 14.9708C19.0639 14.9768 19.0688 14.9829 19.0735 14.9892C19.0783 14.9954 19.0828 15.0017 19.0872 15.0082C19.0916 15.0146 19.0959 15.0212 19.1 15.0278C19.1041 15.0345 19.108 15.0412 19.1117 15.0481C19.1155 15.0549 19.1191 15.0619 19.1225 15.0689C19.1259 15.0759 19.1292 15.083 19.1322 15.0902C19.1353 15.0974 19.1382 15.1047 19.1409 15.112C19.1436 15.1193 19.1461 15.1267 19.1485 15.1342C19.1508 15.1416 19.153 15.1491 19.155 15.1567C19.1569 15.1642 19.1588 15.1719 19.1603 15.1795C19.162 15.1871 19.1634 15.1948 19.1646 15.2025C19.1658 15.2103 19.1669 15.218 19.1677 15.2258C19.1686 15.2335 19.1692 15.2413 19.1697 15.2491C19.1702 15.2569 19.1704 15.2647 19.1705 15.2725C19.1706 15.2803 19.1705 15.2882 19.1702 15.296C19.1699 15.3038 19.1694 15.3116 19.1687 15.3194C19.168 15.3271 19.1672 15.3349 19.1661 15.3426C19.165 15.3504 19.1638 15.3581 19.1623 15.3658C19.1609 15.3735 19.1593 15.3811 19.1575 15.3887C19.1556 15.3963 19.1536 15.4038 19.1514 15.4113C19.1493 15.4188 19.1469 15.4263 19.1443 15.4337C19.1418 15.4411 19.1391 15.4484 19.1361 15.4556C19.1332 15.4629 19.1301 15.47 19.1269 15.4771C19.1236 15.4842 19.1202 15.4913 19.1166 15.4982C19.113 15.5051 19.1092 15.5119 19.1052 15.5187C19.1013 15.5254 19.0972 15.5321 19.0929 15.5386C19.0886 15.5452 19.0842 15.5516 19.0796 15.5579C19.075 15.5643 19.0703 15.5705 19.0654 15.5766C19.0605 15.5826 19.0555 15.5886 19.0503 15.5945C19.0451 15.6003 19.0398 15.606 19.0343 15.6116C19.0288 15.6172 19.0232 15.6226 19.0175 15.6279C19.0118 15.6333 19.0059 15.6384 18.9999 15.6434L16.3102 17.8934L16.3102 19.1466L16.6661 18.655C16.6705 18.6489 16.6751 18.6429 16.6798 18.637C16.6845 18.6311 16.6893 18.6253 16.6943 18.6196C16.6993 18.614 16.7044 18.6084 16.7096 18.603C16.7149 18.5976 16.7203 18.5923 16.7258 18.5871C16.7313 18.5819 16.7369 18.5769 16.7426 18.572C16.7483 18.5671 16.7542 18.5623 16.7602 18.5577C16.7661 18.553 16.7722 18.5485 16.7784 18.5442C16.7845 18.5399 16.7908 18.5357 16.7972 18.5316C16.8036 18.5276 16.81 18.5237 16.8166 18.52C16.8232 18.5162 16.8298 18.5126 16.8365 18.5092C16.8433 18.5058 16.8501 18.5025 16.8569 18.4994C16.8638 18.4963 16.8708 18.4934 16.8778 18.4906C16.8848 18.4879 16.8919 18.4853 16.8991 18.4828C16.9062 18.4804 16.9134 18.4781 16.9207 18.476C16.9279 18.4739 16.9352 18.472 16.9426 18.4703C16.9499 18.4685 16.9573 18.467 16.9647 18.4656C16.9721 18.4642 16.9796 18.463 16.987 18.4619C16.9945 18.4609 17.002 18.46 17.0095 18.4593C17.0171 18.4586 17.0246 18.4581 17.0321 18.4578C17.0397 18.4575 17.0472 18.4573 17.0548 18.4574C17.0623 18.4574 17.0699 18.4576 17.0774 18.458C17.0849 18.4584 17.0925 18.459 17.1 18.4597C17.1075 18.4604 17.115 18.4614 17.1224 18.4625C17.1299 18.4636 17.1374 18.4648 17.1448 18.4663C17.1522 18.4677 17.1595 18.4694 17.1669 18.4712C17.1742 18.473 17.1815 18.475 17.1887 18.4771C17.196 18.4793 17.2031 18.4816 17.2103 18.4841C17.2174 18.4866 17.2245 18.4892 17.2315 18.492C17.2385 18.4949 17.2454 18.4979 17.2522 18.501C17.2591 18.5042 17.2659 18.5075 17.2726 18.5109C17.2793 18.5144 17.2859 18.5181 17.2924 18.5218C17.299 18.5256 17.3054 18.5296 17.3117 18.5337L18.5281 19.3184L20.384 13.0321L13.7765 16.1378L14.7815 16.8619C14.788 16.8664 14.7943 16.871 14.8005 16.8759C14.8068 16.8807 14.8129 16.8857 14.8189 16.8908C14.8248 16.8959 14.8307 16.9012 14.8364 16.9066C14.8421 16.9121 14.8477 16.9176 14.8532 16.9233C14.8586 16.929 14.8639 16.9349 14.869 16.9408C14.8742 16.9468 14.8792 16.9528 14.8841 16.9591C14.8889 16.9653 14.8936 16.9716 14.8982 16.978C14.9027 16.9845 14.9071 16.991 14.9113 16.9977C14.9155 17.0043 14.9195 17.0111 14.9234 17.018C14.9273 17.0248 14.931 17.0318 14.9346 17.0388C14.9381 17.0458 14.9415 17.053 14.9446 17.0602C14.9478 17.0674 14.9508 17.0747 14.9536 17.082C14.9565 17.0894 14.9591 17.0968 14.9616 17.1043C14.964 17.1118 14.9663 17.1193 14.9684 17.1269C14.9705 17.1345 14.9723 17.1422 14.974 17.1499C14.9758 17.1576 14.9773 17.1653 14.9786 17.1731C14.9799 17.1808 14.981 17.1886 14.982 17.1965C14.9829 17.2043 14.9836 17.2121 14.9842 17.22C14.9847 17.2279 14.9851 17.2357 14.9852 17.2436C14.9854 17.2515 14.9853 17.2594 14.9851 17.2672C14.9849 17.2751 14.9844 17.283 14.9838 17.2908C14.9832 17.2987 14.9824 17.3065 14.9814 17.3143C14.9804 17.3221 14.9792 17.3299 14.9778 17.3377C14.9764 17.3454 14.9748 17.3532 14.973 17.3608C14.9712 17.3685 14.9692 17.3761 14.9671 17.3837C14.9649 17.3913 14.9626 17.3988 14.96 17.4063C14.9575 17.4137 14.9548 17.4211 14.9519 17.4285C14.949 17.4358 14.9459 17.4431 14.9427 17.4502C14.9394 17.4574 14.936 17.4645 14.9324 17.4715C14.9288 17.4785 14.925 17.4854 14.921 17.4922C14.9171 17.4991 14.913 17.5058 14.9087 17.5124C14.9044 17.519 14.9 17.5255 14.8954 17.5319C14.8908 17.5383 14.886 17.5446 14.8811 17.5507C14.8762 17.5569 14.8711 17.5629 14.8659 17.5688C14.8607 17.5747 14.8553 17.5805 14.8498 17.5862C14.8443 17.5918 14.8387 17.5973 14.8329 17.6027C14.8271 17.608 14.8212 17.6132 14.8152 17.6183C14.8092 17.6234 14.803 17.6283 14.7967 17.6331C14.7905 17.6378 14.7841 17.6425 14.7776 17.6469C14.7711 17.6513 14.7645 17.6556 14.7577 17.6598C14.751 17.6639 14.7442 17.6678 14.7373 17.6716C14.7304 17.6754 14.7234 17.679 14.7163 17.6825C14.7092 17.6859 14.702 17.6892 14.6948 17.6922C14.6875 17.6953 14.6802 17.6982 14.6728 17.7009C14.6654 17.7037 14.658 17.7062 14.6504 17.7085C14.6429 17.7109 14.6353 17.7131 14.6277 17.715C14.6201 17.717 14.6124 17.7188 14.6047 17.7204C14.597 17.722 14.5892 17.7234 14.5814 17.7246C14.5737 17.7258 14.5658 17.7268 14.558 17.7277C14.5502 17.7285 14.5423 17.7291 14.5344 17.7296C14.5266 17.73 14.5187 17.7302 14.5108 17.7303C14.5029 17.7303 14.4951 17.7302 14.4872 17.7298C14.4793 17.7295 14.4715 17.7289 14.4636 17.7282C14.4558 17.7275 14.4479 17.7265 14.4401 17.7254C14.4323 17.7243 14.4246 17.723 14.4168 17.7215C14.4091 17.72 14.4014 17.7183 14.3938 17.7164C14.3861 17.7145 14.3785 17.7124 14.371 17.7102C14.3634 17.7079 14.3559 17.7055 14.3485 17.7028C14.3411 17.7002 14.3337 17.6974 14.3264 17.6944C14.3191 17.6914 14.3119 17.6882 14.3048 17.6848C14.2977 17.6815 14.2906 17.678 14.2837 17.6743C14.2767 17.6705 14.2699 17.6667 14.2631 17.6626C14.2563 17.6586 14.2497 17.6544 14.2431 17.65C14.2366 17.6456 14.2301 17.6411 14.2238 17.6364L12.5608 16.4384C12.5525 16.4324 12.5443 16.4261 12.5364 16.4195C12.5284 16.413 12.5207 16.4061 12.5132 16.399C12.5057 16.392 12.4984 16.3847 12.4914 16.3771C12.4844 16.3696 12.4776 16.3618 12.4711 16.3538C12.4645 16.3458 12.4583 16.3377 12.4523 16.3293C12.4463 16.3209 12.4406 16.3123 12.4351 16.3035C12.4297 16.2948 12.4245 16.2859 12.4197 16.2768C12.4148 16.2677 12.4102 16.2584 12.406 16.249C12.4017 16.2396 12.3978 16.2301 12.3941 16.2205C12.3905 16.2108 12.3871 16.2011 12.3841 16.1912C12.3811 16.1813 12.3784 16.1714 12.376 16.1614C12.3737 16.1513 12.3716 16.1412 12.3699 16.1311C12.3682 16.1209 12.3668 16.1107 12.3658 16.1004C12.3647 16.0901 12.364 16.0799 12.3636 16.0696C12.3632 16.0593 12.3632 16.0489 12.3635 16.0386C12.3637 16.0283 12.3644 16.018 12.3653 16.0078C12.3663 15.9975 12.3675 15.9873 12.3692 15.9771C12.3708 15.9669 12.3727 15.9568 12.375 15.9467C12.3772 15.9366 12.3798 15.9267 12.3828 15.9168C12.3857 15.9069 12.3889 15.8971 12.3925 15.8874C12.396 15.8777 12.3999 15.8682 12.404 15.8588C12.4082 15.8493 12.4127 15.84 12.4174 15.8309C12.4222 15.8217 12.4273 15.8128 12.4326 15.8039C12.438 15.7951 12.4436 15.7865 12.4495 15.7781C12.4555 15.7696 12.4616 15.7614 12.4681 15.7533C12.4745 15.7453 12.4812 15.7374 12.4882 15.7298C12.4951 15.7222 12.5023 15.7148 12.5098 15.7077C12.5172 15.7005 12.5249 15.6936 12.5327 15.687C12.5406 15.6803 12.5487 15.6739 12.557 15.6678C12.5653 15.6617 12.5738 15.6558 12.5825 15.6503C12.5911 15.6447 12.6 15.6394 12.609 15.6344C12.618 15.6294 12.6272 15.6247 12.6365 15.6203L20.0438 12.1389L20.0513 12.1355C20.0625 12.129 20.0738 12.1228 20.0852 12.1168C20.0966 12.1108 20.1082 12.105 20.1198 12.0994C20.1315 12.0938 20.1432 12.0885 20.1551 12.0833C20.1669 12.0782 20.1789 12.0733 20.1909 12.0686C20.2029 12.064 20.2151 12.0595 20.2273 12.0553C20.2395 12.0511 20.2518 12.0471 20.2641 12.0434C20.2765 12.0397 20.2889 12.0362 20.3014 12.0329C20.3139 12.0296 20.3265 12.0266 20.3391 12.0238C20.3517 12.021 20.3643 12.0185 20.377 12.0162C20.3897 12.0139 20.4025 12.0118 20.4153 12.01C20.4281 12.0082 20.4409 12.0066 20.4537 12.0053C20.4666 12.004 20.4794 12.0029 20.4923 12.0021C20.5052 12.0013 20.5181 12.0007 20.531 12.0003C20.5439 12 20.5568 11.9999 20.5697 12.0001C20.5827 12.0002 20.5956 12.0006 20.6085 12.0013C20.6214 12.0019 20.6342 12.0028 20.6471 12.004C20.66 12.0051 20.6728 12.0065 20.6856 12.0081C20.6984 12.0098 20.7112 12.0116 20.7239 12.0138C20.7367 12.0159 20.7494 12.0183 20.762 12.0209C20.7746 12.0235 20.7872 12.0263 20.7998 12.0294C20.8123 12.0325 20.8248 12.0358 20.8372 12.0394C20.8496 12.043 20.862 12.0468 20.8742 12.0508C20.8865 12.0548 20.8987 12.0591 20.9108 12.0636C20.9229 12.0681 20.9349 12.0728 20.9468 12.0778C20.9587 12.0828 20.9706 12.088 20.9823 12.0934C20.994 12.0988 21.0056 12.1044 21.0171 12.1103C21.0286 12.1161 21.04 12.1222 21.0513 12.1285C21.0626 12.1348 21.0737 12.1413 21.0847 12.148C21.0958 12.1547 21.1067 12.1617 21.1174 12.1688C21.1282 12.176 21.1388 12.1833 21.1493 12.1908C21.1598 12.1984 21.1701 12.2061 21.1803 12.2141C21.1905 12.222 21.2005 12.2301 21.2104 12.2384C21.2902 12.3169 21.4763 12.5364 21.3338 13.1834C21.3338 13.1944 21.3283 13.2053 21.3256 13.2155L19.2631 20.2014C19.2605 20.2103 19.2576 20.219 19.2545 20.2277C19.2514 20.2364 19.248 20.245 19.2444 20.2535C19.2408 20.262 19.2369 20.2704 19.2328 20.2786C19.2287 20.2869 19.2243 20.2951 19.2198 20.3031C19.2152 20.3111 19.2104 20.319 19.2053 20.3267C19.2003 20.3345 19.195 20.342 19.1895 20.3495C19.1841 20.3569 19.1784 20.3642 19.1725 20.3713C19.1666 20.3784 19.1605 20.3853 19.1542 20.3921C19.1479 20.3988 19.1414 20.4054 19.1347 20.4118C19.128 20.4181 19.1212 20.4243 19.1141 20.4303C19.1071 20.4362 19.0999 20.442 19.0925 20.4476C19.0851 20.4531 19.0776 20.4585 19.0699 20.4636C19.0622 20.4687 19.0544 20.4736 19.0464 20.4782C19.0384 20.4829 19.0303 20.4873 19.0221 20.4915C19.0139 20.4957 19.0055 20.4997 18.9971 20.5034C18.9886 20.5071 18.9801 20.5106 18.9714 20.5138C18.9627 20.517 18.954 20.5199 18.9452 20.5227C18.9363 20.5254 18.9274 20.5278 18.9185 20.53C18.9095 20.5322 18.9005 20.5341 18.8914 20.5358C18.8823 20.5374 18.8732 20.5388 18.864 20.54C18.8548 20.5411 18.8457 20.542 18.8364 20.5426C18.8272 20.5432 18.818 20.5435 18.8088 20.5436C18.7995 20.5436 18.7903 20.5434 18.7811 20.543C18.7719 20.5425 18.7626 20.5418 18.7535 20.5408C18.7443 20.5398 18.7351 20.5385 18.726 20.5369C18.7169 20.5354 18.7079 20.5336 18.6989 20.5316C18.6899 20.5295 18.6809 20.5272 18.6721 20.5246C18.6632 20.522 18.6544 20.5192 18.6457 20.5161C18.637 20.513 18.6284 20.5097 18.6199 20.5061C18.6114 20.5025 18.603 20.4987 18.5947 20.4946C18.5864 20.4905 18.5783 20.4862 18.5702 20.4816C18.5622 20.4771 18.5543 20.4723 18.5465 20.4673L17.1747 19.5809L16.2202 20.8996C16.2174 20.9035 16.2146 20.9073 16.2117 20.9111C16.2088 20.9149 16.2059 20.9186 16.2029 20.9223C16.1999 20.926 16.1969 20.9297 16.1938 20.9333C16.1907 20.9369 16.1875 20.9405 16.1843 20.944C16.1811 20.9475 16.1779 20.951 16.1746 20.9544C16.1713 20.9579 16.1679 20.9612 16.1645 20.9646C16.1611 20.9679 16.1576 20.9711 16.1541 20.9744C16.1506 20.9776 16.147 20.9807 16.1434 20.9839C16.1398 20.987 16.1362 20.99 16.1325 20.993C16.1288 20.996 16.1251 20.999 16.1213 21.0019C16.1175 21.0048 16.1137 21.0076 16.1098 21.0104C16.106 21.0132 16.102 21.0159 16.0981 21.0185C16.0942 21.0212 16.0902 21.0238 16.0861 21.0263C16.0821 21.0289 16.0781 21.0314 16.0739 21.0338C16.0699 21.0362 16.0657 21.0386 16.0615 21.0409C16.0574 21.0432 16.0532 21.0454 16.0489 21.0476C16.0447 21.0497 16.0404 21.0518 16.0361 21.0539C16.0318 21.0559 16.0275 21.0579 16.0231 21.0598C16.0188 21.0617 16.0144 21.0636 16.01 21.0654C16.0056 21.0671 16.0011 21.0689 15.9967 21.0705C15.9922 21.0722 15.9877 21.0737 15.9832 21.0752C15.9787 21.0768 15.9741 21.0782 15.9696 21.0796C15.965 21.081 15.9605 21.0823 15.9559 21.0835C15.9513 21.0848 15.9467 21.0859 15.942 21.087C15.9374 21.0881 15.9327 21.0892 15.9281 21.0901C15.9234 21.0911 15.9187 21.092 15.9141 21.0928C15.9094 21.0936 15.9047 21.0944 15.9 21.0951C15.8952 21.0958 15.8905 21.0964 15.8858 21.0969C15.8811 21.0975 15.8763 21.0979 15.8716 21.0983C15.8668 21.0987 15.8621 21.0991 15.8573 21.0993C15.8526 21.0996 15.8478 21.0998 15.8431 21.0999C15.8383 21.1 15.8336 21.1001 15.8288 21.1Z" stroke="rgba(204, 78, 29, 1)" stroke-width="0.2"      fill="#CC4E1D" ></path><path d="M6.82156 11.6516L12.8309 11.6516C13.313 11.6516 13.5538 11.8924 13.5538 12.3745C13.5538 12.8566 13.313 13.0985 12.8309 13.0985L6.82156 13.0985C6.33945 13.0985 6.09863 12.8566 6.09863 12.3745C6.09863 11.8924 6.33945 11.6516 6.82156 11.6516ZM6.82156 15.1725L10.1453 15.1725C10.6274 15.1725 10.8682 15.4133 10.8682 15.8955C10.8682 16.3776 10.6274 16.6195 10.1453 16.6195L6.82156 16.6195C6.33944 16.6195 6.09863 16.3776 6.09863 15.8955C6.09863 15.4133 6.33945 15.1725 6.82156 15.1725ZM6.82156 8.13062L15.4394 8.13062C15.9215 8.13062 16.1623 8.37142 16.1623 8.85354C16.1623 9.33565 15.9215 9.57647 15.4394 9.57647L6.82156 9.57647C6.33945 9.57647 6.09863 9.33565 6.09863 8.85354C6.09863 8.37141 6.33945 8.13062 6.82156 8.13062Z"   fill="#034FA1" ></path><path d="M7.52832 5.1859L7.52832 2.83529C7.52832 2.26135 7.81507 1.97461 8.389 1.97461C8.96293 1.97461 9.24968 2.26135 9.24968 2.83529L9.24968 5.1859C9.24968 5.75983 8.96293 6.04658 8.389 6.04658C7.81506 6.04658 7.52832 5.75983 7.52832 5.1859ZM15.0695 5.1859L15.0695 2.83529C15.0695 2.26135 15.3573 1.97461 15.9312 1.97461C16.5052 1.97461 16.7919 2.26135 16.7919 2.83529L16.7919 5.1859C16.7919 5.75983 16.5052 6.04658 15.9312 6.04658C15.3573 6.04658 15.0695 5.75983 15.0695 5.1859Z"   fill="#034FA1" ></path></svg>