<svg xmlns="http://www.w3.org/2000/svg" xmlns:xlink="http://www.w3.org/1999/xlink" width="24" height="24" viewBox="0 0 24 24" fill="none"><path d="M16.2051 20.7752C16.416 20.8897 16.6534 20.9474 16.8898 20.9474C17.1262 20.9474 17.3637 20.8897 17.5746 20.7752L20.339 19.2677C20.7619 19.0377 21.0238 18.6087 21.0238 18.1488L21.0238 15.1338C21.0238 14.6739 20.7609 14.2449 20.339 14.0149L17.5736 12.5074C17.1517 12.2775 16.6269 12.2775 16.2051 12.5074L13.4406 14.0149C13.0177 14.2449 12.7559 14.6739 12.7559 15.1338L12.7559 18.1488C12.7559 18.6087 13.0188 19.0377 13.4406 19.2677L16.2051 20.7752ZM16.6626 13.2549C16.7329 13.2164 16.8114 13.1972 16.8898 13.1972C16.9683 13.1972 17.0467 13.2164 17.1171 13.2549L19.8825 14.7624C20.0232 14.8384 20.1098 14.9808 20.1098 15.1338L20.1098 18.1488C20.1098 18.3018 20.0232 18.4442 19.8825 18.5202L17.1171 20.0277C16.9764 20.1037 16.8032 20.1037 16.6626 20.0277L13.8971 18.5202C13.7565 18.4442 13.6699 18.3018 13.6699 18.1488L13.6699 15.1338C13.6699 14.9808 13.7565 14.8384 13.8971 14.7624L16.6626 13.2549ZM15.1526 16.1174L16.5232 16.7967L16.5232 18.3327C16.5232 18.593 16.7496 18.8051 17.0276 18.8051C17.3055 18.8051 17.5292 18.5919 17.5292 18.3327L17.5292 16.819L18.8567 16.1513C19.0966 16.0201 19.1787 15.7313 19.0386 15.5067C18.8985 15.2821 18.5895 15.2085 18.3496 15.3396L17.0515 15.9816L15.657 15.3005C15.416 15.1704 15.1098 15.2471 14.9708 15.4728C14.8318 15.6984 14.9117 15.9873 15.1526 16.1174Z" fill-rule="evenodd"  fill="#CC4E1D" ></path><path     fill="#034FA1"  d="M7.3522 6.823L10.587 6.823C11.0275 6.823 11.3845 7.18006 11.3845 7.62051L11.3845 7.62051C11.3845 8.06096 11.0275 8.41802 10.587 8.41802L7.3522 8.41802C6.91175 8.41802 6.55469 8.06096 6.55469 7.62051L6.55469 7.62051C6.55469 7.18006 6.91175 6.823 7.3522 6.823Z"></path><path     fill="#034FA1"  d="M7.3522 13.0239L10.587 13.0239C11.0275 13.0239 11.3845 13.381 11.3845 13.8214L11.3845 13.8214C11.3845 14.2619 11.0275 14.6189 10.587 14.6189L7.3522 14.6189C6.91175 14.6189 6.55469 14.2619 6.55469 13.8214L6.55469 13.8214C6.55469 13.381 6.91175 13.0239 7.3522 13.0239Z"></path><path     fill="#034FA1"  d="M7.35248 9.92358L13.0941 9.92358C13.5347 9.92358 13.8919 10.2808 13.8919 10.7214L13.8919 10.7214C13.8919 11.162 13.5347 11.5192 13.0941 11.5192L7.35248 11.5192C6.91187 11.5192 6.55469 11.162 6.55469 10.7214L6.55469 10.7214C6.55469 10.2808 6.91187 9.92358 7.35248 9.92358Z"></path><path d="M14.7881 2L14.7846 2L4.64262 2L4.52893 2.0069C4.51077 2.0069 4.49188 2.01377 4.47382 2.01377C4.45576 2.01377 4.43662 2.01715 4.41869 2.02067C4.40078 2.02421 4.38478 2.03007 4.36703 2.03444C4.34929 2.03882 4.32943 2.04302 4.3119 2.04823C4.29436 2.05346 4.27751 2.05941 4.26024 2.06546C4.24296 2.0715 4.22555 2.07928 4.20855 2.08612C4.19156 2.09299 4.17699 2.09913 4.16032 2.10679C4.14364 2.11444 4.12495 2.12246 4.10866 2.13091C4.09234 2.13935 4.07634 2.14927 4.06042 2.15848C4.04449 2.1677 4.03112 2.17608 4.01563 2.18602C4.00015 2.19598 3.98242 2.20635 3.9674 2.21704C3.95237 2.22773 3.93715 2.24009 3.92261 2.25148C3.90808 2.26286 3.89529 2.27388 3.88128 2.28594C3.86725 2.29801 3.85339 2.31111 3.83994 2.32383C3.82648 2.33654 3.81493 2.34836 3.80205 2.36172C3.78918 2.37507 3.77644 2.38911 3.76416 2.40306C3.75189 2.417 3.73788 2.42988 3.72625 2.44439C3.71462 2.45889 3.70279 2.47412 3.69181 2.48918C3.68082 2.50424 3.67107 2.51842 3.66079 2.53397C3.65049 2.54953 3.63938 2.56618 3.6298 2.5822C3.62022 2.59824 3.6111 2.61397 3.60223 2.63044C3.59338 2.6469 3.58624 2.66522 3.57812 2.6821C3.56999 2.69897 3.56134 2.71654 3.554 2.73378C3.54664 2.75102 3.53991 2.76788 3.53333 2.78546C3.52674 2.80303 3.5219 2.81925 3.51611 2.83713C3.51032 2.85499 3.50387 2.87414 3.49889 2.89226C3.49391 2.91038 3.48929 2.92902 3.48512 2.94737C3.48094 2.9657 3.47477 2.98395 3.47477 3.00248C3.47477 3.02099 3.46445 3.03895 3.46445 3.05761C3.46445 3.07627 3.45755 3.09396 3.45755 3.11272C3.45755 3.13148 3.4541 3.15249 3.4541 3.1713C3.4541 3.19013 3.4541 3.20757 3.4541 3.22641L3.4541 20.4099L3.461 20.5271C3.461 20.5458 3.46787 20.5636 3.46787 20.5822C3.46787 20.6009 3.47477 20.6223 3.47477 20.6408C3.47477 20.6593 3.48431 20.6776 3.48854 20.6959C3.49278 20.7143 3.49729 20.7295 3.50234 20.7476C3.5074 20.7657 3.51025 20.7848 3.51611 20.8027C3.52196 20.8205 3.53015 20.8403 3.53678 20.8578C3.54343 20.8753 3.55002 20.8924 3.55745 20.9095C3.56486 20.9267 3.57338 20.9443 3.58156 20.9612C3.58974 20.9779 3.59676 20.993 3.60568 21.0094C3.61461 21.0259 3.62362 21.0416 3.63325 21.0576C3.64289 21.0736 3.65389 21.0903 3.66424 21.1058C3.6746 21.1214 3.68423 21.1356 3.69525 21.1506C3.70628 21.1656 3.71802 21.1809 3.7297 21.1954C3.74139 21.2099 3.75527 21.2228 3.76759 21.2367C3.7799 21.2506 3.79257 21.2647 3.8055 21.2781C3.81843 21.2914 3.82988 21.3033 3.84339 21.316C3.85689 21.3285 3.87066 21.3418 3.88472 21.3539C3.89877 21.3658 3.91493 21.377 3.92951 21.3883C3.94409 21.3997 3.95924 21.4121 3.9743 21.4228C3.98937 21.4333 4.00356 21.4438 4.01908 21.4538C4.03462 21.4636 4.05137 21.4722 4.06732 21.4814C4.08326 21.4905 4.09919 21.5005 4.11553 21.5089C4.13188 21.5172 4.14707 21.5254 4.16377 21.533C4.18046 21.5407 4.19842 21.5469 4.21545 21.5537C4.23246 21.5605 4.2498 21.5684 4.26711 21.5743C4.28441 21.5804 4.30124 21.583 4.31879 21.5881C4.33634 21.5933 4.35268 21.6011 4.37046 21.6054C4.38821 21.6098 4.40764 21.6157 4.42559 21.6157C4.44352 21.6192 4.45918 21.626 4.47725 21.626C4.49532 21.626 4.51421 21.6295 4.53238 21.6295C4.55055 21.6295 4.56928 21.6364 4.58749 21.6364C4.60572 21.6364 4.62437 21.6364 4.64262 21.6364L12.411 21.6364L12.5041 21.6295C12.516 21.6295 12.5266 21.626 12.5385 21.626C12.5503 21.626 12.5612 21.6191 12.573 21.6191C12.5847 21.6191 12.5992 21.6088 12.6108 21.6088C12.6225 21.6088 12.6338 21.6021 12.6453 21.5985C12.6568 21.5948 12.665 21.5924 12.6763 21.5881C12.6876 21.584 12.6996 21.579 12.7108 21.5744C12.7219 21.5696 12.7343 21.5659 12.7452 21.5606C12.7561 21.5554 12.7655 21.549 12.7762 21.5433C12.7869 21.5376 12.7968 21.5323 12.8072 21.5261C12.8176 21.5198 12.8281 21.5122 12.8382 21.5055C12.8483 21.4988 12.8594 21.492 12.8692 21.4848C12.879 21.4776 12.8873 21.4717 12.8968 21.4641C12.9063 21.4564 12.9187 21.4481 12.9278 21.44C12.9369 21.4319 12.9431 21.4243 12.9519 21.4159C12.9607 21.4073 12.9711 21.3973 12.9795 21.3883C12.9879 21.3795 12.9956 21.3701 13.0036 21.3608C13.0116 21.3515 13.0201 21.3428 13.0277 21.3332C13.0353 21.3235 13.0412 21.3121 13.0484 21.3022C13.0555 21.2923 13.0623 21.285 13.069 21.2746C13.0757 21.2643 13.0835 21.2508 13.0897 21.2402C13.0959 21.2295 13.1012 21.2201 13.1069 21.2092C13.1127 21.1984 13.1189 21.1858 13.1241 21.1747C13.1294 21.1635 13.1332 21.1552 13.1379 21.1437C13.1427 21.1324 13.1474 21.1209 13.1517 21.1093C13.156 21.0977 13.1617 21.0832 13.1655 21.0714C13.1693 21.0597 13.1758 21.0489 13.1758 21.0369C13.1758 21.025 13.1827 21.0146 13.1827 21.0025C13.1827 20.9904 13.1896 20.9768 13.1896 20.9646C13.1896 20.9524 13.1965 20.939 13.1965 20.9267C13.1965 20.9144 13.1999 20.9047 13.1999 20.8922C13.1999 20.8799 13.2034 20.8668 13.2034 20.8544C13.2034 20.842 13.2034 20.8288 13.2034 20.8165L13.1965 20.7234C13.1965 20.7111 13.193 20.6978 13.193 20.6855C13.193 20.6733 13.1862 20.6599 13.1862 20.6477C13.1862 20.6356 13.1793 20.6252 13.1793 20.6132C13.1793 20.6012 13.1725 20.5906 13.1689 20.5788C13.1654 20.5669 13.1592 20.5524 13.1552 20.5409C13.1511 20.5292 13.1494 20.5179 13.1448 20.5064C13.1403 20.495 13.1327 20.4832 13.1276 20.472C13.1225 20.4608 13.1194 20.4519 13.1138 20.441C13.1083 20.4299 13.1026 20.4172 13.0966 20.4065C13.0906 20.3958 13.0824 20.3859 13.0759 20.3755C13.0694 20.3652 13.0656 20.3546 13.0587 20.3445C13.0518 20.3344 13.0419 20.3268 13.0346 20.3169C13.0272 20.3072 13.0217 20.2954 13.0139 20.2859C13.0061 20.2765 12.998 20.2674 12.9898 20.2584C12.9816 20.2493 12.9708 20.2429 12.9622 20.2343C12.9536 20.2257 12.9471 20.215 12.9381 20.2067C12.9292 20.1985 12.9199 20.1904 12.9106 20.1826C12.9013 20.1748 12.8926 20.1692 12.883 20.1619C12.8734 20.1545 12.862 20.1447 12.852 20.1378C12.842 20.1309 12.8313 20.127 12.821 20.1206C12.8108 20.1142 12.8005 20.1058 12.79 20.0999C12.7795 20.094 12.7698 20.0882 12.759 20.0827C12.7482 20.0773 12.7355 20.0738 12.7245 20.0689C12.7135 20.064 12.7047 20.0595 12.6935 20.0551C12.6823 20.0507 12.6705 20.0452 12.6591 20.0413C12.6477 20.0374 12.6362 20.031 12.6246 20.031C12.6131 20.031 12.6019 20.0207 12.5902 20.0207C12.5785 20.0207 12.5675 20.0138 12.5557 20.0138C12.544 20.0138 12.5297 20.0069 12.5178 20.0069C12.506 20.0069 12.4953 20.0034 12.4834 20.0034C12.4715 20.0034 12.4609 20 12.4489 20C12.437 20 12.423 20 12.411 20L5.03878 20L5.03878 3.63636L13.9957 3.63636L13.9957 7.31904L13.9992 7.43617C13.9992 7.45492 14.0061 7.47264 14.0061 7.49129C14.0061 7.50994 14.0164 7.5279 14.0164 7.54641C14.0164 7.56492 14.0225 7.58664 14.0267 7.60498C14.031 7.62328 14.0355 7.63854 14.0405 7.65665C14.0456 7.67476 14.0519 7.69393 14.0577 7.71177C14.0636 7.72961 14.0683 7.74589 14.075 7.76344C14.0816 7.781 14.0917 7.80134 14.0991 7.81856C14.1065 7.83579 14.1116 7.84996 14.1197 7.86679C14.1279 7.88363 14.1384 7.90202 14.1473 7.91847C14.1562 7.93492 14.1652 7.9507 14.1749 7.9667C14.1845 7.98269 14.1921 7.99942 14.2024 8.01493C14.2128 8.03043 14.2259 8.0447 14.2369 8.05971C14.2479 8.07472 14.2596 8.09003 14.2713 8.1045C14.283 8.11897 14.2935 8.13194 14.3058 8.14584C14.3181 8.15973 14.3307 8.17388 14.3437 8.18718C14.3566 8.20048 14.3715 8.21239 14.385 8.22507C14.3985 8.23773 14.4123 8.25095 14.4264 8.26297C14.4404 8.27498 14.4531 8.28609 14.4677 8.29741C14.4823 8.30874 14.4974 8.32125 14.5125 8.33187C14.5275 8.34251 14.5417 8.35297 14.5573 8.36287C14.5728 8.37277 14.5895 8.38126 14.6055 8.39043C14.6214 8.39958 14.6374 8.40616 14.6537 8.41455C14.6701 8.42292 14.6853 8.43106 14.7019 8.43866C14.7186 8.44626 14.7366 8.45597 14.7536 8.46277C14.7706 8.46958 14.788 8.47402 14.8053 8.48C14.8226 8.48598 14.8394 8.49209 14.857 8.49722C14.8745 8.50236 14.8943 8.5067 14.9121 8.511C14.9298 8.51531 14.9458 8.52132 14.9638 8.52478C14.9817 8.52824 15.0008 8.53167 15.0189 8.53167C15.0369 8.53167 15.0558 8.53856 15.074 8.53856C15.0922 8.53856 15.1109 8.54201 15.1291 8.54201C15.1474 8.54201 15.1625 8.54545 15.1808 8.54545L18.7498 8.54545L18.7498 11.8182L18.7567 11.9112C18.7567 11.9239 18.7601 11.9365 18.7601 11.9491C18.7601 11.9617 18.767 11.9745 18.767 11.987C18.767 11.9995 18.7774 12.0125 18.7774 12.0249C18.7774 12.0372 18.7839 12.0506 18.7877 12.0628C18.7916 12.075 18.7971 12.0852 18.8015 12.0972C18.8059 12.1092 18.8104 12.1233 18.8153 12.1351C18.8201 12.1469 18.8237 12.158 18.829 12.1696C18.8345 12.1811 18.8403 12.1928 18.8463 12.204C18.8521 12.2152 18.8605 12.2275 18.8669 12.2385C18.8734 12.2494 18.8772 12.2588 18.8841 12.2695C18.8911 12.2801 18.9008 12.2902 18.9083 12.3005C18.9156 12.3107 18.921 12.3216 18.9289 12.3315C18.9369 12.3414 18.9446 12.3495 18.953 12.359C18.9613 12.3686 18.9718 12.3775 18.9806 12.3866C18.9894 12.3957 18.999 12.4055 19.0082 12.4142C19.0173 12.4228 19.0261 12.4301 19.0357 12.4383C19.0452 12.4465 19.0534 12.4547 19.0633 12.4624C19.0732 12.4701 19.0841 12.4792 19.0943 12.4865C19.1045 12.4938 19.1147 12.5004 19.1253 12.5072C19.1359 12.5139 19.1455 12.5216 19.1563 12.5278C19.1671 12.5341 19.1797 12.5394 19.1908 12.5451C19.202 12.5508 19.2139 12.5572 19.2252 12.5623C19.2367 12.5674 19.2481 12.5715 19.2597 12.5761C19.2712 12.5807 19.2823 12.5859 19.2941 12.5899C19.3059 12.5939 19.3165 12.6002 19.3286 12.6002C19.3405 12.6002 19.3544 12.6105 19.3664 12.6105C19.3785 12.6105 19.3887 12.6174 19.4009 12.6174C19.4132 12.6174 19.4265 12.6209 19.4388 12.6209C19.4511 12.6209 19.4644 12.6278 19.4767 12.6278C19.4891 12.6278 19.5021 12.6278 19.5146 12.6278C19.5269 12.6278 19.5366 12.6278 19.549 12.6278C19.5615 12.6278 19.5746 12.6278 19.5869 12.6278C19.5994 12.6278 19.6125 12.6243 19.6248 12.6243C19.6372 12.6243 19.6505 12.6209 19.6627 12.6209C19.675 12.6209 19.685 12.614 19.6972 12.614C19.7093 12.614 19.723 12.6036 19.7351 12.6036C19.7471 12.6036 19.7576 12.597 19.7695 12.5933C19.7813 12.5896 19.7957 12.5872 19.8074 12.583C19.8192 12.5787 19.8304 12.574 19.8419 12.5692C19.8533 12.5643 19.8651 12.5573 19.8763 12.552C19.8876 12.5466 19.8962 12.5441 19.9073 12.5382C19.9183 12.5322 19.931 12.524 19.9418 12.5175C19.9525 12.5111 19.9624 12.5038 19.9728 12.4968C19.9832 12.4899 19.9937 12.4836 20.0038 12.4762C20.0139 12.4687 20.025 12.46 20.0348 12.4521C20.0445 12.4441 20.0529 12.4364 20.0623 12.4279C20.0717 12.4195 20.0809 12.4127 20.0899 12.4038C20.0988 12.395 20.1089 12.3856 20.1175 12.3763C20.126 12.367 20.1335 12.3549 20.1416 12.3453C20.1497 12.3355 20.158 12.3278 20.1657 12.3177C20.1734 12.3076 20.1792 12.2971 20.1863 12.2867C20.1935 12.2763 20.2002 12.2665 20.207 12.2557C20.2137 12.2449 20.2215 12.2323 20.2277 12.2212C20.2339 12.2102 20.2392 12.1982 20.2449 12.1868C20.2506 12.1754 20.257 12.164 20.2621 12.1523C20.2674 12.1407 20.2713 12.1298 20.2759 12.1179C20.2807 12.106 20.2857 12.0956 20.2897 12.0834C20.2938 12.0714 20.2965 12.0578 20.3 12.0455C20.3036 12.0333 20.3104 12.0201 20.3104 12.0077C20.3104 11.9952 20.3173 11.9823 20.3173 11.9698C20.3173 11.9572 20.3242 11.9445 20.3242 11.9319C20.3242 11.9192 20.331 11.9067 20.331 11.894C20.331 11.8812 20.3345 11.8689 20.3345 11.8561C20.3345 11.8433 20.3345 11.831 20.3345 11.8182L20.3345 7.74622C20.3345 7.73989 20.3345 7.73174 20.3345 7.72555L20.3345 7.71521L20.3345 7.07789L20.331 6.95732C20.331 6.93984 20.3242 6.92305 20.3242 6.90565C20.3242 6.88827 20.3138 6.87125 20.3138 6.85397C20.3138 6.83669 20.3074 6.81943 20.3035 6.8023C20.2997 6.78517 20.2977 6.76755 20.2931 6.75062C20.2885 6.73368 20.2812 6.71568 20.2759 6.69895C20.2707 6.68224 20.2681 6.66718 20.2621 6.65072C20.2562 6.63427 20.2481 6.61868 20.2415 6.60249C20.2349 6.58629 20.2281 6.57014 20.2208 6.55426C20.2135 6.53835 20.2047 6.52156 20.1967 6.50603C20.1888 6.49048 20.1812 6.47641 20.1726 6.46124C20.164 6.44608 20.1543 6.43122 20.145 6.41646C20.1359 6.40169 20.1272 6.38603 20.1175 6.37167C20.1076 6.35729 20.0968 6.34424 20.0864 6.33033C20.0761 6.31642 20.0664 6.30243 20.0554 6.28899C20.0445 6.27556 20.0326 6.26059 20.021 6.24765C20.0095 6.23471 19.9985 6.22217 19.9865 6.20976L16.1419 2.2377L16.0627 2.1688C16.0455 2.15524 16.0292 2.14299 16.011 2.13091C15.9928 2.11883 15.9716 2.10696 15.9525 2.09646C15.9334 2.08596 15.9138 2.0743 15.8939 2.06545C15.8741 2.05661 15.8558 2.04848 15.8353 2.04134C15.8148 2.0342 15.7943 2.02951 15.7733 2.02411C15.7523 2.01872 15.7292 2.01394 15.7079 2.01033C15.6865 2.00675 15.6674 2.00344 15.6459 2.00344C15.6243 2.00344 15.602 2 15.5804 2L14.7881 2ZM15.5804 3.97397L15.5804 6.90909L18.4225 6.90909L15.5804 3.97397Z" fill-rule="evenodd"  fill="#034FA1" ></path></svg>