<svg xmlns="http://www.w3.org/2000/svg" xmlns:xlink="http://www.w3.org/1999/xlink" width="24" height="24" viewBox="0 0 24 24" fill="none"><path d="M20.5711 14.0489C20.557 14.0489 20.5415 14.0453 20.5274 14.0453C20.5134 14.0453 20.5013 14.0453 20.4873 14.0453C20.4733 14.0453 20.4615 14.0416 20.4475 14.0416C20.4336 14.0416 20.4177 14.0307 20.4039 14.0307C20.39 14.0307 20.3738 14.0234 20.3602 14.0234C20.3465 14.0234 20.3374 14.0166 20.324 14.0125C20.3105 14.0084 20.2971 14.0027 20.2838 13.998C20.2706 13.9932 20.2532 13.9888 20.2401 13.9834C20.2271 13.9781 20.2166 13.9713 20.2039 13.9653C20.1912 13.9592 20.1762 13.9537 20.1638 13.9471C20.1514 13.9404 20.1432 13.9325 20.1311 13.9253C20.1191 13.918 20.1066 13.9113 20.0949 13.9034C20.0832 13.8956 20.0696 13.89 20.0583 13.8816C20.047 13.8732 20.0365 13.8615 20.0257 13.8525C20.0148 13.8436 20.0034 13.8365 19.993 13.8271C19.9825 13.8176 19.9738 13.808 19.9639 13.798C19.9539 13.788 19.9442 13.7757 19.9347 13.7653C19.9253 13.7548 19.9146 13.7471 19.9056 13.7362C19.8967 13.7253 19.8885 13.7111 19.8801 13.6998C19.8717 13.6885 19.8627 13.6788 19.8548 13.6671C19.847 13.6554 19.8401 13.6428 19.8328 13.6307C19.8256 13.6186 19.8178 13.6068 19.8112 13.5943C19.8045 13.5819 19.7991 13.5707 19.7931 13.558C19.787 13.5453 19.78 13.531 19.7746 13.518C19.7692 13.505 19.7648 13.4912 19.76 13.478C19.7553 13.4647 19.7496 13.4515 19.7455 13.438C19.7414 13.4245 19.7384 13.4117 19.7384 13.398C19.7384 13.3843 19.7274 13.3682 19.7274 13.3543C19.7274 13.3405 19.7203 13.3319 19.7203 13.318C19.7203 13.3041 19.7167 13.2884 19.7167 13.2743C19.7167 13.2603 19.7092 13.2448 19.7092 13.2307C19.7092 13.2166 19.7092 13.2048 19.7092 13.1907L19.7093 5.50344C19.7093 5.49089 19.702 5.47954 19.702 5.46707C19.702 5.45463 19.6984 5.44304 19.6984 5.43071C19.6984 5.41838 19.6875 5.40289 19.6875 5.39071C19.6875 5.37855 19.6806 5.36636 19.6766 5.35435C19.6725 5.34236 19.6666 5.32978 19.662 5.31798C19.6574 5.30619 19.6563 5.29684 19.6511 5.28526C19.6459 5.2737 19.6386 5.26019 19.6329 5.24889C19.6272 5.23759 19.621 5.22719 19.6147 5.21617C19.6085 5.20515 19.6033 5.19414 19.5966 5.18344C19.5898 5.17273 19.582 5.16474 19.5747 5.15435C19.5675 5.14397 19.557 5.13527 19.5493 5.12526C19.5415 5.11524 19.5357 5.10217 19.5275 5.09253C19.5192 5.08289 19.5107 5.07631 19.502 5.06707C19.4933 5.05783 19.482 5.04679 19.4729 5.03798C19.4638 5.02916 19.457 5.02089 19.4475 5.01253C19.438 5.00415 19.4282 4.995 19.4184 4.98707C19.4085 4.97917 19.3959 4.97269 19.3856 4.96526C19.3754 4.95781 19.3671 4.95401 19.3566 4.94707C19.3459 4.94013 19.3347 4.93169 19.3238 4.92526C19.3129 4.91881 19.3023 4.91297 19.2911 4.90707C19.2799 4.90116 19.2698 4.89426 19.2584 4.88889C19.2469 4.88353 19.2337 4.87917 19.222 4.87435C19.2103 4.86954 19.2012 4.86043 19.1893 4.85617C19.1774 4.85192 19.165 4.84894 19.1529 4.84526C19.1408 4.84157 19.1288 4.83798 19.1166 4.83798C19.1043 4.83798 19.089 4.82708 19.0766 4.82708C19.0641 4.82708 19.0527 4.82344 19.0402 4.82344C19.0277 4.82344 19.0128 4.8198 19.0002 4.8198C18.9876 4.8198 18.9765 4.81253 18.9638 4.81253C18.9512 4.81253 18.9365 4.81253 18.9238 4.81253C18.9111 4.81253 18.9001 4.81253 18.8875 4.81253C18.8748 4.81253 18.8637 4.81617 18.8511 4.81617L17.9384 4.81617C17.9244 4.81617 17.9087 4.81253 17.8947 4.81253C17.8807 4.81253 17.8687 4.80889 17.8547 4.80889C17.8408 4.80889 17.8249 4.80526 17.8111 4.80526C17.7972 4.80526 17.7849 4.79798 17.7711 4.79798C17.7573 4.79798 17.741 4.78708 17.7275 4.78708C17.7139 4.78708 17.7009 4.78033 17.6875 4.77617C17.6741 4.77202 17.6607 4.77005 17.6475 4.76526C17.6343 4.76046 17.624 4.75615 17.6111 4.75071C17.5982 4.74527 17.5837 4.7386 17.5711 4.73253C17.5584 4.72647 17.5471 4.71738 17.5347 4.71071C17.5224 4.70404 17.5104 4.69979 17.4984 4.69253C17.4864 4.68525 17.4737 4.67491 17.462 4.66707C17.4504 4.65922 17.4405 4.65367 17.4293 4.64526C17.4181 4.63686 17.4074 4.6251 17.3966 4.61617C17.3857 4.60723 17.3705 4.60017 17.3602 4.59071C17.3498 4.58124 17.341 4.57156 17.3311 4.56162C17.3212 4.55166 17.315 4.54295 17.3056 4.53253C17.2963 4.5221 17.2818 4.51066 17.2729 4.4998C17.2641 4.48893 17.2594 4.47837 17.2511 4.46707C17.2428 4.4558 17.2334 4.44241 17.2256 4.43071C17.2179 4.41903 17.211 4.41002 17.2038 4.39798C17.1967 4.38593 17.1922 4.374 17.1856 4.36162C17.1791 4.34924 17.1734 4.33432 17.1675 4.32162C17.1615 4.30894 17.1546 4.29459 17.1493 4.28162C17.1439 4.26866 17.1358 4.25484 17.1311 4.24162C17.1264 4.2284 17.1242 4.21505 17.1202 4.20162C17.1161 4.18819 17.1093 4.17886 17.1093 4.16526C17.1093 4.15164 17.0984 4.13537 17.0984 4.12162C17.0984 4.10786 17.0911 4.09186 17.0911 4.07798C17.0911 4.06411 17.0875 4.05558 17.0875 4.04162C17.0875 4.02766 17.0802 4.00836 17.0802 3.99435C17.0802 3.98034 17.0802 3.96837 17.0802 3.95435C17.0802 3.94032 17.0802 3.92836 17.0802 3.91435C17.0802 3.90034 17.0875 3.88467 17.0875 3.87071C17.0875 3.85675 17.0911 3.84095 17.0911 3.82707C17.0911 3.8132 17.0984 3.80083 17.0984 3.78707C17.0984 3.77332 17.1093 3.76068 17.1093 3.74707C17.1093 3.73347 17.1161 3.71687 17.1202 3.70344C17.1242 3.69001 17.1264 3.68029 17.1311 3.66707C17.1358 3.65386 17.1439 3.64004 17.1493 3.62707C17.1546 3.61411 17.1615 3.59977 17.1675 3.58707C17.1734 3.57438 17.1791 3.5631 17.1856 3.55071C17.1922 3.53833 17.1967 3.52639 17.2038 3.51435C17.211 3.5023 17.2179 3.48967 17.2256 3.47798C17.2334 3.4663 17.2428 3.45291 17.2511 3.44162C17.2594 3.43033 17.2641 3.4234 17.2729 3.41253C17.2818 3.40166 17.2963 3.39023 17.3056 3.3798C17.315 3.36938 17.3212 3.36067 17.3311 3.35071C17.341 3.34076 17.3498 3.32744 17.3602 3.31798C17.3705 3.30852 17.3857 3.30147 17.3966 3.29253C17.4074 3.28359 17.4181 3.27184 17.4293 3.26344C17.4405 3.25504 17.4504 3.24946 17.462 3.24162C17.4737 3.23378 17.4864 3.22707 17.4984 3.2198C17.5104 3.21254 17.5224 3.20466 17.5347 3.19798C17.5471 3.19131 17.5584 3.18223 17.5711 3.17617C17.5837 3.1701 17.5982 3.16706 17.6111 3.16162C17.624 3.15618 17.6343 3.15187 17.6475 3.14707C17.6607 3.14228 17.6741 3.13668 17.6875 3.13253C17.7009 3.12838 17.7139 3.11798 17.7275 3.11798C17.741 3.11798 17.7574 3.11071 17.7711 3.11071C17.7849 3.11071 17.7972 3.10344 17.8111 3.10344C17.8249 3.10344 17.8408 3.0998 17.8547 3.0998C17.8687 3.0998 17.8807 3.09617 17.8947 3.09617C17.9087 3.09617 17.9244 3.09253 17.9384 3.09253L18.8511 3.09253C18.8919 3.09253 18.9303 3.09253 18.9711 3.09253C19.0119 3.09253 19.054 3.0998 19.0947 3.0998C19.1355 3.0998 19.1742 3.10238 19.2147 3.10707C19.2553 3.11177 19.2981 3.11859 19.3384 3.12526C19.3787 3.13193 19.4184 3.14208 19.4584 3.15071C19.4983 3.15934 19.5389 3.16559 19.5784 3.17617C19.6178 3.18674 19.6558 3.20004 19.6947 3.21253C19.7336 3.22502 19.7729 3.23815 19.8111 3.25253C19.8493 3.26691 19.8863 3.27994 19.9238 3.29617C19.9613 3.3124 19.9999 3.33267 20.0366 3.35071C20.0732 3.36875 20.1099 3.38544 20.1456 3.40526C20.1814 3.42507 20.2164 3.44917 20.2511 3.47071C20.2858 3.49225 20.3193 3.51296 20.3529 3.53617C20.3865 3.55937 20.4187 3.58407 20.4511 3.60889C20.4835 3.63372 20.5145 3.65887 20.5456 3.68526C20.5768 3.71164 20.6103 3.73738 20.6402 3.76526C20.6701 3.79313 20.699 3.82323 20.7275 3.85253C20.7559 3.88183 20.7804 3.91278 20.8075 3.94344C20.8345 3.97409 20.862 4.00604 20.8875 4.03798C20.9129 4.06992 20.94 4.09938 20.9638 4.13253C20.9877 4.16568 21.0107 4.20008 21.0329 4.23435C21.0551 4.26863 21.0742 4.30449 21.0947 4.3398C21.1152 4.37513 21.1341 4.41262 21.1529 4.44889C21.1717 4.48518 21.1905 4.5172 21.2075 4.55435C21.2244 4.59151 21.2396 4.63277 21.2547 4.67071C21.2699 4.70865 21.2851 4.74843 21.2984 4.78708C21.3116 4.8257 21.3234 4.86056 21.3347 4.8998C21.3461 4.93905 21.358 4.98005 21.3675 5.0198C21.3769 5.05955 21.3818 5.09964 21.3893 5.1398C21.3967 5.17995 21.4056 5.21933 21.4111 5.2598C21.4166 5.30029 21.4256 5.34274 21.4256 5.38344C21.4256 5.42414 21.4329 5.46263 21.4329 5.50344L21.433 13.1907C21.433 13.2048 21.4294 13.2166 21.4294 13.2307C21.4294 13.2448 21.4255 13.2603 21.4255 13.2743C21.4255 13.2884 21.4255 13.3041 21.4255 13.318C21.4255 13.3319 21.4149 13.3405 21.4149 13.3543C21.4149 13.3682 21.4074 13.3843 21.4074 13.398C21.4074 13.4117 21.3969 13.4245 21.3928 13.438C21.3888 13.4515 21.3866 13.4647 21.3818 13.478C21.3771 13.4912 21.373 13.505 21.3676 13.518C21.3622 13.531 21.3552 13.5453 21.3492 13.558C21.3431 13.5707 21.3377 13.5819 21.3311 13.5943C21.3244 13.6068 21.3166 13.6186 21.3094 13.6307C21.3021 13.6428 21.2952 13.6554 21.2874 13.6671C21.2796 13.6788 21.2741 13.6885 21.2657 13.6998C21.2573 13.7111 21.2455 13.7253 21.2366 13.7362C21.2277 13.7471 21.2205 13.7548 21.211 13.7653C21.2016 13.7757 21.1883 13.788 21.1784 13.798C21.1684 13.808 21.1597 13.8176 21.1492 13.8271C21.1388 13.8365 21.1275 13.8436 21.1166 13.8525C21.1057 13.8615 21.0952 13.8733 21.0839 13.8816C21.0726 13.89 21.063 13.8956 21.0512 13.9034C21.0395 13.9113 21.0267 13.918 21.0146 13.9253C21.0026 13.9325 20.9908 13.9404 20.9784 13.9471C20.966 13.9537 20.9546 13.9592 20.9419 13.9653C20.9291 13.9713 20.9151 13.9781 20.9021 13.9834C20.8891 13.9888 20.8752 13.9932 20.8619 13.998C20.8487 14.0027 20.8357 14.0084 20.8222 14.0125C20.8087 14.0166 20.7957 14.0234 20.782 14.0234C20.7684 14.0234 20.7522 14.0307 20.7384 14.0307C20.7246 14.0307 20.7122 14.0416 20.6982 14.0416C20.6843 14.0416 20.6686 14.0453 20.6546 14.0453C20.6406 14.0453 20.6288 14.0453 20.6148 14.0453C20.6007 14.0453 20.5852 14.0489 20.5711 14.0489ZM18.5893 4.81617L5.44382 4.81617C5.42977 4.81617 5.41784 4.81253 5.40382 4.81253C5.38981 4.81253 5.37416 4.80889 5.36019 4.80889C5.34622 4.80889 5.33407 4.80889 5.32019 4.80889C5.3063 4.80889 5.29394 4.79798 5.28019 4.79798C5.26643 4.79798 5.25015 4.79071 5.23655 4.79071C5.22293 4.79071 5.20996 4.7803 5.19655 4.77617C5.18312 4.77203 5.16975 4.77003 5.15655 4.76526C5.14336 4.76046 5.13315 4.75613 5.12019 4.75071C5.10723 4.74529 5.09287 4.73857 5.08019 4.73253C5.06751 4.72647 5.05618 4.721 5.04382 4.71435C5.03145 4.70767 5.01586 4.69979 5.00382 4.69253C4.99179 4.68527 4.9791 4.67855 4.96746 4.67071C4.95582 4.66288 4.94599 4.65367 4.93473 4.64526C4.92348 4.63686 4.91283 4.62874 4.90201 4.6198C4.89118 4.61086 4.88331 4.6038 4.87292 4.59435C4.86254 4.58489 4.84647 4.57158 4.83655 4.56162C4.82665 4.55166 4.8205 4.54296 4.8111 4.53253C4.80169 4.5221 4.79453 4.51068 4.78564 4.4998C4.77675 4.48893 4.76488 4.47837 4.75655 4.46707C4.7482 4.45578 4.73887 4.44604 4.7311 4.43435C4.72333 4.42265 4.72013 4.41004 4.71292 4.39798C4.7057 4.38592 4.69771 4.37402 4.6911 4.36162C4.68449 4.34922 4.6789 4.33432 4.67292 4.32162C4.66693 4.30892 4.66009 4.29461 4.65473 4.28162C4.64937 4.26863 4.6449 4.25849 4.64019 4.24526C4.63547 4.23203 4.62971 4.2187 4.62564 4.20526C4.62157 4.19183 4.61473 4.17889 4.61473 4.16526C4.61473 4.15163 4.60746 4.13539 4.60746 4.12162C4.60746 4.10784 4.59655 4.09551 4.59655 4.08162C4.59655 4.06773 4.59292 4.0556 4.59292 4.04162C4.59292 4.02764 4.58928 4.01201 4.58928 3.99798C4.58928 3.98396 4.58928 3.97203 4.58928 3.95798C4.58928 3.94394 4.58928 3.92837 4.58928 3.91435C4.58928 3.90032 4.59292 3.88469 4.59292 3.87071C4.59292 3.85673 4.59655 3.8446 4.59655 3.83071C4.59655 3.81682 4.60746 3.80085 4.60746 3.78707C4.60746 3.7733 4.61473 3.7607 4.61473 3.74707C4.61473 3.73345 4.62157 3.72052 4.62564 3.70707C4.62971 3.69363 4.63547 3.6803 4.64019 3.66707C4.6449 3.65385 4.64937 3.64006 4.65473 3.62707C4.66009 3.61409 4.66693 3.59978 4.67292 3.58707C4.6789 3.57437 4.68449 3.56311 4.6911 3.55071C4.69771 3.53832 4.7057 3.52641 4.71292 3.51435C4.72013 3.50229 4.72333 3.48968 4.7311 3.47798C4.73887 3.46629 4.7482 3.45292 4.75655 3.44162C4.76488 3.43032 4.77675 3.41977 4.78564 3.40889C4.79453 3.39802 4.80169 3.39023 4.8111 3.3798C4.8205 3.36937 4.82665 3.35703 4.83655 3.34707C4.84647 3.33712 4.86254 3.32744 4.87292 3.31798C4.88331 3.30852 4.89118 3.30147 4.90201 3.29253C4.91283 3.28359 4.92348 3.27184 4.93473 3.26344C4.94599 3.25504 4.95582 3.24946 4.96746 3.24162C4.9791 3.23378 4.99179 3.22706 5.00382 3.2198C5.01586 3.21254 5.03145 3.20465 5.04382 3.19798C5.05618 3.19132 5.06751 3.18222 5.08019 3.17617C5.09287 3.17012 5.10723 3.16704 5.12019 3.16162C5.13315 3.1562 5.14336 3.15186 5.15655 3.14707C5.16975 3.14229 5.18312 3.13666 5.19655 3.13253C5.20996 3.1284 5.22293 3.12162 5.23655 3.12162C5.25015 3.12162 5.26643 3.11071 5.28019 3.11071C5.29394 3.11071 5.3063 3.10707 5.32019 3.10707C5.33407 3.10707 5.34622 3.0998 5.36019 3.0998C5.37416 3.0998 5.38981 3.09617 5.40382 3.09617C5.41784 3.09617 5.42977 3.09253 5.44382 3.09253L18.5893 3.09253C18.6033 3.09253 18.6189 3.09617 18.6329 3.09617C18.6469 3.09617 18.6589 3.0998 18.6729 3.0998C18.6869 3.0998 18.7027 3.10344 18.7166 3.10344C18.7304 3.10344 18.7464 3.11071 18.7602 3.11071C18.7739 3.11071 18.7866 3.11798 18.8002 3.11798C18.8138 3.11798 18.8268 3.1284 18.8402 3.13253C18.8536 3.13666 18.867 3.14229 18.8802 3.14707C18.8934 3.15186 18.9072 3.1562 18.9202 3.16162C18.9331 3.16704 18.9475 3.17012 18.9602 3.17617C18.9729 3.18222 18.9806 3.19132 18.9929 3.19798C19.0053 3.20465 19.0172 3.21254 19.0293 3.2198C19.0413 3.22706 19.054 3.23378 19.0656 3.24162C19.0773 3.24946 19.0907 3.25504 19.102 3.26344C19.1133 3.27184 19.1239 3.28359 19.1347 3.29253C19.1456 3.30147 19.1571 3.30852 19.1675 3.31798C19.1778 3.32744 19.1866 3.33712 19.1966 3.34707C19.2065 3.35703 19.2162 3.36937 19.2256 3.3798C19.235 3.39023 19.2458 3.39802 19.2547 3.40889C19.2636 3.41977 19.2682 3.43032 19.2766 3.44162C19.2849 3.45292 19.2942 3.46629 19.302 3.47798C19.3098 3.48968 19.3202 3.50229 19.3275 3.51435C19.3347 3.52641 19.3427 3.53832 19.3493 3.55071C19.3559 3.56311 19.3615 3.57437 19.3675 3.58707C19.3734 3.59978 19.3766 3.61409 19.382 3.62707C19.3874 3.64006 19.3918 3.65385 19.3966 3.66707C19.4013 3.6803 19.407 3.68999 19.4111 3.70344C19.4152 3.71688 19.4184 3.73345 19.4184 3.74707C19.4184 3.7607 19.4293 3.7733 19.4293 3.78707C19.4293 3.80085 19.4366 3.81318 19.4366 3.82707C19.4366 3.84097 19.4402 3.85673 19.4402 3.87071C19.4402 3.88469 19.4475 3.90032 19.4475 3.91435C19.4475 3.92837 19.4475 3.9403 19.4475 3.95435C19.4475 3.96839 19.4475 3.98396 19.4475 3.99798C19.4475 4.01201 19.4402 4.02764 19.4402 4.04162C19.4402 4.0556 19.4366 4.06773 19.4366 4.08162C19.4366 4.09551 19.4293 4.10784 19.4293 4.12162C19.4293 4.13539 19.4184 4.15163 19.4184 4.16526C19.4184 4.17889 19.4152 4.18819 19.4111 4.20162C19.407 4.21507 19.4013 4.23203 19.3966 4.24526C19.3918 4.25849 19.3874 4.26863 19.382 4.28162C19.3766 4.29461 19.3734 4.30892 19.3675 4.32162C19.3615 4.33432 19.3559 4.34922 19.3493 4.36162C19.3427 4.37402 19.3347 4.38592 19.3275 4.39798C19.3202 4.41004 19.3098 4.41902 19.302 4.43071C19.2942 4.44241 19.2849 4.45578 19.2766 4.46707C19.2682 4.47837 19.2636 4.48893 19.2547 4.4998C19.2458 4.51068 19.235 4.5221 19.2256 4.53253C19.2162 4.54296 19.2065 4.55166 19.1966 4.56162C19.1866 4.57158 19.1778 4.58126 19.1675 4.59071C19.1571 4.60017 19.1456 4.61086 19.1347 4.6198C19.1239 4.62874 19.1133 4.63686 19.102 4.64526C19.0907 4.65367 19.0773 4.66288 19.0656 4.67071C19.054 4.67855 19.0413 4.68527 19.0293 4.69253C19.0172 4.69979 19.0053 4.70767 18.9929 4.71435C18.9806 4.721 18.9729 4.72647 18.9602 4.73253C18.9475 4.73857 18.9331 4.74529 18.9202 4.75071C18.9072 4.75613 18.8934 4.76046 18.8802 4.76526C18.867 4.77003 18.8536 4.77203 18.8402 4.77617C18.8268 4.7803 18.8138 4.78708 18.8002 4.78708C18.7866 4.78708 18.7739 4.79798 18.7602 4.79798C18.7464 4.79798 18.7304 4.80526 18.7166 4.80526C18.7027 4.80526 18.6869 4.80889 18.6729 4.80889C18.6589 4.80889 18.6469 4.81253 18.6329 4.81253C18.6189 4.81253 18.6033 4.81617 18.5893 4.81617ZM13.0911 21.5871L5.22928 21.5871C5.18845 21.5871 5.14647 21.5907 5.10564 21.5907C5.06479 21.5907 5.02639 21.5871 4.98564 21.5871C4.94488 21.5871 4.90258 21.5773 4.86201 21.5725C4.82143 21.5678 4.78231 21.5646 4.74201 21.558C4.7017 21.5512 4.66194 21.5411 4.62201 21.5325C4.58209 21.5239 4.54147 21.514 4.50201 21.5034C4.46255 21.4928 4.42454 21.4832 4.38564 21.4707C4.34674 21.4582 4.30751 21.4451 4.26928 21.4307C4.23104 21.4164 4.19405 21.3996 4.15655 21.3834C4.11906 21.3672 4.08047 21.3506 4.04382 21.3325C4.00718 21.3144 3.97046 21.2941 3.93473 21.2743C3.89902 21.2545 3.864 21.2341 3.82928 21.2125C3.79457 21.191 3.76108 21.1703 3.72746 21.1471C3.69384 21.1238 3.66172 21.0992 3.62928 21.0743C3.59683 21.0496 3.56593 21.0244 3.53473 20.998C3.50354 20.9716 3.47005 20.9422 3.44019 20.9143C3.41032 20.8865 3.38138 20.86 3.35292 20.8307C3.32445 20.8014 3.29992 20.7705 3.27292 20.7398C3.24592 20.7092 3.21475 20.6772 3.18928 20.6453C3.16381 20.6133 3.14043 20.5839 3.11655 20.5507C3.09268 20.5176 3.06969 20.4832 3.04746 20.4489C3.02523 20.4146 3.00617 20.3788 2.98564 20.3434C2.96512 20.3081 2.9426 20.2743 2.92382 20.238C2.90505 20.2017 2.88626 20.1661 2.86928 20.1289C2.8523 20.0917 2.83715 20.0505 2.82201 20.0125C2.80686 19.9746 2.79527 19.9385 2.78201 19.8998C2.76874 19.8612 2.757 19.8227 2.74564 19.7834C2.73428 19.7442 2.72235 19.7032 2.71292 19.6634C2.70349 19.6237 2.69857 19.5836 2.6911 19.5434C2.68362 19.5033 2.67478 19.4603 2.66928 19.4198C2.66378 19.3793 2.65473 19.3405 2.65473 19.2998C2.65473 19.2591 2.64746 19.2206 2.64746 19.1798L2.64746 5.50344C2.64746 5.46263 2.65473 5.42414 2.65473 5.38344C2.65473 5.34274 2.66377 5.30029 2.66928 5.2598C2.67478 5.21933 2.68362 5.17997 2.6911 5.1398C2.69857 5.09965 2.70349 5.05956 2.71292 5.0198C2.72235 4.98005 2.73428 4.93903 2.74564 4.8998C2.75701 4.86056 2.76874 4.8257 2.78201 4.78708C2.79527 4.74843 2.80687 4.70865 2.82201 4.67071C2.83715 4.63277 2.8523 4.59151 2.86928 4.55435C2.88626 4.5172 2.90505 4.48518 2.92382 4.44889C2.9426 4.41262 2.96512 4.37513 2.98564 4.3398C3.00617 4.30449 3.02523 4.26863 3.04746 4.23435C3.06969 4.20007 3.09268 4.16568 3.11655 4.13253C3.14043 4.09938 3.16381 4.06992 3.18928 4.03798C3.21475 4.00604 3.24592 3.97409 3.27292 3.94344C3.29992 3.91278 3.32445 3.88183 3.35292 3.85253C3.38138 3.82323 3.41032 3.79313 3.44019 3.76526C3.47005 3.73738 3.50354 3.71164 3.53473 3.68526C3.56593 3.65888 3.59684 3.63372 3.62928 3.60889C3.66172 3.58407 3.69384 3.55937 3.72746 3.53617C3.76108 3.51296 3.79457 3.49225 3.82928 3.47071C3.86399 3.44918 3.899 3.42507 3.93473 3.40526C3.97046 3.38544 4.00718 3.36875 4.04382 3.35071C4.08047 3.33267 4.11906 3.3124 4.15655 3.29617C4.19403 3.27994 4.23104 3.26691 4.26928 3.25253C4.30752 3.23815 4.34676 3.22502 4.38564 3.21253C4.42454 3.20004 4.46255 3.18674 4.50201 3.17617C4.54147 3.16559 4.58207 3.15934 4.62201 3.15071C4.66193 3.14208 4.7017 3.13193 4.74201 3.12526C4.78231 3.11859 4.82143 3.11177 4.86201 3.10707C4.90258 3.10238 4.94488 3.0998 4.98564 3.0998C5.02639 3.0998 5.06479 3.09253 5.10564 3.09253C5.14647 3.09253 5.18845 3.09253 5.22928 3.09253L6.2111 3.09253C6.22515 3.09253 6.24072 3.09617 6.25473 3.09617C6.26875 3.09617 6.28076 3.0998 6.29473 3.0998C6.3087 3.0998 6.32449 3.10344 6.33837 3.10344C6.35225 3.10344 6.36462 3.11071 6.37837 3.11071C6.39212 3.11071 6.40477 3.11798 6.41837 3.11798C6.43199 3.11798 6.4486 3.1284 6.46201 3.13253C6.47544 3.13666 6.48881 3.14229 6.50201 3.14707C6.5152 3.15186 6.52905 3.1562 6.54201 3.16162C6.55496 3.16704 6.56569 3.17012 6.57837 3.17617C6.59105 3.18222 6.60238 3.19132 6.61473 3.19798C6.62711 3.20465 6.63907 3.21254 6.6511 3.2198C6.66313 3.22706 6.67582 3.23378 6.68746 3.24162C6.69911 3.24946 6.70893 3.25504 6.72019 3.26344C6.73145 3.27184 6.74209 3.28359 6.75292 3.29253C6.76374 3.30147 6.77888 3.30852 6.78928 3.31798C6.79965 3.32744 6.80845 3.33712 6.81837 3.34707C6.82827 3.35703 6.83442 3.36937 6.84382 3.3798C6.85323 3.39023 6.86403 3.39802 6.87292 3.40889C6.8818 3.41977 6.89004 3.43032 6.89837 3.44162C6.90672 3.45292 6.91605 3.46629 6.92382 3.47798C6.93159 3.48968 6.94207 3.50229 6.94928 3.51435C6.95649 3.52641 6.96085 3.53832 6.96746 3.55071C6.97407 3.56311 6.97966 3.57437 6.98564 3.58707C6.99163 3.59978 6.99847 3.61409 7.00382 3.62707C7.00918 3.64006 7.01366 3.65385 7.01837 3.66707C7.02308 3.6803 7.02885 3.68999 7.03292 3.70344C7.03698 3.71688 7.04019 3.73345 7.04019 3.74707C7.04019 3.7607 7.05473 3.7733 7.05473 3.78707C7.05473 3.80085 7.05837 3.81318 7.05837 3.82707C7.05837 3.84097 7.06564 3.85673 7.06564 3.87071C7.06564 3.88469 7.06928 3.90032 7.06928 3.91435C7.06928 3.92837 7.06928 3.9403 7.06928 3.95435C7.06928 3.96839 7.06928 3.98396 7.06928 3.99798C7.06928 4.01201 7.06564 4.02764 7.06564 4.04162C7.06564 4.0556 7.05837 4.06773 7.05837 4.08162C7.05837 4.09551 7.05473 4.10784 7.05473 4.12162C7.05473 4.13539 7.04019 4.15163 7.04019 4.16526C7.04019 4.17889 7.03698 4.18819 7.03292 4.20162C7.02885 4.21507 7.02308 4.23203 7.01837 4.24526C7.01366 4.25849 7.00918 4.26863 7.00382 4.28162C6.99847 4.29461 6.99163 4.30892 6.98564 4.32162C6.97966 4.33432 6.97407 4.34922 6.96746 4.36162C6.96085 4.37402 6.95649 4.38592 6.94928 4.39798C6.94207 4.41004 6.93159 4.41902 6.92382 4.43071C6.91605 4.44241 6.90672 4.45578 6.89837 4.46707C6.89004 4.47837 6.8818 4.48893 6.87292 4.4998C6.86403 4.51068 6.85323 4.5221 6.84382 4.53253C6.83442 4.54296 6.82827 4.55166 6.81837 4.56162C6.80845 4.57158 6.79965 4.58126 6.78928 4.59071C6.77888 4.60017 6.76374 4.61086 6.75292 4.6198C6.74209 4.62874 6.73145 4.63686 6.72019 4.64526C6.70893 4.65367 6.69911 4.66288 6.68746 4.67071C6.67582 4.67855 6.66313 4.68527 6.6511 4.69253C6.63907 4.69979 6.62711 4.70767 6.61473 4.71435C6.60238 4.721 6.59105 4.72647 6.57837 4.73253C6.56569 4.73857 6.55496 4.74529 6.54201 4.75071C6.52905 4.75613 6.5152 4.76046 6.50201 4.76526C6.48881 4.77003 6.47544 4.77203 6.46201 4.77617C6.4486 4.7803 6.43199 4.78708 6.41837 4.78708C6.40477 4.78708 6.39212 4.79798 6.37837 4.79798C6.36462 4.79798 6.35225 4.80526 6.33837 4.80526C6.32449 4.80526 6.3087 4.80889 6.29473 4.80889C6.28076 4.80889 6.26875 4.81253 6.25473 4.81253C6.24072 4.81253 6.22515 4.81617 6.2111 4.81617L5.22928 4.81617C5.21664 4.81617 5.20557 4.81253 5.19292 4.81253C5.18026 4.81253 5.16923 4.81253 5.15655 4.81253C5.14387 4.81253 5.12921 4.81253 5.11655 4.81253C5.10392 4.81253 5.09278 4.8198 5.08019 4.8198C5.0676 4.8198 5.05272 4.82344 5.04019 4.82344C5.02766 4.82344 5.01624 4.82708 5.00382 4.82708C4.99141 4.82708 4.97611 4.83798 4.96382 4.83798C4.95153 4.83798 4.93958 4.84157 4.92746 4.84526C4.91534 4.84894 4.90304 4.85192 4.8911 4.85617C4.87917 4.86043 4.8701 4.86953 4.85837 4.87435C4.84664 4.87915 4.83348 4.88353 4.82201 4.88889C4.81053 4.89426 4.80049 4.90116 4.78928 4.90707C4.77806 4.91299 4.76746 4.91883 4.75655 4.92526C4.74563 4.93169 4.73443 4.94013 4.72382 4.94707C4.71323 4.95401 4.70499 4.95781 4.69473 4.96526C4.68447 4.97269 4.67191 4.97917 4.66201 4.98707C4.65212 4.995 4.64243 5.00415 4.63292 5.01253C4.62342 5.0209 4.61656 5.02916 4.60746 5.03798C4.59836 5.04679 4.58704 5.05783 4.57837 5.06707C4.56969 5.07631 4.56114 5.08289 4.55292 5.09253C4.54469 5.10217 4.53885 5.11524 4.5311 5.12526C4.52335 5.13527 4.51292 5.14397 4.50564 5.15435C4.49837 5.16472 4.4906 5.17272 4.48382 5.18344C4.47705 5.19414 4.47188 5.20515 4.46564 5.21617C4.45939 5.22719 4.45319 5.2376 4.44746 5.24889C4.44174 5.26021 4.43446 5.2737 4.42928 5.28526C4.42409 5.29681 4.41935 5.30619 4.41473 5.31798C4.4101 5.32978 4.40789 5.34236 4.40382 5.35435C4.39976 5.36636 4.39292 5.37853 4.39292 5.39071C4.39292 5.40289 4.38201 5.41838 4.38201 5.43071C4.38201 5.44304 4.37837 5.45463 4.37837 5.46707C4.37837 5.47954 4.36746 5.49089 4.36746 5.50344L4.36746 19.1725C4.36746 19.1851 4.37837 19.1964 4.37837 19.2089C4.37837 19.2214 4.38201 19.2329 4.38201 19.2453C4.38201 19.2576 4.39292 19.2694 4.39292 19.2816C4.39292 19.2938 4.39976 19.306 4.40382 19.318C4.40789 19.33 4.4101 19.3426 4.41473 19.3543C4.41937 19.3661 4.4241 19.3755 4.42928 19.3871C4.43446 19.3987 4.44174 19.4121 4.44746 19.4234C4.45319 19.4347 4.45939 19.4451 4.46564 19.4562C4.4719 19.4672 4.47705 19.4782 4.48382 19.4889C4.49058 19.4996 4.49837 19.5112 4.50564 19.5216C4.51292 19.532 4.52335 19.5407 4.5311 19.5507C4.53886 19.5607 4.54469 19.5702 4.55292 19.5798C4.56114 19.5894 4.5697 19.5997 4.57837 19.6089C4.58704 19.6181 4.59836 19.6255 4.60746 19.6343C4.61656 19.6432 4.6234 19.6514 4.63292 19.6598C4.64241 19.6682 4.65211 19.681 4.66201 19.6889C4.67189 19.6968 4.68447 19.6996 4.69473 19.7071C4.70499 19.7145 4.71322 19.722 4.72382 19.7289C4.73441 19.7358 4.74563 19.7443 4.75655 19.7507C4.76747 19.7571 4.77807 19.763 4.78928 19.7689C4.80049 19.7748 4.81053 19.7817 4.82201 19.7871C4.83348 19.7924 4.84666 19.7968 4.85837 19.8016C4.8701 19.8064 4.87915 19.8119 4.8911 19.8162C4.90302 19.8204 4.91534 19.8234 4.92746 19.8271C4.93958 19.8308 4.95153 19.838 4.96382 19.838C4.97611 19.838 4.99141 19.8453 5.00382 19.8453C5.01624 19.8453 5.02766 19.8525 5.04019 19.8525C5.05272 19.8525 5.0676 19.8562 5.08019 19.8562C5.09278 19.8562 5.10392 19.8634 5.11655 19.8634C5.12921 19.8634 5.14387 19.8634 5.15655 19.8634C5.16923 19.8634 5.18026 19.8634 5.19292 19.8634C5.20557 19.8634 5.21664 19.8598 5.22928 19.8598L13.0911 19.8598C13.1052 19.8598 13.1207 19.8598 13.1347 19.8598C13.1488 19.8598 13.1607 19.8634 13.1747 19.8634C13.1887 19.8634 13.2044 19.8671 13.2184 19.8671C13.2323 19.8671 13.2482 19.8743 13.262 19.8743C13.2758 19.8743 13.2847 19.8853 13.2984 19.8853C13.312 19.8853 13.3285 19.8921 13.342 19.8962C13.3555 19.9003 13.3687 19.906 13.382 19.9107C13.3953 19.9155 13.409 19.9199 13.422 19.9253C13.435 19.9306 13.4456 19.9338 13.4584 19.9398C13.4711 19.9458 13.486 19.9514 13.4984 19.958C13.5108 19.9646 13.5227 19.9725 13.5347 19.9798C13.5468 19.987 13.5557 19.9974 13.5675 20.0053C13.5792 20.0131 13.5925 20.0187 13.6038 20.0271C13.6151 20.0355 13.6257 20.0436 13.6366 20.0525C13.6474 20.0615 13.6625 20.0722 13.6729 20.0816C13.6834 20.0911 13.692 20.1008 13.702 20.1107C13.712 20.1207 13.718 20.133 13.7275 20.1434C13.7369 20.1539 13.7513 20.1616 13.7602 20.1725C13.7691 20.1834 13.7736 20.194 13.782 20.2053C13.7904 20.2166 13.7996 20.2299 13.8075 20.2416C13.8153 20.2534 13.8257 20.2659 13.8329 20.278C13.8402 20.2901 13.8444 20.3019 13.8511 20.3143C13.8577 20.3268 13.8633 20.338 13.8693 20.3507C13.8753 20.3635 13.8821 20.3777 13.8875 20.3907C13.8929 20.4037 13.8972 20.4174 13.902 20.4307C13.9068 20.444 13.9125 20.4572 13.9166 20.4707C13.9206 20.4842 13.9275 20.4971 13.9275 20.5107C13.9275 20.5244 13.9384 20.5405 13.9384 20.5543C13.9384 20.5682 13.942 20.5768 13.942 20.5907C13.942 20.6046 13.9493 20.6203 13.9493 20.6343C13.9493 20.6484 13.9529 20.6639 13.9529 20.678C13.9529 20.6921 13.9529 20.7039 13.9529 20.718C13.9529 20.7321 13.9529 20.7475 13.9529 20.7616C13.9529 20.7757 13.9493 20.7912 13.9493 20.8053C13.9493 20.8193 13.942 20.8313 13.942 20.8453C13.942 20.8592 13.9384 20.8751 13.9384 20.8889C13.9384 20.9027 13.9275 20.9152 13.9275 20.9289C13.9275 20.9426 13.9206 20.9554 13.9166 20.9689C13.9125 20.9824 13.9068 20.9956 13.902 21.0089C13.8972 21.0222 13.8929 21.0359 13.8875 21.0489C13.8821 21.0619 13.8753 21.0762 13.8693 21.0889C13.8633 21.1017 13.8577 21.1128 13.8511 21.1253C13.8444 21.1376 13.8402 21.1494 13.8329 21.1616C13.8257 21.1737 13.8153 21.1864 13.8075 21.198C13.7996 21.2098 13.7904 21.2194 13.782 21.2307C13.7736 21.2421 13.7691 21.2562 13.7602 21.2671C13.7513 21.278 13.7369 21.2895 13.7275 21.2998C13.718 21.3103 13.712 21.319 13.702 21.3289C13.692 21.3389 13.6834 21.3485 13.6729 21.358C13.6625 21.3675 13.6474 21.3782 13.6366 21.3871C13.6257 21.396 13.6151 21.4004 13.6038 21.4089C13.5925 21.4172 13.5792 21.4265 13.5675 21.4343C13.5557 21.4421 13.5468 21.4525 13.5347 21.4598C13.5227 21.467 13.5108 21.4712 13.4984 21.478C13.486 21.4846 13.4711 21.4901 13.4584 21.4962C13.4456 21.5022 13.435 21.5089 13.422 21.5143C13.409 21.5197 13.3953 21.5278 13.382 21.5325C13.3687 21.5373 13.3555 21.5393 13.342 21.5434C13.3285 21.5475 13.312 21.5543 13.2984 21.5543C13.2847 21.5543 13.2758 21.5653 13.262 21.5653C13.2482 21.5653 13.2323 21.5689 13.2184 21.5689C13.2044 21.5689 13.1887 21.5762 13.1747 21.5762C13.1607 21.5762 13.1488 21.5798 13.1347 21.5798C13.1207 21.5798 13.1052 21.5834 13.0911 21.5834L13.0911 21.5871Z"   fill="#034FA1" ></path><path d="M13.2436 16.8537C13.2494 16.8537 13.2543 16.8537 13.26 16.8537L13.2682 16.8619C13.2758 16.8619 13.2851 16.8619 13.2927 16.8619C13.3004 16.8619 13.3097 16.8619 13.3173 16.8619C13.3249 16.8619 13.3302 16.8578 13.3377 16.8578C13.3453 16.8578 13.3548 16.8537 13.3623 16.8537C13.3697 16.8537 13.3754 16.8455 13.3827 16.8455C13.3901 16.8455 13.396 16.8414 13.4032 16.8414C13.4104 16.8414 13.4207 16.8333 13.4277 16.8333C13.4348 16.8333 13.4413 16.821 13.4482 16.821C13.4551 16.821 13.462 16.8128 13.4686 16.8128C13.4753 16.8128 13.4786 16.8046 13.485 16.8005C13.4915 16.7964 13.4992 16.7927 13.5055 16.7883C13.5117 16.7838 13.52 16.7767 13.5259 16.7719C13.5319 16.7671 13.5366 16.7648 13.5423 16.7597C13.548 16.7545 13.5533 16.7487 13.5586 16.7433C13.564 16.7379 13.5699 16.7327 13.575 16.7269C13.5801 16.7212 13.5825 16.7125 13.5873 16.7065C13.5914 16.7012 13.5995 16.6956 13.5995 16.6901C13.5995 16.6847 13.6118 16.6794 13.6118 16.6738C13.6118 16.6681 13.6241 16.6632 13.6241 16.6574C13.6241 16.6516 13.6323 16.6471 13.6323 16.6411C13.6323 16.6351 13.6405 16.6267 13.6405 16.6206C13.6405 16.6145 13.6486 16.6105 13.6486 16.6043C13.6486 16.598 13.6568 16.5902 13.6568 16.5838C13.6568 16.5775 13.6609 16.5739 13.6609 16.5675C13.6609 16.561 13.665 16.5536 13.665 16.547C13.665 16.5405 13.6691 16.5332 13.6691 16.5266C13.6691 16.52 13.6732 16.5128 13.6732 16.5061C13.6732 16.4995 13.6732 16.4924 13.6732 16.4857C13.6732 16.479 13.6773 16.4719 13.6773 16.4652C13.6773 16.4585 13.6773 16.4515 13.6773 16.4448C13.6773 16.4381 13.6773 16.4351 13.6773 16.4284C13.6773 16.4218 13.6732 16.4146 13.6732 16.408C13.6732 16.4013 13.6732 16.3942 13.6732 16.3876C13.6732 16.3809 13.6691 16.3737 13.6691 16.3671C13.6691 16.3605 13.6609 16.3531 13.6609 16.3467C13.6609 16.3402 13.6568 16.3326 13.6568 16.3262C13.6568 16.3198 13.6486 16.3161 13.6486 16.3099C13.6486 16.3036 13.6445 16.2956 13.6445 16.2894C13.6445 16.2832 13.6364 16.2791 13.6364 16.2731C13.6364 16.267 13.6241 16.2585 13.6241 16.2526C13.6241 16.2467 13.6159 16.242 13.6159 16.2363C13.6159 16.2305 13.6036 16.2254 13.6036 16.2199C13.6036 16.2144 13.5914 16.2089 13.5914 16.2035C13.5914 16.1982 13.5834 16.1923 13.5791 16.1872C13.5748 16.182 13.5714 16.1758 13.5668 16.1708C13.5623 16.1659 13.5593 16.1633 13.5545 16.1586C13.5498 16.1539 13.5432 16.1508 13.5382 16.1463C13.5332 16.1418 13.527 16.1341 13.5218 16.1299C13.5082 16.1192 13.4942 16.1084 13.4809 16.0972C13.4676 16.0861 13.4571 16.076 13.4441 16.0645C13.4311 16.053 13.4158 16.0396 13.4032 16.0277C13.3905 16.0158 13.3787 16.0073 13.3664 15.995C13.354 15.9827 13.3415 15.9667 13.3295 15.9541C13.3176 15.9415 13.3084 15.9302 13.2968 15.9173C13.2852 15.9044 13.2712 15.8937 13.26 15.8805C13.2488 15.8673 13.2381 15.8532 13.2273 15.8396C13.2164 15.8261 13.205 15.8126 13.1945 15.7987C13.1841 15.7849 13.176 15.7679 13.1659 15.7537C13.1558 15.7396 13.1469 15.7273 13.1373 15.7129C13.1276 15.6984 13.1179 15.6826 13.1086 15.6679C13.0994 15.6532 13.0888 15.6378 13.08 15.6229C13.0712 15.6079 13.0639 15.5931 13.0555 15.5779C13.047 15.5627 13.0389 15.5484 13.0309 15.5329C13.0229 15.5175 13.0139 15.5036 13.0064 15.488C12.9988 15.4723 12.993 15.4547 12.9859 15.4389C12.9788 15.423 12.9721 15.4059 12.9655 15.3898C12.9588 15.3738 12.9512 15.357 12.945 15.3408C12.9388 15.3245 12.9303 15.3122 12.9245 15.2958C12.9188 15.2794 12.9134 15.2592 12.9082 15.2426C12.9029 15.2261 12.9007 15.2102 12.8959 15.1935C12.8911 15.1769 12.8839 15.1613 12.8795 15.1445C12.8752 15.1276 12.8673 15.1123 12.8673 15.0954C12.8673 15.0785 12.8591 15.0593 12.8591 15.0423C12.8591 15.0252 12.8468 15.0103 12.8468 14.9932C12.8468 14.9761 12.8427 14.9572 12.8427 14.94C12.8427 14.9228 12.8345 14.9041 12.8345 14.8869C12.8345 14.8696 12.8305 14.8551 12.8305 14.8378C12.8305 14.8205 12.8264 14.802 12.8264 14.7846C12.8264 14.7673 12.8223 14.7488 12.8223 14.7315C12.8223 14.7141 12.8223 14.6957 12.8223 14.6783C12.8223 14.648 12.8264 14.6187 12.8264 14.5884C12.8264 14.558 12.8305 14.5286 12.8305 14.4984C12.8305 14.4682 12.8382 14.4385 12.8427 14.4085C12.8472 14.3784 12.8531 14.3483 12.8591 14.3185C12.8651 14.2887 12.8721 14.258 12.8795 14.2285C12.887 14.1991 12.8952 14.1717 12.9041 14.1427C12.9129 14.1136 12.9225 14.0854 12.9327 14.0568C12.943 14.0282 12.9538 13.999 12.9655 13.9709C12.9771 13.9429 12.9893 13.9125 13.0023 13.8851C13.0153 13.8576 13.0289 13.8341 13.0432 13.8074C13.0575 13.7806 13.0725 13.7516 13.0882 13.7256C13.1038 13.6995 13.1204 13.6731 13.1373 13.6479C13.1542 13.6226 13.1723 13.5987 13.1905 13.5743C13.2086 13.5499 13.2285 13.5282 13.2477 13.5048C13.267 13.4813 13.2846 13.4578 13.305 13.4353C13.3254 13.4127 13.3449 13.3913 13.3664 13.3698C13.3878 13.3483 13.4134 13.3248 13.4359 13.3044C13.4584 13.284 13.4779 13.2664 13.5014 13.2472C13.5248 13.2279 13.5506 13.208 13.575 13.1899C13.5994 13.1718 13.6234 13.1536 13.6486 13.1368C13.6739 13.1199 13.7003 13.1033 13.7264 13.0877C13.7524 13.072 13.7773 13.0571 13.8041 13.0427C13.8309 13.0284 13.8585 13.0148 13.8859 13.0018C13.9134 12.9888 13.9438 12.9767 13.9718 12.965C13.9999 12.9534 14.025 12.9426 14.0536 12.9323C14.0822 12.922 14.1146 12.9125 14.1436 12.9037C14.1727 12.8948 14.2001 12.8866 14.2295 12.8791C14.259 12.8717 14.2898 12.8647 14.3195 12.8587C14.3493 12.8527 14.3795 12.8469 14.4095 12.8423C14.4396 12.8378 14.4693 12.8342 14.4995 12.8342C14.5298 12.8342 14.5592 12.826 14.5895 12.826C14.6199 12.826 14.6492 12.8219 14.6795 12.8219C14.6966 12.8219 14.7157 12.8219 14.7327 12.8219C14.7498 12.8219 14.7648 12.826 14.7818 12.826C14.7988 12.826 14.818 12.8301 14.835 12.8301C14.852 12.8301 14.8671 12.8342 14.8841 12.8342C14.901 12.8342 14.9204 12.8423 14.9373 12.8423C14.9542 12.8423 14.9696 12.8464 14.9864 12.8464C15.0032 12.8464 15.0187 12.8587 15.0355 12.8587C15.0522 12.8587 15.0679 12.8669 15.0845 12.8669C15.1012 12.8669 15.1212 12.875 15.1377 12.8791C15.1543 12.8833 15.1704 12.8868 15.1868 12.8914C15.2032 12.896 15.2196 12.9027 15.2359 12.9078C15.2522 12.9128 15.2648 12.9186 15.2809 12.9241C15.297 12.9296 15.314 12.9345 15.33 12.9405C15.346 12.9464 15.3633 12.9504 15.3791 12.9568C15.3949 12.9632 15.4085 12.9704 15.4241 12.9773C15.4397 12.9841 15.4578 12.9946 15.4732 13.0018C15.4886 13.0091 15.503 13.0146 15.5182 13.0223C15.5334 13.0299 15.5482 13.0387 15.5632 13.0468C15.5782 13.0549 15.5934 13.0628 15.6082 13.0713C15.6229 13.0798 15.6387 13.0869 15.6532 13.0959C15.6677 13.1048 15.6798 13.1152 15.6941 13.1245C15.7084 13.1338 15.7251 13.1434 15.7391 13.1531C15.7531 13.1628 15.7663 13.1716 15.78 13.1817C15.7937 13.1918 15.8075 13.204 15.8209 13.2144C15.8344 13.2249 15.8487 13.2363 15.8618 13.2472C15.875 13.258 15.8858 13.2687 15.8986 13.2799C15.9115 13.2911 15.9229 13.301 15.9355 13.3126C15.948 13.3241 15.9601 13.3375 15.9723 13.3494C15.9845 13.3613 15.9972 13.3699 16.0091 13.3821C16.021 13.3943 16.0344 13.4104 16.0459 13.423C16.0575 13.4355 16.0675 13.4469 16.0786 13.4598C16.0898 13.4726 16.1005 13.4834 16.1114 13.4966C16.1157 13.5017 16.1232 13.508 16.1277 13.5129C16.1323 13.5178 16.1352 13.5246 16.14 13.5293C16.1448 13.534 16.1513 13.5371 16.1564 13.5416C16.1614 13.546 16.1634 13.5496 16.1686 13.5538C16.1739 13.558 16.1796 13.5661 16.185 13.5661C16.1904 13.5661 16.1958 13.5784 16.2014 13.5784C16.207 13.5784 16.212 13.5866 16.2177 13.5866C16.2235 13.5866 16.2322 13.5988 16.2382 13.5988C16.2441 13.5988 16.2485 13.607 16.2545 13.607C16.2606 13.607 16.2688 13.6152 16.275 13.6152C16.2812 13.6152 16.285 13.6234 16.2914 13.6234C16.2977 13.6234 16.3054 13.6274 16.3118 13.6274C16.3182 13.6274 16.3258 13.6315 16.3323 13.6315C16.3388 13.6315 16.3421 13.6356 16.3486 13.6356C16.3552 13.6356 16.3625 13.6397 16.3691 13.6397C16.3757 13.6397 16.3829 13.6438 16.3895 13.6438C16.3962 13.6438 16.4033 13.6438 16.41 13.6438C16.4167 13.6438 16.4238 13.6438 16.4305 13.6438C16.4372 13.6438 16.4442 13.6438 16.4509 13.6438C16.4576 13.6438 16.4647 13.6438 16.4714 13.6438C16.478 13.6438 16.4852 13.6397 16.4918 13.6397C16.4984 13.6397 16.5057 13.6356 16.5123 13.6356C16.5188 13.6356 16.5221 13.6315 16.5286 13.6315C16.5351 13.6315 16.5427 13.6274 16.5491 13.6274C16.5555 13.6274 16.5632 13.6193 16.5695 13.6193C16.5758 13.6193 16.5797 13.6152 16.5859 13.6152C16.5921 13.6152 16.6003 13.607 16.6064 13.607C16.6124 13.607 16.6168 13.5947 16.6227 13.5947C16.6286 13.5947 16.6334 13.5866 16.6391 13.5866C16.6448 13.5866 16.654 13.5743 16.6595 13.5743C16.6651 13.5743 16.6705 13.562 16.6759 13.562C16.6813 13.562 16.683 13.554 16.6882 13.5498C16.6933 13.5454 16.6997 13.542 16.7045 13.5375C16.7094 13.5329 16.7162 13.53 16.7209 13.5252C16.7256 13.5204 16.7288 13.5139 16.7332 13.5089C16.7376 13.5038 16.7413 13.4977 16.7455 13.4925C16.7496 13.4873 16.7577 13.4816 16.7577 13.4761C16.7577 13.4707 16.77 13.4654 16.77 13.4598C16.77 13.4542 16.7782 13.4492 16.7782 13.4434C16.7782 13.4376 16.7905 13.433 16.7905 13.4271C16.7905 13.4211 16.7986 13.4168 16.7986 13.4107C16.7986 13.4046 16.8068 13.3965 16.8068 13.3903C16.8068 13.3841 16.815 13.3762 16.815 13.3698C16.815 13.3635 16.8191 13.3599 16.8191 13.3535C16.8191 13.3471 16.8232 13.3395 16.8232 13.333C16.8232 13.3265 16.8314 13.3192 16.8314 13.3126C16.8314 13.306 16.8314 13.2988 16.8314 13.2921C16.8314 13.2855 16.8355 13.2824 16.8355 13.2758C16.8355 13.2691 16.8355 13.262 16.8355 13.2553C16.8355 13.2486 16.8355 13.2416 16.8355 13.2349C16.8355 13.2282 16.8355 13.2211 16.8355 13.2144C16.8355 13.2078 16.8355 13.2006 16.8355 13.194C16.8355 13.1873 16.8314 13.1802 16.8314 13.1736C16.8314 13.1669 16.8273 13.1597 16.8273 13.1531C16.8273 13.1466 16.8232 13.1391 16.8232 13.1327C16.8232 13.1262 16.8191 13.1227 16.8191 13.1163C16.8191 13.1099 16.8109 13.1021 16.8109 13.0959C16.8109 13.0896 16.8027 13.0857 16.8027 13.0795C16.8027 13.0733 16.7945 13.0651 16.7945 13.0591C16.7945 13.053 16.7864 13.0486 16.7864 13.0427C16.7864 13.0368 16.7782 13.028 16.7782 13.0223C16.7782 13.0165 16.7659 13.0115 16.7659 13.0059C16.7659 13.0003 16.7536 12.9949 16.7536 12.9896C16.7536 12.9842 16.7456 12.9784 16.7414 12.9732C16.7196 12.9468 16.6987 12.921 16.6759 12.8955C16.6532 12.87 16.6301 12.8465 16.6064 12.8219C16.5827 12.7973 16.5573 12.772 16.5327 12.7483C16.5081 12.7246 16.4846 12.7015 16.4591 12.6788C16.4336 12.656 16.4077 12.6351 16.3814 12.6134C16.355 12.5916 16.3267 12.5687 16.2995 12.5479C16.2724 12.5272 16.2457 12.5063 16.2177 12.4866C16.1898 12.4669 16.1605 12.448 16.1318 12.4293C16.1031 12.4107 16.0753 12.3937 16.0459 12.3762C16.0165 12.3587 15.9859 12.3435 15.9559 12.3271C15.9259 12.3108 15.8966 12.2932 15.8659 12.2781C15.8353 12.2629 15.803 12.2471 15.7718 12.2331C15.7406 12.2191 15.7094 12.2091 15.6777 12.1963C15.646 12.1835 15.6158 12.171 15.5836 12.1595C15.5515 12.1479 15.5181 12.1371 15.4855 12.1268C15.4529 12.1164 15.4202 12.1031 15.3873 12.094C15.3543 12.085 15.3224 12.0773 15.2891 12.0695C15.2558 12.0617 15.2204 12.0556 15.1868 12.0491C15.1533 12.0425 15.1183 12.0379 15.0845 12.0327C15.0508 12.0275 15.0203 12.0164 14.9864 12.0164C14.9524 12.0164 14.9182 12.0082 14.8841 12.0082C14.85 12.0082 14.816 12 14.7818 12C14.7476 12 14.7138 12 14.6795 12C14.6454 12 14.6114 12 14.5773 12C14.5431 12 14.505 12.0082 14.4709 12.0082C14.4368 12.0082 14.4067 12.0164 14.3727 12.0164C14.3388 12.0164 14.3043 12.0275 14.2705 12.0327C14.2367 12.0379 14.2018 12.0426 14.1682 12.0491C14.1346 12.0556 14.0992 12.0617 14.0659 12.0695C14.0326 12.0773 14.0007 12.085 13.9677 12.094C13.9347 12.1031 13.9022 12.1124 13.8695 12.1227C13.8369 12.133 13.8036 12.1438 13.7714 12.1554C13.7392 12.1669 13.709 12.1794 13.6773 12.1922C13.6456 12.205 13.6144 12.2191 13.5832 12.2331C13.552 12.2471 13.5197 12.2629 13.4891 12.2781C13.4584 12.2932 13.4291 12.3067 13.3991 12.323C13.369 12.3394 13.3385 12.3587 13.3091 12.3762C13.2797 12.3936 13.2519 12.4108 13.2232 12.4293C13.1945 12.4479 13.1653 12.4669 13.1373 12.4866C13.1093 12.5063 13.0827 12.5272 13.0555 12.5479C13.0283 12.5686 13 12.5875 12.9736 12.6093C12.9472 12.631 12.9214 12.656 12.8959 12.6788C12.8704 12.7015 12.8469 12.7246 12.8223 12.7483C12.7976 12.772 12.7724 12.7973 12.7486 12.8219C12.7249 12.8465 12.7018 12.87 12.6791 12.8955C12.6563 12.921 12.6354 12.9468 12.6136 12.9732C12.5919 12.9996 12.5689 13.0278 12.5482 13.055C12.5274 13.0822 12.5065 13.1088 12.4868 13.1368C12.4671 13.1647 12.4481 13.1939 12.4295 13.2226C12.411 13.2513 12.3938 13.2791 12.3764 13.3085C12.3589 13.3379 12.3436 13.3684 12.3273 13.3985C12.3109 13.4285 12.2934 13.4578 12.2782 13.4884C12.263 13.519 12.2472 13.5513 12.2332 13.5825C12.2192 13.6137 12.2051 13.6448 12.1923 13.6765C12.1795 13.7082 12.1711 13.7384 12.1595 13.7706C12.148 13.8027 12.133 13.8361 12.1227 13.8687C12.1124 13.9013 12.1032 13.9339 12.0941 13.9668C12.085 13.9998 12.0773 14.0317 12.0695 14.065C12.0618 14.0982 12.0556 14.1336 12.0491 14.1672C12.0426 14.2008 12.0379 14.2315 12.0327 14.2653C12.0275 14.2991 12.0164 14.3336 12.0164 14.3676C12.0164 14.4015 12.0082 14.4357 12.0082 14.4698C12.0082 14.5039 12 14.5378 12 14.572C12 14.6062 12 14.64 12 14.6742C12 14.6992 12 14.7269 12 14.7519C12 14.7769 12.0041 14.8006 12.0041 14.8255C12.0041 14.8505 12.0082 14.8742 12.0082 14.8991C12.0082 14.924 12.0164 14.952 12.0164 14.9768C12.0164 15.0017 12.0245 15.0257 12.0245 15.0504C12.0245 15.0752 12.0326 15.0994 12.0368 15.124C12.041 15.1487 12.0442 15.1731 12.0491 15.1976C12.054 15.2221 12.0599 15.2469 12.0655 15.2712C12.071 15.2956 12.0797 15.3206 12.0859 15.3448C12.0921 15.369 12.0954 15.3903 12.1023 15.4144C12.1092 15.4384 12.1192 15.4642 12.1268 15.488C12.1344 15.5118 12.1431 15.5339 12.1514 15.5575C12.1596 15.5811 12.167 15.6036 12.1759 15.627C12.1848 15.6503 12.195 15.6734 12.2045 15.6965C12.2141 15.7196 12.223 15.7432 12.2332 15.766C12.2434 15.7888 12.2551 15.813 12.2659 15.8355C12.2768 15.858 12.2872 15.8787 12.2986 15.901C12.3101 15.9232 12.3193 15.9486 12.3314 15.9705C12.3435 15.9923 12.3555 16.0103 12.3682 16.0318C12.3809 16.0533 12.3958 16.0761 12.4091 16.0972C12.4224 16.1184 12.4361 16.1378 12.45 16.1586C12.4639 16.1793 12.4764 16.2036 12.4909 16.224C12.5054 16.2444 12.5209 16.2613 12.5359 16.2812C12.551 16.3012 12.5653 16.323 12.5809 16.3426C12.5965 16.3621 12.6139 16.3807 12.63 16.3998C12.6461 16.4189 12.6624 16.4384 12.6791 16.4571C12.6958 16.4757 12.7151 16.4921 12.7323 16.5102C12.7495 16.5284 12.7637 16.5457 12.7814 16.5634C12.7991 16.581 12.8164 16.5994 12.8345 16.6165C12.8527 16.6337 12.8732 16.6531 12.8918 16.6697C12.9105 16.6863 12.93 16.7027 12.9491 16.7188C12.9682 16.7349 12.9868 16.7482 13.0064 16.7637C13.0108 16.7637 13.0141 16.776 13.0186 16.776C13.0232 16.776 13.0303 16.7842 13.035 16.7842C13.0397 16.7842 13.0424 16.7965 13.0473 16.7965C13.0521 16.7965 13.0587 16.8046 13.0636 16.8046C13.0686 16.8046 13.0749 16.8128 13.08 16.8128C13.0851 16.8128 13.0871 16.821 13.0923 16.821C13.0975 16.821 13.1033 16.8251 13.1086 16.8251C13.114 16.8251 13.1196 16.8333 13.125 16.8333C13.1304 16.8333 13.1359 16.8373 13.1414 16.8373C13.1469 16.8373 13.1522 16.8414 13.1577 16.8414C13.1633 16.8414 13.1685 16.8455 13.1741 16.8455C13.1797 16.8455 13.1848 16.8496 13.1905 16.8496C13.1961 16.8496 13.2052 16.8537 13.2109 16.8537C13.2166 16.8537 13.2216 16.8537 13.2273 16.8537C13.233 16.8537 13.2379 16.8537 13.2436 16.8537ZM16.5655 20.9918C16.5938 20.9963 16.6265 20.9959 16.6555 20.9959L16.6473 21C16.6556 21 16.6676 21 16.6759 21C16.6842 21 16.6921 21 16.7005 21C16.7088 21 16.7167 21 16.725 21C16.7333 21 16.7413 20.9959 16.7495 20.9959C16.7578 20.9959 16.7659 20.9918 16.7741 20.9918C16.7823 20.9918 16.7905 20.9877 16.7986 20.9877C16.8068 20.9877 16.8151 20.9836 16.8232 20.9836C16.8313 20.9836 16.8397 20.9755 16.8477 20.9755C16.8558 20.9755 16.8643 20.9714 16.8723 20.9714C16.8803 20.9714 16.8848 20.9632 16.8927 20.9632C16.9006 20.9632 16.9095 20.955 16.9173 20.955C16.9251 20.955 16.9341 20.9468 16.9418 20.9468C16.9495 20.9468 16.9587 20.9346 16.9664 20.9346C16.974 20.9346 16.9793 20.9264 16.9868 20.9264C16.9943 20.9264 17.004 20.9141 17.0114 20.9141C17.0188 20.9141 17.0246 20.9019 17.0318 20.9019C17.0391 20.9019 17.0451 20.8939 17.0523 20.8896C17.0594 20.8853 17.0657 20.8818 17.0727 20.8773C17.0797 20.8728 17.0863 20.8657 17.0932 20.861C17.1 20.8562 17.107 20.8536 17.1136 20.8487C17.1203 20.8437 17.1276 20.8375 17.1341 20.8323C17.1406 20.8272 17.1482 20.8214 17.1545 20.816C17.1609 20.8106 17.1688 20.8052 17.175 20.7996C17.1812 20.794 17.1854 20.789 17.1914 20.7833C17.1974 20.7775 17.2019 20.7729 17.2077 20.7669C17.2135 20.761 17.2185 20.7526 17.2241 20.7465C17.2297 20.7404 17.2391 20.7364 17.2445 20.7301C17.2499 20.7238 17.2516 20.7162 17.2568 20.7097C17.262 20.7032 17.2682 20.6959 17.2732 20.6892C17.2782 20.6825 17.2848 20.6756 17.2895 20.6688C17.2943 20.662 17.2972 20.6553 17.3018 20.6483C17.3063 20.6413 17.3097 20.635 17.3141 20.6279L18.5823 18.5834L20.6277 17.3158C20.6356 17.3109 20.6446 17.3086 20.6523 17.3035C20.66 17.2984 20.6652 17.2925 20.6727 17.2871C20.6802 17.2817 20.69 17.2764 20.6973 17.2708C20.7046 17.2651 20.7106 17.2563 20.7177 17.2503C20.7248 17.2444 20.7313 17.2401 20.7382 17.234C20.7451 17.2278 20.7519 17.22 20.7586 17.2135C20.7653 17.2072 20.7727 17.2038 20.7791 17.1972C20.7855 17.1905 20.7892 17.1836 20.7955 17.1767C20.8016 17.1699 20.8099 17.1633 20.8159 17.1563C20.8219 17.1492 20.8266 17.139 20.8323 17.1318C20.838 17.1245 20.8432 17.1188 20.8486 17.1113C20.8541 17.1038 20.8598 17.0944 20.865 17.0868C20.8701 17.0791 20.8764 17.0742 20.8814 17.0663C20.8863 17.0585 20.889 17.0498 20.8936 17.0418C20.8983 17.0338 20.9057 17.0254 20.91 17.0173C20.9144 17.0091 20.9223 17.001 20.9223 16.9927C20.9223 16.9844 20.9345 16.9766 20.9345 16.9682C20.9345 16.9597 20.9427 16.9522 20.9427 16.9437C20.9427 16.9351 20.955 16.9237 20.955 16.915C20.955 16.9063 20.9632 16.8993 20.9632 16.8905C20.9632 16.8817 20.9714 16.8708 20.9714 16.8619C20.9714 16.853 20.9755 16.8463 20.9755 16.8373C20.9755 16.8284 20.9836 16.8178 20.9836 16.8087C20.9836 16.7997 20.9877 16.7892 20.9877 16.7801C20.9877 16.771 20.9918 16.7647 20.9918 16.7556C20.9918 16.7464 20.9959 16.7361 20.9959 16.7269C20.9959 16.7177 21 16.7075 21 16.6983C21 16.6891 21 16.6789 21 16.6697C21 16.6605 21 16.6544 21 16.6452C21 16.6359 21 16.6258 21 16.6165C21 16.6073 20.9959 16.5971 20.9959 16.5879C20.9959 16.5787 20.9959 16.5685 20.9959 16.5593C20.9959 16.5501 20.9918 16.5439 20.9918 16.5348C20.9918 16.5256 20.9877 16.5152 20.9877 16.5061C20.9877 16.497 20.9795 16.4865 20.9795 16.4775C20.9795 16.4685 20.9755 16.4619 20.9755 16.453C20.9755 16.444 20.9673 16.4332 20.9673 16.4244C20.9673 16.4155 20.9591 16.4086 20.9591 16.3998C20.9591 16.3911 20.9509 16.3798 20.9509 16.3712C20.9509 16.3625 20.9386 16.3552 20.9386 16.3467C20.9386 16.3381 20.9264 16.3305 20.9264 16.3221C20.9264 16.3137 20.9223 16.3059 20.9182 16.2976C20.914 16.2893 20.9062 16.2812 20.9018 16.2731C20.8973 16.2649 20.8943 16.2565 20.8895 16.2485C20.8848 16.2406 20.8782 16.2318 20.8732 16.224C20.8682 16.2162 20.8662 16.2111 20.8609 16.2035C20.8556 16.196 20.8501 16.1864 20.8445 16.179C20.839 16.1716 20.834 16.1658 20.8282 16.1586C20.8224 16.1514 20.8137 16.141 20.8077 16.134C20.8017 16.127 20.7977 16.1203 20.7914 16.1136C20.7851 16.1068 20.7774 16.1038 20.7709 16.0972C20.7644 16.0907 20.7572 16.0831 20.7505 16.0768C20.7437 16.0705 20.737 16.0624 20.73 16.0563C20.723 16.0503 20.7167 16.0458 20.7095 16.04C20.7023 16.0342 20.6924 16.0292 20.685 16.0236C20.6776 16.0181 20.6722 16.0126 20.6645 16.0073C20.657 16.002 20.6478 15.9959 20.64 15.9909C20.6322 15.9859 20.6275 15.9793 20.6195 15.9746C20.6116 15.9698 20.6031 15.9667 20.595 15.9623C20.5869 15.9578 20.5787 15.9542 20.5705 15.95C20.5622 15.9458 20.5543 15.9378 20.5459 15.9378C20.5375 15.9378 20.5258 15.9255 20.5173 15.9255C20.5087 15.9255 20.5014 15.9173 20.4927 15.9173C20.4841 15.9173 20.4769 15.905 20.4682 15.905L15.0395 14.0445C14.7534 13.9468 14.4424 14.0205 14.2295 14.2326C14.2231 14.239 14.2194 14.2464 14.2132 14.2531C14.2069 14.2597 14.1987 14.2666 14.1927 14.2735C14.1867 14.2804 14.1821 14.2869 14.1764 14.294C14.1706 14.301 14.1655 14.3071 14.16 14.3144C14.1545 14.3217 14.1489 14.3315 14.1436 14.3389C14.1384 14.3464 14.1323 14.3517 14.1273 14.3594C14.1223 14.367 14.1156 14.3761 14.1109 14.3839C14.1062 14.3917 14.1031 14.4005 14.0986 14.4085C14.0942 14.4164 14.0905 14.4249 14.0864 14.433C14.0822 14.4411 14.0741 14.4493 14.0741 14.4575C14.0741 14.4658 14.0618 14.4737 14.0618 14.4821C14.0618 14.4904 14.0536 14.4981 14.0536 14.5066C14.0536 14.5151 14.0414 14.5225 14.0414 14.5311C14.0414 14.5397 14.0332 14.551 14.0332 14.5597C14.0332 14.5685 14.025 14.5755 14.025 14.5843C14.025 14.5931 14.0209 14.604 14.0209 14.6129C14.0209 14.6218 14.0127 14.6285 14.0127 14.6374C14.0127 14.6464 14.0086 14.657 14.0086 14.6661C14.0086 14.6751 14.0045 14.6815 14.0045 14.6906C14.0045 14.6997 14.0005 14.7101 14.0005 14.7192C14.0005 14.7283 14.0005 14.7387 14.0005 14.7478C14.0005 14.757 14.0005 14.7632 14.0005 14.7724C14.0005 14.7815 14.0005 14.7919 14.0005 14.801C14.0005 14.8101 14.0005 14.8205 14.0005 14.8296C14.0005 14.8387 14.0005 14.8492 14.0005 14.8582C14.0005 14.8673 14.0045 14.8737 14.0045 14.8828C14.0045 14.8918 14.0086 14.9024 14.0086 14.9114C14.0086 14.9204 14.0127 14.927 14.0127 14.9359C14.0127 14.9449 14.0209 14.9557 14.0209 14.9646C14.0209 14.9734 14.025 14.9803 14.025 14.9891C14.025 14.9979 14.0332 15.009 14.0332 15.0177C14.0332 15.0264 14.0414 15.0336 14.0414 15.0423L15.9068 20.4643C15.9068 20.4732 15.9191 20.4843 15.9191 20.493C15.9191 20.5016 15.9273 20.5089 15.9273 20.5175C15.9273 20.526 15.9395 20.5336 15.9395 20.542C15.9395 20.5505 15.9477 20.5583 15.9518 20.5666C15.9559 20.5749 15.9597 20.5829 15.9641 20.5911C15.9685 20.5992 15.9717 20.6077 15.9764 20.6156C15.9811 20.6236 15.9877 20.6323 15.9927 20.6402C15.9977 20.6479 15.9997 20.6571 16.005 20.6647C16.0103 20.6724 16.0158 20.6777 16.0214 20.6851C16.0269 20.6926 16.036 20.7024 16.0418 20.7097C16.0476 20.7169 16.0521 20.7231 16.0582 20.7301C16.0642 20.7371 16.0682 20.7438 16.0745 20.7506C16.0809 20.7573 16.0885 20.7644 16.095 20.771C16.1016 20.7775 16.1087 20.7851 16.1155 20.7915C16.1222 20.7977 16.1289 20.8017 16.1359 20.8078C16.1429 20.8138 16.1491 20.8184 16.1564 20.8242C16.1636 20.8299 16.1735 20.8391 16.1809 20.8446C16.1883 20.8501 16.1937 20.8557 16.2014 20.861C16.209 20.8663 16.2181 20.8682 16.2259 20.8732C16.2337 20.8782 16.2425 20.8849 16.2505 20.8896C16.2584 20.8943 16.2669 20.8974 16.275 20.9019C16.2831 20.9063 16.2912 20.91 16.2995 20.9141C16.3078 20.9182 16.3156 20.9264 16.3241 20.9264C16.3325 20.9264 16.3401 20.9387 16.3486 20.9387C16.3572 20.9387 16.3645 20.9468 16.3732 20.9468C16.3819 20.9468 16.393 20.9591 16.4018 20.9591C16.4106 20.9591 16.4175 20.9673 16.4264 20.9673C16.4353 20.9673 16.446 20.9714 16.455 20.9714C16.464 20.9714 16.4705 20.9796 16.4795 20.9796C16.4886 20.9796 16.4991 20.9836 16.5082 20.9836C16.5173 20.9836 16.6913 20.9959 16.7005 20.9959C16.7096 20.9959 16.5562 20.9918 16.5655 20.9918ZM16.6555 20.1372L14.8391 14.8378L20.1409 16.6574L18.0709 17.9373C18.0577 17.9455 18.0422 17.9563 18.03 17.9659C18.0178 17.9755 18.0083 17.9836 17.9973 17.9945C17.9863 18.0056 17.9742 18.0192 17.9645 18.0313C17.9549 18.0435 17.9481 18.0549 17.94 18.0682L16.6555 20.1372Z" stroke="rgba(204, 78, 29, 1)" stroke-width="0.6"    fill-rule="evenodd"  fill="#CC4E1D" ></path><path d="M6.81863 11.6506L10.8286 11.6506C11.3107 11.6506 11.5586 11.8885 11.5586 12.3706C11.5586 12.8527 11.3107 13.1006 10.8286 13.1006L6.81863 13.1006C6.33653 13.1006 6.09863 12.8527 6.09863 12.3706C6.09863 11.8885 6.33653 11.6506 6.81863 11.6506ZM6.81863 15.1706L9.14868 15.1707C9.63079 15.1707 9.86865 15.4086 9.86865 15.8907C9.86865 16.3728 9.63079 16.6207 9.14868 16.6207L6.81863 16.6206C6.33651 16.6206 6.09863 16.3727 6.09863 15.8906C6.09863 15.4085 6.33653 15.1706 6.81863 15.1706ZM6.81863 8.13062L15.4386 8.13062C15.9207 8.13062 16.1586 8.3685 16.1586 8.85062C16.1586 9.33272 15.9207 9.58062 15.4386 9.58062L6.81863 9.58062C6.33653 9.58062 6.09863 9.33272 6.09863 8.85062C6.09863 8.36848 6.33653 8.13062 6.81863 8.13062Z"   fill="#034FA1" ></path><path d="M7.52832 5.1859L7.52832 2.83529C7.52832 2.26135 7.81507 1.97461 8.389 1.97461C8.96293 1.97461 9.24968 2.26135 9.24968 2.83529L9.24968 5.1859C9.24968 5.75983 8.96293 6.04658 8.389 6.04658C7.81506 6.04658 7.52832 5.75983 7.52832 5.1859ZM15.0695 5.1859L15.0695 2.83529C15.0695 2.26135 15.3573 1.97461 15.9312 1.97461C16.5052 1.97461 16.7919 2.26135 16.7919 2.83529L16.7919 5.1859C16.7919 5.75983 16.5052 6.04658 15.9312 6.04658C15.3573 6.04658 15.0695 5.75983 15.0695 5.1859Z"   fill="#034FA1" ></path></svg>