<svg xmlns="http://www.w3.org/2000/svg" xmlns:xlink="http://www.w3.org/1999/xlink" width="24" height="24" viewBox="0 0 24 24" fill="none"><path d="M20.5729 11.5044C20.5588 11.5044 20.5417 11.5013 20.5276 11.5013C20.5136 11.5013 20.5024 11.5013 20.4884 11.5013C20.4744 11.5013 20.4601 11.4953 20.4461 11.4953C20.4322 11.4953 20.4177 11.4862 20.4039 11.4862C20.3901 11.4862 20.3753 11.4806 20.3616 11.4772C20.348 11.4738 20.3359 11.4722 20.3224 11.4681C20.3089 11.4641 20.2965 11.4578 20.2832 11.4531C20.2699 11.4483 20.254 11.4434 20.2409 11.438C20.2279 11.4326 20.2174 11.4259 20.2047 11.4199C20.192 11.4138 20.1779 11.4084 20.1655 11.4018C20.1531 11.3951 20.1414 11.3879 20.1293 11.3806C20.1172 11.3734 20.1048 11.3673 20.0931 11.3595C20.0814 11.3517 20.0682 11.3438 20.0569 11.3354C20.0456 11.327 20.0376 11.3171 20.0267 11.3082C20.0158 11.2993 20.0039 11.2905 19.9935 11.281C19.983 11.2716 19.9733 11.2608 19.9633 11.2509C19.9533 11.2409 19.9426 11.2311 19.9331 11.2207C19.9237 11.2102 19.9149 11.2014 19.906 11.1905C19.897 11.1796 19.8872 11.1656 19.8788 11.1543C19.8704 11.143 19.8625 11.1328 19.8547 11.1211C19.8468 11.1094 19.8408 11.097 19.8335 11.0849C19.8263 11.0728 19.8191 11.0611 19.8124 11.0487C19.8058 11.0363 19.7973 11.0252 19.7913 11.0125C19.7853 10.9997 19.7816 10.9863 19.7762 10.9732C19.7708 10.9602 19.7659 10.9473 19.7611 10.934C19.7564 10.9207 19.7501 10.9052 19.746 10.8918C19.7419 10.8783 19.7404 10.8662 19.737 10.8525C19.7335 10.8389 19.7279 10.8241 19.7279 10.8103C19.7279 10.7965 19.7189 10.785 19.7189 10.771C19.7189 10.7571 19.7158 10.7428 19.7158 10.7288C19.7158 10.7148 19.7098 10.6976 19.7098 10.6835C19.7098 10.6695 19.7098 10.6584 19.7098 10.6443L19.7098 5.13994C19.7098 5.12739 19.7038 5.11619 19.7038 5.10372C19.7038 5.09128 19.6977 5.07984 19.6977 5.06751C19.6977 5.05518 19.6892 5.04046 19.6857 5.02828C19.6822 5.01612 19.6807 5.00408 19.6766 4.99207C19.6726 4.98008 19.6662 4.96765 19.6615 4.95585C19.6569 4.94406 19.6546 4.93424 19.6495 4.92266C19.6443 4.9111 19.6371 4.89775 19.6314 4.88645C19.6256 4.87514 19.6195 4.86427 19.6132 4.85325C19.607 4.84223 19.6019 4.83076 19.5951 4.82006C19.5884 4.80935 19.5813 4.80027 19.574 4.78988C19.5668 4.7795 19.5576 4.76972 19.5499 4.7597C19.5421 4.74969 19.534 4.73917 19.5257 4.72952C19.5175 4.71988 19.5103 4.7116 19.5016 4.70236C19.4929 4.69312 19.4835 4.68401 19.4744 4.6752C19.4653 4.66638 19.4568 4.65641 19.4473 4.64804C19.4378 4.63966 19.427 4.63182 19.4171 4.6239C19.4072 4.616 19.3972 4.60719 19.3869 4.59976C19.3766 4.59231 19.3673 4.58858 19.3567 4.58165C19.3461 4.57471 19.3345 4.56696 19.3235 4.56053C19.3126 4.55409 19.3016 4.54832 19.2903 4.54242C19.2791 4.53651 19.2686 4.52968 19.2572 4.52432C19.2457 4.51895 19.2326 4.51405 19.2209 4.50923C19.2092 4.50442 19.1997 4.4984 19.1877 4.49414C19.1758 4.48989 19.1636 4.48576 19.1515 4.48207C19.1394 4.47838 19.1276 4.47611 19.1153 4.47301C19.103 4.4699 19.0885 4.46396 19.0761 4.46396C19.0637 4.46396 19.0524 4.45793 19.0399 4.45793C19.0274 4.45793 19.0132 4.45491 19.0006 4.45491C18.9881 4.45491 18.9771 4.44887 18.9644 4.44887C18.9518 4.44887 18.9379 4.44887 18.9252 4.44887C18.9125 4.44887 18.9017 4.44887 18.889 4.44887C18.8763 4.44887 18.8624 4.45189 18.8498 4.45189L17.9384 4.45189C17.9244 4.45189 17.9102 4.44887 17.8961 4.44887C17.8821 4.44887 17.8678 4.44586 17.8539 4.44586C17.8399 4.44586 17.8255 4.43982 17.8116 4.43982C17.7978 4.43982 17.7832 4.43378 17.7694 4.43378C17.7556 4.43378 17.7407 4.42822 17.7272 4.42473C17.7136 4.42124 17.7013 4.41682 17.6879 4.41266C17.6745 4.40851 17.6619 4.40538 17.6487 4.40059C17.6355 4.3958 17.6224 4.39094 17.6095 4.3855C17.5965 4.38006 17.5829 4.37346 17.5702 4.36739C17.5576 4.36134 17.5463 4.35294 17.534 4.34627C17.5217 4.3396 17.5098 4.33542 17.4978 4.32816C17.4858 4.32089 17.4732 4.31186 17.4616 4.30402C17.45 4.29617 17.4396 4.28829 17.4284 4.27988C17.4172 4.27149 17.406 4.26166 17.3952 4.25272C17.3844 4.24378 17.3724 4.23502 17.362 4.22556C17.3517 4.21609 17.3417 4.20834 17.3318 4.1984C17.3219 4.18844 17.3141 4.17864 17.3047 4.16822C17.2953 4.15779 17.2834 4.14589 17.2745 4.13503C17.2656 4.12415 17.2587 4.11313 17.2503 4.10183C17.242 4.09055 17.234 4.08033 17.2262 4.06864C17.2184 4.05696 17.2123 4.04446 17.2051 4.03242C17.1979 4.02037 17.1905 4.00859 17.184 3.99621C17.1774 3.98383 17.1718 3.96968 17.1659 3.95698C17.1599 3.9443 17.1531 3.93072 17.1477 3.91775C17.1424 3.90479 17.1374 3.89174 17.1327 3.87852C17.1279 3.8653 17.1246 3.85272 17.1206 3.83929C17.1165 3.82586 17.1119 3.81366 17.1085 3.80006C17.1051 3.78644 17.0995 3.77156 17.0995 3.75781C17.0995 3.74405 17.0904 3.72944 17.0904 3.71556C17.0904 3.70169 17.0874 3.69029 17.0874 3.67633C17.0874 3.66237 17.0814 3.64507 17.0814 3.63106C17.0814 3.61705 17.0814 3.60586 17.0814 3.59183C17.0814 3.57781 17.0814 3.5636 17.0814 3.54959C17.0814 3.53558 17.0874 3.5213 17.0874 3.50734C17.0874 3.49338 17.0904 3.47897 17.0904 3.46509C17.0904 3.45121 17.0995 3.4366 17.0995 3.42284C17.0995 3.40908 17.1051 3.39722 17.1085 3.38361C17.1119 3.37 17.1165 3.35479 17.1206 3.34136C17.1246 3.32793 17.1279 3.31534 17.1327 3.30213C17.1374 3.28892 17.1424 3.27587 17.1477 3.2629C17.1531 3.24993 17.1599 3.23636 17.1659 3.22367C17.1718 3.21098 17.1774 3.19984 17.184 3.18746C17.1905 3.17507 17.1979 3.16329 17.2051 3.15124C17.2123 3.1392 17.2184 3.12671 17.2262 3.11503C17.234 3.10335 17.242 3.09011 17.2503 3.07882C17.2587 3.06753 17.2656 3.05951 17.2745 3.04864C17.2834 3.03777 17.2953 3.02587 17.3047 3.01545C17.3141 3.00502 17.3219 2.99522 17.3318 2.98527C17.3417 2.97532 17.3517 2.96455 17.362 2.95509C17.3724 2.94563 17.3844 2.93687 17.3952 2.92793C17.406 2.91899 17.4172 2.90917 17.4284 2.90077C17.4396 2.89237 17.45 2.88447 17.4616 2.87663C17.4732 2.86879 17.4858 2.86277 17.4978 2.8555C17.5098 2.84824 17.5217 2.84105 17.534 2.83438C17.5463 2.82771 17.5576 2.81932 17.5702 2.81326C17.5829 2.8072 17.5965 2.8036 17.6095 2.79817C17.6224 2.79273 17.6355 2.78788 17.6487 2.78308C17.6619 2.77828 17.6745 2.77214 17.6879 2.76799C17.7013 2.76384 17.7136 2.75941 17.7272 2.75592C17.7407 2.75243 17.7557 2.74687 17.7694 2.74687C17.7832 2.74687 17.7978 2.74083 17.8116 2.74083C17.8255 2.74083 17.84 2.7348 17.8539 2.7348C17.8679 2.7348 17.8821 2.73178 17.8961 2.73178C17.9102 2.73178 17.9244 2.72876 17.9384 2.72876L18.8498 2.72876C18.8906 2.72876 18.9296 2.72876 18.9705 2.72876C19.0113 2.72876 19.0534 2.7348 19.0942 2.7348C19.135 2.7348 19.1743 2.73916 19.2149 2.74385C19.2555 2.74854 19.2983 2.75528 19.3386 2.76196C19.3789 2.76862 19.4194 2.77746 19.4593 2.7861C19.4993 2.79473 19.5376 2.80268 19.577 2.81326C19.6165 2.82383 19.6558 2.83698 19.6947 2.84947C19.7336 2.86196 19.7712 2.87432 19.8094 2.8887C19.8476 2.90308 19.8866 2.91774 19.9241 2.93397C19.9616 2.9502 19.9991 2.96722 20.0357 2.98527C20.0724 3.00331 20.1086 3.02279 20.1444 3.0426C20.1801 3.06242 20.2153 3.08444 20.25 3.10598C20.2847 3.12751 20.319 3.14916 20.3526 3.17237C20.3862 3.19558 20.4197 3.21997 20.4522 3.24479C20.4846 3.26962 20.5145 3.29386 20.5457 3.32024C20.5769 3.34662 20.6094 3.37384 20.6393 3.40172C20.6692 3.42959 20.6983 3.45993 20.7268 3.48923C20.7553 3.51853 20.7813 3.54911 20.8083 3.57976C20.8353 3.61042 20.8613 3.64137 20.8867 3.67331C20.9122 3.70525 20.9383 3.73673 20.9622 3.76988C20.986 3.80303 21.0094 3.8352 21.0316 3.86947C21.0538 3.90375 21.0744 3.93977 21.095 3.97509C21.1155 4.01041 21.1335 4.04745 21.1523 4.08373C21.1711 4.12002 21.1896 4.15521 21.2066 4.19237C21.2236 4.22953 21.2398 4.2691 21.2549 4.30704C21.27 4.34498 21.2839 4.38307 21.2971 4.42171C21.3104 4.46034 21.325 4.49714 21.3364 4.53639C21.3477 4.57563 21.3571 4.61735 21.3666 4.6571C21.376 4.69684 21.3832 4.73463 21.3907 4.77479C21.3982 4.81494 21.4063 4.85502 21.4118 4.8955C21.4173 4.93599 21.4204 4.97853 21.4239 5.01923C21.4274 5.05993 21.4329 5.09913 21.4329 5.13994L21.4329 10.6443C21.4329 10.6584 21.4299 10.6695 21.4299 10.6835C21.4299 10.6976 21.4269 10.7148 21.4269 10.7288C21.4269 10.7428 21.4239 10.7571 21.4239 10.771C21.4239 10.785 21.4148 10.7965 21.4148 10.8103C21.4148 10.8241 21.4092 10.8389 21.4058 10.8525C21.4024 10.8662 21.3978 10.8783 21.3937 10.8918C21.3896 10.9052 21.3864 10.9207 21.3816 10.934C21.3769 10.9473 21.372 10.9602 21.3666 10.9732C21.3612 10.9863 21.3545 10.9997 21.3484 11.0125C21.3424 11.0252 21.337 11.0363 21.3303 11.0487C21.3237 11.0611 21.3165 11.0728 21.3092 11.0849C21.302 11.097 21.2959 11.1094 21.2881 11.1211C21.2803 11.1328 21.2723 11.143 21.264 11.1543C21.2556 11.1656 21.2457 11.1796 21.2368 11.1905C21.2279 11.2014 21.2191 11.2102 21.2096 11.2207C21.2002 11.2311 21.1894 11.2409 21.1795 11.2509C21.1695 11.2608 21.1597 11.2716 21.1493 11.281C21.1388 11.2905 21.127 11.2993 21.1161 11.3082C21.1052 11.3172 21.0942 11.327 21.0829 11.3354C21.0716 11.3438 21.0614 11.3517 21.0497 11.3595C21.038 11.3673 21.0256 11.3734 21.0135 11.3806C21.0014 11.3879 20.9897 11.3951 20.9773 11.4018C20.9648 11.4084 20.9538 11.4138 20.9411 11.4199C20.9283 11.4259 20.9148 11.4326 20.9018 11.438C20.8888 11.4434 20.8759 11.4483 20.8626 11.4531C20.8493 11.4578 20.8338 11.464 20.8203 11.4681C20.8068 11.4722 20.7948 11.4738 20.7811 11.4772C20.7674 11.4806 20.7527 11.4862 20.7389 11.4862C20.725 11.4862 20.7105 11.4953 20.6966 11.4953C20.6827 11.4953 20.6684 11.4983 20.6544 11.4983C20.6404 11.4983 20.6292 11.5013 20.6151 11.5013C20.6011 11.5013 20.587 11.5044 20.5729 11.5044ZM18.5902 4.45189L5.44492 4.45254C5.43087 4.45254 5.41668 4.44952 5.40267 4.44952C5.38866 4.44952 5.37438 4.4465 5.36041 4.4465C5.34645 4.4465 5.33507 4.44348 5.32118 4.44348C5.3073 4.44348 5.2927 4.43442 5.27895 4.43442C5.26519 4.43442 5.2503 4.42881 5.2367 4.42535C5.22307 4.42188 5.21087 4.41748 5.19746 4.41334C5.18403 4.40921 5.1684 4.40604 5.15521 4.40126C5.14202 4.39647 5.13196 4.39158 5.119 4.38616C5.10604 4.38073 5.09244 4.37408 5.07977 4.36803C5.06709 4.36198 5.05591 4.35657 5.04356 4.34991C5.03118 4.34324 5.01635 4.3361 5.00432 4.32884C4.99229 4.32158 4.97976 4.31553 4.96811 4.30769C4.95647 4.29986 4.94618 4.28892 4.93492 4.28051C4.92366 4.27211 4.91256 4.26535 4.90173 4.25642C4.8909 4.24748 4.88194 4.23868 4.87154 4.22923C4.86117 4.21977 4.84827 4.20898 4.83835 4.19902C4.82845 4.18906 4.82059 4.17932 4.81118 4.16889C4.80178 4.15846 4.79292 4.14654 4.78403 4.13566C4.77514 4.12479 4.76519 4.1138 4.75687 4.10251C4.74851 4.09121 4.74049 4.08097 4.73272 4.06928C4.72495 4.05759 4.71882 4.04516 4.71161 4.0331C4.7044 4.02104 4.69709 4.00925 4.69048 3.99686C4.68388 3.98446 4.67836 3.97036 4.67238 3.95766C4.66639 3.94496 4.65963 3.93138 4.65427 3.91839C4.64891 3.90541 4.64388 3.89545 4.63917 3.88222C4.63446 3.86899 4.62815 3.85337 4.62408 3.83993C4.62002 3.8265 4.61844 3.81436 4.61504 3.80073C4.61164 3.7871 4.60598 3.77221 4.60598 3.75844C4.60598 3.74467 4.59693 3.73314 4.59693 3.71925C4.59693 3.70535 4.59391 3.69094 4.59391 3.67696C4.59391 3.66298 4.59089 3.64877 4.59089 3.63474C4.59089 3.62071 4.58787 3.60657 4.58787 3.59253C4.58787 3.57848 4.59089 3.56426 4.59089 3.55024C4.59089 3.53621 4.59391 3.522 4.59391 3.50802C4.59391 3.49404 4.59693 3.47962 4.59693 3.46573C4.59693 3.45184 4.60598 3.43729 4.60598 3.42351C4.60598 3.40974 4.61164 3.39787 4.61504 3.38424C4.61844 3.37062 4.62002 3.35547 4.62408 3.34203C4.62815 3.32858 4.63446 3.31599 4.63917 3.30276C4.64388 3.28953 4.64891 3.27655 4.65427 3.26356C4.65963 3.25058 4.66639 3.237 4.67238 3.2243C4.67836 3.21159 4.68388 3.20052 4.69048 3.18812C4.69709 3.17572 4.7044 3.16393 4.71161 3.15187C4.71882 3.13981 4.72495 3.12739 4.73272 3.1157C4.74049 3.104 4.74851 3.09075 4.75687 3.07945C4.76519 3.06815 4.77514 3.05717 4.78403 3.0463C4.79292 3.03542 4.80178 3.02652 4.81118 3.01609C4.82059 3.00566 4.82845 2.99289 4.83835 2.98293C4.84827 2.97298 4.86117 2.96521 4.87154 2.95575C4.88194 2.94629 4.8909 2.9375 4.90173 2.92856C4.91256 2.91962 4.92366 2.90985 4.93492 2.90145C4.94618 2.89305 4.95647 2.88512 4.96811 2.87728C4.97976 2.86944 4.99229 2.8634 5.00432 2.85614C5.01635 2.84888 5.03118 2.84173 5.04356 2.83507C5.05591 2.82841 5.06709 2.81997 5.07977 2.81392C5.09244 2.80787 5.10604 2.80424 5.119 2.79882C5.13196 2.7934 5.14202 2.7885 5.15521 2.78372C5.1684 2.77893 5.18403 2.77274 5.19746 2.76861C5.21087 2.76448 5.22307 2.76007 5.2367 2.7566C5.2503 2.75313 5.26519 2.74754 5.27895 2.74754C5.2927 2.74754 5.3073 2.7415 5.32118 2.7415C5.33507 2.7415 5.34645 2.73546 5.36041 2.73546C5.37438 2.73546 5.38866 2.73244 5.40267 2.73244C5.41668 2.73244 5.43087 2.72942 5.44492 2.72942L18.5902 2.72876C18.6043 2.72876 18.6185 2.73178 18.6325 2.73178C18.6465 2.73178 18.6608 2.7348 18.6747 2.7348C18.6887 2.7348 18.7031 2.74083 18.717 2.74083C18.7309 2.74083 18.7455 2.74687 18.7592 2.74687C18.773 2.74687 18.7848 2.75245 18.7985 2.75592C18.8121 2.75939 18.8273 2.76386 18.8407 2.76799C18.8541 2.77212 18.8667 2.7783 18.8799 2.78308C18.8931 2.78786 18.9062 2.79275 18.9192 2.79817C18.9321 2.80359 18.9457 2.80721 18.9584 2.81326C18.9711 2.81931 18.9823 2.82772 18.9946 2.83438C19.007 2.84104 19.0188 2.84825 19.0308 2.8555C19.0429 2.86277 19.0554 2.86879 19.067 2.87663C19.0787 2.88447 19.089 2.89237 19.1002 2.90077C19.1115 2.90917 19.1226 2.91899 19.1334 2.92793C19.1442 2.93687 19.1562 2.94563 19.1666 2.95509C19.177 2.96455 19.1869 2.9723 19.1968 2.98225C19.2067 2.99221 19.2146 3.00502 19.224 3.01545C19.2334 3.02587 19.2452 3.03475 19.2541 3.04562C19.263 3.0565 19.2699 3.06752 19.2783 3.07882C19.2866 3.09012 19.2946 3.10334 19.3024 3.11503C19.3102 3.12672 19.3193 3.13918 19.3266 3.15124C19.3338 3.1633 19.3411 3.17506 19.3477 3.18746C19.3543 3.19985 19.3598 3.21096 19.3658 3.22367C19.3718 3.23638 19.3755 3.24992 19.3809 3.2629C19.3862 3.27588 19.3913 3.2889 19.396 3.30213C19.4007 3.31536 19.407 3.32792 19.4111 3.34136C19.4151 3.35481 19.4167 3.36998 19.4201 3.38361C19.4235 3.39724 19.4292 3.40906 19.4292 3.42284C19.4292 3.43662 19.4382 3.4512 19.4382 3.46509C19.4382 3.47898 19.4412 3.49336 19.4412 3.50734C19.4412 3.52132 19.4473 3.53556 19.4473 3.54959C19.4473 3.56361 19.4473 3.57779 19.4473 3.59183C19.4473 3.60588 19.4473 3.62006 19.4473 3.63408C19.4473 3.64811 19.4412 3.66235 19.4412 3.67633C19.4412 3.69031 19.4382 3.70469 19.4382 3.71858C19.4382 3.73247 19.4292 3.74403 19.4292 3.75781C19.4292 3.77158 19.4235 3.78643 19.4201 3.80006C19.4167 3.81369 19.4151 3.82586 19.4111 3.83929C19.407 3.85274 19.4007 3.86831 19.396 3.88154C19.3913 3.89477 19.3862 3.90477 19.3809 3.91775C19.3755 3.93074 19.3718 3.94428 19.3658 3.95698C19.3598 3.96968 19.3543 3.98381 19.3477 3.99621C19.3411 4.00861 19.3338 4.02036 19.3266 4.03242C19.3193 4.04448 19.3102 4.05694 19.3024 4.06864C19.2946 4.08033 19.2866 4.09054 19.2783 4.10183C19.2699 4.11313 19.263 4.12415 19.2541 4.13503C19.2452 4.1459 19.2334 4.15779 19.224 4.16822C19.2146 4.17866 19.2067 4.18844 19.1968 4.1984C19.1869 4.20836 19.177 4.21912 19.1666 4.22858C19.1562 4.23803 19.1442 4.2468 19.1334 4.25574C19.1226 4.26468 19.1115 4.27149 19.1002 4.27988C19.089 4.28829 19.0787 4.2992 19.067 4.30704C19.0554 4.31487 19.0429 4.3209 19.0308 4.32816C19.0188 4.33542 19.007 4.34262 18.9946 4.34929C18.9823 4.35595 18.9711 4.36134 18.9584 4.36739C18.9457 4.37344 18.9321 4.38008 18.9192 4.3855C18.9062 4.39092 18.8931 4.3958 18.8799 4.40059C18.8667 4.40537 18.8541 4.40853 18.8407 4.41266C18.8273 4.41679 18.8121 4.42126 18.7985 4.42473C18.7848 4.42819 18.773 4.43378 18.7592 4.43378C18.7455 4.43378 18.7309 4.44284 18.717 4.44284C18.7031 4.44284 18.6887 4.44586 18.6747 4.44586C18.6608 4.44586 18.6465 4.44887 18.6325 4.44887C18.6185 4.44887 18.6043 4.45189 18.5902 4.45189ZM10.9101 21.2245L5.23065 21.2245C5.18982 21.2245 5.14776 21.2275 5.10693 21.2275C5.06607 21.2275 5.02696 21.2215 4.98622 21.2215C4.94545 21.2215 4.90306 21.2142 4.86249 21.2094C4.82192 21.2047 4.78209 21.2009 4.74178 21.1943C4.70147 21.1876 4.661 21.1788 4.62107 21.1702C4.58115 21.1616 4.54284 21.1506 4.50338 21.14C4.46392 21.1294 4.42458 21.1193 4.38568 21.1068C4.34678 21.0943 4.30924 21.0819 4.27101 21.0676C4.23277 21.0532 4.19383 21.0355 4.15634 21.0193C4.11884 21.0031 4.08133 20.9861 4.04468 20.968C4.00803 20.9499 3.97177 20.9305 3.93604 20.9107C3.90033 20.8909 3.86514 20.8718 3.83042 20.8503C3.79571 20.8288 3.76144 20.8072 3.72782 20.7839C3.6942 20.7607 3.66067 20.7363 3.62823 20.7115C3.59578 20.6867 3.56587 20.6594 3.53468 20.633C3.50349 20.6067 3.471 20.5794 3.44113 20.5515C3.41126 20.5237 3.38208 20.4964 3.35361 20.4671C3.32515 20.4378 3.29914 20.4072 3.27214 20.3765C3.24514 20.3459 3.21613 20.3149 3.19066 20.283C3.16519 20.251 3.14211 20.2196 3.11823 20.1864C3.09435 20.1533 3.07105 20.1181 3.04882 20.0838C3.02659 20.0495 3.00597 20.0165 2.98545 19.9812C2.96492 19.9459 2.94387 19.9088 2.92509 19.8726C2.90632 19.8363 2.88775 19.8011 2.87077 19.7639C2.8538 19.7268 2.83763 19.6872 2.82249 19.6492C2.80735 19.6113 2.79653 19.5732 2.78326 19.5346C2.76999 19.4959 2.75539 19.4591 2.74403 19.4199C2.73267 19.3807 2.72328 19.3389 2.71385 19.2992C2.70442 19.2594 2.69719 19.2186 2.68971 19.1785C2.68223 19.1383 2.67409 19.0983 2.66859 19.0578C2.66308 19.0173 2.66003 18.9778 2.65651 18.9371C2.653 18.8964 2.64746 18.8572 2.64746 18.8163L2.64746 5.13994C2.64746 5.09913 2.653 5.05993 2.65651 5.01923C2.66003 4.97853 2.66308 4.93599 2.66859 4.8955C2.67409 4.85502 2.68223 4.81495 2.68971 4.77479C2.69719 4.73464 2.70442 4.69686 2.71385 4.6571C2.72328 4.61735 2.73267 4.57562 2.74403 4.53639C2.75539 4.49714 2.76999 4.46034 2.78326 4.42171C2.79653 4.38307 2.80735 4.34498 2.82249 4.30704C2.83763 4.2691 2.8538 4.22953 2.87077 4.19237C2.88775 4.15521 2.90632 4.12002 2.92509 4.08373C2.94387 4.04745 2.96492 4.01041 2.98545 3.97509C3.00597 3.93977 3.02659 3.90375 3.04882 3.86947C3.07105 3.83519 3.09435 3.80303 3.11823 3.76988C3.14211 3.73674 3.16519 3.70525 3.19066 3.67331C3.21613 3.64137 3.24514 3.61042 3.27214 3.57976C3.29914 3.54911 3.32515 3.51853 3.35361 3.48923C3.38208 3.45993 3.41126 3.42959 3.44113 3.40172C3.47099 3.37384 3.50349 3.34662 3.53468 3.32024C3.56587 3.29386 3.59579 3.26962 3.62823 3.24479C3.66067 3.21997 3.6942 3.19558 3.72782 3.17237C3.76143 3.14916 3.7957 3.12751 3.83042 3.10598C3.86513 3.08444 3.90031 3.06242 3.93604 3.0426C3.97177 3.02279 4.00803 3.00331 4.04468 2.98527C4.08133 2.96722 4.11884 2.9502 4.15634 2.93397C4.19381 2.91774 4.23277 2.90308 4.27101 2.8887C4.30925 2.87432 4.3468 2.86196 4.38568 2.84947C4.42458 2.83698 4.46392 2.82383 4.50338 2.81326C4.54284 2.80268 4.58114 2.79473 4.62107 2.7861C4.66099 2.77746 4.70147 2.76862 4.74178 2.76196C4.78209 2.75529 4.82192 2.74854 4.86249 2.74385C4.90306 2.73916 4.94545 2.7348 4.98622 2.7348C5.02696 2.7348 5.06607 2.72876 5.10693 2.72876C5.14776 2.72876 5.18982 2.72876 5.23065 2.72876L6.21142 2.72876C6.22548 2.72876 6.23966 2.73178 6.25367 2.73178C6.26768 2.73178 6.28195 2.7348 6.29592 2.7348C6.30989 2.7348 6.32428 2.74083 6.33817 2.74083C6.35205 2.74083 6.36364 2.74687 6.3774 2.74687C6.39115 2.74687 6.40604 2.75245 6.41965 2.75592C6.43327 2.75939 6.44849 2.76386 6.4619 2.76799C6.47533 2.77212 6.48793 2.7783 6.50113 2.78308C6.51432 2.78786 6.5274 2.79275 6.54036 2.79817C6.55331 2.80359 6.56691 2.80721 6.57959 2.81326C6.59227 2.81931 6.60345 2.82772 6.6158 2.83438C6.62818 2.84104 6.63998 2.84825 6.65201 2.8555C6.66405 2.86277 6.67658 2.86879 6.68823 2.87663C6.69987 2.88447 6.71017 2.89237 6.72142 2.90077C6.73268 2.90917 6.74379 2.91899 6.75462 2.92793C6.76544 2.93687 6.77742 2.94563 6.78781 2.95509C6.79819 2.96455 6.80807 2.9723 6.81799 2.98225C6.82789 2.99221 6.83574 3.00502 6.84515 3.01545C6.85456 3.02587 6.86342 3.03475 6.87231 3.04562C6.8812 3.0565 6.89114 3.06752 6.89947 3.07882C6.90782 3.09012 6.91584 3.10334 6.92361 3.11503C6.93138 3.12672 6.94054 3.13918 6.94775 3.15124C6.95496 3.1633 6.96227 3.17506 6.96888 3.18746C6.97548 3.19985 6.981 3.21096 6.98698 3.22367C6.99297 3.23638 6.99671 3.24992 7.00207 3.2629C7.00743 3.27588 7.01245 3.2889 7.01716 3.30213C7.02187 3.31536 7.02818 3.32792 7.03225 3.34136C7.03632 3.35481 7.0379 3.36998 7.0413 3.38361C7.0447 3.39724 7.05337 3.40906 7.05337 3.42284C7.05337 3.43662 7.05941 3.4512 7.05941 3.46509C7.05941 3.47898 7.06544 3.49336 7.06544 3.50734C7.06544 3.52132 7.06846 3.53556 7.06846 3.54959C7.06846 3.56361 7.06846 3.57779 7.06846 3.59183C7.06846 3.60588 7.06846 3.62006 7.06846 3.63408C7.06846 3.64811 7.06544 3.66235 7.06544 3.67633C7.06544 3.69031 7.05941 3.70469 7.05941 3.71858C7.05941 3.73247 7.05337 3.74403 7.05337 3.75781C7.05337 3.77158 7.0447 3.78643 7.0413 3.80006C7.0379 3.81369 7.03632 3.82586 7.03225 3.83929C7.02818 3.85274 7.02187 3.86831 7.01716 3.88154C7.01245 3.89477 7.00743 3.90477 7.00207 3.91775C6.99671 3.93074 6.99297 3.94428 6.98698 3.95698C6.981 3.96968 6.97548 3.98381 6.96888 3.99621C6.96227 4.00861 6.95496 4.02036 6.94775 4.03242C6.94054 4.04448 6.93138 4.05694 6.92361 4.06864C6.91584 4.08033 6.90782 4.09054 6.89947 4.10183C6.89114 4.11313 6.8812 4.12415 6.87231 4.13503C6.86342 4.1459 6.85456 4.15779 6.84515 4.16822C6.83574 4.17866 6.82789 4.18844 6.81799 4.1984C6.80807 4.20836 6.79819 4.21912 6.78781 4.22858C6.77742 4.23803 6.76544 4.2468 6.75462 4.25574C6.74379 4.26468 6.73268 4.27149 6.72142 4.27988C6.71017 4.28829 6.69987 4.2992 6.68823 4.30704C6.67658 4.31487 6.66405 4.3209 6.65201 4.32816C6.63998 4.33542 6.62818 4.34262 6.6158 4.34929C6.60345 4.35595 6.59227 4.36134 6.57959 4.36739C6.56691 4.37344 6.55331 4.38008 6.54036 4.3855C6.5274 4.39092 6.51432 4.3958 6.50113 4.40059C6.48793 4.40537 6.47533 4.40853 6.4619 4.41266C6.44849 4.41679 6.43327 4.42126 6.41965 4.42473C6.40604 4.42819 6.39115 4.43378 6.3774 4.43378C6.36364 4.43378 6.35205 4.44284 6.33817 4.44284C6.32428 4.44284 6.30989 4.44586 6.29592 4.44586C6.28195 4.44586 6.26768 4.44887 6.25367 4.44887C6.23966 4.44887 6.22548 4.45189 6.21142 4.45189L5.23065 4.45189C5.21802 4.45189 5.20408 4.44887 5.19142 4.44887C5.17877 4.44887 5.16789 4.44887 5.15521 4.44887C5.14253 4.44887 5.12864 4.44887 5.11598 4.44887C5.10334 4.44887 5.09236 4.45491 5.07977 4.45491C5.06717 4.45491 5.05306 4.45793 5.04054 4.45793C5.02801 4.45793 5.01674 4.46396 5.00432 4.46396C4.9919 4.46396 4.97738 4.46992 4.96509 4.47301C4.9528 4.47611 4.941 4.47838 4.92888 4.48207C4.91676 4.48576 4.90461 4.48989 4.89267 4.49414C4.88074 4.4984 4.8712 4.50441 4.85947 4.50923C4.84774 4.51403 4.83473 4.51895 4.82326 4.52432C4.81179 4.52968 4.80128 4.53651 4.79006 4.54242C4.77884 4.54833 4.76777 4.5541 4.75687 4.56053C4.74595 4.56696 4.73428 4.57471 4.72367 4.58165C4.71308 4.58858 4.70376 4.59231 4.69349 4.59976C4.68323 4.60719 4.67322 4.616 4.66332 4.6239C4.65343 4.63182 4.64265 4.63967 4.63314 4.64804C4.62364 4.65641 4.61508 4.66638 4.60598 4.6752C4.59688 4.68401 4.58749 4.69312 4.57882 4.70236C4.57014 4.7116 4.55988 4.71988 4.55166 4.72952C4.54344 4.73917 4.53828 4.74969 4.53054 4.7597C4.52279 4.76972 4.51367 4.7795 4.50639 4.78988C4.49912 4.80025 4.49204 4.80934 4.48527 4.82006C4.4785 4.83076 4.47341 4.84223 4.46716 4.85325C4.46091 4.86427 4.45478 4.87516 4.44906 4.88645C4.44333 4.89777 4.43613 4.9111 4.43095 4.92266C4.42576 4.93422 4.42048 4.94406 4.41586 4.95585C4.41123 4.96765 4.40785 4.98008 4.40379 4.99207C4.39973 5.00408 4.39521 5.0161 4.39172 5.02828C4.38823 5.04046 4.38267 5.05518 4.38267 5.06751C4.38267 5.07984 4.37663 5.09128 4.37663 5.10372C4.37663 5.11619 4.36758 5.12739 4.36758 5.13994L4.36758 18.8073C4.36758 18.8199 4.37663 18.831 4.37663 18.8435C4.37663 18.856 4.38267 18.8674 4.38267 18.8797C4.38267 18.8921 4.38823 18.9068 4.39172 18.919C4.39521 18.9311 4.39973 18.9432 4.40379 18.9552C4.40785 18.9672 4.41123 18.9796 4.41586 18.9914C4.4205 19.0032 4.42577 19.013 4.43095 19.0246C4.43613 19.0362 4.44333 19.0495 4.44906 19.0608C4.45478 19.0721 4.46091 19.083 4.46716 19.094C4.47342 19.105 4.4785 19.1135 4.48527 19.1242C4.49203 19.1349 4.49912 19.147 4.50639 19.1574C4.51367 19.1677 4.52279 19.1775 4.53054 19.1875C4.5383 19.1976 4.54344 19.2081 4.55166 19.2177C4.55988 19.2274 4.57015 19.2356 4.57882 19.2449C4.58749 19.2541 4.59688 19.2632 4.60598 19.272C4.61508 19.2809 4.62363 19.2878 4.63314 19.2962C4.64264 19.3045 4.65342 19.3154 4.66332 19.3233C4.6732 19.3312 4.68323 19.337 4.69349 19.3445C4.70376 19.3519 4.71307 19.3586 4.72367 19.3656C4.73426 19.3725 4.74595 19.3803 4.75687 19.3867C4.76779 19.3931 4.77886 19.3989 4.79006 19.4048C4.80128 19.4107 4.81179 19.4176 4.82326 19.4229C4.83473 19.4283 4.84776 19.4332 4.85947 19.438C4.8712 19.4428 4.88072 19.4488 4.89267 19.4531C4.90459 19.4574 4.91676 19.4585 4.92888 19.4621C4.941 19.4658 4.9528 19.4711 4.96509 19.4742C4.97738 19.4773 4.9919 19.4803 5.00432 19.4803C5.01674 19.4803 5.02801 19.4893 5.04054 19.4893C5.05306 19.4893 5.06717 19.4923 5.07977 19.4923C5.09236 19.4923 5.10334 19.4984 5.11598 19.4984C5.12864 19.4984 5.14253 19.4984 5.15521 19.4984C5.16789 19.4984 5.17877 19.4984 5.19142 19.4984C5.20408 19.4984 5.21802 19.4953 5.23065 19.4953L10.9101 19.4953C10.9242 19.4953 10.9382 19.4953 10.9523 19.4953C10.9664 19.4953 10.9805 19.4984 10.9946 19.4984C11.0086 19.4984 11.0229 19.5044 11.0368 19.5044C11.0507 19.5044 11.0652 19.5104 11.0791 19.5104C11.0929 19.5104 11.1046 19.5191 11.1183 19.5225C11.1319 19.5259 11.147 19.5275 11.1605 19.5316C11.174 19.5356 11.1865 19.5419 11.1998 19.5466C11.213 19.5514 11.226 19.5563 11.239 19.5617C11.252 19.5671 11.2655 19.5708 11.2782 19.5768C11.291 19.5828 11.305 19.5883 11.3175 19.5949C11.3299 19.6016 11.3416 19.6088 11.3537 19.616C11.3657 19.6233 11.3751 19.6324 11.3869 19.6402C11.3986 19.648 11.4118 19.6559 11.4231 19.6643C11.4344 19.6727 11.4454 19.6795 11.4563 19.6885C11.4672 19.6974 11.479 19.7092 11.4895 19.7187C11.4999 19.7281 11.5097 19.7359 11.5196 19.7458C11.5296 19.7558 11.5373 19.7686 11.5468 19.779C11.5563 19.7894 11.568 19.7983 11.577 19.8092C11.5859 19.8201 11.5927 19.8311 11.6011 19.8424C11.6095 19.8537 11.6175 19.8669 11.6253 19.8786C11.6331 19.8903 11.6422 19.9027 11.6494 19.9148C11.6567 19.9269 11.6639 19.9386 11.6705 19.951C11.6772 19.9635 11.6826 19.9745 11.6886 19.9872C11.6946 20 11.7013 20.0135 11.7067 20.0265C11.7121 20.0395 11.7171 20.0524 11.7218 20.0657C11.7266 20.079 11.7298 20.0945 11.7339 20.1079C11.738 20.1214 11.7426 20.1335 11.746 20.1472C11.7494 20.1609 11.755 20.1756 11.755 20.1894C11.755 20.2032 11.7611 20.2147 11.7611 20.2287C11.7611 20.2426 11.7671 20.2569 11.7671 20.2709C11.7671 20.2849 11.7701 20.2991 11.7701 20.3131C11.7701 20.3272 11.7701 20.3413 11.7701 20.3554C11.7701 20.3695 11.7701 20.3836 11.7701 20.3976C11.7701 20.4117 11.7671 20.4259 11.7671 20.4399C11.7671 20.4539 11.7611 20.4682 11.7611 20.4821C11.7611 20.4961 11.755 20.5106 11.755 20.5244C11.755 20.5382 11.7494 20.55 11.746 20.5636C11.7426 20.5773 11.738 20.5924 11.7339 20.6059C11.7298 20.6193 11.7266 20.6318 11.7218 20.6451C11.7171 20.6584 11.7121 20.6713 11.7067 20.6843C11.7013 20.6974 11.6946 20.7109 11.6886 20.7236C11.6826 20.7363 11.6772 20.7503 11.6705 20.7628C11.6639 20.7751 11.6567 20.7868 11.6494 20.799C11.6422 20.8111 11.6331 20.8236 11.6253 20.8352C11.6175 20.847 11.6095 20.8571 11.6011 20.8684C11.5927 20.8798 11.5859 20.8907 11.577 20.9016C11.568 20.9125 11.5563 20.9245 11.5468 20.9348C11.5373 20.9453 11.5296 20.9551 11.5196 20.965C11.5097 20.975 11.4999 20.9857 11.4895 20.9952C11.479 21.0046 11.4672 21.0134 11.4563 21.0223C11.4454 21.0312 11.4344 21.038 11.4231 21.0465C11.4118 21.0548 11.3986 21.0627 11.3869 21.0706C11.3751 21.0784 11.3657 21.0874 11.3537 21.0947C11.3416 21.1019 11.3299 21.1091 11.3175 21.1159C11.305 21.1225 11.291 21.1279 11.2782 21.134C11.2655 21.14 11.252 21.1466 11.239 21.1521C11.226 21.1574 11.213 21.1624 11.1998 21.1672C11.1865 21.1719 11.174 21.1751 11.1605 21.1792C11.147 21.1833 11.1319 21.1879 11.1183 21.1913C11.1046 21.1948 11.0929 21.2004 11.0791 21.2004C11.0652 21.2004 11.0507 21.2064 11.0368 21.2064C11.0229 21.2064 11.0086 21.2124 10.9946 21.2124C10.9805 21.2124 10.9664 21.2155 10.9523 21.2155C10.9382 21.2155 10.9242 21.2185 10.9101 21.2185L10.9101 21.2245Z"   fill="#034FA1" ></path><path d="M7.66953 7.3818L12.3386 10.6691C12.5835 10.8147 12.7277 11.0612 12.7277 11.3054C12.7277 11.5488 12.5835 11.7925 12.3386 11.9382L7.66948 15.2254C7.57154 15.2254 7.47477 15.2727 7.32786 15.2727C7.18181 15.2727 7.08202 15.2234 6.9351 15.1745C6.69112 15.0288 6.5459 14.786 6.5459 14.5418L6.5459 8.01816C6.5459 7.77477 6.69101 7.52834 6.93499 7.3818C6.94173 7.37734 6.9499 7.37506 6.95681 7.37089C6.96371 7.36667 6.97158 7.36028 6.97863 7.35634C6.98567 7.35241 6.99326 7.34911 7.00044 7.34543C7.00763 7.34175 7.01493 7.33452 7.02226 7.33452C7.02959 7.33452 7.03663 7.32725 7.04408 7.32725C7.0515 7.32725 7.05833 7.31634 7.0659 7.31634C7.07344 7.31634 7.08006 7.30907 7.08772 7.30907C7.09538 7.30907 7.10542 7.3018 7.11317 7.3018C7.12092 7.3018 7.12717 7.29452 7.13499 7.29452C7.14281 7.29452 7.15255 7.29089 7.16044 7.29089C7.16831 7.29089 7.1743 7.28361 7.18226 7.28361C7.1902 7.28361 7.19971 7.27998 7.20772 7.27998C7.2157 7.27998 7.2215 7.27634 7.22953 7.27634C7.23757 7.27634 7.24693 7.27634 7.25499 7.27634C7.26305 7.27634 7.26873 7.27271 7.27681 7.27271C7.28489 7.27271 7.29418 7.27271 7.30226 7.27271C7.31034 7.27271 7.31964 7.27271 7.32772 7.27271C7.3358 7.27271 7.34509 7.27634 7.35317 7.27634C7.36123 7.27634 7.36696 7.27634 7.37499 7.27634C7.38302 7.27634 7.39243 7.27998 7.40044 7.27998C7.40843 7.27998 7.41432 7.28361 7.42226 7.28361C7.4302 7.28361 7.43982 7.29089 7.44772 7.29089C7.45561 7.29089 7.46171 7.29452 7.46953 7.29452C7.47736 7.29452 7.48724 7.3018 7.49499 7.3018C7.50274 7.3018 7.50915 7.30907 7.51681 7.30907C7.52447 7.30907 7.5347 7.31634 7.54226 7.31634C7.54983 7.31634 7.55663 7.32725 7.56408 7.32725C7.5715 7.32725 7.57857 7.33452 7.5859 7.33452C7.59323 7.33452 7.60053 7.34175 7.60772 7.34543C7.6149 7.34911 7.62249 7.35241 7.62953 7.35634C7.63658 7.36025 7.64081 7.36667 7.64772 7.37089C7.65462 7.37506 7.66277 7.37734 7.66953 7.3818ZM8.05863 9.28361L8.05868 13.2763L10.5314 11.2545L8.05863 9.28361Z"   fill="#034FA1" ></path><path d="M16.3218 21.0603C16.5451 21.1847 16.7964 21.2474 17.0466 21.2474C17.2969 21.2474 17.5482 21.1847 17.7714 21.0603L20.6976 19.4228C21.1452 19.173 21.4224 18.707 21.4224 18.2075L21.4224 14.9325C21.4224 14.433 21.1441 13.9669 20.6976 13.7172L17.7704 12.0796C17.3238 11.8299 16.7684 11.8299 16.3218 12.0796L13.3957 13.7172C12.9481 13.9669 12.6709 14.433 12.6709 14.9325L12.6709 18.2075C12.6709 18.707 12.9492 19.173 13.3957 19.4228L16.3218 21.0603ZM16.8061 12.8916C16.8805 12.8498 16.9636 12.8289 17.0466 12.8289C17.1297 12.8289 17.2127 12.8498 17.2872 12.8916L20.2144 14.5291C20.3632 14.6117 20.4549 14.7663 20.4549 14.9325L20.4549 18.2075C20.4549 18.3736 20.3632 18.5283 20.2144 18.6109L17.2872 20.2484C17.1383 20.3309 16.955 20.3309 16.8061 20.2484L13.8789 18.6109C13.73 18.5283 13.6384 18.3736 13.6384 18.2075L13.6384 14.9325C13.6384 14.7663 13.73 14.6117 13.8789 14.5291L16.8061 12.8916ZM15.2079 16.0009L16.6586 16.7388L16.6586 18.4072C16.6586 18.6899 16.8982 18.9203 17.1924 18.9203C17.4867 18.9203 17.7234 18.6888 17.7234 18.4072L17.7234 16.763L19.1286 16.0377C19.3824 15.8952 19.4694 15.5815 19.3211 15.3375C19.1728 15.0936 18.8457 15.0136 18.5918 15.1561L17.2178 15.8534L15.7417 15.1136C15.4866 14.9723 15.1625 15.0556 15.0153 15.3007C14.8682 15.5458 14.9528 15.8595 15.2079 16.0009Z" fill-rule="evenodd"  fill="#CC4E1D" ></path><path d="M7.52832 4.82213L7.52832 2.47152C7.52832 1.89758 7.81507 1.61084 8.389 1.61084C8.96293 1.61084 9.24968 1.89758 9.24968 2.47152L9.24968 4.82213C9.24968 5.39606 8.96293 5.68281 8.389 5.68281C7.81506 5.68281 7.52832 5.39606 7.52832 4.82213ZM15.0695 4.82213L15.0695 2.47152C15.0695 1.89758 15.3573 1.61084 15.9312 1.61084C16.5052 1.61084 16.7919 1.89758 16.7919 2.47152L16.7919 4.82213C16.7919 5.39606 16.5052 5.68281 15.9312 5.68281C15.3573 5.68281 15.0695 5.39606 15.0695 4.82213Z"   fill="#034FA1" ></path></svg>