<svg xmlns="http://www.w3.org/2000/svg" xmlns:xlink="http://www.w3.org/1999/xlink" width="24" height="24" viewBox="0 0 24 24" fill="none"><path d="M6.27308 14C6.26266 14 6.25076 14 6.24036 14C6.22995 14 6.22162 14.0031 6.21126 14.0031C6.2009 14.0031 6.18884 14.0062 6.17854 14.0062C6.16824 14.0062 6.15967 14.0094 6.14945 14.0094C6.13924 14.0094 6.12682 14.0156 6.11672 14.0156C6.10662 14.0156 6.09759 14.0249 6.08763 14.0249C6.07766 14.0249 6.06834 14.0312 6.05854 14.0312C6.04873 14.0312 6.03907 14.0371 6.02945 14.0405C6.01982 14.0439 6.00976 14.0492 6.00036 14.053C5.99095 14.0568 5.98409 14.0612 5.9749 14.0655C5.96571 14.0697 5.95474 14.0733 5.94581 14.0779C5.93688 14.0825 5.92901 14.0854 5.92036 14.0904C5.9117 14.0954 5.90327 14.1007 5.8949 14.106C5.88653 14.1113 5.8775 14.119 5.86945 14.1247C5.86139 14.1303 5.85171 14.1343 5.84399 14.1403C5.83628 14.1463 5.82953 14.1527 5.82217 14.159C5.8148 14.1653 5.80734 14.171 5.80035 14.1777C5.79335 14.1843 5.78878 14.1926 5.78217 14.1995C5.77555 14.2064 5.76656 14.2141 5.76035 14.2213C5.75415 14.2285 5.74217 14.2431 5.74217 14.2431C5.73639 14.2505 5.73298 14.2573 5.72763 14.2649L5.71308 14.2899L5.69854 14.3117L5.68399 14.3366L5.67308 14.3616L5.66581 14.3865L5.6549 14.4114L5.64763 14.4395L5.64399 14.4644L5.64036 14.4925L5.63672 14.5174L5.63672 14.5455L5.63672 14.5735L5.64036 14.5984L5.64399 14.6265L5.64763 14.6514L5.6549 14.6795L5.66581 14.7044L5.67308 14.7294L5.68399 14.7543L5.69854 14.7792L5.71308 14.801L5.72763 14.826L5.74217 14.8478L5.76035 14.8696L5.78217 14.8914L5.80035 14.9132L5.82217 14.9319L5.84399 14.9506L5.86945 14.9662L5.8949 14.9849L5.92036 15.0005L5.94581 15.013C5.95474 15.0176 5.96571 15.0212 5.9749 15.0255L6.00036 15.0379L6.02945 15.0504L6.05854 15.0597L6.08763 15.066L6.11672 15.0753L6.14945 15.0816L6.17854 15.0847L6.21126 15.0878L6.24036 15.0909L6.27308 15.0909L10.0913 15.0909L10.124 15.0909C10.1344 15.0909 10.1427 15.0878 10.1531 15.0878C10.1634 15.0878 10.1755 15.0847 10.1858 15.0847C10.1961 15.0847 10.2047 15.0816 10.2149 15.0816C10.2251 15.0816 10.2375 15.0753 10.2476 15.0753C10.2577 15.0753 10.2668 15.066 10.2767 15.066C10.2867 15.066 10.296 15.0597 10.3058 15.0597C10.3156 15.0597 10.3253 15.0538 10.3349 15.0504C10.3445 15.047 10.3546 15.0417 10.364 15.0379C10.3734 15.0341 10.3803 15.0297 10.3894 15.0255C10.3986 15.0212 10.4096 15.0176 10.4185 15.013C10.4275 15.0084 10.4353 15.0055 10.444 15.0005C10.4526 14.9956 10.4611 14.9903 10.4694 14.9849C10.4778 14.9796 10.4868 14.9719 10.4949 14.9662C10.503 14.9606 10.5126 14.9566 10.5204 14.9506C10.5281 14.9447 10.5348 14.9383 10.5422 14.9319C10.5496 14.9256 10.557 14.9199 10.564 14.9132C10.571 14.9066 10.5756 14.8983 10.5822 14.8914C10.5888 14.8845 10.5978 14.8768 10.604 14.8696C10.6102 14.8625 10.6164 14.8552 10.6222 14.8478C10.628 14.8404 10.6314 14.8336 10.6367 14.826C10.6421 14.8183 10.6464 14.8089 10.6513 14.801C10.6562 14.7932 10.6614 14.7873 10.6658 14.7792C10.6702 14.7712 10.6764 14.7625 10.6804 14.7543C10.6844 14.746 10.6913 14.7378 10.6913 14.7294C10.6913 14.721 10.6985 14.713 10.6985 14.7044C10.6985 14.6959 10.7094 14.6881 10.7094 14.6795C10.7094 14.6708 10.7167 14.6602 10.7167 14.6514C10.7167 14.6427 10.7204 14.6353 10.7204 14.6265C10.7204 14.6177 10.724 14.6073 10.724 14.5984C10.724 14.5896 10.7276 14.5824 10.7276 14.5735C10.7276 14.5646 10.7276 14.5544 10.7276 14.5455C10.7276 14.5365 10.7276 14.5263 10.7276 14.5174C10.7276 14.5085 10.724 14.5013 10.724 14.4925C10.724 14.4836 10.7204 14.4732 10.7204 14.4644C10.7204 14.4556 10.7167 14.4482 10.7167 14.4395C10.7167 14.4307 10.7094 14.4201 10.7094 14.4114C10.7094 14.4028 10.6985 14.3951 10.6985 14.3865C10.6985 14.378 10.6913 14.37 10.6913 14.3616C10.6913 14.3532 10.6844 14.3449 10.6804 14.3366C10.6764 14.3284 10.6702 14.3198 10.6658 14.3117C10.6614 14.3036 10.6562 14.2977 10.6513 14.2899C10.6464 14.282 10.6421 14.2726 10.6367 14.2649C10.6314 14.2573 10.628 14.2505 10.6222 14.2431C10.6164 14.2357 10.6102 14.2285 10.604 14.2213C10.5978 14.2141 10.5888 14.2064 10.5822 14.1995C10.5756 14.1926 10.571 14.1843 10.564 14.1777C10.557 14.171 10.5496 14.1653 10.5422 14.159C10.5348 14.1527 10.5281 14.1463 10.5204 14.1403C10.5126 14.1343 10.503 14.1303 10.4949 14.1247C10.4868 14.119 10.4778 14.1113 10.4694 14.106C10.4611 14.1007 10.4526 14.0954 10.444 14.0904C10.4353 14.0854 10.4275 14.0825 10.4185 14.0779C10.4096 14.0733 10.3986 14.0697 10.3894 14.0655C10.3803 14.0612 10.3734 14.0568 10.364 14.053C10.3546 14.0492 10.3445 14.0439 10.3349 14.0405C10.3253 14.0371 10.3156 14.0312 10.3058 14.0312C10.296 14.0312 10.2867 14.0249 10.2767 14.0249C10.2668 14.0249 10.2577 14.0156 10.2476 14.0156C10.2375 14.0156 10.2251 14.0094 10.2149 14.0094C10.2047 14.0094 10.1961 14.0062 10.1858 14.0062C10.1755 14.0062 10.1634 14.0031 10.1531 14.0031C10.1427 14.0031 10.1344 14 10.124 14C10.1136 14 10.1017 14 10.0913 14L6.27308 14Z" stroke="rgba(3, 79, 161, 1)" stroke-width="0.2"      fill="#034FA1" ></path><path d="M7.01055 2.21094C6.82704 2.21094 6.65097 2.28218 6.51964 2.4073L3.91964 4.88003C3.84451 4.94311 3.77786 5.01118 3.71601 5.0873C3.70198 5.10438 3.68564 5.12419 3.67237 5.14185C3.65909 5.15953 3.64851 5.1782 3.63601 5.19639C3.62349 5.21461 3.61136 5.2322 3.59964 5.25094C3.58793 5.26967 3.57418 5.28627 3.56328 5.30548C3.55237 5.32471 3.54427 5.34765 3.53419 5.3673C3.52413 5.38699 3.51433 5.40542 3.5051 5.42548C3.49589 5.44557 3.488 5.46686 3.47964 5.4873C3.47129 5.50776 3.46165 5.52832 3.45419 5.54912C3.44671 5.56992 3.43894 5.58984 3.43237 5.61094C3.4258 5.63204 3.41985 5.6514 3.41419 5.67276C3.40853 5.69411 3.40439 5.71663 3.39964 5.73821C3.3949 5.75981 3.38891 5.78191 3.3851 5.80366C3.38129 5.82542 3.37783 5.8472 3.37783 5.86912C3.37783 5.89103 3.37055 5.91258 3.37055 5.93457C3.37055 5.95659 3.36328 5.97795 3.36328 6.00003C3.36328 6.0221 3.36328 6.04703 3.36328 6.06912L3.36328 18.4873C3.36328 19.3099 4.02626 20.0291 4.90874 20.0291L10.1815 20.0291C10.1919 20.0291 10.2037 20.0291 10.2141 20.0291C10.2245 20.0291 10.2329 20.0255 10.2433 20.0255C10.2536 20.0255 10.2656 20.0218 10.2759 20.0218C10.2862 20.0218 10.2948 20.0182 10.305 20.0182C10.3152 20.0182 10.3276 20.0109 10.3377 20.0109C10.3478 20.0109 10.3569 20 10.3668 20C10.3768 20 10.3861 19.9928 10.396 19.9928C10.4058 19.9928 10.4154 19.9858 10.4251 19.9818C10.4347 19.9779 10.4448 19.9718 10.4542 19.9673C10.4636 19.9629 10.4706 19.9577 10.4798 19.9528C10.4889 19.9478 10.4999 19.9436 10.5089 19.9382C10.5178 19.9329 10.5254 19.9294 10.5341 19.9237C10.5427 19.9179 10.5513 19.9117 10.5597 19.9055C10.568 19.8993 10.5772 19.8903 10.5852 19.8837C10.5933 19.8771 10.6027 19.8725 10.6104 19.8655C10.6182 19.8585 10.6251 19.851 10.6325 19.8437C10.6398 19.8363 10.6471 19.8296 10.6541 19.8218C10.6611 19.8141 10.6656 19.8044 10.6722 19.7964C10.6789 19.7883 10.688 19.7793 10.6942 19.7709C10.7005 19.7626 10.7066 19.7542 10.7124 19.7455C10.7181 19.7368 10.7216 19.729 10.7269 19.72C10.7323 19.7111 10.7366 19.7001 10.7415 19.6909C10.7464 19.6817 10.7516 19.6749 10.756 19.6655C10.7605 19.6561 10.7666 19.646 10.7706 19.6364C10.7746 19.6268 10.7816 19.6171 10.7816 19.6073C10.7816 19.5975 10.7887 19.5882 10.7887 19.5782C10.7887 19.5682 10.7997 19.5592 10.7997 19.5491C10.7997 19.539 10.8068 19.5266 10.8068 19.5164C10.8068 19.5062 10.8107 19.4976 10.8107 19.4873C10.8107 19.477 10.8143 19.4649 10.8143 19.4546C10.8143 19.4442 10.8178 19.4359 10.8178 19.4255C10.8178 19.4151 10.8178 19.4032 10.8178 19.3928C10.8178 19.3823 10.8178 19.3704 10.8178 19.36C10.8178 19.3496 10.8143 19.3413 10.8143 19.3309C10.8143 19.3206 10.8107 19.3085 10.8107 19.2982C10.8107 19.2879 10.8068 19.2793 10.8068 19.2691C10.8068 19.2589 10.7997 19.2465 10.7997 19.2364C10.7997 19.2263 10.7887 19.2173 10.7887 19.2073C10.7887 19.1973 10.7816 19.188 10.7816 19.1782C10.7816 19.1684 10.7746 19.1587 10.7706 19.1491C10.7666 19.1395 10.7605 19.1295 10.756 19.12C10.7516 19.1106 10.7464 19.1038 10.7415 19.0946C10.7366 19.0854 10.7323 19.0744 10.7269 19.0655C10.7216 19.0566 10.7181 19.0487 10.7124 19.04C10.7066 19.0314 10.7005 19.0229 10.6942 19.0146C10.688 19.0062 10.6789 18.9972 10.6722 18.9891C10.6656 18.9811 10.6611 18.9714 10.6541 18.9637C10.6471 18.9559 10.6398 18.9492 10.6325 18.9418C10.6251 18.9345 10.6182 18.927 10.6104 18.92C10.6027 18.913 10.5933 18.9084 10.5852 18.9018C10.5772 18.8952 10.568 18.8862 10.5597 18.88C10.5513 18.8738 10.5427 18.8676 10.5341 18.8618C10.5254 18.8561 10.5178 18.8526 10.5089 18.8473C10.4999 18.8419 10.4889 18.8377 10.4798 18.8328C10.4706 18.8278 10.4636 18.8227 10.4542 18.8182C10.4448 18.8138 10.4347 18.8076 10.4251 18.8037C10.4154 18.7997 10.4058 18.7928 10.396 18.7928C10.3861 18.7928 10.3768 18.7855 10.3668 18.7855C10.3569 18.7855 10.3478 18.7746 10.3377 18.7746C10.3276 18.7746 10.3152 18.7673 10.305 18.7673C10.2948 18.7673 10.2862 18.7637 10.2759 18.7637C10.2656 18.7637 10.2536 18.76 10.2433 18.76C10.2329 18.76 10.2245 18.7564 10.2141 18.7564C10.2037 18.7564 10.1919 18.7564 10.1815 18.7564L5.27237 18.7564C5.26195 18.7564 5.25004 18.7564 5.23965 18.7564C5.22924 18.7564 5.22092 18.7528 5.21055 18.7528C5.2002 18.7528 5.18813 18.7491 5.17783 18.7491C5.16753 18.7491 5.15896 18.7455 5.14874 18.7455C5.13853 18.7455 5.12611 18.7382 5.11601 18.7382C5.10591 18.7382 5.09689 18.7273 5.08692 18.7273C5.07695 18.7273 5.06763 18.72 5.05783 18.72C5.04802 18.72 5.03836 18.7131 5.02874 18.7091C5.01911 18.7051 5.00906 18.699 4.99964 18.6946C4.99023 18.6901 4.98338 18.685 4.97419 18.68C4.96502 18.6751 4.95403 18.6708 4.9451 18.6655C4.93616 18.6601 4.9283 18.6567 4.91964 18.6509C4.91099 18.6451 4.90256 18.639 4.89419 18.6328C4.88582 18.6265 4.8768 18.6176 4.86874 18.6109C4.86069 18.6043 4.851 18.5998 4.84328 18.5928C4.83557 18.5858 4.82882 18.5783 4.82146 18.5709C4.81409 18.5636 4.80663 18.5568 4.79964 18.5491C4.79264 18.5414 4.78807 18.5317 4.78146 18.5237C4.77485 18.5156 4.76585 18.5066 4.75964 18.4982C4.75344 18.4899 4.74724 18.4814 4.74146 18.4728C4.73568 18.4641 4.73227 18.4562 4.72692 18.4473C4.72156 18.4384 4.71728 18.4274 4.71237 18.4182C4.70745 18.409 4.70228 18.4022 4.69783 18.3928C4.69337 18.3833 4.68726 18.3733 4.68328 18.3637C4.67929 18.354 4.67237 18.3444 4.67237 18.3346C4.67237 18.3248 4.6651 18.3155 4.6651 18.3055C4.6651 18.2955 4.65419 18.2865 4.65419 18.2764C4.65419 18.2663 4.64692 18.2539 4.64692 18.2437C4.64692 18.2334 4.64328 18.2249 4.64328 18.2146C4.64328 18.2043 4.63964 18.1922 4.63964 18.1818C4.63964 18.1715 4.63601 18.1632 4.63601 18.1528C4.63601 18.1424 4.63601 18.1304 4.63601 18.12L4.63601 6.66548C4.63601 6.65506 4.63601 6.64316 4.63601 6.63276C4.63601 6.62235 4.63964 6.61405 4.63964 6.60366C4.63964 6.59332 4.64328 6.58124 4.64328 6.57094C4.64328 6.56064 4.64692 6.55207 4.64692 6.54185C4.64692 6.53164 4.65419 6.51922 4.65419 6.50912C4.65419 6.49902 4.6651 6.49001 4.6651 6.48003C4.6651 6.47007 4.67237 6.46074 4.67237 6.45094C4.67237 6.44113 4.67929 6.43147 4.68328 6.42185C4.68726 6.41222 4.69337 6.40218 4.69783 6.39276C4.70228 6.38335 4.70745 6.37649 4.71237 6.3673C4.71728 6.35813 4.72156 6.34716 4.72692 6.33821C4.73227 6.32928 4.73568 6.32143 4.74146 6.31276C4.74724 6.3041 4.75344 6.29567 4.75964 6.2873C4.76585 6.27895 4.77485 6.26992 4.78146 6.26185C4.78807 6.25381 4.79264 6.24411 4.79964 6.23639C4.80663 6.22868 4.81409 6.22193 4.82146 6.21457C4.82882 6.20722 4.83557 6.19976 4.84328 6.19276C4.851 6.18576 4.86069 6.18118 4.86874 6.17457C4.8768 6.16797 4.88582 6.15896 4.89419 6.15276C4.90256 6.14655 4.91099 6.14036 4.91964 6.13457C4.9283 6.12881 4.93616 6.1254 4.9451 6.12003C4.95403 6.11468 4.96502 6.11039 4.97419 6.10548C4.98338 6.10057 4.99023 6.09539 4.99964 6.09094C5.00906 6.08648 5.01911 6.08037 5.02874 6.07639C5.03836 6.07241 5.04802 6.06548 5.05783 6.06548C5.06763 6.06548 5.07695 6.05821 5.08692 6.05821C5.09689 6.05821 5.10591 6.0473 5.11601 6.0473C5.12611 6.0473 5.13853 6.04003 5.14874 6.04003C5.15896 6.04003 5.16753 6.03639 5.17783 6.03639C5.18813 6.03639 5.2002 6.03275 5.21055 6.03275C5.22092 6.03275 5.22924 6.02912 5.23965 6.02912C5.25004 6.02912 5.26195 6.02912 5.27237 6.02912L19.0906 6.02912C19.101 6.02912 19.1129 6.02912 19.1233 6.02912C19.1337 6.02912 19.142 6.03275 19.1524 6.03275C19.1627 6.03275 19.1748 6.03639 19.1851 6.03639C19.1954 6.03639 19.204 6.04003 19.2142 6.04003C19.2244 6.04003 19.2368 6.0473 19.2469 6.0473C19.257 6.0473 19.266 6.05821 19.276 6.05821C19.286 6.05821 19.2953 6.06548 19.3051 6.06548C19.3149 6.06548 19.3246 6.07241 19.3342 6.07639C19.3438 6.08037 19.3539 6.08648 19.3633 6.09094C19.3727 6.09539 19.3795 6.10057 19.3887 6.10548C19.3979 6.11039 19.4089 6.11468 19.4178 6.12003C19.4268 6.1254 19.4346 6.12881 19.4433 6.13457C19.4519 6.14036 19.4604 6.14655 19.4687 6.15276C19.4771 6.15896 19.4861 6.16797 19.4942 6.17457C19.5022 6.18118 19.5119 6.18576 19.5196 6.19276C19.5274 6.19976 19.5341 6.20722 19.5415 6.21457C19.5488 6.22193 19.5563 6.22868 19.5633 6.23639C19.5703 6.24411 19.5749 6.25381 19.5815 6.26185C19.5881 6.26992 19.5971 6.27895 19.6033 6.2873C19.6095 6.29567 19.6157 6.3041 19.6215 6.31276C19.6273 6.32143 19.6307 6.32928 19.636 6.33821C19.6414 6.34714 19.6456 6.35811 19.6506 6.3673C19.6555 6.37649 19.6606 6.38335 19.6651 6.39276C19.6695 6.40218 19.6756 6.41222 19.6796 6.42185C19.6836 6.43147 19.6906 6.44115 19.6906 6.45094C19.6906 6.46076 19.6978 6.47007 19.6978 6.48003C19.6978 6.49001 19.7087 6.49902 19.7087 6.50912C19.7087 6.51922 19.716 6.53164 19.716 6.54185C19.716 6.55207 19.7196 6.56064 19.7196 6.57094C19.7196 6.58124 19.7233 6.59332 19.7233 6.60366C19.7233 6.61405 19.7269 6.62235 19.7269 6.63276C19.7269 6.64316 19.7269 6.65506 19.7269 6.66548L19.7269 12.0982L19.7487 12.0982C19.7487 12.1067 19.7524 12.1153 19.7524 12.1237C19.7524 12.132 19.7633 12.1409 19.7633 12.1491C19.7633 12.1574 19.7706 12.1628 19.7706 12.1709C19.7706 12.1791 19.7815 12.1884 19.7815 12.1964C19.7815 12.2044 19.7885 12.2104 19.7924 12.2182C19.7962 12.226 19.7991 12.236 19.8033 12.2437C19.8075 12.2513 19.8133 12.258 19.8178 12.2655C19.8223 12.273 19.8276 12.28 19.8324 12.2873C19.8372 12.2946 19.8418 12.302 19.8469 12.3091C19.852 12.3162 19.8561 12.3241 19.8615 12.3309C19.8669 12.3378 19.874 12.3425 19.8796 12.3491C19.8853 12.3558 19.8919 12.3645 19.8978 12.3709C19.9038 12.3774 19.9098 12.383 19.916 12.3891C19.9222 12.3953 19.9277 12.4014 19.9342 12.4073C19.9406 12.4132 19.9457 12.4199 19.9524 12.4255C19.9591 12.4311 19.9673 12.4347 19.9742 12.44C19.9811 12.4454 19.9889 12.4532 19.996 12.4582C20.0031 12.4633 20.0105 12.468 20.0178 12.4728C20.0252 12.4775 20.0321 12.4792 20.0396 12.4837C20.0472 12.4881 20.0538 12.4941 20.0615 12.4982C20.0692 12.5023 20.0754 12.5053 20.0833 12.5091C20.0911 12.513 20.1007 12.52 20.1087 12.52C20.1168 12.52 20.1261 12.5309 20.1342 12.5309C20.1423 12.5309 20.1477 12.5418 20.156 12.5418C20.1643 12.5418 20.1731 12.5491 20.1815 12.5491C20.1898 12.5491 20.1984 12.5564 20.2069 12.5564C20.2154 12.5564 20.2238 12.56 20.2324 12.56C20.2409 12.56 20.2492 12.5673 20.2578 12.5673C20.2665 12.5673 20.2746 12.5709 20.2833 12.5709C20.292 12.5709 20.3037 12.5709 20.3124 12.5709C20.3211 12.5709 20.3291 12.5746 20.3378 12.5746C20.3466 12.5746 20.3546 12.5746 20.3633 12.5746C20.372 12.5746 20.38 12.5746 20.3887 12.5746C20.3975 12.5746 20.4055 12.5709 20.4142 12.5709C20.4229 12.5709 20.4346 12.5709 20.4433 12.5709C20.452 12.5709 20.4601 12.5673 20.4687 12.5673C20.4773 12.5673 20.4856 12.56 20.4942 12.56C20.5027 12.56 20.5112 12.5564 20.5196 12.5564C20.5281 12.5564 20.5367 12.5491 20.5451 12.5491C20.5535 12.5491 20.5623 12.5418 20.5706 12.5418C20.5788 12.5418 20.5842 12.5309 20.5924 12.5309C20.6005 12.5309 20.6098 12.52 20.6178 12.52C20.6258 12.52 20.6354 12.513 20.6433 12.5091C20.6511 12.5053 20.6574 12.5023 20.6651 12.4982C20.6728 12.4941 20.6794 12.4881 20.6869 12.4837C20.6944 12.4792 20.7014 12.4775 20.7087 12.4728C20.7161 12.468 20.7234 12.4633 20.7306 12.4582C20.7377 12.4532 20.7455 12.4454 20.7524 12.44C20.7593 12.4347 20.7675 12.4311 20.7742 12.4255C20.7809 12.4199 20.7859 12.4132 20.7924 12.4073C20.7988 12.4014 20.8043 12.3953 20.8106 12.3891C20.8167 12.383 20.8228 12.3774 20.8287 12.3709C20.8347 12.3645 20.8412 12.3558 20.8469 12.3491C20.8526 12.3425 20.8597 12.3378 20.8651 12.3309C20.8705 12.3241 20.8745 12.3162 20.8796 12.3091C20.8848 12.302 20.8894 12.2946 20.8942 12.2873C20.899 12.28 20.9042 12.273 20.9087 12.2655C20.9132 12.258 20.9191 12.2513 20.9233 12.2437C20.9275 12.236 20.9303 12.226 20.9342 12.2182C20.9381 12.2104 20.9451 12.2044 20.9451 12.1964C20.9451 12.1884 20.956 12.1791 20.956 12.1709C20.956 12.1628 20.9633 12.1574 20.9633 12.1491C20.9633 12.1409 20.9742 12.132 20.9742 12.1237C20.9742 12.1153 20.9778 12.1067 20.9778 12.0982L20.9996 12.0982L20.9996 6.06912C20.9996 5.61491 20.7983 5.1818 20.4469 4.88366L17.8433 2.40366C17.8351 2.39594 17.8264 2.38918 17.8178 2.38185C17.8093 2.37451 17.8013 2.36695 17.7924 2.36003C17.7835 2.35311 17.7761 2.34833 17.7669 2.34185C17.7577 2.33536 17.7474 2.32971 17.7378 2.32366C17.7283 2.31762 17.7185 2.31107 17.7087 2.30548C17.6989 2.2999 17.6897 2.29242 17.6796 2.2873C17.6696 2.28219 17.6572 2.27739 17.6469 2.27276C17.6367 2.26812 17.6283 2.26599 17.6178 2.26185C17.6073 2.2577 17.5958 2.25458 17.5851 2.25094C17.5744 2.2473 17.5632 2.24003 17.5524 2.24003C17.5416 2.24003 17.5306 2.22912 17.5196 2.22912C17.5087 2.22912 17.498 2.22185 17.4869 2.22185C17.4758 2.22185 17.4653 2.21821 17.4542 2.21821C17.443 2.21821 17.4327 2.21457 17.4215 2.21457C17.4102 2.21457 17.3964 2.21094 17.3851 2.21094C17.3738 2.21094 17.3636 2.21094 17.3524 2.21094L7.01055 2.21094ZM18.0578 4.52366L6.3051 4.52366L7.29783 3.58185L17.0651 3.58185L18.0578 4.52366Z" stroke="rgba(3, 79, 161, 1)" stroke-width="0.2"      fill="#034FA1" ></path><path d="M15.3075 20.3709C15.5209 20.4869 15.761 20.5454 16.0002 20.5454C16.2393 20.5454 16.4795 20.4869 16.6929 20.3709L19.4893 18.8433C19.9171 18.6103 20.182 18.1755 20.182 17.7095L20.182 14.6542C20.182 14.1883 19.9161 13.7535 19.4893 13.5205L16.6918 11.9929C16.2651 11.7599 15.7342 11.7599 15.3075 11.9929L12.511 13.5205C12.0833 13.7535 11.8184 14.1883 11.8184 14.6542L11.8184 17.7095C11.8184 18.1755 12.0843 18.6103 12.511 18.8433L15.3075 20.3709ZM15.7703 12.7503C15.8414 12.7113 15.9208 12.6918 16.0002 12.6918C16.0795 12.6918 16.1589 12.7113 16.23 12.7503L19.0275 14.278C19.1698 14.355 19.2574 14.4993 19.2574 14.6542L19.2574 17.7095C19.2574 17.8645 19.1698 18.0088 19.0275 18.0858L16.23 19.6134C16.0878 19.6904 15.9126 19.6904 15.7703 19.6134L12.9728 18.0858C12.8306 18.0088 12.743 17.8645 12.743 17.7095L12.743 14.6542C12.743 14.4993 12.8306 14.355 12.9728 14.278L15.7703 12.7503ZM14.2429 15.651L15.6293 16.3394L15.6293 17.8958C15.6293 18.1596 15.8583 18.3745 16.1395 18.3745C16.4207 18.3745 16.6469 18.1585 16.6469 17.8958L16.6469 16.3619L17.9898 15.6853C18.2324 15.5524 18.3155 15.2597 18.1738 15.0321C18.0321 14.8045 17.7195 14.7299 17.4768 14.8628L16.1638 15.5134L14.7531 14.8232C14.5093 14.6914 14.1995 14.7691 14.0589 14.9978C13.9183 15.2264 13.9991 15.5191 14.2429 15.651Z" fill-rule="evenodd"  fill="#CC4E1D" ></path><path d="M13.5741 10.8354C13.7482 10.9895 14.0167 10.8506 13.9992 10.616L13.8634 8.78884C13.8634 8.78458 13.8605 8.77807 13.8605 8.77381C13.8605 8.76957 13.8605 8.76601 13.8605 8.76179C13.8605 8.75756 13.8575 8.75394 13.8575 8.74977C13.8575 8.74559 13.8546 8.74187 13.8546 8.73775C13.8546 8.73364 13.8516 8.7298 13.8516 8.72573C13.8516 8.72167 13.8457 8.7177 13.8457 8.71371C13.8457 8.70971 13.8427 8.7056 13.8427 8.70168C13.8427 8.69777 13.8368 8.69349 13.8368 8.68966C13.8368 8.68585 13.8309 8.68137 13.8309 8.67764C13.8309 8.67393 13.8221 8.66925 13.8221 8.66562C13.8221 8.662 13.8162 8.66012 13.8162 8.6566C13.8162 8.6531 13.8103 8.64795 13.8103 8.64458C13.8103 8.6412 13.8014 8.63882 13.8014 8.63557C13.8014 8.63231 13.7926 8.62966 13.7926 8.62655C13.7926 8.62345 13.7867 8.61754 13.7837 8.61754C13.7807 8.61754 13.778 8.60852 13.7749 8.60852C13.7717 8.60852 13.7693 8.5995 13.766 8.5995C13.7627 8.5995 13.7576 8.59349 13.7542 8.59349C13.7508 8.59349 13.7489 8.58448 13.7453 8.58448C13.7418 8.58448 13.7372 8.57847 13.7335 8.57847C13.7299 8.57847 13.7255 8.57246 13.7217 8.57246C13.718 8.57246 13.7137 8.56645 13.7099 8.56645C13.7061 8.56645 13.702 8.56344 13.6981 8.56344C13.6942 8.56344 13.6903 8.55743 13.6863 8.55743C13.6823 8.55743 13.6785 8.55443 13.6745 8.55443C13.6704 8.55443 13.6668 8.55142 13.6627 8.55142C13.6586 8.55142 13.655 8.54842 13.6509 8.54842C13.6467 8.54842 13.6432 8.54541 13.6391 8.54541C13.6349 8.54541 13.6314 8.54541 13.6273 8.54541C13.6231 8.54541 13.6167 8.54541 13.6125 8.54541C13.6083 8.54541 13.6049 8.54541 13.6007 8.54541C13.5965 8.54541 13.5931 8.54541 13.5889 8.54541L11.7942 8.66562C11.5644 8.68114 11.4697 8.97427 11.6437 9.12843L12.2134 9.63331L10.9235 11.2051L9.7487 9.38989C9.68059 9.28457 9.593 9.19964 9.48599 9.13745C9.38428 9.07833 9.27553 9.04391 9.15835 9.03527C9.04122 9.02659 8.92794 9.04584 8.8189 9.08936C8.70418 9.13517 8.60607 9.20551 8.52373 9.29973L6.13283 12.0345C6.12721 12.041 6.12043 12.0458 6.11512 12.0525C6.10981 12.0593 6.10533 12.0666 6.10036 12.0736C6.09539 12.0806 6.09023 12.0874 6.0856 12.0946C6.08097 12.1018 6.07807 12.1082 6.07379 12.1157C6.06952 12.1231 6.06296 12.1321 6.05903 12.1397C6.05511 12.1473 6.05371 12.1559 6.05018 12.1637C6.04664 12.1716 6.04154 12.1798 6.03837 12.1878C6.03521 12.1958 6.02952 12.2037 6.02952 12.2118C6.02952 12.22 6.02361 12.2276 6.02361 12.2359C6.02361 12.2441 6.01476 12.2515 6.01476 12.2599C6.01476 12.2683 6.01181 12.2755 6.01181 12.284C6.01181 12.2924 6.0059 12.3025 6.0059 12.311C6.0059 12.3195 6.00295 12.3295 6.00295 12.338C6.00295 12.3466 6.00295 12.3535 6.00295 12.3621C6.00295 12.3707 6 12.3805 6 12.3891C6 12.3977 6.00295 12.4046 6.00295 12.4132C6.00295 12.4218 6.00295 12.4317 6.00295 12.4402C6.00295 12.4488 6.00886 12.4558 6.00886 12.4643C6.00886 12.4728 6.01181 12.4829 6.01181 12.4913C6.01181 12.4997 6.01771 12.507 6.01771 12.5154C6.01771 12.5237 6.02361 12.5312 6.02361 12.5394C6.02361 12.5476 6.03247 12.5584 6.03247 12.5664C6.03247 12.5745 6.03801 12.5826 6.04132 12.5905C6.04463 12.5984 6.04945 12.6038 6.05313 12.6115C6.05681 12.6193 6.06089 12.628 6.06494 12.6356C6.06899 12.6431 6.07234 12.6493 6.07675 12.6566C6.08115 12.664 6.08674 12.6735 6.0915 12.6806C6.09627 12.6878 6.10116 12.6948 6.10626 12.7017C6.11136 12.7086 6.1156 12.7131 6.12102 12.7197C6.12643 12.7263 6.133 12.7344 6.13873 12.7408C6.14446 12.7471 6.1504 12.7528 6.15644 12.7588C6.16246 12.7648 6.16784 12.7711 6.17415 12.7768C6.18046 12.7825 6.18823 12.7865 6.19481 12.7918C6.2014 12.7972 6.2057 12.8048 6.21252 12.8099C6.21935 12.8149 6.22907 12.8172 6.23614 12.8219C6.24321 12.8266 6.2495 12.8326 6.2568 12.8369C6.26408 12.8413 6.26997 12.845 6.27746 12.8489C6.28495 12.8529 6.29339 12.8574 6.30108 12.861C6.30874 12.8646 6.31686 12.8668 6.32469 12.87C6.33254 12.8732 6.34031 12.879 6.3483 12.879C6.35629 12.879 6.3638 12.888 6.37192 12.888C6.38004 12.888 6.38732 12.894 6.39553 12.894C6.40375 12.894 6.41378 12.9 6.4221 12.9C6.43041 12.9 6.43733 12.903 6.44571 12.903C6.45409 12.903 6.46387 12.906 6.47228 12.906C6.4807 12.906 6.48745 12.909 6.49589 12.909C6.50433 12.909 6.51401 12.909 6.52246 12.909C6.53091 12.909 6.54058 12.909 6.54902 12.909C6.55746 12.909 6.56423 12.906 6.57264 12.906C6.58105 12.906 6.59086 12.903 6.5992 12.903C6.60755 12.903 6.61453 12.897 6.62281 12.897C6.6311 12.897 6.6412 12.891 6.64938 12.891C6.65756 12.891 6.66492 12.885 6.67299 12.885C6.68107 12.885 6.68868 12.876 6.69661 12.876C6.70453 12.876 6.71244 12.8704 6.72022 12.867C6.728 12.8636 6.73623 12.8617 6.74384 12.858C6.75144 12.8542 6.75707 12.8501 6.7645 12.8459C6.77191 12.8418 6.7809 12.8354 6.78811 12.8309C6.79533 12.8264 6.80178 12.8237 6.80877 12.8189C6.81576 12.8141 6.8227 12.8091 6.82944 12.8039C6.83618 12.7987 6.84361 12.7914 6.8501 12.7858C6.85657 12.7803 6.86159 12.7766 6.86781 12.7708C6.87402 12.765 6.87959 12.7589 6.88552 12.7528C6.89144 12.7466 6.89761 12.7382 6.90323 12.7317L9.07275 10.2524L10.2534 12.0796C10.3229 12.187 10.4125 12.2726 10.522 12.335C10.6261 12.3943 10.7392 12.4274 10.8585 12.4342C10.9779 12.4411 11.0911 12.4211 11.2009 12.3741C11.3167 12.3246 11.4153 12.2505 11.4961 12.1517L12.9926 10.3215L13.5741 10.8354Z" stroke="rgba(3, 79, 161, 1)" stroke-width="0.2"      fill="#034FA1" ></path></svg>