<svg xmlns="http://www.w3.org/2000/svg" xmlns:xlink="http://www.w3.org/1999/xlink" width="24" height="24" viewBox="0 0 24 24" fill="none"><path d="M3.43174 19.6469C3.42021 19.6469 3.4094 19.6469 3.39788 19.6469C3.38637 19.6469 3.3755 19.6435 3.36403 19.6435C3.35255 19.6435 3.34158 19.6401 3.33017 19.6401C3.31877 19.6401 3.30763 19.6334 3.29632 19.6334C3.28501 19.6334 3.27365 19.6266 3.26246 19.6266C3.25127 19.6266 3.23964 19.6164 3.2286 19.6164C3.21757 19.6164 3.20561 19.6102 3.19475 19.6063C3.18389 19.6024 3.17155 19.5972 3.16089 19.5927C3.15024 19.5883 3.14085 19.5841 3.13042 19.5792C3.12 19.5742 3.11012 19.5677 3.09995 19.5623C3.08978 19.5568 3.07937 19.5513 3.06948 19.5453C3.05959 19.5394 3.0486 19.5348 3.03901 19.5284C3.02943 19.522 3.02119 19.515 3.01193 19.5081C3.00267 19.5012 2.99376 19.4951 2.98484 19.4878C2.97593 19.4805 2.9663 19.4719 2.95776 19.4641C2.94921 19.4563 2.94221 19.4486 2.93406 19.4404C2.92591 19.4322 2.9181 19.4219 2.91036 19.4133C2.90262 19.4048 2.89398 19.3985 2.88666 19.3896C2.87935 19.3807 2.87322 19.3718 2.86635 19.3625C2.85948 19.3532 2.85244 19.3417 2.84603 19.332C2.83963 19.3224 2.83503 19.3149 2.82911 19.305C2.82318 19.295 2.81761 19.2847 2.81218 19.2745C2.80674 19.2643 2.80018 19.2545 2.79525 19.244C2.79032 19.2336 2.78612 19.2208 2.78171 19.2102C2.7773 19.1995 2.77205 19.1906 2.76817 19.1797C2.76428 19.1688 2.75801 19.1569 2.75801 19.1458C2.75801 19.1348 2.74785 19.1232 2.74785 19.112C2.74785 19.1008 2.74108 19.0895 2.74108 19.0781C2.74108 19.0668 2.73431 19.0557 2.73431 19.0443C2.73431 19.0328 2.73092 19.0219 2.73092 19.0104C2.73092 18.9989 2.72754 18.9881 2.72754 18.9766C2.72754 18.965 2.72754 18.9509 2.72754 18.9393L2.72754 4.41519C2.72754 4.38165 2.73092 4.34712 2.73092 4.31362C2.73092 4.28011 2.7377 4.24544 2.7377 4.21205C2.7377 4.17867 2.7463 4.14705 2.75124 4.11387C2.75618 4.08069 2.76161 4.04859 2.76817 4.01569C2.77473 3.98279 2.78032 3.95004 2.78848 3.91751C2.79664 3.88497 2.80582 3.85142 2.81556 3.81932C2.82531 3.78723 2.83812 3.75611 2.84942 3.72453C2.86072 3.69295 2.87044 3.66072 2.88328 3.62973C2.89611 3.59874 2.90957 3.56864 2.9239 3.53832C2.93823 3.508 2.9555 3.47649 2.9713 3.44691C2.9871 3.41733 3.00147 3.38766 3.0187 3.35889C3.03592 3.33012 3.05426 3.30214 3.07287 3.27425C3.09148 3.24635 3.11047 3.21993 3.13042 3.19299C3.15038 3.16605 3.17012 3.14106 3.19136 3.11512C3.21261 3.08919 3.23659 3.06211 3.25908 3.03726C3.28156 3.0124 3.30311 2.98988 3.32679 2.96616C3.35046 2.94244 3.37646 2.91759 3.40127 2.89506C3.42608 2.87253 3.44987 2.85202 3.47575 2.83074C3.50164 2.80945 3.53011 2.7864 3.55701 2.76641C3.5839 2.74642 3.61042 2.7275 3.63826 2.70885C3.6661 2.69021 3.69418 2.67194 3.7229 2.65469C3.75162 2.63743 3.7814 2.62311 3.81092 2.60729C3.84045 2.59146 3.86869 2.57425 3.89895 2.55989C3.92922 2.54553 3.95943 2.53212 3.99036 2.51926C4.02129 2.50641 4.05364 2.49673 4.08516 2.48541C4.11668 2.47408 4.14791 2.46131 4.17995 2.45155C4.21199 2.44179 4.24566 2.43264 4.27813 2.42447C4.31061 2.41629 4.34348 2.41072 4.37632 2.40415C4.40915 2.39758 4.44138 2.39218 4.4745 2.38722C4.50762 2.38227 4.53936 2.37368 4.57268 2.37368C4.606 2.37368 4.6408 2.36691 4.67425 2.36691C4.70768 2.36691 4.74234 2.36353 4.77582 2.36353L19.3 2.36354C19.3335 2.36354 19.3681 2.36693 19.4015 2.36693C19.435 2.36693 19.4698 2.3737 19.5031 2.3737C19.5364 2.3737 19.5682 2.38229 19.6013 2.38724C19.6344 2.39219 19.6666 2.39759 19.6995 2.40417C19.7323 2.41074 19.7651 2.4163 19.7976 2.42448C19.8301 2.43266 19.8638 2.44181 19.8958 2.45157C19.9279 2.46133 19.9591 2.4741 19.9906 2.48542C20.0221 2.49674 20.0545 2.50642 20.0854 2.51928C20.1163 2.53213 20.1466 2.54554 20.1768 2.5599C20.2071 2.57426 20.2353 2.59148 20.2648 2.6073C20.2944 2.62313 20.3242 2.63744 20.3529 2.6547C20.3816 2.67195 20.4097 2.69022 20.4375 2.70887C20.4654 2.72751 20.4919 2.74643 20.5188 2.76643C20.5457 2.78642 20.5742 2.80947 20.6 2.83075C20.6259 2.85204 20.6496 2.87255 20.6745 2.89508C20.6992 2.91761 20.7253 2.94245 20.749 2.96617C20.7725 2.9899 20.7941 3.01241 20.8167 3.03727C20.8391 3.06213 20.8632 3.08921 20.8844 3.11514C20.9057 3.14107 20.9254 3.16607 20.9453 3.19301C20.9654 3.21996 20.9843 3.24637 21.0029 3.27426C21.0215 3.30216 21.0398 3.33013 21.0571 3.3589C21.0743 3.38767 21.0886 3.41735 21.1045 3.44693C21.1204 3.47651 21.1375 3.50802 21.1519 3.53834C21.1662 3.56866 21.1797 3.59876 21.1925 3.62975C21.2053 3.66073 21.2151 3.69296 21.2264 3.72454C21.2376 3.75612 21.2504 3.78724 21.2602 3.81934C21.27 3.85143 21.2791 3.88498 21.2873 3.91752C21.2955 3.95006 21.3011 3.98281 21.3076 4.01571C21.3141 4.0486 21.3196 4.08071 21.3245 4.11389C21.3295 4.14707 21.3381 4.17868 21.3381 4.21206C21.3381 4.24545 21.3448 4.28013 21.3448 4.31364C21.3448 4.34714 21.3482 4.38166 21.3482 4.4152L21.3482 16.9723C21.3482 16.9839 21.3482 16.9946 21.3482 17.0062C21.3482 17.0177 21.3448 17.0285 21.3448 17.04C21.3448 17.0515 21.3415 17.0658 21.3415 17.0773C21.3415 17.0887 21.3347 17.0998 21.3347 17.1111C21.3347 17.1225 21.3279 17.1338 21.3279 17.145C21.3279 17.1562 21.3178 17.1644 21.3178 17.1755C21.3178 17.1865 21.3116 17.1984 21.3076 17.2093C21.3038 17.2202 21.2985 17.2325 21.2941 17.2432C21.2897 17.2538 21.2855 17.2632 21.2805 17.2736C21.2755 17.2841 21.2689 17.2939 21.2636 17.3041C21.258 17.3143 21.2526 17.3247 21.2467 17.3346C21.2407 17.3445 21.236 17.3554 21.2297 17.365C21.2234 17.3747 21.2163 17.3828 21.2094 17.3921C21.2025 17.4014 21.1964 17.4103 21.1891 17.4192C21.1816 17.4282 21.1731 17.4377 21.1654 17.4463C21.1576 17.4549 21.1499 17.4618 21.1417 17.47C21.1335 17.4782 21.1266 17.4859 21.118 17.4937C21.1094 17.5015 21.0999 17.5101 21.0909 17.5174C21.0821 17.5247 21.0732 17.5308 21.0638 17.5377C21.0545 17.5446 21.0463 17.5516 21.0368 17.558C21.0272 17.5644 21.016 17.5724 21.0063 17.5783C20.9963 17.5843 20.986 17.5898 20.9758 17.5953C20.9657 17.6007 20.9559 17.6039 20.9453 17.6088C20.9348 17.6137 20.9254 17.6213 20.9149 17.6257C20.9042 17.6302 20.8919 17.632 20.881 17.6359C20.8701 17.6398 20.8581 17.646 20.8472 17.646C20.8361 17.646 20.8244 17.6562 20.8133 17.6562C20.802 17.6562 20.7907 17.663 20.7795 17.663C20.7682 17.663 20.7571 17.6697 20.7456 17.6697C20.7343 17.6697 20.7232 17.6731 20.7117 17.6731C20.7003 17.6731 20.6894 17.6765 20.6779 17.6765C20.6662 17.6765 20.6555 17.6765 20.644 17.6765C20.6325 17.6765 20.6218 17.6765 20.6102 17.6765C20.5987 17.6765 20.5844 17.6731 20.5729 17.6731C20.5614 17.6731 20.5504 17.6697 20.5391 17.6697C20.5276 17.6697 20.5166 17.663 20.5052 17.663C20.4939 17.663 20.4826 17.6562 20.4714 17.6562C20.4602 17.6562 20.4486 17.646 20.4375 17.646C20.4265 17.646 20.4179 17.6398 20.407 17.6359C20.3962 17.632 20.3838 17.6302 20.3732 17.6257C20.3625 17.6213 20.3531 17.6137 20.3427 17.6088C20.3323 17.6039 20.3224 17.6007 20.3122 17.5953C20.3021 17.5898 20.2917 17.5843 20.2818 17.5783C20.2719 17.5724 20.2609 17.5644 20.2513 17.558C20.2417 17.5516 20.2335 17.5446 20.2242 17.5377C20.215 17.5308 20.2061 17.5247 20.1971 17.5174C20.1882 17.5101 20.1786 17.5015 20.17 17.4937C20.1615 17.4859 20.1545 17.4782 20.1464 17.47C20.1382 17.4618 20.1304 17.4549 20.1227 17.4463C20.1149 17.4377 20.1063 17.4282 20.0989 17.4192C20.0916 17.4103 20.0855 17.4014 20.0786 17.3921C20.0718 17.3828 20.0647 17.3747 20.0583 17.365C20.0519 17.3554 20.0439 17.3445 20.038 17.3346C20.0321 17.3247 20.0265 17.3143 20.0211 17.3041C20.0157 17.2939 20.0125 17.2841 20.0075 17.2736C20.0026 17.2632 19.9984 17.2538 19.994 17.2432C19.9896 17.2325 19.9843 17.2202 19.9805 17.2093C19.9766 17.1984 19.9703 17.1865 19.9703 17.1755C19.9703 17.1644 19.9601 17.1562 19.9601 17.145C19.9601 17.1338 19.9534 17.1225 19.9534 17.1111C19.9534 17.0998 19.9466 17.0887 19.9466 17.0773C19.9466 17.0658 19.9432 17.0515 19.9432 17.04C19.9432 17.0285 19.9398 17.0177 19.9398 17.0062C19.9398 16.9946 19.9398 16.9839 19.9398 16.9723L19.9398 4.4152C19.9398 4.40475 19.9398 4.39178 19.9398 4.38134C19.9398 4.37091 19.9364 4.36127 19.9364 4.35087C19.9364 4.34046 19.9331 4.33074 19.9331 4.32041C19.9331 4.31007 19.9263 4.30018 19.9263 4.28994C19.9263 4.27969 19.9195 4.2696 19.9195 4.25947C19.9195 4.24934 19.9127 4.239 19.9127 4.229C19.9127 4.219 19.9061 4.20836 19.9026 4.19853C19.8991 4.1887 19.893 4.18109 19.889 4.17144C19.885 4.16179 19.8833 4.15041 19.8789 4.14097C19.8744 4.13153 19.8669 4.1231 19.862 4.11389C19.857 4.10468 19.8538 4.09576 19.8484 4.0868C19.8431 4.07784 19.8373 4.06841 19.8315 4.05972C19.8257 4.05103 19.8208 4.04102 19.8146 4.03263C19.8083 4.02424 19.8009 4.017 19.7942 4.00893C19.7876 4.00085 19.7809 3.99298 19.7739 3.98524C19.7669 3.9775 19.761 3.96892 19.7536 3.96154C19.7463 3.95415 19.7376 3.94824 19.7299 3.94122C19.7222 3.93421 19.7143 3.92754 19.7062 3.92091C19.6982 3.91428 19.6909 3.90682 19.6825 3.9006C19.6742 3.89437 19.6641 3.88947 19.6554 3.88366C19.6468 3.87785 19.6373 3.87211 19.6283 3.86674C19.6194 3.86136 19.6105 3.85475 19.6013 3.84982C19.5921 3.84489 19.5836 3.84074 19.5742 3.83627C19.5648 3.8318 19.5533 3.82673 19.5437 3.82273C19.5341 3.81872 19.5264 3.8161 19.5166 3.81257C19.5068 3.80904 19.4961 3.80241 19.4862 3.80241C19.4762 3.80241 19.4658 3.79565 19.4557 3.79565C19.4456 3.79565 19.4355 3.78887 19.4252 3.78887C19.415 3.78887 19.4051 3.7821 19.3948 3.7821C19.3844 3.7821 19.3747 3.77871 19.3643 3.77871C19.3539 3.77871 19.3442 3.77533 19.3338 3.77533C19.3234 3.77533 19.3104 3.77533 19.3 3.77533L4.77582 3.77531C4.76538 3.77531 4.75237 3.77531 4.74196 3.77531C4.73155 3.77531 4.72186 3.7787 4.71149 3.7787C4.7011 3.7787 4.69134 3.78208 4.68102 3.78208C4.6707 3.78208 4.66077 3.78885 4.65055 3.78885C4.64032 3.78885 4.63019 3.79563 4.62008 3.79563C4.60996 3.79563 4.59958 3.8024 4.58961 3.8024C4.57963 3.8024 4.56895 3.80902 4.55914 3.81255C4.54932 3.81608 4.54168 3.8187 4.53205 3.82271C4.52242 3.82672 4.51101 3.83178 4.50158 3.83625C4.49216 3.84073 4.48369 3.84486 4.4745 3.84979C4.46531 3.85472 4.45636 3.86135 4.44741 3.86672C4.43847 3.8721 4.429 3.87784 4.42033 3.88365C4.41166 3.88946 4.40162 3.89435 4.39324 3.90058C4.38487 3.90681 4.37761 3.91426 4.36955 3.92089C4.36149 3.92752 4.35357 3.93419 4.34585 3.94121C4.33812 3.94822 4.32952 3.95413 4.32215 3.96152C4.31477 3.96891 4.30884 3.97748 4.30183 3.98522C4.29483 3.99296 4.28814 4.00084 4.28152 4.00892C4.2749 4.01699 4.26742 4.02423 4.26121 4.03262C4.25499 4.04101 4.25008 4.05102 4.24428 4.0597C4.23848 4.06839 4.23272 4.07783 4.22735 4.08679C4.22198 4.09574 4.21873 4.10466 4.21381 4.11387C4.20889 4.12308 4.20135 4.13151 4.19688 4.14095C4.19242 4.1504 4.19072 4.16178 4.18672 4.17142C4.18273 4.18107 4.17671 4.18868 4.17318 4.19851C4.16966 4.20834 4.16302 4.21899 4.16302 4.22898C4.16302 4.23898 4.15625 4.24932 4.15625 4.25945C4.15625 4.26958 4.14948 4.27967 4.14948 4.28992C4.14948 4.30016 4.14271 4.31005 4.14271 4.32039C4.14271 4.33073 4.13933 4.34045 4.13933 4.35086C4.13933 4.36125 4.13594 4.3709 4.13594 4.38133C4.13594 4.39176 4.13594 4.40474 4.13594 4.41519L4.13594 18.9393C4.13594 18.9509 4.13594 18.965 4.13594 18.9766C4.13594 18.9881 4.13256 18.9989 4.13256 19.0104C4.13256 19.0219 4.12917 19.0329 4.12917 19.0443C4.12917 19.0557 4.1224 19.0668 4.1224 19.0781C4.1224 19.0895 4.11563 19.1008 4.11563 19.112C4.11563 19.1232 4.10547 19.1348 4.10547 19.1458C4.10547 19.1569 4.0992 19.1688 4.09531 19.1797C4.09143 19.1906 4.08618 19.1995 4.08177 19.2102C4.07736 19.2208 4.07316 19.2336 4.06823 19.244C4.0633 19.2545 4.06012 19.2643 4.05469 19.2745C4.04925 19.2847 4.04369 19.295 4.03776 19.305C4.03183 19.3149 4.02385 19.3224 4.01745 19.332C4.01104 19.3417 4.004 19.3532 3.99713 19.3625C3.99026 19.3718 3.98413 19.3807 3.97682 19.3896C3.9695 19.3985 3.96086 19.4048 3.95312 19.4133C3.94537 19.4219 3.93757 19.4322 3.92942 19.4404C3.92126 19.4486 3.91426 19.4563 3.90572 19.4641C3.89718 19.4719 3.88755 19.4805 3.87864 19.4878C3.86972 19.4951 3.86081 19.5012 3.85155 19.5081C3.84229 19.515 3.83405 19.522 3.82447 19.5284C3.81488 19.5348 3.80389 19.5394 3.794 19.5453C3.78411 19.5513 3.7737 19.5568 3.76353 19.5623C3.75336 19.5677 3.74348 19.5742 3.73306 19.5792C3.72263 19.5841 3.71324 19.5883 3.70259 19.5927C3.69193 19.5972 3.67959 19.6024 3.66873 19.6063C3.65787 19.6102 3.64929 19.6164 3.63826 19.6164C3.62723 19.6164 3.61559 19.6266 3.6044 19.6266C3.59322 19.6266 3.58186 19.6334 3.57055 19.6334C3.55924 19.6334 3.5481 19.6401 3.53669 19.6401C3.52529 19.6401 3.51431 19.6435 3.50284 19.6435C3.49136 19.6435 3.47711 19.6469 3.4656 19.6469C3.45408 19.6469 3.44327 19.6469 3.43174 19.6469Z" stroke="rgba(3, 79, 161, 1)" stroke-width="0.1"      fill="#034FA1" ></path><path d="M20.644 22.0013L4.88077 22.0013C3.69413 22.0013 2.72754 21.0769 2.72754 19.9496L2.72754 18.3178C2.72754 17.1872 3.69413 16.2661 4.88077 16.2661L20.644 16.2661C20.6555 16.2661 20.6662 16.2661 20.6779 16.2661C20.6894 16.2661 20.7003 16.2695 20.7117 16.2695C20.7232 16.2695 20.7343 16.2729 20.7456 16.2729C20.7571 16.2729 20.7682 16.2797 20.7795 16.2797C20.7907 16.2797 20.802 16.2864 20.8133 16.2864C20.8244 16.2864 20.8361 16.2966 20.8472 16.2966C20.8581 16.2966 20.8701 16.3029 20.881 16.3067C20.8919 16.3106 20.9042 16.3159 20.9149 16.3203C20.9254 16.3247 20.9348 16.3289 20.9453 16.3338C20.9559 16.3388 20.9657 16.3453 20.9758 16.3508C20.986 16.3562 20.9963 16.3617 21.0063 16.3677C21.016 16.3736 21.0272 16.3782 21.0368 16.3846C21.0463 16.391 21.0545 16.398 21.0638 16.4049C21.0732 16.4118 21.0821 16.4179 21.0909 16.4252C21.0999 16.4326 21.1094 16.4412 21.118 16.4489C21.1266 16.4567 21.1335 16.4645 21.1417 16.4726C21.1499 16.4808 21.1576 16.4878 21.1654 16.4963C21.1731 16.5049 21.1816 16.5145 21.1891 16.5234C21.1964 16.5323 21.2025 16.5412 21.2094 16.5505C21.2163 16.5598 21.2234 16.5714 21.2297 16.581C21.236 16.5906 21.2407 16.5982 21.2467 16.6081C21.2526 16.618 21.258 16.6283 21.2636 16.6385C21.2689 16.6487 21.2755 16.6586 21.2805 16.669C21.2855 16.6794 21.2897 16.6922 21.2941 16.7029C21.2985 16.7135 21.3038 16.7224 21.3076 16.7333C21.3116 16.7442 21.3178 16.7561 21.3178 16.7672C21.3178 16.7782 21.3279 16.7898 21.3279 16.801C21.3279 16.8122 21.3347 16.8236 21.3347 16.8349C21.3347 16.8462 21.3415 16.8573 21.3415 16.8687C21.3415 16.8802 21.3448 16.8911 21.3448 16.9026C21.3448 16.9141 21.3482 16.9249 21.3482 16.9365C21.3482 16.948 21.3482 16.9621 21.3482 16.9737C21.3482 16.9853 21.3482 16.996 21.3482 17.0076C21.3482 17.0191 21.3448 17.0299 21.3448 17.0414C21.3448 17.0529 21.3415 17.0638 21.3415 17.0753C21.3415 17.0867 21.3347 17.0978 21.3347 17.1091C21.3347 17.1204 21.3279 17.1318 21.3279 17.143C21.3279 17.1542 21.3178 17.1658 21.3178 17.1768C21.3178 17.1879 21.3116 17.1998 21.3076 17.2107C21.3038 17.2216 21.2985 17.2305 21.2941 17.2412C21.2897 17.2518 21.2855 17.2646 21.2805 17.275C21.2755 17.2855 21.2689 17.2953 21.2636 17.3055C21.258 17.3157 21.2526 17.326 21.2467 17.336C21.2407 17.3459 21.236 17.3534 21.2297 17.363C21.2234 17.3727 21.2163 17.3842 21.2094 17.3935C21.2025 17.4028 21.1964 17.4117 21.1891 17.4206C21.1816 17.4295 21.1731 17.4391 21.1654 17.4477C21.1576 17.4562 21.1499 17.4632 21.1417 17.4714C21.1335 17.4795 21.1266 17.4873 21.118 17.4951C21.1094 17.5028 21.0999 17.5115 21.0909 17.5188C21.0821 17.5261 21.0732 17.5322 21.0638 17.5391C21.0545 17.546 21.0463 17.553 21.0368 17.5594C21.0272 17.5658 21.016 17.5704 21.0063 17.5763C20.9963 17.5823 20.986 17.5878 20.9758 17.5933C20.9657 17.5987 20.9559 17.6052 20.9453 17.6102C20.9348 17.6151 20.9254 17.6193 20.9149 17.6237C20.9042 17.6282 20.8919 17.6334 20.881 17.6373C20.8701 17.6412 20.8581 17.6474 20.8472 17.6474C20.8361 17.6474 20.8244 17.6576 20.8133 17.6576C20.802 17.6576 20.7907 17.6644 20.7795 17.6644C20.7682 17.6644 20.7571 17.6711 20.7456 17.6711C20.7343 17.6711 20.7232 17.6745 20.7117 17.6745C20.7003 17.6745 20.6894 17.6779 20.6779 17.6779C20.6662 17.6779 20.6555 17.6779 20.644 17.6779L4.88077 17.6779C4.47143 17.6779 4.13594 17.9659 4.13594 18.3178L4.13594 19.9496C4.13594 20.3015 4.47367 20.5895 4.88077 20.5895L20.644 20.5895C20.6555 20.5895 20.6662 20.5895 20.6779 20.5895C20.6894 20.5895 20.7003 20.5929 20.7117 20.5929C20.7232 20.5929 20.7343 20.5963 20.7456 20.5963C20.7571 20.5963 20.7682 20.603 20.7795 20.603C20.7907 20.603 20.802 20.6098 20.8133 20.6098C20.8244 20.6098 20.8361 20.62 20.8472 20.62C20.8581 20.62 20.8701 20.6262 20.881 20.6301C20.8919 20.634 20.9042 20.6359 20.9149 20.6403C20.9254 20.6447 20.9348 20.6523 20.9453 20.6572C20.9559 20.6622 20.9657 20.6653 20.9758 20.6708C20.986 20.6762 20.9963 20.6818 21.0063 20.6877C21.016 20.6936 21.0272 20.7016 21.0368 20.708C21.0463 20.7144 21.0545 20.7214 21.0638 20.7283C21.0732 20.7352 21.0821 20.7413 21.0909 20.7486C21.0999 20.7559 21.1094 20.7646 21.118 20.7723C21.1266 20.7801 21.1335 20.7879 21.1417 20.796C21.1499 20.8042 21.1576 20.8111 21.1654 20.8197C21.1731 20.8283 21.1816 20.8379 21.1891 20.8468C21.1964 20.8557 21.2025 20.8646 21.2094 20.8739C21.2163 20.8832 21.2234 20.8914 21.2297 20.901C21.236 20.9106 21.2407 20.9215 21.2467 20.9314C21.2526 20.9414 21.258 20.9517 21.2636 20.9619C21.2689 20.9721 21.2755 20.9819 21.2805 20.9924C21.2855 21.0028 21.2897 21.0122 21.2941 21.0229C21.2985 21.0335 21.3038 21.0458 21.3076 21.0567C21.3116 21.0676 21.3178 21.0795 21.3178 21.0906C21.3178 21.1016 21.3279 21.1098 21.3279 21.121C21.3279 21.1323 21.3347 21.1436 21.3347 21.1549C21.3347 21.1662 21.3415 21.1773 21.3415 21.1887C21.3415 21.2002 21.3448 21.2145 21.3448 21.226C21.3448 21.2375 21.3482 21.2483 21.3482 21.2598C21.3482 21.2714 21.3482 21.2822 21.3482 21.2937C21.3482 21.3053 21.3482 21.316 21.3482 21.3276C21.3482 21.3391 21.3448 21.3533 21.3448 21.3648C21.3448 21.3763 21.3415 21.3872 21.3415 21.3987C21.3415 21.4101 21.3347 21.4212 21.3347 21.4325C21.3347 21.4438 21.3279 21.4552 21.3279 21.4664C21.3279 21.4776 21.3178 21.4892 21.3178 21.5002C21.3178 21.5113 21.3116 21.5198 21.3076 21.5307C21.3038 21.5416 21.2985 21.5539 21.2941 21.5645C21.2897 21.5753 21.2855 21.5845 21.2805 21.595C21.2755 21.6054 21.2689 21.6153 21.2636 21.6255C21.258 21.6357 21.2526 21.6461 21.2467 21.656C21.2407 21.6659 21.236 21.6768 21.2297 21.6864C21.2234 21.696 21.2163 21.7042 21.2094 21.7135C21.2025 21.7227 21.1964 21.7316 21.1891 21.7406C21.1816 21.7496 21.1731 21.7591 21.1654 21.7677C21.1576 21.7763 21.1499 21.7866 21.1417 21.7948C21.1335 21.803 21.1266 21.8108 21.118 21.8185C21.1094 21.8263 21.0999 21.8315 21.0909 21.8388C21.0821 21.8462 21.0732 21.8556 21.0638 21.8625C21.0545 21.8692 21.0463 21.8729 21.0368 21.8794C21.0272 21.8858 21.016 21.8938 21.0063 21.8997C20.9963 21.9057 20.986 21.9113 20.9758 21.9166C20.9657 21.9221 20.9559 21.9286 20.9453 21.9336C20.9348 21.9384 20.9254 21.9426 20.9149 21.9471C20.9042 21.9515 20.8919 21.9533 20.881 21.9573C20.8701 21.9611 20.8581 21.9708 20.8472 21.9708C20.8361 21.9743 20.8244 21.9776 20.8133 21.9776C20.802 21.9776 20.7907 21.9877 20.7795 21.9877C20.7682 21.9877 20.7571 21.9911 20.7456 21.9911C20.7343 21.9911 20.7232 21.9979 20.7117 21.9979C20.7003 21.9979 20.6894 21.9979 20.6779 21.9979C20.6662 21.9979 20.6555 22.0013 20.644 22.0013Z" stroke="rgba(3, 79, 161, 1)" stroke-width="0.1"      fill="#034FA1" ></path><path d="M20.6341 19.8051L5.09092 19.8051C5.07938 19.8051 5.06859 19.8051 5.05706 19.8051C5.04555 19.8051 5.03469 19.8017 5.02321 19.8017C5.01174 19.8017 5.00076 19.7949 4.98935 19.7949C4.97794 19.7949 4.9668 19.7916 4.9555 19.7916C4.94418 19.7916 4.93282 19.7814 4.92164 19.7814C4.91045 19.7814 4.89882 19.7746 4.88778 19.7746C4.87676 19.7746 4.86479 19.765 4.85393 19.7611C4.84307 19.7572 4.83073 19.7554 4.82007 19.7509C4.80942 19.7465 4.80003 19.7423 4.7896 19.7374C4.77918 19.7325 4.7693 19.7259 4.75913 19.7205C4.74896 19.715 4.73855 19.7095 4.72866 19.7035C4.71877 19.6976 4.71117 19.6896 4.70158 19.6832C4.69199 19.6768 4.68037 19.6698 4.67111 19.6629C4.66184 19.656 4.65293 19.6533 4.64402 19.646C4.6351 19.6386 4.62887 19.63 4.62032 19.6223C4.61178 19.6145 4.60139 19.6034 4.59324 19.5952C4.58509 19.587 4.57728 19.58 4.56954 19.5715C4.5618 19.5629 4.55316 19.5567 4.54584 19.5478C4.53853 19.5389 4.5324 19.5266 4.52553 19.5173C4.51866 19.508 4.51162 19.4998 4.50521 19.4902C4.49881 19.4806 4.49421 19.4731 4.48829 19.4632C4.48236 19.4532 4.47679 19.4429 4.47136 19.4327C4.46592 19.4225 4.45936 19.4093 4.45443 19.3988C4.4495 19.3884 4.4453 19.379 4.44089 19.3684C4.43648 19.3577 4.43123 19.3454 4.42735 19.3345C4.42346 19.3236 4.41719 19.3117 4.41719 19.3006C4.41719 19.2896 4.41042 19.2814 4.41042 19.2702C4.41042 19.259 4.40026 19.2477 4.40026 19.2363C4.40026 19.225 4.39349 19.2139 4.39349 19.2025C4.39349 19.191 4.3901 19.1801 4.3901 19.1686C4.3901 19.1571 4.38672 19.1463 4.38672 19.1348C4.38672 19.1232 4.38672 19.1091 4.38672 19.0975C4.38672 19.0859 4.38672 19.0752 4.38672 19.0637C4.38672 19.0521 4.3901 19.0379 4.3901 19.0264C4.3901 19.0149 4.39349 19.004 4.39349 18.9926C4.39349 18.9811 4.40026 18.97 4.40026 18.9587C4.40026 18.9474 4.41042 18.936 4.41042 18.9248C4.41042 18.9136 4.41719 18.9021 4.41719 18.891C4.41719 18.8799 4.42346 18.8714 4.42735 18.8605C4.43123 18.8496 4.43648 18.8373 4.44089 18.8267C4.4453 18.816 4.4495 18.8066 4.45443 18.7962C4.45936 18.7857 4.46592 18.7759 4.47136 18.7657C4.47679 18.7555 4.48236 18.7452 4.48829 18.7353C4.49421 18.7253 4.49881 18.7144 4.50521 18.7048C4.51162 18.6952 4.51866 18.687 4.52553 18.6777C4.5324 18.6684 4.53853 18.6595 4.54584 18.6506C4.55316 18.6417 4.5618 18.6321 4.56954 18.6235C4.57728 18.615 4.58509 18.6046 4.59324 18.5964C4.60139 18.5883 4.61178 18.5839 4.62032 18.5761C4.62887 18.5684 4.6351 18.5598 4.64402 18.5524C4.65293 18.5451 4.66184 18.539 4.67111 18.5321C4.68037 18.5252 4.69199 18.5182 4.70158 18.5118C4.71117 18.5054 4.71877 18.4974 4.72866 18.4915C4.73855 18.4855 4.74896 18.48 4.75913 18.4746C4.7693 18.4691 4.77918 18.466 4.7896 18.461C4.80003 18.4561 4.80942 18.4519 4.82007 18.4475C4.83073 18.4431 4.84307 18.4378 4.85393 18.4339C4.86479 18.43 4.87676 18.4204 4.88778 18.4204C4.89882 18.4204 4.91045 18.4136 4.92164 18.4136C4.93282 18.4136 4.94418 18.4035 4.9555 18.4035C4.9668 18.4035 4.97794 18.4001 4.98935 18.4001C5.00076 18.4001 5.01174 18.3967 5.02321 18.3967C5.03469 18.3967 5.04555 18.3933 5.05706 18.3933C5.06859 18.3933 5.07938 18.3933 5.09092 18.3933L20.6341 18.3933C20.6457 18.3933 20.6565 18.3933 20.668 18.3933C20.6795 18.3933 20.6903 18.3967 20.7018 18.3967C20.7133 18.3967 20.7242 18.4001 20.7357 18.4001C20.747 18.4001 20.7582 18.4035 20.7695 18.4035C20.7808 18.4035 20.7922 18.4136 20.8034 18.4136C20.8146 18.4136 20.8263 18.4204 20.8372 18.4204C20.8484 18.4204 20.8603 18.4301 20.8711 18.434C20.8819 18.4379 20.891 18.4431 20.9016 18.4475C20.9123 18.4519 20.9251 18.4561 20.9354 18.461C20.9459 18.466 20.9557 18.4691 20.9659 18.4746C20.9761 18.48 20.9865 18.4856 20.9964 18.4915C21.0063 18.4974 21.0139 18.5054 21.0235 18.5118C21.033 18.5183 21.0447 18.5253 21.0539 18.5321C21.0632 18.539 21.0721 18.5451 21.081 18.5525C21.0899 18.5598 21.0962 18.5684 21.1047 18.5762C21.1133 18.5839 21.1236 18.5883 21.1318 18.5965C21.1398 18.6046 21.1477 18.615 21.1555 18.6236C21.1633 18.6321 21.1719 18.6417 21.1792 18.6506C21.1865 18.6596 21.1926 18.6684 21.1995 18.6777C21.2064 18.687 21.21 18.6952 21.2164 18.7048C21.2229 18.7144 21.2309 18.7254 21.2367 18.7353C21.2426 18.7452 21.2482 18.7556 21.2537 18.7657C21.2592 18.7759 21.2657 18.7858 21.2706 18.7962C21.2756 18.8067 21.2797 18.816 21.2841 18.8267C21.2885 18.8373 21.2937 18.8497 21.2977 18.8605C21.3015 18.8714 21.3078 18.8799 21.3078 18.891C21.3113 18.9021 21.3146 18.9137 21.3146 18.9249C21.3146 18.9361 21.3248 18.9474 21.3248 18.9587C21.3248 18.9701 21.3282 18.9811 21.3282 18.9926C21.3282 19.004 21.3349 19.0149 21.3349 19.0264C21.3349 19.0379 21.3383 19.0522 21.3383 19.0637C21.3383 19.0752 21.3383 19.086 21.3383 19.0975C21.3383 19.1091 21.3383 19.1232 21.3383 19.1348C21.3383 19.1463 21.3349 19.1571 21.3349 19.1686C21.3349 19.1801 21.3282 19.1911 21.3282 19.2025C21.3282 19.2139 21.3248 19.225 21.3248 19.2363C21.3248 19.2477 21.3146 19.259 21.3146 19.2702C21.3146 19.2814 21.3113 19.2896 21.3078 19.3007C21.3078 19.3117 21.3015 19.3237 21.2977 19.3345C21.2937 19.3454 21.2885 19.3577 21.2841 19.3684C21.2797 19.3791 21.2756 19.3884 21.2706 19.3989C21.2657 19.4093 21.2592 19.4225 21.2537 19.4327C21.2482 19.4429 21.2426 19.4533 21.2367 19.4632C21.2309 19.4731 21.2229 19.4806 21.2164 19.4903C21.21 19.4999 21.2064 19.5081 21.1995 19.5173C21.1926 19.5266 21.1865 19.5389 21.1792 19.5478C21.1719 19.5567 21.1633 19.5629 21.1555 19.5715C21.1477 19.5801 21.1398 19.587 21.1318 19.5952C21.1236 19.6034 21.1133 19.6145 21.1047 19.6223C21.0962 19.6301 21.0899 19.6387 21.081 19.646C21.0721 19.6533 21.0632 19.656 21.0539 19.6629C21.0447 19.6698 21.033 19.6768 21.0235 19.6832C21.0139 19.6897 21.0063 19.6976 20.9964 19.7036C20.9865 19.7095 20.9761 19.715 20.9659 19.7205C20.9557 19.7259 20.9459 19.7325 20.9354 19.7374C20.9251 19.7423 20.9123 19.7465 20.9016 19.751C20.891 19.7554 20.8819 19.7572 20.8711 19.7611C20.8603 19.765 20.8484 19.7746 20.8372 19.7746C20.8263 19.7746 20.8146 19.7814 20.8034 19.7814C20.7922 19.7814 20.7808 19.7916 20.7695 19.7916C20.7582 19.7916 20.747 19.795 20.7357 19.795C20.7242 19.795 20.7133 19.8017 20.7018 19.8017C20.6903 19.8017 20.6795 19.8051 20.668 19.8051C20.6565 19.8051 20.6457 19.8051 20.6341 19.8051Z" stroke="rgba(3, 79, 161, 1)" stroke-width="0.1"      fill="#034FA1" ></path><path d="M11.989 14.9881C11.7248 14.9881 11.4595 14.9205 11.2237 14.7862L8.13437 13.0185C7.66293 12.7489 7.36914 12.2458 7.36914 11.7066L7.36914 8.17123C7.36914 7.63202 7.66179 7.1289 8.13437 6.85929L11.2237 5.09161C11.6952 4.822 12.2816 4.822 12.753 5.09161L15.8436 6.85929C16.315 7.1289 16.6088 7.63202 16.6088 8.17123L16.6088 11.7066C16.6088 12.2458 16.3161 12.7489 15.8436 13.0185L12.7542 14.7862C12.5185 14.9205 12.2531 14.9881 11.989 14.9881ZM11.989 5.90043C11.9013 5.90043 11.8136 5.923 11.735 5.96812L8.64452 7.7358C8.48737 7.82492 8.39058 7.99187 8.39058 8.17123L8.39058 11.7066C8.39058 11.886 8.48737 12.0529 8.64452 12.142L11.735 13.9097C11.8922 13.9988 12.0858 13.9988 12.2429 13.9097L15.3334 12.142C15.4906 12.0529 15.5873 11.886 15.5873 11.7066L15.5873 8.17123C15.5873 7.99187 15.4906 7.82492 15.3334 7.7358L12.2429 5.96812C12.1643 5.923 12.0766 5.90043 11.989 5.90043Z"   fill="#CC4E1D" ></path><path d="M11.4775 10.2451L10.0851 9.51492C9.84026 9.37504 9.75911 9.06458 9.90032 8.82205C10.0415 8.57951 10.3527 8.49705 10.5975 8.63693L12.0142 9.36903L13.333 8.67895C13.5767 8.53794 13.8906 8.61708 14.033 8.85848C14.1753 9.09989 14.0918 9.41036 13.8482 9.55137L12.4995 10.269L12.4995 11.8961C12.4995 12.1747 12.2723 12.4038 11.9899 12.4038C11.7075 12.4038 11.4775 12.1758 11.4775 11.8961L11.4775 10.2451Z" fill-rule="evenodd"  fill="#CC4E1D" ></path></svg>