<svg xmlns="http://www.w3.org/2000/svg" xmlns:xlink="http://www.w3.org/1999/xlink" width="24" height="24" viewBox="0 0 24 24" fill="none"><path d="M15.549 1.81812C15.5374 1.81812 15.5278 1.81812 15.5162 1.81812L4.90896 1.81812L4.78532 1.82539C4.76586 1.82539 4.74649 1.83266 4.72714 1.83266C4.70778 1.83266 4.68815 1.83627 4.66896 1.83993C4.64975 1.84359 4.63344 1.84994 4.61441 1.85448C4.5954 1.85902 4.57503 1.86361 4.55623 1.86902C4.53744 1.87444 4.5202 1.88093 4.50169 1.88721C4.48316 1.89348 4.46534 1.89827 4.44714 1.90539C4.42892 1.91251 4.41045 1.91926 4.39259 1.92721C4.37472 1.93516 4.35552 1.9439 4.33805 1.95266C4.32056 1.96143 4.30419 1.97219 4.28714 1.98175C4.27008 1.99131 4.25283 2.00051 4.23623 2.01084C4.21963 2.02118 4.20141 2.03248 4.18532 2.04357C4.16921 2.05466 4.15362 2.06448 4.13805 2.0763C4.12247 2.08812 4.10942 2.10013 4.09441 2.11266C4.07939 2.12519 4.0652 2.13946 4.05078 2.15266C4.03635 2.16586 4.02093 2.1788 4.00714 2.19266C3.99334 2.20651 3.98029 2.22182 3.96714 2.2363C3.95399 2.25077 3.9396 2.26487 3.92714 2.27993C3.91468 2.295 3.90253 2.31158 3.89078 2.32721C3.87902 2.34283 3.86908 2.35833 3.85805 2.37448C3.84702 2.39062 3.83559 2.40511 3.82532 2.42175C3.81505 2.43839 3.80572 2.45557 3.79623 2.47266C3.78674 2.48975 3.77947 2.50605 3.77078 2.52357C3.76208 2.54108 3.7532 2.56022 3.74532 2.57812C3.73744 2.59601 3.73055 2.61442 3.7235 2.63266C3.71646 2.6509 3.70788 2.66866 3.70168 2.68721C3.69549 2.70575 3.68884 2.72294 3.6835 2.74175C3.67816 2.76056 3.67342 2.7809 3.66896 2.79993C3.66449 2.81897 3.65805 2.83889 3.65805 2.85812C3.65805 2.87734 3.64714 2.89693 3.64714 2.9163C3.64714 2.93566 3.63987 2.95501 3.63987 2.97448C3.63987 2.99395 3.63623 3.01313 3.63623 3.03266C3.63623 3.05219 3.63623 3.07129 3.63623 3.09084L3.63623 20.909L3.6435 21.0327C3.6435 21.0521 3.65078 21.0715 3.65078 21.0908C3.65078 21.1102 3.65439 21.1298 3.65805 21.149C3.66171 21.1682 3.66805 21.1845 3.67259 21.2036C3.67714 21.2226 3.68173 21.243 3.68714 21.2618C3.69255 21.2805 3.69905 21.2978 3.70532 21.3163C3.71159 21.3348 3.71638 21.3526 3.7235 21.3708C3.73062 21.3891 3.73737 21.4075 3.74532 21.4254C3.75327 21.4432 3.76201 21.4625 3.77078 21.4799C3.77954 21.4974 3.79031 21.5138 3.79987 21.5308C3.80943 21.5479 3.81862 21.5651 3.82896 21.5818C3.83929 21.5983 3.8506 21.6165 3.86169 21.6327C3.87278 21.6487 3.88259 21.6644 3.89441 21.6799C3.90623 21.6955 3.91826 21.7087 3.93078 21.7236C3.94331 21.7387 3.95757 21.7527 3.97078 21.7672C3.98398 21.7815 3.99692 21.7971 4.01078 21.8108C4.02463 21.8246 4.03995 21.8375 4.05441 21.8508C4.06889 21.864 4.08297 21.8783 4.09805 21.8908C4.11311 21.9034 4.12971 21.9155 4.14532 21.9272C4.16095 21.9389 4.17645 21.949 4.19259 21.9599C4.20874 21.9711 4.22323 21.9825 4.23987 21.9927C4.25651 22.0028 4.27369 22.0122 4.29078 22.0218C4.30786 22.0313 4.32417 22.0387 4.34168 22.0472C4.3592 22.0559 4.37833 22.0649 4.39623 22.0727C4.41413 22.0806 4.43253 22.0875 4.45078 22.0945C4.46901 22.1014 4.48677 22.1101 4.50532 22.1163C4.52387 22.1225 4.54105 22.1291 4.55987 22.1345C4.57868 22.1398 4.59901 22.1445 4.61805 22.149C4.63707 22.1534 4.657 22.1562 4.67623 22.1599C4.69545 22.1599 4.71504 22.1708 4.73441 22.1708C4.75378 22.1708 4.77313 22.1781 4.79259 22.1781C4.81207 22.1781 4.83125 22.1818 4.85078 22.1818C4.8703 22.1818 4.8894 22.1818 4.90896 22.1818L10.4217 22.1818L10.5235 22.1745C10.5363 22.1745 10.5472 22.1708 10.5599 22.1708C10.5725 22.1708 10.5873 22.1636 10.5999 22.1636C10.6124 22.1636 10.6238 22.1563 10.6362 22.1563C10.6487 22.1563 10.6603 22.1492 10.6726 22.1454C10.6849 22.1416 10.6969 22.1352 10.709 22.1308C10.7211 22.1265 10.7334 22.1213 10.7453 22.1163C10.7572 22.1115 10.77 22.1071 10.7817 22.1018C10.7934 22.0964 10.803 22.0932 10.8144 22.0872C10.8258 22.0812 10.8396 22.0717 10.8508 22.0654C10.8619 22.0588 10.8727 22.0542 10.8835 22.0472C10.8943 22.0403 10.9021 22.0327 10.9126 22.0254C10.9231 22.018 10.9352 22.0115 10.9453 22.0036C10.9554 21.9958 10.9646 21.9865 10.9744 21.9781C10.9842 21.9698 10.9941 21.9614 11.0035 21.9527C11.0129 21.9437 11.0236 21.9327 11.0326 21.9236C11.0416 21.9142 11.0495 21.9077 11.058 21.8981C11.0666 21.8886 11.0754 21.8792 11.0835 21.869C11.0916 21.8591 11.0977 21.8467 11.1053 21.8363C11.1129 21.826 11.12 21.8178 11.1271 21.8072C11.1343 21.7965 11.1423 21.7854 11.149 21.7745C11.1556 21.7635 11.161 21.7494 11.1671 21.7381C11.1733 21.7268 11.1797 21.7169 11.1853 21.7054C11.191 21.6939 11.1984 21.6808 11.2035 21.669C11.2086 21.6572 11.2135 21.6483 11.218 21.6363C11.2226 21.6243 11.2249 21.6121 11.229 21.5999C11.233 21.5877 11.2399 21.5723 11.2399 21.5599C11.2399 21.5476 11.2508 21.5361 11.2508 21.5236C11.2508 21.5111 11.258 21.4998 11.258 21.4872C11.258 21.4746 11.2653 21.4599 11.2653 21.4472C11.2653 21.4345 11.269 21.4236 11.269 21.4108C11.269 21.398 11.2726 21.3837 11.2726 21.3708C11.2726 21.358 11.2726 21.3473 11.2726 21.3345L11.2653 21.2327C11.2653 21.2199 11.2617 21.209 11.2617 21.1963C11.2617 21.1836 11.2544 21.1689 11.2544 21.1563C11.2544 21.1437 11.2435 21.1324 11.2435 21.1199C11.2435 21.1075 11.2364 21.0958 11.2326 21.0836C11.2288 21.0713 11.226 21.0593 11.2217 21.0472C11.2174 21.0351 11.212 21.0227 11.2071 21.0108C11.2023 20.999 11.198 20.9861 11.1926 20.9745C11.1872 20.9628 11.1803 20.9532 11.1744 20.9418C11.1685 20.9304 11.1627 20.9201 11.1562 20.909C11.1498 20.8979 11.145 20.8871 11.138 20.8763C11.1311 20.8655 11.1236 20.854 11.1162 20.8436C11.1088 20.8331 11.0987 20.821 11.0908 20.8108C11.0829 20.8007 11.0773 20.7915 11.069 20.7818C11.0606 20.772 11.0523 20.762 11.0435 20.7527C11.0347 20.7433 11.0236 20.7362 11.0144 20.7272C11.0052 20.7182 10.9986 20.7066 10.989 20.6981C10.9794 20.6896 10.9662 20.6844 10.9562 20.6763C10.9463 20.6682 10.9374 20.6585 10.9271 20.6508C10.9168 20.6432 10.9051 20.6362 10.8944 20.629C10.8837 20.6219 10.8763 20.6139 10.8653 20.6072C10.8544 20.6005 10.8402 20.5952 10.829 20.589C10.8177 20.5829 10.8078 20.5765 10.7962 20.5708C10.7847 20.5652 10.7716 20.5614 10.7599 20.5563C10.7481 20.5512 10.7391 20.5463 10.7271 20.5418C10.7152 20.5372 10.703 20.5312 10.6908 20.5272C10.6786 20.5232 10.6631 20.5163 10.6508 20.5163C10.6384 20.5163 10.6269 20.5054 10.6144 20.5054C10.6019 20.5054 10.5907 20.4981 10.578 20.4981C10.5654 20.4981 10.5508 20.4945 10.538 20.4945C10.5253 20.4945 10.5145 20.4872 10.5017 20.4872C10.4889 20.4872 10.4745 20.4872 10.4617 20.4872C10.4488 20.4872 10.4382 20.4836 10.4253 20.4836L5.33441 20.4836L5.33441 3.5163L13.818 3.5163L13.818 7.33448L13.8253 7.45448C13.8253 7.47394 13.8326 7.49332 13.8326 7.51266C13.8326 7.53201 13.8362 7.55164 13.8399 7.57084C13.8435 7.59007 13.8499 7.61003 13.8544 7.62902C13.859 7.64805 13.8635 7.66841 13.869 7.68721C13.8744 7.706 13.8809 7.72325 13.8871 7.74175C13.8934 7.76028 13.8982 7.77806 13.9053 7.7963C13.9124 7.81451 13.9192 7.83298 13.9271 7.85084C13.9351 7.86868 13.9438 7.8879 13.9526 7.90539C13.9614 7.92287 13.9721 7.93922 13.9817 7.9563C13.9912 7.97334 14.0004 7.9906 14.0108 8.00721C14.0211 8.02382 14.0324 8.03836 14.0435 8.05448C14.0546 8.07059 14.0644 8.08619 14.0762 8.10175C14.088 8.11732 14.1001 8.13401 14.1126 8.14902C14.1251 8.16404 14.1394 8.17826 14.1526 8.19266C14.1658 8.20709 14.1787 8.22251 14.1926 8.2363C14.2064 8.25009 14.2217 8.26315 14.2362 8.2763C14.2507 8.28945 14.2648 8.30018 14.2799 8.31266C14.2949 8.32511 14.3115 8.33727 14.3271 8.34902C14.3428 8.36078 14.3583 8.37436 14.3744 8.38539C14.3906 8.39641 14.405 8.40421 14.4217 8.41448C14.4383 8.42475 14.4555 8.43772 14.4726 8.44721C14.4897 8.45669 14.506 8.46396 14.5235 8.47266C14.541 8.48133 14.5602 8.49023 14.578 8.49812C14.5959 8.506 14.6144 8.51289 14.6326 8.51993C14.6508 8.527 14.6686 8.53553 14.6871 8.54175C14.7057 8.54792 14.7229 8.55094 14.7417 8.5563C14.7605 8.56165 14.7808 8.56639 14.7999 8.57084C14.8189 8.57532 14.8388 8.58539 14.858 8.58539C14.8772 8.58539 14.8969 8.59266 14.9162 8.59266C14.9356 8.59266 14.955 8.59993 14.9744 8.59993C14.9939 8.59993 15.0131 8.60357 15.0326 8.60357C15.0521 8.60357 15.0712 8.60721 15.0908 8.60721L18.909 8.60721L18.909 11.1527L18.9162 11.2508C18.9162 11.2641 18.9199 11.2777 18.9199 11.2908C18.9199 11.304 18.9271 11.3178 18.9271 11.3308C18.9271 11.3439 18.938 11.3543 18.938 11.3672C18.938 11.3801 18.9449 11.3945 18.949 11.4072C18.953 11.4199 18.9588 11.431 18.9635 11.4436C18.9681 11.4561 18.9728 11.4713 18.978 11.4836C18.9833 11.4959 18.9868 11.5079 18.9926 11.5199C18.9984 11.532 19.0044 11.5409 19.0108 11.5527C19.0171 11.5644 19.0257 11.5776 19.0326 11.589C19.0395 11.6005 19.047 11.6107 19.0544 11.6218C19.0619 11.6329 19.0683 11.6437 19.0762 11.6545C19.0842 11.6652 19.0932 11.6768 19.1017 11.6872C19.1101 11.6975 19.1182 11.7064 19.1271 11.7163C19.136 11.7262 19.1432 11.7359 19.1526 11.7454C19.162 11.7549 19.1719 11.7654 19.1817 11.7745C19.1915 11.7835 19.2042 11.7914 19.2144 11.7999C19.2247 11.8085 19.2329 11.8173 19.2435 11.8254C19.2541 11.8335 19.2652 11.8432 19.2762 11.8508C19.2872 11.8584 19.2976 11.8656 19.309 11.8727C19.3203 11.8797 19.3337 11.8843 19.3453 11.8908C19.357 11.8973 19.3697 11.9031 19.3817 11.909C19.3936 11.915 19.4058 11.9218 19.418 11.9272C19.4303 11.9326 19.4419 11.937 19.4544 11.9418C19.4668 11.9465 19.4781 11.9521 19.4908 11.9563C19.5035 11.9605 19.5179 11.9672 19.5308 11.9672C19.5436 11.9672 19.5541 11.9781 19.5671 11.9781C19.5801 11.9781 19.594 11.9854 19.6071 11.9854C19.6203 11.9854 19.6339 11.9927 19.6471 11.9927C19.6604 11.9927 19.6738 11.9963 19.6871 11.9963C19.7005 11.9963 19.7138 11.9999 19.7271 11.9999C19.7405 11.9999 19.7538 11.9999 19.7671 11.9999C19.7805 11.9999 19.7938 11.9963 19.8071 11.9963C19.8205 11.9963 19.8338 11.9927 19.8471 11.9927C19.8604 11.9927 19.8739 11.989 19.8871 11.989C19.9003 11.989 19.914 11.9818 19.9271 11.9818C19.9402 11.9818 19.9506 11.9745 19.9635 11.9745C19.9764 11.9745 19.9907 11.9674 20.0035 11.9636C20.0163 11.9597 20.0309 11.9535 20.0435 11.949C20.0561 11.9445 20.0675 11.9395 20.0799 11.9345C20.0922 11.9294 20.1041 11.9256 20.1162 11.9199C20.1283 11.9143 20.1408 11.9079 20.1526 11.9018C20.1644 11.8955 20.1738 11.8903 20.1853 11.8836C20.1968 11.8768 20.2105 11.869 20.2217 11.8618C20.2329 11.8544 20.2436 11.8478 20.2544 11.8399C20.2652 11.8321 20.2767 11.8228 20.2871 11.8145C20.2976 11.8062 20.3062 11.7978 20.3162 11.789C20.3263 11.7802 20.3357 11.7692 20.3453 11.7599C20.3549 11.7507 20.3652 11.7442 20.3744 11.7345C20.3836 11.7248 20.3911 11.7119 20.3999 11.7018C20.4086 11.6916 20.4171 11.6832 20.4253 11.6727C20.4335 11.6621 20.4431 11.6509 20.4508 11.6399C20.4585 11.629 20.4654 11.6185 20.4726 11.6072C20.4798 11.5959 20.4878 11.5824 20.4944 11.5708C20.501 11.5592 20.5065 11.55 20.5126 11.5381C20.5187 11.5262 20.5252 11.5139 20.5308 11.5018C20.5363 11.4896 20.5404 11.4778 20.5453 11.4654C20.5503 11.453 20.5555 11.438 20.5599 11.4254C20.5642 11.4128 20.567 11.4019 20.5708 11.389C20.5745 11.3762 20.5817 11.362 20.5817 11.349C20.5817 11.336 20.589 11.3221 20.589 11.309C20.589 11.2959 20.5962 11.2859 20.5962 11.2727C20.5962 11.2594 20.6035 11.246 20.6035 11.2327C20.6035 11.2194 20.6035 11.206 20.6035 11.1927C20.6035 11.1793 20.6071 11.166 20.6071 11.1527L20.6071 7.08357L20.5999 6.95993C20.5999 6.94181 20.5926 6.92342 20.5926 6.90539C20.5926 6.88735 20.5853 6.86873 20.5853 6.85084C20.5853 6.83292 20.5785 6.81401 20.5744 6.7963C20.5703 6.77852 20.5647 6.76296 20.5599 6.74539C20.555 6.72785 20.5509 6.70818 20.5453 6.69084C20.5397 6.67353 20.5335 6.65701 20.5271 6.63993C20.5208 6.62283 20.5124 6.60581 20.5053 6.58902C20.4982 6.57224 20.4913 6.55822 20.4835 6.54175C20.4757 6.52529 20.4665 6.50696 20.458 6.49084C20.4496 6.47473 20.4418 6.45928 20.4326 6.44357C20.4234 6.42783 20.4133 6.41163 20.4035 6.3963C20.3936 6.38097 20.3849 6.36756 20.3744 6.35266C20.3639 6.33777 20.3528 6.32342 20.3417 6.30902C20.3306 6.2946 20.3207 6.27935 20.309 6.26539C20.2972 6.25145 20.2849 6.23883 20.2726 6.22539C20.2603 6.21198 20.2455 6.19825 20.2326 6.18539L16.1162 2.06539L16.0326 1.99266C16.0234 1.98564 16.0129 1.97749 16.0035 1.97084C15.994 1.9642 15.9841 1.95891 15.9744 1.95266C15.9647 1.94641 15.9553 1.94033 15.9453 1.93448C15.9353 1.92863 15.9264 1.92174 15.9162 1.9163C15.906 1.91086 15.8939 1.90677 15.8835 1.90175C15.8731 1.89673 15.8614 1.89179 15.8508 1.88721C15.8402 1.88262 15.8325 1.88045 15.8217 1.8763C15.8109 1.87215 15.7999 1.86546 15.789 1.86175C15.778 1.85804 15.7636 1.85084 15.7526 1.85084C15.7415 1.85084 15.731 1.84357 15.7199 1.84357C15.7086 1.84357 15.6984 1.8363 15.6871 1.8363C15.6758 1.8363 15.6658 1.82902 15.6544 1.82902C15.643 1.82902 15.6295 1.82539 15.618 1.82539C15.6066 1.82539 15.5968 1.82175 15.5853 1.82175C15.5738 1.82175 15.5605 1.81812 15.549 1.81812ZM15.5162 3.86902L18.5599 6.90902L15.5162 6.90902L15.5162 3.86902Z" fill-rule="evenodd"  fill="#034FA1" ></path><path d="M9.81372 5.81812C10.2162 5.81812 10.5509 6.12844 10.5835 6.52972L10.5835 7.95742L12.0157 7.95742C12.0276 7.95742 12.0515 7.96189 12.0515 7.96189C12.0634 7.96189 12.0755 7.96637 12.0873 7.96637C12.0991 7.96637 12.1186 7.97084 12.1186 7.97084C12.1303 7.97084 12.1589 7.98427 12.1589 7.98427C12.1704 7.98427 12.1788 7.99322 12.1902 7.99322C12.2016 7.99322 12.2305 8.00217 12.2305 8.00217C12.2417 8.00217 12.2508 8.0156 12.2618 8.0156C12.2728 8.0156 12.2824 8.02902 12.2932 8.02902C12.3039 8.02902 12.314 8.04119 12.3245 8.04693C12.335 8.05267 12.3456 8.05859 12.3558 8.06483C12.366 8.07102 12.3772 8.08049 12.3871 8.08721C12.3971 8.0939 12.4044 8.09797 12.414 8.10511C12.4236 8.11225 12.436 8.1199 12.4453 8.12749C12.4546 8.13508 12.4633 8.14185 12.4722 8.14986C12.4811 8.15788 12.4905 8.16831 12.499 8.17672C12.5075 8.18513 12.5133 8.19029 12.5214 8.19909C12.5295 8.2079 12.5405 8.21674 12.5483 8.22595C12.556 8.2351 12.5633 8.24776 12.5706 8.25728C12.5779 8.2668 12.5862 8.27426 12.593 8.28413C12.5998 8.29397 12.6001 8.30978 12.6064 8.31993C12.6128 8.33009 12.6229 8.33631 12.6288 8.34679C12.6347 8.35723 12.6467 8.3674 12.6467 8.37811C12.6467 8.38883 12.6601 8.39849 12.6601 8.40944C12.6601 8.42039 12.6736 8.42961 12.6736 8.44077C12.6736 8.45193 12.6825 8.4652 12.6825 8.47658C12.6825 8.48792 12.696 8.50085 12.696 8.51238C12.696 8.52389 12.7049 8.53202 12.7049 8.54371C12.7049 8.55535 12.7094 8.57219 12.7094 8.58399C12.7094 8.59579 12.7228 8.60344 12.7228 8.61532C12.7228 8.62717 12.7228 8.64364 12.7228 8.6556C12.7228 8.66753 12.7273 8.67495 12.7273 8.68693C12.7273 8.69891 12.7273 8.71075 12.7273 8.72273C12.7273 8.73471 12.7273 8.751 12.7273 8.76301C12.7273 8.77496 12.7228 8.78238 12.7228 8.79434C12.7228 8.80627 12.7228 8.82274 12.7228 8.83462C12.7228 8.84647 12.7094 8.85415 12.7094 8.86595C12.7094 8.87774 12.7049 8.89009 12.7049 8.90175C12.7049 8.91341 12.696 8.92602 12.696 8.93756C12.696 8.94909 12.6825 8.96199 12.6825 8.97336C12.6825 8.98471 12.6736 8.99353 12.6736 9.00469C12.6736 9.01585 12.6601 9.02954 12.6601 9.04049C12.6601 9.05144 12.6467 9.06108 12.6467 9.07182C12.6467 9.08251 12.6347 9.09268 12.6288 9.10315C12.6229 9.11357 12.6128 9.1243 12.6064 9.13448C12.6001 9.14463 12.5998 9.15147 12.593 9.16133C12.5862 9.17117 12.5779 9.18759 12.5706 9.19714C12.5633 9.20666 12.556 9.21481 12.5483 9.22399C12.5405 9.23317 12.5295 9.24203 12.5214 9.25084C12.5133 9.25965 12.5075 9.26926 12.499 9.2777C12.4905 9.28611 12.4811 9.29203 12.4722 9.30007C12.4633 9.30806 12.4546 9.31483 12.4453 9.32245C12.436 9.33002 12.4236 9.33319 12.414 9.34035C12.4044 9.34749 12.3971 9.35601 12.3871 9.36273C12.3772 9.3694 12.366 9.37887 12.3558 9.38511C12.3456 9.39132 12.335 9.39724 12.3245 9.40301C12.314 9.40872 12.3039 9.41644 12.2932 9.41644C12.2824 9.41644 12.2728 9.43434 12.2618 9.43434C12.2508 9.43434 12.2417 9.44329 12.2305 9.44329C12.2193 9.44329 12.2016 9.46119 12.1902 9.46119C12.1788 9.46119 12.1704 9.47014 12.1589 9.47014C12.1473 9.47014 12.1303 9.47909 12.1186 9.47909C12.1069 9.47909 12.0991 9.48357 12.0873 9.48357C12.0755 9.48357 12.0634 9.48804 12.0515 9.48804C12.0396 9.48804 12.0276 9.49252 12.0157 9.49252L10.5835 9.49252L10.5835 10.9247C10.5835 10.9366 10.5835 10.9486 10.5835 10.9605C10.5835 10.9724 10.579 10.9845 10.579 10.9963C10.579 11.0081 10.5701 11.0159 10.5701 11.0276C10.5701 11.0393 10.5611 11.0563 10.5611 11.0679C10.5611 11.0795 10.5522 11.0878 10.5522 11.0992C10.5522 11.1106 10.5432 11.1193 10.5432 11.1306C10.5432 11.1418 10.5253 11.1553 10.5253 11.1664C10.5253 11.1774 10.5164 11.1869 10.5164 11.1977C10.5164 11.2085 10.5042 11.2185 10.4985 11.229C10.4927 11.2395 10.4823 11.2546 10.4761 11.2648C10.4699 11.2751 10.4649 11.2862 10.4582 11.2962C10.4515 11.3061 10.4474 11.3134 10.4403 11.323C10.4331 11.3326 10.4255 11.3406 10.4179 11.3499C10.4103 11.3591 10.3991 11.3678 10.3911 11.3767C10.383 11.3856 10.3771 11.395 10.3687 11.4036C10.3603 11.4121 10.3506 11.4223 10.3418 11.4304C10.333 11.4385 10.3241 11.4451 10.315 11.4528C10.3058 11.4605 10.2976 11.4679 10.2881 11.4752C10.2786 11.4825 10.2711 11.4907 10.2613 11.4976C10.2514 11.5044 10.2356 11.5091 10.2255 11.5155C10.2153 11.5218 10.2046 11.5275 10.1941 11.5334C10.1837 11.5392 10.1735 11.5513 10.1628 11.5513C10.1521 11.5513 10.1424 11.5647 10.1315 11.5647C10.1205 11.5647 10.1068 11.5826 10.0957 11.5826C10.0845 11.5826 10.0757 11.5915 10.0643 11.5915C10.053 11.5915 10.0445 11.605 10.033 11.605C10.0215 11.605 10.0044 11.6139 9.99274 11.6139C9.98105 11.6139 9.97318 11.6184 9.96141 11.6184C9.94964 11.6184 9.93745 11.6273 9.9256 11.6273C9.9137 11.6273 9.90173 11.6318 9.8898 11.6318C9.87787 11.6318 9.86595 11.6318 9.854 11.6318C9.84202 11.6318 9.8257 11.6363 9.81372 11.6363C9.80171 11.6363 9.79434 11.6318 9.78239 11.6318C9.77041 11.6318 9.75851 11.6318 9.74658 11.6318C9.73466 11.6318 9.72263 11.6273 9.71078 11.6273C9.69888 11.6273 9.68674 11.6184 9.67497 11.6184C9.66321 11.6184 9.65531 11.6139 9.64365 11.6139C9.63198 11.6139 9.6149 11.605 9.60337 11.605C9.59184 11.605 9.58338 11.5915 9.57204 11.5915C9.56069 11.5915 9.55187 11.5826 9.54071 11.5826C9.52955 11.5826 9.51138 11.5647 9.50043 11.5647C9.48948 11.5647 9.47979 11.5513 9.4691 11.5513C9.45836 11.5513 9.45267 11.5392 9.44225 11.5334C9.43177 11.5275 9.42107 11.5218 9.41092 11.5155C9.40074 11.5091 9.38495 11.5044 9.37511 11.4976C9.36525 11.4907 9.35778 11.4825 9.34826 11.4752C9.33874 11.4679 9.33059 11.4605 9.32141 11.4528C9.31223 11.4451 9.30336 11.4385 9.29456 11.4304C9.28575 11.4223 9.27611 11.4121 9.2677 11.4036C9.25927 11.395 9.24886 11.3856 9.24085 11.3767C9.23281 11.3678 9.22606 11.3591 9.21847 11.3499C9.21085 11.3406 9.20323 11.3326 9.19609 11.323C9.18893 11.3134 9.18488 11.3061 9.17819 11.2962C9.17147 11.2862 9.1665 11.2751 9.16029 11.2648C9.15405 11.2546 9.14365 11.2395 9.13791 11.229C9.13215 11.2185 9.12001 11.2085 9.12001 11.1977C9.12001 11.1869 9.10658 11.1774 9.10658 11.1664C9.10658 11.1553 9.09316 11.1418 9.09316 11.1306C9.09316 11.1193 9.08421 11.1106 9.08421 11.0992C9.08421 11.0878 9.07525 11.0795 9.07525 11.0679C9.07525 11.0563 9.06183 11.0393 9.06183 11.0276C9.06183 11.0159 9.05735 11.0081 9.05735 10.9963C9.05735 10.9845 9.05288 10.9724 9.05288 10.9605C9.05288 10.9486 9.0484 10.9366 9.0484 10.9247L9.0484 9.49252L7.62072 9.49252C7.60876 9.49252 7.59238 9.48805 7.58051 9.48805C7.56861 9.48805 7.56105 9.48357 7.54926 9.48357C7.53744 9.48357 7.52052 9.47909 7.50883 9.47909C7.49714 9.47909 7.48914 9.47015 7.47758 9.47015C7.46602 9.47015 7.45773 9.4612 7.44633 9.4612C7.43491 9.4612 7.41714 9.4433 7.4059 9.4433C7.39469 9.4433 7.38565 9.43434 7.37465 9.43434C7.36365 9.43434 7.35419 9.41644 7.3434 9.41644C7.33261 9.41644 7.32246 9.40873 7.31193 9.40302C7.30141 9.39725 7.28633 9.39133 7.27609 9.38511C7.26583 9.37887 7.25916 9.3694 7.24921 9.36274C7.23924 9.35602 7.22756 9.34749 7.21796 9.34035C7.20834 9.33319 7.20037 9.33001 7.19109 9.32245C7.1818 9.31483 7.17309 9.30806 7.16421 9.30008C7.15529 9.29204 7.14584 9.28611 7.13733 9.2777C7.12878 9.26927 7.12316 9.25963 7.11504 9.25085C7.10692 9.24202 7.09588 9.23316 7.08816 9.22399C7.08046 9.21481 7.07314 9.20665 7.06587 9.19713C7.05857 9.18759 7.05018 9.17117 7.04336 9.16133C7.03653 9.15147 7.03638 9.14464 7.03003 9.13448C7.02365 9.1243 7.01361 9.11357 7.00774 9.10315C7.00184 9.09268 6.98982 9.0825 6.98982 9.07182C6.98982 9.06108 6.97627 9.05145 6.97627 9.0405C6.97627 9.02955 6.96294 9.01585 6.96294 9.00469C6.96294 8.99353 6.94502 8.9847 6.94502 8.97336C6.94502 8.96198 6.93606 8.94909 6.93606 8.93756C6.93606 8.92603 6.93147 8.91342 6.93147 8.90176C6.93147 8.8901 6.91814 8.87774 6.91814 8.86595C6.91814 8.85415 6.91355 8.84647 6.91355 8.83462C6.91355 8.82274 6.90918 8.80627 6.90918 8.79434C6.90918 8.78238 6.90918 8.77496 6.90918 8.76301C6.90918 8.751 6.90918 8.73471 6.90918 8.72273C6.90918 8.71075 6.90918 8.69891 6.90918 8.68693C6.90918 8.67495 6.90918 8.66753 6.90918 8.6556C6.90918 8.64364 6.91355 8.62717 6.91355 8.61532C6.91355 8.60345 6.91814 8.59578 6.91814 8.58399C6.91814 8.57219 6.93147 8.55535 6.93147 8.54371C6.93147 8.53202 6.93606 8.52388 6.93606 8.51238C6.93606 8.50085 6.94502 8.48793 6.94502 8.47658C6.94502 8.46521 6.96294 8.45193 6.96294 8.44077C6.96294 8.42961 6.97627 8.4204 6.97627 8.40945C6.97627 8.3985 6.98982 8.38883 6.98982 8.37812C6.98982 8.36741 7.00187 8.35723 7.00774 8.34679C7.01364 8.33631 7.02365 8.33009 7.03003 8.31993C7.03638 8.30978 7.03653 8.29397 7.04336 8.28414C7.05018 8.27427 7.05857 8.26681 7.06587 8.25728C7.07314 8.24776 7.08046 8.2351 7.08816 8.22595C7.09588 8.21675 7.10692 8.20791 7.11504 8.1991C7.12316 8.19029 7.12878 8.18512 7.13733 8.17671C7.14584 8.1683 7.15529 8.15788 7.16421 8.14986C7.17309 8.14185 7.1818 8.13508 7.19109 8.12749C7.20037 8.1199 7.20834 8.11225 7.21796 8.1051C7.22756 8.09796 7.23924 8.0939 7.24921 8.08721C7.25916 8.08049 7.26583 8.07102 7.27609 8.06483C7.28633 8.05859 7.30141 8.05267 7.31193 8.04693C7.32246 8.04119 7.33261 8.02903 7.3434 8.02903C7.35419 8.02903 7.36365 8.0156 7.37465 8.0156C7.38565 8.0156 7.39469 8.00218 7.4059 8.00218C7.41714 8.00218 7.43491 7.99322 7.44633 7.99322C7.45773 7.99322 7.46602 7.98427 7.47758 7.98427C7.48914 7.98427 7.49714 7.97084 7.50883 7.97084C7.52052 7.97084 7.53744 7.96636 7.54926 7.96636C7.56105 7.96636 7.56861 7.9619 7.58051 7.9619C7.59238 7.9619 7.60876 7.95742 7.62072 7.95742L9.0484 7.95742L9.0484 6.52972C9.0484 6.51777 9.05288 6.50135 9.05288 6.48944C9.05288 6.47754 9.05735 6.46991 9.05735 6.45812C9.05735 6.44629 9.06183 6.42952 9.06183 6.41784C9.06183 6.40615 9.07525 6.39806 9.07525 6.38651C9.07525 6.37492 9.08421 6.3621 9.08421 6.3507C9.08421 6.33928 9.09316 6.32611 9.09316 6.3149C9.09316 6.30368 9.10658 6.29457 9.10658 6.28357C9.10658 6.27257 9.12001 6.26303 9.12001 6.25224C9.12001 6.24145 9.13217 6.23144 9.13791 6.22091C9.14365 6.21039 9.15405 6.19537 9.16029 6.18511C9.1665 6.17485 9.1715 6.16372 9.17819 6.15378C9.18488 6.14384 9.18895 6.13655 9.19609 6.12693C9.20326 6.1173 9.21088 6.10933 9.21847 6.10007C9.22606 6.09079 9.23284 6.08213 9.24085 6.07322C9.24886 6.06428 9.25929 6.05488 9.2677 6.04637C9.27611 6.03782 9.28575 6.02763 9.29456 6.01951C9.30334 6.01137 9.3122 6.00487 9.32141 5.99714C9.33056 5.98943 9.33874 5.98203 9.34826 5.97476C9.35778 5.96748 9.36525 5.95921 9.37511 5.95238C9.38495 5.94555 9.40076 5.93636 9.41092 5.93C9.4211 5.92365 9.4318 5.92246 9.44225 5.91658C9.45269 5.9107 9.45839 5.89867 9.4691 5.89867C9.47981 5.89867 9.48948 5.88525 9.50043 5.88525C9.51138 5.88525 9.52955 5.86735 9.54071 5.86735C9.55187 5.86735 9.56069 5.85392 9.57204 5.85392C9.58338 5.85392 9.59184 5.84497 9.60337 5.84497C9.6149 5.84497 9.63198 5.83602 9.64365 5.83602C9.65531 5.83602 9.66321 5.82707 9.67497 5.82707C9.68674 5.82707 9.6989 5.82259 9.71078 5.82259C9.72265 5.82259 9.73466 5.81812 9.74658 5.81812C9.75851 5.81812 9.77041 5.81812 9.78239 5.81812C9.79434 5.81812 9.80171 5.81812 9.81372 5.81812Z"   fill="#034FA1" ></path><path d="M12.7396 13.0908L12.7396 14.0095L11.6425 14.0095L11.6425 15.8468C11.6425 15.8769 11.6434 15.9069 11.6452 15.937C11.6469 15.967 11.6496 15.997 11.6531 16.0269C11.6566 16.0568 11.661 16.0867 11.6663 16.1164C11.6715 16.1462 11.6777 16.1758 11.6847 16.2053C11.6917 16.2348 11.6996 16.2641 11.7083 16.2933C11.717 16.3224 11.7266 16.3514 11.737 16.3802C11.7474 16.409 11.7587 16.4375 11.7708 16.4658C11.7829 16.4941 11.7958 16.5222 11.8095 16.5499C11.8233 16.5777 11.8378 16.6052 11.8532 16.6324C11.8685 16.6596 11.8847 16.6864 11.9016 16.7129C11.9185 16.7395 11.9362 16.7656 11.9547 16.7914C11.9732 16.8172 11.9924 16.8426 12.0123 16.8676C12.0323 16.8926 12.0529 16.9172 12.0743 16.9413C12.0957 16.9655 12.1178 16.9892 12.1406 17.0124C12.1634 17.0357 12.1868 17.0584 12.2109 17.0807C12.235 17.103 12.2598 17.1248 12.2852 17.146C12.3106 17.1673 12.3366 17.188 12.3632 17.2082C12.3898 17.2284 12.417 17.248 12.4447 17.2671C12.4725 17.2862 12.5008 17.3047 12.5296 17.3226C12.5585 17.3405 12.5878 17.3578 12.6177 17.3745C12.6476 17.3912 12.6779 17.4073 12.7087 17.4228C12.7395 17.4382 12.7707 17.453 12.8024 17.4672C12.8341 17.4814 12.8661 17.4949 12.8986 17.5078C12.931 17.5206 12.9639 17.5328 12.997 17.5443C13.0302 17.5558 13.0637 17.5666 13.0975 17.5768C13.1313 17.5869 13.1654 17.5963 13.1998 17.605C13.2342 17.6138 13.2688 17.6218 13.3036 17.6291C13.3384 17.6364 13.3734 17.643 13.4087 17.6488C13.4439 17.6547 13.4793 17.6599 13.5148 17.6643C13.5503 17.6687 13.5859 17.6724 13.6217 17.6753C13.6574 17.6783 13.6932 17.6805 13.7291 17.6819C13.7649 17.6834 13.8008 17.6842 13.8367 17.6842C13.8726 17.6842 13.9085 17.6834 13.9444 17.6819C13.9803 17.6805 14.0161 17.6783 14.0518 17.6753C14.0875 17.6724 14.1232 17.6687 14.1587 17.6643C14.1942 17.6599 14.2296 17.6547 14.2648 17.6488C14.3 17.643 14.3351 17.6364 14.3699 17.6291C14.4047 17.6218 14.4393 17.6138 14.4737 17.605C14.5081 17.5963 14.5421 17.5869 14.5759 17.5768C14.6098 17.5666 14.6432 17.5558 14.6764 17.5443C14.7096 17.5328 14.7424 17.5206 14.7749 17.5078C14.8073 17.4949 14.8394 17.4814 14.8711 17.4672C14.9027 17.453 14.934 17.4382 14.9648 17.4228C14.9956 17.4073 15.0259 17.3912 15.0558 17.3745C15.0856 17.3578 15.115 17.3405 15.1438 17.3226C15.1727 17.3047 15.201 17.2862 15.2287 17.2671C15.2565 17.248 15.2837 17.2284 15.3103 17.2082C15.3369 17.188 15.3629 17.1673 15.3883 17.146C15.4137 17.1248 15.4384 17.103 15.4625 17.0807C15.4867 17.0584 15.5101 17.0357 15.5329 17.0124C15.5557 16.9892 15.5778 16.9655 15.5991 16.9413C15.6205 16.9172 15.6412 16.8926 15.6612 16.8676C15.6811 16.8426 15.7003 16.8172 15.7188 16.7914C15.7372 16.7656 15.7549 16.7395 15.7719 16.7129C15.7888 16.6864 15.8049 16.6596 15.8203 16.6324C15.8356 16.6052 15.8502 16.5777 15.8639 16.5499C15.8777 16.5222 15.8906 16.4941 15.9027 16.4658C15.9148 16.4375 15.9261 16.409 15.9365 16.3802C15.9469 16.3514 15.9565 16.3224 15.9652 16.2933C15.9739 16.2641 15.9818 16.2348 15.9888 16.2053C15.9958 16.1758 16.0019 16.1462 16.0072 16.1164C16.0125 16.0867 16.0169 16.0568 16.0204 16.0269C16.0239 15.997 16.0266 15.967 16.0283 15.937C16.0301 15.9069 16.0309 15.8769 16.0309 15.8468L16.0309 14.0095L14.9338 14.0095L14.9338 13.0908L16.5795 13.0908C16.5885 13.0908 16.5975 13.091 16.6064 13.0914C16.6154 13.0917 16.6243 13.0923 16.6333 13.093C16.6422 13.0938 16.6511 13.0947 16.66 13.0958C16.6689 13.0969 16.6777 13.0982 16.6865 13.0996C16.6953 13.1011 16.7041 13.1028 16.7128 13.1046C16.7215 13.1064 16.7302 13.1084 16.7388 13.1106C16.7473 13.1128 16.7559 13.1151 16.7643 13.1177C16.7728 13.1202 16.7811 13.1229 16.7894 13.1258C16.7977 13.1287 16.8059 13.1317 16.814 13.1349C16.8222 13.1381 16.8302 13.1415 16.8381 13.1451C16.846 13.1486 16.8538 13.1523 16.8615 13.1562C16.8692 13.16 16.8768 13.1641 16.8843 13.1682C16.8917 13.1724 16.8991 13.1767 16.9063 13.1812C16.9135 13.1857 16.9206 13.1903 16.9275 13.1951C16.9344 13.1999 16.9412 13.2048 16.9479 13.2098C16.9545 13.2149 16.961 13.22 16.9674 13.2254C16.9737 13.2307 16.9799 13.2361 16.986 13.2417C16.992 13.2473 16.9979 13.2529 17.0035 13.2588C17.0092 13.2646 17.0148 13.2705 17.0201 13.2765C17.0255 13.2826 17.0306 13.2887 17.0356 13.295C17.0406 13.3012 17.0454 13.3076 17.05 13.314C17.0546 13.3205 17.0591 13.327 17.0633 13.3336C17.0675 13.3403 17.0715 13.347 17.0754 13.3538C17.0792 13.3606 17.0829 13.3674 17.0863 13.3744C17.0897 13.3813 17.093 13.3883 17.096 13.3954C17.099 13.4025 17.1018 13.4096 17.1044 13.4168C17.107 13.424 17.1094 13.4312 17.1116 13.4385C17.1138 13.4458 17.1158 13.4532 17.1175 13.4605C17.1193 13.4679 17.1208 13.4753 17.1221 13.4828C17.1235 13.4902 17.1245 13.4977 17.1254 13.5051C17.1263 13.5126 17.127 13.5201 17.1274 13.5276C17.1278 13.5351 17.1281 13.5426 17.1281 13.5502L17.1281 15.8468C17.1281 15.8871 17.127 15.9274 17.1249 15.9677C17.1228 16.0079 17.1196 16.0481 17.1154 16.0883C17.1112 16.1284 17.1059 16.1684 17.0996 16.2084C17.0933 16.2483 17.0859 16.2881 17.0775 16.3278C17.0691 16.3675 17.0597 16.407 17.0492 16.4463C17.0387 16.4857 17.0272 16.5248 17.0147 16.5637C17.0022 16.6026 16.9886 16.6413 16.9741 16.6797C16.9596 16.7181 16.944 16.7562 16.9275 16.794C16.9109 16.8319 16.8934 16.8694 16.8749 16.9066C16.8564 16.9438 16.8369 16.9806 16.8165 17.0171C16.7961 17.0536 16.7747 17.0897 16.7524 17.1254C16.73 17.1611 16.7068 17.1964 16.6826 17.2312C16.6584 17.2661 16.6334 17.3004 16.6074 17.3344C16.5814 17.3683 16.5546 17.4017 16.5269 17.4346C16.4991 17.4676 16.4706 17.5 16.4412 17.5319C16.4117 17.5638 16.3815 17.5951 16.3504 17.6259C16.3194 17.6567 16.2875 17.6869 16.2549 17.7165C16.2222 17.7461 16.1888 17.7751 16.1547 17.8035C16.1205 17.8318 16.0856 17.8596 16.05 17.8867C16.0144 17.9138 15.9781 17.9402 15.9411 17.966C15.9041 17.9918 15.8664 18.0168 15.8281 18.0412C15.7898 18.0656 15.7509 18.0893 15.7114 18.1122C15.6718 18.1352 15.6317 18.1574 15.591 18.1789C15.5502 18.2004 15.509 18.2211 15.4672 18.2411C15.4254 18.261 15.3831 18.2802 15.3403 18.2987C15.2975 18.3171 15.2542 18.3347 15.2105 18.3515C15.1668 18.3683 15.1226 18.3844 15.0781 18.3996C15.0335 18.4148 14.9885 18.4292 14.9432 18.4427C14.8979 18.4563 14.8523 18.469 14.8063 18.4809C14.7603 18.4927 14.714 18.5038 14.6675 18.514C14.6209 18.5241 14.5741 18.5335 14.527 18.5419C14.48 18.5504 14.4327 18.558 14.3853 18.5647L14.3853 19.2918C14.3853 19.3151 14.3858 19.3384 14.387 19.3617C14.3882 19.385 14.39 19.4082 14.3924 19.4314C14.3948 19.4546 14.3978 19.4778 14.4014 19.5009C14.4049 19.524 14.4091 19.547 14.4139 19.57C14.4187 19.5929 14.4241 19.6158 14.4301 19.6385C14.436 19.6613 14.4426 19.6839 14.4497 19.7064C14.4569 19.729 14.4646 19.7513 14.4729 19.7736C14.4812 19.7958 14.4901 19.8179 14.4996 19.8398C14.509 19.8617 14.5191 19.8834 14.5297 19.905C14.5402 19.9265 14.5514 19.9479 14.5631 19.969C14.5748 19.9902 14.587 20.0111 14.5998 20.0318C14.6126 20.0525 14.6259 20.0729 14.6397 20.0931C14.6536 20.1133 14.6679 20.1333 14.6828 20.153C14.6977 20.1727 14.7131 20.1921 14.7289 20.2112C14.7448 20.2303 14.7612 20.2492 14.7781 20.2677C14.7949 20.2862 14.8123 20.3044 14.8301 20.3223C14.8479 20.3402 14.8661 20.3578 14.8849 20.375C14.9036 20.3923 14.9227 20.4092 14.9423 20.4257C14.9619 20.4422 14.982 20.4584 15.0024 20.4742C15.0228 20.49 15.0437 20.5055 15.0649 20.5205C15.0861 20.5356 15.1078 20.5502 15.1298 20.5645C15.1518 20.5788 15.1741 20.5926 15.1968 20.6061C15.2195 20.6195 15.2426 20.6325 15.266 20.6452C15.2894 20.6578 15.3131 20.6699 15.3371 20.6817C15.3612 20.6934 15.3855 20.7048 15.4101 20.7156C15.4347 20.7265 15.4596 20.7369 15.4848 20.7468C15.5099 20.7568 15.5353 20.7663 15.561 20.7753C15.5866 20.7844 15.6125 20.7929 15.6386 20.801C15.6647 20.8091 15.691 20.8167 15.7174 20.8238C15.7439 20.831 15.7706 20.8376 15.7974 20.8438C15.8243 20.8499 15.8512 20.8556 15.8784 20.8608C15.9055 20.866 15.9327 20.8707 15.9601 20.8748C15.9875 20.879 16.015 20.8827 16.0425 20.8859C16.0701 20.8891 16.0977 20.8918 16.1254 20.894C16.1531 20.8962 16.1809 20.8978 16.2086 20.899C16.2364 20.9002 16.2642 20.9008 16.2921 20.901C16.3199 20.9012 16.3477 20.9008 16.3755 20.9C16.4033 20.8991 16.4311 20.8977 16.4588 20.8959C16.4865 20.894 16.5142 20.8917 16.5418 20.8888C16.5694 20.8859 16.597 20.8825 16.6244 20.8787C16.6518 20.8748 16.6792 20.8704 16.7064 20.8655C16.7336 20.8607 16.7606 20.8553 16.7876 20.8495C16.8145 20.8436 16.8413 20.8373 16.8679 20.8305C16.8945 20.8236 16.9209 20.8163 16.9471 20.8085C16.9733 20.8007 16.9994 20.7925 17.0251 20.7837C17.0509 20.775 17.0765 20.7658 17.1018 20.7561C17.1271 20.7465 17.1522 20.7363 17.177 20.7258C17.2018 20.7152 17.2263 20.7042 17.2505 20.6927C17.2747 20.6812 17.2986 20.6693 17.3222 20.657C17.3458 20.6446 17.3691 20.6319 17.392 20.6187C17.415 20.6055 17.4375 20.5919 17.4598 20.5779C17.482 20.5639 17.5039 20.5495 17.5253 20.5347C17.5468 20.5199 17.5679 20.5047 17.5886 20.4891C17.6093 20.4735 17.6296 20.4576 17.6494 20.4412C17.6693 20.4249 17.6887 20.4083 17.7078 20.3913C17.7268 20.3742 17.7453 20.3569 17.7634 20.3392C17.7815 20.3215 17.7991 20.3035 17.8163 20.2851C17.8335 20.2668 17.8501 20.2482 17.8663 20.2292C17.8825 20.2103 17.8982 20.191 17.9134 20.1715C17.9286 20.152 17.9433 20.1322 17.9575 20.1122C17.9717 20.0921 17.9853 20.0718 17.9984 20.0513C18.0115 20.0307 18.0241 20.01 18.0362 19.989C18.0482 19.968 18.0597 19.9467 18.0706 19.9253C18.0816 19.9039 18.0919 19.8823 18.1017 19.8605C18.0726 19.8495 18.0439 19.8379 18.0156 19.8256C17.9873 19.8132 17.9594 19.8002 17.932 19.7865C17.9046 19.7728 17.8777 19.7585 17.8513 19.7435C17.8249 19.7285 17.799 19.7128 17.7737 19.6965C17.7484 19.6803 17.7236 19.6634 17.6995 19.646C17.6753 19.6285 17.6518 19.6104 17.6289 19.5918C17.606 19.5732 17.5838 19.554 17.5622 19.5343C17.5407 19.5146 17.5198 19.4944 17.4996 19.4737C17.4795 19.453 17.46 19.4318 17.4413 19.4101C17.4227 19.3885 17.4047 19.3664 17.3876 19.3438C17.3704 19.3213 17.3541 19.2984 17.3385 19.275C17.3229 19.2517 17.3082 19.228 17.2943 19.204C17.2804 19.1799 17.2673 19.1555 17.2551 19.1308C17.2429 19.1062 17.2315 19.0812 17.221 19.056C17.2106 19.0307 17.201 19.0052 17.1922 18.9795C17.1835 18.9538 17.1757 18.9279 17.1688 18.9018C17.1619 18.8757 17.1559 18.8495 17.1508 18.8231C17.1457 18.7967 17.1415 18.7702 17.1382 18.7437C17.135 18.7171 17.1327 18.6904 17.1313 18.6637C17.1299 18.637 17.1294 18.6103 17.1299 18.5836C17.1303 18.5569 17.1317 18.5302 17.134 18.5035C17.1363 18.4769 17.1395 18.4503 17.1437 18.4238C17.1478 18.3973 17.1529 18.3709 17.1589 18.3447C17.1649 18.3184 17.1718 18.2924 17.1796 18.2664C17.1874 18.2405 17.1961 18.2148 17.2057 18.1893C17.2152 18.1638 17.2257 18.1386 17.2371 18.1136C17.2484 18.0886 17.2606 18.064 17.2736 18.0396C17.2867 18.0152 17.3006 17.9911 17.3153 17.9674C17.33 17.9437 17.3456 17.9204 17.3619 17.8974C17.3783 17.8745 17.3954 17.8519 17.4133 17.8298C17.4312 17.8077 17.4499 17.786 17.4693 17.7648C17.4887 17.7436 17.5089 17.7229 17.5297 17.7027C17.5506 17.6824 17.5721 17.6627 17.5943 17.6436C17.6166 17.6244 17.6394 17.6058 17.663 17.5877C17.6865 17.5696 17.7106 17.5521 17.7353 17.5353C17.7601 17.5184 17.7854 17.5021 17.8112 17.4864C17.8371 17.4708 17.8635 17.4558 17.8904 17.4414C17.9173 17.427 17.9447 17.4133 17.9726 17.4003C18.0004 17.3872 18.0287 17.3749 18.0574 17.3632C18.0862 17.3516 18.1152 17.3406 18.1447 17.3304C18.1742 17.3202 18.204 17.3106 18.2342 17.3018C18.2643 17.2931 18.2947 17.285 18.3254 17.2777C18.3561 17.2704 18.3871 17.2638 18.4182 17.258C18.4494 17.2522 18.4807 17.2472 18.5122 17.2429C18.5437 17.2387 18.5753 17.2352 18.6071 17.2324C18.6388 17.2297 18.6706 17.2277 18.7025 17.2265C18.7344 17.2254 18.7663 17.225 18.7982 17.2253C18.8301 17.2257 18.862 17.2268 18.8939 17.2288C18.9257 17.2307 18.9574 17.2334 18.9891 17.2369C19.0207 17.2403 19.0522 17.2446 19.0836 17.2496C19.1149 17.2546 19.1461 17.2603 19.177 17.2669C19.208 17.2734 19.2387 17.2807 19.2691 17.2887C19.2996 17.2967 19.3297 17.3055 19.3595 17.315C19.3894 17.3244 19.4189 17.3346 19.448 17.3456C19.4771 17.3565 19.5058 17.3681 19.5342 17.3804C19.5625 17.3928 19.5903 17.4058 19.6178 17.4194C19.6452 17.4331 19.6721 17.4475 19.6985 17.4625C19.7249 17.4774 19.7508 17.4931 19.7762 17.5093C19.8015 17.5256 19.8262 17.5424 19.8504 17.5599C19.8746 17.5773 19.8981 17.5954 19.921 17.614C19.9439 17.6326 19.9662 17.6517 19.9878 17.6714C20.0093 17.6911 20.0302 17.7113 20.0504 17.732C20.0706 17.7527 20.09 17.7739 20.1087 17.7956C20.1274 17.8172 20.1454 17.8393 20.1625 17.8618C20.1797 17.8844 20.1961 17.9073 20.2117 17.9306C20.2272 17.9539 20.242 17.9776 20.2559 18.0017C20.2699 18.0257 20.2829 18.0501 20.2952 18.0747C20.3074 18.0994 20.3188 18.1244 20.3293 18.1496C20.3398 18.1749 20.3494 18.2003 20.3582 18.226C20.3669 18.2517 20.3747 18.2776 20.3817 18.3037C20.3886 18.3298 20.3946 18.356 20.3997 18.3824C20.4049 18.4088 20.4091 18.4353 20.4123 18.4619C20.4156 18.4885 20.418 18.5151 20.4194 18.5418C20.4208 18.5685 20.4213 18.5952 20.4209 18.6219C20.4204 18.6486 20.4191 18.6753 20.4168 18.702C20.4145 18.7286 20.4113 18.7552 20.4071 18.7817C20.403 18.8082 20.398 18.8346 20.392 18.8609C20.386 18.8871 20.3792 18.9132 20.3714 18.9391C20.3636 18.965 20.3549 18.9907 20.3454 19.0162C20.3358 19.0417 20.3253 19.067 20.314 19.092C20.3027 19.1169 20.2905 19.1416 20.2775 19.166C20.2644 19.1904 20.2506 19.2145 20.2359 19.2382C20.2212 19.2619 20.2057 19.2853 20.1893 19.3082C20.173 19.3312 20.1559 19.3537 20.138 19.3759C20.1201 19.398 20.1014 19.4197 20.082 19.4409C20.0626 19.4621 20.0425 19.4828 20.0217 19.5031C20.0008 19.5233 19.9793 19.543 19.9571 19.5622C19.9349 19.5814 19.912 19.6 19.8885 19.6181C19.865 19.6362 19.8409 19.6537 19.8162 19.6706C19.7914 19.6875 19.7662 19.7038 19.7403 19.7194C19.7144 19.7351 19.6881 19.7502 19.6612 19.7645C19.6343 19.7789 19.6069 19.7926 19.5791 19.8057C19.5512 19.8188 19.5229 19.8311 19.4942 19.8428C19.4655 19.8545 19.4364 19.8654 19.4069 19.8757C19.3775 19.8859 19.3477 19.8955 19.3175 19.9043C19.2874 19.9131 19.257 19.9211 19.2263 19.9285C19.2148 19.9652 19.2024 20.0018 19.189 20.0381C19.1756 20.0744 19.1612 20.1104 19.1458 20.1461C19.1305 20.1819 19.1142 20.2173 19.0969 20.2525C19.0796 20.2876 19.0614 20.3224 19.0423 20.3569C19.0231 20.3913 19.0031 20.4254 18.9821 20.4591C18.9611 20.4928 18.9393 20.526 18.9165 20.5589C18.8937 20.5918 18.8701 20.6242 18.8456 20.6562C18.8211 20.6882 18.7957 20.7196 18.7695 20.7507C18.7433 20.7817 18.7162 20.8122 18.6884 20.8422C18.6605 20.8722 18.6319 20.9016 18.6024 20.9305C18.573 20.9594 18.5428 20.9878 18.5118 21.0156C18.4809 21.0433 18.4492 21.0705 18.4167 21.0971C18.3843 21.1237 18.3512 21.1496 18.3173 21.1749C18.2835 21.2003 18.249 21.2249 18.2139 21.249C18.1787 21.273 18.1429 21.2963 18.1065 21.319C18.0701 21.3417 18.0331 21.3636 17.9955 21.3849C17.9579 21.4062 17.9197 21.4267 17.881 21.4466C17.8423 21.4664 17.8031 21.4855 17.7634 21.5038C17.7236 21.5222 17.6834 21.5398 17.6427 21.5566C17.6021 21.5734 17.5609 21.5895 17.5194 21.6048C17.4779 21.62 17.4359 21.6345 17.3936 21.6482C17.3513 21.6619 17.3086 21.6748 17.2656 21.6869C17.2225 21.699 17.1792 21.7102 17.1356 21.7207C17.092 21.7311 17.0481 21.7407 17.0039 21.7495C16.9598 21.7583 16.9154 21.7663 16.8709 21.7734C16.8263 21.7805 16.7815 21.7868 16.7366 21.7922C16.6917 21.7976 16.6467 21.8022 16.6015 21.8059C16.5564 21.8096 16.5111 21.8125 16.4658 21.8145C16.4205 21.8165 16.3752 21.8177 16.3298 21.818C16.2844 21.8183 16.239 21.8178 16.1937 21.8163C16.1484 21.8149 16.1031 21.8127 16.0579 21.8096C16.0126 21.8064 15.9675 21.8025 15.9225 21.7976C15.8775 21.7928 15.8326 21.7871 15.7879 21.7806C15.7432 21.7741 15.6987 21.7667 15.6544 21.7585C15.6101 21.7503 15.566 21.7413 15.5222 21.7314C15.4784 21.7216 15.4349 21.7109 15.3916 21.6994C15.3484 21.6879 15.3055 21.6756 15.2629 21.6624C15.2203 21.6493 15.1781 21.6354 15.1363 21.6206C15.0944 21.6059 15.053 21.5904 15.012 21.5741C14.971 21.5578 14.9305 21.5408 14.8904 21.523C14.8504 21.5052 14.8108 21.4866 14.7717 21.4673C14.7326 21.448 14.6941 21.4279 14.6561 21.4072C14.6181 21.3864 14.5807 21.3649 14.5438 21.3427C14.507 21.3205 14.4707 21.2977 14.4351 21.2741C14.3995 21.2506 14.3646 21.2264 14.3303 21.2015C14.296 21.1766 14.2623 21.1511 14.2294 21.125C14.1965 21.0988 14.1643 21.0721 14.1328 21.0447C14.1013 21.0174 14.0706 20.9894 14.0406 20.9609C14.0106 20.9324 13.9814 20.9033 13.953 20.8737C13.9245 20.8441 13.8969 20.814 13.8701 20.7833C13.8433 20.7526 13.8174 20.7215 13.7923 20.6898C13.7671 20.6582 13.7429 20.6261 13.7195 20.5935C13.6961 20.561 13.6736 20.528 13.652 20.4946C13.6304 20.4612 13.6097 20.4274 13.5899 20.3932C13.5701 20.359 13.5512 20.3244 13.5333 20.2895C13.5154 20.2546 13.4984 20.2194 13.4823 20.1839C13.4663 20.1483 13.4512 20.1125 13.4371 20.0764C13.423 20.0403 13.4099 20.0039 13.3978 19.9673C13.3856 19.9307 13.3745 19.8939 13.3643 19.8568C13.3541 19.8198 13.345 19.7826 13.3368 19.7452C13.3287 19.7078 13.3215 19.6703 13.3154 19.6327C13.3092 19.595 13.3041 19.5573 13.3 19.5195C13.2959 19.4816 13.2928 19.4437 13.2908 19.4058C13.2887 19.3678 13.2876 19.3298 13.2876 19.2918L13.2876 18.5647C13.2402 18.558 13.1929 18.5504 13.1459 18.5419C13.0989 18.5334 13.0521 18.5241 13.0055 18.5139C12.9589 18.5037 12.9127 18.4927 12.8667 18.4808C12.8207 18.4689 12.7751 18.4562 12.7298 18.4426C12.6845 18.4291 12.6395 18.4147 12.595 18.3995C12.5504 18.3843 12.5063 18.3683 12.4626 18.3514C12.4188 18.3346 12.3756 18.317 12.3328 18.2986C12.29 18.2801 12.2477 18.2609 12.2059 18.241C12.1641 18.221 12.1229 18.2003 12.0822 18.1788C12.0414 18.1573 12.0013 18.1351 11.9618 18.1121C11.9222 18.0892 11.8833 18.0655 11.845 18.0411C11.8067 18.0167 11.7691 17.9916 11.7321 17.9659C11.6951 17.9401 11.6588 17.9137 11.6232 17.8866C11.5876 17.8595 11.5527 17.8317 11.5185 17.8033C11.4844 17.7749 11.451 17.746 11.4184 17.7163C11.3857 17.6867 11.3539 17.6565 11.3228 17.6258C11.2918 17.595 11.2615 17.5637 11.2321 17.5318C11.2027 17.4999 11.1741 17.4675 11.1464 17.4345C11.1187 17.4016 11.0919 17.3682 11.0659 17.3342C11.0399 17.3003 11.0149 17.2659 10.9907 17.2311C10.9665 17.1963 10.9433 17.161 10.921 17.1253C10.8987 17.0896 10.8773 17.0535 10.8569 17.017C10.8364 16.9805 10.817 16.9437 10.7985 16.9065C10.78 16.8693 10.7625 16.8318 10.7459 16.794C10.7294 16.7561 10.7138 16.718 10.6993 16.6796C10.6848 16.6412 10.6712 16.6025 10.6587 16.5636C10.6462 16.5247 10.6347 16.4856 10.6242 16.4463C10.6138 16.4069 10.6043 16.3674 10.596 16.3278C10.5876 16.2881 10.5802 16.2483 10.5739 16.2083C10.5676 16.1684 10.5623 16.1284 10.5581 16.0882C10.5539 16.0481 10.5507 16.0079 10.5486 15.9676C10.5465 15.9274 10.5454 15.8871 10.5454 15.8468L10.5454 13.5502C10.5454 13.5426 10.5456 13.5351 10.5461 13.5276C10.5465 13.5201 10.5472 13.5126 10.548 13.5051C10.5489 13.4977 10.55 13.4902 10.5513 13.4828C10.5527 13.4753 10.5542 13.4679 10.5559 13.4605C10.5577 13.4532 10.5597 13.4458 10.5618 13.4385C10.564 13.4313 10.5664 13.424 10.569 13.4168C10.5716 13.4096 10.5744 13.4025 10.5775 13.3954C10.5805 13.3883 10.5837 13.3813 10.5872 13.3744C10.5906 13.3674 10.5942 13.3606 10.5981 13.3538C10.6019 13.347 10.6059 13.3403 10.6102 13.3336C10.6144 13.327 10.6188 13.3205 10.6235 13.314C10.6281 13.3076 10.6329 13.3012 10.6378 13.295C10.6428 13.2887 10.648 13.2826 10.6534 13.2765C10.6587 13.2705 10.6642 13.2646 10.6699 13.2588C10.6756 13.2529 10.6815 13.2473 10.6875 13.2417C10.6935 13.2361 10.6997 13.2307 10.7061 13.2254C10.7124 13.22 10.7189 13.2149 10.7256 13.2098C10.7322 13.2048 10.739 13.1999 10.746 13.1951C10.7529 13.1903 10.76 13.1857 10.7672 13.1812C10.7744 13.1767 10.7817 13.1724 10.7892 13.1682C10.7967 13.1641 10.8042 13.16 10.8119 13.1562C10.8196 13.1523 10.8275 13.1486 10.8354 13.1451C10.8433 13.1415 10.8513 13.1381 10.8594 13.1349C10.8675 13.1317 10.8757 13.1287 10.884 13.1258C10.8923 13.1229 10.9007 13.1202 10.9092 13.1177C10.9176 13.1151 10.9261 13.1128 10.9347 13.1106C10.9433 13.1084 10.952 13.1064 10.9607 13.1046C10.9694 13.1028 10.9781 13.1011 10.9869 13.0996C10.9957 13.0982 11.0046 13.0969 11.0135 13.0958C11.0224 13.0947 11.0313 13.0938 11.0402 13.093C11.0491 13.0923 11.0581 13.0917 11.067 13.0914C11.076 13.091 11.085 13.0908 11.094 13.0908L12.7396 13.0908ZM18.7737 18.1435C18.7647 18.1435 18.7558 18.1437 18.7468 18.144C18.7378 18.1444 18.7289 18.1449 18.7199 18.1457C18.711 18.1464 18.7021 18.1473 18.6932 18.1484C18.6843 18.1495 18.6754 18.1508 18.6666 18.1522C18.6578 18.1537 18.6491 18.1554 18.6403 18.1572C18.6316 18.159 18.623 18.161 18.6144 18.1632C18.6058 18.1653 18.5972 18.1677 18.5888 18.1702C18.5803 18.1728 18.5719 18.1755 18.5636 18.1783C18.5553 18.1812 18.5471 18.1842 18.539 18.1875C18.5309 18.1907 18.5229 18.194 18.5149 18.1976C18.507 18.2011 18.4992 18.2048 18.4915 18.2087C18.4838 18.2126 18.4762 18.2166 18.4687 18.2208C18.4612 18.2249 18.4539 18.2292 18.4467 18.2337C18.4395 18.2382 18.4324 18.2428 18.4254 18.2476C18.4185 18.2524 18.4117 18.2573 18.405 18.2623C18.3984 18.2674 18.3919 18.2726 18.3855 18.2779C18.3791 18.2832 18.3729 18.2886 18.3669 18.2942C18.3609 18.2998 18.355 18.3055 18.3493 18.3113C18.3436 18.3171 18.3381 18.323 18.3327 18.3291C18.3274 18.3351 18.3222 18.3412 18.3172 18.3475C18.3122 18.3538 18.3074 18.3601 18.3028 18.3666C18.2982 18.373 18.2937 18.3795 18.2895 18.3862C18.2853 18.3928 18.2812 18.3995 18.2774 18.4063C18.2735 18.4131 18.2699 18.42 18.2664 18.4269C18.263 18.4339 18.2598 18.4409 18.2567 18.448C18.2537 18.4551 18.2509 18.4622 18.2483 18.4694C18.2457 18.4766 18.2433 18.4839 18.2411 18.4912C18.2389 18.4984 18.2369 18.5058 18.2352 18.5132C18.2334 18.5205 18.2319 18.528 18.2306 18.5354C18.2293 18.5428 18.2282 18.5503 18.2273 18.5578C18.2264 18.5653 18.2257 18.5728 18.2253 18.5803C18.2248 18.5878 18.2246 18.5953 18.2246 18.6028C18.2246 18.6103 18.2248 18.6179 18.2253 18.6254C18.2257 18.6329 18.2264 18.6404 18.2273 18.6479C18.2282 18.6554 18.2293 18.6628 18.2306 18.6703C18.2319 18.6777 18.2334 18.6851 18.2352 18.6925C18.2369 18.6999 18.2389 18.7072 18.2411 18.7145C18.2433 18.7218 18.2457 18.729 18.2483 18.7362C18.2509 18.7434 18.2537 18.7506 18.2567 18.7577C18.2598 18.7647 18.263 18.7718 18.2664 18.7787C18.2699 18.7857 18.2735 18.7925 18.2774 18.7993C18.2812 18.8061 18.2853 18.8128 18.2895 18.8195C18.2937 18.8261 18.2982 18.8327 18.3028 18.8391C18.3074 18.8456 18.3122 18.8519 18.3172 18.8582C18.3222 18.8644 18.3274 18.8706 18.3327 18.8766C18.3381 18.8826 18.3436 18.8886 18.3493 18.8944C18.355 18.9002 18.3609 18.9059 18.3669 18.9115C18.3729 18.917 18.3791 18.9225 18.3855 18.9278C18.3918 18.9331 18.3984 18.9383 18.405 18.9433C18.4117 18.9484 18.4185 18.9533 18.4254 18.9581C18.4324 18.9628 18.4395 18.9674 18.4467 18.9719C18.4539 18.9764 18.4612 18.9807 18.4687 18.9849C18.4762 18.9891 18.4838 18.9931 18.4915 18.997C18.4992 19.0008 18.507 19.0045 18.5149 19.0081C18.5229 19.0116 18.5309 19.015 18.539 19.0182C18.5471 19.0214 18.5553 19.0245 18.5636 19.0273C18.5719 19.0302 18.5803 19.0329 18.5888 19.0354C18.5972 19.038 18.6058 19.0403 18.6144 19.0425C18.623 19.0447 18.6316 19.0467 18.6403 19.0485C18.6491 19.0503 18.6578 19.052 18.6666 19.0534C18.6754 19.0549 18.6843 19.0562 18.6932 19.0573C18.7021 19.0583 18.711 19.0593 18.7199 19.06C18.7289 19.0607 18.7378 19.0613 18.7468 19.0616C18.7558 19.062 18.7647 19.0622 18.7737 19.0622C18.7827 19.0622 18.7917 19.062 18.8006 19.0616C18.8096 19.0612 18.8185 19.0607 18.8275 19.0599C18.8364 19.0592 18.8453 19.0582 18.8542 19.0571C18.863 19.056 18.8719 19.0547 18.8807 19.0533C18.8895 19.0518 18.8982 19.0501 18.9069 19.0483C18.9156 19.0465 18.9243 19.0445 18.9328 19.0423C18.9414 19.0401 18.9499 19.0377 18.9584 19.0352C18.9668 19.0327 18.9752 19.0299 18.9835 19.0271C18.9918 19.0242 19 19.0211 19.0081 19.0179C19.0162 19.0147 19.0242 19.0113 19.0321 19.0078C19.04 19.0042 19.0478 19.0005 19.0555 18.9967C19.0632 18.9928 19.0708 18.9888 19.0782 18.9846C19.0857 18.9804 19.093 18.9761 19.1002 18.9716C19.1074 18.9671 19.1145 18.9625 19.1214 18.9577C19.1284 18.953 19.1351 18.9481 19.1418 18.943C19.1484 18.938 19.1549 18.9328 19.1613 18.9275C19.1676 18.9222 19.1738 18.9167 19.1798 18.9111C19.1858 18.9056 19.1917 18.8999 19.1974 18.8941C19.2031 18.8883 19.2086 18.8823 19.2139 18.8763C19.2193 18.8703 19.2244 18.8641 19.2294 18.8579C19.2344 18.8516 19.2392 18.8453 19.2438 18.8388C19.2484 18.8324 19.2528 18.8259 19.2571 18.8192C19.2613 18.8126 19.2653 18.8059 19.2691 18.7991C19.273 18.7923 19.2766 18.7854 19.28 18.7785C19.2835 18.7716 19.2867 18.7645 19.2897 18.7575C19.2927 18.7504 19.2955 18.7433 19.2982 18.7361C19.3008 18.7289 19.3032 18.7217 19.3053 18.7144C19.3075 18.7071 19.3095 18.6997 19.3112 18.6924C19.313 18.685 19.3145 18.6776 19.3158 18.6702C19.3171 18.6627 19.3182 18.6553 19.3191 18.6478C19.32 18.6403 19.3206 18.6329 19.3211 18.6253C19.3215 18.6178 19.3217 18.6103 19.3217 18.6028C19.3217 18.5953 19.3215 18.5878 19.3211 18.5803C19.3206 18.5728 19.32 18.5653 19.3191 18.5578C19.3182 18.5504 19.3171 18.5429 19.3158 18.5355C19.3145 18.528 19.313 18.5206 19.3112 18.5133C19.3095 18.5059 19.3075 18.4986 19.3053 18.4913C19.3031 18.484 19.3008 18.4768 19.2982 18.4696C19.2955 18.4624 19.2927 18.4552 19.2897 18.4482C19.2867 18.4411 19.2835 18.4341 19.28 18.4272C19.2766 18.4202 19.273 18.4133 19.2691 18.4065C19.2653 18.3998 19.2613 18.393 19.2571 18.3864C19.2528 18.3798 19.2484 18.3733 19.2438 18.3668C19.2392 18.3604 19.2344 18.354 19.2294 18.3478C19.2244 18.3415 19.2193 18.3354 19.2139 18.3293C19.2086 18.3233 19.2031 18.3174 19.1974 18.3116C19.1917 18.3058 19.1858 18.3001 19.1798 18.2945C19.1738 18.2889 19.1676 18.2835 19.1613 18.2782C19.1549 18.2729 19.1484 18.2677 19.1418 18.2626C19.1351 18.2576 19.1284 18.2527 19.1214 18.2479C19.1145 18.2431 19.1074 18.2385 19.1002 18.234C19.093 18.2296 19.0857 18.2252 19.0782 18.2211C19.0708 18.2169 19.0632 18.2129 19.0555 18.209C19.0478 18.2051 19.04 18.2014 19.0321 18.1979C19.0242 18.1943 19.0162 18.191 19.0081 18.1877C19 18.1845 18.9918 18.1815 18.9835 18.1786C18.9752 18.1757 18.9668 18.173 18.9584 18.1705C18.9499 18.1679 18.9414 18.1656 18.9328 18.1634C18.9243 18.1612 18.9156 18.1592 18.9069 18.1574C18.8982 18.1555 18.8895 18.1539 18.8807 18.1524C18.8719 18.1509 18.863 18.1496 18.8542 18.1485C18.8453 18.1474 18.8364 18.1465 18.8275 18.1457C18.8185 18.145 18.8096 18.1444 18.8006 18.1441C18.7917 18.1437 18.7827 18.1435 18.7737 18.1435Z" stroke="rgba(214, 51, 11, 1)" stroke-width="0.5"      fill="#D6330B" ></path></svg>