<svg xmlns="http://www.w3.org/2000/svg" xmlns:xlink="http://www.w3.org/1999/xlink" width="29.77392578125" height="26" viewBox="0 0 29.77392578125 26" fill="none"><path d="M25.9414 26L3.82861 26C0.411102 26 -0.981845 23.6373 0.736478 20.7472L11.7886 2.16465C13.5048 -0.723322 16.3141 -0.721196 18.0282 2.1689L29.042 20.7451C30.754 23.6352 29.3589 26 25.9414 26ZM14.8871 5.1228C13.9642 5.1228 13.2177 5.87138 13.2177 6.79221L14.0535 17.6487L15.7229 17.6487L16.5587 6.79221C16.5565 5.86925 15.8101 5.1228 14.8871 5.1228ZM14.8871 19.3202C13.9642 19.3202 13.2177 20.0688 13.2177 20.9896C13.2177 21.9105 13.9642 22.6591 14.8871 22.6591C15.8101 22.6591 16.5565 21.9105 16.5565 20.9896C16.5565 20.0688 15.8101 19.3202 14.8871 19.3202Z"   fill="#C00000" ></path></svg>