<svg xmlns="http://www.w3.org/2000/svg" xmlns:xlink="http://www.w3.org/1999/xlink" width="252.60602767092314" height="200" viewBox="0 0 252.60602767092314 200" fill="none">
<rect  x="6.47208121827407" y="1" width="240.9998779296875" height="197.99993896484375" rx="10"    fill="url(#linear_fill_Pzr6vxPiYDIsv0yi5XRKy_0)" fill-opacity="0.5">
</rect>
<path fill-rule="evenodd"  fill="rgba(201, 216, 255, 1)"  d="M237.472 1L16.4721 1C10.9492 1 6.47208 5.47715 6.47208 11L6.47208 189C6.47208 194.523 10.9492 199 16.4721 199L237.472 199C242.995 199 247.472 194.523 247.472 189L247.472 11C247.472 5.47715 242.995 1 237.472 1ZM7.47208 11C7.47208 6.02944 11.5015 2 16.4721 2L237.472 2C242.443 2 246.472 6.02944 246.472 11L246.472 189C246.472 193.971 242.443 198 237.472 198L16.4721 198C11.5015 198 7.47208 193.971 7.47208 189L7.47208 11Z">
</path>
<rect  x="32.29471305421157" y="5.8167724609375" width="187.4444351196289" height="189.1265869140625" rx="14.02284263959391"    fill="url(#linear_fill_l-cTtOyCmL-iXTrf4pXQy_0)" fill-opacity="0.5">
</rect>
<rect  x="32.29471305421157" y="5.8167724609375" width="188" height="189.1265869140625" rx="14.02284263959391"    fill="url(#linear_fill_12_637_0)" >
</rect>
<g mask="url(#mask-12_637)">
<g filter="url(#filter_12_638)">
<ellipse cx="134.67068961671157" cy="187.6287078857422" rx="92.718017578125" ry="11.371627807617188"   fill="#1250FC" >
</ellipse>
</g>
</g>
<g opacity="0.8">
<path   fill="rgba(99, 141, 255, 1)"  d="M13.0544 12.948C11.3948 12.948 10.0494 14.2934 10.0494 15.953L10.0494 15.953L10.0494 104.437L8.97071 104.437L8.97071 15.953L9.51005 15.953L8.97071 15.953C8.97071 13.6977 10.799 11.8694 13.0544 11.8694L13.0544 12.948Z">
</path>
</g>
<g opacity="0.8">
<ellipse  cx="18.37070945313735" cy="12.154998779296875" rx="5.316474914550781" ry="5.323944091796875"    fill="url(#linear_fill_ebrzHLTPtsKYgcZDgnd0d_0)" fill-opacity="0.5">
</ellipse>
<path fill-rule="evenodd"  fill="rgba(99, 141, 255, 1)"  d="M18.3707 17.4789C21.3069 17.4789 23.6872 15.0953 23.6872 12.155C23.6872 9.21466 21.3069 6.83105 18.3707 6.83105C15.4345 6.83105 13.0542 9.21466 13.0542 12.155C13.0542 15.0953 15.4345 17.4789 18.3707 17.4789ZM18.3707 9.06867C20.0752 9.06867 21.4496 10.4505 21.4496 12.155C21.4496 13.8554 20.0711 15.2413 18.3707 15.2413C16.6662 15.2413 15.2919 13.8595 15.2919 12.155C15.2919 10.4546 16.6703 9.06867 18.3707 9.06867Z">
</path>
</g>
<g opacity="0.8">
<ellipse cx="18.371132884533836" cy="12.155250549316406" rx="3.5443153381347656" ry="3.5492935180664062"   fill="#9EB8FF" >
</ellipse>
</g>
<g opacity="0.8">
<path    stroke="rgba(99, 141, 255, 1)" stroke-width="1.078680203045685"    d="M29.7184 12.2783L29.7184 82.0055L25.1332 86.595L25.1332 104.437">
</path>
</g>
<g opacity="0.8">
<path    stroke="rgba(99, 141, 255, 1)" stroke-width="1.078680203045685"    d="M29.7186 12.6677L22.3736 21.2621L22.3736 70.9321L19.3837 76.4034L19.3837 93.3663">
</path>
</g>
<g opacity="0.8">
<path    stroke="rgba(99, 141, 255, 1)" stroke-width="1.078680203045685"    d="M9.76346 37.5072L13.685 46.0662L13.685 95.5316L16.5989 100.98L16.5989 117.873">
</path>
</g>
<g filter="url(#filter_AD8yQ8D_JqiU9Byim2-mg)">
<ellipse cx="12.674321208508445" cy="53.605712890625" rx="0.886077880859375" ry="0.8873291015625"   fill="#1250FC" >
</ellipse>
</g>
<g filter="url(#filter_tqdJnoAVVzYXSsM3wRqjF)">
<ellipse cx="18.497441325695945" cy="54.3663330078125" rx="0.886077880859375" ry="0.8873291015625"   fill="#1250FC" >
</ellipse>
</g>
<g filter="url(#filter_AIMOMArN10JzR2SMePkhD)">
<ellipse cx="16.725346599133445" cy="31.29576873779297" rx="0.886077880859375" ry="0.8873214721679688"   fill="#1250FC" >
</ellipse>
</g>
<g filter="url(#filter_WbWLKFtb-Z7Ljj73Naxg8)">
<ellipse cx="29.636479411633445" cy="12.281852722167969" rx="0.886077880859375" ry="0.8873214721679688"   fill="#1250FC" >
</ellipse>
</g>
<g filter="url(#filter_L3TAS13n8aHdw670tN38u)">
<ellipse cx="7.358159099133445" cy="70.5914306640625" rx="0.886077880859375" ry="0.8873291015625"   fill="#1250FC" >
</ellipse>
</g>
<g filter="url(#filter_vv8BWta9YhN5BsspUst_3)">
<ellipse cx="25.839116130383445" cy="73.6339111328125" rx="0.886077880859375" ry="0.8873291015625"   fill="#1250FC" >
</ellipse>
</g>
<g filter="url(#filter_BgAZMmwvcNU_GTKacY4Ff)">
<ellipse cx="26.598881755383445" cy="62.7322998046875" rx="0.886077880859375" ry="0.8873291015625"   fill="#1250FC" >
</ellipse>
</g>
<g filter="url(#filter_19tHJ0OXceUz8r-zKvCZA)">
<ellipse cx="10.902470622570945" cy="33.0704345703125" rx="0.886077880859375" ry="0.8873291015625"   fill="#1250FC" >
</ellipse>
</g>
<g filter="url(#filter_bcNKGg-94DLAJqvMV0c31)">
<ellipse cx="26.092167888195945" cy="52.5914306640625" rx="0.886077880859375" ry="0.8873291015625"   fill="#1250FC" >
</ellipse>
</g>
<g opacity="0.8">
<path   fill="rgba(99, 141, 255, 1)"  d="M13.0544 188.891C10.799 188.891 8.97071 187.063 8.97071 184.808L9.51005 184.808L8.97071 184.808L8.97071 96.3237L10.0494 96.3237L10.0494 184.808L10.0494 184.808C10.0494 186.467 11.3948 187.813 13.0544 187.813L13.0544 188.891Z">
</path>
</g>
<g opacity="0.8">
<ellipse  cx="18.37070945313735" cy="188.60568237304688" rx="5.316474914550781" ry="5.323944091796875"    fill="url(#linear_fill_S6KxKWRQ7bS7KjZMGjJzq_0)" fill-opacity="0.5">
</ellipse>
<path fill-rule="evenodd"  fill="rgba(99, 141, 255, 1)"  d="M18.3707 193.93C21.3069 193.93 23.6872 191.546 23.6872 188.606C23.6872 185.665 21.3069 183.282 18.3707 183.282C15.4345 183.282 13.0542 185.665 13.0542 188.606C13.0542 191.546 15.4345 193.93 18.3707 193.93ZM18.3707 185.519C20.0752 185.519 21.4496 186.901 21.4496 188.606C21.4496 190.306 20.0711 191.692 18.3707 191.692C16.6662 191.692 15.2919 190.31 15.2919 188.606C15.2919 186.905 16.6703 185.519 18.3707 185.519Z">
</path>
</g>
<g opacity="0.8">
<ellipse cx="18.371132884533836" cy="188.60569763183594" rx="3.5443153381347656" ry="3.5493011474609375"   fill="#9EB8FF" >
</ellipse>
</g>
<g opacity="0.8">
<path    stroke="rgba(99, 141, 255, 1)" stroke-width="1.078680203045685"    d="M29.7184 188.482L29.7184 118.755L25.1332 114.166L25.1332 96.3237">
</path>
</g>
<g opacity="0.8">
<path    stroke="rgba(99, 141, 255, 1)" stroke-width="1.078680203045685"    d="M29.9026 188.055L22.5105 179.475L22.5105 129.893L19.5014 124.431L19.5014 107.498">
</path>
</g>
<g opacity="0.8">
<path    stroke="rgba(99, 141, 255, 1)" stroke-width="1.078680203045685"    d="M9.81925 163.259L13.7659 154.715L13.7659 105.337L16.6986 99.8976L16.6986 83.0344">
</path>
</g>
<g filter="url(#filter_VYEPor1AKP2Smm89wiKn-)">
<ellipse cx="12.674321208508445" cy="147.1549072265625" rx="0.886077880859375" ry="0.8873291015625"   fill="#638DFF" >
</ellipse>
</g>
<g filter="url(#filter_bVkmkNl9L1Z6GdErVX6v9)">
<ellipse cx="18.497441325695945" cy="146.3944091796875" rx="0.886077880859375" ry="0.8873291015625"   fill="#638DFF" >
</ellipse>
</g>
<g filter="url(#filter_pOW1o8nEIKx5xysKrtv-8)">
<ellipse cx="16.725346599133445" cy="169.4649658203125" rx="0.886077880859375" ry="0.8873291015625"   fill="#638DFF" >
</ellipse>
</g>
<g filter="url(#filter_-N91L27kVtw3YZ5Ulnmo7)">
<ellipse cx="29.636479411633445" cy="188.4783935546875" rx="0.886077880859375" ry="0.8873291015625"   fill="#638DFF" >
</ellipse>
</g>
<g filter="url(#filter_ndb0Yft2cNSyYs7WOLP1m)">
<ellipse cx="7.358159099133445" cy="130.1688232421875" rx="0.886077880859375" ry="0.8873291015625"   fill="#638DFF" >
</ellipse>
</g>
<g filter="url(#filter_QS5NMF0g1Tt3NDT95MG-H)">
<ellipse cx="25.839116130383445" cy="127.1270751953125" rx="0.886077880859375" ry="0.8873291015625"   fill="#638DFF" >
</ellipse>
</g>
<g filter="url(#filter_AW4fa9v9QYnjaABkKVB_Y)">
<ellipse cx="26.598881755383445" cy="138.0284423828125" rx="0.886077880859375" ry="0.8873291015625"   fill="#638DFF" >
</ellipse>
</g>
<g filter="url(#filter_xqPhYq9-psOAfGBx6Qb0W)">
<ellipse cx="10.902470622570945" cy="167.6900634765625" rx="0.886077880859375" ry="0.8873291015625"   fill="#638DFF" >
</ellipse>
</g>
<g filter="url(#filter_l8BbjUcw1_aANvo4uxi3d)">
<ellipse cx="26.092167888195945" cy="148.1690673828125" rx="0.886077880859375" ry="0.8873291015625"   fill="#638DFF" >
</ellipse>
</g>
<g opacity="0.8">
<path   fill="rgba(99, 141, 255, 1)"  d="M239.551 11.8712C241.806 11.8712 243.634 13.6995 243.634 15.9548L243.095 15.9548L243.634 15.9548L243.634 104.439L242.556 104.439L242.556 15.9548L242.556 15.9548C242.556 14.2952 241.21 12.9499 239.551 12.9499L239.551 11.8712Z">
</path>
</g>
<g opacity="0.8">
<ellipse  cx="234.23485282471938" cy="12.156951904296875" rx="5.3164825439453125" ry="5.323944091796875"    fill="url(#linear_fill_tfVu7YBMliGFhOBqYiPeI_0)" fill-opacity="0.5">
</ellipse>
<path fill-rule="evenodd"  fill="rgba(99, 141, 255, 1)"  d="M234.235 17.4809C237.171 17.4809 239.551 15.0973 239.551 12.1569C239.551 9.21662 237.171 6.83301 234.235 6.83301C231.299 6.83301 228.918 9.21662 228.918 12.1569C228.918 15.0973 231.299 17.4809 234.235 17.4809ZM234.235 9.07063C235.939 9.07063 237.314 10.4524 237.314 12.1569C237.314 13.8574 235.935 15.2433 234.235 15.2433C232.53 15.2433 231.156 13.8615 231.156 12.1569C231.156 10.4565 232.534 9.07063 234.235 9.07063Z">
</path>
</g>
<g opacity="0.8">
<ellipse cx="234.23465446046157" cy="12.157081604003906" rx="3.5443115234375" ry="3.5492935180664062"   fill="#9EB8FF" >
</ellipse>
</g>
<g opacity="0.8">
<path    stroke="rgba(99, 141, 255, 1)" stroke-width="1.078680203045685"    d="M222.887 12.2803L222.887 82.0075L227.472 86.597L227.472 104.439">
</path>
</g>
<g opacity="0.8">
<path    stroke="rgba(99, 141, 255, 1)" stroke-width="1.078680203045685"    d="M222.887 12.6698L230.232 21.2642L230.232 70.9342L233.222 76.4055L233.222 93.3684">
</path>
</g>
<g opacity="0.8">
<path    stroke="rgba(99, 141, 255, 1)" stroke-width="1.078680203045685"    d="M242.843 37.5093L238.921 46.0683L238.921 95.5337L236.007 100.983L236.007 117.875">
</path>
</g>
<g filter="url(#filter_xhRHrBzrR_j5r9wb-z6ul)">
<ellipse cx="239.93091300538345" cy="53.607666015625" rx="0.886077880859375" ry="0.8873291015625"   fill="#638DFF" >
</ellipse>
</g>
<g filter="url(#filter_y2hALkXN8l3Ry5Dpg-uBs)">
<ellipse cx="234.10815909913345" cy="54.3682861328125" rx="0.886077880859375" ry="0.8873291015625"   fill="#638DFF" >
</ellipse>
</g>
<g filter="url(#filter_8g5QtxyDqv2HOhHMtoCtF)">
<ellipse cx="235.88062003663345" cy="31.29772186279297" rx="0.886077880859375" ry="0.8873214721679688"   fill="#638DFF" >
</ellipse>
</g>
<g filter="url(#filter_w8tXk5Ab2MEG2hm_KFk-i)">
<ellipse cx="222.96875480225845" cy="12.283805847167969" rx="0.886077880859375" ry="0.8873214721679688"   fill="#638DFF" >
</ellipse>
</g>
<g filter="url(#filter_8wfURB66DZiaqxIh7xkp7)">
<ellipse cx="245.24780753663345" cy="70.5933837890625" rx="0.886077880859375" ry="0.8873291015625"   fill="#638DFF" >
</ellipse>
</g>
<g filter="url(#filter_7kZtq1WLp0HdsiVLOUN1D)">
<ellipse cx="226.76636222413345" cy="73.6358642578125" rx="0.886077880859375" ry="0.8873291015625"   fill="#638DFF" >
</ellipse>
</g>
<g filter="url(#filter_a99qvXlfqlcPbiLthgLQl)">
<ellipse cx="226.00708488038345" cy="62.7342529296875" rx="0.886077880859375" ry="0.8873291015625"   fill="#638DFF" >
</ellipse>
</g>
<g filter="url(#filter_AmQmJv-oUNDujS8-rmfOF)">
<ellipse cx="241.70337394288345" cy="33.0723876953125" rx="0.886077880859375" ry="0.8873291015625"   fill="#638DFF" >
</ellipse>
</g>
<g filter="url(#filter_I7UTAXBspNr_Dgwp6n1xg)">
<ellipse cx="226.51318839600845" cy="52.59326171875" rx="0.886077880859375" ry="0.8873291015625"   fill="#638DFF" >
</ellipse>
</g>
<g opacity="0.8">
<path   fill="rgba(99, 141, 255, 1)"  d="M239.551 187.815C241.21 187.815 242.556 186.469 242.556 184.81L243.095 184.81L242.556 184.81L242.556 96.3257L243.634 96.3257L243.634 184.81L243.634 184.81C243.634 187.065 241.806 188.893 239.551 188.893L239.551 187.815Z">
</path>
</g>
<g opacity="0.8">
<ellipse  cx="234.23485282471938" cy="188.60763549804688" rx="5.3164825439453125" ry="5.323944091796875"    fill="url(#linear_fill_9yVmmkw3PKtwk9ORQtcWg_0)" fill-opacity="0.5">
</ellipse>
<path fill-rule="evenodd"  fill="rgba(99, 141, 255, 1)"  d="M234.235 193.932C237.171 193.932 239.551 191.548 239.551 188.608C239.551 185.667 237.171 183.284 234.235 183.284C231.299 183.284 228.918 185.667 228.918 188.608C228.918 191.548 231.299 193.932 234.235 193.932ZM234.235 185.521C235.939 185.521 237.314 186.903 237.314 188.608C237.314 190.308 235.935 191.694 234.235 191.694C232.53 191.694 231.156 190.312 231.156 188.608C231.156 186.907 232.534 185.521 234.235 185.521Z">
</path>
</g>
<g opacity="0.8">
<ellipse cx="234.23465446046157" cy="188.60765075683594" rx="3.5443115234375" ry="3.5493011474609375"   fill="#9EB8FF" >
</ellipse>
</g>
<g opacity="0.8">
<path    stroke="rgba(99, 141, 255, 1)" stroke-width="1.078680203045685"    d="M222.887 188.484L222.887 118.757L227.472 114.168L227.472 96.3257">
</path>
</g>
<g opacity="0.8">
<path    stroke="rgba(99, 141, 255, 1)" stroke-width="1.078680203045685"    d="M222.887 188.095L230.232 179.5L230.232 129.83L233.222 124.359L233.222 107.396">
</path>
</g>
<g opacity="0.8">
<path    stroke="rgba(99, 141, 255, 1)" stroke-width="1.078680203045685"    d="M242.843 163.255L238.921 154.696L238.921 105.231L236.007 99.7819L236.007 82.8889">
</path>
</g>
<g filter="url(#filter_5yLP2WfxOy1VMYln_xH_h)">
<ellipse cx="239.93091300538345" cy="147.1568603515625" rx="0.886077880859375" ry="0.8873291015625"   fill="#638DFF" >
</ellipse>
</g>
<g filter="url(#filter_94Oz15ziktyiyc3CcbXQ2)">
<ellipse cx="234.10815909913345" cy="146.3963623046875" rx="0.886077880859375" ry="0.8873291015625"   fill="#638DFF" >
</ellipse>
</g>
<g filter="url(#filter_hzGng0wsgD8svdrVmJEPh)">
<ellipse cx="235.88062003663345" cy="169.4669189453125" rx="0.886077880859375" ry="0.8873291015625"   fill="#638DFF" >
</ellipse>
</g>
<g filter="url(#filter_4oI5xX8vDX31zLojnGeTT)">
<ellipse cx="222.96875480225845" cy="188.4805908203125" rx="0.886077880859375" ry="0.8873291015625"   fill="#638DFF" >
</ellipse>
</g>
<g filter="url(#filter_QS-2cASP0pr2qtxDQ81Nv)">
<ellipse cx="245.24780753663345" cy="130.1707763671875" rx="0.886077880859375" ry="0.8873291015625"   fill="#638DFF" >
</ellipse>
</g>
<g filter="url(#filter_Y3bdUjnHmDExXnxbb-Uvv)">
<ellipse cx="226.76636222413345" cy="127.1290283203125" rx="0.886077880859375" ry="0.8873291015625"   fill="#638DFF" >
</ellipse>
</g>
<g filter="url(#filter_kVQ7SLEps2BsAQcXdDaHg)">
<ellipse cx="226.00708488038345" cy="138.0301513671875" rx="0.886077880859375" ry="0.8873291015625"   fill="#638DFF" >
</ellipse>
</g>
<g filter="url(#filter_S4ov1GIXZBVCLMbSAxVMu)">
<ellipse cx="241.70337394288345" cy="167.6920166015625" rx="0.886077880859375" ry="0.8873291015625"   fill="#638DFF" >
</ellipse>
</g>
<g filter="url(#filter_FsNXa2Nj1TapoMzkW2yKe)">
<ellipse cx="226.51318839600845" cy="148.1710205078125" rx="0.886077880859375" ry="0.8873291015625"   fill="#638DFF" >
</ellipse>
</g>
<path   fill="rgba(157, 182, 250, 1)"  d="M5.47208 23.8169L5.47208 7.68919L6.47208 7.68919L5.47208 7.68919C5.47208 3.44257 8.91465 2.98023e-07 13.1613 2.98023e-07L13.1613 1L13.1613 2.98023e-07L29.257 2.98023e-07L29.257 2L13.1613 2L13.1613 2C10.0192 2 7.47208 4.54714 7.47208 7.68919L7.47208 7.68919L7.47208 23.8169L5.47208 23.8169Z">
</path>
<path   fill="rgba(157, 182, 250, 1)"  d="M245.13 23.8169L245.13 7.68919L246.13 7.68919L245.13 7.68919C245.13 4.54714 242.583 2 239.441 2L239.441 1L239.441 2L223.345 2L223.345 2.98023e-07L239.441 2.98023e-07L239.441 2.98023e-07C243.687 2.98023e-07 247.13 3.44257 247.13 7.68919L247.13 7.68919L247.13 23.8169L245.13 23.8169Z">
</path>
<path   fill="rgba(157, 182, 250, 1)"  d="M7.47208 176.183L7.47208 192.31L7.47208 192.31C7.47208 195.452 10.0192 198 13.1613 198L13.1613 199L13.1613 198L29.257 198L29.257 200L13.1613 200L13.1613 200C8.91465 200 5.47208 196.557 5.47208 192.31L6.47208 192.31L5.47208 192.31L5.47208 176.183L7.47208 176.183Z">
</path>
<path   fill="rgba(157, 182, 250, 1)"  d="M247.13 176.183L247.13 192.311L246.13 192.311L247.13 192.311C247.13 196.557 243.687 200 239.441 200L239.441 199L239.441 200L223.345 200L223.345 198L239.441 198L239.441 198C242.583 198 245.13 195.453 245.13 192.311L245.13 192.311L245.13 176.183L247.13 176.183Z">
</path>
<defs>
<linearGradient id="linear_fill_Pzr6vxPiYDIsv0yi5XRKy_0" x1="126.97202018311782" y1="1" x2="126.97202018311782" y2="198.99993896484375" gradientUnits="userSpaceOnUse">
<stop offset="0" stop-color="#D6E1FF"  />
<stop offset="0.1604" stop-color="#CFDBFF"  />
<stop offset="0.4998" stop-color="#EDF2FF"  />
<stop offset="0.7615" stop-color="#CFDBFF"  />
<stop offset="1" stop-color="#D9E3FF"  />
</linearGradient>
<linearGradient id="linear_fill_l-cTtOyCmL-iXTrf4pXQy_0" x1="126.01693061402602" y1="5.8167724609375" x2="126.01693061402602" y2="194.943359375" gradientUnits="userSpaceOnUse">
<stop offset="0" stop-color="#02C7F3" stop-opacity="0.78" />
<stop offset="0.2308939108062282" stop-color="#01BED2" stop-opacity="0.27" />
<stop offset="0.4998043668958934" stop-color="#00B8B8" stop-opacity="0" />
<stop offset="0.6665950329062942" stop-color="#01BECE" stop-opacity="0.13" />
<stop offset="1" stop-color="#02C7F3" stop-opacity="0.69" />
</linearGradient>
<linearGradient id="linear_fill_12_637_0" x1="126.29471305421157" y1="5.8167724609375" x2="126.29471305421157" y2="194.943359375" gradientUnits="userSpaceOnUse">
<stop offset="0" stop-color="#B3C7FF"  />
<stop offset="0.1604" stop-color="#D9E3FF"  />
<stop offset="0.4998" stop-color="#F0F4FF"  />
<stop offset="0.7615" stop-color="#D4DFFF"  />
<stop offset="1" stop-color="#BACDFF"  />
</linearGradient>
<mask id="mask-12_637" style="mask-type:alpha" maskUnits="userSpaceOnUse">
<rect  x="32.29471305421157" y="5.8167724609375" width="188" height="189.1265869140625" rx="14.02284263959391"    fill="url(#linear_fill_12_637_0)" >
</rect>
</mask>
<filter id="filter_12_638" x="-65.91534826598195" y="68.38905977355648" width="401.17207576538704" height="238.47932674194954" filterUnits="userSpaceOnUse" color-interpolation-filters="sRGB">
<feGaussianBlur result="gaussian_blur_12_638" stdDeviation="53.93401015228427"/>
</filter>
<linearGradient id="linear_fill_ebrzHLTPtsKYgcZDgnd0d_0" x1="18.37070945313735" y1="6.8310546875" x2="18.37070945313735" y2="17.47894287109375" gradientUnits="userSpaceOnUse">
<stop offset="0" stop-color="#02C7F3" stop-opacity="0.49" />
<stop offset="0.1603983954560783" stop-color="#01BED2" stop-opacity="0.27" />
<stop offset="0.4998043668958934" stop-color="#00B8B8" stop-opacity="0" />
<stop offset="0.7615314702124616" stop-color="#01BECE" stop-opacity="0.13" />
<stop offset="1" stop-color="#02C7F3" stop-opacity="0.34" />
</linearGradient>
<filter id="filter_AD8yQ8D_JqiU9Byim2-mg" x="5.316162109375" y="46.24630257078843" width="14.71637923342314" height="14.71882063967314" filterUnits="userSpaceOnUse" color-interpolation-filters="sRGB">
<feGaussianBlur result="gaussian_blur_AD8yQ8D_JqiU9Byim2-mg" stdDeviation="3.236040609137056"/>
</filter>
<filter id="filter_tqdJnoAVVzYXSsM3wRqjF" x="11.1392822265625" y="47.00692268797593" width="14.71637923342314" height="14.71882063967314" filterUnits="userSpaceOnUse" color-interpolation-filters="sRGB">
<feGaussianBlur result="gaussian_blur_tqdJnoAVVzYXSsM3wRqjF" stdDeviation="3.236040609137056"/>
</filter>
<filter id="filter_AIMOMArN10JzR2SMePkhD" x="9.3671875" y="23.93636604735093" width="14.71637923342314" height="14.71882063967314" filterUnits="userSpaceOnUse" color-interpolation-filters="sRGB">
<feGaussianBlur result="gaussian_blur_AIMOMArN10JzR2SMePkhD" stdDeviation="3.236040609137056"/>
</filter>
<filter id="filter_WbWLKFtb-Z7Ljj73Naxg8" x="22.2783203125" y="4.92245003172593" width="14.71637923342314" height="14.71882063967314" filterUnits="userSpaceOnUse" color-interpolation-filters="sRGB">
<feGaussianBlur result="gaussian_blur_WbWLKFtb-Z7Ljj73Naxg8" stdDeviation="3.236040609137056"/>
</filter>
<filter id="filter_L3TAS13n8aHdw670tN38u" x="0" y="63.23202034422593" width="14.71637923342314" height="14.71882063967314" filterUnits="userSpaceOnUse" color-interpolation-filters="sRGB">
<feGaussianBlur result="gaussian_blur_L3TAS13n8aHdw670tN38u" stdDeviation="3.236040609137056"/>
</filter>
<filter id="filter_vv8BWta9YhN5BsspUst_3" x="18.48095703125" y="66.27450081297593" width="14.71637923342314" height="14.71882063967314" filterUnits="userSpaceOnUse" color-interpolation-filters="sRGB">
<feGaussianBlur result="gaussian_blur_vv8BWta9YhN5BsspUst_3" stdDeviation="3.236040609137056"/>
</filter>
<filter id="filter_BgAZMmwvcNU_GTKacY4Ff" x="19.24072265625" y="55.37288948485093" width="14.71637923342314" height="14.71882063967314" filterUnits="userSpaceOnUse" color-interpolation-filters="sRGB">
<feGaussianBlur result="gaussian_blur_BgAZMmwvcNU_GTKacY4Ff" stdDeviation="3.236040609137056"/>
</filter>
<filter id="filter_19tHJ0OXceUz8r-zKvCZA" x="3.5443115234375" y="25.71102425047593" width="14.71637923342314" height="14.71882063967314" filterUnits="userSpaceOnUse" color-interpolation-filters="sRGB">
<feGaussianBlur result="gaussian_blur_19tHJ0OXceUz8r-zKvCZA" stdDeviation="3.236040609137056"/>
</filter>
<filter id="filter_bcNKGg-94DLAJqvMV0c31" x="18.7340087890625" y="45.23202034422593" width="14.71637923342314" height="14.71882063967314" filterUnits="userSpaceOnUse" color-interpolation-filters="sRGB">
<feGaussianBlur result="gaussian_blur_bcNKGg-94DLAJqvMV0c31" stdDeviation="3.236040609137056"/>
</filter>
<linearGradient id="linear_fill_S6KxKWRQ7bS7KjZMGjJzq_0" x1="18.37070945313735" y1="193.92962646484375" x2="18.37070945313735" y2="183.28173828125" gradientUnits="userSpaceOnUse">
<stop offset="0" stop-color="#02C7F3" stop-opacity="0.49" />
<stop offset="0.1603983954560783" stop-color="#01BED2" stop-opacity="0.27" />
<stop offset="0.4998043668958934" stop-color="#00B8B8" stop-opacity="0" />
<stop offset="0.7615314702124616" stop-color="#01BECE" stop-opacity="0.13" />
<stop offset="1" stop-color="#02C7F3" stop-opacity="0.34" />
</linearGradient>
<filter id="filter_VYEPor1AKP2Smm89wiKn-" x="5.316162109375" y="139.79549690672593" width="14.71637923342314" height="14.71882063967314" filterUnits="userSpaceOnUse" color-interpolation-filters="sRGB">
<feGaussianBlur result="gaussian_blur_VYEPor1AKP2Smm89wiKn-" stdDeviation="3.236040609137056"/>
</filter>
<filter id="filter_bVkmkNl9L1Z6GdErVX6v9" x="11.1392822265625" y="139.03499885985093" width="14.71637923342314" height="14.71882063967314" filterUnits="userSpaceOnUse" color-interpolation-filters="sRGB">
<feGaussianBlur result="gaussian_blur_bVkmkNl9L1Z6GdErVX6v9" stdDeviation="3.236040609137056"/>
</filter>
<filter id="filter_pOW1o8nEIKx5xysKrtv-8" x="9.3671875" y="162.10555550047593" width="14.71637923342314" height="14.71882063967314" filterUnits="userSpaceOnUse" color-interpolation-filters="sRGB">
<feGaussianBlur result="gaussian_blur_pOW1o8nEIKx5xysKrtv-8" stdDeviation="3.236040609137056"/>
</filter>
<filter id="filter_-N91L27kVtw3YZ5Ulnmo7" x="22.2783203125" y="181.11898323485093" width="14.71637923342314" height="14.71882063967314" filterUnits="userSpaceOnUse" color-interpolation-filters="sRGB">
<feGaussianBlur result="gaussian_blur_-N91L27kVtw3YZ5Ulnmo7" stdDeviation="3.236040609137056"/>
</filter>
<filter id="filter_ndb0Yft2cNSyYs7WOLP1m" x="0" y="122.80941292235093" width="14.71637923342314" height="14.71882063967314" filterUnits="userSpaceOnUse" color-interpolation-filters="sRGB">
<feGaussianBlur result="gaussian_blur_ndb0Yft2cNSyYs7WOLP1m" stdDeviation="3.236040609137056"/>
</filter>
<filter id="filter_QS5NMF0g1Tt3NDT95MG-H" x="18.48095703125" y="119.76766487547593" width="14.71637923342314" height="14.71882063967314" filterUnits="userSpaceOnUse" color-interpolation-filters="sRGB">
<feGaussianBlur result="gaussian_blur_QS5NMF0g1Tt3NDT95MG-H" stdDeviation="3.236040609137056"/>
</filter>
<filter id="filter_AW4fa9v9QYnjaABkKVB_Y" x="19.24072265625" y="130.66903206297593" width="14.71637923342314" height="14.71882063967314" filterUnits="userSpaceOnUse" color-interpolation-filters="sRGB">
<feGaussianBlur result="gaussian_blur_AW4fa9v9QYnjaABkKVB_Y" stdDeviation="3.236040609137056"/>
</filter>
<filter id="filter_xqPhYq9-psOAfGBx6Qb0W" x="3.5443115234375" y="160.33065315672593" width="14.71637923342314" height="14.71882063967314" filterUnits="userSpaceOnUse" color-interpolation-filters="sRGB">
<feGaussianBlur result="gaussian_blur_xqPhYq9-psOAfGBx6Qb0W" stdDeviation="3.236040609137056"/>
</filter>
<filter id="filter_l8BbjUcw1_aANvo4uxi3d" x="18.7340087890625" y="140.80965706297593" width="14.71637923342314" height="14.71882063967314" filterUnits="userSpaceOnUse" color-interpolation-filters="sRGB">
<feGaussianBlur result="gaussian_blur_l8BbjUcw1_aANvo4uxi3d" stdDeviation="3.236040609137056"/>
</filter>
<linearGradient id="linear_fill_tfVu7YBMliGFhOBqYiPeI_0" x1="234.23485282471938" y1="6.8330078125" x2="234.23485282471938" y2="17.48089599609375" gradientUnits="userSpaceOnUse">
<stop offset="0" stop-color="#02C7F3" stop-opacity="0.49" />
<stop offset="0.1603983954560783" stop-color="#01BED2" stop-opacity="0.27" />
<stop offset="0.4998043668958934" stop-color="#00B8B8" stop-opacity="0" />
<stop offset="0.7615314702124616" stop-color="#01BECE" stop-opacity="0.13" />
<stop offset="1" stop-color="#02C7F3" stop-opacity="0.34" />
</linearGradient>
<filter id="filter_xhRHrBzrR_j5r9wb-z6ul" x="232.57275390625" y="46.24825569578843" width="14.71637923342314" height="14.71882063967314" filterUnits="userSpaceOnUse" color-interpolation-filters="sRGB">
<feGaussianBlur result="gaussian_blur_xhRHrBzrR_j5r9wb-z6ul" stdDeviation="3.236040609137056"/>
</filter>
<filter id="filter_y2hALkXN8l3Ry5Dpg-uBs" x="226.75" y="47.00887581297593" width="14.71637923342314" height="14.71882063967314" filterUnits="userSpaceOnUse" color-interpolation-filters="sRGB">
<feGaussianBlur result="gaussian_blur_y2hALkXN8l3Ry5Dpg-uBs" stdDeviation="3.236040609137056"/>
</filter>
<filter id="filter_8g5QtxyDqv2HOhHMtoCtF" x="228.5224609375" y="23.93831917235093" width="14.71637923342314" height="14.71882063967314" filterUnits="userSpaceOnUse" color-interpolation-filters="sRGB">
<feGaussianBlur result="gaussian_blur_8g5QtxyDqv2HOhHMtoCtF" stdDeviation="3.236040609137056"/>
</filter>
<filter id="filter_w8tXk5Ab2MEG2hm_KFk-i" x="215.610595703125" y="4.92440315672593" width="14.71637923342314" height="14.71882063967314" filterUnits="userSpaceOnUse" color-interpolation-filters="sRGB">
<feGaussianBlur result="gaussian_blur_w8tXk5Ab2MEG2hm_KFk-i" stdDeviation="3.236040609137056"/>
</filter>
<filter id="filter_8wfURB66DZiaqxIh7xkp7" x="237.8896484375" y="63.23397346922593" width="14.71637923342314" height="14.71882063967314" filterUnits="userSpaceOnUse" color-interpolation-filters="sRGB">
<feGaussianBlur result="gaussian_blur_8wfURB66DZiaqxIh7xkp7" stdDeviation="3.236040609137056"/>
</filter>
<filter id="filter_7kZtq1WLp0HdsiVLOUN1D" x="219.408203125" y="66.27645393797593" width="14.71637923342314" height="14.71882063967314" filterUnits="userSpaceOnUse" color-interpolation-filters="sRGB">
<feGaussianBlur result="gaussian_blur_7kZtq1WLp0HdsiVLOUN1D" stdDeviation="3.236040609137056"/>
</filter>
<filter id="filter_a99qvXlfqlcPbiLthgLQl" x="218.64892578125" y="55.37484260985093" width="14.71637923342314" height="14.71882063967314" filterUnits="userSpaceOnUse" color-interpolation-filters="sRGB">
<feGaussianBlur result="gaussian_blur_a99qvXlfqlcPbiLthgLQl" stdDeviation="3.236040609137056"/>
</filter>
<filter id="filter_AmQmJv-oUNDujS8-rmfOF" x="234.34521484375" y="25.71297737547593" width="14.71637923342314" height="14.71882063967314" filterUnits="userSpaceOnUse" color-interpolation-filters="sRGB">
<feGaussianBlur result="gaussian_blur_AmQmJv-oUNDujS8-rmfOF" stdDeviation="3.236040609137056"/>
</filter>
<filter id="filter_I7UTAXBspNr_Dgwp6n1xg" x="219.155029296875" y="45.23385139891343" width="14.71637923342314" height="14.71882063967314" filterUnits="userSpaceOnUse" color-interpolation-filters="sRGB">
<feGaussianBlur result="gaussian_blur_I7UTAXBspNr_Dgwp6n1xg" stdDeviation="3.236040609137056"/>
</filter>
<linearGradient id="linear_fill_9yVmmkw3PKtwk9ORQtcWg_0" x1="234.23485282471938" y1="193.93157958984375" x2="234.23485282471938" y2="183.28369140625" gradientUnits="userSpaceOnUse">
<stop offset="0" stop-color="#02C7F3" stop-opacity="0.49" />
<stop offset="0.1603983954560783" stop-color="#01BED2" stop-opacity="0.27" />
<stop offset="0.4998043668958934" stop-color="#00B8B8" stop-opacity="0" />
<stop offset="0.7615314702124616" stop-color="#01BECE" stop-opacity="0.13" />
<stop offset="1" stop-color="#02C7F3" stop-opacity="0.34" />
</linearGradient>
<filter id="filter_5yLP2WfxOy1VMYln_xH_h" x="232.57275390625" y="139.79745003172593" width="14.71637923342314" height="14.71882063967314" filterUnits="userSpaceOnUse" color-interpolation-filters="sRGB">
<feGaussianBlur result="gaussian_blur_5yLP2WfxOy1VMYln_xH_h" stdDeviation="3.236040609137056"/>
</filter>
<filter id="filter_94Oz15ziktyiyc3CcbXQ2" x="226.75" y="139.03695198485093" width="14.71637923342314" height="14.71882063967314" filterUnits="userSpaceOnUse" color-interpolation-filters="sRGB">
<feGaussianBlur result="gaussian_blur_94Oz15ziktyiyc3CcbXQ2" stdDeviation="3.236040609137056"/>
</filter>
<filter id="filter_hzGng0wsgD8svdrVmJEPh" x="228.5224609375" y="162.10750862547593" width="14.71637923342314" height="14.71882063967314" filterUnits="userSpaceOnUse" color-interpolation-filters="sRGB">
<feGaussianBlur result="gaussian_blur_hzGng0wsgD8svdrVmJEPh" stdDeviation="3.236040609137056"/>
</filter>
<filter id="filter_4oI5xX8vDX31zLojnGeTT" x="215.610595703125" y="181.12118050047593" width="14.71637923342314" height="14.71882063967314" filterUnits="userSpaceOnUse" color-interpolation-filters="sRGB">
<feGaussianBlur result="gaussian_blur_4oI5xX8vDX31zLojnGeTT" stdDeviation="3.236040609137056"/>
</filter>
<filter id="filter_QS-2cASP0pr2qtxDQ81Nv" x="237.8896484375" y="122.81136604735093" width="14.71637923342314" height="14.71882063967314" filterUnits="userSpaceOnUse" color-interpolation-filters="sRGB">
<feGaussianBlur result="gaussian_blur_QS-2cASP0pr2qtxDQ81Nv" stdDeviation="3.236040609137056"/>
</filter>
<filter id="filter_Y3bdUjnHmDExXnxbb-Uvv" x="219.408203125" y="119.76961800047593" width="14.71637923342314" height="14.71882063967314" filterUnits="userSpaceOnUse" color-interpolation-filters="sRGB">
<feGaussianBlur result="gaussian_blur_Y3bdUjnHmDExXnxbb-Uvv" stdDeviation="3.236040609137056"/>
</filter>
<filter id="filter_kVQ7SLEps2BsAQcXdDaHg" x="218.64892578125" y="130.67074104735093" width="14.71637923342314" height="14.71882063967314" filterUnits="userSpaceOnUse" color-interpolation-filters="sRGB">
<feGaussianBlur result="gaussian_blur_kVQ7SLEps2BsAQcXdDaHg" stdDeviation="3.236040609137056"/>
</filter>
<filter id="filter_S4ov1GIXZBVCLMbSAxVMu" x="234.34521484375" y="160.33260628172593" width="14.71637923342314" height="14.71882063967314" filterUnits="userSpaceOnUse" color-interpolation-filters="sRGB">
<feGaussianBlur result="gaussian_blur_S4ov1GIXZBVCLMbSAxVMu" stdDeviation="3.236040609137056"/>
</filter>
<filter id="filter_FsNXa2Nj1TapoMzkW2yKe" x="219.155029296875" y="140.81161018797593" width="14.71637923342314" height="14.71882063967314" filterUnits="userSpaceOnUse" color-interpolation-filters="sRGB">
<feGaussianBlur result="gaussian_blur_FsNXa2Nj1TapoMzkW2yKe" stdDeviation="3.236040609137056"/>
</filter>
</defs>
</svg>
