<svg xmlns="http://www.w3.org/2000/svg" xmlns:xlink="http://www.w3.org/1999/xlink" width="1803.2550048828125" height="496.6668701171875" viewBox="0 0 1803.2550048828125 496.6668701171875" fill="none">
<path d="M36.6974 2.72827L2.11739 36.1483L2.11739 458.328L36.6974 491.748L1758.56 491.748L1793.14 458.328L1793.14 216.798L1793.14 36.1483L1758.56 2.72827L36.6974 2.72827Z" stroke="rgba(169, 193, 255, 1)" stroke-width="1.700897223285283"   >
</path>
<path d="M1773.33 2.72827L1779.15 2.72827L1803.14 26.5036L1803.14 31.947L1773.33 2.72827Z"   fill="#A9C1FF" >
</path>
<path d="M1782.06 2L1787.87 2L1803.14 17.2363L1803.14 22.679L1782.06 2Z"   fill="#A9C1FF" >
</path>
<path d="M1773.33 493.938L1779.15 493.938L1803.14 470.163L1803.14 464.719L1773.33 493.938Z"   fill="#A9C1FF" >
</path>
<path d="M1782.06 494.666L1787.87 494.666L1803.14 479.43L1803.14 473.987L1782.06 494.666Z"   fill="#A9C1FF" >
</path>
<path d="M29.9253 0.728271L24.1089 0.728271L0.112793 24.5036L0.112793 29.947L29.9253 0.728271Z"   fill="#A9C1FF" >
</path>
<path d="M21.1997 0L15.3818 0L0.112793 15.2363L0.112793 20.679L21.1997 0Z"   fill="#A9C1FF" >
</path>
<path d="M29.9253 495.938L24.1089 495.938L0.112793 472.163L0.112793 466.719L29.9253 495.938Z"   fill="#A9C1FF" >
</path>
<path d="M21.1997 496.666L15.3818 496.666L0.112793 481.43L0.112793 475.987L21.1997 496.666Z"   fill="#A9C1FF" >
</path>
</svg>
