<svg xmlns="http://www.w3.org/2000/svg" xmlns:xlink="http://www.w3.org/1999/xlink" width="16" height="16" viewBox="0 0 16 16" fill="none">
<path     fill="#5380FD"  d="M0.824041 0.176025C1.15204 0.176025 1.43804 0.418024 1.49404 0.746024L1.50404 0.856024L1.50404 13.566C1.50404 14.1183 1.95175 14.566 2.50404 14.566L15.284 14.566C15.612 14.566 15.8979 14.808 15.954 15.136L15.964 15.246C15.964 15.574 15.722 15.86 15.394 15.916L1.14404 15.916C0.591757 15.916 0.144043 15.4683 0.144043 14.916L0.144043 0.846024C0.144043 0.478024 0.448041 0.176025 0.824041 0.176025Z">
</path>
<path d="M8.55998 13.376C7.59198 13.376 6.79998 12.584 6.79998 11.616C6.79998 10.648 7.59198 9.856 8.55998 9.856C9.52798 9.856 10.32 10.648 10.32 11.616C10.32 12.584 9.52798 13.376 8.55998 13.376ZM8.55998 10.664C8.03198 10.664 7.59998 11.096 7.59998 11.624C7.59998 12.152 8.03198 12.584 8.55998 12.584C9.08798 12.584 9.51998 12.152 9.51998 11.624C9.51198 11.096 9.08798 10.664 8.55998 10.664L8.55998 10.584L8.55998 10.664ZM4.86398 10.952C3.91998 10.952 3.15198 10.184 3.15198 9.24C3.15198 8.296 3.91998 7.528 4.86398 7.528C5.80798 7.528 6.57598 8.296 6.57598 9.24C6.57598 10.184 5.80798 10.952 4.86398 10.952ZM4.86398 8.32C4.35998 8.32 3.95198 8.728 3.95198 9.232C3.95198 9.736 4.35998 10.144 4.86398 10.144C5.36798 10.144 5.77598 9.736 5.77598 9.232C5.77598 8.728 5.36798 8.32 4.86398 8.32ZM10.312 9C9.95198 9 9.60798 8.864 9.34398 8.624C8.75198 8.088 8.70398 7.168 9.23998 6.568C9.51198 6.264 9.91198 6.088 10.32 6.088C10.68 6.088 11.024 6.224 11.288 6.464C11.576 6.728 11.744 7.08 11.768 7.464C11.792 7.848 11.656 8.224 11.392 8.512C11.128 8.8 10.776 8.968 10.392 8.992C10.368 9 10.336 9 10.312 9ZM10.312 6.896C10.12 6.896 9.95198 6.968 9.82398 7.112C9.58398 7.384 9.60798 7.792 9.87198 8.032C9.99198 8.136 10.144 8.2 10.296 8.2L10.336 8.2C10.512 8.192 10.672 8.112 10.784 7.984C10.904 7.856 10.96 7.688 10.952 7.512C10.944 7.336 10.864 7.176 10.736 7.064C10.624 6.952 10.472 6.896 10.312 6.896ZM13.088 6.576C12.792 6.576 12.504 6.464 12.288 6.264C11.8 5.824 11.76 5.064 12.2 4.568C12.424 4.32 12.752 4.176 13.088 4.176C13.384 4.176 13.672 4.288 13.888 4.488C14.376 4.936 14.416 5.688 13.976 6.184C13.752 6.432 13.424 6.576 13.088 6.576ZM13.088 4.976C12.976 4.976 12.864 5.024 12.792 5.104C12.648 5.264 12.656 5.52 12.824 5.664C12.896 5.728 12.992 5.768 13.088 5.768C13.2 5.768 13.312 5.72 13.384 5.64C13.456 5.56 13.488 5.456 13.488 5.352C13.48 5.248 13.44 5.144 13.36 5.08C13.28 5.016 13.192 4.976 13.088 4.976ZM5.55198 6.008C4.78398 6.008 4.15998 5.384 4.15998 4.616C4.15998 3.848 4.78398 3.224 5.55198 3.224C6.31998 3.224 6.94398 3.848 6.94398 4.616C6.94398 5.384 6.31998 6.008 5.55198 6.008ZM5.55198 4.024C5.22398 4.024 4.95998 4.288 4.95998 4.616C4.95998 4.944 5.22398 5.208 5.55198 5.208C5.87998 5.208 6.14398 4.944 6.14398 4.616C6.14398 4.288 5.87998 4.024 5.55198 4.024ZM11.976 3.712C11.704 3.712 11.448 3.616 11.256 3.432C10.816 3.032 10.784 2.352 11.176 1.912C11.384 1.688 11.672 1.56 11.976 1.56C12.24 1.56 12.496 1.656 12.696 1.832C12.912 2.024 13.032 2.288 13.048 2.576C13.064 2.864 12.96 3.144 12.768 3.352C12.576 3.584 12.288 3.712 11.976 3.712ZM11.976 2.368C11.896 2.368 11.824 2.4 11.768 2.456C11.72 2.512 11.696 2.584 11.696 2.656C11.696 2.728 11.728 2.8 11.784 2.848C11.832 2.896 11.896 2.92 11.968 2.92C12.048 2.92 12.12 2.888 12.176 2.832C12.224 2.776 12.248 2.712 12.248 2.632C12.24 2.56 12.208 2.488 12.152 2.44C12.112 2.392 12.048 2.368 11.976 2.368Z"   fill="#5380FD" >
</path>
</svg>
