<svg xmlns="http://www.w3.org/2000/svg" xmlns:xlink="http://www.w3.org/1999/xlink" width="22.9217529296875" height="22.9217529296875" viewBox="0 0 22.9217529296875 22.9217529296875" fill="none">
<path     fill="#0848FD"  d="M4.58386 18.4643C4.58386 18.816 4.86893 19.1011 5.22058 19.1011L17.7002 19.1011C18.0519 19.1011 18.3369 18.816 18.3369 18.4643L18.3369 11.3331C18.3369 10.9815 18.0519 10.6964 17.7002 10.6964L5.22058 10.6964C4.86893 10.6964 4.58386 10.9815 4.58386 11.3331L4.58386 18.4643Z">
</path>
<path   fill="rgba(8, 72, 253, 1)"  d="M5.0614 11.3331L5.0614 18.4643C5.0614 18.5523 5.13267 18.6235 5.22058 18.6235L17.7002 18.6235C17.7881 18.6235 17.8594 18.5523 17.8594 18.4643L17.8594 11.3331C17.8594 11.2452 17.7881 11.1739 17.7002 11.1739L5.22058 11.1739C5.13267 11.1739 5.0614 11.2452 5.0614 11.3331L4.10632 11.3331C4.10632 10.7177 4.60519 10.2189 5.22058 10.2189L17.7002 10.2189C18.3156 10.2189 18.8145 10.7177 18.8145 11.3331L18.8145 18.4643C18.8145 19.0797 18.3156 19.5786 17.7002 19.5786L5.22058 19.5786C4.60519 19.5786 4.10632 19.0797 4.10632 18.4643L4.10632 11.3331L5.0614 11.3331Z">
</path>
<path    stroke="rgba(8, 72, 253, 1)" stroke-width="1.337104915818533" stroke-linejoin="round" stroke-linecap="round"  d="M7.64038 10.6973L7.64038 7.6411C7.64038 5.53121 9.35081 3.8208 11.4607 3.8208C13.5706 3.8208 15.281 5.53121 15.281 7.6411L15.281 10.6973">
</path>
<path    stroke="rgba(245, 249, 254, 1)" stroke-width="1.337104915818533" stroke-linejoin="round" stroke-linecap="round"  d="M11.4604 13.7526L11.4604 15.1926">
</path>
</svg>
