<svg xmlns="http://www.w3.org/2000/svg" xmlns:xlink="http://www.w3.org/1999/xlink" width="22.9217529296875" height="22.9217529296875" viewBox="0 0 22.9217529296875 22.9217529296875" fill="none">
<path d="M14.4322 6.7919C14.4322 5.15087 13.1019 3.82056 11.4608 3.82056C9.81982 3.82056 8.4895 5.15087 8.4895 6.7919C8.4895 8.43293 9.81982 9.76324 11.4608 9.76324C13.1019 9.76324 14.4322 8.43293 14.4322 6.7919Z" stroke="rgba(8, 72, 253, 1)" stroke-width="1.337104915818533" stroke-linejoin="round" stroke-linecap="round"    fill="#0848FD" >
</path>
<path d="M3.82019 19.1017L19.1014 19.1017L19.1014 18.5924C19.1014 16.6905 19.1014 15.7396 18.7313 15.0132C18.4057 14.3743 17.8862 13.8547 17.2472 13.5292C16.5208 13.1591 15.5699 13.1591 13.6681 13.1591L9.25351 13.1591C7.35168 13.1591 6.40076 13.1591 5.67435 13.5292C5.03538 13.8547 4.51588 14.3743 4.19031 15.0132C3.82019 15.7396 3.82019 16.6905 3.82019 18.5924L3.82019 19.1017Z" stroke="rgba(8, 72, 253, 1)" stroke-width="1.337104915818533" stroke-linejoin="round" stroke-linecap="round"    fill="#0848FD" >
</path>
</svg>
