<svg xmlns="http://www.w3.org/2000/svg" xmlns:xlink="http://www.w3.org/1999/xlink" width="219" height="53.560546875" viewBox="0 0 219 53.560546875" fill="none">
<path d="M22.5436 6.89677e-06L53.5716 6.89677e-06C56.1934 3.40827 56.4339 12.3968 47.9673 12.3968L45.8892 12.3968C45.8098 7.45634 40.6505 4.59888 34.3078 4.92359C30.3078 5.12804 26.2044 5.83278 22.2814 6.64817C17.9327 7.55255 13.5792 8.65897 9.29297 9.91452C9.33753 9.74572 9.38539 9.57783 9.43654 9.41088C9.48771 9.24396 9.54213 9.07806 9.59981 8.91326C9.6575 8.74847 9.7184 8.58486 9.78251 8.42246C9.84664 8.26006 9.91393 8.09898 9.98439 7.93922C10.0548 7.77946 10.1284 7.62114 10.2051 7.46427C10.2818 7.30743 10.3615 7.15214 10.4443 6.9984C10.5271 6.84468 10.6129 6.69264 10.7017 6.54229C10.7905 6.39193 10.8822 6.24338 10.9768 6.09664C11.0714 5.94989 11.1689 5.80507 11.2692 5.66215C11.3695 5.51925 11.4726 5.37838 11.5785 5.23949C11.6843 5.10066 11.7929 4.96395 11.9041 4.82935C12.0154 4.69477 12.1292 4.56244 12.2456 4.43231C12.362 4.30221 12.481 4.17444 12.6025 4.04901C12.724 3.9236 12.8479 3.80059 12.9742 3.68004C13.1005 3.55949 13.2291 3.44146 13.36 3.32596C13.491 3.21048 13.6242 3.0976 13.7596 2.98734C13.9155 2.86718 14.0738 2.75028 14.2345 2.63661C14.3952 2.52296 14.5582 2.41265 14.7235 2.3057C14.8888 2.19874 15.0561 2.09523 15.2256 1.99515C15.3951 1.89508 15.5666 1.79852 15.7401 1.7055C15.9136 1.61247 16.0889 1.52305 16.2661 1.43723C16.4432 1.35141 16.6221 1.26926 16.8026 1.19079C16.9832 1.11232 17.1652 1.03759 17.3488 0.96661C17.5324 0.895626 17.7174 0.828445 17.9038 0.765063C18.0902 0.701682 18.2777 0.642156 18.4666 0.586487C18.6554 0.530816 18.8452 0.479048 19.0362 0.431183C19.2271 0.383318 19.419 0.339396 19.6117 0.299418C19.8045 0.259437 19.998 0.223435 20.1922 0.191409C20.3864 0.159383 20.5812 0.131361 20.7766 0.107343C20.972 0.0833243 21.1678 0.06333 21.364 0.0473595C21.5602 0.031389 21.7566 0.0194562 21.9533 0.0115608C22.15 0.00366532 22.3468 -0.000185975 22.5436 6.89677e-06ZM13.8846 23.6077C14.0294 23.7236 14.1766 23.8363 14.3262 23.9459C14.4758 24.0556 14.6275 24.1619 14.7816 24.2651C14.9357 24.3683 15.0918 24.4683 15.2501 24.565C15.4084 24.6615 15.5686 24.7548 15.7308 24.8448C15.8931 24.9345 16.0571 25.0208 16.223 25.1038C16.3888 25.1868 16.5564 25.2662 16.7256 25.3419C16.8948 25.4177 17.0656 25.4901 17.2378 25.5586C17.4101 25.6272 17.5837 25.6921 17.7587 25.7535C17.9337 25.8148 18.11 25.8725 18.2874 25.9264C18.4648 25.98 18.6434 26.0301 18.8229 26.0765C19.0025 26.1229 19.1829 26.1655 19.3643 26.2042C19.5457 26.2429 19.7277 26.2776 19.9106 26.3086C20.0934 26.3396 20.2768 26.3668 20.4608 26.3901C20.6447 26.4135 20.8291 26.4327 21.0139 26.4481C21.1987 26.4637 21.3837 26.4753 21.569 26.4827C21.7543 26.4904 21.9396 26.4943 22.1251 26.494L22.9405 26.494L33.1605 18.2031C38.5218 13.8544 29.312 17.2602 27.9194 17.7581C23.8569 19.2181 18.1973 21.6065 13.875 23.6005L13.8846 23.6077ZM55.2553 30.4194C55.3727 30.5741 55.4867 30.7312 55.5976 30.8904C55.7085 31.0499 55.8162 31.2113 55.9206 31.3751C56.025 31.5389 56.126 31.7046 56.2237 31.8722C56.3213 32.0401 56.4156 32.2099 56.5063 32.3814C56.597 32.5529 56.6843 32.7263 56.768 32.9014C56.8519 33.0768 56.932 33.2536 57.0085 33.432C57.085 33.6103 57.1579 33.7902 57.2272 33.9715C57.2964 34.1529 57.3619 34.3357 57.4237 34.5197C57.4855 34.7037 57.5437 34.8889 57.598 35.0753C57.6522 35.2617 57.7027 35.4493 57.7493 35.6377C57.7962 35.826 57.8391 36.0153 57.878 36.2056C57.917 36.3958 57.9521 36.5866 57.9834 36.7783C58.0146 36.97 58.0421 37.1621 58.0654 37.3548C58.089 37.5475 58.1084 37.7406 58.1241 37.9342C58.1397 38.1278 58.1513 38.3215 58.1592 38.5153C58.1669 38.7094 58.1707 38.9036 58.1705 39.0977C58.1698 39.3341 58.1633 39.5705 58.151 39.8067C58.1388 40.0427 58.1207 40.2784 58.0969 40.5139C58.0731 40.7491 58.0437 40.9836 58.0084 41.2174C57.973 41.4512 57.9321 41.684 57.8855 41.9159C57.8388 42.1478 57.7866 42.3784 57.7287 42.6077C57.6707 42.8369 57.6072 43.0647 57.5382 43.2908C57.4691 43.5169 57.3946 43.7413 57.3145 43.9638C57.2344 44.1862 57.149 44.4068 57.0583 44.6252C56.9676 44.8434 56.8714 45.0594 56.7699 45.2732C56.6686 45.4868 56.5621 45.6977 56.4505 45.9063C56.3386 46.1148 56.222 46.3202 56.1003 46.523C55.9783 46.7257 55.8518 46.9254 55.7202 47.1219C55.5887 47.3184 55.4525 47.5118 55.3116 47.7015C55.1706 47.8913 55.0251 48.0777 54.875 48.2605C54.7249 48.4431 54.5705 48.622 54.4118 48.7974C54.2528 48.9725 54.0897 49.1437 53.9226 49.3109C53.7554 49.4781 53.5844 49.6412 53.409 49.8001C53.2339 49.9591 53.055 50.1136 52.8722 50.2636C52.6896 50.4137 52.5032 50.5592 52.3134 50.7002C52.1236 50.8411 51.9303 50.9775 51.7337 51.1091C51.5372 51.2407 51.3378 51.3672 51.1351 51.4891C50.9323 51.6108 50.7267 51.7275 50.5184 51.8393C50.3098 51.9512 50.0989 52.0577 49.8853 52.159C49.6715 52.2605 49.4555 52.3567 49.2373 52.4474C49.0189 52.5383 48.7986 52.6237 48.5761 52.7038C48.3536 52.7839 48.1292 52.8584 47.9031 52.9275C47.6768 52.9965 47.449 53.0602 47.2198 53.1182C46.9906 53.1762 46.7601 53.2284 46.5283 53.275C46.2964 53.3217 46.0636 53.3628 45.8298 53.3982C45.596 53.4335 45.3615 53.4629 45.126 53.4867C44.8908 53.5105 44.655 53.5288 44.4191 53.5411C44.1829 53.5533 43.9464 53.5598 43.71 53.5605L17.0548 53.5605C9.15827 53.5605 7.82335 45.0291 11.2533 41.1638C10.2479 49.8757 20.9826 55.5954 36.3787 45.8901C38.0987 44.7957 39.7846 43.6506 41.4358 42.4549C43.087 41.2593 44.701 40.015 46.2776 38.7222C47.854 37.4294 49.3903 36.0906 50.8864 34.7056C52.3825 33.3204 53.8355 31.8917 55.2457 30.4194L55.2553 30.4194Z" fill-rule="evenodd"  fill="url(#linear_fill_8_348)" >
</path>
<path d="M17.2706 46.9194C19.9164 49.368 25.1863 50.7679 34.3696 44.4949C47.9234 35.2467 57.1067 27.266 67.7092 11.1362L44.9577 19.9034C54.6029 22.0682 38.6655 31.9562 36.1062 33.474C30.235 36.9592 24.2603 38.2148 27.8489 31.4728C33.9391 20.0309 10.4901 40.6489 17.2706 46.9194Z" fill-rule="evenodd"  fill="url(#linear_fill_8_349)" >
</path>
<path d="M38.3605 21.3177C34.9187 24.7284 29.6584 29.753 25.4539 33.7554C19.6212 39.3066 20.4413 48.8507 26.6157 48.4034C17.6368 51.6312 6.1372 43.0396 19.6717 32.0621L36.3691 18.5204C38.0863 17.1277 40.6552 13.3418 35.2434 13.3442C33.8291 13.3442 40.0539 10.1933 40.9174 10.4074C41.7808 10.6215 42.5048 12.8391 42.0599 14.2943C40.9438 17.9576 41.0521 18.6503 38.3605 21.3177Z" fill-rule="evenodd"  fill="url(#linear_fill_8_350)" >
</path>
<path d="M7.99512 12.6615L0 28.368C8.11779 23.5069 27.5307 14.3789 35.5523 13.3086C40.5 12.6495 42.6022 15.3699 39.3767 20.3031C46.3688 13.5683 44.4759 6.66522 34.417 7.17995C26.1525 7.60087 14.5206 10.6676 7.99512 12.6615Z" fill-rule="evenodd"  fill="url(#linear_fill_8_351)" >
</path>
<path d="M80.2154 49.0027C81.6129 49.6304 82.1276 50.2053 82.1276 51.254C82.1276 52.5023 81.1799 53.3562 79.4169 53.3562C79.2262 53.3593 79.0362 53.3496 78.8468 53.3273C78.6574 53.3049 78.4704 53.2699 78.2857 53.2222C78.1009 53.1748 77.9203 53.1151 77.7438 53.0433C77.567 52.9714 77.396 52.8881 77.2305 52.7934L77.2978 51.1794L77.8414 51.1794L78.3393 52.8126C78.487 52.8631 78.638 52.9002 78.7925 52.9237C78.9469 52.9471 79.1021 52.9566 79.2581 52.9521C80.1865 52.9521 80.7013 52.512 80.7013 51.7808C80.7013 51.141 80.4271 50.8042 79.6766 50.4747L79.2292 50.2702C77.9737 49.7074 77.305 49.0796 77.305 47.954C77.305 46.6888 78.3273 45.9648 79.8546 45.9648C80.0222 45.9621 80.189 45.9715 80.3552 45.993C80.5213 46.0146 80.685 46.0481 80.8463 46.0935C81.0076 46.1389 81.1648 46.1957 81.3177 46.264C81.4709 46.3323 81.6182 46.4114 81.7596 46.5012L81.6754 48.0285L81.1318 48.0285L80.6508 46.4723C80.5547 46.4313 80.4554 46.4012 80.3528 46.3821C80.2501 46.363 80.1466 46.3554 80.0422 46.3593C79.2244 46.3593 78.7001 46.773 78.7001 47.4753C78.7001 48.1223 79.0561 48.4711 79.7127 48.7694L80.2154 49.0027Z"   fill="#30333B" >
</path>
<path d="M90.1977 46.5538C90.1809 47.5159 90.1809 48.478 90.1809 49.4618L90.1809 49.8755C90.1809 50.8376 90.1809 51.7997 90.1977 52.7618L91.0251 52.846L91.0251 53.1659L87.778 53.1659L87.778 52.846L88.5669 52.7618C88.5934 51.8334 88.5934 50.8569 88.5934 49.7793L86.0679 49.7793C86.0679 50.84 86.0679 51.8141 86.0967 52.7714L86.876 52.846L86.876 53.1659L83.6289 53.1659L83.6289 52.846L84.4635 52.7618C84.4635 51.8141 84.4635 50.8376 84.4635 49.8755L84.4635 49.4618C84.4635 48.4997 84.4635 47.5207 84.4635 46.5755L83.6289 46.4913L83.6289 46.1714L86.876 46.1714L86.876 46.4913L86.0967 46.5658C86.0679 47.5039 86.0679 48.4708 86.0679 49.4377L88.591 49.4377C88.591 48.4756 88.591 47.5135 88.5645 46.5658L87.7756 46.4913L87.7756 46.1714L91.0227 46.1714L91.0227 46.4913L90.1977 46.5538Z"   fill="#30333B" >
</path>
<path d="M99.0807 49.6594C99.0807 52.0984 97.5317 53.3563 95.759 53.3563C93.9864 53.3563 92.4277 52.108 92.4277 49.6594C92.4277 47.2109 94.0056 45.9722 95.759 45.9722C97.5125 45.9722 99.0807 47.2301 99.0807 49.6594ZM95.759 53.0004C96.9039 53.0004 97.4283 51.5933 97.4283 49.6594C97.4283 47.7256 96.9039 46.3306 95.759 46.3306C94.6141 46.3306 94.0898 47.7449 94.0898 49.6594C94.0898 51.574 94.6045 53.0004 95.759 53.0004Z"   fill="#30333B" >
</path>
<path d="M107.569 46.4795L106.607 46.619L106.568 50.2269C106.539 52.3917 105.621 53.3538 103.961 53.3538C102.347 53.3538 101.221 52.5937 101.221 50.3785L101.221 49.3562C101.221 48.4374 101.221 47.4897 101.192 46.5517L100.387 46.4771L100.387 46.1572L103.725 46.1572L103.725 46.4771L102.826 46.5613C102.797 47.4801 102.797 48.4278 102.797 49.3562L102.797 50.239C102.797 51.9563 103.379 52.5841 104.456 52.5841C105.534 52.5841 106.174 51.8986 106.155 50.2005L106.118 46.6166L105.048 46.4771L105.048 46.1572L107.571 46.1572L107.569 46.4795Z"   fill="#30333B" >
</path>
<path d="M114.174 51.076L114.145 53.1686L108.719 53.1686L108.719 52.7188L112.416 46.5253L109.921 46.5253L109.44 48.1681L108.868 48.1681L108.971 46.1597L114.123 46.1597L114.123 46.6022L110.446 52.803L113.156 52.803L113.681 51.076L114.174 51.076Z"   fill="#30333B" >
</path>
<path d="M122.166 46.5538C122.147 47.5159 122.147 48.478 122.147 49.4618L122.147 49.8755C122.147 50.8376 122.147 51.7997 122.166 52.7618L122.991 52.846L122.991 53.1659L119.744 53.1659L119.744 52.846L120.533 52.7618C120.562 51.8334 120.562 50.8568 120.562 49.7793L118.037 49.7793C118.037 50.84 118.037 51.8141 118.065 52.7714L118.845 52.846L118.845 53.1659L115.598 53.1659L115.598 52.846L116.435 52.7618C116.435 51.8141 116.435 50.8376 116.435 49.8755L116.435 49.4618C116.435 48.4997 116.435 47.5207 116.435 46.5755L115.598 46.4913L115.598 46.1714L118.845 46.1714L118.845 46.4913L118.065 46.5658C118.037 47.5039 118.037 48.4708 118.037 49.4377L120.562 49.4377C120.562 48.4756 120.562 47.5135 120.533 46.5658L119.744 46.4913L119.744 46.1714L122.991 46.1714L122.991 46.4913L122.166 46.5538Z"   fill="#30333B" >
</path>
<path d="M130.071 53.1682L124.508 53.1682L124.508 52.8483L125.352 52.7641C125.381 51.8164 125.381 50.8399 125.381 49.8778L125.381 49.4641C125.381 48.5019 125.381 47.523 125.352 46.5561L124.508 46.4815L124.508 46.1616L129.884 46.1616L129.884 48.0281L129.34 48.0281L128.909 46.5272L126.997 46.5272C126.978 47.4653 126.978 48.4322 126.978 49.428L128.255 49.428L128.395 48.3865L128.876 48.3865L128.876 50.7509L128.395 50.7509L128.265 49.7575L126.978 49.7575L126.978 49.7888C126.978 50.8302 126.978 51.8236 126.997 52.8002L129.109 52.8002L129.54 51.2223L130.064 51.2223L130.071 53.1682Z"   fill="#30333B" >
</path>
<path d="M138.628 46.4796L137.765 46.6022L137.7 53.1879L136.875 53.1879L132.738 47.3527L132.793 52.7092L134.051 52.8487L134.051 53.1686L131.441 53.1686L131.441 52.8487L132.305 52.7188L132.363 46.8163L132.185 46.5541L131.518 46.4796L131.518 46.1597L133.779 46.1597L137.342 51.076L137.293 46.6119L136.048 46.4796L136.048 46.1597L138.636 46.1597L138.628 46.4796Z"   fill="#30333B" >
</path>
<path d="M146.546 50.0439L145.964 50.1184C145.945 50.8039 145.935 51.5063 145.935 52.2832L145.935 52.7426C145.764 52.8481 145.587 52.9409 145.402 53.0209C145.218 53.1007 145.029 53.1669 144.835 53.2193C144.641 53.2719 144.445 53.3102 144.245 53.3343C144.046 53.3583 143.846 53.368 143.645 53.3631C141.423 53.3631 139.912 51.9825 139.912 49.6566C139.912 47.3861 141.451 45.979 143.712 45.979C143.889 45.9751 144.066 45.983 144.242 46.0025C144.418 46.0223 144.592 46.0535 144.764 46.0964C144.936 46.1392 145.104 46.1933 145.269 46.2587C145.433 46.324 145.593 46.3999 145.747 46.4865L145.711 48.2039L145.129 48.2039L144.648 46.4672C144.534 46.4211 144.416 46.3871 144.294 46.3653C144.172 46.3433 144.05 46.334 143.927 46.3374C142.604 46.3374 141.579 47.4149 141.579 49.6663C141.579 51.7589 142.575 53.0072 143.833 53.0072C144.041 53.0096 144.248 52.9871 144.451 52.9398L144.451 52.2375C144.451 51.5424 144.451 50.8761 144.422 50.1738L143.419 50.0511L143.419 49.7312L146.546 49.7312L146.546 50.0439Z"   fill="#30333B" >
</path>
<path d="M151.238 50.1572C151.238 51.4416 151.238 52.0333 151.254 52.7549L152.217 52.8487L152.217 53.1686L148.686 53.1686L148.686 52.8487L149.633 52.7549C149.65 52.0887 149.65 51.5354 149.65 50.4194L147.748 46.5253L147.23 46.4796L147.23 46.1597L150.487 46.1597L150.487 46.4796L149.559 46.5734L151.031 49.7724L152.474 46.6022L151.555 46.4796L151.555 46.1597L153.751 46.1597L153.751 46.4796L152.981 46.5926L151.238 50.1572Z"   fill="#30333B" >
</path>
<path d="M162.014 46.4795L161.052 46.619L161.014 50.2269C160.987 52.3917 160.066 53.3538 158.406 53.3538C156.792 53.3538 155.667 52.5937 155.667 50.3785L155.667 49.3562C155.667 48.4374 155.667 47.4897 155.64 46.5517L154.832 46.4771L154.832 46.1572L158.173 46.1572L158.173 46.4771L157.271 46.5613C157.245 47.4801 157.245 48.4278 157.245 49.3562L157.245 50.239C157.245 51.9563 157.824 52.5841 158.904 52.5841C159.984 52.5841 160.622 51.8986 160.602 50.2005L160.564 46.6166L159.496 46.4771L159.496 46.1572L162.019 46.1572L162.014 46.4795Z"   fill="#30333B" >
</path>
<path d="M170.313 46.4796L169.45 46.6022L169.385 53.1879L168.56 53.1879L164.423 47.3527L164.478 52.7092L165.736 52.8487L165.736 53.1686L163.129 53.1686L163.129 52.8487L163.992 52.7188L164.048 46.8163L163.87 46.5541L163.203 46.4796L163.203 46.1597L165.464 46.1597L169.019 51.076L168.971 46.6119L167.725 46.4796L167.725 46.1597L170.313 46.1597L170.313 46.4796Z"   fill="#30333B" >
</path>
<path d="M177.464 52.8028C177.303 52.8962 177.137 52.9783 176.965 53.0491C176.793 53.1199 176.617 53.1785 176.437 53.2252C176.257 53.272 176.075 53.3064 175.891 53.3281C175.706 53.3501 175.521 53.3594 175.335 53.356C173.262 53.356 171.6 52.1366 171.6 49.6591C171.6 47.1817 173.375 45.9719 175.41 45.9719C175.584 45.9701 175.757 45.9801 175.93 46.0019C176.103 46.0239 176.273 46.0576 176.441 46.103C176.609 46.1483 176.773 46.2049 176.934 46.2728C177.094 46.3406 177.249 46.4191 177.399 46.5083L177.36 48.2136L176.807 48.2136L176.29 46.4217C176.067 46.3551 175.839 46.3238 175.607 46.3279C174.294 46.3279 173.262 47.3597 173.262 49.6664C173.262 51.973 174.284 52.988 175.643 52.988C175.766 52.9887 175.888 52.9788 176.009 52.9582C176.13 52.9375 176.249 52.9066 176.364 52.8654L176.86 51.1119L177.413 51.1119L177.464 52.8028Z"   fill="#30333B" >
</path>
<path d="M185.539 46.5538C185.52 47.5159 185.52 48.478 185.52 49.4618L185.52 49.8755C185.52 50.8376 185.52 51.7997 185.539 52.7618L186.364 52.846L186.364 53.1659L183.119 53.1659L183.119 52.846L183.906 52.7618C183.935 51.8334 183.935 50.8569 183.935 49.7793L181.412 49.7793C181.412 50.84 181.412 51.8141 181.438 52.7714L182.217 52.846L182.217 53.1659L178.973 53.1659L178.973 52.846L179.807 52.7618C179.807 51.8141 179.807 50.8376 179.807 49.8755L179.807 49.4618C179.807 48.4997 179.807 47.5207 179.807 46.5755L178.973 46.4913L178.973 46.1714L182.217 46.1714L182.217 46.4913L181.438 46.5658C181.412 47.5039 181.412 48.4708 181.412 49.4377L183.935 49.4377C183.935 48.4756 183.935 47.5135 183.906 46.5658L183.119 46.4913L183.119 46.1714L186.364 46.1714L186.364 46.4913L185.539 46.5538Z"   fill="#30333B" >
</path>
<path d="M195.024 46.4795L194.062 46.619L194.023 50.2269C193.997 52.3917 193.078 53.3538 191.416 53.3538C189.802 53.3538 188.676 52.5937 188.676 50.3785L188.676 49.3562C188.676 48.4374 188.676 47.4897 188.65 46.5517L187.842 46.4771L187.842 46.1572L191.183 46.1572L191.183 46.4771L190.281 46.5613C190.254 47.4801 190.254 48.4278 190.254 49.3562L190.254 50.239C190.254 51.9563 190.834 52.5841 191.914 52.5841C192.994 52.5841 193.631 51.8986 193.612 50.2005L193.574 46.6166L192.506 46.4771L192.506 46.1572L195.029 46.1572L195.024 46.4795Z"   fill="#30333B" >
</path>
<path d="M202.209 52.8488L202.209 53.1687L199.01 53.1687L199.01 52.8488L199.844 52.755L199.272 50.9438L197.107 50.9438L196.592 52.7261L197.475 52.8488L197.475 53.1687L195.332 53.1687L195.332 52.8488L196.111 52.7358L198.233 46.1333L199.207 46.1333L201.458 52.7646L202.209 52.8488ZM199.168 50.6167L198.146 47.4081L197.208 50.6167L199.168 50.6167Z"   fill="#30333B" >
</path>
<path d="M210.503 46.4796L209.64 46.6022L209.575 53.1879L208.748 53.1879L204.61 47.3527L204.668 52.7092L205.924 52.8487L205.924 53.1686L203.316 53.1686L203.316 52.8487L204.18 52.7188L204.235 46.8163L204.057 46.5541L203.391 46.4796L203.391 46.1597L205.652 46.1597L209.209 51.076L209.161 46.6119L207.913 46.4796L207.913 46.1597L210.503 46.1597L210.503 46.4796Z"   fill="#30333B" >
</path>
<path d="M218.416 50.0439L217.837 50.1185C217.818 50.804 217.808 51.5063 217.808 52.2832L217.808 52.7427C217.637 52.8482 217.46 52.9409 217.275 53.0209C217.091 53.1008 216.902 53.1669 216.708 53.2194C216.514 53.272 216.318 53.3103 216.118 53.3344C215.919 53.3584 215.719 53.368 215.518 53.3632C213.296 53.3632 211.785 51.9826 211.785 49.6567C211.785 47.3861 213.325 45.979 215.583 45.979C215.76 45.975 215.937 45.9829 216.113 46.0026C216.29 46.0222 216.464 46.0534 216.636 46.0962C216.808 46.1392 216.976 46.1933 217.141 46.2585C217.306 46.324 217.466 46.4 217.62 46.4866L217.582 48.2039L217 48.2039L216.519 46.4673C216.404 46.4213 216.286 46.3874 216.165 46.3656C216.043 46.3436 215.921 46.3342 215.797 46.3374C214.474 46.3374 213.452 47.415 213.452 49.6663C213.452 51.7589 214.448 53.0072 215.703 53.0072C215.913 53.0096 216.12 52.9872 216.324 52.9399L216.324 52.2375C216.324 51.5424 216.324 50.8762 216.295 50.1738L215.292 50.0512L215.292 49.7313L218.419 49.7313L218.416 50.0439Z"   fill="#30333B" >
</path>
<path d="M107.832 8.50738C107.558 8.81526 107.214 8.91868 106.492 8.95476C105.638 9.65982 104.745 10.3115 103.813 10.9097C102.88 11.508 101.916 12.0485 100.919 12.5314L100.712 12.3245C101.009 10.869 101.227 9.40176 101.367 7.9229L81.107 7.9229C81.5183 10.6384 80.7294 12.6011 79.3536 13.455C77.9778 14.3089 75.7649 13.71 75.1901 11.8772C74.7427 10.1574 75.7409 8.88501 77.1504 8.23077C78.252 7.68237 79.7962 6.27048 79.7649 4.79124L80.1449 4.79124C80.4621 5.48999 80.7139 6.21157 80.9002 6.95598L91.2429 6.95598C90.9946 6.88397 90.7549 6.79016 90.5237 6.67457C90.2925 6.55897 90.0736 6.42348 89.867 6.26807C89.9007 4.34386 89.0757 2.34749 87.7336 1.21701L87.9043 1.04623C96.9626 0.526696 96.1737 6.02995 93.0829 6.95839L101.092 6.95839L103.567 4.48336L107.832 8.50738ZM102.223 12.084C102.223 12.084 105.078 14.2848 106.793 15.8002C106.726 16.1778 106.312 16.3486 105.797 16.3486L98.3745 16.3486L98.3745 28.0092C98.3745 31.415 97.5134 33.2722 91.6662 33.7818C91.5291 32.0981 91.2886 30.9605 90.5309 30.1739C89.7732 29.3874 88.9146 28.8318 86.6825 28.4205L86.6825 27.9731C86.6825 27.9731 91.5315 28.2473 92.4551 28.2473C93.0059 28.2473 93.2128 28.0765 93.2128 27.6628L93.2128 16.3558L76.8762 16.3558L76.602 15.3937L93.2152 15.3937L93.2152 8.95476L99.5434 9.50557C99.5097 10.0203 99.1658 10.3306 98.3745 10.434L98.3745 15.3937L99.6805 15.3937L102.223 12.084ZM81.0734 17.277C93.4557 19.5836 88.9843 29.1445 84.0992 25.3947C83.6855 22.5397 82.276 19.6221 80.8328 17.4574L81.0734 17.277Z"   fill="#30333B" >
</path>
<path d="M139.786 27.081C139.786 27.081 142.985 29.4863 144.911 31.105C144.808 31.485 144.43 31.6558 143.88 31.6558L112.544 31.6558L112.27 30.6937L117.049 30.6937L117.049 12.4618L123.687 13.0126C123.62 13.4936 123.379 13.8376 122.415 14.0108L122.415 30.6937L126.612 30.6937L126.612 5.54902L114.504 5.54902L114.23 4.58691L135.692 4.58691L138.48 1.04395C138.48 1.04395 141.607 3.41554 143.502 4.99821C143.399 5.37584 143.021 5.54902 142.504 5.54902L132.048 5.54902L132.048 16.7287L134.901 16.7287L137.58 13.2531C137.58 13.2531 140.606 15.5573 142.429 17.14C142.326 17.52 141.915 17.6908 141.397 17.6908L132.048 17.6908L132.048 30.6937L136.931 30.6937L139.786 27.081Z"   fill="#30333B" >
</path>
<path d="M159.186 18.7923C168.506 20.856 164.379 27.8385 160.732 24.8054C160.631 23.0857 159.943 21.2288 159.186 19.7544L159.186 32.3435C159.186 32.6875 157.262 33.5823 155.609 33.5823L154.681 33.5823L154.681 25.361C153.966 26.2277 153.199 27.0467 152.382 27.8178C151.565 28.5887 150.703 29.3059 149.796 29.9695L149.418 29.5847C151.619 26.3857 153.235 21.7411 154.197 17.6497L149.726 17.6497L149.452 16.6876L154.681 16.6876L154.681 12.4279L150.965 12.4279L150.69 11.4658L154.681 11.4658L154.681 7.37684L150.036 7.37684L149.762 6.41473L154.681 6.41473L154.681 0.836914L160.321 1.42139C160.251 1.8351 160.011 2.17665 159.186 2.28008L159.186 6.40752L159.977 6.40752L161.834 3.86274C161.834 3.86274 163.931 5.61859 165.17 6.82123C165.067 7.19885 164.723 7.37203 164.242 7.37203L159.191 7.37203L159.191 10.9487L160.6 9.02445C160.6 9.02445 162.596 10.7081 163.799 11.8795C163.696 12.2595 163.352 12.4303 162.904 12.4303L159.186 12.4303L159.186 16.6925L160.321 16.6925L162.212 14.0779C162.212 14.0779 164.376 15.8674 165.651 17.1062C165.55 17.4838 165.206 17.657 164.723 17.657L159.191 17.657L159.186 18.7923ZM174.623 21.0628C186.11 26.5949 182.053 36.0934 177.545 31.9996C177.419 30.6235 177.167 29.2708 176.788 27.9419C174.173 29.0074 170.733 30.3135 166.709 31.6556C166.669 31.7247 166.626 31.7915 166.58 31.8567C166.533 31.9219 166.484 31.9852 166.433 32.046C166.381 32.1069 166.327 32.1656 166.27 32.2218C166.213 32.2781 166.154 32.3318 166.093 32.383C166.032 32.4342 165.968 32.4826 165.902 32.5283C165.837 32.574 165.769 32.6168 165.7 32.6565C165.631 32.6962 165.56 32.733 165.488 32.7666C165.415 32.8005 165.341 32.8311 165.266 32.8583L163.727 27.42C163.727 27.42 164.689 27.1794 165.033 26.8691C166.512 24.9786 168.506 18.9318 169.122 15.1747L163.967 15.1747L163.691 14.2126L175.344 14.2126L177.788 10.9775C177.788 10.9775 180.573 13.1423 182.19 14.6239C182.12 15.004 181.709 15.1747 181.228 15.1747L170.365 15.1747L175.176 17.3082C175.039 17.6161 174.659 17.8927 174.007 17.8927C172.355 20.8848 169.396 24.9089 166.748 27.4536C169.259 27.2492 172.699 26.9726 176.412 26.5949C175.804 24.7657 175.094 22.977 174.281 21.2288L174.623 21.0628ZM165.377 6.13332L165.103 5.17121L174.002 5.17121L176.408 2.00588C176.408 2.00588 179.125 4.13935 180.708 5.58251C180.605 5.96254 180.227 6.13332 179.746 6.13332L165.377 6.13332Z"   fill="#30333B" >
</path>
<path d="M204.52 27.3551C205.757 27.9059 206.101 28.3893 206.101 29.2143C206.101 31.1049 204.314 31.8601 198.466 31.8601L195.068 31.8601C191.219 31.8601 190.216 31.0688 190.216 27.9395L190.216 14.191C188.99 15.1835 187.683 16.055 186.296 16.8055L186.021 16.4977C189.976 12.1682 192.727 5.45507 193.829 0.709473L199.772 3.17487C199.635 3.55491 199.325 3.82911 198.466 3.75935C207.924 5.3757 206.548 12.1177 203.005 11.8435L204.795 13.3227C204.554 13.5969 204.176 13.8038 203.522 13.9409C203.522 20.7863 203.385 22.5998 202.009 23.675C201.047 24.3966 199.91 24.6371 198.053 24.6371C198.053 23.3984 197.983 22.5734 197.572 21.9913C197.16 21.4092 196.609 21.0629 195.611 20.7887L195.611 20.3726C196.263 20.4423 197.434 20.476 197.916 20.476C198.397 20.476 198.534 20.4086 198.671 20.2355C199.051 19.8578 199.051 17.9649 199.051 13.2193L194.827 13.2193L194.827 26.9101C194.827 27.5282 195.068 27.7014 196.1 27.7014L198.986 27.7014C199.914 27.7014 200.809 27.7014 201.256 27.6653C201.704 27.6293 202.014 27.5619 202.288 27.218C202.702 26.5998 203.354 24.9835 204.078 22.9534L204.422 22.9534L204.52 27.3551ZM201.011 10.2271C200.822 9.74263 200.615 9.26627 200.389 8.79799C200.163 8.3297 199.92 7.87095 199.658 7.42171C199.396 6.97248 199.117 6.53415 198.821 6.10671C198.525 5.67927 198.213 5.26402 197.884 4.86097C197.222 6.0478 196.491 7.19059 195.691 8.28937C194.891 9.38814 194.028 10.4349 193.103 11.4298L195.308 12.2668L198.714 12.2668L200.949 10.167L201.011 10.2271ZM210.916 24.3292C210.916 24.6732 208.956 25.5319 207.308 25.5319L206.483 25.5319L206.483 4.89464L212.015 5.41178C211.982 5.82308 211.741 6.13336 210.914 6.27046L210.916 24.3292ZM219 1.55853C218.93 2.07567 218.586 2.41962 217.728 2.55672L217.728 28.3821C217.728 31.545 217.006 33.2648 211.811 33.7459C211.674 32.2329 211.503 31.1674 210.882 30.4458C210.262 29.7242 209.499 29.2143 207.575 28.8632L207.575 28.4158C207.575 28.4158 211.498 28.6563 212.323 28.6563C212.908 28.6563 213.078 28.4494 213.078 28.0357L213.078 1.00773L219 1.55853Z"   fill="#30333B" >
</path>
<defs>
<linearGradient id="linear_fill_8_348" x1="16.75390625" y1="42.3662109375" x2="39.515625" y2="20.73095703125" gradientUnits="userSpaceOnUse">
<stop offset="0" stop-color="#7FCDEC"  />
<stop offset="1" stop-color="#185FAD"  />
</linearGradient>
<linearGradient id="linear_fill_8_349" x1="62.888671875" y1="13.39501953125" x2="27.828125" y2="38.59228515625" gradientUnits="userSpaceOnUse">
<stop offset="0" stop-color="#FABD00"  />
<stop offset="1" stop-color="#E8350D"  />
</linearGradient>
<linearGradient id="linear_fill_8_350" x1="17.529296875" y1="44.10302734375" x2="40.37890625" y2="21.2333984375" gradientUnits="userSpaceOnUse">
<stop offset="0" stop-color="#7FCDEC"  />
<stop offset="1" stop-color="#185FAD"  />
</linearGradient>
<linearGradient id="linear_fill_8_351" x1="48.544921875" y1="-1.3828125" x2="13.998046875" y2="23.4443359375" gradientUnits="userSpaceOnUse">
<stop offset="0" stop-color="#FABD00"  />
<stop offset="1" stop-color="#E8350D"  />
</linearGradient>
</defs>
</svg>
