<svg xmlns="http://www.w3.org/2000/svg" xmlns:xlink="http://www.w3.org/1999/xlink" width="44" height="34" viewBox="0 0 44 34" fill="none">
<path d="M34.8129 4.39674e-07L14.6495 4.39674e-07C12.5866 -0.000625084 10.5815 0.666214 8.94749 1.89635C7.52829 3.02544 6.51208 4.56497 6.0449 6.2937C8.82401 5.49668 11.6531 4.79432 14.476 4.22023C17.0254 3.70262 19.6919 3.25525 22.2913 3.12547C26.4162 2.91935 29.7658 4.73325 29.8205 7.86941L31.171 7.86941C36.673 7.86941 36.5167 2.16355 34.8129 4.39674e-07ZM0 18.0078L5.19403 8.03741C9.44242 6.77165 16.9935 4.82491 22.3658 4.55771C28.9025 4.23096 30.1326 8.61304 25.5888 12.8882C25.613 12.852 25.6368 12.816 25.6601 12.7802C25.4584 13.0061 25.2186 13.2521 24.929 13.5325C23.1008 15.3021 20.4832 17.7562 18.0961 19.9809C15.7664 24.2584 19.6484 23.4613 23.4632 21.2492C25.1263 20.2858 35.4831 14.0089 29.2152 12.6347L44.0002 7.0693C37.1102 17.3084 31.1425 22.3745 22.3347 28.2452C20.3876 29.5444 18.7113 30.3251 17.2766 30.7334C11.4447 32.7631 3.99874 27.3136 12.784 20.353L23.6347 11.7568C24.7471 10.8757 26.4091 8.48533 22.9379 8.47108C17.6282 9.24826 5.22025 14.9542 0 18.0078ZM14.3775 16.8183C12.4312 16.82 10.5424 16.1737 9.02252 14.9861L9.02252 14.9815C11.8313 13.7157 15.5092 12.1996 18.1492 11.2728C18.1819 11.2613 18.2213 11.2475 18.2666 11.2316C19.4746 10.8068 24.9132 8.89449 21.5551 11.5552L14.9121 16.8183L14.3775 16.8183ZM37.8015 24.819C37.8022 22.83 37.1369 20.8953 35.9071 19.3101L35.9008 19.3101C32.2318 23.0521 28.1154 26.3493 23.6402 29.1309C13.6351 35.2917 6.65918 31.6609 7.31254 26.1306C5.08362 28.5842 5.95112 34 11.0826 34L28.4044 34C30.8945 33.9923 33.2804 33.0226 35.041 31.3024C36.8017 29.5823 37.7941 27.2515 37.8015 24.819Z" fill-rule="evenodd"  fill="#73757A" >
</path>
</svg>
