<svg xmlns="http://www.w3.org/2000/svg" xmlns:xlink="http://www.w3.org/1999/xlink" width="14" height="14" viewBox="0 0 14 14" fill="none">
<path d="M2.26418 11.2452L0.869424 9.84518C0.869424 9.84518 -0.21227 8.30324 0.869424 7.04849L3.97587 3.92862C3.99828 3.90582 4.02123 3.88359 4.04474 3.86192C4.06824 3.84025 4.09227 3.81918 4.11683 3.79871C4.14137 3.77824 4.16642 3.75839 4.19196 3.73916C4.21749 3.71992 4.2435 3.70134 4.26995 3.6834C4.29641 3.66546 4.3233 3.6482 4.35063 3.6316C4.37795 3.61499 4.40566 3.59907 4.43377 3.58386C4.46188 3.56863 4.49034 3.55411 4.51918 3.5403C4.54801 3.52648 4.57716 3.51339 4.60664 3.50103C4.63613 3.48866 4.66589 3.47704 4.69594 3.46616C4.72601 3.45526 4.75632 3.44513 4.78687 3.43575C4.81743 3.42636 4.84821 3.41774 4.8792 3.4099C4.91018 3.40204 4.94134 3.39496 4.97269 3.38865C5.00402 3.38234 5.0355 3.37682 5.06712 3.37208C5.09873 3.36733 5.13043 3.36338 5.16225 3.36021C5.19406 3.35704 5.22593 3.35466 5.25786 3.35308C5.28978 3.35149 5.32173 3.3507 5.35371 3.3507C5.38567 3.3507 5.41762 3.35149 5.44955 3.35308C5.48147 3.35466 5.51334 3.35704 5.54516 3.36021C5.57697 3.36338 5.60868 3.36733 5.6403 3.37208C5.67191 3.37682 5.70338 3.38234 5.73473 3.38865C5.76607 3.39496 5.79722 3.40204 5.82822 3.4099C5.85921 3.41774 5.88997 3.42636 5.92053 3.43575C5.95109 3.44513 5.9814 3.45526 6.01146 3.46616C6.04153 3.47704 6.07129 3.48866 6.10077 3.50103C6.13024 3.51339 6.15939 3.52648 6.18823 3.5403C6.21706 3.55411 6.24553 3.56863 6.27363 3.58386C6.30174 3.59907 6.32946 3.61499 6.35679 3.6316C6.3841 3.6482 6.411 3.66546 6.43745 3.6834C6.46391 3.70134 6.48991 3.71992 6.51545 3.73916C6.54099 3.75839 6.56603 3.77824 6.59059 3.79871C6.61513 3.81918 6.63917 3.84025 6.66267 3.86192C6.68617 3.88359 6.70912 3.90582 6.73153 3.92862L8.12649 5.32862C8.89299 6.10524 8.89299 7.35356 8.12649 8.12999L7.11206 7.11128C7.18206 6.6909 7.42668 6.55031 6.624 5.95512L6.24174 5.32415C6.22684 5.30861 6.21155 5.29346 6.1959 5.27869C6.18024 5.26391 6.16422 5.24956 6.14784 5.2356C6.13145 5.22164 6.11473 5.20809 6.09765 5.19498C6.08059 5.18187 6.0632 5.16918 6.04549 5.15694C6.02779 5.14471 6.00979 5.13292 5.99149 5.12159C5.97318 5.11025 5.95462 5.09938 5.93576 5.08899C5.91692 5.07859 5.89782 5.06868 5.87848 5.05924C5.85913 5.04981 5.83955 5.04087 5.81976 5.03242C5.79996 5.02398 5.77996 5.01604 5.75976 5.00859C5.73957 5.00115 5.71919 4.99423 5.69864 4.98782C5.67809 4.98141 5.6574 4.97553 5.63655 4.97016C5.6157 4.96479 5.59474 4.95995 5.57365 4.95564C5.55255 4.95133 5.53137 4.94755 5.5101 4.9443C5.48881 4.94106 5.46747 4.93836 5.44605 4.9362C5.42464 4.93402 5.40319 4.9324 5.38168 4.93132C5.36019 4.93024 5.33868 4.92969 5.31715 4.92969C5.29562 4.92969 5.27411 4.93024 5.25262 4.93132C5.23111 4.9324 5.20966 4.93402 5.18824 4.9362C5.16683 4.93836 5.14549 4.94106 5.1242 4.9443C5.10293 4.94755 5.08175 4.95133 5.06065 4.95564C5.03956 4.95995 5.0186 4.96479 4.99775 4.97016C4.9769 4.97553 4.95621 4.98141 4.93566 4.98782C4.91511 4.99423 4.89473 5.00115 4.87454 5.00859C4.85434 5.01604 4.83434 5.02398 4.81454 5.03242C4.79475 5.04087 4.77517 5.04981 4.75582 5.05924C4.73648 5.06868 4.71738 5.07859 4.69852 5.08899C4.67967 5.09938 4.66111 5.11025 4.64281 5.12159C4.62451 5.13292 4.6065 5.14471 4.58879 5.15694C4.57109 5.16918 4.55371 5.18187 4.53664 5.19498C4.51957 5.20809 4.50285 5.22164 4.48646 5.2356C4.47008 5.24956 4.45406 5.26391 4.4384 5.27869C4.42275 5.29346 4.40746 5.30861 4.39256 5.32415L2.12475 7.70628C2.10929 7.72132 2.09421 7.73674 2.07951 7.75254C2.06482 7.76833 2.05053 7.78449 2.03664 7.80099C2.02275 7.81749 2.00928 7.83433 1.99622 7.85151C1.98318 7.86869 1.97058 7.88618 1.95839 7.90399C1.94623 7.92181 1.93451 7.93991 1.92323 7.9583C1.91196 7.9767 1.90116 7.99536 1.89083 8.0143C1.88049 8.03323 1.87063 8.05241 1.86126 8.07184C1.85188 8.09127 1.84299 8.11093 1.8346 8.13079C1.8262 8.15066 1.81831 8.17073 1.81092 8.19101C1.80352 8.21127 1.79664 8.23171 1.79027 8.25232C1.7839 8.27293 1.77805 8.29368 1.77272 8.31459C1.76738 8.33549 1.76257 8.35652 1.75829 8.37766C1.75401 8.3988 1.75026 8.42004 1.74704 8.44138C1.74381 8.46271 1.74112 8.4841 1.73897 8.50557C1.73682 8.52703 1.73521 8.54854 1.73413 8.57009C1.73305 8.59163 1.73251 8.61319 1.73251 8.63475C1.73251 8.65633 1.73305 8.67789 1.73413 8.69944C1.73521 8.72098 1.73682 8.74249 1.73897 8.76395C1.74112 8.78542 1.74381 8.80681 1.74704 8.82814C1.75026 8.84948 1.75401 8.87072 1.75829 8.89185C1.76257 8.913 1.76738 8.93403 1.77272 8.95494C1.77805 8.97584 1.7839 8.99659 1.79027 9.0172C1.79664 9.0378 1.80352 9.05824 1.81092 9.07852C1.81831 9.09879 1.8262 9.11886 1.8346 9.13873C1.84299 9.15859 1.85188 9.17825 1.86126 9.19768C1.87063 9.21711 1.88049 9.23629 1.89083 9.25522C1.90116 9.27416 1.91196 9.29282 1.92323 9.31121C1.93451 9.32961 1.94623 9.34772 1.95839 9.36553C1.97058 9.38334 1.98318 9.40083 1.99622 9.418C2.00928 9.43519 2.02275 9.45203 2.03664 9.46853C2.05053 9.48503 2.06482 9.50119 2.07951 9.51699C2.09421 9.53278 2.10929 9.5482 2.12475 9.56324L2.61281 10.0182C2.62771 10.0338 2.643 10.0489 2.65867 10.0637C2.67432 10.0785 2.69035 10.0928 2.70674 10.1068C2.72313 10.1208 2.73985 10.1343 2.75693 10.1474C2.774 10.1605 2.79139 10.1732 2.8091 10.1854C2.8268 10.1977 2.84481 10.2095 2.86312 10.2208C2.88142 10.2321 2.9 10.243 2.91886 10.2534C2.93771 10.2638 2.95681 10.2737 2.97616 10.2832C2.9955 10.2926 3.01508 10.3015 3.03489 10.31C3.0547 10.3184 3.0747 10.3264 3.0949 10.3338C3.1151 10.3412 3.13549 10.3482 3.15604 10.3546C3.17659 10.361 3.19728 10.3669 3.21813 10.3723C3.23898 10.3776 3.25996 10.3825 3.28105 10.3868C3.30215 10.3911 3.32333 10.3949 3.34461 10.3981C3.3659 10.4013 3.38724 10.404 3.40867 10.4062C3.43009 10.4084 3.45154 10.41 3.47305 10.4111C3.49455 10.4122 3.51606 10.4127 3.53759 10.4127C3.55912 10.4127 3.58063 10.4122 3.60214 10.4111C3.62364 10.41 3.64509 10.4084 3.66652 10.4062C3.68794 10.404 3.70928 10.4013 3.73057 10.3981C3.75186 10.3949 3.77305 10.3911 3.79414 10.3868C3.81524 10.3825 3.8362 10.3776 3.85705 10.3723C3.8779 10.3669 3.89861 10.361 3.91916 10.3546C3.93971 10.3482 3.96008 10.3412 3.98029 10.3338C4.00049 10.3264 4.0205 10.3184 4.04029 10.31C4.0601 10.3015 4.07968 10.2926 4.09903 10.2832C4.11837 10.2737 4.13747 10.2638 4.15633 10.2534C4.17518 10.243 4.19376 10.2321 4.21207 10.2208C4.23037 10.2095 4.24838 10.1977 4.26608 10.1854C4.28379 10.1732 4.30118 10.1605 4.31826 10.1474C4.33533 10.1343 4.35205 10.1208 4.36845 10.1068C4.38484 10.0928 4.40086 10.0785 4.41653 10.0637C4.43218 10.0489 4.44747 10.0338 4.46237 10.0182L5.4589 8.98203L6.36618 9.85703C5.52871 10.663 5.38424 10.874 5.02024 11.244C4.99783 11.2668 4.97487 11.2891 4.95137 11.3108C4.92787 11.3324 4.90384 11.3535 4.87929 11.374C4.85474 11.3945 4.82969 11.4144 4.80415 11.4336C4.77861 11.4528 4.75261 11.4714 4.72616 11.4894C4.69969 11.5073 4.67279 11.5246 4.64548 11.5412C4.61815 11.5578 4.59044 11.5737 4.56233 11.589C4.53422 11.6042 4.50574 11.6188 4.4769 11.6326C4.44807 11.6464 4.41892 11.6595 4.38943 11.6719C4.35994 11.6842 4.33018 11.6959 4.30011 11.7068C4.27005 11.7177 4.23972 11.7278 4.20917 11.7372C4.1786 11.7466 4.14782 11.7552 4.11683 11.7631C4.08583 11.7709 4.05466 11.778 4.02331 11.7843C3.99196 11.7906 3.96049 11.7962 3.92887 11.8009C3.89724 11.8056 3.86551 11.8096 3.8337 11.8128C3.80188 11.816 3.77001 11.8183 3.73808 11.8199C3.70614 11.8215 3.67419 11.8223 3.64221 11.8223C3.61023 11.8223 3.57828 11.8215 3.54634 11.8199C3.5144 11.8183 3.48252 11.816 3.45071 11.8128C3.41889 11.8096 3.38717 11.8056 3.35555 11.8009C3.32393 11.7962 3.29244 11.7906 3.26109 11.7843C3.22974 11.778 3.19858 11.7709 3.16759 11.7631C3.1366 11.7552 3.10581 11.7466 3.07525 11.7372C3.04468 11.7278 3.01437 11.7177 2.9843 11.7068C2.95424 11.6959 2.92446 11.6842 2.89499 11.6719C2.8655 11.6595 2.83633 11.6464 2.8075 11.6326C2.77867 11.6188 2.7502 11.6042 2.72208 11.589C2.69397 11.5737 2.66626 11.5578 2.63894 11.5412C2.61161 11.5246 2.58472 11.5073 2.55826 11.4894C2.53179 11.4714 2.50579 11.4528 2.48025 11.4336C2.45471 11.4144 2.42966 11.3945 2.40512 11.374C2.38057 11.3535 2.35653 11.3324 2.33303 11.3108C2.30953 11.2891 2.28657 11.2668 2.26418 11.244L2.26418 11.2452ZM7.268 10.0338L5.87346 8.63378C5.10696 7.85718 5.10696 6.60884 5.87346 5.83224L6.88768 6.85112C6.81825 7.27112 6.57346 7.41171 7.37612 8.00709L7.7584 8.63806C7.7733 8.65359 7.78857 8.66874 7.80424 8.68349C7.81991 8.69826 7.83593 8.71262 7.85233 8.72656C7.86872 8.74052 7.88544 8.75404 7.9025 8.76715C7.91956 8.78026 7.93697 8.79294 7.95467 8.80517C7.97238 8.81741 7.99038 8.82918 8.00869 8.8405C8.02698 8.85184 8.04556 8.86269 8.06442 8.87308C8.08327 8.88346 8.10236 8.89337 8.1217 8.90281C8.14105 8.91222 8.16063 8.92117 8.18042 8.9296C8.20022 8.93804 8.22021 8.94598 8.24042 8.95342C8.26061 8.96084 8.28098 8.96776 8.30153 8.97417C8.32208 8.98058 8.34278 8.98646 8.36361 8.99184C8.38445 8.9972 8.40542 9.00204 8.42652 9.00634C8.4476 9.01065 8.46878 9.01442 8.49006 9.01766C8.51134 9.0209 8.53268 9.0236 8.55409 9.02577C8.5755 9.02793 8.59696 9.02956 8.61846 9.03064C8.63995 9.03172 8.66146 9.03226 8.68297 9.03226C8.70449 9.03226 8.72601 9.03172 8.74751 9.03064C8.769 9.02956 8.79045 9.02793 8.81187 9.02577C8.83328 9.0236 8.85462 9.0209 8.8759 9.01766C8.89717 9.01442 8.91836 9.01065 8.93945 9.00634C8.96054 9.00204 8.9815 8.9972 9.00234 8.99184C9.02317 8.98646 9.04387 8.98058 9.06443 8.97417C9.08498 8.96776 9.10534 8.96084 9.12555 8.95342C9.14574 8.94598 9.16574 8.93804 9.18554 8.9296C9.20534 8.92117 9.2249 8.91222 9.24426 8.90281C9.26361 8.89337 9.28269 8.88346 9.30155 8.87308C9.3204 8.86269 9.33896 8.85184 9.35727 8.8405C9.37558 8.82918 9.39357 8.81741 9.41129 8.80517C9.42899 8.79294 9.44638 8.78026 9.46345 8.76715C9.48051 8.75404 9.49724 8.74052 9.51364 8.72656C9.53003 8.71262 9.54605 8.69826 9.56172 8.68349C9.57737 8.66874 9.59266 8.65359 9.60756 8.63806L11.876 6.25437C11.8914 6.23935 11.9065 6.22392 11.9212 6.20813C11.9359 6.19234 11.9502 6.17621 11.964 6.15971C11.9779 6.14321 11.9914 6.12636 12.0044 6.10919C12.0175 6.09202 12.0301 6.07453 12.0423 6.05673C12.0544 6.03892 12.0661 6.02083 12.0774 6.00244C12.0887 5.98405 12.0995 5.96539 12.1098 5.94645C12.1201 5.92752 12.13 5.90835 12.1394 5.88892C12.1487 5.86949 12.1576 5.84986 12.166 5.83C12.1744 5.81013 12.1823 5.79006 12.1897 5.7698C12.1971 5.74955 12.204 5.72911 12.2103 5.70851C12.2167 5.6879 12.2225 5.66716 12.2279 5.64626C12.2332 5.62536 12.238 5.60434 12.2423 5.58321C12.2466 5.56207 12.2503 5.54084 12.2535 5.51952C12.2568 5.49819 12.2595 5.4768 12.2616 5.45535C12.2638 5.43389 12.2654 5.41239 12.2665 5.39084C12.2675 5.36931 12.2681 5.34775 12.2681 5.32619C12.2681 5.30463 12.2675 5.28307 12.2665 5.26153C12.2654 5.24 12.2638 5.21849 12.2616 5.19704C12.2595 5.17558 12.2568 5.15418 12.2535 5.13287C12.2503 5.11154 12.2466 5.09031 12.2423 5.06917C12.238 5.04803 12.2332 5.02702 12.2279 5.00613C12.2225 4.98522 12.2167 4.96447 12.2103 4.94387C12.204 4.92326 12.1971 4.90284 12.1897 4.88258C12.1823 4.86231 12.1744 4.84226 12.166 4.82239C12.1576 4.80253 12.1487 4.78288 12.1394 4.76345C12.13 4.74403 12.1201 4.72486 12.1098 4.70592C12.0995 4.687 12.0887 4.66834 12.0774 4.64995C12.0661 4.63156 12.0544 4.61346 12.0423 4.59566C12.0301 4.57786 12.0175 4.56037 12.0044 4.54319C11.9914 4.52601 11.9779 4.50918 11.964 4.49268C11.9502 4.47618 11.9359 4.46003 11.9212 4.44424C11.9065 4.42845 11.8914 4.41304 11.876 4.39802L11.3875 3.94262C11.3726 3.92709 11.3573 3.91194 11.3417 3.89719C11.326 3.88244 11.31 3.86808 11.2936 3.85412C11.2772 3.84016 11.2605 3.82664 11.2434 3.81353C11.2263 3.80042 11.2089 3.78776 11.1912 3.77552C11.1735 3.76329 11.1555 3.75152 11.1372 3.74018C11.1189 3.72885 11.1003 3.71799 11.0815 3.70762C11.0626 3.69722 11.0435 3.68731 11.0242 3.67788C11.0048 3.66846 10.9853 3.65952 10.9655 3.65108C10.9457 3.64265 10.9257 3.6347 10.9055 3.62727C10.8853 3.61984 10.8649 3.61292 10.8444 3.60651C10.8238 3.6001 10.8031 3.59422 10.7823 3.58886C10.7614 3.58349 10.7405 3.57866 10.7194 3.57436C10.6983 3.57005 10.6771 3.56626 10.6558 3.56302C10.6346 3.55978 10.6132 3.55709 10.5918 3.55491C10.5704 3.55275 10.5489 3.55113 10.5274 3.55005C10.506 3.54897 10.4844 3.54842 10.4629 3.54842C10.4414 3.54842 10.4199 3.54897 10.3984 3.55005C10.3769 3.55113 10.3554 3.55275 10.334 3.55491C10.3126 3.55709 10.2913 3.55978 10.27 3.56302C10.2487 3.56626 10.2275 3.57005 10.2065 3.57436C10.1854 3.57866 10.1644 3.58349 10.1436 3.58886C10.1227 3.59422 10.102 3.6001 10.0815 3.60651C10.0609 3.61292 10.0406 3.61984 10.0204 3.62727C10.0001 3.6347 9.98016 3.64265 9.96037 3.65108C9.94057 3.65952 9.92099 3.66846 9.90164 3.67788C9.8823 3.68731 9.86321 3.69722 9.84436 3.70762C9.82551 3.71799 9.80692 3.72885 9.78863 3.74018C9.77033 3.75152 9.75232 3.76329 9.73461 3.77552C9.71691 3.78776 9.69952 3.80042 9.68246 3.81353C9.66538 3.82664 9.64866 3.84016 9.63227 3.85412C9.61587 3.86808 9.59985 3.88244 9.58418 3.89719C9.56851 3.91194 9.55324 3.92709 9.53834 3.94262L8.54181 4.97902L7.63453 4.10402C8.472 3.29765 8.61647 3.08668 8.98047 2.71684C9.00288 2.69403 9.02582 2.67178 9.04932 2.65011C9.07283 2.62844 9.09685 2.60736 9.1214 2.58688C9.14596 2.5664 9.17101 2.54654 9.19653 2.52731C9.22207 2.50807 9.24806 2.48947 9.27453 2.47153C9.30098 2.45358 9.32788 2.4363 9.35519 2.4197C9.38251 2.40309 9.41022 2.38717 9.43833 2.37194C9.46644 2.3567 9.49491 2.34217 9.52374 2.32836C9.55256 2.31454 9.58172 2.30145 9.6112 2.28908C9.64069 2.27671 9.67045 2.26508 9.7005 2.25419C9.73055 2.24329 9.76088 2.23315 9.79144 2.22377C9.82199 2.21438 9.85277 2.20576 9.88376 2.1979C9.91474 2.19004 9.94591 2.18296 9.97726 2.17665C10.0086 2.17034 10.0401 2.16481 10.0717 2.16007C10.1033 2.15532 10.135 2.15136 10.1668 2.14819C10.1987 2.14502 10.2305 2.14264 10.2625 2.14105C10.2944 2.13946 10.3263 2.13867 10.3583 2.13867C10.3903 2.13867 10.4222 2.13946 10.4542 2.14105C10.4861 2.14264 10.518 2.14502 10.5498 2.14819C10.5816 2.15136 10.6133 2.15532 10.6449 2.16007C10.6765 2.16481 10.708 2.17034 10.7394 2.17665C10.7707 2.18296 10.8019 2.19004 10.8329 2.1979C10.8639 2.20576 10.8946 2.21438 10.9252 2.22377C10.9557 2.23315 10.9861 2.24329 11.0161 2.25419C11.0462 2.26508 11.0759 2.27671 11.1054 2.28908C11.1349 2.30145 11.1641 2.31454 11.1929 2.32836C11.2217 2.34217 11.2502 2.3567 11.2783 2.37194C11.3064 2.38717 11.3341 2.40309 11.3614 2.4197C11.3887 2.4363 11.4156 2.45358 11.4421 2.47153C11.4685 2.48947 11.4946 2.50807 11.5201 2.52731C11.5456 2.54654 11.5707 2.5664 11.5952 2.58688C11.6198 2.60736 11.6438 2.62844 11.6673 2.65011C11.6908 2.67178 11.7137 2.69403 11.7361 2.71684L13.1311 4.11684C13.1311 4.11684 14.2123 5.65918 13.1311 6.91374L10.0246 10.0336C10.0022 10.0564 9.97929 10.0786 9.95577 10.1003C9.93225 10.122 9.90822 10.143 9.88367 10.1635C9.85911 10.184 9.83406 10.2038 9.80853 10.2231C9.78299 10.2423 9.75698 10.2609 9.73051 10.2788C9.70405 10.2968 9.67715 10.314 9.64984 10.3306C9.62251 10.3472 9.59479 10.3632 9.56668 10.3784C9.53856 10.3936 9.5101 10.4081 9.48126 10.4219C9.45241 10.4358 9.42325 10.4488 9.39377 10.4612C9.3643 10.4736 9.33453 10.4852 9.30447 10.4961C9.27439 10.507 9.24408 10.5171 9.21352 10.5265C9.18297 10.5359 9.15218 10.5445 9.12119 10.5523C9.09019 10.5602 9.05902 10.5673 9.02768 10.5736C8.99635 10.5799 8.96486 10.5854 8.93325 10.5902C8.90163 10.5949 8.86991 10.5989 8.83809 10.602C8.80628 10.6052 8.77441 10.6076 8.74247 10.6092C8.71054 10.6108 8.6786 10.6115 8.64662 10.6115C8.61464 10.6115 8.58269 10.6108 8.55077 10.6092C8.51883 10.6076 8.48695 10.6052 8.45515 10.602C8.42332 10.5989 8.3916 10.5949 8.35999 10.5902C8.32837 10.5854 8.29689 10.5799 8.26556 10.5736C8.23421 10.5673 8.20304 10.5602 8.17206 10.5523C8.14105 10.5445 8.11027 10.5359 8.07972 10.5265C8.04916 10.5171 8.01884 10.507 7.98877 10.4961C7.95871 10.4852 7.92894 10.4736 7.89947 10.4612C7.86998 10.4488 7.84081 10.4358 7.81198 10.4219C7.78315 10.4081 7.75468 10.3936 7.72656 10.3784C7.69845 10.3632 7.67072 10.3472 7.64341 10.3306C7.61609 10.314 7.5892 10.2968 7.56273 10.2788C7.53626 10.2609 7.51026 10.2423 7.48472 10.2231C7.45918 10.2038 7.43413 10.184 7.40958 10.1635C7.38501 10.143 7.36097 10.122 7.33747 10.1003C7.31395 10.0786 7.29099 10.0564 7.26859 10.0336L7.268 10.0336L7.268 10.0338Z" stroke="rgba(237, 242, 254, 1)" stroke-width="0.2"      fill="#5380FD" >
</path>
</svg>
