<svg xmlns="http://www.w3.org/2000/svg" xmlns:xlink="http://www.w3.org/1999/xlink" width="12" height="12" viewBox="0 0 12 12" fill="none">
<path d="M1.5 5L5 5L5 1.5L1.5 1.5L1.5 5Z" stroke="rgba(22, 93, 255, 1)" stroke-width="1" stroke-linejoin="round" stroke-linecap="round" >
</path>
<path   fill="rgba(22, 93, 255, 1)"  d="M8.75 1C9.99264 1 11 2.00736 11 3.25C11 4.49264 9.99264 5.5 8.75 5.5C7.50736 5.5 6.5 4.49264 6.5 3.25Q6.5 1 8.75 1L8.75 2Q7.5 2 7.5 3.25C7.5 3.94036 8.05964 4.5 8.75 4.5C9.44036 4.5 10 3.94036 10 3.25C10 2.55964 9.44036 2 8.75 2L8.75 1Z">
</path>
<path d="M7 10.5L10.5 10.5L10.5 7L7 7L7 10.5Z" stroke="rgba(22, 93, 255, 1)" stroke-width="1" stroke-linejoin="round" stroke-linecap="round" >
</path>
<path d="M1.5 10.5L5 10.5L5 7L1.5 7L1.5 10.5Z" stroke="rgba(22, 93, 255, 1)" stroke-width="1" stroke-linejoin="round" stroke-linecap="round" >
</path>
</svg>
