<svg xmlns="http://www.w3.org/2000/svg" xmlns:xlink="http://www.w3.org/1999/xlink" width="16" height="16" viewBox="0 0 16 16" fill="none">
<path d="M10.5518 3.95261C8.72934 2.13016 5.77457 2.13016 3.95212 3.95261C2.12967 5.77506 2.12967 8.72983 3.95212 10.5523C5.77457 12.3747 8.72934 12.3747 10.5518 10.5523C12.3742 8.72983 12.3742 5.77506 10.5518 3.95261ZM3.00931 3.0098C5.35246 0.666655 9.15145 0.666655 11.4946 3.0098C13.6784 5.19361 13.8269 8.64199 11.9401 10.9978L14.323 13.3807L13.3802 14.3235L10.9973 11.9406C8.6415 13.8274 5.19312 13.6789 3.00931 11.4951C0.666167 9.15194 0.666167 5.35295 3.00931 3.0098Z" stroke="rgba(255, 255, 255, 1)" stroke-width="0.33333333333333326"    fill-rule="evenodd"  fill="#FFFFFF" >
</path>
</svg>
