<?xml version="1.0" standalone="no"?><!DOCTYPE svg PUBLIC "-//W3C//DTD SVG 1.1//EN" "http://www.w3.org/Graphics/SVG/1.1/DTD/svg11.dtd"><svg t="1762333217809" class="icon" viewBox="0 0 1024 1024" version="1.1" xmlns="http://www.w3.org/2000/svg" p-id="5073" width="256" height="256" xmlns:xlink="http://www.w3.org/1999/xlink"><path d="M832 981.333333a21.266667 21.266667 0 0 1-15.086667-6.246666L533.333333 691.5l-283.58 283.586667a21.333333 21.333333 0 0 1-30.173333-30.173334l298.666667-298.666666a21.333333 21.333333 0 0 1 30.173333 0l298.666667 298.666666A21.333333 21.333333 0 0 1 832 981.333333zM548.42 377.753333l298.666667-298.666666a21.333333 21.333333 0 1 0-30.173334-30.173334L533.333333 332.5 249.753333 48.913333a21.333333 21.333333 0 0 0-30.173333 30.173334l298.666667 298.666666a21.333333 21.333333 0 0 0 30.173333 0z" fill="#5380FD" p-id="5074"></path></svg>