<svg xmlns="http://www.w3.org/2000/svg" xmlns:xlink="http://www.w3.org/1999/xlink" viewBox="0 0 32 32" width="20" height="20" style="" filter="none">
    
    <g>
    <path d="M23.936 10.208c-0.064-1.568-0.32-3.040-1.664-4.224-0.864-0.768-1.92-1.184-2.88-1.792-2.944-1.824-7.648-1.216-10.176 0.352-2.016 1.28-3.552 3.136-4.32 5.44-0.48 1.504-1.152 2.944-0.704 4.672 0.256 1.056 1.12 2.016 1.12 2.752 0.032 2.048 1.536 2.784 2.656 3.712 1.728 1.44 3.584 0.672 4.16-1.44 0.032-0.192 0.096-0.48 0.192-0.48 2.048-0.352 0.736-1.44 0.48-2.4 1.888 0.352 3.68 0.544 5.536 0.096 1.28-0.288 2.016-0.928 2.048-2.208 0.032-0.864 0.32-1.248 1.184-1.504 1.568-0.448 2.432-1.536 2.368-2.976zM30.912 18.144c-0.544-0.864-1.216-1.632-1.792-2.464-0.768-1.024-1.216-2.144-0.768-3.488 0.224-0.64 0.128-1.344-0.096-2.016-1.76-5.664-7.072-10.912-15.84-10.080-4.928 0.448-8.416 2.88-10.336 7.36-1.984 4.576-1.728 9.12 1.28 13.184 2.368 3.2 3.84 6.464 2.848 10.496-0.064 0.288-0.288 0.736 0.224 0.768 0.32 0.032 0.48-0.256 0.576-0.736 0.576-3.84-0.16-7.36-2.752-10.336-1.888-2.176-2.528-4.768-2.656-7.52-0.384-7.296 4.96-12.64 12.448-12.608 7.424-0.192 12.064 4.672 13.568 9.664 0.16 0.512 0.32 0.992 0.16 1.472-0.608 1.792-0.032 3.264 1.088 4.608 0.416 0.544 0.832 1.088 1.248 1.664 0.608 0.768 0.48 1.312-0.512 1.6-0.608 0.16-1.408 0.352-1.28 1.184 0.288 1.824-0.032 3.616 0.032 5.44 0.128 2.144 0.064 2.176-2.112 2.432-0.512 0.064-1.024 0.096-1.536 0.192-1.248 0.256-2.048 0.96-2.336 2.24-0.064 0.288-0.224 0.704 0.256 0.8 0.384 0.064 0.384-0.352 0.416-0.576 0.288-1.408 1.248-1.824 2.528-1.888 0.672-0.032 1.376-0.128 2.048-0.256s1.28-0.576 1.344-1.248c0.16-1.984 0.448-4 0.224-5.952-0.16-1.216 0.032-1.6 1.088-1.952 0.992-0.352 1.184-1.12 0.64-1.984z" fill="rgba(0,94,255,1)"></path>
    </g>
  </svg>