<svg xmlns="http://www.w3.org/2000/svg" xmlns:xlink="http://www.w3.org/1999/xlink" width="16" height="16" viewBox="0 0 16 16" fill="none">
<path d="M13.807 13.4564L7.9816 13.4564C7.66608 13.4564 7.41528 13.7015 7.41528 14.0099C7.41528 14.3183 7.66608 14.5635 7.9816 14.5635L13.807 14.5635C14.1226 14.5635 14.3734 14.3183 14.3734 14.0099C14.3734 13.7015 14.1226 13.4564 13.807 13.4564ZM9.59336 3.5061C9.45552 3.5061 9.28824 3.5829 9.14752 3.72354C8.92952 3.94162 8.86495 4.22379 9.00192 4.36067L11.5296 6.88834C11.5782 6.9369 11.645 6.96018 11.7209 6.96018C11.8587 6.96018 12.026 6.88338 12.1667 6.74274C12.3848 6.52467 12.4493 6.24251 12.3123 6.10562L9.78464 3.57795C9.736 3.52938 9.6692 3.5061 9.59336 3.5061Z"   fill="#5380FD" >
</path>
<path d="M11.7699 2.23572L13.7875 4.25339L5.71841 12.3225L2.48505 13.502L3.69552 10.3099L11.7699 2.23572ZM11.7699 1.06323C11.7543 1.06321 11.7388 1.06357 11.7233 1.06432C11.7078 1.06506 11.6923 1.06619 11.6768 1.06769C11.6614 1.0692 11.6459 1.07109 11.6306 1.07336C11.6152 1.07562 11.5999 1.07826 11.5847 1.08128C11.5694 1.0843 11.5543 1.0877 11.5392 1.09146C11.5241 1.09523 11.5092 1.09936 11.4943 1.10387C11.4795 1.10837 11.4647 1.11324 11.4501 1.11847C11.4355 1.1237 11.421 1.12929 11.4066 1.13523C11.3923 1.14117 11.3781 1.14747 11.364 1.15411C11.35 1.16075 11.3361 1.16774 11.3224 1.17506C11.3087 1.18239 11.2952 1.19005 11.2819 1.19804C11.2686 1.20603 11.2555 1.21435 11.2426 1.22299C11.2297 1.23162 11.217 1.24057 11.2045 1.24984C11.1921 1.2591 11.1798 1.26866 11.1678 1.27853C11.1558 1.28839 11.1441 1.29855 11.1326 1.30899C11.1211 1.31944 11.1099 1.33016 11.0989 1.34115L2.8888 9.55131C2.86513 9.57498 2.84279 9.59982 2.82176 9.62586C2.80071 9.65189 2.78112 9.67897 2.76295 9.70708C2.74477 9.73518 2.72813 9.76417 2.71302 9.79404C2.69791 9.82392 2.68443 9.8545 2.67257 9.88579L1.08257 14.0785C0.918647 14.5107 1.25281 14.9367 1.67065 14.9367C1.74224 14.9367 1.81641 14.9242 1.8908 14.8971L6.13065 13.3504C6.14684 13.3445 6.16285 13.3382 6.17868 13.3314C6.19451 13.3246 6.21015 13.3174 6.2256 13.3098C6.24105 13.3022 6.25627 13.2941 6.27129 13.2857C6.28629 13.2772 6.30105 13.2684 6.31559 13.2591C6.3301 13.2498 6.34437 13.2402 6.35837 13.2301C6.37237 13.2201 6.38609 13.2097 6.39951 13.1989C6.41295 13.1881 6.42607 13.177 6.4389 13.1655C6.45173 13.154 6.46423 13.1421 6.47641 13.13L14.6821 4.92434C15.0526 4.55379 15.0526 3.95308 14.6821 3.58251L12.4408 1.34115C12.4298 1.33016 12.4186 1.31944 12.4071 1.30899C12.3956 1.29855 12.3839 1.2884 12.3719 1.27853C12.3599 1.26867 12.3476 1.2591 12.3352 1.24984C12.3227 1.24058 12.31 1.23163 12.2971 1.22299C12.2842 1.21436 12.2711 1.20604 12.2578 1.19805C12.2444 1.19006 12.2309 1.1824 12.2172 1.17508C12.2036 1.16775 12.1897 1.16077 12.1756 1.15412C12.1616 1.14748 12.1474 1.14119 12.1331 1.13524C12.1187 1.1293 12.1042 1.12371 12.0896 1.11848C12.075 1.11325 12.0602 1.10838 12.0454 1.10388C12.0305 1.09938 12.0155 1.09524 12.0005 1.09147C11.9854 1.08771 11.9702 1.08431 11.955 1.08129C11.9398 1.07827 11.9245 1.07563 11.9091 1.07336C11.8937 1.07109 11.8783 1.06921 11.8629 1.0677C11.8474 1.06619 11.8319 1.06507 11.8164 1.06432C11.8009 1.06358 11.7854 1.06321 11.7699 1.06323Z"   fill="#5380FD" >
</path>
</svg>
