<svg xmlns="http://www.w3.org/2000/svg" xmlns:xlink="http://www.w3.org/1999/xlink" width="16" height="16" viewBox="0 0 16 16" fill="none">
<path d="M13.807 13.4562L7.9816 13.4562C7.66608 13.4562 7.41528 13.7013 7.41528 14.0097C7.41528 14.3181 7.66608 14.5632 7.9816 14.5632L13.807 14.5632C14.1226 14.5632 14.3734 14.3181 14.3734 14.0097C14.3734 13.7013 14.1226 13.4562 13.807 13.4562ZM9.59336 3.50586C9.45552 3.50586 9.28824 3.58266 9.14752 3.7233C8.92952 3.94138 8.86495 4.22355 9.00192 4.36042L11.5296 6.88809C11.5782 6.93666 11.645 6.95994 11.7209 6.95994C11.8587 6.95994 12.026 6.88314 12.1667 6.7425C12.3848 6.52442 12.4493 6.24227 12.3123 6.10537L9.78464 3.5777C9.736 3.52914 9.6692 3.50586 9.59336 3.50586Z"   fill="#FFFFFF" >
</path>
<path d="M11.7699 2.23597L13.7875 4.25363L5.71841 12.3228L2.48505 13.5022L3.69552 10.3102L11.7699 2.23597ZM11.7699 1.06348C11.7543 1.06346 11.7388 1.06382 11.7233 1.06456C11.7078 1.06531 11.6923 1.06643 11.6768 1.06794C11.6614 1.06945 11.6459 1.07133 11.6306 1.0736C11.6152 1.07586 11.5999 1.07851 11.5847 1.08153C11.5694 1.08455 11.5543 1.08794 11.5392 1.09171C11.5241 1.09547 11.5092 1.09961 11.4943 1.10411C11.4795 1.10862 11.4647 1.11348 11.4501 1.11871C11.4355 1.12394 11.421 1.12953 11.4066 1.13547C11.3923 1.14142 11.3781 1.14771 11.364 1.15435C11.35 1.161 11.3361 1.16798 11.3224 1.17531C11.3087 1.18263 11.2952 1.19029 11.2819 1.19829C11.2686 1.20628 11.2555 1.21459 11.2426 1.22323C11.2297 1.23187 11.217 1.24082 11.2045 1.25008C11.1921 1.25934 11.1798 1.26891 11.1678 1.27877C11.1558 1.28864 11.1441 1.29879 11.1326 1.30924C11.1211 1.31968 11.1099 1.3304 11.0989 1.3414L2.8888 9.55155C2.86513 9.57523 2.84279 9.60007 2.82176 9.6261C2.80071 9.65213 2.78112 9.67921 2.76295 9.70732C2.74477 9.73543 2.72813 9.76441 2.71302 9.79429C2.69791 9.82416 2.68443 9.85474 2.67257 9.88604L1.08257 14.0788C0.918647 14.511 1.25281 14.937 1.67065 14.937C1.74224 14.937 1.81641 14.9244 1.8908 14.8973L6.13065 13.3507C6.14684 13.3448 6.16285 13.3384 6.17868 13.3316C6.19451 13.3249 6.21015 13.3177 6.2256 13.31C6.24105 13.3024 6.25627 13.2944 6.27129 13.2859C6.28629 13.2775 6.30105 13.2686 6.31559 13.2593C6.3301 13.2501 6.34437 13.2404 6.35837 13.2304C6.37237 13.2204 6.38609 13.2099 6.39951 13.1991C6.41295 13.1884 6.42607 13.1772 6.4389 13.1657C6.45173 13.1542 6.46423 13.1424 6.47641 13.1302L14.6821 4.92459C15.0526 4.55404 15.0526 3.95332 14.6821 3.58276L12.4408 1.3414C12.4298 1.3304 12.4186 1.31968 12.4071 1.30924C12.3956 1.2988 12.3839 1.28864 12.3719 1.27878C12.3599 1.26891 12.3476 1.25935 12.3352 1.25009C12.3227 1.24082 12.31 1.23187 12.2971 1.22324C12.2842 1.2146 12.2711 1.20629 12.2578 1.19829C12.2444 1.1903 12.2309 1.18265 12.2172 1.17532C12.2036 1.16799 12.1897 1.16101 12.1756 1.15437C12.1616 1.14772 12.1474 1.14143 12.1331 1.13549C12.1187 1.12954 12.1042 1.12396 12.0896 1.11873C12.075 1.1135 12.0602 1.10863 12.0454 1.10412C12.0305 1.09962 12.0155 1.09548 12.0005 1.09172C11.9854 1.08795 11.9702 1.08456 11.955 1.08154C11.9398 1.07852 11.9245 1.07587 11.9091 1.07361C11.8937 1.07134 11.8783 1.06945 11.8629 1.06794C11.8474 1.06644 11.8319 1.06531 11.8164 1.06456C11.8009 1.06382 11.7854 1.06346 11.7699 1.06348Z"   fill="#FFFFFF" >
</path>
</svg>
