<svg xmlns="http://www.w3.org/2000/svg" xmlns:xlink="http://www.w3.org/1999/xlink" width="17" height="12" viewBox="0 0 17 12" fill="none">
<path d="M1.21429 9.20625L5.75458 6L1.21429 2.79375L0.948661 2.60625L0 1.93687L0 10.0612L0.948661 9.39187L1.21429 9.20625ZM8.5 6.46312L15.7857 1.32L15.9375 1.21312L16.8292 0.585C16.6167 0.234375 16.2297 0 15.7857 0L1.21429 0C0.806362 0 0.445871 0.19875 0.225781 0.5025L1.21429 1.32L8.5 6.46312ZM10.2 6.73687L8.5 7.93687L6.8 6.73687L1.21429 10.68L0.948661 10.8956L0.218192 11.4862C0.436384 11.7975 0.802567 12 1.21429 12L15.7857 12C16.2316 12 16.6205 11.7637 16.8311 11.4112L15.7857 10.68L10.2 6.73687ZM15.7857 2.79375L11.2435 6L15.7857 9.20625L17 10.0631L17 1.93687L15.7857 2.79375Z"   fill="#5380FD" >
</path>
</svg>
