<?xml version="1.0" standalone="no"?><!DOCTYPE svg PUBLIC "-//W3C//DTD SVG 1.1//EN" "http://www.w3.org/Graphics/SVG/1.1/DTD/svg11.dtd"><svg t="1762333416035" class="icon" viewBox="0 0 1280 1024" version="1.1" xmlns="http://www.w3.org/2000/svg" p-id="18537" width="320" height="256" xmlns:xlink="http://www.w3.org/1999/xlink"><path d="M1264.810667 474.88c2.304 1.28 4.693333 2.474667 6.656 4.394667 6.272 6.272 8.832 14.506667 8.533333 22.784a29.952 29.952 0 0 1-8.533333 22.698666c-2.005333 1.92-4.352 3.072-6.656 4.437334l-253.525334 252.544a30.634667 30.634667 0 0 1-43.306666-43.221334l237.312-236.458666-237.312-236.544a30.634667 30.634667 0 0 1 43.306666-43.221334l253.525334 252.586667zM36.992 530.261333c-2.304-1.365333-4.693333-2.432-6.656-4.437333a29.994667 29.994667 0 0 1-8.533333-22.784 29.994667 29.994667 0 0 1 8.533333-22.784c2.005333-1.962667 4.352-3.072 6.656-4.394667L290.56 222.293333a30.634667 30.634667 0 1 1 43.306667 43.349334l-237.312 237.354666 237.312 237.397334a30.634667 30.634667 0 1 1-43.306667 43.306666L36.992 530.218667z" fill="#5380FD" p-id="18538"></path></svg>