<svg xmlns="http://www.w3.org/2000/svg" xmlns:xlink="http://www.w3.org/1999/xlink" width="40" height="40" viewBox="0 0 40 40" fill="none">
<circle cx="20" cy="20" r="20"   fill="#FFDEDE" >
</circle>
<path d="M10.3082 26.417C10.3082 27.0022 10.7823 27.4766 11.3673 27.4766L17.6317 27.4726C17.8361 27.9296 18.0798 28.3639 18.3636 28.7673L10.4317 28.7673C10.4317 28.7673 9 29.0025 9 27.1045L9 11.7133C9 11.7133 9.02203 10.0096 10.791 10.0096L17.1796 10.0096C17.1796 10.0096 17.9289 9.84988 18.5807 10.8347C19.201 11.7707 19.5469 12.3654 19.5469 12.3654C19.5469 12.3654 19.7879 12.6368 20.2791 12.6267C20.273 12.6269 20.27 12.6271 20.27 12.6272C20.2701 12.6355 28.4931 12.6265 28.4931 12.6265C28.4931 12.6265 29.9428 12.4803 29.9428 14.0731L29.9428 18.8854C29.5441 18.4992 29.1055 18.1578 28.6393 17.8699L28.6393 15.4299C28.6393 14.8447 28.1651 14.3696 27.5802 14.3696L11.3673 14.3696C10.7823 14.3696 10.3082 14.8447 10.3082 15.4299L10.3082 26.417ZM18.5735 23.9487C18.5759 20.6113 21.2867 17.9022 24.6257 17.903C27.971 17.903 30.6857 20.6183 30.681 23.9582C30.6764 27.2886 27.964 29.9983 24.6344 30C21.2899 30.0015 18.572 27.2877 18.5735 23.9487ZM26.8877 27.2154C27.1635 27.4892 27.6118 27.4892 27.8884 27.2154C28.1644 26.9417 28.1644 26.4981 27.8884 26.2236C27.5032 25.842 26.6007 24.9414 25.6234 23.9644C26.603 22.9836 27.5079 22.0766 27.89 21.6904C28.1636 21.4135 28.1636 20.966 27.89 20.6891C27.6164 20.413 27.173 20.4122 26.8986 20.6891C26.5158 21.0761 25.6093 21.9854 24.6272 22.9678C23.646 21.9854 22.7396 21.0761 22.3559 20.6891C22.0823 20.4122 21.6381 20.413 21.3645 20.6891C21.0909 20.966 21.0909 21.4135 21.3653 21.6904C21.7474 22.0767 22.6515 22.9836 23.6311 23.9644C22.6547 24.9414 21.7521 25.842 21.3669 26.2236C21.0902 26.4981 21.0902 26.9417 21.3669 27.2154C21.6436 27.4892 22.091 27.4892 22.3677 27.2154C22.7522 26.8347 23.6524 25.9356 24.6272 24.961C25.6029 25.9356 26.5031 26.8347 26.8877 27.2154Z" fill-rule="evenodd"  fill="#F72A2D" >
</path>
</svg>
