<svg xmlns="http://www.w3.org/2000/svg" xmlns:xlink="http://www.w3.org/1999/xlink" width="14" height="14" viewBox="0 0 14 14" fill="none">
<path d="M13.125 2.625L13.125 1.755C13.125 1.27112 12.7389 0.875 12.255 0.875L11.375 0.875C10.8911 0.875 10.505 1.27112 10.505 1.755L3.505 1.755C3.505 1.27112 3.10888 0.875 2.625 0.875L1.755 0.875C1.27112 0.875 0.875 1.27112 0.875 1.755L0.875 2.625C0.875 3.10888 1.27112 3.505 1.755 3.505L1.755 10.505C1.27112 10.505 0.875 10.8911 0.875 11.375C0.875 11.8589 0.875 12.255 0.875 12.255C0.875 12.738 1.27112 13.125 1.755 13.125L2.625 13.125C3.10888 13.125 3.505 12.738 3.505 12.255L10.505 12.255C10.505 12.738 10.8911 13.125 11.375 13.125L12.255 13.125C12.7389 13.125 13.125 12.738 13.125 12.255L13.125 11.375C13.125 10.8911 12.7389 10.505 12.255 10.505L12.255 3.505C12.7389 3.505 13.125 3.10888 13.125 2.625ZM11.375 10.505C10.8911 10.505 10.505 10.8911 10.505 11.375L3.505 11.375C3.505 10.8911 3.10888 10.505 2.625 10.505L2.625 3.505C3.10888 3.505 3.505 3.10888 3.505 2.625L10.505 2.625C10.505 3.10888 10.8911 3.505 11.375 3.505L11.375 10.505Z"   fill="#5380FD" >
</path>
<path d="M10.0625 4.375L3.9375 4.375C3.696 4.375 3.5 4.571 3.5 4.8125L3.5 5.6875C3.5 5.929 3.696 6.125 3.9375 6.125C4.179 6.125 4.375 5.929 4.375 5.6875L4.375 5.25L6.125 5.25L6.125 8.75L5.6875 8.75C5.446 8.75 5.25 8.946 5.25 9.1875C5.25 9.429 5.446 9.625 5.6875 9.625L8.3125 9.625C8.554 9.625 8.75 9.429 8.75 9.1875C8.75 8.946 8.554 8.75 8.3125 8.75L7.875 8.75L7.875 5.25L9.625 5.25L9.625 5.6875C9.625 5.929 9.821 6.125 10.0625 6.125C10.304 6.125 10.5 5.929 10.5 5.6875L10.5 4.8125C10.5 4.571 10.304 4.375 10.0625 4.375Z"   fill="#5380FD" >
</path>
</svg>
