<svg xmlns="http://www.w3.org/2000/svg" xmlns:xlink="http://www.w3.org/1999/xlink" width="16" height="16" viewBox="0 0 16 16" fill="none">
<path d="M11.371 16L2.1078 16C1.40885 16 0.844641 15.4106 0.844641 14.6864L0.844641 1.31369C0.844641 0.589476 1.40885 0 2.1078 0L11.371 0C12.0699 0 12.6342 0.589476 12.6342 1.31369L12.6342 5.16212C12.6342 5.39791 12.4489 5.58318 12.2131 5.58318C11.9773 5.58318 11.792 5.39791 11.792 5.16212L11.792 1.31369C11.792 1.05263 11.6068 0.842108 11.371 0.842108L2.1078 0.842108C1.87201 0.842108 1.68675 1.05263 1.68675 1.31369L1.68675 14.6864C1.68675 14.9474 1.87201 15.1579 2.1078 15.1579L11.371 15.1579C11.6068 15.1579 11.792 14.9474 11.792 14.6864L11.792 10.0716C11.792 9.83582 11.9773 9.65056 12.2131 9.65056C12.4489 9.65056 12.6342 9.83582 12.6342 10.0716L12.6342 14.6864C12.6342 15.4106 12.0699 16 11.371 16ZM8.84467 5.89476L4.63413 5.89476C4.61345 5.89479 4.59278 5.89431 4.57212 5.89331C4.55146 5.89232 4.53084 5.89082 4.51026 5.88883C4.48969 5.88683 4.46916 5.88431 4.4487 5.8813C4.42824 5.87829 4.40786 5.87477 4.38758 5.87076C4.3673 5.86674 4.34712 5.86224 4.32705 5.85724C4.30699 5.85222 4.28705 5.84673 4.26727 5.84074C4.24746 5.83475 4.22783 5.82829 4.20835 5.82133C4.18888 5.81438 4.16959 5.80696 4.15047 5.79905C4.13136 5.79115 4.11246 5.78278 4.09376 5.77395C4.07506 5.76512 4.05658 5.75584 4.03834 5.7461C4.0201 5.73637 4.00212 5.72619 3.98437 5.71556C3.96662 5.70494 3.94916 5.69388 3.93195 5.68239C3.91475 5.67091 3.89784 5.65901 3.88123 5.6467C3.86462 5.63438 3.84832 5.62166 3.83233 5.60855C3.81634 5.59543 3.80069 5.58193 3.78536 5.56804C3.77005 5.55416 3.75506 5.5399 3.74044 5.52528C3.72582 5.51066 3.71157 5.49568 3.69768 5.48036C3.68379 5.46503 3.67029 5.44938 3.65717 5.43339C3.64406 5.4174 3.63134 5.4011 3.61902 5.38449C3.60671 5.36788 3.59481 5.35097 3.58333 5.33377C3.57184 5.31658 3.56078 5.29911 3.55016 5.28137C3.53953 5.26362 3.52935 5.24563 3.51962 5.22739C3.50988 5.20914 3.5006 5.19067 3.49177 5.17197C3.48294 5.15327 3.47457 5.13436 3.46667 5.11525C3.45876 5.09613 3.45134 5.07684 3.44439 5.05737C3.43743 5.03789 3.43096 5.01826 3.42498 4.99845C3.41899 4.97867 3.4135 4.95873 3.40848 4.93867C3.40348 4.9186 3.39897 4.89842 3.39496 4.87814C3.39095 4.85786 3.38743 4.83748 3.38442 4.81702C3.38141 4.79656 3.37889 4.77603 3.3769 4.75546C3.3749 4.73488 3.3734 4.71426 3.37241 4.6936C3.37141 4.67294 3.37093 4.65227 3.37097 4.63159L3.37097 3.78949C3.37097 3.09054 3.93518 2.52632 4.63413 2.52632L8.84467 2.52632C9.54362 2.52632 10.1078 3.09054 10.1078 3.78949L10.1078 4.63159C10.1078 5.33054 9.54362 5.89476 8.84467 5.89476ZM4.63413 3.36843C4.39834 3.36843 4.21307 3.5537 4.21307 3.78949L4.21307 4.63159C4.21307 4.86738 4.39834 5.05265 4.63413 5.05265L8.84467 5.05265C9.08046 5.05265 9.26572 4.86738 9.26572 4.63159L9.26572 3.78949C9.26572 3.5537 9.08046 3.36843 8.84467 3.36843L4.63413 3.36843ZM2.1078 5.7516L0.423587 5.7516C0.187797 5.7516 0.00253296 5.56633 0.00253296 5.33054C0.00253296 5.09475 0.187797 4.90949 0.423587 4.90949L2.1078 4.90949C2.34359 4.90949 2.52886 5.09475 2.52886 5.33054C2.52886 5.56633 2.34359 5.7516 2.1078 5.7516ZM2.1078 8.56424L0.423587 8.56424C0.187797 8.56424 0.00253296 8.37897 0.00253296 8.14318C0.00253296 7.90739 0.187797 7.72213 0.423587 7.72213L2.1078 7.72213C2.34359 7.72213 2.52886 7.90739 2.52886 8.14318C2.52886 8.37897 2.34359 8.56424 2.1078 8.56424ZM2.1078 11.3685L0.423587 11.3685C0.187797 11.3685 0.00253296 11.1832 0.00253296 10.9474C0.00253296 10.7116 0.187797 10.5263 0.423587 10.5263L2.1078 10.5263C2.34359 10.5263 2.52886 10.7116 2.52886 10.9474C2.52886 11.1832 2.34359 11.3685 2.1078 11.3685ZM8.00256 13.8948L6.31834 13.8948C6.08255 13.8948 5.89729 13.7095 5.89729 13.4737C5.89729 13.2379 6.08255 13.0527 6.31834 13.0527L8.00256 13.0527C8.23835 13.0527 8.42361 13.2379 8.42361 13.4737C8.42361 13.7095 8.23835 13.8948 8.00256 13.8948ZM8.03624 13.4064L7.9773 11.0653C7.97675 11.0481 7.97659 11.0308 7.97677 11.0136C7.97695 10.9963 7.97751 10.9791 7.97841 10.9618C7.97932 10.9446 7.9806 10.9274 7.98223 10.9102C7.98386 10.8931 7.98586 10.876 7.98822 10.8589C7.99057 10.8418 7.99328 10.8247 7.99636 10.8078C7.99943 10.7908 8.00286 10.7739 8.00664 10.7571C8.01044 10.7402 8.01457 10.7235 8.01906 10.7068C8.02355 10.6902 8.02838 10.6736 8.03356 10.6572C8.03874 10.6407 8.04429 10.6244 8.05016 10.6082C8.05603 10.592 8.06225 10.5759 8.06879 10.5599C8.07534 10.5439 8.08223 10.5281 8.08945 10.5125C8.09667 10.4968 8.1042 10.4813 8.11207 10.4659C8.11994 10.4506 8.12813 10.4354 8.13664 10.4204C8.14514 10.4054 8.15397 10.3906 8.1631 10.3759C8.17223 10.3613 8.18167 10.3469 8.19141 10.3326C8.20115 10.3184 8.21118 10.3044 8.22151 10.2906L12.9289 3.81475C12.9411 3.79797 12.9536 3.78151 12.9666 3.76534C12.9796 3.74917 12.993 3.73335 13.0067 3.71784C13.0205 3.70233 13.0346 3.68718 13.0491 3.67238C13.0636 3.65756 13.0785 3.64312 13.0937 3.62906C13.1089 3.61498 13.1245 3.60128 13.1404 3.58797C13.1562 3.57467 13.1724 3.56175 13.189 3.54924C13.2055 3.53672 13.2223 3.52463 13.2395 3.51294C13.2566 3.50126 13.274 3.49001 13.2916 3.47917C13.3093 3.46835 13.3272 3.45797 13.3454 3.44802C13.3636 3.43807 13.382 3.42858 13.4007 3.41955C13.4194 3.41052 13.4382 3.40193 13.4573 3.39383C13.4764 3.38572 13.4956 3.37807 13.5151 3.37091C13.5345 3.36376 13.5541 3.35708 13.5739 3.35088C13.5937 3.34468 13.6136 3.33899 13.6337 3.33378C13.6537 3.32856 13.6739 3.32384 13.6942 3.31962C13.7145 3.31539 13.7349 3.31167 13.7554 3.30846C13.7759 3.30524 13.7964 3.30253 13.817 3.30032C13.8376 3.29812 13.8583 3.29642 13.879 3.29522C13.8997 3.29404 13.9204 3.29337 13.9411 3.29318C13.9618 3.29302 13.9825 3.29337 14.0033 3.2942C14.024 3.29506 14.0446 3.29642 14.0653 3.29828C14.0859 3.30014 14.1065 3.30253 14.127 3.3054C14.1476 3.30828 14.168 3.31167 14.1884 3.31555C14.2087 3.31945 14.229 3.32383 14.2491 3.32871C14.2693 3.3336 14.2893 3.33897 14.3092 3.34485C14.329 3.35072 14.3488 3.35707 14.3683 3.36391C14.3879 3.37075 14.4073 3.37807 14.4265 3.38587C14.4457 3.39366 14.4647 3.40192 14.4835 3.41065C14.5023 3.41939 14.5209 3.42856 14.5392 3.43822C14.5576 3.44787 14.5757 3.45795 14.5935 3.46848C14.6114 3.47902 14.6289 3.48999 14.6463 3.50139C14.6636 3.51279 14.6806 3.52462 14.6973 3.53685L15.3794 4.0337C15.9436 4.44633 16.07 5.23791 15.6573 5.80212L10.9499 12.2779C10.9398 12.292 10.9294 12.3058 10.9187 12.3194C10.908 12.333 10.897 12.3463 10.8858 12.3595C10.8745 12.3726 10.863 12.3855 10.8513 12.3982C10.8395 12.4109 10.8274 12.4233 10.8152 12.4355C10.8029 12.4477 10.7903 12.4596 10.7776 12.4713C10.7648 12.4829 10.7518 12.4943 10.7385 12.5055C10.7253 12.5166 10.7118 12.5274 10.6981 12.538C10.6844 12.5486 10.6705 12.5589 10.6564 12.5689C10.6423 12.5789 10.628 12.5886 10.6135 12.598C10.5989 12.6074 10.5842 12.6166 10.5694 12.6254C10.5545 12.6342 10.5394 12.6427 10.5242 12.6509C10.5089 12.6591 10.4935 12.6669 10.478 12.6745C10.4624 12.6821 10.4467 12.6893 10.4308 12.6962C10.415 12.7031 10.399 12.7097 10.3829 12.716C10.3667 12.7222 10.3505 12.7282 10.3341 12.7338C10.3177 12.7393 10.3013 12.7446 10.2847 12.7495L8.03624 13.4064ZM13.9478 4.13475C13.9364 4.13408 13.9251 4.13444 13.9138 4.13585C13.9024 4.13727 13.8913 4.1397 13.8805 4.14317C13.8736 4.14421 13.8668 4.14541 13.8599 4.14677C13.8531 4.14814 13.8463 4.14968 13.8396 4.15138C13.8329 4.15309 13.8262 4.15496 13.8195 4.15699C13.8129 4.15903 13.8063 4.16123 13.7997 4.16358C13.7932 4.16595 13.7867 4.16848 13.7803 4.17116C13.7739 4.17385 13.7676 4.17667 13.7613 4.17968C13.755 4.18268 13.7488 4.18584 13.7427 4.18914C13.7366 4.19245 13.7306 4.19588 13.7246 4.19949C13.7187 4.20309 13.7128 4.20684 13.7071 4.21074C13.7013 4.21463 13.6957 4.21866 13.6901 4.22284C13.6845 4.227 13.6791 4.23131 13.6737 4.23577C13.6684 4.24021 13.6632 4.24478 13.658 4.24949C13.6529 4.25417 13.6479 4.25901 13.643 4.26396C13.6382 4.26891 13.6334 4.27398 13.6288 4.27916C13.6241 4.28434 13.6196 4.28963 13.6153 4.29505C13.6109 4.30046 13.6067 4.30598 13.6026 4.31159L8.89519 10.7874C8.8882 10.7967 8.88161 10.8063 8.87541 10.8162C8.86921 10.826 8.86343 10.8361 8.85809 10.8465C8.85273 10.8568 8.84781 10.8674 8.84332 10.8781C8.83883 10.8889 8.8348 10.8998 8.83123 10.9109C8.82766 10.922 8.82455 10.9332 8.8219 10.9445C8.81925 10.9559 8.81708 10.9673 8.81539 10.9788C8.8137 10.9903 8.81248 11.0019 8.81174 11.0136C8.811 11.0252 8.81075 11.0368 8.81098 11.0485L8.84467 12.2948L10.0405 11.9411C10.1247 11.9158 10.2089 11.8569 10.2594 11.7811L14.9668 5.30528C14.9708 5.29967 14.9746 5.29396 14.9783 5.28816C14.982 5.28235 14.9856 5.27646 14.989 5.27049C14.9924 5.26452 14.9957 5.25847 14.9988 5.25234C15.0019 5.2462 15.0049 5.24 15.0077 5.23373C15.0105 5.22747 15.0132 5.22112 15.0157 5.21472C15.0182 5.20832 15.0206 5.20186 15.0228 5.19535C15.025 5.18883 15.0271 5.18227 15.0289 5.17564C15.0308 5.16903 15.0326 5.16237 15.0341 5.15567C15.0357 5.14898 15.0371 5.14224 15.0384 5.13548C15.0396 5.12872 15.0407 5.12192 15.0416 5.1151C15.0425 5.10827 15.0433 5.10145 15.0438 5.09459C15.0444 5.08773 15.0449 5.08087 15.0451 5.074C15.0454 5.06712 15.0455 5.06025 15.0454 5.05335C15.0453 5.04648 15.0451 5.0396 15.0447 5.03275C15.0442 5.02587 15.0437 5.01901 15.0429 5.01219C15.0422 5.00534 15.0413 4.99852 15.0402 4.99173C15.0391 4.98493 15.0379 4.97816 15.0365 4.97143C15.0351 4.96469 15.0336 4.95799 15.0319 4.95133C15.0301 4.94467 15.0283 4.93804 15.0262 4.93148C15.0242 4.9249 15.022 4.91839 15.0196 4.91192C15.0173 4.90546 15.0148 4.89904 15.0121 4.89271C15.0095 4.88636 15.0067 4.88008 15.0037 4.87388C15.0007 4.86766 14.9976 4.86153 14.9944 4.85548C14.9911 4.84941 14.9877 4.84344 14.9841 4.83755C14.9806 4.83164 14.9769 4.82584 14.9731 4.82013C14.9692 4.81441 14.9653 4.80878 14.9612 4.80325C14.9571 4.79773 14.9529 4.7923 14.9485 4.78699C14.9441 4.78168 14.9397 4.77646 14.935 4.77135C14.9304 4.76625 14.9257 4.76126 14.9208 4.75638C14.916 4.75149 14.911 4.74674 14.9059 4.7421C14.9009 4.73747 14.8957 4.73296 14.8904 4.72857C14.8851 4.72418 14.8797 4.71993 14.8742 4.7158L14.1921 4.21896C14.1836 4.21185 14.1749 4.20516 14.1659 4.19886C14.1568 4.19256 14.1475 4.18671 14.1379 4.18126C14.1283 4.17582 14.1185 4.17084 14.1085 4.1663C14.0984 4.16177 14.0882 4.15771 14.0778 4.15411C14.0674 4.15052 14.0568 4.14741 14.0461 4.1448C14.0354 4.14218 14.0246 4.14006 14.0137 4.13843C14.0028 4.13681 13.9919 4.13569 13.9809 4.13508C13.9699 4.13447 13.9588 4.13436 13.9478 4.13475ZM8.50277 10.7099L8.98782 10.0194L10.9499 11.3988L10.4666 12.0876L8.50277 10.7099Z"   fill="#FFFFFF" >
</path>
</svg>
