<svg xmlns="http://www.w3.org/2000/svg" xmlns:xlink="http://www.w3.org/1999/xlink" width="16.5" height="16.5" viewBox="0 0 16.5 16.5" fill="none"><path d="M5.96466 10.6599C5.31392 11.218 4.88237 11.1843 4.44264 10.7614L3.93899 10.2433C3.49924 9.82056 3.49924 9.135 3.93899 8.71208L6.09447 6.6397C6.53418 6.21682 7.24719 6.21682 7.68701 6.6397L8.08484 7.02237C8.42462 7.34902 8.50194 7.83234 8.31693 8.23039L9.27921 8.93644C9.93894 8.30214 9.93894 7.27383 9.27921 6.63975L8.08484 5.49138C7.42532 4.85711 6.35605 4.85711 5.69632 5.49138L2.74462 8.32947C2.08513 8.96349 2.08513 9.99183 2.74462 10.6261L3.93899 11.7745C4.59855 12.4085 5.66803 12.4085 6.32773 11.7745L7.46715 10.645L6.65321 9.89636L5.96466 10.6599ZM13.2603 5.87404L12.0661 4.7257C11.4064 4.09143 10.3371 4.09143 9.67742 4.7257C9.67742 4.7257 9.72449 4.71433 9.03067 5.3815L9.8237 6.11026L10.1762 5.73739C10.616 5.31464 11.329 5.31464 11.7687 5.73739L12.1669 6.12023C12.6066 6.54297 12.6066 7.22849 12.1669 7.6514L10.2225 9.58857C9.78269 10.0113 9.06989 10.0113 8.63019 9.58857L8.30225 9.0704C7.61213 8.57599 7.82424 8.4577 7.88287 8.12381L7.00734 7.29305C6.34764 7.92732 6.34764 8.9557 7.00734 9.58971L8.20154 10.7382C8.8612 11.3724 9.93061 11.3724 10.5903 10.7382L13.2603 8.17069C14.2014 7.1305 13.2603 5.87404 13.2603 5.87404Z"   fill="#0073ED" ></path><path d="M11.0975 16.25L5.40255 16.25C2.56117 16.25 0.25 13.9389 0.25 11.0975L0.25 5.40255C0.25 2.56119 2.56117 0.25 5.40255 0.25L11.0975 0.25C13.9389 0.25 16.25 2.56119 16.25 5.40255L16.25 11.0975C16.25 13.9389 13.9389 16.25 11.0975 16.25ZM5.40255 1.0638C3.01028 1.0638 1.06378 3.01028 1.06378 5.40259L1.06378 11.0975C1.06378 13.4897 3.01027 15.4365 5.40255 15.4365L11.0975 15.4365C13.4897 15.4365 15.4363 13.4899 15.4363 11.0975L15.4363 5.40255C15.4363 3.01028 13.4897 1.06378 11.0975 1.06378L5.40255 1.06378L5.40255 1.0638Z" stroke="rgba(0, 115, 237, 1)" stroke-width="0.5"      fill="#0073ED" ></path></svg>