<svg xmlns="http://www.w3.org/2000/svg" xmlns:xlink="http://www.w3.org/1999/xlink" viewBox="0 0 32 32" width="20" height="20" style="" filter="none">
    
    <g>
    <path d="M18.667 13.333v5.333h-5.333v-5.333h5.333zM21.333 13.333h6.667v5.333h-6.667v-5.333zM18.667 28h-5.333v-6.667h5.333v6.667zM21.333 28v-6.667h6.667v5.333c0 0.736-0.597 1.333-1.333 1.333v0h-5.333zM18.667 4v6.667h-5.333v-6.667h5.333zM21.333 4h5.333c0.736 0 1.333 0.597 1.333 1.333v0 5.333h-6.667v-6.667zM10.667 13.333v5.333h-6.667v-5.333h6.667zM10.667 28h-5.333c-0.736 0-1.333-0.597-1.333-1.333v0-5.333h6.667v6.667zM10.667 4v6.667h-6.667v-5.333c0-0.736 0.597-1.333 1.333-1.333v0h5.333z" fill="rgba(0,0,0,1)"></path>
    </g>
  </svg>