<svg xmlns="http://www.w3.org/2000/svg" xmlns:xlink="http://www.w3.org/1999/xlink" width="13" height="16" viewBox="0 0 13 16" fill="none">
<path d="M11.9166 0L1.08334 0C0.487542 0 0 0.479989 0 1.06664L0 14.9333C0 15.52 0.487524 16 1.08334 16L11.9166 16C12.5125 16 13 15.52 13 14.9333L13 1.06664C13 0.479989 12.5124 0 11.9166 0ZM3.99633 14.604L2.94395 14.604L2.94395 1.35538L3.99633 1.35538L3.99633 14.604ZM10.2071 4.39677L9.12377 3.3301L8.04047 4.39677L8.04047 1.19677L10.2071 1.19677L10.2071 4.39677L10.2071 4.39677Z"   fill="#5380FD" >
</path>
</svg>
