<svg xmlns="http://www.w3.org/2000/svg" xmlns:xlink="http://www.w3.org/1999/xlink" width="16" height="16" viewBox="0 0 16 16" fill="none">
<path d="M6.71873 12.2339L3.24936 12.2339L4.42889 9.97314C4.56545 10.1849 4.81904 10.306 5.08357 10.2606C5.43639 10.2002 5.67342 9.86486 5.61295 9.51205L5.39373 8.23377C5.33326 7.88096 4.99748 7.64408 4.64514 7.70439L3.36686 7.92361C3.01405 7.98408 2.77686 8.31939 2.83749 8.67236C2.8853 8.95111 3.10451 9.15752 3.36842 9.20221L1.60499 12.5824C1.60178 12.5885 1.59867 12.5947 1.59566 12.6009C1.59265 12.6072 1.58974 12.6135 1.58694 12.6198C1.58413 12.6262 1.58142 12.6325 1.57882 12.6389C1.57622 12.6454 1.57373 12.6518 1.57133 12.6583C1.56894 12.6648 1.56664 12.6714 1.56446 12.678C1.56227 12.6845 1.56019 12.6911 1.55822 12.6978C1.55624 12.7044 1.55438 12.7111 1.55262 12.7178C1.55086 12.7245 1.5492 12.7312 1.54766 12.738C1.54612 12.7448 1.54468 12.7515 1.54335 12.7583C1.54203 12.7651 1.54081 12.772 1.5397 12.7788C1.5386 12.7856 1.5376 12.7925 1.53671 12.7994C1.53582 12.8062 1.53505 12.8131 1.53438 12.82C1.53371 12.8269 1.53316 12.8338 1.53271 12.8407C1.53227 12.8477 1.53193 12.8546 1.53171 12.8615C1.53149 12.8684 1.53137 12.8754 1.53137 12.8823C1.53137 12.8892 1.53148 12.8962 1.5317 12.9031C1.53192 12.91 1.53226 12.9169 1.5327 12.9238C1.53314 12.9308 1.5337 12.9377 1.53436 12.9446C1.53503 12.9515 1.5358 12.9583 1.53669 12.9652C1.53757 12.9721 1.53857 12.979 1.53967 12.9858C1.54078 12.9926 1.54199 12.9995 1.54332 13.0063C1.54464 13.0131 1.54608 13.0198 1.54762 13.0266C1.54916 13.0333 1.55081 13.0401 1.55257 13.0468C1.55432 13.0535 1.55619 13.0602 1.55816 13.0668C1.56013 13.0735 1.56221 13.0801 1.56439 13.0866C1.56658 13.0932 1.56887 13.0998 1.57125 13.1063C1.57365 13.1128 1.57615 13.1192 1.57875 13.1256C1.58135 13.1321 1.58405 13.1385 1.58686 13.1448C1.58966 13.1511 1.59257 13.1574 1.59558 13.1637C1.59859 13.1699 1.6017 13.1761 1.60489 13.1822C1.6081 13.1884 1.61141 13.1945 1.61482 13.2005C1.61821 13.2065 1.62171 13.2125 1.6253 13.2185C1.62889 13.2244 1.63258 13.2303 1.63636 13.2361C1.64014 13.2419 1.64402 13.2476 1.64799 13.2533C1.65195 13.259 1.656 13.2646 1.66014 13.2701C1.66429 13.2757 1.66852 13.2812 1.67285 13.2866C1.67717 13.292 1.68158 13.2974 1.68607 13.3026C1.69055 13.3079 1.69513 13.3131 1.69978 13.3183C1.70445 13.3234 1.7092 13.3285 1.71402 13.3334C1.71883 13.3384 1.72373 13.3433 1.72871 13.3481C1.73369 13.3529 1.73874 13.3577 1.74388 13.3623C1.749 13.367 1.75421 13.3716 1.75949 13.3761C1.76476 13.3806 1.7701 13.385 1.77552 13.3893C1.78095 13.3936 1.78644 13.3978 1.79199 13.402C1.79754 13.4061 1.80316 13.4102 1.80885 13.4141C1.81452 13.4181 1.82027 13.422 1.82608 13.4258C1.83188 13.4295 1.83775 13.4332 1.84368 13.4368C1.8496 13.4404 1.85559 13.4439 1.86163 13.4473C1.86766 13.4507 1.87375 13.454 1.87989 13.4572C1.88604 13.4604 1.89223 13.4635 1.89847 13.4665C1.90472 13.4696 1.91101 13.4725 1.91735 13.4753C1.92368 13.4781 1.93006 13.4808 1.93649 13.4834C1.94291 13.486 1.94938 13.4885 1.95588 13.4909C1.96238 13.4933 1.96892 13.4955 1.9755 13.4977C1.98208 13.4999 1.98869 13.502 1.99533 13.504C2.00198 13.5059 2.00865 13.5078 2.01535 13.5096C2.02205 13.5113 2.02878 13.513 2.03553 13.5145C2.0423 13.5161 2.04908 13.5175 2.05588 13.5188C2.06268 13.5202 2.0695 13.5214 2.07633 13.5225C2.08318 13.5236 2.09003 13.5246 2.09691 13.5255C2.10378 13.5264 2.11067 13.5271 2.11757 13.5278C2.12446 13.5285 2.13137 13.529 2.13828 13.5295C2.1452 13.5299 2.15212 13.5302 2.15905 13.5305C2.16598 13.5307 2.1729 13.5308 2.17983 13.5308L6.71873 13.5308C7.07686 13.5308 7.36717 13.2405 7.36717 12.8824C7.36717 12.5242 7.07686 12.2339 6.71873 12.2339ZM14.4262 12.4203L12.4809 8.69189C12.3154 8.37455 11.9234 8.25158 11.6061 8.41705C11.2887 8.58267 11.1654 8.97424 11.3312 9.29189L12.7817 12.0719L10.49 12.0719C10.67 11.8188 10.6464 11.4655 10.4195 11.2385C10.1662 10.9852 9.75576 10.9853 9.50248 11.2383L8.58654 12.1541C8.58623 12.1544 8.58576 12.1549 8.58545 12.1553C8.33373 12.407 8.33217 12.8142 8.58092 13.0677C8.58092 13.068 8.58123 13.068 8.58154 13.0685L8.5817 13.0685C8.58186 13.0689 8.58248 13.0692 8.58248 13.0692C8.58279 13.0695 8.58295 13.07 8.58295 13.07C8.58326 13.0703 8.58389 13.0705 8.58389 13.0708C8.58436 13.0708 8.58436 13.0713 8.58467 13.0716C8.58467 13.0716 8.58529 13.0719 8.58529 13.0722L8.58545 13.0722L9.50248 13.9892C9.62904 14.116 9.79498 14.1792 9.96092 14.1792C10.1269 14.1792 10.2929 14.116 10.4194 13.9892C10.5876 13.8211 10.644 13.5835 10.5889 13.3686L13.8514 13.3686C14.0781 13.3686 14.2883 13.2502 14.4059 13.0563C14.4095 13.0503 14.413 13.0444 14.4164 13.0383C14.4198 13.0323 14.4231 13.0262 14.4263 13.0201C14.4295 13.0139 14.4327 13.0077 14.4357 13.0015C14.4387 12.9953 14.4416 12.989 14.4444 12.9826C14.4472 12.9763 14.4499 12.9699 14.4525 12.9635C14.4551 12.9571 14.4576 12.9506 14.46 12.9441C14.4624 12.9376 14.4647 12.9311 14.4669 12.9245C14.4691 12.9179 14.4711 12.9113 14.4731 12.9047C14.4751 12.898 14.4769 12.8914 14.4787 12.8846C14.4805 12.878 14.4821 12.8712 14.4837 12.8645C14.4852 12.8577 14.4866 12.8509 14.4879 12.8441C14.4893 12.8373 14.4905 12.8305 14.4916 12.8237C14.4927 12.8168 14.4937 12.81 14.4946 12.8031C14.4955 12.7962 14.4963 12.7893 14.4969 12.7824C14.4976 12.7755 14.4981 12.7686 14.4986 12.7617C14.499 12.7548 14.4994 12.7479 14.4996 12.741C14.4998 12.734 14.4999 12.7271 14.4999 12.7202C14.4999 12.7133 14.4998 12.7063 14.4996 12.6994C14.4993 12.6925 14.499 12.6856 14.4986 12.6786C14.4981 12.6717 14.4976 12.6648 14.4969 12.6579C14.4962 12.651 14.4954 12.6441 14.4946 12.6373C14.4937 12.6304 14.4927 12.6235 14.4916 12.6167C14.4905 12.6099 14.4892 12.603 14.4879 12.5963C14.4866 12.5895 14.4852 12.5827 14.4836 12.5759C14.4821 12.5692 14.4804 12.5624 14.4786 12.5557C14.4769 12.549 14.475 12.5424 14.473 12.5357C14.4711 12.5291 14.469 12.5225 14.4668 12.5159C14.4646 12.5093 14.4623 12.5028 14.4599 12.4963C14.4575 12.4898 14.455 12.4833 14.4524 12.4769C14.4498 12.4705 14.4471 12.4641 14.4443 12.4578C14.4415 12.4514 14.4386 12.4452 14.4356 12.4389C14.4326 12.4327 14.4294 12.4265 14.4262 12.4203ZM8.72154 6.13111C8.5742 6.45752 8.7192 6.84158 9.04561 6.98892L10.3467 7.57658C10.3472 7.57674 10.3475 7.57674 10.3479 7.57705C10.3486 7.57736 10.349 7.57783 10.3497 7.57814C10.3801 7.59174 10.4115 7.59971 10.4428 7.6083C10.4551 7.61174 10.4673 7.61767 10.4797 7.62033C10.524 7.62971 10.5689 7.63439 10.6133 7.63439C10.6442 7.63439 10.675 7.63221 10.7054 7.62783C10.715 7.62642 10.724 7.62361 10.7334 7.62174C10.754 7.61783 10.775 7.61424 10.7951 7.6083C10.8064 7.60502 10.8172 7.60002 10.8281 7.59611C10.8458 7.58986 10.8637 7.58424 10.8809 7.57642C10.8922 7.57127 10.9026 7.56455 10.9136 7.55877C10.9297 7.55033 10.9462 7.54252 10.9615 7.53283C10.9728 7.52564 10.9829 7.51689 10.9937 7.50908C11.0078 7.49892 11.0223 7.48939 11.0356 7.47799C11.0465 7.46861 11.0561 7.45767 11.0664 7.44752C11.0783 7.43596 11.0908 7.42502 11.1017 7.41236C11.1123 7.40033 11.1212 7.38658 11.1309 7.37361C11.1401 7.36127 11.1501 7.34971 11.1586 7.33674C11.1687 7.32111 11.1769 7.30377 11.1856 7.28705C11.1917 7.27549 11.1989 7.26471 11.2044 7.25267C11.2045 7.25236 11.2045 7.25205 11.2047 7.25174C11.205 7.25096 11.2054 7.25049 11.2058 7.24971L11.7334 6.06502C11.879 5.73783 11.732 5.35455 11.405 5.20877C11.0861 5.06674 10.7164 5.20408 10.5625 5.5133C10.5495 5.48033 10.5356 5.44752 10.5167 5.41627L8.57139 2.17409C8.56789 2.16825 8.56431 2.16248 8.56062 2.15676C8.55695 2.15104 8.55318 2.14538 8.54931 2.13979C8.54547 2.13419 8.54151 2.12864 8.53748 2.12316C8.53345 2.1177 8.52934 2.11228 8.52514 2.10693C8.52093 2.10159 8.51665 2.09631 8.51228 2.0911C8.50792 2.08588 8.50347 2.08074 8.49893 2.07568C8.4944 2.07061 8.48979 2.06561 8.48511 2.06068C8.48042 2.05575 8.47565 2.0509 8.47081 2.04612C8.46598 2.04135 8.46107 2.03665 8.45607 2.03202C8.45109 2.0274 8.44603 2.02286 8.44089 2.0184C8.43576 2.01393 8.43057 2.00955 8.42529 2.00526C8.42003 2.00096 8.4147 1.99674 8.40929 1.9926C8.40389 1.98848 8.39843 1.98443 8.3929 1.98046C8.38737 1.9765 8.38178 1.97263 8.37612 1.96885C8.37048 1.96507 8.36478 1.96138 8.359 1.95777C8.35325 1.95417 8.34742 1.95065 8.34154 1.94723C8.33567 1.94381 8.32973 1.94048 8.32375 1.93724C8.31778 1.93401 8.31175 1.93088 8.30565 1.92784C8.29957 1.92478 8.29345 1.92184 8.28728 1.91899C8.28111 1.91614 8.27489 1.91338 8.26862 1.91073C8.26237 1.90807 8.25607 1.90551 8.24973 1.90306C8.24339 1.9006 8.23701 1.89824 8.23059 1.89598C8.22418 1.89373 8.21773 1.89157 8.21125 1.88951C8.20478 1.88746 8.19826 1.88551 8.1917 1.88366C8.18517 1.88181 8.17859 1.88006 8.172 1.87841C8.1654 1.87678 8.15878 1.87524 8.15212 1.87381C8.14548 1.87237 8.13881 1.87104 8.13212 1.86982C8.12543 1.86859 8.11873 1.86747 8.112 1.86646C8.10528 1.86544 8.09854 1.86453 8.09178 1.86374C8.08503 1.86294 8.07828 1.86224 8.0715 1.86165C8.06472 1.86107 8.05793 1.86059 8.05115 1.86021C8.04437 1.85984 8.03757 1.85957 8.03076 1.8594C7.80592 1.85471 7.5992 1.96315 7.47592 2.14799L4.88217 6.03861C4.68342 6.33658 4.76404 6.73908 5.06201 6.93783C5.0752 6.94666 5.0887 6.95499 5.10251 6.96282C5.11632 6.97066 5.13039 6.97797 5.14473 6.98475C5.15907 6.99155 5.17365 6.9978 5.18845 7.0035C5.20326 7.00922 5.21826 7.01439 5.23345 7.01899C5.24864 7.0236 5.26398 7.02764 5.27947 7.03111C5.29495 7.03458 5.31054 7.03749 5.32623 7.0398C5.34195 7.04213 5.35772 7.04386 5.37353 7.04502C5.38937 7.04617 5.40522 7.04675 5.42107 7.04674C5.63061 7.04674 5.83639 6.94549 5.96123 6.75799L7.9867 3.72002L9.20998 5.75861C9.00233 5.79189 8.81451 5.92502 8.72154 6.13111Z"   fill="#FFFFFF" >
</path>
</svg>
