<svg xmlns="http://www.w3.org/2000/svg" xmlns:xlink="http://www.w3.org/1999/xlink" width="20" height="20" viewBox="0 0 20 20" fill="none"><path d="M9.87057 4C13.1456 4 16.1177 5.91077 18.7868 9.73323C18.7896 9.73752 18.7926 9.74186 18.7955 9.74624C18.7983 9.75063 18.801 9.75506 18.8038 9.75955C18.8065 9.76404 18.8092 9.76856 18.8117 9.77314C18.8142 9.77772 18.8166 9.78234 18.8191 9.78701C18.8214 9.79168 18.8238 9.79636 18.8261 9.80111C18.8282 9.80585 18.8303 9.81063 18.8325 9.81544C18.8346 9.82025 18.8365 9.82512 18.8385 9.83001C18.8403 9.83489 18.8422 9.8398 18.844 9.84475C18.8458 9.84971 18.8474 9.85469 18.849 9.85968C18.8504 9.86469 18.852 9.86972 18.8534 9.87479C18.8549 9.87986 18.8561 9.88492 18.8575 9.89002C18.8586 9.89513 18.8598 9.90026 18.8609 9.9054C18.862 9.91054 18.8629 9.91572 18.8637 9.92089C18.8646 9.92606 18.8655 9.93126 18.8662 9.93647C18.8669 9.94168 18.8675 9.94689 18.8682 9.95212C18.8685 9.95734 18.8691 9.96257 18.8694 9.96782C18.8698 9.97306 18.87 9.97831 18.8703 9.98356C18.8705 9.9888 18.8707 9.99407 18.8707 9.99932C18.8707 10.0046 18.8705 10.0098 18.8703 10.0151C18.8701 10.0203 18.87 10.0256 18.8696 10.0308C18.8693 10.0361 18.8687 10.0413 18.8684 10.0466C18.8677 10.0518 18.8671 10.057 18.8664 10.0622C18.8657 10.0674 18.865 10.0726 18.8641 10.0778C18.8632 10.083 18.8623 10.0881 18.8613 10.0933C18.8602 10.0984 18.8589 10.1036 18.8579 10.1087C18.8566 10.1138 18.8554 10.1189 18.854 10.1239C18.8525 10.129 18.8509 10.134 18.8495 10.139C18.8479 10.1441 18.8463 10.149 18.8445 10.154C18.8428 10.159 18.841 10.1639 18.8392 10.1688C18.8373 10.1737 18.8353 10.1785 18.8332 10.1834C18.831 10.1882 18.8289 10.193 18.8268 10.1977C18.8246 10.2025 18.8223 10.2072 18.82 10.2118L18.7868 10.2672L18.6433 10.4698C16.0116 14.1566 13.0874 16 9.87057 16C6.5955 16 3.62347 14.0892 0.954466 10.2668C0.951468 10.2625 0.948544 10.2581 0.945693 10.2538C0.942841 10.2494 0.940064 10.2449 0.937362 10.2405C0.93466 10.236 0.932035 10.2314 0.929485 10.2269C0.926936 10.2223 0.924464 10.2177 0.92207 10.213C0.919676 10.2083 0.917362 10.2036 0.915126 10.1989C0.912891 10.1942 0.910736 10.1894 0.908661 10.1845C0.906586 10.1797 0.904594 10.1749 0.902682 10.17C0.900771 10.1651 0.898943 10.1602 0.897197 10.1552C0.895452 10.1503 0.89379 10.1453 0.892212 10.1403C0.890635 10.1353 0.889142 10.1303 0.887733 10.1252C0.886325 10.1201 0.885002 10.1151 0.883765 10.11C0.882528 10.1049 0.881377 10.0997 0.880312 10.0946C0.879248 10.0895 0.87827 10.0843 0.877379 10.0791C0.876488 10.0739 0.875685 10.0687 0.874969 10.0635C0.874253 10.0583 0.873625 10.0531 0.873085 10.0479C0.872545 10.0427 0.872093 10.0374 0.871729 10.0322C0.871365 10.0269 0.871089 10.0217 0.870902 10.0164C0.870715 10.0112 0.870616 10.0059 0.870606 10.0007C0.870596 9.99542 0.870675 9.99016 0.870842 9.98491C0.871008 9.97966 0.871264 9.97442 0.871607 9.96917C0.871951 9.96392 0.872383 9.95868 0.872903 9.95345C0.873423 9.94822 0.874031 9.94301 0.874727 9.9378C0.875422 9.93259 0.876206 9.92738 0.877077 9.9222C0.877948 9.91703 0.878905 9.91186 0.87995 9.90672C0.880995 9.90156 0.882126 9.89642 0.883344 9.89132C0.884561 9.88622 0.885864 9.88114 0.887253 9.87607C0.888642 9.871 0.890116 9.86597 0.891674 9.86096C0.893233 9.85593 0.894875 9.85096 0.896602 9.846C0.898328 9.84104 0.900137 9.83612 0.90203 9.83123C0.903922 9.82635 0.905896 9.82148 0.907952 9.81665C0.910008 9.81183 0.912145 9.80704 0.914362 9.80228C0.916579 9.79754 0.918876 9.79283 0.921251 9.78816L0.954466 9.73278L1.09779 9.53015C3.72949 5.84338 6.65375 4 9.87057 4ZM9.87057 5.38462C7.29893 5.38462 4.89428 6.80615 2.62566 9.77062L2.45277 9.99953L2.47552 10.0305C4.74458 13.0706 7.14788 14.5568 9.71633 14.6135L9.87057 14.6154C12.4422 14.6154 14.8469 13.1938 17.1155 10.2294L17.2879 10L17.2661 9.96953C14.9966 6.92938 12.5933 5.44323 10.0248 5.38645L9.87057 5.38462Z"   fill="#0073ED" ></path><path d="M9.8706 7.23084C9.9153 7.23081 9.95996 7.2319 10.0046 7.2341C10.0492 7.23631 10.0938 7.23963 10.1383 7.24405C10.1828 7.24847 10.2271 7.254 10.2713 7.26062C10.3155 7.26725 10.3595 7.27499 10.4034 7.28382C10.4472 7.29264 10.4908 7.30255 10.5342 7.31355C10.5775 7.32455 10.6206 7.33662 10.6634 7.34975C10.7061 7.3629 10.7486 7.3771 10.7907 7.39236C10.8327 7.40761 10.8744 7.42391 10.9157 7.44125C10.957 7.45858 10.9979 7.47693 11.0383 7.49629C11.0787 7.51567 11.1186 7.53603 11.158 7.55739C11.1974 7.57874 11.2363 7.60106 11.2747 7.62437C11.313 7.64766 11.3508 7.67189 11.3879 7.69706C11.4251 7.72224 11.4616 7.74833 11.4975 7.77532C11.5335 7.80232 11.5687 7.83019 11.6032 7.85894C11.6378 7.88769 11.6716 7.91728 11.7048 7.94772C11.7379 7.97815 11.7702 8.00939 11.8018 8.04145C11.8335 8.07349 11.8643 8.10631 11.8943 8.13989C11.9243 8.17348 11.9535 8.2078 11.9819 8.24283C12.0102 8.27787 12.0377 8.31359 12.0643 8.34999C12.091 8.3864 12.1167 8.42345 12.1415 8.46114C12.1664 8.49883 12.1903 8.53712 12.2133 8.576C12.2363 8.61487 12.2583 8.6543 12.2794 8.69429C12.3004 8.73427 12.3205 8.77474 12.3396 8.81572C12.3588 8.8567 12.3769 8.89813 12.394 8.94001C12.4111 8.98189 12.4272 9.02418 12.4422 9.06686C12.4573 9.10953 12.4713 9.15257 12.4843 9.19596C12.4973 9.23934 12.5092 9.28302 12.52 9.32699C12.5309 9.37097 12.5407 9.41519 12.5494 9.45965C12.5582 9.50411 12.5658 9.54877 12.5723 9.59361C12.5789 9.63844 12.5844 9.68343 12.5888 9.72855C12.5931 9.77366 12.5964 9.81886 12.5986 9.86415C12.6008 9.90942 12.6019 9.95472 12.6019 10.0001C12.6019 10.0454 12.6008 10.0907 12.5986 10.136C12.5964 10.1813 12.5931 10.2265 12.5888 10.2716C12.5844 10.3167 12.5789 10.3617 12.5723 10.4065C12.5658 10.4514 12.5582 10.496 12.5494 10.5405C12.5407 10.5849 12.5309 10.6292 12.52 10.6731C12.5092 10.7171 12.4973 10.7608 12.4843 10.8042C12.4713 10.8475 12.4573 10.8906 12.4422 10.9333C12.4272 10.9759 12.4111 11.0182 12.394 11.0601C12.3769 11.102 12.3588 11.1434 12.3396 11.1844C12.3205 11.2254 12.3004 11.2659 12.2794 11.3058C12.2583 11.3458 12.2363 11.3852 12.2133 11.4241C12.1903 11.463 12.1664 11.5013 12.1415 11.539C12.1167 11.5767 12.091 11.6137 12.0644 11.6501C12.0377 11.6865 12.0102 11.7223 11.9819 11.7573C11.9535 11.7923 11.9243 11.8266 11.8943 11.8602C11.8643 11.8938 11.8335 11.9266 11.8018 11.9587C11.7702 11.9907 11.7379 12.022 11.7048 12.0524C11.6716 12.0828 11.6378 12.1124 11.6032 12.1412C11.5687 12.1699 11.5335 12.1978 11.4975 12.2248C11.4616 12.2518 11.4251 12.2779 11.3879 12.3031C11.3508 12.3282 11.313 12.3525 11.2747 12.3758C11.2363 12.3991 11.1974 12.4214 11.158 12.4427C11.1186 12.4641 11.0787 12.4845 11.0383 12.5038C10.9979 12.5232 10.957 12.5416 10.9157 12.5589C10.8744 12.5762 10.8327 12.5925 10.7907 12.6078C10.7486 12.623 10.7061 12.6372 10.6634 12.6504C10.6206 12.6635 10.5775 12.6756 10.5342 12.6866C10.4908 12.6976 10.4472 12.7075 10.4034 12.7163C10.3595 12.7251 10.3155 12.7329 10.2713 12.7395C10.2271 12.7461 10.1828 12.7517 10.1383 12.7561C10.0938 12.7605 10.0492 12.7638 10.0046 12.766C9.95996 12.7682 9.9153 12.7693 9.8706 12.7693C9.82592 12.7693 9.78127 12.7682 9.73664 12.766C9.69201 12.7637 9.64747 12.7604 9.60302 12.756C9.55856 12.7515 9.51423 12.746 9.47003 12.7393C9.42582 12.7327 9.38182 12.7249 9.33801 12.7161C9.2942 12.7072 9.25062 12.6973 9.20727 12.6863C9.16393 12.6753 9.12089 12.6632 9.07813 12.6501C9.03538 12.6369 8.99297 12.6227 8.9509 12.6074C8.90883 12.5921 8.86716 12.5758 8.82589 12.5585C8.78461 12.5412 8.74377 12.5228 8.70339 12.5034C8.663 12.484 8.6231 12.4637 8.58369 12.4423C8.54429 12.4209 8.50543 12.3986 8.46712 12.3753C8.4288 12.352 8.39106 12.3278 8.3539 12.3026C8.31675 12.2774 8.28024 12.2513 8.24436 12.2243C8.20847 12.1973 8.17326 12.1695 8.13872 12.1407C8.10418 12.1119 8.07036 12.0824 8.03727 12.0519C8.00416 12.0215 7.97181 11.9903 7.94021 11.9582C7.90862 11.9262 7.87783 11.8933 7.84782 11.8598C7.81782 11.8262 7.78865 11.7919 7.76031 11.7569C7.73195 11.7218 7.70447 11.6861 7.67786 11.6497C7.65125 11.6133 7.62553 11.5763 7.6007 11.5386C7.57588 11.5009 7.55199 11.4626 7.52902 11.4237C7.50605 11.3849 7.48404 11.3454 7.46298 11.3055C7.44191 11.2655 7.42183 11.225 7.40273 11.1841C7.38363 11.1431 7.36553 11.1017 7.34843 11.0598C7.33133 11.0179 7.31526 10.9757 7.30021 10.933C7.28516 10.8903 7.27115 10.8473 7.25818 10.8039C7.2452 10.7606 7.23329 10.7169 7.22244 10.6729C7.21158 10.629 7.2018 10.5848 7.19307 10.5403C7.18437 10.4959 7.17673 10.4512 7.17016 10.4064C7.16361 10.3616 7.15815 10.3166 7.15378 10.2715C7.14939 10.2264 7.14611 10.1812 7.14391 10.1359C7.14172 10.0907 7.14062 10.0454 7.14062 10.0001C7.14062 9.95474 7.14172 9.90945 7.14391 9.86418C7.14611 9.81891 7.14939 9.77373 7.15378 9.72864C7.15815 9.68353 7.16361 9.63857 7.17016 9.59373C7.17673 9.54889 7.18437 9.50425 7.19307 9.45981C7.2018 9.41537 7.21158 9.37117 7.22244 9.32719C7.23329 9.28324 7.2452 9.23957 7.25818 9.1962C7.27115 9.15284 7.28516 9.10982 7.30021 9.06715C7.31526 9.02447 7.33133 8.98219 7.34843 8.94033C7.36553 8.89846 7.38363 8.85703 7.40273 8.81606C7.42183 8.7751 7.44191 8.73463 7.46298 8.69465C7.48404 8.65469 7.50605 8.61527 7.52902 8.5764C7.55199 8.53752 7.57588 8.49924 7.6007 8.46156C7.62553 8.42388 7.65125 8.38683 7.67786 8.35043C7.70447 8.31403 7.73195 8.27832 7.76031 8.24328C7.78865 8.20825 7.81782 8.17394 7.84782 8.14035C7.87783 8.10678 7.90862 8.07397 7.94021 8.04192C7.97181 8.00987 8.00416 7.97864 8.03727 7.9482C8.07036 7.91777 8.10418 7.88818 8.13872 7.85943C8.17326 7.83067 8.20847 7.80279 8.24436 7.77579C8.28024 7.7488 8.31675 7.72271 8.3539 7.69753C8.39106 7.67235 8.4288 7.64811 8.46712 7.62482C8.50543 7.60152 8.54429 7.57918 8.58369 7.55782C8.6231 7.53645 8.663 7.51608 8.70339 7.49671C8.74377 7.47733 8.78461 7.45897 8.82589 7.44163C8.86716 7.42428 8.90883 7.40798 8.9509 7.39272C8.99297 7.37744 9.03538 7.36323 9.07813 7.35008C9.12089 7.33692 9.16393 7.32483 9.20727 7.31382C9.25062 7.30281 9.2942 7.29288 9.33801 7.28404C9.38182 7.2752 9.42582 7.26746 9.47003 7.2608C9.51423 7.25415 9.55856 7.24861 9.60302 7.24418C9.64747 7.23973 9.69201 7.23639 9.73664 7.23417C9.78127 7.23195 9.82592 7.23084 9.8706 7.23084ZM9.8706 8.61545C9.84826 8.61545 9.82594 8.61601 9.80363 8.61713C9.78133 8.61823 9.75904 8.6199 9.7368 8.62212C9.71457 8.62435 9.69241 8.62712 9.67031 8.63043C9.64822 8.63376 9.62622 8.63764 9.6043 8.64206C9.58239 8.64649 9.5606 8.65145 9.53893 8.65695C9.51727 8.66246 9.49574 8.6685 9.47436 8.67507C9.45298 8.68165 9.43178 8.68875 9.41075 8.69638C9.38973 8.70403 9.36888 8.71218 9.34824 8.72085C9.32761 8.72953 9.30719 8.73871 9.287 8.74839C9.26679 8.75808 9.24685 8.76826 9.22715 8.77894C9.20744 8.78962 9.18802 8.80079 9.16886 8.81243C9.1497 8.82409 9.13082 8.83621 9.11225 8.8488C9.09368 8.86139 9.07542 8.87444 9.05747 8.88794C9.03954 8.90144 9.02193 8.91537 9.00467 8.92975C8.98739 8.94412 8.97047 8.95892 8.95393 8.97413C8.93738 8.98935 8.92121 9.00497 8.90541 9.02099C8.88961 9.03702 8.87421 9.05342 8.85921 9.07021C8.84421 9.087 8.82963 9.10416 8.81545 9.12168C8.80128 9.13919 8.78755 9.15705 8.77424 9.17525C8.76093 9.19345 8.74807 9.21197 8.73565 9.23081C8.72325 9.24965 8.7113 9.2688 8.6998 9.28823C8.68832 9.30767 8.67731 9.32737 8.66678 9.34737C8.65626 9.36734 8.64622 9.38757 8.63667 9.40807C8.62712 9.42855 8.61807 9.44927 8.60952 9.4702C8.60097 9.49113 8.59293 9.51228 8.5854 9.53361C8.57787 9.55493 8.57087 9.57644 8.56439 9.59813C8.55791 9.61982 8.55195 9.64165 8.54653 9.66363C8.54109 9.68561 8.5362 9.70771 8.53185 9.72994C8.52749 9.75217 8.52367 9.77449 8.52038 9.7969C8.51711 9.81931 8.51438 9.84179 8.51219 9.86434C8.51 9.8869 8.50835 9.90951 8.50725 9.93213C8.50616 9.95476 8.50561 9.9774 8.50561 10.0001C8.50561 10.0227 8.50616 10.0454 8.50725 10.068C8.50835 10.0906 8.51 10.1132 8.51219 10.1358C8.51438 10.1583 8.51711 10.1808 8.52038 10.2032C8.52367 10.2256 8.52749 10.248 8.53185 10.2702C8.5362 10.2924 8.54109 10.3145 8.54653 10.3365C8.55195 10.3585 8.55791 10.3803 8.56439 10.402C8.57087 10.4237 8.57787 10.4452 8.5854 10.4665C8.59292 10.4879 8.60096 10.509 8.60952 10.5299C8.61806 10.5509 8.62711 10.5716 8.63667 10.5921C8.64622 10.6126 8.65626 10.6328 8.66678 10.6528C8.67731 10.6728 8.68832 10.6925 8.6998 10.7119C8.7113 10.7313 8.72325 10.7505 8.73565 10.7693C8.74807 10.7882 8.76093 10.8067 8.77424 10.8249C8.78755 10.8431 8.80128 10.8609 8.81545 10.8784C8.82963 10.896 8.84421 10.9131 8.85921 10.9299C8.87421 10.9467 8.88961 10.9631 8.90541 10.9791C8.92121 10.9952 8.93738 11.0108 8.95393 11.026C8.97047 11.0412 8.98739 11.056 9.00467 11.0704C9.02193 11.0848 9.03954 11.0987 9.05747 11.1122C9.07542 11.1257 9.09368 11.1387 9.11225 11.1513C9.13082 11.1639 9.1497 11.176 9.16886 11.1877C9.18802 11.1993 9.20744 11.2105 9.22715 11.2212C9.24685 11.2319 9.26679 11.2421 9.287 11.2517C9.30719 11.2614 9.32761 11.2706 9.34824 11.2793C9.36888 11.288 9.38973 11.2961 9.41075 11.3037C9.43178 11.3114 9.45298 11.3185 9.47436 11.3251C9.49574 11.3316 9.51727 11.3377 9.53893 11.3432C9.5606 11.3487 9.58239 11.3537 9.6043 11.3581C9.62622 11.3625 9.64822 11.3664 9.67031 11.3697C9.69241 11.373 9.71457 11.3758 9.7368 11.378C9.75904 11.3802 9.78133 11.3819 9.80363 11.383C9.82594 11.3841 9.84826 11.3847 9.8706 11.3847C9.89294 11.3847 9.91527 11.3841 9.93757 11.383C9.95988 11.3819 9.98216 11.3802 10.0044 11.378C10.0266 11.3758 10.0488 11.373 10.0709 11.3697C10.093 11.3664 10.115 11.3625 10.1369 11.3581C10.1588 11.3537 10.1806 11.3487 10.2023 11.3432C10.2239 11.3377 10.2455 11.3316 10.2668 11.3251C10.2882 11.3185 10.3094 11.3114 10.3304 11.3037C10.3515 11.2961 10.3723 11.288 10.393 11.2793C10.4136 11.2706 10.434 11.2614 10.4542 11.2517C10.4744 11.2421 10.4944 11.2319 10.514 11.2212C10.5338 11.2105 10.5532 11.1993 10.5723 11.1877C10.5915 11.176 10.6104 11.1639 10.629 11.1513C10.6475 11.1387 10.6658 11.1257 10.6837 11.1122C10.7017 11.0987 10.7193 11.0848 10.7365 11.0704C10.7538 11.056 10.7707 11.0412 10.7873 11.026C10.8038 11.0108 10.82 10.9952 10.8358 10.9791C10.8516 10.9631 10.867 10.9467 10.882 10.9299C10.897 10.9131 10.9116 10.896 10.9257 10.8784C10.9399 10.8609 10.9537 10.8431 10.967 10.8249C10.9803 10.8067 10.9931 10.7882 11.0055 10.7693C11.018 10.7505 11.0299 10.7313 11.0414 10.7119C11.0529 10.6925 11.0639 10.6728 11.0744 10.6528C11.0849 10.6328 11.095 10.6126 11.1045 10.5921C11.1141 10.5716 11.1231 10.5509 11.1317 10.5299C11.1402 10.509 11.1483 10.4879 11.1558 10.4665C11.1633 10.4452 11.1703 10.4237 11.1768 10.402C11.1833 10.3803 11.1893 10.3585 11.1947 10.3365C11.2001 10.3145 11.205 10.2924 11.2094 10.2702C11.2137 10.248 11.2175 10.2256 11.2208 10.2032C11.2241 10.1808 11.2268 10.1583 11.229 10.1358C11.2312 10.1132 11.2329 10.0906 11.2339 10.068C11.235 10.0454 11.2356 10.0227 11.2356 10.0001C11.2356 9.9774 11.235 9.95476 11.2339 9.93213C11.2329 9.90951 11.2312 9.8869 11.229 9.86434C11.2268 9.84179 11.2241 9.81931 11.2208 9.7969C11.2175 9.77449 11.2137 9.75217 11.2094 9.72994C11.205 9.70771 11.2001 9.68561 11.1947 9.66363C11.1893 9.64165 11.1833 9.61982 11.1768 9.59813C11.1703 9.57644 11.1633 9.55493 11.1558 9.53361C11.1483 9.51228 11.1402 9.49113 11.1317 9.4702C11.1231 9.44927 11.1141 9.42855 11.1045 9.40807C11.095 9.38757 11.0849 9.36734 11.0744 9.34737C11.0639 9.32737 11.0529 9.30767 11.0414 9.28823C11.0299 9.2688 11.018 9.24965 11.0055 9.23081C10.9931 9.21197 10.9803 9.19345 10.967 9.17525C10.9537 9.15705 10.9399 9.13919 10.9257 9.12168C10.9116 9.10416 10.897 9.087 10.882 9.07021C10.867 9.05342 10.8516 9.03702 10.8358 9.02099C10.82 9.00497 10.8038 8.98935 10.7873 8.97413C10.7707 8.95892 10.7538 8.94412 10.7365 8.92975C10.7193 8.91537 10.7017 8.90144 10.6837 8.88794C10.6658 8.87444 10.6475 8.86139 10.629 8.8488C10.6104 8.83621 10.5915 8.82409 10.5723 8.81243C10.5532 8.80079 10.5338 8.78962 10.514 8.77894C10.4944 8.76826 10.4744 8.75808 10.4542 8.74839C10.434 8.73871 10.4136 8.72953 10.393 8.72085C10.3723 8.71218 10.3515 8.70403 10.3304 8.69638C10.3094 8.68875 10.2882 8.68165 10.2668 8.67507C10.2455 8.6685 10.2239 8.66246 10.2023 8.65695C10.1806 8.65145 10.1588 8.64649 10.1369 8.64206C10.115 8.63764 10.093 8.63376 10.0709 8.63043C10.0488 8.62712 10.0266 8.62435 10.0044 8.62212C9.98216 8.6199 9.95988 8.61823 9.93757 8.61713C9.91527 8.61601 9.89294 8.61545 9.8706 8.61545Z"   fill="#0073ED" ></path></svg>