<svg xmlns="http://www.w3.org/2000/svg" xmlns:xlink="http://www.w3.org/1999/xlink" width="20" height="20" viewBox="0 0 20 20" fill="none"><path     fill="#0073ED"  d="M5.24431 6.91096L9.41217 2.7431C9.42182 2.73347 9.43064 2.72368 9.44074 2.71453C9.45084 2.70536 9.46236 2.69818 9.47289 2.68953C9.48343 2.68088 9.49407 2.67265 9.50503 2.66453C9.51599 2.65642 9.52582 2.64711 9.53717 2.63953C9.54852 2.63195 9.56119 2.62511 9.57289 2.6181C9.58458 2.6111 9.59657 2.60668 9.6086 2.60024C9.62063 2.59383 9.63199 2.58465 9.64431 2.57882C9.65664 2.57298 9.66743 2.56974 9.68003 2.56453C9.69263 2.55931 9.70648 2.55484 9.71931 2.55024C9.73215 2.54566 9.74555 2.53992 9.7586 2.53596C9.77165 2.532 9.78466 2.52524 9.79788 2.52524C9.81111 2.52524 9.82379 2.51453 9.83717 2.51453C9.85055 2.51453 9.86296 2.51096 9.87646 2.51096C9.88995 2.51096 9.90574 2.50382 9.91931 2.50382C9.93289 2.50382 9.94499 2.50024 9.9586 2.50024C9.97221 2.50024 9.98782 2.50024 10.0015 2.50024C10.0151 2.50024 10.0271 2.50024 10.0407 2.50024C10.0544 2.50024 10.0665 2.50382 10.08 2.50382C10.0936 2.50382 10.1094 2.51096 10.1229 2.51096C10.1364 2.51096 10.1488 2.51453 10.1622 2.51453C10.1755 2.51453 10.1882 2.52524 10.2015 2.52524C10.2147 2.52524 10.2277 2.532 10.2407 2.53596C10.2538 2.53992 10.2672 2.54566 10.28 2.55024C10.2929 2.55484 10.3067 2.55931 10.3193 2.56453C10.3319 2.56974 10.3427 2.57298 10.355 2.57882C10.3674 2.58465 10.3823 2.59383 10.3943 2.60024C10.4063 2.60668 10.4183 2.6111 10.43 2.6181C10.4417 2.62511 10.4508 2.63195 10.4622 2.63953C10.4735 2.64711 10.4869 2.65642 10.4979 2.66453C10.5088 2.67265 10.5195 2.68088 10.53 2.68953C10.5406 2.69818 10.5485 2.70536 10.5586 2.71453C10.5687 2.72368 10.5811 2.73347 10.5907 2.7431L14.7555 6.91098C15.0807 7.23646 15.0806 7.76394 14.7553 8.08929L14.7553 8.08929C14.4297 8.41484 13.9019 8.41473 13.5765 8.08904L10.0015 4.51096L6.42289 8.08953C6.09743 8.41499 5.56977 8.41499 5.24431 8.08953L5.24431 8.08953C4.91886 7.76408 4.91886 7.23641 5.24431 6.91096Z"></path><path     fill="#0073ED"  d="M9.16663 12.5L9.16663 4.16671C9.16663 3.70647 9.53973 3.33337 9.99997 3.33337L9.99997 3.33337C10.4602 3.33337 10.8333 3.70647 10.8333 4.16671L10.8333 12.5C10.8333 12.9603 10.4602 13.3334 9.99997 13.3334L9.99997 13.3334C9.53973 13.3334 9.16663 12.9603 9.16663 12.5Z"></path><path     fill="#0073ED"  d="M3.75123 13.7506L3.75123 15.8345L16.2512 15.8345L16.2512 13.7488C16.2512 13.2892 16.6238 12.9166 17.0834 12.9166L17.0834 12.9166C17.5429 12.9166 17.9155 13.2892 17.9155 13.7488L17.9155 16.6666C17.9155 16.6803 17.9155 16.6923 17.9155 16.7059C17.9155 16.7195 17.9119 16.7352 17.9119 16.7488C17.9119 16.7623 17.9084 16.7746 17.9084 16.7881C17.9084 16.8015 17.9012 16.8175 17.9012 16.8309C17.9012 16.8443 17.8905 16.857 17.8905 16.8702C17.8905 16.8834 17.8838 16.8964 17.8798 16.9095C17.8758 16.9225 17.8737 16.9359 17.8691 16.9488C17.8645 16.9616 17.86 16.9719 17.8548 16.9845C17.8496 16.9971 17.8428 17.0114 17.8369 17.0238C17.8311 17.0361 17.8255 17.0475 17.8191 17.0595C17.8127 17.0715 17.8047 17.0835 17.7977 17.0952C17.7906 17.1069 17.7838 17.1196 17.7762 17.1309C17.7686 17.1423 17.7593 17.1521 17.7512 17.1631C17.7431 17.174 17.7349 17.1847 17.7262 17.1952C17.7176 17.2057 17.7104 17.2172 17.7012 17.2273C17.6921 17.2374 17.6823 17.2463 17.6727 17.2559C17.663 17.2655 17.6542 17.2753 17.6441 17.2845C17.634 17.2936 17.6225 17.3008 17.6119 17.3095C17.6014 17.3181 17.5908 17.3264 17.5798 17.3345C17.5688 17.3426 17.559 17.3519 17.5477 17.3595C17.5363 17.3671 17.5236 17.3739 17.5119 17.3809C17.5002 17.3879 17.4882 17.3959 17.4762 17.4023C17.4642 17.4088 17.4528 17.4144 17.4405 17.4202C17.4282 17.426 17.4138 17.4328 17.4012 17.4381C17.3886 17.4433 17.3783 17.4478 17.3655 17.4523C17.3527 17.4569 17.3393 17.4591 17.3262 17.4631C17.3132 17.467 17.3002 17.4738 17.2869 17.4738C17.2737 17.4738 17.261 17.4845 17.2477 17.4845C17.2343 17.4845 17.2183 17.4916 17.2048 17.4916C17.1913 17.4916 17.1791 17.4952 17.1655 17.4952C17.1519 17.4952 17.1363 17.4988 17.1227 17.4988C17.109 17.4988 17.097 17.4988 17.0834 17.4988L2.91552 17.4988C2.90188 17.4988 2.88986 17.4988 2.87623 17.4988C2.86261 17.4988 2.84694 17.4952 2.83337 17.4952C2.81981 17.4952 2.80758 17.4916 2.79409 17.4916C2.78059 17.4916 2.76818 17.4845 2.7548 17.4845C2.74143 17.4845 2.72875 17.4738 2.71552 17.4738C2.70229 17.4738 2.68928 17.467 2.67623 17.4631C2.66317 17.4591 2.64978 17.4569 2.63695 17.4523C2.62411 17.4478 2.61026 17.4433 2.59766 17.4381C2.58507 17.4328 2.57428 17.426 2.56195 17.4202C2.54962 17.4144 2.53469 17.4088 2.52266 17.4023C2.51064 17.3959 2.49865 17.3879 2.48695 17.3809C2.47525 17.3739 2.46614 17.3671 2.4548 17.3595C2.44346 17.3519 2.43004 17.3426 2.41909 17.3345C2.40814 17.3264 2.39749 17.3181 2.38695 17.3095C2.3764 17.3008 2.36848 17.2936 2.35837 17.2845C2.34827 17.2753 2.33587 17.2656 2.32623 17.2559C2.31658 17.2463 2.30681 17.2374 2.29766 17.2273C2.28849 17.2172 2.28131 17.2057 2.27266 17.1952C2.264 17.1847 2.25578 17.174 2.24766 17.1631C2.23953 17.1521 2.23024 17.1423 2.22266 17.1309C2.21509 17.1196 2.20825 17.1069 2.20123 17.0952C2.19423 17.0835 2.18981 17.0715 2.18337 17.0595C2.17694 17.0475 2.16778 17.0361 2.16195 17.0238C2.15613 17.0114 2.15288 16.9971 2.14766 16.9845C2.14244 16.9719 2.13797 16.9616 2.13337 16.9488C2.12878 16.9359 2.12305 16.9225 2.11909 16.9095C2.11513 16.8964 2.10837 16.8834 2.10837 16.8702C2.10837 16.857 2.09766 16.8443 2.09766 16.8309C2.09766 16.8175 2.09409 16.8015 2.09409 16.7881C2.09409 16.7746 2.08695 16.7623 2.08695 16.7488C2.08695 16.7352 2.08337 16.7195 2.08337 16.7059C2.08337 16.6923 2.08337 16.6803 2.08337 16.6666L2.08337 13.7506C2.08337 13.29 2.45674 12.9166 2.9173 12.9166L2.9173 12.9166C3.37787 12.9166 3.75123 13.29 3.75123 13.7506Z"></path></svg>