<svg xmlns="http://www.w3.org/2000/svg" xmlns:xlink="http://www.w3.org/1999/xlink" width="14.54547119140625" height="16" viewBox="0 0 14.54547119140625 16" fill="none"><path d="M8.72728 1.45454L5.8182 1.45454C5.8063 1.45454 5.7944 1.45483 5.7825 1.45541C5.77062 1.456 5.75876 1.45688 5.74691 1.45804C5.73507 1.45921 5.72325 1.46067 5.71148 1.46242C5.6997 1.46415 5.68799 1.46619 5.67631 1.46852C5.66463 1.47084 5.65303 1.47344 5.64149 1.47634C5.62995 1.47923 5.61848 1.4824 5.60707 1.48585C5.59569 1.48931 5.58438 1.49304 5.57319 1.49705C5.56199 1.50106 5.55087 1.50535 5.53988 1.5099C5.52888 1.51446 5.51801 1.51928 5.50725 1.52436C5.4965 1.52945 5.48586 1.5348 5.47536 1.54042C5.46486 1.54603 5.45451 1.55189 5.4443 1.55801C5.43409 1.56413 5.42404 1.5705 5.41413 1.57711C5.40425 1.58373 5.39452 1.59058 5.38495 1.59767C5.37539 1.60475 5.36601 1.61207 5.35681 1.61963C5.34762 1.62717 5.33861 1.63494 5.32979 1.64294C5.32098 1.65093 5.31236 1.65914 5.30394 1.66756C5.29552 1.67598 5.28732 1.6846 5.27932 1.69342C5.27133 1.70223 5.26356 1.71125 5.256 1.72043C5.24845 1.72964 5.24114 1.73901 5.23405 1.74858C5.22696 1.75814 5.22011 1.76787 5.21349 1.77776C5.20688 1.78766 5.2005 1.79772 5.19438 1.80793C5.18826 1.81814 5.1824 1.82848 5.17679 1.83898C5.17119 1.84948 5.16583 1.86012 5.16074 1.87088C5.15566 1.88163 5.15083 1.89251 5.14628 1.9035C5.14173 1.9145 5.13744 1.92561 5.13343 1.93681C5.12942 1.94801 5.12569 1.95931 5.12223 1.97069C5.11877 1.9821 5.1156 1.99357 5.11272 2.00511C5.10982 2.01665 5.10721 2.02826 5.1049 2.03993C5.10256 2.05161 5.10053 2.06332 5.09879 2.0751C5.09704 2.08688 5.09559 2.09869 5.09441 2.11054C5.09325 2.12238 5.09238 2.13425 5.09179 2.14613C5.09121 2.15802 5.09092 2.16992 5.09092 2.18182L5.09092 2.90908L9.45456 2.90908L9.45456 2.18182C9.45456 2.17081 9.4543 2.1598 9.45381 2.1488C9.45331 2.13781 9.45256 2.12681 9.45156 2.11585C9.45055 2.10489 9.44929 2.09395 9.44781 2.08302C9.44631 2.07212 9.44457 2.06124 9.44257 2.05042C9.44058 2.03959 9.43835 2.0288 9.43586 2.01808C9.43339 2.00736 9.43066 1.99669 9.42769 1.98607C9.42473 1.97547 9.42152 1.96493 9.41808 1.95448C9.41464 1.94402 9.41096 1.93364 9.40703 1.92334C9.40313 1.91306 9.39897 1.90285 9.39459 1.89275C9.39021 1.88264 9.38561 1.87265 9.38078 1.86275C9.37594 1.85286 9.37088 1.84308 9.36561 1.83341C9.36035 1.82375 9.35484 1.8142 9.34913 1.80479C9.34342 1.79536 9.33751 1.78609 9.33137 1.77694C9.32523 1.76779 9.31889 1.75879 9.31236 1.74994C9.30582 1.74108 9.29909 1.73236 9.29215 1.72381C9.28521 1.71527 9.27807 1.70686 9.27076 1.69863C9.26344 1.6904 9.25594 1.68235 9.24826 1.67446C9.24057 1.66657 9.23271 1.65886 9.22468 1.65133C9.21665 1.6438 9.20846 1.63645 9.20009 1.62929C9.19172 1.62213 9.18318 1.61517 9.1745 1.60839C9.16582 1.60162 9.15698 1.59505 9.14799 1.58869C9.13901 1.58231 9.12989 1.57615 9.12064 1.57019C9.11136 1.56424 9.10197 1.5585 9.09244 1.55296C9.08292 1.54744 9.07328 1.54213 9.06352 1.53704C9.05375 1.53195 9.04388 1.52708 9.03389 1.52243C9.0239 1.5178 9.01381 1.51338 9.00364 1.50919C8.99344 1.50501 8.98316 1.50106 8.9728 1.49734C8.96244 1.49363 8.95199 1.49014 8.94147 1.48689C8.93095 1.48365 8.92035 1.48065 8.9097 1.47789C8.89903 1.47513 8.88831 1.47261 8.87753 1.47034C8.86676 1.46806 8.85594 1.46602 8.84508 1.46424C8.8342 1.46246 8.8233 1.46092 8.81237 1.45964L8.72728 1.45454ZM8.72728 6.54546C8.73918 6.54546 8.75107 6.54575 8.76297 6.54633C8.77485 6.54693 8.78672 6.54779 8.79856 6.54895C8.81041 6.55013 8.82222 6.55158 8.834 6.55333C8.84578 6.55507 8.85749 6.5571 8.86917 6.55944C8.88084 6.56175 8.89245 6.56436 8.90399 6.56726C8.91553 6.57014 8.927 6.57331 8.93839 6.57677C8.94979 6.58023 8.96109 6.58396 8.97229 6.58797C8.98349 6.59198 8.9946 6.59627 9.0056 6.60082C9.01659 6.60537 9.02747 6.6102 9.03822 6.61528C9.04898 6.62037 9.05961 6.62573 9.07011 6.63133C9.08061 6.63694 9.09096 6.64281 9.10117 6.64893C9.11138 6.65504 9.12142 6.66142 9.13132 6.66802C9.14123 6.67463 9.15094 6.68148 9.16051 6.68857C9.17007 6.69566 9.17946 6.70299 9.18865 6.71054C9.19785 6.7181 9.20687 6.72587 9.21568 6.73386C9.22449 6.74186 9.23312 6.75006 9.24154 6.75848C9.24994 6.76688 9.25816 6.7755 9.26615 6.78432C9.27415 6.79313 9.28192 6.80215 9.28947 6.81135C9.29702 6.82056 9.30434 6.82993 9.31143 6.83949C9.31852 6.84906 9.32537 6.85877 9.33198 6.86868C9.3386 6.87858 9.34497 6.88862 9.35109 6.89883C9.35721 6.90904 9.36307 6.9194 9.36868 6.92989C9.37429 6.94039 9.37963 6.95102 9.38472 6.96178C9.38982 6.97253 9.39464 6.98341 9.39919 6.9944C9.40374 7.0054 9.40804 7.01651 9.41205 7.02771C9.41605 7.03891 9.41978 7.05021 9.42325 7.06161C9.42671 7.073 9.42988 7.08447 9.43276 7.09601C9.43565 7.10755 9.43826 7.11916 9.44058 7.13083C9.4429 7.14251 9.44493 7.15424 9.44668 7.16602C9.44844 7.17779 9.44989 7.18959 9.45105 7.20144C9.45222 7.21328 9.45309 7.22515 9.45369 7.23703C9.45427 7.24893 9.45456 7.26082 9.45456 7.27272L9.45456 11.6364C9.45451 11.6482 9.45415 11.6601 9.45352 11.6719C9.45289 11.6838 9.45195 11.6956 9.45074 11.7074C9.44953 11.7192 9.44801 11.731 9.44622 11.7427C9.44443 11.7545 9.44235 11.7661 9.43998 11.7778C9.43761 11.7894 9.43497 11.8009 9.43206 11.8124C9.42913 11.8239 9.42592 11.8354 9.42243 11.8467C9.41893 11.858 9.41517 11.8693 9.41113 11.8805C9.40709 11.8916 9.40279 11.9027 9.39821 11.9136C9.39362 11.9246 9.38878 11.9354 9.38367 11.9461C9.37855 11.9568 9.37318 11.9674 9.36756 11.9778C9.36193 11.9883 9.35605 11.9986 9.34992 12.0087C9.3438 12.0189 9.33742 12.0289 9.33079 12.0387C9.32416 12.0486 9.31731 12.0583 9.31022 12.0678C9.30311 12.0773 9.2958 12.0866 9.28825 12.0958C9.28069 12.1049 9.27292 12.1139 9.26493 12.1227C9.25693 12.1314 9.24873 12.14 9.24031 12.1484C9.23191 12.1567 9.2233 12.1649 9.21449 12.1728C9.20568 12.1808 9.19668 12.1885 9.18749 12.196C9.1783 12.2035 9.16893 12.2108 9.1594 12.2179C9.14985 12.2249 9.14014 12.2317 9.13025 12.2383C9.12038 12.2449 9.11034 12.2512 9.10015 12.2573C9.08997 12.2634 9.07964 12.2692 9.06916 12.2748C9.05869 12.2804 9.04809 12.2857 9.03735 12.2908C9.02661 12.2958 9.01576 12.3006 9.0048 12.3051C8.99384 12.3097 8.98276 12.3139 8.97159 12.3179C8.96041 12.3219 8.94914 12.3256 8.93777 12.329C8.92642 12.3325 8.91498 12.3356 8.90348 12.3385C8.89197 12.3414 8.88038 12.344 8.86874 12.3463C8.8571 12.3486 8.84542 12.3506 8.83368 12.3523C8.82193 12.3541 8.81017 12.3555 8.79836 12.3567C8.78655 12.3578 8.77472 12.3587 8.76287 12.3593C8.75102 12.3599 8.73916 12.3602 8.72728 12.3602C8.71542 12.3602 8.70355 12.3599 8.6917 12.3593C8.67986 12.3587 8.66803 12.3578 8.65622 12.3567C8.6444 12.3555 8.63264 12.3541 8.6209 12.3523C8.60915 12.3506 8.59748 12.3486 8.58584 12.3463C8.57419 12.344 8.5626 12.3414 8.5511 12.3385C8.53959 12.3356 8.52815 12.3325 8.5168 12.329C8.50543 12.3256 8.49416 12.3219 8.48298 12.3179C8.47182 12.3139 8.46074 12.3097 8.44978 12.3051C8.43882 12.3006 8.42796 12.2958 8.41722 12.2908C8.40648 12.2857 8.39588 12.2804 8.38542 12.2748C8.37493 12.2692 8.3646 12.2634 8.35441 12.2573C8.34423 12.2512 8.33419 12.2449 8.32432 12.2383C8.31444 12.2317 8.30472 12.2249 8.29518 12.2179C8.28565 12.2108 8.27627 12.2035 8.26709 12.196C8.2579 12.1885 8.2489 12.1808 8.24008 12.1728C8.23127 12.1649 8.22266 12.1567 8.21426 12.1484C8.20584 12.14 8.19764 12.1314 8.18965 12.1227C8.18165 12.1139 8.17388 12.1049 8.16633 12.0958C8.15878 12.0866 8.15147 12.0773 8.14436 12.0678C8.13727 12.0583 8.13041 12.0486 8.12378 12.0387C8.11717 12.0289 8.1108 12.0189 8.10466 12.0087C8.09852 11.9986 8.09264 11.9883 8.08702 11.9778C8.08139 11.9674 8.07602 11.9568 8.07091 11.9461C8.06579 11.9354 8.06095 11.9246 8.05637 11.9136C8.05178 11.9027 8.04749 11.8916 8.04345 11.8805C8.03941 11.8693 8.03564 11.858 8.03215 11.8467C8.02865 11.8354 8.02545 11.8239 8.02252 11.8124C8.0196 11.8009 8.01696 11.7894 8.01459 11.7778C8.01222 11.7661 8.01014 11.7545 8.00835 11.7427C8.00656 11.731 8.00504 11.7192 8.00383 11.7074C8.00262 11.6956 8.00169 11.6838 8.00106 11.6719C8.00043 11.6601 8.00007 11.6482 8.00002 11.6364L8.00002 7.27272C8.00002 7.26082 8.00031 7.24893 8.00089 7.23704C8.00148 7.22515 8.00235 7.21328 8.00353 7.20144C8.00469 7.18959 8.00614 7.17779 8.00789 7.16602C8.00965 7.15424 8.01168 7.14251 8.01399 7.13083C8.01631 7.11916 8.01892 7.10755 8.02182 7.09601C8.0247 7.08447 8.02787 7.073 8.03133 7.06161C8.03479 7.05023 8.03852 7.03893 8.04253 7.02771C8.04653 7.01651 8.05083 7.00541 8.05538 6.99442C8.05993 6.98343 8.06476 6.97253 8.06985 6.96178C8.07495 6.95102 8.08028 6.94039 8.08589 6.9299C8.0915 6.9194 8.09736 6.90906 8.10348 6.89885C8.1096 6.88864 8.11598 6.87858 8.12259 6.86868C8.1292 6.85877 8.13606 6.84906 8.14315 6.83949C8.15024 6.82993 8.15755 6.82056 8.1651 6.81135C8.17265 6.80216 8.18043 6.79315 8.18842 6.78433C8.19641 6.7755 8.20461 6.76688 8.21303 6.75848C8.22145 6.75006 8.23008 6.74186 8.23889 6.73386C8.2477 6.72587 8.25672 6.7181 8.26591 6.71054C8.27511 6.70299 8.28449 6.69568 8.29405 6.68859C8.30361 6.6815 8.31333 6.67465 8.32323 6.66803C8.33314 6.66142 8.34318 6.65504 8.35339 6.64893C8.3636 6.64281 8.37396 6.63694 8.38446 6.63133C8.39494 6.62573 8.40558 6.62037 8.41634 6.61529C8.42709 6.6102 8.43798 6.60537 8.44898 6.60082C8.45997 6.59627 8.47107 6.59198 8.48227 6.58797C8.49348 6.58396 8.50478 6.58023 8.51617 6.57677C8.52756 6.57331 8.53903 6.57014 8.55057 6.56726C8.56211 6.56436 8.57372 6.56175 8.58539 6.55944C8.59707 6.55712 8.6088 6.55509 8.62057 6.55333C8.63235 6.55158 8.64415 6.55013 8.65599 6.54897C8.66784 6.54779 8.6797 6.54693 8.6916 6.54633C8.70348 6.54575 8.71538 6.54546 8.72728 6.54546ZM5.8182 6.54546C5.83009 6.54546 5.84199 6.54575 5.85389 6.54633C5.86577 6.54693 5.87764 6.54779 5.88948 6.54897C5.90133 6.55013 5.91312 6.55158 5.9249 6.55333C5.93668 6.55509 5.94841 6.55712 5.96008 6.55944C5.97176 6.56175 5.98337 6.56436 5.99491 6.56726C6.00645 6.57014 6.01792 6.57331 6.02931 6.57677C6.04069 6.58023 6.05199 6.58396 6.06321 6.58797C6.07441 6.59198 6.0855 6.59627 6.0965 6.60082C6.10749 6.60537 6.11838 6.6102 6.12914 6.61529C6.1399 6.62037 6.15053 6.62573 6.16102 6.63133C6.17152 6.63694 6.18186 6.64281 6.19207 6.64893C6.20228 6.65504 6.21234 6.66142 6.22224 6.66803C6.23215 6.67465 6.24186 6.6815 6.25142 6.68859C6.26099 6.69568 6.27036 6.70299 6.27957 6.71054C6.28875 6.7181 6.29777 6.72587 6.30658 6.73386C6.31541 6.74186 6.32404 6.75006 6.33244 6.75848C6.34086 6.76688 6.34906 6.7755 6.35706 6.78432C6.36505 6.79315 6.37282 6.80216 6.38037 6.81135C6.38793 6.82056 6.39524 6.82993 6.40233 6.83949C6.40942 6.84906 6.41627 6.85877 6.42289 6.86868C6.4295 6.87858 6.43587 6.88862 6.44199 6.89883C6.44811 6.90904 6.45398 6.9194 6.45958 6.9299C6.46519 6.94039 6.47053 6.95102 6.47562 6.96178C6.48072 6.97253 6.48554 6.98343 6.4901 6.99442C6.49465 7.00541 6.49894 7.01651 6.50295 7.02771C6.50695 7.03893 6.51069 7.05023 6.51415 7.06161C6.51761 7.073 6.52078 7.08447 6.52366 7.09601C6.52656 7.10755 6.52916 7.11916 6.53148 7.13083C6.5338 7.14251 6.53583 7.15424 6.53758 7.16602C6.53934 7.17779 6.54079 7.18959 6.54197 7.20144C6.54312 7.21328 6.54399 7.22515 6.54459 7.23703C6.54517 7.24893 6.54546 7.26082 6.54546 7.27272L6.54546 11.6364C6.54541 11.6482 6.54505 11.6601 6.54442 11.6719C6.54379 11.6838 6.54285 11.6956 6.54164 11.7074C6.54043 11.7192 6.53891 11.731 6.53712 11.7427C6.53533 11.7545 6.53325 11.7661 6.53089 11.7778C6.52852 11.7894 6.52587 11.8009 6.52296 11.8124C6.52003 11.8239 6.51682 11.8354 6.51333 11.8467C6.50983 11.858 6.50607 11.8693 6.50203 11.8805C6.49799 11.8916 6.49369 11.9027 6.48911 11.9136C6.48452 11.9246 6.47968 11.9354 6.47457 11.9461C6.46945 11.9568 6.46408 11.9674 6.45846 11.9778C6.45283 11.9883 6.44695 11.9986 6.44082 12.0087C6.4347 12.0189 6.42832 12.0289 6.42169 12.0387C6.41506 12.0486 6.40821 12.0583 6.40112 12.0678C6.39401 12.0773 6.3867 12.0866 6.37915 12.0958C6.3716 12.1049 6.36382 12.1139 6.35583 12.1227C6.34783 12.1314 6.33964 12.14 6.33121 12.1484C6.32281 12.1567 6.3142 12.1649 6.30539 12.1728C6.29658 12.1808 6.28758 12.1885 6.27839 12.196C6.2692 12.2035 6.25985 12.2108 6.2503 12.2179C6.24075 12.2249 6.23104 12.2317 6.22115 12.2383C6.21128 12.2449 6.20124 12.2512 6.19107 12.2573C6.18087 12.2634 6.17054 12.2692 6.16006 12.2748C6.1496 12.2804 6.13899 12.2857 6.12825 12.2908C6.11753 12.2958 6.10667 12.3006 6.0957 12.3051C6.08474 12.3097 6.07366 12.3139 6.06249 12.3179C6.05131 12.3219 6.04004 12.3256 6.02867 12.329C6.01732 12.3325 6.00589 12.3356 5.99438 12.3385C5.98287 12.3414 5.97128 12.344 5.95964 12.3463C5.948 12.3486 5.93632 12.3506 5.92458 12.3523C5.91283 12.3541 5.90107 12.3555 5.88926 12.3567C5.87745 12.3578 5.86562 12.3587 5.85377 12.3593C5.84192 12.3599 5.83006 12.3602 5.8182 12.3602C5.80632 12.3602 5.79445 12.3599 5.78261 12.3593C5.77076 12.3587 5.75893 12.3578 5.74712 12.3567C5.73531 12.3555 5.72354 12.3541 5.7118 12.3523C5.70006 12.3506 5.68838 12.3486 5.67674 12.3463C5.66509 12.344 5.6535 12.3414 5.642 12.3385C5.63049 12.3356 5.61906 12.3325 5.6077 12.329C5.59633 12.3256 5.58507 12.3219 5.57388 12.3179C5.56272 12.3139 5.55164 12.3097 5.54068 12.3051C5.5297 12.3006 5.51884 12.2958 5.50812 12.2908C5.49738 12.2857 5.48678 12.2804 5.47632 12.2748C5.46583 12.2692 5.4555 12.2634 5.44533 12.2573C5.43513 12.2512 5.42509 12.2449 5.41523 12.2383C5.40534 12.2317 5.39562 12.2249 5.38608 12.2179C5.37655 12.2108 5.36717 12.2035 5.35799 12.196C5.3488 12.1885 5.3398 12.1808 5.33099 12.1728C5.32217 12.1649 5.31357 12.1567 5.30516 12.1484C5.29674 12.14 5.28854 12.1314 5.28055 12.1227C5.27255 12.1139 5.26478 12.1049 5.25723 12.0958C5.24968 12.0866 5.24237 12.0773 5.23526 12.0678C5.22817 12.0583 5.22132 12.0486 5.21469 12.0387C5.20805 12.0289 5.20168 12.0189 5.19556 12.0087C5.18942 11.9986 5.18354 11.9883 5.17792 11.9778C5.17229 11.9674 5.16692 11.9568 5.16181 11.9461C5.1567 11.9354 5.15186 11.9246 5.14727 11.9136C5.14269 11.9027 5.13839 11.8916 5.13435 11.8805C5.13031 11.8693 5.12654 11.858 5.12305 11.8467C5.11955 11.8354 5.11635 11.8239 5.11342 11.8124C5.1105 11.8009 5.10786 11.7894 5.10549 11.7778C5.10312 11.7661 5.10104 11.7545 5.09925 11.7427C5.09746 11.731 5.09595 11.7192 5.09474 11.7074C5.09353 11.6956 5.09259 11.6838 5.09196 11.6719C5.09133 11.6601 5.09097 11.6482 5.09092 11.6364L5.09092 7.27272C5.09092 7.26082 5.09121 7.24893 5.09179 7.23703C5.09238 7.22515 5.09325 7.21328 5.09443 7.20144C5.09559 7.18959 5.09704 7.17779 5.09879 7.16602C5.10055 7.15424 5.10258 7.14251 5.1049 7.13083C5.10721 7.11916 5.10982 7.10755 5.11272 7.09601C5.1156 7.08447 5.11877 7.073 5.12223 7.06161C5.12569 7.05021 5.12942 7.03891 5.13343 7.02771C5.13744 7.01651 5.14173 7.0054 5.14628 6.9944C5.15083 6.98341 5.15566 6.97253 5.16075 6.96178C5.16585 6.95102 5.17119 6.94039 5.17679 6.92989C5.1824 6.9194 5.18828 6.90904 5.1944 6.89883C5.20052 6.88862 5.20688 6.87858 5.21349 6.86868C5.22011 6.85877 5.22696 6.84906 5.23405 6.83949C5.24114 6.82993 5.24845 6.82056 5.256 6.81135C5.26356 6.80215 5.27133 6.79313 5.27932 6.78432C5.28732 6.7755 5.29553 6.76688 5.30394 6.75848C5.31236 6.75006 5.32098 6.74186 5.32979 6.73386C5.33861 6.72587 5.34762 6.7181 5.35683 6.71054C5.36601 6.70299 5.37541 6.69566 5.38497 6.68857C5.39453 6.68148 5.40425 6.67463 5.41415 6.66802C5.42406 6.66142 5.43409 6.65504 5.4443 6.64893C5.45451 6.64281 5.46486 6.63694 5.47536 6.63133C5.48586 6.62573 5.4965 6.62037 5.50725 6.61528C5.51801 6.6102 5.52888 6.60537 5.53988 6.60082C5.55087 6.59627 5.56199 6.59198 5.57319 6.58797C5.58438 6.58396 5.59569 6.58023 5.60709 6.57677C5.61848 6.57331 5.62995 6.57014 5.64149 6.56726C5.65303 6.56436 5.66463 6.56175 5.67631 6.55944C5.68799 6.5571 5.69971 6.55507 5.71149 6.55333C5.72327 6.55158 5.73507 6.55013 5.74691 6.54895C5.75876 6.54779 5.77062 6.54693 5.7825 6.54633C5.7944 6.54575 5.8063 6.54546 5.8182 6.54546ZM11.6364 4.36364L2.9091 4.36364L2.9091 13.8182C2.9091 13.8292 2.90935 13.8402 2.90985 13.8512C2.91034 13.8622 2.91109 13.8732 2.9121 13.8841C2.9131 13.8951 2.91435 13.906 2.91585 13.917C2.91735 13.9279 2.91909 13.9388 2.92108 13.9496C2.92308 13.9604 2.92531 13.9712 2.9278 13.9819C2.93027 13.9926 2.933 14.0033 2.93596 14.0139C2.93893 14.0245 2.94213 14.0351 2.94558 14.0455C2.94902 14.056 2.9527 14.0664 2.95662 14.0767C2.96052 14.0869 2.96468 14.0971 2.96906 14.1073C2.97345 14.1174 2.97805 14.1274 2.98287 14.1373C2.98771 14.1471 2.99277 14.1569 2.99804 14.1666C3.00331 14.1763 3.00881 14.1858 3.01452 14.1952C3.02024 14.2046 3.02615 14.2139 3.03229 14.2231C3.03842 14.2322 3.04476 14.2412 3.05129 14.2501C3.05784 14.2589 3.06457 14.2676 3.07151 14.2762C3.07845 14.2847 3.08559 14.2931 3.0929 14.3014C3.10021 14.3096 3.10771 14.3176 3.1154 14.3255C3.12309 14.3334 3.13095 14.3411 3.13897 14.3487C3.147 14.3562 3.1552 14.3636 3.16357 14.3707C3.17194 14.3779 3.18048 14.3848 3.18916 14.3916C3.19783 14.3984 3.20668 14.405 3.21566 14.4113C3.22464 14.4177 3.23376 14.4239 3.24302 14.4298C3.25229 14.4358 3.26168 14.4415 3.27121 14.447C3.28074 14.4526 3.29037 14.4579 3.30014 14.463C3.30991 14.4681 3.31978 14.4729 3.32976 14.4776C3.33975 14.4822 3.34984 14.4866 3.36002 14.4908C3.37021 14.495 3.38049 14.4989 3.39085 14.5027C3.40122 14.5064 3.41167 14.5099 3.42218 14.5131C3.4327 14.5163 3.4433 14.5193 3.45396 14.5221C3.46463 14.5249 3.47535 14.5274 3.48612 14.5297C3.49689 14.5319 3.50772 14.534 3.51858 14.5358C3.52945 14.5375 3.54036 14.5391 3.55129 14.5404L3.63638 14.5455L10.9091 14.5455C10.921 14.5455 10.9329 14.5452 10.9448 14.5446C10.9567 14.544 10.9685 14.5431 10.9804 14.542C10.9922 14.5408 11.004 14.5393 11.0158 14.5376C11.0276 14.5358 11.0393 14.5338 11.051 14.5315C11.0627 14.5292 11.0743 14.5266 11.0858 14.5237C11.0973 14.5208 11.1088 14.5176 11.1202 14.5141C11.1316 14.5107 11.1429 14.507 11.1541 14.5029C11.1653 14.4989 11.1764 14.4946 11.1874 14.4901C11.1984 14.4855 11.2093 14.4807 11.2201 14.4756C11.2308 14.4705 11.2414 14.4652 11.2519 14.4596C11.2624 14.454 11.2728 14.4481 11.283 14.442C11.2932 14.4359 11.3033 14.4295 11.3132 14.4229C11.323 14.4163 11.3328 14.4094 11.3423 14.4023C11.3519 14.3952 11.3613 14.3879 11.3705 14.3804C11.3797 14.3728 11.3887 14.3651 11.3975 14.3571C11.4063 14.3491 11.4149 14.3409 11.4234 14.3324C11.4318 14.324 11.44 14.3154 11.448 14.3066C11.456 14.2978 11.4637 14.2888 11.4713 14.2796C11.4788 14.2704 11.4862 14.261 11.4932 14.2514C11.5003 14.2419 11.5072 14.2321 11.5138 14.2222C11.5204 14.2123 11.5268 14.2023 11.5329 14.1921C11.539 14.1819 11.5449 14.1715 11.5505 14.161C11.5561 14.1505 11.5615 14.1399 11.5666 14.1291C11.5716 14.1184 11.5765 14.1075 11.581 14.0965C11.5856 14.0855 11.5899 14.0744 11.5939 14.0632C11.5979 14.052 11.6016 14.0407 11.6051 14.0293C11.6085 14.0179 11.6117 14.0064 11.6146 13.9949C11.6175 13.9834 11.6201 13.9717 11.6224 13.9601C11.6247 13.9484 11.6268 13.9367 11.6285 13.9249C11.6303 13.9131 11.6317 13.9013 11.6329 13.8895C11.634 13.8776 11.6349 13.8658 11.6355 13.8539C11.6361 13.842 11.6364 13.8301 11.6364 13.8182L11.6364 4.36364ZM8.72728 0C8.76299 0 8.79867 0.000876123 8.83434 0.00262845C8.87 0.00438068 8.90559 0.00700627 8.94113 0.0105051C8.97667 0.0140051 9.01209 0.018375 9.04741 0.0236148C9.08274 0.0288546 9.11791 0.0349574 9.15294 0.0419233C9.18795 0.0488893 9.22277 0.0567103 9.25741 0.0653864C9.29205 0.0740626 9.32644 0.083583 9.36062 0.0939478C9.3948 0.104314 9.42868 0.115511 9.46231 0.127539C9.49593 0.139569 9.52923 0.152416 9.56222 0.166081C9.5952 0.179746 9.62784 0.194211 9.66013 0.209479C9.69241 0.224744 9.7243 0.240794 9.75578 0.257627C9.78727 0.274459 9.81833 0.292054 9.84896 0.31041C9.87959 0.328766 9.90974 0.347864 9.93943 0.367703C9.96913 0.387541 9.99831 0.408094 10.027 0.429365C10.0557 0.450636 10.0838 0.472598 10.1114 0.495251C10.139 0.517903 10.166 0.541219 10.1925 0.565197C10.219 0.589177 10.2448 0.61379 10.2701 0.63904C10.2953 0.664289 10.3199 0.690142 10.3439 0.716598C10.3679 0.743056 10.3912 0.770085 10.4138 0.797687C10.4365 0.825289 10.4585 0.853431 10.4797 0.882111C10.501 0.91079 10.5216 0.939976 10.5414 0.969665C10.5612 0.999359 10.5803 1.02952 10.5987 1.06014C10.617 1.09077 10.6346 1.12183 10.6515 1.15331C10.6683 1.1848 10.6844 1.21669 10.6996 1.24897C10.7149 1.28124 10.7294 1.31388 10.743 1.34688C10.7567 1.37987 10.7695 1.41317 10.7816 1.44679C10.7936 1.48041 10.8048 1.51431 10.8151 1.54848C10.8255 1.58264 10.835 1.61704 10.8437 1.65169C10.8524 1.68633 10.8602 1.72115 10.8672 1.75616C10.8741 1.79119 10.8803 1.82635 10.8855 1.86167C10.8907 1.89701 10.8951 1.93243 10.8986 1.96797C10.9021 2.00351 10.9047 2.0391 10.9065 2.07476C10.9082 2.11043 10.9091 2.14611 10.9091 2.18182L10.9091 2.90908L13.8182 2.90908C13.8292 2.90908 13.8402 2.90934 13.8512 2.90983C13.8622 2.91033 13.8732 2.91108 13.8842 2.91208C13.8951 2.91309 13.9061 2.91433 13.917 2.91583C13.9279 2.91733 13.9388 2.91907 13.9496 2.92106C13.9604 2.92306 13.9712 2.92529 13.9819 2.92778C13.9927 2.93025 14.0033 2.93298 14.0139 2.93595C14.0245 2.93891 14.0351 2.94212 14.0455 2.94556C14.056 2.949 14.0664 2.95268 14.0767 2.9566C14.087 2.96051 14.0972 2.96467 14.1073 2.96905C14.1174 2.97343 14.1274 2.97803 14.1373 2.98285C14.1472 2.9877 14.1569 2.99276 14.1666 2.99802C14.1763 3.00329 14.1858 3.0088 14.1952 3.01451C14.2047 3.02022 14.2139 3.02613 14.2231 3.03227C14.2322 3.03841 14.2412 3.04475 14.2501 3.05127C14.2589 3.05782 14.2677 3.06455 14.2762 3.07149C14.2847 3.07843 14.2932 3.08557 14.3014 3.09288C14.3096 3.1002 14.3177 3.1077 14.3256 3.11538C14.3334 3.12307 14.3412 3.13093 14.3487 3.13896C14.3562 3.14699 14.3636 3.15518 14.3707 3.16355C14.3779 3.17192 14.3849 3.18046 14.3916 3.18914C14.3984 3.19781 14.405 3.20666 14.4113 3.21564C14.4177 3.22463 14.4239 3.23375 14.4298 3.243C14.4358 3.25227 14.4415 3.26167 14.4471 3.2712C14.4526 3.28072 14.4579 3.29035 14.463 3.30012C14.4681 3.30989 14.4729 3.31976 14.4776 3.32975C14.4822 3.33974 14.4866 3.34983 14.4908 3.36C14.495 3.3702 14.499 3.38047 14.5027 3.39084C14.5064 3.4012 14.5099 3.41165 14.5131 3.42217C14.5164 3.43268 14.5194 3.44329 14.5221 3.45394C14.5249 3.46461 14.5274 3.47533 14.5297 3.4861C14.532 3.49688 14.534 3.5077 14.5358 3.51856C14.5376 3.52943 14.5391 3.54034 14.5404 3.55127L14.5455 3.63636C14.5455 3.64826 14.5452 3.66016 14.5446 3.67205C14.544 3.68393 14.5431 3.6958 14.542 3.70764C14.5408 3.71949 14.5394 3.7313 14.5376 3.74308C14.5358 3.75486 14.5338 3.76657 14.5315 3.77825C14.5292 3.78992 14.5266 3.80153 14.5237 3.81307C14.5208 3.82461 14.5176 3.83608 14.5142 3.84749C14.5107 3.85887 14.507 3.87017 14.503 3.88137C14.499 3.89257 14.4947 3.90368 14.4901 3.91468C14.4856 3.92567 14.4807 3.93655 14.4756 3.9473C14.4706 3.95806 14.4652 3.9687 14.4596 3.9792C14.454 3.9897 14.4481 4.00004 14.442 4.01025C14.4359 4.02046 14.4295 4.03052 14.4229 4.04041C14.4163 4.05031 14.4094 4.06004 14.4023 4.06961C14.3953 4.07917 14.3879 4.08854 14.3804 4.09775C14.3728 4.10693 14.3651 4.11595 14.3571 4.12476C14.3491 4.13358 14.3409 4.1422 14.3325 4.15062C14.324 4.15904 14.3154 4.16724 14.3066 4.17524C14.2978 4.18323 14.2888 4.191 14.2796 4.19855C14.2704 4.20611 14.261 4.21342 14.2514 4.22051C14.2419 4.2276 14.2321 4.23445 14.2222 4.24107C14.2123 4.24768 14.2023 4.25405 14.1921 4.26017C14.1819 4.26629 14.1715 4.27216 14.161 4.27776C14.1505 4.28337 14.1399 4.28872 14.1291 4.2938C14.1184 4.2989 14.1075 4.30372 14.0965 4.30828C14.0855 4.31283 14.0744 4.31712 14.0632 4.32113C14.052 4.32513 14.0407 4.32887 14.0293 4.33233C14.0179 4.33579 14.0064 4.33896 13.9949 4.34184C13.9834 4.34474 13.9718 4.34734 13.9601 4.34966C13.9484 4.352 13.9367 4.35403 13.9249 4.35576C13.9131 4.35752 13.9013 4.35897 13.8895 4.36015C13.8776 4.3613 13.8658 4.36217 13.8539 4.36277C13.842 4.36335 13.8301 4.36364 13.8182 4.36364L13.0909 4.36364L13.0909 13.8182C13.0909 13.8526 13.0901 13.8869 13.0885 13.9212C13.0869 13.9556 13.0844 13.9899 13.0812 14.0241C13.0779 14.0583 13.0739 14.0924 13.069 14.1264C13.0642 14.1605 13.0585 14.1944 13.0521 14.2281C13.0456 14.2619 13.0384 14.2955 13.0303 14.3289C13.0223 14.3623 13.0135 14.3955 13.0038 14.4285C12.9942 14.4615 12.9838 14.4943 12.9727 14.5268C12.9615 14.5593 12.9496 14.5915 12.9369 14.6235C12.9242 14.6554 12.9108 14.6871 12.8966 14.7184C12.8824 14.7497 12.8675 14.7807 12.8519 14.8113C12.8362 14.8419 12.8199 14.8721 12.8028 14.9019C12.7857 14.9318 12.768 14.9612 12.7495 14.9902C12.731 15.0192 12.7119 15.0477 12.6921 15.0758C12.6723 15.1039 12.6518 15.1315 12.6307 15.1586C12.6096 15.1857 12.5878 15.2123 12.5655 15.2384C12.5431 15.2645 12.5201 15.2901 12.4965 15.3151C12.473 15.3401 12.4488 15.3645 12.4241 15.3884C12.3993 15.4123 12.374 15.4356 12.3482 15.4582C12.3224 15.4809 12.296 15.5029 12.2691 15.5244C12.2422 15.5458 12.2149 15.5666 12.187 15.5867C12.1592 15.6068 12.1308 15.6263 12.1021 15.6451C12.0733 15.6639 12.0441 15.682 12.0144 15.6994C11.9848 15.7168 11.9548 15.7335 11.9243 15.7495C11.8939 15.7655 11.8631 15.7808 11.832 15.7953C11.8008 15.8099 11.7694 15.8237 11.7376 15.8367C11.7058 15.8498 11.6737 15.8621 11.6413 15.8736C11.6089 15.8851 11.5763 15.8959 11.5434 15.9059C11.5105 15.9159 11.4774 15.9251 11.4441 15.9335C11.4107 15.942 11.3773 15.9496 11.3436 15.9564C11.3099 15.9633 11.2761 15.9693 11.2421 15.9746C11.2081 15.9798 11.174 15.9843 11.1399 15.9879C11.1057 15.9915 11.0714 15.9944 11.0371 15.9964L10.9091 16L3.63638 16C3.60067 16 3.56499 15.9991 3.52931 15.9974C3.49366 15.9956 3.45807 15.993 3.42253 15.9895C3.38699 15.986 3.35156 15.9816 3.31623 15.9764C3.28091 15.9711 3.24575 15.965 3.21072 15.9581C3.17571 15.9511 3.14088 15.9433 3.10623 15.9346C3.07159 15.9259 3.0372 15.9164 3.00304 15.906C2.96886 15.8957 2.93497 15.8845 2.90134 15.8725C2.86773 15.8604 2.83442 15.8476 2.80142 15.8339C2.76844 15.8203 2.7358 15.8058 2.70353 15.7905C2.67125 15.7753 2.63935 15.7592 2.60787 15.7424C2.57639 15.7256 2.54533 15.7079 2.5147 15.6896C2.48407 15.6712 2.45392 15.6521 2.42422 15.6323C2.39453 15.6125 2.36535 15.5919 2.33666 15.5706C2.30799 15.5494 2.27985 15.5274 2.25225 15.5047C2.22465 15.4821 2.19762 15.4588 2.17115 15.4348C2.14469 15.4108 2.11884 15.3862 2.09359 15.361C2.06835 15.3357 2.04373 15.3099 2.01975 15.2834C1.99577 15.2569 1.97247 15.2299 1.94981 15.2023C1.92716 15.1747 1.90519 15.1466 1.88392 15.1179C1.86266 15.0892 1.8421 15.06 1.82226 15.0303C1.80242 15.0006 1.78333 14.9705 1.76497 14.9399C1.74661 14.9092 1.72901 14.8782 1.71218 14.8467C1.69535 14.8152 1.6793 14.7833 1.66403 14.751C1.64877 14.7187 1.6343 14.6861 1.62063 14.6531C1.60697 14.6201 1.59413 14.5868 1.58209 14.5532C1.57007 14.5196 1.55888 14.4857 1.54851 14.4515C1.53815 14.4173 1.52863 14.3829 1.51994 14.3483C1.51127 14.3137 1.50345 14.2789 1.49647 14.2438C1.48951 14.2088 1.4834 14.1736 1.47817 14.1383C1.47293 14.103 1.46856 14.0676 1.46506 14.032C1.46156 13.9965 1.45893 13.9609 1.45718 13.9252C1.45543 13.8896 1.45456 13.8539 1.45456 13.8182L1.45456 4.36364L0.727279 4.36364C0.716268 4.36364 0.705261 4.36338 0.694262 4.36289C0.683262 4.3624 0.672278 4.36165 0.661313 4.36064C0.650348 4.35963 0.639404 4.35837 0.628483 4.35689C0.617574 4.35539 0.606704 4.35365 0.595875 4.35166C0.585046 4.34966 0.574267 4.34741 0.56354 4.34494C0.552813 4.34247 0.542143 4.33974 0.531529 4.33678C0.520926 4.33381 0.510397 4.33061 0.499944 4.32716C0.489478 4.32372 0.479097 4.32004 0.468801 4.31612C0.458518 4.31221 0.448318 4.30805 0.438205 4.30367C0.428102 4.29929 0.418103 4.29469 0.408205 4.28987C0.398318 4.28504 0.388539 4.27998 0.37887 4.2747C0.3692 4.26943 0.359659 4.26392 0.35025 4.25821C0.340829 4.2525 0.331546 4.24659 0.322398 4.24045C0.31325 4.23432 0.30425 4.22797 0.295398 4.22145C0.286534 4.2149 0.277824 4.20817 0.269267 4.20123C0.260722 4.19429 0.252333 4.18715 0.244098 4.17984C0.235868 4.17253 0.227809 4.16503 0.219921 4.15734C0.212032 4.14965 0.204322 4.14179 0.196792 4.13376C0.189259 4.12574 0.181914 4.11754 0.174755 4.10917C0.167596 4.1008 0.16063 4.09226 0.153857 4.08358C0.147086 4.07491 0.140515 4.06606 0.134144 4.05708C0.127774 4.04809 0.121611 4.03897 0.115655 4.02972C0.109698 4.02045 0.103955 4.01105 0.0984256 4.00153C0.0928961 3.992 0.0875859 3.98237 0.0824949 3.9726C0.077404 3.96283 0.072537 3.95296 0.0678938 3.94297C0.0632506 3.93299 0.058837 3.92289 0.0546529 3.91272C0.0504677 3.90253 0.0465166 3.89225 0.0427995 3.88188C0.0390812 3.87152 0.0356007 3.86107 0.0323574 3.85055C0.0291142 3.84004 0.0261114 3.82943 0.0233489 3.81878C0.0205875 3.80811 0.0180689 3.79739 0.0157926 3.78662C0.0135176 3.77584 0.0114887 3.76502 0.00970564 3.75416C0.00792166 3.74329 0.00638528 3.73238 0.00509666 3.72145L0 3.63636C0 3.62446 0.000292084 3.61257 0.000876123 3.60067C0.00146016 3.58879 0.00233577 3.57692 0.00350281 3.56508C0.0046688 3.55323 0.00612507 3.54142 0.0078716 3.52964C0.00961825 3.51786 0.0116523 3.50615 0.0139739 3.49447C0.0162967 3.4828 0.0189039 3.47119 0.021796 3.45965C0.024688 3.44811 0.0278615 3.43664 0.0313159 3.42524C0.0347716 3.41385 0.038504 3.40255 0.0425131 3.39135C0.0465234 3.38015 0.0508057 3.36904 0.0553603 3.35804C0.059916 3.34705 0.0647382 3.33617 0.0698268 3.32542C0.0749153 3.31466 0.0802654 3.30403 0.0858768 3.29352C0.0914869 3.28303 0.0973518 3.27268 0.103471 3.26247C0.10959 3.25226 0.115956 3.2422 0.122569 3.2323C0.129181 3.22241 0.136033 3.21268 0.143122 3.20312C0.150213 3.19355 0.157534 3.18418 0.165085 3.17497C0.172635 3.16579 0.180408 3.15677 0.1884 3.14796C0.196393 3.13914 0.204598 3.13052 0.213015 3.1221C0.221431 3.11368 0.230049 3.10548 0.238868 3.09749C0.247691 3.08949 0.2567 3.08172 0.265892 3.07417C0.275097 3.06662 0.284477 3.05929 0.294034 3.05221C0.303602 3.04512 0.31333 3.03827 0.323216 3.03166C0.333114 3.02504 0.343171 3.01867 0.353387 3.01255C0.363592 3.00643 0.373943 3.00056 0.384443 2.99496C0.394943 2.98935 0.405575 2.984 0.416336 2.9789C0.427086 2.97382 0.437961 2.969 0.448961 2.96445C0.45996 2.95989 0.471063 2.9556 0.482267 2.95159C0.493471 2.94759 0.504767 2.94385 0.516154 2.94039C0.527552 2.93693 0.539024 2.93376 0.550569 2.93088C0.562113 2.92798 0.573721 2.92538 0.585392 2.92306C0.597063 2.92072 0.608784 2.9187 0.620557 2.91696C0.632341 2.9152 0.644153 2.91375 0.655995 2.91258C0.667836 2.91142 0.6797 2.91055 0.691586 2.90995C0.703483 2.90937 0.715381 2.90908 0.727279 2.90908L3.63638 2.90908L3.63638 2.18182C3.63638 2.14744 3.6372 2.11309 3.63882 2.07876C3.64043 2.04442 3.64285 2.01014 3.64611 1.97593C3.64935 1.9417 3.65339 1.90758 3.65825 1.87355C3.66311 1.83951 3.66875 1.80563 3.67521 1.77186C3.68167 1.73809 3.68893 1.70451 3.69696 1.67109C3.705 1.63768 3.71383 1.60447 3.72345 1.57146C3.73306 1.53846 3.74346 1.5057 3.75462 1.47319C3.76579 1.44068 3.7777 1.40845 3.79038 1.37651C3.80308 1.34456 3.81651 1.31293 3.83068 1.28161C3.84486 1.25031 3.85978 1.21935 3.87542 1.18873C3.89107 1.15813 3.90743 1.12791 3.9245 1.09807C3.94156 1.06824 3.95934 1.03882 3.9778 1.00982C3.99626 0.980835 4.01538 0.952294 4.03521 0.924205C4.05501 0.896116 4.07547 0.868509 4.09659 0.841386C4.11771 0.814262 4.13946 0.787654 4.16182 0.761559C4.1842 0.735464 4.20718 0.709911 4.23075 0.684902C4.25434 0.659893 4.2785 0.635455 4.30323 0.611586C4.32796 0.587719 4.35326 0.564449 4.3791 0.541777C4.40492 0.519104 4.43129 0.497056 4.45817 0.475628C4.48505 0.454202 4.51241 0.433422 4.54028 0.413289C4.56813 0.393157 4.59645 0.373693 4.62524 0.354899C4.65403 0.336103 4.68322 0.317999 4.71285 0.300585C4.74249 0.283171 4.77253 0.266467 4.80295 0.250471C4.83338 0.234477 4.86416 0.21921 4.8953 0.20467C4.92645 0.19013 4.95793 0.176334 4.98974 0.163282C5.02153 0.150231 5.05362 0.137937 5.08599 0.126401C5.11838 0.114865 5.15102 0.104101 5.1839 0.094108C5.21678 0.084116 5.2499 0.0749058 5.28323 0.0664773C5.31655 0.0580488 5.35004 0.050412 5.38373 0.0435665C5.41742 0.0367222 5.45124 0.0306767 5.48521 0.0254301C5.51919 0.0201847 5.55328 0.0157444 5.58745 0.0121091C5.62163 0.0084739 5.65587 0.00564773 5.69019 0.0036307L5.8182 0L8.72728 0Z"   fill="#C00000" ></path></svg>