<svg xmlns="http://www.w3.org/2000/svg" xmlns:xlink="http://www.w3.org/1999/xlink" width="20" height="20" viewBox="0 0 20 20" fill="none"><path     fill="#0073ED"  d="M5.24428 8.92254L9.41214 13.0904C9.42179 13.1 9.43061 13.1098 9.44071 13.119C9.45081 13.1281 9.46233 13.1353 9.47285 13.144C9.4834 13.1526 9.49404 13.1608 9.505 13.169C9.51595 13.1771 9.52579 13.1864 9.53714 13.194C9.54849 13.2015 9.56116 13.2084 9.57285 13.2154C9.58455 13.2224 9.59654 13.2268 9.60857 13.2333C9.6206 13.2397 9.63196 13.2488 9.64428 13.2547C9.65661 13.2605 9.6674 13.2638 9.68 13.269C9.69259 13.2742 9.70645 13.2787 9.71928 13.2833C9.73211 13.2878 9.74552 13.2936 9.75857 13.2975C9.77162 13.3015 9.78463 13.3083 9.79785 13.3083C9.81108 13.3083 9.82376 13.319 9.83714 13.319C9.85052 13.319 9.86293 13.3225 9.87643 13.3225C9.88992 13.3225 9.90571 13.3297 9.91928 13.3297C9.93286 13.3297 9.94496 13.3333 9.95857 13.3333C9.97218 13.3333 9.98779 13.3333 10.0014 13.3333C10.0151 13.3333 10.0271 13.3333 10.0407 13.3333C10.0543 13.3333 10.0664 13.3297 10.08 13.3297C10.0936 13.3297 10.1094 13.3225 10.1229 13.3225C10.1364 13.3225 10.1488 13.319 10.1621 13.319C10.1755 13.319 10.1882 13.3083 10.2014 13.3083C10.2146 13.3083 10.2277 13.3015 10.2407 13.2975C10.2538 13.2936 10.2672 13.2878 10.28 13.2833C10.2928 13.2787 10.3067 13.2742 10.3193 13.269C10.3319 13.2638 10.3427 13.2605 10.355 13.2547C10.3673 13.2488 10.3823 13.2397 10.3943 13.2333C10.4063 13.2268 10.4183 13.2224 10.43 13.2154C10.4417 13.2084 10.4508 13.2015 10.4621 13.194C10.4735 13.1864 10.4869 13.1771 10.4979 13.169C10.5088 13.1608 10.5195 13.1526 10.53 13.144C10.5405 13.1353 10.5485 13.1281 10.5586 13.119C10.5687 13.1098 10.5811 13.1 10.5907 13.0904L14.7555 8.92252C15.0807 8.59704 15.0806 8.06956 14.7552 7.7442L14.7552 7.7442C14.4297 7.41866 13.9018 7.41877 13.5764 7.74445L10.0014 11.3225L6.42286 7.74396C6.0974 7.41851 5.56974 7.41851 5.24428 7.74396L5.24428 7.74396C4.91883 8.06942 4.91883 8.59708 5.24428 8.92254Z"></path><path     fill="#0073ED"  d="M9.16666 3.33346L9.16666 11.6668C9.16666 12.127 9.53976 12.5001 10 12.5001L10 12.5001C10.4602 12.5001 10.8333 12.127 10.8333 11.6668L10.8333 3.33346C10.8333 2.87322 10.4602 2.50012 10 2.50012L10 2.50012C9.53976 2.50012 9.16666 2.87322 9.16666 3.33346Z"></path><path     fill="#0073ED"  d="M3.7512 13.7506L3.7512 15.8345L16.2512 15.8345L16.2512 13.7488C16.2512 13.2892 16.6238 12.9166 17.0833 12.9166L17.0833 12.9166C17.5429 12.9166 17.9155 13.2892 17.9155 13.7488L17.9155 16.6666C17.9155 16.6803 17.9155 16.6923 17.9155 16.7059C17.9155 16.7195 17.9119 16.7352 17.9119 16.7488C17.9119 16.7623 17.9083 16.7746 17.9083 16.7881C17.9083 16.8015 17.9012 16.8175 17.9012 16.8309C17.9012 16.8443 17.8905 16.857 17.8905 16.8702C17.8905 16.8834 17.8837 16.8964 17.8798 16.9095C17.8758 16.9225 17.8736 16.9359 17.8691 16.9488C17.8645 16.9616 17.86 16.9719 17.8548 16.9845C17.8496 16.9971 17.8428 17.0114 17.8369 17.0238C17.8311 17.0361 17.8255 17.0475 17.8191 17.0595C17.8126 17.0715 17.8046 17.0835 17.7976 17.0952C17.7906 17.1069 17.7838 17.1196 17.7762 17.1309C17.7686 17.1423 17.7593 17.1521 17.7512 17.1631C17.7431 17.174 17.7348 17.1847 17.7262 17.1952C17.7175 17.2057 17.7104 17.2172 17.7012 17.2273C17.692 17.2374 17.6823 17.2463 17.6726 17.2559C17.663 17.2655 17.6542 17.2753 17.6441 17.2845C17.634 17.2936 17.6225 17.3008 17.6119 17.3095C17.6014 17.3181 17.5907 17.3264 17.5798 17.3345C17.5688 17.3426 17.559 17.3519 17.5476 17.3595C17.5363 17.3671 17.5236 17.3739 17.5119 17.3809C17.5002 17.3879 17.4882 17.3959 17.4762 17.4023C17.4642 17.4088 17.4528 17.4144 17.4405 17.4202C17.4282 17.426 17.4138 17.4328 17.4012 17.4381C17.3886 17.4433 17.3783 17.4478 17.3655 17.4523C17.3526 17.4569 17.3393 17.4591 17.3262 17.4631C17.3131 17.467 17.3001 17.4738 17.2869 17.4738C17.2737 17.4738 17.261 17.4845 17.2476 17.4845C17.2342 17.4845 17.2183 17.4916 17.2048 17.4916C17.1913 17.4916 17.1791 17.4952 17.1655 17.4952C17.1519 17.4952 17.1362 17.4988 17.1226 17.4988C17.109 17.4988 17.097 17.4988 17.0833 17.4988L2.91549 17.4988C2.90185 17.4988 2.88983 17.4988 2.8762 17.4988C2.86258 17.4988 2.84691 17.4952 2.83334 17.4952C2.81977 17.4952 2.80755 17.4916 2.79406 17.4916C2.78056 17.4916 2.76814 17.4845 2.75477 17.4845C2.7414 17.4845 2.72871 17.4738 2.71549 17.4738C2.70226 17.4738 2.68925 17.467 2.6762 17.4631C2.66314 17.4591 2.64975 17.4569 2.63691 17.4523C2.62408 17.4478 2.61023 17.4433 2.59763 17.4381C2.58504 17.4328 2.57424 17.426 2.56191 17.4202C2.54958 17.4144 2.53466 17.4088 2.52263 17.4023C2.51061 17.3959 2.49862 17.3879 2.48691 17.3809C2.47522 17.3739 2.46611 17.3671 2.45477 17.3595C2.44343 17.3519 2.43001 17.3426 2.41906 17.3345C2.40811 17.3264 2.39746 17.3181 2.38691 17.3095C2.37637 17.3008 2.36845 17.2936 2.35834 17.2845C2.34824 17.2753 2.33584 17.2656 2.3262 17.2559C2.31655 17.2463 2.30678 17.2374 2.29763 17.2273C2.28846 17.2172 2.28128 17.2057 2.27263 17.1952C2.26397 17.1847 2.25575 17.174 2.24763 17.1631C2.2395 17.1521 2.23021 17.1423 2.22263 17.1309C2.21506 17.1196 2.20822 17.1069 2.2012 17.0952C2.1942 17.0835 2.18978 17.0715 2.18334 17.0595C2.17691 17.0475 2.16775 17.0361 2.16191 17.0238C2.15609 17.0114 2.15285 16.9971 2.14763 16.9845C2.14241 16.9719 2.13794 16.9616 2.13334 16.9488C2.12875 16.9359 2.12302 16.9225 2.11906 16.9095C2.1151 16.8964 2.10834 16.8834 2.10834 16.8702C2.10834 16.857 2.09763 16.8443 2.09763 16.8309C2.09763 16.8175 2.09406 16.8015 2.09406 16.7881C2.09406 16.7746 2.08692 16.7623 2.08692 16.7488C2.08692 16.7352 2.08334 16.7195 2.08334 16.7059C2.08334 16.6923 2.08334 16.6803 2.08334 16.6666L2.08334 13.7506C2.08334 13.29 2.45671 12.9166 2.91727 12.9166L2.91727 12.9166C3.37784 12.9166 3.7512 13.29 3.7512 13.7506Z"></path></svg>