<svg xmlns="http://www.w3.org/2000/svg" xmlns:xlink="http://www.w3.org/1999/xlink" width="14" height="14" viewBox="0 0 14 14" fill="none">
<path d="M4.36133 1.66797C4.36133 1.36594 4.11648 1.12109 3.81445 1.12109C3.51243 1.12109 3.26758 1.36594 3.26758 1.66797L3.26758 3.78711L1.14844 3.78711C0.846412 3.78711 0.601562 4.03196 0.601562 4.33398C0.601562 4.63601 0.846412 4.88086 1.14844 4.88086L3.26758 4.88086L3.26758 7C3.26758 7.30203 3.51243 7.54688 3.81445 7.54688C4.11648 7.54688 4.36133 7.30203 4.36133 7L4.36133 4.88086L6.48047 4.88086C6.78249 4.88086 7.02734 4.63601 7.02734 4.33398C7.02734 4.03196 6.78249 3.78711 6.48047 3.78711L4.36133 3.78711L4.36133 1.66797ZM6.82227 10.0373L12.1543 10.0373C12.4563 10.0373 12.7012 10.2821 12.7012 10.5841C12.7012 10.8862 12.4563 11.131 12.1543 11.131L6.82227 11.131C6.52024 11.131 6.27539 10.8862 6.27539 10.5841C6.27539 10.2821 6.52024 10.0373 6.82227 10.0373ZM12.541 2.2324C12.7546 2.01883 12.7546 1.67258 12.541 1.45901C12.3274 1.24544 11.9812 1.24544 11.7676 1.45901L1.45901 11.7676C1.24545 11.9812 1.24544 12.3274 1.45901 12.541C1.67258 12.7546 2.01884 12.7546 2.23241 12.541L12.541 2.2324Z"   fill="#5380FD" >
</path>
</svg>
