<svg xmlns="http://www.w3.org/2000/svg" xmlns:xlink="http://www.w3.org/1999/xlink" width="15.564208984375" height="15.20001220703125" viewBox="0 0 15.564208984375 15.20001220703125" fill="none"><path d="M9.50543 0.100006C10.3103 0.100006 10.9651 0.753538 10.9651 1.55964L10.9651 4.58343C10.9651 5.38593 10.3115 6.04186 9.50663 6.04186L8.28486 6.04186L8.28486 7.20717L11.6234 7.20717C13.053 7.20717 13.8783 8.00846 13.8783 9.39722L13.8783 10.8593L14.0057 10.8593C14.8094 10.8593 15.4641 11.514 15.4641 12.3189L15.4641 13.6416C15.4641 14.4465 14.8094 15.1 14.0057 15.1L12.683 15.1C12.6591 15.1 12.6353 15.0994 12.6115 15.0982C12.5876 15.097 12.5638 15.0952 12.5401 15.0929C12.5163 15.0905 12.4927 15.0876 12.4691 15.0841C12.4455 15.0806 12.422 15.0765 12.3986 15.0718C12.3751 15.0671 12.3519 15.0619 12.3287 15.0561C12.3056 15.0503 12.2826 15.0439 12.2598 15.0369C12.2369 15.03 12.2143 15.0225 12.1918 15.0144C12.1693 15.0064 12.1471 14.9978 12.1251 14.9887C12.103 14.9795 12.0812 14.9698 12.0596 14.9596C12.0381 14.9494 12.0168 14.9387 11.9957 14.9274C11.9747 14.9162 11.9539 14.9044 11.9335 14.8922C11.913 14.8799 11.8928 14.8671 11.873 14.8538C11.8532 14.8406 11.8337 14.8268 11.8145 14.8126C11.7953 14.7984 11.7765 14.7837 11.7581 14.7686C11.7396 14.7534 11.7216 14.7379 11.7039 14.7218C11.6862 14.7058 11.6689 14.6894 11.6521 14.6725C11.6352 14.6556 11.6187 14.6383 11.6027 14.6207C11.5867 14.603 11.5711 14.5849 11.556 14.5665C11.5408 14.548 11.5262 14.5292 11.5119 14.5101C11.4977 14.4909 11.484 14.4714 11.4707 14.4515C11.4574 14.4317 11.4447 14.4116 11.4324 14.3911C11.4201 14.3706 11.4084 14.3499 11.3971 14.3288C11.3859 14.3078 11.3751 14.2865 11.3649 14.2649C11.3547 14.2434 11.345 14.2215 11.3359 14.1995C11.3267 14.1775 11.3182 14.1552 11.3101 14.1327C11.3021 14.1103 11.2946 14.0876 11.2876 14.0648C11.2807 14.042 11.2743 14.019 11.2685 13.9958C11.2627 13.9727 11.2574 13.9494 11.2528 13.926C11.2481 13.9026 11.244 13.8791 11.2405 13.8555C11.237 13.8319 11.234 13.8082 11.2317 13.7845C11.2293 13.7607 11.2276 13.7369 11.2264 13.7131C11.2252 13.6893 11.2246 13.6654 11.2246 13.6416L11.2246 12.3189C11.2246 11.5152 11.8769 10.8605 12.683 10.8605L12.9076 10.8605L12.9076 9.39602C12.9076 8.54186 12.5172 8.17785 11.6234 8.17785L8.28607 8.17785L8.28607 10.8593L8.44464 10.8593C9.24714 10.8593 9.90308 11.5116 9.90308 12.3177L9.90308 13.6404C9.90308 14.4453 9.24714 15.0988 8.44464 15.0988L7.12076 15.0988C7.0969 15.0988 7.07304 15.0982 7.04922 15.097C7.02539 15.0958 7.00158 15.094 6.97784 15.0917C6.95409 15.0893 6.93042 15.0864 6.90683 15.0829C6.88323 15.0794 6.85973 15.0752 6.83632 15.0706C6.81292 15.0659 6.78964 15.0607 6.7665 15.0549C6.74335 15.0491 6.72038 15.0427 6.69753 15.0357C6.67471 15.0288 6.65207 15.0213 6.6296 15.0132C6.60713 15.0052 6.58487 14.9966 6.56283 14.9875C6.54079 14.9783 6.51898 14.9686 6.49741 14.9584C6.47584 14.9482 6.45454 14.9375 6.4335 14.9262C6.41246 14.915 6.39171 14.9032 6.37123 14.891C6.35077 14.8787 6.33063 14.8659 6.31079 14.8526C6.29095 14.8394 6.27145 14.8256 6.25228 14.8114C6.23312 14.7972 6.21431 14.7825 6.19586 14.7674C6.1774 14.7522 6.15935 14.7367 6.14168 14.7206C6.124 14.7046 6.10671 14.6882 6.08984 14.6713C6.07296 14.6544 6.05652 14.6371 6.04049 14.6194C6.02448 14.6018 6.0089 14.5837 5.99375 14.5653C5.9786 14.5468 5.96392 14.528 5.94971 14.5089C5.9355 14.4897 5.92176 14.4702 5.90849 14.4503C5.89522 14.4305 5.88246 14.4104 5.87018 14.3899C5.85792 14.3694 5.84615 14.3487 5.83489 14.3276C5.82365 14.3066 5.81291 14.2853 5.8027 14.2637C5.79249 14.2422 5.7828 14.2203 5.77366 14.1983C5.76452 14.1763 5.75594 14.154 5.74789 14.1315C5.73983 14.1091 5.73232 14.0864 5.7254 14.0636C5.71845 14.0408 5.71207 14.0178 5.70627 13.9946C5.70047 13.9715 5.69523 13.9482 5.69056 13.9248C5.68588 13.9014 5.68177 13.8779 5.67826 13.8543C5.67475 13.8307 5.67181 13.807 5.66946 13.7833C5.66711 13.7595 5.66533 13.7357 5.66415 13.7119C5.66297 13.6881 5.66235 13.6642 5.66233 13.6404L5.66233 12.3177C5.66233 11.514 6.31586 10.8593 7.12076 10.8593L7.31418 10.8593L7.31538 8.17785L4.08977 8.17785C3.19597 8.17785 2.83556 8.54186 2.83556 9.39602L2.83556 10.8581L2.88241 10.8581C3.68611 10.8581 4.34085 11.5128 4.34085 12.3177L4.34085 13.6404C4.34085 14.4453 3.68732 15.0988 2.88241 15.0988L1.55853 15.0988C1.53467 15.0988 1.51082 15.0982 1.48699 15.097C1.46316 15.0958 1.43936 15.094 1.41561 15.0917C1.39187 15.0893 1.3682 15.0864 1.3446 15.0829C1.321 15.0794 1.2975 15.0753 1.27409 15.0706C1.25069 15.0659 1.22742 15.0607 1.20427 15.0549C1.18113 15.0491 1.15814 15.0427 1.1353 15.0357C1.11248 15.0288 1.08983 15.0213 1.06737 15.0133C1.04489 15.0052 1.02264 14.9966 1.0006 14.9875C0.978563 14.9783 0.956756 14.9686 0.935183 14.9584C0.913609 14.9482 0.892304 14.9375 0.871268 14.9262C0.850231 14.915 0.829478 14.9032 0.809004 14.891C0.788544 14.8787 0.768397 14.8659 0.748561 14.8526C0.728715 14.8394 0.709212 14.8256 0.690052 14.8114C0.670881 14.7972 0.652073 14.7825 0.633626 14.7674C0.61518 14.7522 0.597122 14.7367 0.579453 14.7206C0.561771 14.7046 0.544488 14.6882 0.527608 14.6713C0.510738 14.6544 0.494289 14.6371 0.478259 14.6194C0.462241 14.6018 0.446661 14.5837 0.431519 14.5653C0.416376 14.5468 0.401697 14.528 0.387482 14.5089C0.373267 14.4897 0.359526 14.4702 0.346261 14.4503C0.332995 14.4305 0.320225 14.4104 0.307949 14.3899C0.295686 14.3694 0.283922 14.3487 0.27266 14.3276C0.26141 14.3066 0.250679 14.2853 0.240467 14.2637C0.230256 14.2422 0.220576 14.2204 0.211429 14.1983C0.202293 14.1763 0.193702 14.154 0.185656 14.1315C0.177597 14.1091 0.170101 14.0864 0.163168 14.0636C0.156223 14.0408 0.149847 14.0178 0.144041 13.9946C0.13823 13.9715 0.13299 13.9482 0.12832 13.9248C0.12365 13.9014 0.119556 13.8779 0.11604 13.8543C0.112522 13.8307 0.109585 13.807 0.107229 13.7833C0.104872 13.7595 0.1031 13.7357 0.101911 13.7119C0.100722 13.6881 0.100118 13.6642 0.100098 13.6404L0.100098 12.3177C0.100098 11.514 0.75363 10.8593 1.55853 10.8593L1.86487 10.8593L1.86487 9.39602C1.86487 8.00486 2.66257 7.20596 4.08977 7.20596L7.31538 7.20596L7.31538 6.04066L6.05517 6.04066C6.03131 6.04064 6.00745 6.04002 5.98363 6.03884C5.95979 6.03766 5.93599 6.03587 5.91224 6.03353C5.8885 6.03118 5.86483 6.02823 5.84123 6.02472C5.81764 6.02121 5.79414 6.01712 5.77073 6.01245C5.74732 6.00777 5.72405 6.00252 5.7009 5.99672C5.67776 5.99092 5.65478 5.98453 5.63194 5.97759C5.60911 5.97066 5.58647 5.96315 5.564 5.9551C5.54154 5.94705 5.51927 5.93847 5.49724 5.92933C5.4752 5.92019 5.45339 5.9105 5.43182 5.90029C5.41025 5.89008 5.38895 5.87934 5.3679 5.8681C5.34686 5.85685 5.32612 5.84508 5.30564 5.83281C5.28518 5.82053 5.26504 5.80777 5.2452 5.7945C5.22536 5.78124 5.20585 5.7675 5.18669 5.75328C5.16752 5.73907 5.14871 5.72439 5.13026 5.70924C5.11181 5.69409 5.09375 5.67851 5.07609 5.6625C5.05841 5.64647 5.04112 5.63002 5.02424 5.61315C5.00737 5.59627 4.99093 5.57899 4.9749 5.5613C4.95888 5.54364 4.9433 5.52558 4.92815 5.50713C4.91301 5.48868 4.89833 5.46987 4.88412 5.45071C4.86991 5.43154 4.85617 5.41206 4.8429 5.39221C4.82963 5.37237 4.81686 5.35221 4.80459 5.33175C4.79233 5.31127 4.78056 5.29053 4.7693 5.26949C4.75805 5.24845 4.74731 5.22714 4.7371 5.20557C4.72689 5.18401 4.71721 5.16219 4.70807 5.14016C4.69892 5.11812 4.69034 5.09586 4.68229 5.07339C4.67424 5.05092 4.66673 5.02828 4.6598 5.00546C4.65286 4.98261 4.64648 4.95964 4.64068 4.93649C4.63488 4.91335 4.62962 4.89007 4.62495 4.86666C4.62027 4.84326 4.61618 4.81975 4.61267 4.79616C4.60916 4.77256 4.60621 4.74889 4.60387 4.72515C4.60152 4.7014 4.59974 4.6776 4.59855 4.65376C4.59737 4.62994 4.59675 4.60608 4.59673 4.58223L4.59673 1.55964C4.59673 0.754739 5.25027 0.100006 6.05517 0.100006L9.50543 0.100006ZM2.88241 11.8323L1.55853 11.8323C1.55059 11.8324 1.54264 11.8326 1.53469 11.833C1.52676 11.8334 1.51884 11.834 1.51093 11.8348C1.50302 11.8356 1.49513 11.8366 1.48726 11.8378C1.4794 11.839 1.47157 11.8403 1.46377 11.8419C1.45599 11.8435 1.44825 11.8452 1.44054 11.8472C1.43283 11.8491 1.42517 11.8512 1.41756 11.8536C1.40995 11.8559 1.40241 11.8584 1.39494 11.8611C1.38746 11.8638 1.38005 11.8667 1.37272 11.8697C1.36537 11.8728 1.35811 11.876 1.35092 11.8794C1.34374 11.8828 1.33665 11.8864 1.32966 11.8902C1.32265 11.894 1.31573 11.8979 1.30891 11.902C1.30211 11.9061 1.2954 11.9103 1.28879 11.9148C1.2822 11.9192 1.27571 11.9238 1.26933 11.9285C1.26294 11.9333 1.25669 11.9382 1.25055 11.9432C1.24441 11.9483 1.2384 11.9535 1.23252 11.9588C1.22663 11.9642 1.22088 11.9697 1.21527 11.9753C1.20965 11.9809 1.20417 11.9867 1.19884 11.9926C1.19351 11.9985 1.18833 12.0045 1.1833 12.0106C1.17825 12.0168 1.17337 12.0231 1.16864 12.0294C1.16391 12.0358 1.15934 12.0423 1.15494 12.049C1.15053 12.0556 1.14628 12.0623 1.14219 12.0691C1.13811 12.0759 1.1342 12.0828 1.13046 12.0899C1.12672 12.0969 1.12315 12.104 1.11976 12.1112C1.11637 12.1184 1.11315 12.1256 1.11011 12.133C1.10707 12.1403 1.10421 12.1477 1.10153 12.1552C1.09887 12.1627 1.09638 12.1703 1.09408 12.1779C1.09177 12.1855 1.08964 12.1931 1.08772 12.2009C1.08579 12.2086 1.08405 12.2163 1.0825 12.2241C1.08096 12.2319 1.07961 12.2398 1.07844 12.2476C1.07728 12.2555 1.0763 12.2634 1.07552 12.2713C1.07474 12.2792 1.07416 12.2871 1.07377 12.2951C1.07338 12.303 1.07319 12.311 1.07319 12.3189L1.07319 13.6416C1.07319 13.9107 1.28943 14.1281 1.55853 14.1281L2.88241 14.1281C2.89037 14.1281 2.89833 14.1279 2.90629 14.1275C2.91423 14.1271 2.92217 14.1265 2.93011 14.1258C2.93803 14.125 2.94594 14.124 2.9538 14.1228C2.96168 14.1217 2.96953 14.1203 2.97734 14.1188C2.98515 14.1172 2.99292 14.1155 3.00063 14.1135C3.00835 14.1116 3.01603 14.1095 3.02365 14.1072C3.03127 14.1049 3.03883 14.1024 3.04632 14.0997C3.05381 14.097 3.06125 14.0941 3.0686 14.0911C3.07596 14.088 3.08325 14.0848 3.09043 14.0814C3.09762 14.078 3.10474 14.0744 3.11178 14.0707C3.1188 14.0669 3.12572 14.063 3.13254 14.0589C3.13937 14.0548 3.14609 14.0505 3.15272 14.0461C3.15934 14.0417 3.16584 14.0371 3.17224 14.0324C3.17864 14.0276 3.18493 14.0227 3.19107 14.0177C3.19722 14.0126 3.20325 14.0074 3.20916 14.0021C3.21506 13.9967 3.22082 13.9912 3.22645 13.9856C3.23208 13.98 3.23756 13.9742 3.24291 13.9683C3.24826 13.9624 3.25346 13.9564 3.25851 13.9502C3.26356 13.9441 3.26846 13.9378 3.27321 13.9314C3.27796 13.925 3.28254 13.9185 3.28697 13.9119C3.29138 13.9052 3.29564 13.8985 3.29973 13.8917C3.30382 13.8849 3.30775 13.878 3.3115 13.8709C3.31525 13.8639 3.31884 13.8568 3.32224 13.8496C3.32564 13.8424 3.32886 13.8351 3.33192 13.8278C3.33496 13.8204 3.33784 13.813 3.34052 13.8055C3.3432 13.798 3.3457 13.7904 3.34801 13.7828C3.35032 13.7752 3.35244 13.7675 3.35437 13.7598C3.35631 13.7521 3.35805 13.7443 3.35961 13.7365C3.36117 13.7287 3.36252 13.7208 3.36368 13.713C3.36487 13.7051 3.36584 13.6972 3.36661 13.6893C3.3674 13.6813 3.36798 13.6734 3.36838 13.6654C3.36877 13.6575 3.36896 13.6495 3.36896 13.6416L3.36896 12.3189C3.36896 12.3109 3.36877 12.303 3.36838 12.295C3.36798 12.2871 3.3674 12.2791 3.36661 12.2712C3.36584 12.2633 3.36487 12.2554 3.36368 12.2475C3.36252 12.2396 3.36117 12.2318 3.35961 12.224C3.35805 12.2162 3.35631 12.2084 3.35437 12.2007C3.35244 12.193 3.35032 12.1853 3.34801 12.1777C3.3457 12.17 3.3432 12.1625 3.34052 12.155C3.33784 12.1475 3.33496 12.1401 3.33192 12.1327C3.32886 12.1253 3.32564 12.1181 3.32224 12.1109C3.31884 12.1037 3.31525 12.0966 3.3115 12.0895C3.30775 12.0825 3.30382 12.0756 3.29973 12.0687C3.29564 12.0619 3.29138 12.0552 3.28697 12.0486C3.28254 12.042 3.27796 12.0354 3.27321 12.029C3.26846 12.0226 3.26356 12.0164 3.25851 12.0102C3.25346 12.0041 3.24826 11.9981 3.24291 11.9921C3.23756 11.9862 3.23208 11.9805 3.22645 11.9749C3.22082 11.9692 3.21506 11.9637 3.20916 11.9584C3.20325 11.953 3.19722 11.9478 3.19107 11.9428C3.18493 11.9377 3.17864 11.9328 3.17224 11.9281C3.16584 11.9233 3.15934 11.9188 3.15272 11.9143C3.14609 11.9099 3.13937 11.9057 3.13254 11.9016C3.12572 11.8975 3.1188 11.8936 3.11178 11.8898C3.10474 11.8861 3.09762 11.8825 3.09043 11.8791C3.08325 11.8757 3.07596 11.8724 3.0686 11.8694C3.06125 11.8663 3.05381 11.8635 3.04632 11.8608C3.03883 11.8581 3.03127 11.8556 3.02365 11.8533C3.01603 11.851 3.00835 11.8489 3.00063 11.8469C2.99292 11.845 2.98515 11.8433 2.97734 11.8417C2.96953 11.8401 2.96168 11.8388 2.9538 11.8376C2.94594 11.8364 2.93803 11.8355 2.93011 11.8347C2.92217 11.8339 2.91423 11.8333 2.90629 11.8329C2.89833 11.8325 2.89037 11.8323 2.88241 11.8323ZM8.44224 11.8323L7.11836 11.8323C7.11042 11.8324 7.10246 11.8326 7.09452 11.833C7.08658 11.8334 7.07866 11.834 7.07076 11.8348C7.06285 11.8356 7.05495 11.8366 7.04708 11.8378C7.03922 11.839 7.03139 11.8403 7.0236 11.8419C7.01581 11.8435 7.00808 11.8452 7.00036 11.8472C6.99265 11.8491 6.98499 11.8512 6.97739 11.8536C6.96979 11.8559 6.96226 11.8584 6.95477 11.8611C6.94728 11.8638 6.93988 11.8667 6.93254 11.8697C6.9252 11.8728 6.91794 11.876 6.91075 11.8794C6.90356 11.8828 6.89648 11.8864 6.88948 11.8902C6.88248 11.894 6.87556 11.8979 6.86874 11.902C6.86193 11.9061 6.85523 11.9103 6.84862 11.9148C6.84203 11.9192 6.83554 11.9238 6.82915 11.9285C6.82277 11.9333 6.81652 11.9382 6.81038 11.9432C6.80424 11.9483 6.79822 11.9535 6.79234 11.9588C6.78647 11.9642 6.7807 11.9697 6.77509 11.9753C6.76948 11.9809 6.764 11.9867 6.75867 11.9926C6.75334 11.9985 6.74816 12.0045 6.74313 12.0106C6.73808 12.0168 6.7332 12.0231 6.72847 12.0294C6.72373 12.0358 6.71917 12.0423 6.71476 12.049C6.71035 12.0556 6.70611 12.0623 6.70202 12.0691C6.69794 12.0759 6.69402 12.0828 6.69028 12.0899C6.68655 12.0969 6.68298 12.104 6.67959 12.1112C6.67619 12.1184 6.67298 12.1256 6.66994 12.133C6.6669 12.1403 6.66404 12.1477 6.66136 12.1552C6.65869 12.1627 6.65622 12.1703 6.65391 12.1779C6.6516 12.1855 6.64948 12.1931 6.64754 12.2009C6.64561 12.2086 6.64388 12.2163 6.64234 12.2241C6.64079 12.2319 6.63943 12.2398 6.63827 12.2476C6.63711 12.2555 6.63613 12.2634 6.63534 12.2713C6.63457 12.2792 6.63399 12.2871 6.6336 12.2951C6.6332 12.303 6.63301 12.311 6.63301 12.3189L6.63301 13.6416C6.63301 13.9107 6.85046 14.1281 7.11836 14.1281L8.44224 14.1281C8.4502 14.1281 8.45816 14.1279 8.46612 14.1275C8.47406 14.1271 8.482 14.1265 8.48994 14.1258C8.49786 14.125 8.50576 14.124 8.51363 14.1228C8.52151 14.1217 8.52936 14.1203 8.53717 14.1188C8.54497 14.1172 8.55275 14.1155 8.56046 14.1135C8.56818 14.1116 8.57585 14.1095 8.58347 14.1072C8.59109 14.1049 8.59866 14.1024 8.60615 14.0997C8.61364 14.097 8.62107 14.0941 8.62843 14.0911C8.63579 14.088 8.64307 14.0848 8.65026 14.0814C8.65745 14.078 8.66457 14.0744 8.6716 14.0707C8.67862 14.0669 8.68555 14.063 8.69236 14.0589C8.6992 14.0548 8.70592 14.0505 8.71254 14.0461C8.71917 14.0417 8.72566 14.0371 8.73207 14.0324C8.73847 14.0276 8.74475 14.0227 8.75089 14.0177C8.75705 14.0126 8.76307 14.0074 8.76899 14.0021C8.77488 13.9967 8.78064 13.9912 8.78628 13.9856C8.79191 13.98 8.79739 13.9742 8.80274 13.9683C8.80809 13.9624 8.81329 13.9564 8.81834 13.9502C8.82339 13.9441 8.82829 13.9378 8.83303 13.9314C8.83778 13.925 8.84236 13.9185 8.84679 13.9119C8.8512 13.9052 8.85547 13.8985 8.85956 13.8917C8.86365 13.8849 8.86757 13.878 8.87133 13.8709C8.87508 13.8639 8.87867 13.8568 8.88206 13.8496C8.88546 13.8424 8.88869 13.8351 8.89175 13.8278C8.89479 13.8204 8.89766 13.813 8.90035 13.8055C8.90303 13.798 8.90553 13.7904 8.90784 13.7828C8.91015 13.7752 8.91227 13.7675 8.9142 13.7598C8.91613 13.7521 8.91788 13.7443 8.91944 13.7365C8.921 13.7287 8.92235 13.7208 8.92351 13.713C8.92469 13.7051 8.92567 13.6972 8.92644 13.6893C8.92723 13.6813 8.92781 13.6734 8.9282 13.6654C8.9286 13.6575 8.92879 13.6495 8.92879 13.6416L8.92879 12.3189C8.92879 12.3109 8.9286 12.303 8.9282 12.295C8.92781 12.2871 8.92723 12.2791 8.92644 12.2712C8.92567 12.2633 8.92469 12.2554 8.92351 12.2475C8.92235 12.2396 8.921 12.2318 8.91944 12.224C8.91788 12.2162 8.91613 12.2084 8.9142 12.2007C8.91227 12.193 8.91015 12.1853 8.90784 12.1777C8.90553 12.17 8.90303 12.1625 8.90035 12.155C8.89766 12.1475 8.89479 12.1401 8.89175 12.1327C8.88869 12.1253 8.88546 12.1181 8.88206 12.1109C8.87867 12.1037 8.87508 12.0966 8.87133 12.0895C8.86757 12.0825 8.86365 12.0756 8.85956 12.0687C8.85547 12.0619 8.8512 12.0552 8.84679 12.0486C8.84236 12.042 8.83778 12.0354 8.83303 12.029C8.82829 12.0226 8.82339 12.0164 8.81834 12.0102C8.81329 12.0041 8.80809 11.9981 8.80274 11.9921C8.79739 11.9862 8.79191 11.9805 8.78628 11.9749C8.78064 11.9692 8.77488 11.9637 8.76899 11.9584C8.76307 11.953 8.75705 11.9478 8.75091 11.9428C8.74475 11.9377 8.73847 11.9328 8.73207 11.9281C8.72566 11.9233 8.71917 11.9188 8.71254 11.9143C8.70592 11.9099 8.6992 11.9057 8.69238 11.9016C8.68555 11.8975 8.67862 11.8936 8.6716 11.8898C8.66457 11.8861 8.65745 11.8825 8.65026 11.8791C8.64307 11.8757 8.63579 11.8724 8.62843 11.8694C8.62107 11.8663 8.61364 11.8635 8.60615 11.8608C8.59866 11.8581 8.59109 11.8556 8.58347 11.8533C8.57585 11.851 8.56818 11.8489 8.56046 11.8469C8.55275 11.845 8.54497 11.8433 8.53717 11.8417C8.52936 11.8401 8.52151 11.8388 8.51363 11.8376C8.50576 11.8364 8.49786 11.8355 8.48994 11.8347C8.482 11.8339 8.47406 11.8333 8.46612 11.8329C8.45816 11.8325 8.4502 11.8323 8.44224 11.8323ZM14.0045 11.8323L12.6806 11.8323C12.6726 11.8323 12.6647 11.8325 12.6567 11.8329C12.6488 11.8333 12.6408 11.8339 12.6329 11.8347C12.625 11.8355 12.6171 11.8364 12.6092 11.8376C12.6013 11.8388 12.5935 11.8401 12.5857 11.8417C12.5779 11.8433 12.5701 11.845 12.5624 11.8469C12.5547 11.8489 12.547 11.851 12.5394 11.8533C12.5317 11.8556 12.5242 11.8581 12.5167 11.8608C12.5092 11.8635 12.5018 11.8663 12.4944 11.8694C12.487 11.8724 12.4798 11.8757 12.4726 11.8791C12.4654 11.8825 12.4583 11.8861 12.4512 11.8898C12.4442 11.8936 12.4373 11.8975 12.4304 11.9016C12.4236 11.9057 12.4169 11.9099 12.4103 11.9143C12.4037 11.9188 12.3971 11.9233 12.3907 11.9281C12.3843 11.9328 12.3781 11.9377 12.3719 11.9428C12.3658 11.9478 12.3598 11.953 12.3538 11.9584C12.3479 11.9637 12.3422 11.9692 12.3366 11.9749C12.3309 11.9805 12.3254 11.9862 12.3201 11.9921C12.3147 11.9981 12.3095 12.0041 12.3045 12.0102C12.2994 12.0164 12.2945 12.0226 12.2898 12.029C12.285 12.0354 12.2805 12.042 12.276 12.0486C12.2716 12.0552 12.2674 12.0619 12.2633 12.0687C12.2592 12.0756 12.2553 12.0825 12.2515 12.0895C12.2477 12.0965 12.2442 12.1037 12.2407 12.1109C12.2373 12.1181 12.2341 12.1253 12.2311 12.1327C12.228 12.1401 12.2252 12.1475 12.2225 12.155C12.2198 12.1625 12.2173 12.17 12.215 12.1777C12.2127 12.1853 12.2106 12.193 12.2086 12.2007C12.2067 12.2084 12.2049 12.2162 12.2034 12.224C12.2018 12.2318 12.2005 12.2396 12.1993 12.2475C12.1981 12.2554 12.1972 12.2633 12.1964 12.2712C12.1956 12.2791 12.195 12.2871 12.1946 12.295C12.1942 12.303 12.194 12.3109 12.194 12.3189L12.194 13.6416C12.194 13.9107 12.4127 14.1281 12.6806 14.1281L14.0045 14.1281C14.0124 14.1281 14.0204 14.1279 14.0283 14.1275C14.0363 14.1271 14.0442 14.1265 14.0521 14.1257C14.06 14.1249 14.0679 14.1239 14.0757 14.1227C14.0836 14.1215 14.0914 14.1201 14.0992 14.1186C14.107 14.117 14.1148 14.1152 14.1225 14.1133C14.1302 14.1113 14.1378 14.1092 14.1454 14.1069C14.153 14.1046 14.1606 14.102 14.1681 14.0994C14.1755 14.0967 14.183 14.0938 14.1903 14.0907C14.1976 14.0877 14.2049 14.0844 14.2121 14.081C14.2193 14.0776 14.2263 14.074 14.2333 14.0703C14.2403 14.0665 14.2473 14.0626 14.2541 14.0585C14.2609 14.0544 14.2676 14.0501 14.2742 14.0457C14.2808 14.0413 14.2873 14.0367 14.2937 14.0319C14.3001 14.0272 14.3063 14.0223 14.3124 14.0173C14.3186 14.0122 14.3246 14.007 14.3305 14.0017C14.3364 13.9963 14.3421 13.9908 14.3477 13.9852C14.3533 13.9796 14.3588 13.9738 14.3642 13.9679C14.3695 13.962 14.3747 13.956 14.3797 13.9498C14.3848 13.9437 14.3896 13.9374 14.3944 13.931C14.3991 13.9246 14.4037 13.9181 14.4081 13.9115C14.4125 13.9049 14.4167 13.8982 14.4208 13.8914C14.4249 13.8845 14.4288 13.8776 14.4325 13.8706C14.4363 13.8636 14.4398 13.8565 14.4432 13.8493C14.4466 13.8421 14.4499 13.8348 14.4529 13.8275C14.4559 13.8201 14.4588 13.8127 14.4615 13.8052C14.4641 13.7977 14.4666 13.7902 14.4689 13.7826C14.4712 13.775 14.4734 13.7673 14.4753 13.7596C14.4772 13.7519 14.4789 13.7441 14.4805 13.7363C14.482 13.7286 14.4834 13.7207 14.4846 13.7128C14.4857 13.705 14.4867 13.6971 14.4875 13.6892C14.4883 13.6813 14.4888 13.6734 14.4892 13.6654C14.4896 13.6575 14.4898 13.6495 14.4898 13.6416L14.4898 12.3189C14.4898 12.311 14.4896 12.303 14.4892 12.2951C14.4888 12.2871 14.4883 12.2792 14.4875 12.2713C14.4867 12.2634 14.4857 12.2555 14.4846 12.2476C14.4834 12.2398 14.482 12.2319 14.4805 12.2241C14.4789 12.2163 14.4772 12.2086 14.4753 12.2009C14.4734 12.1931 14.4712 12.1855 14.4689 12.1779C14.4666 12.1703 14.4641 12.1627 14.4615 12.1552C14.4588 12.1477 14.4559 12.1403 14.4529 12.133C14.4499 12.1256 14.4466 12.1184 14.4432 12.1112C14.4398 12.104 14.4363 12.0969 14.4325 12.0899C14.4288 12.0828 14.4249 12.0759 14.4208 12.0691C14.4167 12.0623 14.4125 12.0556 14.4081 12.049C14.4037 12.0423 14.3991 12.0358 14.3944 12.0294C14.3896 12.0231 14.3848 12.0168 14.3797 12.0106C14.3747 12.0045 14.3695 11.9985 14.3641 11.9926C14.3588 11.9867 14.3533 11.9809 14.3477 11.9753C14.3421 11.9697 14.3364 11.9642 14.3305 11.9588C14.3246 11.9535 14.3186 11.9483 14.3124 11.9432C14.3063 11.9382 14.3001 11.9333 14.2937 11.9285C14.2873 11.9238 14.2808 11.9192 14.2742 11.9148C14.2676 11.9103 14.2609 11.9061 14.2541 11.902C14.2473 11.8979 14.2403 11.894 14.2333 11.8902C14.2263 11.8864 14.2193 11.8828 14.2121 11.8794C14.2049 11.876 14.1976 11.8728 14.1903 11.8697C14.183 11.8667 14.1755 11.8638 14.1681 11.8611C14.1606 11.8584 14.153 11.8559 14.1454 11.8536C14.1378 11.8512 14.1302 11.8491 14.1225 11.8472C14.1147 11.8452 14.107 11.8435 14.0992 11.8419C14.0914 11.8403 14.0836 11.839 14.0757 11.8378C14.0679 11.8366 14.06 11.8356 14.0521 11.8348C14.0442 11.834 14.0363 11.8334 14.0283 11.833C14.0204 11.8326 14.0124 11.8324 14.0045 11.8323ZM9.50543 1.0731L6.05637 1.0731C6.04841 1.0731 6.04045 1.07329 6.03249 1.07368C6.02455 1.07407 6.01661 1.07465 6.00867 1.07544C6.00075 1.07622 5.99285 1.07719 5.98498 1.07837C5.9771 1.07953 5.96925 1.08089 5.96144 1.08244C5.95363 1.084 5.94586 1.08574 5.93815 1.08768C5.93043 1.08961 5.92276 1.09173 5.91514 1.09404C5.90751 1.09636 5.89995 1.09886 5.89246 1.10153C5.88497 1.10422 5.87754 1.10709 5.87018 1.11013C5.86282 1.11319 5.85554 1.11641 5.84835 1.11982C5.84114 1.12322 5.83403 1.1268 5.82701 1.13055C5.81999 1.1343 5.81306 1.13822 5.80623 1.14232C5.79941 1.14642 5.79269 1.15067 5.78607 1.15509C5.77944 1.15952 5.77293 1.1641 5.76653 1.16885C5.76012 1.17359 5.75385 1.17849 5.7477 1.18354C5.74156 1.18859 5.73553 1.19379 5.72962 1.19914C5.72373 1.20449 5.71796 1.20997 5.71233 1.21561C5.7067 1.22124 5.7012 1.227 5.69585 1.23289C5.6905 1.2388 5.68532 1.24483 5.68027 1.25099C5.67522 1.25713 5.67032 1.2634 5.66557 1.2698C5.66083 1.2762 5.65625 1.28272 5.65182 1.28934C5.6474 1.29596 5.64314 1.30268 5.63905 1.3095C5.63494 1.31633 5.63102 1.32326 5.62728 1.33028C5.62353 1.33731 5.61994 1.34443 5.61654 1.35162C5.61313 1.35882 5.6099 1.36609 5.60686 1.37345C5.6038 1.38081 5.60095 1.38824 5.59826 1.39573C5.59558 1.40323 5.59308 1.41079 5.59077 1.41841C5.58846 1.42603 5.58634 1.4337 5.58441 1.44142C5.58248 1.44914 5.58073 1.45691 5.57917 1.46472C5.57761 1.47252 5.57626 1.48037 5.57508 1.48825C5.57392 1.49613 5.57294 1.50402 5.57217 1.51194C5.57138 1.51988 5.5708 1.52782 5.57041 1.53576C5.57001 1.54372 5.56982 1.55168 5.56982 1.55964L5.56982 4.58343C5.56982 4.85133 5.78847 5.06877 6.05637 5.06877L9.50663 5.06877C9.51457 5.06877 9.52253 5.06858 9.53047 5.06819C9.53841 5.06779 9.54633 5.06721 9.55426 5.06644C9.56216 5.06566 9.57004 5.06468 9.57791 5.06352C9.58577 5.06235 9.59362 5.061 9.60141 5.05946C9.6092 5.0579 9.61695 5.05618 9.62467 5.05424C9.63238 5.05231 9.64006 5.05019 9.64766 5.04788C9.65526 5.04557 9.66281 5.04309 9.6703 5.04043C9.67779 5.03774 9.6852 5.03489 9.69254 5.03185C9.69988 5.02881 9.70716 5.0256 9.71435 5.0222C9.72154 5.0188 9.72864 5.01524 9.73566 5.0115C9.74266 5.00777 9.74959 5.00384 9.75642 4.99977C9.76323 4.99568 9.76995 4.99143 9.77656 4.98702C9.78319 4.98261 9.78968 4.97805 9.79608 4.97332C9.80246 4.96859 9.80873 4.96371 9.81489 4.95866C9.82103 4.95363 9.82705 4.94845 9.83297 4.94312C9.83886 4.93777 9.84462 4.93231 9.85026 4.92669C9.85587 4.92108 9.86137 4.91532 9.86672 4.90944C9.87207 4.90357 9.87727 4.89754 9.88232 4.8914C9.88737 4.88527 9.89225 4.87901 9.897 4.87263C9.90174 4.86625 9.90634 4.85976 9.91075 4.85317C9.91518 4.84656 9.91945 4.83986 9.92356 4.83304C9.92765 4.82623 9.93157 4.8193 9.93534 4.8123C9.9391 4.8053 9.94268 4.79822 9.9461 4.79104C9.9495 4.78385 9.95275 4.77658 9.9558 4.76924C9.95886 4.7619 9.96174 4.75451 9.96442 4.74702C9.9671 4.73953 9.96962 4.732 9.97195 4.7244C9.97426 4.7168 9.9764 4.70914 9.97835 4.70142C9.9803 4.69371 9.98207 4.68597 9.98362 4.67818C9.98518 4.67039 9.98657 4.66257 9.98775 4.6547C9.98894 4.64684 9.98993 4.63893 9.99072 4.63103C9.99153 4.62313 9.99213 4.61521 9.99254 4.60727C9.99293 4.59933 9.99316 4.59137 9.99318 4.58343L9.99318 1.55964C9.99318 1.55168 9.99299 1.54372 9.9926 1.53576C9.9922 1.52782 9.99162 1.51988 9.99083 1.51194C9.99006 1.50402 9.98909 1.49613 9.9879 1.48825C9.98674 1.48037 9.98539 1.47252 9.98383 1.46472C9.98227 1.45691 9.98053 1.44914 9.97859 1.44142C9.97666 1.4337 9.97454 1.42603 9.97223 1.41841C9.96992 1.41079 9.96742 1.40323 9.96474 1.39573C9.96206 1.38824 9.95918 1.38081 9.95614 1.37345C9.95308 1.36609 9.94985 1.35882 9.94646 1.35162C9.94306 1.34443 9.93947 1.33731 9.93572 1.33028C9.93197 1.32326 9.92804 1.31633 9.92395 1.3095C9.91986 1.30268 9.9156 1.29596 9.91119 1.28934C9.90676 1.28272 9.90218 1.2762 9.89743 1.2698C9.89268 1.2634 9.88778 1.25713 9.88273 1.25099C9.87768 1.24483 9.87248 1.2388 9.86713 1.23289C9.86178 1.227 9.8563 1.22124 9.85067 1.21561C9.84504 1.20997 9.83927 1.20449 9.83338 1.19914C9.82747 1.19379 9.82144 1.18859 9.81528 1.18354C9.80915 1.17849 9.80286 1.17359 9.79646 1.16885C9.79006 1.1641 9.78356 1.15952 9.77694 1.15509C9.77031 1.15067 9.76359 1.14642 9.75678 1.14232C9.74994 1.13823 9.74302 1.13431 9.736 1.13055C9.72896 1.1268 9.72184 1.12322 9.71465 1.11982C9.70746 1.11641 9.70018 1.11319 9.69282 1.11013C9.68546 1.10709 9.67803 1.10422 9.67054 1.10153C9.66305 1.09886 9.65549 1.09636 9.64787 1.09404C9.64025 1.09173 9.63257 1.08961 9.62485 1.08768C9.61714 1.08574 9.60937 1.084 9.60156 1.08244C9.59375 1.08089 9.5859 1.07953 9.57802 1.07837C9.57015 1.07719 9.56225 1.07622 9.55433 1.07544C9.54639 1.07465 9.53845 1.07407 9.53051 1.07368C9.52255 1.07329 9.51459 1.0731 9.50663 1.0731L9.50543 1.0731Z" stroke="rgba(0, 115, 237, 1)" stroke-width="0.2"      fill="#0073ED" ></path></svg>