<svg xmlns="http://www.w3.org/2000/svg" xmlns:xlink="http://www.w3.org/1999/xlink" width="16" height="16" viewBox="0 0 16 16" fill="none">
<path d="M12.143 13.407L12.367 13.177C12.624 12.913 12.813 12.59 12.914 12.236L13.001 11.933L13.493 11.85C13.5 11.7571 13.5016 11.6641 13.498 11.571L13.018 11.463L12.952 11.15C12.9466 11.1248 12.9407 11.0996 12.9344 11.0746C12.9281 11.0495 12.9214 11.0246 12.9142 10.9998C12.9071 10.975 12.8995 10.9503 12.8915 10.9257C12.8835 10.9012 12.875 10.8768 12.8661 10.8525C12.8573 10.8283 12.848 10.8042 12.8383 10.7803C12.8286 10.7563 12.8185 10.7326 12.808 10.709C12.7974 10.6854 12.7865 10.662 12.7752 10.6388C12.7638 10.6156 12.7521 10.5926 12.74 10.5698C12.7278 10.547 12.7153 10.5245 12.7024 10.5021C12.6895 10.4797 12.6761 10.4576 12.6625 10.4357C12.6488 10.4138 12.6347 10.3922 12.6203 10.3708C12.6058 10.3493 12.591 10.3282 12.5758 10.3073C12.5607 10.2864 12.5452 10.2658 12.5293 10.2454C12.5134 10.2251 12.4971 10.205 12.4805 10.1852C12.464 10.1654 12.447 10.1459 12.4298 10.1267C12.4125 10.1075 12.3949 10.0886 12.377 10.07L12.155 9.84L12.348 9.345C12.2716 9.28942 12.1923 9.23842 12.11 9.192L11.738 9.581L11.441 9.485C11.4117 9.47561 11.3821 9.46681 11.3525 9.45862C11.3228 9.45044 11.2929 9.44286 11.2629 9.43591C11.2329 9.42894 11.2027 9.42259 11.1725 9.41686C11.1422 9.41112 11.1118 9.406 11.0814 9.40152C11.0509 9.39703 11.0203 9.39316 10.9897 9.38991C10.9591 9.38667 10.9284 9.38405 10.8976 9.38206C10.8669 9.38008 10.8361 9.37873 10.8053 9.378C10.7745 9.37726 10.7437 9.37717 10.7129 9.3777C10.6821 9.37823 10.6514 9.37939 10.6206 9.38117C10.5898 9.38297 10.5591 9.38538 10.5285 9.38842C10.4978 9.39147 10.4673 9.39514 10.4367 9.39944C10.4062 9.40373 10.3758 9.40864 10.3455 9.41419C10.3152 9.41972 10.2851 9.42587 10.255 9.43264C10.225 9.43941 10.1951 9.4468 10.1653 9.4548C10.1356 9.4628 10.106 9.47139 10.0766 9.48059C10.0472 9.4898 10.018 9.49961 9.989 9.51L9.691 9.617L9.316 9.241C9.23373 9.28742 9.15439 9.33842 9.078 9.394L9.284 9.891L9.074 10.125C8.83 10.395 8.656 10.72 8.568 11.074L8.49 11.384L8.007 11.476C8.00005 11.5686 7.99837 11.6612 8.002 11.754L8.491 11.854L8.567 12.16C8.657 12.518 8.834 12.847 9.082 13.12L9.295 13.355L9.12 13.778C9.19641 13.8335 9.27573 13.8845 9.358 13.931L9.676 13.612L9.976 13.722C10.0055 13.7328 10.0351 13.7429 10.065 13.7525C10.0949 13.762 10.1249 13.7709 10.1552 13.7792C10.1854 13.7875 10.2158 13.7951 10.2464 13.8021C10.277 13.8091 10.3076 13.8155 10.3385 13.8212C10.3693 13.827 10.4002 13.832 10.4313 13.8365C10.4623 13.8409 10.4935 13.8447 10.5247 13.8479C10.5559 13.851 10.5871 13.8535 10.6184 13.8553C10.6497 13.8572 10.681 13.8583 10.7124 13.8589C10.7437 13.8594 10.7751 13.8593 10.8065 13.8585C10.8378 13.8577 10.8691 13.8563 10.9004 13.8542C10.9317 13.8521 10.9629 13.8494 10.9941 13.846C11.0253 13.8426 11.0564 13.8386 11.0874 13.8339C11.1184 13.8292 11.1493 13.8239 11.1801 13.8179C11.2108 13.8119 11.2415 13.8053 11.272 13.7981C11.3025 13.7908 11.3329 13.7829 11.363 13.7744C11.3932 13.7659 11.4232 13.7568 11.453 13.747L11.753 13.649L12.069 13.98C12.1509 13.9335 12.2299 13.8825 12.306 13.827L12.143 13.407ZM13.301 13.627L13.485 14.099L13.253 14.33C13.1735 14.4086 13.0902 14.4828 13.0029 14.5526C12.9157 14.6225 12.825 14.6876 12.731 14.748C12.6372 14.8091 12.5406 14.8651 12.441 14.9161C12.3414 14.967 12.2394 15.0127 12.135 15.053L11.825 15.172L11.452 14.782C11.4211 14.7888 11.39 14.7951 11.3589 14.801C11.3278 14.8069 11.2966 14.8123 11.2653 14.8173C11.2341 14.8223 11.2027 14.8268 11.1713 14.8309C11.1399 14.8349 11.1085 14.8385 11.077 14.8417C11.0455 14.8448 11.0139 14.8475 10.9823 14.8498C10.9507 14.852 10.9191 14.8538 10.8875 14.8551C10.8558 14.8564 10.8242 14.8573 10.7925 14.8577C10.7609 14.8581 10.7292 14.858 10.6975 14.8575C10.6659 14.857 10.6342 14.856 10.6026 14.8545C10.571 14.8531 10.5394 14.8512 10.5078 14.8488C10.4762 14.8464 10.4447 14.8436 10.4132 14.8403C10.3817 14.837 10.3502 14.8333 10.3188 14.8291C10.2875 14.8249 10.2561 14.8203 10.2249 14.8152C10.1936 14.81 10.1625 14.8045 10.1314 14.7985C10.1003 14.7925 10.0693 14.786 10.0384 14.7791C10.0075 14.7722 9.97669 14.7648 9.946 14.757L9.588 15.116L9.285 15C9.18062 14.9597 9.07864 14.914 8.97903 14.8631C8.87942 14.8121 8.78275 14.7561 8.689 14.695C8.59495 14.6346 8.50431 14.5695 8.41708 14.4996C8.32984 14.4298 8.24648 14.3556 8.167 14.277L7.93 14.041L8.136 13.541C8.08905 13.4777 8.04447 13.4128 8.00226 13.3463C7.96006 13.2797 7.92034 13.2117 7.88311 13.1423C7.84587 13.0728 7.81122 13.0021 7.77917 12.9302C7.74711 12.8582 7.71772 12.7851 7.691 12.711L7.121 12.594L7.056 12.267C7.0352 12.1573 7.0202 12.0468 7.01101 11.9354C7.00181 11.8241 6.99848 11.7127 7.001 11.601C7.005 11.371 7.031 11.15 7.08 10.938L7.153 10.621L7.693 10.517C7.798 10.227 7.944 9.955 8.126 9.707L7.888 9.131L8.125 8.895C8.279 8.742 8.453 8.602 8.647 8.477C8.841 8.352 9.039 8.25 9.242 8.172L9.546 8.056L9.963 8.474C9.99303 8.46655 10.0232 8.45953 10.0534 8.45294C10.0836 8.44636 10.1139 8.4402 10.1443 8.43447C10.1747 8.42873 10.2052 8.42344 10.2358 8.41858C10.2663 8.41372 10.297 8.40928 10.3276 8.4053C10.3583 8.40131 10.389 8.39775 10.4198 8.39464C10.4506 8.39152 10.4814 8.38883 10.5123 8.38659C10.5431 8.38436 10.574 8.38255 10.6049 8.38119C10.6358 8.37983 10.6667 8.37891 10.6977 8.37842C10.7286 8.37794 10.7596 8.37791 10.7905 8.3783C10.8214 8.37869 10.8523 8.37953 10.8833 8.3808C10.9142 8.38208 10.9451 8.3838 10.9759 8.38595C11.0068 8.38809 11.0376 8.39069 11.0684 8.39372C11.0992 8.39675 11.1299 8.40022 11.1606 8.40413C11.1913 8.40803 11.222 8.41237 11.2525 8.41716C11.2831 8.42192 11.3136 8.42714 11.344 8.43278C11.3744 8.43842 11.4047 8.44448 11.435 8.451L11.866 8L12.176 8.12C12.38 8.197 12.578 8.299 12.772 8.424C12.966 8.55 13.14 8.689 13.294 8.842L13.526 9.072L13.312 9.624C13.547 9.924 13.728 10.262 13.845 10.624L14.381 10.747L14.444 11.067C14.484 11.28 14.504 11.502 14.499 11.732C14.4975 11.8436 14.4901 11.9548 14.4769 12.0656C14.4637 12.1764 14.4447 12.2862 14.42 12.395L14.345 12.721L13.771 12.817C13.7419 12.8897 13.7102 12.9613 13.6759 13.0318C13.6416 13.1022 13.6048 13.1713 13.5655 13.2391C13.5262 13.3069 13.4844 13.3731 13.4403 13.4379C13.3962 13.5026 13.3497 13.5656 13.301 13.627ZM10.75 12.7C10.7336 12.7 10.7173 12.6996 10.7009 12.6988C10.6846 12.698 10.6683 12.6968 10.652 12.6952C10.6357 12.6936 10.6195 12.6916 10.6033 12.6892C10.5871 12.6868 10.571 12.684 10.5549 12.6808C10.5389 12.6776 10.5229 12.674 10.507 12.67C10.4911 12.666 10.4754 12.6617 10.4597 12.6569C10.444 12.6522 10.4285 12.6471 10.4131 12.6415C10.3977 12.636 10.3824 12.6301 10.3673 12.6239C10.3522 12.6176 10.3372 12.611 10.3224 12.604C10.3076 12.597 10.293 12.5896 10.2786 12.5819C10.2642 12.5742 10.2499 12.5661 10.2359 12.5577C10.2219 12.5493 10.208 12.5406 10.1944 12.5315C10.1808 12.5224 10.1674 12.513 10.1543 12.5032C10.1412 12.4935 10.1282 12.4834 10.1156 12.473C10.103 12.4626 10.0906 12.4519 10.0784 12.441C10.0663 12.43 10.0545 12.4187 10.0429 12.4071C10.0313 12.3955 10.02 12.3837 10.009 12.3716C9.99806 12.3594 9.98737 12.347 9.97698 12.3344C9.96661 12.3217 9.95655 12.3088 9.9468 12.2957C9.93705 12.2826 9.92762 12.2692 9.91853 12.2556C9.90944 12.242 9.90069 12.2281 9.89227 12.2141C9.88386 12.2001 9.8758 12.1858 9.86808 12.1714C9.86036 12.157 9.853 12.1423 9.84601 12.1275C9.83902 12.1128 9.83239 12.0978 9.82612 12.0827C9.81986 12.0676 9.81397 12.0523 9.80845 12.0369C9.80294 12.0215 9.79781 12.006 9.79306 11.9903C9.78831 11.9746 9.78395 11.9589 9.77997 11.943C9.77598 11.9271 9.77241 11.9111 9.76922 11.8951C9.76602 11.879 9.76322 11.8629 9.76083 11.8467C9.75842 11.8305 9.75642 11.8143 9.75481 11.798C9.7532 11.7817 9.752 11.7654 9.7512 11.7491C9.75041 11.7327 9.75 11.7164 9.75 11.7C9.75 11.6836 9.75041 11.6673 9.7512 11.6509C9.752 11.6346 9.7532 11.6183 9.75481 11.602C9.75642 11.5857 9.75842 11.5695 9.76083 11.5533C9.76322 11.5371 9.76602 11.521 9.76922 11.5049C9.77241 11.4889 9.77598 11.4729 9.77997 11.457C9.78395 11.4411 9.78831 11.4254 9.79306 11.4097C9.79781 11.394 9.80294 11.3785 9.80845 11.3631C9.81397 11.3477 9.81986 11.3324 9.82612 11.3173C9.83239 11.3022 9.83902 11.2872 9.84601 11.2724C9.853 11.2576 9.86036 11.243 9.86808 11.2286C9.8758 11.2142 9.88386 11.1999 9.89227 11.1859C9.90069 11.1719 9.90944 11.158 9.91853 11.1444C9.92762 11.1308 9.93705 11.1174 9.9468 11.1043C9.95655 11.0912 9.96661 11.0782 9.97698 11.0656C9.98737 11.053 9.99806 11.0406 10.009 11.0284C10.02 11.0163 10.0313 11.0045 10.0429 10.9929C10.0545 10.9813 10.0663 10.97 10.0784 10.959C10.0906 10.9481 10.103 10.9374 10.1156 10.927C10.1282 10.9166 10.1412 10.9065 10.1543 10.8968C10.1674 10.887 10.1808 10.8776 10.1944 10.8685C10.208 10.8594 10.2219 10.8507 10.2359 10.8423C10.2499 10.8339 10.2642 10.8258 10.2786 10.8181C10.293 10.8104 10.3076 10.803 10.3224 10.796C10.3372 10.789 10.3522 10.7824 10.3673 10.7761C10.3824 10.7699 10.3977 10.764 10.4131 10.7585C10.4285 10.7529 10.444 10.7478 10.4597 10.7431C10.4754 10.7383 10.4911 10.734 10.507 10.73C10.5229 10.726 10.5389 10.7224 10.5549 10.7192C10.571 10.716 10.5871 10.7132 10.6033 10.7108C10.6195 10.7084 10.6357 10.7064 10.652 10.7048C10.6683 10.7032 10.6846 10.702 10.7009 10.7012C10.7173 10.7004 10.7336 10.7 10.75 10.7C10.7664 10.7 10.7827 10.7004 10.7991 10.7012C10.8154 10.702 10.8317 10.7032 10.848 10.7048C10.8643 10.7064 10.8805 10.7084 10.8967 10.7108C10.9129 10.7132 10.929 10.716 10.9451 10.7192C10.9611 10.7224 10.9771 10.726 10.993 10.73C11.0089 10.734 11.0246 10.7383 11.0403 10.7431C11.056 10.7478 11.0715 10.7529 11.0869 10.7585C11.1023 10.764 11.1176 10.7699 11.1327 10.7761C11.1478 10.7824 11.1627 10.789 11.1775 10.796C11.1923 10.803 11.207 10.8104 11.2214 10.8181C11.2358 10.8258 11.2501 10.8339 11.2641 10.8423C11.2781 10.8507 11.292 10.8594 11.3056 10.8685C11.3192 10.8776 11.3326 10.887 11.3457 10.8968C11.3588 10.9065 11.3717 10.9166 11.3844 10.927C11.397 10.9374 11.4094 10.9481 11.4216 10.959C11.4337 10.97 11.4455 10.9813 11.4571 10.9929C11.4687 11.0045 11.48 11.0163 11.491 11.0284C11.5019 11.0406 11.5126 11.053 11.523 11.0656C11.5334 11.0782 11.5435 11.0912 11.5532 11.1043C11.563 11.1174 11.5724 11.1308 11.5815 11.1444C11.5906 11.158 11.5993 11.1719 11.6077 11.1859C11.6161 11.1999 11.6242 11.2142 11.6319 11.2286C11.6396 11.243 11.647 11.2576 11.654 11.2724C11.661 11.2872 11.6676 11.3022 11.6739 11.3173C11.6801 11.3324 11.686 11.3477 11.6915 11.3631C11.6971 11.3785 11.7022 11.394 11.7069 11.4097C11.7117 11.4254 11.716 11.4411 11.72 11.457C11.724 11.4729 11.7276 11.4889 11.7308 11.5049C11.734 11.521 11.7368 11.5371 11.7392 11.5533C11.7416 11.5695 11.7436 11.5857 11.7452 11.602C11.7468 11.6183 11.748 11.6346 11.7488 11.6509C11.7496 11.6673 11.75 11.6836 11.75 11.7C11.75 11.7164 11.7496 11.7327 11.7488 11.7491C11.748 11.7654 11.7468 11.7817 11.7452 11.798C11.7436 11.8143 11.7416 11.8305 11.7392 11.8467C11.7368 11.8629 11.734 11.879 11.7308 11.8951C11.7276 11.9111 11.724 11.9271 11.72 11.943C11.716 11.9589 11.7117 11.9746 11.7069 11.9903C11.7022 12.006 11.6971 12.0215 11.6915 12.0369C11.686 12.0523 11.6801 12.0676 11.6739 12.0827C11.6676 12.0978 11.661 12.1128 11.654 12.1275C11.647 12.1423 11.6396 12.157 11.6319 12.1714C11.6242 12.1858 11.6161 12.2001 11.6077 12.2141C11.5993 12.2281 11.5906 12.242 11.5815 12.2556C11.5724 12.2692 11.563 12.2826 11.5532 12.2957C11.5435 12.3088 11.5334 12.3217 11.523 12.3344C11.5126 12.347 11.5019 12.3594 11.491 12.3716C11.48 12.3837 11.4687 12.3955 11.4571 12.4071C11.4455 12.4187 11.4337 12.43 11.4216 12.441C11.4094 12.4519 11.397 12.4626 11.3844 12.473C11.3717 12.4834 11.3588 12.4935 11.3457 12.5032C11.3326 12.513 11.3192 12.5224 11.3056 12.5315C11.292 12.5406 11.2781 12.5493 11.2641 12.5577C11.2501 12.5661 11.2358 12.5742 11.2214 12.5819C11.207 12.5896 11.1923 12.597 11.1775 12.604C11.1627 12.611 11.1478 12.6176 11.1327 12.6239C11.1176 12.6301 11.1023 12.636 11.0869 12.6415C11.0715 12.6471 11.056 12.6522 11.0403 12.6569C11.0246 12.6617 11.0089 12.666 10.993 12.67C10.9771 12.674 10.9611 12.6776 10.9451 12.6808C10.929 12.684 10.9129 12.6868 10.8967 12.6892C10.8805 12.6916 10.8643 12.6936 10.848 12.6952C10.8317 12.6968 10.8154 12.698 10.7991 12.6988C10.7827 12.6996 10.7664 12.7 10.75 12.7ZM6 2L6 5L10 5L10 2L6 2ZM6 1L10 1C10.0164 1 10.0327 1.0004 10.0491 1.0012C10.0654 1.00201 10.0817 1.00321 10.098 1.00482C10.1143 1.00642 10.1305 1.00842 10.1467 1.01082C10.1629 1.01322 10.179 1.01602 10.1951 1.01921C10.2111 1.02241 10.2271 1.02599 10.243 1.02997C10.2589 1.03394 10.2746 1.03831 10.2903 1.04306C10.306 1.04781 10.3215 1.05294 10.3369 1.05846C10.3523 1.06397 10.3676 1.06986 10.3827 1.07612C10.3978 1.08238 10.4127 1.08901 10.4275 1.09601C10.4423 1.10301 10.457 1.11036 10.4714 1.11808C10.4858 1.12579 10.5001 1.13386 10.5141 1.14227C10.5281 1.15069 10.542 1.15944 10.5556 1.16853C10.5692 1.17762 10.5826 1.18704 10.5957 1.19679C10.6088 1.20654 10.6217 1.21661 10.6344 1.22699C10.647 1.23737 10.6594 1.24806 10.6716 1.25905C10.6837 1.27004 10.6955 1.28132 10.7071 1.29289C10.7187 1.30447 10.73 1.31631 10.741 1.32844C10.7519 1.34057 10.7626 1.35295 10.773 1.36561C10.7834 1.37826 10.7935 1.39115 10.8032 1.4043C10.813 1.41745 10.8224 1.43082 10.8315 1.44443C10.8406 1.45804 10.8493 1.47186 10.8577 1.4859C10.8661 1.49993 10.8742 1.51417 10.8819 1.5286C10.8896 1.54304 10.897 1.55765 10.904 1.57244C10.911 1.58724 10.9176 1.6022 10.9239 1.61731C10.9301 1.63244 10.936 1.6477 10.9415 1.66311C10.9471 1.67852 10.9522 1.69405 10.9569 1.70972C10.9617 1.72537 10.966 1.74114 10.97 1.75702C10.974 1.77289 10.9776 1.78885 10.9808 1.80491C10.984 1.82096 10.9868 1.83708 10.9892 1.85327C10.9916 1.86945 10.9936 1.88569 10.9952 1.90198C10.9968 1.91827 10.998 1.93458 10.9988 1.95094C10.9996 1.96728 11 1.98364 11 2L11 5C11 5.01636 10.9996 5.03272 10.9988 5.04906C10.998 5.06542 10.9968 5.08173 10.9952 5.09802C10.9936 5.11431 10.9916 5.13055 10.9892 5.14673C10.9868 5.16292 10.984 5.17905 10.9808 5.19509C10.9776 5.21114 10.974 5.22711 10.97 5.24298C10.966 5.25886 10.9617 5.27462 10.9569 5.29028C10.9522 5.30595 10.9471 5.32148 10.9415 5.33689C10.936 5.3523 10.9301 5.36756 10.9239 5.38269C10.9176 5.3978 10.911 5.41275 10.904 5.42755C10.897 5.44234 10.8896 5.45697 10.8819 5.47139C10.8742 5.48583 10.8661 5.50006 10.8577 5.51411C10.8493 5.52814 10.8406 5.54195 10.8315 5.55556C10.8224 5.56917 10.813 5.58256 10.8032 5.5957C10.7935 5.60884 10.7834 5.62175 10.773 5.63439C10.7626 5.64705 10.7519 5.65944 10.741 5.67156C10.73 5.68369 10.7187 5.69553 10.7071 5.70711C10.6955 5.71869 10.6837 5.72997 10.6716 5.74095C10.6594 5.75194 10.647 5.76262 10.6344 5.77302C10.6217 5.78339 10.6088 5.79345 10.5957 5.8032C10.5826 5.81295 10.5692 5.82237 10.5556 5.83147C10.542 5.84056 10.5281 5.84931 10.5141 5.85773C10.5001 5.86614 10.4858 5.8742 10.4714 5.88192C10.457 5.88964 10.4423 5.897 10.4275 5.90398C10.4127 5.91098 10.3978 5.91761 10.3827 5.92387C10.3676 5.93014 10.3523 5.93603 10.3369 5.94155C10.3215 5.94706 10.306 5.95219 10.2903 5.95694C10.2746 5.96169 10.2589 5.96605 10.243 5.97003C10.2271 5.97402 10.2111 5.97759 10.1951 5.98078C10.179 5.98398 10.1629 5.98678 10.1467 5.98917C10.1305 5.99158 10.1143 5.99358 10.098 5.99519C10.0817 5.9968 10.0654 5.998 10.0491 5.9988C10.0327 5.99959 10.0164 6 10 6L6 6C5.98364 6 5.96728 5.99959 5.95094 5.9988C5.93458 5.998 5.91827 5.9968 5.90198 5.99519C5.88569 5.99358 5.86945 5.99158 5.85327 5.98917C5.83708 5.98678 5.82095 5.98398 5.80491 5.98078C5.78886 5.97759 5.77289 5.97402 5.75702 5.97003C5.74114 5.96605 5.72537 5.96169 5.70972 5.95694C5.69405 5.95219 5.67852 5.94706 5.66311 5.94155C5.6477 5.93603 5.63244 5.93014 5.61731 5.92387C5.6022 5.91761 5.58723 5.91098 5.57244 5.90398C5.55764 5.897 5.54303 5.88964 5.52861 5.88192C5.51417 5.8742 5.49994 5.86614 5.48589 5.85773C5.47186 5.84931 5.45803 5.84056 5.44442 5.83147C5.43081 5.82237 5.41744 5.81295 5.4043 5.8032C5.39116 5.79345 5.37825 5.78339 5.36561 5.77302C5.35295 5.76262 5.34056 5.75194 5.32844 5.74095C5.31631 5.72997 5.30447 5.71869 5.29289 5.70711C5.28131 5.69553 5.27003 5.68369 5.25905 5.67156C5.24806 5.65944 5.23737 5.64705 5.22698 5.63439C5.21661 5.62175 5.20655 5.60884 5.1968 5.5957C5.18705 5.58256 5.17762 5.56917 5.16853 5.55556C5.15944 5.54195 5.15069 5.52814 5.14227 5.51411C5.13386 5.50006 5.1258 5.48583 5.11808 5.47139C5.11036 5.45697 5.103 5.44234 5.09602 5.42755C5.08902 5.41275 5.08239 5.3978 5.07612 5.38269C5.06986 5.36756 5.06397 5.3523 5.05845 5.33689C5.05294 5.32148 5.04781 5.30595 5.04306 5.29028C5.03831 5.27462 5.03395 5.25886 5.02997 5.24298C5.02598 5.22711 5.02241 5.21114 5.01922 5.19509C5.01602 5.17905 5.01322 5.16292 5.01083 5.14673C5.00842 5.13055 5.00642 5.11431 5.00481 5.09802C5.0032 5.08173 5.002 5.06542 5.0012 5.04906C5.00041 5.03272 5 5.01636 5 5L5 2C5 1.98364 5.00041 1.96728 5.0012 1.95094C5.002 1.93458 5.0032 1.91827 5.00481 1.90198C5.00642 1.88569 5.00842 1.86945 5.01083 1.85327C5.01322 1.83708 5.01602 1.82096 5.01922 1.80491C5.02241 1.78885 5.02598 1.77289 5.02997 1.75702C5.03395 1.74114 5.03831 1.72537 5.04306 1.70972C5.04781 1.69405 5.05294 1.67852 5.05845 1.66311C5.06397 1.6477 5.06986 1.63244 5.07612 1.61731C5.08239 1.6022 5.08902 1.58724 5.09602 1.57244C5.103 1.55765 5.11036 1.54304 5.11808 1.5286C5.1258 1.51417 5.13386 1.49993 5.14227 1.4859C5.15069 1.47186 5.15944 1.45804 5.16853 1.44443C5.17762 1.43082 5.18705 1.41745 5.1968 1.4043C5.20655 1.39116 5.21661 1.37826 5.22698 1.36561C5.23737 1.35295 5.24806 1.34057 5.25905 1.32844C5.27003 1.31631 5.28131 1.30447 5.29289 1.29289C5.30447 1.28132 5.31631 1.27004 5.32844 1.25905C5.34056 1.24806 5.35295 1.23737 5.36561 1.22699C5.37825 1.21661 5.39116 1.20654 5.4043 1.19679C5.41744 1.18704 5.43081 1.17762 5.44442 1.16853C5.45803 1.15944 5.47186 1.15069 5.48589 1.14227C5.49994 1.13386 5.51417 1.12579 5.52861 1.11808C5.54303 1.11036 5.55764 1.10301 5.57244 1.09601C5.58723 1.08901 5.6022 1.08238 5.61731 1.07612C5.63244 1.06986 5.6477 1.06397 5.66311 1.05846C5.67852 1.05294 5.69405 1.04781 5.70972 1.04306C5.72537 1.03831 5.74114 1.03394 5.75702 1.02997C5.77289 1.02599 5.78886 1.02241 5.80491 1.01921C5.82095 1.01602 5.83708 1.01322 5.85327 1.01082C5.86945 1.00842 5.88569 1.00642 5.90198 1.00482C5.91827 1.00321 5.93458 1.00201 5.95094 1.0012C5.96728 1.0004 5.98364 1 6 1ZM2 12L2 14L4 14L4 12L2 12ZM2 11L4 11C4.01636 11 4.03272 11.0004 4.04906 11.0012C4.06542 11.002 4.08173 11.0032 4.09802 11.0048C4.11431 11.0064 4.13055 11.0084 4.14673 11.0108C4.16292 11.0132 4.17905 11.016 4.19509 11.0192C4.21114 11.0224 4.22711 11.026 4.24298 11.03C4.25886 11.034 4.27462 11.0383 4.29028 11.0431C4.30595 11.0478 4.32148 11.0529 4.33689 11.0585C4.3523 11.064 4.36756 11.0699 4.38269 11.0761C4.3978 11.0824 4.41275 11.089 4.42755 11.096C4.44234 11.103 4.45697 11.1104 4.47139 11.1181C4.48583 11.1258 4.50006 11.1339 4.51411 11.1423C4.52814 11.1507 4.54195 11.1594 4.55556 11.1685C4.56917 11.1776 4.58256 11.187 4.5957 11.1968C4.60884 11.2065 4.62175 11.2166 4.63439 11.227C4.64705 11.2374 4.65944 11.2481 4.67156 11.259C4.68369 11.27 4.69553 11.2813 4.70711 11.2929C4.71869 11.3045 4.72997 11.3163 4.74095 11.3284C4.75194 11.3406 4.76262 11.353 4.77302 11.3656C4.78339 11.3783 4.79345 11.3912 4.8032 11.4043C4.81295 11.4174 4.82237 11.4308 4.83147 11.4444C4.84056 11.458 4.84931 11.4719 4.85773 11.4859C4.86614 11.4999 4.8742 11.5142 4.88192 11.5286C4.88964 11.543 4.897 11.5576 4.90398 11.5724C4.91098 11.5872 4.91761 11.6022 4.92387 11.6173C4.93014 11.6324 4.93603 11.6477 4.94155 11.6631C4.94706 11.6785 4.95219 11.694 4.95694 11.7097C4.96169 11.7254 4.96605 11.7411 4.97003 11.757C4.97402 11.7729 4.97759 11.7889 4.98078 11.8049C4.98398 11.821 4.98678 11.8371 4.98917 11.8533C4.99158 11.8695 4.99358 11.8857 4.99519 11.902C4.9968 11.9183 4.998 11.9346 4.9988 11.9509C4.99959 11.9673 5 11.9836 5 12L5 14C5 14.0164 4.99959 14.0327 4.9988 14.0491C4.998 14.0654 4.9968 14.0817 4.99519 14.098C4.99358 14.1143 4.99158 14.1305 4.98917 14.1467C4.98678 14.1629 4.98398 14.179 4.98078 14.1951C4.97759 14.2111 4.97402 14.2271 4.97003 14.243C4.96605 14.2589 4.96169 14.2746 4.95694 14.2903C4.95219 14.306 4.94706 14.3215 4.94155 14.3369C4.93603 14.3523 4.93014 14.3676 4.92387 14.3827C4.91761 14.3978 4.91098 14.4128 4.90398 14.4276C4.897 14.4424 4.88964 14.457 4.88192 14.4714C4.8742 14.4858 4.86614 14.5001 4.85773 14.5141C4.84931 14.5281 4.84056 14.542 4.83147 14.5556C4.82237 14.5692 4.81295 14.5826 4.8032 14.5957C4.79345 14.6088 4.78339 14.6217 4.77302 14.6344C4.76262 14.647 4.75194 14.6594 4.74095 14.6716C4.72997 14.6837 4.71869 14.6955 4.70711 14.7071C4.69553 14.7187 4.68369 14.73 4.67156 14.741C4.65944 14.7519 4.64705 14.7626 4.63439 14.773C4.62175 14.7834 4.60884 14.7935 4.5957 14.8032C4.58256 14.813 4.56917 14.8224 4.55556 14.8315C4.54195 14.8406 4.52814 14.8493 4.51411 14.8577C4.50006 14.8661 4.48583 14.8742 4.47139 14.8819C4.45697 14.8896 4.44234 14.897 4.42755 14.904C4.41275 14.911 4.3978 14.9176 4.38269 14.9239C4.36756 14.9301 4.3523 14.936 4.33689 14.9415C4.32148 14.9471 4.30595 14.9522 4.29028 14.9569C4.27462 14.9617 4.25886 14.966 4.24298 14.97C4.22711 14.974 4.21114 14.9776 4.19509 14.9808C4.17905 14.984 4.16292 14.9868 4.14673 14.9892C4.13055 14.9916 4.11431 14.9936 4.09802 14.9952C4.08173 14.9968 4.06542 14.998 4.04906 14.9988C4.03272 14.9996 4.01636 15 4 15L2 15C1.98364 15 1.96728 14.9996 1.95094 14.9988C1.93458 14.998 1.91827 14.9968 1.90198 14.9952C1.88569 14.9936 1.86945 14.9916 1.85327 14.9892C1.83708 14.9868 1.82096 14.984 1.80491 14.9808C1.78885 14.9776 1.77289 14.974 1.75702 14.97C1.74114 14.966 1.72537 14.9617 1.70972 14.9569C1.69405 14.9522 1.67852 14.9471 1.66311 14.9415C1.6477 14.936 1.63244 14.9301 1.61731 14.9239C1.6022 14.9176 1.58724 14.911 1.57244 14.904C1.55765 14.897 1.54304 14.8896 1.5286 14.8819C1.51417 14.8742 1.49993 14.8661 1.4859 14.8577C1.47186 14.8493 1.45804 14.8406 1.44443 14.8315C1.43082 14.8224 1.41745 14.813 1.4043 14.8032C1.39115 14.7935 1.37826 14.7834 1.36561 14.773C1.35295 14.7626 1.34057 14.7519 1.32844 14.741C1.31631 14.73 1.30447 14.7187 1.29289 14.7071C1.28132 14.6955 1.27004 14.6837 1.25905 14.6716C1.24806 14.6594 1.23737 14.647 1.22699 14.6344C1.21661 14.6217 1.20654 14.6088 1.19679 14.5957C1.18704 14.5826 1.17762 14.5692 1.16853 14.5556C1.15944 14.542 1.15069 14.5281 1.14227 14.5141C1.13386 14.5001 1.12579 14.4858 1.11808 14.4714C1.11036 14.457 1.10301 14.4423 1.09601 14.4275C1.08901 14.4127 1.08238 14.3978 1.07612 14.3827C1.06986 14.3676 1.06397 14.3523 1.05846 14.3369C1.05294 14.3215 1.04781 14.306 1.04306 14.2903C1.03831 14.2746 1.03394 14.2589 1.02997 14.243C1.02599 14.2271 1.02241 14.2111 1.01921 14.1951C1.01602 14.179 1.01322 14.1629 1.01082 14.1467C1.00842 14.1305 1.00642 14.1143 1.00482 14.098C1.00321 14.0817 1.00201 14.0654 1.0012 14.0491C1.0004 14.0327 1 14.0164 1 14L1 12C1 11.9836 1.0004 11.9673 1.0012 11.9509C1.00201 11.9346 1.00321 11.9183 1.00482 11.902C1.00642 11.8857 1.00842 11.8695 1.01082 11.8533C1.01322 11.8371 1.01602 11.821 1.01921 11.8049C1.02241 11.7889 1.02599 11.7729 1.02997 11.757C1.03394 11.7411 1.03831 11.7254 1.04306 11.7097C1.04781 11.694 1.05294 11.6785 1.05846 11.6631C1.06397 11.6477 1.06986 11.6324 1.07612 11.6173C1.08238 11.6022 1.08901 11.5872 1.09601 11.5724C1.10301 11.5576 1.11036 11.543 1.11808 11.5286C1.12579 11.5142 1.13386 11.4999 1.14227 11.4859C1.15069 11.4719 1.15944 11.458 1.16853 11.4444C1.17762 11.4308 1.18704 11.4174 1.19679 11.4043C1.20654 11.3912 1.21661 11.3783 1.22699 11.3656C1.23737 11.353 1.24806 11.3406 1.25905 11.3284C1.27004 11.3163 1.28132 11.3045 1.29289 11.2929C1.30447 11.2813 1.31631 11.27 1.32844 11.259C1.34057 11.2481 1.35295 11.2374 1.36561 11.227C1.37826 11.2166 1.39115 11.2065 1.4043 11.1968C1.41745 11.187 1.43082 11.1776 1.44443 11.1685C1.45804 11.1594 1.47186 11.1507 1.4859 11.1423C1.49993 11.1339 1.51417 11.1258 1.5286 11.1181C1.54304 11.1104 1.55765 11.103 1.57244 11.096C1.58724 11.089 1.6022 11.0824 1.61731 11.0761C1.63244 11.0699 1.6477 11.064 1.66311 11.0585C1.67852 11.0529 1.69405 11.0478 1.70972 11.0431C1.72537 11.0383 1.74114 11.034 1.75702 11.03C1.77289 11.026 1.78885 11.0224 1.80491 11.0192C1.82096 11.016 1.83708 11.0132 1.85327 11.0108C1.86945 11.0084 1.88569 11.0064 1.90198 11.0048C1.91827 11.0032 1.93458 11.002 1.95094 11.0012C1.96728 11.0004 1.98364 11 2 11ZM2.5 8C2.49181 8 2.48364 7.9998 2.47547 7.99939C2.46729 7.999 2.45913 7.99839 2.45098 7.99759C2.44285 7.9968 2.43473 7.9958 2.42664 7.99459C2.41855 7.99339 2.41048 7.99198 2.40245 7.99039C2.39443 7.9888 2.38645 7.987 2.37852 7.98501C2.37058 7.98303 2.36269 7.98084 2.35486 7.97847C2.34703 7.97609 2.33926 7.97353 2.33156 7.97077C2.32385 7.96802 2.31622 7.96508 2.30866 7.96194C2.30109 7.9588 2.29361 7.95548 2.28622 7.952C2.27882 7.9485 2.27152 7.94481 2.2643 7.94095C2.25709 7.93709 2.24997 7.93306 2.24295 7.92886C2.23593 7.92466 2.22902 7.92028 2.22222 7.91573C2.21542 7.91119 2.20873 7.90648 2.20216 7.90161C2.19558 7.89673 2.18913 7.8917 2.1828 7.8865C2.17647 7.88131 2.17028 7.87597 2.16422 7.87047C2.15816 7.86498 2.15223 7.85934 2.14645 7.85355C2.14066 7.84776 2.13502 7.84184 2.12953 7.83578C2.12403 7.82972 2.11869 7.82353 2.1135 7.8172C2.1083 7.81087 2.10327 7.80442 2.09839 7.79784C2.09352 7.79127 2.08881 7.78458 2.08427 7.77778C2.07972 7.77098 2.07535 7.76406 2.07114 7.75705C2.06693 7.75003 2.0629 7.74291 2.05905 7.7357C2.05518 7.72848 2.0515 7.72117 2.048 7.71378C2.0445 7.70639 2.04119 7.69891 2.03806 7.69134C2.03493 7.68378 2.03198 7.67614 2.02923 7.66844C2.02647 7.66073 2.02391 7.65297 2.02153 7.64514C2.01916 7.63731 2.01697 7.62942 2.01498 7.62148C2.013 7.61355 2.0112 7.60556 2.00961 7.59755C2.00802 7.58952 2.00661 7.58145 2.00541 7.57336C2.00421 7.56527 2.00321 7.55716 2.00241 7.54902C2.0016 7.54087 2.001 7.5327 2.00061 7.52453C2.0002 7.51636 2 7.50819 2 7.5C2 7.49181 2.0002 7.48364 2.00061 7.47547C2.001 7.4673 2.0016 7.45912 2.00241 7.45098C2.00321 7.44284 2.00421 7.43473 2.00541 7.42664C2.00661 7.41855 2.00802 7.41048 2.00961 7.40245C2.0112 7.39444 2.013 7.38645 2.01498 7.37852C2.01697 7.37058 2.01916 7.36269 2.02153 7.35486C2.02391 7.34703 2.02647 7.33925 2.02923 7.33155C2.03198 7.32384 2.03493 7.31622 2.03806 7.30866C2.04119 7.30109 2.0445 7.29361 2.048 7.28622C2.0515 7.27883 2.05518 7.27151 2.05905 7.2643C2.0629 7.25708 2.06693 7.24997 2.07114 7.24295C2.07535 7.23594 2.07972 7.22901 2.08427 7.22222C2.08881 7.21542 2.09352 7.20873 2.09839 7.20216C2.10327 7.19558 2.1083 7.18912 2.1135 7.1828C2.11869 7.17647 2.12403 7.17028 2.12953 7.16422C2.13502 7.15816 2.14066 7.15223 2.14645 7.14645C2.15223 7.14066 2.15816 7.13502 2.16422 7.12953C2.17028 7.12403 2.17647 7.11869 2.1828 7.1135C2.18913 7.1083 2.19558 7.10327 2.20216 7.09839C2.20873 7.09351 2.21542 7.08881 2.22222 7.08427C2.22902 7.07972 2.23593 7.07534 2.24295 7.07114C2.24997 7.06694 2.25709 7.06291 2.2643 7.05905C2.27152 7.05519 2.27882 7.0515 2.28622 7.048C2.29361 7.0445 2.30109 7.04119 2.30866 7.03806C2.31622 7.03492 2.32385 7.03198 2.33156 7.02923C2.33926 7.02647 2.34703 7.02391 2.35486 7.02153C2.36269 7.01916 2.37058 7.01697 2.37852 7.01498C2.38645 7.013 2.39443 7.0112 2.40245 7.00961C2.41048 7.00802 2.41855 7.00661 2.42664 7.00541C2.43473 7.0042 2.44285 7.0032 2.45098 7.00241C2.45913 7.00161 2.46729 7.001 2.47547 7.00061C2.48364 7.0002 2.49181 7 2.5 7L7.5 7C7.50819 7 7.51636 7.0002 7.52453 7.00061C7.5327 7.001 7.54087 7.00161 7.54902 7.00241C7.55716 7.0032 7.56527 7.0042 7.57336 7.00541C7.58145 7.00661 7.58952 7.00802 7.59755 7.00961C7.60556 7.0112 7.61355 7.013 7.62148 7.01498C7.62942 7.01697 7.63731 7.01916 7.64514 7.02153C7.65297 7.02391 7.66073 7.02647 7.66844 7.02923C7.67614 7.03198 7.68378 7.03492 7.69134 7.03806C7.69891 7.04119 7.70639 7.0445 7.71378 7.048C7.72117 7.0515 7.72848 7.05519 7.7357 7.05905C7.74291 7.06291 7.75003 7.06694 7.75705 7.07114C7.76406 7.07534 7.77098 7.07972 7.77778 7.08427C7.78458 7.08881 7.79127 7.09351 7.79784 7.09839C7.80442 7.10327 7.81087 7.1083 7.8172 7.1135C7.82353 7.11869 7.82972 7.12403 7.83578 7.12953C7.84184 7.13502 7.84776 7.14066 7.85355 7.14645C7.85934 7.15223 7.86498 7.15816 7.87047 7.16422C7.87597 7.17028 7.88131 7.17647 7.8865 7.1828C7.8917 7.18912 7.89673 7.19558 7.90161 7.20216C7.90648 7.20873 7.91119 7.21542 7.91573 7.22222C7.92028 7.22901 7.92466 7.23594 7.92886 7.24295C7.93306 7.24997 7.93709 7.25708 7.94095 7.2643C7.94481 7.27151 7.9485 7.27883 7.952 7.28622C7.95548 7.29361 7.9588 7.30109 7.96194 7.30866C7.96508 7.31622 7.96802 7.32384 7.97077 7.33155C7.97353 7.33925 7.97609 7.34703 7.97847 7.35486C7.98084 7.36269 7.98303 7.37058 7.98501 7.37852C7.987 7.38645 7.9888 7.39444 7.99039 7.40245C7.99198 7.41048 7.99339 7.41855 7.99459 7.42664C7.9958 7.43473 7.9968 7.44284 7.99759 7.45098C7.99839 7.45912 7.999 7.4673 7.99939 7.47547C7.9998 7.48364 8 7.49181 8 7.5C8 7.50819 7.9998 7.51636 7.99939 7.52453C7.999 7.5327 7.99839 7.54087 7.99759 7.54902C7.9968 7.55716 7.9958 7.56527 7.99459 7.57336C7.99339 7.58145 7.99198 7.58952 7.99039 7.59755C7.9888 7.60556 7.987 7.61355 7.98501 7.62148C7.98303 7.62942 7.98084 7.63731 7.97847 7.64514C7.97609 7.65297 7.97353 7.66073 7.97077 7.66844C7.96802 7.67614 7.96508 7.68378 7.96194 7.69134C7.9588 7.69891 7.95548 7.70639 7.952 7.71378C7.9485 7.72117 7.94481 7.72848 7.94095 7.7357C7.93709 7.74291 7.93306 7.75003 7.92886 7.75705C7.92466 7.76406 7.92028 7.77098 7.91573 7.77778C7.91119 7.78458 7.90648 7.79127 7.90161 7.79784C7.89673 7.80442 7.8917 7.81087 7.8865 7.8172C7.88131 7.82353 7.87597 7.82972 7.87047 7.83578C7.86498 7.84184 7.85934 7.84776 7.85355 7.85355C7.84776 7.85934 7.84184 7.86498 7.83578 7.87047C7.82972 7.87597 7.82353 7.88131 7.8172 7.8865C7.81087 7.8917 7.80442 7.89673 7.79784 7.90161C7.79127 7.90648 7.78458 7.91119 7.77778 7.91573C7.77098 7.92028 7.76406 7.92466 7.75705 7.92886C7.75003 7.93306 7.74291 7.93709 7.7357 7.94095C7.72848 7.94481 7.72117 7.9485 7.71378 7.952C7.70639 7.95548 7.69891 7.9588 7.69134 7.96194C7.68378 7.96508 7.67614 7.96802 7.66844 7.97077C7.66073 7.97353 7.65297 7.97609 7.64514 7.97847C7.63731 7.98084 7.62942 7.98303 7.62148 7.98501C7.61355 7.987 7.60556 7.9888 7.59755 7.99039C7.58952 7.99198 7.58145 7.99339 7.57336 7.99459C7.56527 7.9958 7.55716 7.9968 7.54902 7.99759C7.54087 7.99839 7.5327 7.999 7.52453 7.99939C7.51636 7.9998 7.50819 8 7.5 8L2.5 8Z"   fill="#FFFFFF" >
</path>
<path d="M7 5.6C7 5.269 7.224 5 7.5 5C7.776 5 8 5.269 8 5.6L8 7.4C8 7.731 7.776 8 7.5 8C7.224 8 7 7.731 7 7.4L7 5.6ZM2 7.5C2 7.49181 2.0002 7.48364 2.00061 7.47547C2.00101 7.4673 2.0016 7.45913 2.00241 7.45098C2.00321 7.44284 2.00421 7.43473 2.00541 7.42664C2.00661 7.41855 2.00802 7.41048 2.00961 7.40245C2.0112 7.39444 2.01299 7.38645 2.01498 7.37852C2.01697 7.37058 2.01916 7.36269 2.02153 7.35486C2.02391 7.34703 2.02647 7.33925 2.02923 7.33155C2.03198 7.32384 2.03493 7.31622 2.03806 7.30866C2.04119 7.30109 2.0445 7.29361 2.048 7.28622C2.0515 7.27883 2.05518 7.27152 2.05905 7.2643C2.0629 7.25708 2.06693 7.24997 2.07114 7.24295C2.07535 7.23594 2.07972 7.22902 2.08427 7.22222C2.08881 7.21542 2.09352 7.20873 2.09839 7.20216C2.10327 7.19558 2.1083 7.18913 2.1135 7.1828C2.11869 7.17647 2.12403 7.17028 2.12953 7.16422C2.13502 7.15816 2.14066 7.15223 2.14645 7.14645C2.15223 7.14066 2.15816 7.13502 2.16422 7.12953C2.17028 7.12403 2.17647 7.11869 2.1828 7.1135C2.18913 7.1083 2.19558 7.10327 2.20216 7.09839C2.20873 7.09352 2.21542 7.08881 2.22222 7.08427C2.22902 7.07972 2.23593 7.07534 2.24295 7.07114C2.24997 7.06694 2.25709 7.06291 2.2643 7.05905C2.27152 7.05519 2.27882 7.0515 2.28622 7.048C2.29361 7.0445 2.30109 7.04119 2.30866 7.03806C2.31622 7.03492 2.32385 7.03198 2.33156 7.02923C2.33926 7.02647 2.34703 7.02391 2.35486 7.02153C2.36269 7.01916 2.37058 7.01697 2.37852 7.01498C2.38645 7.013 2.39443 7.0112 2.40245 7.00961C2.41048 7.00802 2.41855 7.00661 2.42664 7.00541C2.43473 7.0042 2.44285 7.0032 2.45098 7.00241C2.45913 7.00161 2.46729 7.001 2.47547 7.00061C2.48364 7.0002 2.49181 7 2.5 7C2.50819 7 2.51636 7.0002 2.52453 7.00061C2.53271 7.001 2.54087 7.00161 2.54902 7.00241C2.55715 7.0032 2.56527 7.0042 2.57336 7.00541C2.58145 7.00661 2.58952 7.00802 2.59755 7.00961C2.60557 7.0112 2.61355 7.013 2.62148 7.01498C2.62942 7.01697 2.63731 7.01916 2.64514 7.02153C2.65297 7.02391 2.66074 7.02647 2.66844 7.02923C2.67615 7.03198 2.68378 7.03492 2.69134 7.03806C2.69891 7.04119 2.70639 7.0445 2.71378 7.048C2.72118 7.0515 2.72848 7.05519 2.7357 7.05905C2.74291 7.06291 2.75003 7.06694 2.75705 7.07114C2.76407 7.07534 2.77098 7.07972 2.77778 7.08427C2.78458 7.08881 2.79127 7.09352 2.79784 7.09839C2.80442 7.10327 2.81087 7.1083 2.8172 7.1135C2.82353 7.11869 2.82972 7.12403 2.83578 7.12953C2.84184 7.13502 2.84777 7.14066 2.85355 7.14645C2.85934 7.15223 2.86498 7.15816 2.87047 7.16422C2.87597 7.17028 2.88131 7.17647 2.8865 7.1828C2.8917 7.18913 2.89673 7.19558 2.90161 7.20216C2.90648 7.20873 2.91119 7.21542 2.91573 7.22222C2.92028 7.22902 2.92465 7.23594 2.92886 7.24295C2.93307 7.24997 2.9371 7.25708 2.94095 7.2643C2.94482 7.27152 2.9485 7.27883 2.952 7.28622C2.9555 7.29361 2.95881 7.30109 2.96194 7.30866C2.96507 7.31622 2.96802 7.32384 2.97077 7.33155C2.97353 7.33925 2.97609 7.34703 2.97847 7.35486C2.98084 7.36269 2.98303 7.37058 2.98502 7.37852C2.987 7.38645 2.9888 7.39444 2.99039 7.40245C2.99198 7.41048 2.99339 7.41855 2.99459 7.42664C2.99579 7.43473 2.99679 7.44284 2.99759 7.45098C2.9984 7.45913 2.999 7.4673 2.99939 7.47547C2.9998 7.48364 3 7.49181 3 7.5L3 11.5C3 11.5082 2.9998 11.5164 2.99939 11.5245C2.999 11.5327 2.9984 11.5409 2.99759 11.549C2.99679 11.5572 2.99579 11.5653 2.99459 11.5734C2.99339 11.5815 2.99198 11.5895 2.99039 11.5975C2.9888 11.6056 2.987 11.6135 2.98502 11.6215C2.98303 11.6294 2.98084 11.6373 2.97847 11.6451C2.97609 11.653 2.97353 11.6607 2.97077 11.6684C2.96802 11.6761 2.96507 11.6838 2.96194 11.6913C2.95881 11.6989 2.9555 11.7064 2.952 11.7138C2.9485 11.7212 2.94482 11.7285 2.94095 11.7357C2.9371 11.7429 2.93307 11.75 2.92886 11.757C2.92465 11.7641 2.92028 11.771 2.91573 11.7778C2.91119 11.7846 2.90648 11.7913 2.90161 11.7978C2.89673 11.8044 2.8917 11.8109 2.8865 11.8172C2.88131 11.8235 2.87597 11.8297 2.87047 11.8358C2.86498 11.8418 2.85934 11.8478 2.85355 11.8535C2.84777 11.8593 2.84184 11.865 2.83578 11.8705C2.82972 11.876 2.82353 11.8813 2.8172 11.8865C2.81087 11.8917 2.80442 11.8967 2.79784 11.9016C2.79127 11.9065 2.78458 11.9112 2.77778 11.9157C2.77098 11.9203 2.76407 11.9247 2.75705 11.9289C2.75003 11.9331 2.74291 11.9371 2.7357 11.941C2.72848 11.9448 2.72118 11.9485 2.71378 11.952C2.70639 11.9555 2.69891 11.9588 2.69134 11.9619C2.68378 11.9651 2.67615 11.968 2.66844 11.9708C2.66074 11.9735 2.65297 11.9761 2.64514 11.9785C2.63731 11.9808 2.62942 11.983 2.62148 11.985C2.61355 11.987 2.60557 11.9888 2.59755 11.9904C2.58952 11.992 2.58145 11.9934 2.57336 11.9946C2.56527 11.9958 2.55715 11.9968 2.54902 11.9976C2.54087 11.9984 2.53271 11.999 2.52453 11.9994C2.51636 11.9998 2.50819 12 2.5 12C2.49181 12 2.48364 11.9998 2.47547 11.9994C2.46729 11.999 2.45913 11.9984 2.45098 11.9976C2.44285 11.9968 2.43473 11.9958 2.42664 11.9946C2.41855 11.9934 2.41048 11.992 2.40245 11.9904C2.39443 11.9888 2.38645 11.987 2.37852 11.985C2.37058 11.983 2.36269 11.9808 2.35486 11.9785C2.34703 11.9761 2.33926 11.9735 2.33156 11.9708C2.32385 11.968 2.31622 11.9651 2.30866 11.9619C2.30109 11.9588 2.29361 11.9555 2.28622 11.952C2.27882 11.9485 2.27152 11.9448 2.2643 11.941C2.25709 11.9371 2.24997 11.9331 2.24295 11.9289C2.23593 11.9247 2.22902 11.9203 2.22222 11.9157C2.21542 11.9112 2.20873 11.9065 2.20216 11.9016C2.19558 11.8967 2.18913 11.8917 2.1828 11.8865C2.17647 11.8813 2.17028 11.876 2.16422 11.8705C2.15816 11.865 2.15223 11.8593 2.14645 11.8535C2.14066 11.8478 2.13502 11.8418 2.12953 11.8358C2.12403 11.8297 2.11869 11.8235 2.1135 11.8172C2.1083 11.8109 2.10327 11.8044 2.09839 11.7978C2.09352 11.7913 2.08881 11.7846 2.08427 11.7778C2.07972 11.771 2.07535 11.7641 2.07114 11.757C2.06693 11.75 2.0629 11.7429 2.05905 11.7357C2.05518 11.7285 2.0515 11.7212 2.048 11.7138C2.0445 11.7064 2.04119 11.6989 2.03806 11.6913C2.03493 11.6838 2.03198 11.6761 2.02923 11.6684C2.02647 11.6607 2.02391 11.653 2.02153 11.6451C2.01916 11.6373 2.01697 11.6294 2.01498 11.6215C2.01299 11.6135 2.0112 11.6056 2.00961 11.5975C2.00802 11.5895 2.00661 11.5815 2.00541 11.5734C2.00421 11.5653 2.00321 11.5572 2.00241 11.549C2.0016 11.5409 2.00101 11.5327 2.00061 11.5245C2.0002 11.5164 2 11.5082 2 11.5L2 7.5Z"   fill="#FFFFFF" >
</path>
</svg>
