<svg xmlns="http://www.w3.org/2000/svg" xmlns:xlink="http://www.w3.org/1999/xlink" width="14.004638671875" height="14" viewBox="0 0 14.004638671875 14" fill="none"><path d="M8.48403 9.36835L5.67406 9.36835C5.1023 9.36706 4.63907 8.90402 4.63797 8.33225L4.63797 7.15145C4.63813 6.84044 4.89041 6.58862 5.20143 6.58878C5.51213 6.58894 5.76379 6.84075 5.76411 7.15145L5.76411 8.24156L7.35729 8.24156L4.87281 5.75705L1.12598 5.75705L1.12598 12.8731L8.24204 12.8731L8.24204 10.8057C8.2422 10.4946 8.49445 10.2428 8.80548 10.243C9.11618 10.2431 9.36786 10.495 9.36819 10.8057L9.36819 12.9616C9.36802 13.5341 8.90466 13.9986 8.33209 14L8.33128 13.9993L1.03609 13.9993C0.463703 13.998 0.000313154 13.534 0 12.9616L0 5.66638C0.00125286 5.09462 0.46433 4.63139 1.03609 4.63029L3.74606 4.63029L0.370208 1.25439C0.125437 1.00962 0.125437 0.612629 0.370208 0.367858C0.614979 0.123087 1.01197 0.123087 1.25674 0.367858L5.51917 4.63029L8.33128 4.63029C8.90306 4.63154 9.36626 5.09462 9.36738 5.66638L9.36738 6.84717C9.36722 7.15818 9.11497 7.41001 8.80395 7.40984C8.49325 7.40969 8.24156 7.15787 8.24124 6.84717L8.24124 5.75705L6.64593 5.75705L9.13045 8.24156L12.8802 8.24156L12.8802 1.12551L5.76411 1.12551L5.76411 3.19079C5.76395 3.50181 5.51166 3.75363 5.20065 3.75347C4.88995 3.75331 4.63829 3.5015 4.63797 3.19079L4.63797 1.03609C4.63922 0.46433 5.1023 0.00109622 5.67406 0L12.9685 0C13.5402 0.00125286 14.0034 0.46433 14.0046 1.03609L14.0046 8.33128C14.0039 8.90322 13.5404 9.36674 12.9685 9.36738L12.9685 9.36835L10.2572 9.36835L13.6345 12.7456C13.8792 12.9904 13.8792 13.3873 13.6344 13.6322C13.3896 13.8769 12.9926 13.8769 12.7478 13.6322L8.48403 9.36835Z" fill-rule="evenodd"  fill="#C00000" ></path></svg>