<svg xmlns="http://www.w3.org/2000/svg" xmlns:xlink="http://www.w3.org/1999/xlink" width="12" height="12" viewBox="0 0 12 12" fill="none">
<path d="M10.5014 2.9995L7.12494 2.9995C6.91731 2.9995 6.75 2.8322 6.75 2.62456C6.75 2.41694 6.91731 2.24963 7.12494 2.24963L10.4994 2.24963C10.707 2.24963 10.8743 2.41694 10.8743 2.62456C10.8763 2.8322 10.709 2.9995 10.5014 2.9995Z"   fill="#A6A6A6" >
</path>
<path d="M10.5014 4.87426L7.12494 4.87426C6.91731 4.87426 6.75 4.70695 6.75 4.49932C6.75 4.2917 6.91731 4.12439 7.12494 4.12439L10.4994 4.12439C10.707 4.12439 10.8743 4.2917 10.8743 4.49932C10.8743 4.70695 10.709 4.87426 10.5014 4.87426Z"   fill="#A6A6A6" >
</path>
<path d="M10.5014 7.87573L7.12494 7.87573C6.91731 7.87573 6.75 7.70842 6.75 7.5008C6.75 7.29316 6.91731 7.12585 7.12494 7.12585L10.4994 7.12585C10.707 7.12585 10.8743 7.29316 10.8743 7.5008C10.8743 7.70842 10.709 7.87573 10.5014 7.87573Z"   fill="#A6A6A6" >
</path>
<path d="M10.5014 9.75036L7.12494 9.75036C6.91731 9.75036 6.75 9.58305 6.75 9.37543C6.75 9.1678 6.91731 9.00049 7.12494 9.00049L10.4994 9.00049C10.707 9.00049 10.8743 9.1678 10.8743 9.37543C10.8743 9.58305 10.709 9.75036 10.5014 9.75036Z"   fill="#A6A6A6" >
</path>
<path d="M4.49943 5.62412L2.24981 5.62412C1.62894 5.62412 1.125 5.12017 1.125 4.4993L1.125 2.24969C1.125 1.62882 1.62894 1.12488 2.24981 1.12488L4.49943 1.12488C5.1203 1.12488 5.62424 1.62882 5.62424 2.24969L5.62424 4.4993C5.62424 5.12017 5.1203 5.62412 4.49943 5.62412ZM2.24981 1.87475C2.0442 1.87475 1.87487 2.04407 1.87487 2.24969L1.87487 4.4993C1.87487 4.70492 2.0442 4.87424 2.24981 4.87424L4.49943 4.87424C4.70504 4.87424 4.87437 4.70492 4.87437 4.4993L4.87437 2.24969C4.87437 2.04407 4.70504 1.87475 4.49943 1.87475L2.24981 1.87475Z"   fill="#A6A6A6" >
</path>
<path d="M4.49943 10.8752L2.24981 10.8752C1.62894 10.8752 1.125 10.3712 1.125 9.75034L1.125 7.49871C1.125 6.87784 1.62894 6.3739 2.24981 6.3739L4.49943 6.3739C5.1203 6.3739 5.62424 6.87784 5.62424 7.49871L5.62424 9.74833C5.62424 10.3692 5.1203 10.8752 4.49943 10.8752ZM2.24981 7.12377C2.0442 7.12377 1.87487 7.29108 1.87487 7.49871L1.87487 9.74833C1.87487 9.95596 2.0442 10.1233 2.24981 10.1233L4.49943 10.1233C4.70504 10.1233 4.87437 9.95596 4.87437 9.74833L4.87437 7.49871C4.87437 7.29108 4.70504 7.12377 4.49943 7.12377L2.24981 7.12377Z"   fill="#A6A6A6" >
</path>
</svg>
