<svg xmlns="http://www.w3.org/2000/svg" xmlns:xlink="http://www.w3.org/1999/xlink" width="12" height="12" viewBox="0 0 12 12" fill="none">
<path d="M10.5003 2.9995L7.12381 2.9995C6.91618 2.9995 6.74887 2.8322 6.74887 2.62456C6.74887 2.41694 6.91618 2.24963 7.12381 2.24963L10.4982 2.24963C10.7059 2.24963 10.8732 2.41694 10.8732 2.62456C10.8752 2.8322 10.7079 2.9995 10.5003 2.9995Z"   fill="#FFFFFF" >
</path>
<path d="M10.5003 4.87426L7.12381 4.87426C6.91618 4.87426 6.74887 4.70695 6.74887 4.49932C6.74887 4.2917 6.91618 4.12439 7.12381 4.12439L10.4982 4.12439C10.7059 4.12439 10.8732 4.2917 10.8732 4.49932C10.8732 4.70695 10.7079 4.87426 10.5003 4.87426Z"   fill="#FFFFFF" >
</path>
<path d="M10.5003 7.87573L7.12381 7.87573C6.91618 7.87573 6.74887 7.70842 6.74887 7.5008C6.74887 7.29316 6.91618 7.12585 7.12381 7.12585L10.4982 7.12585C10.7059 7.12585 10.8732 7.29316 10.8732 7.5008C10.8732 7.70842 10.7079 7.87573 10.5003 7.87573Z"   fill="#FFFFFF" >
</path>
<path d="M10.5003 9.75036L7.12381 9.75036C6.91618 9.75036 6.74887 9.58305 6.74887 9.37543C6.74887 9.1678 6.91618 9.00049 7.12381 9.00049L10.4982 9.00049C10.7059 9.00049 10.8732 9.1678 10.8732 9.37543C10.8732 9.58305 10.7079 9.75036 10.5003 9.75036Z"   fill="#FFFFFF" >
</path>
<path d="M4.49924 5.62412L2.24963 5.62412C1.62876 5.62412 1.12482 5.12017 1.12482 4.4993L1.12482 2.24969C1.12482 1.62882 1.62876 1.12488 2.24963 1.12488L4.49924 1.12488C5.12011 1.12488 5.62405 1.62882 5.62405 2.24969L5.62405 4.4993C5.62405 5.12017 5.12011 5.62412 4.49924 5.62412ZM2.24963 1.87475C2.04401 1.87475 1.87469 2.04407 1.87469 2.24969L1.87469 4.4993C1.87469 4.70492 2.04401 4.87424 2.24963 4.87424L4.49924 4.87424C4.70486 4.87424 4.87418 4.70492 4.87418 4.4993L4.87418 2.24969C4.87418 2.04407 4.70486 1.87475 4.49924 1.87475L2.24963 1.87475Z"   fill="#FFFFFF" >
</path>
<path d="M4.49924 10.8752L2.24963 10.8752C1.62876 10.8752 1.12482 10.3712 1.12482 9.75034L1.12482 7.49871C1.12482 6.87784 1.62876 6.3739 2.24963 6.3739L4.49924 6.3739C5.12011 6.3739 5.62405 6.87784 5.62405 7.49871L5.62405 9.74833C5.62405 10.3692 5.12011 10.8752 4.49924 10.8752ZM2.24963 7.12377C2.04401 7.12377 1.87469 7.29108 1.87469 7.49871L1.87469 9.74833C1.87469 9.95596 2.04401 10.1233 2.24963 10.1233L4.49924 10.1233C4.70486 10.1233 4.87418 9.95596 4.87418 9.74833L4.87418 7.49871C4.87418 7.29108 4.70486 7.12377 4.49924 7.12377L2.24963 7.12377Z"   fill="#FFFFFF" >
</path>
</svg>
