<svg xmlns="http://www.w3.org/2000/svg" xmlns:xlink="http://www.w3.org/1999/xlink" width="14" height="14" viewBox="0 0 14 14" fill="none">
<path d="M7 12.8332C6.99069 12.8332 6.98138 12.8329 6.97208 12.8323C6.96279 12.8317 6.95352 12.8308 6.94427 12.8296C6.93503 12.8284 6.92583 12.827 6.91668 12.8252C6.90754 12.8234 6.89846 12.8213 6.88945 12.819C6.88044 12.8166 6.8715 12.814 6.86265 12.8111C6.85381 12.8081 6.84507 12.8049 6.83643 12.8015C6.82779 12.798 6.81927 12.7942 6.81086 12.7902C6.80245 12.7862 6.7942 12.7819 6.78606 12.7773L1.97356 10.0794C1.96935 10.0771 1.96518 10.0746 1.96104 10.0721C1.95691 10.0696 1.95282 10.0671 1.94878 10.0644C1.94472 10.0618 1.94071 10.0591 1.93676 10.0563C1.9328 10.0536 1.92889 10.0507 1.92503 10.0478C1.92116 10.0449 1.91735 10.042 1.91358 10.0389C1.90981 10.0359 1.90609 10.0328 1.90243 10.0297C1.89876 10.0265 1.89515 10.0233 1.8916 10.0201C1.88804 10.0168 1.88453 10.0135 1.88109 10.0101C1.87764 10.0067 1.87425 10.0033 1.87091 9.99975C1.86758 9.99627 1.8643 9.99271 1.86108 9.9891C1.85787 9.98551 1.85471 9.98186 1.85162 9.97814C1.84852 9.97443 1.84549 9.97067 1.84252 9.96686C1.83955 9.96306 1.83664 9.9592 1.83379 9.95529C1.83095 9.95138 1.82818 9.94743 1.82547 9.94344C1.82275 9.93945 1.8201 9.9354 1.81753 9.93131C1.81495 9.92724 1.81244 9.92311 1.81001 9.91892C1.80756 9.91477 1.80519 9.91056 1.80288 9.9063C1.80059 9.90207 1.79835 9.89777 1.79618 9.89345C1.79402 9.88913 1.79194 9.88479 1.78992 9.88038C1.78791 9.87601 1.78597 9.87158 1.7841 9.86712C1.78223 9.86266 1.78043 9.85818 1.77871 9.85367C1.77699 9.84916 1.77534 9.84462 1.77378 9.84005C1.7722 9.83548 1.7707 9.83089 1.76929 9.82627C1.76787 9.82165 1.76652 9.81701 1.76526 9.81235C1.764 9.80769 1.76282 9.803 1.7617 9.7983C1.76059 9.79361 1.75956 9.78889 1.75861 9.78415C1.75766 9.77942 1.75678 9.77466 1.75599 9.7699C1.75519 9.76514 1.75447 9.76036 1.75383 9.75557C1.75319 9.75079 1.75263 9.74599 1.75216 9.74118C1.75168 9.73636 1.75128 9.73155 1.75096 9.72674C1.75064 9.72193 1.7504 9.7171 1.75025 9.71226C1.75008 9.70743 1.75 9.70261 1.75 9.69777L1.75 4.30194C1.75 4.29712 1.75008 4.29229 1.75025 4.28745C1.7504 4.28263 1.75064 4.2778 1.75096 4.27297C1.75128 4.26816 1.75168 4.26335 1.75216 4.25854C1.75263 4.25374 1.75319 4.24894 1.75383 4.24414C1.75447 4.23935 1.75519 4.23458 1.75599 4.22981C1.75678 4.22505 1.75766 4.22031 1.75861 4.21556C1.75956 4.21083 1.76059 4.20612 1.7617 4.20141C1.76282 4.19671 1.764 4.19204 1.76526 4.18736C1.76652 4.18271 1.76787 4.17806 1.76929 4.17344C1.7707 4.16882 1.7722 4.16423 1.77378 4.15966C1.77534 4.15509 1.77699 4.15055 1.77871 4.14604C1.78043 4.14153 1.78223 4.13705 1.7841 4.13259C1.78597 4.12813 1.78791 4.12372 1.78992 4.11933C1.79194 4.11494 1.79402 4.11058 1.79618 4.10626C1.79835 4.10194 1.80059 4.09766 1.80288 4.09341C1.80519 4.08917 1.80756 4.08496 1.81001 4.08079C1.81244 4.07662 1.81495 4.07249 1.81753 4.0684C1.8201 4.06433 1.82275 4.06028 1.82547 4.05627C1.82818 4.05228 1.83095 4.04833 1.83379 4.04442C1.83664 4.04052 1.83955 4.03667 1.84252 4.03285C1.84549 4.02905 1.84852 4.02529 1.85162 4.02157C1.85471 4.01787 1.85787 4.01422 1.86108 4.01061C1.8643 4.007 1.86758 4.00346 1.87091 3.99996C1.87425 3.99646 1.87764 3.99303 1.88109 3.98964C1.88453 3.98626 1.88804 3.98294 1.8916 3.97966C1.89515 3.9764 1.89876 3.97319 1.90243 3.97004C1.90609 3.9669 1.90981 3.96381 1.91358 3.96079C1.91735 3.95777 1.92116 3.9548 1.92503 3.9519C1.92889 3.949 1.9328 3.94617 1.93676 3.9434C1.94071 3.94064 1.94472 3.93793 1.94878 3.93529C1.95282 3.93267 1.95691 3.9301 1.96104 3.92758C1.96518 3.92509 1.96935 3.92266 1.97356 3.92029L6.78606 1.22238C6.79012 1.2201 6.79422 1.21789 6.79835 1.21574C6.8025 1.2136 6.80665 1.21152 6.81085 1.2095C6.81505 1.20749 6.81929 1.20554 6.82355 1.20367C6.8278 1.20179 6.8321 1.19998 6.83642 1.19824C6.84074 1.19649 6.84508 1.19482 6.84946 1.19322C6.85383 1.19162 6.85824 1.19009 6.86265 1.18862C6.86707 1.18716 6.87151 1.18577 6.87598 1.18445C6.88045 1.18313 6.88494 1.18188 6.88945 1.1807C6.89395 1.17953 6.89847 1.17842 6.90301 1.17739C6.90755 1.17636 6.9121 1.1754 6.91668 1.17451C6.92126 1.17362 6.92584 1.17281 6.93044 1.17207C6.93504 1.17133 6.93965 1.17066 6.94427 1.17007C6.94888 1.16948 6.95352 1.16896 6.95815 1.16851C6.96279 1.16807 6.96743 1.16769 6.97208 1.1674C6.97673 1.1671 6.98138 1.16688 6.98603 1.16673C6.99069 1.16658 6.99534 1.1665 7 1.1665C7.00466 1.1665 7.00931 1.16658 7.01397 1.16673C7.01862 1.16688 7.02327 1.1671 7.02792 1.1674C7.03257 1.16769 7.03721 1.16807 7.04185 1.16851C7.04648 1.16896 7.05112 1.16948 7.05573 1.17007C7.06035 1.17066 7.06496 1.17133 7.06956 1.17207C7.07416 1.17281 7.07874 1.17362 7.08332 1.17451C7.08788 1.1754 7.09244 1.17636 7.09699 1.17739C7.10153 1.17842 7.10605 1.17953 7.11055 1.1807C7.11506 1.18188 7.11955 1.18313 7.12402 1.18445C7.12849 1.18577 7.13293 1.18716 7.13735 1.18862C7.14176 1.19009 7.14617 1.19162 7.15054 1.19322C7.15492 1.19482 7.15926 1.19649 7.16358 1.19824C7.1679 1.19998 7.1722 1.20179 7.17645 1.20367C7.18071 1.20554 7.18495 1.20749 7.18915 1.2095C7.19335 1.21152 7.1975 1.2136 7.20165 1.21574C7.20578 1.21789 7.20988 1.2201 7.21394 1.22238L12.0264 3.92029C12.0306 3.92266 12.0348 3.92509 12.039 3.92758C12.0431 3.9301 12.0472 3.93267 12.0512 3.93529C12.0553 3.93793 12.0593 3.94064 12.0632 3.9434C12.0672 3.94617 12.0711 3.949 12.075 3.9519C12.0788 3.9548 12.0827 3.95777 12.0864 3.96079C12.0902 3.96381 12.0939 3.9669 12.0976 3.97004C12.1012 3.97319 12.1048 3.9764 12.1084 3.97967C12.112 3.98294 12.1155 3.98626 12.1189 3.98964C12.1224 3.99303 12.1257 3.99646 12.1291 3.99996C12.1324 4.00346 12.1357 4.007 12.1389 4.01061C12.1421 4.01422 12.1453 4.01787 12.1484 4.02157C12.1515 4.02529 12.1545 4.02905 12.1575 4.03285C12.1604 4.03667 12.1634 4.04052 12.1662 4.04442C12.169 4.04833 12.1718 4.05228 12.1745 4.05627C12.1773 4.06028 12.1799 4.06433 12.1825 4.0684C12.1851 4.07249 12.1876 4.07662 12.19 4.08079C12.1924 4.08496 12.1948 4.08917 12.1971 4.09341C12.1994 4.09766 12.2017 4.10194 12.2038 4.10626C12.206 4.11058 12.2081 4.11494 12.2101 4.11933C12.2121 4.12372 12.214 4.12813 12.2159 4.13259C12.2178 4.13705 12.2196 4.14153 12.2213 4.14604C12.223 4.15055 12.2247 4.15509 12.2262 4.15966C12.2278 4.16424 12.2293 4.16883 12.2307 4.17344C12.2321 4.17806 12.2335 4.18271 12.2347 4.18736C12.236 4.19204 12.2372 4.19671 12.2383 4.20141C12.2394 4.20612 12.2404 4.21083 12.2414 4.21556C12.2423 4.22031 12.2432 4.22505 12.244 4.22981C12.2448 4.23458 12.2455 4.23935 12.2462 4.24414C12.2468 4.24894 12.2474 4.25374 12.2478 4.25854C12.2483 4.26335 12.2487 4.26816 12.249 4.27297C12.2494 4.2778 12.2496 4.28263 12.2498 4.28745C12.2499 4.29229 12.25 4.29712 12.25 4.30194L12.25 9.69777C12.25 9.70261 12.2499 9.70743 12.2498 9.71226C12.2496 9.7171 12.2494 9.72193 12.249 9.72674C12.2487 9.73155 12.2483 9.73636 12.2478 9.74118C12.2474 9.74599 12.2468 9.75079 12.2462 9.75557C12.2455 9.76036 12.2448 9.76514 12.244 9.7699C12.2432 9.77466 12.2423 9.77942 12.2414 9.78415C12.2404 9.78889 12.2394 9.79361 12.2383 9.7983C12.2372 9.803 12.236 9.80769 12.2347 9.81235C12.2335 9.81701 12.2321 9.82165 12.2307 9.82627C12.2293 9.83089 12.2278 9.83548 12.2262 9.84005C12.2247 9.84462 12.223 9.84916 12.2213 9.85367C12.2196 9.85818 12.2178 9.86266 12.2159 9.86712C12.214 9.87158 12.2121 9.87601 12.2101 9.88038C12.2081 9.88479 12.206 9.88913 12.2038 9.89345C12.2017 9.89777 12.1994 9.90207 12.1971 9.9063C12.1948 9.91056 12.1924 9.91477 12.19 9.91892C12.1876 9.92311 12.1851 9.92724 12.1825 9.93131C12.1799 9.9354 12.1773 9.93945 12.1745 9.94344C12.1718 9.94743 12.169 9.95138 12.1662 9.95529C12.1634 9.9592 12.1604 9.96306 12.1575 9.96686C12.1545 9.97067 12.1515 9.97443 12.1484 9.97814C12.1453 9.98186 12.1421 9.98551 12.1389 9.9891C12.1357 9.99271 12.1324 9.99627 12.1291 9.99975C12.1257 10.0033 12.1224 10.0067 12.1189 10.0101C12.1155 10.0135 12.112 10.0168 12.1084 10.02C12.1048 10.0233 12.1012 10.0265 12.0976 10.0297C12.0939 10.0328 12.0902 10.0359 12.0864 10.0389C12.0827 10.042 12.0788 10.0449 12.075 10.0478C12.0711 10.0507 12.0672 10.0536 12.0632 10.0563C12.0593 10.0591 12.0553 10.0618 12.0512 10.0644C12.0472 10.0671 12.0431 10.0696 12.039 10.0721C12.0348 10.0746 12.0306 10.0771 12.0264 10.0794L7.21394 12.7773C7.2058 12.7819 7.19755 12.7862 7.18915 12.7902C7.18074 12.7942 7.17222 12.798 7.16358 12.8015C7.15493 12.805 7.14619 12.8082 7.13735 12.8111C7.1285 12.814 7.11956 12.8167 7.11055 12.819C7.10154 12.8214 7.09246 12.8234 7.08332 12.8252C7.07417 12.827 7.06497 12.8284 7.05573 12.8296C7.04648 12.8308 7.03721 12.8317 7.02792 12.8323C7.01862 12.8329 7.00931 12.8332 7 12.8332ZM2.625 9.44139L7 11.894L11.375 9.44139L11.375 4.55817L7 2.10555L2.625 4.55817L2.625 9.44139Z"   fill="#5380FD" >
</path>
<path d="M7.00033 9.33318C5.71379 9.33318 4.66699 8.28638 4.66699 6.99984C4.66699 5.7133 5.71379 4.6665 7.00033 4.6665C8.28687 4.6665 9.33367 5.7133 9.33367 6.99984C9.33367 8.28638 8.28687 9.33318 7.00033 9.33318ZM7.00033 5.5415C6.19621 5.5415 5.54199 6.19572 5.54199 6.99984C5.54199 7.80397 6.19621 8.45818 7.00033 8.45818C7.80445 8.45818 8.45867 7.80397 8.45867 6.99984C8.45867 6.19572 7.80445 5.5415 7.00033 5.5415Z"   fill="#5380FD" >
</path>
</svg>
