<svg xmlns="http://www.w3.org/2000/svg" xmlns:xlink="http://www.w3.org/1999/xlink" width="15" height="13.12408447265625" viewBox="0 0 15 13.12408447265625" fill="none"><path d="M14.0616 8.43689C14.077 8.43689 14.0923 8.43727 14.1076 8.43802C14.1229 8.43877 14.1382 8.4399 14.1535 8.44141C14.1688 8.44291 14.184 8.44479 14.1991 8.44705C14.2143 8.44929 14.2294 8.45191 14.2445 8.45491C14.2595 8.4579 14.2745 8.46125 14.2894 8.46499C14.3043 8.46872 14.3191 8.47281 14.3337 8.47726C14.3484 8.48172 14.363 8.48652 14.3774 8.49169C14.3919 8.49686 14.4062 8.50238 14.4204 8.50826C14.4345 8.51413 14.4486 8.52034 14.4624 8.5269C14.4763 8.53345 14.49 8.54035 14.5035 8.54758C14.517 8.55482 14.5304 8.56238 14.5436 8.57026C14.5567 8.57815 14.5697 8.58636 14.5824 8.59488C14.5952 8.60341 14.6077 8.61224 14.62 8.62138C14.6324 8.63052 14.6445 8.63995 14.6563 8.64968C14.6682 8.65942 14.6798 8.66944 14.6912 8.67973C14.7025 8.69003 14.7136 8.70061 14.7244 8.71146C14.7353 8.72231 14.7458 8.73342 14.7562 8.74478C14.7665 8.75615 14.7764 8.76776 14.7862 8.77963C14.7961 8.79148 14.8054 8.80358 14.8145 8.8159C14.8237 8.82821 14.8325 8.84077 14.841 8.85353C14.8495 8.86628 14.8577 8.87923 14.8656 8.8924C14.8735 8.90555 14.8812 8.9189 14.8883 8.93243C14.8955 8.94595 14.9024 8.95965 14.909 8.97352C14.9156 8.98739 14.9217 9.00142 14.9276 9.01558C14.9336 9.02976 14.9392 9.04407 14.9443 9.05851C14.9494 9.07296 14.9541 9.08752 14.9586 9.10221C14.9632 9.11688 14.9673 9.13166 14.9709 9.14655C14.9746 9.16143 14.978 9.1764 14.9811 9.19144C14.984 9.20648 14.9866 9.2216 14.9888 9.23677C14.991 9.25195 14.9929 9.26717 14.9945 9.28244C14.996 9.29771 14.9972 9.313 14.9979 9.32833C14.9986 9.34366 14.9991 9.35899 14.9991 9.37433L14.9991 12.1866C14.9991 12.202 14.9986 12.2173 14.9979 12.2326C14.9972 12.248 14.996 12.2632 14.9945 12.2785C14.9929 12.2938 14.991 12.309 14.9888 12.3242C14.9866 12.3394 14.984 12.3545 14.9811 12.3695C14.978 12.3846 14.9746 12.3995 14.9709 12.4144C14.9673 12.4293 14.9632 12.4441 14.9586 12.4587C14.9541 12.4734 14.9494 12.488 14.9443 12.5024C14.9392 12.5169 14.9336 12.5312 14.9276 12.5454C14.9217 12.5595 14.9156 12.5736 14.909 12.5874C14.9024 12.6013 14.8955 12.615 14.8883 12.6285C14.8812 12.6421 14.8735 12.6554 14.8656 12.6686C14.8577 12.6817 14.8495 12.6947 14.841 12.7074C14.8325 12.7202 14.8237 12.7327 14.8145 12.7451C14.8054 12.7574 14.7961 12.7695 14.7862 12.7813C14.7764 12.7932 14.7665 12.8048 14.7562 12.8162C14.7458 12.8275 14.7353 12.8386 14.7244 12.8495C14.7136 12.8603 14.7025 12.8709 14.6912 12.8812C14.6798 12.8915 14.6682 12.9015 14.6563 12.9113C14.6445 12.921 14.6324 12.9304 14.62 12.9396C14.6077 12.9487 14.5952 12.9575 14.5824 12.9661C14.5697 12.9746 14.5567 12.9828 14.5436 12.9907C14.5304 12.9986 14.517 13.0061 14.5035 13.0134C14.49 13.0206 14.4763 13.0275 14.4624 13.034C14.4485 13.0406 14.4345 13.0468 14.4204 13.0527C14.4062 13.0586 14.3919 13.0641 14.3774 13.0693C14.363 13.0744 14.3484 13.0792 14.3337 13.0837C14.319 13.0881 14.3043 13.0922 14.2894 13.096C14.2745 13.0997 14.2595 13.1031 14.2445 13.106C14.2294 13.109 14.2143 13.1117 14.1991 13.1139C14.184 13.1162 14.1688 13.118 14.1535 13.1195C14.1382 13.1211 14.1229 13.1222 14.1076 13.1229C14.0923 13.1237 14.0769 13.1241 14.0616 13.1241L11.2493 13.1241C11.234 13.1241 11.2186 13.1237 11.2033 13.1229C11.188 13.1222 11.1727 13.1211 11.1574 13.1195C11.1422 13.118 11.1269 13.1162 11.1118 13.1139C11.0966 13.1117 11.0815 13.109 11.0664 13.106C11.0514 13.1031 11.0364 13.0997 11.0215 13.096C11.0067 13.0922 10.9919 13.0881 10.9772 13.0837C10.9625 13.0792 10.9479 13.0744 10.9335 13.0693C10.9191 13.0641 10.9047 13.0586 10.8906 13.0527C10.8764 13.0468 10.8624 13.0406 10.8485 13.034C10.8346 13.0275 10.8209 13.0206 10.8074 13.0134C10.7939 13.0061 10.7805 12.9986 10.7674 12.9907C10.7542 12.9828 10.7413 12.9746 10.7285 12.9661C10.7157 12.9575 10.7032 12.9487 10.6909 12.9396C10.6786 12.9304 10.6665 12.921 10.6546 12.9113C10.6427 12.9015 10.6311 12.8915 10.6198 12.8812C10.6084 12.8709 10.5973 12.8603 10.5864 12.8495C10.5756 12.8386 10.565 12.8275 10.5547 12.8162C10.5444 12.8048 10.5344 12.7932 10.5247 12.7813C10.5149 12.7695 10.5055 12.7574 10.4964 12.7451C10.4872 12.7327 10.4784 12.7202 10.4699 12.7074C10.4613 12.6947 10.4531 12.6817 10.4453 12.6686C10.4374 12.6554 10.4298 12.6421 10.4226 12.6285C10.4153 12.615 10.4084 12.6013 10.4019 12.5874C10.3953 12.5736 10.3891 12.5595 10.3832 12.5454C10.3774 12.5312 10.3718 12.5169 10.3667 12.5024C10.3615 12.488 10.3567 12.4734 10.3522 12.4587C10.3478 12.4441 10.3437 12.4293 10.34 12.4144C10.3363 12.3995 10.3329 12.3846 10.3299 12.3695C10.3269 12.3545 10.3243 12.3394 10.322 12.3242C10.3198 12.309 10.3179 12.2938 10.3164 12.2785C10.3149 12.2632 10.3138 12.248 10.313 12.2326C10.3122 12.2173 10.3119 12.202 10.3119 12.1866L10.3119 9.37433C10.3119 9.35899 10.3122 9.34366 10.313 9.32833C10.3138 9.313 10.3149 9.29771 10.3164 9.28244C10.3179 9.26717 10.3198 9.25195 10.322 9.23677C10.3243 9.2216 10.3269 9.20648 10.3299 9.19144C10.3329 9.1764 10.3363 9.16143 10.34 9.14655C10.3437 9.13166 10.3478 9.11688 10.3522 9.10221C10.3567 9.08752 10.3615 9.07296 10.3667 9.05851C10.3718 9.04407 10.3774 9.02976 10.3832 9.01558C10.3891 9.00142 10.3953 8.9874 10.4019 8.97353C10.4084 8.95966 10.4153 8.94595 10.4226 8.93243C10.4298 8.9189 10.4374 8.90555 10.4453 8.89238C10.4531 8.87923 10.4613 8.86627 10.4699 8.85351C10.4784 8.84075 10.4872 8.82821 10.4964 8.8159C10.5055 8.80358 10.5149 8.79148 10.5247 8.77963C10.5344 8.76776 10.5444 8.75615 10.5547 8.74478C10.565 8.73342 10.5756 8.72231 10.5865 8.71146C10.5973 8.70061 10.6084 8.69003 10.6198 8.67973C10.6311 8.66944 10.6427 8.65942 10.6546 8.64968C10.6665 8.63995 10.6786 8.63052 10.6909 8.62138C10.7032 8.61224 10.7158 8.60341 10.7285 8.59488C10.7413 8.58636 10.7542 8.57815 10.7674 8.57026C10.7805 8.56238 10.7939 8.55482 10.8074 8.54758C10.8209 8.54035 10.8346 8.53345 10.8485 8.5269C10.8624 8.52034 10.8764 8.51413 10.8906 8.50826C10.9047 8.50238 10.9191 8.49686 10.9335 8.49169C10.9479 8.48652 10.9625 8.48172 10.9772 8.47726C10.9919 8.47281 11.0067 8.46872 11.0215 8.46499C11.0364 8.46125 11.0514 8.4579 11.0664 8.45491C11.0815 8.45191 11.0966 8.44929 11.1118 8.44705C11.1269 8.44479 11.1422 8.44291 11.1574 8.44141C11.1727 8.4399 11.188 8.43877 11.2033 8.43802C11.2186 8.43727 11.234 8.43689 11.2493 8.43689L14.0616 8.43689ZM2.76647 7.50227C2.81187 7.50198 2.85725 7.50282 2.9026 7.50476C2.94796 7.50671 2.99325 7.50979 3.03845 7.51398C3.08366 7.51818 3.12874 7.52348 3.17369 7.52991C3.21862 7.53634 3.26338 7.54389 3.30795 7.55253C3.35251 7.56117 3.39685 7.57091 3.44092 7.58177C3.48501 7.5926 3.5288 7.60453 3.57229 7.61753C3.6158 7.63054 3.65893 7.64462 3.70173 7.65978C3.74453 7.67492 3.78694 7.69112 3.82894 7.70836C3.87092 7.7256 3.91246 7.74388 3.95355 7.76319C3.99465 7.78249 4.03524 7.80281 4.07531 7.82412C4.1154 7.84543 4.15494 7.86774 4.19393 7.89102C4.23289 7.91429 4.27127 7.9385 4.30904 7.96368C4.34683 7.98886 4.38396 8.01496 4.42046 8.04197C4.45694 8.069 4.49273 8.0969 4.52783 8.12568C4.56294 8.15446 4.59732 8.18411 4.63096 8.21459C4.66459 8.24509 4.69746 8.27639 4.72954 8.30851C4.76162 8.34063 4.79289 8.37352 4.82334 8.40719C4.85381 8.44086 4.88341 8.47526 4.91216 8.5104C4.94092 8.54553 4.96879 8.58135 4.99576 8.61786C5.02274 8.65438 5.04879 8.69154 5.07393 8.72934C5.09906 8.76715 5.12326 8.80555 5.14649 8.84456C5.16972 8.88357 5.19199 8.92311 5.21325 8.96322C5.23454 9.00332 5.25481 9.04393 5.27406 9.08504C5.29333 9.12616 5.31157 9.16771 5.32876 9.20973C5.34597 9.25174 5.36213 9.29415 5.37723 9.33696C5.39235 9.37978 5.40638 9.42294 5.41933 9.46644C5.43231 9.50996 5.44418 9.55376 5.45499 9.59786C5.46578 9.64196 5.47547 9.6863 5.48407 9.73087C5.49268 9.77545 5.50017 9.82021 5.50654 9.86516C5.51293 9.91011 5.5182 9.95518 5.52236 10.0004C5.5265 10.0456 5.52952 10.0909 5.53142 10.1363C5.53334 10.1816 5.53412 10.227 5.53377 10.2724C5.53419 10.318 5.53349 10.3635 5.53166 10.4091C5.52983 10.4546 5.52687 10.5001 5.52281 10.5455C5.51873 10.5909 5.51353 10.6361 5.50721 10.6813C5.50091 10.7264 5.49349 10.7713 5.48496 10.8161C5.47644 10.8609 5.46681 10.9054 5.45609 10.9497C5.44537 10.994 5.43355 11.038 5.42066 11.0817C5.40777 11.1255 5.3938 11.1688 5.37877 11.2118C5.36374 11.2549 5.34764 11.2975 5.33051 11.3397C5.31338 11.382 5.29521 11.4237 5.276 11.4651C5.2568 11.5064 5.23659 11.5473 5.21536 11.5876C5.19415 11.6279 5.17196 11.6677 5.14879 11.707C5.12562 11.7462 5.10148 11.7848 5.07639 11.8229C5.05131 11.8609 5.0253 11.8983 4.99836 11.9351C4.97144 11.9719 4.94361 12.008 4.9149 12.0434C4.88619 12.0788 4.85662 12.1134 4.8262 12.1474C4.79577 12.1813 4.76453 12.2145 4.73248 12.2469C4.70042 12.2793 4.66758 12.3109 4.63396 12.3416C4.60035 12.3724 4.566 12.4023 4.53089 12.4314C4.4958 12.4605 4.46001 12.4887 4.42353 12.516C4.38705 12.5433 4.34991 12.5697 4.31213 12.5952C4.27433 12.6207 4.23594 12.6452 4.19696 12.6688C4.15795 12.6924 4.11839 12.715 4.07827 12.7366C4.03817 12.7583 3.99754 12.7789 3.95642 12.7985C3.91528 12.8182 3.87369 12.8368 3.83164 12.8543C3.78959 12.8719 3.74712 12.8885 3.70427 12.9039C3.66141 12.9194 3.61818 12.9338 3.57461 12.9472C3.53103 12.9605 3.48715 12.9728 3.44296 12.984C3.39878 12.9952 3.35435 13.0053 3.30967 13.0143C3.26499 13.0233 3.22011 13.0311 3.17506 13.0379C3.12999 13.0447 3.08477 13.0504 3.03944 13.0549C2.99407 13.0595 2.94864 13.0629 2.90313 13.0652C2.8576 13.0675 2.81205 13.0687 2.76647 13.0687C2.72091 13.0687 2.67537 13.0675 2.62988 13.0652C2.58437 13.0628 2.53895 13.0594 2.4936 13.0548C2.44827 13.0503 2.40306 13.0446 2.358 13.0378C2.31294 13.031 2.26809 13.0231 2.22341 13.0141C2.17876 13.0051 2.13433 12.995 2.09017 12.9838C2.04599 12.9726 2.00212 12.9603 1.95856 12.947C1.915 12.9336 1.87179 12.9192 1.82893 12.9037C1.78609 12.8882 1.74364 12.8717 1.7016 12.8541C1.65956 12.8365 1.61799 12.8179 1.57686 12.7982C1.53576 12.7786 1.49515 12.758 1.45505 12.7363C1.41495 12.7147 1.37541 12.6921 1.33642 12.6685C1.29744 12.6449 1.25906 12.6203 1.22128 12.5949C1.18351 12.5694 1.14639 12.543 1.10992 12.5157C1.07344 12.4883 1.03767 12.4602 1.00259 12.4311C0.967507 12.402 0.933165 12.3721 0.899561 12.3413C0.865957 12.3105 0.833132 12.2789 0.801085 12.2465C0.769038 12.2141 0.737809 12.181 0.7074 12.147C0.676991 12.1131 0.647435 12.0785 0.618735 12.0431C0.590035 12.0077 0.562224 11.9716 0.535303 11.9348C0.508383 11.8981 0.482385 11.8606 0.45731 11.8226C0.432236 11.7846 0.408113 11.7459 0.384944 11.7067C0.361776 11.6674 0.339588 11.6277 0.318381 11.5873C0.297175 11.547 0.276976 11.5062 0.257784 11.4648C0.238591 11.4235 0.22043 11.3817 0.203298 11.3395C0.186167 11.2973 0.170087 11.2547 0.155059 11.2117C0.14003 11.1686 0.12607 11.1253 0.113181 11.0816C0.100291 11.0379 0.0884862 10.9939 0.0777669 10.9496C0.0670477 10.9053 0.0574265 10.8608 0.0489037 10.816C0.0403808 10.7712 0.0329666 10.7263 0.026661 10.6812C0.0203553 10.636 0.0151659 10.5908 0.0110929 10.5454C0.00701978 10.5 0.0040679 10.4546 0.00223724 10.409C0.000406606 10.3635 -0.000300585 10.318 0.000115674 10.2724C-0.000225665 10.227 0.000556453 10.1816 0.00246202 10.1363C0.00436759 10.0909 0.00739428 10.0457 0.0115421 10.0005C0.01569 9.95526 0.0209538 9.91019 0.0273336 9.86525C0.0337135 9.82031 0.0412016 9.77556 0.0497979 9.73099C0.0583942 9.68642 0.0680882 9.6421 0.07888 9.59801C0.0896716 9.55392 0.101548 9.51012 0.114508 9.46662C0.127469 9.42312 0.141498 9.37997 0.156595 9.33717C0.171694 9.29435 0.187841 9.25195 0.205039 9.20995C0.222236 9.16795 0.240463 9.12639 0.25972 9.08529C0.278976 9.04418 0.299237 9.00357 0.320504 8.96348C0.34177 8.92338 0.364015 8.88383 0.38724 8.84484C0.410467 8.80583 0.434642 8.76744 0.45977 8.72964C0.484896 8.69183 0.510943 8.65469 0.537911 8.61817C0.564878 8.58165 0.592731 8.54584 0.621473 8.51072C0.650214 8.47558 0.679806 8.44119 0.71025 8.40753C0.740695 8.37385 0.771955 8.34097 0.804029 8.30885C0.836102 8.27672 0.86895 8.24542 0.902575 8.21493C0.936198 8.18445 0.970556 8.1548 1.00565 8.12602C1.04074 8.09724 1.07652 8.06933 1.113 8.04231C1.14947 8.01528 1.18659 7.9892 1.22436 7.96402C1.26212 7.93884 1.30049 7.91461 1.33946 7.89134C1.37842 7.86806 1.41794 7.84576 1.45801 7.82443C1.49809 7.80312 1.53865 7.7828 1.57972 7.76348C1.62081 7.74418 1.66233 7.7259 1.70431 7.70864C1.74629 7.69139 1.78868 7.67519 1.83147 7.66003C1.87425 7.64487 1.91739 7.63078 1.96086 7.61775C2.00435 7.60473 2.04813 7.59281 2.09219 7.58196C2.13628 7.5711 2.18059 7.56135 2.22514 7.55269C2.2697 7.54403 2.31445 7.53648 2.35937 7.53005C2.40431 7.5236 2.44937 7.51827 2.49455 7.51407C2.53975 7.50986 2.58501 7.50677 2.63036 7.50481C2.67571 7.50283 2.72109 7.502 2.76647 7.50227ZM8.03485 11.1667L8.03485 12.3601L7.1349 12.3601C7.1262 12.3599 7.11749 12.3597 7.10879 12.3592C7.10009 12.3587 7.0914 12.358 7.08272 12.3571C7.07404 12.3563 7.0654 12.3552 7.05677 12.3539C7.04816 12.3527 7.03956 12.3512 7.031 12.3496C7.02246 12.3479 7.01393 12.3461 7.00544 12.3441C6.99697 12.3421 6.98853 12.3399 6.98017 12.3375C6.97178 12.3351 6.96346 12.3325 6.95518 12.3297C6.94692 12.3269 6.93873 12.324 6.9306 12.3209C6.92246 12.3177 6.9144 12.3144 6.90642 12.311C6.89842 12.3075 6.89051 12.3038 6.88269 12.3C6.87485 12.2961 6.86712 12.2921 6.85947 12.2879C6.85183 12.2837 6.84429 12.2794 6.83684 12.2749C6.82939 12.2703 6.82204 12.2656 6.8148 12.2608C6.80755 12.256 6.80042 12.251 6.7934 12.2458C6.78637 12.2406 6.77947 12.2353 6.77269 12.2298C6.76591 12.2244 6.75924 12.2187 6.7527 12.213C6.74618 12.2072 6.73976 12.2013 6.73349 12.1952C6.72724 12.1892 6.7211 12.183 6.71511 12.1767C6.7091 12.1704 6.70326 12.1639 6.69753 12.1573C6.69182 12.1507 6.68627 12.144 6.68085 12.1372C6.67544 12.1303 6.67019 12.1234 6.66509 12.1163C6.65999 12.1092 6.65504 12.1021 6.65028 12.0948C6.64549 12.0875 6.64088 12.0801 6.63641 12.0726C6.63197 12.0651 6.62768 12.0575 6.62356 12.0498C6.61945 12.0422 6.61551 12.0344 6.61173 12.0265C6.60796 12.0187 6.60438 12.0107 6.60096 12.0027C6.59754 11.9947 6.5943 11.9866 6.59125 11.9785C6.58819 11.9703 6.58532 11.9621 6.58261 11.9538C6.57993 11.9455 6.57742 11.9371 6.5751 11.9287C6.57278 11.9203 6.57066 11.9119 6.56871 11.9034C6.56678 11.8949 6.56502 11.8864 6.56347 11.8778C6.56188 11.8692 6.56051 11.8606 6.55932 11.852L6.55276 11.7638C6.55276 11.4639 6.76837 11.2164 7.04961 11.1733L7.13586 11.1676L8.03579 11.1667L8.03485 11.1667ZM13.5929 9.37433L11.718 9.37433C11.7112 9.37433 11.7044 9.37447 11.6977 9.37477C11.6909 9.37506 11.6841 9.3755 11.6774 9.37609C11.6706 9.37667 11.6638 9.3774 11.6571 9.37828C11.6504 9.37916 11.6437 9.38019 11.637 9.38136C11.6303 9.38253 11.6236 9.38385 11.617 9.38531C11.6104 9.38676 11.6038 9.38837 11.5972 9.39012C11.5907 9.39186 11.5842 9.39375 11.5777 9.39579C11.5712 9.39782 11.5648 9.39999 11.5584 9.4023C11.552 9.4046 11.5457 9.40705 11.5394 9.40964C11.5331 9.41223 11.5269 9.41494 11.5207 9.4178C11.5146 9.42066 11.5085 9.42365 11.5025 9.42676C11.4964 9.42988 11.4905 9.43312 11.4846 9.43651C11.4787 9.43989 11.4729 9.44339 11.4671 9.44702C11.4614 9.45065 11.4558 9.4544 11.4502 9.45829C11.4446 9.46217 11.4391 9.46617 11.4337 9.47028C11.4283 9.4744 11.423 9.47862 11.4178 9.48297C11.4126 9.48732 11.4075 9.49177 11.4025 9.49634C11.3974 9.50091 11.3925 9.50558 11.3877 9.51036C11.3829 9.51515 11.3782 9.52002 11.3736 9.52502C11.369 9.53 11.3645 9.53508 11.3601 9.54027C11.3557 9.54545 11.3514 9.55073 11.3473 9.55609C11.3431 9.56146 11.3391 9.56691 11.3352 9.57246C11.3312 9.578 11.3274 9.58362 11.3238 9.58934C11.3201 9.59503 11.3165 9.60082 11.3131 9.60669C11.3097 9.61255 11.3064 9.61848 11.3032 9.62449C11.3001 9.6305 11.297 9.63657 11.2941 9.64271C11.2912 9.64885 11.2885 9.65504 11.2858 9.6613C11.2832 9.66755 11.2807 9.67387 11.2783 9.68022C11.276 9.68659 11.2738 9.69301 11.2717 9.69947C11.2696 9.70593 11.2677 9.71243 11.2659 9.71898C11.2641 9.72553 11.2624 9.73212 11.2609 9.73872C11.2594 9.74535 11.258 9.752 11.2568 9.75867L11.2493 9.84304L11.2493 11.7179C11.2493 11.7247 11.2495 11.7315 11.2498 11.7383C11.25 11.7451 11.2505 11.7518 11.2511 11.7586C11.2517 11.7653 11.2524 11.7721 11.2533 11.7788C11.2541 11.7856 11.2552 11.7923 11.2563 11.799C11.2575 11.8056 11.2588 11.8123 11.2603 11.8189C11.2618 11.8256 11.2634 11.8321 11.2651 11.8387C11.2668 11.8453 11.2687 11.8518 11.2708 11.8583C11.2728 11.8647 11.275 11.8712 11.2773 11.8776C11.2796 11.8839 11.282 11.8903 11.2846 11.8965C11.2872 11.9028 11.2899 11.909 11.2928 11.9152C11.2956 11.9214 11.2986 11.9275 11.3017 11.9335C11.3049 11.9395 11.3081 11.9455 11.3115 11.9514C11.3149 11.9572 11.3184 11.9631 11.322 11.9688C11.3256 11.9745 11.3294 11.9802 11.3333 11.9858C11.3371 11.9913 11.3411 11.9968 11.3453 12.0022C11.3494 12.0076 11.3536 12.0129 11.3579 12.0181C11.3623 12.0234 11.3668 12.0285 11.3713 12.0335C11.3759 12.0385 11.3806 12.0434 11.3854 12.0482C11.3901 12.0531 11.395 12.0578 11.4 12.0624C11.405 12.067 11.4101 12.0715 11.4153 12.0759C11.4204 12.0802 11.4257 12.0845 11.4311 12.0887C11.4364 12.0928 11.4419 12.0969 11.4474 12.1008C11.453 12.1047 11.4586 12.1085 11.4643 12.1122C11.47 12.1159 11.4758 12.1194 11.4817 12.1228C11.4875 12.1262 11.4935 12.1295 11.4995 12.1327C11.5055 12.1359 11.5116 12.1389 11.5177 12.1418C11.5238 12.1447 11.53 12.1475 11.5363 12.1501C11.5425 12.1527 11.5489 12.1552 11.5552 12.1576C11.5616 12.16 11.568 12.1622 11.5745 12.1642C11.5809 12.1663 11.5874 12.1683 11.594 12.1701C11.6005 12.1719 11.6071 12.1735 11.6137 12.175C11.6203 12.1765 11.627 12.1779 11.6336 12.1791L11.718 12.1866L13.5929 12.1866C13.5997 12.1866 13.6065 12.1865 13.6133 12.1862C13.62 12.1859 13.6268 12.1855 13.6336 12.1849C13.6403 12.1843 13.6471 12.1835 13.6538 12.1827C13.6605 12.1818 13.6672 12.1808 13.6739 12.1796C13.6806 12.1784 13.6873 12.1771 13.6939 12.1756C13.7005 12.1742 13.7071 12.1726 13.7137 12.1708C13.7203 12.1691 13.7268 12.1672 13.7333 12.1652C13.7397 12.1631 13.7461 12.161 13.7526 12.1586C13.7589 12.1563 13.7652 12.1539 13.7715 12.1513C13.7778 12.1487 13.784 12.146 13.7902 12.1432C13.7963 12.1403 13.8024 12.1373 13.8085 12.1342C13.8145 12.1311 13.8205 12.1278 13.8263 12.1244C13.8322 12.1211 13.838 12.1176 13.8438 12.1139C13.8495 12.1103 13.8552 12.1065 13.8607 12.1027C13.8663 12.0988 13.8718 12.0948 13.8772 12.0907C13.8826 12.0866 13.8879 12.0823 13.8931 12.078C13.8983 12.0736 13.9034 12.0692 13.9085 12.0646C13.9135 12.0601 13.9184 12.0554 13.9232 12.0506C13.928 12.0458 13.9328 12.0409 13.9374 12.0359C13.942 12.031 13.9465 12.0259 13.9509 12.0207C13.9552 12.0155 13.9595 12.0102 13.9636 12.0049C13.9678 11.9995 13.9719 11.994 13.9758 11.9885C13.9797 11.983 13.9835 11.9773 13.9872 11.9716C13.9908 11.9659 13.9944 11.9601 13.9978 11.9543C14.0012 11.9484 14.0045 11.9425 14.0077 11.9365C14.0109 11.9305 14.0139 11.9244 14.0168 11.9182C14.0197 11.9121 14.0225 11.9059 14.0251 11.8997C14.0277 11.8934 14.0302 11.8871 14.0326 11.8807C14.0349 11.8744 14.0372 11.8679 14.0392 11.8615C14.0413 11.855 14.0433 11.8485 14.0451 11.842C14.0468 11.8354 14.0485 11.8288 14.05 11.8222C14.0515 11.8156 14.0529 11.809 14.0541 11.8023L14.0616 11.7179L14.0616 9.84304C14.0616 9.83537 14.0614 9.82771 14.0611 9.82005C14.0607 9.81239 14.0601 9.80473 14.0594 9.79709C14.0586 9.78946 14.0577 9.78186 14.0565 9.77427C14.0554 9.76669 14.0541 9.75913 14.0526 9.7516C14.0511 9.74409 14.0494 9.7366 14.0476 9.72916C14.0457 9.72172 14.0437 9.71432 14.0414 9.70698C14.0392 9.69965 14.0368 9.69235 14.0342 9.68513C14.0316 9.67791 14.0289 9.67076 14.0259 9.66367C14.023 9.65658 14.0199 9.64957 14.0166 9.64264C14.0133 9.63571 14.0099 9.62885 14.0063 9.62209C14.0026 9.61534 13.9989 9.60866 13.9949 9.60208C13.991 9.5955 13.9869 9.58901 13.9826 9.58264C13.9784 9.57627 13.9739 9.57 13.9694 9.56384C13.9648 9.55767 13.9601 9.55162 13.9552 9.54569C13.9503 9.53975 13.9453 9.53395 13.9402 9.52827C13.935 9.52259 13.9298 9.51704 13.9243 9.51162C13.9189 9.50618 13.9133 9.5009 13.9077 9.49575C13.902 9.4906 13.8962 9.48559 13.8903 9.48073C13.8843 9.47585 13.8783 9.47113 13.8721 9.46656C13.8659 9.46199 13.8597 9.45758 13.8533 9.45332C13.8469 9.44906 13.8404 9.44496 13.8339 9.44102C13.8273 9.43708 13.8206 9.4333 13.8138 9.42968C13.8071 9.42606 13.8002 9.4226 13.7933 9.41932C13.7864 9.41604 13.7794 9.41294 13.7723 9.41001C13.7652 9.40706 13.758 9.40431 13.7508 9.40173C13.7436 9.39914 13.7363 9.39674 13.729 9.39451C13.7216 9.39228 13.7142 9.39023 13.7068 9.38837C13.6994 9.38651 13.6919 9.38483 13.6843 9.38334C13.6768 9.38184 13.6693 9.38052 13.6617 9.3794C13.6541 9.37827 13.6465 9.37733 13.6388 9.37658C13.6312 9.37584 13.6236 9.37526 13.6159 9.3749C13.6082 9.37452 13.6006 9.37433 13.5929 9.37433ZM2.76647 8.68063C1.88341 8.68063 1.16441 9.36777 1.16441 10.2724C1.16441 11.177 1.88341 11.8857 2.76742 11.8857C3.65047 11.8857 4.36854 11.177 4.36854 10.2733C4.36854 9.36777 3.65047 8.68156 2.76647 8.68156L2.76647 8.68063ZM12.9001 6.56203C12.9078 6.56203 12.9155 6.56222 12.9231 6.5626C12.9308 6.56297 12.9384 6.56354 12.9461 6.56428C12.9537 6.56503 12.9613 6.56597 12.9689 6.5671C12.9765 6.56822 12.984 6.56954 12.9916 6.57104C12.9991 6.57253 13.0066 6.57422 13.014 6.57608C13.0215 6.57794 13.0289 6.57999 13.0362 6.58221C13.0435 6.58444 13.0508 6.58684 13.058 6.58943C13.0653 6.59201 13.0724 6.59477 13.0795 6.59771C13.0866 6.60064 13.0936 6.60374 13.1005 6.60703C13.1075 6.61031 13.1143 6.61376 13.1211 6.61738C13.1279 6.621 13.1345 6.62478 13.1411 6.62872C13.1477 6.63266 13.1542 6.63676 13.1605 6.64102C13.1669 6.64528 13.1732 6.64969 13.1794 6.65426C13.1855 6.65883 13.1916 6.66355 13.1975 6.66843C13.2034 6.67329 13.2092 6.6783 13.2149 6.68346C13.2206 6.6886 13.2261 6.69388 13.2316 6.69932C13.237 6.70474 13.2423 6.71029 13.2474 6.71597C13.2526 6.72166 13.2576 6.72746 13.2625 6.73339C13.2673 6.73932 13.272 6.74537 13.2766 6.75154C13.2812 6.7577 13.2856 6.76397 13.2899 6.77034C13.2941 6.77672 13.2982 6.7832 13.3022 6.78978C13.3061 6.79636 13.3099 6.80302 13.3135 6.80979C13.3171 6.81656 13.3206 6.82341 13.3239 6.83034C13.3271 6.83727 13.3302 6.84428 13.3332 6.85137C13.3361 6.85846 13.3389 6.86561 13.3415 6.87283C13.344 6.88005 13.3464 6.88735 13.3487 6.89469C13.3509 6.90202 13.3529 6.90942 13.3548 6.91686C13.3567 6.9243 13.3583 6.93179 13.3599 6.9393C13.3613 6.94683 13.3627 6.95439 13.3638 6.96198C13.3649 6.96956 13.3658 6.97717 13.3666 6.9848C13.3673 6.99243 13.3679 7.00009 13.3683 7.00775C13.3687 7.01541 13.3688 7.02307 13.3688 7.03075C13.3688 7.03842 13.3687 7.04608 13.3683 7.05374C13.3679 7.0614 13.3673 7.06906 13.3666 7.07669C13.3658 7.08433 13.3649 7.09193 13.3638 7.09951C13.3627 7.1071 13.3613 7.11466 13.3598 7.12219C13.3583 7.1297 13.3567 7.13719 13.3548 7.14463C13.3529 7.15207 13.3509 7.15947 13.3486 7.1668C13.3464 7.17414 13.344 7.18142 13.3415 7.18864C13.3389 7.19587 13.3361 7.20303 13.3332 7.21012C13.3302 7.21721 13.3271 7.22422 13.3239 7.23115C13.3206 7.23808 13.3171 7.24493 13.3135 7.2517C13.3099 7.25845 13.3061 7.26513 13.3022 7.27171C13.2982 7.27829 13.2941 7.28477 13.2899 7.29115C13.2856 7.29752 13.2812 7.30379 13.2766 7.30995C13.272 7.31612 13.2673 7.32217 13.2625 7.3281C13.2576 7.33403 13.2526 7.33983 13.2474 7.34552C13.2423 7.3512 13.237 7.35675 13.2316 7.36217C13.2261 7.36761 13.2206 7.37289 13.2149 7.37804C13.2092 7.38319 13.2034 7.3882 13.1975 7.39306C13.1916 7.39794 13.1855 7.40266 13.1794 7.40723C13.1732 7.4118 13.1669 7.41621 13.1605 7.42047C13.1542 7.42473 13.1477 7.42883 13.1411 7.43277C13.1345 7.43671 13.1279 7.44049 13.1211 7.44411C13.1143 7.44773 13.1075 7.45118 13.1005 7.45446C13.0936 7.45773 13.0866 7.46084 13.0795 7.46378C13.0724 7.46672 13.0653 7.46948 13.058 7.47206C13.0508 7.47465 13.0435 7.47705 13.0362 7.47928C13.0289 7.4815 13.0215 7.48355 13.014 7.48541C13.0066 7.48728 12.9991 7.48896 12.9916 7.49045C12.984 7.49195 12.9765 7.49327 12.9689 7.49439C12.9613 7.49552 12.9537 7.49646 12.9461 7.49721C12.9384 7.49795 12.9308 7.49852 12.9231 7.49889C12.9155 7.49927 12.9078 7.49946 12.9001 7.49946L9.84316 7.49946C9.83549 7.49946 9.82783 7.49965 9.82017 7.50003C9.8125 7.5004 9.80486 7.50097 9.79723 7.50172C9.78958 7.50246 9.78198 7.5034 9.77438 7.50453C9.7668 7.50566 9.75925 7.50698 9.75173 7.50847C9.7442 7.50996 9.73672 7.51165 9.72928 7.51351C9.72184 7.51537 9.71444 7.51742 9.7071 7.51965C9.69976 7.52187 9.69248 7.52427 9.68526 7.52687C9.67803 7.52944 9.67088 7.5322 9.66379 7.53514C9.6567 7.53809 9.6497 7.54119 9.64277 7.54446C9.63583 7.54774 9.62897 7.5512 9.62222 7.55481C9.61545 7.55843 9.60877 7.56221 9.6022 7.56615C9.59561 7.57009 9.58913 7.57419 9.58276 7.57845C9.57637 7.58272 9.57011 7.58713 9.56394 7.5917C9.55779 7.59627 9.55174 7.60098 9.54582 7.60586C9.53989 7.61072 9.53407 7.61573 9.52839 7.62089C9.52271 7.62603 9.51715 7.63132 9.51173 7.63675C9.5063 7.64217 9.50101 7.64772 9.49587 7.65341C9.4907 7.65909 9.48571 7.66489 9.48084 7.67082C9.47598 7.67675 9.47126 7.6828 9.46669 7.68897C9.46212 7.69514 9.4577 7.70141 9.45344 7.70778C9.44918 7.71415 9.44508 7.72064 9.44113 7.72721C9.43718 7.73379 9.4334 7.74046 9.42978 7.74722C9.42618 7.75399 9.42274 7.76084 9.41946 7.76777C9.41618 7.7747 9.41306 7.78172 9.41013 7.78881C9.4072 7.7959 9.40443 7.80304 9.40185 7.81026C9.39926 7.81749 9.39686 7.82478 9.39462 7.83212C9.3924 7.83946 9.39035 7.84685 9.38849 7.85429C9.38663 7.86174 9.38495 7.86922 9.38344 7.87673C9.38196 7.88426 9.38064 7.89182 9.37953 7.89941C9.37839 7.907 9.37745 7.91461 9.37672 7.92224C9.37595 7.92988 9.37538 7.93752 9.37502 7.94518C9.37464 7.95284 9.37444 7.9605 9.37444 7.96818L9.37444 11.1151C9.37444 11.1228 9.37426 11.1305 9.37389 11.1381C9.37351 11.1458 9.37294 11.1535 9.37219 11.1611C9.37143 11.1687 9.37049 11.1763 9.36936 11.1839C9.36825 11.1915 9.36693 11.1991 9.36544 11.2066C9.36394 11.2141 9.36226 11.2216 9.3604 11.229C9.35852 11.2365 9.35649 11.2439 9.35426 11.2512C9.35203 11.2585 9.34963 11.2658 9.34705 11.273C9.34446 11.2803 9.34169 11.2874 9.33876 11.2945C9.33583 11.3016 9.33273 11.3086 9.32945 11.3155C9.32617 11.3225 9.32271 11.3293 9.31911 11.3361C9.31549 11.3428 9.31171 11.3495 9.30777 11.3561C9.30382 11.3627 9.29971 11.3692 9.29545 11.3755C9.29119 11.3819 9.28678 11.3882 9.28221 11.3943C9.27763 11.4005 9.27292 11.4065 9.26806 11.4125C9.26318 11.4184 9.25817 11.4242 9.25303 11.4299C9.24788 11.4356 9.24259 11.4411 9.23715 11.4466C9.23174 11.452 9.22617 11.4573 9.22049 11.4624C9.2148 11.4676 9.209 11.4726 9.20309 11.4775C9.19715 11.4823 9.1911 11.4871 9.18494 11.4916C9.17879 11.4962 9.17252 11.5006 9.16613 11.5049C9.15976 11.5091 9.15327 11.5132 9.14671 11.5172C9.14012 11.5211 9.13345 11.5249 9.12669 11.5285C9.11992 11.5321 9.11306 11.5356 9.10613 11.5389C9.09919 11.5421 9.09219 11.5452 9.0851 11.5482C9.07801 11.5511 9.07085 11.5539 9.06364 11.5565C9.05641 11.559 9.04913 11.5614 9.0418 11.5637C9.03445 11.5659 9.02707 11.5679 9.01963 11.5698C9.01219 11.5717 9.0047 11.5734 8.99717 11.5748C8.98964 11.5763 8.98209 11.5777 8.97451 11.5788C8.96693 11.5799 8.95931 11.5809 8.95168 11.5816C8.94403 11.5823 8.93639 11.5829 8.92874 11.5833C8.92106 11.5837 8.9134 11.5839 8.90573 11.5839C8.89805 11.5839 8.89039 11.5837 8.88273 11.5833C8.87507 11.5829 8.86743 11.5823 8.85979 11.5816C8.85215 11.5809 8.84455 11.5799 8.83694 11.5788C8.82937 11.5777 8.82181 11.5763 8.81429 11.5748C8.80676 11.5734 8.79929 11.5717 8.79185 11.5698C8.7844 11.5679 8.77701 11.5659 8.76967 11.5637C8.76232 11.5614 8.75504 11.559 8.74783 11.5565C8.74059 11.5539 8.73345 11.5511 8.72636 11.5482C8.71927 11.5452 8.71227 11.5421 8.70534 11.5389C8.69839 11.5356 8.69154 11.5321 8.68479 11.5285C8.67802 11.5249 8.67134 11.5211 8.66476 11.5172C8.65817 11.5132 8.6517 11.5091 8.64533 11.5049C8.63894 11.5006 8.63267 11.4962 8.62651 11.4916C8.62035 11.4871 8.6143 11.4823 8.60839 11.4775C8.60246 11.4726 8.59664 11.4676 8.59096 11.4624C8.58527 11.4573 8.57972 11.452 8.5743 11.4466C8.56887 11.4411 8.56358 11.4356 8.55844 11.4299C8.55327 11.4242 8.54827 11.4184 8.54341 11.4125C8.53855 11.4066 8.53383 11.4005 8.52926 11.3943C8.52469 11.3882 8.52027 11.3819 8.51601 11.3755C8.51174 11.3692 8.50764 11.3627 8.5037 11.3561C8.49975 11.3495 8.49597 11.3428 8.49235 11.3361C8.48875 11.3293 8.4853 11.3225 8.48202 11.3155C8.47874 11.3086 8.47562 11.3016 8.47269 11.2945C8.46976 11.2874 8.467 11.2803 8.46442 11.273C8.46183 11.2658 8.45942 11.2585 8.45718 11.2512C8.45497 11.2439 8.45292 11.2365 8.45106 11.229C8.44918 11.2216 8.44751 11.2141 8.44601 11.2066C8.44453 11.1991 8.44321 11.1915 8.44209 11.1839C8.44095 11.1763 8.44001 11.1687 8.43928 11.1611C8.43852 11.1535 8.43795 11.1458 8.43758 11.1381C8.4372 11.1305 8.43701 11.1228 8.43701 11.1151L8.43701 7.49946C8.43701 7.48413 8.43738 7.46879 8.43814 7.45347C8.4389 7.43815 8.44003 7.42286 8.44154 7.40758C8.44303 7.3923 8.44491 7.37708 8.44716 7.36191C8.44942 7.34673 8.45204 7.33162 8.45503 7.31657C8.45802 7.30153 8.46139 7.28656 8.46511 7.27168C8.46883 7.2568 8.47293 7.24202 8.47738 7.22734C8.48183 7.21265 8.48664 7.19809 8.49182 7.18365C8.49698 7.16921 8.5025 7.1549 8.50837 7.14072C8.51423 7.12655 8.52046 7.11252 8.52702 7.09865C8.53358 7.08478 8.54047 7.07108 8.5477 7.05756C8.55494 7.04403 8.5625 7.03069 8.57039 7.01752C8.57827 7.00437 8.58647 6.9914 8.595 6.97864C8.60352 6.96589 8.61236 6.95335 8.6215 6.94103C8.63064 6.92871 8.64007 6.91661 8.64981 6.90476C8.65954 6.8929 8.66955 6.88128 8.67987 6.86992C8.69016 6.85855 8.70074 6.84745 8.71159 6.83659C8.72243 6.82574 8.73355 6.81517 8.74492 6.80487C8.75628 6.79457 8.76788 6.78455 8.77975 6.77481C8.79161 6.76509 8.8037 6.75565 8.81603 6.74651C8.82835 6.73737 8.84089 6.72854 8.85364 6.72002C8.86639 6.71149 8.87935 6.70329 8.89252 6.69539C8.90567 6.68751 8.91901 6.67996 8.93255 6.67272C8.94608 6.66548 8.95978 6.65858 8.97365 6.65204C8.9875 6.64548 9.00154 6.63926 9.01572 6.63339C9.02988 6.62752 9.04419 6.622 9.05863 6.61683C9.07308 6.61165 9.08765 6.60685 9.10233 6.6024C9.117 6.59794 9.1318 6.59386 9.14668 6.59012C9.16156 6.58639 9.17652 6.58303 9.19157 6.58005C9.20662 6.57704 9.22173 6.57442 9.23691 6.57218C9.25208 6.56992 9.2673 6.56805 9.28255 6.56654C9.29782 6.56503 9.31313 6.5639 9.32845 6.56316C9.34377 6.56241 9.35909 6.56203 9.37444 6.56203L12.8992 6.56203L12.9001 6.56203ZM8.03392 7.81163L8.03392 9.00404L7.13397 9.00404C7.12527 9.00394 7.11657 9.00365 7.10788 9.00316C7.09918 9.00268 7.09051 9.00201 7.08184 9.00113C7.07318 9.00026 7.06454 8.99919 7.05593 8.99795C7.0473 8.99669 7.03871 8.99524 7.03018 8.99361C7.02161 8.99197 7.01311 8.99014 7.00463 8.98813C6.99616 8.98613 6.98774 8.98392 6.97935 8.98153C6.97098 8.97914 6.96268 8.97656 6.9544 8.97381C6.94614 8.97104 6.93795 8.96811 6.92984 8.96499C6.92171 8.96187 6.91366 8.95856 6.90567 8.95508C6.89769 8.9516 6.88978 8.94794 6.88196 8.9441C6.87415 8.94028 6.86642 8.93627 6.85877 8.93209C6.85113 8.92792 6.8436 8.92358 6.83616 8.91907C6.8287 8.91456 6.82135 8.90989 6.81411 8.90505C6.80686 8.90021 6.79974 8.89521 6.79271 8.89006C6.7857 8.88491 6.7788 8.87961 6.77202 8.87415C6.76523 8.86868 6.75857 8.86308 6.75205 8.85732C6.7455 8.85156 6.73912 8.84566 6.73283 8.83962C6.72656 8.83358 6.72043 8.82739 6.71444 8.82108C6.70843 8.81477 6.70259 8.80834 6.69687 8.80176C6.69116 8.79518 6.68561 8.78848 6.6802 8.78166C6.67479 8.77484 6.66953 8.7679 6.66443 8.76085C6.65932 8.75379 6.65437 8.74663 6.64959 8.73935C6.6448 8.73207 6.64017 8.7247 6.63571 8.71722C6.63127 8.70973 6.62698 8.70216 6.62285 8.6945C6.61872 8.68682 6.61478 8.67906 6.61101 8.67122C6.60723 8.66337 6.60363 8.65545 6.60019 8.64744C6.59677 8.63944 6.59354 8.63137 6.59046 8.62321C6.5874 8.61505 6.58451 8.60683 6.5818 8.59856C6.57912 8.59028 6.5766 8.58196 6.57428 8.57357C6.57195 8.56518 6.56981 8.55672 6.56784 8.54824C6.56588 8.53976 6.56412 8.53124 6.56254 8.52267C6.56098 8.5141 6.55958 8.50552 6.55838 8.49689L6.55276 8.40877C6.55276 8.10879 6.76837 7.86131 7.04961 7.81819L7.13586 7.81163L8.03579 7.81163L8.03392 7.81163ZM2.76647 0C4.29356 0 5.53377 1.25335 5.53377 2.81605C5.53413 2.8615 5.53337 2.90692 5.53147 2.95233C5.52958 2.99773 5.52656 3.04307 5.52243 3.08833C5.5183 3.13359 5.51304 3.17872 5.50667 3.22371C5.5003 3.26871 5.49283 3.31352 5.48423 3.35815C5.47565 3.40278 5.46595 3.44716 5.45518 3.49131C5.44439 3.53545 5.43251 3.57931 5.41955 3.62287C5.4066 3.66643 5.39257 3.70964 5.37748 3.75251C5.36238 3.79539 5.34622 3.83785 5.32904 3.87992C5.31183 3.92198 5.29361 3.9636 5.27436 4.00476C5.25509 4.04593 5.23482 4.08659 5.21356 4.12675C5.19229 4.1669 5.17003 4.20651 5.14678 4.24557C5.12355 4.28464 5.09937 4.3231 5.07424 4.36097C5.04912 4.39883 5.02304 4.43605 4.99608 4.47262C4.96908 4.5092 4.94122 4.54507 4.91248 4.58027C4.88372 4.61546 4.85412 4.64992 4.82365 4.68365C4.79318 4.71738 4.76191 4.75032 4.72983 4.7825C4.69772 4.81468 4.66486 4.84606 4.63121 4.8766C4.59757 4.90715 4.56319 4.93686 4.52806 4.96571C4.49295 4.99455 4.45716 5.02252 4.42065 5.0496C4.38414 5.07668 4.34699 5.10284 4.30922 5.12808C4.27141 5.15332 4.23302 5.1776 4.19402 5.20094C4.15502 5.22427 4.11548 5.24663 4.07537 5.26802C4.03528 5.28939 3.99466 5.30977 3.95354 5.32914C3.91243 5.34851 3.87087 5.36685 3.82884 5.38416C3.78683 5.40147 3.7444 5.41773 3.70157 5.43295C3.65876 5.44817 3.61558 5.4623 3.57204 5.47538C3.52853 5.48846 3.4847 5.50044 3.4406 5.51136C3.39647 5.52225 3.35211 5.53205 3.30751 5.54077C3.2629 5.54948 3.2181 5.55709 3.17312 5.56358C3.12815 5.57006 3.08304 5.57544 3.0378 5.5797C2.99253 5.58396 2.94722 5.5871 2.90181 5.58912C2.8564 5.59113 2.81098 5.59202 2.76553 5.59179C2.72012 5.59198 2.67473 5.59104 2.62935 5.58897C2.58399 5.58691 2.5387 5.58373 2.49348 5.57944C2.44827 5.57515 2.40318 5.56973 2.35824 5.56319C2.31331 5.55668 2.26854 5.54903 2.22397 5.54029C2.17941 5.53154 2.13509 5.52171 2.09102 5.51077C2.04691 5.49983 2.00313 5.48782 1.95964 5.47471C1.91617 5.4616 1.87303 5.44744 1.83024 5.4322C1.78746 5.41697 1.74508 5.40068 1.7031 5.38334C1.66112 5.36601 1.61959 5.34764 1.57852 5.32827C1.53745 5.30889 1.49689 5.2885 1.45682 5.2671C1.41676 5.2457 1.37725 5.22333 1.33829 5.19998C1.29934 5.17664 1.26098 5.15234 1.22323 5.12708C1.18548 5.10185 1.14837 5.07567 1.11191 5.04859C1.07545 5.0215 1.03968 4.99354 1.00461 4.96469C0.96953 4.93585 0.935189 4.90614 0.901582 4.87559C0.867976 4.84505 0.835146 4.81369 0.80309 4.78151C0.771034 4.74933 0.739794 4.71638 0.70937 4.68267C0.678944 4.64893 0.649371 4.61448 0.620651 4.5793C0.59193 4.54412 0.564097 4.50825 0.53715 4.47169C0.510204 4.43513 0.484178 4.39792 0.459073 4.36007C0.433967 4.32224 0.409812 4.28379 0.386609 4.24474C0.363406 4.2057 0.341182 4.16611 0.319936 4.12596C0.298691 4.08581 0.278451 4.04518 0.259216 4.00404C0.239983 3.96289 0.221776 3.92131 0.204599 3.87926C0.187422 3.83722 0.171295 3.79477 0.156219 3.75193C0.141142 3.70908 0.127133 3.6659 0.114192 3.62237C0.101252 3.57883 0.0893954 3.535 0.0786231 3.49088C0.0678508 3.44676 0.0581758 3.4024 0.049598 3.3578C0.0410202 3.31319 0.0335503 3.26842 0.027188 3.22345C0.0208258 3.17848 0.0155793 3.13338 0.0114481 3.08815C0.007317 3.04292 0.00430649 2.99762 0.0024166 2.95224C0.000526711 2.90686 -0.000240265 2.86147 0.000115674 2.81605C0.000115674 1.25335 1.24128 0 2.76647 0ZM14.4178 4.08346C14.4275 4.08359 14.4371 4.08397 14.4467 4.08457C14.4563 4.08519 14.4659 4.08603 14.4755 4.0871C14.4851 4.08817 14.4946 4.08949 14.5042 4.09104C14.5137 4.09258 14.5231 4.09437 14.5326 4.09638C14.542 4.09838 14.5513 4.10062 14.5607 4.10308C14.57 4.10556 14.5792 4.10825 14.5884 4.11117C14.5976 4.11408 14.6067 4.11723 14.6157 4.1206C14.6248 4.12397 14.6337 4.12756 14.6426 4.13135C14.6515 4.13516 14.6601 4.13918 14.6688 4.14341C14.6774 4.14764 14.6861 4.15209 14.6944 4.15674C14.7029 4.16138 14.7113 4.16624 14.7195 4.1713C14.7277 4.17635 14.7357 4.18161 14.7436 4.18707C14.7515 4.19252 14.7593 4.19816 14.7671 4.204C14.7747 4.20985 14.7821 4.21587 14.7896 4.22206C14.7971 4.22826 14.8043 4.23465 14.8113 4.24121C14.8183 4.24776 14.8252 4.25449 14.8319 4.26139C14.8387 4.26829 14.8453 4.27534 14.8516 4.28256C14.858 4.28978 14.8643 4.29715 14.8703 4.30466C14.8763 4.31218 14.882 4.31984 14.8878 4.32764C14.8935 4.33545 14.8989 4.34339 14.9042 4.35146C14.9094 4.35953 14.9146 4.36773 14.9194 4.37605C14.9242 4.38437 14.9288 4.39281 14.9333 4.40136C14.9378 4.4099 14.9421 4.41856 14.946 4.42732C14.95 4.43608 14.9538 4.44493 14.9575 4.45387C14.9611 4.46281 14.9645 4.47183 14.9676 4.48094C14.9707 4.49005 14.9736 4.49924 14.9764 4.50848C14.979 4.51772 14.9815 4.52704 14.9837 4.53641C14.9859 4.54579 14.9879 4.55521 14.9898 4.56468C14.9916 4.57416 14.9931 4.58367 14.9944 4.5932C14.9957 4.60275 14.9969 4.61233 14.9978 4.62192C14.9985 4.63152 14.9991 4.64114 14.9995 4.65076C15 4.66039 15.0001 4.67003 15 4.67966C15 4.97964 14.7843 5.22712 14.5031 5.27025L14.4178 5.27681L7.13586 5.27681C7.1262 5.27668 7.11655 5.27633 7.10693 5.27574C7.09727 5.27514 7.08767 5.2743 7.07806 5.27323C7.06846 5.27217 7.0589 5.27088 7.04936 5.26934C7.03983 5.2678 7.03034 5.26603 7.02089 5.26402C7.01144 5.26201 7.00205 5.25979 6.99272 5.25733C6.98338 5.25487 6.9741 5.25217 6.96489 5.24926C6.95569 5.24634 6.94658 5.24321 6.93752 5.23984C6.92846 5.23647 6.9195 5.23288 6.91062 5.22909C6.90175 5.22528 6.89297 5.22125 6.88429 5.21702C6.87562 5.21279 6.86705 5.20835 6.85858 5.20369C6.85013 5.19903 6.84179 5.19417 6.83356 5.18912C6.82535 5.18405 6.81725 5.17879 6.80928 5.17333C6.80132 5.16786 6.7935 5.16221 6.78583 5.15636C6.77814 5.15052 6.77059 5.14448 6.7632 5.13827C6.75582 5.13205 6.74858 5.12566 6.7415 5.11909C6.73443 5.11252 6.72752 5.10579 6.72076 5.09887C6.71403 5.09197 6.70745 5.0849 6.70105 5.07766C6.69465 5.07043 6.68842 5.06305 6.68239 5.05552C6.67635 5.04797 6.67051 5.0403 6.66485 5.03248C6.65919 5.02465 6.65372 5.0167 6.64845 5.0086C6.64318 5.0005 6.63811 4.99228 6.63323 4.98395C6.62838 4.97561 6.62371 4.96716 6.61927 4.95859C6.6148 4.95003 6.61057 4.94134 6.60654 4.93257C6.60252 4.92379 6.59871 4.91493 6.5951 4.90597C6.59152 4.897 6.58815 4.88795 6.585 4.87882C6.58186 4.8697 6.57893 4.86049 6.57622 4.85121C6.57353 4.84194 6.57107 4.83261 6.56884 4.82322C6.5666 4.81383 6.56459 4.80439 6.56281 4.7949C6.56103 4.7854 6.5595 4.77587 6.55818 4.7663C6.55687 4.75674 6.5558 4.74714 6.55496 4.73752C6.55412 4.7279 6.55352 4.71827 6.55317 4.70862C6.55279 4.69897 6.55266 4.68932 6.55276 4.67966C6.55276 4.38062 6.76837 4.1322 7.04961 4.09002L7.13586 4.08346L14.4169 4.08346L14.4178 4.08346ZM2.76553 1.22429C1.88248 1.22429 1.16347 1.91143 1.16347 2.81511C1.16347 3.71973 1.88248 4.39937 2.76647 4.39937C3.64954 4.39937 4.36762 3.71973 4.36762 2.81511C4.36762 1.91143 3.64954 1.22429 2.76553 1.22429ZM14.416 0.727448C14.4256 0.727584 14.4352 0.727956 14.4449 0.728561C14.4545 0.729176 14.4641 0.730021 14.4737 0.731095C14.4833 0.732179 14.4928 0.733497 14.5024 0.73505C14.5119 0.736592 14.5214 0.73837 14.5308 0.740381C14.5402 0.742393 14.5496 0.744639 14.5589 0.747119C14.5682 0.74959 14.5775 0.75229 14.5867 0.755219C14.5959 0.758138 14.605 0.761288 14.6141 0.764667C14.6231 0.768036 14.632 0.771624 14.6409 0.775433C14.6497 0.779251 14.6585 0.783279 14.6672 0.787517C14.6758 0.791754 14.6844 0.796203 14.6928 0.80086C14.7013 0.805529 14.7096 0.810396 14.7178 0.815464C14.726 0.820532 14.7341 0.825795 14.742 0.831254C14.7501 0.836722 14.7578 0.842381 14.7654 0.84823C14.7732 0.85407 14.7807 0.860099 14.788 0.86632C14.7955 0.87253 14.8027 0.878921 14.8097 0.885493C14.8169 0.892065 14.8237 0.898803 14.8305 0.905706C14.8372 0.91262 14.8438 0.91969 14.8501 0.926916C14.8564 0.934141 14.8627 0.941524 14.8687 0.949063C14.8747 0.956591 14.8806 0.964267 14.8863 0.972088C14.892 0.97991 14.8974 0.987864 14.9025 0.995949C14.9078 1.00403 14.9129 1.01224 14.9178 1.02057C14.9226 1.02891 14.9273 1.03736 14.9317 1.04593C14.9362 1.05449 14.9405 1.06316 14.9444 1.07193C14.9484 1.08069 14.9522 1.08956 14.9559 1.09851C14.9594 1.10746 14.9627 1.1165 14.966 1.12562C14.969 1.13474 14.972 1.14394 14.9746 1.1532C14.9774 1.16247 14.9799 1.1718 14.9821 1.18118C14.9843 1.19056 14.9863 1.2 14.9881 1.20948C14.9898 1.21896 14.9913 1.22848 14.9926 1.23804C14.9939 1.24759 14.9951 1.25717 14.9958 1.26679C14.9967 1.2764 14.9973 1.28603 14.9978 1.29566C14.998 1.3053 14.9982 1.31494 14.998 1.32459C14.998 1.62363 14.7824 1.87112 14.5013 1.91424L14.416 1.9208L7.13586 1.9208C7.1262 1.92068 7.11658 1.92033 7.10694 1.91973C7.09732 1.91913 7.08771 1.91831 7.07812 1.91724C7.06854 1.91617 7.05897 1.91488 7.04945 1.91334C7.03993 1.91181 7.03044 1.91005 7.02102 1.90804C7.01157 1.90604 7.00218 1.90381 6.99285 1.90136C6.98354 1.8989 6.97428 1.89622 6.96508 1.89331C6.95587 1.89039 6.94676 1.88726 6.93771 1.8839C6.92867 1.88055 6.91972 1.87696 6.91084 1.87317C6.90198 1.86937 6.89322 1.86536 6.88454 1.86113C6.87586 1.85689 6.86731 1.85247 6.85884 1.84783C6.85039 1.84318 6.84206 1.83832 6.83384 1.83327C6.82564 1.82821 6.81755 1.82296 6.80959 1.81751C6.80163 1.81206 6.79381 1.80642 6.78612 1.80057C6.77845 1.79474 6.7709 1.78872 6.76353 1.78253C6.75614 1.77632 6.7489 1.76993 6.74183 1.76338C6.73475 1.75682 6.72784 1.7501 6.72109 1.7432C6.71436 1.7363 6.70779 1.72924 6.70139 1.72202C6.69498 1.7148 6.68876 1.70743 6.68274 1.69992C6.67669 1.69239 6.67085 1.68471 6.66518 1.67691C6.65952 1.6691 6.65406 1.66115 6.64877 1.65307C6.6435 1.645 6.63843 1.6368 6.63355 1.62847C6.62869 1.62015 6.62402 1.61171 6.61957 1.60316C6.61511 1.59459 6.61086 1.58593 6.60684 1.57717C6.60279 1.56841 6.59899 1.55955 6.59538 1.5506C6.59178 1.54165 6.58841 1.53263 6.58526 1.5235C6.5821 1.51439 6.57917 1.50521 6.57647 1.49594C6.57376 1.48668 6.57129 1.47736 6.56903 1.46798C6.56678 1.4586 6.56475 1.44917 6.56297 1.43969C6.56119 1.43021 6.55963 1.42069 6.55829 1.41114C6.55698 1.40158 6.55589 1.392 6.55504 1.38239C6.55419 1.37278 6.55358 1.36316 6.5532 1.35352C6.55282 1.34388 6.55267 1.33424 6.55276 1.32459C6.55276 1.02461 6.76837 0.777132 7.04961 0.73401L7.13586 0.727448L14.4169 0.727448L14.416 0.727448Z"   fill="#0073ED" ></path></svg>