<svg xmlns="http://www.w3.org/2000/svg" xmlns:xlink="http://www.w3.org/1999/xlink" width="15" height="18" viewBox="0 0 15 18" fill="none">
<path d="M14.3884 0L0.611274 0C0.27374 0 0 0.287273 0 0.641427L0 17.3585C0 17.7127 0.27376 18 0.611274 18L12.133 18C12.4709 18 12.7442 17.7127 12.7442 17.3585L12.7442 5.457L14.3884 5.457C14.7259 5.457 14.9999 5.17052 14.9999 4.81559L14.9999 0.641427C15 0.287273 14.7259 0 14.3884 0ZM13.7771 4.17403L12.133 4.17403C11.7951 4.17403 11.5217 4.46055 11.5217 4.81549L11.5217 16.7171L1.22288 16.7171L1.22288 1.28294L13.7771 1.28294L13.7771 4.17403ZM2.88893 14.9541L9.85377 14.9541C9.98898 14.9541 10.0984 14.8397 10.0984 14.697C10.0984 14.5556 9.98896 14.4412 9.85377 14.4412L2.88893 14.4412C2.7545 14.4412 2.6448 14.5556 2.6448 14.697C2.6448 14.8396 2.75452 14.9541 2.88893 14.9541ZM2.88893 12.4466L9.85377 12.4466C9.98898 12.4466 10.0984 12.3321 10.0984 12.1899C10.0984 12.0485 9.98896 11.9341 9.85377 11.9341L2.88893 11.9341C2.7545 11.9341 2.6448 12.0485 2.6448 12.1899C2.6448 12.3321 2.75452 12.4466 2.88893 12.4466ZM4.77158 5.63118C4.77158 5.79179 4.88816 5.9227 5.03291 5.9227C5.03461 5.9227 5.0364 5.92202 5.03771 5.92202C5.09152 6.69017 5.66789 7.45763 6.37143 7.45763C7.07534 7.45763 7.65159 6.69017 7.70577 5.92202C7.7071 5.92202 7.7089 5.9227 7.71033 5.9227C7.8547 5.9227 7.97205 5.79169 7.97205 5.63118C7.97205 5.51239 7.90825 5.41094 7.81692 5.36555C7.86973 5.19275 7.89934 5.00848 7.89934 4.81627C7.89934 3.87749 7.21524 3.11656 6.37143 3.11656C5.52828 3.11656 4.84418 3.87749 4.84418 4.81627C4.84418 5.00848 4.8734 5.19277 4.92619 5.36555C4.83498 5.41094 4.77158 5.51239 4.77158 5.63118ZM3.12708 10.1818L9.61615 10.1818C9.6947 10.1818 9.75857 10.114 9.75857 10.0321L9.75857 9.49781C9.75857 9.45753 9.74305 9.41865 9.71536 9.39052C9.09171 8.75559 8.33016 8.30673 7.51093 8.09327C7.49039 8.08107 7.46707 8.07454 7.44311 8.07454L7.36929 8.07454C7.34563 8.07454 7.3227 8.08097 7.30173 8.09259C7.05476 8.23149 6.71582 8.3114 6.37143 8.3114C6.0278 8.3114 5.68884 8.23145 5.44109 8.09259C5.42053 8.08107 5.39723 8.07454 5.37394 8.07454L5.32009 8.07454C5.30874 8.07454 5.29773 8.07598 5.28749 8.07816C4.4471 8.28694 3.66567 8.74122 3.02762 9.39052C3.00055 9.41865 2.98468 9.45753 2.98468 9.49781L2.98468 10.0321C2.98466 10.1141 3.04818 10.1818 3.12708 10.1818ZM14.3884 6.40729L13.3078 6.40729L13.3078 11.5921L14.3884 11.5921C14.7259 11.5921 15 11.3056 15 10.9506L15 7.04942C15 6.69524 14.7259 6.40729 14.3884 6.40729ZM14.3884 12.5431L13.3078 12.5431L13.3078 18L14.3884 18C14.7259 18 15 17.7127 15 17.3585L15 13.1845C15 12.8303 14.7259 12.5431 14.3884 12.5431Z"   fill="#5380FD" >
</path>
</svg>
