<svg xmlns="http://www.w3.org/2000/svg" xmlns:xlink="http://www.w3.org/1999/xlink" width="12.666671752929688" height="12.6666259765625" viewBox="0 0 12.666671752929688 12.6666259765625" fill="none">
<path d="M5.86212 6.26011C5.80056 6.27053 5.73934 6.28242 5.67853 6.29573C5.5848 6.31625 5.49197 6.34025 5.40003 6.36773C5.30809 6.39522 5.21731 6.42609 5.1277 6.46037C5.03808 6.49466 4.94986 6.53223 4.86306 6.57312C4.77625 6.61402 4.69109 6.65808 4.60759 6.70534C3.55514 7.30097 2.83445 8.36178 2.67653 9.56639C2.63825 9.85842 2.84397 10.1262 3.13602 10.1645C3.42808 10.2028 3.69586 9.99708 3.73414 9.70503C3.84833 8.83409 4.37086 8.06497 5.13297 7.63366C5.19331 7.5995 5.25486 7.56766 5.31759 7.53811C5.38033 7.50856 5.44408 7.48139 5.50884 7.45662C5.57361 7.43186 5.63922 7.40956 5.70567 7.3897C5.77211 7.36984 5.8392 7.3525 5.90694 7.33767C6.01314 7.31441 6.12034 7.29733 6.22853 7.28642L5.8733 7.69508C5.68005 7.91739 5.70361 8.25425 5.92591 8.4475C6.1482 8.64073 6.48508 8.61719 6.67831 8.39487L7.73391 7.18056C7.92714 6.95827 7.90359 6.62141 7.6813 6.42816L6.46698 5.37256C6.24467 5.17933 5.90781 5.20287 5.71456 5.42519C5.52133 5.64748 5.54488 5.98434 5.76719 6.17759L5.86212 6.26013L5.86212 6.26011ZM9.33333 11.2821C9.33333 11.2837 9.33325 11.2854 9.33308 11.2871C9.33292 11.2888 9.33267 11.2904 9.33234 11.2921C9.33202 11.2937 9.33161 11.2953 9.33113 11.297C9.33064 11.2986 9.33006 11.3001 9.32942 11.3017C9.32878 11.3032 9.32806 11.3047 9.32727 11.3062C9.32648 11.3077 9.32563 11.3092 9.32469 11.3105C9.32375 11.3119 9.32275 11.3133 9.32169 11.3146C9.32063 11.3159 9.3195 11.3171 9.31831 11.3183C9.31713 11.3195 9.31588 11.3206 9.31458 11.3217C9.31328 11.3228 9.31192 11.3238 9.31053 11.3247C9.30914 11.3256 9.3077 11.3265 9.30622 11.3273C9.30473 11.3281 9.30322 11.3288 9.30167 11.3294C9.30013 11.3301 9.29855 11.3307 9.29694 11.3311C9.29533 11.3316 9.29369 11.332 9.29205 11.3324C9.29041 11.3327 9.28875 11.3329 9.28708 11.3331C9.28541 11.3333 9.28372 11.3333 9.28205 11.3333L1.38461 11.3333C1.38293 11.3333 1.38125 11.3333 1.37958 11.3331C1.37791 11.3329 1.37625 11.3327 1.37461 11.3324C1.37296 11.332 1.37133 11.3316 1.36972 11.3311C1.36811 11.3307 1.36654 11.3301 1.36498 11.3294C1.36343 11.3288 1.36192 11.3281 1.36044 11.3273C1.35896 11.3265 1.35752 11.3256 1.35612 11.3247C1.35473 11.3238 1.35338 11.3228 1.35208 11.3217C1.35078 11.3206 1.34953 11.3195 1.34834 11.3183C1.34716 11.3171 1.34603 11.3159 1.34497 11.3146C1.34391 11.3133 1.34291 11.3119 1.34197 11.3105C1.34104 11.3092 1.34018 11.3077 1.33939 11.3062C1.3386 11.3047 1.33788 11.3032 1.33723 11.3017C1.33659 11.3001 1.33602 11.2986 1.33553 11.297C1.33505 11.2953 1.33465 11.2937 1.33431 11.2921C1.33399 11.2904 1.33375 11.2888 1.33358 11.2871C1.33341 11.2854 1.33333 11.2837 1.33333 11.2821L1.33333 3.38462C1.33333 3.38295 1.33341 3.38127 1.33358 3.37959C1.33375 3.37792 1.33399 3.37627 1.33431 3.37462C1.33465 3.37298 1.33505 3.37134 1.33553 3.36973C1.33602 3.36812 1.33659 3.36655 1.33723 3.365C1.33788 3.36345 1.3386 3.36194 1.33939 3.36045C1.34018 3.35897 1.34104 3.35753 1.34197 3.35614C1.34291 3.35475 1.34391 3.35339 1.34497 3.35209C1.34603 3.3508 1.34716 3.34955 1.34834 3.34836C1.34953 3.34717 1.35078 3.34605 1.35208 3.34498C1.35338 3.34392 1.35473 3.34292 1.35612 3.34198C1.35752 3.34106 1.35896 3.3402 1.36044 3.33941C1.36192 3.33861 1.36343 3.33789 1.36498 3.33725C1.36654 3.33661 1.36811 3.33603 1.36972 3.33555C1.37133 3.33506 1.37296 3.33466 1.37461 3.33433C1.37625 3.334 1.37791 3.33377 1.37958 3.33359C1.38125 3.33342 1.38293 3.33334 1.38461 3.33334L9.28205 3.33334C9.28372 3.33334 9.28541 3.33342 9.28708 3.33359C9.28875 3.33377 9.29041 3.334 9.29205 3.33433C9.29369 3.33466 9.29533 3.33506 9.29694 3.33555C9.29855 3.33603 9.30013 3.33661 9.30167 3.33725C9.30322 3.33789 9.30473 3.33861 9.30622 3.33941C9.3077 3.3402 9.30914 3.34106 9.31053 3.34198C9.31192 3.34292 9.31328 3.34392 9.31458 3.34498C9.31588 3.34605 9.31713 3.34717 9.31831 3.34836C9.3195 3.34955 9.32063 3.3508 9.32169 3.35209C9.32275 3.35339 9.32375 3.35475 9.32469 3.35614C9.32563 3.35753 9.32648 3.35897 9.32727 3.36045C9.32806 3.36194 9.32878 3.36345 9.32942 3.365C9.33006 3.36655 9.33064 3.36812 9.33113 3.36973C9.33161 3.37134 9.33202 3.37298 9.33234 3.37462C9.33267 3.37627 9.33291 3.37792 9.33308 3.37959C9.33325 3.38127 9.33333 3.38295 9.33333 3.38462L9.33333 11.2821ZM10.6667 3.38462C10.6667 2.61992 10.0468 2 9.28205 2L1.38461 2C0.619922 2 0 2.61992 0 3.38462L0 11.2821C0 12.0468 0.619906 12.6667 1.38461 12.6667L9.28205 12.6667C10.0468 12.6667 10.6667 12.0468 10.6667 11.2821L10.6667 3.38462ZM4 1.33334L11.3333 1.33334L11.3333 8.66667C11.3333 9.03486 11.6318 9.33334 12 9.33334C12.3682 9.33334 12.6667 9.03486 12.6667 8.66667L12.6667 1.33334C12.6667 0.596953 12.0697 0 11.3333 0L4 0C3.63181 0 3.33333 0.298484 3.33333 0.666672C3.33333 1.03486 3.63181 1.33334 4 1.33334Z"   fill="#FFFFFF" >
</path>
</svg>
