<svg xmlns="http://www.w3.org/2000/svg" xmlns:xlink="http://www.w3.org/1999/xlink" width="14" height="14" viewBox="0 0 14 14" fill="none">
<path d="M8.50391 1.53125C8.74553 1.53125 8.94141 1.72713 8.94141 1.96875L8.94139 3.86914L12.0176 3.86914C12.2592 3.86914 12.4551 4.06502 12.4551 4.30664L12.4551 6.54883C12.4551 6.79045 12.2592 6.98633 12.0176 6.98633L11.6758 6.98633L11.6758 12.0312C11.6758 12.2729 11.4799 12.4688 11.2383 12.4688L2.74805 12.4688C2.50642 12.4688 2.31055 12.2729 2.31055 12.0312L2.31053 6.98633L1.96875 6.98633C1.72713 6.98633 1.53125 6.79045 1.53125 6.54883L1.53125 4.30664C1.53125 4.06502 1.72713 3.86914 1.96875 3.86914L5.04491 3.86914L5.04492 1.96875C5.04492 1.72713 5.2408 1.53125 5.48242 1.53125L8.50391 1.53125ZM10.9102 7L3.07617 7L3.07617 11.7031L4.27031 11.7031L4.27031 10.109C4.27031 9.68615 4.6131 9.34336 5.03594 9.34336L5.03594 11.7031L6.61717 11.7031L6.61719 10.109C6.61719 9.68615 6.95997 9.34336 7.38281 9.34336L7.3828 11.7031L8.95506 11.7031L8.95508 10.109C8.95508 9.68615 9.29786 9.34336 9.7207 9.34336L9.72069 11.7031L10.9102 11.7031L10.9102 7ZM11.5801 4.74414L2.40625 4.74414L2.40625 6.11133L11.5801 6.11133L11.5801 4.74414ZM8.06641 2.40625L5.91992 2.40625L5.91992 3.77344L8.06641 3.77344L8.06641 2.40625Z"   fill="#F94144" fill-opacity="0.65">
</path>
</svg>
