<svg xmlns="http://www.w3.org/2000/svg" xmlns:xlink="http://www.w3.org/1999/xlink" width="16" height="16" viewBox="0 0 16 16" fill="none">
<path d="M8.14545 10.9091C8.43636 10.9091 8.6909 11.1636 8.6909 11.4545L8.6909 11.8182C8.6909 12.1091 8.43636 12.3636 8.14545 12.3636C7.85455 12.3636 7.6 12.1091 7.6 11.8182L7.6 11.4545C7.6 11.1636 7.81819 10.9091 8.14545 10.9091ZM5.96364 6.36364C5.67273 6.36364 5.45455 6.14545 5.45455 5.85455L5.45455 5.78181C5.45455 5.70909 5.49091 5.63636 5.49091 5.56364C5.70909 4.21819 6.83636 3.27273 8.18181 3.27273L8.2909 3.27273C9.4909 3.27273 10.5455 4.10909 10.8364 5.30909L10.8364 5.38181C11.0909 6.54545 10.6545 7.70909 9.70909 8.43636L8.72726 9.16364C8.6909 9.2 8.65455 9.23636 8.65455 9.30909L8.65455 9.67273C8.65455 9.96364 8.4 10.2182 8.10909 10.2182C7.81819 10.2182 7.56364 9.96364 7.56364 9.67273L7.56364 9.30909C7.56364 8.90909 7.74545 8.50909 8.07272 8.2909L9.05455 7.56364C9.63636 7.12726 9.92726 6.36364 9.74545 5.63636L9.74545 5.56364C9.6 4.87273 8.98181 4.36364 8.25455 4.36364L8.14545 4.36364C7.34545 4.36364 6.65455 4.94545 6.54545 5.74545L6.54545 5.85455C6.50909 6.14545 6.25455 6.36364 5.96364 6.36364ZM8 16C3.56364 16 0 12.4364 0 8C0 3.56364 3.56364 0 8 0C12.4364 0 16 3.56364 16 8C16 12.4364 12.4364 16 8 16ZM8 15.2727C12 15.2727 15.2727 12 15.2727 8C15.2727 4 12 0.727273 8 0.727273C4 0.727273 0.727273 4 0.727273 8C0.727273 12 4 15.2727 8 15.2727Z"   fill="#1D2129" fill-opacity="0.6">
</path>
</svg>
