<svg xmlns="http://www.w3.org/2000/svg" xmlns:xlink="http://www.w3.org/1999/xlink" width="17.9169921875" height="16.55615234375" viewBox="0 0 17.9169921875 16.55615234375" fill="none">
<path   fill-rule="evenodd"  fill="#5380FD"  d="M5.52684 0.0855681L3.21508 3.39929L2.88604 3.87094C2.79355 4.00352 2.88841 4.18537 3.05007 4.18537L14.8668 4.18537C15.0285 4.18537 15.1234 4.00352 15.0309 3.87094L12.3901 0.0855678C12.3527 0.0319511 12.2914 0 12.226 0L5.69087 -8.13103e-16C5.6255 -8.2111e-16 5.56425 0.0319512 5.52684 0.0855681ZM4.967 3.18537L12.9499 3.18537C13.1115 3.18537 13.2064 3.00353 13.1139 2.87094L11.8684 1.08557C11.831 1.03195 11.7697 0.999998 11.7044 0.999998L6.21253 0.999998C6.14716 0.999998 6.08591 1.03195 6.0485 1.08557L4.80297 2.87094C4.71048 3.00353 4.80534 3.18537 4.967 3.18537Z">
</path>
<path   fill-rule="evenodd"  fill="#5380FD"  d="M17.6976 10.0563L15.1464 6.39929L15.0568 6.2709C15.0194 6.2173 14.9581 6.18536 14.8928 6.18536L3.02419 6.18536C2.95882 6.18536 2.89757 6.21732 2.86017 6.27093L0.219358 10.0563C0.126863 10.1889 0.221727 10.3707 0.383387 10.3707L17.5336 10.3707C17.6952 10.3707 17.7901 10.1889 17.6976 10.0563ZM14.5352 7.27094L15.7806 9.05632C15.8731 9.1889 15.7782 9.37074 15.6166 9.37074L2.30032 9.37074C2.13866 9.37074 2.04379 9.1889 2.13629 9.05631L3.38183 7.27093C3.41923 7.21731 3.48048 7.18536 3.54585 7.18536L14.3711 7.18536C14.4365 7.18536 14.4978 7.21732 14.5352 7.27094Z">
</path>
<path   fill-rule="evenodd"  fill="#5380FD"  d="M5.52684 16.4706L3.21508 13.1569L2.88604 12.6852C2.79355 12.5526 2.88841 12.3708 3.05007 12.3708L14.8668 12.3708C15.0285 12.3708 15.1234 12.5526 15.0309 12.6852L12.3901 16.4706C12.3527 16.5242 12.2914 16.5562 12.226 16.5562L5.69087 16.5562C5.6255 16.5562 5.56425 16.5242 5.52684 16.4706ZM4.967 13.3708L12.9499 13.3708C13.1115 13.3708 13.2064 13.5526 13.1139 13.6852L11.8684 15.4706C11.831 15.5242 11.7697 15.5562 11.7044 15.5562L6.21253 15.5562C6.14716 15.5562 6.08591 15.5242 6.0485 15.4706L4.80297 13.6852C4.71048 13.5526 4.80534 13.3708 4.967 13.3708Z">
</path>
</svg>
