<svg xmlns="http://www.w3.org/2000/svg" xmlns:xlink="http://www.w3.org/1999/xlink" width="16" height="16" viewBox="0 0 16 16" fill="none">
<path d="M11.3337 2.99996L11.3337 1.66663L4.66699 1.66663L4.66699 2.99996L1.66699 2.99996L1.66699 4.33329L2.83366 4.33329L2.83366 13.3333C2.83366 13.8856 3.28137 14.3333 3.83366 14.3333L12.167 14.3333C12.7193 14.3333 13.167 13.8856 13.167 13.3333L13.167 4.33329L14.3337 4.33329L14.3337 2.99996L11.3337 2.99996ZM4.16699 13L4.16699 4.33329L11.8337 4.33329L11.8337 13L4.16699 13ZM6.00033 5.99996L6.00033 11L7.33366 11L7.33366 5.99996L6.00033 5.99996ZM8.66699 5.99996L8.66699 11L10.0003 11L10.0003 5.99996L8.66699 5.99996Z" fill-rule="evenodd"  fill="#F56565" >
</path>
</svg>
