<svg xmlns="http://www.w3.org/2000/svg" xmlns:xlink="http://www.w3.org/1999/xlink" width="14.2001953125" height="14.20001220703125" viewBox="0 0 14.2001953125 14.20001220703125" fill="none"><path d="M2.9001 0.100006L11.3001 0.100006C11.3459 0.100006 11.3917 0.10113 11.4375 0.103379C11.4833 0.105627 11.529 0.108997 11.5745 0.113489C11.6201 0.11798 11.6656 0.123588 11.7109 0.130312C11.7563 0.137036 11.8014 0.144867 11.8463 0.153807C11.8913 0.162747 11.936 0.172784 11.9804 0.183919C12.0249 0.195053 12.069 0.207271 12.1129 0.220573C12.1567 0.233875 12.2002 0.248245 12.2434 0.263683C12.2865 0.27912 12.3293 0.295607 12.3716 0.313144C12.4139 0.330679 12.4558 0.349243 12.4972 0.368836C12.5387 0.388428 12.5796 0.409025 12.62 0.430626C12.6604 0.452228 12.7003 0.474808 12.7396 0.498366C12.7789 0.521924 12.8176 0.546432 12.8557 0.571891C12.8938 0.597349 12.9312 0.623728 12.9681 0.651025C13.0049 0.678322 13.041 0.706507 13.0764 0.735577C13.1118 0.764648 13.1465 0.794569 13.1805 0.825343C13.2144 0.856117 13.2476 0.887704 13.28 0.920107C13.3124 0.952509 13.344 0.985687 13.3748 1.01964C13.4055 1.05359 13.4355 1.08828 13.4645 1.12371C13.4936 1.15913 13.5218 1.19524 13.5491 1.23205C13.5764 1.26885 13.6028 1.30631 13.6282 1.34441C13.6537 1.38251 13.6782 1.42121 13.7017 1.46052C13.7253 1.49983 13.7479 1.53968 13.7695 1.5801C13.7911 1.62051 13.8118 1.66143 13.8313 1.70286C13.8509 1.74428 13.8695 1.78616 13.887 1.82849C13.9045 1.87083 13.921 1.91357 13.9364 1.95672C13.9519 1.99986 13.9663 2.04337 13.9795 2.08721C13.9928 2.13106 14.0051 2.17522 14.0162 2.21967C14.0272 2.26411 14.0373 2.30881 14.0462 2.35375C14.0553 2.39869 14.063 2.44383 14.0697 2.48917C14.0764 2.53449 14.0821 2.57996 14.0866 2.62556C14.0911 2.67115 14.0945 2.71684 14.0967 2.76262C14.099 2.80838 14.1001 2.85418 14.1001 2.90001L14.1001 11.3C14.1001 11.3458 14.099 11.3916 14.0967 11.4374C14.0945 11.4832 14.0911 11.5289 14.0866 11.5745C14.0821 11.6201 14.0764 11.6655 14.0697 11.7108C14.063 11.7562 14.0553 11.8013 14.0462 11.8463C14.0373 11.8912 14.0272 11.9359 14.0162 11.9803C14.0051 12.0248 13.9928 12.069 13.9795 12.1128C13.9663 12.1566 13.9519 12.2001 13.9364 12.2433C13.921 12.2864 13.9045 12.3292 13.887 12.3715C13.8695 12.4139 13.8509 12.4557 13.8313 12.4972C13.8118 12.5386 13.7911 12.5795 13.7695 12.6199C13.7479 12.6603 13.7253 12.7002 13.7017 12.7395C13.6782 12.7788 13.6537 12.8175 13.6282 12.8556C13.6028 12.8937 13.5764 12.9312 13.5491 12.968C13.5218 13.0048 13.4936 13.0409 13.4645 13.0763C13.4355 13.1117 13.4055 13.1464 13.3748 13.1804C13.344 13.2143 13.3124 13.2475 13.28 13.2799C13.2476 13.3123 13.2144 13.3439 13.1805 13.3747C13.1465 13.4054 13.1118 13.4354 13.0764 13.4644C13.041 13.4935 13.0049 13.5217 12.9681 13.549C12.9312 13.5763 12.8938 13.6027 12.8557 13.6281C12.8176 13.6536 12.7789 13.6781 12.7396 13.7016C12.7003 13.7252 12.6604 13.7478 12.62 13.7694C12.5796 13.791 12.5387 13.8117 12.4972 13.8312C12.4558 13.8508 12.4139 13.8694 12.3716 13.8869C12.3293 13.9044 12.2865 13.9209 12.2434 13.9364C12.2002 13.9518 12.1567 13.9662 12.1129 13.9794C12.069 13.9927 12.0249 14.005 11.9804 14.0161C11.936 14.0271 11.8913 14.0373 11.8463 14.0461C11.8014 14.0552 11.7563 14.063 11.7109 14.0697C11.6656 14.0764 11.6201 14.082 11.5745 14.0865C11.529 14.091 11.4833 14.0944 11.4375 14.0966C11.3917 14.0989 11.3459 14.1 11.3001 14.1L2.9001 14.1C2.85427 14.1 2.80847 14.0989 2.76271 14.0966C2.71694 14.0944 2.67124 14.091 2.62565 14.0865C2.58005 14.082 2.53458 14.0764 2.48926 14.0697C2.44392 14.063 2.39878 14.0552 2.35384 14.0461C2.3089 14.0373 2.2642 14.0271 2.21976 14.0161C2.17531 14.005 2.13115 13.9927 2.0873 13.9794C2.04346 13.9662 1.99996 13.9518 1.95681 13.9364C1.91366 13.9209 1.87092 13.9044 1.82858 13.8869C1.78625 13.8694 1.74437 13.8508 1.70295 13.8312C1.66152 13.8117 1.6206 13.791 1.58019 13.7694C1.53977 13.7478 1.49992 13.7252 1.46061 13.7016C1.42131 13.6781 1.3826 13.6536 1.3445 13.6281C1.3064 13.6027 1.26895 13.5763 1.23214 13.549C1.19533 13.5217 1.15922 13.4935 1.1238 13.4644C1.08837 13.4354 1.05369 13.4054 1.01973 13.3747C0.985778 13.3439 0.952601 13.3123 0.920198 13.2799C0.887796 13.2475 0.856208 13.2143 0.825434 13.1804C0.79466 13.1464 0.764739 13.1117 0.735669 13.0763C0.706598 13.0409 0.678414 13.0048 0.651117 12.968C0.623819 12.9312 0.597441 12.8937 0.571982 12.8556C0.546524 12.8175 0.522016 12.7788 0.498458 12.7395C0.4749 12.7002 0.452319 12.6603 0.430718 12.6199C0.409116 12.5795 0.38852 12.5386 0.368928 12.4972C0.349335 12.4557 0.330771 12.4139 0.313235 12.3715C0.295698 12.3292 0.279212 12.2864 0.263775 12.2433C0.248336 12.2001 0.233966 12.1566 0.220665 12.1128C0.207363 12.069 0.195145 12.0248 0.18401 11.9803C0.172876 11.9359 0.162839 11.8912 0.153899 11.8463C0.144959 11.8013 0.137127 11.7562 0.130403 11.7108C0.12368 11.6655 0.118072 11.6201 0.11358 11.5745C0.109089 11.5289 0.105719 11.4832 0.10347 11.4374C0.101222 11.3916 0.100098 11.3458 0.100098 11.3L0.100098 2.90001C0.100098 2.85418 0.101222 2.80838 0.10347 2.76262C0.105719 2.71684 0.109089 2.67115 0.11358 2.62556C0.118072 2.57996 0.12368 2.53449 0.130403 2.48917C0.137127 2.44383 0.144959 2.3987 0.153899 2.35376C0.162839 2.30882 0.172876 2.26411 0.18401 2.21967C0.195144 2.17522 0.207363 2.13106 0.220665 2.08721C0.233966 2.04337 0.248336 1.99986 0.263775 1.95672C0.279212 1.91357 0.295698 1.87083 0.313235 1.82849C0.330771 1.78616 0.349335 1.74428 0.368928 1.70286C0.38852 1.66143 0.409116 1.62051 0.430718 1.5801C0.452319 1.53968 0.4749 1.49983 0.498458 1.46052C0.522016 1.42121 0.546524 1.38251 0.571982 1.34441C0.597441 1.30631 0.623819 1.26885 0.651117 1.23205C0.678414 1.19524 0.706597 1.15913 0.735668 1.12371C0.764738 1.08828 0.79466 1.05359 0.825434 1.01964C0.856208 0.985688 0.887796 0.95251 0.920198 0.920107C0.952601 0.887704 0.985778 0.856117 1.01973 0.825343C1.05369 0.794569 1.08837 0.764648 1.1238 0.735577C1.15922 0.706507 1.19533 0.678322 1.23214 0.651025C1.26895 0.623728 1.3064 0.597349 1.3445 0.571891C1.3826 0.546432 1.42131 0.521924 1.46061 0.498366C1.49992 0.474808 1.53977 0.452228 1.58019 0.430626C1.6206 0.409026 1.66152 0.388429 1.70295 0.368836C1.74437 0.349243 1.78625 0.330679 1.82858 0.313144C1.87092 0.295607 1.91366 0.27912 1.95681 0.263683C1.99996 0.248245 2.04346 0.233875 2.0873 0.220573C2.13115 0.207271 2.17531 0.195053 2.21976 0.183919C2.2642 0.172784 2.3089 0.162747 2.35384 0.153807C2.39878 0.144867 2.44392 0.137036 2.48926 0.130312C2.53458 0.123588 2.58005 0.11798 2.62565 0.113489C2.67124 0.108997 2.71694 0.105627 2.76271 0.103379C2.80847 0.10113 2.85427 0.100006 2.9001 0.100006ZM2.9001 0.800006C2.86573 0.800006 2.83138 0.80085 2.79705 0.802535C2.76272 0.804221 2.72846 0.806749 2.69427 0.810118C2.66006 0.813487 2.62596 0.817692 2.59196 0.822736C2.55796 0.827779 2.52411 0.833653 2.49041 0.840357C2.45671 0.847062 2.42318 0.85459 2.38984 0.86294C2.3565 0.871291 2.32339 0.880455 2.2905 0.890432C2.25762 0.900408 2.22499 0.911184 2.19263 0.922763C2.16027 0.934342 2.12821 0.946707 2.09646 0.959859C2.06471 0.973011 2.0333 0.986935 2.00224 1.00163C1.97116 1.01632 1.94047 1.03177 1.91016 1.04797C1.87985 1.06417 1.84996 1.08111 1.82048 1.09878C1.79101 1.11644 1.76198 1.13483 1.73339 1.15392C1.70482 1.17301 1.67674 1.1928 1.64913 1.21327C1.62153 1.23374 1.59443 1.25488 1.56787 1.27668C1.5413 1.29849 1.51529 1.32093 1.48983 1.34401C1.46436 1.36709 1.43948 1.39078 1.41517 1.41508C1.39087 1.43938 1.36718 1.46427 1.3441 1.48974C1.32102 1.5152 1.29858 1.54121 1.27678 1.56778C1.25497 1.59434 1.23384 1.62144 1.21336 1.64904C1.19289 1.67665 1.17311 1.70473 1.15401 1.7333C1.13492 1.76189 1.11654 1.79092 1.09887 1.82039C1.0812 1.84987 1.06426 1.87976 1.04806 1.91007C1.03186 1.94038 1.01641 1.97107 1.00172 2.00215C0.987026 2.03321 0.973103 2.06461 0.959951 2.09637C0.946798 2.12812 0.934433 2.16018 0.922855 2.19254C0.911276 2.2249 0.9005 2.25752 0.890523 2.2904C0.880547 2.3233 0.871383 2.35641 0.863032 2.38974C0.854681 2.42309 0.847154 2.45661 0.840449 2.49031C0.833744 2.52402 0.827871 2.55787 0.822827 2.59187C0.817784 2.62587 0.813578 2.65997 0.810209 2.69418C0.806841 2.72837 0.804313 2.76263 0.802627 2.79696C0.800941 2.83129 0.800098 2.86563 0.800098 2.90001L0.800098 11.3C0.800098 11.3344 0.800941 11.3687 0.802627 11.4031C0.804313 11.4374 0.806841 11.4716 0.810209 11.5058C0.813578 11.54 0.817784 11.5741 0.822827 11.6081C0.827871 11.6421 0.833744 11.676 0.840449 11.7097C0.847154 11.7434 0.854681 11.7769 0.863032 11.8103C0.871383 11.8436 0.880547 11.8767 0.890523 11.9096C0.9005 11.9425 0.911276 11.9751 0.922855 12.0075C0.934433 12.0398 0.946798 12.0719 0.959951 12.1036C0.973103 12.1354 0.987026 12.1668 1.00172 12.1979C1.01641 12.2289 1.03186 12.2596 1.04806 12.2899C1.06426 12.3203 1.0812 12.3501 1.09887 12.3796C1.11654 12.4091 1.13492 12.4381 1.15401 12.4667C1.1731 12.4953 1.19289 12.5234 1.21336 12.551C1.23384 12.5786 1.25497 12.6057 1.27678 12.6322C1.29858 12.6588 1.32102 12.6848 1.3441 12.7103C1.36718 12.7357 1.39087 12.7606 1.41517 12.7849C1.43948 12.8092 1.46436 12.8329 1.48983 12.856C1.51529 12.8791 1.5413 12.9015 1.56787 12.9233C1.59443 12.9451 1.62153 12.9663 1.64913 12.9867C1.67674 13.0072 1.70482 13.027 1.73339 13.0461C1.76198 13.0652 1.79101 13.0836 1.82048 13.1012C1.84996 13.1189 1.87985 13.1358 1.91016 13.152C1.94047 13.1682 1.97116 13.1837 2.00224 13.1984C2.0333 13.2131 2.06471 13.227 2.09646 13.2402C2.12821 13.2533 2.16027 13.2657 2.19263 13.2772C2.22499 13.2888 2.25762 13.2996 2.2905 13.3096C2.32339 13.3196 2.3565 13.3287 2.38984 13.3371C2.42318 13.3454 2.45671 13.3529 2.49041 13.3597C2.52411 13.3664 2.55796 13.3722 2.59196 13.3773C2.62596 13.3823 2.66006 13.3865 2.69427 13.3899C2.72846 13.3933 2.76272 13.3958 2.79705 13.3975C2.83138 13.3992 2.86573 13.4 2.9001 13.4L11.3001 13.4C11.3345 13.4 11.3688 13.3992 11.4031 13.3975C11.4375 13.3958 11.4717 13.3933 11.5059 13.3899C11.5401 13.3865 11.5742 13.3823 11.6082 13.3773C11.6422 13.3722 11.6761 13.3664 11.7098 13.3597C11.7435 13.3529 11.777 13.3454 11.8104 13.3371C11.8437 13.3287 11.8768 13.3196 11.9097 13.3096C11.9426 13.2996 11.9752 13.2888 12.0076 13.2772C12.0399 13.2657 12.072 13.2533 12.1037 13.2402C12.1355 13.227 12.1669 13.2131 12.198 13.1984C12.229 13.1837 12.2597 13.1682 12.29 13.152C12.3203 13.1358 12.3502 13.1189 12.3797 13.1012C12.4092 13.0836 12.4382 13.0652 12.4668 13.0461C12.4954 13.027 12.5235 13.0072 12.5511 12.9867C12.5787 12.9663 12.6058 12.9451 12.6323 12.9233C12.6589 12.9015 12.6849 12.8791 12.7104 12.856C12.7358 12.8329 12.7607 12.8092 12.785 12.7849C12.8093 12.7606 12.833 12.7357 12.8561 12.7103C12.8792 12.6848 12.9016 12.6588 12.9234 12.6322C12.9452 12.6057 12.9664 12.5786 12.9868 12.551C13.0073 12.5234 13.0271 12.4953 13.0462 12.4667C13.0653 12.4381 13.0837 12.4091 13.1013 12.3796C13.119 12.3501 13.1359 12.3203 13.1521 12.2899C13.1683 12.2596 13.1838 12.2289 13.1985 12.1979C13.2132 12.1668 13.2271 12.1354 13.2402 12.1036C13.2534 12.0719 13.2658 12.0398 13.2773 12.0075C13.2889 11.9751 13.2997 11.9425 13.3097 11.9096C13.3197 11.8767 13.3288 11.8436 13.3372 11.8103C13.3455 11.7769 13.353 11.7434 13.3598 11.7097C13.3665 11.676 13.3723 11.6421 13.3774 11.6081C13.3824 11.5741 13.3866 11.54 13.39 11.5058C13.3934 11.4716 13.3959 11.4374 13.3976 11.4031C13.3993 11.3687 13.4001 11.3344 13.4001 11.3L13.4001 2.90001C13.4001 2.86563 13.3993 2.83129 13.3976 2.79696C13.3959 2.76263 13.3934 2.72837 13.39 2.69418C13.3866 2.65997 13.3824 2.62587 13.3774 2.59187C13.3723 2.55787 13.3665 2.52402 13.3598 2.49031C13.353 2.45661 13.3455 2.42309 13.3372 2.38974C13.3288 2.35641 13.3197 2.3233 13.3097 2.2904C13.2997 2.25752 13.2889 2.2249 13.2773 2.19254C13.2658 2.16018 13.2534 2.12812 13.2402 2.09637C13.2271 2.06461 13.2132 2.03321 13.1985 2.00215C13.1838 1.97107 13.1683 1.94038 13.1521 1.91007C13.1359 1.87976 13.119 1.84987 13.1013 1.82039C13.0837 1.79092 13.0653 1.76189 13.0462 1.7333C13.0271 1.70473 13.0073 1.67665 12.9868 1.64904C12.9664 1.62144 12.9452 1.59434 12.9234 1.56778C12.9016 1.54121 12.8792 1.5152 12.8561 1.48974C12.833 1.46427 12.8093 1.43938 12.785 1.41508C12.7607 1.39078 12.7358 1.36709 12.7104 1.34401C12.6849 1.32093 12.6589 1.29849 12.6323 1.27668C12.6058 1.25488 12.5787 1.23374 12.5511 1.21327C12.5235 1.1928 12.4954 1.17301 12.4668 1.15392C12.4382 1.13483 12.4092 1.11644 12.3797 1.09878C12.3502 1.08111 12.3203 1.06417 12.29 1.04797C12.2597 1.03177 12.229 1.01632 12.198 1.00163C12.1669 0.986935 12.1355 0.973011 12.1037 0.959859C12.072 0.946707 12.0399 0.934342 12.0076 0.922763C11.9752 0.911184 11.9426 0.900408 11.9097 0.890432C11.8768 0.880455 11.8437 0.871291 11.8104 0.86294C11.777 0.85459 11.7435 0.847062 11.7098 0.840357C11.6761 0.833653 11.6422 0.827779 11.6082 0.822736C11.5742 0.817692 11.5401 0.813487 11.5059 0.810118C11.4717 0.806749 11.4375 0.804221 11.4031 0.802535C11.3688 0.80085 11.3345 0.800006 11.3001 0.800006L2.9001 0.800006ZM4.8881 9.64311L4.1524 9.64311C3.9319 9.64311 3.7842 9.49611 3.7842 9.2749L3.7842 4.11801C3.7842 3.89681 3.9312 3.74981 4.1524 3.74981L4.88949 3.74981C5.10999 3.74981 5.2577 3.89681 5.2577 4.11801L5.2577 9.2749C5.2577 9.49611 5.1107 9.64311 4.88949 9.64311L4.8881 9.64311ZM11.5185 11.1166L2.6782 11.1166C2.4577 11.1166 2.30999 10.9696 2.30999 10.7484C2.30999 10.5272 2.45699 10.3802 2.6782 10.3802L11.5192 10.3802C11.7397 10.3802 11.8874 10.5272 11.8874 10.7484C11.8874 10.9689 11.7404 11.1166 11.5185 11.1166ZM7.8351 9.64311C7.6146 9.64311 7.4669 9.49611 7.4669 9.2749L7.4669 4.11801C7.4669 3.89681 7.6139 3.74981 7.8351 3.74981C8.0563 3.74981 8.20399 3.89681 8.20399 4.11801L8.20399 9.2749C8.20399 9.49611 8.05699 9.64311 7.8351 9.64311ZM6.3623 9.64311C6.1411 9.64311 5.9934 9.49611 5.9934 9.2749L5.9934 4.11801C5.9934 3.89681 6.1404 3.74981 6.3623 3.74981C6.5828 3.74981 6.73049 3.89681 6.73049 4.11801L6.73049 9.2749C6.73049 9.49611 6.58349 9.64311 6.3623 9.64311ZM2.6782 9.64311C2.4577 9.64311 2.30999 9.49611 2.30999 9.2749L2.30999 4.11801C2.30999 3.89681 2.45699 3.74981 2.6782 3.74981C2.8994 3.74981 3.0471 3.89681 3.0471 4.11801L3.0471 9.2749C3.0471 9.49611 2.9001 9.64311 2.6782 9.64311ZM10.0457 9.64311L9.3086 9.64311C9.0874 9.64311 8.9404 9.49611 8.9404 9.2749L8.9404 4.11801C8.9404 3.89681 9.0874 3.74981 9.3086 3.74981L10.0457 3.74981C10.2662 3.74981 10.4139 3.89681 10.4139 4.11801L10.4139 9.2749C10.4139 9.49611 10.2669 9.64311 10.0457 9.64311ZM11.5185 9.64311C11.298 9.64311 11.1503 9.49611 11.1503 9.2749L11.1503 4.11801C11.1503 3.89681 11.2973 3.74981 11.5185 3.74981C11.7397 3.74981 11.8874 3.89681 11.8874 4.11801L11.8874 9.2749C11.8874 9.49611 11.7404 9.64311 11.5185 9.64311Z" stroke="rgba(0, 115, 237, 1)" stroke-width="0.2"      fill="#0073ED" ></path></svg>