<svg xmlns="http://www.w3.org/2000/svg" xmlns:xlink="http://www.w3.org/1999/xlink" viewBox="0 0 32 32" width="19" height="19" style="" filter="none">
    
    <g>
    <path d="M14.667 25.333v-13.333h-9.333v13.333h9.333zM14.667 9.333v-4c0-0.736 0.597-1.333 1.333-1.333v0h12c0.736 0 1.333 0.597 1.333 1.333v0 21.333c0 0.736-0.597 1.333-1.333 1.333v0h-24c-0.736 0-1.333-0.597-1.333-1.333v0-16c0-0.736 0.597-1.333 1.333-1.333v0h10.667zM17.333 6.667v18.667h9.333v-18.667h-9.333zM6.667 21.333h6.667v2.667h-6.667v-2.667zM18.667 21.333h6.667v2.667h-6.667v-2.667zM18.667 17.333h6.667v2.667h-6.667v-2.667zM18.667 13.333h6.667v2.667h-6.667v-2.667zM6.667 17.333h6.667v2.667h-6.667v-2.667z" fill="rgba(0,0,0,1)"></path>
    </g>
  </svg>