<?xml version="1.0" standalone="no"?><!DOCTYPE svg PUBLIC "-//W3C//DTD SVG 1.1//EN" "http://www.w3.org/Graphics/SVG/1.1/DTD/svg11.dtd"><svg t="1762415244254" class="icon" viewBox="0 0 1034 1024" version="1.1" xmlns="http://www.w3.org/2000/svg" p-id="9311" xmlns:xlink="http://www.w3.org/1999/xlink" width="201.953125" height="200"><path d="M513.552 1024c-282.37 0-512-229.63-512-512s229.63-512 512-512 512 229.63 512 512-229.75 512-512 512z m0-950.548C271.641 73.452 75.005 270.21 75.005 512s196.756 438.548 438.547 438.548C755.344 950.548 952.1 753.79 952.1 512c-0.12-241.791-196.877-438.548-438.548-438.548z m0 0" fill="#547ffb" p-id="9312"></path><path d="M759.197 376.173c-14.33-14.209-37.57-14.088-51.658 0.24L440.822 646.022 322.817 524.764c-14.089-14.57-37.208-14.811-51.658-0.723-14.45 14.089-14.81 37.208-0.722 51.658l144.015 147.989c0.12 0.12 0.24 0.12 0.24 0.24 0.121 0.12 0.121 0.241 0.241 0.241 2.288 2.288 5.178 3.613 7.827 5.178 1.445 0.723 2.53 2.047 3.974 2.65 4.455 1.805 9.152 2.769 13.848 2.769 4.696 0 9.272-0.964 13.727-2.65 1.445-0.601 2.529-1.806 3.853-2.528 2.77-1.565 5.54-2.89 7.947-5.178 0.12-0.12 0.12-0.24 0.241-0.24 0.12-0.121 0.241-0.121 0.241-0.241L759.438 427.95c14.209-14.45 14.088-37.57-0.241-51.778z m0 0" fill="#547ffb" p-id="9313"></path></svg>