<svg xmlns="http://www.w3.org/2000/svg" xmlns:xlink="http://www.w3.org/1999/xlink" width="14.001953125" height="14" viewBox="0 0 14.001953125 14" fill="none"><path d="M2.44666 3.53766C3.49032 2.16262 5.13864 1.27175 7.0043 1.27175C9.49831 1.27175 11.6136 2.86628 12.3969 5.0913L13.7332 5.0913C12.8982 2.15401 10.2063 0 7 0C4.69751 0 2.66185 1.11681 1.38795 2.834L0 1.91085L0 6.3652L3.81955 4.4565C3.81955 4.45435 2.44666 3.53766 2.44666 3.53766ZM10.1848 9.54565L11.5576 10.4623C10.5118 11.8374 8.86351 12.7282 7.0043 12.7282C4.5103 12.7282 2.39717 11.1337 1.61174 8.9087L0.275438 8.9087C1.1039 11.846 3.80018 14 7.00215 14C9.30464 14 11.3425 12.8832 12.6142 11.166L14.0021 12.0891L14.0021 7.6348C14.0021 7.63695 10.1848 9.54565 10.1848 9.54565ZM8.913 5.0913L5.09345 5.0913C4.7427 5.0913 4.4565 5.37534 4.4565 5.72825C4.4565 6.08115 4.74055 6.3652 5.09345 6.3652L8.913 6.3652C9.25515 6.35014 9.52628 6.0704 9.52628 5.72825C9.52413 5.3861 9.253 5.10421 8.913 5.0913ZM8.913 7.63695L5.09345 7.63695C4.7427 7.63695 4.4565 7.92099 4.4565 8.2739C4.4565 8.62465 4.74055 8.91085 5.09345 8.91085L8.913 8.91085C9.26375 8.91085 9.54995 8.6268 9.54995 8.2739C9.5478 7.92099 9.26375 7.63695 8.913 7.63695Z"   fill="#0073ED" ></path></svg>