<svg xmlns="http://www.w3.org/2000/svg" xmlns:xlink="http://www.w3.org/1999/xlink" width="14" height="13.67877197265625" viewBox="0 0 14 13.67877197265625" fill="none"><path d="M10.8891 5.17827C10.8922 5.17425 10.8953 5.17028 10.8985 5.1664C10.9017 5.16251 10.905 5.1587 10.9083 5.15496C10.9117 5.15123 10.9152 5.14758 10.9187 5.144C10.9223 5.14042 10.9259 5.13694 10.9296 5.13352C10.9333 5.13011 10.9371 5.12679 10.9409 5.12356C10.9448 5.12034 10.9487 5.11718 10.9527 5.11413C10.9567 5.11107 10.9608 5.10812 10.965 5.10525C10.9691 5.10239 10.9733 5.09963 10.9776 5.09696C10.9818 5.09429 10.9862 5.09172 10.9906 5.08925C10.9949 5.08677 10.9994 5.08441 11.0039 5.08214C11.0084 5.07987 11.0129 5.07772 11.0175 5.07566C11.0221 5.0736 11.0267 5.07165 11.0314 5.06981C11.0361 5.06797 11.0408 5.06624 11.0456 5.06463C11.0504 5.06299 11.0552 5.06147 11.06 5.06008C11.0649 5.05868 11.0697 5.05738 11.0746 5.05621C11.0795 5.05503 11.0844 5.05397 11.0894 5.05301C11.0943 5.05206 11.0993 5.05123 11.1043 5.05051C11.1092 5.04979 11.1142 5.04918 11.1193 5.0487C11.1243 5.0482 11.1293 5.04783 11.1343 5.04757C11.1393 5.0473 11.1444 5.04717 11.1494 5.04714C11.1544 5.04711 11.1595 5.04719 11.1645 5.0474C11.1695 5.04761 11.1746 5.04794 11.1796 5.04837C11.1846 5.0488 11.1896 5.04935 11.1946 5.05003C11.1996 5.05069 11.2045 5.05148 11.2095 5.05238C11.2145 5.05328 11.2194 5.05429 11.2243 5.05541C11.2292 5.05653 11.2341 5.05777 11.2389 5.05912C11.2438 5.06046 11.2486 5.06193 11.2534 5.06351C11.2582 5.06507 11.2629 5.06675 11.2676 5.06855C11.2723 5.07033 11.277 5.07224 11.2816 5.07425C11.2862 5.07625 11.2908 5.07835 11.2953 5.08058C11.2998 5.08279 11.3043 5.08511 11.3087 5.08753C11.3131 5.08995 11.3175 5.09248 11.3218 5.09511L13.8672 6.79289C14.0025 6.88136 14.0379 7.06715 13.9573 7.20959L10.4008 12.5701L7.78377 13.6521C7.77794 13.6547 7.77204 13.6571 7.76605 13.6594C7.76007 13.6616 7.75403 13.6636 7.74793 13.6655C7.74182 13.6673 7.73565 13.669 7.72945 13.6705C7.72324 13.6719 7.71699 13.6732 7.7107 13.6743C7.70441 13.6753 7.69811 13.6762 7.69176 13.677C7.68542 13.6776 7.67906 13.6781 7.67269 13.6785C7.66631 13.6788 7.65993 13.6788 7.65355 13.6788C7.64718 13.6787 7.64081 13.6784 7.63445 13.6779C7.62808 13.6774 7.62173 13.6767 7.61541 13.6758C7.6091 13.6749 7.60282 13.6738 7.59656 13.6725C7.59031 13.6713 7.5841 13.6699 7.57794 13.6682C7.57177 13.6666 7.56566 13.6647 7.55962 13.6627C7.55358 13.6607 7.5476 13.6585 7.54168 13.6561C7.53576 13.6537 7.52993 13.6511 7.52418 13.6483C7.51843 13.6456 7.51276 13.6426 7.50719 13.6395C7.50162 13.6364 7.49616 13.6331 7.49078 13.6297C7.48542 13.6262 7.48016 13.6225 7.47502 13.6188C7.46986 13.6151 7.46485 13.6112 7.45994 13.607C7.45503 13.603 7.45026 13.5987 7.44563 13.5943C7.44099 13.59 7.43648 13.5854 7.43213 13.5807C7.42777 13.5761 7.42355 13.5713 7.41948 13.5664C7.41541 13.5615 7.4115 13.5565 7.40775 13.5513C7.40399 13.5461 7.4004 13.5409 7.39697 13.5355C7.39354 13.5301 7.39028 13.5246 7.3872 13.5191C7.38412 13.5135 7.3812 13.5078 7.37846 13.5021C7.37571 13.4963 7.37315 13.4904 7.37078 13.4845C7.3684 13.4786 7.3662 13.4726 7.36419 13.4666C7.36219 13.4605 7.36038 13.4544 7.35875 13.4482C7.35712 13.442 7.35568 13.4358 7.35444 13.4295C7.35319 13.4233 7.35214 13.4171 7.35128 13.4107C7.35043 13.4044 7.34976 13.398 7.34929 13.3916C7.34884 13.3853 7.34856 13.3789 7.34849 13.3726L7.3308 10.5308L10.8891 5.17827ZM13.2248 0C13.3752 0 13.5053 0.131823 13.5053 0.300805L13.5053 4.63948C13.5053 4.89605 13.2398 5.03495 13.0541 4.881L12.4878 4.4121C12.4834 4.40848 12.479 4.40473 12.4747 4.40088C12.4705 4.39702 12.4663 4.39304 12.4623 4.38895C12.4583 4.38486 12.4543 4.38065 12.4505 4.37635C12.4467 4.37204 12.443 4.36763 12.4395 4.36313C12.4359 4.3586 12.4324 4.354 12.4291 4.3493C12.4258 4.3446 12.4226 4.33982 12.4196 4.33494C12.4165 4.33006 12.4136 4.32511 12.4109 4.32008C12.4081 4.31505 12.4054 4.30995 12.4029 4.30476C12.4004 4.29958 12.3981 4.29432 12.3959 4.28902C12.3937 4.28371 12.3916 4.27834 12.3897 4.27293C12.3878 4.26749 12.3861 4.26202 12.3844 4.2565C12.3828 4.25099 12.3814 4.24542 12.3801 4.23982C12.3788 4.23422 12.3776 4.22859 12.3766 4.22292C12.3756 4.21726 12.3748 4.21158 12.3741 4.20587C12.3734 4.20016 12.3729 4.19443 12.3726 4.1887C12.3722 4.18296 12.372 4.17721 12.3719 4.17146L12.3719 1.7429L9.02415 1.7429L9.02415 3.91666L9.92745 3.91666C10.1663 3.91666 10.2964 4.20242 10.1531 4.39972L9.716 5.00752C9.71289 5.01215 9.70966 5.01669 9.70629 5.02112C9.70291 5.02556 9.69942 5.02989 9.69578 5.03412C9.69214 5.03833 9.6884 5.04245 9.68451 5.04646C9.68063 5.05046 9.67663 5.05434 9.67253 5.0581C9.66842 5.06187 9.66419 5.06551 9.65987 5.06902C9.65554 5.07253 9.6511 5.07591 9.64658 5.07915C9.64205 5.0824 9.63742 5.0855 9.6327 5.08847C9.62799 5.09144 9.62318 5.09428 9.6183 5.09696C9.61342 5.09964 9.60846 5.10217 9.60342 5.10456C9.59838 5.10694 9.59328 5.10917 9.58811 5.11125C9.58294 5.11334 9.57771 5.11526 9.57242 5.11703C9.56714 5.1188 9.5618 5.1204 9.55642 5.12186C9.55105 5.12331 9.54563 5.12459 9.54017 5.12571C9.53471 5.12683 9.52922 5.1278 9.5237 5.12859C9.51819 5.12939 9.51264 5.13003 9.50709 5.13048C9.50154 5.13095 9.49597 5.13126 9.4904 5.13138L9.01707 5.13138L9.01707 6.05149C9.01734 6.05955 9.01727 6.0676 9.0169 6.07565C9.01651 6.08371 9.0158 6.09173 9.01478 6.09972C9.01376 6.10773 9.01242 6.11566 9.01074 6.12355C9.00908 6.13145 9.00711 6.13924 9.00481 6.14697C9.00253 6.1547 8.99993 6.16233 8.99703 6.16985C8.99414 6.17737 8.99095 6.18477 8.98745 6.19204C8.98395 6.19929 8.98018 6.20641 8.97612 6.21338C8.97205 6.22033 8.96771 6.22712 8.96311 6.23374L7.33168 8.63753C7.32857 8.64216 7.32534 8.6467 7.32196 8.65113C7.31859 8.65557 7.31509 8.6599 7.31146 8.66413C7.30782 8.66836 7.30408 8.67248 7.30019 8.67647C7.29631 8.68047 7.29231 8.68435 7.28821 8.68811C7.2841 8.69188 7.27987 8.69552 7.27554 8.69903C7.27122 8.70254 7.26678 8.70592 7.26226 8.70916C7.25772 8.71241 7.25309 8.71551 7.24838 8.71848C7.24367 8.72145 7.23887 8.72429 7.23398 8.72697C7.2291 8.72965 7.22413 8.73218 7.2191 8.73457C7.21406 8.73695 7.20895 8.73918 7.20378 8.74126C7.19861 8.74335 7.19339 8.74527 7.18809 8.74704C7.18281 8.74881 7.17748 8.75041 7.1721 8.75187C7.16672 8.75332 7.1613 8.7546 7.15584 8.75572C7.15038 8.75684 7.1449 8.75781 7.13938 8.7586C7.13386 8.7594 7.12832 8.76004 7.12276 8.76049C7.11722 8.76096 7.11165 8.76127 7.10608 8.76139L5.06857 8.76139L5.06857 11.1767L6.0913 11.1767C6.16827 11.1767 6.24171 11.2112 6.29479 11.2705C6.34787 11.3297 6.3753 11.4102 6.37176 11.4916L6.34433 12.0994C6.33726 12.2534 6.21428 12.3852 6.06388 12.3852L0.280457 12.3852C0.130054 12.3852 0 12.2534 0 12.0844L0 0.300805C0 0.138016 0.122976 0 0.280457 0L13.2248 0ZM11.3519 6.39388L8.38981 10.8502L8.40485 12.256L9.69035 11.7199L12.6524 7.26356L11.3519 6.39388ZM4.01752 8.76316L1.11917 8.76316L1.11917 11.1784L4.01663 11.1784L4.01663 8.76316L4.01752 8.76316ZM4.01752 5.14023L1.11917 5.14023L1.11917 7.55552L4.01663 7.55552L4.01663 5.14023L4.01752 5.14023ZM7.97222 5.14023L5.07564 5.14023L5.07564 7.55552L7.97222 7.55552L7.97222 5.14023ZM4.01752 1.75794L1.11917 1.75794L1.11917 3.93258L4.01663 3.93258L4.01663 1.75794L4.01752 1.75794ZM7.97222 1.75794L5.07564 1.75794L5.07564 3.93258L7.97222 3.93258L7.97222 1.75794Z"   fill="#5A718C" ></path></svg>