<svg xmlns="http://www.w3.org/2000/svg" xmlns:xlink="http://www.w3.org/1999/xlink" width="16" height="16" viewBox="0 0 16 16" fill="none">
<path d="M13.7304 0L2.26964 0C1.02143 0 0 1.02143 0 2.26964L0 11.4429C0 12.6929 1.02143 13.7143 2.26964 13.7143L5.71429 13.7143L8 16L10.2857 13.7143L13.7304 13.7143C14.9786 13.7143 16 12.6929 16 11.4446L16 2.26964C16 1.02143 14.9786 0 13.7304 0ZM2.28571 8L10.2857 8L10.2857 9.14286L2.28571 9.14286L2.28571 8ZM13.7143 6.85714L2.28571 6.85714L2.28571 5.71429L13.7143 5.71429L13.7143 6.85714ZM13.7143 4.57143L2.28571 4.57143L2.28571 3.42857L13.7143 3.42857L13.7143 4.57143Z"   fill="#5380FD" >
</path>
</svg>
