<svg xmlns="http://www.w3.org/2000/svg" xmlns:xlink="http://www.w3.org/1999/xlink" width="15.39990234375" height="15.4000244140625" viewBox="0 0 15.39990234375 15.4000244140625" fill="none"><path d="M13.1875 5.96271L12.25 5.02521C12.0669 4.8421 11.7695 4.8421 11.5864 5.02521L10.6489 5.96271C10.4658 6.14581 10.4658 6.44318 10.6489 6.62628C10.832 6.80939 11.1294 6.80939 11.3125 6.62628L11.4502 6.48859L11.4502 10.5125L6.29395 10.5125C6.03467 10.5125 5.8252 10.722 5.8252 10.9813C5.8252 11.2405 6.03467 11.45 6.29395 11.45L11.4502 11.45C11.9673 11.45 12.3877 11.0296 12.3877 10.5125L12.3877 6.48859L12.5254 6.62628C12.6177 6.71857 12.7363 6.76398 12.8564 6.76398C12.9766 6.76398 13.0967 6.71857 13.1875 6.62628C13.3706 6.44171 13.3706 6.14581 13.1875 5.96271Z" stroke="rgba(0, 115, 237, 1)" stroke-width="0.4"      fill="#0073ED" ></path><path d="M8.64502 13.325L8.6377 13.325L8.6377 14.2625L1.1377 14.2625L1.1377 7.70001L2.0752 7.70001L2.0752 6.76251L1.1377 6.76251C0.620606 6.76251 0.200195 7.18292 0.200195 7.70001L0.200195 14.2625C0.200195 14.7796 0.620606 15.2 1.1377 15.2L8.6377 15.2C9.15479 15.2 9.5752 14.7796 9.5752 14.2625L9.5752 13.325L8.64502 13.325Z" stroke="rgba(0, 115, 237, 1)" stroke-width="0.4"      fill="#0073ED" ></path><path d="M14.2623 0.200012L6.76233 0.200012C6.24524 0.200012 5.82483 0.620422 5.82483 1.13751L5.82483 3.95001L3.94983 3.95001C3.43274 3.95001 3.01233 4.37042 3.01233 4.88751L3.01233 8.9129L2.87463 8.77521C2.78235 8.68292 2.6637 8.63751 2.54358 8.63751C2.42346 8.63751 2.30334 8.68292 2.21252 8.77521C2.02942 8.95831 2.02942 9.25568 2.21252 9.43878L3.15002 10.3763C3.33313 10.5594 3.63049 10.5594 3.8136 10.3763L4.7511 9.43878C4.9342 9.25568 4.9342 8.95831 4.7511 8.77521C4.56799 8.5921 4.27063 8.5921 4.08752 8.77521L3.94983 8.9129L3.94983 4.88751L5.82483 4.88751L5.82483 7.70001C5.82483 8.2171 6.24524 8.63751 6.76233 8.63751L10.5123 8.63751L10.5123 7.70001L6.76233 7.70001L6.76233 1.13751L14.2623 1.13751L14.2623 7.70001L13.3248 7.70001L13.3248 8.63751L14.2623 8.63751C14.7794 8.63751 15.1998 8.2171 15.1998 7.70001L15.1998 1.13751C15.1998 0.620422 14.7794 0.200012 14.2623 0.200012Z" stroke="rgba(0, 115, 237, 1)" stroke-width="0.4"      fill="#0073ED" ></path></svg>