<svg xmlns="http://www.w3.org/2000/svg" xmlns:xlink="http://www.w3.org/1999/xlink" width="12.17999267578125" height="10.77978515625" viewBox="0 0 12.17999267578125 10.77978515625" fill="none"><path d="M0.56 1.12L11.62 1.12C11.928 1.12 12.18 0.868 12.18 0.56C12.18 0.252 11.928 0 11.62 0L0.56 0C0.252 0 0 0.252 0 0.56C0 0.868 0.252 1.12 0.56 1.12ZM11.62 9.66L0.56 9.66C0.252 9.66 0 9.912 0 10.22C0 10.528 0.252 10.78 0.56 10.78L11.62 10.78C11.928 10.78 12.18 10.528 12.18 10.22C12.18 9.912 11.928 9.66 11.62 9.66ZM11.06 2.8L5.11 2.8C4.494 2.8 3.99 3.304 3.99 3.92L3.99 6.86C3.99 7.476 4.494 7.98 5.11 7.98L11.06 7.98C11.676 7.98 12.18 7.476 12.18 6.86L12.18 3.92C12.18 3.304 11.676 2.8 11.06 2.8ZM11.06 6.86L5.11 6.86L5.11 3.92L11.06 3.92L11.06 6.86ZM0 5.39C0 5.698 0.252 5.95 0.56 5.95L1.19 5.95L1.19 6.58C1.19 6.888 1.442 7.14 1.75 7.14C2.058 7.14 2.31 6.888 2.31 6.58L2.31 5.95L2.94 5.95C3.248 5.95 3.5 5.698 3.5 5.39C3.5 5.082 3.248 4.83 2.94 4.83L2.31 4.83L2.31 4.2C2.31 3.892 2.058 3.64 1.75 3.64C1.442 3.64 1.19 3.892 1.19 4.2L1.19 4.83L0.56 4.83C0.252 4.83 0 5.082 0 5.39Z"   fill="#0073ED" ></path></svg>