<svg xmlns="http://www.w3.org/2000/svg" xmlns:xlink="http://www.w3.org/1999/xlink" width="12" height="12" viewBox="0 0 12 12" fill="none">
<path d="M7.0425 7.94439C7.09757 7.88718 7.15084 7.82832 7.20228 7.76782C7.25373 7.70731 7.30326 7.64529 7.35086 7.58172C7.39848 7.51816 7.44409 7.45318 7.48768 7.3868C7.53127 7.32043 7.57278 7.25277 7.6122 7.18382C7.65162 7.11487 7.68888 7.04478 7.72396 6.97353C7.75905 6.90228 7.79191 6.83002 7.82253 6.75676C7.85316 6.68348 7.8815 6.60934 7.90754 6.53431C7.93358 6.45928 7.95728 6.38352 7.97865 6.30704C8.00002 6.23054 8.01901 6.15346 8.0356 6.0758C8.05221 5.99813 8.0664 5.92004 8.07817 5.84151C8.08995 5.76297 8.09929 5.68414 8.10621 5.60503C8.11312 5.5259 8.11757 5.44665 8.11959 5.36727C8.1216 5.28787 8.12117 5.20849 8.11828 5.12913C8.11539 5.04976 8.11005 4.97056 8.10227 4.89153C8.09449 4.81249 8.08428 4.73377 8.07162 4.65538C8.05899 4.57696 8.04393 4.49902 8.02647 4.42155C8.00901 4.34408 7.98918 4.26721 7.96696 4.19097C7.94477 4.11472 7.92023 4.03923 7.89335 3.9645C7.86649 3.88975 7.83733 3.81593 7.80589 3.743C7.77446 3.67006 7.74082 3.59817 7.70493 3.52732C7.66907 3.45646 7.63105 3.38679 7.59086 3.31829C7.55069 3.24978 7.50843 3.18257 7.4641 3.11668C7.41978 3.05079 7.37346 2.98632 7.32515 2.9233C7.27685 2.86025 7.22663 2.79877 7.17452 2.73884C7.12242 2.67891 7.06851 2.62065 7.0128 2.56404C6.95709 2.50744 6.89969 2.45261 6.84059 2.39956C6.78151 2.3465 6.72083 2.29532 6.65857 2.24601C6.59632 2.1967 6.53259 2.14936 6.46741 2.10399C6.40223 2.05862 6.33571 2.0153 6.26785 1.97404C6.2 1.93278 6.13094 1.89365 6.06066 1.85665C5.9904 1.81966 5.91904 1.78487 5.84662 1.75227C5.7742 1.71969 5.70084 1.68937 5.62654 1.66131C5.55225 1.63325 5.47715 1.60751 5.40126 1.5841C5.32538 1.56068 5.24885 1.53962 5.17166 1.52093C5.09448 1.50224 5.01678 1.48595 4.93859 1.47205C4.86041 1.45816 4.78185 1.4467 4.70295 1.43766C4.62405 1.42862 4.54495 1.42203 4.46564 1.41788C4.38632 1.41372 4.30696 1.41202 4.22755 1.41277C4.14814 1.41352 4.06883 1.41672 3.98961 1.42237C3.91039 1.42802 3.83143 1.4361 3.75271 1.44663C3.674 1.45716 3.59568 1.47011 3.51777 1.48547C3.43985 1.50083 3.36248 1.51859 3.28565 1.53873C3.20884 1.55887 3.13271 1.58137 3.05728 1.60622C2.98185 1.63107 2.90726 1.65821 2.83351 1.68767C2.75975 1.71712 2.68698 1.74882 2.61519 1.78278C2.5434 1.81673 2.47271 1.85286 2.40315 1.89118C2.33359 1.92949 2.26528 1.96991 2.19821 2.01245C2.13114 2.05499 2.06545 2.09956 2.00114 2.14615C1.93682 2.19275 1.87401 2.24128 1.8127 2.29175C1.75139 2.34222 1.69169 2.39454 1.6336 2.44871C1.57553 2.50286 1.51917 2.55877 1.46454 2.61642C1.4099 2.67405 1.35711 2.73332 1.30615 2.79424C1.25518 2.85513 1.20614 2.91755 1.15902 2.98149C1.11191 3.04542 1.06682 3.11075 1.02374 3.17748C0.980663 3.24419 0.939686 3.31217 0.900809 3.38143C0.861933 3.45068 0.82523 3.52106 0.790701 3.59258C0.756171 3.66409 0.723882 3.7366 0.693832 3.81012C0.663783 3.88364 0.636031 3.958 0.610575 4.03324C0.58512 4.10846 0.562011 4.1844 0.541245 4.26106C0.520481 4.3377 0.502102 4.41493 0.486107 4.49272C0.470114 4.57051 0.456535 4.64872 0.445372 4.72735C0.434209 4.80597 0.425484 4.88487 0.419195 4.96405C0.412906 5.04321 0.409065 5.1225 0.407674 5.2019C0.406282 5.28131 0.407343 5.36068 0.410854 5.44003C0.414366 5.51936 0.420323 5.59851 0.428724 5.67748C0.437125 5.75646 0.447955 5.83509 0.461214 5.91339C0.474474 5.9917 0.490136 6.06951 0.508202 6.14686C0.526268 6.22419 0.546703 6.30089 0.569507 6.37696C0.592312 6.45303 0.617442 6.52832 0.644897 6.60286C0.672354 6.67737 0.702084 6.75098 0.734085 6.82366C0.766087 6.89634 0.800302 6.96798 0.836728 7.03855C0.873155 7.10912 0.911725 7.17849 0.952438 7.24668C0.993151 7.31486 1.03593 7.38173 1.08077 7.44727C1.12561 7.51282 1.17244 7.57692 1.22124 7.63958C1.27004 7.70223 1.32073 7.7633 1.37331 7.82284C1.42588 7.88236 1.48025 7.9402 1.5364 7.99637C1.59255 8.05252 1.65037 8.1069 1.70988 8.15949C1.76939 8.21209 1.83046 8.26278 1.8931 8.3116C1.95575 8.36042 2.01984 8.40726 2.08537 8.45212C2.1509 8.49698 2.21776 8.53978 2.28594 8.58051C2.35412 8.62123 2.42349 8.65982 2.49405 8.69627C2.56461 8.73271 2.63622 8.76694 2.7089 8.79896C2.78158 8.83098 2.85518 8.86073 2.92968 8.88821C3.0042 8.91568 3.0795 8.94083 3.15555 8.96366C3.23163 8.98647 3.30833 9.00692 3.38565 9.02501C3.46299 9.0431 3.5408 9.05878 3.6191 9.07205C3.6974 9.08533 3.77603 9.09618 3.855 9.10461C3.93397 9.11302 4.01313 9.119 4.09246 9.12254C4.1718 9.12607 4.25117 9.12714 4.33058 9.12577C4.40998 9.12439 4.48927 9.12057 4.56843 9.11431C4.6476 9.10803 4.72651 9.09932 4.80514 9.08819C4.88377 9.07705 4.96198 9.06349 5.03977 9.04752C5.11757 9.03153 5.1948 9.01318 5.27145 8.99244C5.34812 8.97168 5.42407 8.94859 5.4993 8.92316C5.57453 8.89771 5.6489 8.86998 5.72242 8.83995C5.79595 8.80992 5.86848 8.77764 5.94 8.74314L7.11 10.3125C7.11684 10.3211 7.12387 10.3295 7.13111 10.3377C7.13835 10.346 7.1458 10.354 7.15342 10.3619C7.16107 10.3698 7.16888 10.3775 7.17687 10.385C7.18488 10.3925 7.19305 10.3998 7.20139 10.4069C7.20974 10.414 7.21826 10.4209 7.22695 10.4276C7.23563 10.4343 7.24447 10.4407 7.25346 10.447C7.26246 10.4533 7.2716 10.4593 7.28088 10.4652C7.29016 10.471 7.29958 10.4766 7.30913 10.482C7.31869 10.4874 7.32837 10.4925 7.33817 10.4974C7.34797 10.5024 7.35788 10.507 7.36791 10.5115C7.37794 10.5159 7.38807 10.5201 7.39829 10.5241C7.40852 10.528 7.41884 10.5317 7.42925 10.5352C7.43966 10.5386 7.45013 10.5418 7.46069 10.5448C7.47126 10.5477 7.48188 10.5504 7.49257 10.5529C7.50325 10.5553 7.514 10.5575 7.52479 10.5594C7.5356 10.5613 7.54642 10.563 7.5573 10.5644C7.56817 10.5658 7.57908 10.567 7.59001 10.5678C7.60094 10.5687 7.61189 10.5693 7.62284 10.5697C7.63381 10.5701 7.64477 10.5701 7.65573 10.57C7.66669 10.5698 7.67764 10.5694 7.68858 10.5687C7.69953 10.568 7.71045 10.567 7.72134 10.5658C7.73224 10.5646 7.7431 10.5631 7.75393 10.5613C7.76476 10.5596 7.77554 10.5576 7.78626 10.5553C7.797 10.553 7.80766 10.5505 7.81826 10.5477C7.82888 10.545 7.83942 10.5419 7.84987 10.5387C7.86033 10.5354 7.87071 10.5318 7.881 10.5281C7.8913 10.5243 7.90149 10.5202 7.91158 10.516C7.92168 10.5117 7.93168 10.5072 7.94156 10.5024C7.95145 10.4977 7.96121 10.4927 7.97084 10.4875C7.98049 10.4823 7.99 10.4768 7.99938 10.4711C8.00876 10.4654 8.018 10.4595 8.02709 10.4534C8.03619 10.4473 8.04514 10.441 8.05393 10.4344C8.06272 10.4279 8.07135 10.4211 8.07981 10.4141C8.08829 10.4072 8.09658 10.4 8.10469 10.3926C8.11283 10.3853 8.12076 10.3777 8.12852 10.37C8.13628 10.3622 8.14385 10.3543 8.15123 10.3462C8.15861 10.3381 8.16578 10.3298 8.17276 10.3213C8.17974 10.3129 8.18651 10.3042 8.19308 10.2955C8.19965 10.2867 8.206 10.2778 8.21213 10.2687C8.21827 10.2596 8.22419 10.2503 8.22987 10.241C8.23557 10.2316 8.24104 10.2221 8.24627 10.2125C8.25151 10.2028 8.25651 10.1931 8.26127 10.1832C8.26605 10.1733 8.27057 10.1633 8.27485 10.1532C8.27914 10.1431 8.28318 10.133 8.28698 10.1227C8.29078 10.1124 8.29433 10.102 8.29762 10.0916C8.30092 10.0811 8.30397 10.0706 8.30676 10.06C8.30955 10.0494 8.31209 10.0387 8.31437 10.028C8.31665 10.0172 8.31868 10.0065 8.32044 9.99566C8.3222 9.98483 8.32369 9.97398 8.32494 9.96308C8.32618 9.95218 8.32716 9.94127 8.32787 9.93032C8.32859 9.91938 8.32904 9.90843 8.32923 9.89746C8.32941 9.8865 8.32934 9.87554 8.329 9.86458C8.32866 9.85361 8.32807 9.84267 8.3272 9.83175C8.32633 9.82081 8.32521 9.80991 8.32382 9.79904C8.32244 9.78815 8.32079 9.77731 8.31888 9.76652C8.31697 9.75571 8.3148 9.74498 8.31237 9.73429C8.30995 9.72359 8.30726 9.71297 8.30432 9.70239C8.30139 9.69182 8.29821 9.68135 8.29476 9.67094C8.29133 9.66052 8.28764 9.6502 8.2837 9.63997C8.27976 9.62973 8.27559 9.6196 8.27116 9.60957C8.26673 9.59954 8.26207 9.58961 8.25717 9.5798C8.25227 9.56998 8.24714 9.5603 8.24177 9.55074C8.2364 9.54118 8.23081 9.53175 8.22499 9.52246C8.21918 9.51316 8.21313 9.50402 8.20687 9.49502L7.0425 7.94439ZM1.3125 5.26314C1.31237 5.21477 1.31344 5.16643 1.31569 5.11812C1.31794 5.0698 1.32138 5.02157 1.326 4.97343C1.33062 4.92528 1.33641 4.87728 1.34339 4.82942C1.35037 4.78156 1.35851 4.73389 1.36783 4.68643C1.37715 4.63897 1.38762 4.59177 1.39925 4.54482C1.41089 4.49788 1.42367 4.45123 1.4376 4.40492C1.45152 4.3586 1.46657 4.31265 1.48276 4.26707C1.49894 4.22149 1.51623 4.17634 1.53463 4.13161C1.55303 4.08686 1.57251 4.04261 1.59308 3.99884C1.61366 3.95506 1.63529 3.91182 1.65798 3.86912C1.68068 3.8264 1.70441 3.78427 1.72917 3.74273C1.75393 3.70118 1.7797 3.66027 1.80646 3.61999C1.83324 3.5797 1.86099 3.54009 1.8897 3.50118C1.91843 3.46225 1.94807 3.42406 1.97866 3.38661C2.00926 3.34914 2.04076 3.31245 2.07315 3.27654C2.10554 3.24062 2.1388 3.20552 2.17291 3.17123C2.20703 3.13694 2.24197 3.10352 2.27772 3.07095C2.31349 3.03839 2.35003 3.00672 2.38734 2.97595C2.42465 2.94518 2.4627 2.91533 2.50148 2.88643C2.54026 2.85752 2.57973 2.82958 2.61987 2.80262C2.66002 2.77564 2.70082 2.74967 2.74224 2.72471C2.78367 2.69975 2.82568 2.67581 2.86828 2.65291C2.91089 2.63001 2.95402 2.60817 2.99769 2.58738C3.04137 2.56659 3.08553 2.54689 3.13017 2.52828C3.17482 2.50966 3.21989 2.49215 3.26538 2.47575C3.31088 2.45935 3.35676 2.44407 3.403 2.42992C3.44927 2.41577 3.49584 2.40277 3.54271 2.39091C3.58961 2.37904 3.63677 2.36834 3.68418 2.35879C3.7316 2.34924 3.77922 2.34086 3.82705 2.33365C3.87487 2.32644 3.92285 2.32041 3.97096 2.31556C4.01909 2.31071 4.0673 2.30704 4.11561 2.30455C4.16391 2.30207 4.21225 2.30077 4.26062 2.30065C4.30899 2.30054 4.35733 2.30162 4.40564 2.30388C4.45395 2.30614 4.50219 2.30959 4.55033 2.31421C4.59847 2.31884 4.64647 2.32465 4.69433 2.33164C4.74219 2.33862 4.78985 2.34678 4.83731 2.35611C4.88477 2.36543 4.93197 2.37592 4.97892 2.38757C5.02586 2.39921 5.07249 2.412 5.1188 2.42594C5.16513 2.43987 5.21108 2.45493 5.25665 2.47113C5.30224 2.48731 5.34739 2.50461 5.39211 2.52302C5.43684 2.54142 5.48109 2.56092 5.52485 2.5815C5.56863 2.60209 5.61187 2.62372 5.65457 2.64643C5.69728 2.66913 5.73941 2.69287 5.78095 2.71764C5.82249 2.74242 5.8634 2.76819 5.90367 2.79498C5.94396 2.82175 5.98355 2.8495 6.02246 2.87824C6.06137 2.90695 6.09956 2.93661 6.13701 2.96722C6.17446 2.99782 6.21116 3.02932 6.24706 3.06172C6.28297 3.09412 6.31807 3.12739 6.35234 3.16152C6.38662 3.19564 6.42004 3.23059 6.4526 3.26635C6.48516 3.30212 6.51683 3.33866 6.54759 3.37598C6.57836 3.41329 6.60819 3.45134 6.63708 3.49013C6.66598 3.52892 6.69392 3.56839 6.72087 3.60855C6.74783 3.6487 6.77378 3.68949 6.79875 3.73093C6.82371 3.77237 6.84762 3.81438 6.87052 3.85699C6.89342 3.8996 6.91525 3.94273 6.93602 3.98642C6.9568 4.03009 6.97648 4.07425 6.99509 4.1189C7.0137 4.16355 7.03121 4.20862 7.04759 4.25412C7.06399 4.29963 7.07926 4.34551 7.09339 4.39176C7.10753 4.43802 7.12053 4.48459 7.13238 4.53148C7.14424 4.57837 7.15492 4.62553 7.16446 4.67295C7.174 4.72037 7.18237 4.76798 7.18957 4.81582C7.19677 4.86364 7.2028 4.91162 7.20764 4.95975C7.21249 5.00786 7.21614 5.05609 7.21862 5.10439C7.2211 5.1527 7.22239 5.20102 7.22248 5.2494C7.22259 5.29776 7.2215 5.3461 7.21923 5.39442C7.21695 5.44272 7.2135 5.49096 7.20885 5.53911C7.20423 5.58725 7.19841 5.63525 7.19141 5.68311C7.18441 5.73097 7.17624 5.77862 7.1669 5.82608C7.15757 5.87354 7.14707 5.92074 7.13541 5.96769C7.12376 6.01462 7.11097 6.06125 7.09702 6.10756C7.08308 6.15387 7.06801 6.19981 7.0518 6.2454C7.0356 6.29096 7.0183 6.33611 6.99987 6.38084C6.98146 6.42556 6.96196 6.46981 6.94137 6.51358C6.92078 6.55734 6.89913 6.60058 6.87642 6.64328C6.85371 6.68599 6.82996 6.72811 6.80518 6.76964C6.78041 6.81117 6.75461 6.85208 6.72782 6.89236C6.70103 6.93262 6.67327 6.97221 6.64454 7.01111C6.6158 7.05002 6.58613 7.0882 6.55552 7.12565C6.52491 7.16311 6.49341 7.19977 6.461 7.23568C6.42859 7.27159 6.39532 7.30667 6.36119 7.34095C6.32707 7.37521 6.29211 7.40862 6.25633 7.44118C6.22057 7.47373 6.18401 7.50539 6.14668 7.53615C6.10935 7.5669 6.07129 7.59672 6.0325 7.62562C5.99371 7.65451 5.95425 7.68242 5.91407 7.70937C5.87391 7.73633 5.83311 7.76227 5.79167 7.78722C5.75023 7.81217 5.70821 7.83609 5.6656 7.85898C5.62299 7.88185 5.57984 7.90368 5.53616 7.92445C5.49248 7.94521 5.44831 7.96489 5.40366 7.98349C5.35901 8.00209 5.31394 8.01958 5.26843 8.03596C5.22292 8.05235 5.17705 8.06761 5.13078 8.08174C5.08453 8.09586 5.03794 8.10884 4.99105 8.12069C4.94416 8.13253 4.897 8.14322 4.84958 8.15275C4.80216 8.16227 4.75454 8.17064 4.7067 8.17783C4.65888 8.18501 4.6109 8.19103 4.56277 8.19586C4.51466 8.20068 4.46643 8.20434 4.41813 8.20681C4.36982 8.20927 4.3215 8.21055 4.27312 8.21064C4.22479 8.21067 4.1765 8.20952 4.12823 8.20719C4.07997 8.20484 4.03178 8.20133 3.98368 8.19664C3.93559 8.19194 3.88764 8.18607 3.83983 8.17903C3.79202 8.17197 3.74442 8.16377 3.697 8.15439C3.6496 8.14501 3.60246 8.13447 3.55557 8.12279C3.50868 8.11109 3.4621 8.09827 3.41584 8.0843C3.36958 8.07032 3.32369 8.05523 3.27816 8.03901C3.23265 8.02279 3.18754 8.00546 3.14287 7.98704C3.0982 7.96861 3.05401 7.94909 3.01028 7.9285C2.96657 7.9079 2.92339 7.88626 2.88073 7.86355C2.83808 7.84084 2.79601 7.81709 2.75451 7.79232C2.71303 7.76755 2.67216 7.74177 2.63192 7.715C2.5917 7.68822 2.55215 7.66048 2.51328 7.63177C2.47441 7.60306 2.43626 7.57341 2.39885 7.54284C2.36143 7.51225 2.32478 7.48077 2.2889 7.4484C2.25303 7.41602 2.21797 7.38278 2.18373 7.3487C2.14948 7.31459 2.11609 7.27967 2.08355 7.24395C2.05102 7.20821 2.01938 7.17171 1.98863 7.13443C1.95788 7.09714 1.92807 7.05914 1.89918 7.02039C1.8703 6.98165 1.84237 6.94222 1.81542 6.90212C1.78846 6.862 1.76252 6.82126 1.73756 6.77988C1.71261 6.73849 1.68868 6.69652 1.66577 6.65397C1.64287 6.61142 1.62103 6.56833 1.60024 6.52471C1.57945 6.48109 1.55974 6.43698 1.54112 6.39239C1.52249 6.34778 1.50497 6.30277 1.48855 6.25733C1.47213 6.21188 1.45683 6.16605 1.44265 6.11986C1.42847 6.07366 1.41544 6.02714 1.40354 5.98031C1.39164 5.93346 1.3809 5.88636 1.37131 5.839C1.36172 5.79164 1.3533 5.74406 1.34604 5.69629C1.33878 5.6485 1.3327 5.60059 1.32779 5.55252C1.32288 5.50443 1.31915 5.45627 1.3166 5.40801C1.31405 5.35975 1.31269 5.31146 1.3125 5.26314ZM11.0362 3.06377C11.0432 3.063 11.0501 3.06207 11.0569 3.06099C11.0638 3.0599 11.0707 3.05866 11.0775 3.05727C11.0843 3.05586 11.0911 3.05431 11.0978 3.0526C11.1046 3.05089 11.1113 3.04904 11.1179 3.04702C11.1246 3.04501 11.1312 3.04285 11.1378 3.04054C11.1443 3.03822 11.1508 3.03575 11.1573 3.03315C11.1637 3.03054 11.1701 3.02778 11.1764 3.02487C11.1828 3.02197 11.189 3.01893 11.1952 3.01575C11.2014 3.01256 11.2075 3.00923 11.2135 3.00576C11.2196 3.00229 11.2255 2.99868 11.2314 2.99496C11.2372 2.99121 11.243 2.98734 11.2487 2.98334C11.2544 2.97934 11.26 2.97521 11.2655 2.97096C11.271 2.96669 11.2764 2.96231 11.2817 2.95781C11.287 2.95331 11.2922 2.94868 11.2973 2.94395C11.3024 2.9392 11.3074 2.93435 11.3123 2.92938C11.3171 2.92441 11.3219 2.91932 11.3265 2.91414C11.3312 2.90896 11.3357 2.90368 11.3401 2.89829C11.3445 2.89289 11.3488 2.88739 11.3529 2.88181C11.3571 2.87622 11.3611 2.87055 11.365 2.86479C11.3689 2.85901 11.3726 2.85315 11.3762 2.84722C11.3799 2.84127 11.3833 2.83524 11.3867 2.82915C11.39 2.82304 11.3932 2.81687 11.3963 2.81063C11.3994 2.80437 11.4023 2.79807 11.4051 2.7917C11.4079 2.78531 11.4105 2.77886 11.413 2.77237C11.4154 2.76587 11.4178 2.75932 11.42 2.75271C11.4222 2.7461 11.4242 2.73945 11.4261 2.73275C11.4279 2.72605 11.4297 2.71931 11.4312 2.71254C11.4328 2.70575 11.4342 2.69894 11.4355 2.69211C11.4368 2.68527 11.4379 2.67839 11.4388 2.6715C11.4398 2.66461 11.4406 2.65769 11.4412 2.65077C11.4418 2.64383 11.4423 2.63689 11.4426 2.62994C11.4429 2.62299 11.4431 2.61604 11.4431 2.60908C11.4431 2.60212 11.4429 2.59516 11.4426 2.58822C11.4423 2.58127 11.4418 2.57432 11.4412 2.56739C11.4406 2.56046 11.4398 2.55356 11.4388 2.54666C11.4379 2.53977 11.4368 2.53289 11.4355 2.52605C11.4342 2.51921 11.4328 2.5124 11.4312 2.50563C11.4297 2.49884 11.4279 2.49211 11.4261 2.48541C11.4242 2.47871 11.4222 2.47205 11.42 2.46545C11.4178 2.45884 11.4154 2.45229 11.413 2.44579C11.4105 2.43929 11.4079 2.43285 11.4051 2.42647C11.4023 2.42009 11.3994 2.41378 11.3963 2.40753C11.3932 2.40129 11.39 2.39511 11.3867 2.38901C11.3833 2.38291 11.3799 2.37689 11.3762 2.37094C11.3726 2.365 11.3689 2.35915 11.365 2.35338C11.3611 2.34761 11.3571 2.34193 11.3529 2.33635C11.3488 2.33076 11.3445 2.32527 11.3401 2.31987C11.3357 2.31448 11.3312 2.3092 11.3265 2.30402C11.3219 2.29883 11.3171 2.29375 11.3123 2.28878C11.3074 2.28381 11.3024 2.27896 11.2973 2.27422C11.2922 2.26947 11.287 2.26485 11.2817 2.26035C11.2764 2.25584 11.271 2.25146 11.2655 2.2472C11.26 2.24294 11.2544 2.23882 11.2487 2.23482C11.243 2.23082 11.2372 2.22695 11.2314 2.2232C11.2255 2.21947 11.2196 2.21587 11.2135 2.2124C11.2075 2.20893 11.2014 2.2056 11.1952 2.20241C11.189 2.19923 11.1828 2.19618 11.1764 2.19329C11.1701 2.19038 11.1637 2.18762 11.1573 2.18501C11.1508 2.1824 11.1443 2.17994 11.1378 2.17762C11.1312 2.1753 11.1246 2.17314 11.1179 2.17114C11.1113 2.16912 11.1046 2.16726 11.0978 2.16556C11.0911 2.16385 11.0843 2.16229 11.0775 2.16089C11.0707 2.1595 11.0638 2.15825 11.0569 2.15717C11.0501 2.15609 11.0432 2.15516 11.0362 2.15439L8.70937 2.15439C8.70246 2.15516 8.69557 2.15609 8.68869 2.15717C8.68182 2.15825 8.67498 2.1595 8.66815 2.16089C8.66133 2.16229 8.65456 2.16385 8.64781 2.16556C8.64106 2.16726 8.63436 2.16912 8.6277 2.17114C8.62105 2.17314 8.61442 2.1753 8.60786 2.17762C8.6013 2.17994 8.5948 2.1824 8.58835 2.18501C8.5819 2.18762 8.57552 2.19038 8.56919 2.19329C8.56286 2.19618 8.5566 2.19923 8.55042 2.20241C8.54424 2.2056 8.53814 2.20893 8.53209 2.2124C8.52606 2.21587 8.52011 2.21947 8.51424 2.2232C8.50838 2.22695 8.50259 2.23082 8.4969 2.23482C8.49121 2.23882 8.48561 2.24294 8.4801 2.2472C8.47461 2.25146 8.46921 2.25584 8.4639 2.26035C8.4586 2.26485 8.4534 2.26947 8.4483 2.27422C8.44321 2.27896 8.43822 2.28381 8.43335 2.28878C8.42848 2.29375 8.42373 2.29882 8.41908 2.304C8.41444 2.30919 8.40993 2.31448 8.40553 2.31987C8.40113 2.32527 8.39685 2.33076 8.39271 2.33635C8.38856 2.34193 8.38454 2.34761 8.38065 2.35338C8.37676 2.35915 8.37301 2.365 8.36939 2.37094C8.36576 2.37689 8.36228 2.38291 8.35893 2.38901C8.35558 2.39511 8.35238 2.40129 8.34931 2.40753C8.34624 2.41378 8.34332 2.42009 8.34055 2.42647C8.33777 2.43285 8.33514 2.43929 8.33266 2.44579C8.33018 2.45229 8.32784 2.45884 8.32565 2.46545C8.32347 2.47205 8.32143 2.47871 8.31956 2.48541C8.31768 2.49211 8.31595 2.49884 8.31438 2.50563C8.31281 2.5124 8.31138 2.51921 8.31011 2.52605C8.30886 2.53289 8.30776 2.53977 8.3068 2.54666C8.30586 2.55356 8.30506 2.56046 8.30443 2.56739C8.3038 2.57432 8.30332 2.58127 8.303 2.58822C8.30268 2.59516 8.30252 2.60212 8.30252 2.60908C8.30252 2.61604 8.30268 2.62299 8.303 2.62994C8.30332 2.63689 8.3038 2.64383 8.30443 2.65077C8.30506 2.65769 8.30586 2.66461 8.3068 2.6715C8.30776 2.67839 8.30886 2.68527 8.31011 2.69211C8.31138 2.69894 8.3128 2.70575 8.31437 2.71254C8.31595 2.71931 8.31768 2.72605 8.31956 2.73275C8.32143 2.73945 8.32347 2.7461 8.32565 2.75271C8.32784 2.75932 8.33018 2.76587 8.33266 2.77237C8.33514 2.77886 8.33777 2.78531 8.34055 2.7917C8.34332 2.79807 8.34624 2.80437 8.34931 2.81063C8.35238 2.81687 8.35558 2.82304 8.35893 2.82915C8.36228 2.83524 8.36576 2.84127 8.36939 2.84722C8.37301 2.85315 8.37676 2.85901 8.38065 2.86479C8.38454 2.87055 8.38856 2.87622 8.39271 2.88181C8.39685 2.88739 8.40113 2.89289 8.40553 2.89829C8.40993 2.90368 8.41444 2.90896 8.41908 2.91414C8.42373 2.91932 8.42848 2.92441 8.43335 2.92938C8.43822 2.93435 8.44321 2.9392 8.4483 2.94395C8.4534 2.94868 8.4586 2.95331 8.4639 2.95781C8.46919 2.96231 8.4746 2.96669 8.4801 2.97096C8.48561 2.97521 8.4912 2.97934 8.4969 2.98334C8.50259 2.98734 8.50838 2.99121 8.51424 2.99496C8.52011 2.99868 8.52606 3.00229 8.53209 3.00576C8.53814 3.00923 8.54424 3.01256 8.55042 3.01575C8.5566 3.01893 8.56286 3.02197 8.56919 3.02487C8.57552 3.02778 8.5819 3.03054 8.58835 3.03315C8.5948 3.03575 8.6013 3.03822 8.60786 3.04054C8.61442 3.04285 8.62105 3.04501 8.6277 3.04702C8.63436 3.04904 8.64106 3.05089 8.64781 3.0526C8.65456 3.05431 8.66133 3.05586 8.66815 3.05727C8.67498 3.05866 8.68182 3.0599 8.68869 3.06099C8.69557 3.06207 8.70246 3.063 8.70937 3.06377L11.0362 3.06377ZM11.5256 5.19377C11.5203 5.18853 11.5149 5.18342 11.5094 5.17845C11.5038 5.17348 11.4982 5.16864 11.4924 5.16396C11.4866 5.15926 11.4807 5.15471 11.4747 5.15032C11.4687 5.14591 11.4626 5.14166 11.4564 5.13755C11.4502 5.13345 11.4438 5.1295 11.4374 5.12572C11.431 5.12192 11.4245 5.11829 11.4179 5.11482C11.4114 5.11135 11.4047 5.10805 11.3979 5.10491C11.3912 5.10177 11.3844 5.09879 11.3775 5.09598C11.3706 5.09316 11.3636 5.09054 11.3566 5.08808C11.3495 5.08561 11.3425 5.08331 11.3353 5.0812C11.3282 5.07909 11.321 5.07714 11.3138 5.07539C11.3065 5.07363 11.2992 5.07205 11.2919 5.07064C11.2846 5.06923 11.2773 5.068 11.2699 5.06697C11.2625 5.06593 11.2552 5.06507 11.2477 5.06439C11.2403 5.06371 11.2329 5.06321 11.2254 5.06291C11.218 5.06259 11.2106 5.06246 11.2031 5.06252L9.26437 5.06252C9.25746 5.06329 9.25056 5.06422 9.24369 5.0653C9.23682 5.06637 9.22997 5.06762 9.22316 5.06902C9.21633 5.07042 9.20956 5.07196 9.20281 5.07368C9.19606 5.07539 9.18936 5.07725 9.1827 5.07927C9.17605 5.08127 9.16942 5.08343 9.16286 5.08575C9.1563 5.08807 9.1498 5.09053 9.14335 5.09314C9.1369 5.09574 9.13052 5.09851 9.12419 5.10141C9.11786 5.10431 9.1116 5.10736 9.10542 5.11054C9.09924 5.11373 9.09313 5.11706 9.08709 5.12053C9.08107 5.124 9.07511 5.12759 9.06924 5.13133C9.06338 5.13507 9.05759 5.13894 9.0519 5.14295C9.0462 5.14694 9.04061 5.15107 9.0351 5.15533C9.0296 5.15959 9.02419 5.16397 9.0189 5.16848C9.0136 5.17298 9.0084 5.1776 9.0033 5.18234C8.99821 5.18708 8.99322 5.19194 8.98835 5.19691C8.98348 5.20188 8.97873 5.20695 8.97408 5.21214C8.96944 5.21732 8.96493 5.22261 8.96053 5.228C8.95613 5.23339 8.95185 5.23889 8.94771 5.24448C8.94356 5.25005 8.93954 5.25574 8.93565 5.2615C8.93176 5.26727 8.92801 5.27313 8.92439 5.27907C8.92076 5.28501 8.91728 5.29103 8.91393 5.29714C8.91058 5.30323 8.90738 5.30941 8.90431 5.31566C8.90124 5.3219 8.89832 5.32822 8.89555 5.33459C8.89277 5.34097 8.89014 5.34741 8.88766 5.35392C8.88517 5.36041 8.88284 5.36697 8.88065 5.37358C8.87847 5.38018 8.87643 5.38684 8.87456 5.39354C8.87268 5.40023 8.87095 5.40697 8.86938 5.41375C8.86781 5.42053 8.86638 5.42734 8.86511 5.43418C8.86386 5.44102 8.86276 5.44789 8.8618 5.45479C8.86086 5.46168 8.86006 5.46859 8.85943 5.47552C8.8588 5.48245 8.85831 5.48939 8.858 5.49635C8.85768 5.50328 8.85752 5.51025 8.85752 5.51721C8.85752 5.52417 8.85768 5.53112 8.858 5.53807C8.85831 5.54502 8.8588 5.55195 8.85943 5.55889C8.86006 5.56582 8.86086 5.57273 8.8618 5.57962C8.86276 5.58651 8.86386 5.59339 8.86511 5.60023C8.86638 5.60707 8.86781 5.61387 8.86938 5.62066C8.87095 5.62743 8.87268 5.63417 8.87456 5.64087C8.87643 5.64758 8.87847 5.65422 8.88065 5.66083C8.88284 5.66744 8.88517 5.67399 8.88766 5.6805C8.89014 5.68699 8.89277 5.69343 8.89555 5.69982C8.89832 5.7062 8.90124 5.7125 8.90431 5.71876C8.90738 5.72499 8.91058 5.73117 8.91393 5.73727C8.91728 5.74337 8.92076 5.74939 8.92439 5.75534C8.92801 5.76127 8.93176 5.76713 8.93565 5.77291C8.93954 5.77868 8.94356 5.78435 8.94771 5.78994C8.95185 5.79553 8.95613 5.80102 8.96053 5.80641C8.96493 5.8118 8.96944 5.81709 8.97408 5.82228C8.97873 5.82746 8.98348 5.83253 8.98835 5.8375C8.99322 5.84247 8.99821 5.84732 9.0033 5.85207C9.0084 5.8568 9.01359 5.86143 9.01889 5.86593C9.02421 5.87043 9.02961 5.87482 9.0351 5.87908C9.04061 5.88334 9.0462 5.88746 9.0519 5.89147C9.05759 5.89546 9.06338 5.89933 9.06924 5.90308C9.07511 5.90681 9.08107 5.91042 9.08709 5.91389C9.09313 5.91736 9.09924 5.92068 9.10542 5.92387C9.1116 5.92706 9.11786 5.93009 9.12419 5.933C9.13052 5.93591 9.1369 5.93866 9.14335 5.94127C9.1498 5.94387 9.1563 5.94635 9.16286 5.94867C9.16942 5.95098 9.17605 5.95313 9.1827 5.95515C9.18936 5.95716 9.19606 5.95903 9.20281 5.96074C9.20956 5.96244 9.21633 5.96398 9.22316 5.96539C9.22997 5.96678 9.23682 5.96803 9.24369 5.96912C9.25056 5.9702 9.25746 5.97112 9.26437 5.97189L11.2031 5.97189C11.2105 5.97192 11.2179 5.97177 11.2253 5.97144C11.2327 5.97111 11.2401 5.97059 11.2474 5.9699C11.2548 5.9692 11.2621 5.96833 11.2694 5.96728C11.2768 5.96622 11.2841 5.96498 11.2913 5.96357C11.2986 5.96217 11.3058 5.96057 11.313 5.9588C11.3202 5.95704 11.3273 5.95509 11.3344 5.95298C11.3415 5.95086 11.3485 5.94857 11.3555 5.94611C11.3624 5.94365 11.3694 5.94102 11.3762 5.93821C11.383 5.9354 11.3898 5.93244 11.3965 5.92931C11.4032 5.92617 11.4098 5.92287 11.4164 5.91942C11.4229 5.91596 11.4293 5.91234 11.4357 5.90857C11.4421 5.90479 11.4483 5.90086 11.4545 5.89678C11.4607 5.8927 11.4667 5.88847 11.4727 5.88409C11.4786 5.8797 11.4845 5.87518 11.4902 5.87052C11.496 5.86584 11.5016 5.86103 11.5071 5.8561C11.5126 5.85116 11.5179 5.84607 11.5232 5.84087C11.5284 5.83566 11.5336 5.83033 11.5386 5.82487C11.5435 5.81941 11.5484 5.81383 11.5531 5.80814C11.5578 5.80244 11.5624 5.79663 11.5668 5.79071C11.5713 5.78478 11.5756 5.77876 11.5797 5.77263C11.5838 5.76649 11.5878 5.76027 11.5916 5.75394C11.5955 5.74761 11.5991 5.74119 11.6026 5.73468C11.6062 5.72817 11.6095 5.72158 11.6127 5.71491C11.6159 5.70823 11.6189 5.7015 11.6218 5.69468C11.6246 5.68786 11.6273 5.68096 11.6298 5.67402C11.6324 5.66705 11.6347 5.66005 11.6369 5.65299C11.639 5.64591 11.641 5.6388 11.6429 5.63164C11.6447 5.62447 11.6463 5.61726 11.6478 5.61002C11.6493 5.60277 11.6506 5.59549 11.6517 5.58818C11.6528 5.58086 11.6538 5.57353 11.6545 5.56618C11.6553 5.55882 11.6558 5.55145 11.6562 5.54407C11.6566 5.53668 11.6568 5.52929 11.6569 5.52189C11.6569 5.51445 11.6567 5.50702 11.6563 5.49959C11.656 5.49215 11.6555 5.48473 11.6547 5.47734C11.654 5.46993 11.6531 5.46254 11.6521 5.45518C11.651 5.44782 11.6497 5.44048 11.6483 5.43318C11.6469 5.42588 11.6453 5.41862 11.6435 5.4114C11.6417 5.40417 11.6398 5.397 11.6376 5.38987C11.6355 5.38273 11.6332 5.37566 11.6307 5.36865C11.6283 5.36163 11.6257 5.35468 11.6228 5.34779C11.62 5.3409 11.6171 5.33408 11.6139 5.32733C11.6108 5.32058 11.6075 5.31391 11.6041 5.30732C11.6006 5.30074 11.597 5.29423 11.5932 5.28782C11.5894 5.2814 11.5855 5.27509 11.5814 5.26888C11.5774 5.26264 11.5731 5.25652 11.5688 5.25051C11.5644 5.24449 11.5599 5.23857 11.5552 5.23278C11.5505 5.22698 11.5458 5.2213 11.5408 5.21573C11.5359 5.21015 11.5308 5.20471 11.5256 5.19939L11.5256 5.19377ZM10.1756 7.96314C10.1687 7.96392 10.1618 7.96484 10.1549 7.96593C10.1481 7.96701 10.1412 7.96824 10.1344 7.96965C10.1276 7.97104 10.1208 7.97259 10.1141 7.9743C10.1073 7.97601 10.1006 7.97787 10.094 7.97989C10.0873 7.98189 10.0807 7.98405 10.0741 7.98637C10.0675 7.98869 10.061 7.99115 10.0546 7.99377C10.0482 7.99637 10.0418 7.99913 10.0354 8.00204C10.0291 8.00493 10.0229 8.00798 10.0167 8.01117C10.0105 8.01435 10.0044 8.01768 9.99834 8.02115C9.99232 8.02462 9.98636 8.02822 9.98049 8.03196C9.97463 8.0357 9.96884 8.03956 9.96315 8.04357C9.95745 8.04757 9.95186 8.05169 9.94635 8.05596C9.94085 8.06021 9.93544 8.06459 9.93014 8.06911C9.92484 8.0736 9.91965 8.07822 9.91455 8.08297C9.90946 8.0877 9.90447 8.09257 9.8996 8.09754C9.89473 8.1025 9.88998 8.10758 9.88533 8.11276C9.88069 8.11794 9.87618 8.12323 9.87178 8.12862C9.86738 8.13402 9.8631 8.13951 9.85896 8.1451C9.85481 8.15068 9.85079 8.15636 9.8469 8.16213C9.84301 8.16789 9.83926 8.17375 9.83564 8.1797C9.83201 8.18564 9.82853 8.19166 9.82518 8.19777C9.82183 8.20386 9.81863 8.21004 9.81556 8.21628C9.81249 8.22253 9.80957 8.22884 9.8068 8.23522C9.80402 8.24159 9.80139 8.24804 9.79891 8.25454C9.79642 8.26103 9.79409 8.2676 9.7919 8.27421C9.78972 8.2808 9.78768 8.28746 9.78581 8.29416C9.78393 8.30086 9.7822 8.30759 9.78062 8.31438C9.77905 8.32115 9.77763 8.32796 9.77636 8.3348C9.77511 8.34165 9.77401 8.34852 9.77305 8.35542C9.77211 8.36231 9.77131 8.36921 9.77068 8.37615C9.77005 8.38307 9.76956 8.39001 9.76925 8.39697C9.76893 8.40391 9.76877 8.41087 9.76877 8.41783C9.76877 8.42479 9.76893 8.43174 9.76925 8.43869C9.76956 8.44564 9.77005 8.45258 9.77068 8.45952C9.77131 8.46644 9.77211 8.47336 9.77305 8.48025C9.77401 8.48714 9.77511 8.49401 9.77636 8.50086C9.77763 8.5077 9.77905 8.51451 9.78062 8.52129C9.7822 8.52806 9.78393 8.5348 9.78581 8.5415C9.78768 8.5482 9.78972 8.55485 9.7919 8.56146C9.79409 8.56807 9.79642 8.57462 9.79891 8.58112C9.80139 8.58761 9.80402 8.59406 9.8068 8.60044C9.80957 8.60682 9.81249 8.61312 9.81556 8.61938C9.81863 8.62562 9.82183 8.63179 9.82518 8.6379C9.82853 8.64399 9.83201 8.65001 9.83564 8.65597C9.83926 8.6619 9.84301 8.66776 9.8469 8.67353C9.85079 8.6793 9.85481 8.68497 9.85896 8.69056C9.8631 8.69615 9.86738 8.70165 9.87178 8.70704C9.87618 8.71243 9.88069 8.71771 9.88533 8.72291C9.88998 8.72809 9.89473 8.73316 9.8996 8.73813C9.90447 8.7431 9.90946 8.74795 9.91455 8.7527C9.91965 8.75743 9.92484 8.76206 9.93014 8.76656C9.93544 8.77106 9.94085 8.77544 9.94635 8.77971C9.95186 8.78396 9.95745 8.78809 9.96315 8.79209C9.96884 8.79609 9.97463 8.79996 9.98049 8.80371C9.98636 8.80743 9.99232 8.81104 9.99834 8.81451C10.0044 8.81798 10.0105 8.82131 10.0167 8.8245C10.0229 8.82768 10.0291 8.83072 10.0354 8.83362C10.0418 8.83653 10.0482 8.83928 10.0546 8.8419C10.061 8.8445 10.0675 8.84697 10.0741 8.84929C10.0807 8.8516 10.0873 8.85376 10.094 8.85577C10.1006 8.85779 10.1073 8.85964 10.1141 8.86135C10.1208 8.86306 10.1276 8.86461 10.1344 8.86602C10.1412 8.86741 10.1481 8.86865 10.1549 8.86974C10.1618 8.87082 10.1687 8.87175 10.1756 8.87252L11.1412 8.87252C11.1489 8.87364 11.1565 8.87458 11.1642 8.87533C11.1719 8.87608 11.1796 8.87663 11.1873 8.87698C11.195 8.87734 11.2027 8.8775 11.2104 8.87748C11.2181 8.87743 11.2258 8.87721 11.2335 8.87679C11.2412 8.87636 11.2489 8.87574 11.2565 8.87493C11.2642 8.87412 11.2718 8.87312 11.2795 8.87192C11.2871 8.87073 11.2947 8.86933 11.3022 8.86776C11.3097 8.86617 11.3172 8.8644 11.3247 8.86245C11.3322 8.86048 11.3396 8.85834 11.3469 8.85601C11.3543 8.85366 11.3615 8.85114 11.3688 8.84845C11.376 8.84574 11.3831 8.84286 11.3902 8.8398C11.3973 8.83673 11.4043 8.8335 11.4112 8.83009C11.4181 8.82666 11.4249 8.82307 11.4316 8.81932C11.4384 8.81554 11.445 8.81162 11.4515 8.80753C11.4581 8.80342 11.4645 8.79916 11.4708 8.79474C11.4771 8.79031 11.4833 8.78574 11.4894 8.78101C11.4955 8.77627 11.5015 8.77139 11.5073 8.76635C11.5131 8.76131 11.5188 8.75613 11.5244 8.75081C11.53 8.74548 11.5354 8.74002 11.5407 8.73441C11.546 8.72881 11.5512 8.72309 11.5562 8.71723C11.5612 8.71136 11.566 8.70537 11.5708 8.69928C11.5755 8.69316 11.58 8.68694 11.5844 8.68061C11.5888 8.67427 11.593 8.66783 11.5971 8.66129C11.6012 8.65473 11.6051 8.64808 11.6088 8.64134C11.6125 8.63459 11.6161 8.62775 11.6195 8.62082C11.6229 8.6139 11.6261 8.60689 11.6291 8.5998C11.6321 8.59271 11.635 8.58555 11.6376 8.57832C11.6403 8.57108 11.6428 8.56379 11.6451 8.55643C11.6474 8.54907 11.6495 8.54165 11.6514 8.5342C11.6534 8.52672 11.6551 8.51921 11.6566 8.51166C11.6582 8.5041 11.6595 8.49652 11.6607 8.48891C11.6618 8.48128 11.6628 8.47363 11.6636 8.46596C11.6644 8.45828 11.665 8.4506 11.6653 8.44291C11.6657 8.4352 11.6659 8.4275 11.6659 8.41979C11.6659 8.41208 11.6657 8.40437 11.6653 8.39668C11.6649 8.38897 11.6643 8.38129 11.6636 8.37363C11.6628 8.36595 11.6618 8.3583 11.6606 8.35068C11.6595 8.34307 11.6581 8.33547 11.6566 8.32793C11.655 8.32037 11.6533 8.31285 11.6513 8.3054C11.6494 8.29794 11.6473 8.29053 11.645 8.28317C11.6427 8.27581 11.6402 8.26851 11.6375 8.26129C11.6348 8.25405 11.632 8.24689 11.6289 8.23981C11.6259 8.23272 11.6227 8.22571 11.6193 8.2188C11.6159 8.21186 11.6124 8.20503 11.6086 8.19829C11.6049 8.19154 11.601 8.1849 11.5969 8.17836C11.5928 8.17181 11.5886 8.16536 11.5842 8.15903C11.5798 8.15271 11.5752 8.14648 11.5705 8.14038C11.5658 8.13427 11.561 8.1283 11.5559 8.12245C11.5509 8.11659 11.5458 8.11086 11.5405 8.10527C11.5352 8.09967 11.5297 8.09421 11.5241 8.08889C11.5186 8.08357 11.5129 8.07839 11.507 8.07336C11.5012 8.06832 11.4952 8.06345 11.4891 8.05872C11.483 8.05399 11.4768 8.04941 11.4705 8.045C11.4642 8.04057 11.4578 8.03632 11.4512 8.03224C11.4447 8.02814 11.4381 8.02421 11.4313 8.02046C11.4246 8.0167 11.4178 8.01311 11.4109 8.0097C11.4039 8.00629 11.3969 8.00306 11.3899 8C11.3828 7.99694 11.3756 7.99407 11.3684 7.99137C11.3612 7.98867 11.3539 7.98616 11.3466 7.98384C11.3392 7.9815 11.3318 7.97935 11.3244 7.97741C11.3169 7.97545 11.3094 7.97369 11.3018 7.97212C11.2943 7.97054 11.2867 7.96916 11.2791 7.96797C11.2715 7.96678 11.2638 7.96577 11.2562 7.96497C11.2485 7.96416 11.2408 7.96355 11.2331 7.96314C11.2025 7.95936 11.1719 7.95936 11.1412 7.96314L10.1756 7.96314Z"   fill="#A6A6A6" >
</path>
</svg>
