<svg xmlns="http://www.w3.org/2000/svg" xmlns:xlink="http://www.w3.org/1999/xlink" width="12" height="12" viewBox="0 0 12 12" fill="none">
<path d="M7.04166 7.94439C7.09674 7.88718 7.15 7.82832 7.20145 7.76782C7.25289 7.70731 7.30243 7.64529 7.35003 7.58172C7.39764 7.51816 7.44325 7.45318 7.48685 7.3868C7.53044 7.32043 7.57195 7.25277 7.61137 7.18382C7.65079 7.11487 7.68805 7.04478 7.72313 6.97353C7.75822 6.90228 7.79108 6.83002 7.8217 6.75676C7.85233 6.68348 7.88067 6.60934 7.90671 6.53431C7.93275 6.45928 7.95645 6.38352 7.97782 6.30704C7.99919 6.23054 8.01818 6.15346 8.03477 6.0758C8.05137 5.99813 8.06557 5.92004 8.07734 5.84151C8.08912 5.76297 8.09846 5.68414 8.10537 5.60503C8.11229 5.5259 8.11674 5.44665 8.11876 5.36727C8.12077 5.28787 8.12034 5.20849 8.11744 5.12913C8.11456 5.04976 8.10922 4.97056 8.10144 4.89153C8.09366 4.81249 8.08345 4.73377 8.07079 4.65538C8.05816 4.57696 8.0431 4.49902 8.02564 4.42155C8.00818 4.34408 7.98835 4.26721 7.96613 4.19097C7.94394 4.11472 7.9194 4.03923 7.89252 3.9645C7.86566 3.88975 7.8365 3.81593 7.80506 3.743C7.77363 3.67006 7.73998 3.59817 7.7041 3.52732C7.66824 3.45646 7.63021 3.38679 7.59003 3.31829C7.54986 3.24978 7.5076 3.18257 7.46327 3.11668C7.41895 3.05079 7.37262 2.98632 7.32432 2.9233C7.27602 2.86025 7.2258 2.79877 7.17369 2.73884C7.12159 2.67891 7.06768 2.62065 7.01197 2.56404C6.95626 2.50744 6.89886 2.45261 6.83976 2.39956C6.78068 2.3465 6.72 2.29532 6.65773 2.24601C6.59548 2.1967 6.53176 2.14936 6.46658 2.10399C6.4014 2.05862 6.33488 2.0153 6.26702 1.97404C6.19917 1.93278 6.13011 1.89365 6.05983 1.85665C5.98957 1.81966 5.91821 1.78487 5.84579 1.75227C5.77337 1.71969 5.70001 1.68937 5.62571 1.66131C5.55141 1.63325 5.47632 1.60751 5.40043 1.5841C5.32455 1.56068 5.24801 1.53962 5.17082 1.52093C5.09364 1.50224 5.01595 1.48595 4.93776 1.47205C4.85957 1.45816 4.78102 1.4467 4.70212 1.43766C4.62322 1.42862 4.54412 1.42203 4.4648 1.41788C4.38549 1.41372 4.30613 1.41202 4.22671 1.41277C4.14731 1.41352 4.068 1.41672 3.98878 1.42237C3.90956 1.42802 3.8306 1.4361 3.75188 1.44663C3.67317 1.45716 3.59485 1.47011 3.51693 1.48547C3.43902 1.50083 3.36165 1.51859 3.28482 1.53873C3.208 1.55887 3.13188 1.58137 3.05645 1.60622C2.98102 1.63107 2.90643 1.65821 2.83268 1.68767C2.75892 1.71712 2.68614 1.74882 2.61436 1.78278C2.54257 1.81673 2.47188 1.85286 2.40232 1.89118C2.33275 1.92949 2.26445 1.96991 2.19738 2.01245C2.13031 2.05499 2.06462 2.09956 2.0003 2.14615C1.93599 2.19275 1.87318 2.24128 1.81187 2.29175C1.75055 2.34222 1.69086 2.39454 1.63277 2.44871C1.57469 2.50286 1.51834 2.55877 1.46371 2.61642C1.40907 2.67405 1.35628 2.73332 1.30531 2.79424C1.25435 2.85513 1.2053 2.91755 1.15819 2.98149C1.11108 3.04542 1.06598 3.11075 1.02291 3.17748C0.979831 3.24419 0.938854 3.31217 0.899977 3.38143C0.861102 3.45068 0.824398 3.52106 0.789869 3.59258C0.75534 3.66409 0.72305 3.7366 0.693001 3.81012C0.662952 3.88364 0.635199 3.958 0.609744 4.03324C0.584288 4.10846 0.561179 4.1844 0.540413 4.26106C0.51965 4.3377 0.50127 4.41493 0.485276 4.49272C0.469282 4.57051 0.455704 4.64872 0.44454 4.72735C0.433378 4.80597 0.424652 4.88487 0.418363 4.96405C0.412074 5.04321 0.408234 5.1225 0.406842 5.2019C0.405451 5.28131 0.406511 5.36068 0.410023 5.44003C0.413534 5.51936 0.419491 5.59851 0.427893 5.67748C0.436293 5.75646 0.447123 5.83509 0.460383 5.91339C0.473642 5.9917 0.489305 6.06951 0.50737 6.14686C0.525437 6.22419 0.545872 6.30089 0.568675 6.37696C0.59148 6.45303 0.616611 6.52832 0.644066 6.60286C0.671523 6.67737 0.701252 6.75098 0.733253 6.82366C0.765255 6.89634 0.79947 6.96798 0.835897 7.03855C0.872323 7.10912 0.910893 7.17849 0.951607 7.24668C0.99232 7.31486 1.0351 7.38173 1.07994 7.44727C1.12478 7.51282 1.17161 7.57692 1.22041 7.63958C1.26921 7.70223 1.3199 7.7633 1.37247 7.82284C1.42505 7.88236 1.47942 7.9402 1.53556 7.99637C1.59172 8.05252 1.64954 8.1069 1.70905 8.15949C1.76855 8.21209 1.82963 8.26278 1.89227 8.3116C1.95492 8.36042 2.01901 8.40726 2.08454 8.45212C2.15007 8.49698 2.21693 8.53978 2.28511 8.58051C2.35329 8.62123 2.42266 8.65982 2.49322 8.69627C2.56378 8.73271 2.63539 8.76694 2.70807 8.79896C2.78075 8.83098 2.85434 8.86073 2.92885 8.88821C3.00337 8.91568 3.07866 8.94083 3.15472 8.96366C3.2308 8.98647 3.3075 9.00692 3.38482 9.02501C3.46216 9.0431 3.53997 9.05878 3.61827 9.07205C3.69657 9.08533 3.7752 9.09618 3.85416 9.10461C3.93314 9.11302 4.0123 9.119 4.09163 9.12254C4.17097 9.12607 4.25034 9.12714 4.32975 9.12577C4.40915 9.12439 4.48844 9.12057 4.5676 9.11431C4.64677 9.10803 4.72568 9.09932 4.80431 9.08819C4.88294 9.07705 4.96115 9.06349 5.03894 9.04752C5.11674 9.03153 5.19397 9.01318 5.27062 8.99244C5.34728 8.97168 5.42323 8.94859 5.49847 8.92316C5.5737 8.89771 5.64807 8.86998 5.72159 8.83995C5.79512 8.80992 5.86764 8.77764 5.93916 8.74314L7.10916 10.3125C7.11601 10.3211 7.12304 10.3295 7.13028 10.3377C7.13752 10.346 7.14496 10.354 7.15259 10.3619C7.16023 10.3698 7.16805 10.3775 7.17604 10.385C7.18405 10.3925 7.19221 10.3998 7.20056 10.4069C7.20891 10.414 7.21743 10.4209 7.22612 10.4276C7.2348 10.4343 7.24364 10.4407 7.25262 10.447C7.26162 10.4533 7.27077 10.4593 7.28005 10.4652C7.28933 10.471 7.29875 10.4766 7.3083 10.482C7.31786 10.4874 7.32754 10.4925 7.33734 10.4974C7.34714 10.5024 7.35705 10.507 7.36708 10.5115C7.37711 10.5159 7.38724 10.5201 7.39746 10.5241C7.40769 10.528 7.41801 10.5317 7.42842 10.5352C7.43882 10.5386 7.4493 10.5418 7.45986 10.5448C7.47043 10.5477 7.48105 10.5504 7.49173 10.5529C7.50242 10.5553 7.51317 10.5575 7.52396 10.5594C7.53477 10.5613 7.54559 10.563 7.55647 10.5644C7.56734 10.5658 7.57825 10.567 7.58918 10.5678C7.60011 10.5687 7.61105 10.5693 7.62201 10.5697C7.63298 10.5701 7.64394 10.5701 7.65489 10.57C7.66586 10.5698 7.67681 10.5694 7.68775 10.5687C7.6987 10.568 7.70962 10.567 7.72051 10.5658C7.73141 10.5646 7.74227 10.5631 7.7531 10.5613C7.76393 10.5596 7.77471 10.5576 7.78543 10.5553C7.79616 10.553 7.80683 10.5505 7.81743 10.5477C7.82805 10.545 7.83859 10.5419 7.84904 10.5387C7.8595 10.5354 7.86987 10.5318 7.88016 10.5281C7.89046 10.5243 7.90066 10.5202 7.91075 10.516C7.92085 10.5117 7.93085 10.5072 7.94073 10.5024C7.95062 10.4977 7.96038 10.4927 7.97001 10.4875C7.97966 10.4823 7.98917 10.4768 7.99855 10.4711C8.00793 10.4654 8.01717 10.4595 8.02626 10.4534C8.03535 10.4473 8.04431 10.441 8.0531 10.4344C8.06189 10.4279 8.07052 10.4211 8.07898 10.4141C8.08746 10.4072 8.09575 10.4 8.10386 10.3926C8.112 10.3853 8.11993 10.3777 8.12769 10.37C8.13544 10.3622 8.14301 10.3543 8.1504 10.3462C8.15778 10.3381 8.16495 10.3298 8.17192 10.3213C8.17891 10.3129 8.18568 10.3042 8.19225 10.2955C8.19882 10.2867 8.20517 10.2778 8.2113 10.2687C8.21744 10.2596 8.22336 10.2503 8.22904 10.241C8.23474 10.2316 8.24021 10.2221 8.24544 10.2125C8.25068 10.2028 8.25568 10.1931 8.26044 10.1832C8.26522 10.1733 8.26974 10.1633 8.27402 10.1532C8.27831 10.1431 8.28235 10.133 8.28615 10.1227C8.28994 10.1124 8.2935 10.102 8.29679 10.0916C8.30009 10.0811 8.30314 10.0706 8.30593 10.06C8.30872 10.0494 8.31126 10.0387 8.31353 10.028C8.31582 10.0172 8.31785 10.0065 8.3196 9.99566C8.32136 9.98483 8.32286 9.97398 8.3241 9.96308C8.32535 9.95218 8.32633 9.94127 8.32703 9.93032C8.32776 9.91938 8.32821 9.90843 8.32839 9.89746C8.32858 9.8865 8.32851 9.87554 8.32817 9.86458C8.32783 9.85361 8.32723 9.84267 8.32637 9.83175C8.3255 9.82081 8.32438 9.80991 8.32299 9.79904C8.32161 9.78815 8.31996 9.77731 8.31805 9.76652C8.31614 9.75571 8.31397 9.74498 8.31154 9.73429C8.30912 9.72359 8.30643 9.71297 8.30349 9.70239C8.30056 9.69182 8.29737 9.68135 8.29393 9.67094C8.29049 9.66052 8.2868 9.6502 8.28287 9.63997C8.27893 9.62973 8.27476 9.6196 8.27033 9.60957C8.2659 9.59954 8.26123 9.58961 8.25634 9.5798C8.25144 9.56998 8.2463 9.5603 8.24094 9.55074C8.23557 9.54118 8.22998 9.53175 8.22416 9.52246C8.21834 9.51316 8.2123 9.50402 8.20604 9.49502L7.04166 7.94439ZM1.31167 5.26314C1.31154 5.21477 1.3126 5.16643 1.31485 5.11812C1.31711 5.0698 1.32055 5.02157 1.32517 4.97343C1.32978 4.92528 1.33558 4.87728 1.34256 4.82942C1.34953 4.78156 1.35768 4.73389 1.367 4.68643C1.37632 4.63897 1.38679 4.59177 1.39842 4.54482C1.41006 4.49788 1.42284 4.45123 1.43676 4.40492C1.45069 4.3586 1.46574 4.31265 1.48193 4.26707C1.49811 4.22149 1.5154 4.17634 1.5338 4.13161C1.55219 4.08686 1.57168 4.04261 1.59225 3.99884C1.61282 3.95506 1.63446 3.91182 1.65714 3.86912C1.67984 3.8264 1.70357 3.78427 1.72834 3.74273C1.7531 3.70118 1.77887 3.66027 1.80563 3.61999C1.83241 3.5797 1.86016 3.54009 1.88887 3.50118C1.91759 3.46225 1.94724 3.42406 1.97783 3.38661C2.00843 3.34914 2.03993 3.31245 2.07232 3.27654C2.10471 3.24062 2.13796 3.20552 2.17208 3.17123C2.2062 3.13694 2.24114 3.10352 2.27689 3.07095C2.31266 3.03839 2.3492 3.00672 2.38651 2.97595C2.42382 2.94518 2.46187 2.91533 2.50065 2.88643C2.53943 2.85752 2.57889 2.82958 2.61904 2.80262C2.65919 2.77564 2.69998 2.74967 2.74141 2.72471C2.78284 2.69975 2.82485 2.67581 2.86744 2.65291C2.91005 2.63001 2.95319 2.60817 2.99686 2.58738C3.04054 2.56659 3.0847 2.54689 3.12934 2.52828C3.17398 2.50966 3.21905 2.49215 3.26455 2.47575C3.31005 2.45935 3.35593 2.44407 3.40217 2.42992C3.44844 2.41577 3.49501 2.40277 3.54188 2.39091C3.58878 2.37904 3.63594 2.36834 3.68335 2.35879C3.73077 2.34924 3.77839 2.34086 3.82621 2.33365C3.87404 2.32644 3.92202 2.32041 3.97013 2.31556C4.01826 2.31071 4.06647 2.30704 4.11478 2.30455C4.16308 2.30207 4.21142 2.30077 4.25978 2.30065C4.30816 2.30054 4.3565 2.30162 4.4048 2.30388C4.45312 2.30614 4.50136 2.30959 4.5495 2.31421C4.59764 2.31884 4.64564 2.32465 4.6935 2.33164C4.74135 2.33862 4.78902 2.34678 4.83648 2.35611C4.88394 2.36543 4.93114 2.37592 4.97809 2.38757C5.02503 2.39921 5.07166 2.412 5.11797 2.42594C5.1643 2.43987 5.21025 2.45493 5.25582 2.47113C5.30141 2.48731 5.34656 2.50461 5.39128 2.52302C5.43601 2.54142 5.48026 2.56092 5.52401 2.5815C5.5678 2.60209 5.61104 2.62372 5.65374 2.64643C5.69644 2.66913 5.73857 2.69287 5.78012 2.71764C5.82166 2.74242 5.86257 2.76819 5.90284 2.79498C5.94312 2.82175 5.98272 2.8495 6.02163 2.87824C6.06053 2.90695 6.09873 2.93661 6.13618 2.96722C6.17363 2.99782 6.21032 3.02932 6.24623 3.06172C6.28214 3.09412 6.31723 3.12739 6.35151 3.16152C6.38579 3.19564 6.41921 3.23059 6.45177 3.26635C6.48433 3.30212 6.516 3.33866 6.54676 3.37598C6.57753 3.41329 6.60736 3.45134 6.63625 3.49013C6.66515 3.52892 6.69309 3.56839 6.72004 3.60855C6.747 3.6487 6.77295 3.68949 6.79791 3.73093C6.82287 3.77237 6.84679 3.81438 6.86969 3.85699C6.89259 3.8996 6.91442 3.94273 6.93519 3.98642C6.95596 4.03009 6.97565 4.07425 6.99426 4.1189C7.01287 4.16355 7.03038 4.20862 7.04676 4.25412C7.06316 4.29963 7.07843 4.34551 7.09256 4.39176C7.1067 4.43802 7.1197 4.48459 7.13155 4.53148C7.14341 4.57837 7.15409 4.62553 7.16363 4.67295C7.17317 4.72037 7.18154 4.76798 7.18873 4.81582C7.19594 4.86364 7.20196 4.91162 7.2068 4.95975C7.21166 5.00786 7.21531 5.05609 7.21778 5.10439C7.22027 5.1527 7.22156 5.20102 7.22165 5.2494C7.22176 5.29776 7.22067 5.3461 7.21839 5.39442C7.21612 5.44272 7.21266 5.49096 7.20802 5.53911C7.20339 5.58725 7.19758 5.63525 7.19057 5.68311C7.18358 5.73097 7.17541 5.77862 7.16607 5.82608C7.15674 5.87354 7.14624 5.92074 7.13458 5.96769C7.12293 6.01462 7.11014 6.06125 7.09619 6.10756C7.08225 6.15387 7.06718 6.19981 7.05097 6.2454C7.03477 6.29096 7.01746 6.33611 6.99904 6.38084C6.98063 6.42556 6.96113 6.46981 6.94054 6.51358C6.91995 6.55734 6.8983 6.60058 6.87559 6.64328C6.85287 6.68599 6.82913 6.72811 6.80435 6.76964C6.77957 6.81117 6.75378 6.85208 6.72699 6.89236C6.7002 6.93262 6.67244 6.97221 6.64371 7.01111C6.61497 7.05002 6.5853 7.0882 6.55469 7.12565C6.52408 7.16311 6.49258 7.19977 6.46017 7.23568C6.42775 7.27159 6.39448 7.30667 6.36036 7.34095C6.32623 7.37521 6.29128 7.40862 6.2555 7.44118C6.21973 7.47373 6.18318 7.50539 6.14585 7.53615C6.10852 7.5669 6.07046 7.59672 6.03167 7.62562C5.99288 7.65451 5.95341 7.68242 5.91324 7.70937C5.87308 7.73633 5.83228 7.76227 5.79084 7.78722C5.7494 7.81217 5.70738 7.83609 5.66477 7.85898C5.62216 7.88185 5.57901 7.90368 5.53532 7.92445C5.49165 7.94521 5.44748 7.96489 5.40283 7.98349C5.35818 8.00209 5.31311 8.01958 5.2676 8.03596C5.22209 8.05235 5.17621 8.06761 5.12995 8.08174C5.08369 8.09586 5.03711 8.10884 4.99021 8.12069C4.94333 8.13253 4.89617 8.14322 4.84875 8.15275C4.80133 8.16227 4.75371 8.17064 4.70587 8.17783C4.65805 8.18501 4.61007 8.19103 4.56194 8.19586C4.51382 8.20068 4.4656 8.20434 4.4173 8.20681C4.36899 8.20927 4.32066 8.21055 4.27229 8.21064C4.22396 8.21067 4.17567 8.20952 4.1274 8.20719C4.07914 8.20484 4.03095 8.20133 3.98285 8.19664C3.93475 8.19194 3.88681 8.18607 3.839 8.17903C3.79119 8.17197 3.74359 8.16377 3.69617 8.15439C3.64877 8.14501 3.60162 8.13447 3.55474 8.12279C3.50785 8.11109 3.46127 8.09827 3.415 8.0843C3.36875 8.07032 3.32286 8.05523 3.27733 8.03901C3.23182 8.02279 3.18671 8.00546 3.14204 7.98704C3.09737 7.96861 3.05318 7.94909 3.00945 7.9285C2.96574 7.9079 2.92256 7.88626 2.8799 7.86355C2.83725 7.84084 2.79518 7.81709 2.75368 7.79232C2.7122 7.76755 2.67133 7.74177 2.63109 7.715C2.59087 7.68822 2.55132 7.66048 2.51245 7.63177C2.47358 7.60306 2.43543 7.57341 2.39802 7.54284C2.3606 7.51225 2.32395 7.48077 2.28807 7.4484C2.2522 7.41602 2.21714 7.38278 2.18289 7.3487C2.14865 7.31459 2.11525 7.27967 2.08272 7.24395C2.05019 7.20821 2.01855 7.17171 1.9878 7.13443C1.95705 7.09714 1.92724 7.05914 1.89835 7.02039C1.86946 6.98165 1.84154 6.94222 1.81459 6.90212C1.78763 6.862 1.76169 6.82126 1.73673 6.77988C1.71178 6.73849 1.68785 6.69652 1.66494 6.65397C1.64204 6.61142 1.6202 6.56833 1.59941 6.52471C1.57862 6.48109 1.55891 6.43698 1.54029 6.39239C1.52166 6.34778 1.50414 6.30277 1.48772 6.25733C1.4713 6.21188 1.45599 6.16605 1.44181 6.11986C1.42764 6.07366 1.41461 6.02714 1.40271 5.98031C1.39081 5.93346 1.38007 5.88636 1.37048 5.839C1.36089 5.79164 1.35246 5.74406 1.34521 5.69629C1.33795 5.6485 1.33187 5.60059 1.32696 5.55252C1.32205 5.50443 1.31832 5.45627 1.31577 5.40801C1.31322 5.35975 1.31185 5.31146 1.31167 5.26314ZM11.0354 3.06377C11.0423 3.063 11.0492 3.06207 11.0561 3.06099C11.063 3.0599 11.0698 3.05866 11.0766 3.05727C11.0834 3.05586 11.0902 3.05431 11.097 3.0526C11.1037 3.05089 11.1104 3.04904 11.1171 3.04702C11.1237 3.04501 11.1304 3.04285 11.1369 3.04054C11.1435 3.03822 11.15 3.03575 11.1564 3.03315C11.1629 3.03054 11.1693 3.02778 11.1756 3.02487C11.1819 3.02197 11.1882 3.01893 11.1944 3.01575C11.2006 3.01256 11.2067 3.00923 11.2127 3.00576C11.2187 3.00229 11.2247 2.99868 11.2305 2.99496C11.2364 2.99121 11.2422 2.98734 11.2479 2.98334C11.2536 2.97934 11.2592 2.97521 11.2647 2.97096C11.2702 2.96669 11.2756 2.96231 11.2809 2.95781C11.2862 2.95331 11.2914 2.94868 11.2965 2.94395C11.3016 2.9392 11.3066 2.93435 11.3114 2.92938C11.3163 2.92441 11.3211 2.91932 11.3257 2.91414C11.3303 2.90896 11.3349 2.90368 11.3393 2.89829C11.3437 2.89289 11.3479 2.88739 11.3521 2.88181C11.3562 2.87622 11.3602 2.87055 11.3641 2.86479C11.368 2.85901 11.3718 2.85315 11.3754 2.84722C11.379 2.84127 11.3825 2.83524 11.3859 2.82915C11.3892 2.82304 11.3924 2.81687 11.3955 2.81063C11.3985 2.80437 11.4015 2.79807 11.4042 2.7917C11.407 2.78531 11.4097 2.77886 11.4121 2.77237C11.4146 2.76587 11.417 2.75932 11.4191 2.75271C11.4213 2.7461 11.4234 2.73945 11.4252 2.73275C11.4271 2.72605 11.4288 2.71931 11.4304 2.71254C11.432 2.70575 11.4334 2.69894 11.4347 2.69211C11.4359 2.68527 11.437 2.67839 11.438 2.6715C11.4389 2.66461 11.4397 2.65769 11.4404 2.65077C11.441 2.64383 11.4415 2.63689 11.4418 2.62994C11.4421 2.62299 11.4423 2.61604 11.4423 2.60908C11.4423 2.60212 11.4421 2.59516 11.4418 2.58822C11.4415 2.58127 11.441 2.57432 11.4404 2.56739C11.4397 2.56046 11.4389 2.55356 11.438 2.54666C11.437 2.53977 11.4359 2.53289 11.4347 2.52605C11.4334 2.51921 11.432 2.5124 11.4304 2.50563C11.4288 2.49884 11.4271 2.49211 11.4252 2.48541C11.4234 2.47871 11.4213 2.47205 11.4191 2.46545C11.417 2.45884 11.4146 2.45229 11.4121 2.44579C11.4097 2.43929 11.407 2.43285 11.4042 2.42647C11.4015 2.42009 11.3985 2.41378 11.3955 2.40753C11.3924 2.40129 11.3892 2.39511 11.3859 2.38901C11.3825 2.38291 11.379 2.37689 11.3754 2.37094C11.3718 2.365 11.368 2.35915 11.3641 2.35338C11.3602 2.34761 11.3562 2.34193 11.3521 2.33635C11.3479 2.33076 11.3437 2.32527 11.3393 2.31987C11.3349 2.31448 11.3303 2.3092 11.3257 2.30402C11.3211 2.29883 11.3163 2.29375 11.3114 2.28878C11.3066 2.28381 11.3016 2.27896 11.2965 2.27422C11.2914 2.26947 11.2862 2.26485 11.2809 2.26035C11.2756 2.25584 11.2702 2.25146 11.2647 2.2472C11.2592 2.24294 11.2536 2.23882 11.2479 2.23482C11.2422 2.23082 11.2364 2.22695 11.2305 2.2232C11.2247 2.21947 11.2187 2.21587 11.2127 2.2124C11.2067 2.20893 11.2006 2.2056 11.1944 2.20241C11.1882 2.19923 11.1819 2.19618 11.1756 2.19329C11.1693 2.19038 11.1629 2.18762 11.1564 2.18501C11.15 2.1824 11.1435 2.17994 11.1369 2.17762C11.1304 2.1753 11.1237 2.17314 11.1171 2.17114C11.1104 2.16912 11.1037 2.16726 11.097 2.16556C11.0902 2.16385 11.0834 2.16229 11.0766 2.16089C11.0698 2.1595 11.063 2.15825 11.0561 2.15717C11.0492 2.15609 11.0423 2.15516 11.0354 2.15439L8.70854 2.15439C8.70162 2.15516 8.69473 2.15609 8.68785 2.15717C8.68099 2.15825 8.67414 2.1595 8.66732 2.16089C8.6605 2.16229 8.65373 2.16385 8.64698 2.16556C8.64023 2.16726 8.63353 2.16912 8.62687 2.17114C8.62021 2.17314 8.61359 2.1753 8.60703 2.17762C8.60047 2.17994 8.59396 2.1824 8.58752 2.18501C8.58107 2.18762 8.57469 2.19038 8.56836 2.19329C8.56203 2.19618 8.55577 2.19923 8.54959 2.20241C8.54341 2.2056 8.5373 2.20893 8.53126 2.2124C8.52523 2.21587 8.51928 2.21947 8.51341 2.2232C8.50755 2.22695 8.50176 2.23082 8.49607 2.23482C8.49038 2.23882 8.48478 2.24294 8.47927 2.2472C8.47378 2.25146 8.46837 2.25584 8.46307 2.26035C8.45777 2.26485 8.45257 2.26947 8.44747 2.27422C8.44238 2.27896 8.43739 2.28381 8.43251 2.28878C8.42765 2.29375 8.42289 2.29882 8.41825 2.304C8.41361 2.30919 8.4091 2.31448 8.40469 2.31987C8.4003 2.32527 8.39602 2.33076 8.39187 2.33635C8.38773 2.34193 8.38371 2.34761 8.37982 2.35338C8.37593 2.35915 8.37218 2.365 8.36855 2.37094C8.36493 2.37689 8.36145 2.38291 8.3581 2.38901C8.35475 2.39511 8.35155 2.40129 8.34848 2.40753C8.34541 2.41378 8.34249 2.42009 8.33971 2.42647C8.33694 2.43285 8.33431 2.43929 8.33183 2.44579C8.32934 2.45229 8.32701 2.45884 8.32482 2.46545C8.32264 2.47205 8.3206 2.47871 8.31873 2.48541C8.31685 2.49211 8.31512 2.49884 8.31355 2.50563C8.31198 2.5124 8.31055 2.51921 8.30928 2.52605C8.30803 2.53289 8.30692 2.53977 8.30596 2.54666C8.30503 2.55356 8.30423 2.56046 8.3036 2.56739C8.30296 2.57432 8.30248 2.58127 8.30217 2.58822C8.30185 2.59516 8.30169 2.60212 8.30169 2.60908C8.30169 2.61604 8.30185 2.62299 8.30217 2.62994C8.30248 2.63689 8.30296 2.64383 8.3036 2.65077C8.30423 2.65769 8.30503 2.66461 8.30596 2.6715C8.30692 2.67839 8.30803 2.68527 8.30928 2.69211C8.31055 2.69894 8.31196 2.70575 8.31353 2.71254C8.31512 2.71931 8.31685 2.72605 8.31873 2.73275C8.3206 2.73945 8.32264 2.7461 8.32482 2.75271C8.32701 2.75932 8.32934 2.76587 8.33183 2.77237C8.33431 2.77886 8.33694 2.78531 8.33971 2.7917C8.34249 2.79807 8.34541 2.80437 8.34848 2.81063C8.35155 2.81687 8.35475 2.82304 8.3581 2.82915C8.36145 2.83524 8.36493 2.84127 8.36855 2.84722C8.37218 2.85315 8.37593 2.85901 8.37982 2.86479C8.38371 2.87055 8.38773 2.87622 8.39187 2.88181C8.39602 2.88739 8.4003 2.89289 8.40469 2.89829C8.4091 2.90368 8.41361 2.90896 8.41825 2.91414C8.42289 2.91932 8.42765 2.92441 8.43251 2.92938C8.43739 2.93435 8.44238 2.9392 8.44747 2.94395C8.45257 2.94868 8.45777 2.95331 8.46307 2.95781C8.46836 2.96231 8.47376 2.96669 8.47927 2.97096C8.48478 2.97521 8.49037 2.97934 8.49607 2.98334C8.50176 2.98734 8.50755 2.99121 8.51341 2.99496C8.51928 2.99868 8.52523 3.00229 8.53126 3.00576C8.5373 3.00923 8.54341 3.01256 8.54959 3.01575C8.55577 3.01893 8.56203 3.02197 8.56836 3.02487C8.57469 3.02778 8.58107 3.03054 8.58752 3.03315C8.59396 3.03575 8.60047 3.03822 8.60703 3.04054C8.61359 3.04285 8.62021 3.04501 8.62687 3.04702C8.63353 3.04904 8.64023 3.05089 8.64698 3.0526C8.65373 3.05431 8.6605 3.05586 8.66732 3.05727C8.67414 3.05866 8.68099 3.0599 8.68785 3.06099C8.69473 3.06207 8.70162 3.063 8.70854 3.06377L11.0354 3.06377ZM11.5248 5.19377C11.5195 5.18853 11.5141 5.18342 11.5085 5.17845C11.503 5.17348 11.4973 5.16864 11.4915 5.16396C11.4858 5.15926 11.4799 5.15471 11.4739 5.15032C11.4679 5.14591 11.4618 5.14166 11.4555 5.13755C11.4493 5.13345 11.443 5.1295 11.4366 5.12572C11.4302 5.12192 11.4237 5.11829 11.4171 5.11482C11.4105 5.11135 11.4039 5.10805 11.3971 5.10491C11.3904 5.10177 11.3835 5.09879 11.3766 5.09598C11.3697 5.09316 11.3628 5.09054 11.3557 5.08808C11.3487 5.08561 11.3416 5.08331 11.3345 5.0812C11.3274 5.07909 11.3202 5.07714 11.3129 5.07539C11.3057 5.07363 11.2984 5.07205 11.2911 5.07064C11.2838 5.06923 11.2765 5.068 11.2691 5.06697C11.2617 5.06593 11.2543 5.06507 11.2469 5.06439C11.2395 5.06371 11.2321 5.06321 11.2246 5.06291C11.2172 5.06259 11.2097 5.06246 11.2023 5.06252L9.26354 5.06252C9.25662 5.06329 9.24973 5.06422 9.24285 5.0653C9.23599 5.06637 9.22914 5.06762 9.22232 5.06902C9.2155 5.07042 9.20873 5.07196 9.20198 5.07368C9.19523 5.07539 9.18853 5.07725 9.18187 5.07927C9.17521 5.08127 9.16859 5.08343 9.16203 5.08575C9.15547 5.08807 9.14896 5.09053 9.14252 5.09314C9.13607 5.09574 9.12969 5.09851 9.12336 5.10141C9.11703 5.10431 9.11077 5.10736 9.10458 5.11054C9.09841 5.11373 9.0923 5.11706 9.08626 5.12053C9.08023 5.124 9.07428 5.12759 9.06841 5.13133C9.06255 5.13507 9.05676 5.13894 9.05107 5.14295C9.04537 5.14694 9.03978 5.15107 9.03427 5.15533C9.02876 5.15959 9.02336 5.16397 9.01807 5.16848C9.01277 5.17298 9.00757 5.1776 9.00247 5.18234C8.99738 5.18708 8.99239 5.19194 8.98751 5.19691C8.98265 5.20188 8.97789 5.20695 8.97325 5.21214C8.96861 5.21732 8.9641 5.22261 8.95969 5.228C8.9553 5.23339 8.95102 5.23889 8.94687 5.24448C8.94273 5.25005 8.93871 5.25574 8.93482 5.2615C8.93092 5.26727 8.92717 5.27313 8.92355 5.27907C8.91993 5.28501 8.91645 5.29103 8.9131 5.29714C8.90975 5.30323 8.90655 5.30941 8.90348 5.31566C8.90041 5.3219 8.89749 5.32822 8.89471 5.33459C8.89194 5.34097 8.88931 5.34741 8.88683 5.35392C8.88434 5.36041 8.88201 5.36697 8.87982 5.37358C8.87764 5.38018 8.8756 5.38684 8.87373 5.39354C8.87185 5.40023 8.87012 5.40697 8.86855 5.41375C8.86698 5.42053 8.86555 5.42734 8.86428 5.43418C8.86303 5.44102 8.86193 5.44789 8.86096 5.45479C8.86003 5.46168 8.85923 5.46859 8.8586 5.47552C8.85796 5.48245 8.85748 5.48939 8.85717 5.49635C8.85685 5.50328 8.85669 5.51025 8.85669 5.51721C8.85669 5.52417 8.85685 5.53112 8.85717 5.53807C8.85748 5.54502 8.85796 5.55195 8.8586 5.55889C8.85923 5.56582 8.86003 5.57273 8.86096 5.57962C8.86193 5.58651 8.86303 5.59339 8.86428 5.60023C8.86555 5.60707 8.86698 5.61387 8.86855 5.62066C8.87012 5.62743 8.87185 5.63417 8.87373 5.64087C8.8756 5.64758 8.87764 5.65422 8.87982 5.66083C8.88201 5.66744 8.88434 5.67399 8.88683 5.6805C8.88931 5.68699 8.89194 5.69343 8.89471 5.69982C8.89749 5.7062 8.90041 5.7125 8.90348 5.71876C8.90655 5.72499 8.90975 5.73117 8.9131 5.73727C8.91645 5.74337 8.91993 5.74939 8.92355 5.75534C8.92717 5.76127 8.93092 5.76713 8.93482 5.77291C8.93871 5.77868 8.94273 5.78435 8.94687 5.78994C8.95102 5.79553 8.9553 5.80102 8.95969 5.80641C8.9641 5.8118 8.96861 5.81709 8.97325 5.82228C8.97789 5.82746 8.98265 5.83253 8.98751 5.8375C8.99239 5.84247 8.99738 5.84732 9.00247 5.85207C9.00757 5.8568 9.01276 5.86143 9.01805 5.86593C9.02337 5.87043 9.02878 5.87482 9.03427 5.87908C9.03978 5.88334 9.04537 5.88746 9.05107 5.89147C9.05676 5.89546 9.06255 5.89933 9.06841 5.90308C9.07428 5.90681 9.08023 5.91042 9.08626 5.91389C9.0923 5.91736 9.09841 5.92068 9.10458 5.92387C9.11077 5.92706 9.11703 5.93009 9.12336 5.933C9.12969 5.93591 9.13607 5.93866 9.14252 5.94127C9.14896 5.94387 9.15547 5.94635 9.16203 5.94867C9.16859 5.95098 9.17521 5.95313 9.18187 5.95515C9.18853 5.95716 9.19523 5.95903 9.20198 5.96074C9.20873 5.96244 9.2155 5.96398 9.22232 5.96539C9.22914 5.96678 9.23599 5.96803 9.24285 5.96912C9.24973 5.9702 9.25662 5.97112 9.26354 5.97189L11.2023 5.97189C11.2097 5.97192 11.2171 5.97177 11.2245 5.97144C11.2319 5.97111 11.2392 5.97059 11.2466 5.9699C11.254 5.9692 11.2613 5.96833 11.2686 5.96728C11.2759 5.96622 11.2832 5.96498 11.2905 5.96357C11.2977 5.96217 11.305 5.96057 11.3121 5.9588C11.3193 5.95704 11.3265 5.95509 11.3335 5.95298C11.3406 5.95086 11.3477 5.94857 11.3546 5.94611C11.3616 5.94365 11.3685 5.94102 11.3754 5.93821C11.3822 5.9354 11.389 5.93244 11.3957 5.92931C11.4024 5.92617 11.409 5.92287 11.4155 5.91942C11.4221 5.91596 11.4285 5.91234 11.4349 5.90857C11.4412 5.90479 11.4475 5.90086 11.4537 5.89678C11.4598 5.8927 11.4659 5.88847 11.4718 5.88409C11.4778 5.8797 11.4836 5.87518 11.4894 5.87052C11.4951 5.86584 11.5007 5.86103 11.5062 5.8561C11.5117 5.85116 11.5171 5.84607 11.5224 5.84087C11.5276 5.83566 11.5327 5.83033 11.5377 5.82487C11.5427 5.81941 11.5476 5.81383 11.5523 5.80814C11.557 5.80244 11.5616 5.79663 11.566 5.79071C11.5704 5.78478 11.5747 5.77876 11.5788 5.77263C11.583 5.76649 11.587 5.76027 11.5908 5.75394C11.5946 5.74761 11.5983 5.74119 11.6018 5.73468C11.6053 5.72817 11.6087 5.72158 11.6118 5.71491C11.615 5.70823 11.6181 5.7015 11.6209 5.69468C11.6238 5.68786 11.6265 5.68096 11.629 5.67402C11.6315 5.66705 11.6339 5.66005 11.636 5.65299C11.6382 5.64591 11.6402 5.6388 11.642 5.63164C11.6439 5.62447 11.6455 5.61726 11.647 5.61002C11.6485 5.60277 11.6498 5.59549 11.6509 5.58818C11.652 5.58086 11.6529 5.57353 11.6537 5.56618C11.6544 5.55882 11.655 5.55145 11.6554 5.54407C11.6558 5.53668 11.656 5.52929 11.656 5.52189C11.656 5.51445 11.6559 5.50702 11.6555 5.49959C11.6552 5.49215 11.6546 5.48473 11.6539 5.47734C11.6532 5.46993 11.6523 5.46254 11.6512 5.45518C11.6502 5.44782 11.6489 5.44048 11.6475 5.43318C11.6461 5.42588 11.6444 5.41862 11.6427 5.4114C11.6409 5.40417 11.6389 5.397 11.6368 5.38987C11.6347 5.38273 11.6324 5.37566 11.6299 5.36865C11.6275 5.36163 11.6248 5.35468 11.622 5.34779C11.6192 5.3409 11.6162 5.33408 11.6131 5.32733C11.61 5.32058 11.6067 5.31391 11.6032 5.30732C11.5998 5.30074 11.5961 5.29423 11.5924 5.28782C11.5886 5.2814 11.5847 5.27509 11.5806 5.26888C11.5765 5.26264 11.5723 5.25652 11.5679 5.25051C11.5636 5.24449 11.559 5.23857 11.5544 5.23278C11.5497 5.22698 11.5449 5.2213 11.54 5.21573C11.5351 5.21015 11.53 5.20471 11.5248 5.19939L11.5248 5.19377ZM10.1748 7.96314C10.1679 7.96392 10.161 7.96484 10.1541 7.96593C10.1472 7.96701 10.1404 7.96824 10.1336 7.96965C10.1268 7.97104 10.12 7.97259 10.1132 7.9743C10.1065 7.97601 10.0998 7.97787 10.0931 7.97989C10.0865 7.98189 10.0798 7.98405 10.0733 7.98637C10.0667 7.98869 10.0602 7.99115 10.0538 7.99377C10.0473 7.99637 10.0409 7.99913 10.0346 8.00204C10.0283 8.00493 10.022 8.00798 10.0158 8.01117C10.0097 8.01435 10.0036 8.01768 9.99751 8.02115C9.99148 8.02462 9.98553 8.02822 9.97966 8.03196C9.9738 8.0357 9.96801 8.03956 9.96232 8.04357C9.95662 8.04757 9.95103 8.05169 9.94552 8.05596C9.94001 8.06021 9.93461 8.06459 9.9293 8.06911C9.92401 8.0736 9.91882 8.07822 9.91372 8.08297C9.90863 8.0877 9.90364 8.09257 9.89876 8.09754C9.8939 8.1025 9.88914 8.10758 9.8845 8.11276C9.87986 8.11794 9.87535 8.12323 9.87094 8.12862C9.86655 8.13402 9.86227 8.13951 9.85812 8.1451C9.85398 8.15068 9.84996 8.15636 9.84607 8.16213C9.84217 8.16789 9.83842 8.17375 9.8348 8.1797C9.83118 8.18564 9.8277 8.19166 9.82435 8.19777C9.821 8.20386 9.8178 8.21004 9.81473 8.21628C9.81166 8.22253 9.80874 8.22884 9.80596 8.23522C9.80319 8.24159 9.80056 8.24804 9.79808 8.25454C9.79559 8.26103 9.79326 8.2676 9.79107 8.27421C9.78889 8.2808 9.78685 8.28746 9.78498 8.29416C9.7831 8.30086 9.78137 8.30759 9.77978 8.31438C9.77821 8.32115 9.7768 8.32796 9.77553 8.3348C9.77428 8.34165 9.77318 8.34852 9.77221 8.35542C9.77128 8.36231 9.77048 8.36921 9.76985 8.37615C9.76921 8.38307 9.76873 8.39001 9.76842 8.39697C9.7681 8.40391 9.76794 8.41087 9.76794 8.41783C9.76794 8.42479 9.7681 8.43174 9.76842 8.43869C9.76873 8.44564 9.76921 8.45258 9.76985 8.45952C9.77048 8.46644 9.77128 8.47336 9.77221 8.48025C9.77318 8.48714 9.77428 8.49401 9.77553 8.50086C9.7768 8.5077 9.77821 8.51451 9.77978 8.52129C9.78137 8.52806 9.7831 8.5348 9.78498 8.5415C9.78685 8.5482 9.78889 8.55485 9.79107 8.56146C9.79326 8.56807 9.79559 8.57462 9.79808 8.58112C9.80056 8.58761 9.80319 8.59406 9.80596 8.60044C9.80874 8.60682 9.81166 8.61312 9.81473 8.61938C9.8178 8.62562 9.821 8.63179 9.82435 8.6379C9.8277 8.64399 9.83118 8.65001 9.8348 8.65597C9.83842 8.6619 9.84217 8.66776 9.84607 8.67353C9.84996 8.6793 9.85398 8.68497 9.85812 8.69056C9.86227 8.69615 9.86655 8.70165 9.87094 8.70704C9.87535 8.71243 9.87986 8.71771 9.8845 8.72291C9.88914 8.72809 9.8939 8.73316 9.89876 8.73813C9.90364 8.7431 9.90863 8.74795 9.91372 8.7527C9.91882 8.75743 9.92401 8.76206 9.9293 8.76656C9.93461 8.77106 9.94001 8.77544 9.94552 8.77971C9.95103 8.78396 9.95662 8.78809 9.96232 8.79209C9.96801 8.79609 9.9738 8.79996 9.97966 8.80371C9.98553 8.80743 9.99148 8.81104 9.99751 8.81451C10.0036 8.81798 10.0097 8.82131 10.0158 8.8245C10.022 8.82768 10.0283 8.83072 10.0346 8.83362C10.0409 8.83653 10.0473 8.83928 10.0538 8.8419C10.0602 8.8445 10.0667 8.84697 10.0733 8.84929C10.0798 8.8516 10.0865 8.85376 10.0931 8.85577C10.0998 8.85779 10.1065 8.85964 10.1132 8.86135C10.12 8.86306 10.1268 8.86461 10.1336 8.86602C10.1404 8.86741 10.1472 8.86865 10.1541 8.86974C10.161 8.87082 10.1679 8.87175 10.1748 8.87252L11.1404 8.87252C11.148 8.87364 11.1557 8.87458 11.1634 8.87533C11.171 8.87608 11.1787 8.87663 11.1864 8.87698C11.1941 8.87734 11.2018 8.8775 11.2095 8.87748C11.2173 8.87743 11.225 8.87721 11.2327 8.87679C11.2404 8.87636 11.248 8.87574 11.2557 8.87493C11.2634 8.87412 11.271 8.87312 11.2786 8.87192C11.2862 8.87073 11.2938 8.86933 11.3014 8.86776C11.3089 8.86617 11.3164 8.8644 11.3239 8.86245C11.3313 8.86048 11.3387 8.85834 11.3461 8.85601C11.3534 8.85366 11.3607 8.85114 11.3679 8.84845C11.3752 8.84574 11.3823 8.84286 11.3894 8.8398C11.3965 8.83673 11.4035 8.8335 11.4104 8.83009C11.4173 8.82666 11.4241 8.82307 11.4308 8.81932C11.4376 8.81554 11.4442 8.81162 11.4507 8.80753C11.4572 8.80342 11.4637 8.79916 11.47 8.79474C11.4763 8.79031 11.4825 8.78574 11.4886 8.78101C11.4947 8.77627 11.5006 8.77139 11.5065 8.76635C11.5123 8.76131 11.518 8.75613 11.5236 8.75081C11.5292 8.74548 11.5346 8.74002 11.5399 8.73441C11.5452 8.72881 11.5503 8.72309 11.5554 8.71723C11.5604 8.71136 11.5652 8.70537 11.5699 8.69928C11.5746 8.69316 11.5792 8.68694 11.5836 8.68061C11.588 8.67427 11.5922 8.66783 11.5963 8.66129C11.6003 8.65473 11.6042 8.64808 11.608 8.64134C11.6117 8.63459 11.6153 8.62775 11.6186 8.62082C11.622 8.6139 11.6252 8.60689 11.6283 8.5998C11.6313 8.59271 11.6341 8.58555 11.6368 8.57832C11.6395 8.57108 11.642 8.56379 11.6442 8.55643C11.6466 8.54907 11.6487 8.54165 11.6506 8.5342C11.6525 8.52672 11.6543 8.51921 11.6558 8.51166C11.6573 8.5041 11.6587 8.49652 11.6599 8.48891C11.661 8.48128 11.662 8.47363 11.6628 8.46596C11.6635 8.45828 11.6641 8.4506 11.6645 8.44291C11.6649 8.4352 11.6651 8.4275 11.6651 8.41979C11.6651 8.41208 11.6649 8.40437 11.6645 8.39668C11.6641 8.38897 11.6635 8.38129 11.6627 8.37363C11.662 8.36595 11.661 8.3583 11.6598 8.35068C11.6586 8.34307 11.6573 8.33547 11.6557 8.32793C11.6542 8.32037 11.6524 8.31285 11.6505 8.3054C11.6486 8.29794 11.6465 8.29053 11.6441 8.28317C11.6418 8.27581 11.6394 8.26851 11.6367 8.26129C11.634 8.25405 11.6311 8.24689 11.6281 8.23981C11.6251 8.23272 11.6219 8.22571 11.6185 8.2188C11.6151 8.21186 11.6115 8.20503 11.6078 8.19829C11.6041 8.19154 11.6002 8.1849 11.5961 8.17836C11.592 8.17181 11.5878 8.16536 11.5834 8.15903C11.579 8.15271 11.5744 8.14648 11.5697 8.14038C11.565 8.13427 11.5601 8.1283 11.5551 8.12245C11.5501 8.11659 11.5449 8.11086 11.5396 8.10527C11.5343 8.09967 11.5289 8.09421 11.5233 8.08889C11.5177 8.08357 11.512 8.07839 11.5062 8.07336C11.5003 8.06832 11.4944 8.06345 11.4883 8.05872C11.4822 8.05399 11.476 8.04941 11.4697 8.045C11.4634 8.04057 11.4569 8.03632 11.4504 8.03224C11.4439 8.02814 11.4372 8.02421 11.4305 8.02046C11.4238 8.0167 11.4169 8.01311 11.41 8.0097C11.4031 8.00629 11.3961 8.00306 11.389 8C11.382 7.99694 11.3748 7.99407 11.3676 7.99137C11.3604 7.98867 11.3531 7.98616 11.3457 7.98384C11.3384 7.9815 11.331 7.97935 11.3235 7.97741C11.3161 7.97545 11.3086 7.97369 11.301 7.97212C11.2935 7.97054 11.2859 7.96916 11.2783 7.96797C11.2706 7.96678 11.263 7.96577 11.2553 7.96497C11.2477 7.96416 11.24 7.96355 11.2323 7.96314C11.2017 7.95936 11.171 7.95936 11.1404 7.96314L10.1748 7.96314Z"   fill="#FFFFFF" >
</path>
</svg>
