<svg xmlns="http://www.w3.org/2000/svg" xmlns:xlink="http://www.w3.org/1999/xlink" width="14" height="14" viewBox="0 0 14 14" fill="none"><path d="M14 7.00002C14 10.8661 10.8661 14 7.00002 14C3.13401 14 0 10.8661 0 7.00002C0 3.13401 3.13401 0 7.00002 0C10.8661 0 14 3.13401 14 7.00002ZM1.37347 7.00002C1.37347 10.1075 3.89255 12.6266 7.00002 12.6266C10.1075 12.6266 12.6266 10.1075 12.6266 7.00002C12.6266 3.89255 10.1075 1.37347 7.00002 1.37347C3.89255 1.37347 1.37347 3.89255 1.37347 7.00002ZM4.72911 6.3523L9.25529 6.3523C9.6001 6.3523 9.87963 6.63181 9.87963 6.9766C9.87963 7.32139 9.6001 7.60091 9.25529 7.60091L4.72911 7.60091C4.38431 7.60091 4.1048 7.32139 4.1048 6.9766C4.1048 6.63181 4.38431 6.3523 4.72911 6.3523Z" fill-rule="evenodd"  fill="#C00000" ></path></svg>