<svg xmlns="http://www.w3.org/2000/svg" xmlns:xlink="http://www.w3.org/1999/xlink" width="16" height="16" viewBox="0 0 16 16" fill="none">
<g  clip-path="url(#clip-path-eg11QK0CEUsdnbJIQuyDd)">
<path d="M14.0786 10.1098L14.0786 5.84546C14.6641 5.74059 15.136 5.19007 15.136 4.56965C15.136 3.84436 14.5505 3.29384 13.8602 3.29384C13.4932 3.29384 13.1349 3.47734 12.9164 3.73076L9.2725 1.6947C9.30745 1.58984 9.34241 1.47624 9.34241 1.32769C9.34241 0.602401 8.75693 0.0518801 8.0666 0.0518801C7.37626 0.0518801 6.79078 0.637354 6.79078 1.32769C6.79078 1.43255 6.82574 1.54615 6.82574 1.65975L3.19055 3.73949C2.90218 3.45113 2.57012 3.26762 2.21185 3.26762C1.48656 3.26762 0.936035 3.85309 0.936035 4.54343C0.936035 5.16386 1.37296 5.67069 1.95843 5.81924L1.95843 10.1185C1.37296 10.2671 0.936035 10.7739 0.936035 11.3944C0.936035 12.1196 1.52151 12.6702 2.21185 12.6702C2.57886 12.6702 2.93714 12.4867 3.1556 12.2332L6.83448 14.2693C6.76457 14.4178 6.72962 14.6014 6.72962 14.7761C6.72962 15.5014 7.31509 16.0519 8.00543 16.0519C8.69576 16.0519 9.28124 15.4665 9.28124 14.7761C9.28124 14.5926 9.24628 14.4091 9.17638 14.2343L12.8553 12.2332C13.1087 12.4867 13.4407 12.6702 13.834 12.6702C14.5592 12.6702 15.1098 12.0847 15.1098 11.3944C15.136 10.7215 14.6991 10.2147 14.0786 10.1098ZM8.80062 13.745C8.65207 13.6401 8.51225 13.5615 8.3637 13.5265L8.3637 10.2846L7.74327 10.2846L7.74327 13.5265C7.55977 13.5615 7.37626 13.6751 7.23644 13.7799L3.48766 11.7002C3.52261 11.5953 3.52261 11.4817 3.52261 11.3681C3.52261 10.7827 3.12064 10.2758 2.57886 10.1273L2.57886 5.8105C2.79732 5.74059 2.98083 5.66195 3.12064 5.47844L5.84703 7.15622L6.17909 6.64939L3.44396 4.97161C3.47892 4.82306 3.51387 4.7182 3.51387 4.56965C3.51387 4.46478 3.47892 4.35118 3.47892 4.23759L7.12284 2.16658C7.34131 2.41999 7.70832 2.56855 8.0666 2.56855C8.43361 2.56855 8.75693 2.41999 8.97539 2.16658L12.6193 4.24632C12.5844 4.35118 12.5844 4.46478 12.5844 4.57838C12.5844 4.72694 12.6193 4.8318 12.6543 4.98035L9.92788 6.65813L10.2599 7.16496L12.9514 5.52213C13.0999 5.67069 13.2834 5.77555 13.4932 5.85419L13.4932 10.1797C12.9514 10.3283 12.5844 10.8351 12.5844 11.4206C12.5844 11.5254 12.5844 11.639 12.6193 11.7089L8.80062 13.745Z"   fill="#FFFFFF" >
</path>
<path d="M6.82577 9.21854C7.48115 9.87392 8.5385 9.87392 9.19388 9.21854C9.84926 8.56315 9.84926 7.50581 9.19388 6.85042C8.5385 6.19504 7.48115 6.19504 6.82577 6.85042C6.17038 7.49707 6.17038 8.56315 6.82577 9.21854Z"   fill="#FFFFFF" >
</path>
</g>
<defs>
<clipPath id="clip-path-eg11QK0CEUsdnbJIQuyDd">
<path d="M0 16L16 16L16 0L0 0L0 16Z" fill="white"/>
</clipPath>
</defs>
</svg>
