<svg xmlns="http://www.w3.org/2000/svg" xmlns:xlink="http://www.w3.org/1999/xlink" width="16" height="16" viewBox="0 0 16 16" fill="none">
<path d="M8 1.01386C8.09975 1.01394 8.19945 1.01615 8.29912 1.02049C8.39878 1.02484 8.4983 1.03132 8.59769 1.03992C8.69706 1.04853 8.79622 1.05926 8.89514 1.07212C8.99406 1.08497 9.09266 1.09993 9.19094 1.11701C9.28923 1.13409 9.38711 1.15326 9.48456 1.17453C9.58202 1.1958 9.67898 1.21914 9.77544 1.24456C9.87189 1.26998 9.96777 1.29745 10.0631 1.32698C10.1583 1.35651 10.253 1.38806 10.3469 1.42163C10.4408 1.45521 10.534 1.49078 10.6264 1.52835C10.7188 1.56592 10.8104 1.60545 10.9011 1.64694C10.9918 1.68842 11.0816 1.73184 11.1705 1.77717C11.2593 1.8225 11.3472 1.86972 11.434 1.91881C11.5208 1.96791 11.6066 2.01884 11.6912 2.07161C11.7759 2.12438 11.8594 2.17894 11.9417 2.23528C12.024 2.29163 12.1051 2.3497 12.1849 2.40952C12.2647 2.46933 12.3433 2.53083 12.4205 2.594C12.4977 2.65717 12.5735 2.72198 12.6479 2.78841C12.7223 2.85483 12.7953 2.92283 12.8668 2.99237C12.9383 3.06192 13.0083 3.13297 13.0767 3.20552C13.1452 3.27806 13.2121 3.35203 13.2774 3.42745C13.3427 3.50286 13.4064 3.57962 13.4684 3.65777C13.5304 3.73591 13.5907 3.81533 13.6493 3.89605C13.7079 3.97678 13.7648 4.05872 13.8199 4.14186C13.875 4.22502 13.9283 4.30931 13.9798 4.39475C14.0313 4.48019 14.0809 4.56669 14.1287 4.65425C14.1765 4.74181 14.2224 4.83036 14.2664 4.91989C14.3104 5.00942 14.3524 5.09984 14.3925 5.19117C14.4327 5.2825 14.4708 5.37466 14.507 5.46761C14.5432 5.56058 14.5773 5.65428 14.6095 5.7487C14.6417 5.84312 14.6718 5.9382 14.6999 6.03391C14.728 6.12962 14.754 6.22591 14.778 6.32273C14.802 6.41956 14.8238 6.51687 14.8436 6.61464C14.8634 6.71241 14.8811 6.81055 14.8968 6.90908C14.9124 7.00759 14.9258 7.10641 14.9372 7.20552C14.9486 7.30463 14.9578 7.40392 14.9649 7.50342C14.972 7.60292 14.977 7.70253 14.9799 7.80225C14.9827 7.90195 14.9834 8.00169 14.982 8.10144C14.9806 8.20117 14.977 8.30084 14.9714 8.40044C14.9657 8.50003 14.9579 8.59945 14.9479 8.69872C14.938 8.79797 14.9259 8.89697 14.9117 8.9957C14.8975 9.09444 14.8812 9.19283 14.8628 9.29088C14.8444 9.38892 14.8239 9.48652 14.8013 9.58369C14.7788 9.68086 14.7541 9.7775 14.7274 9.87361C14.7007 9.96972 14.6719 10.0652 14.6411 10.1601C14.6103 10.255 14.5775 10.3491 14.5426 10.4426C14.5078 10.5361 14.471 10.6288 14.4322 10.7207C14.3934 10.8125 14.3526 10.9036 14.3099 10.9937C14.2672 11.0839 14.2226 11.1731 14.176 11.2613C14.1295 11.3495 14.0811 11.4368 14.0308 11.5229C13.9806 11.6091 13.9285 11.6941 13.8746 11.7781C13.8207 11.862 13.765 11.9447 13.7076 12.0263C13.6501 12.1078 13.591 12.1881 13.5301 12.2671C13.4692 12.3462 13.4066 12.4238 13.3424 12.5002C13.2782 12.5765 13.2124 12.6515 13.145 12.725C13.0775 12.7985 13.0086 12.8705 12.9381 12.9411C12.8676 13.0117 12.7956 13.0807 12.7221 13.1482C12.6487 13.2157 12.5738 13.2815 12.4975 13.3458C12.4212 13.4101 12.3436 13.4727 12.2646 13.5337C12.1857 13.5946 12.1054 13.6538 12.0239 13.7114C11.9424 13.7689 11.8597 13.8246 11.7758 13.8786C11.6919 13.9326 11.6069 13.9847 11.5208 14.0351C11.4347 14.0854 11.3475 14.1339 11.2593 14.1805C11.1711 14.2271 11.082 14.2718 10.9919 14.3146C10.9017 14.3573 10.8108 14.3982 10.7189 14.4371C10.6136 14.4814 10.5072 14.5231 10.3999 14.5622C10.2925 14.6013 10.1842 14.6378 10.0751 14.6716C9.96591 14.7054 9.85598 14.7365 9.7453 14.7649C9.63461 14.7933 9.5233 14.819 9.41134 14.842C9.29941 14.8649 9.18697 14.8851 9.07403 14.9025C8.96109 14.92 8.8478 14.9346 8.73416 14.9465C8.6205 14.9584 8.50663 14.9675 8.39252 14.9737C8.27842 14.98 8.16423 14.9835 8.04997 14.9842C7.9357 14.9849 7.82148 14.9828 7.70731 14.9778C7.59314 14.9729 7.47917 14.9652 7.36538 14.9547C7.25159 14.9442 7.13814 14.9309 7.025 14.9148C6.91186 14.8988 6.79919 14.8799 6.68697 14.8583C6.57477 14.8367 6.46314 14.8124 6.35213 14.7853C6.24111 14.7582 6.13083 14.7284 6.02127 14.696C5.91172 14.6635 5.80302 14.6283 5.69519 14.5905C5.58736 14.5527 5.48052 14.5122 5.37467 14.4692C5.26881 14.4261 5.16409 14.3805 5.06048 14.3323C4.95687 14.2841 4.8545 14.2334 4.75339 14.1801C4.65227 14.1269 4.5525 14.0712 4.45411 14.0131C4.35572 13.955 4.25881 13.8945 4.16339 13.8316C4.06797 13.7688 3.97416 13.7036 3.88192 13.6361C3.7897 13.5687 3.69919 13.499 3.61037 13.427C3.52158 13.3551 3.43458 13.2811 3.34941 13.2049C3.26423 13.1287 3.18097 13.0505 3.09964 12.9702C3.01831 12.89 2.93898 12.8078 2.86169 12.7236C2.78437 12.6394 2.70917 12.5534 2.63609 12.4656C2.56302 12.3778 2.49213 12.2882 2.42344 12.1968C2.35475 12.1055 2.28834 12.0126 2.22422 11.918C2.16008 11.8234 2.09831 11.7273 2.03889 11.6297C1.97948 11.5321 1.9225 11.4331 1.86794 11.3327C1.81337 11.2323 1.76131 11.1306 1.71175 11.0276C1.66217 10.9247 1.61516 10.8205 1.5707 10.7153C1.52624 10.61 1.48439 10.5037 1.44514 10.3964C1.40589 10.2891 1.3693 10.1808 1.33536 10.0717C1.30142 9.96262 1.27018 9.85273 1.24163 9.74208C1.21309 9.63144 1.18727 9.52016 1.16418 9.40823C1.14109 9.29631 1.12076 9.18391 1.10319 9.071C1.08562 8.95808 1.07082 8.84481 1.05881 8.73117C1.04679 8.61753 1.03757 8.50366 1.03114 8.38958C1.02471 8.27548 1.02108 8.1613 1.02025 8.04703C1.01942 7.93277 1.0214 7.81855 1.02617 7.70437C1.03095 7.5902 1.03852 7.4762 1.04889 7.36241C1.05925 7.24861 1.0724 7.13513 1.08834 7.02197C1.10427 6.90881 1.12297 6.79611 1.14443 6.68388C1.1659 6.57164 1.1901 6.46 1.21704 6.34895C1.24398 6.23791 1.27363 6.12758 1.30598 6.01797C1.33833 5.90837 1.37335 5.79964 1.41104 5.69177C1.44872 5.58388 1.48903 5.47698 1.53196 5.37109C1.57489 5.26519 1.62039 5.16041 1.66847 5.05673C1.71655 4.95306 1.76713 4.85064 1.82022 4.74945C1.87331 4.64827 1.92886 4.54844 1.98686 4.44997C2.04484 4.35152 2.10522 4.25453 2.16797 4.15903C2.23072 4.06353 2.29578 3.96962 2.36314 3.87731C2.4305 3.785 2.50008 3.69439 2.57188 3.6055C2.64367 3.51661 2.71761 3.42952 2.79369 3.34425C2.86977 3.25898 2.94789 3.17564 3.02805 3.0942C3.10822 3.01277 3.19033 2.93334 3.27439 2.85594C3.35845 2.77853 3.44436 2.70323 3.53211 2.63003C3.61987 2.55684 3.70936 2.48584 3.80059 2.41703C3.89183 2.34823 3.9847 2.2817 4.0792 2.21747C4.1737 2.15322 4.26972 2.09133 4.36727 2.03178C4.46481 1.97225 4.56375 1.91514 4.66408 1.86045C4.76442 1.80578 4.86605 1.75359 4.96894 1.70389C5.07184 1.65419 5.17591 1.60705 5.28111 1.56245C5.33469 1.53978 5.38855 1.51779 5.44269 1.49647C5.49681 1.47516 5.5512 1.45452 5.60586 1.43457C5.66052 1.41463 5.71541 1.39537 5.77055 1.3768C5.82569 1.35823 5.88105 1.34036 5.93663 1.32318C5.99222 1.30601 6.04802 1.28953 6.10402 1.27376C6.16002 1.25799 6.2162 1.24292 6.27258 1.22856C6.32897 1.2142 6.38552 1.20055 6.44223 1.18761C6.49897 1.17468 6.55584 1.16245 6.61287 1.15095C6.66991 1.13944 6.72708 1.12865 6.78438 1.11858C6.84167 1.10851 6.89908 1.09917 6.95662 1.09054C7.01417 1.08192 7.0718 1.07402 7.12953 1.06684C7.18727 1.05966 7.24509 1.05321 7.30298 1.04749C7.36088 1.04177 7.41884 1.03678 7.47686 1.03251C7.53489 1.02825 7.59295 1.02471 7.65106 1.02191C7.70917 1.01911 7.76731 1.01703 7.82548 1.01569C7.88366 1.01435 7.94183 1.01374 8 1.01386ZM8 0C3.58178 0 0 3.58162 0 8C0 12.4184 3.58162 16 8 16C12.4184 16 16 12.4184 16 8C16 3.58162 12.4182 0 8 0Z"   fill="#F56565" >
</path>
<path d="M4.26367 5.00499L4.98058 4.28809L11.709 11.0165L10.9921 11.7334L4.26367 5.00499Z"   fill="#F56565" >
</path>
<path d="M4.27539 11.0136L11.0038 4.28516L11.7207 5.00206L4.99231 11.7305L4.27539 11.0136Z"   fill="#F56565" >
</path>
</svg>
