<svg xmlns="http://www.w3.org/2000/svg" xmlns:xlink="http://www.w3.org/1999/xlink" width="8.39990234375" height="14" viewBox="0 0 8.39990234375 14" fill="none"><path d="M2.8 1.4C2.8 0.7 2.1 0 1.4 0C0.7 0 0 0.7 0 1.4C0 2.1 0.7 2.8 1.4 2.8C2.1 2.8 2.8 2.1 2.8 1.4ZM5.6 12.6C5.6 13.3 6.3 14 7 14C7.7 14 8.4 13.3 8.4 12.6C8.4 11.9 7.7 11.2 7 11.2C6.3 11.2 5.6 11.9 5.6 12.6ZM8.4 1.4C8.4 0.7 7.7 0 7 0C6.3 0 5.6 0.7 5.6 1.4C5.6 2.1 6.3 2.8 7 2.8C7.7 2.8 8.4 2.1 8.4 1.4ZM2.8 12.6C2.8 11.9 2.1 11.2 1.4 11.2C0.7 11.2 0 11.9 0 12.6C0 13.3 0.7 14 1.4 14C2.1 14 2.8 13.3 2.8 12.6ZM8.4 7C8.4 6.3 7.7 5.6 7 5.6C6.3 5.6 5.6 6.3 5.6 7C5.6 7.7 6.3 8.4 7 8.4C7.7 8.4 8.4 7.7 8.4 7ZM2.8 7C2.8 6.3 2.1 5.6 1.4 5.6C0.7 5.6 0 6.3 0 7C0 7.7 0.7 8.4 1.4 8.4C2.1 8.4 2.8 7.7 2.8 7Z"   fill="#666666" ></path></svg>