<svg xmlns="http://www.w3.org/2000/svg" xmlns:xlink="http://www.w3.org/1999/xlink" width="14" height="14" viewBox="0 0 14 14" fill="none"><path d="M12.6376 0.00116653L1.36244 0.00116653C0.611231 0.00116653 0 0.611231 0 1.36244L0 12.6376C0 13.3888 0.611231 14 1.36244 14L12.6376 14C13.3888 14 14 13.3888 14 12.6376L14 1.36244C14 0.611231 13.3888 0 12.6376 0L12.6376 0.00116653ZM12.8324 12.6364C12.8324 12.6396 12.8323 12.6427 12.8321 12.6459C12.832 12.6491 12.8317 12.6522 12.8314 12.6554C12.8311 12.6585 12.8307 12.6617 12.8303 12.6648C12.8298 12.6679 12.8293 12.6711 12.8286 12.6742C12.828 12.6773 12.8273 12.6804 12.8266 12.6834C12.8258 12.6865 12.8249 12.6896 12.824 12.6926C12.8231 12.6956 12.8221 12.6987 12.821 12.7016C12.82 12.7046 12.8188 12.7076 12.8176 12.7105C12.8164 12.7134 12.8151 12.7163 12.8138 12.7192C12.8124 12.722 12.811 12.7249 12.8095 12.7277C12.808 12.7305 12.8064 12.7332 12.8048 12.7359C12.8032 12.7387 12.8015 12.7413 12.7997 12.744C12.798 12.7466 12.7961 12.7492 12.7943 12.7517C12.7924 12.7543 12.7904 12.7568 12.7884 12.7592C12.7864 12.7617 12.7843 12.7641 12.7822 12.7664C12.7801 12.7688 12.7779 12.7711 12.7756 12.7733C12.7734 12.7756 12.7711 12.7777 12.7688 12.7799C12.7664 12.782 12.764 12.7841 12.7616 12.7861C12.7591 12.7881 12.7566 12.79 12.7541 12.7919C12.7515 12.7938 12.7489 12.7956 12.7463 12.7974C12.7437 12.7992 12.741 12.8008 12.7383 12.8025C12.7356 12.8041 12.7328 12.8057 12.73 12.8072C12.7272 12.8086 12.7244 12.8101 12.7215 12.8114C12.7186 12.8128 12.7158 12.8141 12.7128 12.8153C12.7099 12.8165 12.7069 12.8176 12.704 12.8187C12.701 12.8198 12.698 12.8208 12.6949 12.8217C12.6919 12.8226 12.6888 12.8234 12.6858 12.8242C12.6827 12.825 12.6796 12.8257 12.6765 12.8263C12.6734 12.8269 12.6703 12.8275 12.6671 12.8279C12.664 12.8284 12.6609 12.8288 12.6577 12.8291C12.6545 12.8294 12.6514 12.8296 12.6482 12.8298C12.6451 12.83 12.6419 12.83 12.6387 12.83L1.36244 12.83C1.35927 12.83 1.3561 12.83 1.35294 12.8298C1.34977 12.8297 1.34661 12.8295 1.34345 12.8292C1.3403 12.8289 1.33715 12.8286 1.33401 12.8281C1.33087 12.8277 1.32775 12.8271 1.32464 12.8265C1.32153 12.8259 1.31844 12.8253 1.31536 12.8245C1.31228 12.8238 1.30921 12.8229 1.30618 12.822C1.30314 12.8211 1.30012 12.8201 1.29714 12.8191C1.29415 12.8181 1.29118 12.8169 1.28824 12.8157C1.28531 12.8146 1.28241 12.8133 1.27955 12.8119C1.27667 12.8106 1.27382 12.8092 1.27102 12.8077C1.26822 12.8062 1.26546 12.8047 1.26272 12.8031C1.26 12.8015 1.25732 12.7998 1.25467 12.798C1.25202 12.7963 1.24942 12.7945 1.24687 12.7926C1.2443 12.7908 1.2418 12.7888 1.23934 12.7868C1.23687 12.7848 1.23446 12.7828 1.2321 12.7807C1.22974 12.7785 1.22743 12.7764 1.22518 12.7741C1.22292 12.7719 1.22072 12.7696 1.21858 12.7673C1.21644 12.765 1.21436 12.7626 1.21233 12.7601C1.2103 12.7577 1.20834 12.7552 1.20644 12.7527C1.20453 12.7501 1.20269 12.7476 1.20092 12.7449C1.19915 12.7423 1.19743 12.7397 1.19578 12.7369C1.19414 12.7342 1.19257 12.7315 1.19106 12.7287C1.18954 12.7259 1.18809 12.7231 1.18672 12.7202C1.18535 12.7174 1.18405 12.7145 1.18282 12.7116C1.18159 12.7087 1.18044 12.7057 1.17936 12.7027C1.17826 12.6998 1.17725 12.6968 1.17631 12.6937C1.17538 12.6907 1.17452 12.6876 1.17373 12.6846C1.17294 12.6815 1.17223 12.6784 1.17159 12.6753C1.17095 12.6722 1.17039 12.6691 1.1699 12.666C1.16942 12.6628 1.16902 12.6597 1.16868 12.6565C1.16835 12.6534 1.1681 12.6502 1.16793 12.6471C1.16776 12.6439 1.16766 12.6407 1.16764 12.6376L1.16764 1.36244C1.16764 1.25512 1.25512 1.16764 1.36244 1.16764L12.6376 1.16764C12.7449 1.16764 12.8312 1.25396 12.8312 1.36127L12.8312 12.6364L12.8324 12.6364ZM10.3746 3.50058L11.3451 3.50058C11.3547 3.50058 11.3642 3.50082 11.3738 3.50129C11.3833 3.50175 11.3929 3.50246 11.4024 3.50339C11.4119 3.50434 11.4214 3.5055 11.4309 3.50691C11.4403 3.50831 11.4497 3.50995 11.4591 3.51181C11.4685 3.51369 11.4778 3.51578 11.4871 3.5181C11.4964 3.52041 11.5056 3.52296 11.5148 3.52575C11.5239 3.52852 11.533 3.53151 11.542 3.53474C11.551 3.53797 11.5599 3.54141 11.5687 3.54507C11.5776 3.54874 11.5863 3.5526 11.595 3.55668C11.6036 3.56078 11.6122 3.56509 11.6206 3.56959C11.629 3.57409 11.6373 3.57881 11.6455 3.58373C11.6538 3.58863 11.6618 3.59376 11.6698 3.59908C11.6777 3.60438 11.6856 3.60989 11.6932 3.61559C11.7009 3.62129 11.7085 3.62716 11.7158 3.63323C11.7232 3.6393 11.7305 3.64555 11.7376 3.65197C11.7447 3.6584 11.7516 3.66498 11.7584 3.67174C11.7651 3.67851 11.7717 3.68543 11.7781 3.69252C11.7845 3.69961 11.7908 3.70685 11.7969 3.71425C11.8029 3.72163 11.8088 3.72918 11.8145 3.73687C11.8202 3.74454 11.8257 3.75236 11.831 3.76031C11.8363 3.76827 11.8414 3.77634 11.8464 3.78455C11.8513 3.79275 11.856 3.80106 11.8605 3.8095C11.865 3.81794 11.8693 3.82647 11.8734 3.83512C11.8775 3.84376 11.8814 3.85251 11.885 3.86135C11.8887 3.87019 11.8921 3.8791 11.8954 3.88811C11.8986 3.89711 11.9016 3.90619 11.9043 3.91534C11.9071 3.9245 11.9097 3.93371 11.912 3.94299C11.9143 3.95226 11.9164 3.9616 11.9183 3.97098C11.9201 3.98037 11.9218 3.98977 11.9232 3.99923C11.9246 4.00869 11.9258 4.01819 11.9267 4.0277C11.9276 4.03723 11.9283 4.04677 11.9288 4.05632C11.9293 4.06587 11.9295 4.07542 11.9295 4.08499C11.9295 4.09455 11.9293 4.1041 11.9288 4.11366C11.9283 4.12321 11.9276 4.13274 11.9267 4.14227C11.9258 4.15178 11.9246 4.16128 11.9232 4.17074C11.9218 4.1802 11.9201 4.1896 11.9183 4.19899C11.9164 4.20838 11.9143 4.21771 11.912 4.22699C11.9097 4.23626 11.9071 4.24547 11.9043 4.25463C11.9016 4.26378 11.8986 4.27286 11.8954 4.28186C11.8921 4.29087 11.8887 4.29978 11.885 4.30862C11.8814 4.31746 11.8775 4.32619 11.8734 4.33485C11.8693 4.34351 11.865 4.35204 11.8605 4.36047C11.856 4.36891 11.8513 4.37722 11.8464 4.38543C11.8414 4.39363 11.8363 4.4017 11.831 4.40967C11.8257 4.41761 11.8202 4.42543 11.8145 4.4331C11.8088 4.4408 11.8029 4.44834 11.7969 4.45572C11.7908 4.46312 11.7845 4.47036 11.7781 4.47745C11.7717 4.48454 11.7651 4.49147 11.7584 4.49823C11.7516 4.50499 11.7447 4.51157 11.7376 4.518C11.7305 4.52442 11.7232 4.53067 11.7158 4.53674C11.7085 4.54281 11.7009 4.54868 11.6932 4.55438C11.6856 4.56009 11.6777 4.56559 11.6698 4.57089C11.6618 4.5762 11.6538 4.58132 11.6455 4.58624C11.6373 4.59116 11.629 4.59588 11.6206 4.60038C11.6122 4.60489 11.6036 4.60919 11.595 4.61327C11.5863 4.61737 11.5776 4.62123 11.5687 4.6249C11.5599 4.62856 11.551 4.63201 11.542 4.63523C11.533 4.63846 11.5239 4.64145 11.5148 4.64422C11.5056 4.64701 11.4964 4.64956 11.4871 4.65187C11.4778 4.65419 11.4685 4.65628 11.4591 4.65816C11.4497 4.66002 11.4403 4.66166 11.4309 4.66306C11.4214 4.66447 11.4119 4.66563 11.4024 4.66658C11.3929 4.66751 11.3833 4.66822 11.3738 4.66868C11.3642 4.66915 11.3547 4.66939 11.3451 4.66939L10.3746 4.66939L10.3746 5.63989C10.3746 5.64946 10.3744 5.65901 10.3739 5.66856C10.3734 5.67811 10.3727 5.68765 10.3718 5.69718C10.3708 5.70669 10.3697 5.71619 10.3683 5.72565C10.3669 5.73511 10.3652 5.74451 10.3634 5.7539C10.3615 5.76328 10.3594 5.77262 10.3571 5.78189C10.3548 5.79117 10.3522 5.80037 10.3494 5.80954C10.3467 5.81869 10.3437 5.82777 10.3404 5.83677C10.3372 5.84578 10.3338 5.85469 10.3301 5.86353C10.3265 5.87237 10.3226 5.88112 10.3185 5.88976C10.3144 5.89841 10.3101 5.90694 10.3056 5.91538C10.3011 5.92382 10.2964 5.93213 10.2915 5.94033C10.2865 5.94853 10.2814 5.95661 10.2761 5.96457C10.2708 5.97252 10.2653 5.98034 10.2596 5.98801C10.2539 5.9957 10.248 6.00325 10.242 6.01063C10.2359 6.01803 10.2296 6.02527 10.2232 6.03236C10.2168 6.03945 10.2102 6.04637 10.2034 6.05313C10.1967 6.0599 10.1898 6.06648 10.1827 6.07291C10.1756 6.07933 10.1683 6.08558 10.1609 6.09165C10.1536 6.09772 10.146 6.10358 10.1383 6.10929C10.1306 6.11499 10.1228 6.1205 10.1149 6.1258C10.1069 6.13112 10.0988 6.13625 10.0906 6.14115C10.0824 6.14607 10.0741 6.15079 10.0657 6.15529C10.0573 6.15979 10.0487 6.16409 10.0401 6.16818C10.0314 6.17228 10.0227 6.17614 10.0138 6.17981C10.005 6.18347 9.99608 6.18691 9.98708 6.19014C9.97808 6.19337 9.969 6.19636 9.95985 6.19913C9.95068 6.20191 9.94148 6.20447 9.9322 6.20678C9.92292 6.2091 9.91359 6.21119 9.90421 6.21307C9.89482 6.21493 9.88542 6.21657 9.87596 6.21797C9.8665 6.21938 9.857 6.22054 9.84749 6.22149C9.83795 6.22242 9.82842 6.22313 9.81887 6.22359C9.80932 6.22406 9.79977 6.2243 9.7902 6.2243C9.78063 6.2243 9.77108 6.22406 9.76153 6.22359C9.75198 6.22313 9.74245 6.22242 9.73292 6.22149C9.7234 6.22054 9.71391 6.21938 9.70445 6.21797C9.69499 6.21657 9.68558 6.21493 9.6762 6.21307C9.66681 6.21119 9.65748 6.2091 9.6482 6.20678C9.63892 6.20447 9.62972 6.20191 9.62055 6.19913C9.6114 6.19636 9.60233 6.19337 9.59332 6.19014C9.58432 6.18691 9.57541 6.18347 9.56657 6.17981C9.55773 6.17614 9.54898 6.17228 9.54034 6.16818C9.53168 6.16409 9.52315 6.15979 9.51471 6.15529C9.50628 6.15079 9.49796 6.14607 9.48976 6.14115C9.48156 6.13623 9.47349 6.13111 9.46552 6.1258C9.45757 6.1205 9.44976 6.11499 9.44208 6.10929C9.43439 6.10358 9.42685 6.09772 9.41946 6.09165C9.41206 6.08558 9.40483 6.07933 9.39774 6.07291C9.39065 6.06648 9.38372 6.0599 9.37696 6.05313C9.3702 6.04637 9.36362 6.03945 9.35719 6.03236C9.35077 6.02527 9.34452 6.01803 9.33845 6.01063C9.33238 6.00325 9.32651 5.9957 9.32081 5.98801C9.3151 5.98034 9.3096 5.97252 9.30429 5.96457C9.29897 5.95661 9.29385 5.94853 9.28895 5.94033C9.28403 5.93213 9.27931 5.92382 9.2748 5.91538C9.2703 5.90694 9.266 5.89841 9.2619 5.88976C9.25782 5.88112 9.25395 5.87237 9.25029 5.86353C9.24663 5.85469 9.24318 5.84578 9.23995 5.83677C9.23673 5.82777 9.23374 5.81869 9.23097 5.80954C9.22818 5.80037 9.22563 5.79117 9.22331 5.78189C9.221 5.77262 9.2189 5.76328 9.21703 5.7539C9.21515 5.74451 9.21353 5.73511 9.21212 5.72565C9.21072 5.71619 9.20954 5.70669 9.20861 5.69718C9.20768 5.68765 9.20697 5.67811 9.20651 5.66856C9.20604 5.65901 9.2058 5.64946 9.2058 5.63989L9.2058 4.66939L8.23646 4.66939C8.22689 4.66939 8.21734 4.66915 8.20779 4.66868C8.19824 4.66822 8.18871 4.66751 8.17918 4.66658C8.16966 4.66563 8.16017 4.66447 8.15071 4.66306C8.14125 4.66166 8.13184 4.66002 8.12246 4.65816C8.11307 4.65628 8.10374 4.65419 8.09446 4.65187C8.08518 4.64956 8.07598 4.64701 8.06681 4.64422C8.05766 4.64145 8.04859 4.63846 8.03958 4.63523C8.03058 4.63201 8.02167 4.62856 8.01283 4.6249C8.00399 4.62123 7.99524 4.61737 7.9866 4.61327C7.97794 4.60919 7.96941 4.60489 7.96097 4.60038C7.95253 4.59588 7.94422 4.59116 7.93602 4.58624C7.92782 4.58132 7.91974 4.5762 7.91178 4.57089C7.90383 4.56559 7.89601 4.56009 7.88832 4.55438C7.88065 4.54868 7.8731 4.54281 7.86572 4.53674C7.85832 4.53067 7.85109 4.52442 7.844 4.518C7.83691 4.51157 7.82998 4.50499 7.82322 4.49823C7.81646 4.49147 7.80988 4.48454 7.80344 4.47745C7.79703 4.47036 7.79078 4.46312 7.78471 4.45572C7.77864 4.44834 7.77277 4.4408 7.76707 4.4331C7.76136 4.42543 7.75586 4.41761 7.75055 4.40967C7.74523 4.4017 7.74011 4.39363 7.73521 4.38543C7.73028 4.37722 7.72556 4.36891 7.72106 4.36047C7.71656 4.35204 7.71226 4.34351 7.70816 4.33485C7.70408 4.32621 7.70021 4.31746 7.69655 4.30862C7.69288 4.29978 7.68944 4.29087 7.68621 4.28186C7.68299 4.27286 7.68 4.26378 7.67723 4.25463C7.67444 4.24547 7.67189 4.23626 7.66957 4.22699C7.66726 4.21771 7.66516 4.20838 7.66329 4.19899C7.66143 4.1896 7.65979 4.1802 7.65838 4.17074C7.65698 4.16128 7.65581 4.15178 7.65486 4.14227C7.65394 4.13274 7.65322 4.12321 7.65277 4.11366C7.6523 4.1041 7.65206 4.09455 7.65206 4.08499C7.65206 4.07542 7.6523 4.06587 7.65277 4.05632C7.65322 4.04677 7.65394 4.03723 7.65486 4.0277C7.65581 4.01819 7.65698 4.00869 7.65838 3.99923C7.65979 3.98977 7.66143 3.98037 7.66329 3.97098C7.66516 3.9616 7.66726 3.95226 7.66957 3.94299C7.67189 3.93371 7.67444 3.9245 7.67723 3.91534C7.68 3.90619 7.68299 3.89711 7.68621 3.88811C7.68944 3.8791 7.69288 3.87019 7.69655 3.86135C7.70021 3.85251 7.70408 3.84376 7.70816 3.83512C7.71226 3.82647 7.71656 3.81794 7.72106 3.8095C7.72556 3.80106 7.73028 3.79275 7.73521 3.78455C7.74011 3.77634 7.74523 3.76827 7.75055 3.76031C7.75586 3.75236 7.76136 3.74454 7.76707 3.73685C7.77277 3.72918 7.77864 3.72163 7.78471 3.71425C7.79078 3.70685 7.79703 3.69961 7.80344 3.69252C7.80988 3.68543 7.81646 3.67851 7.82322 3.67174C7.82998 3.66498 7.83691 3.6584 7.844 3.65197C7.85109 3.64555 7.85832 3.6393 7.86572 3.63323C7.8731 3.62716 7.88065 3.62129 7.88834 3.61559C7.89601 3.60989 7.90383 3.60438 7.91178 3.59908C7.91974 3.59376 7.92782 3.58863 7.93602 3.58373C7.94422 3.57881 7.95253 3.57409 7.96097 3.56959C7.96941 3.56509 7.97794 3.56078 7.9866 3.55668C7.99524 3.5526 8.00399 3.54874 8.01283 3.54507C8.02167 3.54141 8.03058 3.53797 8.03958 3.53474C8.04859 3.53151 8.05766 3.52852 8.06681 3.52575C8.07598 3.52296 8.08518 3.52041 8.09446 3.5181C8.10374 3.51578 8.11307 3.51369 8.12246 3.51181C8.13184 3.50995 8.14125 3.50831 8.15071 3.50691C8.16017 3.5055 8.16966 3.50434 8.17918 3.50339C8.18871 3.50246 8.19824 3.50175 8.20779 3.50129C8.21734 3.50082 8.22689 3.50058 8.23646 3.50058L9.20697 3.50058L9.20697 2.53008C9.20697 2.52051 9.2072 2.51096 9.20768 2.50141C9.20813 2.49186 9.20884 2.48233 9.20977 2.47279C9.21072 2.46328 9.21189 2.45378 9.21329 2.44432C9.21469 2.43486 9.21633 2.42546 9.21819 2.41607C9.22007 2.40669 9.22217 2.39736 9.22448 2.38808C9.2268 2.3788 9.22935 2.3696 9.23214 2.36043C9.23491 2.35128 9.2379 2.3422 9.24112 2.3332C9.24435 2.3242 9.24779 2.31528 9.25146 2.30644C9.25512 2.2976 9.25898 2.28886 9.26307 2.28022C9.26717 2.27156 9.27147 2.26303 9.27597 2.25459C9.28047 2.24615 9.28519 2.23784 9.29011 2.22964C9.29502 2.22144 9.30014 2.21336 9.30546 2.2054C9.31076 2.19745 9.31627 2.18963 9.32197 2.18194C9.32768 2.17427 9.33355 2.16672 9.33961 2.15934C9.34569 2.15194 9.35192 2.14471 9.35835 2.13762C9.36479 2.13053 9.37137 2.1236 9.37813 2.11684C9.38489 2.11008 9.39182 2.1035 9.3989 2.09706C9.40599 2.09065 9.41323 2.08439 9.42063 2.07833C9.42801 2.07226 9.43556 2.06639 9.44323 2.06068C9.45092 2.05498 9.45874 2.04947 9.46669 2.04417C9.47465 2.03885 9.48273 2.03373 9.49093 2.02882C9.49913 2.0239 9.50744 2.01918 9.51588 2.01468C9.52432 2.01018 9.53285 2.00588 9.54151 2.00178C9.55015 1.99769 9.55889 1.99383 9.56773 1.99017C9.57657 1.9865 9.58549 1.98306 9.59449 1.97983C9.60349 1.97661 9.61257 1.97362 9.62172 1.97085C9.63089 1.96806 9.64009 1.96551 9.64937 1.96319C9.65865 1.96088 9.66798 1.95878 9.67736 1.9569C9.68675 1.95504 9.69615 1.9534 9.70561 1.952C9.71507 1.9506 9.72457 1.94943 9.73408 1.94848C9.74362 1.94755 9.75315 1.94684 9.7627 1.94639C9.77225 1.94591 9.7818 1.94568 9.79137 1.94568C9.80094 1.94568 9.81049 1.94591 9.82004 1.94639C9.82961 1.94684 9.83914 1.94755 9.84865 1.94848C9.85817 1.94943 9.86766 1.9506 9.87712 1.952C9.88658 1.9534 9.89599 1.95504 9.90537 1.9569C9.91476 1.95878 9.92409 1.96088 9.93337 1.96319C9.94265 1.96551 9.95185 1.96806 9.96102 1.97085C9.97017 1.97362 9.97924 1.97661 9.98825 1.97983C9.99725 1.98306 10.0062 1.9865 10.015 1.99017C10.0238 1.99383 10.0326 1.99769 10.0412 2.00178C10.0499 2.00588 10.0584 2.01018 10.0669 2.01468C10.0753 2.01918 10.0836 2.0239 10.0918 2.02882C10.1 2.03373 10.1081 2.03885 10.116 2.04417C10.124 2.04947 10.1318 2.05498 10.1395 2.06068C10.1472 2.06639 10.1547 2.07226 10.1621 2.07833C10.1695 2.08439 10.1767 2.09065 10.1838 2.09706C10.1909 2.1035 10.1978 2.11008 10.2046 2.11684C10.2114 2.1236 10.218 2.13053 10.2244 2.13762C10.2308 2.14471 10.2371 2.15194 10.2431 2.15934C10.2492 2.16672 10.2551 2.17427 10.2608 2.18194C10.2665 2.18963 10.272 2.19745 10.2773 2.2054C10.2826 2.21336 10.2877 2.22144 10.2926 2.22964C10.2975 2.23784 10.3023 2.24615 10.3068 2.25459C10.3113 2.26303 10.3156 2.27156 10.3197 2.28022C10.3238 2.28886 10.3276 2.2976 10.3313 2.30644C10.3349 2.31528 10.3384 2.3242 10.3416 2.3332C10.3448 2.3422 10.3478 2.35128 10.3506 2.36043C10.3534 2.3696 10.3559 2.3788 10.3583 2.38808C10.3606 2.39736 10.3627 2.40669 10.3645 2.41607C10.3664 2.42546 10.368 2.43486 10.3694 2.44432C10.3708 2.45378 10.372 2.46328 10.373 2.47279C10.3739 2.48233 10.3746 2.49186 10.3751 2.50141C10.3755 2.51096 10.3758 2.52051 10.3758 2.53008L10.3758 3.50058L10.3746 3.50058ZM5.60373 4.66939C5.6133 4.66939 5.62285 4.66915 5.6324 4.66868C5.64195 4.66822 5.65148 4.66751 5.66102 4.66658C5.67053 4.66563 5.68003 4.66447 5.68949 4.66306C5.69895 4.66166 5.70835 4.66002 5.71774 4.65816C5.72712 4.65628 5.73646 4.65419 5.74573 4.65187C5.75501 4.64956 5.76421 4.64701 5.77338 4.64422C5.78253 4.64145 5.79161 4.63846 5.80061 4.63523C5.80962 4.63201 5.81853 4.62856 5.82737 4.6249C5.83621 4.62123 5.84496 4.61737 5.85359 4.61327C5.86225 4.60919 5.87078 4.60489 5.87922 4.60038C5.88766 4.59588 5.89597 4.59116 5.90417 4.58624C5.91237 4.58132 5.92045 4.5762 5.92841 4.57089C5.93636 4.56559 5.94418 4.56009 5.95185 4.55438C5.95954 4.54868 5.96709 4.54281 5.97447 4.53674C5.98187 4.53067 5.98911 4.52442 5.9962 4.518C6.00329 4.51157 6.01021 4.50499 6.01697 4.49823C6.02374 4.49147 6.03032 4.48454 6.03675 4.47745C6.04316 4.47036 6.04942 4.46312 6.05549 4.45572C6.06155 4.44834 6.06742 4.4408 6.07313 4.4331C6.07883 4.42543 6.08434 4.41761 6.08964 4.40967C6.09496 4.4017 6.10008 4.39363 6.10499 4.38543C6.10991 4.37722 6.11463 4.36891 6.11913 4.36047C6.12363 4.35204 6.12793 4.34351 6.13202 4.33485C6.13612 4.32621 6.13998 4.31746 6.14365 4.30862C6.14731 4.29978 6.15075 4.29087 6.15398 4.28186C6.15721 4.27286 6.16019 4.26378 6.16296 4.25463C6.16575 4.24547 6.16831 4.23626 6.17062 4.22699C6.17293 4.21771 6.17503 4.20838 6.17691 4.19899C6.17877 4.1896 6.18041 4.1802 6.18181 4.17074C6.18321 4.16128 6.18438 4.15178 6.18533 4.14227C6.18626 4.13274 6.18697 4.12321 6.18742 4.11366C6.1879 4.1041 6.18814 4.09455 6.18814 4.08499C6.18814 4.07542 6.1879 4.06587 6.18742 4.05632C6.18697 4.04677 6.18626 4.03723 6.18533 4.0277C6.18438 4.01819 6.18321 4.00869 6.18181 3.99923C6.18041 3.98977 6.17877 3.98037 6.17691 3.97098C6.17503 3.9616 6.17293 3.95226 6.17062 3.94299C6.16831 3.93371 6.16575 3.9245 6.16296 3.91534C6.16019 3.90619 6.15721 3.89711 6.15398 3.88811C6.15075 3.8791 6.14731 3.87019 6.14365 3.86135C6.13998 3.85251 6.13612 3.84376 6.13202 3.83512C6.12793 3.82647 6.12363 3.81794 6.11913 3.8095C6.11463 3.80106 6.10991 3.79275 6.10499 3.78455C6.10007 3.77634 6.09494 3.76827 6.08964 3.76031C6.08434 3.75236 6.07883 3.74454 6.07313 3.73685C6.06742 3.72918 6.06155 3.72163 6.05549 3.71425C6.04942 3.70685 6.04316 3.69961 6.03675 3.69252C6.03032 3.68543 6.02374 3.67851 6.01697 3.67174C6.01021 3.66498 6.00329 3.6584 5.9962 3.65197C5.98911 3.64555 5.98187 3.6393 5.97447 3.63323C5.96709 3.62716 5.95954 3.62129 5.95185 3.61559C5.94418 3.60989 5.93636 3.60438 5.92841 3.59908C5.92045 3.59376 5.91237 3.58863 5.90417 3.58373C5.89597 3.57881 5.88766 3.57409 5.87922 3.56959C5.87078 3.56509 5.86225 3.56078 5.85359 3.55668C5.84496 3.5526 5.83621 3.54874 5.82737 3.54507C5.81853 3.54141 5.80962 3.53797 5.80061 3.53474C5.79161 3.53151 5.78253 3.52852 5.77338 3.52575C5.76421 3.52296 5.75501 3.52041 5.74573 3.5181C5.73646 3.51578 5.72712 3.51369 5.71774 3.51181C5.70835 3.50995 5.69895 3.50831 5.68949 3.50691C5.68003 3.5055 5.67053 3.50434 5.66102 3.50339C5.65148 3.50246 5.64195 3.50175 5.6324 3.50129C5.62285 3.50082 5.6133 3.50058 5.60373 3.50058L2.88002 3.50058C2.87045 3.50058 2.8609 3.50082 2.85135 3.50129C2.84178 3.50175 2.83225 3.50246 2.82274 3.50339C2.81322 3.50434 2.80373 3.5055 2.79427 3.50691C2.78481 3.50831 2.7754 3.50995 2.76602 3.51181C2.75663 3.51369 2.7473 3.51578 2.73802 3.5181C2.72874 3.52041 2.71954 3.52296 2.71037 3.52575C2.70122 3.52852 2.69215 3.53151 2.68314 3.53474C2.67414 3.53797 2.66523 3.54141 2.65639 3.54507C2.64755 3.54874 2.6388 3.5526 2.63016 3.55668C2.6215 3.56078 2.61297 3.56509 2.60453 3.56959C2.59609 3.57409 2.58778 3.57881 2.57958 3.58373C2.57138 3.58863 2.5633 3.59376 2.55534 3.59908C2.54739 3.60438 2.53957 3.60989 2.5319 3.61559C2.52421 3.62129 2.51666 3.62716 2.50928 3.63323C2.50188 3.6393 2.49465 3.64555 2.48756 3.65197C2.48047 3.6584 2.47354 3.66498 2.46678 3.67174C2.46002 3.67851 2.45344 3.68543 2.447 3.69252C2.44059 3.69961 2.43434 3.70685 2.42827 3.71425C2.4222 3.72163 2.41633 3.72918 2.41062 3.73687C2.40492 3.74454 2.39942 3.75236 2.39411 3.76031C2.38879 3.76827 2.38367 3.77634 2.37877 3.78455C2.37384 3.79275 2.36912 3.80106 2.36462 3.8095C2.36012 3.81794 2.35582 3.82647 2.35172 3.83512C2.34763 3.84376 2.34377 3.85251 2.34011 3.86135C2.33644 3.87019 2.333 3.8791 2.32977 3.88811C2.32655 3.89711 2.32356 3.90619 2.32079 3.91534C2.318 3.9245 2.31545 3.93371 2.31313 3.94299C2.31082 3.95226 2.30872 3.9616 2.30684 3.97098C2.30499 3.98037 2.30335 3.98977 2.30194 3.99923C2.30054 4.00869 2.29937 4.01819 2.29842 4.0277C2.29749 4.03723 2.29678 4.04677 2.29633 4.05632C2.29585 4.06587 2.29562 4.07542 2.29562 4.08499C2.29562 4.09455 2.29585 4.1041 2.29633 4.11366C2.29678 4.12321 2.29749 4.13274 2.29842 4.14227C2.29937 4.15178 2.30054 4.16128 2.30194 4.17074C2.30335 4.1802 2.30499 4.1896 2.30684 4.19899C2.30872 4.20838 2.31082 4.21771 2.31313 4.22699C2.31545 4.23626 2.318 4.24547 2.32079 4.25463C2.32356 4.26378 2.32655 4.27286 2.32977 4.28186C2.333 4.29087 2.33644 4.29978 2.34011 4.30862C2.34377 4.31746 2.34763 4.32619 2.35172 4.33485C2.35582 4.34351 2.36012 4.35204 2.36462 4.36047C2.36912 4.36891 2.37384 4.37722 2.37877 4.38543C2.38367 4.39363 2.38879 4.4017 2.39411 4.40967C2.39942 4.41761 2.40492 4.42543 2.41062 4.4331C2.41633 4.4408 2.4222 4.44834 2.42827 4.45572C2.43434 4.46312 2.44059 4.47036 2.447 4.47745C2.45344 4.48454 2.46002 4.49147 2.46678 4.49823C2.47354 4.50499 2.48047 4.51157 2.48756 4.518C2.49465 4.52442 2.50188 4.53067 2.50928 4.53674C2.51666 4.54281 2.52421 4.54868 2.5319 4.55438C2.53957 4.56009 2.54739 4.56559 2.55534 4.57089C2.5633 4.5762 2.57138 4.58132 2.57958 4.58624C2.58778 4.59116 2.59609 4.59588 2.60453 4.60038C2.61297 4.60489 2.6215 4.60919 2.63016 4.61327C2.6388 4.61737 2.64755 4.62123 2.65639 4.6249C2.66523 4.62856 2.67414 4.63201 2.68314 4.63523C2.69215 4.63846 2.70122 4.64145 2.71037 4.64422C2.71954 4.64701 2.72874 4.64956 2.73802 4.65187C2.7473 4.65419 2.75663 4.65628 2.76602 4.65816C2.7754 4.66002 2.78481 4.66166 2.79427 4.66306C2.80373 4.66447 2.81322 4.66563 2.82274 4.66658C2.83225 4.66751 2.84178 4.66822 2.85135 4.66868C2.8609 4.66915 2.87045 4.66939 2.88002 4.66939L5.6014 4.66939L5.60373 4.66939ZM5.2258 8.14314C5.23256 8.13638 5.2395 8.1298 5.24659 8.12339C5.25368 8.11695 5.26092 8.11072 5.26832 8.10467C5.27572 8.0986 5.28326 8.09273 5.29094 8.08702C5.29863 8.08134 5.30645 8.07583 5.31439 8.07053C5.32236 8.06523 5.33043 8.0601 5.33865 8.0552C5.34685 8.0503 5.35516 8.04558 5.3636 8.04108C5.37204 8.03657 5.38059 8.03229 5.38925 8.02821C5.39789 8.02413 5.40664 8.02026 5.41547 8.0166C5.42431 8.01294 5.43323 8.00951 5.44223 8.0063C5.45125 8.00307 5.46033 8.00009 5.46948 7.99732C5.47865 7.99454 5.48785 7.99199 5.49713 7.98968C5.50641 7.98736 5.51574 7.98529 5.52512 7.98343C5.53451 7.98157 5.54393 7.97995 5.55339 7.97854C5.56285 7.97714 5.57233 7.97597 5.58186 7.97504C5.59138 7.97411 5.60091 7.9734 5.61046 7.97295C5.62001 7.97249 5.62958 7.97225 5.63915 7.97227C5.64872 7.97227 5.65827 7.97251 5.66782 7.973C5.67737 7.97348 5.6869 7.97419 5.69641 7.97512C5.70593 7.97606 5.71542 7.97725 5.72488 7.97865C5.73434 7.98006 5.74375 7.9817 5.75313 7.98357C5.76252 7.98545 5.77185 7.98756 5.78113 7.98988C5.7904 7.99221 5.79961 7.99476 5.80876 7.99755C5.81791 8.00034 5.82698 8.00335 5.83599 8.00657C5.84499 8.0098 5.8539 8.01325 5.86274 8.01691C5.87158 8.02057 5.88031 8.02445 5.88895 8.02855C5.89759 8.03266 5.90612 8.03696 5.91456 8.04148C5.923 8.04598 5.93131 8.0507 5.93951 8.05562C5.94771 8.06054 5.95579 8.06566 5.96374 8.07099C5.97168 8.07631 5.9795 8.08181 5.98717 8.08752C5.99485 8.09322 6.00239 8.09911 6.00977 8.10518C6.01716 8.11125 6.02439 8.1175 6.03148 8.12393C6.03857 8.13037 6.04548 8.13696 6.05224 8.14373C6.059 8.15049 6.06558 8.15741 6.072 8.1645C6.07843 8.17159 6.08467 8.17885 6.09072 8.18625C6.09679 8.19365 6.10265 8.20119 6.10836 8.20887C6.11405 8.21656 6.11955 8.22438 6.12485 8.23232C6.13016 8.24029 6.13528 8.24836 6.14018 8.25658C6.14509 8.26478 6.14981 8.2731 6.15431 8.28153C6.15881 8.28997 6.16309 8.29852 6.16718 8.30718C6.17126 8.31582 6.17512 8.32457 6.17879 8.33341C6.18245 8.34225 6.18588 8.35116 6.18908 8.36018C6.19231 8.36918 6.1953 8.37826 6.19807 8.38741C6.20084 8.39658 6.20339 8.40578 6.20571 8.41506C6.20802 8.42434 6.2101 8.43367 6.21196 8.44305C6.21382 8.45244 6.21544 8.46186 6.21684 8.47132C6.21825 8.48078 6.21941 8.49026 6.22034 8.49979C6.22127 8.50931 6.22196 8.51884 6.22242 8.52839C6.22289 8.53794 6.22313 8.54751 6.22311 8.55708C6.22309 8.56664 6.22286 8.5762 6.22238 8.58575C6.22191 8.5953 6.2212 8.60483 6.22025 8.61434C6.21932 8.62386 6.21814 8.63335 6.21673 8.64281C6.21533 8.65227 6.21367 8.66168 6.21179 8.67106C6.20992 8.68045 6.20782 8.68978 6.2055 8.69906C6.20317 8.70833 6.20062 8.71754 6.19783 8.72669C6.19504 8.73584 6.19204 8.74492 6.18881 8.75392C6.18558 8.76292 6.18214 8.77184 6.17848 8.78067C6.17481 8.78951 6.17093 8.79824 6.16683 8.80688C6.16273 8.81552 6.15843 8.82405 6.15391 8.83249C6.14941 8.84093 6.14468 8.84924 6.13976 8.85744C6.13484 8.86564 6.12972 8.87372 6.1244 8.88167C6.11908 8.88961 6.11357 8.89743 6.10787 8.9051C6.10216 8.91278 6.09628 8.92032 6.09021 8.9277C6.08414 8.93509 6.07789 8.94232 6.07145 8.94941C6.06502 8.9565 6.05842 8.96341 6.05166 8.97017L5.2013 9.82053L6.05282 10.6709C6.05959 10.6777 6.06617 10.6846 6.07258 10.6917C6.07902 10.6988 6.08525 10.706 6.0913 10.7134C6.09737 10.7208 6.10324 10.7284 6.10894 10.736C6.11463 10.7437 6.12013 10.7515 6.12544 10.7595C6.13074 10.7675 6.13586 10.7755 6.14077 10.7837C6.14567 10.7919 6.15039 10.8003 6.15489 10.8087C6.15939 10.8171 6.16368 10.8257 6.16776 10.8343C6.17184 10.843 6.1757 10.8517 6.17937 10.8606C6.18303 10.8694 6.18646 10.8783 6.18967 10.8873C6.19289 10.8963 6.19588 10.9054 6.19865 10.9146C6.20142 10.9237 6.20397 10.9329 6.20629 10.9422C6.2086 10.9515 6.21068 10.9608 6.21254 10.9702C6.2144 10.9796 6.21602 10.989 6.21742 10.9985C6.21883 11.0079 6.21999 11.0174 6.22092 11.027C6.22185 11.0365 6.22255 11.046 6.22302 11.0556C6.22348 11.0651 6.22371 11.0747 6.22369 11.0842C6.22368 11.0938 6.22344 11.1034 6.22297 11.1129C6.22249 11.1225 6.22178 11.132 6.22083 11.1415C6.2199 11.151 6.21872 11.1605 6.21732 11.17C6.21591 11.1794 6.21425 11.1888 6.21238 11.1982C6.2105 11.2076 6.2084 11.2169 6.20609 11.2262C6.20375 11.2355 6.2012 11.2447 6.19841 11.2539C6.19563 11.263 6.19262 11.2721 6.18939 11.2811C6.18617 11.2901 6.18272 11.299 6.17906 11.3078C6.1754 11.3167 6.17151 11.3254 6.16741 11.334C6.16331 11.3427 6.15901 11.3512 6.15449 11.3597C6.14999 11.3681 6.14527 11.3764 6.14035 11.3846C6.13543 11.3928 6.1303 11.4009 6.12498 11.4088C6.11966 11.4168 6.11416 11.4246 6.10845 11.4323C6.10275 11.4399 6.09686 11.4475 6.09079 11.4549C6.08472 11.4622 6.07847 11.4695 6.07203 11.4766C6.0656 11.4837 6.059 11.4906 6.05224 11.4973C6.04548 11.5041 6.03854 11.5107 6.03145 11.5171C6.02436 11.5235 6.01712 11.5298 6.00972 11.5358C6.00232 11.5419 5.99477 11.5477 5.9871 11.5535C5.97941 11.5591 5.97159 11.5646 5.96363 11.5699C5.95568 11.5753 5.94761 11.5804 5.93938 11.5853C5.93118 11.5902 5.92285 11.5949 5.91442 11.5994C5.90598 11.6039 5.89745 11.6082 5.88879 11.6123C5.88013 11.6164 5.8714 11.6202 5.86256 11.6239C5.85372 11.6275 5.84481 11.631 5.83579 11.6342C5.82678 11.6374 5.81771 11.6404 5.80856 11.6432C5.79939 11.6459 5.79019 11.6485 5.78091 11.6508C5.77163 11.6531 5.7623 11.6552 5.75291 11.657C5.74353 11.6589 5.7341 11.6605 5.72464 11.6619C5.71519 11.6633 5.70571 11.6645 5.69618 11.6654C5.68666 11.6664 5.67713 11.6671 5.66758 11.6675C5.65801 11.668 5.64846 11.6682 5.63889 11.6682C5.62932 11.6682 5.61977 11.6679 5.61022 11.6675C5.60067 11.667 5.59114 11.6663 5.58162 11.6653C5.57209 11.6644 5.56261 11.6632 5.55316 11.6618C5.5437 11.6604 5.53427 11.6588 5.5249 11.6569C5.51552 11.655 5.50619 11.6529 5.49691 11.6506C5.48763 11.6483 5.47843 11.6457 5.46928 11.6429C5.46013 11.6401 5.45105 11.6371 5.44205 11.6339C5.43304 11.6307 5.42413 11.6272 5.41529 11.6236C5.40645 11.6199 5.39772 11.616 5.38908 11.6119C5.38043 11.6078 5.3719 11.6035 5.36348 11.599C5.35504 11.5945 5.34673 11.5898 5.33852 11.5849C5.33032 11.5799 5.32225 11.5748 5.3143 11.5695C5.30635 11.5642 5.29854 11.5587 5.29086 11.553C5.28319 11.5473 5.27564 11.5414 5.26826 11.5353C5.26088 11.5292 5.25365 11.523 5.24656 11.5165C5.23947 11.5101 5.23256 11.5035 5.2258 11.4968L4.37427 10.6464L3.52508 11.4979C3.51832 11.5047 3.51141 11.5113 3.50432 11.5178C3.49725 11.5242 3.49001 11.5305 3.48263 11.5366C3.47523 11.5427 3.46768 11.5486 3.46001 11.5543C3.45234 11.56 3.44452 11.5656 3.43657 11.5709C3.42861 11.5763 3.42053 11.5814 3.41233 11.5863C3.40411 11.5913 3.3958 11.596 3.38736 11.6005C3.37892 11.6051 3.37038 11.6094 3.36172 11.6135C3.35306 11.6176 3.34431 11.6215 3.33547 11.6252C3.32663 11.6288 3.31772 11.6323 3.3087 11.6355C3.29968 11.6388 3.2906 11.6418 3.28143 11.6446C3.27226 11.6474 3.26304 11.6499 3.25375 11.6523C3.24447 11.6546 3.23512 11.6567 3.22573 11.6586C3.21635 11.6604 3.20691 11.6621 3.19743 11.6635C3.18797 11.6649 3.17845 11.6661 3.16892 11.667C3.15939 11.668 3.14984 11.6687 3.14027 11.6692C3.1307 11.6696 3.12113 11.6698 3.11156 11.6698C3.102 11.6698 3.09241 11.6696 3.08284 11.6691C3.07327 11.6687 3.06374 11.668 3.05421 11.667C3.04467 11.6661 3.03516 11.6649 3.0257 11.6635C3.01622 11.6621 3.00678 11.6604 2.9974 11.6586C2.98801 11.6567 2.97866 11.6546 2.96938 11.6523C2.96009 11.6499 2.95087 11.6474 2.9417 11.6446C2.93253 11.6418 2.92345 11.6388 2.91443 11.6355C2.90541 11.6323 2.89648 11.6288 2.88764 11.6252C2.8788 11.6215 2.87007 11.6176 2.86141 11.6135C2.85275 11.6094 2.84421 11.6051 2.83577 11.6005C2.82733 11.596 2.819 11.5913 2.8108 11.5863C2.8026 11.5814 2.79452 11.5763 2.78656 11.5709C2.77861 11.5656 2.77079 11.56 2.76312 11.5543C2.75544 11.5486 2.7479 11.5427 2.7405 11.5366C2.73312 11.5305 2.72588 11.5242 2.71881 11.5178C2.71172 11.5113 2.70481 11.5047 2.69805 11.4979C2.69125 11.4912 2.68464 11.4842 2.67818 11.4772C2.67173 11.4701 2.66546 11.4628 2.65937 11.4555C2.65329 11.4481 2.64738 11.4405 2.64166 11.4328C2.63594 11.4252 2.63039 11.4174 2.62505 11.4094C2.61971 11.4014 2.61459 11.3934 2.60965 11.3852C2.60471 11.377 2.59998 11.3686 2.59544 11.3602C2.59092 11.3518 2.5866 11.3432 2.5825 11.3346C2.5784 11.3259 2.5745 11.3172 2.57081 11.3083C2.56713 11.2995 2.56367 11.2906 2.56044 11.2815C2.5572 11.2725 2.55419 11.2634 2.5514 11.2543C2.54861 11.2451 2.54604 11.2359 2.54371 11.2266C2.54138 11.2173 2.53928 11.208 2.53741 11.1986C2.53553 11.1892 2.53387 11.1797 2.53247 11.1703C2.53106 11.1608 2.52988 11.1513 2.52895 11.1418C2.528 11.1322 2.52729 11.1227 2.52682 11.1131C2.52636 11.1036 2.52612 11.094 2.52612 11.0844C2.52612 11.0748 2.52636 11.0653 2.52682 11.0557C2.52729 11.0461 2.528 11.0366 2.52895 11.027C2.52988 11.0175 2.53106 11.008 2.53247 10.9985C2.53387 10.9891 2.53553 10.9796 2.53741 10.9702C2.53928 10.9608 2.54138 10.9515 2.54371 10.9422C2.54604 10.9329 2.54861 10.9237 2.5514 10.9145C2.55419 10.9054 2.5572 10.8963 2.56044 10.8873C2.56367 10.8782 2.56713 10.8693 2.57081 10.8605C2.5745 10.8516 2.5784 10.8429 2.5825 10.8342C2.5866 10.8256 2.59092 10.817 2.59544 10.8086C2.59998 10.8002 2.60471 10.7918 2.60965 10.7836C2.61459 10.7754 2.61971 10.7674 2.62505 10.7594C2.63039 10.7514 2.63594 10.7436 2.64166 10.736C2.64738 10.7283 2.65329 10.7207 2.65937 10.7133C2.66546 10.706 2.67173 10.6987 2.67818 10.6916C2.68464 10.6846 2.69125 10.6777 2.69805 10.6709L3.54958 9.81936L2.69805 8.97017C2.69129 8.96341 2.68469 8.95647 2.67826 8.94938C2.67182 8.94229 2.66557 8.93505 2.6595 8.92765C2.65343 8.92025 2.64755 8.9127 2.64184 8.90501C2.63614 8.89734 2.63063 8.88952 2.62533 8.88156C2.62001 8.87359 2.61488 8.86552 2.60996 8.8573C2.60504 8.8491 2.60032 8.84077 2.59582 8.83233C2.59132 8.82389 2.58702 8.81534 2.58292 8.80668C2.57881 8.79803 2.57495 8.7893 2.57129 8.78046C2.56762 8.77162 2.56418 8.76269 2.56095 8.75366C2.55773 8.74466 2.55472 8.73558 2.55195 8.72642C2.54916 8.71725 2.54661 8.70802 2.54429 8.69875C2.54196 8.68947 2.53987 8.68014 2.53801 8.67075C2.53613 8.66137 2.53451 8.65193 2.5331 8.64247C2.5317 8.63301 2.53052 8.62351 2.52959 8.61398C2.52866 8.60445 2.52795 8.59491 2.52747 8.58535C2.527 8.57579 2.52676 8.56623 2.52676 8.55666C2.52676 8.54709 2.527 8.53752 2.52747 8.52797C2.52795 8.5184 2.52866 8.50887 2.52959 8.49934C2.53052 8.4898 2.5317 8.48031 2.5331 8.47085C2.53451 8.46139 2.53613 8.45195 2.53801 8.44256C2.53987 8.43318 2.54196 8.42384 2.54429 8.41457C2.54661 8.40529 2.54916 8.39607 2.55195 8.3869C2.55472 8.37773 2.55773 8.36865 2.56095 8.35965C2.56418 8.35063 2.56762 8.3417 2.57129 8.33286C2.57495 8.32402 2.57881 8.31529 2.58292 8.30663C2.58702 8.29797 2.59132 8.28943 2.59582 8.28099C2.60032 8.27255 2.60504 8.26422 2.60996 8.25602C2.61488 8.2478 2.62001 8.23972 2.62533 8.23176C2.63063 8.22379 2.63614 8.21597 2.64184 8.20828C2.64755 8.20061 2.65343 8.19306 2.6595 8.18566C2.66557 8.17826 2.67182 8.17101 2.67826 8.16392C2.68469 8.15683 2.69129 8.1499 2.69805 8.14314C2.70481 8.13638 2.71176 8.12978 2.71885 8.12335C2.72594 8.11692 2.73317 8.11066 2.74057 8.10459C2.74797 8.09853 2.75552 8.09264 2.76321 8.08693C2.77088 8.08123 2.7787 8.07572 2.78667 8.07042C2.79463 8.0651 2.8027 8.05998 2.81092 8.05506C2.81913 8.05013 2.82746 8.04541 2.83589 8.04091C2.84433 8.03641 2.85288 8.03211 2.86154 8.02801C2.8702 8.02391 2.87893 8.02004 2.88777 8.01638C2.89661 8.01272 2.90554 8.00927 2.91456 8.00605C2.92356 8.00282 2.93264 7.99983 2.94181 7.99704C2.95097 7.99425 2.9602 7.9917 2.96947 7.98939C2.97875 7.98705 2.98808 7.98496 2.99747 7.9831C3.00686 7.98122 3.0163 7.9796 3.02576 7.9782C3.03522 7.97679 3.04471 7.97561 3.05424 7.97468C3.06378 7.97375 3.07331 7.97304 3.08288 7.97256C3.09243 7.97209 3.102 7.97185 3.11156 7.97185C3.12113 7.97185 3.1307 7.97209 3.14025 7.97256C3.14982 7.97304 3.15935 7.97375 3.16889 7.97468C3.17842 7.97561 3.18791 7.97679 3.19737 7.9782C3.20683 7.9796 3.21627 7.98122 3.22566 7.9831C3.23505 7.98496 3.24438 7.98705 3.25366 7.98939C3.26293 7.9917 3.27216 7.99425 3.28132 7.99704C3.29049 7.99983 3.29957 8.00282 3.30857 8.00605C3.31759 8.00927 3.32652 8.01272 3.33536 8.01638C3.3442 8.02004 3.35293 8.02391 3.36159 8.02801C3.37025 8.03211 3.3788 8.03641 3.38723 8.04091C3.39567 8.04541 3.404 8.05013 3.4122 8.05506C3.42042 8.05998 3.4285 8.0651 3.43646 8.07042C3.44443 8.07572 3.45225 8.08123 3.45992 8.08693C3.46761 8.09264 3.47516 8.09853 3.48256 8.10459C3.48996 8.11066 3.49719 8.11692 3.50428 8.12335C3.51137 8.12978 3.51832 8.13638 3.52508 8.14314L4.37544 8.99467L5.22696 8.14314L5.2258 8.14314ZM11.1515 8.16647L8.42893 8.16647C8.41936 8.16647 8.40981 8.16671 8.40026 8.16718C8.39071 8.16764 8.38118 8.16835 8.37164 8.16928C8.36213 8.17023 8.35263 8.17139 8.34317 8.1728C8.33372 8.1742 8.32431 8.17584 8.31492 8.1777C8.30554 8.17958 8.29621 8.18167 8.28693 8.18399C8.27765 8.1863 8.26845 8.18885 8.25928 8.19164C8.25013 8.19441 8.24105 8.1974 8.23205 8.20063C8.22305 8.20385 8.21413 8.2073 8.20529 8.21096C8.19645 8.21463 8.18771 8.21849 8.17907 8.22257C8.17041 8.22667 8.16188 8.23097 8.15344 8.23548C8.145 8.23998 8.13669 8.2447 8.12849 8.24962C8.12029 8.25452 8.11221 8.25964 8.10425 8.26497C8.0963 8.27027 8.08848 8.27577 8.08079 8.28148C8.07312 8.28718 8.06557 8.29305 8.05819 8.29912C8.05079 8.30519 8.04356 8.31142 8.03647 8.31786C8.02938 8.32429 8.02245 8.33087 8.01569 8.33763C8.00893 8.3444 8.00235 8.35132 7.99591 8.35841C7.9895 8.3655 7.98324 8.37274 7.97718 8.38014C7.97111 8.38752 7.96524 8.39506 7.95953 8.40276C7.95383 8.41043 7.94832 8.41825 7.94302 8.42619C7.9377 8.43416 7.93258 8.44223 7.92767 8.45044C7.92275 8.45864 7.91803 8.46695 7.91353 8.47539C7.90903 8.48383 7.90473 8.49236 7.90064 8.50101C7.89654 8.50965 7.89268 8.5184 7.88902 8.52724C7.88535 8.53608 7.88191 8.54499 7.87868 8.554C7.87546 8.563 7.87247 8.57208 7.8697 8.58123C7.86691 8.59039 7.86436 8.5996 7.86204 8.60888C7.85973 8.61815 7.85763 8.62748 7.85575 8.63687C7.85389 8.64626 7.85225 8.65566 7.85085 8.66512C7.84945 8.67458 7.84828 8.68408 7.84733 8.69359C7.8464 8.70312 7.84569 8.71266 7.84524 8.72221C7.84476 8.73176 7.84453 8.74131 7.84453 8.75087C7.84453 8.76044 7.84476 8.76999 7.84524 8.77954C7.84569 8.78911 7.8464 8.79865 7.84733 8.80816C7.84828 8.81767 7.84945 8.82717 7.85085 8.83663C7.85225 8.84609 7.85389 8.85549 7.85575 8.86488C7.85763 8.87427 7.85973 8.8836 7.86204 8.89287C7.86436 8.90215 7.86691 8.91136 7.8697 8.92052C7.87247 8.92967 7.87546 8.93875 7.87868 8.94775C7.88191 8.95676 7.88535 8.96567 7.88902 8.97451C7.89268 8.98335 7.89654 8.9921 7.90064 9.00074C7.90473 9.00939 7.90903 9.01792 7.91353 9.02636C7.91803 9.0348 7.92275 9.04311 7.92767 9.05131C7.93258 9.05952 7.9377 9.06759 7.94302 9.07555C7.94832 9.0835 7.95383 9.09132 7.95953 9.09899C7.96524 9.10669 7.97111 9.11423 7.97718 9.12161C7.98324 9.12901 7.9895 9.13625 7.99591 9.14334C8.00235 9.15043 8.00893 9.15735 8.01569 9.16412C8.02245 9.17088 8.02938 9.17746 8.03647 9.18389C8.04356 9.19031 8.05079 9.19656 8.05819 9.20263C8.06557 9.2087 8.07312 9.21457 8.08079 9.22027C8.08848 9.22598 8.0963 9.23148 8.10425 9.23678C8.11221 9.24209 8.12029 9.24721 8.12849 9.25213C8.13669 9.25705 8.145 9.26177 8.15344 9.26627C8.16188 9.27077 8.17041 9.27508 8.17907 9.27916C8.18771 9.28326 8.19645 9.28712 8.20529 9.29079C8.21413 9.29445 8.22305 9.2979 8.23205 9.30112C8.24105 9.30435 8.25013 9.30734 8.25928 9.31011C8.26845 9.3129 8.27765 9.31545 8.28693 9.31776C8.29621 9.32008 8.30554 9.32217 8.31492 9.32405C8.32431 9.32591 8.33372 9.32755 8.34317 9.32895C8.35263 9.33036 8.36213 9.33152 8.37164 9.33247C8.38118 9.3334 8.39071 9.33411 8.40026 9.33457C8.40981 9.33504 8.41936 9.33528 8.42893 9.33528L11.1515 9.33528C11.161 9.33528 11.1706 9.33504 11.1801 9.33457C11.1897 9.33411 11.1992 9.3334 11.2088 9.33247C11.2183 9.33152 11.2278 9.33036 11.2372 9.32895C11.2467 9.32755 11.2561 9.32591 11.2655 9.32405C11.2749 9.32217 11.2842 9.32008 11.2935 9.31776C11.3028 9.31545 11.312 9.3129 11.3211 9.31011C11.3303 9.30734 11.3393 9.30435 11.3484 9.30112C11.3574 9.2979 11.3663 9.29445 11.3751 9.29079C11.3839 9.28712 11.3927 9.28326 11.4013 9.27916C11.41 9.27508 11.4185 9.27077 11.427 9.26627C11.4354 9.26177 11.4437 9.25705 11.4519 9.25213C11.4601 9.24721 11.4682 9.24209 11.4762 9.23678C11.4841 9.23148 11.4919 9.22598 11.4996 9.22027C11.5073 9.21457 11.5148 9.2087 11.5222 9.20263C11.5296 9.19656 11.5368 9.19031 11.5439 9.18389C11.551 9.17746 11.558 9.17088 11.5647 9.16412C11.5715 9.15735 11.5781 9.15043 11.5845 9.14334C11.5909 9.13625 11.5972 9.12901 11.6032 9.12161C11.6093 9.11423 11.6152 9.10669 11.6209 9.09899C11.6266 9.09132 11.6321 9.0835 11.6374 9.07555C11.6427 9.06759 11.6478 9.05952 11.6527 9.05131C11.6577 9.04311 11.6624 9.0348 11.6669 9.02636C11.6714 9.01792 11.6757 9.00939 11.6798 9.00074C11.6839 8.9921 11.6877 8.98335 11.6914 8.97451C11.6951 8.96567 11.6985 8.95676 11.7017 8.94775C11.7049 8.93875 11.7079 8.92967 11.7107 8.92052C11.7135 8.91137 11.716 8.90215 11.7184 8.89287C11.7207 8.8836 11.7228 8.87427 11.7247 8.86488C11.7265 8.85549 11.7281 8.84609 11.7296 8.83663C11.731 8.82717 11.7321 8.81767 11.7331 8.80816C11.734 8.79865 11.7347 8.78911 11.7352 8.77954C11.7356 8.76999 11.7359 8.76044 11.7359 8.75087C11.7359 8.74131 11.7356 8.73176 11.7352 8.72221C11.7347 8.71266 11.734 8.70312 11.7331 8.69359C11.7321 8.68408 11.731 8.67458 11.7296 8.66512C11.7281 8.65566 11.7265 8.64626 11.7247 8.63687C11.7228 8.62748 11.7207 8.61815 11.7184 8.60888C11.716 8.5996 11.7135 8.59039 11.7107 8.58123C11.7079 8.57208 11.7049 8.563 11.7017 8.554C11.6985 8.54499 11.6951 8.53608 11.6914 8.52724C11.6877 8.5184 11.6839 8.50965 11.6798 8.50101C11.6757 8.49236 11.6714 8.48383 11.6669 8.47539C11.6624 8.46695 11.6577 8.45864 11.6527 8.45044C11.6478 8.44223 11.6427 8.43416 11.6374 8.42619C11.6321 8.41825 11.6266 8.41043 11.6209 8.40274C11.6152 8.39506 11.6093 8.38752 11.6032 8.38014C11.5972 8.37274 11.5909 8.3655 11.5845 8.35841C11.5781 8.35132 11.5715 8.3444 11.5647 8.33763C11.558 8.33087 11.551 8.32429 11.5439 8.31786C11.5368 8.31142 11.5296 8.30519 11.5222 8.29912C11.5148 8.29305 11.5073 8.28718 11.4996 8.28148C11.4919 8.27577 11.4841 8.27027 11.4762 8.26497C11.4682 8.25964 11.4601 8.25452 11.4519 8.24962C11.4437 8.2447 11.4354 8.23998 11.427 8.23548C11.4185 8.23097 11.41 8.22667 11.4013 8.22257C11.3927 8.21849 11.3839 8.21463 11.3751 8.21096C11.3663 8.2073 11.3574 8.20385 11.3484 8.20063C11.3393 8.1974 11.3303 8.19441 11.3211 8.19164C11.312 8.18885 11.3028 8.1863 11.2935 8.18399C11.2842 8.18167 11.2749 8.17958 11.2655 8.1777C11.2561 8.17584 11.2467 8.1742 11.2372 8.1728C11.2278 8.17139 11.2183 8.17023 11.2088 8.16928C11.1992 8.16835 11.1897 8.16764 11.1801 8.16718C11.1706 8.16671 11.161 8.16647 11.1515 8.16647ZM8.42893 10.111L11.1515 10.111C11.161 10.111 11.1706 10.1112 11.1801 10.1117C11.1897 10.1121 11.1992 10.1129 11.2088 10.1138C11.2183 10.1147 11.2278 10.1159 11.2372 10.1173C11.2467 10.1187 11.2561 10.1203 11.2655 10.1222C11.2749 10.1241 11.2842 10.1262 11.2935 10.1285C11.3028 10.1308 11.312 10.1334 11.3211 10.1362C11.3303 10.1389 11.3393 10.1419 11.3484 10.1451C11.3574 10.1484 11.3663 10.1518 11.3751 10.1555C11.3839 10.1591 11.3927 10.163 11.4013 10.1671C11.41 10.1712 11.4185 10.1755 11.427 10.18C11.4354 10.1845 11.4437 10.1892 11.4519 10.1941C11.4601 10.199 11.4682 10.2042 11.4762 10.2095C11.4841 10.2148 11.4919 10.2203 11.4996 10.226C11.5073 10.2317 11.5148 10.2376 11.5222 10.2436C11.5296 10.2497 11.5368 10.2559 11.5439 10.2624C11.551 10.2688 11.558 10.2754 11.5647 10.2821C11.5715 10.2889 11.5781 10.2958 11.5845 10.3029C11.5909 10.31 11.5972 10.3172 11.6032 10.3246C11.6093 10.332 11.6152 10.3396 11.6209 10.3472C11.6266 10.3549 11.6321 10.3628 11.6374 10.3707C11.6427 10.3787 11.6478 10.3867 11.6527 10.3949C11.6577 10.4031 11.6624 10.4115 11.6669 10.4199C11.6714 10.4283 11.6757 10.4369 11.6798 10.4455C11.6839 10.4542 11.6877 10.4629 11.6914 10.4717C11.6951 10.4806 11.6985 10.4895 11.7017 10.4985C11.7049 10.5075 11.7079 10.5166 11.7107 10.5257C11.7135 10.5349 11.716 10.5441 11.7184 10.5534C11.7207 10.5627 11.7228 10.572 11.7247 10.5814C11.7265 10.5908 11.7281 10.6002 11.7296 10.6096C11.731 10.6191 11.7321 10.6286 11.7331 10.6381C11.734 10.6476 11.7347 10.6572 11.7352 10.6667C11.7356 10.6763 11.7359 10.6858 11.7359 10.6954C11.7359 10.705 11.7356 10.7145 11.7352 10.7241C11.7347 10.7336 11.734 10.7432 11.7331 10.7527C11.7321 10.7622 11.731 10.7717 11.7296 10.7811C11.7281 10.7906 11.7265 10.8 11.7247 10.8094C11.7228 10.8188 11.7207 10.8281 11.7184 10.8374C11.716 10.8467 11.7135 10.8559 11.7107 10.865C11.7079 10.8742 11.7049 10.8833 11.7017 10.8923C11.6985 10.9013 11.6951 10.9102 11.6914 10.919C11.6877 10.9279 11.6839 10.9366 11.6798 10.9452C11.6757 10.9539 11.6714 10.9624 11.6669 10.9709C11.6624 10.9793 11.6577 10.9876 11.6527 10.9958C11.6478 11.004 11.6427 11.0121 11.6374 11.0201C11.6321 11.028 11.6266 11.0358 11.6209 11.0435C11.6152 11.0512 11.6093 11.0587 11.6032 11.0661C11.5972 11.0735 11.5909 11.0808 11.5845 11.0878C11.5781 11.0949 11.5715 11.1019 11.5647 11.1086C11.558 11.1154 11.551 11.122 11.5439 11.1284C11.5368 11.1348 11.5296 11.1411 11.5222 11.1471C11.5148 11.1532 11.5073 11.1591 11.4996 11.1648C11.4919 11.1705 11.4841 11.176 11.4762 11.1813C11.4682 11.1866 11.4601 11.1917 11.4519 11.1966C11.4437 11.2016 11.4354 11.2063 11.427 11.2108C11.4185 11.2153 11.41 11.2196 11.4013 11.2237C11.3927 11.2278 11.3839 11.2316 11.3751 11.2353C11.3663 11.239 11.3574 11.2424 11.3484 11.2456C11.3393 11.2489 11.3303 11.2518 11.3211 11.2546C11.312 11.2574 11.3028 11.26 11.2935 11.2623C11.2842 11.2646 11.2749 11.2667 11.2655 11.2686C11.2561 11.2704 11.2467 11.2721 11.2372 11.2735C11.2278 11.2749 11.2183 11.276 11.2088 11.277C11.1992 11.2779 11.1897 11.2786 11.1801 11.2791C11.1706 11.2795 11.161 11.2798 11.1515 11.2798L8.42893 11.2798C8.41936 11.2798 8.40981 11.2795 8.40026 11.2791C8.39071 11.2786 8.38118 11.2779 8.37164 11.277C8.36213 11.276 8.35263 11.2749 8.34317 11.2735C8.33372 11.2721 8.32431 11.2704 8.31492 11.2686C8.30554 11.2667 8.29621 11.2646 8.28693 11.2623C8.27765 11.26 8.26845 11.2574 8.25928 11.2546C8.25013 11.2518 8.24105 11.2489 8.23205 11.2456C8.22305 11.2424 8.21413 11.239 8.20529 11.2353C8.19645 11.2316 8.18771 11.2278 8.17907 11.2237C8.17041 11.2196 8.16188 11.2153 8.15344 11.2108C8.145 11.2063 8.13669 11.2016 8.12849 11.1966C8.12029 11.1917 8.11221 11.1866 8.10425 11.1813C8.0963 11.176 8.08848 11.1705 8.08079 11.1648C8.07312 11.1591 8.06557 11.1532 8.05819 11.1471C8.05079 11.1411 8.04356 11.1348 8.03647 11.1284C8.02938 11.122 8.02245 11.1154 8.01569 11.1086C8.00893 11.1019 8.00235 11.0949 7.99591 11.0878C7.9895 11.0808 7.98324 11.0735 7.97718 11.0661C7.97111 11.0587 7.96524 11.0512 7.95953 11.0435C7.95383 11.0358 7.94832 11.028 7.94302 11.0201C7.9377 11.0121 7.93258 11.004 7.92767 10.9958C7.92275 10.9876 7.91803 10.9793 7.91353 10.9709C7.90903 10.9624 7.90473 10.9539 7.90064 10.9452C7.89654 10.9366 7.89268 10.9279 7.88902 10.919C7.88535 10.9102 7.88191 10.9013 7.87868 10.8923C7.87546 10.8833 7.87247 10.8742 7.8697 10.865C7.86691 10.8559 7.86436 10.8467 7.86204 10.8374C7.85973 10.8281 7.85763 10.8188 7.85575 10.8094C7.85389 10.8 7.85225 10.7906 7.85085 10.7811C7.84945 10.7717 7.84828 10.7622 7.84733 10.7527C7.8464 10.7432 7.84569 10.7336 7.84524 10.7241C7.84476 10.7145 7.84453 10.705 7.84453 10.6954C7.84453 10.6858 7.84476 10.6763 7.84524 10.6667C7.84569 10.6572 7.8464 10.6476 7.84733 10.6381C7.84828 10.6286 7.84945 10.6191 7.85085 10.6096C7.85225 10.6002 7.85389 10.5908 7.85575 10.5814C7.85763 10.572 7.85973 10.5627 7.86204 10.5534C7.86436 10.5441 7.86691 10.5349 7.8697 10.5257C7.87247 10.5166 7.87546 10.5075 7.87868 10.4985C7.88191 10.4895 7.88535 10.4806 7.88902 10.4717C7.89268 10.4629 7.89654 10.4542 7.90064 10.4455C7.90473 10.4369 7.90903 10.4283 7.91353 10.4199C7.91803 10.4115 7.92275 10.4031 7.92767 10.3949C7.93258 10.3867 7.9377 10.3787 7.94302 10.3707C7.94832 10.3628 7.95383 10.3549 7.95953 10.3472C7.96524 10.3396 7.97111 10.332 7.97718 10.3246C7.98324 10.3172 7.9895 10.31 7.99591 10.3029C8.00235 10.2958 8.00893 10.2889 8.01569 10.2821C8.02245 10.2754 8.02938 10.2688 8.03647 10.2624C8.04356 10.2559 8.05079 10.2497 8.05819 10.2436C8.06557 10.2376 8.07312 10.2317 8.08079 10.226C8.08848 10.2203 8.0963 10.2148 8.10425 10.2095C8.11221 10.2042 8.12029 10.199 8.12849 10.1941C8.13669 10.1892 8.145 10.1845 8.15344 10.18C8.16188 10.1755 8.17041 10.1712 8.17907 10.1671C8.18771 10.163 8.19645 10.1591 8.20529 10.1555C8.21413 10.1518 8.22305 10.1484 8.23205 10.1451C8.24105 10.1419 8.25013 10.1389 8.25928 10.1362C8.26845 10.1334 8.27765 10.1308 8.28693 10.1285C8.29621 10.1262 8.30554 10.1241 8.31492 10.1222C8.32431 10.1203 8.33372 10.1187 8.34317 10.1173C8.35263 10.1159 8.36213 10.1147 8.37164 10.1138C8.38118 10.1129 8.39071 10.1121 8.40026 10.1117C8.40981 10.1112 8.41936 10.111 8.42893 10.111Z"   fill="#0073ED" ></path></svg>