<svg xmlns="http://www.w3.org/2000/svg" xmlns:xlink="http://www.w3.org/1999/xlink" width="16" height="16" viewBox="0 0 16 16" fill="none">
<path d="M14.6161 8.2625L11.4586 13.7875C11.4562 13.7916 11.4538 13.7957 11.4514 13.7998C11.4489 13.8038 11.4463 13.8078 11.4437 13.8118C11.4411 13.8158 11.4385 13.8197 11.4357 13.8236C11.433 13.8275 11.4302 13.8313 11.4273 13.8351C11.4245 13.8389 11.4216 13.8426 11.4186 13.8463C11.4156 13.85 11.4126 13.8537 11.4095 13.8573C11.4064 13.8609 11.4032 13.8644 11.4 13.8679C11.3968 13.8714 11.3935 13.8749 11.3902 13.8783C11.3868 13.8816 11.3835 13.885 11.38 13.8883C11.3766 13.8915 11.3731 13.8947 11.3696 13.8979C11.366 13.9011 11.3624 13.9042 11.3588 13.9072C11.3551 13.9103 11.3514 13.9133 11.3477 13.9162C11.344 13.9191 11.3402 13.922 11.3363 13.9248C11.3325 13.9276 11.3286 13.9303 11.3247 13.933C11.3208 13.9357 11.3168 13.9383 11.3128 13.9408C11.3088 13.9434 11.3048 13.9458 11.3007 13.9482C11.2966 13.9507 11.2924 13.953 11.2883 13.9553C11.2841 13.9576 11.2799 13.9598 11.2757 13.9619C11.2714 13.9641 11.2671 13.9661 11.2628 13.9681C11.2585 13.9701 11.2542 13.9721 11.2498 13.9739C11.2455 13.9758 11.2411 13.9776 11.2366 13.9793C11.2322 13.981 11.2277 13.9826 11.2233 13.9842C11.2188 13.9858 11.2143 13.9873 11.2098 13.9887C11.2052 13.9901 11.2007 13.9915 11.1961 13.9928C11.1915 13.994 11.1869 13.9952 11.1823 13.9964C11.1777 13.9975 11.1731 13.9985 11.1684 13.9995C11.1638 14.0005 11.1591 14.0014 11.1544 14.0022C11.1497 14.003 11.145 14.0038 11.1404 14.0044C11.1357 14.0051 11.1309 14.0057 11.1262 14.0062C11.1215 14.0067 11.1168 14.0072 11.112 14.0075C11.1073 14.0079 11.1026 14.0082 11.0978 14.0084C11.0931 14.0086 11.0883 14.0087 11.0836 14.0088L4.78108 14.0088C4.77633 14.0087 4.77159 14.0085 4.76686 14.0083C4.76211 14.008 4.75737 14.0077 4.75266 14.0073C4.74792 14.007 4.7432 14.0065 4.7385 14.006C4.73378 14.0054 4.72908 14.0048 4.72439 14.0041C4.71969 14.0034 4.715 14.0027 4.71034 14.0018C4.70567 14.001 4.70102 14.0001 4.69639 13.9991C4.69173 13.9981 4.68711 13.997 4.68252 13.9959C4.67791 13.9947 4.67333 13.9935 4.66877 13.9922C4.6642 13.9909 4.65966 13.9896 4.65514 13.9881C4.65061 13.9867 4.64611 13.9852 4.64164 13.9836C4.63717 13.982 4.63272 13.9804 4.62831 13.9787C4.62389 13.9769 4.6195 13.9751 4.61514 13.9733C4.61077 13.9714 4.60644 13.9695 4.60214 13.9675C4.59784 13.9655 4.59358 13.9634 4.58934 13.9613C4.58511 13.9591 4.58092 13.9569 4.57677 13.9546C4.57259 13.9524 4.56847 13.95 4.56439 13.9476C4.5603 13.9452 4.55625 13.9427 4.55225 13.9402C4.54825 13.9376 4.54428 13.935 4.54036 13.9324C4.53644 13.9297 4.53256 13.927 4.52873 13.9242C4.52489 13.9214 4.52111 13.9185 4.51736 13.9156C4.51361 13.9127 4.50992 13.9097 4.50628 13.9067C4.50262 13.9036 4.49903 13.9005 4.4955 13.8974C4.49195 13.8942 4.48845 13.891 4.48502 13.8878C4.48158 13.8845 4.47819 13.8812 4.47484 13.8778C4.4715 13.8745 4.46823 13.871 4.46502 13.8675C4.46178 13.8641 4.45861 13.8605 4.4555 13.857C4.45239 13.8534 4.44934 13.8497 4.44634 13.8461C4.44334 13.8424 4.44042 13.8387 4.43755 13.8349C4.43467 13.8311 4.43186 13.8273 4.42911 13.8234C4.42636 13.8196 4.42367 13.8157 4.42105 13.8117C4.41842 13.8078 4.41586 13.8038 4.41338 13.7997C4.41088 13.7957 4.40844 13.7916 4.40608 13.7875L1.24983 8.26125C1.2475 8.25712 1.24524 8.25297 1.24304 8.24877C1.24085 8.24456 1.23872 8.24033 1.23666 8.23606C1.2346 8.2318 1.23261 8.2275 1.23069 8.22317C1.22877 8.21884 1.22692 8.21449 1.22514 8.21009C1.22336 8.2057 1.22165 8.20128 1.22001 8.19684C1.21837 8.19239 1.2168 8.18792 1.21531 8.18342C1.21381 8.17894 1.21239 8.17442 1.21104 8.16988C1.20969 8.16533 1.20841 8.16077 1.20721 8.15619C1.206 8.15161 1.20487 8.147 1.20382 8.14239C1.20276 8.13778 1.20178 8.13314 1.20087 8.12848C1.19996 8.12384 1.19913 8.11917 1.19837 8.1145C1.19762 8.10983 1.19694 8.10514 1.19633 8.10044C1.19572 8.09573 1.19519 8.09103 1.19473 8.08631C1.19428 8.08161 1.1939 8.07689 1.19359 8.07216C1.19329 8.06742 1.19306 8.06269 1.19291 8.05795C1.19276 8.05322 1.19268 8.04848 1.19268 8.04375C1.19268 8.03902 1.19276 8.03428 1.19291 8.02955C1.19306 8.02481 1.19329 8.02008 1.19359 8.01534C1.1939 8.01061 1.19428 8.00589 1.19473 8.00119C1.19519 7.99647 1.19572 7.99177 1.19633 7.98706C1.19694 7.98236 1.19762 7.97767 1.19837 7.973C1.19913 7.96833 1.19996 7.96366 1.20087 7.95902C1.20178 7.95436 1.20276 7.94972 1.20382 7.94511C1.20487 7.9405 1.206 7.93589 1.20721 7.93131C1.20841 7.92673 1.20969 7.92217 1.21104 7.91763C1.21239 7.91308 1.21381 7.90856 1.21531 7.90408C1.2168 7.89958 1.21837 7.89511 1.22001 7.89066C1.22165 7.88622 1.22336 7.8818 1.22514 7.87741C1.22692 7.87302 1.22877 7.86866 1.23069 7.86433C1.23261 7.86 1.2346 7.8557 1.23666 7.85144C1.23872 7.84717 1.24085 7.84294 1.24304 7.83873C1.24524 7.83453 1.2475 7.83038 1.24983 7.82625L4.39983 2.3025C4.40219 2.29839 4.40462 2.29431 4.40712 2.29028C4.40961 2.28625 4.41217 2.28225 4.4148 2.2783C4.41742 2.27435 4.42011 2.27044 4.42286 2.26658C4.42561 2.26271 4.42842 2.2589 4.4313 2.25513C4.43417 2.25134 4.43709 2.24762 4.44009 2.24394C4.44309 2.24026 4.44614 2.23663 4.44925 2.23305C4.45236 2.22946 4.45553 2.22593 4.45877 2.22245C4.46198 2.21898 4.46525 2.21556 4.46859 2.21219C4.47194 2.20881 4.47533 2.2055 4.47877 2.20223C4.4822 2.19896 4.4857 2.19576 4.48925 2.19261C4.49278 2.18945 4.49638 2.18636 4.50003 2.18333C4.50367 2.1803 4.50736 2.17732 4.51111 2.17441C4.51486 2.17149 4.51864 2.16863 4.52248 2.16583C4.52631 2.16304 4.53019 2.16031 4.53411 2.15764C4.53803 2.15497 4.542 2.15237 4.546 2.14983C4.55 2.14729 4.55405 2.14481 4.55814 2.14241C4.56222 2.13999 4.56634 2.13765 4.57052 2.13538C4.57467 2.13309 4.57886 2.13088 4.58309 2.12873C4.58733 2.1266 4.59159 2.12453 4.59589 2.12252C4.60019 2.12052 4.60452 2.11858 4.60889 2.11672C4.61323 2.11485 4.61763 2.11306 4.62206 2.11133C4.62647 2.10961 4.63092 2.10796 4.63539 2.10637C4.63986 2.1048 4.64436 2.1033 4.64889 2.10186C4.65341 2.10042 4.65795 2.09906 4.66252 2.09777C4.66708 2.09648 4.67166 2.09527 4.67627 2.09413C4.68086 2.09299 4.68548 2.09193 4.69014 2.09094C4.69477 2.08994 4.69942 2.08902 4.70409 2.08819C4.70875 2.08734 4.71344 2.08658 4.71814 2.08589C4.72283 2.08519 4.72753 2.08458 4.73225 2.08405C4.73695 2.0835 4.74167 2.08304 4.74641 2.08266C4.75112 2.08227 4.75586 2.08196 4.76061 2.08172C4.76534 2.08149 4.77008 2.08133 4.77483 2.08125L11.0786 2.08125C11.0833 2.0813 11.0881 2.08143 11.0928 2.08164C11.0976 2.08184 11.1023 2.08212 11.107 2.08248C11.1118 2.08284 11.1165 2.08328 11.1212 2.0838C11.1259 2.08431 11.1307 2.0849 11.1354 2.08556C11.1401 2.08623 11.1447 2.08697 11.1494 2.0878C11.1541 2.08862 11.1588 2.08952 11.1634 2.0905C11.1681 2.09147 11.1727 2.09252 11.1773 2.09364C11.1819 2.09477 11.1865 2.09596 11.1911 2.09723C11.1957 2.09852 11.2002 2.09986 11.2048 2.10128C11.2093 2.10271 11.2138 2.10421 11.2183 2.10578C11.2227 2.10735 11.2272 2.109 11.2316 2.1107C11.2361 2.11242 11.2405 2.11421 11.2448 2.11608C11.2492 2.11793 11.2535 2.11986 11.2578 2.12186C11.2622 2.12387 11.2664 2.12594 11.2707 2.12808C11.2749 2.13023 11.2791 2.13243 11.2833 2.1347C11.2874 2.13698 11.2916 2.13933 11.2957 2.14175C11.2998 2.14416 11.3038 2.14664 11.3078 2.14919C11.3118 2.15173 11.3158 2.15434 11.3197 2.15702C11.3236 2.15969 11.3275 2.16243 11.3313 2.16523C11.3352 2.16804 11.339 2.1709 11.3427 2.17383C11.3464 2.17675 11.3501 2.17973 11.3538 2.18278C11.3574 2.18582 11.361 2.18893 11.3646 2.19209C11.3681 2.19526 11.3716 2.19848 11.375 2.20175C11.3785 2.20503 11.3818 2.20836 11.3852 2.21175C11.3885 2.21514 11.3918 2.21858 11.395 2.22208C11.3982 2.22557 11.4014 2.22911 11.4045 2.23272C11.4076 2.23631 11.4106 2.23996 11.4136 2.24366C11.4166 2.24735 11.4195 2.2511 11.4223 2.25489C11.4252 2.25868 11.428 2.26252 11.4307 2.26641C11.4335 2.27029 11.4361 2.27422 11.4387 2.27819C11.4413 2.28216 11.4439 2.28617 11.4464 2.29022C11.4488 2.29427 11.4512 2.29837 11.4536 2.3025L14.6111 7.82625C14.6134 7.83039 14.6157 7.83456 14.6179 7.83878C14.62 7.84298 14.6222 7.84723 14.6242 7.85152C14.6263 7.8558 14.6283 7.86011 14.6302 7.86445C14.6321 7.8688 14.634 7.87317 14.6358 7.87758C14.6375 7.88198 14.6392 7.88642 14.6409 7.89088C14.6425 7.89533 14.6441 7.89981 14.6456 7.90431C14.6471 7.90883 14.6485 7.91336 14.6499 7.91791C14.6512 7.92247 14.6525 7.92705 14.6537 7.93164C14.6549 7.93623 14.656 7.94084 14.6571 7.94547C14.6581 7.95011 14.6591 7.95475 14.66 7.95941C14.6609 7.96408 14.6618 7.96875 14.6625 7.97344C14.6633 7.97813 14.664 7.98283 14.6646 7.98753C14.6652 7.99225 14.6657 7.99697 14.6662 8.0017C14.6666 8.00642 14.667 8.01116 14.6673 8.01589C14.6676 8.02064 14.6678 8.02539 14.668 8.03012C14.6681 8.03487 14.6682 8.03963 14.6682 8.04438C14.6682 8.04913 14.6681 8.05387 14.668 8.05862C14.6678 8.06336 14.6676 8.06811 14.6673 8.07284C14.667 8.07758 14.6666 8.08231 14.6662 8.08705C14.6657 8.09178 14.6652 8.0965 14.6646 8.1012C14.664 8.10592 14.6633 8.11062 14.6625 8.11531C14.6618 8.12 14.6609 8.12467 14.66 8.12934C14.6591 8.134 14.6581 8.13864 14.6571 8.14328C14.656 8.14791 14.6549 8.15252 14.6537 8.15711C14.6525 8.1617 14.6512 8.16628 14.6499 8.17084C14.6485 8.17539 14.6471 8.17992 14.6456 8.18444C14.6441 8.18894 14.6425 8.19342 14.6409 8.19788C14.6392 8.20233 14.6375 8.20677 14.6358 8.21117C14.634 8.21558 14.6321 8.21995 14.6302 8.2243C14.6283 8.22864 14.6263 8.23295 14.6242 8.23723C14.6222 8.24152 14.62 8.24577 14.6179 8.24997C14.6157 8.25419 14.6134 8.25836 14.6111 8.2625L14.6161 8.2625ZM15.4536 7.34875L12.2961 1.825C12.2884 1.81176 12.2805 1.79865 12.2723 1.78566C12.2642 1.77268 12.2559 1.75983 12.2473 1.74713C12.2388 1.73442 12.23 1.72185 12.2211 1.70942C12.2121 1.697 12.203 1.68472 12.1936 1.67259C12.1842 1.66047 12.1747 1.6485 12.1649 1.63667C12.1552 1.62486 12.1452 1.61321 12.1351 1.60172C12.125 1.59023 12.1147 1.57891 12.1042 1.56775C12.0937 1.5566 12.083 1.54563 12.0721 1.53482C12.0613 1.52402 12.0503 1.51339 12.039 1.50295C12.0278 1.4925 12.0165 1.48224 12.0049 1.47217C11.9934 1.4621 11.9817 1.45222 11.9698 1.44253C11.958 1.43283 11.946 1.42334 11.9338 1.41404C11.9216 1.40474 11.9093 1.39564 11.8968 1.38675C11.8844 1.37785 11.8717 1.36916 11.859 1.36067C11.8462 1.35219 11.8333 1.34392 11.8203 1.33585C11.8073 1.32779 11.7942 1.31994 11.7809 1.3123C11.7676 1.30467 11.7542 1.29725 11.7407 1.29005C11.7271 1.28286 11.7135 1.27588 11.6998 1.26913C11.686 1.26238 11.6722 1.25585 11.6582 1.24955C11.6442 1.24325 11.6302 1.23718 11.616 1.23134C11.6019 1.2255 11.5876 1.21989 11.5733 1.21452C11.5589 1.20914 11.5445 1.204 11.53 1.1991C11.5155 1.19419 11.5009 1.18953 11.4862 1.1851C11.4715 1.18067 11.4568 1.17648 11.442 1.17254C11.4272 1.16859 11.4124 1.16488 11.3974 1.16142C11.3825 1.15796 11.3675 1.15474 11.3525 1.15177C11.3375 1.1488 11.3224 1.14607 11.3073 1.14359C11.2922 1.14111 11.277 1.13887 11.2619 1.13689C11.2467 1.1349 11.2315 1.13316 11.2162 1.13167C11.201 1.13018 11.1857 1.12894 11.1704 1.12795C11.1551 1.12696 11.1398 1.12622 11.1245 1.12573C11.1092 1.12523 11.0939 1.12499 11.0786 1.125L4.78108 1.125C4.7657 1.125 4.75036 1.12525 4.73502 1.12576C4.71966 1.12626 4.70431 1.12702 4.68898 1.12803C4.67366 1.12903 4.65834 1.13029 4.64306 1.1318C4.62778 1.13332 4.61252 1.13508 4.5973 1.13709C4.58206 1.1391 4.56687 1.14137 4.55172 1.14388C4.53656 1.14639 4.52145 1.14915 4.50639 1.15216C4.49133 1.15516 4.47631 1.15842 4.46138 1.16192C4.44641 1.16542 4.43152 1.16917 4.41669 1.17316C4.40184 1.17715 4.38708 1.18138 4.37239 1.18586C4.3577 1.19033 4.34308 1.19505 4.32855 1.20001C4.314 1.20496 4.29955 1.21015 4.28519 1.21559C4.27081 1.22102 4.25653 1.22668 4.24236 1.23258C4.22817 1.23848 4.21408 1.24461 4.20011 1.25098C4.18612 1.25734 4.17225 1.26393 4.1585 1.27075C4.14472 1.27757 4.13108 1.28461 4.11755 1.29188C4.10402 1.29914 4.09059 1.30663 4.07731 1.31434C4.06403 1.32205 4.05087 1.32997 4.03784 1.33811C4.02481 1.34625 4.01192 1.3546 3.99917 1.36316C3.98642 1.37173 3.97381 1.3805 3.96136 1.38947C3.94889 1.39845 3.93658 1.40763 3.92442 1.41701C3.91225 1.4264 3.90025 1.43598 3.88841 1.44575C3.87655 1.45553 3.86486 1.4655 3.85334 1.47566C3.84181 1.48582 3.83047 1.49617 3.8193 1.5067C3.80811 1.51723 3.79711 1.52795 3.78628 1.53884C3.77545 1.54974 3.76481 1.5608 3.75434 1.57205C3.74388 1.5833 3.73361 1.59471 3.72352 1.6063C3.71342 1.61788 3.70352 1.62962 3.69383 1.64153C3.68411 1.65344 3.67461 1.6655 3.66531 1.67772C3.656 1.68994 3.64689 1.70231 3.638 1.71483C3.62909 1.72735 3.62041 1.74001 3.61192 1.75281C3.60342 1.76562 3.59516 1.77856 3.58711 1.79164C3.57905 1.80471 3.5712 1.81792 3.56358 1.83125L0.407325 7.34875C0.399803 7.36192 0.392497 7.3752 0.385406 7.38861C0.378316 7.40202 0.371444 7.41553 0.364792 7.42916C0.35814 7.4428 0.35171 7.45653 0.345503 7.47036C0.339297 7.48419 0.333316 7.49813 0.327561 7.51216C0.321806 7.52619 0.31628 7.54031 0.310984 7.55452C0.305687 7.56873 0.300622 7.58303 0.295789 7.59739C0.290956 7.61177 0.286357 7.62622 0.281992 7.64075C0.277628 7.65527 0.2735 7.66986 0.269609 7.68452C0.265718 7.69917 0.262065 7.71389 0.258652 7.72867C0.255238 7.74344 0.252065 7.75827 0.249133 7.77314C0.2462 7.78803 0.243508 7.80295 0.241059 7.81792C0.238611 7.83287 0.236406 7.84788 0.234444 7.86292C0.232482 7.87797 0.230765 7.89303 0.229291 7.90811C0.227818 7.9232 0.22659 7.93831 0.225606 7.95345C0.224623 7.96859 0.223885 7.98373 0.223394 7.99889C0.222902 8.01405 0.222656 8.0292 0.222656 8.04438C0.222656 8.05955 0.222902 8.0747 0.223394 8.08986C0.223885 8.10502 0.224623 8.12016 0.225606 8.1353C0.22659 8.15044 0.227818 8.16555 0.229291 8.18064C0.230765 8.19573 0.232482 8.2108 0.234444 8.22583C0.236406 8.24088 0.238611 8.25587 0.241059 8.27083C0.243508 8.2858 0.2462 8.30072 0.249133 8.31561C0.252065 8.33048 0.255238 8.34531 0.258652 8.36008C0.262065 8.37486 0.265718 8.38958 0.269609 8.40423C0.2735 8.41889 0.277628 8.43349 0.281992 8.448C0.286357 8.46253 0.290956 8.47698 0.295789 8.49136C0.300622 8.50573 0.305687 8.52003 0.310984 8.53424C0.31628 8.54844 0.321806 8.56256 0.327561 8.57659C0.333316 8.59063 0.339297 8.60456 0.345503 8.61839C0.35171 8.63223 0.35814 8.64597 0.364792 8.65959C0.371444 8.67322 0.378316 8.68673 0.385406 8.70014C0.392497 8.71355 0.399803 8.72683 0.407325 8.74L3.56358 14.265C3.57122 14.2783 3.57908 14.2915 3.58716 14.3046C3.59522 14.3176 3.60352 14.3305 3.61202 14.3433C3.62052 14.3561 3.62922 14.3688 3.63814 14.3813C3.64705 14.3938 3.65617 14.4062 3.66548 14.4184C3.6748 14.4306 3.68433 14.4426 3.69405 14.4545C3.70375 14.4664 3.71366 14.4781 3.72375 14.4897C3.73384 14.5013 3.74414 14.5127 3.75461 14.5239C3.76508 14.5351 3.77572 14.5462 3.78656 14.5571C3.79739 14.568 3.80841 14.5787 3.81959 14.5892C3.83078 14.5997 3.84213 14.61 3.85366 14.6202C3.86517 14.6303 3.87686 14.6403 3.88872 14.6501C3.90056 14.6598 3.91256 14.6694 3.92473 14.6788C3.93689 14.6882 3.9492 14.6973 3.96167 14.7063C3.97413 14.7153 3.98673 14.724 3.99948 14.7326C4.01223 14.7412 4.02513 14.7495 4.03816 14.7576C4.05117 14.7658 4.06433 14.7737 4.07761 14.7814C4.09089 14.7891 4.1043 14.7966 4.11783 14.8039C4.13136 14.8111 4.145 14.8182 4.15877 14.825C4.17252 14.8318 4.18639 14.8384 4.20036 14.8448C4.21433 14.8511 4.22841 14.8573 4.24259 14.8632C4.25677 14.8691 4.27103 14.8748 4.28539 14.8802C4.29975 14.8856 4.3142 14.8908 4.32873 14.8958C4.34327 14.9008 4.35787 14.9055 4.37256 14.91C4.38725 14.9144 4.402 14.9187 4.41683 14.9227C4.43166 14.9267 4.44655 14.9304 4.4615 14.934C4.47644 14.9375 4.49144 14.9407 4.5065 14.9437C4.52156 14.9468 4.53666 14.9496 4.55181 14.9521C4.56695 14.9546 4.58214 14.9569 4.59736 14.9589C4.61258 14.9609 4.62783 14.9627 4.64311 14.9643C4.65839 14.9658 4.67369 14.9671 4.68902 14.9681C4.70433 14.9691 4.71967 14.9699 4.73502 14.9704C4.75036 14.971 4.76572 14.9712 4.78108 14.9713L11.0786 14.9713C11.0939 14.9712 11.1093 14.9709 11.1246 14.9704C11.14 14.9698 11.1553 14.969 11.1706 14.968C11.1859 14.9669 11.2012 14.9656 11.2165 14.9641C11.2318 14.9625 11.247 14.9607 11.2622 14.9587C11.2774 14.9566 11.2926 14.9543 11.3078 14.9518C11.3229 14.9492 11.338 14.9465 11.353 14.9434C11.3681 14.9404 11.3831 14.9371 11.398 14.9336C11.413 14.9301 11.4278 14.9263 11.4427 14.9223C11.4575 14.9183 11.4722 14.914 11.4869 14.9095C11.5016 14.905 11.5162 14.9003 11.5307 14.8953C11.5452 14.8904 11.5597 14.8852 11.574 14.8797C11.5884 14.8743 11.6027 14.8686 11.6168 14.8627C11.631 14.8568 11.6451 14.8506 11.659 14.8443C11.673 14.8379 11.6869 14.8313 11.7006 14.8245C11.7144 14.8177 11.728 14.8106 11.7415 14.8034C11.7551 14.7961 11.7685 14.7886 11.7817 14.7809C11.795 14.7732 11.8082 14.7653 11.8212 14.7572C11.8342 14.749 11.8471 14.7407 11.8599 14.7321C11.8726 14.7236 11.8852 14.7148 11.8977 14.7058C11.9101 14.6969 11.9225 14.6877 11.9346 14.6783C11.9468 14.669 11.9588 14.6594 11.9706 14.6497C11.9825 14.6399 11.9942 14.6299 12.0057 14.6198C12.0172 14.6097 12.0286 14.5993 12.0398 14.5888C12.051 14.5783 12.062 14.5676 12.0728 14.5567C12.0836 14.5459 12.0943 14.5348 12.1048 14.5236C12.1153 14.5124 12.1255 14.501 12.1357 14.4894C12.1458 14.4779 12.1557 14.4662 12.1654 14.4543C12.1751 14.4424 12.1847 14.4304 12.194 14.4182C12.2033 14.406 12.2124 14.3936 12.2214 14.3812C12.2303 14.3687 12.239 14.356 12.2475 14.3433C12.256 14.3305 12.2644 14.3176 12.2725 14.3045C12.2805 14.2915 12.2884 14.2783 12.2961 14.265L15.4523 8.74125C15.4598 8.72806 15.4672 8.71477 15.4742 8.70134C15.4813 8.68792 15.4882 8.67439 15.4949 8.66075C15.5015 8.64711 15.5079 8.63338 15.5141 8.61952C15.5203 8.60566 15.5263 8.59172 15.5321 8.57767C15.5378 8.56363 15.5434 8.5495 15.5487 8.53526C15.554 8.52105 15.559 8.50675 15.5638 8.49236C15.5687 8.47797 15.5733 8.4635 15.5776 8.44897C15.582 8.43444 15.5861 8.41983 15.59 8.40516C15.5939 8.39048 15.5976 8.37577 15.601 8.36097C15.6044 8.34617 15.6076 8.33134 15.6105 8.31645C15.6134 8.30156 15.6161 8.28662 15.6186 8.27164C15.621 8.25666 15.6232 8.24164 15.6251 8.22659C15.6271 8.21155 15.6288 8.19648 15.6303 8.18138C15.6318 8.16627 15.633 8.15112 15.634 8.13598C15.635 8.12084 15.6357 8.10569 15.6362 8.09052C15.6368 8.07534 15.637 8.06017 15.637 8.045C15.637 8.02983 15.6368 8.01466 15.6362 7.99948C15.6357 7.98431 15.635 7.96914 15.634 7.954C15.633 7.93886 15.6318 7.92373 15.6303 7.90863C15.6288 7.89352 15.6271 7.87844 15.6251 7.86339C15.6232 7.84834 15.621 7.83334 15.6186 7.81836C15.6161 7.80338 15.6134 7.78844 15.6105 7.77355C15.6076 7.75866 15.6044 7.74383 15.601 7.72903C15.5976 7.71423 15.5939 7.69952 15.59 7.68484C15.5861 7.67017 15.582 7.65556 15.5776 7.64103C15.5733 7.62648 15.5687 7.61203 15.5638 7.59764C15.559 7.58325 15.554 7.56895 15.5487 7.55473C15.5434 7.5405 15.5378 7.52638 15.5321 7.51233C15.5263 7.49828 15.5203 7.48434 15.5141 7.47048C15.5079 7.45662 15.5015 7.44289 15.4949 7.42925C15.4882 7.41561 15.4813 7.40208 15.4742 7.38866C15.4672 7.37523 15.4598 7.36194 15.4523 7.34875L15.4536 7.34875Z"   fill="#5380FD" >
</path>
<path d="M11.3024 9.97106L8.89365 9.97106L8.89365 9.48981C8.89407 9.48167 8.89427 9.47351 8.89427 9.46537C8.89427 9.45721 8.89407 9.44906 8.89366 9.44092C8.89324 9.43278 8.89263 9.42465 8.8918 9.41654C8.89098 9.40843 8.88996 9.40034 8.88873 9.39229C8.88749 9.38423 8.88605 9.3762 8.88441 9.36821C8.88277 9.36023 8.88095 9.35229 8.8789 9.3444C8.87685 9.33651 8.87462 9.32867 8.87218 9.3209C8.86973 9.31312 8.8671 9.3054 8.86427 9.29776C8.86145 9.29012 8.85841 9.28254 8.85521 9.27506C8.85199 9.26756 8.84859 9.26015 8.84501 9.25284C8.84141 9.24551 8.83763 9.23829 8.83368 9.23117C8.82973 9.22403 8.8256 9.21701 8.82129 9.21009C8.81698 9.20317 8.81249 9.19637 8.80784 9.18967C8.80318 9.18298 8.79835 9.17642 8.79337 9.16996C8.78838 9.16351 8.78323 9.1572 8.77791 9.15101C8.7726 9.14482 8.76713 9.13878 8.76152 9.13287C8.75591 9.12695 8.75015 9.12118 8.74424 9.11557C8.73834 9.10996 8.73229 9.1045 8.7261 9.09918C8.71991 9.09387 8.7136 9.08871 8.70715 9.08373C8.7007 9.07875 8.69413 9.07392 8.68744 9.06926C8.68076 9.06461 8.67396 9.06012 8.66704 9.05579C8.66012 9.05148 8.65309 9.04736 8.64596 9.0434C8.63884 9.03945 8.63162 9.03567 8.62429 9.03207C8.61698 9.02848 8.60957 9.02507 8.60207 9.02187C8.59459 9.01865 8.58701 9.01562 8.57937 9.01279C8.57173 9.00996 8.56401 9.00732 8.55624 9.00489C8.54846 9.00243 8.54062 9.0002 8.53273 8.99815C8.52484 8.99611 8.5169 8.99428 8.50891 8.99264C8.50093 8.991 8.4929 8.98954 8.48485 8.98831C8.47679 8.98707 8.46869 8.98606 8.46059 8.98523C8.45248 8.9844 8.44435 8.98379 8.43621 8.98337C8.42807 8.98295 8.41993 8.98275 8.41177 8.98275C8.40362 8.98275 8.39548 8.98295 8.38734 8.98337C8.3792 8.98379 8.37105 8.9844 8.36295 8.98523C8.35484 8.98606 8.34676 8.98707 8.3387 8.98831C8.33065 8.98954 8.32262 8.991 8.31463 8.99264C8.30665 8.99428 8.29871 8.99611 8.29082 8.99815C8.28293 9.0002 8.27509 9.00245 8.26731 9.00489C8.25952 9.00732 8.25182 9.00996 8.24418 9.01279C8.23654 9.01562 8.22896 9.01865 8.22148 9.02187C8.21398 9.02507 8.20657 9.02848 8.19926 9.03207C8.19193 9.03567 8.18471 9.03945 8.17759 9.0434C8.17045 9.04736 8.16343 9.05148 8.15651 9.05579C8.14959 9.06012 8.14279 9.06461 8.1361 9.06926C8.1294 9.07392 8.12284 9.07875 8.1164 9.08373C8.10995 9.08871 8.10363 9.09387 8.09745 9.09918C8.09126 9.1045 8.08521 9.10996 8.0793 9.11557C8.0734 9.12118 8.06763 9.12695 8.06202 9.13287C8.05641 9.13878 8.05095 9.14482 8.04563 9.15101C8.04032 9.1572 8.03516 9.16351 8.03018 9.16996C8.0252 9.17642 8.02037 9.18298 8.01571 9.18967C8.01105 9.19637 8.00657 9.20317 8.00226 9.21009C7.99795 9.21701 7.99382 9.22403 7.98987 9.23117C7.98591 9.23829 7.98213 9.24551 7.97854 9.25284C7.97496 9.26015 7.97155 9.26756 7.96834 9.27506C7.96513 9.28254 7.9621 9.29012 7.95927 9.29776C7.95645 9.3054 7.9538 9.31312 7.95137 9.3209C7.94893 9.32867 7.9467 9.33651 7.94465 9.3444C7.9426 9.35229 7.94077 9.36023 7.93913 9.36821C7.93749 9.3762 7.93605 9.38423 7.93482 9.39229C7.93359 9.40034 7.93257 9.40843 7.93174 9.41654C7.93091 9.42465 7.9303 9.43278 7.92988 9.44092C7.92948 9.44906 7.92927 9.45721 7.92927 9.46537C7.92927 9.47351 7.92948 9.48167 7.9299 9.48981L7.9299 9.97106L4.5549 9.97106C4.54675 9.97064 4.53861 9.97043 4.53046 9.97043C4.5223 9.97043 4.51415 9.97064 4.50601 9.97104C4.49787 9.97146 4.48975 9.97207 4.48163 9.9729C4.47353 9.97373 4.46545 9.97475 4.45738 9.97598C4.44932 9.97721 4.4413 9.97865 4.43332 9.98029C4.42533 9.98193 4.41739 9.98376 4.40949 9.98581C4.40161 9.98786 4.39377 9.99009 4.38599 9.99253C4.37821 9.99498 4.3705 9.9976 4.36285 10.0004C4.35521 10.0033 4.34764 10.0063 4.34015 10.0095C4.33266 10.0127 4.32525 10.0161 4.31793 10.0197C4.31061 10.0233 4.30338 10.0271 4.29626 10.031C4.28913 10.035 4.28211 10.0391 4.27518 10.0434C4.26826 10.0477 4.26146 10.0522 4.25477 10.0569C4.24808 10.0615 4.2415 10.0664 4.23505 10.0713C4.22861 10.0763 4.22229 10.0815 4.2161 10.0868C4.20991 10.0921 4.20387 10.0976 4.19796 10.1032C4.19205 10.1088 4.18629 10.1146 4.18068 10.1205C4.17505 10.1264 4.16959 10.1324 4.16429 10.1386C4.15898 10.1448 4.15383 10.1511 4.14884 10.1576C4.14384 10.164 4.13901 10.1706 4.13435 10.1773C4.1297 10.1839 4.12521 10.1907 4.1209 10.1977C4.11659 10.2046 4.11245 10.2116 4.10849 10.2187C4.10453 10.2259 4.10076 10.2331 4.09718 10.2404C4.09359 10.2477 4.09018 10.2551 4.08696 10.2626C4.08375 10.2701 4.08073 10.2777 4.0779 10.2853C4.07507 10.293 4.07243 10.3007 4.06999 10.3085C4.06754 10.3162 4.0653 10.3241 4.06326 10.332C4.06122 10.3399 4.05937 10.3478 4.05773 10.3558C4.05609 10.3638 4.05465 10.3718 4.05341 10.3799C4.05219 10.3879 4.05115 10.396 4.05032 10.4041C4.0495 10.4122 4.04888 10.4204 4.04848 10.4285C4.04806 10.4366 4.04785 10.4448 4.04785 10.4529C4.04785 10.4611 4.04806 10.4692 4.04848 10.4774C4.04888 10.4855 4.0495 10.4936 4.05032 10.5017C4.05115 10.5099 4.05219 10.5179 4.05341 10.526C4.05465 10.5341 4.05609 10.5421 4.05773 10.5501C4.05937 10.5581 4.06122 10.566 4.06326 10.5739C4.0653 10.5818 4.06754 10.5896 4.06999 10.5974C4.07243 10.6052 4.07507 10.6129 4.0779 10.6205C4.08073 10.6282 4.08375 10.6357 4.08696 10.6432C4.09018 10.6507 4.09359 10.6581 4.09718 10.6654C4.10076 10.6728 4.10453 10.68 4.10849 10.6871C4.11245 10.6942 4.11659 10.7013 4.1209 10.7082C4.12521 10.7151 4.1297 10.7219 4.13435 10.7286C4.13901 10.7353 4.14384 10.7419 4.14884 10.7483C4.15383 10.7548 4.15898 10.7611 4.16429 10.7673C4.16959 10.7734 4.17505 10.7795 4.18068 10.7854C4.18629 10.7913 4.19205 10.7971 4.19796 10.8027C4.20387 10.8083 4.20991 10.8138 4.2161 10.8191C4.22229 10.8244 4.22861 10.8295 4.23505 10.8345C4.2415 10.8395 4.24808 10.8443 4.25477 10.849C4.26146 10.8537 4.26826 10.8581 4.27518 10.8624C4.28211 10.8667 4.28913 10.8709 4.29626 10.8748C4.30338 10.8788 4.31061 10.8826 4.31793 10.8862C4.32525 10.8897 4.33266 10.8932 4.34015 10.8964C4.34764 10.8996 4.35521 10.9026 4.36285 10.9054C4.3705 10.9083 4.37821 10.9109 4.38599 10.9133C4.39377 10.9158 4.40161 10.918 4.40949 10.9201C4.41739 10.9221 4.42533 10.9239 4.43332 10.9256C4.4413 10.9272 4.44932 10.9287 4.45738 10.9299C4.46545 10.9311 4.47353 10.9321 4.48163 10.933C4.48975 10.9338 4.49787 10.9344 4.50601 10.9348C4.51415 10.9352 4.5223 10.9354 4.53046 10.9354C4.53861 10.9354 4.54675 10.9352 4.5549 10.9348L7.9299 10.9348L7.9299 11.4161C7.93029 11.4237 7.93085 11.4313 7.9316 11.4389C7.93237 11.4465 7.93329 11.4541 7.9344 11.4617C7.93551 11.4692 7.9368 11.4767 7.93827 11.4842C7.93974 11.4917 7.94138 11.4992 7.94321 11.5066C7.94504 11.514 7.94702 11.5214 7.94919 11.5287C7.95137 11.5361 7.95373 11.5433 7.95624 11.5505C7.95876 11.5577 7.96144 11.5649 7.9643 11.572C7.96716 11.5791 7.97018 11.5861 7.97338 11.593C7.97657 11.6 7.97993 11.6068 7.98345 11.6136C7.98696 11.6204 7.99063 11.6271 7.99446 11.6337C7.9983 11.6403 8.00231 11.6468 8.00644 11.6532C8.01059 11.6597 8.01487 11.666 8.01932 11.6722C8.02377 11.6784 8.02835 11.6845 8.03309 11.6905C8.03782 11.6965 8.0427 11.7024 8.04771 11.7082C8.05273 11.7139 8.05788 11.7196 8.06316 11.7251C8.06845 11.7306 8.07385 11.736 8.07938 11.7412C8.08493 11.7465 8.09059 11.7517 8.09637 11.7566C8.10215 11.7616 8.10806 11.7665 8.11407 11.7712C8.12009 11.7759 8.1262 11.7805 8.13243 11.7849C8.13866 11.7893 8.14499 11.7936 8.15141 11.7977C8.15785 11.8019 8.16438 11.8058 8.17101 11.8096C8.17762 11.8134 8.18432 11.8171 8.19112 11.8206C8.19791 11.8241 8.20479 11.8274 8.21174 11.8306C8.21869 11.8338 8.22573 11.8368 8.23282 11.8396C8.23991 11.8424 8.24707 11.8451 8.25429 11.8476C8.26152 11.8501 8.2688 11.8524 8.27613 11.8545C8.28346 11.8567 8.29084 11.8587 8.29826 11.8605C8.30568 11.8623 8.31315 11.8639 8.32066 11.8653C8.32816 11.8668 8.3357 11.868 8.34326 11.8691C8.35082 11.8702 8.3584 11.8711 8.36601 11.8718C8.37362 11.8726 8.38123 11.8731 8.38887 11.8734C8.39651 11.8738 8.40413 11.874 8.41177 11.874C8.41941 11.874 8.42706 11.8738 8.43468 11.8734C8.44232 11.8731 8.44993 11.8726 8.45754 11.8718C8.46515 11.8711 8.47273 11.8702 8.48029 11.8691C8.48785 11.868 8.49538 11.8668 8.5029 11.8653C8.5104 11.8639 8.51787 11.8623 8.52529 11.8605C8.53271 11.8587 8.5401 11.8567 8.54743 11.8545C8.55476 11.8524 8.56202 11.8501 8.56926 11.8476C8.57648 11.8451 8.58363 11.8424 8.59073 11.8396C8.59782 11.8368 8.60485 11.8338 8.6118 11.8306C8.61876 11.8274 8.62563 11.8241 8.63243 11.8206C8.63923 11.8171 8.64593 11.8134 8.65254 11.8096C8.65916 11.8058 8.6657 11.8019 8.67213 11.7977C8.67855 11.7936 8.68488 11.7893 8.69112 11.7849C8.69735 11.7805 8.70348 11.7759 8.70949 11.7712C8.71551 11.7665 8.7214 11.7616 8.72718 11.7566C8.73296 11.7517 8.73862 11.7465 8.74416 11.7412C8.74969 11.736 8.7551 11.7306 8.76038 11.7251C8.76566 11.7196 8.77082 11.7139 8.77584 11.7082C8.78085 11.7024 8.78573 11.6965 8.79046 11.6905C8.7952 11.6845 8.79977 11.6784 8.80423 11.6722C8.80868 11.666 8.81298 11.6597 8.81712 11.6532C8.82126 11.6468 8.82524 11.6403 8.82909 11.6337C8.83291 11.6271 8.83659 11.6204 8.8401 11.6136C8.84362 11.6068 8.84698 11.6 8.85016 11.593C8.85337 11.5861 8.85638 11.5791 8.85924 11.572C8.8621 11.5649 8.86479 11.5577 8.8673 11.5505C8.86982 11.5433 8.87218 11.5361 8.87435 11.5287C8.87652 11.5214 8.87851 11.514 8.88034 11.5066C8.88216 11.4992 8.8838 11.4917 8.88527 11.4842C8.88674 11.4767 8.88804 11.4692 8.88915 11.4617C8.89026 11.4541 8.8912 11.4465 8.89194 11.4389C8.89269 11.4313 8.89326 11.4237 8.89365 11.4161L8.89365 10.9348L11.3024 10.9348C11.31 10.9344 11.3176 10.9339 11.3253 10.9331C11.3329 10.9324 11.3404 10.9314 11.348 10.9303C11.3556 10.9292 11.3631 10.9279 11.3706 10.9264C11.3781 10.925 11.3855 10.9233 11.393 10.9215C11.4004 10.9197 11.4077 10.9177 11.4151 10.9155C11.4224 10.9133 11.4297 10.911 11.4369 10.9085C11.4441 10.9059 11.4513 10.9033 11.4583 10.9004C11.4654 10.8975 11.4724 10.8945 11.4794 10.8913C11.4863 10.8881 11.4932 10.8848 11.5 10.8813C11.5067 10.8778 11.5134 10.8741 11.5201 10.8702C11.5267 10.8664 11.5332 10.8624 11.5396 10.8583C11.546 10.8541 11.5523 10.8498 11.5585 10.8454C11.5648 10.8409 11.5709 10.8364 11.5769 10.8316C11.5829 10.8269 11.5887 10.822 11.5945 10.817C11.6003 10.812 11.6059 10.8068 11.6114 10.8015C11.6169 10.7963 11.6223 10.7909 11.6276 10.7853C11.6329 10.7798 11.638 10.7741 11.643 10.7683C11.648 10.7626 11.6528 10.7567 11.6576 10.7507C11.6623 10.7446 11.6668 10.7385 11.6713 10.7323C11.6757 10.726 11.68 10.7197 11.6841 10.7133C11.6882 10.7069 11.6922 10.7003 11.696 10.6937C11.6998 10.6871 11.7034 10.6804 11.7069 10.6736C11.7104 10.6668 11.7138 10.6599 11.7169 10.653C11.7201 10.646 11.7231 10.639 11.7259 10.6319C11.7288 10.6248 11.7314 10.6176 11.7339 10.6104C11.7364 10.6032 11.7387 10.5959 11.7409 10.5886C11.743 10.5813 11.745 10.5739 11.7468 10.5664C11.7486 10.559 11.7502 10.5516 11.7517 10.5441C11.7531 10.5365 11.7544 10.529 11.7555 10.5214C11.7565 10.5139 11.7574 10.5063 11.7582 10.4987C11.7589 10.4911 11.7594 10.4835 11.7598 10.4758C11.7602 10.4682 11.7604 10.4606 11.7604 10.4529C11.7604 10.4453 11.7602 10.4377 11.7598 10.43C11.7594 10.4224 11.7589 10.4148 11.7582 10.4072C11.7574 10.3996 11.7565 10.392 11.7555 10.3844C11.7544 10.3769 11.7531 10.3693 11.7517 10.3618C11.7502 10.3543 11.7486 10.3468 11.7468 10.3394C11.745 10.332 11.743 10.3246 11.7409 10.3173C11.7387 10.3099 11.7364 10.3027 11.7339 10.2954C11.7314 10.2882 11.7288 10.2811 11.7259 10.274C11.7231 10.2669 11.7201 10.2599 11.7169 10.2529C11.7138 10.2459 11.7104 10.2391 11.7069 10.2323C11.7034 10.2255 11.6998 10.2188 11.696 10.2122C11.6922 10.2055 11.6882 10.199 11.6841 10.1926C11.68 10.1862 11.6757 10.1798 11.6713 10.1736C11.6668 10.1674 11.6623 10.1612 11.6576 10.1552C11.6528 10.1492 11.648 10.1433 11.643 10.1375C11.638 10.1317 11.6329 10.1261 11.6276 10.1205C11.6223 10.115 11.6169 10.1096 11.6114 10.1043C11.6059 10.099 11.6003 10.0939 11.5945 10.0889C11.5887 10.0839 11.5829 10.079 11.5769 10.0742C11.5709 10.0695 11.5648 10.0649 11.5585 10.0605C11.5523 10.056 11.546 10.0517 11.5396 10.0476C11.5332 10.0434 11.5267 10.0394 11.5201 10.0356C11.5134 10.0318 11.5067 10.0281 11.5 10.0246C11.4932 10.0211 11.4863 10.0177 11.4794 10.0145C11.4724 10.0113 11.4654 10.0083 11.4583 10.0055C11.4512 10.0026 11.4441 9.99992 11.4369 9.9974C11.4297 9.99489 11.4224 9.99253 11.4151 9.99035C11.4077 9.98818 11.4004 9.9862 11.393 9.98437C11.3855 9.98254 11.3781 9.9809 11.3706 9.97943C11.3631 9.97796 11.3556 9.97667 11.348 9.97556C11.3404 9.97445 11.3329 9.97351 11.3253 9.97276C11.3176 9.97201 11.31 9.97145 11.3024 9.97106ZM11.3024 5.15356L5.9999 5.15356L5.9999 4.67231C5.99951 4.66467 5.99895 4.65706 5.9982 4.64946C5.99745 4.64186 5.99651 4.63428 5.9954 4.62671C5.99429 4.61915 5.99299 4.61162 5.99152 4.60412C5.99005 4.59663 5.98841 4.58917 5.98659 4.58175C5.98476 4.57433 5.98277 4.56696 5.9806 4.55964C5.97843 4.55231 5.97607 4.54504 5.97355 4.53782C5.97104 4.53062 5.96835 4.52346 5.96549 4.51637C5.96263 4.50929 5.95962 4.50228 5.95643 4.49534C5.95323 4.48839 5.94988 4.48153 5.94637 4.47475C5.94285 4.46796 5.93916 4.46127 5.93534 4.45467C5.93151 4.44805 5.92751 4.44154 5.92337 4.43512C5.91923 4.42871 5.91493 4.42239 5.91048 4.41617C5.90602 4.40996 5.90145 4.40386 5.89671 4.39786C5.89198 4.39186 5.8871 4.38598 5.88209 4.38021C5.87707 4.37444 5.87193 4.3688 5.86663 4.36328C5.86135 4.35776 5.85595 4.35237 5.85041 4.34711C5.84487 4.34185 5.83921 4.33672 5.83343 4.33172C5.82765 4.32673 5.82176 4.32187 5.81574 4.31715C5.80973 4.31244 5.8036 4.30788 5.79737 4.30345C5.79113 4.29903 5.7848 4.29476 5.77838 4.29064C5.77194 4.28651 5.76541 4.28254 5.7588 4.27873C5.75218 4.27492 5.74548 4.27126 5.73868 4.26776C5.73188 4.26427 5.72501 4.26094 5.71805 4.25778C5.7111 4.25461 5.70407 4.25161 5.69698 4.24878C5.68988 4.24594 5.68273 4.24328 5.67551 4.24078C5.66827 4.23829 5.66101 4.23597 5.65368 4.23382C5.64635 4.23168 5.63896 4.2297 5.63154 4.2279C5.62412 4.2261 5.61665 4.22448 5.60915 4.22304C5.60164 4.2216 5.5941 4.22033 5.58654 4.21925C5.57898 4.21816 5.57139 4.21726 5.56379 4.21654C5.55618 4.21581 5.54857 4.21527 5.54093 4.2149C5.53329 4.21454 5.52566 4.21436 5.51802 4.21436C5.51039 4.21436 5.50275 4.21454 5.49512 4.2149C5.48748 4.21527 5.47986 4.21581 5.47226 4.21654C5.46465 4.21726 5.45707 4.21816 5.44951 4.21925C5.44195 4.22033 5.43441 4.2216 5.4269 4.22304C5.4194 4.22448 5.41193 4.2261 5.40451 4.2279C5.39708 4.2297 5.38971 4.23168 5.38238 4.23382C5.37505 4.23597 5.36777 4.23829 5.36054 4.24078C5.35332 4.24328 5.34616 4.24594 5.33907 4.24878C5.33198 4.25161 5.32495 4.25461 5.31799 4.25778C5.31104 4.26094 5.30417 4.26427 5.29737 4.26776C5.29058 4.27126 5.28387 4.27492 5.27724 4.27873C5.27063 4.28254 5.2641 4.28651 5.25766 4.29064C5.25124 4.29476 5.24491 4.29903 5.23868 4.30345C5.23245 4.30788 5.22633 4.31244 5.2203 4.31715C5.21429 4.32187 5.2084 4.32673 5.20262 4.33172C5.19684 4.33672 5.19117 4.34185 5.18563 4.34711C5.1801 4.35237 5.1747 4.35776 5.16941 4.36328C5.16412 4.3688 5.15897 4.37444 5.15396 4.38021C5.14895 4.38598 5.14407 4.39186 5.13934 4.39786C5.13461 4.40386 5.13002 4.40996 5.12557 4.41617C5.12112 4.42239 5.11683 4.42871 5.11268 4.43512C5.10854 4.44154 5.10455 4.44805 5.10071 4.45467C5.09688 4.46127 5.0932 4.46796 5.08968 4.47475C5.08617 4.48153 5.08282 4.48839 5.07962 4.49534C5.07643 4.50228 5.07341 4.50929 5.07055 4.51637C5.06769 4.52346 5.065 4.53062 5.06249 4.53782C5.05997 4.54504 5.05762 4.55231 5.05545 4.55964C5.05328 4.56696 5.05128 4.57433 5.04946 4.58175C5.04764 4.58917 5.04599 4.59663 5.04452 4.60412C5.04305 4.61162 5.04176 4.61915 5.04065 4.62671C5.03953 4.63428 5.0386 4.64186 5.03785 4.64946C5.0371 4.65706 5.03653 4.66467 5.03615 4.67231L5.03615 5.15356L4.55865 5.15356C4.5505 5.15314 4.54236 5.15293 4.53421 5.15293C4.52605 5.15293 4.5179 5.15314 4.50976 5.15354C4.50162 5.15396 4.4935 5.15458 4.48538 5.1554C4.47728 5.15623 4.4692 5.15725 4.46113 5.15848C4.45307 5.15971 4.44505 5.16115 4.43707 5.16279C4.42908 5.16443 4.42114 5.16627 4.41324 5.16831C4.40536 5.17035 4.39752 5.17259 4.38974 5.17503C4.38196 5.17748 4.37425 5.18011 4.3666 5.18293C4.35896 5.18577 4.35139 5.18879 4.3439 5.192C4.33641 5.19521 4.329 5.19862 4.32168 5.2022C4.31436 5.20579 4.30713 5.20957 4.30001 5.21353C4.29287 5.21748 4.28585 5.22161 4.27893 5.22592C4.27201 5.23023 4.26521 5.23471 4.25851 5.23937C4.25182 5.24403 4.24525 5.24885 4.2388 5.25384C4.23236 5.25883 4.22604 5.26398 4.21985 5.26929C4.21366 5.27461 4.20762 5.28007 4.20171 5.28568C4.1958 5.2913 4.19004 5.29706 4.18441 5.30296C4.1788 5.30887 4.17334 5.31492 4.16802 5.32111C4.16271 5.32729 4.15756 5.33361 4.15257 5.34006C4.14758 5.34651 4.14276 5.35307 4.1381 5.35976C4.13345 5.36645 4.12896 5.37325 4.12465 5.38017C4.12034 5.3871 4.1162 5.39412 4.11224 5.40125C4.10828 5.40837 4.10451 5.41559 4.10091 5.42292C4.09733 5.43023 4.09393 5.43764 4.09071 5.44514C4.08749 5.45263 4.08447 5.46019 4.08163 5.46784C4.07881 5.47548 4.07617 5.48319 4.07373 5.49096C4.07129 5.49875 4.06905 5.50659 4.06701 5.51448C4.06496 5.52237 4.06311 5.5303 4.06148 5.53829C4.05983 5.54627 4.05839 5.55429 4.05716 5.56236C4.05592 5.57042 4.05489 5.5785 4.05407 5.58661C4.05325 5.59472 4.05263 5.60285 4.05221 5.611C4.0518 5.61913 4.0516 5.62728 4.0516 5.63543C4.0516 5.64359 4.0518 5.65174 4.05221 5.65987C4.05263 5.66802 4.05325 5.67614 4.05407 5.68425C4.05489 5.69236 4.05592 5.70045 4.05716 5.70851C4.05839 5.71657 4.05983 5.72459 4.06148 5.73257C4.06311 5.74056 4.06496 5.7485 4.06701 5.75639C4.06905 5.76428 4.07129 5.77212 4.07373 5.7799C4.07617 5.78767 4.07881 5.79539 4.08163 5.80303C4.08447 5.81067 4.08749 5.81825 4.09071 5.82573C4.09393 5.83323 4.09733 5.84064 4.10091 5.84795C4.10451 5.85528 4.10828 5.8625 4.11224 5.86962C4.1162 5.87675 4.12034 5.88376 4.12465 5.89068C4.12896 5.89761 4.13345 5.90442 4.1381 5.91111C4.14276 5.91779 4.14758 5.92436 4.15257 5.93081C4.15756 5.93726 4.16271 5.94357 4.16802 5.94976C4.17334 5.95595 4.1788 5.962 4.18441 5.9679C4.19004 5.97381 4.1958 5.97957 4.20171 5.98518C4.20762 5.99079 4.21366 5.99626 4.21985 6.00157C4.22604 6.00689 4.23236 6.01204 4.2388 6.01703C4.24525 6.02201 4.25182 6.02684 4.25851 6.0315C4.26521 6.03615 4.27201 6.04064 4.27893 6.04495C4.28585 6.04925 4.29287 6.05339 4.30001 6.05734C4.30713 6.06129 4.31436 6.06507 4.32168 6.06865C4.32899 6.07225 4.3364 6.07565 4.3439 6.07886C4.35139 6.08207 4.35896 6.08511 4.3666 6.08793C4.37425 6.09076 4.38196 6.09339 4.38974 6.09582C4.39752 6.09828 4.40536 6.10051 4.41324 6.10256C4.42114 6.10461 4.42908 6.10643 4.43707 6.10807C4.44505 6.10971 4.45307 6.11115 4.46113 6.11239C4.4692 6.11362 4.47728 6.11464 4.48538 6.11546C4.4935 6.11629 4.50162 6.1169 4.50976 6.11732C4.5179 6.11773 4.52605 6.11793 4.53421 6.11793C4.54236 6.11793 4.5505 6.11773 4.55865 6.11731L5.0399 6.11731L5.0399 6.59856C5.03948 6.6067 5.03927 6.61486 5.03927 6.623C5.03927 6.63115 5.03948 6.63929 5.03988 6.64743C5.0403 6.65557 5.04092 6.66371 5.04174 6.67182C5.04257 6.67993 5.04359 6.68801 5.04482 6.69607C5.04605 6.70414 5.04749 6.71215 5.04913 6.72014C5.05077 6.72812 5.05261 6.73607 5.05465 6.74396C5.05669 6.75186 5.05893 6.75968 5.06137 6.76746C5.06382 6.77525 5.06645 6.78296 5.06927 6.79061C5.07211 6.79825 5.07513 6.80582 5.07834 6.81331C5.08155 6.82079 5.08496 6.8282 5.08855 6.83553C5.09214 6.84286 5.09591 6.85007 5.09987 6.8572C5.10382 6.86434 5.10795 6.87136 5.11226 6.87828C5.11657 6.8852 5.12105 6.892 5.12571 6.89868C5.13037 6.90539 5.13519 6.91195 5.14018 6.9184C5.14517 6.92486 5.15032 6.93117 5.15563 6.93736C5.16095 6.94354 5.16641 6.94959 5.17202 6.9555C5.17764 6.9614 5.1834 6.96717 5.1893 6.97279C5.19521 6.9784 5.20126 6.98387 5.20745 6.98918C5.21363 6.99448 5.21995 6.99964 5.2264 7.00464C5.23285 7.00962 5.23941 7.01445 5.2461 7.01911C5.25279 7.02376 5.25959 7.02825 5.26651 7.03256C5.27343 7.03687 5.28046 7.04101 5.28759 7.04496C5.29471 7.04892 5.30193 7.0527 5.30926 7.05629C5.31657 7.05987 5.32398 7.06328 5.33148 7.0665C5.33897 7.06971 5.34653 7.07273 5.35418 7.07556C5.36182 7.07839 5.36953 7.08103 5.3773 7.08348C5.38509 7.08592 5.39292 7.08815 5.40082 7.0902C5.40871 7.09225 5.41664 7.09409 5.42463 7.09573C5.43262 7.09737 5.44064 7.09881 5.4487 7.10004C5.45676 7.10128 5.46484 7.10231 5.47295 7.10314C5.48106 7.10396 5.48919 7.10457 5.49734 7.105C5.50547 7.1054 5.51362 7.10561 5.52177 7.10561C5.52993 7.10561 5.53807 7.1054 5.54621 7.105C5.55436 7.10457 5.56249 7.10396 5.5706 7.10314C5.57871 7.10231 5.58679 7.10128 5.59485 7.10004C5.6029 7.09881 5.61093 7.09737 5.61891 7.09573C5.6269 7.09409 5.63484 7.09225 5.64273 7.0902C5.65062 7.08815 5.65846 7.08592 5.66624 7.08348C5.67401 7.08103 5.68173 7.07839 5.68937 7.07556C5.69701 7.07273 5.70459 7.06971 5.71207 7.0665C5.71957 7.06328 5.72698 7.05987 5.73429 7.05629C5.74162 7.0527 5.74884 7.04892 5.75596 7.04496C5.76309 7.04101 5.77012 7.03687 5.77704 7.03256C5.78396 7.02825 5.79076 7.02376 5.79745 7.01911C5.80413 7.01445 5.8107 7.00962 5.81715 7.00464C5.8236 6.99964 5.82991 6.99448 5.8361 6.98918C5.84229 6.98387 5.84834 6.9784 5.85424 6.97279C5.86015 6.96717 5.86591 6.9614 5.87152 6.9555C5.87713 6.94959 5.8826 6.94354 5.88791 6.93736C5.89323 6.93117 5.89838 6.92486 5.90337 6.9184C5.90835 6.91195 5.91318 6.90539 5.91784 6.89868C5.92249 6.892 5.92698 6.8852 5.93129 6.87828C5.93559 6.87136 5.93973 6.86434 5.94368 6.8572C5.94763 6.85007 5.95141 6.84286 5.95499 6.83553C5.95859 6.8282 5.96199 6.82079 5.9652 6.81331C5.96841 6.80582 5.97145 6.79825 5.97427 6.79061C5.9771 6.78296 5.97973 6.77525 5.98218 6.76746C5.98462 6.75968 5.98685 6.75186 5.9889 6.74396C5.99095 6.73607 5.99277 6.72812 5.99441 6.72014C5.99605 6.71215 5.99749 6.70414 5.99873 6.69607C5.99996 6.68801 6.00098 6.67993 6.0018 6.67182C6.00263 6.66371 6.00324 6.65557 6.00366 6.64743C6.00407 6.63929 6.00427 6.63115 6.00427 6.623C6.00427 6.61486 6.00407 6.6067 6.00365 6.59856L6.00365 6.11731L11.3024 6.11731C11.31 6.11692 11.3176 6.11636 11.3253 6.11561C11.3329 6.11486 11.3404 6.11392 11.348 6.11281C11.3556 6.1117 11.3631 6.1104 11.3706 6.10893C11.3781 6.10746 11.3855 6.10582 11.393 6.104C11.4004 6.10217 11.4077 6.10018 11.4151 6.09801C11.4224 6.09584 11.4297 6.09348 11.4369 6.09096C11.4441 6.08845 11.4512 6.08576 11.4583 6.0829C11.4654 6.08004 11.4724 6.07703 11.4794 6.07382C11.4863 6.07064 11.4932 6.06728 11.5 6.06376C11.5067 6.06025 11.5134 6.05657 11.52 6.05275C11.5266 6.0489 11.5332 6.04492 11.5396 6.04078C11.546 6.03664 11.5523 6.03234 11.5585 6.02789C11.5647 6.02343 11.5709 6.01886 11.5769 6.01412C11.5829 6.00939 11.5887 6.00451 11.5945 5.9995C11.6003 5.99448 11.6059 5.98932 11.6114 5.98404C11.6169 5.97876 11.6223 5.97336 11.6276 5.96782C11.6329 5.96228 11.638 5.95662 11.643 5.95084C11.648 5.94506 11.6528 5.93917 11.6576 5.93315C11.6623 5.92714 11.6668 5.92101 11.6713 5.91478C11.6757 5.90854 11.6799 5.90222 11.6841 5.89579C11.6882 5.88936 11.6922 5.88282 11.696 5.87621C11.6998 5.86959 11.7034 5.86289 11.7069 5.85609C11.7104 5.84929 11.7138 5.84242 11.7169 5.83546C11.7201 5.82851 11.7231 5.82148 11.7259 5.81439C11.7288 5.80729 11.7314 5.80014 11.7339 5.79292C11.7364 5.78568 11.7387 5.7784 11.7409 5.77107C11.743 5.76375 11.745 5.75638 11.7468 5.74895C11.7486 5.74152 11.7502 5.73405 11.7517 5.72654C11.7531 5.71904 11.7544 5.71151 11.7555 5.70395C11.7565 5.69639 11.7574 5.6888 11.7582 5.6812C11.7589 5.6736 11.7594 5.66598 11.7598 5.65834C11.7602 5.6507 11.7604 5.64307 11.7604 5.63543C11.7604 5.62779 11.7602 5.62015 11.7598 5.61253C11.7594 5.60489 11.7589 5.59727 11.7582 5.58967C11.7574 5.58206 11.7565 5.57448 11.7555 5.56692C11.7544 5.55936 11.7531 5.55182 11.7517 5.54431C11.7502 5.53681 11.7486 5.52934 11.7468 5.52192C11.745 5.51449 11.743 5.50711 11.7409 5.49978C11.7387 5.49244 11.7364 5.48517 11.7339 5.47795C11.7314 5.47073 11.7288 5.46357 11.7259 5.45648C11.7231 5.44939 11.7201 5.44236 11.7169 5.4354C11.7138 5.42845 11.7104 5.42158 11.7069 5.41478C11.7034 5.40799 11.6998 5.40128 11.696 5.39465C11.6922 5.38804 11.6882 5.38151 11.6841 5.37507C11.6799 5.36865 11.6757 5.36232 11.6713 5.35609C11.6668 5.34986 11.6623 5.34374 11.6575 5.33772C11.6528 5.3317 11.648 5.32581 11.643 5.32003C11.638 5.31425 11.6329 5.30859 11.6276 5.30304C11.6223 5.29751 11.6169 5.29211 11.6114 5.28682C11.6059 5.28153 11.6003 5.27638 11.5945 5.27137C11.5887 5.26636 11.5829 5.26149 11.5769 5.25675C11.5709 5.25202 11.5647 5.24743 11.5585 5.24298C11.5523 5.23853 11.546 5.23424 11.5396 5.23009C11.5332 5.22594 11.5266 5.22196 11.52 5.21812C11.5134 5.21429 11.5067 5.21061 11.5 5.20709C11.4932 5.20358 11.4863 5.20023 11.4794 5.19703C11.4724 5.19384 11.4654 5.19082 11.4583 5.18796C11.4512 5.1851 11.4441 5.18241 11.4369 5.1799C11.4297 5.17738 11.4224 5.17503 11.4151 5.17286C11.4077 5.17069 11.4004 5.16869 11.393 5.16687C11.3855 5.16505 11.3781 5.1634 11.3706 5.16193C11.3631 5.16046 11.3556 5.15917 11.348 5.15806C11.3404 5.15694 11.3329 5.15601 11.3253 5.15526C11.3176 5.15451 11.31 5.15394 11.3024 5.15356Z"   fill="#5380FD" >
</path>
</svg>
