<svg xmlns="http://www.w3.org/2000/svg" xmlns:xlink="http://www.w3.org/1999/xlink" width="16" height="16" viewBox="0 0 16 16" fill="none">
<g  clip-path="url(#clip-path-30_13322)">
<path d="M15.4291 10.6525L14.3648 10.6525L14.3648 9.67995C14.3648 9.38242 14.1142 9.14087 13.8049 9.14087C13.4957 9.14087 13.245 9.38242 13.245 9.67995L13.245 10.6525L12.1893 10.6525C11.8811 10.6579 11.6347 10.8999 11.6348 11.1969C11.6348 11.4939 11.8811 11.736 12.1893 11.7413L13.2536 11.7413L13.2536 12.715C13.2536 13.0125 13.5042 13.254 13.8135 13.254C14.1227 13.254 14.3733 13.0125 14.3733 12.715L14.3733 11.7413L15.4371 11.7413C15.748 11.7387 15.9975 11.495 15.997 11.1959C15.9911 10.8973 15.74 10.6563 15.4296 10.652L15.4291 10.6525Z"   fill="#5380FD" >
</path>
<path d="M7.62062 15.9961C7.60852 15.9961 7.59642 15.9958 7.58434 15.995C7.57227 15.9944 7.5602 15.9935 7.54819 15.9919C7.53617 15.9905 7.5242 15.9886 7.5123 15.9865C7.50037 15.9844 7.48855 15.9819 7.47678 15.979C7.46503 15.9761 7.45337 15.9729 7.4418 15.9693C7.43023 15.9658 7.4188 15.9619 7.40747 15.9575C7.39614 15.9533 7.38494 15.9486 7.37389 15.9436C7.36284 15.9388 7.35195 15.9335 7.34122 15.9279L0.383912 12.2712C0.378392 12.2684 0.372922 12.2655 0.3675 12.2625C0.362078 12.2595 0.356709 12.2564 0.351392 12.2532C0.346073 12.2501 0.340813 12.2468 0.335606 12.2434C0.330398 12.2401 0.325248 12.2366 0.320158 12.2331C0.315067 12.2296 0.310037 12.226 0.305069 12.2222C0.300098 12.2185 0.295194 12.2148 0.290353 12.2109C0.285511 12.207 0.280736 12.2031 0.276028 12.199C0.271319 12.195 0.26668 12.1909 0.262109 12.1867C0.257539 12.1825 0.253041 12.1783 0.248616 12.174C0.244187 12.1696 0.239836 12.1652 0.235559 12.1607C0.231281 12.1563 0.22708 12.1517 0.222956 12.1471C0.218831 12.1424 0.214786 12.1378 0.21082 12.133C0.206855 12.1282 0.20297 12.1234 0.199167 12.1185C0.195362 12.1136 0.191642 12.1087 0.188006 12.1037C0.184369 12.0986 0.180819 12.0936 0.177355 12.0884C0.173889 12.0833 0.170511 12.0781 0.167222 12.0728C0.163931 12.0676 0.16073 12.0623 0.157619 12.0569C0.154507 12.0516 0.151487 12.0462 0.148558 12.0407C0.145629 12.0353 0.142793 12.0298 0.14005 12.0242C0.137307 12.0186 0.134658 12.013 0.132103 12.0074C0.129549 12.0017 0.12709 11.996 0.124728 11.9903C0.122365 11.9846 0.120099 11.9788 0.117931 11.973C0.115763 11.9672 0.113693 11.9614 0.111721 11.9555C0.10975 11.9496 0.107878 11.9437 0.106105 11.9378C0.104333 11.9319 0.102661 11.9259 0.10109 11.9199C0.0995186 11.9139 0.0980489 11.9079 0.0966805 11.9018C0.095312 11.8958 0.0940459 11.8897 0.0928819 11.8836C0.0917181 11.8776 0.090657 11.8715 0.0896987 11.8653C0.0887406 11.8592 0.0878859 11.8531 0.0871345 11.8469C0.0863833 11.8408 0.0857359 11.8346 0.0851923 11.8284C0.0846487 11.8223 0.0842094 11.8161 0.0838741 11.8099C0.0835387 11.8037 0.083308 11.7975 0.0831814 11.7913L8.42183e-07 4.35361C-9.97781e-06 4.34742 8.34601e-05 4.34125 0.000281156 4.33506C0.000478852 4.32889 0.000780692 4.32272 0.00118668 4.31655C0.00159266 4.31038 0.00210256 4.30422 0.00271637 4.29806C0.0033302 4.29191 0.00404758 4.28577 0.00486852 4.27964C0.00568947 4.27352 0.00661352 4.26741 0.00764066 4.26131C0.0086678 4.25522 0.00979745 4.24914 0.0110296 4.24308C0.0122618 4.23702 0.0135958 4.23099 0.0150316 4.22497C0.0164673 4.21897 0.0180041 4.21297 0.0196419 4.207C0.0212797 4.20105 0.0230177 4.19511 0.0248555 4.18921C0.0266934 4.18331 0.0286303 4.17744 0.0306662 4.1716C0.0327022 4.16577 0.0348361 4.15997 0.0370677 4.15419C0.0392994 4.14844 0.0416277 4.1427 0.0440525 4.13702C0.0464773 4.13133 0.0489973 4.12569 0.0516127 4.12008C0.054228 4.11449 0.0569369 4.10894 0.0597397 4.10342C0.0625425 4.09792 0.0654373 4.09245 0.0684242 4.08703C0.0714112 4.08163 0.0744886 4.07627 0.0776564 4.07096C0.0808242 4.06564 0.0840808 4.06039 0.0874258 4.05519C0.0907709 4.05 0.0942028 4.04486 0.0977212 4.03977C0.10124 4.03469 0.104843 4.02967 0.108531 4.02471C0.112219 4.01974 0.11599 4.01485 0.119843 4.01C0.123696 4.00517 0.12763 4.00041 0.131644 3.99571C0.135658 3.991 0.13975 3.98636 0.14392 3.9818C0.148091 3.97724 0.152337 3.97275 0.156659 3.96833C0.160981 3.96391 0.165377 3.95956 0.169845 3.95528C0.174314 3.95102 0.178853 3.94683 0.183464 3.94271C0.188073 3.93858 0.192752 3.93455 0.197498 3.93058C0.202244 3.92663 0.207056 3.92275 0.211934 3.91894C0.216811 3.91514 0.22175 3.91142 0.226753 3.9078C0.231756 3.90417 0.236819 3.90063 0.241941 3.89716C0.247062 3.89369 0.252242 3.89031 0.25748 3.88703C0.262714 3.88375 0.268005 3.88055 0.27335 3.87744C0.278694 3.87435 0.284087 3.87133 0.289534 3.86839L7.15833 0.0735443C7.33428 -0.0234998 7.55023 -0.0256326 7.72833 0.0682123L14.6862 3.72496C14.8691 3.82092 14.9837 4.00381 14.9864 4.20271L15.0269 7.06444C15.0306 7.36944 14.7752 7.62005 14.4553 7.62538L14.4329 7.62538C14.1156 7.62431 13.8576 7.38116 13.8533 7.07938L13.8197 4.71939C13.8195 4.71216 13.8191 4.70494 13.8185 4.69774C13.8178 4.69053 13.8169 4.68336 13.8157 4.67622C13.8146 4.66908 13.8132 4.66199 13.8116 4.65492C13.81 4.64788 13.8082 4.64089 13.8061 4.63396C13.804 4.62703 13.8017 4.62019 13.7991 4.61341C13.7966 4.60664 13.7938 4.59997 13.7908 4.59338C13.7878 4.5868 13.7846 4.58033 13.7812 4.57396C13.7777 4.56758 13.7741 4.56133 13.7702 4.55521C13.7664 4.54908 13.7623 4.5431 13.7581 4.53724C13.7538 4.53139 13.7494 4.52569 13.7448 4.52013C13.7401 4.51458 13.7353 4.50919 13.7303 4.50396C13.7253 4.49874 13.7201 4.49367 13.7148 4.48878C13.7095 4.48391 13.704 4.47921 13.6983 4.47469C13.6927 4.47019 13.6869 4.46586 13.6809 4.46174C13.675 4.45761 13.6689 4.45369 13.6627 4.44997C13.6565 4.44625 13.6502 4.44275 13.6437 4.43946L7.62542 1.277C7.61901 1.27364 7.61252 1.27049 7.60591 1.26754C7.5993 1.26458 7.59261 1.26184 7.58584 1.25929C7.57908 1.25675 7.57223 1.25442 7.56531 1.2523C7.55839 1.25018 7.55142 1.24827 7.54439 1.24658C7.53736 1.24488 7.53028 1.24341 7.52316 1.24215C7.51603 1.24089 7.50887 1.23986 7.50169 1.23904C7.4945 1.23822 7.4873 1.23762 7.48008 1.23725C7.47284 1.23687 7.46562 1.23672 7.45839 1.23679C7.45116 1.23686 7.44394 1.23715 7.43672 1.23766C7.4295 1.23818 7.42231 1.23891 7.41514 1.23987C7.40797 1.24082 7.40084 1.242 7.39373 1.24339C7.38664 1.24479 7.37959 1.2464 7.37259 1.24823C7.36559 1.25005 7.35866 1.25209 7.35178 1.25435C7.34492 1.2566 7.33812 1.25906 7.33139 1.26174C7.32467 1.26441 7.31805 1.26728 7.3115 1.27036C7.30495 1.27344 7.2985 1.27672 7.29217 1.2802L1.34902 4.5621C1.34265 4.56553 1.33641 4.56919 1.33029 4.57303C1.32416 4.57691 1.31818 4.58097 1.31233 4.58522C1.30648 4.58949 1.30078 4.59394 1.29524 4.5986C1.28969 4.60325 1.2843 4.60808 1.27908 4.61308C1.27386 4.6181 1.26881 4.62327 1.26394 4.62861C1.25907 4.63397 1.25438 4.63949 1.24988 4.64514C1.24538 4.65081 1.24107 4.65663 1.23696 4.66258C1.23285 4.66855 1.22895 4.67463 1.22525 4.68085C1.22155 4.68706 1.21806 4.69341 1.21479 4.69986C1.21152 4.70632 1.20847 4.71288 1.20564 4.71953C1.20281 4.72619 1.2002 4.73294 1.19783 4.73977C1.19545 4.74661 1.19331 4.75353 1.1914 4.7605C1.18949 4.76749 1.18782 4.77452 1.18639 4.78161C1.18495 4.78871 1.18376 4.79585 1.1828 4.80302C1.18185 4.81019 1.18114 4.81738 1.18067 4.8246C1.1802 4.83183 1.17997 4.83906 1.17999 4.84628L1.25038 11.2747C1.25198 11.392 1.31916 11.4986 1.42634 11.5551L7.44412 14.7192C7.54811 14.7741 7.67447 14.7725 7.77739 14.716L9.78972 13.6053C9.79527 13.6023 9.80086 13.5994 9.8065 13.5965C9.81214 13.5937 9.81781 13.591 9.82355 13.5883C9.82928 13.5856 9.83505 13.5831 9.84084 13.5806C9.84664 13.5781 9.85248 13.5757 9.85837 13.5734C9.86425 13.5711 9.87016 13.5689 9.87611 13.5668C9.88206 13.5647 9.88805 13.5627 9.89406 13.5607C9.90008 13.5588 9.90611 13.557 9.91219 13.5552C9.91825 13.5535 9.92434 13.5518 9.93047 13.5503C9.93658 13.5487 9.94272 13.5473 9.94889 13.5459C9.95506 13.5446 9.96125 13.5433 9.96745 13.5421C9.97366 13.541 9.97989 13.5399 9.98612 13.5389C9.99236 13.538 9.99861 13.5371 10.0049 13.5363C10.0111 13.5355 10.0174 13.5349 10.0237 13.5343C10.03 13.5337 10.0363 13.5332 10.0426 13.5328C10.0489 13.5325 10.0552 13.5322 10.0615 13.532C10.0678 13.5318 10.0741 13.5317 10.0805 13.5317C10.0868 13.5318 10.0931 13.5319 10.0994 13.5321C10.1057 13.5323 10.112 13.5326 10.1183 13.533C10.1246 13.5334 10.1309 13.5339 10.1372 13.5345C10.1435 13.5351 10.1497 13.5358 10.156 13.5366C10.1623 13.5374 10.1685 13.5383 10.1747 13.5393C10.181 13.5403 10.1872 13.5414 10.1934 13.5425C10.1996 13.5437 10.2058 13.545 10.212 13.5464C10.2181 13.5478 10.2242 13.5493 10.2304 13.5508C10.2365 13.5524 10.2426 13.5541 10.2486 13.5558C10.2547 13.5576 10.2607 13.5595 10.2667 13.5614C10.2727 13.5633 10.2787 13.5654 10.2847 13.5675C10.2906 13.5697 10.2965 13.5719 10.3024 13.5742C10.3082 13.5765 10.3141 13.579 10.3199 13.5815C10.3257 13.584 10.3314 13.5865 10.3372 13.5892C10.3429 13.5919 10.3485 13.5947 10.3542 13.5975C10.3598 13.6004 10.3654 13.6033 10.3709 13.6064C10.5511 13.7055 10.6615 13.889 10.6615 14.0863C10.661 14.2841 10.5495 14.467 10.3698 14.5656L7.91069 15.9221C7.8227 15.97 7.72247 15.9961 7.62062 15.9961Z"   fill="#5380FD" >
</path>
<path d="M7.75047 13.2535C7.74117 13.2535 7.73186 13.2533 7.72256 13.2528C7.71327 13.2524 7.70398 13.2517 7.69472 13.2508C7.68545 13.2499 7.6762 13.2488 7.667 13.2475C7.65778 13.2461 7.64861 13.2446 7.63947 13.2428C7.63033 13.241 7.62125 13.239 7.61222 13.2367C7.60317 13.2345 7.5942 13.232 7.58528 13.2293C7.57638 13.2267 7.56753 13.2238 7.55875 13.2207C7.54998 13.2175 7.54128 13.2142 7.53267 13.2107C7.52406 13.2072 7.51553 13.2034 7.50711 13.1995C7.49869 13.1955 7.49036 13.1913 7.48214 13.187C7.47391 13.1826 7.4658 13.1781 7.4578 13.1733C7.4498 13.1685 7.44192 13.1636 7.43416 13.1585C7.42639 13.1533 7.41877 13.148 7.41127 13.1425C7.40377 13.137 7.39641 13.1312 7.38919 13.1254C7.38197 13.1195 7.37489 13.1134 7.36797 13.1072C7.36105 13.101 7.35428 13.0946 7.34767 13.088C7.34106 13.0815 7.33461 13.0748 7.32833 13.0679C7.32205 13.061 7.31594 13.054 7.31 13.0468C7.30406 13.0397 7.2983 13.0324 7.29272 13.0249C7.28714 13.0175 7.28175 13.0099 7.27655 13.0022C7.27134 12.9945 7.26631 12.9866 7.26148 12.9787C7.25666 12.9707 7.25203 12.9626 7.24761 12.9544C7.24317 12.9462 7.23894 12.9379 7.23492 12.9295C7.23091 12.9212 7.22708 12.9127 7.22347 12.9041C7.21986 12.8955 7.21647 12.8868 7.21328 12.8781C7.21009 12.8693 7.20713 12.8605 7.20438 12.8516C7.20162 12.8427 7.19909 12.8338 7.19678 12.8248C7.19447 12.8158 7.19237 12.8067 7.1905 12.7976C7.18862 12.7884 7.18698 12.7793 7.18556 12.7701C7.18414 12.7609 7.18294 12.7517 7.18197 12.7424C7.181 12.7331 7.18025 12.7239 7.17973 12.7146C7.17922 12.7053 7.17894 12.696 7.17887 12.6867L7.17887 8.61294C7.17884 8.60561 7.17856 8.5983 7.17805 8.591C7.17753 8.5837 7.17678 8.57642 7.17578 8.56916C7.17478 8.56191 7.17355 8.5547 7.17206 8.54753C7.17058 8.54036 7.16887 8.53323 7.16692 8.52617C7.16497 8.51912 7.1628 8.51214 7.16039 8.50522C7.15797 8.4983 7.15533 8.49147 7.15247 8.48473C7.14961 8.478 7.14653 8.47136 7.14322 8.46483C7.13992 8.45828 7.13641 8.45186 7.13269 8.44556C7.12895 8.43927 7.12503 8.43309 7.12089 8.42705C7.11675 8.421 7.11241 8.41511 7.10789 8.40936C7.10336 8.40359 7.09864 8.398 7.09375 8.39256C7.08886 8.38711 7.08378 8.38184 7.07853 8.37673C7.07328 8.37162 7.06787 8.3667 7.0623 8.36195C7.05672 8.3572 7.051 8.35264 7.04513 8.34827C7.03925 8.34391 7.03323 8.33973 7.02708 8.33577C7.02092 8.3318 7.01464 8.32803 7.00825 8.32447L3.19953 6.19697C3.19129 6.19239 3.18317 6.18761 3.17517 6.18263C3.16717 6.17764 3.1593 6.17245 3.15156 6.16708C3.14383 6.16169 3.13622 6.15613 3.12875 6.15038C3.12129 6.14462 3.11398 6.13868 3.1068 6.13256C3.09963 6.12644 3.09262 6.12014 3.08577 6.11367C3.0789 6.1072 3.07221 6.10057 3.06569 6.09377C3.05916 6.08697 3.0528 6.08001 3.04663 6.07289C3.04045 6.06578 3.03445 6.05851 3.02863 6.0511C3.0228 6.04368 3.01717 6.03612 3.01174 6.02842C3.00629 6.02073 3.00104 6.0129 2.99599 6.00494C2.99093 5.99698 2.98609 5.9889 2.98144 5.9807C2.97678 5.97251 2.97234 5.9642 2.9681 5.95578C2.96386 5.94737 2.95983 5.93885 2.95602 5.93022C2.95221 5.9216 2.94861 5.91289 2.94522 5.9041C2.94185 5.89529 2.93869 5.88641 2.93575 5.87745C2.9328 5.8685 2.93009 5.85948 2.9276 5.85039C2.92515 5.84132 2.92293 5.83219 2.92094 5.82302C2.91895 5.81384 2.91719 5.80462 2.91567 5.79535C2.91414 5.78608 2.91285 5.77677 2.9118 5.76744C2.91074 5.75812 2.90991 5.74877 2.90931 5.73939C2.90872 5.73002 2.90837 5.72063 2.90825 5.71124C2.90813 5.70185 2.90824 5.69247 2.9086 5.68308C2.90895 5.67369 2.90954 5.66432 2.91036 5.65495C2.91118 5.6456 2.91224 5.63627 2.91353 5.62697C2.91481 5.61767 2.91634 5.6084 2.9181 5.59917C2.91985 5.58995 2.92183 5.58078 2.92405 5.57164C2.92627 5.56252 2.92871 5.55345 2.93138 5.54445C2.93404 5.53544 2.93694 5.52651 2.94006 5.51766C2.94318 5.50879 2.94652 5.50002 2.95008 5.49133C2.95363 5.48263 2.95741 5.47403 2.96141 5.46553C2.9654 5.45703 2.9696 5.44864 2.974 5.44035C2.97842 5.43205 2.98304 5.42388 2.98786 5.41581L3.05238 5.30599C3.2102 5.04044 3.55466 4.94874 3.82553 5.10069L7.59264 7.20847C7.59889 7.21197 7.60525 7.21527 7.61172 7.21834C7.61817 7.22144 7.62473 7.22433 7.63137 7.227C7.63802 7.22967 7.64475 7.23212 7.65155 7.23438C7.65834 7.23661 7.66522 7.23864 7.67214 7.24045C7.67908 7.24225 7.68606 7.24384 7.69309 7.2452C7.70012 7.24656 7.70719 7.24769 7.7143 7.24861C7.72141 7.24952 7.72853 7.2502 7.73567 7.25066C7.74281 7.25111 7.74997 7.25134 7.75714 7.25134C7.76431 7.25134 7.77147 7.25111 7.77861 7.25066C7.78575 7.2502 7.79288 7.24952 7.79998 7.24861C7.80709 7.2477 7.81416 7.24656 7.82119 7.2452C7.82822 7.24384 7.8352 7.24225 7.84214 7.24045C7.84906 7.23864 7.85594 7.23661 7.86273 7.23438C7.86953 7.23212 7.87627 7.22967 7.88291 7.227C7.88955 7.22433 7.89611 7.22144 7.90256 7.21834C7.90903 7.21527 7.91539 7.21197 7.92164 7.20847L11.685 5.10069C11.6931 5.09619 11.7012 5.09188 11.7095 5.08777C11.7177 5.08365 11.7261 5.07974 11.7345 5.07603C11.743 5.07231 11.7515 5.06881 11.7601 5.06552C11.7687 5.06221 11.7774 5.05912 11.7862 5.05624C11.7949 5.05336 11.8037 5.05069 11.8126 5.04824C11.8215 5.04578 11.8305 5.04353 11.8395 5.0415C11.8485 5.03948 11.8575 5.03767 11.8666 5.03608C11.8757 5.03449 11.8848 5.03312 11.8939 5.03197C11.9031 5.03081 11.9122 5.02988 11.9214 5.02917C11.9306 5.02847 11.9398 5.02798 11.9491 5.02772C11.9583 5.02745 11.9675 5.0274 11.9767 5.02758C11.9859 5.02776 11.9952 5.02816 12.0044 5.02878C12.0136 5.02941 12.0227 5.03025 12.0319 5.03131C12.0411 5.03238 12.0502 5.03366 12.0593 5.03517C12.0684 5.03667 12.0774 5.03839 12.0865 5.04033C12.0955 5.04228 12.1044 5.04443 12.1133 5.0468C12.1222 5.04917 12.1311 5.05176 12.1399 5.05456C12.1487 5.05736 12.1574 5.06036 12.166 5.06358C12.1747 5.0668 12.1832 5.07023 12.1917 5.07386C12.2002 5.0775 12.2086 5.08133 12.2169 5.08536C12.2252 5.08939 12.2334 5.09362 12.2414 5.09805C12.2495 5.10249 12.2575 5.10711 12.2654 5.11192C12.2732 5.11674 12.281 5.12174 12.2886 5.12692C12.2962 5.13211 12.3037 5.13748 12.3111 5.14302C12.3185 5.14857 12.3257 5.15429 12.3328 5.16019C12.3399 5.16608 12.3468 5.17215 12.3536 5.17838C12.3604 5.18461 12.3671 5.191 12.3735 5.19755C12.38 5.2041 12.3864 5.2108 12.3925 5.21766C12.3987 5.22451 12.4047 5.23151 12.4105 5.23866C12.4164 5.2458 12.422 5.25308 12.4275 5.2605C12.433 5.26792 12.4383 5.27547 12.4434 5.28314C12.4485 5.29081 12.4534 5.2986 12.4582 5.30652L12.5232 5.41581C12.6016 5.54699 12.6229 5.70375 12.5835 5.85039C12.5435 5.99755 12.4459 6.12231 12.3121 6.19697L8.6372 8.25356C8.63078 8.25711 8.6245 8.26087 8.61834 8.26486C8.61217 8.26884 8.60616 8.27302 8.60028 8.27739C8.59439 8.28176 8.58866 8.28633 8.58308 8.29109C8.5775 8.29586 8.57208 8.3008 8.56683 8.30591C8.56156 8.31102 8.55648 8.31631 8.55159 8.32177C8.54669 8.32722 8.54197 8.33283 8.53744 8.33859C8.53291 8.34436 8.52858 8.35028 8.52444 8.35633C8.5203 8.36238 8.51637 8.36856 8.51264 8.37488C8.50891 8.3812 8.50539 8.38762 8.50209 8.39417C8.4988 8.40072 8.4957 8.40738 8.49284 8.41413C8.48998 8.42088 8.48736 8.42772 8.48494 8.43464C8.48253 8.44156 8.48036 8.44856 8.47842 8.45564C8.47647 8.46272 8.47477 8.46984 8.4733 8.47703C8.47183 8.48422 8.47059 8.49144 8.46961 8.4987C8.46862 8.50597 8.46787 8.51327 8.46736 8.52058C8.46686 8.52791 8.46659 8.53523 8.46658 8.54256L8.46658 12.6872C8.46652 12.6965 8.46622 12.7058 8.4657 12.7151C8.46519 12.7244 8.46445 12.7336 8.46348 12.7429C8.46251 12.7521 8.46131 12.7614 8.45989 12.7706C8.45847 12.7798 8.45683 12.7889 8.45497 12.798C8.45309 12.8071 8.451 12.8162 8.44869 12.8252C8.44637 12.8342 8.44384 12.8432 8.44109 12.8521C8.43836 12.861 8.43539 12.8698 8.4322 12.8785C8.42903 12.8872 8.42564 12.8959 8.42203 12.9045C8.41842 12.9131 8.41461 12.9216 8.41059 12.93C8.40658 12.9383 8.40234 12.9466 8.39792 12.9548C8.3935 12.963 8.38888 12.9711 8.38405 12.979C8.37923 12.987 8.37422 12.9948 8.36901 13.0025C8.36381 13.0102 8.35844 13.0178 8.35286 13.0253C8.34728 13.0327 8.34152 13.04 8.33559 13.0472C8.32967 13.0544 8.32356 13.0614 8.31728 13.0682C8.31102 13.0751 8.30458 13.0818 8.29797 13.0884C8.29136 13.0949 8.28461 13.1013 8.27769 13.1076C8.27077 13.1138 8.2637 13.1198 8.2565 13.1257C8.24928 13.1316 8.24192 13.1373 8.23444 13.1428C8.22695 13.1483 8.21933 13.1537 8.21158 13.1588C8.20383 13.1639 8.19595 13.1689 8.18795 13.1737C8.17997 13.1784 8.17186 13.183 8.16364 13.1873C8.15542 13.1917 8.14711 13.1959 8.13869 13.1998C8.13027 13.2038 8.12175 13.2075 8.11314 13.2111C8.10453 13.2146 8.09586 13.2179 8.08709 13.221C8.07833 13.2242 8.06948 13.2271 8.06058 13.2297C8.05167 13.2324 8.0427 13.2349 8.03367 13.2371C8.02464 13.2394 8.01556 13.2414 8.00644 13.2432C7.9973 13.245 7.98814 13.2466 7.97894 13.2479C7.96973 13.2493 7.9605 13.2504 7.95123 13.2513C7.94197 13.2522 7.9327 13.2529 7.92341 13.2533C7.91411 13.2538 7.90481 13.254 7.8955 13.254L7.75047 13.254L7.75047 13.2535Z"   fill="#5380FD" >
</path>
</g>
<defs>
<clipPath id="clip-path-30_13322">
<path d="M0 16L16 16L16 0L0 0L0 16Z" fill="white"/>
</clipPath>
</defs>
</svg>
