<svg xmlns="http://www.w3.org/2000/svg" xmlns:xlink="http://www.w3.org/1999/xlink" width="14" height="14" viewBox="0 0 14 14" fill="none">
<path d="M8.21593 9.26838C8.28018 9.20163 8.34232 9.13296 8.40234 9.06237C8.46236 8.99178 8.52015 8.91942 8.57569 8.84526C8.63124 8.7711 8.68445 8.6953 8.73531 8.61786C8.78617 8.54042 8.83459 8.46148 8.88058 8.38105C8.92658 8.3006 8.97004 8.21883 9.01097 8.1357C9.0519 8.05258 9.09024 7.96828 9.12597 7.8828C9.16171 7.79731 9.19476 7.71081 9.22514 7.62328C9.25552 7.53574 9.28318 7.44735 9.3081 7.35813C9.33304 7.26888 9.35519 7.17896 9.37455 7.08836C9.39392 6.99774 9.41048 6.90663 9.42422 6.81502C9.43796 6.72339 9.44885 6.63142 9.45692 6.53912C9.46499 6.4468 9.47018 6.35434 9.47254 6.26173C9.47489 6.1691 9.47438 6.07649 9.471 5.9839C9.46764 5.8913 9.46141 5.79891 9.45233 5.70671C9.44325 5.61449 9.43134 5.52265 9.41658 5.43119C9.40184 5.33971 9.38427 5.24878 9.3639 5.15839C9.34353 5.06801 9.32039 4.97834 9.29447 4.88939C9.26858 4.80042 9.23995 4.71235 9.20859 4.62516C9.17725 4.53796 9.14323 4.45183 9.10655 4.36675C9.06988 4.28166 9.03063 4.19778 8.98877 4.11512C8.94693 4.03246 8.90257 3.95117 8.85569 3.87126C8.80882 3.79133 8.75952 3.71292 8.7078 3.63604C8.65609 3.55917 8.60205 3.48396 8.54569 3.41043C8.48934 3.33688 8.43075 3.26515 8.36995 3.19524C8.30917 3.12532 8.24628 3.05734 8.18128 2.9913C8.11628 2.92527 8.04932 2.8613 7.98037 2.7994C7.91144 2.73751 7.84065 2.67779 7.76801 2.62026C7.69538 2.56274 7.62103 2.50751 7.54499 2.45457C7.46895 2.40164 7.39135 2.35111 7.31217 2.30296C7.23301 2.25483 7.15244 2.20918 7.07045 2.16601C6.98848 2.12286 6.90523 2.08226 6.82074 2.04424C6.73625 2.00622 6.65066 1.97085 6.56398 1.93812C6.4773 1.90538 6.38969 1.87535 6.30115 1.84803C6.21263 1.82071 6.12334 1.79614 6.03328 1.77434C5.94324 1.75253 5.85259 1.73352 5.76137 1.71732C5.67015 1.70111 5.57851 1.68773 5.48646 1.67719C5.39441 1.66664 5.30212 1.65895 5.20959 1.65411C5.11706 1.64926 5.02447 1.64727 4.93182 1.64815C4.83918 1.64902 4.74665 1.65276 4.65422 1.65935C4.5618 1.66594 4.46968 1.67537 4.37785 1.68765C4.28601 1.69993 4.19464 1.71504 4.10374 1.73297C4.01284 1.75089 3.92257 1.7716 3.83294 1.79511C3.74332 1.81861 3.65451 1.84485 3.5665 1.87385C3.47851 1.90283 3.39149 1.9345 3.30544 1.96887C3.21939 2.00323 3.13449 2.04021 3.05073 2.07983C2.96698 2.11944 2.88451 2.16159 2.80335 2.20629C2.7222 2.25099 2.6425 2.29815 2.56426 2.34778C2.48602 2.39741 2.40937 2.4494 2.33434 2.50376C2.25931 2.55812 2.18603 2.61474 2.1145 2.67362C2.04296 2.73251 1.97332 2.79355 1.90555 2.85674C1.83779 2.91993 1.77205 2.98514 1.70831 3.05241C1.64457 3.11964 1.58297 3.1888 1.52352 3.25986C1.46406 3.3309 1.40684 3.40373 1.35187 3.47833C1.29691 3.55291 1.2443 3.62913 1.19404 3.70697C1.14379 3.78481 1.09598 3.86412 1.05062 3.94492C1.00527 4.02571 0.962449 4.10782 0.922165 4.19126C0.881881 4.27469 0.844209 4.35929 0.809152 4.44506C0.774095 4.53083 0.741717 4.61759 0.712019 4.70536C0.682321 4.79312 0.65536 4.88172 0.631133 4.97116C0.606909 5.06057 0.585467 5.15067 0.566806 5.24142C0.548147 5.33218 0.532305 5.42342 0.519281 5.51516C0.506259 5.60689 0.496078 5.69894 0.488741 5.79131C0.481404 5.88366 0.476924 5.97616 0.4753 6.0688C0.473677 6.16145 0.474914 6.25405 0.479011 6.34662C0.483108 6.43918 0.490057 6.53152 0.499859 6.62365C0.50966 6.71579 0.522295 6.80752 0.537764 6.89888C0.553234 6.99023 0.571507 7.08102 0.592583 7.17125C0.613661 7.26147 0.637502 7.35095 0.664106 7.43971C0.690711 7.52846 0.72003 7.6163 0.752061 7.70325C0.784094 7.79019 0.818778 7.87606 0.856113 7.96086C0.893449 8.04565 0.933366 8.12922 0.975864 8.21156C1.01836 8.29389 1.06336 8.37483 1.11086 8.45438C1.15836 8.53393 1.20826 8.61194 1.26058 8.6884C1.3129 8.76487 1.36753 8.83966 1.42447 8.91276C1.4814 8.98585 1.54053 9.05711 1.60187 9.12656C1.66321 9.196 1.72664 9.26348 1.79214 9.32901C1.85766 9.39453 1.92511 9.45797 1.99454 9.51933C2.06396 9.58069 2.13522 9.63983 2.2083 9.69679C2.28139 9.75374 2.35616 9.80839 2.43261 9.86073C2.50907 9.91306 2.58706 9.96299 2.66661 10.0105C2.74615 10.058 2.82709 10.103 2.90941 10.1456C2.99172 10.1881 3.07527 10.228 3.16007 10.2654C3.24486 10.3027 3.33072 10.3374 3.41764 10.3695C3.50458 10.4015 3.59243 10.4309 3.68116 10.4575C3.76991 10.4841 3.8594 10.508 3.9496 10.5291C4.03984 10.5502 4.13062 10.5685 4.22196 10.584C4.31332 10.5995 4.40505 10.6121 4.49718 10.622C4.58931 10.6318 4.68166 10.6388 4.77422 10.6429C4.86678 10.647 4.95938 10.6483 5.05202 10.6467C5.14466 10.645 5.23717 10.6406 5.32952 10.6333C5.42189 10.626 5.51394 10.6158 5.60568 10.6028C5.69742 10.5898 5.78866 10.574 5.87942 10.5554C5.97018 10.5367 6.06028 10.5153 6.14971 10.4911C6.23915 10.4669 6.32776 10.4399 6.41553 10.4103C6.5033 10.3806 6.59007 10.3482 6.67584 10.3132C6.76162 10.2782 6.84624 10.2405 6.92968 10.2003L8.29468 12.0312C8.30266 12.0412 8.31086 12.051 8.31931 12.0606C8.32776 12.0702 8.33644 12.0796 8.34534 12.0888C8.35426 12.098 8.36338 12.1069 8.3727 12.1157C8.38204 12.1244 8.39157 12.133 8.4013 12.1413C8.41105 12.1495 8.42099 12.1576 8.43112 12.1654C8.44125 12.1732 8.45156 12.1808 8.46205 12.1881C8.47255 12.1954 8.48321 12.2025 8.49404 12.2093C8.50487 12.2161 8.51586 12.2226 8.527 12.2289C8.53816 12.2352 8.54945 12.2412 8.56088 12.2469C8.57231 12.2527 8.58388 12.2581 8.59558 12.2633C8.60728 12.2685 8.61909 12.2734 8.63102 12.278C8.64295 12.2826 8.655 12.2869 8.66714 12.291C8.67928 12.295 8.6915 12.2987 8.70382 12.3022C8.71615 12.3056 8.72854 12.3088 8.74101 12.3116C8.75348 12.3144 8.76601 12.317 8.7786 12.3192C8.79121 12.3215 8.80384 12.3234 8.81653 12.3251C8.82922 12.3267 8.84195 12.328 8.85469 12.3291C8.86744 12.3301 8.88021 12.3308 8.893 12.3312C8.90579 12.3316 8.91858 12.3317 8.93136 12.3315C8.94416 12.3313 8.95693 12.3308 8.9697 12.33C8.98247 12.3292 8.99521 12.3281 9.00791 12.3267C9.02063 12.3252 9.0333 12.3235 9.04593 12.3215C9.05856 12.3194 9.07114 12.3171 9.08365 12.3144C9.09618 12.3118 9.10862 12.3089 9.12099 12.3056C9.13338 12.3024 9.14567 12.2988 9.15786 12.295C9.17007 12.2912 9.18217 12.2871 9.19417 12.2827C9.20619 12.2782 9.21809 12.2735 9.22986 12.2686C9.24164 12.2636 9.25331 12.2583 9.26483 12.2528C9.27637 12.2472 9.28776 12.2414 9.299 12.2353C9.31025 12.2292 9.32135 12.2229 9.33229 12.2162C9.34324 12.2096 9.35401 12.2027 9.36462 12.1956C9.37523 12.1884 9.38568 12.181 9.39593 12.1734C9.40619 12.1658 9.41626 12.1579 9.42613 12.1497C9.43602 12.1416 9.4457 12.1333 9.45516 12.1247C9.46465 12.1161 9.4739 12.1072 9.48295 12.0982C9.492 12.0892 9.50084 12.0799 9.50945 12.0705C9.51806 12.061 9.52643 12.0513 9.53456 12.0415C9.54271 12.0316 9.55061 12.0215 9.55827 12.0113C9.56594 12.001 9.57335 11.9906 9.5805 11.98C9.58766 11.9694 9.59457 11.9586 9.6012 11.9477C9.60785 11.9368 9.61423 11.9257 9.62033 11.9145C9.62644 11.9032 9.63228 11.8918 9.63783 11.8803C9.6434 11.8688 9.64868 11.8571 9.65367 11.8454C9.65868 11.8336 9.66339 11.8217 9.66782 11.8097C9.67225 11.7977 9.6764 11.7856 9.68024 11.7734C9.68409 11.7612 9.68765 11.7489 9.6909 11.7365C9.69416 11.7242 9.69712 11.7117 9.69977 11.6992C9.70244 11.6867 9.70481 11.6741 9.70686 11.6615C9.70891 11.6489 9.71066 11.6362 9.71211 11.6235C9.71356 11.6108 9.7147 11.5981 9.71552 11.5853C9.71637 11.5725 9.71689 11.5598 9.71711 11.547C9.71733 11.5342 9.71725 11.5214 9.71685 11.5086C9.71645 11.4958 9.71576 11.483 9.71475 11.4703C9.71373 11.4575 9.71242 11.4448 9.71081 11.4321C9.70919 11.4194 9.70727 11.4068 9.70504 11.3942C9.70281 11.3816 9.70028 11.3691 9.69745 11.3566C9.69462 11.3441 9.69149 11.3317 9.68806 11.3194C9.68464 11.307 9.68092 11.2948 9.6769 11.2827C9.6729 11.2705 9.66859 11.2585 9.664 11.2465C9.6594 11.2346 9.65453 11.2228 9.64937 11.2111C9.6442 11.1994 9.63876 11.1878 9.63304 11.1764C9.62733 11.1649 9.62134 11.1536 9.61508 11.1425C9.60882 11.1313 9.60229 11.1203 9.5955 11.1095C9.58872 11.0986 9.58166 11.0879 9.57436 11.0774L8.21593 9.26838ZM1.53093 6.14025C1.53078 6.08382 1.53202 6.02742 1.53465 5.97106C1.53728 5.91468 1.54129 5.85842 1.54668 5.80226C1.55207 5.74608 1.55883 5.69008 1.56697 5.63424C1.57511 5.57841 1.58461 5.52279 1.59549 5.46742C1.60635 5.41205 1.61857 5.35698 1.63214 5.30221C1.64572 5.24744 1.66063 5.19303 1.67688 5.13899C1.69312 5.08495 1.71068 5.03134 1.72957 4.97817C1.74844 4.92499 1.76861 4.87231 1.79008 4.82012C1.81154 4.76793 1.83428 4.7163 1.85827 4.66524C1.88228 4.61416 1.90752 4.56371 1.93399 4.51389C1.96047 4.46406 1.98815 4.4149 2.01704 4.36644C2.04593 4.31796 2.076 4.27023 2.10722 4.22324C2.13846 4.17623 2.17084 4.13002 2.20433 4.08463C2.23784 4.03922 2.27243 3.99466 2.30812 3.95096C2.34381 3.90725 2.38056 3.86445 2.41835 3.82254C2.45614 3.78064 2.49494 3.73969 2.53474 3.69969C2.57455 3.65968 2.61531 3.62069 2.65702 3.5827C2.69875 3.5447 2.74138 3.50776 2.78491 3.47186C2.82844 3.43596 2.87283 3.40113 2.91807 3.36742C2.96331 3.33369 3.00936 3.3011 3.0562 3.26964C3.10304 3.23817 3.15063 3.20787 3.19896 3.17875C3.24729 3.14963 3.29631 3.1217 3.346 3.09498C3.39571 3.06827 3.44604 3.04278 3.49698 3.01853C3.54795 2.99428 3.59947 2.9713 3.65154 2.94958C3.70363 2.92786 3.75621 2.90743 3.80929 2.8883C3.86238 2.86916 3.9159 2.85133 3.96985 2.83483C4.02383 2.81832 4.07816 2.80315 4.13285 2.78931C4.18756 2.77547 4.24258 2.76298 4.29789 2.75184C4.35321 2.7407 4.40877 2.73093 4.46457 2.72251C4.52036 2.7141 4.57634 2.70706 4.63247 2.7014C4.68862 2.69574 4.74487 2.69146 4.80122 2.68857C4.85758 2.68567 4.91398 2.68415 4.9704 2.68401C5.02684 2.68389 5.08323 2.68514 5.13959 2.68777C5.19596 2.69042 5.25223 2.69444 5.3084 2.69983C5.36456 2.70524 5.42056 2.71201 5.4764 2.72016C5.53223 2.72831 5.58784 2.73783 5.64321 2.74871C5.69858 2.75959 5.75365 2.77183 5.80842 2.78542C5.86319 2.799 5.91759 2.81392 5.97162 2.83018C6.02566 2.84643 6.07927 2.864 6.13244 2.8829C6.18562 2.90178 6.2383 2.92196 6.29047 2.94344C6.34266 2.96491 6.39428 2.98766 6.44534 3.01167C6.49641 3.03569 6.54686 3.06092 6.59668 3.08742C6.6465 3.1139 6.69565 3.1416 6.74412 3.1705C6.79259 3.19941 6.84032 3.22947 6.88729 3.26072C6.9343 3.29197 6.98049 3.32434 7.02588 3.35786C7.07128 3.39136 7.11583 3.42596 7.15953 3.46167C7.20322 3.49737 7.24603 3.53412 7.28792 3.57192C7.32981 3.60973 7.37076 3.64854 7.41075 3.68835C7.45074 3.72817 7.48973 3.76894 7.52771 3.81066C7.5657 3.85239 7.60265 3.89502 7.63853 3.93856C7.67444 3.98209 7.70923 4.02649 7.74295 4.07174C7.77666 4.11699 7.80926 4.16304 7.8407 4.20989C7.87215 4.25673 7.90243 4.30433 7.93155 4.35267C7.96067 4.40101 7.98858 4.45003 8.01529 4.49974C8.04201 4.54945 8.06748 4.59978 8.0917 4.65074C8.11594 4.70169 8.13891 4.75321 8.16062 4.8053C8.18233 4.85739 8.20276 4.90998 8.22187 4.96306C8.241 5.01615 8.25881 5.06968 8.2753 5.12364C8.2918 5.1776 8.30697 5.23194 8.32079 5.28665C8.33462 5.34135 8.34709 5.39637 8.35822 5.4517C8.36935 5.50701 8.37911 5.56256 8.38751 5.61837C8.39592 5.67417 8.40294 5.73014 8.40859 5.78629C8.41425 5.84243 8.41852 5.89869 8.4214 5.95504C8.4243 6.0114 8.4258 6.06778 8.42591 6.12422C8.42603 6.18064 8.42476 6.23704 8.42211 6.29341C8.41946 6.34976 8.41543 6.40603 8.41001 6.46221C8.40461 6.51838 8.39783 6.57438 8.38965 6.63021C8.38149 6.68605 8.37196 6.74164 8.36107 6.79701C8.35018 6.85238 8.33793 6.90745 8.32433 6.96222C8.31074 7.01698 8.29581 7.07138 8.27954 7.12541C8.26327 7.17944 8.24569 7.23303 8.22678 7.28622C8.20789 7.33937 8.18769 7.39205 8.1662 7.44424C8.14472 7.49641 8.12197 7.54803 8.09795 7.5991C8.07393 7.65015 8.04866 7.7006 8.02217 7.75042C7.99567 7.80024 7.96797 7.84937 7.93906 7.89783C7.91015 7.94628 7.88006 7.99401 7.84881 8.041C7.81755 8.08798 7.78517 8.13416 7.75164 8.17955C7.71812 8.22494 7.6835 8.26948 7.64779 8.31318C7.61208 8.35687 7.57533 8.39965 7.53751 8.44154C7.4997 8.48343 7.46088 8.52437 7.42107 8.56436C7.38126 8.60434 7.34047 8.64331 7.29873 8.6813C7.25701 8.71928 7.21436 8.7562 7.17081 8.79209C7.12726 8.82797 7.08286 8.86276 7.0376 8.89648C6.99235 8.93018 6.9463 8.96274 6.89943 8.99419C6.85258 9.02563 6.80497 9.0559 6.75663 9.08501C6.70829 9.11412 6.65926 9.14202 6.60955 9.16872C6.55984 9.19541 6.5095 9.22088 6.45853 9.24511C6.40757 9.26934 6.35604 9.29229 6.30395 9.31399C6.25186 9.33569 6.19928 9.3561 6.14618 9.37521C6.09309 9.39432 6.03957 9.41212 5.98559 9.42861C5.93163 9.44509 5.87728 9.46024 5.82257 9.47406C5.76787 9.48787 5.71285 9.50034 5.65752 9.51147C5.6022 9.52257 5.54664 9.53233 5.49083 9.54072C5.43504 9.5491 5.37907 9.55612 5.32292 9.56175C5.26678 9.56738 5.21052 9.57165 5.15416 9.57453C5.09781 9.5774 5.04143 9.57889 4.98499 9.579C4.92861 9.57903 4.87226 9.57769 4.81595 9.57497C4.75965 9.57224 4.70343 9.56813 4.64731 9.56267C4.5912 9.55718 4.53527 9.55033 4.47948 9.54212C4.4237 9.53389 4.36817 9.52432 4.31285 9.51338C4.25755 9.50243 4.20255 9.49014 4.14785 9.47651C4.09314 9.46286 4.0388 9.4479 3.98482 9.43161C3.93086 9.4153 3.87732 9.39769 3.8242 9.37877C3.7711 9.35984 3.71848 9.33962 3.66636 9.31813C3.61425 9.29663 3.56269 9.27386 3.51168 9.24984C3.46068 9.22581 3.4103 9.20055 3.36054 9.17406C3.31077 9.14756 3.26169 9.11986 3.21328 9.09096C3.16488 9.06206 3.1172 9.03198 3.07026 9.00075C3.02333 8.96951 2.97719 8.93715 2.93184 8.90365C2.88649 8.87016 2.84199 8.83557 2.79834 8.7999C2.75468 8.76422 2.71193 8.72748 2.67007 8.68972C2.62822 8.65194 2.58731 8.61317 2.54736 8.5734C2.50741 8.53361 2.46845 8.49287 2.43049 8.4512C2.39254 8.4095 2.35563 8.36691 2.31975 8.32342C2.28388 8.27992 2.2491 8.23558 2.21539 8.19038C2.18169 8.14518 2.14911 8.09917 2.11767 8.05239C2.08622 8.00559 2.05595 7.95805 2.02683 7.90978C1.99772 7.86149 1.96981 7.81253 1.94308 7.76289C1.91636 7.71324 1.89088 7.66297 1.86662 7.61209C1.84237 7.56119 1.81938 7.50972 1.79765 7.4577C1.77592 7.40567 1.75548 7.35315 1.73632 7.30013C1.71716 7.24712 1.69931 7.19364 1.68277 7.13975C1.66623 7.08586 1.65103 7.03158 1.63715 6.97695C1.62326 6.92229 1.61073 6.86734 1.59955 6.81209C1.58836 6.75683 1.57853 6.70132 1.57006 6.64559C1.56159 6.58984 1.55449 6.53394 1.54877 6.47785C1.54304 6.42176 1.53869 6.36557 1.53571 6.30927C1.53274 6.25296 1.53115 6.19662 1.53093 6.14025ZM12.8753 3.57432C12.8834 3.57341 12.8914 3.57233 12.8994 3.57108C12.9075 3.5698 12.9154 3.56836 12.9234 3.56673C12.9313 3.56509 12.9393 3.56328 12.9471 3.56129C12.955 3.55929 12.9628 3.55713 12.9706 3.55478C12.9784 3.55243 12.9861 3.54991 12.9937 3.54722C13.0014 3.54451 13.009 3.54163 13.0165 3.53859C13.024 3.53554 13.0315 3.53233 13.0388 3.52894C13.0462 3.52555 13.0535 3.52201 13.0607 3.51829C13.068 3.51457 13.0751 3.51069 13.0821 3.50664C13.0892 3.50259 13.0961 3.49838 13.103 3.49404C13.1098 3.48966 13.1165 3.48515 13.1232 3.48049C13.1298 3.47581 13.1364 3.471 13.1428 3.46604C13.1492 3.46106 13.1555 3.45595 13.1617 3.4507C13.1679 3.44545 13.1739 3.44004 13.1799 3.43452C13.1858 3.42898 13.1916 3.42332 13.1973 3.41753C13.203 3.41173 13.2086 3.4058 13.214 3.39975C13.2194 3.39371 13.2247 3.38755 13.2298 3.38126C13.2349 3.37495 13.2399 3.36854 13.2447 3.36203C13.2496 3.35551 13.2543 3.34889 13.2588 3.34217C13.2633 3.33543 13.2677 3.32859 13.2719 3.32167C13.2762 3.31473 13.2802 3.3077 13.2841 3.30059C13.2881 3.29347 13.2918 3.28626 13.2954 3.27899C13.299 3.27169 13.3024 3.26433 13.3056 3.2569C13.3088 3.24945 13.3119 3.24193 13.3148 3.23435C13.3177 3.22676 13.3204 3.21912 13.323 3.21141C13.3255 3.2037 13.3279 3.19595 13.3301 3.18813C13.3323 3.18031 13.3343 3.17245 13.3361 3.16454C13.338 3.15663 13.3396 3.14868 13.3411 3.14071C13.3426 3.13273 13.3439 3.1247 13.345 3.11666C13.3461 3.10862 13.347 3.10056 13.3477 3.09248C13.3485 3.08438 13.349 3.07629 13.3494 3.06818C13.3498 3.06008 13.35 3.05197 13.35 3.04385C13.35 3.03573 13.3498 3.02761 13.3494 3.01951C13.349 3.01139 13.3485 3.0033 13.3477 2.99521C13.347 2.98713 13.3461 2.97907 13.345 2.97103C13.3439 2.96298 13.3426 2.95496 13.3411 2.94698C13.3396 2.93899 13.338 2.93105 13.3361 2.92315C13.3343 2.91524 13.3323 2.90738 13.3301 2.89956C13.3279 2.89174 13.3255 2.88398 13.323 2.87628C13.3204 2.86857 13.3177 2.86092 13.3148 2.85334C13.3119 2.84576 13.3088 2.83824 13.3056 2.83079C13.3024 2.82336 13.299 2.81599 13.2954 2.8087C13.2918 2.80142 13.2881 2.79422 13.2841 2.7871C13.2802 2.77998 13.2762 2.77295 13.2719 2.76602C13.2677 2.75909 13.2633 2.75226 13.2588 2.74552C13.2543 2.7388 13.2496 2.73218 13.2447 2.72566C13.2399 2.71914 13.2349 2.71273 13.2298 2.70644C13.2247 2.70015 13.2194 2.69398 13.214 2.68794C13.2086 2.68188 13.203 2.67596 13.1973 2.67016C13.1916 2.66437 13.1858 2.6587 13.1799 2.65317C13.1739 2.64764 13.1679 2.64225 13.1617 2.637C13.1555 2.63174 13.1492 2.62662 13.1428 2.62166C13.1364 2.61669 13.1298 2.61187 13.1232 2.6072C13.1165 2.60254 13.1098 2.59802 13.103 2.59366C13.0961 2.5893 13.0892 2.5851 13.0821 2.58105C13.0751 2.577 13.068 2.57312 13.0607 2.5694C13.0535 2.56568 13.0462 2.56213 13.0388 2.55875C13.0315 2.55536 13.024 2.55214 13.0165 2.5491C13.009 2.54605 13.0014 2.54318 12.9937 2.54047C12.9861 2.53777 12.9784 2.53525 12.9706 2.53291C12.9628 2.53056 12.955 2.52839 12.9471 2.5264C12.9393 2.52441 12.9313 2.52259 12.9234 2.52096C12.9154 2.51933 12.9075 2.51788 12.8994 2.51661C12.8914 2.51536 12.8834 2.51428 12.8753 2.51337L10.1606 2.51337C10.1525 2.51428 10.1445 2.51536 10.1365 2.51661C10.1285 2.51788 10.1205 2.51933 10.1125 2.52096C10.1046 2.52259 10.0967 2.52441 10.0888 2.5264C10.0809 2.52839 10.0731 2.53056 10.0653 2.53291C10.0576 2.53525 10.0498 2.53777 10.0422 2.54047C10.0345 2.54318 10.0269 2.54605 10.0194 2.5491C10.0119 2.55214 10.0045 2.55536 9.99707 2.55875C9.98969 2.56213 9.98239 2.56568 9.97517 2.5694C9.96796 2.57312 9.96084 2.577 9.95378 2.58105C9.94676 2.5851 9.93981 2.5893 9.93296 2.59366C9.92613 2.59802 9.91937 2.60254 9.91273 2.6072C9.9061 2.61187 9.89956 2.61669 9.89314 2.62166C9.88672 2.62662 9.88042 2.63174 9.87423 2.637C9.86805 2.64225 9.86198 2.64764 9.85603 2.65317C9.8501 2.6587 9.84427 2.66437 9.83859 2.67016C9.83291 2.67596 9.82736 2.68188 9.82195 2.68792C9.81653 2.69397 9.81127 2.70015 9.80613 2.70644C9.801 2.71273 9.79601 2.71914 9.79117 2.72566C9.78633 2.73218 9.78164 2.7388 9.7771 2.74552C9.77256 2.75226 9.76819 2.75909 9.76396 2.76602C9.75974 2.77295 9.75568 2.77998 9.75177 2.7871C9.74786 2.79422 9.74413 2.80142 9.74054 2.8087C9.73696 2.81599 9.73356 2.82336 9.73032 2.83079C9.72708 2.83824 9.72402 2.84576 9.72112 2.85334C9.71822 2.86092 9.7155 2.86857 9.71294 2.87628C9.7104 2.88398 9.70802 2.89174 9.70583 2.89956C9.70364 2.90738 9.70162 2.91524 9.69979 2.92315C9.69796 2.93105 9.69629 2.93899 9.69481 2.94698C9.69335 2.95496 9.69206 2.96298 9.69094 2.97103C9.68985 2.97907 9.68892 2.98713 9.68818 2.99521C9.68744 3.0033 9.68688 3.01139 9.68651 3.01951C9.68614 3.02761 9.68595 3.03573 9.68595 3.04385C9.68595 3.05197 9.68614 3.06008 9.68651 3.06818C9.68688 3.07629 9.68744 3.08438 9.68818 3.09248C9.68892 3.10056 9.68985 3.10862 9.69094 3.11666C9.69206 3.1247 9.69335 3.13273 9.69481 3.14071C9.69629 3.14868 9.69794 3.15663 9.69977 3.16454C9.70162 3.17245 9.70364 3.18031 9.70583 3.18813C9.70802 3.19595 9.7104 3.2037 9.71294 3.21141C9.7155 3.21912 9.71822 3.22676 9.72112 3.23435C9.72402 3.24193 9.72708 3.24945 9.73032 3.2569C9.73356 3.26433 9.73696 3.27169 9.74054 3.27899C9.74413 3.28626 9.74786 3.29347 9.75177 3.30059C9.75568 3.3077 9.75974 3.31473 9.76396 3.32167C9.76819 3.32859 9.77256 3.33543 9.7771 3.34217C9.78164 3.34889 9.78633 3.35551 9.79117 3.36203C9.79601 3.36854 9.801 3.37495 9.80613 3.38126C9.81127 3.38755 9.81653 3.39371 9.82195 3.39975C9.82736 3.4058 9.83291 3.41173 9.83859 3.41753C9.84427 3.42332 9.8501 3.42898 9.85603 3.43452C9.86198 3.44004 9.86805 3.44545 9.87423 3.4507C9.88041 3.45595 9.88671 3.46106 9.89314 3.46604C9.89956 3.471 9.90608 3.47581 9.91273 3.48049C9.91937 3.48515 9.92613 3.48966 9.93296 3.49404C9.93981 3.49838 9.94676 3.50259 9.95378 3.50664C9.96084 3.51069 9.96796 3.51457 9.97517 3.51829C9.98239 3.52201 9.98969 3.52555 9.99707 3.52894C10.0045 3.53233 10.0119 3.53554 10.0194 3.53859C10.0269 3.54163 10.0345 3.54451 10.0422 3.54722C10.0498 3.54991 10.0576 3.55243 10.0653 3.55478C10.0731 3.55713 10.0809 3.55929 10.0888 3.56129C10.0967 3.56328 10.1046 3.56509 10.1125 3.56673C10.1205 3.56836 10.1285 3.5698 10.1365 3.57108C10.1445 3.57233 10.1525 3.57341 10.1606 3.57432L12.8753 3.57432ZM13.4462 6.05932C13.4401 6.05321 13.4338 6.04724 13.4273 6.04145C13.4208 6.03565 13.4142 6.03 13.4075 6.02454C13.4007 6.01905 13.3938 6.01375 13.3868 6.00862C13.3798 6.00348 13.3727 5.99852 13.3654 5.99373C13.3582 5.98895 13.3508 5.98434 13.3434 5.97992C13.3359 5.97549 13.3283 5.97126 13.3206 5.96721C13.3129 5.96316 13.3051 5.95931 13.2973 5.95564C13.2894 5.95198 13.2814 5.94851 13.2734 5.94522C13.2653 5.94194 13.2572 5.93888 13.249 5.93601C13.2408 5.93313 13.2326 5.93045 13.2242 5.92798C13.2159 5.92552 13.2075 5.92325 13.1991 5.9212C13.1906 5.91915 13.1821 5.91731 13.1736 5.91567C13.1651 5.91403 13.1565 5.91259 13.1479 5.91139C13.1393 5.91017 13.1307 5.90917 13.122 5.90838C13.1134 5.90759 13.1047 5.907 13.096 5.90664C13.0874 5.90627 13.0787 5.90612 13.07 5.90619L10.8081 5.90619C10.8 5.90709 10.792 5.90817 10.784 5.90943C10.776 5.91069 10.768 5.91214 10.76 5.91378C10.7521 5.91541 10.7442 5.91721 10.7363 5.91921C10.7284 5.9212 10.7206 5.92338 10.7128 5.92573C10.7051 5.92807 10.6973 5.93058 10.6897 5.93329C10.682 5.936 10.6744 5.93887 10.6669 5.94192C10.6594 5.94495 10.652 5.94818 10.6446 5.95157C10.6372 5.95495 10.6299 5.9585 10.6227 5.96222C10.6155 5.96594 10.6083 5.96982 10.6013 5.97387C10.5943 5.97791 10.5873 5.98211 10.5805 5.98647C10.5736 5.99083 10.5669 5.99535 10.5602 6.00002C10.5536 6.00468 10.5471 6.0095 10.5406 6.01447C10.5342 6.01944 10.5279 6.02455 10.5217 6.02981C10.5155 6.03506 10.5095 6.04045 10.5035 6.04599C10.4976 6.05151 10.4918 6.05718 10.4861 6.06298C10.4804 6.06878 10.4749 6.0747 10.4694 6.08075C10.464 6.0868 10.4588 6.09296 10.4536 6.09925C10.4485 6.10554 10.4435 6.11195 10.4387 6.11847C10.4338 6.12498 10.4291 6.13161 10.4246 6.13834C10.4201 6.14507 10.4157 6.1519 10.4115 6.15883C10.4072 6.16577 10.4032 6.17279 10.3993 6.17992C10.3954 6.18703 10.3916 6.19423 10.388 6.20152C10.3845 6.2088 10.3811 6.21617 10.3778 6.22361C10.3746 6.23105 10.3715 6.23857 10.3686 6.24616C10.3657 6.25373 10.363 6.26139 10.3604 6.2691C10.3579 6.27679 10.3555 6.28456 10.3533 6.29238C10.3511 6.30019 10.3491 6.30805 10.3473 6.31597C10.3455 6.32387 10.3438 6.33181 10.3423 6.3398C10.3408 6.34778 10.3396 6.35579 10.3384 6.36384C10.3373 6.37188 10.3364 6.37994 10.3357 6.38803C10.3349 6.39611 10.3344 6.4042 10.334 6.41232C10.3336 6.42042 10.3335 6.42854 10.3335 6.43666C10.3335 6.44478 10.3336 6.45289 10.334 6.461C10.3344 6.4691 10.3349 6.4772 10.3357 6.48529C10.3364 6.49337 10.3373 6.50144 10.3384 6.50948C10.3396 6.51752 10.3408 6.52554 10.3423 6.53353C10.3438 6.5415 10.3455 6.54944 10.3473 6.55736C10.3491 6.56526 10.3511 6.57312 10.3533 6.58094C10.3555 6.58876 10.3579 6.59651 10.3604 6.60422C10.363 6.61193 10.3657 6.61958 10.3686 6.62716C10.3715 6.63474 10.3746 6.64226 10.3778 6.64971C10.3811 6.65715 10.3845 6.6645 10.388 6.6718C10.3916 6.67908 10.3954 6.68628 10.3993 6.6934C10.4032 6.70051 10.4072 6.70754 10.4115 6.71449C10.4157 6.7214 10.4201 6.72824 10.4246 6.73498C10.4291 6.74171 10.4338 6.74832 10.4387 6.75485C10.4435 6.76137 10.4485 6.76778 10.4536 6.77407C10.4588 6.78036 10.464 6.78652 10.4694 6.79258C10.4749 6.79862 10.4804 6.80454 10.4861 6.81034C10.4918 6.81614 10.4976 6.8218 10.5035 6.82733C10.5095 6.83286 10.5155 6.83826 10.5217 6.84351C10.5279 6.84876 10.5342 6.85387 10.5406 6.85885C10.5471 6.86381 10.5536 6.86862 10.5602 6.8733C10.5669 6.87796 10.5736 6.88247 10.5805 6.88685C10.5873 6.8912 10.5943 6.89541 10.6013 6.89945C10.6083 6.9035 10.6155 6.90738 10.6227 6.9111C10.6299 6.91482 10.6372 6.91836 10.6446 6.92175C10.652 6.92514 10.6594 6.92836 10.6669 6.9314C10.6744 6.93444 10.682 6.93732 10.6897 6.94003C10.6973 6.94272 10.7051 6.94524 10.7128 6.94759C10.7206 6.94994 10.7284 6.95212 10.7363 6.95411C10.7442 6.9561 10.7521 6.9579 10.76 6.95954C10.768 6.96117 10.776 6.96262 10.784 6.96389C10.792 6.96515 10.8 6.96623 10.8081 6.96713L13.07 6.96713C13.0786 6.96716 13.0872 6.96698 13.0959 6.9666C13.1045 6.96621 13.1131 6.96561 13.1217 6.9648C13.1303 6.96398 13.1388 6.96297 13.1474 6.96174C13.1559 6.96051 13.1644 6.95906 13.1729 6.95742C13.1814 6.95578 13.1898 6.95392 13.1981 6.95186C13.2065 6.94979 13.2149 6.94752 13.2231 6.94506C13.2314 6.94259 13.2396 6.93992 13.2477 6.93705C13.2559 6.93418 13.2639 6.9311 13.2719 6.92784C13.2799 6.92455 13.2878 6.9211 13.2956 6.91745C13.3034 6.91378 13.3111 6.90994 13.3188 6.90591C13.3264 6.90187 13.3339 6.89765 13.3413 6.89325C13.3488 6.88884 13.3561 6.88425 13.3632 6.87949C13.3704 6.87473 13.3775 6.8698 13.3845 6.86469C13.3914 6.85957 13.3982 6.8543 13.4049 6.84885C13.4116 6.8434 13.4182 6.83779 13.4246 6.83204C13.431 6.82627 13.4373 6.82033 13.4434 6.81426C13.4495 6.80819 13.4555 6.80197 13.4613 6.7956C13.4672 6.78923 13.4728 6.78272 13.4783 6.77608C13.4838 6.76943 13.4891 6.76265 13.4943 6.75575C13.4995 6.74883 13.5045 6.7418 13.5093 6.73465C13.5141 6.72749 13.5188 6.72023 13.5232 6.71285C13.5277 6.70546 13.532 6.69797 13.5361 6.69038C13.5402 6.68278 13.5441 6.6751 13.5478 6.66732C13.5515 6.65953 13.5551 6.65166 13.5584 6.64371C13.5617 6.63575 13.5649 6.62771 13.5678 6.6196C13.5708 6.61148 13.5735 6.60331 13.576 6.59508C13.5786 6.58682 13.5809 6.57852 13.583 6.57017C13.5852 6.5618 13.5871 6.55339 13.5888 6.54494C13.5905 6.53648 13.592 6.52799 13.5933 6.51946C13.5946 6.51093 13.5957 6.50237 13.5966 6.49379C13.5975 6.48521 13.5982 6.47661 13.5986 6.468C13.5991 6.45938 13.5993 6.45076 13.5994 6.44213C13.5994 6.43345 13.5992 6.42478 13.5987 6.41611C13.5983 6.40743 13.5977 6.39878 13.5969 6.39015C13.596 6.38151 13.595 6.37288 13.5937 6.3643C13.5925 6.35571 13.591 6.34715 13.5894 6.33863C13.5877 6.33012 13.5858 6.32164 13.5838 6.31322C13.5817 6.30478 13.5794 6.29641 13.5769 6.2881C13.5745 6.27978 13.5718 6.27152 13.5689 6.26334C13.566 6.25515 13.5629 6.24705 13.5597 6.23901C13.5564 6.23097 13.5529 6.22301 13.5493 6.21513C13.5456 6.20726 13.5418 6.19948 13.5377 6.1918C13.5337 6.18411 13.5295 6.17653 13.5251 6.16905C13.5207 6.16155 13.5161 6.15419 13.5114 6.14694C13.5066 6.13967 13.5017 6.13253 13.4966 6.12552C13.4915 6.11849 13.4862 6.11158 13.4808 6.10483C13.4753 6.09806 13.4697 6.09143 13.464 6.08494C13.4582 6.07843 13.4523 6.07209 13.4462 6.06588L13.4462 6.05932ZM11.8712 9.29025C11.8632 9.29116 11.8551 9.29224 11.8471 9.29351C11.8391 9.29477 11.8311 9.2962 11.8232 9.29784C11.8152 9.29947 11.8073 9.30127 11.7994 9.30327C11.7915 9.30527 11.7837 9.30744 11.776 9.30979C11.7682 9.31213 11.7605 9.31464 11.7528 9.31735C11.7452 9.32006 11.7376 9.32293 11.73 9.32598C11.7225 9.32901 11.7151 9.33224 11.7077 9.33563C11.7003 9.33901 11.693 9.34256 11.6858 9.34628C11.6786 9.35 11.6715 9.35388 11.6644 9.35793C11.6574 9.36198 11.6504 9.36617 11.6436 9.37053C11.6368 9.3749 11.63 9.37941 11.6234 9.38408C11.6167 9.38875 11.6102 9.39356 11.6038 9.39853C11.5973 9.4035 11.591 9.40861 11.5848 9.41388C11.5787 9.41912 11.5726 9.42451 11.5667 9.43005C11.5607 9.43557 11.5549 9.44125 11.5492 9.44704C11.5435 9.45284 11.538 9.45876 11.5326 9.4648C11.5272 9.47085 11.5219 9.47703 11.5168 9.48331C11.5116 9.4896 11.5066 9.49602 11.5018 9.50254C11.497 9.50904 11.4923 9.51568 11.4877 9.5224C11.4832 9.52913 11.4788 9.53596 11.4746 9.5429C11.4704 9.54983 11.4663 9.55686 11.4624 9.56398C11.4585 9.57109 11.4548 9.57829 11.4512 9.58558C11.4476 9.59287 11.4442 9.60024 11.4409 9.60767C11.4377 9.61511 11.4346 9.62263 11.4317 9.63022C11.4288 9.63779 11.4261 9.64545 11.4236 9.65316C11.421 9.66086 11.4186 9.66862 11.4165 9.67644C11.4143 9.68425 11.4122 9.69211 11.4104 9.70003C11.4086 9.70793 11.4069 9.71587 11.4054 9.72386C11.404 9.73184 11.4027 9.73985 11.4016 9.74791C11.4005 9.75595 11.3995 9.764 11.3988 9.77209C11.3981 9.78017 11.3975 9.78827 11.3971 9.79639C11.3968 9.80448 11.3966 9.8126 11.3966 9.82072C11.3966 9.82884 11.3968 9.83695 11.3971 9.84506C11.3975 9.85317 11.3981 9.86126 11.3988 9.86935C11.3995 9.87743 11.4005 9.8855 11.4016 9.89354C11.4027 9.90158 11.404 9.9096 11.4054 9.91759C11.4069 9.92557 11.4086 9.93352 11.4104 9.94142C11.4122 9.94932 11.4143 9.95718 11.4165 9.965C11.4186 9.97282 11.421 9.98057 11.4236 9.98829C11.4261 9.996 11.4288 10.0036 11.4317 10.0112C11.4346 10.0188 11.4377 10.0263 11.4409 10.0338C11.4442 10.0412 11.4476 10.0486 11.4512 10.0559C11.4548 10.0631 11.4585 10.0703 11.4624 10.0775C11.4663 10.0846 11.4704 10.0916 11.4746 10.0985C11.4788 10.1055 11.4832 10.1123 11.4877 10.119C11.4923 10.1258 11.497 10.1324 11.5018 10.1389C11.5066 10.1454 11.5116 10.1518 11.5168 10.1581C11.5219 10.1644 11.5272 10.1706 11.5326 10.1766C11.538 10.1827 11.5435 10.1886 11.5492 10.1944C11.5549 10.2002 11.5607 10.2059 11.5667 10.2114C11.5726 10.2169 11.5787 10.2223 11.5848 10.2276C11.591 10.2328 11.5973 10.2379 11.6038 10.2429C11.6102 10.2479 11.6167 10.2527 11.6234 10.2574C11.63 10.262 11.6368 10.2665 11.6436 10.2709C11.6504 10.2753 11.6574 10.2795 11.6644 10.2835C11.6715 10.2876 11.6786 10.2914 11.6858 10.2952C11.693 10.2989 11.7003 10.3024 11.7077 10.3058C11.7151 10.3092 11.7225 10.3124 11.73 10.3155C11.7376 10.3185 11.7452 10.3214 11.7528 10.3241C11.7605 10.3268 11.7682 10.3293 11.776 10.3317C11.7837 10.334 11.7915 10.3362 11.7994 10.3382C11.8073 10.3402 11.8152 10.342 11.8232 10.3436C11.8311 10.3452 11.8391 10.3467 11.8471 10.348C11.8551 10.3492 11.8632 10.3503 11.8712 10.3512L12.9978 10.3512C13.0067 10.3525 13.0156 10.3536 13.0246 10.3545C13.0335 10.3553 13.0425 10.356 13.0515 10.3564C13.0605 10.3568 13.0695 10.357 13.0785 10.357C13.0874 10.3569 13.0964 10.3567 13.1054 10.3562C13.1144 10.3557 13.1234 10.355 13.1323 10.354C13.1412 10.3531 13.1502 10.3519 13.159 10.3505C13.1679 10.3491 13.1768 10.3475 13.1856 10.3456C13.1944 10.3438 13.2031 10.3417 13.2118 10.3394C13.2205 10.3372 13.2292 10.3346 13.2377 10.3319C13.2463 10.3292 13.2548 10.3263 13.2632 10.3231C13.2717 10.32 13.28 10.3166 13.2883 10.313C13.2965 10.3094 13.3047 10.3057 13.3127 10.3017C13.3208 10.2977 13.3288 10.2935 13.3366 10.2891C13.3445 10.2847 13.3522 10.2801 13.3598 10.2754C13.3674 10.2706 13.3749 10.2656 13.3823 10.2605C13.3897 10.2553 13.3969 10.25 13.404 10.2444C13.4111 10.2389 13.418 10.2332 13.4249 10.2273C13.4317 10.2214 13.4383 10.2154 13.4448 10.2092C13.4513 10.203 13.4577 10.1966 13.4639 10.1901C13.47 10.1835 13.4761 10.1769 13.4819 10.17C13.4877 10.1632 13.4934 10.1562 13.4989 10.1491C13.5044 10.1419 13.5097 10.1347 13.5148 10.1273C13.52 10.1199 13.5249 10.1124 13.5296 10.1048C13.5344 10.0971 13.5389 10.0893 13.5433 10.0815C13.5476 10.0736 13.5518 10.0656 13.5557 10.0575C13.5597 10.0495 13.5634 10.0413 13.5669 10.033C13.5705 10.0247 13.5738 10.0164 13.5769 10.008C13.58 9.99951 13.5829 9.99101 13.5856 9.98242C13.5883 9.97383 13.5908 9.96518 13.593 9.95648C13.5953 9.94776 13.5973 9.939 13.5991 9.93019C13.6009 9.92137 13.6025 9.91253 13.6038 9.90364C13.6052 9.89474 13.6063 9.88581 13.6072 9.87687C13.6081 9.86792 13.6088 9.85895 13.6092 9.84998C13.6097 9.84098 13.6099 9.832 13.6099 9.82301C13.6099 9.81401 13.6097 9.80501 13.6092 9.79605C13.6088 9.78705 13.6081 9.77809 13.6072 9.76915C13.6063 9.7602 13.6051 9.75127 13.6038 9.74238C13.6024 9.7335 13.6008 9.72464 13.599 9.71583C13.5972 9.70701 13.5952 9.69825 13.5929 9.68956C13.5907 9.68085 13.5882 9.6722 13.5855 9.66362C13.5828 9.65503 13.5799 9.64651 13.5768 9.63809C13.5737 9.62964 13.5703 9.62129 13.5668 9.61303C13.5632 9.60476 13.5595 9.59659 13.5555 9.58852C13.5516 9.58043 13.5474 9.57245 13.5431 9.56459C13.5387 9.55672 13.5342 9.54897 13.5294 9.54134C13.5247 9.5337 13.5197 9.52618 13.5146 9.51879C13.5095 9.51141 13.5041 9.50415 13.4986 9.49703C13.4931 9.4899 13.4875 9.48293 13.4816 9.47611C13.4758 9.46927 13.4698 9.46259 13.4636 9.45607C13.4574 9.44953 13.451 9.44316 13.4445 9.43695C13.438 9.43075 13.4313 9.4247 13.4245 9.41884C13.4177 9.41296 13.4108 9.40727 13.4036 9.40176C13.3966 9.39624 13.3893 9.39089 13.3819 9.38575C13.3746 9.38058 13.3671 9.37562 13.3594 9.37086C13.3518 9.36608 13.3441 9.3615 13.3362 9.35712C13.3284 9.35273 13.3204 9.34855 13.3123 9.34457C13.3043 9.34059 13.2961 9.33682 13.2879 9.33325C13.2796 9.32968 13.2713 9.32633 13.2628 9.32319C13.2544 9.32003 13.2459 9.31711 13.2373 9.3144C13.2288 9.31166 13.2201 9.30916 13.2114 9.30689C13.2027 9.30461 13.194 9.30256 13.1852 9.30073C13.1764 9.29888 13.1675 9.29727 13.1586 9.29589C13.1497 9.29449 13.1408 9.29332 13.1319 9.29239C13.1229 9.29144 13.114 9.29073 13.105 9.29025C13.0693 9.28584 13.0335 9.28584 12.9978 9.29025L11.8712 9.29025Z"   fill="#5380FD" >
</path>
</svg>
