<svg xmlns="http://www.w3.org/2000/svg" xmlns:xlink="http://www.w3.org/1999/xlink" width="14" height="14" viewBox="0 0 14 14" fill="none">
<path d="M2.57075 13.5625L11.431 13.5625C12.607 13.5625 13.5642 12.6735 13.5625 11.5806L13.5625 2.41937C13.5625 1.32563 12.6053 0.4375 11.4293 0.4375L2.57075 0.4375C1.39475 0.4375 0.4375 1.3265 0.4375 2.41937L0.4375 11.5806C0.4375 12.6744 1.39475 13.5625 2.57075 13.5625ZM1.84975 2.41937C1.84975 2.051 2.1735 1.74913 2.57075 1.74913L11.4293 1.74913C11.8256 1.74913 12.1503 2.051 12.1503 2.41937L12.1503 11.5806C12.1503 11.949 11.8265 12.2509 11.4293 12.2509L2.57075 12.2509C2.17438 12.2509 1.84975 11.949 1.84975 11.5806L1.84975 2.41937ZM4.24375 5.99375C4.24375 6.00306 4.24398 6.01236 4.24443 6.02165C4.24488 6.03095 4.24557 6.04023 4.24648 6.0495C4.2474 6.05876 4.24854 6.068 4.2499 6.0772C4.25127 6.0864 4.25286 6.09558 4.25467 6.10471C4.25649 6.11383 4.25854 6.12291 4.2608 6.13195C4.26305 6.14098 4.26554 6.14995 4.26824 6.15885C4.27094 6.16775 4.27387 6.1766 4.277 6.18536C4.28013 6.19413 4.28348 6.20281 4.28705 6.21141C4.2906 6.22001 4.29438 6.22851 4.29836 6.23692C4.30233 6.24533 4.30652 6.25364 4.31091 6.26186C4.3153 6.27007 4.31988 6.27817 4.32466 6.28615C4.32945 6.29414 4.33442 6.302 4.3396 6.30973C4.34477 6.31747 4.35013 6.32507 4.35568 6.33255C4.36122 6.34003 4.36695 6.34736 4.37285 6.35456C4.37876 6.36176 4.38483 6.3688 4.39108 6.3757C4.39733 6.38261 4.40375 6.38935 4.41033 6.39592C4.4169 6.4025 4.42365 6.40892 4.43055 6.41517C4.43745 6.42142 4.44449 6.42749 4.45169 6.4334C4.45889 6.4393 4.46622 6.44503 4.4737 6.45057C4.48118 6.45612 4.48878 6.46148 4.49652 6.46665C4.50425 6.47181 4.51212 6.47679 4.5201 6.48158C4.52808 6.48636 4.53618 6.49096 4.54439 6.49534C4.5526 6.49973 4.56091 6.50392 4.56933 6.50789C4.57774 6.51187 4.58624 6.51565 4.59484 6.5192C4.60344 6.52277 4.61213 6.52612 4.62089 6.52925C4.62965 6.53238 4.6385 6.53531 4.6474 6.53801C4.6563 6.54071 4.66527 6.5432 4.6743 6.54545C4.68334 6.54771 4.69242 6.54976 4.70154 6.55158C4.71067 6.55339 4.71985 6.55498 4.72905 6.55635C4.73825 6.55771 4.74749 6.55885 4.75675 6.55977C4.76602 6.56068 4.7753 6.56137 4.7846 6.56182C4.79389 6.56227 4.80319 6.5625 4.8125 6.5625C4.82181 6.5625 4.83111 6.56227 4.8404 6.56182C4.8497 6.56137 4.85898 6.56068 4.86824 6.55977C4.87751 6.55885 4.88675 6.55771 4.89595 6.55635C4.90515 6.55498 4.91433 6.55339 4.92346 6.55158C4.93258 6.54976 4.94166 6.54771 4.9507 6.54545C4.95973 6.5432 4.9687 6.54071 4.9776 6.53801C4.9865 6.53531 4.99535 6.53238 5.00411 6.52925C5.01288 6.52612 5.02156 6.52277 5.03016 6.5192C5.03876 6.51565 5.04726 6.51187 5.05567 6.50789C5.06408 6.50392 5.07239 6.49973 5.08061 6.49534C5.08882 6.49096 5.09692 6.48636 5.1049 6.48158C5.11288 6.47679 5.12075 6.47181 5.12848 6.46665C5.13622 6.46148 5.14382 6.45612 5.1513 6.45057C5.15878 6.44503 5.16611 6.4393 5.17331 6.4334C5.18051 6.42749 5.18755 6.42142 5.19445 6.41517C5.20134 6.40892 5.20808 6.4025 5.21467 6.39592C5.22125 6.38935 5.22767 6.38261 5.23392 6.3757C5.24017 6.3688 5.24624 6.36176 5.25215 6.35456C5.25805 6.34736 5.26378 6.34003 5.26932 6.33255C5.27487 6.32507 5.28023 6.31747 5.2854 6.30973C5.29056 6.302 5.29554 6.29414 5.30033 6.28615C5.30513 6.27817 5.30971 6.27007 5.31409 6.26186C5.31848 6.25364 5.32267 6.24533 5.32664 6.23692C5.33062 6.22851 5.3344 6.22001 5.33795 6.21141C5.34152 6.20281 5.34487 6.19413 5.348 6.18536C5.35113 6.1766 5.35406 6.16775 5.35676 6.15885C5.35946 6.14995 5.36195 6.14098 5.3642 6.13195C5.36646 6.12291 5.36851 6.11383 5.37033 6.10471C5.37214 6.09558 5.37373 6.0864 5.3751 6.0772C5.37646 6.068 5.3776 6.05876 5.37852 6.04949C5.37943 6.04023 5.38012 6.03095 5.38057 6.02165C5.38102 6.01236 5.38125 6.00306 5.38125 5.99375L5.38125 5.38125L5.99375 5.38125C6.00306 5.38124 6.01236 5.381 6.02164 5.38054C6.03092 5.38007 6.04021 5.37938 6.04946 5.37846C6.05872 5.37754 6.06795 5.3764 6.07715 5.37502C6.08635 5.37365 6.09551 5.37205 6.10463 5.37023C6.11375 5.36841 6.12283 5.36636 6.13185 5.36409C6.14086 5.36182 6.14983 5.35933 6.15873 5.35663C6.16763 5.35392 6.17645 5.35099 6.18521 5.34786C6.19397 5.34472 6.20264 5.34137 6.21123 5.3378C6.21983 5.33423 6.22832 5.33046 6.23673 5.32648C6.24514 5.32249 6.25343 5.3183 6.26164 5.31392C6.26984 5.30953 6.27793 5.30493 6.2859 5.30015C6.29388 5.29536 6.30174 5.29039 6.30946 5.2852C6.31719 5.28004 6.32479 5.27468 6.33227 5.26913C6.33973 5.26359 6.34706 5.25786 6.35425 5.25196C6.36143 5.24605 6.36847 5.23996 6.37536 5.23372C6.38225 5.22747 6.38898 5.22104 6.39555 5.21447C6.40213 5.20789 6.40854 5.20115 6.41479 5.19426C6.42104 5.18736 6.42711 5.18031 6.433 5.17312C6.43889 5.16593 6.44462 5.1586 6.45016 5.15112C6.4557 5.14365 6.46104 5.13604 6.46621 5.12831C6.47138 5.12057 6.47635 5.11271 6.48113 5.10474C6.4859 5.09675 6.49048 5.08866 6.49487 5.08045C6.49925 5.07225 6.50342 5.06394 6.5074 5.05553C6.51138 5.04712 6.51514 5.03862 6.51871 5.03002C6.52226 5.02142 6.52561 5.01275 6.52874 5.00399C6.53188 4.99522 6.53479 4.98641 6.53748 4.97751C6.54017 4.96861 6.54266 4.95964 6.54492 4.95061C6.54717 4.94159 6.54921 4.93251 6.55103 4.92339C6.55285 4.91427 6.55443 4.9051 6.5558 4.8959C6.55715 4.8867 6.55829 4.87747 6.55921 4.86821C6.56012 4.85896 6.5608 4.84967 6.56126 4.84039C6.56171 4.83111 6.56194 4.82181 6.56194 4.8125C6.56194 4.80319 6.56171 4.79389 6.56126 4.78461C6.5608 4.77533 6.56012 4.76604 6.55921 4.75679C6.55829 4.74753 6.55715 4.7383 6.5558 4.7291C6.55443 4.7199 6.55285 4.71073 6.55103 4.70161C6.54921 4.69249 6.54717 4.68341 6.54492 4.67439C6.54266 4.66536 6.54017 4.65639 6.53748 4.64749C6.53479 4.63859 6.53188 4.62978 6.52874 4.62101C6.52561 4.61225 6.52226 4.60358 6.51871 4.59498C6.51514 4.58638 6.51138 4.57788 6.5074 4.56947C6.50342 4.56106 6.49925 4.55275 6.49487 4.54455C6.49048 4.53634 6.4859 4.52825 6.48113 4.52026C6.47635 4.51229 6.47138 4.50443 6.46621 4.49669C6.46104 4.48896 6.4557 4.48135 6.45016 4.47388C6.44462 4.4664 6.43889 4.45907 6.433 4.45188C6.42711 4.44469 6.42104 4.43764 6.41479 4.43074C6.40854 4.42385 6.40213 4.41711 6.39555 4.41053C6.38898 4.40396 6.38225 4.39753 6.37536 4.39128C6.36847 4.38504 6.36143 4.37895 6.35425 4.37304C6.34706 4.36714 6.33973 4.36141 6.33227 4.35587C6.32479 4.35032 6.31719 4.34496 6.30946 4.3398C6.30174 4.33461 6.29388 4.32964 6.2859 4.32485C6.27793 4.32007 6.26984 4.31547 6.26164 4.31108C6.25343 4.3067 6.24514 4.30251 6.23673 4.29853C6.22832 4.29455 6.21983 4.29077 6.21123 4.2872C6.20264 4.28363 6.19397 4.28028 6.18521 4.27714C6.17645 4.27401 6.16763 4.27108 6.15873 4.26837C6.14983 4.26567 6.14086 4.26318 6.13185 4.26091C6.12283 4.25864 6.11375 4.25659 6.10463 4.25477C6.09551 4.25295 6.08635 4.25135 6.07715 4.24998C6.06795 4.2486 6.05872 4.24746 6.04946 4.24654C6.04021 4.24562 6.03092 4.24493 6.02164 4.24446C6.01236 4.244 6.00306 4.24376 5.99375 4.24375L5.38125 4.24375L5.38125 3.63125C5.38124 3.62194 5.381 3.61264 5.38055 3.60336C5.38009 3.59406 5.37939 3.58478 5.37847 3.57552C5.37756 3.56627 5.37641 3.55704 5.37504 3.54784C5.37368 3.53864 5.37208 3.52946 5.37026 3.52034C5.36844 3.51122 5.36639 3.50215 5.36412 3.49312C5.36186 3.4841 5.35938 3.47514 5.35667 3.46624C5.35396 3.45734 5.35104 3.44851 5.3479 3.43975C5.34476 3.43098 5.34141 3.42232 5.33784 3.41372C5.33427 3.40512 5.3305 3.39663 5.32652 3.38822C5.32254 3.37981 5.31836 3.3715 5.31397 3.3633C5.30958 3.35509 5.30499 3.347 5.3002 3.33903C5.29542 3.33106 5.29044 3.3232 5.28526 3.31546C5.28009 3.30773 5.27473 3.30013 5.26918 3.29265C5.26364 3.28517 5.25792 3.27785 5.25201 3.27067C5.2461 3.26348 5.24002 3.25644 5.23377 3.24955C5.22752 3.24265 5.22111 3.23591 5.21452 3.22934C5.20795 3.22276 5.20121 3.21635 5.19431 3.2101C5.18741 3.20385 5.18037 3.19778 5.17318 3.19189C5.16599 3.18598 5.15866 3.18026 5.15118 3.17472C5.1437 3.16918 5.1361 3.16384 5.12836 3.15867C5.12062 3.1535 5.11276 3.14852 5.10478 3.14374C5.09681 3.13897 5.08871 3.13439 5.0805 3.13C5.07229 3.12561 5.06398 3.12143 5.05557 3.11745C5.04716 3.11347 5.03866 3.10971 5.03006 3.10615C5.02146 3.10259 5.01279 3.09924 5.00403 3.09611C4.99527 3.09297 4.98643 3.09006 4.97753 3.08737C4.96863 3.08466 4.95966 3.08217 4.95064 3.07992C4.9416 3.07766 4.93253 3.07563 4.92341 3.07381C4.91429 3.07199 4.90511 3.0704 4.89591 3.06905C4.88671 3.06768 4.87748 3.06655 4.86823 3.06563C4.85897 3.06471 4.84969 3.06403 4.84039 3.06358C4.83111 3.06313 4.82181 3.0629 4.8125 3.0629C4.80319 3.0629 4.79389 3.06313 4.78461 3.06358C4.77531 3.06403 4.76603 3.06471 4.75677 3.06563C4.74752 3.06655 4.73829 3.06768 4.72909 3.06905C4.71989 3.0704 4.71071 3.07199 4.70159 3.07381C4.69247 3.07563 4.6834 3.07766 4.67436 3.07992C4.66534 3.08217 4.65637 3.08466 4.64747 3.08736C4.63857 3.09006 4.62973 3.09297 4.62097 3.09611C4.61221 3.09924 4.60354 3.10259 4.59494 3.10615C4.58634 3.10971 4.57784 3.11347 4.56943 3.11745C4.56102 3.12143 4.55271 3.12561 4.5445 3.13C4.53629 3.13439 4.52819 3.13897 4.52022 3.14374C4.51224 3.14852 4.50438 3.1535 4.49664 3.15867C4.4889 3.16384 4.4813 3.16918 4.47382 3.17472C4.46634 3.18026 4.45901 3.18598 4.45182 3.19189C4.44463 3.19778 4.43759 3.20385 4.43069 3.2101C4.4238 3.21635 4.41706 3.22276 4.41047 3.22934C4.40389 3.23591 4.39748 3.24265 4.39123 3.24955C4.38498 3.25644 4.3789 3.26348 4.37299 3.27067C4.36708 3.27785 4.36136 3.28517 4.35582 3.29265C4.35027 3.30013 4.34491 3.30773 4.33974 3.31546C4.33456 3.3232 4.32958 3.33106 4.3248 3.33903C4.32001 3.347 4.31542 3.35509 4.31103 3.3633C4.30664 3.3715 4.30246 3.37981 4.29848 3.38822C4.2945 3.39663 4.29073 3.40512 4.28716 3.41372C4.28359 3.42232 4.28024 3.43098 4.2771 3.43975C4.27396 3.44851 4.27104 3.45734 4.26833 3.46624C4.26562 3.47514 4.26314 3.4841 4.26088 3.49312C4.25861 3.50215 4.25656 3.51122 4.25474 3.52034C4.25292 3.52946 4.25132 3.53864 4.24996 3.54784C4.24859 3.55704 4.24744 3.56627 4.24653 3.57552C4.24561 3.58478 4.24491 3.59406 4.24445 3.60336C4.244 3.61264 4.24376 3.62194 4.24375 3.63125L4.24375 4.24375L3.63125 4.24375C3.62194 4.24375 3.61264 4.24398 3.60335 4.24443C3.59405 4.24488 3.58477 4.24557 3.5755 4.24648C3.56624 4.2474 3.557 4.24854 3.5478 4.2499C3.5386 4.25127 3.52942 4.25286 3.52029 4.25467C3.51117 4.25649 3.50209 4.25854 3.49305 4.2608C3.48402 4.26305 3.47505 4.26554 3.46615 4.26824C3.45725 4.27094 3.4484 4.27387 3.43964 4.277C3.43088 4.28013 3.42219 4.28348 3.41359 4.28705C3.40499 4.2906 3.39649 4.29438 3.38808 4.29836C3.37967 4.30233 3.37136 4.30652 3.36314 4.31091C3.35493 4.3153 3.34683 4.31989 3.33885 4.32467C3.33087 4.32946 3.323 4.33444 3.31527 4.3396C3.30753 4.34477 3.29993 4.35013 3.29245 4.35568C3.28497 4.36122 3.27764 4.36695 3.27044 4.37285C3.26324 4.37876 3.2562 4.38483 3.2493 4.39108C3.24239 4.39733 3.23565 4.40375 3.22908 4.41033C3.2225 4.4169 3.21608 4.42364 3.20983 4.43055C3.20358 4.43745 3.19751 4.44449 3.1916 4.45169C3.1857 4.45889 3.17997 4.46622 3.17443 4.4737C3.16888 4.48118 3.16352 4.48878 3.15835 4.49652C3.15317 4.50425 3.1482 4.51212 3.14341 4.5201C3.13863 4.52808 3.13405 4.53618 3.12966 4.54439C3.12527 4.55261 3.12108 4.56092 3.11711 4.56933C3.11313 4.57774 3.10935 4.58624 3.1058 4.59484C3.10223 4.60344 3.09888 4.61212 3.09575 4.62089C3.09262 4.62965 3.08969 4.6385 3.08699 4.6474C3.08429 4.6563 3.0818 4.66527 3.07955 4.6743C3.07729 4.68334 3.07524 4.69242 3.07342 4.70154C3.07161 4.71067 3.07002 4.71985 3.06865 4.72905C3.06729 4.73825 3.06615 4.74749 3.06523 4.75676C3.06432 4.76602 3.06364 4.7753 3.06318 4.7846C3.06273 4.79389 3.0625 4.80319 3.0625 4.8125C3.0625 4.82181 3.06273 4.83111 3.06318 4.8404C3.06364 4.8497 3.06432 4.85898 3.06523 4.86825C3.06615 4.87751 3.06729 4.88675 3.06865 4.89595C3.07002 4.90515 3.07161 4.91433 3.07342 4.92346C3.07524 4.93258 3.07729 4.94166 3.07955 4.9507C3.0818 4.95973 3.08429 4.9687 3.08699 4.9776C3.08969 4.9865 3.09262 4.99535 3.09575 5.00411C3.09888 5.01288 3.10223 5.02156 3.1058 5.03016C3.10935 5.03876 3.11313 5.04726 3.11711 5.05567C3.12108 5.06408 3.12527 5.07239 3.12966 5.08061C3.13405 5.08882 3.13863 5.09692 3.14341 5.1049C3.1482 5.11288 3.15317 5.12075 3.15835 5.12848C3.16352 5.13622 3.16888 5.14382 3.17443 5.1513C3.17997 5.15878 3.1857 5.16611 3.1916 5.17331C3.19751 5.18051 3.20358 5.18755 3.20983 5.19445C3.21608 5.20136 3.2225 5.2081 3.22908 5.21467C3.23565 5.22125 3.24239 5.22767 3.2493 5.23392C3.2562 5.24017 3.26324 5.24624 3.27044 5.25215C3.27764 5.25805 3.28497 5.26378 3.29245 5.26932C3.29993 5.27487 3.30753 5.28023 3.31527 5.2854C3.323 5.29056 3.33087 5.29554 3.33885 5.30034C3.34683 5.30512 3.35493 5.3097 3.36314 5.31409C3.37135 5.31848 3.37966 5.32267 3.38808 5.32664C3.39649 5.33062 3.40499 5.3344 3.41359 5.33795C3.42219 5.34152 3.43088 5.34487 3.43964 5.348C3.4484 5.35113 3.45725 5.35406 3.46615 5.35676C3.47505 5.35946 3.48402 5.36195 3.49305 5.3642C3.50209 5.36646 3.51117 5.36851 3.52029 5.37033C3.52942 5.37214 3.5386 5.37373 3.5478 5.3751C3.557 5.37646 3.56624 5.3776 3.5755 5.37852C3.58477 5.37943 3.59405 5.38012 3.60335 5.38057C3.61264 5.38102 3.62194 5.38125 3.63125 5.38125L4.24375 5.38125L4.24375 5.99375ZM7.4375 4.85625C7.4375 4.84694 7.43773 4.83764 7.43818 4.82835C7.43864 4.81905 7.43932 4.80977 7.44024 4.8005C7.44115 4.79124 7.44229 4.782 7.44365 4.7728C7.44502 4.7636 7.44661 4.75442 7.44842 4.74529C7.45024 4.73617 7.45229 4.72709 7.45455 4.71805C7.45681 4.70902 7.45929 4.70005 7.46199 4.69115C7.46469 4.68225 7.46762 4.6734 7.47075 4.66464C7.47388 4.65588 7.47723 4.64719 7.4808 4.63859C7.48435 4.62999 7.48813 4.62149 7.49211 4.61308C7.49608 4.60467 7.50027 4.59636 7.50466 4.58814C7.50905 4.57993 7.51364 4.57183 7.51842 4.56385C7.5232 4.55587 7.52817 4.548 7.53335 4.54027C7.53852 4.53253 7.54388 4.52493 7.54943 4.51745C7.55497 4.50997 7.5607 4.50264 7.5666 4.49544C7.57251 4.48824 7.57858 4.4812 7.58483 4.4743C7.59108 4.46739 7.5975 4.46065 7.60408 4.45408C7.61065 4.4475 7.61739 4.44108 7.6243 4.43483C7.6312 4.42858 7.63824 4.42251 7.64544 4.4166C7.65264 4.4107 7.65997 4.40497 7.66745 4.39943C7.67493 4.39388 7.68253 4.38852 7.69027 4.38335C7.698 4.37819 7.70587 4.37321 7.71385 4.36841C7.72183 4.36363 7.72993 4.35905 7.73814 4.35466C7.74636 4.35027 7.75467 4.34608 7.76308 4.34211C7.77149 4.33813 7.77999 4.33435 7.78859 4.3308C7.79719 4.32723 7.80588 4.32388 7.81464 4.32075C7.8234 4.31762 7.83225 4.31469 7.84115 4.31199C7.85005 4.30929 7.85902 4.3068 7.86806 4.30455C7.87709 4.30229 7.88617 4.30024 7.89529 4.29842C7.90442 4.29661 7.9136 4.29502 7.9228 4.29365C7.932 4.29228 7.94124 4.29115 7.9505 4.29023C7.95977 4.28932 7.96905 4.28863 7.97835 4.28818C7.98764 4.28773 7.99694 4.2875 8.00625 4.2875L10.3687 4.2875C10.3781 4.2875 10.3874 4.28773 10.3967 4.28818C10.406 4.28863 10.4152 4.28932 10.4245 4.29023C10.4338 4.29115 10.443 4.29228 10.4522 4.29365C10.4614 4.29502 10.4706 4.29661 10.4797 4.29842C10.4888 4.30024 10.4979 4.30229 10.5069 4.30455C10.516 4.3068 10.525 4.30929 10.5339 4.31199C10.5428 4.31469 10.5516 4.31762 10.5604 4.32075C10.5691 4.32388 10.5778 4.32723 10.5864 4.3308C10.595 4.33435 10.6035 4.33813 10.6119 4.34211C10.6203 4.34608 10.6286 4.35027 10.6369 4.35466C10.6451 4.35905 10.6532 4.36363 10.6611 4.36841C10.6691 4.3732 10.677 4.37817 10.6847 4.38335C10.6925 4.38852 10.7001 4.39388 10.7076 4.39943C10.715 4.40497 10.7224 4.4107 10.7296 4.4166C10.7368 4.42251 10.7438 4.42858 10.7507 4.43483C10.7576 4.44108 10.7643 4.4475 10.7709 4.45408C10.7775 4.46065 10.7839 4.46739 10.7902 4.4743C10.7964 4.4812 10.8025 4.48824 10.8084 4.49544C10.8143 4.50264 10.82 4.50997 10.8256 4.51745C10.8311 4.52493 10.8365 4.53253 10.8416 4.54027C10.8468 4.548 10.8518 4.55587 10.8566 4.56385C10.8614 4.57183 10.866 4.57993 10.8703 4.58814C10.8747 4.59635 10.8789 4.60466 10.8829 4.61308C10.8869 4.62149 10.8906 4.62999 10.8942 4.63859C10.8978 4.64719 10.9011 4.65588 10.9043 4.66464C10.9074 4.6734 10.9103 4.68225 10.913 4.69115C10.9157 4.70005 10.9182 4.70902 10.9205 4.71805C10.9227 4.72709 10.9248 4.73617 10.9266 4.74529C10.9284 4.75442 10.93 4.7636 10.9313 4.7728C10.9327 4.782 10.9339 4.79124 10.9348 4.8005C10.9357 4.80977 10.9364 4.81905 10.9368 4.82835C10.9373 4.83764 10.9375 4.84694 10.9375 4.85625C10.9375 4.86556 10.9373 4.87486 10.9368 4.88415C10.9364 4.89345 10.9357 4.90273 10.9348 4.91199C10.9339 4.92126 10.9327 4.9305 10.9313 4.9397C10.93 4.9489 10.9284 4.95808 10.9266 4.96721C10.9248 4.97633 10.9227 4.98541 10.9205 4.99445C10.9182 5.00348 10.9157 5.01245 10.913 5.02135C10.9103 5.03025 10.9074 5.0391 10.9043 5.04786C10.9011 5.05662 10.8978 5.06531 10.8942 5.07391C10.8906 5.08251 10.8869 5.09101 10.8829 5.09942C10.8789 5.10783 10.8747 5.11614 10.8703 5.12436C10.866 5.13257 10.8614 5.14067 10.8566 5.14865C10.8518 5.15663 10.8468 5.1645 10.8416 5.17223C10.8365 5.17997 10.8311 5.18757 10.8256 5.19505C10.82 5.20253 10.8143 5.20986 10.8084 5.21706C10.8025 5.22426 10.7964 5.2313 10.7902 5.2382C10.7839 5.24509 10.7775 5.25183 10.7709 5.25842C10.7643 5.265 10.7576 5.27142 10.7507 5.27767C10.7438 5.28392 10.7368 5.28999 10.7296 5.2959C10.7224 5.3018 10.715 5.30753 10.7076 5.31307C10.7001 5.31862 10.6925 5.32398 10.6847 5.32915C10.677 5.33431 10.6691 5.33929 10.6612 5.34408C10.6532 5.34886 10.6451 5.35346 10.6369 5.35784C10.6286 5.36223 10.6203 5.36642 10.6119 5.37039C10.6035 5.37437 10.595 5.37813 10.5864 5.3817C10.5778 5.38527 10.5691 5.38862 10.5604 5.39175C10.5516 5.39488 10.5428 5.39781 10.5339 5.40051C10.525 5.40321 10.516 5.40569 10.5069 5.40795C10.4979 5.41021 10.4888 5.41226 10.4797 5.41408C10.4706 5.41589 10.4614 5.41748 10.4522 5.41885C10.443 5.42021 10.4338 5.42135 10.4245 5.42227C10.4152 5.42318 10.406 5.42387 10.3967 5.42432C10.3874 5.42477 10.3781 5.425 10.3687 5.425L8.00625 5.425C7.99694 5.425 7.98764 5.42477 7.97835 5.42432C7.96905 5.42387 7.95977 5.42318 7.9505 5.42227C7.94124 5.42135 7.932 5.42021 7.9228 5.41885C7.9136 5.41748 7.90442 5.41589 7.89529 5.41408C7.88617 5.41226 7.87709 5.41021 7.86806 5.40795C7.85902 5.40569 7.85005 5.40321 7.84115 5.40051C7.83225 5.39781 7.8234 5.39488 7.81464 5.39175C7.80588 5.38862 7.79719 5.38527 7.78859 5.3817C7.77999 5.37815 7.77149 5.37437 7.76308 5.37039C7.75467 5.36642 7.74636 5.36223 7.73814 5.35784C7.72993 5.35346 7.72183 5.34886 7.71385 5.34408C7.70587 5.33929 7.698 5.33431 7.69027 5.32915C7.68253 5.32398 7.67493 5.31862 7.66745 5.31307C7.65997 5.30753 7.65264 5.3018 7.64544 5.2959C7.63824 5.28999 7.6312 5.28392 7.6243 5.27767C7.61739 5.27142 7.61065 5.265 7.60408 5.25842C7.5975 5.25183 7.59108 5.24509 7.58483 5.2382C7.57858 5.2313 7.57251 5.22426 7.5666 5.21706C7.5607 5.20986 7.55497 5.20253 7.54943 5.19505C7.54388 5.18757 7.53852 5.17997 7.53335 5.17223C7.52817 5.1645 7.5232 5.15663 7.51841 5.14865C7.51363 5.14067 7.50905 5.13257 7.50466 5.12436C7.50027 5.11614 7.49608 5.10783 7.49211 5.09942C7.48813 5.09101 7.48435 5.08251 7.4808 5.07391C7.47723 5.06531 7.47388 5.05662 7.47075 5.04786C7.46762 5.0391 7.46469 5.03025 7.46199 5.02135C7.45929 5.01245 7.45681 5.00348 7.45455 4.99445C7.45229 4.98541 7.45024 4.97633 7.44842 4.96721C7.44661 4.95808 7.44502 4.9489 7.44365 4.9397C7.44229 4.9305 7.44115 4.92126 7.44024 4.91199C7.43932 4.90273 7.43864 4.89345 7.43818 4.88415C7.43773 4.87486 7.4375 4.86556 7.4375 4.85625ZM10.2725 8.3475C10.2791 8.35408 10.2855 8.36082 10.2918 8.36772C10.2981 8.37463 10.3041 8.38167 10.3101 8.38887C10.316 8.39608 10.3217 8.4034 10.3273 8.41088C10.3328 8.41836 10.3382 8.42598 10.3434 8.43373C10.3485 8.44147 10.3535 8.44933 10.3583 8.45733C10.3631 8.46532 10.3677 8.47342 10.3721 8.48164C10.3765 8.48985 10.3807 8.49816 10.3847 8.50659C10.3887 8.51501 10.3925 8.52353 10.396 8.53213C10.3996 8.54074 10.403 8.54943 10.4061 8.5582C10.4092 8.56697 10.4122 8.57582 10.4149 8.58473C10.4176 8.59365 10.4201 8.60263 10.4223 8.61167C10.4246 8.62071 10.4267 8.62978 10.4285 8.63893C10.4303 8.64806 10.4319 8.65724 10.4332 8.66646C10.4346 8.67568 10.4358 8.68492 10.4367 8.69419C10.4376 8.70347 10.4383 8.71276 10.4387 8.72207C10.4392 8.73138 10.4394 8.74069 10.4394 8.75C10.4394 8.75931 10.4392 8.76862 10.4387 8.77793C10.4383 8.78724 10.4376 8.79653 10.4367 8.80581C10.4358 8.81508 10.4346 8.82432 10.4332 8.83354C10.4319 8.84276 10.4303 8.85194 10.4285 8.86107C10.4267 8.87022 10.4246 8.8793 10.4223 8.88833C10.4201 8.89737 10.4176 8.90635 10.4149 8.91527C10.4122 8.92418 10.4092 8.93303 10.4061 8.9418C10.403 8.95057 10.3996 8.95926 10.396 8.96788C10.3925 8.97647 10.3887 8.98499 10.3847 8.99341C10.3807 9.00184 10.3765 9.01015 10.3721 9.01836C10.3677 9.02658 10.3631 9.03468 10.3583 9.04267C10.3535 9.05067 10.3485 9.05853 10.3434 9.06627C10.3382 9.07402 10.3328 9.08164 10.3273 9.08912C10.3217 9.0966 10.316 9.10392 10.3101 9.11113C10.3041 9.11833 10.2981 9.12537 10.2918 9.13228C10.2855 9.13918 10.2791 9.14592 10.2725 9.1525L8.60213 10.8229C8.59554 10.8295 8.5888 10.8359 8.58189 10.8421C8.57499 10.8484 8.56795 10.8544 8.56074 10.8604C8.55354 10.8662 8.54619 10.872 8.53872 10.8775C8.53124 10.883 8.52362 10.8884 8.51587 10.8936C8.50813 10.8988 8.50027 10.9037 8.49227 10.9085C8.48429 10.9133 8.47619 10.9179 8.46798 10.9223C8.45976 10.9266 8.45145 10.9308 8.44303 10.9348C8.4346 10.9388 8.42609 10.9425 8.41749 10.9461C8.40889 10.9497 8.40019 10.953 8.39143 10.9561C8.38266 10.9593 8.37382 10.9622 8.36492 10.9649C8.356 10.9676 8.34704 10.9701 8.338 10.9723C8.32896 10.9746 8.31988 10.9766 8.31075 10.9784C8.30162 10.9802 8.29244 10.9818 8.28323 10.9832C8.27403 10.9845 8.26479 10.9857 8.25552 10.9866C8.24625 10.9875 8.23696 10.9882 8.22767 10.9886C8.21837 10.9891 8.20906 10.9893 8.19975 10.9893C8.19044 10.9893 8.18114 10.989 8.17184 10.9886C8.16253 10.9881 8.15325 10.9874 8.144 10.9865C8.13473 10.9856 8.12548 10.9844 8.11628 10.9831C8.10707 10.9817 8.09789 10.9801 8.08877 10.9783C8.07964 10.9765 8.07056 10.9744 8.06153 10.9722C8.05249 10.9699 8.04352 10.9674 8.03462 10.9647C8.02572 10.962 8.01687 10.9591 8.00811 10.9559C7.99935 10.9528 7.99066 10.9494 7.98207 10.9459C7.97347 10.9423 7.96495 10.9385 7.95654 10.9345C7.94813 10.9306 7.93982 10.9264 7.9316 10.922C7.9234 10.9176 7.91531 10.913 7.90732 10.9082C7.89934 10.9034 7.89148 10.8984 7.88374 10.8932C7.876 10.888 7.8684 10.8827 7.86092 10.8771C7.85344 10.8716 7.84611 10.8659 7.83891 10.86C7.83172 10.854 7.82467 10.848 7.81777 10.8417C7.81088 10.8355 7.80414 10.829 7.79756 10.8224C7.79099 10.8158 7.78456 10.8091 7.77831 10.8022C7.77207 10.7953 7.76599 10.7883 7.76009 10.7811C7.7542 10.7738 7.74847 10.7665 7.74293 10.759C7.73738 10.7515 7.73202 10.7439 7.72685 10.7362C7.72168 10.7284 7.71671 10.7206 7.71194 10.7126C7.70715 10.7046 7.70257 10.6965 7.69818 10.6883C7.69379 10.6801 7.68962 10.6718 7.68565 10.6633C7.68167 10.6549 7.67789 10.6464 7.67434 10.6378C7.67077 10.6292 7.66743 10.6205 7.6643 10.6117C7.66117 10.603 7.65825 10.5941 7.65555 10.5852C7.65286 10.5763 7.65039 10.5673 7.64813 10.5583C7.64587 10.5493 7.64384 10.5402 7.64202 10.5311C7.6402 10.5219 7.63861 10.5128 7.63726 10.5035C7.63591 10.4943 7.63477 10.4851 7.63386 10.4758C7.63295 10.4666 7.63227 10.4573 7.63182 10.448C7.63137 10.4387 7.63115 10.4294 7.63115 10.4201C7.63116 10.4107 7.6314 10.4015 7.63185 10.3922C7.63231 10.3828 7.63301 10.3736 7.63392 10.3643C7.63484 10.355 7.63598 10.3458 7.63736 10.3366C7.63872 10.3274 7.64032 10.3182 7.64214 10.3091C7.64396 10.3 7.64601 10.2909 7.64828 10.2818C7.65054 10.2728 7.65302 10.2638 7.65574 10.2549C7.65845 10.246 7.66138 10.2372 7.66451 10.2284C7.66765 10.2197 7.671 10.211 7.67457 10.2024C7.67814 10.1938 7.68193 10.1853 7.6859 10.1769C7.68988 10.1684 7.69408 10.1601 7.69847 10.1519C7.70286 10.1437 7.70745 10.1356 7.71225 10.1276C7.71705 10.1196 7.72203 10.1118 7.72721 10.104C7.73239 10.0963 7.73775 10.0887 7.7433 10.0812C7.74885 10.0738 7.75458 10.0664 7.76049 10.0592C7.76639 10.052 7.77248 10.045 7.77874 10.0381C7.78499 10.0312 7.79141 10.0245 7.798 10.0179L9.46925 8.3475C9.47583 8.34092 9.48257 8.33451 9.48947 8.32826C9.49636 8.32202 9.5034 8.31595 9.51061 8.31004C9.5178 8.30415 9.52513 8.29842 9.53261 8.29288C9.54008 8.28734 9.54769 8.28198 9.55542 8.27682C9.56316 8.27165 9.57102 8.26667 9.57901 8.26189C9.58698 8.2571 9.59507 8.25252 9.60329 8.24813C9.61149 8.24374 9.61981 8.23957 9.62821 8.2356C9.63662 8.23162 9.64513 8.22784 9.65372 8.22429C9.66232 8.22072 9.67101 8.21738 9.67977 8.21425C9.68853 8.21112 9.69737 8.2082 9.70627 8.20549C9.71517 8.2028 9.72414 8.20031 9.73316 8.19805C9.7422 8.1958 9.75127 8.19376 9.76039 8.19194C9.76951 8.19012 9.77869 8.18854 9.78789 8.18717C9.79709 8.18582 9.80633 8.18467 9.81559 8.18375C9.82484 8.18284 9.83413 8.18215 9.84341 8.1817C9.85271 8.18125 9.862 8.18102 9.87131 8.18102C9.88062 8.18102 9.88992 8.18125 9.89922 8.1817C9.9085 8.18215 9.91778 8.18284 9.92704 8.18375C9.9363 8.18467 9.94554 8.18582 9.95474 8.18717C9.96394 8.18854 9.97311 8.19012 9.98223 8.19194C9.99135 8.19376 10.0004 8.1958 10.0095 8.19805C10.0185 8.20031 10.0275 8.2028 10.0364 8.20549C10.0453 8.2082 10.0541 8.21112 10.0629 8.21425C10.0716 8.21738 10.0803 8.22072 10.0889 8.22429C10.0975 8.22784 10.106 8.23162 10.1144 8.2356C10.1228 8.23957 10.1311 8.24374 10.1393 8.24813C10.1476 8.25252 10.1556 8.2571 10.1636 8.26189C10.1716 8.26667 10.1795 8.27165 10.1872 8.27682C10.1949 8.28198 10.2025 8.28734 10.21 8.29288C10.2175 8.29842 10.2248 8.30415 10.232 8.31004C10.2392 8.31595 10.2463 8.32202 10.2532 8.32826C10.2601 8.33451 10.2668 8.34092 10.2734 8.3475L10.2725 8.3475ZM3.40025 8.23725C3.40683 8.23067 3.41357 8.22426 3.42047 8.21801C3.42736 8.21177 3.4344 8.2057 3.44161 8.19979C3.4488 8.1939 3.45613 8.18817 3.46361 8.18263C3.47108 8.17709 3.47869 8.17173 3.48642 8.16657C3.49416 8.1614 3.50202 8.15642 3.51001 8.15164C3.51798 8.14685 3.52607 8.14227 3.53429 8.13788C3.54249 8.13349 3.5508 8.12932 3.55921 8.12535C3.56762 8.12137 3.57613 8.11759 3.58472 8.11404C3.59332 8.11047 3.60201 8.10713 3.61077 8.104C3.61953 8.10087 3.62837 8.09795 3.63727 8.09524C3.64617 8.09255 3.65513 8.09006 3.66416 8.0878C3.6732 8.08555 3.68227 8.08351 3.69139 8.08169C3.70051 8.07987 3.70969 8.07829 3.71889 8.07692C3.72809 8.07557 3.73733 8.07443 3.74659 8.07352C3.75584 8.0726 3.76513 8.07192 3.77441 8.07145C3.78371 8.071 3.793 8.07077 3.80231 8.07077C3.81162 8.07077 3.82092 8.071 3.83022 8.07145C3.8395 8.07192 3.84878 8.0726 3.85804 8.07352C3.8673 8.07443 3.87654 8.07557 3.88574 8.07692C3.89494 8.07829 3.90411 8.07987 3.91323 8.08169C3.92235 8.08351 3.93143 8.08555 3.94047 8.0878C3.94949 8.09006 3.95846 8.09255 3.96736 8.09524C3.97626 8.09795 3.98509 8.10087 3.99386 8.104C4.00262 8.10713 4.0113 8.11047 4.0199 8.11404C4.0285 8.11759 4.037 8.12137 4.04541 8.12535C4.05382 8.12932 4.06213 8.13349 4.07034 8.13788C4.07855 8.14227 4.08665 8.14685 4.09462 8.15164C4.1026 8.15642 4.11046 8.1614 4.1182 8.16657C4.12594 8.17173 4.13354 8.17709 4.14102 8.18263C4.1485 8.18817 4.15583 8.1939 4.16302 8.19979C4.17022 8.2057 4.17726 8.21177 4.18415 8.21801C4.19106 8.22426 4.1978 8.23067 4.20438 8.23725L4.6375 8.67037L5.07063 8.23725C5.07721 8.23067 5.08396 8.22426 5.09086 8.21801C5.09776 8.21177 5.10482 8.20568 5.11202 8.19979C5.11923 8.19388 5.12657 8.18815 5.13405 8.18262C5.14153 8.17708 5.14914 8.17172 5.15689 8.16655C5.16465 8.16138 5.17251 8.15641 5.18049 8.15164C5.18849 8.14685 5.19658 8.14227 5.2048 8.13788C5.21302 8.13349 5.22133 8.12932 5.22975 8.12535C5.23817 8.12137 5.24669 8.11761 5.25529 8.11404C5.26389 8.11049 5.27259 8.10713 5.28135 8.104C5.29011 8.10087 5.29896 8.09796 5.30787 8.09527C5.31677 8.09258 5.32574 8.09009 5.33478 8.08783C5.34382 8.08558 5.35289 8.08354 5.36203 8.08172C5.37117 8.07991 5.38035 8.07833 5.38955 8.07696C5.39876 8.07561 5.40801 8.07447 5.41726 8.07356C5.42653 8.07264 5.43581 8.07197 5.44511 8.07152C5.45442 8.07107 5.46372 8.07084 5.47303 8.07084C5.48234 8.07085 5.49165 8.07108 5.50095 8.07153C5.51026 8.072 5.51954 8.07268 5.5288 8.0736C5.53807 8.07451 5.54731 8.07566 5.55651 8.07703C5.56573 8.0784 5.5749 8.08 5.58403 8.08181C5.59315 8.08363 5.60223 8.08567 5.61127 8.08794C5.6203 8.0902 5.62927 8.09268 5.63819 8.09539C5.64709 8.0981 5.65593 8.10102 5.6647 8.10415C5.67346 8.10729 5.68214 8.11065 5.69074 8.11422C5.69934 8.11779 5.70786 8.12156 5.71628 8.12554C5.72469 8.12952 5.733 8.1337 5.74122 8.13809C5.74943 8.14248 5.75753 8.14707 5.76551 8.15186C5.7735 8.15665 5.78136 8.16163 5.7891 8.1668C5.79685 8.17198 5.80445 8.17734 5.81193 8.18288C5.81941 8.18843 5.82675 8.19416 5.83394 8.20006C5.84115 8.20597 5.84819 8.21205 5.85509 8.2183C5.86199 8.22455 5.86873 8.23097 5.87531 8.23756C5.8819 8.24414 5.88833 8.25088 5.89457 8.25779C5.90082 8.26469 5.90691 8.27173 5.91281 8.27894C5.91872 8.28613 5.92445 8.29347 5.93 8.30095C5.93554 8.30843 5.9409 8.31603 5.94608 8.32377C5.95124 8.33152 5.95622 8.33938 5.96102 8.34736C5.96581 8.35535 5.9704 8.36344 5.97479 8.37166C5.97918 8.37988 5.98336 8.38819 5.98734 8.3966C5.99132 8.40502 5.99509 8.41352 5.99866 8.42212C6.00223 8.43072 6.00559 8.43942 6.00872 8.44818C6.01185 8.45694 6.01478 8.46579 6.01748 8.47469C6.02019 8.4836 6.02268 8.49257 6.02494 8.50161C6.02721 8.51065 6.02924 8.51972 6.03106 8.52884C6.03288 8.53798 6.03448 8.54715 6.03585 8.55637C6.03721 8.56557 6.03836 8.57481 6.03928 8.58408C6.04019 8.59333 6.04088 8.60262 6.04134 8.61193C6.04179 8.62122 6.04203 8.63054 6.04204 8.63985C6.04204 8.64916 6.04181 8.65845 6.04136 8.66776C6.0409 8.67706 6.04023 8.68634 6.03932 8.69561C6.0384 8.70487 6.03727 8.71411 6.03591 8.72333C6.03455 8.73253 6.03296 8.7417 6.03116 8.75083C6.02934 8.75997 6.0273 8.76906 6.02505 8.7781C6.02279 8.78713 6.0203 8.7961 6.01761 8.805C6.01491 8.81392 6.012 8.82276 6.00887 8.83153C6.00574 8.84029 6.00239 8.84898 5.99884 8.85758C5.99527 8.86618 5.99151 8.8747 5.98753 8.88312C5.98355 8.89155 5.97938 8.89986 5.97499 8.90807C5.9706 8.91629 5.96602 8.92439 5.96124 8.93238C5.95647 8.94037 5.95149 8.94823 5.94632 8.95598C5.94115 8.96373 5.9358 8.97135 5.93026 8.97883C5.92472 8.9863 5.91899 8.99365 5.91309 9.00085C5.90719 9.00806 5.90111 9.01511 5.89486 9.02202C5.88861 9.02892 5.8822 9.03566 5.87563 9.04225L5.44163 9.47538L5.87475 9.90763C5.88135 9.9142 5.88778 9.92095 5.89404 9.92786C5.9003 9.93476 5.90639 9.9418 5.91231 9.94901C5.91823 9.95621 5.92397 9.96356 5.92952 9.97104C5.93508 9.97851 5.94046 9.98612 5.94564 9.99387C5.95082 10.0016 5.95581 10.0095 5.96061 10.0175C5.96541 10.0255 5.97 10.0336 5.9744 10.0418C5.97879 10.05 5.98299 10.0583 5.98698 10.0668C5.99097 10.0752 5.99476 10.0837 5.99833 10.0923C6.0019 10.1009 6.00526 10.1096 6.00841 10.1184C6.01155 10.1271 6.01448 10.136 6.01718 10.1449C6.01989 10.1538 6.02238 10.1628 6.02465 10.1718C6.02692 10.1809 6.02897 10.19 6.03079 10.1991C6.03261 10.2083 6.03421 10.2174 6.03559 10.2267C6.03695 10.2359 6.0381 10.2451 6.03902 10.2544C6.03993 10.2637 6.04063 10.273 6.04108 10.2823C6.04155 10.2916 6.04178 10.3009 6.04178 10.3102C6.04179 10.3195 6.04156 10.3289 6.04111 10.3382C6.04066 10.3475 6.03998 10.3568 6.03906 10.366C6.03814 10.3753 6.03701 10.3846 6.03564 10.3938C6.03429 10.403 6.03269 10.4122 6.03087 10.4213C6.02905 10.4305 6.02701 10.4396 6.02476 10.4486C6.0225 10.4576 6.02001 10.4666 6.01731 10.4755C6.01461 10.4845 6.01169 10.4933 6.00854 10.5021C6.00541 10.5109 6.00206 10.5196 5.99849 10.5282C5.99493 10.5368 5.99115 10.5453 5.98717 10.5537C5.9832 10.5622 5.979 10.5705 5.97461 10.5787C5.97022 10.5869 5.96563 10.595 5.96083 10.603C5.95604 10.611 5.95107 10.6189 5.94589 10.6266C5.9407 10.6344 5.93534 10.642 5.92979 10.6495C5.92423 10.657 5.9185 10.6643 5.91259 10.6715C5.90667 10.6787 5.90059 10.6858 5.89433 10.6927C5.88808 10.6996 5.88165 10.7064 5.87506 10.7129C5.86847 10.7195 5.86172 10.726 5.85482 10.7322C5.84791 10.7385 5.84086 10.7445 5.83365 10.7505C5.82645 10.7564 5.81909 10.7621 5.81161 10.7677C5.80412 10.7732 5.79651 10.7786 5.78875 10.7838C5.781 10.7889 5.77314 10.7939 5.76514 10.7987C5.75714 10.8035 5.74904 10.8081 5.74082 10.8125C5.7326 10.8169 5.72428 10.8211 5.71584 10.825C5.70742 10.829 5.6989 10.8328 5.69029 10.8364C5.68168 10.8399 5.67298 10.8433 5.6642 10.8464C5.65543 10.8496 5.64658 10.8525 5.63767 10.8552C5.62874 10.8579 5.61976 10.8604 5.61072 10.8626C5.60168 10.8649 5.59259 10.8669 5.58344 10.8687C5.5743 10.8706 5.56512 10.8722 5.55591 10.8735C5.54668 10.8749 5.53744 10.876 5.52817 10.8769C5.51889 10.8779 5.5096 10.8785 5.50029 10.879C5.49098 10.8794 5.48166 10.8797 5.47235 10.8797C5.46302 10.8797 5.45371 10.8794 5.4444 10.879C5.43509 10.8785 5.42579 10.8778 5.41652 10.8769C5.40724 10.876 5.398 10.8748 5.38878 10.8735C5.37955 10.8721 5.37038 10.8705 5.36125 10.8687C5.3521 10.8668 5.34301 10.8648 5.33397 10.8625C5.32494 10.8603 5.31595 10.8578 5.30704 10.8551C5.29811 10.8524 5.28927 10.8494 5.2805 10.8463C5.27172 10.8431 5.26303 10.8398 5.25443 10.8362C5.24582 10.8326 5.2373 10.8288 5.22888 10.8249C5.22046 10.8209 5.21213 10.8167 5.20391 10.8123C5.1957 10.8079 5.1876 10.8033 5.1796 10.7985C5.17161 10.7937 5.16374 10.7887 5.15599 10.7835C5.14825 10.7783 5.14064 10.773 5.13316 10.7674C5.12568 10.7618 5.11834 10.7561 5.11114 10.7502C5.10393 10.7443 5.09689 10.7382 5.08998 10.7319C5.08308 10.7257 5.07633 10.7192 5.06975 10.7126L4.6375 10.2795L4.20438 10.7126C4.19779 10.7192 4.19105 10.7257 4.18414 10.7319C4.17724 10.7382 4.1702 10.7443 4.16299 10.7502C4.15579 10.7561 4.14844 10.7618 4.14097 10.7674C4.13349 10.773 4.12587 10.7783 4.11812 10.7835C4.11038 10.7887 4.10252 10.7937 4.09452 10.7985C4.08652 10.8033 4.07843 10.8079 4.07021 10.8123C4.062 10.8167 4.05367 10.8209 4.04525 10.8249C4.03683 10.8288 4.02831 10.8326 4.0197 10.8362C4.0111 10.8398 4.0024 10.8431 3.99362 10.8463C3.98486 10.8494 3.97601 10.8524 3.96709 10.8551C3.95817 10.8578 3.94919 10.8603 3.94015 10.8625C3.93112 10.8648 3.92202 10.8668 3.91288 10.8687C3.90374 10.8705 3.89457 10.8721 3.88534 10.8735C3.87613 10.8748 3.86688 10.876 3.8576 10.8769C3.84832 10.8778 3.83904 10.8785 3.82972 10.879C3.82041 10.8794 3.8111 10.8797 3.80178 10.8797C3.79247 10.8797 3.78314 10.8794 3.77383 10.879C3.76452 10.8785 3.75524 10.8779 3.74596 10.8769C3.73669 10.876 3.72745 10.8749 3.71822 10.8735C3.709 10.8722 3.69983 10.8706 3.69068 10.8687C3.68154 10.8669 3.67244 10.8649 3.66341 10.8626C3.65437 10.8604 3.64539 10.8579 3.63646 10.8552C3.62753 10.8525 3.61869 10.8496 3.60991 10.8464C3.60114 10.8433 3.59245 10.8399 3.58384 10.8364C3.57522 10.8328 3.56671 10.829 3.55828 10.825C3.54985 10.8211 3.54152 10.8169 3.5333 10.8125C3.52509 10.8081 3.51698 10.8035 3.50898 10.7987C3.50098 10.7939 3.49312 10.7889 3.48537 10.7838C3.47762 10.7786 3.46999 10.7732 3.46251 10.7677C3.45503 10.7621 3.44768 10.7564 3.44047 10.7505C3.43327 10.7445 3.42621 10.7385 3.41931 10.7322C3.4124 10.726 3.40565 10.7195 3.39906 10.7129C3.39247 10.7064 3.38605 10.6996 3.37978 10.6927C3.37354 10.6858 3.36745 10.6787 3.36153 10.6715C3.35561 10.6643 3.34988 10.657 3.34433 10.6495C3.33878 10.642 3.33342 10.6344 3.32824 10.6266C3.32306 10.6189 3.31808 10.611 3.3133 10.603C3.3085 10.595 3.3039 10.5869 3.29952 10.5787C3.29513 10.5705 3.29093 10.5622 3.28695 10.5537C3.28297 10.5453 3.2792 10.5368 3.27563 10.5282C3.27206 10.5196 3.26871 10.5109 3.26558 10.5021C3.26244 10.4933 3.25951 10.4845 3.25682 10.4755C3.25411 10.4666 3.25162 10.4576 3.24937 10.4486C3.24711 10.4396 3.24506 10.4305 3.24324 10.4213C3.24142 10.4122 3.23984 10.403 3.23848 10.3938C3.23712 10.3846 3.23598 10.3753 3.23507 10.366C3.23415 10.3568 3.23347 10.3475 3.23302 10.3382C3.23256 10.3289 3.23233 10.3195 3.23235 10.3102C3.23235 10.3009 3.23258 10.2916 3.23304 10.2823C3.23349 10.273 3.23419 10.2637 3.23511 10.2544C3.23602 10.2451 3.23717 10.2359 3.23854 10.2267C3.23992 10.2174 3.24152 10.2083 3.24334 10.1991C3.24516 10.19 3.24721 10.1809 3.24948 10.1718C3.25175 10.1628 3.25423 10.1538 3.25694 10.1449C3.25965 10.136 3.26257 10.1271 3.26572 10.1184C3.26886 10.1096 3.27223 10.1009 3.2758 10.0923C3.27936 10.0837 3.28315 10.0752 3.28714 10.0668C3.29114 10.0583 3.29533 10.05 3.29972 10.0418C3.30412 10.0336 3.30872 10.0255 3.31352 10.0175C3.31831 10.0095 3.3233 10.0016 3.32849 9.99387C3.33367 9.98612 3.33904 9.97851 3.34459 9.97104C3.35016 9.96356 3.35589 9.95621 3.3618 9.94901C3.36772 9.9418 3.37382 9.93476 3.38008 9.92786C3.38635 9.92095 3.39277 9.9142 3.39938 9.90763L3.83337 9.47538L3.40025 9.04225C3.39365 9.03567 3.38722 9.02893 3.38096 9.02203C3.3747 9.01513 3.36861 9.00808 3.36269 9.00088C3.35677 8.99367 3.35105 8.98635 3.34549 8.97887C3.33993 8.97139 3.33456 8.96377 3.32938 8.95602C3.32419 8.94827 3.31922 8.94041 3.31442 8.93242C3.30962 8.92443 3.30503 8.91633 3.30062 8.90812C3.29623 8.8999 3.29204 8.89159 3.28806 8.88316C3.28407 8.87474 3.28028 8.86622 3.27671 8.85761C3.27314 8.84901 3.26979 8.84032 3.26665 8.83155C3.2635 8.82278 3.26058 8.81393 3.25787 8.80502C3.25516 8.7961 3.25268 8.78712 3.25042 8.77808C3.24815 8.76904 3.2461 8.75997 3.24428 8.75082C3.24246 8.74167 3.24088 8.7325 3.2395 8.72329C3.23813 8.71407 3.23699 8.70483 3.23608 8.69556C3.23516 8.68628 3.23448 8.67699 3.23401 8.66768C3.23356 8.65837 3.23333 8.64906 3.23333 8.63975C3.23333 8.63044 3.23356 8.62113 3.23401 8.61182C3.23448 8.60251 3.23516 8.59321 3.23608 8.58394C3.23699 8.57467 3.23813 8.56543 3.2395 8.55622C3.24088 8.54699 3.24246 8.53781 3.24428 8.52868C3.2461 8.51953 3.24815 8.51044 3.25042 8.5014C3.25268 8.49237 3.25516 8.4834 3.25787 8.47448C3.26058 8.46557 3.2635 8.45673 3.26665 8.44795C3.26979 8.43918 3.27314 8.43049 3.27671 8.42188C3.28028 8.41328 3.28407 8.40476 3.28806 8.39634C3.29204 8.38791 3.29623 8.3796 3.30062 8.37139C3.30503 8.36317 3.30962 8.35507 3.31442 8.34708C3.31922 8.33908 3.32419 8.33122 3.32938 8.32348C3.33456 8.31573 3.33993 8.30811 3.34549 8.30063C3.35105 8.29315 3.35677 8.28583 3.36269 8.27862C3.36861 8.27142 3.3747 8.26438 3.38096 8.25747C3.38722 8.25057 3.39365 8.24383 3.40025 8.23725Z"   fill="#5380FD" >
</path>
</svg>
