<svg xmlns="http://www.w3.org/2000/svg" xmlns:xlink="http://www.w3.org/1999/xlink" width="16" height="16" viewBox="0 0 16 16" fill="none">
<path d="M12.3333 1.55548C12.3406 1.55548 12.3479 1.55565 12.3551 1.55601C12.3624 1.55637 12.3696 1.5569 12.3769 1.55761C12.3841 1.55833 12.3913 1.55922 12.3986 1.56028C12.4057 1.56135 12.4129 1.5626 12.4201 1.56401C12.4272 1.56543 12.4343 1.56702 12.4413 1.56879C12.4484 1.57056 12.4554 1.5725 12.4623 1.57461C12.4693 1.57672 12.4762 1.579 12.4831 1.58145C12.4899 1.58391 12.4967 1.58653 12.5034 1.58931C12.5101 1.59209 12.5168 1.59504 12.5234 1.59815C12.5299 1.60126 12.5364 1.60452 12.5428 1.60795C12.5493 1.61138 12.5556 1.61496 12.5618 1.6187C12.5681 1.62244 12.5742 1.62633 12.5803 1.63037C12.5863 1.63441 12.5923 1.6386 12.5981 1.64293C12.6039 1.64727 12.6097 1.65174 12.6153 1.65636C12.6209 1.66097 12.6264 1.66572 12.6318 1.67061C12.6372 1.67549 12.6425 1.68051 12.6476 1.68565C12.6527 1.69079 12.6578 1.69606 12.6626 1.70145C12.6675 1.70684 12.6723 1.71234 12.6769 1.71797C12.6815 1.72359 12.686 1.72933 12.6903 1.73517C12.6946 1.74101 12.6988 1.74696 12.7029 1.753C12.7069 1.75905 12.7108 1.7652 12.7146 1.77143C12.7183 1.77767 12.7219 1.784 12.7253 1.7904C12.7287 1.79682 12.732 1.80331 12.7351 1.80989C12.7382 1.81647 12.7412 1.82312 12.7439 1.82984C12.7467 1.83656 12.7493 1.84334 12.7518 1.85018C12.7542 1.85704 12.7565 1.86395 12.7586 1.8709C12.7608 1.87786 12.7627 1.88487 12.7645 1.89193C12.7662 1.89899 12.7678 1.90608 12.7692 1.91322C12.7706 1.92035 12.7719 1.92751 12.773 1.9347C12.774 1.9419 12.7749 1.94912 12.7756 1.95636C12.7763 1.9636 12.7769 1.97085 12.7772 1.97811C12.7776 1.98538 12.7778 1.99265 12.7778 1.99992L12.7778 10.0435C12.8247 10.0526 12.8713 10.0631 12.9176 10.0751C12.9639 10.0871 13.0098 10.1005 13.0553 10.1153C13.1007 10.13 13.1457 10.1462 13.1902 10.1638C13.2347 10.1813 13.2786 10.2002 13.3219 10.2205C13.3652 10.2408 13.4078 10.2623 13.4498 10.2852C13.4918 10.3081 13.533 10.3322 13.5736 10.3576C13.614 10.383 13.6537 10.4097 13.6926 10.4375C13.7315 10.4654 13.7694 10.4944 13.8065 10.5246C13.8436 10.5548 13.8797 10.5861 13.9149 10.6185C13.95 10.6509 13.9841 10.6844 14.0173 10.7189C14.0503 10.7534 14.0823 10.7889 14.1133 10.8254C14.1442 10.8618 14.1739 10.8992 14.2026 10.9375C14.2312 10.9758 14.2586 11.015 14.2848 11.055C14.311 11.095 14.336 11.1357 14.3597 11.1772C14.3834 11.2188 14.4058 11.261 14.4269 11.3039C14.448 11.3468 14.4678 11.3903 14.4863 11.4344C14.5047 11.4785 14.5217 11.5232 14.5374 11.5683C14.5531 11.6135 14.5674 11.6591 14.5803 11.7052C14.5932 11.7512 14.6047 11.7976 14.6147 11.8443C14.6247 11.8911 14.6333 11.9381 14.6405 11.9854C14.6476 12.0327 14.6533 12.0801 14.6575 12.1278C14.6618 12.1754 14.6645 12.2231 14.6658 12.2709C14.6671 12.3187 14.6669 12.3665 14.6653 12.4143C14.6636 12.462 14.6605 12.5097 14.656 12.5573C14.6514 12.6049 14.6453 12.6523 14.6379 12.6996C14.6304 12.7468 14.6214 12.7937 14.6111 12.8404C14.6007 12.8871 14.5889 12.9334 14.5757 12.9794C14.5624 13.0253 14.5478 13.0708 14.5318 13.1159C14.5158 13.1609 14.4984 13.2054 14.4796 13.2494C14.4609 13.2934 14.4408 13.3368 14.4194 13.3795C14.3979 13.4223 14.3752 13.4643 14.3512 13.5057C14.3272 13.547 14.302 13.5876 14.2755 13.6274C14.249 13.6672 14.2213 13.7061 14.1924 13.7442C14.1635 13.7823 14.1334 13.8195 14.1022 13.8557C14.0711 13.892 14.0388 13.9272 14.0054 13.9615C13.9721 13.9958 13.9377 14.029 13.9023 14.0611C13.8669 14.0933 13.8306 14.1243 13.7933 14.1542C13.756 14.1841 13.7178 14.2129 13.6788 14.2405C13.6397 14.268 13.5998 14.2944 13.5591 14.3195C13.5184 14.3446 13.477 14.3685 13.4349 14.391C13.3927 14.4136 13.3499 14.4349 13.3065 14.4548C13.263 14.4748 13.219 14.4933 13.1744 14.5106C13.1298 14.5278 13.0847 14.5437 13.0391 14.5581C12.9935 14.5726 12.9476 14.5856 12.9012 14.5973C12.8548 14.6089 12.8081 14.6191 12.7611 14.6279C12.7141 14.6366 12.6669 14.644 12.6194 14.6498C12.572 14.6557 12.5244 14.6601 12.4766 14.663C12.4289 14.666 12.3811 14.6674 12.3333 14.6674C12.2855 14.6674 12.2378 14.666 12.19 14.663C12.1423 14.6601 12.0947 14.6557 12.0473 14.6498C11.9998 14.644 11.9526 14.6366 11.9056 14.6279C11.8586 14.6191 11.8119 14.6089 11.7655 14.5973C11.7191 14.5856 11.6731 14.5726 11.6276 14.5581C11.582 14.5437 11.5369 14.5278 11.4923 14.5106C11.4477 14.4933 11.4037 14.4748 11.3602 14.4548C11.3167 14.4349 11.2739 14.4136 11.2318 14.391C11.1896 14.3685 11.1482 14.3446 11.1075 14.3195C11.0669 14.2944 11.027 14.268 10.9879 14.2405C10.9488 14.2129 10.9107 14.1841 10.8734 14.1542C10.8361 14.1243 10.7997 14.0933 10.7643 14.0611C10.7289 14.029 10.6946 13.9958 10.6612 13.9615C10.6279 13.9272 10.5956 13.892 10.5644 13.8557C10.5332 13.8195 10.5032 13.7823 10.4743 13.7442C10.4454 13.7061 10.4177 13.6672 10.3912 13.6274C10.3647 13.5876 10.3394 13.547 10.3154 13.5057C10.2914 13.4643 10.2687 13.4223 10.2473 13.3795C10.2259 13.3368 10.2058 13.2934 10.187 13.2494C10.1683 13.2054 10.1509 13.1609 10.1349 13.1159C10.1188 13.0708 10.1042 13.0253 10.091 12.9794C10.0778 12.9334 10.066 12.8871 10.0556 12.8404C10.0452 12.7937 10.0363 12.7468 10.0288 12.6996C10.0213 12.6523 10.0153 12.6049 10.0107 12.5573C10.0061 12.5097 10.003 12.462 10.0014 12.4143C9.99972 12.3665 9.99955 12.3187 10.0009 12.2709C10.0021 12.2231 10.0049 12.1754 10.0091 12.1278C10.0134 12.0801 10.0191 12.0327 10.0262 11.9854C10.0333 11.9381 10.0419 11.8911 10.052 11.8443C10.062 11.7976 10.0735 11.7512 10.0864 11.7052C10.0992 11.6591 10.1135 11.6135 10.1292 11.5683C10.1449 11.5232 10.162 11.4785 10.1804 11.4344C10.1989 11.3903 10.2186 11.3468 10.2398 11.3039C10.2608 11.261 10.2833 11.2188 10.307 11.1772C10.3307 11.1357 10.3556 11.095 10.3818 11.055C10.4081 11.015 10.4355 10.9758 10.4641 10.9375C10.4927 10.8992 10.5225 10.8618 10.5534 10.8254C10.5843 10.7889 10.6163 10.7534 10.6494 10.7189C10.6825 10.6844 10.7167 10.6509 10.7518 10.6185C10.787 10.5861 10.8231 10.5548 10.8602 10.5246C10.8972 10.4944 10.9352 10.4654 10.9741 10.4375C11.0129 10.4097 11.0526 10.383 11.0931 10.3576C11.1336 10.3322 11.1749 10.3081 11.2169 10.2852C11.2588 10.2623 11.3015 10.2408 11.3448 10.2205C11.3881 10.2002 11.432 10.1813 11.4765 10.1638C11.521 10.1462 11.5659 10.13 11.6114 10.1153C11.6569 10.1005 11.7028 10.0871 11.7491 10.0751C11.7953 10.0631 11.842 10.0526 11.8889 10.0435L11.8889 1.99992C11.8889 1.99265 11.8891 1.98538 11.8894 1.97811C11.8898 1.97085 11.8903 1.9636 11.891 1.95636C11.8917 1.94912 11.8926 1.9419 11.8937 1.9347C11.8948 1.92751 11.896 1.92035 11.8974 1.91322C11.8988 1.90608 11.9004 1.89899 11.9022 1.89193C11.904 1.88487 11.9059 1.87786 11.908 1.8709C11.9101 1.86395 11.9124 1.85704 11.9149 1.85018C11.9173 1.84334 11.9199 1.83656 11.9227 1.82984C11.9255 1.82312 11.9284 1.81647 11.9316 1.80989C11.9347 1.80331 11.9379 1.79682 11.9414 1.7904C11.9448 1.784 11.9484 1.77767 11.9521 1.77143C11.9559 1.7652 11.9598 1.75905 11.9638 1.753C11.9678 1.74696 11.972 1.74101 11.9764 1.73517C11.9807 1.72933 11.9851 1.72359 11.9898 1.71797C11.9944 1.71234 11.9991 1.70684 12.004 1.70145C12.0089 1.69606 12.0139 1.69079 12.0191 1.68565C12.0242 1.68051 12.0295 1.67549 12.0349 1.67061C12.0403 1.66572 12.0458 1.66097 12.0514 1.65636C12.057 1.65174 12.0627 1.64727 12.0686 1.64293C12.0744 1.6386 12.0804 1.63441 12.0864 1.63037C12.0925 1.62633 12.0986 1.62244 12.1048 1.6187C12.1111 1.61496 12.1174 1.61138 12.1238 1.60795C12.1302 1.60452 12.1367 1.60126 12.1433 1.59815C12.1499 1.59504 12.1565 1.59209 12.1633 1.58931C12.17 1.58653 12.1768 1.58391 12.1836 1.58145C12.1905 1.579 12.1973 1.57672 12.2043 1.57461C12.2113 1.5725 12.2183 1.57056 12.2253 1.56879C12.2324 1.56702 12.2395 1.56543 12.2466 1.56401C12.2538 1.5626 12.2609 1.56135 12.2681 1.56028C12.2753 1.55922 12.2825 1.55833 12.2898 1.55761C12.297 1.5569 12.3043 1.55637 12.3115 1.55601C12.3188 1.55565 12.326 1.55548 12.3333 1.55548ZM3.66667 1.33325C3.70242 1.33339 3.73817 1.33434 3.77389 1.33612C3.80961 1.3379 3.84527 1.34049 3.88088 1.34391C3.91647 1.34733 3.95199 1.35156 3.98739 1.35661C4.0228 1.36166 4.05807 1.36752 4.09321 1.37419C4.12833 1.38086 4.1633 1.38834 4.1981 1.39662C4.23288 1.4049 4.26747 1.41397 4.30185 1.42384C4.33622 1.43371 4.37036 1.44436 4.40425 1.4558C4.43813 1.46724 4.47174 1.47945 4.50507 1.49244C4.53838 1.50542 4.57139 1.51917 4.60408 1.53367C4.63677 1.54817 4.66911 1.56341 4.70111 1.5794C4.7331 1.59539 4.76471 1.61211 4.79594 1.62956C4.82716 1.647 4.85796 1.66515 4.88835 1.68401C4.91874 1.70287 4.94868 1.72241 4.97818 1.74265C5.00766 1.76288 5.03666 1.78378 5.06519 1.80536C5.09372 1.82693 5.12174 1.84914 5.14925 1.872C5.17675 1.89485 5.20371 1.91833 5.23014 1.94243C5.25657 1.96653 5.28242 1.99122 5.30772 2.01651C5.333 2.04179 5.35771 2.06765 5.38182 2.09408C5.40591 2.1205 5.42939 2.14747 5.45227 2.17497C5.47513 2.20247 5.49735 2.23048 5.51892 2.259C5.54049 2.28753 5.56139 2.31653 5.58164 2.34601C5.60188 2.3755 5.62143 2.40544 5.6403 2.43583C5.65916 2.46621 5.67732 2.49701 5.69477 2.52823C5.71221 2.55945 5.72894 2.59105 5.74494 2.62304C5.76092 2.65503 5.77618 2.68737 5.79069 2.72006C5.80519 2.75276 5.81894 2.78576 5.83194 2.81908C5.84492 2.8524 5.85714 2.886 5.8686 2.91989C5.88003 2.95377 5.89069 2.98791 5.90057 3.02228C5.91044 3.05666 5.91952 3.09124 5.92782 3.12603C5.9361 3.16081 5.94357 3.19578 5.95025 3.23092C5.95693 3.26605 5.96278 3.30133 5.96785 3.33674C5.97291 3.37214 5.97714 3.40764 5.98057 3.44325C5.98399 3.47885 5.9866 3.5145 5.98838 3.55022C5.99016 3.58594 5.99111 3.62167 5.99127 3.65745C5.99139 3.6932 5.99072 3.72896 5.98922 3.7647C5.98772 3.80042 5.98539 3.83611 5.98225 3.87174C5.9791 3.90736 5.97514 3.94289 5.97036 3.97835C5.96558 4.01378 5.95999 4.0491 5.9536 4.08428C5.94719 4.11947 5.93997 4.15449 5.93197 4.18935C5.92394 4.22421 5.91513 4.25886 5.90553 4.29331C5.89593 4.32775 5.88553 4.36197 5.87436 4.39594C5.86317 4.42991 5.85122 4.46361 5.8385 4.49703C5.82577 4.53045 5.81227 4.56356 5.79802 4.59638C5.78377 4.62917 5.76877 4.66163 5.75303 4.69375C5.73728 4.72586 5.7208 4.7576 5.70361 4.78895C5.68639 4.8203 5.66849 4.85125 5.64986 4.88178C5.63124 4.91231 5.61191 4.94239 5.59191 4.97205C5.57189 5.00167 5.55121 5.03085 5.52986 5.05955C5.50852 5.08824 5.48652 5.11642 5.46388 5.14411C5.44122 5.17178 5.41794 5.19892 5.39407 5.22555C5.37016 5.25214 5.34567 5.27819 5.32058 5.30369C5.29549 5.32916 5.26982 5.35405 5.24358 5.37836C5.21733 5.40266 5.19055 5.42635 5.16324 5.44942C5.13589 5.47249 5.10805 5.49492 5.07971 5.51674C5.05133 5.53852 5.02249 5.55964 4.99318 5.58011C4.96383 5.60058 4.93405 5.62036 4.90382 5.63945C4.87357 5.65855 4.84291 5.67694 4.81183 5.69463C4.78074 5.71231 4.74925 5.72927 4.71739 5.74552C4.68552 5.76175 4.6533 5.77725 4.62074 5.79202C4.58814 5.80677 4.55525 5.82077 4.52203 5.83402C4.48882 5.84725 4.4553 5.85972 4.4215 5.87144C4.38771 5.88313 4.35366 5.89405 4.31936 5.9042C4.28507 5.91433 4.25055 5.92367 4.21583 5.93224C4.1811 5.94078 4.14619 5.94853 4.11111 5.95549L4.11111 13.9999C4.11111 14.0072 4.11092 14.0145 4.11058 14.0217C4.11022 14.029 4.10969 14.0362 4.10897 14.0435C4.10825 14.0507 4.10736 14.0579 4.1063 14.0651C4.10524 14.0723 4.10399 14.0795 4.10258 14.0866C4.10114 14.0938 4.09955 14.1008 4.0978 14.1079C4.09602 14.115 4.09408 14.122 4.09197 14.1289C4.08986 14.1359 4.08758 14.1428 4.08513 14.1497C4.08267 14.1565 4.08007 14.1633 4.07728 14.17C4.0745 14.1767 4.07155 14.1834 4.06844 14.1899C4.06533 14.1965 4.06207 14.203 4.05863 14.2094C4.05519 14.2158 4.05161 14.2222 4.04788 14.2284C4.04413 14.2346 4.04024 14.2408 4.03621 14.2468C4.03216 14.2529 4.02797 14.2588 4.02364 14.2647C4.0193 14.2705 4.01483 14.2763 4.01022 14.2819C4.0056 14.2875 4.00086 14.293 3.99599 14.2984C3.9911 14.3038 3.98608 14.309 3.98094 14.3142C3.97578 14.3193 3.97052 14.3243 3.96514 14.3292C3.95974 14.3341 3.95424 14.3389 3.94863 14.3435C3.943 14.3481 3.93727 14.3526 3.93142 14.3569C3.92558 14.3612 3.91963 14.3654 3.91358 14.3695C3.90753 14.3735 3.90139 14.3774 3.89516 14.3811C3.88891 14.3849 3.88258 14.3885 3.87617 14.3919C3.86975 14.3953 3.86325 14.3986 3.85669 14.4017C3.85011 14.4048 3.84347 14.4078 3.83675 14.4105C3.83003 14.4133 3.82324 14.4159 3.81639 14.4184C3.80955 14.4208 3.80264 14.4231 3.79569 14.4252C3.78872 14.4273 3.78171 14.4293 3.77466 14.431C3.7676 14.4328 3.7605 14.4344 3.75338 14.4358C3.74624 14.4372 3.73907 14.4385 3.73188 14.4396C3.72469 14.4406 3.71747 14.4415 3.71024 14.4422C3.70299 14.4429 3.69574 14.4435 3.68847 14.4438C3.68121 14.4442 3.67394 14.4444 3.66667 14.4444C3.65939 14.4444 3.65211 14.4442 3.64486 14.4438C3.6376 14.4435 3.63035 14.4429 3.62311 14.4422C3.61586 14.4415 3.60864 14.4406 3.60146 14.4396C3.59425 14.4385 3.58708 14.4372 3.57996 14.4358C3.57283 14.4344 3.56574 14.4328 3.55867 14.431C3.55161 14.4293 3.54461 14.4273 3.53766 14.4252C3.53069 14.4231 3.52378 14.4208 3.51694 14.4184C3.5101 14.4159 3.5033 14.4133 3.49658 14.4105C3.48986 14.4078 3.48321 14.4048 3.47664 14.4017C3.47007 14.3986 3.46357 14.3953 3.45716 14.3919C3.45074 14.3885 3.44441 14.3849 3.43817 14.3811C3.43192 14.3774 3.42578 14.3735 3.41975 14.3695C3.41369 14.3654 3.40775 14.3612 3.40191 14.3569C3.39607 14.3526 3.39033 14.3481 3.38472 14.3435C3.3791 14.3389 3.37358 14.3341 3.36821 14.3292C3.3628 14.3243 3.35753 14.3193 3.35239 14.3142C3.34725 14.309 3.34224 14.3038 3.33736 14.2984C3.33247 14.293 3.32772 14.2875 3.32311 14.2819C3.31849 14.2763 3.31402 14.2705 3.30969 14.2647C3.30535 14.2588 3.30116 14.2529 3.29713 14.2468C3.29308 14.2408 3.28919 14.2346 3.28546 14.2284C3.28171 14.2222 3.27813 14.2158 3.27471 14.2094C3.27127 14.203 3.268 14.1965 3.26489 14.1899C3.26178 14.1834 3.25883 14.1767 3.25605 14.17C3.25327 14.1633 3.25064 14.1565 3.24821 14.1497C3.24575 14.1428 3.24347 14.1359 3.24136 14.1289C3.23924 14.122 3.2373 14.115 3.23555 14.1079C3.23377 14.1008 3.23217 14.0938 3.23077 14.0866C3.22935 14.0795 3.2281 14.0723 3.22703 14.0651C3.22597 14.0579 3.22508 14.0507 3.22436 14.0435C3.22364 14.0362 3.22311 14.029 3.22275 14.0217C3.22239 14.0145 3.22222 14.0072 3.22222 13.9999L3.22222 5.95549C3.18703 5.94864 3.15202 5.94102 3.11719 5.93258C3.08235 5.92414 3.04772 5.91491 3.01332 5.90488C2.97889 5.89483 2.94472 5.884 2.91082 5.87241C2.8769 5.86078 2.84328 5.84841 2.80993 5.83525C2.77659 5.82208 2.74357 5.80816 2.71087 5.79347C2.67817 5.77878 2.64583 5.76336 2.61384 5.74719C2.58185 5.731 2.55025 5.71411 2.51904 5.69649C2.48782 5.67885 2.45703 5.6605 2.42667 5.64145C2.39631 5.62239 2.36641 5.60266 2.33695 5.58224C2.30749 5.5618 2.27852 5.5407 2.25004 5.51894C2.22156 5.49717 2.1936 5.47477 2.16615 5.45172C2.1387 5.42866 2.1118 5.40497 2.08545 5.38069C2.0591 5.35639 2.03331 5.3315 2.00811 5.30602C1.9829 5.28053 1.95829 5.25449 1.93428 5.22786C1.91027 5.20124 1.88689 5.17408 1.86414 5.14639C1.84138 5.11869 1.81927 5.09049 1.79781 5.06178C1.77636 5.03306 1.75558 5.00386 1.73547 4.97419C1.71536 4.94452 1.69595 4.91439 1.67722 4.88383C1.6585 4.85325 1.64049 4.82227 1.6232 4.79088C1.60591 4.75947 1.58935 4.72769 1.57353 4.69553C1.5577 4.66338 1.54262 4.63086 1.52829 4.598C1.51397 4.56514 1.5004 4.53197 1.4876 4.4985C1.4748 4.465 1.46278 4.43125 1.45154 4.39722C1.4403 4.36317 1.42985 4.32889 1.42019 4.29438C1.41052 4.25986 1.40166 4.22514 1.3936 4.19022C1.38554 4.15528 1.37829 4.12019 1.37185 4.08492C1.3654 4.04966 1.35978 4.01427 1.35497 3.97875C1.35016 3.94322 1.34617 3.90761 1.343 3.87192C1.33983 3.83621 1.33748 3.80045 1.33596 3.76464C1.33444 3.72883 1.33375 3.69299 1.33388 3.65714C1.33401 3.6213 1.33497 3.58547 1.33675 3.54967C1.33853 3.51386 1.34114 3.47813 1.34457 3.44245C1.348 3.40677 1.35225 3.37119 1.35732 3.33571C1.3624 3.30022 1.36828 3.26488 1.37498 3.22966C1.38168 3.19444 1.38919 3.15941 1.39751 3.12453C1.40583 3.08966 1.41494 3.055 1.42486 3.02056C1.43477 2.98611 1.44547 2.95191 1.45697 2.91797C1.46846 2.88401 1.48072 2.85034 1.49377 2.81695C1.50681 2.78356 1.52062 2.75049 1.53519 2.71773C1.54975 2.68498 1.56507 2.65259 1.58114 2.62054C1.5972 2.5885 1.61399 2.55685 1.63151 2.52558C1.64903 2.49429 1.66726 2.46344 1.6862 2.43301C1.70515 2.40259 1.72478 2.37261 1.74511 2.34308C1.76544 2.31356 1.78644 2.28451 1.80811 2.25595C1.82976 2.2274 1.85207 2.19936 1.87503 2.17183C1.89799 2.14429 1.92157 2.11731 1.94578 2.09087C1.96998 2.06443 1.99477 2.03856 2.02017 2.01326C2.04556 1.98796 2.07153 1.96326 2.09806 1.93917C2.1246 1.91506 2.15168 1.89159 2.17929 1.86873C2.20691 1.84588 2.23503 1.82367 2.26367 1.80212C2.29231 1.78056 2.32144 1.75967 2.35104 1.73947C2.38065 1.71925 2.4107 1.69973 2.4412 1.6809C2.4717 1.66208 2.50262 1.64397 2.53395 1.62656C2.56529 1.60915 2.59702 1.59248 2.62912 1.57654C2.66123 1.56061 2.69368 1.54541 2.7265 1.53097C2.7593 1.51653 2.79242 1.50285 2.82586 1.48993C2.85929 1.47702 2.89301 1.46488 2.92702 1.45352C2.96102 1.44215 2.99525 1.43158 3.02974 1.4218C3.06422 1.41202 3.09891 1.40303 3.13382 1.39485C3.16871 1.38667 3.20377 1.37929 3.23902 1.37272C3.27425 1.36616 3.30963 1.36041 3.34514 1.35547C3.38064 1.35053 3.41624 1.34642 3.45194 1.34313C3.48763 1.33983 3.52338 1.33736 3.55919 1.33571C3.59499 1.33407 3.63082 1.33325 3.66667 1.33325ZM8 1.55548C8.00727 1.55548 8.01453 1.55565 8.02182 1.55601C8.02907 1.55637 8.03632 1.5569 8.04357 1.55761C8.0508 1.55833 8.05802 1.55922 8.06522 1.56028C8.07241 1.56135 8.07957 1.5626 8.08671 1.56401C8.09383 1.56543 8.10093 1.56702 8.10799 1.56879C8.11505 1.57056 8.12205 1.5725 8.12902 1.57461C8.13597 1.57672 8.14288 1.579 8.14974 1.58145C8.15658 1.58391 8.16336 1.58653 8.17008 1.58931C8.1768 1.59209 8.18344 1.59504 8.19002 1.59815C8.1966 1.60126 8.2031 1.60452 8.20952 1.60795C8.21593 1.61138 8.22224 1.61496 8.22849 1.6187C8.23472 1.62244 8.24086 1.62633 8.24693 1.63037C8.25296 1.63441 8.25891 1.6386 8.26475 1.64293C8.2706 1.64727 8.27633 1.65174 8.28196 1.65636C8.28758 1.66097 8.29308 1.66572 8.29847 1.67061C8.30386 1.67549 8.30913 1.68051 8.31427 1.68565C8.31941 1.69079 8.32442 1.69606 8.32932 1.70145C8.33419 1.70684 8.33894 1.71234 8.34356 1.71797C8.34818 1.72359 8.35264 1.72933 8.35699 1.73517C8.36132 1.74101 8.3655 1.74696 8.36955 1.753C8.37358 1.75905 8.37747 1.7652 8.38122 1.77143C8.38496 1.77767 8.38853 1.784 8.39197 1.7904C8.39539 1.79682 8.39866 1.80331 8.40177 1.80989C8.40488 1.81647 8.40783 1.82312 8.41061 1.82984C8.41339 1.83656 8.416 1.84334 8.41847 1.85018C8.42091 1.85704 8.42319 1.86395 8.42532 1.8709C8.42741 1.87786 8.42935 1.88487 8.43113 1.89193C8.43289 1.89899 8.43449 1.90608 8.43591 1.91322C8.43732 1.92035 8.43857 1.92751 8.43964 1.9347C8.44071 1.9419 8.44158 1.94912 8.4423 1.95636C8.44302 1.9636 8.44355 1.97085 8.44391 1.97811C8.44425 1.98538 8.44444 1.99265 8.44444 1.99992L8.44444 5.71014C8.47727 5.71661 8.50994 5.72378 8.54246 5.73166C8.57497 5.73952 8.6073 5.74808 8.63946 5.75736C8.67161 5.76661 8.70355 5.77656 8.73527 5.7872C8.76699 5.79783 8.79846 5.80914 8.82969 5.82114C8.86093 5.83313 8.89189 5.84578 8.92258 5.85911C8.95327 5.87242 8.98366 5.88641 9.01375 5.90105C9.04383 5.91567 9.0736 5.93094 9.10303 5.94685C9.13246 5.96275 9.16154 5.9793 9.19025 5.99645C9.21897 6.01361 9.24732 6.03139 9.27527 6.04977C9.30322 6.06814 9.33077 6.08711 9.35793 6.10669C9.38505 6.12625 9.41175 6.14638 9.43804 6.1671C9.46432 6.18781 9.49013 6.20908 9.51549 6.23091C9.54083 6.25272 9.56572 6.27508 9.59013 6.29799C9.61452 6.32086 9.63841 6.34427 9.6618 6.36821C9.68519 6.39213 9.70805 6.41653 9.73039 6.44144C9.75274 6.46635 9.77453 6.49172 9.79578 6.51756C9.81703 6.54341 9.83771 6.56969 9.85783 6.59642C9.87794 6.62316 9.89747 6.65031 9.91643 6.67789C9.93536 6.70545 9.95372 6.73342 9.97147 6.76178C9.98922 6.79014 10.0063 6.81888 10.0229 6.84799C10.0394 6.87708 10.0552 6.90652 10.0705 6.9363C10.0857 6.96608 10.1003 6.99617 10.1143 7.0266C10.1282 7.057 10.1415 7.08769 10.1542 7.11867C10.1668 7.14964 10.1787 7.18089 10.19 7.21239C10.2013 7.24389 10.2119 7.27561 10.2218 7.30756C10.2318 7.3395 10.241 7.37166 10.2495 7.40402C10.258 7.43636 10.2659 7.46888 10.273 7.50156C10.2802 7.53425 10.2866 7.56706 10.2923 7.60003C10.2981 7.633 10.3031 7.66606 10.3074 7.69925C10.3117 7.73242 10.3153 7.76567 10.3182 7.79902C10.321 7.83235 10.3232 7.86572 10.3246 7.89916C10.3261 7.93258 10.3268 7.96602 10.3268 7.99949C10.3268 8.03292 10.3261 8.06636 10.3246 8.0998C10.3232 8.13322 10.321 8.1666 10.3182 8.19994C10.3153 8.23327 10.3117 8.26652 10.3074 8.2997C10.3031 8.33288 10.2981 8.36595 10.2923 8.39892C10.2866 8.43188 10.2802 8.4647 10.273 8.49739C10.2659 8.53008 10.258 8.5626 10.2495 8.59494C10.241 8.62728 10.2318 8.65944 10.2218 8.69139C10.2119 8.72334 10.2013 8.75506 10.19 8.78656C10.1787 8.81806 10.1668 8.8493 10.1542 8.88028C10.1415 8.91125 10.1282 8.94195 10.1143 8.97236C10.1003 9.00277 10.0857 9.03288 10.0705 9.06266C10.0552 9.09244 10.0394 9.12188 10.0229 9.15097C10.0063 9.18006 9.98922 9.2088 9.97147 9.23717C9.95372 9.26552 9.93536 9.29349 9.91643 9.32106C9.89747 9.34863 9.87794 9.37578 9.85783 9.40253C9.83771 9.42925 9.81703 9.45555 9.79578 9.48139C9.77453 9.50724 9.75274 9.53261 9.73039 9.55752C9.70805 9.58242 9.68519 9.60683 9.6618 9.63075C9.63841 9.65467 9.61452 9.67808 9.59013 9.70097C9.56572 9.72386 9.54083 9.74622 9.51549 9.76805C9.49013 9.78986 9.46432 9.81114 9.43804 9.83186C9.41175 9.85256 9.38505 9.8727 9.35791 9.89227C9.33077 9.91183 9.30322 9.93081 9.27527 9.94919C9.24732 9.96756 9.21897 9.98535 9.19025 10.0025C9.16154 10.0197 9.13246 10.0362 9.10303 10.0521C9.0736 10.068 9.04383 10.0833 9.01375 10.0979C8.98366 10.1125 8.95327 10.1265 8.92258 10.1398C8.89189 10.1532 8.86093 10.1658 8.82969 10.1778C8.79846 10.1898 8.76699 10.2011 8.73527 10.2118C8.70355 10.2224 8.67161 10.2323 8.63946 10.2416C8.6073 10.2509 8.57497 10.2594 8.54246 10.2673C8.50994 10.2752 8.47727 10.2823 8.44444 10.2888L8.44444 13.9999C8.44444 14.0072 8.44425 14.0145 8.44391 14.0217C8.44355 14.029 8.44302 14.0362 8.4423 14.0435C8.44158 14.0507 8.44071 14.0579 8.43964 14.0651C8.43857 14.0723 8.43732 14.0795 8.43591 14.0866C8.43449 14.0938 8.43289 14.1008 8.43113 14.1079C8.42935 14.115 8.42741 14.122 8.42532 14.1289C8.42319 14.1359 8.42091 14.1428 8.41847 14.1497C8.416 14.1565 8.41339 14.1633 8.41061 14.17C8.40783 14.1767 8.40488 14.1834 8.40177 14.1899C8.39866 14.1965 8.39539 14.203 8.39197 14.2094C8.38853 14.2158 8.38496 14.2222 8.38122 14.2284C8.37747 14.2346 8.37358 14.2408 8.36955 14.2468C8.3655 14.2529 8.36132 14.2588 8.35699 14.2647C8.35264 14.2705 8.34818 14.2763 8.34356 14.2819C8.33894 14.2875 8.33419 14.293 8.32932 14.2984C8.32442 14.3038 8.31941 14.309 8.31427 14.3142C8.30913 14.3193 8.30386 14.3243 8.29847 14.3292C8.29308 14.3341 8.28758 14.3389 8.28196 14.3435C8.27633 14.3481 8.2706 14.3526 8.26475 14.3569C8.25891 14.3612 8.25296 14.3654 8.24693 14.3695C8.24086 14.3735 8.23472 14.3774 8.22849 14.3811C8.22224 14.3849 8.21593 14.3885 8.20952 14.3919C8.2031 14.3953 8.1966 14.3986 8.19002 14.4017C8.18344 14.4048 8.1768 14.4078 8.17008 14.4105C8.16336 14.4133 8.15658 14.4159 8.14974 14.4184C8.14288 14.4208 8.13597 14.4231 8.12902 14.4252C8.12205 14.4273 8.11505 14.4293 8.10799 14.431C8.10093 14.4328 8.09383 14.4344 8.08671 14.4358C8.07957 14.4372 8.07241 14.4385 8.06522 14.4396C8.05802 14.4406 8.0508 14.4415 8.04357 14.4422C8.03632 14.4429 8.02907 14.4435 8.02182 14.4438C8.01453 14.4442 8.00727 14.4444 8 14.4444C7.99272 14.4444 7.98546 14.4442 7.97819 14.4438C7.97092 14.4435 7.96368 14.4429 7.95644 14.4422C7.94919 14.4415 7.94197 14.4406 7.93478 14.4396C7.9276 14.4385 7.92043 14.4372 7.9133 14.4358C7.90616 14.4344 7.89907 14.4328 7.89202 14.431C7.88496 14.4293 7.87794 14.4273 7.87099 14.4252C7.86402 14.4231 7.85711 14.4208 7.85027 14.4184C7.84342 14.4159 7.83664 14.4133 7.82993 14.4105C7.82321 14.4078 7.81655 14.4048 7.80997 14.4017C7.80339 14.3986 7.79689 14.3953 7.79049 14.3919C7.78408 14.3885 7.77775 14.3849 7.77152 14.3811C7.76527 14.3774 7.75913 14.3735 7.75308 14.3695C7.74702 14.3654 7.74108 14.3612 7.73525 14.3569C7.72941 14.3526 7.72367 14.3481 7.71805 14.3435C7.71242 14.3389 7.70691 14.3341 7.70153 14.3292C7.69613 14.3243 7.69086 14.3193 7.68574 14.3142C7.68058 14.309 7.67557 14.3038 7.67069 14.2984C7.6658 14.293 7.66105 14.2875 7.65644 14.2819C7.65182 14.2763 7.64735 14.2705 7.64302 14.2647C7.63868 14.2588 7.63449 14.2529 7.63046 14.2468C7.62641 14.2408 7.62252 14.2346 7.61878 14.2284C7.61503 14.2222 7.61146 14.2158 7.60803 14.2094C7.6046 14.203 7.60133 14.1965 7.59822 14.1899C7.59511 14.1834 7.59218 14.1767 7.58939 14.17C7.58661 14.1633 7.58399 14.1565 7.58153 14.1497C7.57908 14.1428 7.5768 14.1359 7.57469 14.1289C7.57258 14.122 7.57064 14.115 7.56888 14.1079C7.5671 14.1008 7.5655 14.0938 7.5641 14.0866C7.56267 14.0795 7.56142 14.0723 7.56036 14.0651C7.5593 14.0579 7.55841 14.0507 7.55771 14.0435C7.55699 14.0362 7.55644 14.029 7.5561 14.0217C7.55574 14.0145 7.55557 14.0072 7.55557 13.9999L7.55557 10.2888C7.52269 10.2824 7.48997 10.2753 7.45741 10.2675C7.42483 10.2596 7.39244 10.2511 7.36025 10.2419C7.32805 10.2327 7.29607 10.2228 7.2643 10.2122C7.23252 10.2016 7.20099 10.1903 7.16971 10.1784C7.13842 10.1664 7.10741 10.1538 7.07666 10.1405C7.04591 10.1273 7.01547 10.1133 6.98533 10.0987C6.95519 10.0841 6.92538 10.0689 6.89589 10.053C6.86639 10.0371 6.83727 10.0206 6.8085 10.0035C6.77972 9.98633 6.75132 9.96858 6.72332 9.95024C6.6953 9.93186 6.66771 9.91291 6.64052 9.89338C6.61332 9.87381 6.58655 9.85369 6.56024 9.833C6.53389 9.8123 6.50803 9.79103 6.48263 9.76922C6.45721 9.74741 6.43227 9.72505 6.40783 9.70217C6.38338 9.67927 6.35944 9.65586 6.336 9.63195C6.31257 9.60803 6.28964 9.58361 6.26725 9.55871C6.24486 9.5338 6.22302 9.50842 6.20174 9.48258C6.18043 9.45672 6.15971 9.43042 6.13955 9.40369C6.11938 9.37694 6.0998 9.34978 6.08082 9.3222C6.06182 9.29461 6.04343 9.26663 6.02564 9.23825C6.00785 9.20988 5.99067 9.18113 5.97414 9.15202C5.95758 9.12289 5.94168 9.09344 5.92639 9.06364C5.91111 9.03383 5.89647 9.00372 5.8825 8.97328C5.8685 8.94285 5.85519 8.91213 5.84253 8.88113C5.82988 8.85011 5.81789 8.81885 5.80658 8.78733C5.79527 8.7558 5.78463 8.72405 5.77469 8.69208C5.76474 8.6601 5.75549 8.62792 5.74694 8.59555C5.73838 8.56316 5.73052 8.53061 5.72336 8.49789C5.71621 8.46517 5.70975 8.43231 5.70402 8.39933C5.69827 8.36633 5.69324 8.33322 5.68893 8.30002C5.68461 8.2668 5.68102 8.2335 5.67814 8.20014C5.67525 8.16677 5.67308 8.13336 5.67164 8.09991C5.67021 8.06644 5.66949 8.03297 5.66949 7.99949C5.66949 7.96599 5.67021 7.9325 5.67164 7.89905C5.67308 7.86558 5.67525 7.83217 5.67814 7.79881C5.68102 7.76544 5.68461 7.73216 5.68893 7.69894C5.69324 7.66572 5.69827 7.63263 5.70402 7.59963C5.70975 7.56663 5.71621 7.53378 5.72336 7.50106C5.73052 7.46835 5.73838 7.4358 5.74694 7.40342C5.75549 7.37103 5.76474 7.33885 5.77469 7.30688C5.78463 7.27489 5.79527 7.24314 5.80658 7.21163C5.81789 7.1801 5.82988 7.14883 5.84253 7.11783C5.85519 7.08681 5.8685 7.0561 5.8825 7.02567C5.89647 6.99524 5.91111 6.96511 5.92639 6.93531C5.94168 6.9055 5.95758 6.87605 5.97414 6.84694C5.99067 6.81781 6.00785 6.78908 6.02564 6.7607C6.04343 6.73233 6.06182 6.70435 6.08082 6.67675C6.0998 6.64916 6.11938 6.622 6.13955 6.59527C6.15971 6.56852 6.18043 6.54222 6.20174 6.51638C6.22302 6.49053 6.24486 6.46516 6.26725 6.44025C6.28964 6.41535 6.31257 6.39092 6.336 6.367C6.35944 6.34308 6.38338 6.31967 6.40783 6.29678C6.43227 6.27389 6.45721 6.25155 6.48263 6.22974C6.50803 6.20791 6.53389 6.18664 6.56024 6.16595C6.58655 6.14525 6.61332 6.12513 6.64052 6.10558C6.66771 6.08603 6.6953 6.06708 6.72332 6.04872C6.75132 6.03036 6.77972 6.01261 6.8085 5.99549C6.83727 5.97833 6.86639 5.96183 6.89589 5.94595C6.92538 5.93006 6.95519 5.91483 6.98533 5.90024C7.01547 5.88564 7.04591 5.87169 7.07666 5.85841C7.10741 5.84513 7.13842 5.8325 7.16971 5.82056C7.20099 5.8086 7.23252 5.79733 7.2643 5.78675C7.29607 5.77616 7.32805 5.76625 7.36025 5.75703C7.39244 5.74781 7.42483 5.7393 7.45741 5.73149C7.48997 5.72367 7.52269 5.71655 7.55557 5.71014L7.55557 1.99992C7.55557 1.99265 7.55574 1.98538 7.5561 1.97811C7.55644 1.97085 7.55699 1.9636 7.55771 1.95636C7.55841 1.94912 7.5593 1.9419 7.56036 1.9347C7.56142 1.92751 7.56267 1.92035 7.5641 1.91322C7.5655 1.90608 7.5671 1.89899 7.56888 1.89193C7.57064 1.88487 7.57258 1.87786 7.57469 1.8709C7.5768 1.86395 7.57908 1.85704 7.58153 1.85018C7.58399 1.84334 7.58661 1.83656 7.58939 1.82984C7.59218 1.82312 7.59511 1.81647 7.59824 1.80989C7.60133 1.80331 7.6046 1.79682 7.60803 1.7904C7.61146 1.784 7.61503 1.77767 7.61878 1.77143C7.62252 1.7652 7.62641 1.75905 7.63046 1.753C7.63449 1.74696 7.63868 1.74101 7.64302 1.73517C7.64735 1.72933 7.65182 1.72359 7.65644 1.71797C7.66105 1.71234 7.6658 1.70684 7.67069 1.70145C7.67557 1.69606 7.68058 1.69079 7.68574 1.68565C7.69086 1.68051 7.69613 1.67549 7.70153 1.67061C7.70691 1.66572 7.71242 1.66097 7.71805 1.65636C7.72367 1.65174 7.72941 1.64727 7.73525 1.64293C7.7411 1.6386 7.74703 1.63441 7.75308 1.63037C7.75913 1.62633 7.76527 1.62244 7.77152 1.6187C7.77775 1.61496 7.78408 1.61138 7.79049 1.60795C7.79689 1.60452 7.80339 1.60126 7.80997 1.59815C7.81655 1.59504 7.82321 1.59209 7.82993 1.58931C7.83664 1.58653 7.84342 1.58391 7.85027 1.58145C7.85711 1.579 7.86402 1.57672 7.87099 1.57461C7.87794 1.5725 7.88496 1.57056 7.89202 1.56879C7.89907 1.56702 7.90616 1.56543 7.9133 1.56401C7.92043 1.5626 7.9276 1.56135 7.93478 1.56028C7.94197 1.55922 7.94919 1.55833 7.95644 1.55761C7.96368 1.5569 7.97092 1.55637 7.97819 1.55601C7.98546 1.55565 7.99272 1.55548 8 1.55548ZM12.3333 11.3333C12.317 11.3333 12.3006 11.3336 12.2843 11.3345C12.2679 11.3353 12.2516 11.3365 12.2353 11.3381C12.219 11.3397 12.2028 11.3417 12.1866 11.3441C12.1704 11.3465 12.1543 11.3493 12.1383 11.3525C12.1222 11.3557 12.1062 11.3593 12.0904 11.3632C12.0745 11.3672 12.0587 11.3716 12.0431 11.3763C12.0274 11.3811 12.0118 11.3862 11.9964 11.3917C11.981 11.3972 11.9658 11.4031 11.9507 11.4094C11.9355 11.4156 11.9206 11.4223 11.9058 11.4293C11.891 11.4363 11.8764 11.4436 11.8619 11.4513C11.8475 11.459 11.8333 11.4671 11.8192 11.4755C11.8052 11.4839 11.7914 11.4927 11.7778 11.5018C11.7641 11.5109 11.7508 11.5203 11.7376 11.53C11.7245 11.5398 11.7116 11.5499 11.6989 11.5603C11.6863 11.5706 11.6739 11.5813 11.6618 11.5923C11.6496 11.6033 11.6378 11.6146 11.6262 11.6261C11.6147 11.6377 11.6034 11.6496 11.5924 11.6617C11.5814 11.6738 11.5707 11.6862 11.5603 11.6989C11.5499 11.7115 11.5399 11.7244 11.5301 11.7375C11.5204 11.7507 11.511 11.7641 11.5019 11.7777C11.4928 11.7913 11.484 11.8051 11.4756 11.8192C11.4672 11.8332 11.4591 11.8474 11.4514 11.8619C11.4437 11.8763 11.4363 11.8909 11.4293 11.9057C11.4223 11.9205 11.4157 11.9354 11.4095 11.9506C11.4032 11.9657 11.3973 11.981 11.3918 11.9964C11.3863 12.0118 11.3811 12.0273 11.3764 12.043C11.3716 12.0586 11.3673 12.0744 11.3633 12.0903C11.3593 12.1062 11.3557 12.1221 11.3526 12.1382C11.3494 12.1542 11.3466 12.1703 11.3442 12.1865C11.3418 12.2027 11.3398 12.219 11.3382 12.2352C11.3365 12.2515 11.3353 12.2678 11.3345 12.2842C11.3337 12.3005 11.3333 12.3169 11.3333 12.3333C11.3333 12.3496 11.3337 12.366 11.3345 12.3823C11.3353 12.3987 11.3365 12.415 11.3382 12.4313C11.3398 12.4475 11.3418 12.4638 11.3442 12.48C11.3466 12.4962 11.3494 12.5123 11.3526 12.5283C11.3557 12.5444 11.3593 12.5604 11.3633 12.5762C11.3673 12.5921 11.3716 12.6079 11.3764 12.6235C11.3811 12.6392 11.3863 12.6547 11.3918 12.6701C11.3973 12.6855 11.4032 12.7008 11.4095 12.7159C11.4157 12.731 11.4223 12.746 11.4293 12.7608C11.4363 12.7756 11.4437 12.7902 11.4514 12.8047C11.4591 12.8191 11.4672 12.8333 11.4756 12.8474C11.484 12.8614 11.4928 12.8752 11.5019 12.8888C11.511 12.9024 11.5204 12.9158 11.5301 12.929C11.5399 12.9421 11.5499 12.955 11.5603 12.9676C11.5707 12.9803 11.5814 12.9927 11.5924 13.0048C11.6034 13.0169 11.6147 13.0288 11.6262 13.0404C11.6378 13.0519 11.6496 13.0632 11.6618 13.0742C11.6739 13.0852 11.6863 13.0959 11.6989 13.1063C11.7116 13.1166 11.7245 13.1267 11.7376 13.1365C11.7508 13.1462 11.7641 13.1556 11.7778 13.1647C11.7914 13.1738 11.8052 13.1826 11.8192 13.191C11.8333 13.1994 11.8475 13.2075 11.8619 13.2152C11.8764 13.2229 11.891 13.2303 11.9058 13.2373C11.9206 13.2442 11.9355 13.2509 11.9507 13.2571C11.9658 13.2634 11.981 13.2693 11.9964 13.2748C12.0118 13.2803 12.0274 13.2854 12.0431 13.2902C12.0587 13.295 12.0745 13.2993 12.0904 13.3033C12.1062 13.3073 12.1222 13.3108 12.1383 13.314C12.1543 13.3172 12.1704 13.32 12.1866 13.3224C12.2028 13.3248 12.219 13.3268 12.2353 13.3284C12.2516 13.33 12.2679 13.3312 12.2843 13.332C12.3006 13.3328 12.317 13.3333 12.3333 13.3333C12.3497 13.3333 12.366 13.3328 12.3824 13.332C12.3988 13.3312 12.4151 13.33 12.4314 13.3284C12.4476 13.3268 12.4639 13.3248 12.4801 13.3224C12.4963 13.32 12.5124 13.3172 12.5284 13.314C12.5445 13.3108 12.5604 13.3073 12.5763 13.3033C12.5922 13.2993 12.608 13.295 12.6236 13.2902C12.6393 13.2854 12.6548 13.2803 12.6702 13.2748C12.6856 13.2693 12.7009 13.2634 12.716 13.2571C12.7311 13.2509 12.7461 13.2442 12.7609 13.2373C12.7757 13.2303 12.7903 13.2229 12.8047 13.2152C12.8192 13.2075 12.8334 13.1994 12.8474 13.191C12.8615 13.1826 12.8753 13.1738 12.8889 13.1647C12.9025 13.1556 12.9159 13.1462 12.929 13.1365C12.9422 13.1267 12.9551 13.1166 12.9677 13.1063C12.9804 13.0959 12.9928 13.0852 13.0049 13.0742C13.017 13.0632 13.0289 13.0519 13.0404 13.0404C13.052 13.0288 13.0633 13.0169 13.0743 13.0048C13.0853 12.9927 13.096 12.9803 13.1063 12.9677C13.1167 12.955 13.1268 12.9421 13.1365 12.929C13.1463 12.9158 13.1557 12.9024 13.1648 12.8888C13.1739 12.8752 13.1826 12.8614 13.1911 12.8474C13.1995 12.8333 13.2075 12.8191 13.2153 12.8047C13.223 12.7902 13.2303 12.7756 13.2373 12.7608C13.2443 12.746 13.2509 12.731 13.2572 12.7159C13.2635 12.7008 13.2694 12.6855 13.2749 12.6701C13.2804 12.6547 13.2855 12.6392 13.2903 12.6235C13.295 12.6079 13.2994 12.5921 13.3034 12.5762C13.3073 12.5604 13.3109 12.5444 13.3141 12.5283C13.3173 12.5123 13.3201 12.4962 13.3225 12.48C13.3249 12.4638 13.3269 12.4475 13.3285 12.4313C13.3301 12.415 13.3313 12.3987 13.3321 12.3823C13.3329 12.366 13.3333 12.3496 13.3333 12.3333C13.3333 12.3169 13.3329 12.3005 13.3321 12.2842C13.3313 12.2678 13.3301 12.2515 13.3285 12.2352C13.3269 12.219 13.3249 12.2027 13.3225 12.1865C13.3201 12.1703 13.3173 12.1542 13.3141 12.1382C13.3109 12.1221 13.3073 12.1062 13.3034 12.0903C13.2994 12.0744 13.295 12.0586 13.2903 12.043C13.2855 12.0273 13.2804 12.0118 13.2749 11.9964C13.2694 11.981 13.2635 11.9657 13.2572 11.9506C13.2509 11.9354 13.2443 11.9205 13.2373 11.9057C13.2303 11.8909 13.223 11.8763 13.2153 11.8619C13.2075 11.8474 13.1995 11.8332 13.1911 11.8192C13.1826 11.8051 13.1739 11.7913 13.1648 11.7777C13.1557 11.7641 13.1463 11.7507 13.1365 11.7376C13.1268 11.7244 13.1167 11.7115 13.1063 11.6989C13.096 11.6862 13.0853 11.6738 13.0743 11.6617C13.0633 11.6496 13.052 11.6377 13.0404 11.6261C13.0289 11.6146 13.017 11.6033 13.0049 11.5923C12.9928 11.5813 12.9804 11.5706 12.9677 11.5603C12.9551 11.5499 12.9422 11.5398 12.929 11.53C12.9159 11.5203 12.9025 11.5109 12.8889 11.5018C12.8753 11.4927 12.8615 11.4839 12.8474 11.4755C12.8334 11.4671 12.8192 11.459 12.8047 11.4513C12.7903 11.4436 12.7757 11.4363 12.7609 11.4293C12.7461 11.4223 12.7311 11.4156 12.716 11.4094C12.7009 11.4031 12.6856 11.3972 12.6702 11.3917C12.6548 11.3862 12.6393 11.3811 12.6236 11.3763C12.608 11.3716 12.5922 11.3672 12.5763 11.3632C12.5604 11.3593 12.5445 11.3557 12.5284 11.3525C12.5124 11.3493 12.4963 11.3465 12.4801 11.3441C12.4639 11.3417 12.4476 11.3397 12.4314 11.3381C12.4151 11.3365 12.3988 11.3353 12.3824 11.3345C12.366 11.3336 12.3497 11.3333 12.3333 11.3333ZM8 6.99992C7.98363 6.99992 7.96728 7.00031 7.95094 7.00113C7.93458 7.00192 7.91827 7.00313 7.90199 7.00474C7.88569 7.00633 7.86946 7.00835 7.85327 7.01075C7.83708 7.01314 7.82096 7.01594 7.80491 7.01914C7.78885 7.02233 7.77289 7.02591 7.75702 7.02989C7.74114 7.03386 7.72538 7.03824 7.70972 7.04299C7.69405 7.04774 7.67852 7.05286 7.66311 7.05838C7.64771 7.06388 7.63244 7.06977 7.61732 7.07605C7.60219 7.0823 7.58724 7.08894 7.57244 7.09594C7.55764 7.10292 7.54303 7.11028 7.52861 7.118C7.51417 7.12572 7.49992 7.13378 7.48589 7.14219C7.47186 7.1506 7.45803 7.15936 7.44443 7.16845C7.43082 7.17755 7.41744 7.18697 7.4043 7.19672C7.39114 7.20647 7.37825 7.21653 7.36561 7.22691C7.35296 7.23728 7.34057 7.24797 7.32844 7.25897C7.31632 7.26995 7.30446 7.28124 7.29289 7.29281C7.28132 7.30438 7.27003 7.31624 7.25905 7.32836C7.24805 7.34049 7.23736 7.35288 7.22699 7.36553C7.21661 7.37817 7.20655 7.39106 7.1968 7.40422C7.18705 7.41736 7.17763 7.43074 7.16853 7.44434C7.15944 7.45795 7.15068 7.47178 7.14227 7.48581C7.13386 7.49985 7.1258 7.5141 7.11808 7.52853C7.11036 7.54295 7.103 7.55756 7.09602 7.57236C7.08902 7.58716 7.08238 7.60211 7.07613 7.61724C7.06985 7.63236 7.06396 7.64763 7.05846 7.66303C7.05294 7.67844 7.04782 7.69397 7.04307 7.70964C7.03832 7.7253 7.03394 7.74106 7.02997 7.75694C7.02599 7.77281 7.02241 7.78877 7.01922 7.80483C7.01602 7.82088 7.01322 7.837 7.01083 7.85319C7.00842 7.86938 7.00641 7.88561 7.00482 7.90191C7.00321 7.91819 7.002 7.9345 7.00121 7.95086C7.00039 7.9672 7 7.98355 7 7.99992C7 8.01628 7.00039 8.03264 7.00121 8.04899C7.002 8.06533 7.00321 8.08166 7.00482 8.09794C7.00641 8.11422 7.00842 8.13047 7.01083 8.14666C7.01322 8.16285 7.01602 8.17896 7.01922 8.19502C7.02241 8.21106 7.02599 8.22703 7.02997 8.24291C7.03394 8.25878 7.03832 8.27455 7.04307 8.29021C7.04782 8.30586 7.05294 8.32141 7.05846 8.33681C7.06396 8.35222 7.06985 8.36749 7.07613 8.38261C7.08238 8.39772 7.08902 8.41267 7.09602 8.42747C7.103 8.44227 7.11036 8.45688 7.11808 8.47131C7.1258 8.48575 7.13386 8.49999 7.14227 8.51403C7.15068 8.52806 7.15944 8.54188 7.16853 8.5555C7.17763 8.5691 7.18705 8.58247 7.1968 8.59563C7.20655 8.60877 7.21661 8.62166 7.22699 8.63431C7.23736 8.64697 7.24805 8.65936 7.25905 8.67149C7.27003 8.68361 7.28132 8.69545 7.29289 8.70703C7.30446 8.7186 7.31632 8.72988 7.32844 8.74088C7.34057 8.75186 7.35296 8.76255 7.36561 8.77294C7.37825 8.78331 7.39114 8.79338 7.4043 8.80313C7.41744 8.81288 7.43082 8.8223 7.44443 8.83139C7.45803 8.84049 7.47186 8.84924 7.48589 8.85766C7.49992 8.86606 7.51417 8.87413 7.52861 8.88185C7.54303 8.88956 7.55764 8.89691 7.57244 8.90391C7.58724 8.91091 7.60219 8.91753 7.61732 8.9238C7.63244 8.93005 7.64771 8.93594 7.66311 8.94147C7.67852 8.94697 7.69405 8.95211 7.70972 8.95686C7.72538 8.96161 7.74114 8.96597 7.75702 8.96995C7.77289 8.97392 7.78885 8.97752 7.80491 8.9807C7.82096 8.98389 7.83708 8.98669 7.85327 8.98909C7.86946 8.9915 7.88569 8.9935 7.90199 8.99511C7.91827 8.9967 7.93458 8.99791 7.95094 8.99872C7.96728 8.99952 7.98363 8.99992 8 8.99992C8.01636 8.99992 8.03272 8.99952 8.04907 8.99872C8.06541 8.99791 8.08174 8.9967 8.09802 8.99511C8.1143 8.9935 8.13055 8.9915 8.14674 8.98909C8.16293 8.98669 8.17904 8.98389 8.1951 8.9807C8.21114 8.97752 8.22711 8.97392 8.24299 8.96995C8.25886 8.96597 8.27463 8.96161 8.29028 8.95686C8.30594 8.95211 8.32149 8.94697 8.33689 8.94147C8.3523 8.93594 8.36757 8.93005 8.38269 8.9238C8.3978 8.91753 8.41275 8.91091 8.42755 8.90391C8.44235 8.89691 8.45696 8.88956 8.47139 8.88185C8.48583 8.87413 8.50006 8.86606 8.51411 8.85766C8.52814 8.84924 8.54196 8.84049 8.55558 8.83139C8.56918 8.8223 8.58255 8.81288 8.59571 8.80313C8.60885 8.79338 8.62174 8.78331 8.63439 8.77294C8.64705 8.76255 8.65944 8.75186 8.67157 8.74088C8.68369 8.72988 8.69553 8.7186 8.70711 8.70703C8.71867 8.69545 8.72996 8.68361 8.74096 8.67149C8.75194 8.65936 8.76263 8.64697 8.77302 8.63431C8.78339 8.62166 8.79346 8.60877 8.80321 8.59563C8.81296 8.58247 8.82238 8.5691 8.83147 8.55549C8.84057 8.54188 8.84932 8.52806 8.85774 8.51403C8.86614 8.49999 8.87421 8.48575 8.88193 8.47131C8.88964 8.45688 8.89699 8.44227 8.90399 8.42747C8.91099 8.41267 8.91761 8.39772 8.92388 8.38261C8.93013 8.36749 8.93602 8.35222 8.94155 8.33681C8.94705 8.32141 8.95219 8.30586 8.95694 8.29021C8.96169 8.27455 8.96605 8.25878 8.97003 8.24291C8.974 8.22703 8.9776 8.21106 8.98078 8.19502C8.98397 8.17896 8.98677 8.16285 8.98917 8.14666C8.99158 8.13047 8.99358 8.11422 8.99519 8.09794C8.99678 8.08166 8.99799 8.06533 8.9988 8.04899C8.9996 8.03264 9 8.01628 9 7.99992C9 7.98355 8.9996 7.9672 8.9988 7.95086C8.99799 7.9345 8.99678 7.91819 8.99519 7.90191C8.99358 7.88561 8.99158 7.86938 8.98917 7.85319C8.98677 7.837 8.98397 7.82088 8.98078 7.80483C8.9776 7.78877 8.974 7.77281 8.97003 7.75694C8.96605 7.74106 8.96169 7.7253 8.95694 7.70964C8.95219 7.69397 8.94705 7.67844 8.94155 7.66303C8.93602 7.64763 8.93013 7.63236 8.92388 7.61724C8.91761 7.60211 8.91099 7.58716 8.90399 7.57236C8.89699 7.55756 8.88964 7.54295 8.88193 7.52853C8.87421 7.5141 8.86614 7.49985 8.85774 7.48581C8.84932 7.47178 8.84057 7.45795 8.83147 7.44434C8.82238 7.43074 8.81296 7.41736 8.80321 7.40422C8.79346 7.39106 8.78339 7.37817 8.77302 7.36553C8.76263 7.35288 8.75194 7.34049 8.74096 7.32836C8.72996 7.31624 8.71867 7.30438 8.70711 7.29281C8.69553 7.28124 8.68369 7.26995 8.67157 7.25897C8.65944 7.24797 8.64705 7.23728 8.63439 7.22691C8.62174 7.21653 8.60885 7.20647 8.59571 7.19672C8.58255 7.18697 8.56918 7.17755 8.55557 7.16845C8.54196 7.15936 8.52814 7.1506 8.51411 7.14219C8.50006 7.13378 8.48583 7.12572 8.47139 7.118C8.45696 7.11028 8.44235 7.10292 8.42755 7.09594C8.41275 7.08894 8.3978 7.0823 8.38269 7.07605C8.36757 7.06977 8.3523 7.06388 8.33689 7.05838C8.32149 7.05286 8.30594 7.04774 8.29028 7.04299C8.27463 7.03824 8.25886 7.03386 8.24299 7.02989C8.22711 7.02591 8.21114 7.02233 8.1951 7.01914C8.17904 7.01594 8.16293 7.01314 8.14674 7.01075C8.13055 7.00835 8.1143 7.00633 8.09802 7.00474C8.08174 7.00313 8.06541 7.00192 8.04907 7.00113C8.03272 7.00031 8.01636 6.99992 8 6.99992ZM3.66667 2.66659C3.6503 2.66659 3.63394 2.66699 3.6176 2.66779C3.60125 2.6686 3.58494 2.6698 3.56866 2.6714C3.55236 2.67301 3.53613 2.67501 3.51994 2.6774C3.50375 2.67981 3.48763 2.68261 3.47158 2.68579C3.45552 2.68899 3.43957 2.69258 3.42369 2.69656C3.40782 2.70053 3.39203 2.70489 3.37638 2.70965C3.36072 2.7144 3.34519 2.71953 3.32978 2.72504C3.31436 2.73056 3.2991 2.73644 3.28399 2.7427C3.26886 2.74897 3.25389 2.7556 3.23911 2.76259C3.22432 2.76959 3.20971 2.77695 3.19527 2.78467C3.18083 2.79238 3.1666 2.80044 3.15257 2.80886C3.13852 2.81727 3.12469 2.82603 3.1111 2.83512C3.09749 2.8442 3.08411 2.85362 3.07097 2.86337C3.05782 2.87312 3.04492 2.88319 3.03227 2.89358C3.01961 2.90395 3.00724 2.91464 2.99511 2.92564C2.98299 2.93663 2.97113 2.94791 2.95957 2.95949C2.94799 2.97105 2.93671 2.98291 2.92572 2.99503C2.91472 3.00716 2.90403 3.01955 2.89365 3.03221C2.88327 3.04485 2.8732 3.05774 2.86345 3.07089C2.8537 3.08403 2.84428 3.09741 2.8352 3.11102C2.82611 3.12463 2.81735 3.13845 2.80893 3.15249C2.80052 3.16652 2.79245 3.18075 2.78475 3.19519C2.77703 3.20963 2.76967 3.22424 2.76267 3.23903C2.75568 3.25381 2.74905 3.26878 2.74278 3.28391C2.73652 3.29902 2.73063 3.31428 2.72512 3.3297C2.71961 3.34511 2.71448 3.36064 2.70972 3.3763C2.70497 3.39196 2.70061 3.40774 2.69664 3.42361C2.69266 3.43949 2.68907 3.45544 2.68587 3.4715C2.68268 3.48755 2.67989 3.50367 2.67748 3.51986C2.67509 3.53605 2.67309 3.55228 2.67148 3.56858C2.66988 3.58486 2.66867 3.60117 2.66787 3.61752C2.66707 3.63386 2.66667 3.65022 2.66667 3.6666C2.66667 3.68295 2.66707 3.69931 2.66787 3.71566C2.66867 3.732 2.66988 3.74831 2.67148 3.76461C2.67309 3.78089 2.67509 3.79713 2.67748 3.81331C2.67989 3.8295 2.68268 3.84563 2.68587 3.86167C2.68907 3.87772 2.69266 3.89369 2.69664 3.90956C2.70061 3.92544 2.70497 3.94121 2.70972 3.95688C2.71448 3.97253 2.71961 3.98806 2.72512 4.00349C2.73063 4.01889 2.73652 4.03414 2.74278 4.04927C2.74905 4.06439 2.75568 4.07935 2.76267 4.09414C2.76967 4.10892 2.77703 4.12355 2.78475 4.13799C2.79245 4.15242 2.80052 4.16666 2.80893 4.18069C2.81735 4.19472 2.82611 4.20855 2.8352 4.22216C2.84428 4.23575 2.8537 4.24913 2.86345 4.26228C2.8732 4.27542 2.88327 4.28833 2.89365 4.30099C2.90403 4.31363 2.91472 4.32602 2.92572 4.33814C2.93671 4.35027 2.94799 4.36213 2.95957 4.3737C2.97113 4.38527 2.98299 4.39655 2.99511 4.40755C3.00724 4.41853 3.01961 4.42922 3.03227 4.4396C3.04492 4.44997 3.05782 4.46005 3.07097 4.4698C3.08411 4.47955 3.09749 4.48897 3.1111 4.49806C3.12469 4.50716 3.13852 4.51591 3.15257 4.52431C3.1666 4.53272 3.18083 4.5408 3.19527 4.54852C3.20971 4.55622 3.22432 4.56358 3.23911 4.57058C3.25389 4.57758 3.26886 4.5842 3.28399 4.59047C3.2991 4.59672 3.31436 4.60261 3.32978 4.60813C3.34519 4.61364 3.36072 4.61878 3.37638 4.62353C3.39203 4.62828 3.40782 4.63264 3.42369 4.63663C3.43957 4.6406 3.45552 4.64417 3.47158 4.64738C3.48763 4.65056 3.50375 4.65336 3.51994 4.65577C3.53613 4.65817 3.55236 4.66017 3.56866 4.66178C3.58494 4.66338 3.60125 4.66458 3.6176 4.66539C3.63394 4.66619 3.6503 4.6666 3.66667 4.6666C3.68303 4.6666 3.69939 4.66619 3.71574 4.66539C3.73208 4.66458 3.74839 4.66338 3.76469 4.66178C3.78097 4.66017 3.79721 4.65817 3.81339 4.65577C3.82958 4.65336 3.84571 4.65056 3.86175 4.64738C3.8778 4.64417 3.89377 4.6406 3.90964 4.63663C3.92552 4.63264 3.94128 4.62828 3.95696 4.62353C3.97261 4.61878 3.98814 4.61364 4.00357 4.60813C4.01897 4.60261 4.03422 4.59672 4.04935 4.59047C4.06447 4.5842 4.07942 4.57758 4.09422 4.57058C4.109 4.56358 4.12363 4.55622 4.13807 4.54852C4.1525 4.5408 4.16674 4.53272 4.18077 4.52431C4.1948 4.51591 4.20863 4.50716 4.22224 4.49806C4.23583 4.48897 4.24921 4.47955 4.26236 4.4698C4.2755 4.46005 4.28841 4.44997 4.30107 4.4396C4.31371 4.42922 4.3261 4.41853 4.33822 4.40755C4.35035 4.39655 4.36221 4.38527 4.37378 4.3737C4.38535 4.36213 4.39663 4.35027 4.40763 4.33814C4.41861 4.32602 4.4293 4.31363 4.43967 4.30099C4.45005 4.28833 4.46013 4.27542 4.46988 4.26228C4.47963 4.24913 4.48905 4.23575 4.49814 4.22216C4.50724 4.20855 4.51599 4.19472 4.52439 4.18069C4.5328 4.16666 4.54088 4.15242 4.5486 4.13799C4.5563 4.12355 4.56366 4.10892 4.57066 4.09414C4.57766 4.07935 4.58428 4.06439 4.59055 4.04927C4.5968 4.03414 4.60269 4.01889 4.60821 4.00349C4.61372 3.98806 4.61886 3.97253 4.62361 3.95688C4.62836 3.94121 4.63272 3.92544 4.63671 3.90956C4.64068 3.89369 4.64425 3.87772 4.64746 3.86167C4.65064 3.84563 4.65344 3.8295 4.65585 3.81331C4.65825 3.79713 4.66025 3.78089 4.66186 3.76461C4.66346 3.74831 4.66466 3.732 4.66547 3.71566C4.66627 3.69931 4.66667 3.68295 4.66667 3.6666C4.66667 3.65022 4.66627 3.63386 4.66547 3.61752C4.66466 3.60117 4.66346 3.58486 4.66186 3.56858C4.66025 3.55228 4.65825 3.53605 4.65585 3.51986C4.65344 3.50367 4.65064 3.48755 4.64746 3.4715C4.64425 3.45544 4.64068 3.43949 4.63671 3.42361C4.63272 3.40774 4.62836 3.39196 4.62361 3.3763C4.61886 3.36064 4.61372 3.34511 4.60821 3.3297C4.60269 3.31428 4.5968 3.29902 4.59055 3.28391C4.58428 3.26878 4.57766 3.25381 4.57066 3.23903C4.56366 3.22424 4.5563 3.20963 4.5486 3.19519C4.54088 3.18075 4.5328 3.16652 4.52439 3.15249C4.51599 3.13845 4.50724 3.12463 4.49814 3.11102C4.48905 3.09741 4.47963 3.08403 4.46988 3.07089C4.46013 3.05774 4.45005 3.04485 4.43967 3.03221C4.4293 3.01955 4.41861 3.00716 4.40763 2.99503C4.39663 2.98291 4.38535 2.97105 4.37378 2.95949C4.36221 2.94791 4.35035 2.93663 4.33822 2.92564C4.3261 2.91464 4.31371 2.90395 4.30107 2.89358C4.28841 2.88319 4.2755 2.87312 4.26236 2.86337C4.24921 2.85362 4.23583 2.8442 4.22224 2.83512C4.20863 2.82603 4.1948 2.81727 4.18077 2.80886C4.16674 2.80044 4.1525 2.79238 4.13807 2.78467C4.12363 2.77695 4.109 2.76959 4.09422 2.76259C4.07942 2.7556 4.06447 2.74897 4.04935 2.7427C4.03422 2.73644 4.01897 2.73056 4.00357 2.72504C3.98814 2.71953 3.97261 2.7144 3.95696 2.70965C3.94128 2.70489 3.92552 2.70053 3.90964 2.69656C3.89377 2.69258 3.8778 2.68899 3.86175 2.68579C3.84571 2.68261 3.82958 2.67981 3.81339 2.6774C3.79721 2.67501 3.78097 2.67301 3.76469 2.6714C3.74839 2.6698 3.73208 2.6686 3.71574 2.66779C3.69939 2.66699 3.68303 2.66659 3.66667 2.66659Z"   fill="#FFFFFF" >
</path>
</svg>
