<svg xmlns="http://www.w3.org/2000/svg" xmlns:xlink="http://www.w3.org/1999/xlink" width="14.39910888671875" height="14.4000244140625" viewBox="0 0 14.39910888671875 14.4000244140625" fill="none">
<path d="M8.87143 1.4089L2.00325 8.27551L1.3658 11.0331L3.79373 10.4706L2.86099 9.5379C2.6657 9.34261 2.6657 9.02544 2.86099 8.83015C3.05629 8.63485 3.37345 8.63485 3.56875 8.83015L4.6296 9.891L10.9931 3.52747L8.87143 1.40577L8.87143 1.4089ZM13.6991 10.2003C13.9757 10.2003 14.1991 10.4238 14.1991 10.7003C14.1991 10.9768 13.9757 11.2003 13.6991 11.2003L8.69957 11.2003C8.42303 11.2003 8.19961 10.9768 8.19961 10.7003C8.19961 10.4238 8.42303 10.2003 8.69957 10.2003L13.6991 10.2003ZM9.22452 0.348047L12.0524 3.17594C12.2477 3.37123 12.2477 3.68839 12.0524 3.88369L4.98738 10.9487L4.98269 10.955L4.97644 10.9597L4.8327 11.105C4.81622 11.1214 4.79917 11.1373 4.78157 11.1526C4.76397 11.1678 4.74587 11.1825 4.72724 11.1965C4.70862 11.2105 4.68953 11.2238 4.66998 11.2365C4.65044 11.2492 4.63047 11.2612 4.61008 11.2724C4.58969 11.2837 4.56894 11.2943 4.54781 11.3041C4.52668 11.314 4.50525 11.323 4.48348 11.3314C4.46172 11.3397 4.4397 11.3473 4.41743 11.3541C4.39513 11.3609 4.37263 11.3669 4.34993 11.3721L0.812725 12.1877C0.543998 12.2502 0.27527 12.0814 0.212776 11.8127C0.20853 11.7943 0.205339 11.7756 0.203201 11.7568C0.201065 11.738 0.199997 11.7191 0.199997 11.7002C0.199997 11.6813 0.201065 11.6624 0.203201 11.6436C0.205339 11.6248 0.20853 11.6062 0.212776 11.5877L1.02833 8.05053C1.03354 8.02781 1.03954 8.00531 1.04633 7.98302C1.05311 7.96072 1.06067 7.93869 1.069 7.91693C1.07732 7.89516 1.0864 7.87373 1.09623 7.85259C1.10606 7.83147 1.11662 7.8107 1.1279 7.79031C1.13918 7.76993 1.15117 7.74996 1.16385 7.73041C1.17653 7.71087 1.18988 7.69178 1.2039 7.67317C1.21791 7.65454 1.23257 7.63644 1.24785 7.61886C1.26314 7.60127 1.27902 7.58424 1.2955 7.56775L8.51677 0.346484C8.71207 0.151188 9.02923 0.151188 9.22452 0.346484L9.22452 0.348047ZM13.6991 13.2001C13.9757 13.2001 14.1991 13.4235 14.1991 13.7001C14.1991 13.9766 13.9757 14.2 13.6991 14.2L0.700235 14.2C0.423695 14.2 0.200277 13.9766 0.200277 13.7001C0.200277 13.4235 0.423695 13.2001 0.700235 13.2001L13.6991 13.2001Z" stroke="rgba(0, 115, 237, 1)" stroke-width="0.4"      fill="#0073ED" >
</path>
</svg>
