<svg xmlns="http://www.w3.org/2000/svg" xmlns:xlink="http://www.w3.org/1999/xlink" width="13.771575927734375" height="14" viewBox="0 0 13.771575927734375 14" fill="none">
<path d="M9.29196 1.16582L11.139 2.23224L10.0465 2.52497C6.95091 3.35439 5.1291 6.50976 5.95851 9.60531C6.05609 9.96949 6.36393 10.1472 6.72812 10.0497C7.0923 9.95207 7.27004 9.64423 7.17246 9.28005C6.52194 6.85216 8.00454 4.37317 10.4324 3.72265L11.4643 3.44618L10.3978 5.29323C10.2201 5.60107 10.3177 5.96525 10.6255 6.14299C10.9334 6.32072 11.2976 6.22315 11.4753 5.91531L13.2971 2.75995C13.3416 2.68298 13.3252 2.62229 13.3697 2.54532C13.4141 2.46837 13.3817 2.34697 13.3653 2.28627C13.3491 2.22558 13.3166 2.10419 13.2396 2.05974C13.2233 1.99905 13.1464 1.95461 13.0695 1.91019L9.91404 0.0883804C9.6062 -0.0893563 9.24202 0.00822177 9.06428 0.316063C8.88655 0.623903 8.98412 0.988086 9.29196 1.16582ZM13.1964 5.89366C12.8194 5.89366 12.568 6.14502 12.568 6.52206L12.568 10.0411C12.568 10.3553 12.3166 10.5438 12.0653 10.5438L3.95892 10.5438C3.64472 10.5438 3.4562 10.2925 3.4562 10.0411L3.4562 1.93477C3.4562 1.68341 3.70756 1.43205 3.95892 1.43205L6.9124 1.43205C7.28944 1.43205 7.5408 1.18068 7.5408 0.803645C7.5408 0.426604 7.28944 0.175244 6.9124 0.175244L3.95892 0.175244C3.01632 0.175244 2.1994 0.992165 2.1994 1.93477L2.1994 9.97829C2.1994 10.9837 3.01632 11.7378 3.95892 11.7378L12.0024 11.7378C13.0079 11.7378 13.762 10.9209 13.762 9.97829L13.762 6.52206C13.8248 6.14502 13.5734 5.89366 13.1964 5.89366ZM6.9124 12.7432L1.50816 12.7432C1.38248 12.7432 1.2568 12.6175 1.2568 12.4919L1.2568 7.08765C1.2568 6.71061 1.00544 6.45925 0.6284 6.45925C0.25136 6.45925 0 6.71061 0 7.08765L0 12.4919C0 13.3088 0.69124 14 1.50816 14L6.9124 14C7.28944 14 7.5408 13.7486 7.5408 13.3716C7.5408 12.9946 7.28944 12.7432 6.9124 12.7432Z" fill-rule="evenodd"  fill="#0073ED" >
</path>
</svg>
