<svg xmlns="http://www.w3.org/2000/svg" xmlns:xlink="http://www.w3.org/1999/xlink" width="14.0001220703125" height="14" viewBox="0 0 14.0001220703125 14" fill="none">
<path d="M13.3636 3.24545C12.9818 3.24545 12.7273 3.5 12.7273 3.88182L12.7273 9.99091C12.7273 10.3091 12.4727 10.5 12.2182 10.5L4.00909 10.5C3.69091 10.5 3.5 10.2455 3.5 9.99091L3.5 1.78182C3.5 1.52727 3.75455 1.27273 4.00909 1.27273L7 1.27273C7.38182 1.27273 7.63636 1.01818 7.63636 0.636364C7.63636 0.254545 7.38182 0 7 0L4.00909 0C3.05455 0 2.22727 0.827273 2.22727 1.78182L2.22727 9.92727C2.22727 10.9455 3.05455 11.7091 4.00909 11.7091L12.1545 11.7091C13.1727 11.7091 13.9364 10.8818 13.9364 9.92727L13.9364 3.88182C14 3.5 13.7455 3.24545 13.3636 3.24545ZM5.98195 5.47273L7.50922 7L7.50922 5.85455C7.50922 2.60909 10.1183 0 13.3638 0C13.7456 0 14.0001 0.254545 14.0001 0.636364C14.0001 1.01818 13.7456 1.27273 13.3638 1.27273C10.8183 1.27273 8.78195 3.37273 8.78195 5.91818L8.78195 7L10.3092 5.47273C10.5638 5.21818 10.9456 5.21818 11.2001 5.47273C11.4547 5.72727 11.4547 6.10909 11.2001 6.36364L8.59104 8.97273C8.5274 9.03636 8.46376 9.03636 8.40013 9.1C8.33649 9.16364 8.20922 9.16364 8.14558 9.16364C8.08195 9.16364 7.95467 9.16364 7.89104 9.1C7.8274 9.1 7.76376 9.03636 7.70013 8.97273L5.09104 6.36364C4.83649 6.10909 4.83649 5.72727 5.09104 5.47273C5.34558 5.21818 5.7274 5.21818 5.98195 5.47273ZM7 12.7273L1.52727 12.7273C1.4 12.7273 1.27273 12.6 1.27273 12.4727L1.27273 7C1.27273 6.61818 1.01818 6.36364 0.636364 6.36364C0.254545 6.36364 0 6.61818 0 7L0 12.4727C0 13.3 0.7 14 1.52727 14L7 14C7.38182 14 7.63636 13.7455 7.63636 13.3636C7.63636 12.9818 7.38182 12.7273 7 12.7273Z" fill-rule="evenodd"  fill="#0073ED" >
</path>
</svg>
