<svg xmlns="http://www.w3.org/2000/svg" xmlns:xlink="http://www.w3.org/1999/xlink" width="12.727294921875" height="14" viewBox="0 0 12.727294921875 14" fill="none">
<path d="M7.63637 1.27272L5.09092 1.27272C5.08051 1.27272 5.0701 1.27298 5.05969 1.27348C5.0493 1.274 5.03891 1.27477 5.02855 1.27578C5.01818 1.27681 5.00785 1.27808 4.99754 1.27961C4.98724 1.28114 4.97699 1.28291 4.96677 1.28495C4.95656 1.28698 4.9464 1.28926 4.9363 1.2918C4.9262 1.29432 4.91617 1.2971 4.90619 1.30012C4.89622 1.30314 4.88634 1.30641 4.87654 1.30992C4.86674 1.31343 4.85701 1.31718 4.84739 1.32117C4.83777 1.32515 4.82826 1.32937 4.81885 1.33381C4.80944 1.33827 4.80013 1.34295 4.79094 1.34786C4.78175 1.35278 4.7727 1.35791 4.76377 1.36326C4.75483 1.36861 4.74603 1.37419 4.73737 1.37998C4.72872 1.38576 4.7202 1.39176 4.71183 1.39796C4.70347 1.40416 4.69526 1.41056 4.68721 1.41717C4.67917 1.42378 4.67128 1.43058 4.66357 1.43758C4.65586 1.44457 4.64831 1.45175 4.64094 1.45911C4.63358 1.46648 4.6264 1.47402 4.61941 1.48174C4.61241 1.48945 4.60561 1.49734 4.599 1.50538C4.5924 1.51343 4.586 1.52164 4.57979 1.53C4.57359 1.53837 4.56759 1.54689 4.56181 1.55554C4.55602 1.5642 4.55044 1.573 4.54509 1.58194C4.53973 1.59087 4.5346 1.59992 4.52969 1.60911C4.52479 1.6183 4.5201 1.62761 4.51564 1.63702C4.5112 1.64643 4.50698 1.65594 4.503 1.66556C4.49901 1.67518 4.49526 1.68491 4.49175 1.69471C4.48825 1.70451 4.48498 1.71439 4.48195 1.72436C4.47892 1.73434 4.47615 1.74437 4.47363 1.75447C4.47109 1.76457 4.46881 1.77472 4.46678 1.78494C4.46474 1.79516 4.46297 1.8054 4.46144 1.81571C4.45991 1.82602 4.45864 1.83635 4.45761 1.84672C4.4566 1.85708 4.45584 1.86747 4.45531 1.87786C4.45481 1.88827 4.45455 1.89868 4.45455 1.90909L4.45455 2.54545L8.27274 2.54545L8.27274 1.90909C8.27274 1.89946 8.27251 1.88982 8.27208 1.8802C8.27165 1.87058 8.27099 1.86096 8.27011 1.85137C8.26923 1.84178 8.26813 1.83221 8.26683 1.82265C8.26552 1.8131 8.264 1.80359 8.26225 1.79411C8.26051 1.78464 8.25855 1.7752 8.25638 1.76582C8.25421 1.75644 8.25183 1.7471 8.24923 1.73781C8.24664 1.72853 8.24383 1.71932 8.24082 1.71017C8.23781 1.70102 8.23459 1.69193 8.23116 1.68292C8.22774 1.67393 8.2241 1.665 8.22027 1.65615C8.21643 1.64731 8.21241 1.63857 8.20819 1.6299C8.20395 1.62125 8.19952 1.61269 8.19491 1.60423C8.1903 1.59578 8.18549 1.58743 8.18049 1.57919C8.17549 1.57094 8.17032 1.56283 8.16495 1.55482C8.15958 1.54681 8.15403 1.53894 8.14832 1.5312C8.14259 1.52344 8.1367 1.51582 8.13063 1.50833C8.12456 1.50086 8.11831 1.49351 8.11191 1.4863C8.10551 1.4791 8.09895 1.47205 8.09222 1.46515C8.0855 1.45825 8.07862 1.45151 8.0716 1.44491C8.06457 1.43832 8.0574 1.43189 8.05007 1.42563C8.04275 1.41937 8.03528 1.41327 8.02769 1.40734C8.0201 1.40142 8.01236 1.39567 8.0045 1.3901C7.99664 1.38452 7.98866 1.37913 7.98056 1.37392C7.97244 1.36871 7.96423 1.36368 7.95589 1.35884C7.94755 1.35401 7.93912 1.34937 7.93058 1.34491C7.92203 1.34046 7.9134 1.3362 7.90466 1.33213C7.89592 1.32807 7.88709 1.32421 7.87818 1.32054C7.86926 1.31688 7.86027 1.31343 7.8512 1.31017C7.84213 1.30692 7.83299 1.30388 7.82379 1.30103C7.81459 1.2982 7.80531 1.29557 7.79599 1.29316C7.78665 1.29074 7.77727 1.28854 7.76784 1.28655C7.75842 1.28455 7.74895 1.28277 7.73945 1.28121C7.72993 1.27965 7.72038 1.27831 7.71082 1.27718L7.63637 1.27272ZM7.63637 5.72728C7.64678 5.72728 7.65719 5.72753 7.6676 5.72804C7.678 5.72856 7.68838 5.72932 7.69874 5.73033C7.70911 5.73136 7.71944 5.73263 7.72975 5.73417C7.74006 5.73569 7.7503 5.73746 7.76052 5.73951C7.77074 5.74154 7.78089 5.74382 7.79099 5.74635C7.80109 5.74887 7.81113 5.75165 7.82109 5.75468C7.83107 5.7577 7.84096 5.76097 7.85075 5.76447C7.86055 5.76798 7.87028 5.77174 7.8799 5.77572C7.88952 5.7797 7.89903 5.78392 7.90844 5.78837C7.91786 5.79283 7.92716 5.79751 7.93635 5.80242C7.94554 5.80732 7.95459 5.81246 7.96352 5.81781C7.97246 5.82316 7.98124 5.82874 7.98991 5.83451C7.99857 5.8403 8.00708 5.8463 8.01544 5.8525C8.02381 5.85871 8.03203 5.86512 8.04007 5.87173C8.04812 5.87833 8.05601 5.88513 8.06372 5.89213C8.07143 5.89913 8.07898 5.9063 8.08635 5.91367C8.0937 5.92102 8.10089 5.92857 8.10788 5.93628C8.11488 5.94399 8.12168 5.95188 8.12829 5.95993C8.1349 5.96799 8.14129 5.97619 8.1475 5.98456C8.1537 5.99292 8.1597 6.00143 8.16549 6.01009C8.17127 6.01876 8.17685 6.02754 8.18221 6.03648C8.18756 6.04541 8.19269 6.05448 8.1976 6.06365C8.2025 6.07284 8.20717 6.08214 8.21163 6.09156C8.21609 6.10097 8.22031 6.11048 8.22429 6.1201C8.22828 6.12972 8.23204 6.13945 8.23554 6.14925C8.23905 6.15904 8.24231 6.16893 8.24534 6.17891C8.24837 6.18887 8.25114 6.19891 8.25366 6.20901C8.2562 6.21911 8.25848 6.22926 8.26051 6.23948C8.26254 6.2497 8.26431 6.25996 8.26585 6.27026C8.26738 6.28057 8.26865 6.29089 8.26967 6.30126C8.27069 6.31162 8.27145 6.322 8.27198 6.3324C8.27248 6.34281 8.27274 6.35322 8.27274 6.36363L8.27274 10.1818C8.27269 10.1922 8.27238 10.2026 8.27183 10.2129C8.27128 10.2233 8.27046 10.2337 8.2694 10.244C8.26834 10.2543 8.26701 10.2646 8.26544 10.2749C8.26388 10.2851 8.26206 10.2954 8.25999 10.3055C8.25791 10.3157 8.2556 10.3258 8.25305 10.3359C8.25049 10.346 8.24768 10.3559 8.24462 10.3659C8.24157 10.3758 8.23827 10.3856 8.23473 10.3954C8.2312 10.4052 8.22744 10.4148 8.22343 10.4244C8.21942 10.434 8.21518 10.4435 8.21071 10.4528C8.20623 10.4622 8.20153 10.4715 8.19661 10.4806C8.19169 10.4897 8.18655 10.4988 8.18118 10.5076C8.17582 10.5165 8.17024 10.5253 8.16444 10.5339C8.15864 10.5425 8.15264 10.551 8.14644 10.5593C8.14022 10.5676 8.13382 10.5758 8.12721 10.5838C8.12061 10.5918 8.11381 10.5997 8.10681 10.6073C8.09982 10.615 8.09264 10.6225 8.08527 10.6298C8.07792 10.6371 8.07039 10.6443 8.06268 10.6512C8.05497 10.6582 8.04709 10.665 8.03905 10.6715C8.03101 10.6781 8.02281 10.6845 8.01447 10.6906C8.00612 10.6968 7.99762 10.7028 7.98897 10.7085C7.98033 10.7143 7.97155 10.7198 7.96263 10.7251C7.95373 10.7305 7.94469 10.7356 7.93551 10.7404C7.92636 10.7453 7.91708 10.75 7.90768 10.7544C7.89829 10.7588 7.88879 10.763 7.8792 10.767C7.86961 10.7709 7.85991 10.7747 7.85014 10.7782C7.84036 10.7817 7.8305 10.7849 7.82055 10.7879C7.81062 10.7909 7.80061 10.7937 7.79054 10.7962C7.78048 10.7987 7.77033 10.801 7.76015 10.803C7.74996 10.805 7.73974 10.8068 7.72947 10.8083C7.71919 10.8098 7.7089 10.8111 7.69856 10.8121C7.68823 10.8131 7.67788 10.8139 7.66751 10.8144C7.65715 10.8149 7.64676 10.8151 7.63637 10.8151C7.62599 10.8151 7.61561 10.8149 7.60524 10.8144C7.59488 10.8139 7.58453 10.8131 7.57419 10.8121C7.56385 10.8111 7.55356 10.8098 7.54329 10.8083C7.53301 10.8068 7.52279 10.805 7.51261 10.803C7.50242 10.801 7.49228 10.7987 7.48221 10.7962C7.47214 10.7937 7.46213 10.7909 7.4522 10.7879C7.44225 10.7849 7.43239 10.7817 7.42261 10.7782C7.41284 10.7747 7.40315 10.7709 7.39356 10.767C7.38397 10.763 7.37447 10.7588 7.36507 10.7544C7.35567 10.75 7.3464 10.7453 7.33724 10.7404C7.32807 10.7356 7.31903 10.7305 7.31011 10.7251C7.3012 10.7198 7.29242 10.7143 7.28378 10.7085C7.27513 10.7028 7.26663 10.6968 7.25828 10.6906C7.24994 10.6845 7.24174 10.6781 7.2337 10.6715C7.22566 10.665 7.21779 10.6582 7.21007 10.6512C7.20236 10.6443 7.19483 10.6371 7.18748 10.6298C7.18011 10.6225 7.17294 10.615 7.16594 10.6073C7.15895 10.5997 7.15215 10.5918 7.14554 10.5838C7.13893 10.5758 7.13253 10.5676 7.12631 10.5593C7.12011 10.551 7.11411 10.5425 7.10831 10.5339C7.10252 10.5253 7.09695 10.5165 7.09158 10.5076C7.08621 10.4988 7.08106 10.4897 7.07614 10.4806C7.07122 10.4715 7.06652 10.4622 7.06205 10.4528C7.05757 10.4435 7.05334 10.434 7.04932 10.4244C7.04531 10.4148 7.04155 10.4052 7.03802 10.3954C7.03448 10.3856 7.03119 10.3758 7.02813 10.3659C7.02507 10.3559 7.02227 10.346 7.0197 10.3359C7.01715 10.3258 7.01484 10.3157 7.01277 10.3055C7.01069 10.2954 7.00887 10.2851 7.00731 10.2749C7.00574 10.2646 7.00442 10.2543 7.00336 10.244C7.0023 10.2337 7.00148 10.2233 7.00092 10.2129C7.00037 10.2026 7.00006 10.1922 7.00001 10.1818L7.00001 6.36363C7.00001 6.35322 7.00027 6.34281 7.00078 6.33241C7.0013 6.322 7.00206 6.31162 7.00309 6.30126C7.0041 6.29089 7.00537 6.28057 7.00691 6.27026C7.00844 6.25996 7.01022 6.2497 7.01225 6.23948C7.01427 6.22926 7.01656 6.21911 7.01909 6.20901C7.02161 6.19891 7.02439 6.18887 7.02741 6.17891C7.03044 6.16895 7.03371 6.15906 7.03721 6.14925C7.04072 6.13945 7.04448 6.12974 7.04846 6.12012C7.05244 6.1105 7.05666 6.10097 7.06112 6.09156C7.06558 6.08214 7.07025 6.07284 7.07516 6.06366C7.08006 6.05448 7.08519 6.04542 7.09055 6.03649C7.0959 6.02756 7.10148 6.01876 7.10727 6.01009C7.11305 6.00143 7.11905 5.99292 7.12525 5.98456C7.13146 5.97619 7.13786 5.96799 7.14446 5.95993C7.15107 5.95189 7.15787 5.944 7.16487 5.93629C7.17186 5.92857 7.17904 5.92102 7.18641 5.91367C7.19377 5.9063 7.20132 5.89913 7.20903 5.89213C7.21674 5.88513 7.22463 5.87833 7.23267 5.87173C7.24072 5.86512 7.24893 5.85872 7.2573 5.85252C7.26566 5.84631 7.27416 5.84032 7.28283 5.83453C7.29149 5.82874 7.30028 5.82316 7.30921 5.81781C7.31815 5.81246 7.32722 5.80732 7.3364 5.80242C7.34558 5.79751 7.35488 5.79283 7.36429 5.78838C7.3737 5.78392 7.38324 5.7797 7.39286 5.77572C7.40248 5.77174 7.41219 5.76798 7.42198 5.76447C7.4318 5.76097 7.44169 5.7577 7.45165 5.75468C7.46161 5.75165 7.47165 5.74887 7.48175 5.74635C7.49185 5.74382 7.502 5.74154 7.51222 5.73951C7.52244 5.73748 7.5327 5.7357 7.543 5.73417C7.55331 5.73263 7.56363 5.73136 7.574 5.73035C7.58436 5.72932 7.59474 5.72856 7.60515 5.72804C7.61555 5.72753 7.62596 5.72728 7.63637 5.72728ZM5.09092 5.72728C5.10133 5.72728 5.11174 5.72753 5.12215 5.72804C5.13255 5.72856 5.14293 5.72932 5.1533 5.73035C5.16366 5.73136 5.17398 5.73263 5.18429 5.73417C5.1946 5.7357 5.20486 5.73748 5.21507 5.73951C5.22529 5.74154 5.23545 5.74382 5.24554 5.74635C5.25564 5.74887 5.26568 5.75165 5.27564 5.75468C5.28561 5.7577 5.29549 5.76097 5.30531 5.76447C5.31511 5.76798 5.32482 5.77174 5.33444 5.77572C5.34406 5.7797 5.35359 5.78392 5.363 5.78838C5.37241 5.79283 5.38172 5.79751 5.39089 5.80242C5.40008 5.80732 5.40913 5.81246 5.41806 5.81781C5.427 5.82316 5.4358 5.82874 5.44446 5.83453C5.45313 5.84032 5.46163 5.84631 5.47 5.85252C5.47836 5.85872 5.48657 5.86512 5.49462 5.87173C5.50266 5.87833 5.51055 5.88513 5.51826 5.89213C5.52599 5.89913 5.53353 5.9063 5.54089 5.91367C5.54825 5.92102 5.55543 5.92857 5.56242 5.93628C5.56942 5.944 5.57622 5.95189 5.58283 5.95993C5.58943 5.96799 5.59583 5.97619 5.60204 5.98456C5.60824 5.99292 5.61424 6.00143 5.62002 6.01009C5.62581 6.01876 5.63139 6.02754 5.63674 6.03648C5.6421 6.04541 5.64723 6.05448 5.65214 6.06366C5.65704 6.07284 5.66171 6.08214 5.66617 6.09156C5.67063 6.10097 5.67485 6.1105 5.67883 6.12012C5.68282 6.12974 5.68657 6.13945 5.69008 6.14925C5.69358 6.15906 5.69685 6.16895 5.69988 6.17891C5.70291 6.18887 5.70568 6.19891 5.7082 6.20901C5.71074 6.21911 5.71302 6.22926 5.71505 6.23948C5.71707 6.2497 5.71885 6.25996 5.72039 6.27026C5.72192 6.28057 5.72319 6.29089 5.72422 6.30126C5.72523 6.31162 5.72599 6.322 5.72652 6.3324C5.72702 6.34281 5.72728 6.35322 5.72728 6.36363L5.72728 10.1818C5.72723 10.1922 5.72692 10.2026 5.72637 10.2129C5.72582 10.2233 5.72499 10.2337 5.72394 10.244C5.72288 10.2543 5.72155 10.2646 5.71998 10.2749C5.71842 10.2851 5.7166 10.2954 5.71452 10.3055C5.71245 10.3157 5.71014 10.3258 5.70759 10.3359C5.70502 10.346 5.70222 10.3559 5.69916 10.3659C5.69611 10.3758 5.69281 10.3856 5.68927 10.3954C5.68574 10.4052 5.68198 10.4148 5.67797 10.4244C5.67396 10.434 5.66972 10.4435 5.66525 10.4528C5.66077 10.4622 5.65607 10.4715 5.65115 10.4806C5.64623 10.4897 5.64108 10.4988 5.63572 10.5076C5.63036 10.5165 5.62478 10.5253 5.61898 10.5339C5.61318 10.5425 5.60718 10.551 5.60098 10.5593C5.59476 10.5676 5.58836 10.5758 5.58175 10.5838C5.57515 10.5918 5.56834 10.5997 5.56135 10.6073C5.55435 10.615 5.54718 10.6225 5.53981 10.6298C5.53246 10.6371 5.52493 10.6443 5.51722 10.6512C5.50951 10.6582 5.50163 10.665 5.49359 10.6715C5.48555 10.6781 5.47736 10.6845 5.46901 10.6906C5.46066 10.6968 5.45216 10.7028 5.44351 10.7085C5.43487 10.7143 5.42609 10.7198 5.41718 10.7251C5.40826 10.7305 5.39923 10.7356 5.39005 10.7404C5.3809 10.7453 5.37162 10.75 5.36222 10.7544C5.35284 10.7588 5.34334 10.763 5.33374 10.767C5.32414 10.7709 5.31445 10.7747 5.30468 10.7782C5.2949 10.7817 5.28504 10.7849 5.27509 10.7879C5.26516 10.7909 5.25515 10.7937 5.24508 10.7962C5.23501 10.7987 5.22487 10.801 5.21469 10.803C5.2045 10.805 5.19428 10.8068 5.18401 10.8083C5.17373 10.8098 5.16344 10.8111 5.1531 10.8121C5.14277 10.8131 5.13242 10.8139 5.12205 10.8144C5.11168 10.8149 5.1013 10.8151 5.09092 10.8151C5.08053 10.8151 5.07015 10.8149 5.05978 10.8144C5.04941 10.8139 5.03906 10.8131 5.02873 10.8121C5.01839 10.8111 5.0081 10.8098 4.99782 10.8083C4.98755 10.8068 4.97733 10.805 4.96714 10.803C4.95696 10.801 4.94682 10.7987 4.93675 10.7962C4.92668 10.7937 4.91667 10.7909 4.90674 10.7879C4.89679 10.7849 4.88693 10.7817 4.87715 10.7782C4.86738 10.7747 4.85769 10.7709 4.84809 10.767C4.83849 10.763 4.82899 10.7588 4.81961 10.7544C4.81021 10.75 4.80093 10.7453 4.79178 10.7404C4.7826 10.7356 4.77357 10.7305 4.76466 10.7251C4.75574 10.7198 4.74696 10.7143 4.73832 10.7085C4.72967 10.7028 4.72117 10.6968 4.71282 10.6906C4.70448 10.6845 4.69628 10.6781 4.68824 10.6715C4.6802 10.665 4.67232 10.6582 4.66461 10.6512C4.6569 10.6443 4.64937 10.6371 4.64202 10.6298C4.63465 10.6225 4.62748 10.615 4.62048 10.6073C4.61349 10.5997 4.60668 10.5918 4.60008 10.5838C4.59347 10.5758 4.58707 10.5676 4.58085 10.5593C4.57465 10.551 4.56865 10.5425 4.56285 10.5339C4.55705 10.5253 4.55147 10.5165 4.54612 10.5076C4.54075 10.4988 4.5356 10.4897 4.53068 10.4806C4.52576 10.4715 4.52106 10.4622 4.51658 10.4528C4.51211 10.4435 4.50787 10.434 4.50386 10.4244C4.49985 10.4148 4.49609 10.4052 4.49256 10.3954C4.48902 10.3856 4.48573 10.3758 4.48267 10.3659C4.47961 10.3559 4.47681 10.346 4.47424 10.3359C4.47169 10.3258 4.46938 10.3157 4.46731 10.3055C4.46523 10.2954 4.46341 10.2851 4.46185 10.2749C4.46028 10.2646 4.45895 10.2543 4.45789 10.244C4.45684 10.2337 4.45602 10.2233 4.45546 10.2129C4.45491 10.2026 4.4546 10.1922 4.45455 10.1818L4.45455 6.36363C4.45455 6.35322 4.45481 6.34281 4.45531 6.3324C4.45584 6.322 4.4566 6.31162 4.45763 6.30126C4.45864 6.29089 4.45991 6.28057 4.46144 6.27026C4.46298 6.25996 4.46476 6.2497 4.46678 6.23948C4.46881 6.22926 4.47109 6.21911 4.47363 6.20901C4.47615 6.19891 4.47892 6.18887 4.48195 6.17891C4.48498 6.16893 4.48825 6.15904 4.49175 6.14925C4.49526 6.13945 4.49901 6.12972 4.503 6.1201C4.50698 6.11048 4.5112 6.10097 4.51566 6.09156C4.52012 6.08214 4.52479 6.07284 4.52969 6.06365C4.5346 6.05448 4.53975 6.04541 4.5451 6.03648C4.55046 6.02754 4.55602 6.01876 4.56181 6.01009C4.56759 6.00143 4.57359 5.99292 4.57979 5.98456C4.586 5.97619 4.5924 5.96799 4.599 5.95993C4.60561 5.95188 4.61241 5.94399 4.61941 5.93628C4.6264 5.92857 4.63359 5.92102 4.64094 5.91367C4.64831 5.9063 4.65586 5.89913 4.66357 5.89213C4.67128 5.88513 4.67917 5.87833 4.68722 5.87173C4.69526 5.86512 4.70348 5.85871 4.71185 5.8525C4.72022 5.8463 4.72872 5.8403 4.73738 5.83451C4.74605 5.82874 4.75483 5.82316 4.76377 5.81781C4.7727 5.81246 4.78175 5.80732 4.79094 5.80242C4.80013 5.79751 4.80944 5.79283 4.81885 5.78837C4.82826 5.78392 4.83777 5.7797 4.84739 5.77572C4.85701 5.77174 4.86674 5.76798 4.87654 5.76447C4.88634 5.76097 4.89622 5.7577 4.9062 5.75468C4.91617 5.75165 4.9262 5.74887 4.9363 5.74635C4.9464 5.74382 4.95656 5.74154 4.96677 5.73951C4.97699 5.73746 4.98725 5.73569 4.99756 5.73417C5.00786 5.73263 5.01818 5.73136 5.02855 5.73033C5.03891 5.72932 5.0493 5.72856 5.05969 5.72804C5.0701 5.72753 5.08051 5.72728 5.09092 5.72728ZM10.1818 3.81818L2.54546 3.81818L2.54546 12.0909C2.54546 12.1005 2.54569 12.1102 2.54612 12.1198C2.54655 12.1294 2.54721 12.139 2.54809 12.1486C2.54897 12.1582 2.55006 12.1678 2.55137 12.1774C2.55268 12.1869 2.5542 12.1964 2.55595 12.2059C2.55769 12.2154 2.55965 12.2248 2.56182 12.2342C2.56399 12.2436 2.56637 12.2529 2.56897 12.2622C2.57156 12.2715 2.57437 12.2807 2.57738 12.2898C2.58039 12.299 2.58361 12.3081 2.58704 12.3171C2.59046 12.3261 2.5941 12.335 2.59793 12.3438C2.60176 12.3527 2.60579 12.3614 2.61001 12.3701C2.61425 12.3787 2.61868 12.3873 2.62329 12.3958C2.6279 12.4042 2.63271 12.4126 2.63771 12.4208C2.64271 12.4291 2.64788 12.4372 2.65325 12.4452C2.65862 12.4532 2.66417 12.4611 2.66988 12.4688C2.67561 12.4766 2.6815 12.4842 2.68757 12.4917C2.69364 12.4991 2.69989 12.5065 2.70629 12.5137C2.71269 12.5209 2.71925 12.5279 2.72598 12.5348C2.7327 12.5418 2.73958 12.5485 2.7466 12.5551C2.75363 12.5617 2.7608 12.5681 2.76812 12.5744C2.77545 12.5806 2.78292 12.5867 2.79051 12.5927C2.7981 12.5986 2.80584 12.6043 2.8137 12.6099C2.82156 12.6155 2.82954 12.6209 2.83764 12.6261C2.84576 12.6313 2.85397 12.6363 2.86231 12.6412C2.87065 12.646 2.87908 12.6506 2.88762 12.6551C2.89617 12.6595 2.9048 12.6638 2.91354 12.6679C2.92228 12.6719 2.93111 12.6758 2.94002 12.6795C2.94894 12.6831 2.95793 12.6866 2.967 12.6898C2.97607 12.6931 2.98521 12.6961 2.99441 12.699C3.00361 12.7018 3.01289 12.7044 3.02221 12.7068C3.03155 12.7093 3.04093 12.7115 3.05036 12.7135C3.05978 12.7154 3.06925 12.7172 3.07875 12.7188C3.08827 12.7204 3.09782 12.7217 3.10738 12.7228L3.18183 12.7273L9.54546 12.7273C9.55587 12.7273 9.56628 12.727 9.57669 12.7265C9.58709 12.726 9.59747 12.7252 9.60783 12.7242C9.6182 12.7232 9.62854 12.7219 9.63884 12.7204C9.64915 12.7189 9.6594 12.7171 9.66961 12.715C9.67983 12.713 9.68999 12.7107 9.70008 12.7082C9.71018 12.7057 9.72022 12.7029 9.7302 12.6999C9.74016 12.6969 9.75005 12.6936 9.75985 12.6901C9.76965 12.6866 9.77937 12.6828 9.78899 12.6788C9.79861 12.6749 9.80814 12.6706 9.81755 12.6662C9.82696 12.6617 9.83626 12.657 9.84544 12.6521C9.85463 12.6472 9.86368 12.6421 9.87262 12.6367C9.88155 12.6314 9.89035 12.6258 9.89902 12.62C9.90767 12.6142 9.91618 12.6082 9.92455 12.602C9.93292 12.5958 9.94112 12.5894 9.94917 12.5828C9.95721 12.5762 9.9651 12.5694 9.97281 12.5624C9.98053 12.5554 9.98807 12.5483 9.99544 12.5409C10.0028 12.5335 10.01 12.526 10.017 12.5183C10.024 12.5106 10.0308 12.5027 10.0374 12.4946C10.044 12.4866 10.0504 12.4784 10.0566 12.47C10.0628 12.4616 10.0688 12.4531 10.0746 12.4444C10.0804 12.4358 10.0859 12.427 10.0913 12.4181C10.0967 12.4091 10.1018 12.4001 10.1067 12.3909C10.1116 12.3817 10.1163 12.3724 10.1207 12.363C10.1252 12.3536 10.1294 12.3441 10.1334 12.3344C10.1374 12.3248 10.1411 12.3151 10.1446 12.3053C10.1481 12.2955 10.1514 12.2856 10.1544 12.2756C10.1575 12.2657 10.1602 12.2556 10.1628 12.2455C10.1653 12.2354 10.1676 12.2253 10.1696 12.2151C10.1716 12.2048 10.1734 12.1946 10.1749 12.1843C10.1765 12.174 10.1777 12.1636 10.1788 12.1533C10.1798 12.1429 10.1805 12.1325 10.1811 12.1221C10.1816 12.1117 10.1818 12.1013 10.1818 12.0909L10.1818 3.81818ZM7.63637 0C7.66762 0 7.69883 0.000766608 7.73005 0.00229989C7.76125 0.0038331 7.79239 0.00613048 7.82349 0.00919197C7.85459 0.0122545 7.88558 0.0160781 7.91648 0.0206629C7.9474 0.0252477 7.97817 0.0305877 8.00882 0.0366829C8.03946 0.0427781 8.06993 0.0496215 8.10023 0.0572131C8.13054 0.0648047 8.16064 0.0731351 8.19054 0.0822043C8.22045 0.0912744 8.2501 0.101072 8.27952 0.111597C8.30894 0.122123 8.33808 0.133364 8.36694 0.145321C8.3958 0.157278 8.42436 0.169935 8.45261 0.183294C8.48086 0.196651 8.50876 0.210695 8.53631 0.225424C8.56386 0.240152 8.59103 0.255547 8.61784 0.271609C8.64464 0.28767 8.67102 0.304381 8.697 0.32174C8.72299 0.339098 8.74852 0.357082 8.77361 0.375694C8.79871 0.394307 8.82333 0.413523 8.84748 0.433345C8.87163 0.453165 8.89528 0.473567 8.91844 0.494547C8.94159 0.51553 8.96422 0.537066 8.98631 0.55916C9.00839 0.581253 9.02993 0.603874 9.05092 0.627023C9.0719 0.650174 9.09229 0.673825 9.11211 0.697976C9.13193 0.722128 9.15116 0.746752 9.16976 0.771847C9.18837 0.796942 9.20636 0.822479 9.22372 0.848457C9.24108 0.874439 9.25778 0.900828 9.27385 0.927625C9.28991 0.954422 9.30532 0.981597 9.32004 1.00915C9.33476 1.0367 9.34881 1.0646 9.36217 1.09285C9.37552 1.12109 9.38818 1.14965 9.40015 1.17852C9.41209 1.20739 9.42334 1.23653 9.43387 1.26594C9.44438 1.29536 9.45418 1.32502 9.46325 1.35492C9.47232 1.38481 9.48066 1.41491 9.48825 1.44523C9.49584 1.47553 9.50267 1.50601 9.50877 1.53664C9.51487 1.56729 9.52023 1.59806 9.5248 1.62896C9.52938 1.65988 9.53322 1.69087 9.53627 1.72197C9.53933 1.75307 9.54163 1.78421 9.54316 1.81541C9.5447 1.84663 9.54546 1.87785 9.54546 1.90909L9.54546 2.54545L12.0909 2.54545C12.1006 2.54545 12.1102 2.54567 12.1198 2.5461C12.1294 2.54654 12.1391 2.54719 12.1486 2.54807C12.1582 2.54895 12.1678 2.55004 12.1774 2.55135C12.1869 2.55267 12.1964 2.55419 12.2059 2.55593C12.2154 2.55768 12.2248 2.55963 12.2342 2.56181C12.2436 2.56397 12.2529 2.56636 12.2622 2.56895C12.2715 2.57155 12.2807 2.57435 12.2898 2.57736C12.299 2.58038 12.3081 2.5836 12.3171 2.58703C12.3261 2.59044 12.335 2.59408 12.3439 2.59792C12.3527 2.60175 12.3614 2.60578 12.3701 2.61C12.3788 2.61423 12.3873 2.61866 12.3958 2.62327C12.4042 2.62788 12.4126 2.6327 12.4208 2.63769C12.4291 2.64269 12.4372 2.64787 12.4452 2.65324C12.4532 2.6586 12.4611 2.66415 12.4688 2.66987C12.4766 2.67559 12.4842 2.68148 12.4917 2.68755C12.4992 2.69362 12.5065 2.69987 12.5137 2.70627C12.5209 2.71267 12.528 2.71923 12.5349 2.72596C12.5418 2.73269 12.5485 2.73956 12.5551 2.74659C12.5617 2.75361 12.5681 2.76079 12.5744 2.76811C12.5806 2.77543 12.5868 2.7829 12.5927 2.7905C12.5986 2.79809 12.6043 2.80583 12.6099 2.81369C12.6155 2.82155 12.6209 2.82953 12.6261 2.83763C12.6313 2.84574 12.6363 2.85396 12.6412 2.8623C12.646 2.87063 12.6506 2.87906 12.6551 2.88761C12.6596 2.89615 12.6638 2.90479 12.6679 2.91353C12.6719 2.92227 12.6758 2.9311 12.6795 2.94C12.6831 2.94892 12.6866 2.95791 12.6898 2.96698C12.6931 2.97605 12.6961 2.98519 12.699 2.9944C12.7018 3.0036 12.7044 3.01288 12.7069 3.0222C12.7093 3.03153 12.7115 3.04092 12.7135 3.05034C12.7155 3.05977 12.7172 3.06924 12.7188 3.07874C12.7204 3.08825 12.7217 3.0978 12.7228 3.10736L12.7273 3.18182C12.7273 3.19223 12.727 3.20264 12.7265 3.21305C12.726 3.22344 12.7252 3.23382 12.7242 3.24419C12.7232 3.25455 12.7219 3.26489 12.7204 3.2752C12.7189 3.2855 12.7171 3.29575 12.7151 3.30597C12.713 3.31618 12.7108 3.32634 12.7082 3.33644C12.7057 3.34653 12.7029 3.35657 12.6999 3.36655C12.6969 3.37651 12.6936 3.3864 12.6901 3.3962C12.6866 3.406 12.6828 3.41572 12.6788 3.42534C12.6749 3.43496 12.6706 3.44448 12.6662 3.45389C12.6617 3.4633 12.6571 3.47261 12.6522 3.4818C12.6472 3.49098 12.6421 3.50004 12.6368 3.50897C12.6314 3.51791 12.6258 3.52671 12.62 3.53536C12.6143 3.54402 12.6083 3.55254 12.6021 3.5609C12.5958 3.56927 12.5894 3.57747 12.5828 3.58553C12.5762 3.59357 12.5694 3.60146 12.5624 3.60917C12.5554 3.61688 12.5483 3.62443 12.5409 3.63179C12.5335 3.63916 12.526 3.64634 12.5183 3.65333C12.5106 3.66033 12.5027 3.66713 12.4946 3.67373C12.4866 3.68034 12.4784 3.68674 12.47 3.69295C12.4616 3.69915 12.4531 3.70515 12.4445 3.71093C12.4358 3.71672 12.427 3.7223 12.4181 3.72765C12.4091 3.73301 12.4001 3.73814 12.3909 3.74304C12.3817 3.74795 12.3724 3.75263 12.363 3.75708C12.3536 3.76154 12.3441 3.76576 12.3345 3.76974C12.3248 3.77372 12.3151 3.77748 12.3053 3.78099C12.2955 3.78449 12.2856 3.78776 12.2757 3.79079C12.2657 3.79381 12.2556 3.79659 12.2455 3.79911C12.2354 3.80164 12.2253 3.80393 12.2151 3.80595C12.2049 3.808 12.1946 3.80977 12.1843 3.81129C12.174 3.81283 12.1637 3.8141 12.1533 3.81513C12.1429 3.81614 12.1326 3.8169 12.1222 3.81742C12.1117 3.81793 12.1013 3.81818 12.0909 3.81818L11.4546 3.81818L11.4546 12.0909C11.4546 12.121 11.4539 12.151 11.4524 12.1811C11.451 12.2111 11.4489 12.2411 11.446 12.2711C11.4432 12.301 11.4397 12.3309 11.4354 12.3606C11.4312 12.3904 11.4262 12.4201 11.4206 12.4496C11.4149 12.4792 11.4086 12.5086 11.4015 12.5378C11.3945 12.567 11.3868 12.5961 11.3784 12.625C11.37 12.6539 11.3609 12.6825 11.3511 12.711C11.3413 12.7394 11.3309 12.7676 11.3198 12.7956C11.3087 12.8235 11.2969 12.8512 11.2845 12.8786C11.2721 12.906 11.2591 12.9331 11.2454 12.9599C11.2317 12.9866 11.2174 13.0131 11.2024 13.0392C11.1875 13.0653 11.172 13.091 11.1558 13.1164C11.1397 13.1418 11.1229 13.1667 11.1056 13.1913C11.0882 13.2159 11.0703 13.2401 11.0519 13.2638C11.0334 13.2875 11.0144 13.3108 10.9948 13.3336C10.9752 13.3565 10.9551 13.3788 10.9345 13.4007C10.9138 13.4226 10.8927 13.444 10.8711 13.4649C10.8494 13.4858 10.8273 13.5061 10.8047 13.5259C10.7821 13.5458 10.759 13.5651 10.7355 13.5838C10.712 13.6026 10.688 13.6208 10.6636 13.6384C10.6393 13.656 10.6145 13.673 10.5893 13.6895C10.5641 13.7059 10.5386 13.7218 10.5126 13.737C10.4867 13.7522 10.4604 13.7668 10.4338 13.7808C10.4072 13.7948 10.3802 13.8082 10.353 13.8209C10.3257 13.8336 10.2982 13.8457 10.2704 13.8571C10.2425 13.8685 10.2145 13.8793 10.1861 13.8894C10.1578 13.8995 10.1292 13.9089 10.1005 13.9177C10.0717 13.9264 10.0427 13.9344 10.0136 13.9418C9.9844 13.9492 9.9551 13.9559 9.92562 13.9619C9.89614 13.9679 9.86655 13.9732 9.83682 13.9777C9.8071 13.9823 9.77728 13.9862 9.74738 13.9894C9.71747 13.9926 9.68749 13.9951 9.65747 13.9968L9.54546 14L3.18183 14C3.15058 14 3.11937 13.9992 3.08815 13.9977C3.05695 13.9962 3.02581 13.9939 2.99471 13.9908C2.96361 13.9878 2.93262 13.9839 2.9017 13.9793C2.8708 13.9747 2.84003 13.9694 2.80938 13.9633C2.77874 13.9572 2.74827 13.9504 2.71795 13.9428C2.68764 13.9352 2.65755 13.9269 2.62766 13.9178C2.59775 13.9087 2.5681 13.8989 2.53868 13.8884C2.50926 13.8779 2.48012 13.8666 2.45124 13.8547C2.42238 13.8427 2.39382 13.8301 2.36559 13.8167C2.33734 13.8033 2.30943 13.7893 2.28189 13.7746C2.25434 13.7599 2.22716 13.7445 2.20036 13.7284C2.17356 13.7123 2.14718 13.6956 2.1212 13.6783C2.09521 13.6609 2.06968 13.6429 2.04458 13.6243C2.01949 13.6057 1.99487 13.5865 1.97072 13.5667C1.94657 13.5468 1.92292 13.5264 1.89976 13.5055C1.87661 13.4845 1.85398 13.4629 1.83189 13.4408C1.8098 13.4188 1.78827 13.3961 1.76728 13.373C1.7463 13.3498 1.72591 13.3262 1.70609 13.302C1.68627 13.2779 1.66704 13.2532 1.64843 13.2281C1.62983 13.2031 1.61184 13.1775 1.59448 13.1515C1.57712 13.1256 1.56041 13.0992 1.54435 13.0724C1.52829 13.0456 1.51288 13.0184 1.49816 12.9909C1.48343 12.9633 1.46939 12.9354 1.45603 12.9071C1.44267 12.8789 1.43001 12.8503 1.41805 12.8215C1.4061 12.7926 1.39486 12.7635 1.38433 12.7341C1.37381 12.7046 1.36402 12.675 1.35495 12.6451C1.34588 12.6152 1.33755 12.5851 1.32995 12.5548C1.32236 12.5245 1.31552 12.494 1.30941 12.4634C1.30332 12.4327 1.29798 12.4019 1.2934 12.371C1.28881 12.3401 1.28499 12.3091 1.28193 12.278C1.27886 12.2469 1.27657 12.2158 1.27504 12.1846C1.2735 12.1534 1.27274 12.1222 1.27274 12.0909L1.27274 3.81818L0.636369 3.81818C0.626734 3.81818 0.617104 3.81796 0.607479 3.81753C0.597855 3.8171 0.588244 3.81644 0.578649 3.81556C0.569054 3.81468 0.559479 3.81358 0.549923 3.81228C0.540377 3.81097 0.530866 3.80944 0.521391 3.8077C0.511916 3.80595 0.502483 3.80399 0.493098 3.80182C0.483712 3.79966 0.474375 3.79727 0.465088 3.79468C0.455811 3.79208 0.446598 3.78928 0.437451 3.78627C0.428293 3.78325 0.41921 3.78003 0.410201 3.7766C0.401203 3.77319 0.392278 3.76955 0.383429 3.76571C0.374589 3.76188 0.36584 3.75785 0.357179 3.75363C0.348529 3.74941 0.339972 3.74498 0.331511 3.74036C0.32305 3.73575 0.314702 3.73093 0.306469 3.72594C0.298226 3.72094 0.290103 3.71576 0.282098 3.7104C0.274093 3.70503 0.266218 3.69948 0.258473 3.69377C0.250717 3.68804 0.243096 3.68215 0.235609 3.67608C0.228132 3.67001 0.220791 3.66376 0.213586 3.65736C0.206385 3.65096 0.199333 3.6444 0.192431 3.63767C0.185528 3.63094 0.178782 3.62407 0.172193 3.61704C0.165602 3.61002 0.159175 3.60284 0.152911 3.59552C0.146647 3.5882 0.140551 3.58073 0.134625 3.57313C0.1287 3.56554 0.12295 3.5578 0.117376 3.54994C0.111802 3.54208 0.10641 3.5341 0.101198 3.526C0.095986 3.51789 0.0909608 3.50967 0.0861224 3.50133C0.0812841 3.493 0.0766377 3.48457 0.0721831 3.47602C0.0677285 3.46748 0.0634699 3.45884 0.0594071 3.4501C0.0553443 3.44136 0.0514824 3.43253 0.0478213 3.42363C0.0441592 3.41471 0.040702 3.40572 0.0374495 3.39665C0.034196 3.38758 0.0311506 3.37844 0.0283127 3.36923C0.0254749 3.36003 0.0228475 3.35076 0.0204303 3.34143C0.0180141 3.3321 0.0158103 3.32272 0.0138185 3.31329C0.0118279 3.30386 0.0100526 3.29439 0.00849243 3.28489C0.00693145 3.27538 0.00558712 3.26583 0.00445958 3.25627L0 3.18182C0 3.1714 0.000255574 3.16099 0.000766608 3.15058C0.00127764 3.14019 0.0020438 3.12981 0.00306496 3.11944C0.0040852 3.10908 0.00535943 3.09874 0.00688765 3.08843C0.00841596 3.07813 0.0101958 3.06788 0.0122272 3.05766C0.0142596 3.04745 0.0165409 3.03729 0.0190715 3.02719C0.021602 3.0171 0.0243788 3.00706 0.0274014 2.99708C0.0304251 2.98712 0.033691 2.97723 0.037199 2.96743C0.040708 2.95763 0.044455 2.94791 0.0484402 2.93829C0.0524265 2.92867 0.0566459 2.91915 0.0610984 2.90974C0.0655509 2.90033 0.0702322 2.89102 0.0751422 2.88183C0.0800511 2.87265 0.0851828 2.86359 0.0905372 2.85466C0.0958916 2.84573 0.101462 2.83693 0.107248 2.82826C0.113034 2.81961 0.119028 2.81109 0.125232 2.80273C0.131437 2.79436 0.137842 2.78616 0.14445 2.7781C0.151055 2.77006 0.157857 2.76217 0.16485 2.75446C0.171844 2.74675 0.179024 2.7392 0.186389 2.73184C0.193752 2.72447 0.201293 2.71729 0.20901 2.7103C0.21673 2.7033 0.224612 2.6965 0.232656 2.6899C0.24071 2.68329 0.248917 2.67688 0.25728 2.67069C0.265652 2.66448 0.274164 2.65849 0.282814 2.6527C0.291475 2.64691 0.300275 2.64133 0.309213 2.63598C0.318143 2.63062 0.327201 2.62549 0.336388 2.62059C0.345576 2.61568 0.354878 2.611 0.364294 2.60654C0.3737 2.60209 0.383216 2.59787 0.39284 2.59389C0.402465 2.58991 0.41218 2.58615 0.421984 2.58264C0.431787 2.57914 0.441671 2.57587 0.451635 2.57284C0.461608 2.56982 0.471646 2.56704 0.481748 2.56452C0.491849 2.56199 0.502006 2.55971 0.512218 2.55768C0.522431 2.55563 0.532686 2.55386 0.542988 2.55234C0.553298 2.5508 0.563634 2.54953 0.573995 2.5485C0.584357 2.54749 0.594737 2.54673 0.605137 2.54621C0.615548 2.5457 0.625959 2.54545 0.636369 2.54545L3.18183 2.54545L3.18183 1.90909C3.18183 1.87901 3.18255 1.84896 3.18396 1.81892C3.18538 1.78886 3.1875 1.75887 3.19035 1.72894C3.19318 1.69899 3.19672 1.66913 3.20097 1.63936C3.20522 1.60957 3.21015 1.57992 3.21581 1.55038C3.22146 1.52083 3.22781 1.49144 3.23484 1.4622C3.24188 1.43297 3.2496 1.40391 3.25802 1.37502C3.26643 1.34615 3.27553 1.31749 3.28529 1.28904C3.29506 1.26059 3.30549 1.23239 3.31659 1.20444C3.3277 1.17649 3.33945 1.14882 3.35184 1.12141C3.36425 1.09402 3.3773 1.06693 3.391 1.04014C3.40469 1.01337 3.41901 0.986922 3.43393 0.96081C3.44886 0.934709 3.46442 0.908971 3.48057 0.883596C3.49673 0.858231 3.51346 0.833258 3.53081 0.80868C3.54814 0.784101 3.56604 0.759946 3.58451 0.736213C3.60299 0.712479 3.62203 0.689197 3.64159 0.666364C3.66118 0.643531 3.68128 0.621172 3.70191 0.599289C3.72255 0.577406 3.74369 0.556023 3.76533 0.535138C3.78697 0.514254 3.8091 0.493893 3.83171 0.474054C3.85431 0.454216 3.87738 0.434924 3.9009 0.416175C3.92442 0.397427 3.94836 0.379244 3.97275 0.361628C3.99712 0.344012 4.02189 0.326981 4.04708 0.310536C4.07227 0.29409 4.09782 0.278249 4.12374 0.263012C4.14968 0.247775 4.17596 0.233158 4.20258 0.219162C4.22921 0.205168 4.25614 0.191809 4.28339 0.179086C4.31064 0.166364 4.33819 0.154292 4.36602 0.142872C4.39384 0.131452 4.42192 0.120695 4.45024 0.110601C4.47858 0.100507 4.50714 0.0910886 4.53591 0.0823445C4.56468 0.0736015 4.59366 0.0655426 4.62282 0.0581677C4.65198 0.0507927 4.68129 0.0441105 4.71076 0.0381207C4.74025 0.032132 4.76984 0.0268421 4.79956 0.0222514C4.82929 0.0176616 4.85912 0.0137763 4.88902 0.0105955C4.91893 0.00741466 4.94889 0.00494176 4.97891 0.00317686L5.09092 0L7.63637 0Z"   fill="#C00000" >
</path>
</svg>
