<svg xmlns="http://www.w3.org/2000/svg" xmlns:xlink="http://www.w3.org/1999/xlink" width="14" height="14" viewBox="0 0 14 14" fill="none">
<path d="M13.0753 6.07314L7.92686 6.07314L7.92686 0.926859C7.92686 0.417087 7.50977 0 7 0C6.49022 0 6.07314 0.417087 6.07314 0.926859L6.07314 6.07314L0.926859 6.07314C0.417087 6.07314 0 6.49022 0 7C0 7.50977 0.417087 7.92686 0.926859 7.92686L6.07314 7.92686L6.07314 13.0731C6.07314 13.5829 6.49022 14 7 14C7.50977 14 7.92686 13.5829 7.92686 13.0731L7.92686 7.92686L13.0731 7.92686C13.5829 7.92686 14 7.50977 14 7C14.0022 6.49022 13.5851 6.07314 13.0753 6.07314Z"   fill="#0073ED" >
</path>
</svg>
