<svg xmlns="http://www.w3.org/2000/svg" xmlns:xlink="http://www.w3.org/1999/xlink" width="16" height="16" viewBox="0 0 16 16" fill="none">
<g  clip-path="url(#clip-path-HzeSivovHTxXTARG-loPU)">
<path d="M12.4958 7.39197C11.7678 7.39197 11.1758 7.98397 11.1758 8.71997C11.1758 9.45597 11.7678 10.048 12.4958 10.048C13.2238 10.048 13.8158 9.45597 13.8158 8.71997C13.8158 7.99197 13.2238 7.39197 12.4958 7.39197ZM12.4958 9.13597C12.2718 9.13597 12.0878 8.95197 12.0878 8.71997C12.0878 8.49597 12.2718 8.30397 12.4958 8.30397C12.7198 8.30397 12.9038 8.48797 12.9038 8.71997C12.9038 8.95197 12.7198 9.13597 12.4958 9.13597Z"   fill="#5380FD" >
</path>
<path d="M15.6639 9.28797L15.3038 9.07997C15.3198 8.95997 15.3278 8.83997 15.3278 8.72797C15.3278 8.61597 15.3198 8.50397 15.3038 8.37597L15.6639 8.16797C15.9839 7.98397 16.0957 7.56797 15.9118 7.24797L15.4798 6.49597C15.4761 6.48961 15.4723 6.48333 15.4684 6.4771C15.4645 6.47086 15.4605 6.4647 15.4564 6.4586C15.4523 6.4525 15.4481 6.44647 15.4438 6.4405C15.4395 6.43455 15.4351 6.42866 15.4307 6.42283C15.4262 6.41702 15.4216 6.41127 15.4169 6.4056C15.4122 6.39992 15.4075 6.39435 15.4026 6.38883C15.3978 6.38331 15.3928 6.37788 15.3878 6.37253C15.3827 6.36717 15.3776 6.36191 15.3724 6.35672C15.3672 6.35153 15.3619 6.34644 15.3565 6.34142C15.3512 6.33641 15.3457 6.33149 15.3402 6.32666C15.3346 6.32183 15.329 6.31708 15.3233 6.31242C15.3176 6.30778 15.3119 6.30322 15.3061 6.29875C15.3002 6.2943 15.2943 6.28992 15.2883 6.28566C15.2823 6.28139 15.2763 6.27722 15.2702 6.27314C15.2641 6.26906 15.2579 6.2651 15.2516 6.26122C15.2454 6.25736 15.2391 6.2536 15.2327 6.24992C15.2263 6.24625 15.2199 6.24269 15.2134 6.23924C15.2069 6.23578 15.2004 6.23244 15.1938 6.22921C15.1872 6.22596 15.1806 6.22281 15.1739 6.2198C15.1672 6.21678 15.1604 6.21386 15.1536 6.21106C15.1468 6.20825 15.14 6.20556 15.1331 6.20299C15.1262 6.20041 15.1193 6.19794 15.1123 6.19558C15.1054 6.19322 15.0984 6.19099 15.0914 6.18886C15.0843 6.18672 15.0773 6.1847 15.0702 6.18281C15.0631 6.18092 15.0559 6.17916 15.0488 6.17749C15.0416 6.17581 15.0344 6.17427 15.0272 6.17285C15.02 6.17142 15.0128 6.17011 15.0055 6.16892C14.9983 6.16772 14.991 6.16664 14.9837 6.16569C14.9764 6.16474 14.9691 6.16391 14.9618 6.16319C14.9545 6.16247 14.9472 6.16188 14.9399 6.16139C14.9325 6.16092 14.9252 6.16056 14.9178 6.16033C14.9105 6.1601 14.9032 6.15997 14.8958 6.15997C14.7758 6.15997 14.6638 6.19197 14.5598 6.24797L14.1918 6.46397C13.9998 6.31997 13.8078 6.19997 13.5998 6.11197L13.5998 5.90397C13.5998 5.52797 13.2958 5.23197 12.9278 5.23197L12.0638 5.23197C11.6958 5.23197 11.3918 5.53597 11.3918 5.90397L11.3918 6.11197C11.1838 6.19997 10.9838 6.31997 10.7998 6.46397L10.4318 6.24797C10.3278 6.19197 10.2158 6.15997 10.0958 6.15997C9.8558 6.15997 9.6318 6.28797 9.5118 6.49597L9.0798 7.24797C8.8958 7.56797 9.0078 7.98397 9.3278 8.16797L9.6878 8.37597C9.6718 8.49597 9.6638 8.60797 9.6638 8.72797C9.6638 8.83997 9.6718 8.95197 9.6878 9.07997L9.3278 9.28797C9.0078 9.47197 8.8958 9.88797 9.0798 10.208L9.5118 10.96C9.6318 11.168 9.8558 11.296 10.0958 11.296C10.2158 11.296 10.3278 11.264 10.4318 11.208L10.7998 10.992C10.9918 11.136 11.1838 11.256 11.3918 11.344L11.3918 11.552C11.3918 11.928 11.6958 12.224 12.0638 12.224L12.9278 12.224C13.2958 12.224 13.5998 11.92 13.5998 11.552L13.5998 11.344C13.8078 11.256 14.0078 11.136 14.1918 10.992L14.5598 11.208C14.6638 11.264 14.7758 11.296 14.8958 11.296C15.1358 11.296 15.3598 11.168 15.4798 10.96L15.9118 10.208C16.0957 9.87997 15.9839 9.47197 15.6639 9.28797ZM14.3118 8.11197C14.3838 8.31997 14.4158 8.51997 14.4158 8.71997C14.4158 8.91997 14.3838 9.12797 14.3118 9.32797C14.2798 9.43197 14.3198 9.55197 14.4158 9.60797L14.9998 9.94397L14.8078 10.28L14.2318 9.94397C14.1358 9.88797 14.0078 9.90397 13.9278 9.99197C13.6558 10.304 13.2798 10.52 12.8798 10.608C12.7678 10.632 12.6878 10.728 12.6878 10.84L12.6878 11.296L12.3038 11.296L12.3038 10.84C12.3038 10.728 12.2238 10.624 12.1118 10.608C11.7118 10.528 11.3358 10.312 11.0638 9.99197C10.9918 9.90397 10.8638 9.88797 10.7598 9.94397L10.1838 10.28L9.9918 9.94397L10.5758 9.60797C10.6718 9.55197 10.7198 9.43197 10.6798 9.32797C10.6078 9.11997 10.5758 8.91997 10.5758 8.71997C10.5758 8.51997 10.6078 8.31197 10.6798 8.11197C10.7118 8.00797 10.6718 7.88797 10.5758 7.83197L9.9918 7.49597L10.1838 7.15997L10.7598 7.49597C10.8558 7.55197 10.9838 7.53597 11.0638 7.44797C11.3358 7.13597 11.7118 6.91997 12.1118 6.83197C12.2238 6.80797 12.3038 6.71197 12.3038 6.59997L12.3038 6.14397L12.6878 6.14397L12.6878 6.59997C12.6878 6.71197 12.7678 6.81597 12.8798 6.83197C13.2798 6.91197 13.6558 7.13597 13.9278 7.44797C13.9998 7.53597 14.1278 7.55197 14.2318 7.49597L14.8078 7.15997L14.9998 7.49597L14.4158 7.83197C14.3198 7.88797 14.2798 7.99997 14.3118 8.11197ZM7.6158 2.71997L4.3358 2.71997C3.9838 2.71997 3.6958 3.00797 3.6958 3.35997C3.6958 3.71197 3.9838 3.99997 4.3358 3.99997L7.6158 3.99997C7.9678 3.99997 8.2558 3.71197 8.2558 3.35997C8.2558 3.00797 7.9678 2.71997 7.6158 2.71997ZM7.6158 5.70397L4.3358 5.70397C3.9838 5.70397 3.6958 5.99197 3.6958 6.34397C3.6958 6.69597 3.9838 6.98397 4.3358 6.98397L7.6158 6.98397C7.9678 6.98397 8.2558 6.69597 8.2558 6.34397C8.2558 5.99197 7.9678 5.70397 7.6158 5.70397ZM7.6158 8.68797L4.3358 8.68797C3.9838 8.68797 3.6958 8.97597 3.6958 9.32797C3.6958 9.67997 3.9838 9.96797 4.3358 9.96797L7.6158 9.96797C7.9678 9.96797 8.2558 9.67997 8.2558 9.32797C8.2558 8.96797 7.9678 8.68797 7.6158 8.68797ZM7.6158 11.664L4.3358 11.664C3.9838 11.664 3.6958 11.952 3.6958 12.304C3.6958 12.656 3.9838 12.944 4.3358 12.944L7.6158 12.944C7.9678 12.944 8.2558 12.656 8.2558 12.304C8.2558 11.952 7.9678 11.664 7.6158 11.664Z"   fill="#5380FD" >
</path>
<path d="M14.8002 13C14.8002 12.648 14.5122 12.36 14.1602 12.36C13.8082 12.36 13.5202 12.648 13.5202 13L13.5202 13.792C13.4962 14.304 12.9842 14.72 12.3602 14.72L3.6482 14.72C3.0082 14.72 2.4882 14.288 2.4882 13.76L2.4882 2.24C2.4882 1.712 3.0082 1.28 3.6482 1.28L12.3602 1.28C13.0002 1.28 13.5202 1.712 13.5202 2.24L13.5202 4.232C13.5202 4.584 13.8082 4.872 14.1602 4.872C14.5122 4.872 14.8002 4.584 14.8002 4.232L14.8002 1.392C14.8002 0.624 14.1602 0 13.3762 0L2.6242 0C1.8402 0 1.2002 0.624 1.2002 1.392L1.2002 14.6C1.2002 15.368 1.8402 15.992 2.6242 15.992L13.3762 15.992C13.9922 15.992 14.5202 15.6 14.7122 15.064C14.7682 14.968 14.7922 14.864 14.7922 14.752L14.7922 14.64L14.7922 13L14.8002 13Z"   fill="#5380FD" >
</path>
</g>
<defs>
<clipPath id="clip-path-HzeSivovHTxXTARG-loPU">
<path d="M0 16L16 16L16 0L0 0L0 16Z" fill="white"/>
</clipPath>
</defs>
</svg>
