<?xml version="1.0" standalone="no"?><!DOCTYPE svg PUBLIC "-//W3C//DTD SVG 1.1//EN" "http://www.w3.org/Graphics/SVG/1.1/DTD/svg11.dtd"><svg t="1762408134903" class="icon" viewBox="0 0 1024 1024" version="1.1" xmlns="http://www.w3.org/2000/svg" p-id="8326" xmlns:xlink="http://www.w3.org/1999/xlink" width="200" height="200"><path d="M411.328 1022.848c-10.048 0-19.072-6.4-22.848-16.128-0.256-0.704-13.056-32.384-69.056-134.016-31.104-56.32-53.824-112.576-73.856-162.176-17.536-43.392-34.112-84.352-53.696-119.552C177.216 564.864 176.384 536.064 189.44 512.064 204.608 484.224 236.8 466.24 271.488 466.24c20.608 0 39.744 6.016 56.192 17.152l2.816-244.672c0.832-34.176 19.904-98.112 86.016-98.112 24.896 0.384 44.736 9.088 58.88 25.216C498.88 192.64 498.88 230.528 498.496 239.296l2.88 109.632c10.688-4.864 22.912-7.424 36.48-7.424 34.688 0.384 59.456 11.328 75.008 32.64C616.384 378.88 619.2 383.872 621.376 388.864c12.864-6.08 27.712-8.768 45.952-7.36 24.832 1.856 45.248 12.288 59.136 30.144 6.464 8.384 11.072 17.664 14.272 27.328 13.376-6.272 29.184-7.616 46.08-3.648 61.12 14.336 72.512 81.344 70.016 115.904l0.192 103.616c0.128 4.352 2.816 125.248-64.256 245.504-45.76 82.048-55.808 101.376-57.984 105.728-0.96 2.56-2.304 5.056-4.032 7.232-4.992 6.336-12.8 9.984-20.544 9.344L411.328 1022.848 411.328 1022.848 411.328 1022.848zM271.488 518.272c-16.704 0-32.768 8.128-39.104 19.648C228.16 545.728 228.864 554.496 234.496 564.736c21.184 38.016 38.336 80.512 56.512 125.44 20.416 50.56 41.6 102.848 71.104 156.416 37.248 67.52 56 105.216 64.896 124.224l269.824-0.064c8.192-15.424 23.616-43.456 53.248-96.64 59.968-107.456 57.472-217.216 57.472-218.304l-0.256-105.408c0-0.768 0.064-1.536 0.128-2.368 0.128-2.048 3.52-53.632-31.424-61.824C773.12 485.504 770.432 485.184 768 485.184c-4.032 0-16.128 0-22.592 26.56-1.152 8.704-2.432 14.144-2.432 14.144-3.072 13.184-15.296 21.632-27.968 19.52-12.736-2.176-21.76-14.208-20.736-27.648 0.064-1.216 0.576-7.296 2.496-15.68 3.008-25.216-0.192-46.656-8.64-57.536C684.8 440.32 678.72 434.56 663.808 433.408 643.968 432 630.4 435.648 627.712 462.208l0.96 25.152c0.512 13.568-8.96 25.344-21.824 26.88-12.8 1.856-24.64-7.424-27.136-20.8C579.392 491.84 576.96 478.144 578.112 460.928l-0.64-16.256C577.408 442.176 577.664 439.68 578.24 437.248l0 0c0 0 4.096-19.84-4.672-31.616-7.296-9.792-23.04-11.968-34.944-12.16l0 0c-15.808 0-30.336 4.096-35.2 33.024l1.344 51.648c0.384 13.504-9.088 25.024-21.76 26.56-12.8 1.792-24.448-7.296-27.136-20.48C455.616 483.008 449.92 454.016 453.888 423.296L449.024 239.68c0-0.832 0-1.664 0-2.432 0.32-6.4-0.832-25.792-10.176-36.288C434.048 195.52 427.008 192.768 417.28 192.64l0 0c-35.2 0-37.248 42.176-37.376 47.04L376.32 556.288C376.192 568.768 367.68 579.392 355.968 581.568 344.384 583.744 332.8 577.024 328.512 565.376 312.896 522.88 283.456 518.272 271.488 518.272L271.488 518.272 271.488 518.272zM271.488 518.272" fill="#272636" p-id="8327"></path><path d="M413.952 1.152c-90.176 0-163.2 73.088-163.2 163.2 0 55.872 28.032 105.152 70.848 134.592L321.6 242.368C304.064 221.504 293.568 194.56 293.568 165.248c0-66.496 53.888-120.384 120.384-120.384s120.384 53.888 120.384 120.384c0 28.928-10.176 55.488-27.2 76.224l0 56.96c42.368-29.504 70.08-78.528 70.08-134.016C577.152 74.24 504.064 1.152 413.952 1.152z" fill="#272636" p-id="8328"></path></svg>